<svg xmlns="http://www.w3.org/2000/svg" xmlns:xlink="http://www.w3.org/1999/xlink" width="112" height="112" viewBox="0 0 112 112">
  <defs>
    <clipPath id="clip-path">
      <rect id="Rectángulo_300842" data-name="Rectángulo 300842" width="67.431" height="73.889" fill="none"/>
    </clipPath>
  </defs>
  <g id="Grupo_886475" data-name="Grupo 886475" transform="translate(-1095 -541)">
    <circle id="Elipse_6596" data-name="Elipse 6596" cx="56" cy="56" r="56" transform="translate(1095 541)" fill="#e1fbff"/>
    <g id="Grupo_886209" data-name="Grupo 886209" transform="translate(1117 561)">
      <g id="Grupo_886209-2" data-name="Grupo 886209" clip-path="url(#clip-path)">
        <path id="Trazado_602833" data-name="Trazado 602833" d="M42.368,330.627h0v-.021a.284.284,0,0,1-.07.011.076.076,0,0,0,.07.01" transform="translate(-34.14 -266.845)" fill="#fefefe"/>
        <path id="Trazado_602834" data-name="Trazado 602834" d="M139.7,312.727a8.876,8.876,0,0,0,6.01-4.74,1.382,1.382,0,0,1,.447-.627,10.18,10.18,0,0,0,.546-4.374,9.768,9.768,0,0,0-2.893-5.471h0c-.64-.368-1.124-.988-1.881-1.168l0,0a8.807,8.807,0,0,1-.326,8.543c-.151.265-.245.654-.667.681h0a3.328,3.328,0,0,1-1.393,3.752,3.463,3.463,0,0,1-4.109-.431c-.152.335-.455.275-.737.293a9.037,9.037,0,0,1-4.3-.716.547.547,0,0,0-.179-.064,8.873,8.873,0,0,0,5.846,4.341c.2.047.52-.043.526.333h2.6c0-.367.318-.306.521-.355" transform="translate(-105.094 -239.193)" fill="#94d5a3"/>
        <path id="Trazado_602835" data-name="Trazado 602835" d="M135.485,363.226a8.872,8.872,0,0,1-5.845-4.341.156.156,0,0,0-.135.07h0a8.1,8.1,0,0,0,2.52,2.9,10.282,10.282,0,0,0,3.986,1.7c-.005-.376-.323-.285-.526-.333" transform="translate(-104.528 -289.67)" fill="#94d5a3"/>
        <path id="Trazado_602836" data-name="Trazado 602836" d="M177.02,359.03a8.774,8.774,0,0,0,6.634-5.5h0c.012-.027.023-.054.035-.081a1.383,1.383,0,0,0-.447.627,8.876,8.876,0,0,1-6.01,4.74c-.2.049-.519-.012-.521.355a.432.432,0,0,1,.31-.145" transform="translate(-142.63 -285.286)" fill="#94d5a3"/>
        <path id="Trazado_602837" data-name="Trazado 602837" d="M74.841,31.521q-.011,5.607-.021,11.215a11.241,11.241,0,0,1,2.694,3.691,8.936,8.936,0,0,1-2.7,10.321q.022,3.228.044,6.457h0a9.132,9.132,0,0,1,4.085-2.27,8.644,8.644,0,0,1,6.427.848A8.882,8.882,0,0,1,83.23,78.226a8.841,8.841,0,0,1-8.367-2.269h0q0,1.5,0,3l33.468,0c.919,0,1.143-.228,1.146-1.15,0-.529,0-1.058,0-1.587h0q-6.586,0-13.172-.006a2.475,2.475,0,0,1-2.546-2.306h0c0-2.908-.008-5.817,0-8.725a2.455,2.455,0,0,1,2.559-2.531c4.086,0,8.172-.019,12.257.015.709.006.931-.147.929-.9q-.041-15.614-.018-31.229c-.927.019-1.854.014-2.781,0a.906.906,0,0,1-.777-.3,17.021,17.021,0,0,1,.014,2.458c-.1,1.147-.438,1.463-1.58,1.489-.216.005-.431.019-.647.03a9.623,9.623,0,0,1-.15,2.432,4.278,4.278,0,0,1-5.8,2.858,2.355,2.355,0,0,0-2.057-.015,3.9,3.9,0,0,1-3.413-.021,2.223,2.223,0,0,0-1.933,0,4.275,4.275,0,0,1-6.011-3.886c-.013-.456-.006-.912-.008-1.368h0a10.6,10.6,0,0,1-1.142-.064,1.043,1.043,0,0,1-.985-.8c-.32-.637-.062-1.309-.112-1.962-.027-.347-.018-.7-.024-1.046-.008.019-.018.036-.026.056a.916.916,0,0,1-.483.129c-2.018-.017-4.037.11-6.054-.091-.147-.015-.293-.026-.44-.036a1.781,1.781,0,0,0-.221,1.116m7.078,13.963a2.419,2.419,0,0,1,2.463-2.459q8.508-.009,17.016,0a2.337,2.337,0,0,1,2.449,2.434q.006,4.292,0,8.585a2.459,2.459,0,0,1-2.552,2.538q-8.4.006-16.808,0a2.451,2.451,0,0,1-2.564-2.448c0-2.884-.014-5.769,0-8.653" transform="translate(-60.389 -24.405)" fill="#f8f5f8"/>
        <path id="Trazado_602838" data-name="Trazado 602838" d="M60.065,30.1c.147.01.294.022.44.036,2.017.2,4.036.074,6.054.091a.917.917,0,0,0,.483-.129c.008-.019.018-.037.026-.056s0-.017,0-.025c-3.358.1-6.71-.172-10.067-.143-.256,0-.532-.079-.763.112h3.91a1.356,1.356,0,0,0-.083.114" transform="translate(-45.392 -24.099)" fill="#f8f5f8"/>
        <path id="Trazado_602839" data-name="Trazado 602839" d="M236.741,28.468c.927.013,1.854.017,2.781,0v-.211c-.909,0-1.821-.042-2.726.016a.721.721,0,0,1-.859-.595q.013.247.027.494a.905.905,0,0,0,.777.3" transform="translate(-190.433 -22.339)" fill="#f8f5f8"/>
        <path id="Trazado_602840" data-name="Trazado 602840" d="M98,274.118a9.627,9.627,0,0,1,1.27.942c.036.034.07.068.105.1h7.3c-1.033,1.162-.807,2.509-.837,3.806-.013.551-.014,1.1-.02,1.653.04,1.48.069,2.959-.014,4.438.23.235.181.557.235.847.166-.192.456-.075.672-.076q8.474-.016,16.949-.008c1.348,0,1.765-.414,1.765-1.755q0-4.328,0-8.656c0-.2-.052-.447.063-.589-.629-.076-1.262,0-1.891-.017-1.082-.022-2.164.021-3.245-.019-.513-.019-.736-.109-.833-.412-.049.267-.242.217-.956.217-1.176,0-2.353-.018-3.529-.029-1.733.1-1.735.1-1.732-1.6q0-2.157.013-4.313h-3.713c.007.006.014.01.021.016a3.861,3.861,0,0,1,.089,2.057,1.03,1.03,0,0,1-.946.859,6.027,6.027,0,0,1-1.006.041q-15.772,0-31.545,0a2.506,2.506,0,0,1-1.271-.155l-.012-.026c-.009.918-.028,1.836-.024,2.755,0,.812.149.944.99.945q5.262,0,10.525,0c.288,0,.576.015.863.024a8.975,8.975,0,0,1,6.618-2.187,7.338,7.338,0,0,1,3.38,1.011l.006,0c.26-.216.492-.007.706.124" transform="translate(-60.465 -216.841)" fill="#dcd9eb"/>
        <path id="Trazado_602841" data-name="Trazado 602841" d="M235.048,353.722c0,.016,0,.031,0,.046.059.336-.124.7.137,1.013a.494.494,0,0,1,.1-.213c-.054-.29-.005-.612-.235-.847" transform="translate(-189.708 -285.503)" fill="#dcd9eb"/>
        <path id="Trazado_602842" data-name="Trazado 602842" d="M306.217,93.169c.1.3.32.393.833.412,1.081.04,2.164,0,3.245.019.63.013,1.262-.059,1.891.017a.423.423,0,0,1,.372-.116c-.216-.231-.5-.134-.75-.136-1.465-.008-2.931,0-4.4-.005-1.174,0-1.055.133-1.056-1.023q0-23.642-.006-47.284c0-.3.1-.627-.119-.9q0,24.143,0,48.286a5.778,5.778,0,0,1-.013.734" transform="translate(-247.16 -35.634)" fill="#dcd9eb"/>
        <path id="Trazado_602843" data-name="Trazado 602843" d="M193.052,297.125c-.035-.034-.069-.068-.105-.1a9.647,9.647,0,0,0-1.27-.942c-.214-.131-.445-.339-.706-.124.757.18,1.24.8,1.881,1.168h.2Z" transform="translate(-154.14 -238.803)" fill="#dcd9eb"/>
        <path id="Trazado_602844" data-name="Trazado 602844" d="M109.649,268.654h0c0,.529.006,1.058,0,1.587,0,.923-.227,1.15-1.146,1.15l-33.468,0c0,.019,0,.037,0,.055l.012.026a2.509,2.509,0,0,0,1.271.155q15.772.005,31.545,0a6.05,6.05,0,0,0,1.006-.041,1.03,1.03,0,0,0,.946-.859,3.861,3.861,0,0,0-.089-2.057l-.021-.016Z" transform="translate(-60.567 -216.841)" fill="#dcd9eb"/>
        <path id="Trazado_602845" data-name="Trazado 602845" d="M189.834,32.035q.006,15.183,0,30.367c0,1.071-.169,1.228-1.284,1.23-3.726.01-7.453,0-11.179,0-.289,0-.577-.006-.865.007a2.306,2.306,0,0,0-2.387,2.437c-.029,2.428-.007,4.857-.009,7.285,0,.4,0,.8-.016,1.2a2.568,2.568,0,0,1,.771-.047q8.546,0,17.093,0c1.154,0,1.4-.241,1.4-1.379q0-4.4,0-8.8a1.484,1.484,0,0,1,.14-.91c-.266-.261-.135-.593-.136-.888q-.012-15.149-.007-30.3a1.513,1.513,0,0,0-.234-1.069c-.213.016-.425.036-.637.062a20.6,20.6,0,0,1-2.745.055,1.815,1.815,0,0,1,.093.746" transform="translate(-140.517 -25.161)" fill="#dcd9eb"/>
        <path id="Trazado_602846" data-name="Trazado 602846" d="M257.407,30.131c.212-.026.425-.045.637-.062-.021-.027-.04-.054-.066-.081h2.039l1.868-.04h0c-.226-.2-.5-.112-.758-.123-2.2-.1-4.4.2-6.6.149a.814.814,0,0,1,.136.212,20.661,20.661,0,0,0,2.745-.055" transform="translate(-205.439 -24.058)" fill="#dcd9eb"/>
        <path id="Trazado_602847" data-name="Trazado 602847" d="M188.718,63c0,.757-.22.909-.929.9-4.085-.033-8.171-.019-12.257-.015a2.455,2.455,0,0,0-2.558,2.531c-.005,2.909,0,5.817,0,8.725a.851.851,0,0,1,.212-.1c.016-.4.015-.8.016-1.2,0-2.428-.02-4.857.009-7.285a2.306,2.306,0,0,1,2.387-2.437c.289-.012.577-.007.865-.007,3.727,0,7.453.006,11.179,0,1.115,0,1.283-.16,1.283-1.23q.011-15.184,0-30.367a1.815,1.815,0,0,0-.093-.746H188.7q0,15.614.018,31.229" transform="translate(-139.612 -25.643)" fill="#dcd9eb"/>
        <path id="Trazado_602848" data-name="Trazado 602848" d="M254.55,30.889h.112a.813.813,0,0,0-.136-.212v.211h.023" transform="translate(-205.439 -24.762)" fill="#dcd9eb"/>
        <path id="Trazado_602849" data-name="Trazado 602849" d="M282.86,31.335q0,15.853-.006,31.707c0,.336-.009.672-.014,1.008a3.216,3.216,0,0,1,.749,2.251q-.06,3.887,0,7.776a3.281,3.281,0,0,1-.761,2.32h0q.012,3.161.025,6.321h.047c1.105-.05,2.211,0,3.316-.025.776-.017.848-.1.872-.886.009-.288,0-.577,0-.865q0-22.925.006-45.851a2.208,2.208,0,0,1,.122-1.2,3.062,3.062,0,0,0-2.688-2.665h-.017a4.284,4.284,0,0,1-1.655.1" transform="translate(-228.282 -25.207)" fill="#b06e3d"/>
        <path id="Trazado_602850" data-name="Trazado 602850" d="M291.591,30.679a3.062,3.062,0,0,1,2.688,2.665.94.94,0,0,1,.134-.174h0a3.026,3.026,0,0,0-2.625-2.623h0a1.238,1.238,0,0,1-.214.132h.017" transform="translate(-235.341 -24.656)" fill="#b06e3d"/>
        <path id="Trazado_602851" data-name="Trazado 602851" d="M287.2,46.247q-.012,22.926-.006,45.851c0,.288.006.577,0,.865-.024.791-.1.869-.872.886-1.1.024-2.21-.024-3.316.025h-.047q0,.106,0,.212c1.176.01,2.353.03,3.529.029.714,0,.907.05.956-.217a1.965,1.965,0,0,1-.068-.507c-.011-.288,0-.577,0-.866q0-23.082,0-46.164a10.014,10.014,0,0,0-.029-1.222c-.005-.03-.012-.058-.018-.087a2.209,2.209,0,0,0-.122,1.2" transform="translate(-228.388 -36.362)" fill="#b06e3d"/>
        <path id="Trazado_602852" data-name="Trazado 602852" d="M305.614,44.41a10.008,10.008,0,0,1,.029,1.222q0,23.082,0,46.164c0,.289-.007.577,0,.866a1.966,1.966,0,0,0,.068.507,5.747,5.747,0,0,0,.013-.734q0-24.143,0-48.286a.939.939,0,0,0-.134.174c.006.029.013.057.018.087" transform="translate(-246.659 -35.634)" fill="#b06e3d"/>
        <path id="Trazado_602853" data-name="Trazado 602853" d="M284.649,30.984c-.552-.025-1.1-.049-1.655-.059v.164a4.284,4.284,0,0,0,1.655-.1" transform="translate(-228.416 -24.961)" fill="#b06e3d"/>
        <path id="Trazado_602854" data-name="Trazado 602854" d="M282.994,30.586v.033c.551.01,1.1.034,1.655.059a1.228,1.228,0,0,0,.214-.132l-1.868.04" transform="translate(-228.416 -24.655)" fill="#b06e3d"/>
        <path id="Trazado_602855" data-name="Trazado 602855" d="M7.841,98.182c.515-.124.634-.363.63-.841-.017-2.227,0-4.454,0-6.681-.222-.214-.5-.1-.754-.123a.951.951,0,0,1-.976-.872.975.975,0,0,1,.764-1.2,5.514,5.514,0,0,1,2.351-.025c.732.146.9.777.9,1.452q0,3.478.017,6.957l.017.008a8.794,8.794,0,0,0,3.241-10.677c-.089-.221-.145-.454-.217-.682h0a9.316,9.316,0,0,0-4.3-1.026c-.281,0-.4-.087-.45-.221-.085.333-.326.5-.78.575a8.6,8.6,0,0,0-7.17,7.136,8.307,8.307,0,0,0,.9,5.516c.018.032.038.062.056.094a8.564,8.564,0,0,0,5.772.613" transform="translate(-0.794 -68)" fill="#b2e49e"/>
        <path id="Trazado_602856" data-name="Trazado 602856" d="M1.22,65.121A8.307,8.307,0,0,1,.32,59.6a8.6,8.6,0,0,1,7.17-7.136c.454-.076.7-.242.78-.575a1.387,1.387,0,0,1-.033-.447q0-3.247,0-6.493c0-.263-.02-.527-.031-.79h0a1.34,1.34,0,0,0-.088.774c-.006,2.21,0,4.42-.006,6.629,0,.3.089.619-.407.674a8.747,8.747,0,0,0-5.618,3.041A8.882,8.882,0,0,0,1.014,65.09c.087.043.175.084.262.125-.018-.032-.038-.062-.056-.094" transform="translate(0 -35.646)" fill="#b2e49e"/>
        <path id="Trazado_602857" data-name="Trazado 602857" d="M135.7,292.59a8.557,8.557,0,0,0-8.183.913,2.842,2.842,0,0,1-1.122.63h-.029a9.449,9.449,0,0,0-2.813,5.6,10.918,10.918,0,0,0,.517,4.034c.437.183.476.668.7,1.015.183-.212.428.028.6.089a8.915,8.915,0,0,0,3.563.57,4.324,4.324,0,0,0,1.053-.149h.012a3.8,3.8,0,0,1-.881-1.781c-.143-.815.165-1.422.847-1.583.621-.147,1.08.257,1.268,1.119a1.12,1.12,0,0,0,.962,1.019,1.054,1.054,0,0,0,1.187-.609,1.021,1.021,0,0,0-.218-1.252,1.085,1.085,0,0,0-.775-.322,1.018,1.018,0,0,1-1.067-1.031c-.052-.67.267-1.03,1-1.147.625-.1,1.115-.352,1.173-1.05a1.049,1.049,0,0,0-.844-1.173c-.577-.169-1.061.109-1.332.785-.167.416-.359.79-.85.887-.9.179-1.492-.494-1.273-1.457a3.359,3.359,0,0,1,3.622-2.426,3.284,3.284,0,0,1,2.49,4.739c-.292.559-.459.985.008,1.495a1.275,1.275,0,0,1,.2.441,8.255,8.255,0,0,0,1.428-7.518,7.46,7.46,0,0,1-.455-1.578c.017-.017.033-.033.05-.046l0,0a1.706,1.706,0,0,1-.829-.208" transform="translate(-99.701 -235.647)" fill="#b2e49e"/>
        <path id="Trazado_602858" data-name="Trazado 602858" d="M126.343,353.219c.013.043.024.086.038.129l.572,1.033a.535.535,0,0,1,.087-.147c-.22-.348-.259-.832-.7-1.015" transform="translate(-101.977 -285.097)" fill="#b2e49e"/>
        <path id="Trazado_602859" data-name="Trazado 602859" d="M187.074,297.987a8.256,8.256,0,0,1-1.428,7.518c.01.027.019.055.03.082h0c.422-.028.516-.416.667-.681a8.807,8.807,0,0,0,.327-8.543.653.653,0,0,0-.05.047,7.463,7.463,0,0,0,.455,1.577" transform="translate(-149.842 -239.206)" fill="#b2e49e"/>
        <path id="Trazado_602860" data-name="Trazado 602860" d="M135.166,358.633a4.349,4.349,0,0,1-1.053.149,8.918,8.918,0,0,1-3.563-.57c-.167-.061-.412-.3-.6-.089.009.014.017.028.026.041l.022.037a.55.55,0,0,1,.179.064,9.037,9.037,0,0,0,4.3.716c.282-.018.585.042.737-.293l-.045-.056h-.012" transform="translate(-104.891 -288.987)" fill="#b2e49e"/>
        <path id="Trazado_602861" data-name="Trazado 602861" d="M129.639,358.56l-.023-.037c-.009-.013-.018-.027-.026-.041a.533.533,0,0,0-.087.147h0a.157.157,0,0,1,.135-.07" transform="translate(-104.528 -289.345)" fill="#b2e49e"/>
        <path id="Trazado_602862" data-name="Trazado 602862" d="M138.248,293.305h.029a2.845,2.845,0,0,0,1.122-.63,8.556,8.556,0,0,1,8.183-.913,1.705,1.705,0,0,0,.829.208,7.336,7.336,0,0,0-3.38-1.011,8.975,8.975,0,0,0-6.618,2.187h0c-.056.052-.109.106-.164.159" transform="translate(-111.586 -234.818)" fill="#b2e49e"/>
        <path id="Trazado_602863" data-name="Trazado 602863" d="M15.106,107.831a8.75,8.75,0,0,0,5.258-1.879,3.093,3.093,0,0,1,.8-.964,8.7,8.7,0,0,0,.592-11.472,13.316,13.316,0,0,0-.935-1,1.711,1.711,0,0,1-.491-.744l-1.151-.679a6.483,6.483,0,0,1,.9,2.912,8.983,8.983,0,0,1-3.259,8.042c-.213.184-.435.476-.785.331l-.017.012c-.007.408.015.819-.027,1.223a1.061,1.061,0,0,1-1.162,1.1c-.692-.035-.984-.388-.985-1.215v-.153a.925.925,0,0,1-.706.567,8.556,8.556,0,0,1-5.416-.4,1.171,1.171,0,0,1-.233-.131,8.724,8.724,0,0,0,5.639,4.038c.9.209,1.139.258,1.2.788.092-.248.306-.353.779-.369" transform="translate(-6.043 -73.524)" fill="#94d5a3"/>
        <path id="Trazado_602864" data-name="Trazado 602864" d="M12.461,158.452a1.613,1.613,0,0,1,.065-.547c-.063-.53-.3-.579-1.2-.788a8.723,8.723,0,0,1-5.639-4.038,2.574,2.574,0,0,1-.43-.405,8.416,8.416,0,0,0,6.325,4.7c.733.14.8.388.8.991q-.022,13.85-.009,27.7c0,.312.021.624.032.935a.283.283,0,0,0,.07-.011q0-14.269-.008-28.538" transform="translate(-4.242 -123.229)" fill="#94d5a3"/>
        <path id="Trazado_602865" data-name="Trazado 602865" d="M74.234,108.71a8.936,8.936,0,0,0,2.7-10.321A11.243,11.243,0,0,0,74.235,94.7l-.141-.083a1.712,1.712,0,0,0,.491.744,13.431,13.431,0,0,1,.935,1,8.7,8.7,0,0,1-.592,11.473,3.09,3.09,0,0,0-.8.964c.036-.029.073-.056.109-.085Z" transform="translate(-59.804 -76.367)" fill="#94d5a3"/>
        <path id="Trazado_602866" data-name="Trazado 602866" d="M54.826,90.714c.072.228.128.461.217.682A8.793,8.793,0,0,1,51.8,102.072c.35.145.572-.147.785-.331A8.982,8.982,0,0,0,55.846,93.7a6.479,6.479,0,0,0-.9-2.912l-.124-.073Z" transform="translate(-41.811 -73.219)" fill="#94d5a3"/>
        <path id="Trazado_602867" data-name="Trazado 602867" d="M12.435,125.218a.925.925,0,0,0,.706-.567c0-2.134,0-4.268,0-6.4,0-.252.1-.532-.12-.754,0,2.227-.014,4.454,0,6.681,0,.479-.115.717-.63.841a8.565,8.565,0,0,1-5.772-.613c.055.095.111.189.168.281a1.161,1.161,0,0,0,.233.131,8.556,8.556,0,0,0,5.416.4" transform="translate(-5.341 -94.835)" fill="#94d5a3"/>
        <path id="Trazado_602868" data-name="Trazado 602868" d="M5.686,153.079c-.057-.092-.113-.186-.168-.281-.088-.041-.175-.081-.262-.125a2.559,2.559,0,0,0,.43.405" transform="translate(-4.242 -123.229)" fill="#94d5a3"/>
        <path id="Trazado_602869" data-name="Trazado 602869" d="M256.185,309.887c0,1.691-.517,2.21-2.191,2.212q-7.826.007-15.651,0c-.571,0-1.141.014-1.71.057,0,.006.005.012.008.018a2.26,2.26,0,0,0,2.384,1.784q8.359.013,16.718,0a2.168,2.168,0,0,0,2.331-1.985,8.828,8.828,0,0,0,.12-1.65q0-2.955,0-5.91c0-.458-.054-.909-.1-1.364a2.212,2.212,0,0,0-1.763-2.125,3.776,3.776,0,0,0-.15,1.172q.009,3.9,0,7.79" transform="translate(-190.996 -242.889)" fill="#cfcde6"/>
        <path id="Trazado_602870" data-name="Trazado 602870" d="M257.415,302.34c.043.454.1.906.1,1.364q0,2.955,0,5.91a8.843,8.843,0,0,1-.12,1.65,2.168,2.168,0,0,1-2.331,1.985q-8.359.015-16.718,0a2.261,2.261,0,0,1-2.384-1.785l-.008-.018-.163.011a2.287,2.287,0,0,0,2.16,2.011q8.751.013,17.5.006a2.087,2.087,0,0,0,1.3-.533,2.689,2.689,0,0,0,.951-2.308c-.026-2.852.176-5.708-.109-8.557a2.154,2.154,0,0,0-1.878-2.032c-.023.056-.043.113-.061.17a2.212,2.212,0,0,1,1.762,2.125" transform="translate(-190.315 -242.178)" fill="#cfcde6"/>
        <path id="Trazado_602871" data-name="Trazado 602871" d="M255.7,301.232q-.008,4.328,0,8.656c0,1.341-.417,1.755-1.765,1.755q-8.474,0-16.949.008c-.217,0-.506-.117-.672.076a.812.812,0,0,0,.063.2c.569-.043,1.139-.057,1.71-.057q7.826,0,15.651,0c1.673,0,2.186-.521,2.191-2.212q.01-3.9,0-7.79a3.772,3.772,0,0,1,.15-1.172l-.049-.014c-.088-.017-.175-.03-.263-.04-.115.142-.062.387-.063.589" transform="translate(-190.734 -242.661)" fill="#cfcde6"/>
        <path id="Trazado_602872" data-name="Trazado 602872" d="M337.171,300.156c.088.011.175.024.262.041l.049.014c.018-.057.038-.114.061-.17a.422.422,0,0,0-.372.115" transform="translate(-272.144 -242.174)" fill="#cfcde6"/>
        <path id="Trazado_602873" data-name="Trazado 602873" d="M235.889,358.112a.494.494,0,0,0-.1.213l.163-.012a.828.828,0,0,1-.063-.2" transform="translate(-190.315 -289.047)" fill="#cfcde6"/>
        <path id="Trazado_602874" data-name="Trazado 602874" d="M58.466,331.059c.014-.118.03-.236.048-.353-.169-.155-.439-.056-.648-.056q-7.382-.017-14.764-.012c.03.428,0,.858.021,1.286a2.906,2.906,0,0,0,3.112,2.969c3.914.01,7.828,0,11.742,0a5.843,5.843,0,0,1,1.077.045l.012,0a5.25,5.25,0,0,1-.627-2.464,4.6,4.6,0,0,1,.027-1.423" transform="translate(-34.789 -266.856)" fill="#b06e3d"/>
        <path id="Trazado_602875" data-name="Trazado 602875" d="M58.276,334.978a5.88,5.88,0,0,0-1.077-.045c-3.914,0-7.828.005-11.742,0a2.907,2.907,0,0,1-3.112-2.969c-.024-.428.009-.858-.021-1.286h-.085a.076.076,0,0,1-.07-.01c-.009.5-.047,1.009-.022,1.512a3.03,3.03,0,0,0,2.931,2.973c4.446.008,8.892,0,13.338-.005-.046-.052-.088-.106-.128-.16l-.012,0" transform="translate(-34.012 -266.892)" fill="#b06e3d"/>
        <path id="Trazado_602876" data-name="Trazado 602876" d="M122.643,331.309a.459.459,0,0,0-.125-.237c-.017.117-.034.235-.048.353a4.6,4.6,0,0,0-.027,1.423,5.251,5.251,0,0,0,.627,2.464.825.825,0,0,1,.09.031,10.918,10.918,0,0,1-.517-4.035" transform="translate(-98.793 -267.221)" fill="#b06e3d"/>
        <path id="Trazado_602877" data-name="Trazado 602877" d="M125.876,353.057c.04.054.082.108.128.16-.013-.043-.025-.086-.038-.129a.859.859,0,0,0-.09-.031" transform="translate(-101.6 -284.966)" fill="#b06e3d"/>
        <path id="Trazado_602878" data-name="Trazado 602878" d="M112.632,25.23c.017.339-.015.679-.018,1.018.1-.379.383-.381,1.231-.381h18.519c1.41,0,1.83-.424,1.84-1.849.005-.72.008-.984.306-1.1-1.328-.031-2.655.017-3.981-.005a4.9,4.9,0,0,1-1.206-.072.627.627,0,0,1-.23-.142,6.249,6.249,0,0,1-2.186-.128h0a.511.511,0,0,1-.453.155l-4.647-.029h-2.14a.592.592,0,0,1-.133.108,11.2,11.2,0,0,1-2.428.1,22.89,22.89,0,0,1-2.366-.007,2.1,2.1,0,0,0-2.311,1.25c.278.32.183.714.2,1.083" transform="translate(-90.747 -18.22)" fill="#e17f85"/>
        <path id="Trazado_602879" data-name="Trazado 602879" d="M199.071,23.3a4.884,4.884,0,0,0,1.206.072c1.327.022,2.654-.026,3.981.006a3.461,3.461,0,0,1,.885-.105h0a2.212,2.212,0,0,0-1.192-.1c-1.7-.012-3.4-.009-5.1-.011h-.011a.625.625,0,0,0,.23.142" transform="translate(-160.493 -18.674)" fill="#e17f85"/>
        <path id="Trazado_602880" data-name="Trazado 602880" d="M112.4,24.679a2.1,2.1,0,0,1,2.311-1.25,22.89,22.89,0,0,0,2.366.007,11.206,11.206,0,0,0,2.428-.1.582.582,0,0,0,.133-.108h-.028c-1.868.01-3.737.012-5.6.032-1.1.012-1.427.309-1.613,1.4l.007.01" transform="translate(-90.715 -18.752)" fill="#e17f85"/>
        <path id="Trazado_602881" data-name="Trazado 602881" d="M112.42,33.755a4.371,4.371,0,0,1,.055-.922c0-.339.035-.68.017-1.018-.019-.369.076-.763-.2-1.083l-.007.015c.006.349,0,.7.025,1.046.05.653-.207,1.325.112,1.962" transform="translate(-90.607 -24.805)" fill="#e17f85"/>
        <path id="Trazado_602882" data-name="Trazado 602882" d="M112.4,30.69l-.007-.01c0,.008,0,.017,0,.025l.007-.015" transform="translate(-90.715 -24.763)" fill="#e17f85"/>
        <path id="Trazado_602883" data-name="Trazado 602883" d="M43.444,34.727c.012,1.914,0,3.827.008,5.741,0,.907.01.9.894,1.007a8.137,8.137,0,0,1,3.613,1.063c.042.058.078.119.118.178a1.668,1.668,0,0,1,1.175.649l0-.007c-.089-2.948-.022-5.9-.037-8.844a22.335,22.335,0,0,1,.043-2.73c.044-.377-.065-.451-.409-.436-.718.031-1.438.02-2.157.006a1.348,1.348,0,0,1-.7-.113,2.982,2.982,0,0,0-2.641,2.582c0,.027,0,.054-.007.08a1.5,1.5,0,0,1,.1.823" transform="translate(-34.982 -25.216)" fill="#c5865c"/>
        <path id="Trazado_602884" data-name="Trazado 602884" d="M42.7,33.319c0-.027,0-.054.007-.08a2.982,2.982,0,0,1,2.641-2.582.606.606,0,0,1-.16-.14,3.016,3.016,0,0,0-2.641,2.632h0a.634.634,0,0,1,.154.17" transform="translate(-34.34 -24.631)" fill="#c5865c"/>
        <path id="Trazado_602885" data-name="Trazado 602885" d="M59.927,31.059c.345-.015.454.059.409.436a22.335,22.335,0,0,0-.043,2.73c.015,2.948-.052,5.9.037,8.844l0,.007q.082.089.162.182.01-5.607.021-11.215a1.781,1.781,0,0,1,.221-1.116,35.146,35.146,0,0,0-3.592.01l-.075.015a1.35,1.35,0,0,0,.7.113c.719.014,1.439.026,2.157-.006" transform="translate(-46.063 -24.927)" fill="#c5865c"/>
        <path id="Trazado_602886" data-name="Trazado 602886" d="M56.4,30.657l.075-.015a35.142,35.142,0,0,1,3.592-.01,1.356,1.356,0,0,1,.083-.114H56.239a.606.606,0,0,0,.16.14" transform="translate(-45.393 -24.631)" fill="#c5865c"/>
        <path id="Trazado_602887" data-name="Trazado 602887" d="M43.329,52.827a9.315,9.315,0,0,1,4.3,1.026h0c.028,0,.052,0,.079.005-.039-.059-.075-.12-.117-.178a8.14,8.14,0,0,0-3.613-1.063c-.884-.1-.892-.1-.894-1.007-.006-1.914.005-3.827-.007-5.741a1.5,1.5,0,0,0-.1-.823c-.133,1.364-.029,2.731-.054,4.1q-.028,1.549,0,3.1a1.371,1.371,0,0,1-.036.366c.05.134.168.224.45.221" transform="translate(-34.609 -36.358)" fill="#c5865c"/>
        <path id="Trazado_602888" data-name="Trazado 602888" d="M42.577,51.448a1.392,1.392,0,0,0,.033.447,1.372,1.372,0,0,0,.036-.366q-.028-1.549,0-3.1c.025-1.365-.079-2.731.054-4.1a.634.634,0,0,0-.154-.17c.011.263.03.527.031.79q0,3.247,0,6.493" transform="translate(-34.34 -35.647)" fill="#c5865c"/>
        <path id="Trazado_602889" data-name="Trazado 602889" d="M67.895,90.74l.045.068,1.151.679a.987.987,0,0,1-.021-.1,1.668,1.668,0,0,0-1.175-.649" transform="translate(-54.801 -73.24)" fill="#c5865c"/>
        <path id="Trazado_602890" data-name="Trazado 602890" d="M73.987,94.1a.988.988,0,0,0,.021.1l.141.083c-.053-.062-.107-.122-.162-.182" transform="translate(-59.718 -75.955)" fill="#c5865c"/>
        <path id="Trazado_602891" data-name="Trazado 602891" d="M67.486,90.714l.124.073-.045-.068c-.027,0-.051-.005-.079-.005" transform="translate(-54.471 -73.219)" fill="#c5865c"/>
        <path id="Trazado_602892" data-name="Trazado 602892" d="M135.545,25.378c0,.072,0,.144-.007.216-.09,1.629-.585,2.105-2.246,2.109-4.006.009-8.012,0-12.018,0-2.111,0-4.222.014-6.333-.009-.631-.007-1.087.106-1.121.846a.2.2,0,0,1-.018.072v0a1.212,1.212,0,0,0,1.195.825,1.454,1.454,0,0,1,.882.18c0,.006.005.013.009.019l2.072-.005h17.168c.013-.018.023-.036.037-.053a1.052,1.052,0,0,1,.479-.141c1.279-.174,1.4-.288,1.574-1.534a6.524,6.524,0,0,0-.017-1.869,1.114,1.114,0,0,1,.025-.71,1.232,1.232,0,0,0-.878-.764.554.554,0,0,1-.208.069.623.623,0,0,0-.6.742" transform="translate(-91.854 -19.829)" fill="#dc636e"/>
        <path id="Trazado_602893" data-name="Trazado 602893" d="M230.7,23.972a1.231,1.231,0,0,1,.878.764.582.582,0,0,1,.131-.164c-.184-.362-.388-.7-.853-.742a.475.475,0,0,1-.156.142" transform="translate(-186.211 -19.234)" fill="#dc636e"/>
        <path id="Trazado_602894" data-name="Trazado 602894" d="M226.454,29.239a6.525,6.525,0,0,1,.017,1.869c-.175,1.246-.294,1.36-1.574,1.534a1.052,1.052,0,0,0-.479.141c-.014.017-.025.035-.037.053h.043c.216-.01.431-.025.647-.03,1.143-.026,1.479-.342,1.58-1.489a17.08,17.08,0,0,0-.014-2.458.773.773,0,0,1-.121-.254c-.012-.026-.025-.05-.038-.075a1.115,1.115,0,0,0-.025.71" transform="translate(-181.108 -23.027)" fill="#dc636e"/>
        <path id="Trazado_602895" data-name="Trazado 602895" d="M115.316,46.56a1.456,1.456,0,0,0-.883-.18,1.212,1.212,0,0,1-1.195-.825v0a.529.529,0,0,1-.135.165,1.043,1.043,0,0,0,.985.8,10.693,10.693,0,0,0,1.142.064h.094l-.009-.019" transform="translate(-91.291 -36.767)" fill="#dc636e"/>
        <path id="Trazado_602896" data-name="Trazado 602896" d="M235.3,27.917a.773.773,0,0,0,.121.254c-.009-.165-.019-.329-.027-.494a.578.578,0,0,0-.131.164c.012.025.025.05.037.075" transform="translate(-189.887 -22.339)" fill="#dc636e"/>
        <path id="Trazado_602897" data-name="Trazado 602897" d="M134.978,25.472c-.01,1.425-.43,1.848-1.839,1.849h-18.52c-.848,0-1.133,0-1.231.381a2.812,2.812,0,0,0,.08.757.2.2,0,0,0,.018-.072c.034-.74.49-.853,1.121-.846,2.111.023,4.222.009,6.333.009,4.006,0,8.012.006,12.018,0,1.661,0,2.156-.48,2.246-2.109,0-.072.01-.144.007-.216a.623.623,0,0,1,.6-.742.557.557,0,0,0,.208-.069c-.026,0-.05-.012-.077-.015-.217-.01-.435-.017-.652-.022-.3.114-.3.379-.306,1.1" transform="translate(-91.519 -19.673)" fill="#dc636e"/>
        <path id="Trazado_602898" data-name="Trazado 602898" d="M226.924,23.935c.218.005.435.012.652.022.027,0,.051.011.077.015a.477.477,0,0,0,.156-.142h0a3.449,3.449,0,0,0-.885.1" transform="translate(-183.159 -19.234)" fill="#dc636e"/>
        <path id="Trazado_602899" data-name="Trazado 602899" d="M113.238,42.386a2.818,2.818,0,0,1-.08-.757,4.374,4.374,0,0,0-.055.922.53.53,0,0,0,.135-.165" transform="translate(-91.29 -33.6)" fill="#dc636e"/>
        <path id="Trazado_602900" data-name="Trazado 602900" d="M152.2,5.05l.074,0a2.546,2.546,0,0,1,5-.048c.5.026,1,.052,1.506.053a.959.959,0,0,1,.683.17,1.523,1.523,0,0,1-.24-.62,4.542,4.542,0,0,0-8.89-.043,1.724,1.724,0,0,1-.231.676c.667-.378,1.4-.138,2.1-.187" transform="translate(-121.157 -0.788)" fill="#6b61b0"/>
        <path id="Trazado_602901" data-name="Trazado 602901" d="M150.1,3.773a4.542,4.542,0,0,1,8.89.043,1.531,1.531,0,0,0,.24.62.6.6,0,0,1,.049.046,4.74,4.74,0,0,0-9.465,0h0c.018-.012.037-.021.056-.031a1.726,1.726,0,0,0,.231-.676" transform="translate(-120.923 0)" fill="#6b61b0"/>
        <path id="Trazado_602902" data-name="Trazado 602902" d="M187.294,21.845c.014.047.029.092.041.14h0a6.245,6.245,0,0,0,2.186.128.528.528,0,0,1-.038-.045.959.959,0,0,0-.682-.17c-.5,0-1-.027-1.506-.053" transform="translate(-151.173 -17.632)" fill="#6b61b0"/>
        <path id="Trazado_602903" data-name="Trazado 602903" d="M152.16,21.971l-.074,0c-.7.048-1.429-.192-2.1.187-.009.011-.018.021-.028.031h2.14c.018-.075.038-.147.058-.219" transform="translate(-121.04 -17.71)" fill="#6b61b0"/>
        <path id="Trazado_602904" data-name="Trazado 602904" d="M198.679,23.048h.011a.6.6,0,0,0-.049-.046.529.529,0,0,0,.038.045" transform="translate(-160.331 -18.567)" fill="#6b61b0"/>
        <path id="Trazado_602905" data-name="Trazado 602905" d="M149.874,23.072c-.019.01-.037.02-.056.031h.028l.028-.031" transform="translate(-120.924 -18.622)" fill="#6b61b0"/>
        <path id="Trazado_602906" data-name="Trazado 602906" d="M217.555,330.783c0-.024,0-.047,0-.07l-3.359.011c.006.041.013.081.019.122a11.735,11.735,0,0,1-.2,3.287,2.015,2.015,0,0,1-.382.9,16.843,16.843,0,0,1,4.065.068,1.262,1.262,0,0,1-.156-.719c0-1.2-.028-2.4.014-3.6" transform="translate(-172.431 -266.932)" fill="#b16e3d"/>
        <path id="Trazado_602907" data-name="Trazado 602907" d="M212.891,352.748a.862.862,0,0,1-.177.144l4.313.017a.824.824,0,0,1-.072-.094,16.841,16.841,0,0,0-4.065-.068" transform="translate(-171.69 -284.644)" fill="#b16e3d"/>
        <path id="Trazado_602908" data-name="Trazado 602908" d="M213.036,335.08a2.012,2.012,0,0,0,.382-.9,11.727,11.727,0,0,0,.2-3.287c-.006-.041-.013-.081-.019-.122h-.16a10.18,10.18,0,0,1-.546,4.374.644.644,0,0,1,.14-.063h0" transform="translate(-171.834 -266.976)" fill="#b16e3d"/>
        <path id="Trazado_602909" data-name="Trazado 602909" d="M212.89,353.124h0a.642.642,0,0,0-.14.063c-.012.027-.022.054-.035.081h0a.861.861,0,0,0,.177-.144" transform="translate(-171.689 -285.021)" fill="#b16e3d"/>
        <path id="Trazado_602910" data-name="Trazado 602910" d="M234.108,330.709h-.23c0,.023,0,.047,0,.07-.042,1.2-.012,2.4-.014,3.6a1.261,1.261,0,0,0,.156.719l.029,0c.016.014.03.028.044.042.083-1.479.054-2.958.014-4.438" transform="translate(-188.755 -266.928)" fill="#b16e3d"/>
        <path id="Trazado_602911" data-name="Trazado 602911" d="M234.737,353.482l-.029,0a.769.769,0,0,0,.072.094c0-.015,0-.031,0-.047s-.028-.029-.044-.042" transform="translate(-189.442 -285.305)" fill="#b16e3d"/>
        <path id="Trazado_602912" data-name="Trazado 602912" d="M159.1,314.649a3.039,3.039,0,0,0-1.305-4.076,3.08,3.08,0,0,0-4.133,1.137,2.168,2.168,0,0,0-.319,1.021.793.793,0,0,0,.48.881.882.882,0,0,0,1.083-.332c.143-.195.214-.43.349-.629a1.255,1.255,0,0,1,1.422-.591,1.267,1.267,0,0,1,.11,2.421,3.629,3.629,0,0,1-.621.182.785.785,0,0,0-.657.826.884.884,0,0,0,.622.878c.2.08.424.083.627.16a1.28,1.28,0,0,1,.858,1.282,1.3,1.3,0,0,1-2.441.457,3.021,3.021,0,0,1-.2-.614c-.135-.495-.418-.821-.974-.754a.974.974,0,0,0-.769,1.129,3.665,3.665,0,0,0,.606,1.527c.092.142.215.28.181.465a.863.863,0,0,1,.46.186,3.123,3.123,0,0,0,3.529.12,2.964,2.964,0,0,0,1.385-3.165.738.738,0,0,1,.04-.424l.023-.031c-.8-.82-.828-1.042-.353-2.055" transform="translate(-123.667 -250.376)" fill="#6b61b0"/>
        <path id="Trazado_602913" data-name="Trazado 602913" d="M162.7,343.946a.736.736,0,0,0-.04.424,2.965,2.965,0,0,1-1.385,3.165,3.123,3.123,0,0,1-3.529-.12.864.864,0,0,0-.46-.187.371.371,0,0,1-.014.059,3.463,3.463,0,0,0,4.109.431,3.328,3.328,0,0,0,1.393-3.752l-.051-.053-.023.031" transform="translate(-126.942 -277.588)" fill="#6b61b0"/>
        <path id="Trazado_602914" data-name="Trazado 602914" d="M153.089,318.583a3.669,3.669,0,0,1-.607-1.527.974.974,0,0,1,.769-1.13c.555-.067.838.26.974.754a3.033,3.033,0,0,0,.2.614,1.3,1.3,0,0,0,2.441-.457,1.28,1.28,0,0,0-.858-1.282c-.2-.077-.426-.081-.627-.16a.883.883,0,0,1-.622-.878.786.786,0,0,1,.657-.827,3.6,3.6,0,0,0,.621-.182,1.267,1.267,0,0,0-.109-2.421,1.255,1.255,0,0,0-1.422.591c-.135.2-.206.434-.349.629a.882.882,0,0,1-1.083.332.793.793,0,0,1-.48-.881,2.167,2.167,0,0,1,.319-1.021,3.08,3.08,0,0,1,4.133-1.137,3.039,3.039,0,0,1,1.305,4.076c-.475,1.013-.445,1.234.353,2.055l.021-.029a1.278,1.278,0,0,0-.2-.441c-.467-.51-.3-.936-.008-1.5a3.284,3.284,0,0,0-2.49-4.739,3.36,3.36,0,0,0-3.622,2.427c-.219.963.37,1.636,1.273,1.457.491-.1.683-.472.85-.887.272-.676.755-.954,1.332-.785a1.049,1.049,0,0,1,.844,1.174c-.058.7-.548.95-1.173,1.05-.733.117-1.052.477-1,1.147a1.018,1.018,0,0,0,1.067,1.031,1.085,1.085,0,0,1,.775.322,1.021,1.021,0,0,1,.218,1.252,1.053,1.053,0,0,1-1.187.609,1.12,1.12,0,0,1-.962-1.019c-.187-.862-.646-1.266-1.268-1.119-.682.161-.99.769-.847,1.584a3.8,3.8,0,0,0,.881,1.781.485.485,0,0,1,.059,0c.033-.185-.09-.323-.181-.465" transform="translate(-122.924 -249.406)" fill="#6b61b0"/>
        <path id="Trazado_602915" data-name="Trazado 602915" d="M185.536,343.8l.051.053c-.011-.026-.02-.054-.03-.081l-.021.029" transform="translate(-149.754 -277.468)" fill="#6b61b0"/>
        <path id="Trazado_602916" data-name="Trazado 602916" d="M157.04,361.106l.045.056a.351.351,0,0,0,.014-.059.518.518,0,0,0-.059,0" transform="translate(-126.753 -291.46)" fill="#6b61b0"/>
        <path id="Trazado_602917" data-name="Trazado 602917" d="M208.283,308.245a.833.833,0,0,1,.292.066c-.011-.963-.032-1.927.017-2.889a5.24,5.24,0,0,1,.564-2.179,13.1,13.1,0,0,0-1.981-.05c-1.321-.012-2.643,0-3.964,0a2.848,2.848,0,0,1-.7-.061,9.207,9.207,0,0,1,2.691,5.22.789.789,0,0,1,.372-.1c.9-.038,1.807-.036,2.71,0" transform="translate(-163.454 -244.668)" fill="#c5855c"/>
        <path id="Trazado_602918" data-name="Trazado 602918" d="M201.068,302.544a1.267,1.267,0,0,1-.344-.14,9.768,9.768,0,0,1,2.893,5.471.638.638,0,0,1,.142-.111,9.207,9.207,0,0,0-2.691-5.221" transform="translate(-162.012 -244.082)" fill="#c5855c"/>
        <path id="Trazado_602919" data-name="Trazado 602919" d="M206.571,302.608a13.1,13.1,0,0,1,1.981.05,5.239,5.239,0,0,0-.564,2.178c-.05.962-.028,1.926-.017,2.889a.994.994,0,0,1,.232.138c.006-.551.008-1.1.02-1.653.03-1.3-.2-2.644.837-3.806h-7.3c.048.046.1.093.144.14a2.85,2.85,0,0,0,.7.062c1.321,0,2.643-.009,3.964,0" transform="translate(-162.849 -244.082)" fill="#c5855c"/>
        <path id="Trazado_602920" data-name="Trazado 602920" d="M200.924,302.4h-.2a1.273,1.273,0,0,0,.344.14c-.047-.047-.1-.094-.144-.14" transform="translate(-162.012 -244.082)" fill="#c5855c"/>
        <path id="Trazado_602921" data-name="Trazado 602921" d="M219.836,329.607a.832.832,0,0,0-.292-.066c-.9-.035-1.807-.037-2.711,0a.788.788,0,0,0-.372.1c.006.037.012.073.017.11l3.359-.011q0-.069,0-.138" transform="translate(-174.714 -265.964)" fill="#c5855c"/>
        <path id="Trazado_602922" data-name="Trazado 602922" d="M215.865,330.2a.634.634,0,0,0-.142.11h.159c-.005-.037-.011-.074-.017-.11" transform="translate(-174.119 -266.516)" fill="#c5855c"/>
        <path id="Trazado_602923" data-name="Trazado 602923" d="M233.961,330.135h.23a.986.986,0,0,0-.232-.137c0,.046,0,.092,0,.138" transform="translate(-188.838 -266.354)" fill="#c5855c"/>
        <path id="Trazado_602924" data-name="Trazado 602924" d="M61.282,195.059c-3.7.1-7.4.04-11.105.026-.818,0-1.116-.339-1.155-1.156-.033-.695-.021-1.392,0-2.088a.9.9,0,0,1,.223-.708,5.751,5.751,0,0,1-.148-2.853.643.643,0,0,1,.149-.183,8.384,8.384,0,0,1-1.581-2.174,8.767,8.767,0,0,1,1.375-10.276c.077-.083.143-.176.213-.266a.564.564,0,0,1-.138-.144,10.957,10.957,0,0,1-.088-2.5c0-1.18-.069-2.362.04-3.539a2.344,2.344,0,0,1-.742.607,9.834,9.834,0,0,1-4.088,1.284c-.966.105-.969.131-.969,1.1q0,13.4,0,26.8a3.22,3.22,0,0,1-.1,1.212.253.253,0,0,1-.06.079v.011a1.317,1.317,0,0,1,.729-.166c4.673-.007,9.346-.015,14.019.013.219,0,.532-.059.691.109a8.713,8.713,0,0,1,1.6-3.93,4.525,4.525,0,0,1,1.143-1.257" transform="translate(-34.788 -136.568)" fill="#c5865c"/>
        <path id="Trazado_602925" data-name="Trazado 602925" d="M42.746,330.344a.216.216,0,0,1-.085.051v.021a.921.921,0,0,1,.085-.061Z" transform="translate(-34.433 -266.634)" fill="#c5865c"/>
        <path id="Trazado_602926" data-name="Trazado 602926" d="M73.882,267.184a.642.642,0,0,0-.148.183,5.747,5.747,0,0,0,.148,2.853c.006-.006.011-.012.018-.018q0-1.5,0-3l-.019-.023" transform="translate(-59.426 -215.655)" fill="#c5865c"/>
        <path id="Trazado_602927" data-name="Trazado 602927" d="M73.7,171.529a10.957,10.957,0,0,0,.088,2.5.571.571,0,0,0,.138.144l.01-.014q-.022-3.228-.044-6.457a1.227,1.227,0,0,1-.153.289c-.11,1.178-.04,2.359-.04,3.539" transform="translate(-59.466 -135.357)" fill="#c5865c"/>
        <path id="Trazado_602928" data-name="Trazado 602928" d="M73.719,283.634c-.018.7-.03,1.392,0,2.088.039.817.337,1.153,1.154,1.156,3.7.014,7.4.071,11.105-.026a1.76,1.76,0,0,1,.332-.163h0c-.288-.008-.576-.024-.864-.024q-5.262,0-10.525,0c-.841,0-.986-.133-.99-.945,0-.918.015-1.836.024-2.755-.006-.012-.011-.025-.017-.037a.9.9,0,0,0-.223.708" transform="translate(-59.487 -228.361)" fill="#c5865c"/>
        <path id="Trazado_602929" data-name="Trazado 602929" d="M74.951,282.851l.017.038v-.055c-.007.006-.011.012-.018.018" transform="translate(-60.496 -228.286)" fill="#c5865c"/>
        <path id="Trazado_602930" data-name="Trazado 602930" d="M124.754,304.522a8.71,8.71,0,0,0-1.6,3.93.509.509,0,0,1,.1.41,9.449,9.449,0,0,1,2.813-5.6l-.168,0a4.525,4.525,0,0,0-1.143,1.257" transform="translate(-99.403 -244.774)" fill="#c5865c"/>
        <path id="Trazado_602931" data-name="Trazado 602931" d="M137.375,302.6l.168,0c.054-.053.108-.107.164-.159h0a1.758,1.758,0,0,0-.332.163" transform="translate(-110.881 -244.107)" fill="#c5865c"/>
        <path id="Trazado_602932" data-name="Trazado 602932" d="M42.982,199.423a.257.257,0,0,0,.06-.079,3.22,3.22,0,0,0,.1-1.212q0-13.4,0-26.8c0-.969,0-1,.969-1.1a9.837,9.837,0,0,0,4.088-1.284,2.339,2.339,0,0,0,.742-.607c0-.036.005-.073.009-.109s.023-.064.035-.1a8.75,8.75,0,0,1-5.258,1.879c-.473.016-.687.121-.779.369a7.315,7.315,0,0,1,.023.766q0,14.134.005,28.268" transform="translate(-34.67 -135.713)" fill="#c5865c"/>
        <path id="Trazado_602933" data-name="Trazado 602933" d="M42.706,180.564a7.264,7.264,0,0,0-.023-.766,1.614,1.614,0,0,0-.065.547q.027,14.269.008,28.538a.216.216,0,0,0,.085-.051q-.015-14.134-.005-28.268" transform="translate(-34.399 -145.122)" fill="#c5865c"/>
        <path id="Trazado_602934" data-name="Trazado 602934" d="M74.178,167.7h0c-.036.029-.073.057-.109.085-.012.031-.026.062-.035.1s-.006.073-.009.109A1.224,1.224,0,0,0,74.178,167.7Z" transform="translate(-59.749 -135.357)" fill="#c5865c"/>
        <path id="Trazado_602935" data-name="Trazado 602935" d="M58.512,329.807c.009-.058.018-.116.027-.173-.159-.168-.471-.108-.691-.109-4.673-.028-9.346-.02-14.019-.013a1.317,1.317,0,0,0-.729.166v.061q7.382,0,14.763.012c.209,0,.479-.1.648.056" transform="translate(-34.788 -265.957)" fill="#c5865c"/>
        <path id="Trazado_602936" data-name="Trazado 602936" d="M42.746,330.4a.879.879,0,0,0-.085.061h.085V330.4Z" transform="translate(-34.433 -266.681)" fill="#c5865c"/>
        <path id="Trazado_602937" data-name="Trazado 602937" d="M123.039,330.173c-.009.058-.019.115-.027.173a.459.459,0,0,1,.125.237.508.508,0,0,0-.1-.41" transform="translate(-99.288 -266.496)" fill="#c5865c"/>
        <path id="Trazado_602938" data-name="Trazado 602938" d="M129.7,107.643c1.148,0,1.394-.244,1.395-1.381q0-4.862,0-9.724-8.508,0-17.016,0a2.419,2.419,0,0,0-2.463,2.459c-.01,2.884,0,5.769,0,8.653l18.078,0" transform="translate(-90.089 -77.915)" fill="#dcd9eb"/>
        <path id="Trazado_602939" data-name="Trazado 602939" d="M64.483,191.917a8.6,8.6,0,0,0-1.25,9.828q.048.122.1.238a11.334,11.334,0,0,0,4.57.783,1.64,1.64,0,0,1,.368-1.908c.918-1.23,1.818-2.473,2.717-3.717a4.665,4.665,0,0,0,.688-1.258,1.039,1.039,0,0,0-.615-1.409,1.111,1.111,0,0,0-1.4.549c-.056.1-.074.228-.121.338a1.127,1.127,0,0,1-1.371.754,1.181,1.181,0,0,1-.7-1.471,3.323,3.323,0,0,1,4.785-2.015,3.229,3.229,0,0,1,1.44,4.082,19.431,19.431,0,0,1-2.271,3.575c-.139.2-.286.407-.487.692.007.012.013.025.021.038h1.373a8.833,8.833,0,0,0,2.9-10.643c-.043-.1-.128-.2-.107-.305a8.666,8.666,0,0,0-9.864,1.068c-.156.123-.332.372-.546.242.062.236-.1.384-.233.539" transform="translate(-50.237 -152.553)" fill="#b2e49e"/>
        <path id="Trazado_602940" data-name="Trazado 602940" d="M75.6,190.321a8.666,8.666,0,0,1,9.864-1.068.224.224,0,0,1,.1-.136,8.644,8.644,0,0,0-6.426-.848,9.133,9.133,0,0,0-4.086,2.27c0,.009,0,.017.005.025.214.13.391-.119.547-.242" transform="translate(-60.572 -151.739)" fill="#b2e49e"/>
        <path id="Trazado_602941" data-name="Trazado 602941" d="M62.4,211.628a8.6,8.6,0,0,1,1.25-9.828c.13-.155.295-.3.233-.539l-.016-.012c-.07.089-.136.183-.213.266a8.766,8.766,0,0,0-1.375,10.276l.225.075q-.056-.117-.1-.238" transform="translate(-49.407 -162.436)" fill="#b2e49e"/>
        <path id="Trazado_602942" data-name="Trazado 602942" d="M74.991,201.192l.016.012c0-.009,0-.016-.005-.025l-.01.013" transform="translate(-60.528 -162.38)" fill="#b2e49e"/>
        <path id="Trazado_602943" data-name="Trazado 602943" d="M77.628,205.845a2.441,2.441,0,0,1-.255.185c.194.006.389.012.583.015a1.061,1.061,0,0,1,1.139.97,1.089,1.089,0,0,1-1.009,1.178,6.626,6.626,0,0,1-.931.022c-.98,0-1.962-.02-2.941.009a2.343,2.343,0,0,1-1.546-.447.366.366,0,0,1-.1.1,6.794,6.794,0,0,1-4.429-.8,6.838,6.838,0,0,0,1.007,1.388c.156.177.4.32.335.613.214-.135.4.138.556.273a8.479,8.479,0,0,0,4.617,2.024,8.353,8.353,0,0,0,7.013-2.305,8.679,8.679,0,0,0-1.557-13.854,8.976,8.976,0,0,1-2.482,10.636" transform="translate(-54.998 -157.561)" fill="#94d5a3"/>
        <path id="Trazado_602944" data-name="Trazado 602944" d="M87.249,207.931a8.354,8.354,0,0,1-7.013,2.305,8.478,8.478,0,0,1-4.617-2.024c-.156-.135-.342-.408-.556-.273,0,.014,0,.027-.008.041a8.841,8.841,0,0,0,8.367,2.269,8.882,8.882,0,0,0,2.143-16.443c.045.09.086.18.128.271a8.679,8.679,0,0,1,1.557,13.854" transform="translate(-60.579 -156.429)" fill="#94d5a3"/>
        <path id="Trazado_602945" data-name="Trazado 602945" d="M68.031,257.452a6.839,6.839,0,0,1-1.007-1.388q-.134-.074-.266-.154a8.384,8.384,0,0,0,1.581,2.174l.027-.019c.067-.293-.179-.437-.335-.613" transform="translate(-53.883 -206.555)" fill="#94d5a3"/>
        <path id="Trazado_602946" data-name="Trazado 602946" d="M74.955,267.1l.019.023a.371.371,0,0,0,.008-.041l-.027.019" transform="translate(-60.499 -215.576)" fill="#94d5a3"/>
        <path id="Trazado_602947" data-name="Trazado 602947" d="M117.484,194.817a8.833,8.833,0,0,1-2.9,10.643l.276.007a2.443,2.443,0,0,0,.255-.185,8.976,8.976,0,0,0,2.482-10.636c-.073-.044-.143-.089-.217-.131l-.007,0c-.02.1.064.205.107.305" transform="translate(-92.488 -156.998)" fill="#94d5a3"/>
        <path id="Trazado_602948" data-name="Trazado 602948" d="M72.4,257.182a.371.371,0,0,0,.1-.1h0a11.335,11.335,0,0,1-4.57-.783c.013.027.028.052.041.079a6.794,6.794,0,0,0,4.43.8" transform="translate(-54.825 -206.87)" fill="#94d5a3"/>
        <path id="Trazado_602949" data-name="Trazado 602949" d="M129.051,193.941l.007,0c.074.042.145.088.217.131-.041-.091-.083-.181-.128-.271a.224.224,0,0,0-.1.136" transform="translate(-104.162 -156.428)" fill="#94d5a3"/>
        <path id="Trazado_602950" data-name="Trazado 602950" d="M66.982,255.986l-.225-.075q.132.08.266.154c-.013-.027-.028-.052-.041-.079" transform="translate(-53.882 -206.556)" fill="#94d5a3"/>
        <path id="Trazado_602951" data-name="Trazado 602951" d="M195.718,207.126c.006-1.608-.033-3.217.013-4.823a6.048,6.048,0,0,0-.686-3.465s0-.007,0-.011a2.184,2.184,0,0,0-1.285-.492v.012c-.091,3.025-.016,6.05-.04,9.075,0,.312.011.625-.018.936a1.236,1.236,0,0,1-1.268,1.292c-.335.034-.672.02-1.008.02-5.57,0-11.14-.006-16.709,0a2.921,2.921,0,0,1-.463-.013,2.342,2.342,0,0,0,2.57,2c3.94.013,7.88,0,11.82.009a1.639,1.639,0,0,1,1.112.2.422.422,0,0,1,.276-.147,10.983,10.983,0,0,1,3.449.1.753.753,0,0,1,.054.07,2.808,2.808,0,0,0,1.518-.541c.86-1.306.662-2.784.667-4.228" transform="translate(-140.646 -160.081)" fill="#cfcde6"/>
        <path id="Trazado_602952" data-name="Trazado 602952" d="M187.628,258.755c-3.94-.008-7.88,0-11.82-.009a2.342,2.342,0,0,1-2.57-2,.754.754,0,0,1-.242-.079,2.474,2.474,0,0,0,2.546,2.306q6.586.008,13.172.006l.026-.025a1.639,1.639,0,0,0-1.112-.2" transform="translate(-139.632 -207.165)" fill="#cfcde6"/>
        <path id="Trazado_602953" data-name="Trazado 602953" d="M258.355,267.5a10.983,10.983,0,0,0-3.449-.1.422.422,0,0,0-.276.147c.011.009.022.016.033.026h3.747a.757.757,0,0,0-.054-.07" transform="translate(-205.522 -215.759)" fill="#cfcde6"/>
        <path id="Trazado_602954" data-name="Trazado 602954" d="M254.5,268.547h.059c-.011-.009-.022-.017-.033-.025l-.026.025" transform="translate(-205.414 -216.735)" fill="#cfcde6"/>
        <path id="Trazado_602955" data-name="Trazado 602955" d="M174.121,209.671a2.875,2.875,0,0,0,.463.013c5.57-.01,11.14,0,16.71,0,.336,0,.673.014,1.008-.02a1.236,1.236,0,0,0,1.268-1.292c.029-.311.015-.624.018-.936.025-3.025-.051-6.05.04-9.075,0,0,0-.008,0-.012a1.243,1.243,0,0,0-.13.014,1.485,1.485,0,0,0-.14.91q0,4.4,0,8.8c0,1.137-.246,1.379-1.4,1.379q-8.547,0-17.093,0a2.568,2.568,0,0,0-.771.047c0,.008,0,.017,0,.025.009.052.02.1.031.151" transform="translate(-140.515 -160.092)" fill="#cfcde6"/>
        <path id="Trazado_602956" data-name="Trazado 602956" d="M173.238,256.337c-.011-.05-.022-.1-.031-.151,0-.008,0-.017,0-.025a.846.846,0,0,0-.212.1.759.759,0,0,0,.242.079" transform="translate(-139.632 -206.758)" fill="#cfcde6"/>
        <path id="Trazado_602957" data-name="Trazado 602957" d="M282.057,200.907a6.048,6.048,0,0,1,.686,3.465c-.046,1.606-.007,3.215-.013,4.823-.005,1.443.193,2.921-.667,4.228l.141-.082h0a3.282,3.282,0,0,0,.761-2.32q-.062-3.887,0-7.776a3.215,3.215,0,0,0-.749-2.251c-.054-.031-.107-.064-.161-.1,0,0,0,.008,0,.011" transform="translate(-227.658 -162.151)" fill="#cfcde6"/>
        <path id="Trazado_602958" data-name="Trazado 602958" d="M131.36,97.446c.007,2.932.014,5.865,0,8.8-.007,1.239-.414,1.649-1.657,1.652q-8.58.022-17.16,0a1.2,1.2,0,0,1-.885-.227,2.451,2.451,0,0,0,2.563,2.448q8.4,0,16.808,0a2.459,2.459,0,0,0,2.552-2.538q.009-4.293,0-8.585a2.337,2.337,0,0,0-2.449-2.434h0a1.2,1.2,0,0,1,.228.885" transform="translate(-90.122 -77.938)" fill="#cfcde6"/>
        <path id="Trazado_602959" data-name="Trazado 602959" d="M129.733,107.667l-18.078,0a1.2,1.2,0,0,0,.885.227q8.58.01,17.16,0c1.244,0,1.65-.413,1.657-1.652.017-2.932.009-5.864,0-8.8a1.205,1.205,0,0,0-.228-.885q0,4.862,0,9.724c0,1.138-.246,1.381-1.395,1.381" transform="translate(-90.121 -77.939)" fill="#cfcde6"/>
        <path id="Trazado_602960" data-name="Trazado 602960" d="M141.874,51.229c0,.36.007.721-.007,1.08a2.121,2.121,0,0,1-2.985,1.969,4.06,4.06,0,0,0-3.666,0,1.93,1.93,0,0,1-1.806-.026,3.918,3.918,0,0,0-3.469-.032,2.119,2.119,0,0,1-3.105-2.061c-.005-.311-.007-.623-.009-.934a4.885,4.885,0,0,1-2.043-.148,2.9,2.9,0,0,1,.107,1.255,4.038,4.038,0,0,0,5.446,3.841,3.357,3.357,0,0,1,2.646.009,3.72,3.72,0,0,0,3.075-.124,2.308,2.308,0,0,1,1.942,0,4.14,4.14,0,0,0,5.842-4.071,1.511,1.511,0,0,1,.123-.944,4.6,4.6,0,0,1-2.092.179" transform="translate(-100.718 -41.205)" fill="#6b61b0"/>
        <path id="Trazado_602961" data-name="Trazado 602961" d="M143.319,51.836a4.14,4.14,0,0,1-5.842,4.071,2.308,2.308,0,0,0-1.942,0,3.721,3.721,0,0,1-3.076.124,3.357,3.357,0,0,0-2.646-.009,4.038,4.038,0,0,1-5.446-3.841,2.9,2.9,0,0,0-.107-1.255c-.042-.02-.084-.041-.125-.066,0,.456,0,.912.008,1.368a4.275,4.275,0,0,0,6.011,3.886,2.224,2.224,0,0,1,1.933,0,3.9,3.9,0,0,0,3.413.021,2.356,2.356,0,0,1,2.057.015,4.278,4.278,0,0,0,5.8-2.858,9.625,9.625,0,0,0,.15-2.432c-.023.014-.046.025-.069.038a1.509,1.509,0,0,0-.123.944" transform="translate(-100.194 -41.046)" fill="#6b61b0"/>
        <path id="Trazado_602962" data-name="Trazado 602962" d="M126.695,51.065c0-.073,0-.146,0-.219h0l-2.072.005c.012.022.021.044.031.066a4.882,4.882,0,0,0,2.043.148" transform="translate(-100.587 -41.04)" fill="#6b61b0"/>
        <path id="Trazado_602963" data-name="Trazado 602963" d="M215.486,50.889c.008-.013.018-.025.027-.038h-2.119c0,.073,0,.145,0,.218a4.6,4.6,0,0,0,2.092-.179" transform="translate(-172.238 -41.044)" fill="#6b61b0"/>
        <path id="Trazado_602964" data-name="Trazado 602964" d="M224.245,50.892c.023-.013.046-.024.069-.038h-.042c-.009.013-.019.025-.027.038" transform="translate(-180.997 -41.046)" fill="#6b61b0"/>
        <path id="Trazado_602965" data-name="Trazado 602965" d="M124.228,50.874h-.094c.042.024.083.046.125.066-.01-.022-.019-.044-.031-.066" transform="translate(-100.194 -41.062)" fill="#6b61b0"/>
        <path id="Trazado_602966" data-name="Trazado 602966" d="M275.77,266.376a1.327,1.327,0,0,1-1.491.452,1.558,1.558,0,0,1,.163.942c.01,1.225,0,2.45.005,3.675,0,1.024.024,1.042,1.048,1.055.107,0,.214.007.322.011a.937.937,0,0,1-.08-.382c0-1.918-.07-3.836.033-5.753" transform="translate(-221.382 -215.003)" fill="#c5855c"/>
        <path id="Trazado_602967" data-name="Trazado 602967" d="M275.253,274.341c-1.024-.014-1.044-.031-1.048-1.055,0-1.225.005-2.45-.005-3.675a1.559,1.559,0,0,0-.163-.942l-.044-.013q-.007,2.157-.013,4.313c0,1.694,0,1.694,1.732,1.6a.776.776,0,0,1-.137-.214c-.107,0-.214-.009-.322-.011" transform="translate(-221.14 -216.844)" fill="#c5855c"/>
        <path id="Trazado_602968" data-name="Trazado 602968" d="M281.736,271.361a.93.93,0,0,0,.08.382c.045,0,.091,0,.136,0q-.012-3.161-.025-6.321h0c-.053.066-.106.127-.158.183-.1,1.917-.037,3.835-.033,5.753" transform="translate(-227.38 -214.234)" fill="#c5855c"/>
        <path id="Trazado_602969" data-name="Trazado 602969" d="M282.254,298.187a.776.776,0,0,0,.137.214q0-.106,0-.212l-.136,0" transform="translate(-227.819 -240.679)" fill="#c5855c"/>
        <path id="Trazado_602970" data-name="Trazado 602970" d="M275.728,265.953c0-.026,0-.053,0-.079l.013-.022a2.809,2.809,0,0,1-1.518.541l.01.013a1.327,1.327,0,0,0,1.491-.452" transform="translate(-221.34 -214.58)" fill="#c5855c"/>
        <path id="Trazado_602971" data-name="Trazado 602971" d="M274.084,268.654h-.034l.044.013-.01-.013" transform="translate(-221.197 -216.841)" fill="#c5855c"/>
        <path id="Trazado_602972" data-name="Trazado 602972" d="M282.012,265.529c0,.026,0,.053,0,.079.053-.057.105-.117.158-.184l-.141.082-.014.022" transform="translate(-227.62 -214.234)" fill="#c5855c"/>
        <path id="Trazado_602973" data-name="Trazado 602973" d="M276.481,64.282a6.4,6.4,0,0,1-.041-.932q0-15.217,0-30.434a2.414,2.414,0,0,1,.106-1.11c-1.372.06-1.375.1-1.375,1.571q0,14.487,0,28.975c0,.513.005,1.026.04,1.539a1.06,1.06,0,0,1,1.267.391" transform="translate(-222.105 -25.672)" fill="#c5855c"/>
        <path id="Trazado_602974" data-name="Trazado 602974" d="M273,32.023q0,15.149.007,30.3c0,.3-.131.627.135.888h0c.044-.018.086-.034.128-.048-.034-.513-.04-1.026-.04-1.539q0-14.487,0-28.975c0-1.473,0-1.511,1.375-1.571a.948.948,0,0,1,.109-.17c-.65-.011-1.3,0-1.949.048A1.513,1.513,0,0,1,273,32.023" transform="translate(-220.16 -24.942)" fill="#c5855c"/>
        <path id="Trazado_602975" data-name="Trazado 602975" d="M274.439,30.786c.009-.011.014-.022.023-.033h-2.039c.025.027.044.054.066.081.649-.05,1.3-.059,1.949-.048" transform="translate(-219.884 -24.822)" fill="#c5855c"/>
        <path id="Trazado_602976" data-name="Trazado 602976" d="M281.7,32.89q-.009,15.217,0,30.434a6.4,6.4,0,0,0,.041.932c.06.069.12.147.181.232.005-.336.014-.672.014-1.008q0-15.853.006-31.707l-.027,0-.106,0a2.411,2.411,0,0,0-.107,1.11" transform="translate(-227.364 -25.646)" fill="#c5855c"/>
        <path id="Trazado_602977" data-name="Trazado 602977" d="M282.308,31.094l.105,0,.027,0v-.164h-.024a.94.94,0,0,0-.109.17" transform="translate(-227.862 -24.96)" fill="#c5855c"/>
        <path id="Trazado_602978" data-name="Trazado 602978" d="M282.9,30.786v-.033c-.009.011-.015.022-.024.033h.024" transform="translate(-228.317 -24.822)" fill="#c5855c"/>
        <path id="Trazado_602979" data-name="Trazado 602979" d="M276.667,198.386c-.009-.045-.014-.09-.02-.135a1.06,1.06,0,0,0-1.267-.391c0,.011,0,.022,0,.034a2.184,2.184,0,0,1,1.286.492" transform="translate(-222.27 -159.641)" fill="#c5855c"/>
        <path id="Trazado_602980" data-name="Trazado 602980" d="M274.842,198.17c-.042.014-.085.03-.128.048a1.245,1.245,0,0,1,.13-.014c0-.011,0-.023,0-.034" transform="translate(-221.733 -159.951)" fill="#c5855c"/>
        <path id="Trazado_602981" data-name="Trazado 602981" d="M281.969,200.332c.053.033.107.066.161.1q-.091-.128-.181-.232c.007.045.011.09.02.135" transform="translate(-227.572 -161.587)" fill="#c5855c"/>
        <path id="Trazado_602982" data-name="Trazado 602982" d="M35.856,114.843a1.872,1.872,0,0,1-.136-.987c-.005-1.851.007-3.7-.006-5.553-.009-1.346-.386-1.711-1.724-1.715a3.522,3.522,0,0,0-1.215.11.847.847,0,0,0-.631.865c.011.465.305.673.732.748.322.057.693.014.872.393,0,.015,0,.031.005.046.311.187.211.547.214.834.02,2.012.006,4.023.011,6.035,0,.975.219,1.317.82,1.322.564.005.836-.384.912-1.307a1.048,1.048,0,0,1,.207-.74v-.019a.666.666,0,0,1-.063-.032" transform="translate(-25.945 -86.029)" fill="#6b61b0"/>
        <path id="Trazado_602983" data-name="Trazado 602983" d="M32.619,107.726c-.179-.38-.55-.337-.872-.393-.427-.075-.721-.283-.732-.748a.847.847,0,0,1,.631-.866,3.527,3.527,0,0,1,1.214-.11c1.338,0,1.715.369,1.724,1.715.013,1.851,0,3.7.006,5.553a1.871,1.871,0,0,0,.136.986.69.69,0,0,0,.063.032q-.009-3.478-.017-6.956c0-.676-.165-1.307-.9-1.452a5.513,5.513,0,0,0-2.351.024.975.975,0,0,0-.764,1.2.951.951,0,0,0,.976.873c.253.02.532-.09.754.123a.672.672,0,0,1,.134.061c0-.015,0-.031-.005-.046" transform="translate(-24.816 -85.051)" fill="#6b61b0"/>
        <path id="Trazado_602984" data-name="Trazado 602984" d="M41.5,126c-.6-.006-.818-.347-.821-1.322,0-2.012.009-4.023-.011-6.035,0-.287.1-.647-.214-.834a24.514,24.514,0,0,1,.061,3.034c.017,1.2,0,2.394.006,3.59a1.294,1.294,0,0,1-.076.47c0,.051,0,.1,0,.153,0,.827.293,1.18.985,1.215a1.061,1.061,0,0,0,1.162-1.1c.043-.4.02-.815.027-1.223a1.048,1.048,0,0,0-.207.74c-.076.922-.348,1.312-.912,1.307" transform="translate(-32.641 -95.092)" fill="#6b61b0"/>
        <path id="Trazado_602985" data-name="Trazado 602985" d="M39.99,120.592a24.513,24.513,0,0,0-.061-3.034.668.668,0,0,0-.134-.061c.219.222.119.5.12.754.008,2.134,0,4.268,0,6.4a1.293,1.293,0,0,0,.077-.47c-.008-1.2.011-2.394-.006-3.59" transform="translate(-32.12 -94.836)" fill="#6b61b0"/>
        <path id="Trazado_602986" data-name="Trazado 602986" d="M164.379,12.29a2.242,2.242,0,0,0-2.2,1.436,3.452,3.452,0,0,1-.217.453c1.576-.038,3.152.03,4.727-.046a2.26,2.26,0,0,1-.174-.429,2.229,2.229,0,0,0-2.139-1.414" transform="translate(-130.728 -9.92)" fill="#fefefe"/>
        <path id="Trazado_602987" data-name="Trazado 602987" d="M165.961,21.846c-1.575.076-3.152.007-4.727.046a1.008,1.008,0,0,1-.175.221l4.647.029a.511.511,0,0,0,.453-.155.37.37,0,0,1-.2-.14" transform="translate(-129.997 -17.633)" fill="#fefefe"/>
        <path id="Trazado_602988" data-name="Trazado 602988" d="M161.693,12.882a2.362,2.362,0,0,1,4.337-.022,2.246,2.246,0,0,0,.173.429l.088,0,.07,0a2.546,2.546,0,0,0-5,.048l.116,0a3.476,3.476,0,0,0,.217-.453" transform="translate(-130.24 -9.076)" fill="#fefefe"/>
        <path id="Trazado_602989" data-name="Trazado 602989" d="M161.116,22.085c-.02.072-.041.144-.058.219a1.015,1.015,0,0,0,.175-.221l-.117,0" transform="translate(-129.996 -17.823)" fill="#fefefe"/>
        <path id="Trazado_602990" data-name="Trazado 602990" d="M186.633,21.831l-.07,0-.088,0a.37.37,0,0,0,.2.14h0c-.012-.048-.027-.094-.041-.14" transform="translate(-150.511 -17.618)" fill="#fefefe"/>
        <path id="Trazado_602991" data-name="Trazado 602991" d="M136.312,52.849c.037,1.748,1.233,2.577,2.854,1.936a4.12,4.12,0,0,1,3.478.018,2.043,2.043,0,0,0,1.871,0,3.853,3.853,0,0,1,3.474-.035,2.006,2.006,0,0,0,2.941-1.965,2.052,2.052,0,0,1,.062-.811q-7.371.049-14.74,0a2.054,2.054,0,0,1,.059.857" transform="translate(-109.975 -41.964)" fill="#f8f5f8"/>
        <path id="Trazado_602992" data-name="Trazado 602992" d="M135.535,51.067q7.37.051,14.74,0a.752.752,0,0,1,.137-.22H135.364a.665.665,0,0,1,.171.222" transform="translate(-109.258 -41.039)" fill="#f8f5f8"/>
        <path id="Trazado_602993" data-name="Trazado 602993" d="M138.489,54.976a3.917,3.917,0,0,1,3.469.032,1.93,1.93,0,0,0,1.806.026,4.061,4.061,0,0,1,3.666,0,2.121,2.121,0,0,0,2.985-1.969c.014-.36.009-.72.007-1.08l-.038,0h-.1a2.052,2.052,0,0,0-.062.811,2.007,2.007,0,0,1-2.941,1.966,3.853,3.853,0,0,0-3.474.035,2.043,2.043,0,0,1-1.871,0,4.12,4.12,0,0,0-3.478-.018c-1.621.641-2.817-.188-2.854-1.936a2.055,2.055,0,0,0-.059-.857h-.106l-.063,0c0,.311,0,.623.009.934a2.12,2.12,0,0,0,3.105,2.061" transform="translate(-109.267 -41.955)" fill="#f8f5f8"/>
        <path id="Trazado_602994" data-name="Trazado 602994" d="M212.783,51.069l.038,0c0-.073,0-.145,0-.218a.752.752,0,0,0-.137.22h.1" transform="translate(-171.665 -41.043)" fill="#f8f5f8"/>
        <path id="Trazado_602995" data-name="Trazado 602995" d="M135.428,51.067h.106a.665.665,0,0,0-.171-.222q0,.109,0,.219l.063,0" transform="translate(-109.257 -41.04)" fill="#f8f5f8"/>
        <path id="Trazado_602996" data-name="Trazado 602996" d="M94.109,214.181a19.674,19.674,0,0,0,1.99-3.163,3.055,3.055,0,0,0-1.53-4,3.149,3.149,0,0,0-4.043,1.332,2.061,2.061,0,0,0-.282.958.846.846,0,0,0,.613.877.832.832,0,0,0,.952-.337,5.133,5.133,0,0,0,.311-.567,1.231,1.231,0,0,1,1.71-.577,1.212,1.212,0,0,1,.556,1.715,6.547,6.547,0,0,1-.8,1.366c-.789,1.088-1.544,2.2-2.37,3.262a2.157,2.157,0,0,0-.661,1.824.263.263,0,0,1-.05.208,19.888,19.888,0,0,0,4.483.238c.167,0,.335,0,.5-.007.763-.047,1.176-.353,1.193-.881.016-.5-.337-.779-1.1-.873a1.082,1.082,0,0,1-.549-.129c-.018.008-.035.017-.053.024-.493.087-1.127.3-1.418-.121l0,0h-.048l.027-.038c-.212-.39.332-.757.565-1.107" transform="translate(-72.839 -166.864)" fill="#6b61b0"/>
        <path id="Trazado_602997" data-name="Trazado 602997" d="M89.627,216.242a.263.263,0,0,0,.05-.208,2.156,2.156,0,0,1,.661-1.824c.826-1.061,1.581-2.174,2.37-3.262a6.543,6.543,0,0,0,.8-1.366,1.212,1.212,0,0,0-.556-1.715,1.231,1.231,0,0,0-1.71.577,5.161,5.161,0,0,1-.311.567.832.832,0,0,1-.952.337.846.846,0,0,1-.613-.877,2.062,2.062,0,0,1,.282-.958,3.148,3.148,0,0,1,4.043-1.332,3.054,3.054,0,0,1,1.53,4,19.642,19.642,0,0,1-1.989,3.163c-.233.35-.777.717-.565,1.107.2-.284.348-.487.487-.692a19.44,19.44,0,0,0,2.271-3.575,3.229,3.229,0,0,0-1.44-4.082,3.323,3.323,0,0,0-4.785,2.015,1.181,1.181,0,0,0,.7,1.471,1.127,1.127,0,0,0,1.371-.754c.047-.11.065-.233.121-.337a1.111,1.111,0,0,1,1.4-.549,1.039,1.039,0,0,1,.615,1.409,4.665,4.665,0,0,1-.688,1.258c-.9,1.244-1.8,2.487-2.717,3.717a1.641,1.641,0,0,0-.368,1.909h0" transform="translate(-71.957 -166.029)" fill="#6b61b0"/>
        <path id="Trazado_602998" data-name="Trazado 602998" d="M108.886,251.4c.018-.007.035-.016.053-.024a.453.453,0,0,1-.1-.1h-1.373l0,0c.291.426.925.208,1.418.121" transform="translate(-86.74 -202.817)" fill="#6b61b0"/>
        <path id="Trazado_602999" data-name="Trazado 602999" d="M96.7,251.538c.764.094,1.117.373,1.1.872-.017.528-.43.834-1.193.881-.167.01-.335.011-.5.007a19.884,19.884,0,0,1-4.483-.238h0a2.343,2.343,0,0,0,1.546.448c.98-.029,1.961-.007,2.942-.009a6.649,6.649,0,0,0,.931-.021,1.089,1.089,0,0,0,1.009-1.178,1.061,1.061,0,0,0-1.139-.97c-.194,0-.389-.009-.583-.015a1.447,1.447,0,0,1-.177.094,1.082,1.082,0,0,0,.549.129" transform="translate(-73.952 -202.846)" fill="#6b61b0"/>
        <path id="Trazado_603000" data-name="Trazado 603000" d="M114.686,251.38a1.445,1.445,0,0,0,.177-.094l-.276-.007a.452.452,0,0,0,.1.1" transform="translate(-92.487 -202.818)" fill="#6b61b0"/>
        <path id="Trazado_603001" data-name="Trazado 603001" d="M91.62,260.362h0" transform="translate(-73.95 -210.149)" fill="#6b61b0"/>
      </g>
    </g>
  </g>
</svg>
