<svg xmlns="http://www.w3.org/2000/svg" xmlns:xlink="http://www.w3.org/1999/xlink" width="112" height="112" viewBox="0 0 112 112">
  <defs>
    <clipPath id="clip-path">
      <rect id="Rectángulo_300833" data-name="Rectángulo 300833" width="74.145" height="73.889" fill="none"/>
    </clipPath>
  </defs>
  <g id="Grupo_886485" data-name="Grupo 886485" transform="translate(2114 7322.175)">
    <circle id="Elipse_6638" data-name="Elipse 6638" cx="56" cy="56" r="56" transform="translate(-2114 -7322.175)" fill="#e1fbff"/>
    <g id="Grupo_886161" data-name="Grupo 886161" transform="translate(-2095 -7302.175)">
      <g id="Grupo_886160" data-name="Grupo 886160" clip-path="url(#clip-path)">
        <path id="Trazado_602280" data-name="Trazado 602280" d="M4.874,277.587a1.984,1.984,0,0,0,2.2-1.34.786.786,0,0,1,.253-.344c.015-.01.031-.018.046-.028q.005-9.166.011-18.332c0-.361.009-.722.014-1.083a2.222,2.222,0,0,0-1.741-1.995.762.762,0,0,1-.107.117,13.127,13.127,0,0,1-2.713.1A10.6,10.6,0,0,0,0,254.9v22.589c1.623.141,3.251.022,4.874.095" transform="translate(0 -205.221)" fill="#e05f78"/>
        <path id="Trazado_602281" data-name="Trazado 602281" d="M4.9,367.02c1.533,0,1.992-.332,2.471-1.772h0q0-.077,0-.154c-.015.01-.031.017-.046.028a.787.787,0,0,0-.253.344,1.984,1.984,0,0,1-2.2,1.34c-1.623-.073-3.251.047-4.874-.095a1.519,1.519,0,0,0,1.069.316c1.276-.017,2.552-.005,3.829-.007" transform="translate(0 -294.44)" fill="#e05f78"/>
        <path id="Trazado_602282" data-name="Trazado 602282" d="M5.547,254.574a.758.758,0,0,0,.106-.117l-.006,0c-1.525,0-3.051.02-4.576,0A1.252,1.252,0,0,0,0,254.894a10.6,10.6,0,0,1,2.834-.219,13.141,13.141,0,0,0,2.713-.1" transform="translate(0 -205.212)" fill="#e05f78"/>
        <path id="Trazado_602283" data-name="Trazado 602283" d="M95.757,6.916a3.211,3.211,0,0,0-3.482,2.67,3.866,3.866,0,0,0,.276,1.579,4.589,4.589,0,0,0,1.759,1.753c-1.885.216-3.064,1.117-3.179,2.986-.09,1.457.784,2.356,2.156,3.045-.327.023-.517.047-.706.048q-5.5,0-11,0a13.767,13.767,0,0,0-2.8.131A3.28,3.28,0,0,0,76.892,21.3h0a4.713,4.713,0,0,0,3.638,1.189c9.376-.028,18.752-.015,28.128-.015a2.27,2.27,0,0,1,2.44,2.42c0,3.134.026,6.267-.012,9.4a5.059,5.059,0,0,0,1.132,3.544c.167.194.34.35.037.558a3.892,3.892,0,0,0,3.473-3.932,35.2,35.2,0,0,0-.021-3.822,3.953,3.953,0,0,1,1.909-3.9c1.057-.739,2.056-1.561,3.076-2.354a3.687,3.687,0,0,1,2.15-.893h0c1.973.106,3.947.164,5.924.132V4.15a1.685,1.685,0,0,1-.9.146c-.989.007-1.978-.012-2.966.008a2.558,2.558,0,0,1-1.744-.579,12.162,12.162,0,0,0-8.214-2.63c-6.028.062-12.058.013-18.087.021a2.858,2.858,0,0,0-3.131,2.651,9.93,9.93,0,0,0,.2,1.5.589.589,0,0,1-.058.14,3.529,3.529,0,0,0,1.886,1.51" transform="translate(-62.012 -0.882)" fill="#fedfd1"/>
        <path id="Trazado_602284" data-name="Trazado 602284" d="M163.035,4.523a.589.589,0,0,0,.058-.14,9.949,9.949,0,0,1-.2-1.5A2.858,2.858,0,0,1,166.02.234c6.029-.008,12.059.041,18.087-.021a12.162,12.162,0,0,1,8.214,2.63,2.558,2.558,0,0,0,1.744.579c.988-.02,1.977,0,2.966-.008a1.685,1.685,0,0,0,.9-.146V3.2c-1.255,0-2.511-.039-3.764.014a2.591,2.591,0,0,1-1.852-.632A11.34,11.34,0,0,0,184.843.01C178.521.024,172.2.044,165.877,0a3.075,3.075,0,0,0-2.851,4.509h0l.009.014" transform="translate(-131.175 0)" fill="#fedfd1"/>
        <path id="Trazado_602285" data-name="Trazado 602285" d="M235.146,117.715a1.482,1.482,0,0,1-.949.193c-1.607.065-3.208-.065-4.808-.159-.021,0-.041,0-.062,0a33.569,33.569,0,0,1,2.843,6.284,27.951,27.951,0,0,1-19.908,35.5,3.16,3.16,0,0,1-3.474,3.236,2.935,2.935,0,0,1,2.012,1.978l.15.142h0c.491.091,1,.066,1.486.2a1.382,1.382,0,0,0,.189-.069,33.268,33.268,0,0,0,23.8-44.628c-.117-.3-.423-.645-.126-.969l-.011-.03a2.425,2.425,0,0,1-1.147-1.681" transform="translate(-168.383 -94.934)" fill="#7cc2ed"/>
        <path id="Trazado_602286" data-name="Trazado 602286" d="M251.631,127.523a33.287,33.287,0,0,1-23.8,44.628,1.381,1.381,0,0,1-.189.069,2.061,2.061,0,0,1,.259.089,28.131,28.131,0,0,0,6.819-2.269,33.166,33.166,0,0,0,11.117-8.34,33.866,33.866,0,0,0,5.7-9.144,32.935,32.935,0,0,0,2.455-10.172,34.241,34.241,0,0,0-.62-9.811,43.7,43.7,0,0,0-1.863-6.019c-.3.324.009.671.126.969" transform="translate(-183.584 -102.063)" fill="#7cc2ed"/>
        <path id="Trazado_602287" data-name="Trazado 602287" d="M320.262,117c-1.976.033-3.951-.026-5.924-.132h0c.038.067.075.135.112.2l.062,0c1.6.094,3.2.224,4.808.159a1.482,1.482,0,0,0,.949-.193C320.267,117.017,320.264,117.007,320.262,117Z" transform="translate(-253.506 -94.248)" fill="#7cc2ed"/>
        <path id="Trazado_602288" data-name="Trazado 602288" d="M23.133,69.321a3.059,3.059,0,0,1,.2.794l2.7.031,2.307-.01c-.522-1.157-1.074-2.3-1.56-3.475a27.005,27.005,0,0,1-1.869-12.712,26.722,26.722,0,0,1,5.6-14.5h0l.079-.11a1.1,1.1,0,0,1,.254-1.044A3.445,3.445,0,0,1,32.6,36.956l.111-.026a26.8,26.8,0,0,1,9.365-6.461c.11-.047.218-.1.327-.146h0a22.543,22.543,0,0,1,3.451-2.63c0-.015,0-.03,0-.046a3.256,3.256,0,0,1,1.507-2.364,2.255,2.255,0,0,1,1.721-.464A1.8,1.8,0,0,1,47.617,23.4c-.143.243-.428.259-.684.306a33.167,33.167,0,0,0-15.372,7.151,32.794,32.794,0,0,0-7.943,9.659,32.309,32.309,0,0,0-3.848,12.048,32.82,32.82,0,0,0,1.516,14.546c.109.315.381.661.129,1a1.769,1.769,0,0,1,1.718,1.2" transform="translate(-15.76 -18.873)" fill="#64abdb"/>
        <path id="Trazado_602289" data-name="Trazado 602289" d="M20.7,68.036c.252-.343-.02-.689-.129-1a32.82,32.82,0,0,1-1.516-14.547A32.309,32.309,0,0,1,22.9,40.438a32.8,32.8,0,0,1,7.943-9.659,33.169,33.169,0,0,1,15.372-7.151c.256-.047.541-.063.684-.306,0-.007,0-.012-.006-.019a34.044,34.044,0,0,0-9.062,2.8,33.381,33.381,0,0,0-11.317,8.7,32.514,32.514,0,0,0-4.673,7.272A32.848,32.848,0,0,0,18.775,53.5a35.762,35.762,0,0,0,.273,8.2,35.968,35.968,0,0,0,1.647,6.334H20.7" transform="translate(-15.047 -18.793)" fill="#64abdb"/>
        <path id="Trazado_602290" data-name="Trazado 602290" d="M30.933,255.659a1.769,1.769,0,0,0-1.718-1.2v0a2.222,2.222,0,0,1,1.741,2l.182,0a3.059,3.059,0,0,0-.2-.794" transform="translate(-23.56 -205.211)" fill="#85d6e4"/>
        <path id="Trazado_602291" data-name="Trazado 602291" d="M29.189,254.456v0h-.007l.006,0" transform="translate(-23.535 -205.211)" fill="#85d6e4"/>
        <path id="Trazado_602292" data-name="Trazado 602292" d="M76.507,95.664A3.28,3.28,0,0,1,78.4,93.5c.058-.065.117-.127.176-.191l-.111.026a3.445,3.445,0,0,0-1.741,1.341,1.1,1.1,0,0,0-.254,1.044l.037-.051h0" transform="translate(-61.627 -75.248)" fill="#85d6e4"/>
        <path id="Trazado_602293" data-name="Trazado 602293" d="M158.727,24.8a2.254,2.254,0,0,0-1.721.463,3.256,3.256,0,0,0-1.507,2.364c0,.015,0,.031,0,.046l.172-.115a3.211,3.211,0,0,1,3.482-2.67,3.53,3.53,0,0,1-1.886-1.51l0,.005a1.8,1.8,0,0,0,1.467,1.417" transform="translate(-125.404 -18.852)" fill="#64abdb"/>
        <path id="Trazado_602294" data-name="Trazado 602294" d="M164.589,23.322l0-.005-.009-.014h0c0,.007,0,.013.006.019" transform="translate(-132.732 -18.793)" fill="#85d6e4"/>
        <path id="Trazado_602295" data-name="Trazado 602295" d="M346.314,30.738c1.566.041,3.132.039,4.7.029.979-.006,1.155-.166,1.156-1.132q.016-10.341,0-20.681c0-.909-.142-1.035-1.064-1.044-1.205-.012-2.412.039-3.615-.016a2.011,2.011,0,0,0-2.162,1.331,1.113,1.113,0,0,1-.238.36c-.012.009-.025.016-.038.024a1.313,1.313,0,0,1,.2.913q.01,8.826,0,17.653a1.682,1.682,0,0,1-.159.914.721.721,0,0,1-.057.048c.341.589.767,1.12,1.139,1.688l.034.007a.832.832,0,0,1,.111-.093" transform="translate(-278.259 -6.363)" fill="#e05f78"/>
        <path id="Trazado_602296" data-name="Trazado 602296" d="M344.984,8.626c.013-.009.026-.015.038-.024a1.117,1.117,0,0,0,.239-.36,2.012,2.012,0,0,1,2.162-1.331c1.2.055,2.41,0,3.615.016.922.009,1.063.135,1.064,1.044q.015,10.341,0,20.682c0,.965-.177,1.125-1.156,1.131-1.565.01-3.131.012-4.7-.029a.849.849,0,0,0-.111.093,5.3,5.3,0,0,0,.888.149c1.471.017,2.942,0,4.413.011.645,0,.9-.312.9-.941q-.01-10.744,0-21.488c0-.644-.248-.919-.9-.908-1.35.023-2.7.005-4.052.007-1.527,0-2.04.4-2.436,1.9.014.014.023.029.035.043" transform="translate(-278.193 -5.381)" fill="#e05f78"/>
        <path id="Trazado_602297" data-name="Trazado 602297" d="M344.949,36.272l.016.026a.721.721,0,0,0,.057-.048,1.684,1.684,0,0,0,.159-.914q.006-8.827,0-17.653a1.313,1.313,0,0,0-.2-.913l-.035.022Z" transform="translate(-278.193 -13.525)" fill="#e68f97"/>
        <path id="Trazado_602298" data-name="Trazado 602298" d="M344.984,16.589c-.012-.014-.022-.029-.035-.043v.066l.035-.023" transform="translate(-278.193 -13.344)" fill="#e68f97"/>
        <path id="Trazado_602299" data-name="Trazado 602299" d="M346.133,119.365c-.372-.568-.8-1.1-1.139-1.688l-.009.007a2.424,2.424,0,0,0,1.147,1.681" transform="translate(-278.223 -94.904)" fill="#e68f97"/>
        <path id="Trazado_602300" data-name="Trazado 602300" d="M344.949,117.545h0c0,.011.005.022.007.033l.009-.007Z" transform="translate(-278.193 -94.797)" fill="#e68f97"/>
        <path id="Trazado_602301" data-name="Trazado 602301" d="M73.891,284.288a.606.606,0,0,1-.267-.2,4.124,4.124,0,0,1-2.893.933c-6.1-.006-12.195.016-18.292-.015a11.519,11.519,0,0,1-5.365-1.157,15.526,15.526,0,0,1-1.9-1.171,4.187,4.187,0,0,0-2.149-.893c-1.04-.092-1.449-.684-1.449-1.785q0-7.159,0-14.318H41.55c-.667.036-1.335.016-2,.012a1.42,1.42,0,0,1-.66-.1c0,.03.007.059.009.089.038,6.122.01,12.243.016,18.364a1.789,1.789,0,0,1-.109.729,2.174,2.174,0,0,1,.858-.116c.892-.007,1.785.027,2.676-.011a2.962,2.962,0,0,1,2.067.69,10.96,10.96,0,0,0,5.783,2.441,12.4,12.4,0,0,0,1.3.063H70c2.481,0,3.159-.506,3.878-2.894a1.016,1.016,0,0,1,.13-.154l-.117-.5,0,0" transform="translate(-31.295 -214.193)" fill="#fed0c1"/>
        <path id="Trazado_602302" data-name="Trazado 602302" d="M73.3,364.343c-.719,2.388-1.4,2.894-3.878,2.894H50.9a12.41,12.41,0,0,1-1.3-.063,10.963,10.963,0,0,1-5.783-2.441,2.961,2.961,0,0,0-2.067-.69c-.891.038-1.784,0-2.676.011a2.171,2.171,0,0,0-.858.116.941.941,0,0,1-.14.228h0a29.113,29.113,0,0,1,4.1-.134,1.629,1.629,0,0,1,1.186.41,12.194,12.194,0,0,0,8.18,2.8c6.166-.079,12.335-.023,18.5-.023a3.126,3.126,0,0,0,3.387-3.223l-.009-.041a.992.992,0,0,0-.13.154" transform="translate(-30.71 -293.589)" fill="#fed0c1"/>
        <path id="Trazado_602303" data-name="Trazado 602303" d="M38.328,283.384c-.006-6.121.021-12.242-.016-18.364,0-.03-.007-.059-.009-.089a.669.669,0,0,1-.2-.158c0,.361-.013.722-.014,1.083q-.007,9.166-.011,18.332a1.062,1.062,0,0,1,.14-.074,1.789,1.789,0,0,0,.109-.729" transform="translate(-30.71 -213.533)" fill="#fed0c1"/>
        <path id="Trazado_602304" data-name="Trazado 602304" d="M38.08,364.787v.154a.954.954,0,0,0,.14-.228,1.02,1.02,0,0,0-.14.074" transform="translate(-30.711 -294.132)" fill="#fed0c1"/>
        <path id="Trazado_602305" data-name="Trazado 602305" d="M218.994,361.036l0,0-.033-.14-.15-.142c-.029.028-.059.053-.088.079a.606.606,0,0,0,.267.2" transform="translate(-176.398 -290.94)" fill="#fed0c1"/>
        <path id="Trazado_602306" data-name="Trazado 602306" d="M41.828,265.03h.026v-.215l-2.7-.031c.007.052.011.1.016.156a1.419,1.419,0,0,0,.66.1c.667,0,1.335.024,2-.012" transform="translate(-31.574 -213.542)" fill="#fed0c1"/>
        <path id="Trazado_602307" data-name="Trazado 602307" d="M38.39,264.775l-.182,0a.666.666,0,0,0,.2.158c-.005-.052-.01-.1-.016-.156" transform="translate(-30.814 -213.533)" fill="#fed0c1"/>
        <path id="Trazado_602308" data-name="Trazado 602308" d="M220.675,362.4a.444.444,0,0,1,.062.419,1.63,1.63,0,0,1,.844-.3,2.706,2.706,0,0,1-.906-.114" transform="translate(-177.969 -292.269)" fill="#7cc2ed"/>
        <path id="Trazado_602309" data-name="Trazado 602309" d="M221.666,362.966a1.63,1.63,0,0,0-.844.3.546.546,0,0,1-.041.089,10.554,10.554,0,0,0,1.586-.394c-.232-.012-.467,0-.7,0" transform="translate(-178.055 -292.718)" fill="#7cc2ed"/>
        <path id="Trazado_602310" data-name="Trazado 602310" d="M221,361.78a3.677,3.677,0,0,0,.441-.09c-.484-.135-.995-.11-1.486-.2h0a1.392,1.392,0,0,1,.139.177,2.705,2.705,0,0,0,.906.114" transform="translate(-177.392 -291.532)" fill="#7cc2ed"/>
        <path id="Trazado_602311" data-name="Trazado 602311" d="M225.8,362.528a3.622,3.622,0,0,1-.441.09c.234,0,.468-.013.7,0h0a2.049,2.049,0,0,0-.259-.089" transform="translate(-181.744 -292.37)" fill="#7cc2ed"/>
        <path id="Trazado_602312" data-name="Trazado 602312" d="M220.234,362.251c-.035-.012-.071-.022-.106-.036l.117.5c.017-.016.033-.033.051-.047a.444.444,0,0,0-.062-.419" transform="translate(-177.528 -292.118)" fill="#7cc2ed"/>
        <path id="Trazado_602313" data-name="Trazado 602313" d="M220.732,364.613l.009.041a.544.544,0,0,0,.041-.089c-.017.015-.034.031-.051.048" transform="translate(-178.015 -294.013)" fill="#7cc2ed"/>
        <path id="Trazado_602314" data-name="Trazado 602314" d="M220.1,361.667a1.393,1.393,0,0,0-.139-.177l.033.14c.035.014.071.024.106.036" transform="translate(-177.392 -291.533)" fill="#7cc2ed"/>
        <path id="Trazado_602315" data-name="Trazado 602315" d="M93.731,113.526a2.747,2.747,0,0,0-1.088,2.259c0,1.542.022,3.085-.009,4.626a4.042,4.042,0,0,1-2.8,3.972c-.285.105-.593.282-.878.022a3.843,3.843,0,0,1-3.944-3.627c-.1-2.409-.034-4.814-.083-7.22-.035-1.695-.776-2.469-2.46-2.469-8.439,0-16.878-.057-25.315.038-2.118.024-3.782-1.313-3.688-3.385a28.747,28.747,0,0,0-3.827,7.139,28.374,28.374,0,0,0,.535,20.33c.318.757.725,1.469,1.06,2.217.1.234.278.484.108.729a4.5,4.5,0,0,0,3.424-1.335c1.029-.825,2.072-1.635,3.117-2.439a2.941,2.941,0,0,0,1.261-2.469c-.013-1.5,0-2.992,0-4.488,0-2.323,1.211-3.864,3.478-4.121a3.635,3.635,0,0,1,3.907,3.479c0,2.413,0,4.826,0,7.239a2.444,2.444,0,0,0,1.413,2.4,2.253,2.253,0,0,0,1.059.154q12.957,0,25.914,0a3.04,3.04,0,1,1,.017,6.074c-4.367.013-8.734.007-13.1.009-.023,0-.047.007-.187.031,0,0,0,.008-.006.012,1.441.762,2.372,1.8,2.078,3.439a2.988,2.988,0,0,1-3.088,2.545.4.4,0,0,0-.027.08,3.761,3.761,0,0,1,1.994,2.648,1.4,1.4,0,0,1,.614-.272,26.692,26.692,0,0,0,10.8-5.794,27.226,27.226,0,0,0,8.483-13.278,27.7,27.7,0,0,0-1.625-19.727,25.082,25.082,0,0,0-1.2-2.226.861.861,0,0,1-.15-.4,3.53,3.53,0,0,0-1.905.783c-1.293,1.006-2.59,2.007-3.875,3.023M82.1,125.1c-.515-.011-.689.193-.841.652a5.5,5.5,0,0,1-3.716,3.735c-.541.169-.779.393-.747,1,.043.82-.366,1.2-1.1,1.187a.95.95,0,0,1-1.044-1.1c.038-.65-.2-.9-.805-1.1a5.5,5.5,0,0,1-3.676-3.777.708.708,0,0,0-.81-.595c-.882,0-1.386-.443-1.381-1.135s.5-1.128,1.4-1.121a.71.71,0,0,0,.8-.61,5.518,5.518,0,0,1,3.76-3.783c.515-.163.737-.379.714-.949-.035-.845.342-1.223,1.068-1.226s1.116.378,1.087,1.209a.818.818,0,0,0,.695.962,5.477,5.477,0,0,1,3.77,3.77.75.75,0,0,0,.86.628c.829-.011,1.327.44,1.341,1.1.015.692-.5,1.166-1.365,1.148" transform="translate(-38.725 -86.892)" fill="#f8f6f6"/>
        <path id="Trazado_602316" data-name="Trazado 602316" d="M260.45,131.738a4.042,4.042,0,0,0,2.8-3.972c.031-1.542,0-3.084.009-4.626a2.748,2.748,0,0,1,1.088-2.259c1.285-1.016,2.582-2.017,3.875-3.023a3.53,3.53,0,0,1,1.905-.783.434.434,0,0,1,.046-.212h0a3.688,3.688,0,0,0-2.15.893c-1.019.792-2.018,1.615-3.076,2.354a3.954,3.954,0,0,0-1.91,3.9,35.146,35.146,0,0,1,.021,3.822,3.892,3.892,0,0,1-3.473,3.932h-.012c.285.259.593.083.878-.022" transform="translate(-209.339 -94.247)" fill="#f8f6f6"/>
        <path id="Trazado_602317" data-name="Trazado 602317" d="M243.746,118.317a25.086,25.086,0,0,1,1.2,2.226,27.7,27.7,0,0,1,1.625,19.727,27.225,27.225,0,0,1-8.483,13.278,26.693,26.693,0,0,1-10.8,5.794,1.4,1.4,0,0,0-.614.272c0,.026.009.051.012.077a27.995,27.995,0,0,0,19.908-35.5,33.577,33.577,0,0,0-2.843-6.284c-.053,0-.106.005-.158.009a.86.86,0,0,0,.15.4" transform="translate(-182.81 -95.09)" fill="#f8f6f6"/>
        <path id="Trazado_602318" data-name="Trazado 602318" d="M314.1,117.075c.052,0,.1-.008.158-.01l-.112-.2a.435.435,0,0,0-.046.212" transform="translate(-253.315 -94.247)" fill="#f8f6f6"/>
        <path id="Trazado_602319" data-name="Trazado 602319" d="M50.239,136.29c-.335-.747-.742-1.46-1.06-2.217a28.374,28.374,0,0,1-.535-20.33A28.752,28.752,0,0,1,52.47,106.6c0-.09.01-.181.021-.273a26.72,26.72,0,0,0-5.6,14.5,27,27,0,0,0,1.869,12.712c.486,1.172,1.038,2.317,1.56,3.475l.031,0c.17-.245,0-.495-.108-.729" transform="translate(-37.728 -85.753)" fill="#f8f6f6"/>
        <path id="Trazado_602320" data-name="Trazado 602320" d="M79.912,109.59c2.554.017,5.109,0,7.664,0h17.5c.337,0,.675-.012,1.012.021a2.286,2.286,0,0,1,2.189,2.334c.033,1.566.01,3.133.009,4.7a26.048,26.048,0,0,0,.129,2.958,3.441,3.441,0,0,0,2.762,3.207,2.173,2.173,0,0,1,.877.262,3.071,3.071,0,0,0-.381-.694,4.885,4.885,0,0,1-.937-3.052c.006-3.061-.06-6.124.026-9.183a2.433,2.433,0,0,0-2.712-2.739c-9.376.051-18.753.024-28.129.025a3.691,3.691,0,0,1-3.123-1.19c-.017-.027-.032-.053-.045-.08a.582.582,0,0,1-.032.126,1.19,1.19,0,0,1,.144.571,2.843,2.843,0,0,0,3.052,2.73" transform="translate(-61.87 -85.619)" fill="#fed0c1"/>
        <path id="Trazado_602321" data-name="Trazado 602321" d="M76.88,105.624c.014.026.028.053.045.08a3.691,3.691,0,0,0,3.123,1.19c9.376,0,18.753.026,28.129-.025a2.433,2.433,0,0,1,2.712,2.739c-.086,3.059-.02,6.122-.026,9.183a4.885,4.885,0,0,0,.937,3.052,3.073,3.073,0,0,1,.381.693.707.707,0,0,1,.066.055c.3-.208.13-.364-.037-.558a5.06,5.06,0,0,1-1.132-3.544c.037-3.133.013-6.267.012-9.4a2.27,2.27,0,0,0-2.44-2.42c-9.376,0-18.752-.014-28.128.014a4.713,4.713,0,0,1-3.638-1.189h0a.463.463,0,0,1,0,.129" transform="translate(-62.002 -85.079)" fill="#fed0c1"/>
        <path id="Trazado_602322" data-name="Trazado 602322" d="M76.4,105.841c-.013-.026-.025-.052-.035-.078l-.079.11h0a.526.526,0,0,1,.083.093.576.576,0,0,0,.032-.125" transform="translate(-61.525 -85.295)" fill="#fed0c1"/>
        <path id="Trazado_602323" data-name="Trazado 602323" d="M76.736,105.5l-.037.051c.01.026.022.051.035.078a.463.463,0,0,0,0-.129" transform="translate(-61.856 -85.081)" fill="#fed0c1"/>
        <path id="Trazado_602324" data-name="Trazado 602324" d="M79.852,110.377c8.437-.1,16.877-.039,25.315-.038,1.683,0,2.425.774,2.459,2.469.05,2.406-.021,4.81.083,7.22a3.843,3.843,0,0,0,3.945,3.627c-.018-.016-.035-.033-.053-.053v0a2.17,2.17,0,0,0-.877-.262,3.441,3.441,0,0,1-2.762-3.207,26.142,26.142,0,0,1-.129-2.957c0-1.566.024-3.133-.009-4.7a2.285,2.285,0,0,0-2.189-2.334c-.336-.034-.674-.021-1.012-.021h-17.5c-2.555,0-5.109.012-7.664,0a2.843,2.843,0,0,1-3.052-2.73,1.194,1.194,0,0,0-.144-.571.819.819,0,0,1-.04.089l-.064.091c-.094,2.071,1.57,3.409,3.688,3.385" transform="translate(-61.422 -86.141)" fill="#fed0c1"/>
        <path id="Trazado_602325" data-name="Trazado 602325" d="M259.3,193.559c.017.019.035.037.052.053h.012a.741.741,0,0,0-.066-.055v0" transform="translate(-209.116 -156.099)" fill="#fed0c1"/>
        <path id="Trazado_602326" data-name="Trazado 602326" d="M76.244,106.513a.8.8,0,0,0,.04-.089.519.519,0,0,0-.083-.093c-.011.093-.017.183-.021.273l.064-.091" transform="translate(-61.437 -85.753)" fill="#fed0c1"/>
        <path id="Trazado_602327" data-name="Trazado 602327" d="M101.783,60.917a1.293,1.293,0,0,1,.536.061,3.225,3.225,0,0,1,1.058-6.049,5.481,5.481,0,0,1-1.315-1.515l-.034-.09a26.744,26.744,0,0,0-3.393,1.021l-.263.216c-1.433.735-2.91,1.384-4.279,2.243a24.875,24.875,0,0,0-4.638,3.65,5.487,5.487,0,0,1-.586.553,4.289,4.289,0,0,1,.85-.094q6.032,0,12.065,0" transform="translate(-71.67 -43.005)" fill="#f8f6f6"/>
        <path id="Trazado_602328" data-name="Trazado 602328" d="M100.289,53.261a5.482,5.482,0,0,0,1.315,1.515,3.225,3.225,0,0,0-1.058,6.049,1.293,1.293,0,0,0-.536-.061q-6.032,0-12.065,0a4.288,4.288,0,0,0-.85.094,1.81,1.81,0,0,1-.425.245,13.766,13.766,0,0,1,2.8-.132q5.5,0,11,0c.189,0,.379-.025.706-.048-1.372-.689-2.246-1.587-2.156-3.045.116-1.869,1.294-2.77,3.179-2.986a4.589,4.589,0,0,1-1.759-1.753c-.061.011-.122.025-.183.037l.034.09" transform="translate(-69.897 -42.851)" fill="#f8f6f6"/>
        <path id="Trazado_602329" data-name="Trazado 602329" d="M88.416,64.71a24.875,24.875,0,0,1,4.638-3.65c1.37-.859,2.846-1.508,4.279-2.243L97.6,58.6l-.324.109h0c-.109.049-.218.1-.327.146a26.8,26.8,0,0,0-9.365,6.461q.124-.029.249-.055a5.486,5.486,0,0,0,.586-.553" transform="translate(-70.631 -47.261)" fill="#f8f6f6"/>
        <path id="Trazado_602330" data-name="Trazado 602330" d="M87.1,93.022q-.125.025-.249.055c-.059.064-.118.126-.176.191a1.81,1.81,0,0,0,.425-.245" transform="translate(-69.897 -75.02)" fill="#f8f6f6"/>
        <path id="Trazado_602331" data-name="Trazado 602331" d="M144.191,47.517a3.243,3.243,0,0,1-.223-1.217,2.387,2.387,0,0,1-.472.386c-.793.523-1.545,1.1-2.282,1.7a21.649,21.649,0,0,1,2.662-.86.545.545,0,0,1,.314-.006" transform="translate(-113.886 -37.34)" fill="#64abdb"/>
        <path id="Trazado_602332" data-name="Trazado 602332" d="M155.659,46.448a.839.839,0,0,1,.235.105,3.868,3.868,0,0,1-.276-1.579,1.181,1.181,0,0,1-.182.257,3.243,3.243,0,0,0,.223,1.217" transform="translate(-125.354 -36.27)" fill="#64abdb"/>
        <path id="Trazado_602333" data-name="Trazado 602333" d="M140.635,46.1a2.38,2.38,0,0,0,.472-.386c0-.047.006-.094.01-.141a22.543,22.543,0,0,0-3.451,2.63,4.318,4.318,0,0,1,.687-.406c.737-.6,1.489-1.174,2.282-1.7" transform="translate(-111.024 -36.751)" fill="#64abdb"/>
        <path id="Trazado_602334" data-name="Trazado 602334" d="M155.625,44.974h0l-.172.115c0,.047-.009.094-.01.141a1.182,1.182,0,0,0,.182-.257" transform="translate(-125.361 -36.27)" fill="#64abdb"/>
        <path id="Trazado_602335" data-name="Trazado 602335" d="M142.676,52.506a.545.545,0,0,0-.314.006,21.649,21.649,0,0,0-2.662.86c-.122.1-.242.2-.363.3a26.731,26.731,0,0,1,3.393-1.021q-.027-.071-.053-.142" transform="translate(-112.371 -42.329)" fill="#64abdb"/>
        <path id="Trazado_602336" data-name="Trazado 602336" d="M156.649,52.731c.061-.012.121-.026.183-.037a.844.844,0,0,0-.235-.105q.026.071.053.142" transform="translate(-126.291 -42.412)" fill="#64abdb"/>
        <path id="Trazado_602337" data-name="Trazado 602337" d="M137.988,57.361c.121-.1.242-.2.363-.3a4.329,4.329,0,0,0-.687.406h0l.323-.109" transform="translate(-111.024 -46.021)" fill="#64abdb"/>
        <path id="Trazado_602338" data-name="Trazado 602338" d="M86.936,216.851a3.45,3.45,0,0,0-1.258-1.723c-.176-.148-.482-.252-.427-.529,0,0,0-.008,0-.013l-.108-.068c.046,0,.089-.008.135-.011.1-.217.377-.251.6-.295a2.618,2.618,0,0,0,2-1.5,2.731,2.731,0,0,0-.983-3.566c-.244-.18-.709-.311-.617-.621l0,0-.016-.009.022,0c.116-.328.576-.24.9-.241q6.005-.012,12.011,0a3.845,3.845,0,0,0,1.756-.349,2.738,2.738,0,0,0,1.556-2.782,2.836,2.836,0,0,0-2.1-2.414,5.572,5.572,0,0,0-1.437-.12q-12.554,0-25.107.006a2.821,2.821,0,0,1-2.068-.678,2.852,2.852,0,0,1-.832-2.233c-.007-2.291.012-4.583-.008-6.874a3.343,3.343,0,0,0-2.776-3.4,3.4,3.4,0,0,0-3.861,2.083,5.212,5.212,0,0,0-.324,1.915c0,1.4-.005,2.8,0,4.2a3.233,3.233,0,0,1-1.3,2.7q-1.9,1.5-3.827,2.976a3.928,3.928,0,0,1-1.964.861,1.048,1.048,0,0,1-.932-.165.612.612,0,0,1-.1.1,7.354,7.354,0,0,1-2.1.105,2.357,2.357,0,0,1,.089.967q.008,6.331,0,12.662c0,.289-.011.579.018.868a1.3,1.3,0,0,0,1.24,1.363,4.872,4.872,0,0,1,2.352,1.03,11.463,11.463,0,0,0,7.123,2.219c6.054.023,12.107.009,18.161.005a4.246,4.246,0,0,0,2.484-.637.766.766,0,0,1,.4-.166,2.894,2.894,0,0,0-1.625-1.608c-.167-.06-.428-.126-.378-.362.046-.215.3-.216.487-.218a3,3,0,0,0,2.325-1.123c.487-.558.457-1.3.742-1.921a.718.718,0,0,1-.276-.424" transform="translate(-43.382 -152.711)" fill="#fedfd0"/>
        <path id="Trazado_602339" data-name="Trazado 602339" d="M210.907,335.549a3,3,0,0,1-2.325,1.123c-.187,0-.441,0-.487.218-.05.236.211.3.378.362a2.9,2.9,0,0,1,1.625,1.608.445.445,0,0,1,.137.017h0a2.936,2.936,0,0,0-2.012-1.977,3.16,3.16,0,0,0,3.474-3.237.542.542,0,0,1-.049-.036c-.284.625-.255,1.363-.742,1.921" transform="translate(-167.818 -269.063)" fill="#fedfd0"/>
        <path id="Trazado_602340" data-name="Trazado 602340" d="M55.355,265.009a.612.612,0,0,0,.1-.1c-.007-.007-.014-.011-.021-.018l-2.307.01a.891.891,0,0,1,.129.214,7.35,7.35,0,0,0,2.1-.106" transform="translate(-42.843 -213.628)" fill="#fedfd0"/>
        <path id="Trazado_602341" data-name="Trazado 602341" d="M84.721,284.525a4.244,4.244,0,0,1-2.484.637c-6.054,0-12.107.018-18.161-.005a11.462,11.462,0,0,1-7.123-2.219,4.872,4.872,0,0,0-2.352-1.03,1.3,1.3,0,0,1-1.24-1.363c-.028-.288-.017-.578-.017-.868q0-6.331,0-12.662a2.353,2.353,0,0,0-.089-.966h-.129q0,7.159,0,14.317c0,1.1.409,1.693,1.449,1.785a4.185,4.185,0,0,1,2.149.893,15.528,15.528,0,0,0,1.9,1.171,11.517,11.517,0,0,0,5.365,1.157c6.1.031,12.195.009,18.292.015a4.123,4.123,0,0,0,2.893-.933l0,0c-.014-.031-.031-.061-.045-.092a.766.766,0,0,0-.4.166" transform="translate(-42.842 -214.561)" fill="#fedfd0"/>
        <path id="Trazado_602342" data-name="Trazado 602342" d="M218.472,360.665c.015.031.031.061.045.092l0,0c.029-.026.059-.051.088-.079a.445.445,0,0,0-.138-.017" transform="translate(-176.193 -290.868)" fill="#fedfd0"/>
        <path id="Trazado_602343" data-name="Trazado 602343" d="M53.125,265.157h.129a.893.893,0,0,0-.129-.214v.215" transform="translate(-42.844 -213.669)" fill="#fedfd0"/>
        <path id="Trazado_602344" data-name="Trazado 602344" d="M216.33,319.733s0,.008,0,.013c-.056.277.25.381.427.529A3.45,3.45,0,0,1,218.01,322a.718.718,0,0,0,.276.424l.005-.012c.01-.011.021-.019.032-.029a3.761,3.761,0,0,0-1.993-2.648" transform="translate(-174.456 -257.857)" fill="#fedfd0"/>
        <path id="Trazado_602345" data-name="Trazado 602345" d="M218.137,289.024a2.731,2.731,0,0,1,.984,3.566,2.618,2.618,0,0,1-2,1.5c-.228.044-.5.078-.6.295a2.988,2.988,0,0,0,3.088-2.545c.294-1.635-.637-2.678-2.078-3.439l0,0c-.093.31.373.442.616.621" transform="translate(-174.613 -232.586)" fill="#fedfd0"/>
        <path id="Trazado_602346" data-name="Trazado 602346" d="M66.086,203.114a3.926,3.926,0,0,0,1.963-.861q1.922-1.476,3.827-2.976a3.231,3.231,0,0,0,1.3-2.7c-.007-1.4,0-2.8,0-4.2a5.2,5.2,0,0,1,.324-1.915,3.4,3.4,0,0,1,3.861-2.083,3.342,3.342,0,0,1,2.776,3.4c.02,2.291,0,4.582.008,6.874a2.853,2.853,0,0,0,.832,2.233,2.822,2.822,0,0,0,2.068.678q12.554-.013,25.108-.006a5.581,5.581,0,0,1,1.437.12,2.836,2.836,0,0,1,2.1,2.414,2.738,2.738,0,0,1-1.556,2.782,3.843,3.843,0,0,1-1.755.349q-6.006-.008-12.011,0c-.322,0-.782-.087-.9.241.14-.024.164-.031.187-.031,4.367,0,8.735,0,13.1-.009a3.04,3.04,0,1,0-.016-6.074q-12.957-.008-25.914,0a2.251,2.251,0,0,1-1.059-.154,2.443,2.443,0,0,1-1.413-2.4c0-2.413,0-4.826,0-7.239a3.636,3.636,0,0,0-3.907-3.479c-2.267.257-3.476,1.8-3.478,4.121,0,1.5-.01,2.992,0,4.488a2.941,2.941,0,0,1-1.261,2.469c-1.045.8-2.088,1.614-3.117,2.439a4.5,4.5,0,0,1-3.424,1.335l-.01.015a1.048,1.048,0,0,0,.932.165" transform="translate(-52.545 -151.67)" fill="#fedfd0"/>
        <path id="Trazado_602347" data-name="Trazado 602347" d="M226.489,333.447l-.005.012a.544.544,0,0,0,.05.036c0-.026-.009-.051-.012-.076-.011.01-.022.019-.032.029" transform="translate(-182.654 -268.894)" fill="#fedfd0"/>
        <path id="Trazado_602348" data-name="Trazado 602348" d="M65.077,264.893l-.031,0c.007.007.014.011.021.018l.01-.015" transform="translate(-52.458 -213.628)" fill="#fedfd0"/>
        <path id="Trazado_602349" data-name="Trazado 602349" d="M165.3,158.434a.75.75,0,0,1-.86-.628,5.477,5.477,0,0,0-3.77-3.77.818.818,0,0,1-.695-.962c.029-.831-.357-1.211-1.087-1.209s-1.1.381-1.068,1.226c.024.57-.2.786-.714.949a5.518,5.518,0,0,0-3.759,3.783.71.71,0,0,1-.8.61c-.891-.007-1.39.431-1.4,1.121s.5,1.139,1.381,1.134a.708.708,0,0,1,.81.6,5.5,5.5,0,0,0,3.676,3.777c.608.2.843.447.805,1.1a.95.95,0,0,0,1.044,1.1c.738.013,1.147-.367,1.1-1.187-.032-.606.206-.83.747-1a5.5,5.5,0,0,0,3.716-3.735c.152-.459.325-.663.841-.652.87.018,1.381-.456,1.366-1.148-.015-.663-.512-1.114-1.342-1.1m-2.843,1.152a3.553,3.553,0,0,1-3.55,3.6,3.62,3.62,0,0,1-.023-7.24,3.545,3.545,0,0,1,3.573,3.644" transform="translate(-121.904 -122.475)" fill="#da4655"/>
        <path id="Trazado_602350" data-name="Trazado 602350" d="M176.133,172.931a3.62,3.62,0,0,0,.023,7.24,3.62,3.62,0,0,0-.023-7.24m-.024,4.889a1.3,1.3,0,0,1,.036-2.562c.671,0,1.106.532,1.091,1.336a1.119,1.119,0,0,1-1.128,1.226" transform="translate(-139.149 -139.465)" fill="#f8f6f6"/>
        <path id="Trazado_602351" data-name="Trazado 602351" d="M186.621,184.956a1.3,1.3,0,0,0-.036,2.562,1.119,1.119,0,0,0,1.128-1.226c.014-.8-.42-1.336-1.091-1.336" transform="translate(-149.625 -149.163)" fill="#e69098"/>
      </g>
    </g>
  </g>
</svg>
