<svg xmlns="http://www.w3.org/2000/svg" xmlns:xlink="http://www.w3.org/1999/xlink" width="112" height="112" viewBox="0 0 112 112">
  <defs>
    <clipPath id="clip-path">
      <rect id="Rectángulo_300844" data-name="Rectángulo 300844" width="74.618" height="74.821" fill="none"/>
    </clipPath>
  </defs>
  <g id="Grupo_886476" data-name="Grupo 886476" transform="translate(-1004 11159)">
    <circle id="Elipse_6633" data-name="Elipse 6633" cx="56" cy="56" r="56" transform="translate(1004 -11159)" fill="#e1fbff"/>
    <g id="Grupo_886211" data-name="Grupo 886211" transform="translate(1023 -11140)">
      <g id="Grupo_886211-2" data-name="Grupo 886211" clip-path="url(#clip-path)">
        <path id="Trazado_603041" data-name="Trazado 603041" d="M241.893,15.483c-.856-.021-1.713-.025-2.569,0-.455.013-.587-.165-.606-.609-.082-1.983-.095-2,1.877-1.973a4.446,4.446,0,0,1,1.977.144h0a14.173,14.173,0,0,0-3.36-8.058c-.416.909-1.284,1.413-1.917,2.127a.247.247,0,0,1-.362.007A1.61,1.61,0,0,1,236.7,6.9c-.421-.51-1.433-1.028-1.232-1.447a4.7,4.7,0,0,1,2.121-2.094A14.127,14.127,0,0,0,229.526,0a8.862,8.862,0,0,1,.093,3.492c-.08.713-.938.284-1.434.324-.349.028-1.027.322-1.05-.319a10.936,10.936,0,0,1,.113-3.5h0a14.156,14.156,0,0,0-8.057,3.36,5.163,5.163,0,0,1,2.074,1.951c.349.532-.561.88-.916,1.293-.206.24-.463.835-.849.488a6.914,6.914,0,0,1-1.936-2.1h0a14.122,14.122,0,0,0-3.361,8.058,9.58,9.58,0,0,1,3.494-.1c.71.057.312.845.319,1.28.006.4.362,1.159-.317,1.2a10.012,10.012,0,0,1-3.5-.1,14.142,14.142,0,0,0,3.36,8.056,9.284,9.284,0,0,1,1.972-2.163.312.312,0,0,1,.442.017q.691.668,1.36,1.36a.312.312,0,0,1,.017.442,9.274,9.274,0,0,1-2.162,1.972h0a14.175,14.175,0,0,0,8.057,3.36,9.209,9.209,0,0,1-.1-3.493c.069-.718.891-.291,1.358-.321.376-.024,1.092-.337,1.126.318a10.447,10.447,0,0,1-.109,3.5h0a14.161,14.161,0,0,0,8.058-3.359c-.907-.41-1.4-1.278-2.115-1.9-.147-.129-.1-.282.013-.426.129-.169.233-.358.37-.52.982-1.16,1.213-1.183,2.251-.1.4.413.958.7,1.108,1.324a14.087,14.087,0,0,0,3.364-8.218.755.755,0,0,1-.683.321m-12.741-.21c-1.093,1.073-2.184,2.15-3.246,3.255-.354.368-.562.32-.905-.014-1.412-1.374-1.519-1.48-.039-2.693a5.3,5.3,0,0,0,2.162-5.216,31.866,31.866,0,0,1-.038-3.544c-.013-.5.165-.633.649-.643,1.945-.04,1.945-.056,1.945,1.919q0,1.129,0,2.258c0,1.1-.017,2.2.007,3.306a1.742,1.742,0,0,1-.536,1.372" transform="translate(-167.958)" fill="#008bb6"/>
        <path id="Trazado_603042" data-name="Trazado 603042" d="M113.612,267.77c.008-.679-.2-.855-.86-.85-3.685.031-7.371,0-11.056.028a1.936,1.936,0,0,1-1.626-.654c-.7-.782-1.519-1.454-2.2-2.248a2.41,2.41,0,0,0-2.371-1q-3.472,0-6.945.009c-.864,0-.916.073-.725.938a5.18,5.18,0,0,0,5.248,4.231c.323,0,.646.005.969.008h1.282c.082.3-.167.385-.3.519-1.241,1.255-2.493,2.5-3.741,3.75-1.065,1.065-1.206,1.08-2.571.269a14.357,14.357,0,0,1-3.018-.827c-2.975-.905-5.942-1.837-8.912-2.758h0c-.413-.109-.826-.221-1.24-.326a2.6,2.6,0,0,0-3.251,1.212c-.329.491-.633,1-.991,1.469-.34.447-.25.608.273.823q10.39,4.255,20.759,8.562a1.235,1.235,0,0,0,1.134-.04c2.176-1.114,4.372-2.189,6.553-3.295a2.935,2.935,0,0,1,1.386-.328c3.793.014,7.586-.005,11.379.02.618,0,.834-.142.826-.8q-.054-4.357,0-8.715" transform="translate(-55.75 -206.226)" fill="#fecab0"/>
        <path id="Trazado_603043" data-name="Trazado 603043" d="M93.7,232.457c2.817.815,5.593,1.768,8.421,2.545l.267.112a9.837,9.837,0,0,0,5.042-4.259l-.087.006a6.1,6.1,0,0,1-3.993-.965,5.256,5.256,0,0,1-2.264-3.568c-.148-.768.1-1.066.876-1.08,2.094-.036,4.188-.018,6.282-.009a1.074,1.074,0,0,1,.754.223,9.911,9.911,0,0,0-3.411-7.639,9.792,9.792,0,0,0-10.807-1.9,9.926,9.926,0,0,0-6.442,9.153,10.448,10.448,0,0,0,1.947,6.524h0a11.793,11.793,0,0,1,3.415.856m7.614-12.869c.519.26.519.5.245.9-.061.088-.118.18-.183.265-.291.382-.32,1.007-.782,1.183-.416.158-.854-.221-1.294-.312a4,4,0,0,0-3.88,1.77,3.726,3.726,0,0,0-.022,4.167c.326.444.19.618-.116.9-1.784,1.627-1.482,1.54-2.529-.437a5.516,5.516,0,0,1-.556-2.565c.007-4.645,5.072-7.889,9.116-5.863" transform="translate(-69.248 -168.638)" fill="#8ab176"/>
        <path id="Trazado_603044" data-name="Trazado 603044" d="M106.337,294.383a14.343,14.343,0,0,0,3.019.827c.058-.023.115-.048.172-.072l-.267-.112c-2.829-.776-5.6-1.729-8.421-2.545a11.794,11.794,0,0,0-3.415-.856h0c2.97.921,5.937,1.853,8.912,2.758" transform="translate(-76.391 -228.662)" fill="#8ab176"/>
        <path id="Trazado_603045" data-name="Trazado 603045" d="M148.18,262.119c-.78.013-1.024.311-.876,1.079a5.256,5.256,0,0,0,2.264,3.568,6.1,6.1,0,0,0,3.993.965l.087-.006c.039-.069.079-.136.116-.207-.323,0-.646-.007-.969-.008a5.18,5.18,0,0,1-5.248-4.231c-.191-.864-.139-.936.725-.938q3.473-.008,6.945-.009a1.071,1.071,0,0,0-.754-.223c-2.094-.009-4.188-.027-6.282.009" transform="translate(-115.468 -205.51)" fill="#8ab176"/>
        <path id="Trazado_603046" data-name="Trazado 603046" d="M125.862,113.646c.35.084.814.013.989.418.434,1,1.175,2.017.065,3.062-.075.071-.1.194-.171.272-.51.564-.429.981.149,1.513,1.3,1.2,1.261,1.225,2.772.324.308-.184.582-.546,1.008-.395,1.054.373,2.2.669,2.2,2.134,0,.106.048.211.052.318.034.8.467.961,1.212.936,1.754-.059,1.749-.02,2.166-1.766.077-.324.015-.762.392-.918,1-.414,2.009-1.2,3.061-.084.071.075.195.1.272.17.6.55,1.039.4,1.572-.182,1.163-1.257,1.189-1.221.292-2.711-.186-.308-.56-.585-.4-1,.385-1.032.623-2.227,2.113-2.215.079,0,.159-.034.239-.037.841-.035,1.079-.451,1.04-1.291-.078-1.692-.024-1.69-1.67-2.087-.352-.085-.764-.043-1.015-.389a2.487,2.487,0,0,1-.094-3.062c.223-.365.439-.734.765-1.278a6.316,6.316,0,0,1-.763-.562c-1.235-1.216-1.225-1.213-2.7-.325-.309.186-.591.575-1,.413-1.009-.4-2.257-.575-2.235-2.091,0-.106-.049-.211-.053-.318-.036-.823-.482-1.007-1.257-.979-1.719.061-1.715.02-2.122,1.723-.083.349-.02.795-.428.985-1.009.471-1.949,1.007-3.085.066-.97-.8-1.063-.69-1.972.219-1.014,1.014-1,1.007-.26,2.257.226.38.637.7.567,1.206a2.479,2.479,0,0,1-2.009,2.217,2.255,2.255,0,0,1-.394.081c-.791.051-1.033.441-1,1.243.07,1.736.023,1.733,1.707,2.137m8.71-4.358a2.583,2.583,0,1,1-2.64,2.585,2.6,2.6,0,0,1,2.64-2.585" transform="translate(-97.347 -79.593)" fill="#008bb6"/>
        <path id="Trazado_603047" data-name="Trazado 603047" d="M6.835,29.856c3.559-.008,2.872.256,5.261-2.14a1.44,1.44,0,0,1,1.14-.453c1.506.023,3.013.009,4.52.01V18.224c-1.48,0-2.96-.017-4.439.011a1.085,1.085,0,0,1-1.1-.619c-.99-1.722-2.016-3.424-3.054-5.118-.181-.3-.282-.715-.771-.737-1.158-.052-2.271-.008-3.051,1.045a2.9,2.9,0,0,0-.153,3.05,12.191,12.191,0,0,1,.866,2.369H2.941A2.645,2.645,0,0,0,.023,21.389c.2,1.97.418,3.937.649,5.9a2.665,2.665,0,0,0,2.935,2.564q1.614,0,3.228,0" transform="translate(0 -9.211)" fill="#fecab0"/>
        <path id="Trazado_603048" data-name="Trazado 603048" d="M82.523,38.06q.017,3.472,0,6.945c0,.369.045.765-.284,1.052.009.644.056,1.291.015,1.931-.035.536.149.671.67.664q3.223-.043,6.446,0c.536.008.664-.155.661-.673q-.031-5.8,0-11.6c0-.517-.124-.682-.661-.673-1.906.033-3.814.013-5.721.013-1.342,0-1.342,0-1.41,1.291.329.287.283.683.284,1.052" transform="translate(-64.483 -27.995)" fill="#008bb6"/>
        <path id="Trazado_603049" data-name="Trazado 603049" d="M82.523,49.741q.017-3.473,0-6.945c0-.369.045-.765-.284-1.052v9.049c.329-.287.283-.683.284-1.052" transform="translate(-64.483 -32.731)" fill="#008bb6"/>
        <path id="Trazado_603050" data-name="Trazado 603050" d="M27.295,146.263c-.522-.614-1.076-1.2-1.56-1.849Q15.42,130.679,20.98,114.419c.58-1.684.616-1.629-1.019-2.378-.617-.283-.806-.11-1.025.437a34.918,34.918,0,0,0-2.492,13.189,27.529,27.529,0,0,0,.358,4.362,30.337,30.337,0,0,0,.949,4.4,33.008,33.008,0,0,0,7.719,13.621c.18.191.376.594.675.167.422-.6,1.352-.8,1.357-1.719,0-.079-.138-.157-.208-.238" transform="translate(-12.888 -87.746)" fill="#62b7d2"/>
        <path id="Trazado_603051" data-name="Trazado 603051" d="M287.167,143.361c-.733.121-.759.4-.652.992a30.343,30.343,0,0,1,.367,7.943,30.842,30.842,0,0,1-7.039,17.258c-1.059,1.3-1.036,1.256.131,2.461.536.554.8.424,1.238-.08a33.626,33.626,0,0,0,8.387-22.2,34.108,34.108,0,0,0-.359-4.9c-.227-1.824-.242-1.766-2.072-1.464" transform="translate(-218.82 -112.282)" fill="#62b7d2"/>
        <path id="Trazado_603052" data-name="Trazado 603052" d="M51.2,108.284c-.575-.385-.828-.289-1.158.292a27.108,27.108,0,0,0-.431,26.377c.82,1.536.816,1.482,2.312.649.69-.384.651-.7.3-1.3A23.548,23.548,0,0,1,49.028,123.6a24.27,24.27,0,0,1,2.81-12.907c.785-1.493.766-1.466-.639-2.406" transform="translate(-36.38 -84.724)" fill="#62b7d2"/>
        <path id="Trazado_603053" data-name="Trazado 603053" d="M254.239,170.383c-1.223,1.4-1.225,1.358.078,2.709.414.429.615.359.988-.032a27.042,27.042,0,0,0,7.647-18.872,30.706,30.706,0,0,0-.335-4.26c-.138-1.168-.141-1.167-1.327-.939a8.836,8.836,0,0,1-.949.171c-.4.033-.475.211-.4.587a23.817,23.817,0,0,1,.29,6.9,24.138,24.138,0,0,1-5.987,13.735" transform="translate(-198.636 -116.729)" fill="#62b7d2"/>
        <path id="Trazado_603054" data-name="Trazado 603054" d="M136.787,21.144a30.831,30.831,0,0,1,11.35-.451c.538.073,1.2.5,1.582.1.334-.347.278-1.055.431-1.593.167-.587-.07-.826-.635-.907a36.06,36.06,0,0,0-5.654-.512,31.933,31.933,0,0,0-6.507.589c-1.9.372-1.864.382-1.411,2.245.134.549.381.635.846.524" transform="translate(-106.39 -13.942)" fill="#62b7d2"/>
        <path id="Trazado_603055" data-name="Trazado 603055" d="M136.629,51.239a24.466,24.466,0,0,1,9.816-.753c.581.071,1.382.418,1.685.164.378-.317.345-1.124.489-1.719.006-.026.007-.054.013-.08.1-.416-.022-.619-.489-.7a25.718,25.718,0,0,0-4.44-.437,27.634,27.634,0,0,0-6.677.743c-1.913.454-1.888.461-1.3,2.329.171.542.4.6.9.454" transform="translate(-106.146 -37.411)" fill="#62b7d2"/>
        <path id="Trazado_603056" data-name="Trazado 603056" d="M274.707,2.726c.038.828.09.879,1.056.879s1.018-.051,1.056-.879A17.048,17.048,0,0,1,276.9,0h-2.277a16.921,16.921,0,0,1,.083,2.727" transform="translate(-215.332 0.001)" fill="#00779b"/>
        <path id="Trazado_603057" data-name="Trazado 603057" d="M273.789,3.5c.023.641.7.348,1.05.319.5-.04,1.353.389,1.433-.324A8.857,8.857,0,0,0,276.18,0a17.072,17.072,0,0,0-.082,2.727c-.038.828-.09.879-1.056.879s-1.018-.051-1.056-.879A16.9,16.9,0,0,0,273.9,0a10.936,10.936,0,0,0-.114,3.5" transform="translate(-214.611 -0.001)" fill="#00779b"/>
        <path id="Trazado_603058" data-name="Trazado 603058" d="M216.932,62.618c.828-.038.879-.09.879-1.056s-.051-1.018-.879-1.056a17.151,17.151,0,0,1-2.727-.082q0,1.138,0,2.277h0a16.9,16.9,0,0,1,2.727-.083" transform="translate(-167.958 -47.378)" fill="#00779b"/>
        <path id="Trazado_603059" data-name="Trazado 603059" d="M217.7,62.034c.679-.045.323-.8.317-1.2-.007-.435.391-1.224-.319-1.28a9.58,9.58,0,0,0-3.494.1,17.128,17.128,0,0,0,2.728.082c.828.038.879.09.879,1.056s-.051,1.018-.879,1.056a16.845,16.845,0,0,0-2.727.083,10.016,10.016,0,0,0,3.5.1" transform="translate(-167.958 -46.607)" fill="#00779b"/>
        <path id="Trazado_603060" data-name="Trazado 603060" d="M276.821,115.562c-.038-.828-.09-.879-1.056-.879s-1.018.051-1.056.879a17.074,17.074,0,0,1-.082,2.727H276.9a16.867,16.867,0,0,1-.083-2.727" transform="translate(-215.334 -89.923)" fill="#00779b"/>
        <path id="Trazado_603061" data-name="Trazado 603061" d="M276.228,113.679c-.033-.655-.75-.342-1.126-.318-.466.03-1.289-.4-1.358.321a9.213,9.213,0,0,0,.1,3.493,17.049,17.049,0,0,0,.082-2.727c.038-.828.09-.879,1.056-.879s1.018.051,1.056.879a16.87,16.87,0,0,0,.083,2.727,10.452,10.452,0,0,0,.109-3.5" transform="translate(-214.549 -88.809)" fill="#00779b"/>
        <path id="Trazado_603062" data-name="Trazado 603062" d="M332.488,60.417a17.306,17.306,0,0,1-2.73.082c-.82.038-.877.1-.878,1.063s.046,1.033.877,1.048a23.776,23.776,0,0,0,2.734-.076q0-1.059,0-2.117h0" transform="translate(-257.874 -47.373)" fill="#00779b"/>
        <path id="Trazado_603063" data-name="Trazado 603063" d="M328.769,61.942c-.831-.015-.879-.078-.877-1.048s.059-1.025.878-1.063a17.3,17.3,0,0,0,2.729-.082,4.446,4.446,0,0,0-1.977-.144c-1.971-.025-1.958-.01-1.877,1.973.018.444.15.622.606.609.856-.024,1.713-.02,2.569,0a.755.755,0,0,0,.683-.321,23.778,23.778,0,0,1-2.734.076" transform="translate(-256.885 -46.705)" fill="#00779b"/>
        <path id="Trazado_603064" data-name="Trazado 603064" d="M232.966,101.4c.464-.437.417-.759-.016-1.192-.992-.991-.969-1-1.979-.011a11.233,11.233,0,0,1-1.2,1.168,7.436,7.436,0,0,0,1.628,1.627h0a17.631,17.631,0,0,1,1.568-1.592" transform="translate(-180.162 -77.984)" fill="#00779c"/>
        <path id="Trazado_603065" data-name="Trazado 603065" d="M233.561,99.779a.312.312,0,0,0-.017-.442q-.668-.691-1.36-1.36a.312.312,0,0,0-.442-.017,9.285,9.285,0,0,0-1.972,2.163,11.23,11.23,0,0,0,1.2-1.168c1.011-.991.987-.981,1.979.011.433.432.479.755.016,1.192a17.631,17.631,0,0,0-1.568,1.592,9.274,9.274,0,0,0,2.162-1.972" transform="translate(-180.162 -76.746)" fill="#00779c"/>
        <path id="Trazado_603066" data-name="Trazado 603066" d="M315.822,100.012a.736.736,0,0,0-1.227-.021q-.2.2-.4.4a.736.736,0,0,0,.021,1.227,15.9,15.9,0,0,1,1.521,1.543,7.5,7.5,0,0,0,1.626-1.627,15.876,15.876,0,0,1-1.543-1.52" transform="translate(-246.11 -78.152)" fill="#00779c"/>
        <path id="Trazado_603067" data-name="Trazado 603067" d="M315,99.285c-1.037-1.081-1.268-1.058-2.251.1-.137.162-.241.351-.37.52-.109.144-.16.3-.013.426.713.625,1.209,1.493,2.115,1.9a15.933,15.933,0,0,0-1.521-1.543.736.736,0,0,1-.021-1.227q.2-.2.4-.4a.736.736,0,0,1,1.227.021,15.884,15.884,0,0,0,1.543,1.52c-.151-.622-.712-.911-1.108-1.324" transform="translate(-244.856 -77.23)" fill="#00779c"/>
        <path id="Trazado_603068" data-name="Trazado 603068" d="M231.422,18.812c.308.306.559.335.877.016,1.41-1.415,1.213-1.052.1-2.233a8.936,8.936,0,0,1-1-1.031,7.362,7.362,0,0,0-1.627,1.627c.594.5,1.1,1.078,1.651,1.621" transform="translate(-180.163 -12.204)" fill="#00779c"/>
        <path id="Trazado_603069" data-name="Trazado 603069" d="M231.707,19.3c.386.347.643-.248.849-.488.355-.413,1.265-.761.916-1.293a5.16,5.16,0,0,0-2.074-1.95,8.936,8.936,0,0,0,1,1.031c1.118,1.181,1.315.818-.1,2.233-.318.319-.569.29-.877-.016-.547-.543-1.057-1.125-1.651-1.621a6.911,6.911,0,0,0,1.936,2.1" transform="translate(-180.163 -12.204)" fill="#00779c"/>
        <path id="Trazado_603070" data-name="Trazado 603070" d="M314.106,17.214c-.305.307-.337.558-.017.877,1.415,1.412,1.052,1.213,2.234.1a9.033,9.033,0,0,1,1.031-1,7.405,7.405,0,0,0-1.626-1.627h0c-.5.594-1.078,1.1-1.621,1.651" transform="translate(-246.099 -12.203)" fill="#00779c"/>
        <path id="Trazado_603071" data-name="Trazado 603071" d="M312.578,17.656c-.2.419.811.937,1.232,1.447a1.588,1.588,0,0,0,.236.219.247.247,0,0,0,.362-.007c.634-.714,1.5-1.217,1.917-2.127a9.037,9.037,0,0,0-1.031,1c-1.181,1.118-.818,1.316-2.234-.1-.32-.319-.288-.57.017-.877.544-.547,1.125-1.058,1.621-1.651a4.7,4.7,0,0,0-2.121,2.094" transform="translate(-245.072 -12.202)" fill="#00779c"/>
        <path id="Trazado_603072" data-name="Trazado 603072" d="M264.878,33.867V31.609c0-1.975,0-1.959-1.945-1.919-.484.01-.662.143-.649.643a31.864,31.864,0,0,0,.038,3.544,5.3,5.3,0,0,1-2.162,5.215c-1.48,1.213-1.374,1.318.039,2.693.343.334.551.383.9.015,1.061-1.1,2.153-2.181,3.246-3.255a1.741,1.741,0,0,0,.536-1.372c-.024-1.1-.007-2.2-.007-3.306" transform="translate(-203.155 -23.272)" fill="#62b7d2"/>
        <path id="Trazado_603073" data-name="Trazado 603073" d="M159.318,288.317a10.338,10.338,0,0,1-4.49,3.679,1.261,1.261,0,0,1-.2.073c1.134.457,1.265.328,2.36-.767l3.721-3.721a3.4,3.4,0,0,1-1.13.119,1.1,1.1,0,0,1-.26.617" transform="translate(-121.243 -225.492)" fill="#fefdfc"/>
        <path id="Trazado_603074" data-name="Trazado 603074" d="M158.054,287.409a3.4,3.4,0,0,0,1.13-.119l-3.721,3.721c-1.1,1.1-1.226,1.224-2.36.767a.593.593,0,0,1-.42-.03c1.366.811,1.506.8,2.571-.269,1.249-1.249,2.5-2.494,3.741-3.75.132-.134.382-.222.3-.519h-1.282a.571.571,0,0,1,.041.2" transform="translate(-119.718 -225.201)" fill="#fefdfc"/>
        <path id="Trazado_603075" data-name="Trazado 603075" d="M153.93,292.43a10.337,10.337,0,0,0,4.49-3.679,1.1,1.1,0,0,0,.261-.617c-.052,0-.1,0-.157.007a9.839,9.839,0,0,1-5.042,4.26l.248.1a1.267,1.267,0,0,0,.2-.073" transform="translate(-120.345 -225.925)" fill="#fefdfc"/>
        <path id="Trazado_603076" data-name="Trazado 603076" d="M176.99,287.409a.571.571,0,0,0-.041-.2c-.037.071-.077.138-.116.207.052,0,.1-.006.157-.007" transform="translate(-138.654 -225.201)" fill="#fefdfc"/>
        <path id="Trazado_603077" data-name="Trazado 603077" d="M153.1,308l-.248-.1-.172.072a.593.593,0,0,0,.42.03" transform="translate(-119.718 -241.421)" fill="#fefdfc"/>
        <path id="Trazado_603078" data-name="Trazado 603078" d="M109.37,242.616c.305-.279.442-.453.116-.9a3.726,3.726,0,0,1,.022-4.167,4,4,0,0,1,3.88-1.77c.44.091.878.47,1.294.312.462-.175.49-.8.781-1.183.065-.085.122-.177.183-.265.274-.4.274-.636-.245-.9-4.044-2.027-9.109,1.218-9.116,5.863a5.513,5.513,0,0,0,.556,2.565c1.048,1.978.745,2.065,2.529.437" transform="translate(-83.338 -182.801)" fill="#aac69a"/>
        <path id="Trazado_603079" data-name="Trazado 603079" d="M162.754,142.7a2.583,2.583,0,1,0-2.567-2.58,2.609,2.609,0,0,0,2.567,2.58" transform="translate(-125.602 -107.842)" fill="#fefefe"/>
      </g>
    </g>
  </g>
</svg>
