<svg xmlns="http://www.w3.org/2000/svg" xmlns:xlink="http://www.w3.org/1999/xlink" width="112" height="112" viewBox="0 0 112 112">
  <defs>
    <clipPath id="clip-path">
      <rect id="Rectángulo_300841" data-name="Rectángulo 300841" width="74.839" height="74.821" fill="none"/>
    </clipPath>
  </defs>
  <g id="Grupo_886474" data-name="Grupo 886474" transform="translate(-744 -541)">
    <circle id="Elipse_6595" data-name="Elipse 6595" cx="56" cy="56" r="56" transform="translate(744 541)" fill="#e1fbff"/>
    <g id="Grupo_886208" data-name="Grupo 886208" transform="translate(763 560)">
      <g id="Grupo_886208-2" data-name="Grupo 886208" clip-path="url(#clip-path)">
        <path id="Trazado_602737" data-name="Trazado 602737" d="M150.234,1.115q.008,4.739,0,9.477c0,1.4,0,1.4,1.259,1.724a.666.666,0,0,1,.095.2,6.622,6.622,0,0,1,1.667-.079q3.393-.011,6.786,0c.312,0,.624.059.936.09h0l0,0a.678.678,0,0,1,.086-.2c1.274-.349,1.274-.349,1.274-1.721q0-4.744,0-9.489A1.563,1.563,0,0,1,162.575,0H150.006a1.561,1.561,0,0,1,.228,1.115" transform="translate(-118.876)" fill="#60c3c1"/>
        <path id="Trazado_602738" data-name="Trazado 602738" d="M204.267,1.117q-.008,4.744,0,9.489c0,1.372,0,1.372-1.274,1.721a.678.678,0,0,0-.086.2.745.745,0,0,1,.486-.083c1.08-.025,1.079-.024,1.081-1.089Q204.482,5.679,204.5,0a1.563,1.563,0,0,0-.228,1.116" transform="translate(-160.797 -0.001)" fill="#60c3c1"/>
        <path id="Trazado_602739" data-name="Trazado 602739" d="M151.455,12.464a.524.524,0,0,1,.134.053h0a.668.668,0,0,0-.095-.2c-1.259-.328-1.259-.328-1.259-1.724q0-4.738,0-9.477A1.561,1.561,0,0,0,150.006,0q.012,5.452.024,10.9c0,1.421,0,1.42,1.424,1.561" transform="translate(-118.876)" fill="#60c3c1"/>
        <path id="Trazado_602740" data-name="Trazado 602740" d="M4.978,228.642H7.409a1.348,1.348,0,0,1,.945-.214q1.533-.019,3.066,0c.555.007.779-.215.777-.777q-.016-5.255,0-10.51c0-.584-.224-.833-.82-.826a13.7,13.7,0,0,1-2.185-.048.557.557,0,0,1-.287-.187H5.852a.982.982,0,0,1-.409.19c-1.59.105-3.181.037-4.771.042a.951.951,0,0,1-.672-.22v12.565c1.659-.093,3.318-.068,4.978-.013" transform="translate(0 -171.238)" fill="#fe9e1c"/>
        <path id="Trazado_602741" data-name="Trazado 602741" d="M37.194,216.083a.556.556,0,0,0,.287.187,13.647,13.647,0,0,0,2.185.048c.6-.007.821.242.82.826q-.01,5.255,0,10.51c0,.563-.223.784-.777.777q-1.533-.019-3.066,0a1.347,1.347,0,0,0-.945.214h.062c1.458-.013,2.917-.044,4.376-.029.475,0,.621-.136.619-.62q-.029-5.617,0-11.235c0-.494-.116-.682-.642-.664-.971.034-1.944-.006-2.917-.015Z" transform="translate(-28.291 -171.241)" fill="#fe9e1c"/>
        <path id="Trazado_602742" data-name="Trazado 602742" d="M5.442,216.27a.98.98,0,0,0,.409-.19H5.7l-5.7.011a.95.95,0,0,0,.672.22c1.59,0,3.18.064,4.771-.041" transform="translate(0 -171.238)" fill="#fe9e1c"/>
        <path id="Trazado_602743" data-name="Trazado 602743" d="M1.188,312.546c3.307-.006,6.614,0,9.921,0,1.043,0,1.077-.035,1.078-1.052q0-4.923,0-9.845c0-1.012-.041-1.046-1.082-1.051-.9,0-1.8,0-2.7,0a1.573,1.573,0,0,1-.984-.194.72.72,0,0,1-.068-.1,14.693,14.693,0,0,1-2.379-.007L0,300.359v12.418a1.673,1.673,0,0,1,1.188-.231" transform="translate(0 -237.974)" fill="#fe9e1c"/>
        <path id="Trazado_602744" data-name="Trazado 602744" d="M11.809,312.784c.5,0,.661-.114.658-.638q-.034-5.611,0-11.222c0-.48-.145-.617-.618-.612-1.457.016-2.914-.014-4.371-.026h0l-.122.008a.74.74,0,0,0,.068.1,1.576,1.576,0,0,0,.984.194c.9.009,1.8,0,2.7,0,1.041.005,1.08.039,1.082,1.051q.007,4.922,0,9.845c0,1.017-.035,1.051-1.078,1.052-3.307,0-6.614,0-9.921,0A1.672,1.672,0,0,0,0,312.773c3.936,0,7.873-.009,11.809.011" transform="translate(0 -237.97)" fill="#fe9e1c"/>
        <path id="Trazado_602745" data-name="Trazado 602745" d="M4.96,276.658h.018c0-.076,0-.153,0-.229-1.659-.055-3.319-.079-4.978.013a1.134,1.134,0,0,0,.819.23c1.38,0,2.76.026,4.141-.013" transform="translate(0 -219.024)" fill="#fefefe"/>
        <path id="Trazado_602746" data-name="Trazado 602746" d="M4.975,299.492H4.948c-1.377-.04-2.754-.012-4.131-.013a1.132,1.132,0,0,0-.817.229l4.975-.068v-.148" transform="translate(0 -237.323)" fill="#fefefe"/>
        <path id="Trazado_602747" data-name="Trazado 602747" d="M307.115,299.507c-.3.01-.47-.042-.534-.261-.082.388-.315.487-.914.507-1,.033-2,0-2.994.015-.757.014-.836.085-.838.848q-.015,5.11,0,10.219c0,.8.075.875.883.877q5.111.012,10.223,0c.776,0,.842-.067.843-.832q.012-5.109,0-10.219c0-.832-.068-.887-.938-.9-.949-.009-1.9,0-2.848-.006a1.543,1.543,0,0,1-.983-.2c-.013-.016-.023-.033-.034-.05-.622,0-1.244-.025-1.865-.005" transform="translate(-239.191 -237.145)" fill="#caf2ef"/>
        <path id="Trazado_602748" data-name="Trazado 602748" d="M304.847,216.281a15.241,15.241,0,0,1-2.261.06c-.526.005-.741.234-.742.75q0,5.292,0,10.584c0,.574.289.763.817.764.949,0,1.9-.013,2.848.007.7.015.969.1,1.069.495.031-.226.15-.331.445-.318.658.029,1.318.035,1.977.049a1.336,1.336,0,0,1,.966-.226c1.022-.012,2.044-.015,3.066,0,.561.008.773-.226.771-.782q-.015-5.254,0-10.509c0-.585-.221-.821-.818-.823-1.459,0-2.919.064-4.376-.037a.973.973,0,0,1-.423-.189l-3.053,0h-.043a.791.791,0,0,1-.243.178" transform="translate(-239.202 -171.257)" fill="#caf2ef"/>
        <path id="Trazado_602749" data-name="Trazado 602749" d="M332.835,216.291c1.457.1,2.917.034,4.376.037.6,0,.819.237.818.823q-.011,5.254,0,10.509c0,.556-.21.79-.771.782-1.022-.015-2.044-.011-3.066,0a1.336,1.336,0,0,0-.966.226h.058c1.434,0,2.868-.019,4.3,0,.485.008.685-.109.682-.644q-.031-5.648,0-11.3c0-.541-.211-.642-.688-.636-1.676.021-3.353.006-5.03.005h-.138a.975.975,0,0,0,.423.189" transform="translate(-263.429 -171.251)" fill="#caf2ef"/>
        <path id="Trazado_602750" data-name="Trazado 602750" d="M308.083,233.648a1.546,1.546,0,0,0,.983.2c.949.009,1.9,0,2.848.006.87.008.936.064.938.9q.012,5.11,0,10.219c0,.765-.068.83-.843.832q-5.112.012-10.223,0c-.807,0-.881-.073-.883-.877q-.013-5.109,0-10.219c0-.764.081-.835.838-.848,1-.018,2,.017,2.994-.015.6-.02.832-.119.914-.507a.873.873,0,0,1-.027-.256c.025-1.335.016-2.67,0-4.005a1.038,1.038,0,0,1,.01-.155c-.1-.4-.372-.479-1.07-.494-.949-.021-1.9-.007-2.847-.007-.528,0-.817-.19-.817-.764q-.007-5.292,0-10.584c0-.517.215-.745.742-.75a15.266,15.266,0,0,0,2.261-.06.794.794,0,0,0,.243-.178c-.935,0-1.871.035-2.8-.005-.563-.025-.693.183-.69.713q.03,5.51,0,11.02c0,.623.167.875.824.85,1.142-.043,2.287,0,3.431-.019.442-.009.6.138.592.586-.023,1.265-.028,2.53,0,3.795.012.5-.194.614-.648.6-1.192-.023-2.385.011-3.577-.017-.485-.011-.622.162-.62.632q.023,5.583,0,11.166c0,.459.114.643.61.641q5.621-.026,11.243,0c.445,0,.589-.143.587-.588q-.02-5.619,0-11.239c0-.5-.182-.616-.641-.61-1.46.018-2.92,0-4.38-.007h-.028c.011.017.021.034.034.05" transform="translate(-238.26 -171.231)" fill="#caf2ef"/>
        <path id="Trazado_602751" data-name="Trazado 602751" d="M59.532,107.865a29.5,29.5,0,0,1-4.632.023,2.652,2.652,0,0,1-.444.213,29.257,29.257,0,0,1-4.15.1c-1.317.027-1.318.007-1.318,1.328q0,4.7,0,9.408c0,1.228,0,1.221,1.2,1.234a12.828,12.828,0,0,1,1.965.054.363.363,0,0,1,.271.195h5.287a.862.862,0,0,1,.194-.182,14.5,14.5,0,0,1,2.4-.06c.548,0,.8-.195.8-.765q-.009-5.217,0-10.434c0-.561-.232-.8-.784-.78a1.234,1.234,0,0,1-.637-.123.653.653,0,0,1-.1-.2l-.053-.012h0" transform="translate(-38.822 -85.48)" fill="#fe9e1c"/>
        <path id="Trazado_602752" data-name="Trazado 602752" d="M93.631,108.248c.552-.023.785.219.784.78q-.008,5.217,0,10.434c0,.57-.247.765-.8.765a14.5,14.5,0,0,0-2.4.06.851.851,0,0,0-.193.182c.967-.009,1.935-.051,2.9-.01.554.023.693-.148.689-.691-.024-3.429-.012-6.858-.012-10.287,0-1.443,0-1.441-1.4-1.5a1.57,1.57,0,0,1-.3-.058.651.651,0,0,0,.1.2,1.233,1.233,0,0,0,.637.123" transform="translate(-72.133 -85.528)" fill="#fe9e1c"/>
        <path id="Trazado_602753" data-name="Trazado 602753" d="M51.586,120.415a.363.363,0,0,0-.271-.195,12.829,12.829,0,0,0-1.965-.054c-1.2-.012-1.2-.006-1.2-1.234q0-4.7,0-9.408c0-1.321,0-1.3,1.318-1.328a29.227,29.227,0,0,0,4.15-.1,2.628,2.628,0,0,0,.444-.212c-.105-.008-.211-.015-.316-.024h0c-.289.025-.577.07-.866.072-1.409.007-2.818.033-4.226-.011-.593-.018-.723.182-.72.741q.035,5.5,0,11c-.005.627.191.772.778.746.945-.042,1.893,0,2.84.011Z" transform="translate(-37.984 -85.474)" fill="#fe9e1c"/>
        <path id="Trazado_602754" data-name="Trazado 602754" d="M253.212,109.809q0,4.671,0,9.343c0,.941.058.981.99,1a16.065,16.065,0,0,1,2.185.056.36.36,0,0,1,.259.182h5.246a.362.362,0,0,1,.248-.177,14.9,14.9,0,0,1,2.405-.06c.561,0,.782-.228.781-.783q-.006-5.217,0-10.435c0-.58-.264-.759-.8-.753-1.217.013-2.433.006-3.65,0a3.884,3.884,0,0,1-1.158-.1c-.139-.07-.276-.144-.414-.216a26.609,26.609,0,0,1-4.724-.031l-.007,0a.708.708,0,0,1-.065.2c-1.3.378-1.3.378-1.3,1.77" transform="translate(-200.664 -85.459)" fill="#60c3c1"/>
        <path id="Trazado_602755" data-name="Trazado 602755" d="M255.865,120.4a.36.36,0,0,0-.259-.182,16.033,16.033,0,0,0-2.185-.056c-.932-.019-.988-.059-.99-1q-.009-4.671,0-9.343c0-1.392,0-1.392,1.3-1.77a.712.712,0,0,0,.065-.2,1.594,1.594,0,0,1-.92.076c-.451-.021-.651.093-.648.6q.028,5.66,0,11.32c0,.41.126.553.543.545,1.022-.02,2.045,0,3.068.006h.027Z" transform="translate(-199.881 -85.473)" fill="#60c3c1"/>
        <path id="Trazado_602756" data-name="Trazado 602756" d="M283,108.137a3.891,3.891,0,0,0,1.158.1c1.217,0,2.433.011,3.65,0,.537-.006.8.173.8.753q-.011,5.217,0,10.435c0,.555-.22.783-.781.783a14.9,14.9,0,0,0-2.405.059.362.362,0,0,0-.248.177h.039c.948,0,1.9-.048,2.844,0,.6.029.779-.147.774-.762q-.044-5.432,0-10.864c.006-.665-.166-.858-.843-.854a49.577,49.577,0,0,1-5.171-.057l-.231.017c.138.072.275.145.414.216" transform="translate(-223.94 -85.511)" fill="#60c3c1"/>
        <path id="Trazado_602757" data-name="Trazado 602757" d="M100.607,216.259a12.291,12.291,0,0,1-2.185.056c-.579-.007-.842.2-.841.8q.008,5.287,0,10.575c0,.531.223.739.742.735,1.021-.008,2.043-.009,3.064,0a1.492,1.492,0,0,1,.98.2c0,.005.006.011.01.017h2.374a1.362,1.362,0,0,1,.965-.22c1.022-.012,2.044-.016,3.065,0,.564.008.769-.233.768-.785q-.014-5.253,0-10.506c0-.586-.223-.82-.819-.822-1.459,0-2.919.064-4.375-.037a.97.97,0,0,1-.43-.2h-3.058a.365.365,0,0,1-.258.176" transform="translate(-77.33 -171.24)" fill="#febe69"/>
        <path id="Trazado_602758" data-name="Trazado 602758" d="M128.574,216.28c1.457.1,2.917.034,4.375.037.6,0,.82.236.819.822q-.01,5.253,0,10.506c0,.552-.2.793-.768.785-1.021-.015-2.043-.011-3.065,0a1.364,1.364,0,0,0-.965.22H129c1.434-.008,2.869-.04,4.3-.013.54.01.7-.139.7-.692q-.036-5.578,0-11.156c0-.542-.141-.706-.692-.7-1.677.029-3.354,0-5.032-.009h-.135a.969.969,0,0,0,.43.2" transform="translate(-101.551 -171.24)" fill="#febe69"/>
        <path id="Trazado_602759" data-name="Trazado 602759" d="M101.314,228.639a1.492,1.492,0,0,0-.98-.2c-1.021-.011-2.043-.01-3.064,0-.519,0-.743-.2-.742-.735q.008-5.287,0-10.575c0-.6.262-.81.841-.8a12.289,12.289,0,0,0,2.185-.056.365.365,0,0,0,.258-.176H99.8c-.947.007-1.894.043-2.839.01-.528-.018-.714.122-.711.684q.036,5.569,0,11.139c0,.607.209.729.757.719,1.407-.024,2.815.006,4.223.015h.092c0-.006-.006-.011-.01-.017" transform="translate(-76.278 -171.245)" fill="#febe69"/>
        <path id="Trazado_602760" data-name="Trazado 602760" d="M210.549,216.284c-1.385.109-2.771.028-4.155.05-.995.016-1.049.052-1.05,1.014q-.009,5.067,0,10.133c0,.893.059.946.953.955.948.009,1.9,0,2.844.006a1.51,1.51,0,0,1,.981.2l.015.021,2.368,0a1.343,1.343,0,0,1,.966-.223c1.022-.012,2.044-.015,3.066,0,.559.007.774-.224.772-.782q-.016-5.254,0-10.507c0-.585-.227-.832-.821-.824a13.617,13.617,0,0,1-2.185-.048.585.585,0,0,1-.284-.183h-3.06a.972.972,0,0,1-.407.188" transform="translate(-162.726 -171.251)" fill="#60c3c1"/>
        <path id="Trazado_602761" data-name="Trazado 602761" d="M241.656,216.283a13.641,13.641,0,0,0,2.185.048c.595-.007.822.239.821.824q-.009,5.254,0,10.507c0,.558-.213.789-.772.782-1.022-.013-2.044-.011-3.066,0a1.344,1.344,0,0,0-.966.224h.1c1.432-.012,2.864-.039,4.3-.027.474,0,.691-.092.688-.636q-.033-5.644,0-11.288c0-.5-.179-.616-.636-.607-.97.021-1.942-.005-2.913-.012h-.016a.585.585,0,0,0,.284.183" transform="translate(-190.083 -171.254)" fill="#60c3c1"/>
        <path id="Trazado_602762" data-name="Trazado 602762" d="M209.232,228.641a1.513,1.513,0,0,0-.981-.2c-.948-.009-1.9,0-2.844-.005-.894-.008-.951-.061-.953-.955q-.008-5.066,0-10.133c0-.962.056-1,1.05-1.014,1.385-.022,2.771.059,4.155-.05a.97.97,0,0,0,.407-.188h-.128c-1.7.007-3.4.031-5.1.011-.483-.006-.617.147-.614.62q.025,5.65,0,11.3c0,.495.162.616.625.612,1.458-.014,2.916.012,4.374.022h.029l-.015-.021" transform="translate(-161.838 -171.25)" fill="#60c3c1"/>
        <path id="Trazado_602763" data-name="Trazado 602763" d="M102.388,300.085a1.191,1.191,0,0,1-1.025.337q-1.5.026-2.995,0c-.55-.008-.785.2-.783.768q.016,5.221,0,10.442c0,.519.194.749.729.748q5.259-.006,10.518,0c.55,0,.714-.253.713-.759q-.008-5.221,0-10.442c0-.579-.261-.763-.8-.757-1.022.012-2.045.015-3.068,0-.355-.006-.738.027-.978-.332a6.515,6.515,0,0,1-2.318,0" transform="translate(-77.334 -237.81)" fill="#febe69"/>
        <path id="Trazado_602764" data-name="Trazado 602764" d="M104.643,300.349c1.022.019,2.045.015,3.068,0,.537-.006.8.178.8.757q-.012,5.221,0,10.442c0,.506-.163.76-.713.759q-5.259-.009-10.518,0c-.535,0-.73-.229-.729-.748q0-5.221,0-10.442c0-.568.234-.776.784-.768q1.5.021,2.995,0a1.192,1.192,0,0,0,1.025-.337c-.033-.007-.067-.012-.1-.019h0a1.426,1.426,0,0,1-.784.106c-1.169,0-2.338.02-3.506-.008-.484-.011-.687.1-.684.64q.031,5.586,0,11.172c0,.524.172.65.669.647,3.7-.018,7.4-.026,11.1.006.627.005.7-.235.7-.761-.018-3.6-.036-7.205.012-10.807.01-.777-.236-.912-.941-.908a24.547,24.547,0,0,1-4.07-.076l-.078.012c.241.359.623.325.978.332" transform="translate(-76.292 -237.737)" fill="#febe69"/>
        <path id="Trazado_602765" data-name="Trazado 602765" d="M210.179,300.051c-.224.356-.6.334-.95.341q-1.534.031-3.068,0c-.58-.011-.833.2-.83.8q.018,5.185,0,10.371c0,.546.185.79.76.788q5.223-.017,10.447,0c.579,0,.756-.261.756-.8-.006-3.457-.012-6.914,0-10.371,0-.618-.259-.8-.834-.792-.974.021-1.948.015-2.922,0a1.217,1.217,0,0,1-1.062-.346,5.419,5.419,0,0,1-2.3,0" transform="translate(-162.72 -237.781)" fill="#60c3c1"/>
        <path id="Trazado_602766" data-name="Trazado 602766" d="M212.645,300.3c.974.015,1.949.021,2.922,0,.575-.013.837.174.834.792-.016,3.457-.01,6.914,0,10.371,0,.537-.176.8-.756.8q-5.224-.011-10.447,0c-.575,0-.762-.242-.76-.788q.013-5.185,0-10.371c0-.608.25-.814.83-.8q1.533.028,3.068,0c.35-.007.726.016.95-.341l-.076-.014h0c-.216.165-.468.1-.705.1-1.192.006-2.386.035-3.576-.011-.594-.023-.725.181-.722.743q.035,5.509,0,11.018c0,.611.21.709.75.706,3.65-.02,7.3-.031,10.949.007.684.007.787-.23.782-.833-.027-3.259-.013-6.519-.013-9.778,0-1.85,0-1.828-1.859-1.859a13.624,13.624,0,0,1-3.116-.109c-.036.01-.072.016-.108.024a1.216,1.216,0,0,0,1.062.346" transform="translate(-161.82 -237.688)" fill="#60c3c1"/>
        <path id="Trazado_602767" data-name="Trazado 602767" d="M103.974,60.338a1.025,1.025,0,0,1-.7.124q-4-.024-8,0c-.236,0-.488.057-.688-.136.081.321-.325.379-.512.488q-2.23,1.308-4.465,2.609c-3.842,2.232-7.693,4.447-11.518,6.707l-.018.011c1.338-.126,2.682-.026,4.022-.056a.819.819,0,0,1,.486.105h0l.043-.025c-.047-.286.314-.374.5-.487,1.239-.77,2.512-1.483,3.774-2.215,3.7-2.148,7.417-4.27,11.087-6.47a2.129,2.129,0,0,1,2.518-.037c4.882,2.922,9.806,5.773,14.692,8.687.212.126.637.178.588.537l.006,0h0a2,2,0,0,1,1.132-.1,33.449,33.449,0,0,1,3.462.059c-1.732-.915-3.386-1.967-5.078-2.954q-5.418-3.161-10.812-6.364c-.2-.117-.585-.173-.517-.492l0,0h0" transform="translate(-61.87 -47.809)" fill="#666"/>
        <path id="Trazado_602768" data-name="Trazado 602768" d="M203.386,60.877q5.4,3.2,10.812,6.364c1.692.987,3.346,2.039,5.078,2.954.12.015.241.03.361.05l-16.767-9.861c-.068.319.319.376.517.492" transform="translate(-160.763 -47.854)" fill="#666"/>
        <path id="Trazado_602769" data-name="Trazado 602769" d="M132.56,70.549c-4.887-2.914-9.81-5.766-14.692-8.687a2.129,2.129,0,0,0-2.518.037c-3.67,2.2-7.386,4.321-11.087,6.47-1.262.732-2.535,1.446-3.774,2.215-.184.114-.545.2-.5.488q8.112-4.72,16.22-9.446a.735.735,0,0,1,.857-.018q8.033,4.752,16.081,9.479c.049-.359-.376-.411-.588-.537" transform="translate(-79.237 -48.711)" fill="#666"/>
        <path id="Trazado_602770" data-name="Trazado 602770" d="M76.412,70.124c3.825-2.26,7.677-4.475,11.518-6.707q2.236-1.3,4.465-2.609c.187-.109.593-.167.512-.489l0,0h0l-16.95,9.865h0c.146-.02.293-.034.439-.048l.019-.011" transform="translate(-60.192 -47.8)" fill="#666"/>
        <path id="Trazado_602771" data-name="Trazado 602771" d="M158.33,60.1q4-.03,8,0a1.026,1.026,0,0,0,.7-.124c-.312-.032-.624-.09-.936-.091q-3.393-.012-6.786,0a6.622,6.622,0,0,0-1.667.079v0c.2.193.452.138.688.136" transform="translate(-124.928 -47.446)" fill="#666"/>
        <path id="Trazado_602772" data-name="Trazado 602772" d="M157.635,60.315h0l0,0v0" transform="translate(-124.92 -47.798)" fill="#666"/>
        <path id="Trazado_602773" data-name="Trazado 602773" d="M82.11,107.427a.819.819,0,0,0-.486-.105c-1.341.03-2.684-.07-4.023.055l-.123.072a29.5,29.5,0,0,0,4.632-.023" transform="translate(-61.4 -85.042)" fill="#666"/>
        <path id="Trazado_602774" data-name="Trazado 602774" d="M76.394,107.627c-.147.014-.293.028-.439.048.105.009.211.016.316.024l.123-.072" transform="translate(-60.193 -85.292)" fill="#666"/>
        <path id="Trazado_602775" data-name="Trazado 602775" d="M264.542,107.371l-.13-.067a33.447,33.447,0,0,0-3.462-.06,2,2,0,0,0-1.132.1,26.608,26.608,0,0,0,4.724.031" transform="translate(-205.9 -84.961)" fill="#666"/>
        <path id="Trazado_602776" data-name="Trazado 602776" d="M282.088,107.729l.231-.017c-.12-.021-.24-.035-.361-.05l.13.067" transform="translate(-223.445 -85.32)" fill="#666"/>
        <path id="Trazado_602777" data-name="Trazado 602777" d="M41.494,168.369a.921.921,0,0,1-.682.205q-1.972.025-3.943,0a.98.98,0,0,1-.632-.163.4.4,0,0,1-.065.245,4.817,4.817,0,0,1-.465.654q-3.386,4.21-6.754,8.433a3.737,3.737,0,0,1-.407.465,5.009,5.009,0,0,1,2.978.061c-.127-.192.1-.42.226-.6.564-.762,1.174-1.491,1.767-2.231q2.305-2.875,4.607-5.753c.588-.732.812-.736,1.394-.014,2.078,2.574,4.132,5.168,6.208,7.744a4.134,4.134,0,0,1,.376.538.355.355,0,0,1,.056.312,4.983,4.983,0,0,1,2.987-.056,2.634,2.634,0,0,1-.3-.332c-2.321-2.908-4.653-5.806-6.961-8.723-.161-.2-.613-.442-.379-.777Z" transform="translate(-22.623 -133.428)" fill="#666"/>
        <path id="Trazado_602778" data-name="Trazado 602778" d="M57.388,181.2a.355.355,0,0,0-.056-.312,4.126,4.126,0,0,0-.376-.538c-2.075-2.576-4.129-5.17-6.208-7.744-.583-.721-.807-.718-1.394.014q-2.308,2.873-4.607,5.753c-.594.74-1.2,1.469-1.767,2.231-.131.176-.353.4-.226.6h0q3.5-4.393,6.987-8.791c.252-.319.4-.317.648,0q3.482,4.4,6.986,8.79h0l.009,0" transform="translate(-33.851 -136.362)" fill="#666"/>
        <path id="Trazado_602779" data-name="Trazado 602779" d="M91.107,169.2c2.308,2.917,4.641,5.815,6.961,8.723a2.665,2.665,0,0,0,.3.332c.068.019.136.036.2.058-.115-.155-.225-.313-.345-.464q-3.75-4.713-7.5-9.425c-.235.335.218.574.379.777" transform="translate(-71.848 -133.474)" fill="#666"/>
        <path id="Trazado_602780" data-name="Trazado 602780" d="M28.112,177.744q3.377-4.217,6.754-8.433a4.844,4.844,0,0,0,.465-.654.4.4,0,0,0,.065-.245.621.621,0,0,1-.05-.042h0c-.115.155-.226.313-.346.464q-3.757,4.719-7.515,9.437c.073-.023.147-.041.22-.061a3.72,3.72,0,0,0,.407-.465" transform="translate(-21.781 -133.429)" fill="#666"/>
        <path id="Trazado_602781" data-name="Trazado 602781" d="M28.27,215.033c-.024.021-.047.042-.073.061h3.051a5.013,5.013,0,0,0-2.978-.061" transform="translate(-22.345 -170.253)" fill="#666"/>
        <path id="Trazado_602782" data-name="Trazado 602782" d="M42.9,216.078h0" transform="translate(-33.996 -171.237)" fill="#666"/>
        <path id="Trazado_602783" data-name="Trazado 602783" d="M27.485,215.845h.148c.025-.019.049-.04.073-.061-.073.02-.147.038-.22.061" transform="translate(-21.781 -171.004)" fill="#666"/>
        <path id="Trazado_602784" data-name="Trazado 602784" d="M66.189,168.574q1.972.026,3.944,0a.92.92,0,0,0,.681-.205H65.545a.206.206,0,0,1,.012.042.98.98,0,0,0,.632.163" transform="translate(-51.943 -133.428)" fill="#666"/>
        <path id="Trazado_602785" data-name="Trazado 602785" d="M65.416,168.412a.2.2,0,0,0-.012-.042h-.037a.58.58,0,0,0,.05.042" transform="translate(-51.801 -133.429)" fill="#666"/>
        <path id="Trazado_602786" data-name="Trazado 602786" d="M116.465,215.091c-.024-.018-.047-.038-.069-.058a4.982,4.982,0,0,0-2.987.056l0,0h3.058" transform="translate(-89.872 -170.249)" fill="#666"/>
        <path id="Trazado_602787" data-name="Trazado 602787" d="M127.879,215.862h.135c-.068-.022-.136-.039-.2-.058q.034.03.069.058" transform="translate(-101.286 -171.02)" fill="#666"/>
        <path id="Trazado_602788" data-name="Trazado 602788" d="M113.378,216.078l0,0-.009,0Z" transform="translate(-89.843 -171.234)" fill="#666"/>
        <path id="Trazado_602789" data-name="Trazado 602789" d="M250.377,178.358a4.808,4.808,0,0,1,2.979-.057,2.178,2.178,0,0,1-.261-.28q-3.527-4.423-7.069-8.835a2.653,2.653,0,0,1-.321-.486.35.35,0,0,1-.043-.208.942.942,0,0,1-.617.165q-1.987.03-3.973,0a.918.918,0,0,1-.634-.182.383.383,0,0,1-.063.275,4.077,4.077,0,0,1-.375.538q-3.475,4.322-6.931,8.658a2.711,2.711,0,0,1-.322.354,4.93,4.93,0,0,1,2.985.052c-.128-.2.125-.416.253-.586.761-1.011,1.571-1.986,2.361-2.974,1.353-1.692,2.7-3.388,4.065-5.071.534-.66.785-.669,1.3-.022q3.173,3.962,6.335,7.932c.152.192.49.442.306.7l.022.028" transform="translate(-184.447 -133.512)" fill="#666"/>
        <path id="Trazado_602790" data-name="Trazado 602790" d="M294.972,168.373a.352.352,0,0,0,.043.208,2.646,2.646,0,0,0,.321.486q3.535,4.418,7.069,8.835a2.161,2.161,0,0,0,.26.28c.071.02.141.038.212.061-.081-.119-.155-.243-.244-.356q-3.8-4.783-7.609-9.563a.616.616,0,0,1-.053.047" transform="translate(-233.756 -133.394)" fill="#666"/>
        <path id="Trazado_602791" data-name="Trazado 602791" d="M261.312,180.471q-3.152-3.978-6.335-7.932c-.518-.647-.768-.638-1.3.022-1.363,1.684-2.712,3.379-4.065,5.071-.79.989-1.6,1.963-2.361,2.974-.128.171-.381.391-.253.586l.02.006q3.5-4.4,6.987-8.794c.255-.322.4-.315.649,0q3.473,4.391,6.967,8.766c.184-.259-.154-.509-.306-.7" transform="translate(-195.71 -136.353)" fill="#666"/>
        <path id="Trazado_602792" data-name="Trazado 602792" d="M232.307,177.826q3.459-4.334,6.931-8.658a4.111,4.111,0,0,0,.375-.538.384.384,0,0,0,.063-.275c-.012-.01-.024-.019-.035-.031-.1.138-.184.282-.288.413q-3.782,4.751-7.568,9.5c.066-.022.133-.038.2-.057a2.681,2.681,0,0,0,.322-.354" transform="translate(-183.684 -133.392)" fill="#666"/>
        <path id="Trazado_602793" data-name="Trazado 602793" d="M317.7,215.088h0l3.053,0c-.025-.019-.05-.04-.074-.061a4.808,4.808,0,0,0-2.979.057" transform="translate(-251.771 -170.242)" fill="#666"/>
        <path id="Trazado_602794" data-name="Trazado 602794" d="M332.131,215.889h.138c-.071-.023-.141-.041-.211-.061.024.021.048.042.074.061" transform="translate(-263.147 -171.039)" fill="#666"/>
        <path id="Trazado_602795" data-name="Trazado 602795" d="M269.78,168.354a.916.916,0,0,0,.634.182q1.986.03,3.973,0a.942.942,0,0,0,.617-.165.21.21,0,0,1,.014-.047h-5.246a.229.229,0,0,1,.008.031" transform="translate(-213.788 -133.392)" fill="#666"/>
        <path id="Trazado_602796" data-name="Trazado 602796" d="M269.676,168.354a.234.234,0,0,0-.008-.031h-.027c.011.012.023.021.035.031" transform="translate(-213.684 -133.392)" fill="#666"/>
        <path id="Trazado_602797" data-name="Trazado 602797" d="M295,168.326a.2.2,0,0,0-.014.047.618.618,0,0,0,.053-.047Z" transform="translate(-233.767 -133.394)" fill="#666"/>
        <path id="Trazado_602798" data-name="Trazado 602798" d="M235.462,215.092l0-.006a4.928,4.928,0,0,0-2.985-.052c-.023.02-.047.039-.071.057h3.06" transform="translate(-184.173 -170.246)" fill="#666"/>
        <path id="Trazado_602799" data-name="Trazado 602799" d="M231.913,215.877c.024-.018.048-.037.071-.057-.067.019-.133.035-.2.057h.128" transform="translate(-183.684 -171.032)" fill="#666"/>
        <path id="Trazado_602800" data-name="Trazado 602800" d="M247.133,216.078h.016l-.02-.006,0,.006" transform="translate(-195.844 -171.232)" fill="#666"/>
        <path id="Trazado_602801" data-name="Trazado 602801" d="M24.526,277.047a19.734,19.734,0,0,1,0,4.514.129.129,0,0,1-.01.031,7.844,7.844,0,0,1,2.236.093.781.781,0,0,1-.077-.311q-.074-2.063,0-4.126a.759.759,0,0,1,.117-.37,5.286,5.286,0,0,1-2.272.169" transform="translate(-19.432 -219.419)" fill="#666"/>
        <path id="Trazado_602802" data-name="Trazado 602802" d="M34.781,277.045q-.076,2.063,0,4.126a.785.785,0,0,0,.077.311q.076.023.152.051,0-2.455-.005-4.911h0c-.035.02-.07.036-.105.053a.76.76,0,0,0-.117.37" transform="translate(-27.533 -219.216)" fill="#666"/>
        <path id="Trazado_602803" data-name="Trazado 602803" d="M24.1,276.838a5.286,5.286,0,0,0,2.272-.169c.007-.012.013-.025.022-.037l.022-.017H23.986c.04.06.1.115.112.185,0,.013,0,.026,0,.038" transform="translate(-19.008 -219.21)" fill="#666"/>
        <path id="Trazado_602804" data-name="Trazado 602804" d="M35.514,276.639c-.008.012-.014.024-.022.036.035-.017.07-.033.105-.053h-.062l-.022.017" transform="translate(-28.127 -219.216)" fill="#666"/>
        <path id="Trazado_602805" data-name="Trazado 602805" d="M24.085,299.459a.57.57,0,0,1-.114.145,14.72,14.72,0,0,0,2.38.007c-.012-.019-.02-.039-.03-.059a7.836,7.836,0,0,0-2.236-.093" transform="translate(-18.996 -237.287)" fill="#666"/>
        <path id="Trazado_602806" data-name="Trazado 602806" d="M35.294,300.038a.661.661,0,0,0,.03.059l.122-.008h0q-.076-.028-.152-.051" transform="translate(-27.97 -237.773)" fill="#666"/>
        <path id="Trazado_602807" data-name="Trazado 602807" d="M24.1,282.205a19.722,19.722,0,0,0,0-4.514l-.116.005q0,2.268,0,4.536l.114,0a.125.125,0,0,0,.01-.03" transform="translate(-18.997 -220.064)" fill="#666"/>
        <path id="Trazado_602808" data-name="Trazado 602808" d="M24.1,276.8c-.009-.07-.072-.125-.112-.185,0,.076,0,.153,0,.229l.116-.005c0-.013,0-.025,0-.038" transform="translate(-19.008 -219.211)" fill="#666"/>
        <path id="Trazado_602809" data-name="Trazado 602809" d="M23.972,299.578v.148a.573.573,0,0,0,.114-.145l-.114,0" transform="translate(-18.997 -237.409)" fill="#666"/>
        <path id="Trazado_602810" data-name="Trazado 602810" d="M326.49,277.125c-.541,0-.8.177-.788.756.024,1.017.019,2.036,0,3.054-.009.536.228.721.743.729a2.466,2.466,0,0,1,1.433.168.786.786,0,0,1-.118-.391c-.047-1.375-.05-2.75,0-4.125a.743.743,0,0,1,.1-.345,2.473,2.473,0,0,1-1.38.152" transform="translate(-258.111 -219.495)" fill="#666"/>
        <path id="Trazado_602811" data-name="Trazado 602811" d="M335.5,277.085c-.053,1.375-.049,2.75,0,4.125a.783.783,0,0,0,.118.391c.015.01.031.017.047.028q.02-2.475.039-4.95a1.084,1.084,0,0,1-.1.061.745.745,0,0,0-.1.345" transform="translate(-265.845 -219.262)" fill="#666"/>
        <path id="Trazado_602812" data-name="Trazado 602812" d="M324.669,276.748a2.67,2.67,0,0,1,.055.606c.01,1.119.015,2.239,0,3.358a2.437,2.437,0,0,1-.04.452c.064.219.239.271.534.261.621-.02,1.243,0,1.865.005l-.019-.028a2.463,2.463,0,0,0-1.433-.168c-.516-.008-.752-.193-.743-.729.016-1.018.022-2.037,0-3.055-.014-.579.246-.757.787-.756a2.474,2.474,0,0,0,1.381-.153c.012-.02.023-.041.037-.061h0c-.659-.014-1.319-.02-1.977-.049-.294-.013-.414.091-.445.318" transform="translate(-257.293 -219.064)" fill="#666"/>
        <path id="Trazado_602813" data-name="Trazado 602813" d="M336.188,276.675c-.014.02-.025.04-.037.061a1.02,1.02,0,0,0,.1-.061h-.06" transform="translate(-266.392 -219.258)" fill="#666"/>
        <path id="Trazado_602814" data-name="Trazado 602814" d="M336.222,300.423h.028c-.015-.011-.031-.018-.047-.028l.019.028" transform="translate(-266.433 -238.056)" fill="#666"/>
        <path id="Trazado_602815" data-name="Trazado 602815" d="M120.827,276.748a1.063,1.063,0,0,1,.139.551q.035,1.838,0,3.676a1.2,1.2,0,0,1-.13.556,7.414,7.414,0,0,1,2.279.013,16.179,16.179,0,0,1,.05-4.828,2.913,2.913,0,0,1-2.339.032" transform="translate(-95.753 -219.291)" fill="#676766"/>
        <path id="Trazado_602816" data-name="Trazado 602816" d="M120.5,280.92q.032-1.838,0-3.677a1.063,1.063,0,0,0-.139-.551c-.04-.016-.08-.029-.12-.046h0q0,2.423,0,4.845h0l.13-.016a1.2,1.2,0,0,0,.13-.556" transform="translate(-95.289 -219.236)" fill="#676766"/>
        <path id="Trazado_602817" data-name="Trazado 602817" d="M131.258,281.486c.029.005.058.009.087.015q0-2.429,0-4.858h0l-.038.015a16.187,16.187,0,0,0-.05,4.828" transform="translate(-103.895 -219.233)" fill="#676766"/>
        <path id="Trazado_602818" data-name="Trazado 602818" d="M120.721,276.691a2.913,2.913,0,0,0,2.339-.032l0-.011.005,0h-2.374c.011.015.018.031.028.046" transform="translate(-95.646 -219.234)" fill="#676766"/>
        <path id="Trazado_602819" data-name="Trazado 602819" d="M132.1,276.647s0,.007,0,.011l.038-.015H132.1l-.005,0" transform="translate(-104.684 -219.233)" fill="#676766"/>
        <path id="Trazado_602820" data-name="Trazado 602820" d="M120.342,276.647h-.092c.04.017.08.03.12.046-.01-.015-.017-.031-.028-.046" transform="translate(-95.295 -219.236)" fill="#676766"/>
        <path id="Trazado_602821" data-name="Trazado 602821" d="M120.76,299.6h0c-.009.013-.02.022-.029.034a6.51,6.51,0,0,0,2.318,0l-.007-.009,0-.018a7.421,7.421,0,0,0-2.279-.013" transform="translate(-95.676 -237.365)" fill="#676766"/>
        <path id="Trazado_602822" data-name="Trazado 602822" d="M120.376,299.917h0l-.13.016c.033.007.067.012.1.019.01-.012.02-.021.029-.034" transform="translate(-95.293 -237.676)" fill="#676766"/>
        <path id="Trazado_602823" data-name="Trazado 602823" d="M131.858,300l.007.009.078-.012c-.029-.006-.058-.01-.087-.015l0,.018" transform="translate(-104.493 -237.726)" fill="#676766"/>
        <path id="Trazado_602824" data-name="Trazado 602824" d="M228.5,276.726a.544.544,0,0,1,.116.29,25.762,25.762,0,0,1-.058,4.524,8.649,8.649,0,0,1,2.271-.012,10.166,10.166,0,0,1-.135-2.9,4.079,4.079,0,0,1,.143-1.873,2.939,2.939,0,0,1-2.338-.031" transform="translate(-181.083 -219.299)" fill="#666"/>
        <path id="Trazado_602825" data-name="Trazado 602825" d="M238.931,278.583a10.166,10.166,0,0,0,.135,2.9l.12.012q0-2.414,0-4.827c-.038.016-.076.028-.114.043a4.079,4.079,0,0,0-.143,1.873" transform="translate(-189.317 -219.252)" fill="#666"/>
        <path id="Trazado_602826" data-name="Trazado 602826" d="M228.465,276.955a.545.545,0,0,0-.116-.29l-.04-.016h0q0,2.423,0,4.845h0l.095-.014a25.779,25.779,0,0,0,.058-4.524" transform="translate(-180.929 -219.238)" fill="#666"/>
        <path id="Trazado_602827" data-name="Trazado 602827" d="M228.46,276.665a2.939,2.939,0,0,0,2.338.031c.006-.014.01-.028.017-.041l0,0-2.368,0,.011.016" transform="translate(-181.041 -219.238)" fill="#666"/>
        <path id="Trazado_602828" data-name="Trazado 602828" d="M239.784,276.668c-.007.014-.011.028-.017.041.038-.015.076-.027.114-.043h-.1l0,0" transform="translate(-190.01 -219.251)" fill="#666"/>
        <path id="Trazado_602829" data-name="Trazado 602829" d="M228.337,276.649h-.029l.04.016-.011-.016" transform="translate(-180.929 -219.238)" fill="#666"/>
        <path id="Trazado_602830" data-name="Trazado 602830" d="M228.713,299.618v0c-.006.01-.013.016-.018.026a5.42,5.42,0,0,0,2.3,0l0-.005c0-.01,0-.021-.008-.031a8.649,8.649,0,0,0-2.271.012" transform="translate(-181.235 -237.376)" fill="#666"/>
        <path id="Trazado_602831" data-name="Trazado 602831" d="M239.727,299.87c0,.011,0,.021.008.032l0,.005c.036-.009.072-.015.108-.025l-.121-.012" transform="translate(-189.978 -237.64)" fill="#666"/>
        <path id="Trazado_602832" data-name="Trazado 602832" d="M228.422,299.928v0l-.095.014.076.014c.006-.009.013-.016.018-.026" transform="translate(-180.945 -237.684)" fill="#666"/>
      </g>
    </g>
  </g>
</svg>
