<svg xmlns="http://www.w3.org/2000/svg" xmlns:xlink="http://www.w3.org/1999/xlink" width="144.293" height="376.74" viewBox="0 0 144.293 376.74">
  <defs>
    <clipPath id="clip-path">
      <rect id="Rect치ngulo_300806" data-name="Rect치ngulo 300806" width="106.777" height="376.74" fill="none"/>
    </clipPath>
  </defs>
  <g id="Grupo_886476" data-name="Grupo 886476" transform="translate(-390 -10860.693)">
    <g id="Grupo_886087" data-name="Grupo 886087" transform="translate(401.515 10860.693)">
      <g id="Grupo_886086" data-name="Grupo 886086" clip-path="url(#clip-path)">
        <path id="Trazado_601439" data-name="Trazado 601439" d="M55.6,7.569c.7,2,.052,2.647-.923,4.53-.835,1.612-1.689,3.473-1.056,5.173.285.762.843,1.392,1.172,2.135a7.878,7.878,0,0,1,.336,3.822c-.44,5.7-.978,11.679-4.17,16.418a9.329,9.329,0,0,0-1.536,2.74,7.326,7.326,0,0,0,.54,4.073c1.072,3.2,2.476,6.765,5.606,8.028,1.205.485,8.748,4.678,16.7.765.709-.349,1.261-.977,2-1.268,1.792-.71,3.886.8,5.7.138,1.741-.638,2.212-3.06,1.415-4.735s-2.433-2.763-3.993-3.769c1.918.615,4.263,1.144,5.741-.222s1.083-3.9-.2-5.441-3.192-2.375-4.932-3.368-3.482-2.347-3.964-4.292a1.7,1.7,0,0,1-.031-.88c.324-1.113,1.911-.937,3.055-1.123,2.5-.4,3.508-4.237,1.535-5.822-1-.8-2.38-.963-3.476-1.632-3.612-2.206.539-7.554-3.695-12.457C68.074,6.515,54.637,4.824,55.6,7.569" transform="translate(13.641 1.721)" fill="#b24f4d"/>
        <path id="Trazado_601440" data-name="Trazado 601440" d="M77.569,79.744S82.516,68.792,76.547,58.9c-3.031-5.023-8.8-9.781-17.4-8.924-5.19.516,18.425,29.769,18.425,29.769" transform="translate(16.158 13.8)" fill="#868964"/>
        <path id="Trazado_601441" data-name="Trazado 601441" d="M63.871,275.419s3.487,8.781,5.72,11.014-5.076,5.075-9.542,3.857-6.294-16.039-6.294-16.039Z" transform="translate(14.873 75.883)" fill="#fccdae"/>
        <path id="Trazado_601442" data-name="Trazado 601442" d="M60.1,292.726c22.47,5.12,12.757-8.5,8.121-8.933,2.233,2.233-5.076,5.076-9.542,3.857" transform="translate(16.237 78.523)" fill="#462c2a"/>
        <path id="Trazado_601443" data-name="Trazado 601443" d="M60.331,290.29c-4.467-1.218-6.294-16.039-6.294-16.039s-6,17.991,7.715,21.115" transform="translate(14.591 75.883)" fill="#462c2a"/>
        <path id="Trazado_601444" data-name="Trazado 601444" d="M96.065,136.394S84.618,162.747,70.22,169.03c0,0-11.005,74.942-11.005,78.607s-1.1,39.223.209,43.673,5.5,4.974,3.4,9.163,1.832,3.665.785,7.854,2.355,6.283-.262,8.115-3.665,2.357-8.639,4.451-6.806,2.357-6.806-1.57-.523-1.833-2.618-7.592-3.4-8.376-2.617-11.78-8.639-22.513-9.948-40.839,2.154-37.72,1.832-38.482c-1.861-4.426-.523-8.116-1.309-12.043s-5.759-29.058-8.9-42.147,3.1-29.121,3.1-29.121Z" transform="translate(6.492 37.739)" fill="#adafb2"/>
        <path id="Trazado_601445" data-name="Trazado 601445" d="M80.573,50.254c4.728,1.189,13.952,29.393,16.482,35.59,5.734,14.047-7.167,16.628-6.307,24.654,1.284,11.988,4.6,20.085,7.695,31.122.619,2.21,2.361,4.057,2.945,6.557.276,1.177-.585,2.87-.323,4.129.535,2.571,1.038,5.326,1.491,8.313.4,2.63-45.706,14.59-68.616.923a78.171,78.171,0,0,0,4.779-14.309c.407-1.634-2.533-5.446-1.26-8.66,3.308-8.346,6.548-18.669,6.069-21.782-1.044-6.782-5.414-29.323-9.066-30.366s-16.219,14.682-17.736,17.214c-.576.96,2.086,7.3,2.086,7.3L5.251,113.55s-5.739-5.737-5.217-9.389S20.9,57.214,33.42,53.561s34.186-6.567,47.153-3.307" transform="translate(0 13.514)" fill="#9fa177"/>
        <path id="Trazado_601446" data-name="Trazado 601446" d="M34.55,51.064a107.554,107.554,0,0,1,27.222-2.216c1.515.088,9.933,5.522,4.928,8.941-6.232,4.258-7.194,6.623-22.95,2.058-14-4.057-12.9-7.982-9.2-8.782" transform="translate(8.894 13.478)" fill="#fccdae"/>
        <path id="Trazado_601447" data-name="Trazado 601447" d="M57.933,174.835c.613-2.52,8.913,50.916,6.344,65.688-.442,2.541-10.357,51.5-10.88,54.9s-4.189,7.069-2.618,7.069,0,8.638,1.048,9.425l1.047.785s8.524,2.953,11.928.859.785-3.665.785-3.665,5.236-3.142,2.355-5.5-1.309-4.974,1.832-9.163,13.352-33.77,17.279-49.217,9.933-83.581,1.561-109.627Z" transform="translate(13.942 37.739)" fill="#adafb2"/>
        <path id="Trazado_601448" data-name="Trazado 601448" d="M57.325,277.421s3.25,10.774,5.077,11.992-12.181,8.324-15.023,3.451a18.209,18.209,0,0,1-2.031-10.557Z" transform="translate(12.518 76.76)" fill="#fccdae"/>
        <path id="Trazado_601449" data-name="Trazado 601449" d="M58.867,289.368a.745.745,0,0,1-.24-.04,1.112,1.112,0,0,1-.61-.623,31.559,31.559,0,0,1-2.541-11.571.562.562,0,0,1,.548-.577.546.546,0,0,1,.576.549,30.428,30.428,0,0,0,2.435,11.119.562.562,0,0,1,.2,1.046.743.743,0,0,1-.364.1" transform="translate(15.35 76.522)" fill="#bc8d81"/>
        <path id="Trazado_601450" data-name="Trazado 601450" d="M45.822,281.248A18.208,18.208,0,0,0,47.851,291.8c2.843,4.873,16.851-2.233,15.024-3.451,0,0,6.294,3.248,5.077,5.685s-16.446,7.1-21.928,3.654-.2-16.445-.2-16.445" transform="translate(12.045 77.819)" fill="#462c2a"/>
        <path id="Trazado_601451" data-name="Trazado 601451" d="M17.675,97.483l19.952,36.238S35,143.9,32.8,148.082s2.819,8.2,2.819,11.709-1.2,5.153-5.478-2.867,1.872-16.575-1.069-20.319S4.113,100.091,4.113,100.091Z" transform="translate(1.138 26.973)" fill="#fccdae"/>
        <path id="Trazado_601452" data-name="Trazado 601452" d="M57.748,54.535,55.357,43.279l-11.115.563L41.428,54.957Z" transform="translate(11.463 11.975)" fill="#fccdae"/>
        <path id="Trazado_601453" data-name="Trazado 601453" d="M69.708,40.215c-2.191,8.735-13.057,16.564-19.09,15.128-9.179-2.184-14.83-7.487-13.373-20.593S46.517,6.834,55.894,7.877s20.469,5.8,13.814,32.337" transform="translate(10.242 2.165)" fill="#fccdae"/>
        <path id="Trazado_601454" data-name="Trazado 601454" d="M79.493,16.668C75.276,4.722,64.276,6.221,61.77,3.887a13.543,13.543,0,0,0-6.5-3.773c-2.5-.462-5.4.477-6.566,2.733-1.043,2.015-.649,4.786-2.366,6.269-1.9,1.638-4.779.466-7.285.46a7.934,7.934,0,0,0-6.763,4.047,8.876,8.876,0,0,0-.208,7.955c.522,1.118,1.289,2.237,1.141,3.461-.267,2.183-7.535,2.848-9.649,3.455-5.3,1.518-6.189,12.024-2.534,18.095,4.112,6.83,24.853,15.025,27.468,7.6.752-5.061-9.8-6.654-.826-12.035,5.884-3.53,1.074-10.706,1.641-11.449,2.168-2.838,7.8,1.38,9.991-1.439,1.108-1.425.271-3.47.34-5.274a5.271,5.271,0,0,1,3.37-4.559c2.643-1.024,5.052,5.489,9.619,5.137,2.94-.226,8.867-2.2,6.852-7.905" transform="translate(5.209 0)" fill="#c35754"/>
        <path id="Trazado_601455" data-name="Trazado 601455" d="M58.149,185.7l-.059,0a.563.563,0,0,1-.5-.618,144.942,144.942,0,0,1,3.245-18.946,13.358,13.358,0,0,1,.738-2.375c.987-2.214,2.991-3.779,5.011-5.141l1.056-.7c3.144-2.089,6.395-4.25,7.825-7.589a.562.562,0,1,1,1.033.443c-1.56,3.647-4.954,5.9-8.235,8.081l-1.051.7c-1.752,1.182-3.7,2.615-4.613,4.668a12.445,12.445,0,0,0-.672,2.179,143.836,143.836,0,0,0-3.219,18.8.564.564,0,0,1-.559.5" transform="translate(15.934 41.5)" fill="#77797c"/>
        <path id="Trazado_601456" data-name="Trazado 601456" d="M31.575,159.811a.562.562,0,0,1-.273-1.055,30.883,30.883,0,0,0,6.313-4.629c2.986-2.834,4.6-5.7,4.786-8.522a.562.562,0,0,1,1.122.075c-.209,3.111-1.937,6.226-5.134,9.262a32.11,32.11,0,0,1-6.543,4.8.568.568,0,0,1-.272.07" transform="translate(8.581 40.143)" fill="#77797c"/>
        <path id="Trazado_601457" data-name="Trazado 601457" d="M39.809,219.689h-.017a.564.564,0,0,1-.546-.578c.309-11.011-1.994-22.114-4.221-32.848-2.6-12.543-5.291-25.512-3.831-38.414a.562.562,0,1,1,1.117.125c-1.439,12.725,1.232,25.6,3.816,38.061,2.239,10.8,4.555,21.964,4.244,33.108a.563.563,0,0,1-.562.546" transform="translate(8.517 40.77)" fill="#77797c"/>
        <path id="Trazado_601458" data-name="Trazado 601458" d="M37.606,211.458a.568.568,0,0,1-.121-.013.562.562,0,0,1-.428-.67,15.367,15.367,0,0,0,.3-4.66.563.563,0,0,1,.511-.61.553.553,0,0,1,.609.511,16.456,16.456,0,0,1-.323,5,.563.563,0,0,1-.549.442" transform="translate(10.25 56.861)" fill="#77797c"/>
        <path id="Trazado_601459" data-name="Trazado 601459" d="M50.572,299.424a.538.538,0,0,1-.119-.013.562.562,0,0,1-.432-.668l.9-4.193a2.531,2.531,0,0,1-.783.027,3.812,3.812,0,0,1-2.806-1.941,9.725,9.725,0,0,1-.835-2.708,11.655,11.655,0,0,0-.5-1.927c-.139-.354-.313-.695-.486-1.037a6.976,6.976,0,0,1-.821-2.2,2.97,2.97,0,0,1,.657-2.269,2.571,2.571,0,0,1-1.14-1.612,2.643,2.643,0,0,1,1.228-2.728c-2.686-6.262-5.107-12.72-7.2-19.2a70.612,70.612,0,0,1-3.49-15.158c-.541-5.932.184-11.9.885-17.676l1.683-13.866a.562.562,0,1,1,1.116.135l-1.683,13.866c-.693,5.716-1.411,11.626-.881,17.438a69.645,69.645,0,0,0,3.441,14.916c2.136,6.623,4.618,13.221,7.377,19.611a.564.564,0,0,1-.364.765,1.511,1.511,0,0,0-1.015,1.67,1.529,1.529,0,0,0,1.281,1.127,1.8,1.8,0,0,1,.462,0,.562.562,0,0,1,.009,1.115,2.062,2.062,0,0,1-.407.02.879.879,0,0,0-.386.243,1.837,1.837,0,0,0-.463,1.454,6.073,6.073,0,0,0,.71,1.849c.19.374.379.749.531,1.138a12.619,12.619,0,0,1,.559,2.112,8.773,8.773,0,0,0,.725,2.4,2.721,2.721,0,0,0,1.941,1.352A1.126,1.126,0,0,0,51.3,293.1a.562.562,0,0,1,.974.486l-1.155,5.39a.563.563,0,0,1-.549.444" transform="translate(9.561 58.591)" fill="#77797c"/>
        <path id="Trazado_601460" data-name="Trazado 601460" d="M40.271,270.264a.562.562,0,0,1-.04-1.122,11.861,11.861,0,0,0,5.015-2.058c1.9-1.126,3.849-2.293,6.129-2.182a.562.562,0,0,1-.054,1.124c-1.951-.1-3.668.937-5.5,2.025a12.835,12.835,0,0,1-5.509,2.212h-.041" transform="translate(10.987 73.294)" fill="#77797c"/>
        <path id="Trazado_601461" data-name="Trazado 601461" d="M43.908,279.729a.562.562,0,0,1-.268-1.057l9.089-4.9a.563.563,0,1,1,.534.991l-9.087,4.9a.563.563,0,0,1-.267.068" transform="translate(11.993 75.733)" fill="#77797c"/>
        <path id="Trazado_601462" data-name="Trazado 601462" d="M42.734,273.314a.562.562,0,0,1-.115-1.112l4.1-.864a.562.562,0,1,1,.232,1.1l-4.1.864a.6.6,0,0,1-.116.011" transform="translate(11.669 75.074)" fill="#77797c"/>
        <path id="Trazado_601463" data-name="Trazado 601463" d="M55.942,276.6H55.91a.562.562,0,0,1-.53-.592,3.734,3.734,0,0,1,1.058-2.1,2.64,2.64,0,0,0,.8-1.489c-.008-.646-.617-1.125-1.323-1.68a3.9,3.9,0,0,1-1.785-2.367,3.745,3.745,0,0,1,.317-1.8c.047-.132.094-.262.137-.392a5.31,5.31,0,0,0-.051-3.326l-1.293-.049a.56.56,0,0,1-.541-.582.575.575,0,0,1,.581-.541l1.665.061a.561.561,0,0,1,.5.34,6.433,6.433,0,0,1,.214,4.439c-.046.143-.1.286-.148.429a2.854,2.854,0,0,0-.262,1.264c.088.631.709,1.12,1.366,1.637a2.784,2.784,0,0,1,.7,4.763,2.864,2.864,0,0,0-.808,1.45.561.561,0,0,1-.56.53" transform="translate(14.58 72.405)" fill="#77797c"/>
        <path id="Trazado_601464" data-name="Trazado 601464" d="M60.552,272.784a7.076,7.076,0,0,1-4.364-1.505.562.562,0,1,1,.7-.881,5.916,5.916,0,0,0,4.7,1.167.562.562,0,1,1,.207,1.106,6.79,6.79,0,0,1-1.245.114" transform="translate(15.488 74.783)" fill="#77797c"/>
        <path id="Trazado_601465" data-name="Trazado 601465" d="M61.913,267.286a.566.566,0,0,1-.165-.024l-6.182-1.887a.562.562,0,0,1,.033-1.084,18.1,18.1,0,0,1,6.343-.38.563.563,0,0,1,.493.624.548.548,0,0,1-.624.493,17,17,0,0,0-3.639-.033l3.905,1.192a.562.562,0,0,1-.165,1.1" transform="translate(15.265 72.988)" fill="#77797c"/>
        <path id="Trazado_601466" data-name="Trazado 601466" d="M54.78,289.51a.564.564,0,0,1-.548-.691A336.16,336.16,0,0,1,68.438,243.08l.23-.587a43.26,43.26,0,0,0,2.963-9.741,40.914,40.914,0,0,0-.146-9.441,516.079,516.079,0,0,0-9.321-60.048.562.562,0,1,1,1.1-.239A517.274,517.274,0,0,1,72.605,223.2a41.882,41.882,0,0,1,.14,9.7,44.154,44.154,0,0,1-3.031,10l-.229.585a334.888,334.888,0,0,0-14.16,45.587.561.561,0,0,1-.546.434" transform="translate(15.001 44.985)" fill="#77797c"/>
        <path id="Trazado_601467" data-name="Trazado 601467" d="M50,272.167a.562.562,0,0,1-.322-1.024,23.227,23.227,0,0,1,5.195-2.716.562.562,0,1,1,.391,1.055,22.13,22.13,0,0,0-4.943,2.584.56.56,0,0,1-.32.1" transform="translate(13.68 74.262)" fill="#77797c"/>
        <path id="Trazado_601468" data-name="Trazado 601468" d="M13.88,95.077a.586.586,0,0,1-.174-.027,44.121,44.121,0,0,0-7.912-1.787.562.562,0,1,1,.144-1.115,45.071,45.071,0,0,1,8.115,1.832.562.562,0,0,1-.174,1.1" transform="translate(1.468 25.495)" fill="#808360"/>
        <path id="Trazado_601469" data-name="Trazado 601469" d="M1.792,93.876A.562.562,0,0,1,1.554,92.8c.033-.015,3.3-1.378,4.623-.968l5.584-.825a.563.563,0,0,1,.165,1.113l-5.736.846a.569.569,0,0,1-.37-.074c-.439-.183-2.8.469-3.792.927a.557.557,0,0,1-.236.052" transform="translate(0.34 25.18)" fill="#808360"/>
        <path id="Trazado_601470" data-name="Trazado 601470" d="M50.434,100.076l-.052,0c-5.334-.5-10.309-1.365-12.584-6.42-1.507-3.347-2.525-11.311-2.1-16.388a.562.562,0,0,1,1.121.094c-.416,4.927.555,12.621,2,15.832,2.026,4.5,6.673,5.3,11.663,5.762a.562.562,0,0,1-.051,1.122" transform="translate(9.851 21.236)" fill="#808360"/>
        <path id="Trazado_601471" data-name="Trazado 601471" d="M69.045,97.633a.5.5,0,0,1-.075-.005,25.464,25.464,0,0,1-7.418-2.423l-.9-.4a1.243,1.243,0,0,1-.716-1.422,1.263,1.263,0,0,1,1.252-.974l9.559.243a.564.564,0,0,1,.548.577.545.545,0,0,1-.577.548l-9.559-.243a.112.112,0,0,0-.126.1.117.117,0,0,0,.075.147l.91.407a24.525,24.525,0,0,0,7.106,2.334.562.562,0,0,1-.075,1.12" transform="translate(16.574 25.567)" fill="#808360"/>
        <path id="Trazado_601472" data-name="Trazado 601472" d="M52.425,142.153c-2.038,0-4.1-.061-6.151-.211A73.6,73.6,0,0,1,30.051,138.9a.562.562,0,0,1,.331-1.075,72.49,72.49,0,0,0,15.974,3,120.948,120.948,0,0,0,17.694-.313c7.548-.575,16.126-1.595,22.41-6.456a.562.562,0,0,1,.688.89c-6.529,5.052-15.3,6.1-23.012,6.689-3.582.272-7.592.522-11.71.522" transform="translate(8.205 37.059)" fill="#808360"/>
        <path id="Trazado_601473" data-name="Trazado 601473" d="M47.8,139.705a108.428,108.428,0,0,1-11.449-.789l-5.661-.6a.562.562,0,0,1,.119-1.118l5.661.6c7.727.818,17.343,1.836,25.293-1.826a.562.562,0,0,1,.47,1.021A34.318,34.318,0,0,1,47.8,139.705" transform="translate(8.353 37.608)" fill="#808360"/>
        <path id="Trazado_601474" data-name="Trazado 601474" d="M48.391,19.089a.377.377,0,0,1-.054,0l-2.43-.231a.562.562,0,0,1,.107-1.12l1.884.18a12.848,12.848,0,0,1,1.291-4.027.562.562,0,0,1,1,.517,11.7,11.7,0,0,0-1.238,4.176.562.562,0,0,1-.559.507" transform="translate(12.562 3.759)" fill="#a04644"/>
        <path id="Trazado_601475" data-name="Trazado 601475" d="M30.009,28c-.239,0-.477-.005-.711-.013a.561.561,0,0,1-.541-.581.555.555,0,0,1,.581-.543c1.612.052,3.261-.026,4.371-.975,1.047-.894,1.514-2.467,1.432-4.808-.01-.3-.026-.606-.042-.912a10.767,10.767,0,0,1,.52-4.963A5.828,5.828,0,0,1,42.6,12.127a.562.562,0,1,1-.361,1.065,4.728,4.728,0,0,0-5.589,2.468,9.788,9.788,0,0,0-.426,4.453c.017.312.032.62.042.929.1,2.707-.5,4.572-1.826,5.7A6.656,6.656,0,0,1,30.009,28" transform="translate(7.956 3.28)" fill="#a04644"/>
        <path id="Trazado_601476" data-name="Trazado 601476" d="M32.731,40.645a2.227,2.227,0,0,1-1.649-.677.562.562,0,0,1,.826-.762,1.338,1.338,0,0,0,1.674.045,2.535,2.535,0,0,0,.913-1.886,9.006,9.006,0,0,0-.029-1.316,7.071,7.071,0,0,1,.066-2.1,4.005,4.005,0,0,1,4.963-2.82.562.562,0,1,1-.346,1.07,2.884,2.884,0,0,0-3.52,2,6.1,6.1,0,0,0-.041,1.773,9.864,9.864,0,0,1,.028,1.484,3.646,3.646,0,0,1-1.374,2.707,2.582,2.582,0,0,1-1.51.484" transform="translate(8.559 8.566)" fill="#a04644"/>
        <path id="Trazado_601477" data-name="Trazado 601477" d="M70.192,39.032a1.362,1.362,0,0,1-.578-.129l-.046-.019a.578.578,0,0,1-.373.091.563.563,0,0,1-.5-.62.7.7,0,0,1,.351-.54,1.127,1.127,0,0,1,1.034.068.34.34,0,0,0,.357-.074.929.929,0,0,0,.365-.8,3.208,3.208,0,0,0-1.256-1.717,15.318,15.318,0,0,1-4.41-5.435c-.891-2.224-.659-5.288,1.508-6.841a.563.563,0,1,1,.655.915c-1.679,1.2-1.828,3.734-1.118,5.508.774,1.932,2.321,3.414,4.115,5.014a4.176,4.176,0,0,1,1.62,2.4,2.037,2.037,0,0,1-.808,1.855,1.533,1.533,0,0,1-.918.322" transform="translate(17.888 6.339)" fill="#a04644"/>
        <path id="Trazado_601478" data-name="Trazado 601478" d="M60.528,44.591a.563.563,0,0,1-.057-1.122l3.213-.334c.866-.089,1.9-.278,2.195-.951.391-.886-.742-1.966-1.453-2.53-.97-.772-.918-1.291-.447-2.094a6.137,6.137,0,0,0,.345-.65.563.563,0,0,1,1.026.461,7.5,7.5,0,0,1-.4.757,2.428,2.428,0,0,0-.177.336c.017.006.082.093.354.309,2.133,1.7,2.147,3.039,1.782,3.865-.6,1.356-2.357,1.538-3.107,1.618l-3.213.333a.469.469,0,0,1-.059,0" transform="translate(16.592 10.121)" fill="#a04644"/>
        <path id="Trazado_601479" data-name="Trazado 601479" d="M69.651,45.269a.562.562,0,0,1-.426-.929,3.385,3.385,0,0,0-.036-4.286,7.157,7.157,0,0,0-1.1-.931c-.271-.2-.541-.4-.794-.622a3.23,3.23,0,0,1-1.3-2.631.562.562,0,1,1,1.121.094,2.268,2.268,0,0,0,.921,1.688c.232.2.48.384.726.567a7.989,7.989,0,0,1,1.268,1.086,4.5,4.5,0,0,1,.05,5.768.565.565,0,0,1-.426.2" transform="translate(18.257 9.782)" fill="#a04644"/>
        <path id="Trazado_601480" data-name="Trazado 601480" d="M29.167,68.253a.582.582,0,0,1-.115-.01.562.562,0,0,1-.435-.666,15.445,15.445,0,0,0-3.29-12.9.563.563,0,0,1,.857-.73,16.591,16.591,0,0,1,3.533,13.865.561.561,0,0,1-.549.446" transform="translate(6.971 14.871)" fill="#808360"/>
        <path id="Trazado_601481" data-name="Trazado 601481" d="M25.164,78.2a.541.541,0,0,1-.212-.042.562.562,0,0,1-.309-.733,20.194,20.194,0,0,1,5.431-7.586.562.562,0,1,1,.738.848,19.08,19.08,0,0,0-5.127,7.164.562.562,0,0,1-.521.35" transform="translate(6.807 19.286)" fill="#808360"/>
        <path id="Trazado_601482" data-name="Trazado 601482" d="M60.594,69.018a.563.563,0,0,1-.294-.083,22.113,22.113,0,0,1-6.464-6.048.562.562,0,0,1,.918-.649,21.008,21.008,0,0,0,6.135,5.737.562.562,0,0,1-.295,1.042" transform="translate(14.868 17.155)" fill="#808360"/>
        <path id="Trazado_601483" data-name="Trazado 601483" d="M59.182,65.673c-5.416,0-24.712-3.644-28.886-11.766a.562.562,0,1,1,1-.513c4.144,8.067,25.173,11.592,28.615,11.117,2.964-.409,10.051-6.56,10.793-7.769a3.037,3.037,0,0,0,.595-2.412,3.484,3.484,0,0,0-.712-1.118,28.228,28.228,0,0,0-2.478-2.724.562.562,0,1,1,.781-.808,29.071,29.071,0,0,1,2.56,2.814,4.432,4.432,0,0,1,.922,1.5,4.006,4.006,0,0,1-.71,3.337c-.922,1.5-8.19,7.826-11.6,8.3a6.628,6.628,0,0,1-.882.047" transform="translate(8.365 13.703)" fill="#808360"/>
        <path id="Trazado_601484" data-name="Trazado 601484" d="M60.337,31.185a1.426,1.426,0,1,0-1.26-1.574,1.426,1.426,0,0,0,1.26,1.574" transform="translate(16.344 7.842)" fill="#7c6557"/>
        <path id="Trazado_601485" data-name="Trazado 601485" d="M49.131,29.94a1.427,1.427,0,1,0-1.26-1.575,1.427,1.427,0,0,0,1.26,1.575" transform="translate(13.243 7.497)" fill="#7c6557"/>
        <path id="Trazado_601486" data-name="Trazado 601486" d="M54.5,37.423a13,13,0,0,1-1.861-.134.563.563,0,0,1,.162-1.113,11.9,11.9,0,0,0,3.333.01c-.328-1.44-1.168-5.348.239-7.882a.562.562,0,1,1,.983.546c-1.238,2.228-.38,5.97-.1,7.2.112.49.163.714-.083.946a1.072,1.072,0,0,1-.592.258,12.96,12.96,0,0,1-2.081.169" transform="translate(14.433 7.751)" fill="#bc8d81"/>
        <path id="Trazado_601487" data-name="Trazado 601487" d="M52.9,39.318a7.312,7.312,0,0,1-5.6-2.592.562.562,0,1,1,.867-.715A6.24,6.24,0,0,0,54.728,37.9a.562.562,0,0,1,.355,1.067,6.938,6.938,0,0,1-2.184.349" transform="translate(13.051 9.907)" fill="#bc8d81"/>
        <path id="Trazado_601488" data-name="Trazado 601488" d="M64.025,28.324a.563.563,0,0,1-.5-.3,2.851,2.851,0,0,0-1.86-1.509,2.969,2.969,0,0,0-2.412.5.562.562,0,1,1-.652-.915,4.107,4.107,0,0,1,3.327-.674,3.967,3.967,0,0,1,2.6,2.085.564.564,0,0,1-.24.758.574.574,0,0,1-.259.063" transform="translate(16.15 7.003)" fill="#7c6557"/>
        <path id="Trazado_601489" data-name="Trazado 601489" d="M46.621,26.306a.562.562,0,0,1-.43-.924,5.461,5.461,0,0,1,7.651-.807.563.563,0,1,1-.677.9,4.361,4.361,0,0,0-6.113.632.562.562,0,0,1-.432.2" transform="translate(12.744 6.468)" fill="#7c6557"/>
        <path id="Trazado_601490" data-name="Trazado 601490" d="M54.147,54.409a.561.561,0,0,1-.56-.544,2.541,2.541,0,0,1,1.554-2.287,6.381,6.381,0,0,1,2.431-.479.968.968,0,0,1,.88.338.729.729,0,0,1-.142.983.652.652,0,0,1-.9-.046.526.526,0,0,1-.092-.13,4.633,4.633,0,0,0-1.694.347,1.493,1.493,0,0,0-.917,1.236.559.559,0,0,1-.543.58h-.019" transform="translate(14.827 14.138)" fill="#bc8d81"/>
        <path id="Trazado_601491" data-name="Trazado 601491" d="M51.814,56a.564.564,0,0,1-.549-.443,1.314,1.314,0,0,0-1.08-.849,5.1,5.1,0,0,0-1.8.13,47.267,47.267,0,0,1-9.2.807.562.562,0,0,1-.555-.569.536.536,0,0,1,.568-.555,45.775,45.775,0,0,0,8.879-.769,6.3,6.3,0,0,1,2.3-.149,2.408,2.408,0,0,1,1.979,1.716.561.561,0,0,1-.429.669.548.548,0,0,1-.12.013" transform="translate(10.69 14.815)" fill="#bc8d81"/>
        <path id="Trazado_601492" data-name="Trazado 601492" d="M17.6,99.394a1.793,1.793,0,0,0,1.175-2.17,2.4,2.4,0,0,0-1.4-1.883c-1.624-.465-13.922,3.364-14.5,3.829s.349,2.784,1.972,3.365c1.289.46,9.44-2.073,12.755-3.141" transform="translate(0.747 26.369)" fill="#808360"/>
      </g>
    </g>
    <g id="Grupo_870615" data-name="Grupo 870615" transform="translate(390 10995.031)">
      <path id="Sustracci칩n_7" data-name="Sustracci칩n 7" d="M123.091,50.022H0V6.094H15.76L18.868,0H144.293V40.927H126.12l-3.028,9.095Z" transform="translate(0 0)" fill="#03386e"/>
      <path id="Trazado_608254" data-name="Trazado 608254" d="M38.119,15.51H33.753L32.923,18H30.275l4.5-12.086h2.308L41.605,18H38.957Zm-3.694-2.017h3.021L35.928,8.969ZM45.307,6.811V9.019h1.536v1.76H45.307v4.482a1.07,1.07,0,0,0,.191.714.959.959,0,0,0,.73.216,3.826,3.826,0,0,0,.706-.058V17.95a4.939,4.939,0,0,1-1.453.216,2.29,2.29,0,0,1-2.573-2.548V10.778H41.6V9.019h1.312V6.811Zm7.919,4.458a6.517,6.517,0,0,0-.863-.066,1.757,1.757,0,0,0-1.785.921V18h-2.4V9.019h2.266l.066,1.071a2.223,2.223,0,0,1,2-1.237,2.514,2.514,0,0,1,.747.108ZM59.336,18a2.664,2.664,0,0,1-.241-.805,2.9,2.9,0,0,1-2.266.971,3.189,3.189,0,0,1-2.187-.764,2.456,2.456,0,0,1-.867-1.926,2.538,2.538,0,0,1,1.058-2.191,5.222,5.222,0,0,1,3.059-.772H59V12a1.48,1.48,0,0,0-.32-1,1.257,1.257,0,0,0-1.009-.374,1.429,1.429,0,0,0-.95.291.987.987,0,0,0-.344.8h-2.4a2.41,2.41,0,0,1,.481-1.444A3.182,3.182,0,0,1,55.816,9.23a4.961,4.961,0,0,1,1.976-.378,3.92,3.92,0,0,1,2.635.834,2.918,2.918,0,0,1,.975,2.345v3.893a4.294,4.294,0,0,0,.357,1.934V18Zm-1.984-1.668a2.066,2.066,0,0,0,.979-.237A1.554,1.554,0,0,0,59,15.46V13.916h-.9q-1.8,0-1.917,1.245l-.008.141a.96.96,0,0,0,.315.739A1.225,1.225,0,0,0,57.352,16.332Zm10.027,1.834a4.409,4.409,0,0,1-3.217-1.212,4.308,4.308,0,0,1-1.241-3.229v-.232a5.426,5.426,0,0,1,.523-2.42,3.838,3.838,0,0,1,1.482-1.644,4.159,4.159,0,0,1,2.187-.577,3.727,3.727,0,0,1,2.9,1.162,4.722,4.722,0,0,1,1.058,3.3v.979H65.354a2.229,2.229,0,0,0,.7,1.411,2.12,2.12,0,0,0,1.482.531,2.589,2.589,0,0,0,2.167-1l1.179,1.32a3.6,3.6,0,0,1-1.461,1.191A4.793,4.793,0,0,1,67.379,18.166Zm-.274-7.379a1.5,1.5,0,0,0-1.158.484,2.5,2.5,0,0,0-.569,1.384h3.337v-.192a1.786,1.786,0,0,0-.432-1.238A1.547,1.547,0,0,0,67.105,10.787Zm10.376.481a6.517,6.517,0,0,0-.863-.066,1.757,1.757,0,0,0-1.785.921V18h-2.4V9.019H74.7l.066,1.071a2.223,2.223,0,0,1,2-1.237,2.514,2.514,0,0,1,.747.108Z" transform="translate(18.999 13.642)" fill="#fff"/>
      <path id="Trazado_214008" data-name="Trazado 214008" d="M-.808,1.311H26.244V7.625H-4Z" transform="translate(118.049 42.396)" fill="#7f8a9c"/>
    </g>
  </g>
</svg>
