<svg xmlns="http://www.w3.org/2000/svg" xmlns:xlink="http://www.w3.org/1999/xlink" width="144.293" height="376.741" viewBox="0 0 144.293 376.741">
  <defs>
    <clipPath id="clip-path">
      <rect id="Rect치ngulo_300805" data-name="Rect치ngulo 300805" width="130.851" height="376.741" fill="none"/>
    </clipPath>
  </defs>
  <g id="Grupo_886477" data-name="Grupo 886477" transform="translate(-631.901 -10860.693)">
    <g id="Grupo_886085" data-name="Grupo 886085" transform="translate(638.622 10860.693)">
      <g id="Grupo_886084" data-name="Grupo 886084" clip-path="url(#clip-path)">
        <path id="Trazado_601381" data-name="Trazado 601381" d="M65.122,263.821c3.628,1.452,9.432-5.078,8.707-9.432l3.627,5.8c.871-.557,2.619,5.359,1.067,10.6-1.081,3.647-5.1,8.31-6.5,4.643-1.485-3.9-6.9-11.62-6.9-11.62" transform="translate(17.578 68.665)" fill="#a7aabd"/>
        <path id="Trazado_601382" data-name="Trazado 601382" d="M44.015,270.539s-7.255,4.353-12.333-.725l-1.248,12.434,12.13-5.905Z" transform="translate(8.215 72.829)" fill="#a7aabd"/>
        <path id="Trazado_601383" data-name="Trazado 601383" d="M44.284,164.1l-.725-31.2,35.549-3.627s6.53,13.059,0,35.549c-7.557,26.032-34.824,143.651-34.824,143.651s-7.023,6.356-14.078-1.62C25.447,301.475,44.284,164.1,44.284,164.1" transform="translate(7.945 34.894)" fill="#443f4b"/>
        <path id="Trazado_601384" data-name="Trazado 601384" d="M20.639,128.7s-3.849,25.482-2.9,63.119c.2,8.065,1.4,36.025,5.815,41.474,14.429,17.825,49.039,66.442,51.878,67.578,3.628,1.452,11.956-8.206,11.23-12.56S47.482,209.96,47.482,209.96l2.9-45.707-.725-31.2Z" transform="translate(4.747 34.74)" fill="#443f4b"/>
        <path id="Trazado_601385" data-name="Trazado 601385" d="M71.7,130.341s2.974-5.106,5.914-6.576,6.125,2.939,5.635,5.144,1.879,1.959-3.715,6.124Z" transform="translate(19.354 33.328)" fill="#e7e9ff"/>
        <path id="Trazado_601386" data-name="Trazado 601386" d="M11.312,135.237a11.434,11.434,0,0,1-1.629-4.658c-.085-2.2,5.047-6.2,9.462-.034Z" transform="translate(2.613 34.35)" fill="#e7e9ff"/>
        <path id="Trazado_601387" data-name="Trazado 601387" d="M30.273,282.294v9.776l2.9,1.452S32.45,298.6,40.43,298.6c4.446,0,8.216-.9,9.3-3.328.865-1.93.034-4.827-3.5-9.005a23.626,23.626,0,0,1-2.175-9.432c0-2.936-2.187-3.932-6.43-3.269a8.8,8.8,0,0,0-7.355,8.728" transform="translate(8.171 73.788)" fill="#8f552f"/>
        <path id="Trazado_601388" data-name="Trazado 601388" d="M49.735,291.3c-1.088,2.428-4.859,3.328-9.3,3.328-7.981,0-7.255-5.078-7.255-5.078l-2.9-1.452s0,3.628.726,4.353l1.45,1.451s0,5.078,7.255,5.078c10.883,0,10.03-7.682,10.03-7.682" transform="translate(8.171 77.763)" fill="#422100"/>
        <path id="Trazado_601389" data-name="Trazado 601389" d="M71.172,272.234c-2.994,1.248-1.452,3.627,2.177,9.432s2.9,15.235,2.9,18.137c0,1.452,2,3.083,4.353,2.993s5.078-1.9,6.53-7.346c2.9-10.882.725-18.137.725-22.49s1.756-8.7-3.322-10.879c-3.316-1.421-5.07-4.093-7.186-4.264a1.246,1.246,0,0,0-1.308,1.56c.824,3.186,1.732,10.109-4.87,12.859" transform="translate(18.783 69.589)" fill="#8f552f"/>
        <path id="Trazado_601390" data-name="Trazado 601390" d="M78.262,301.508c2.358-.09,5.078-1.9,6.53-7.345,2.9-10.883.725-18.138.725-22.492,0-3.214.107-5.435-.9-8.394-.358-1.049,3.384-.935,3.384.512,0,.725,3.377,24.688.42,31.193-3.627,7.98-10.157,6.526-10.157,6.526" transform="translate(21.125 70.876)" fill="#422100"/>
        <path id="Trazado_601391" data-name="Trazado 601391" d="M53.68,39.009c-11.608,3.628-28.3,5.8-34.1,15.235S0,95.293,0,105.45a93.108,93.108,0,0,0,1.208,13.212c.639,4.432,9.132,36.137,11.086,35.737.963-.2,2.1-1.886,3.221-2.253,2.526-.828,4.662.112,6.243,2.219L20.669,109.02l7.98-24.667s-1.116,32.855-3.113,48.166c-.63,4.832,2.053,10.738,2.053,10.738s-2.457,8.373-1.843,9.293c0,0,33.735,14.148,62.031,1.815l.211-6.813s4.106-2.617,4.868-4.07c6.8-12.957,6.356-47.266,6.893-54.776,0,0,10.154,23.937,12.332,26.117.6.6-8.736,16.66-10.517,18.678-2.274,2.579-1.82,5.426-3.02,8.329-.546,1.325-3.215,3.142-3.3,4.409-.21,3.279,6.784,4.83,6.519,9.447,1.873-1.559,5.818-3.421,7.1-5.252,1.2-1.716,6.356-6.451,7.82-7.607,2.01-1.587,8.816-10.892,10.7-13.457,3.152-4.286,3.814-13.137,3.312-18.719-1.591-17.7-7.01-44.436-20.794-54.593S85.24,42.274,85.24,42.274Z" transform="translate(0 10.529)" fill="#fdc179"/>
        <path id="Trazado_601392" data-name="Trazado 601392" d="M40.592,40.557c-.913.467,2.177,4.475,2.177,8.707,0,.725-2.177,6.529-.725,7.98l2.9-2.9S56.554,60.87,59.455,61.6s12.333-1.452,14.51-7.255c0,0,1.479-.349,3.627,4.352,0,0,3.222-4.182-.762-14.572-4.282-11.173-24.936-9.352-36.238-3.565" transform="translate(10.911 9.707)" fill="#e7e9ff"/>
        <path id="Trazado_601393" data-name="Trazado 601393" d="M47.037,41.89s1.2,6.07,4.828,8.972c2.267,1.812,5.078,3.627,5.078,3.627a51.732,51.732,0,0,0,7.981-5.078c2.335-1.868,4.352-7.255,4.352-7.255l-.725-9.432H48.963Z" transform="translate(12.696 8.833)" fill="#c27d6d"/>
        <path id="Trazado_601394" data-name="Trazado 601394" d="M40.3,17.917A80.056,80.056,0,0,0,41.62,32.29c1.924,10.092,12.586,20.881,17.273,20.881,13.165,0,19.477-24.838,19.477-33.652S75.715,1.893,57.122,1.893,40.3,17.917,40.3,17.917" transform="translate(10.866 0.511)" fill="#c27d6d"/>
        <path id="Trazado_601395" data-name="Trazado 601395" d="M79.171,78.308a.637.637,0,0,1-.084-.006.559.559,0,0,1-.47-.636A72.088,72.088,0,0,1,86.3,54.429a.56.56,0,1,1,.988.527,70.943,70.943,0,0,0-7.569,22.876.56.56,0,0,1-.552.476" transform="translate(21.219 14.612)" fill="#bf945d"/>
        <path id="Trazado_601396" data-name="Trazado 601396" d="M24.826,79.493a.431.431,0,0,1-.07-.005.559.559,0,0,1-.485-.624,36.017,36.017,0,0,0-.831-14.739,87.269,87.269,0,0,0-3.854-12.333.559.559,0,1,1,1.039-.413,88.088,88.088,0,0,1,3.9,12.492A36.97,36.97,0,0,1,25.381,79a.56.56,0,0,1-.555.49" transform="translate(5.276 13.773)" fill="#bf945d"/>
        <path id="Trazado_601397" data-name="Trazado 601397" d="M12.863,94.588a.558.558,0,0,1-.215-.043,7.7,7.7,0,0,0-5.7-.058.56.56,0,0,1-.406-1.043,8.847,8.847,0,0,1,6.531.069.559.559,0,0,1-.215,1.076" transform="translate(1.671 25.063)" fill="#bf945d"/>
        <path id="Trazado_601398" data-name="Trazado 601398" d="M91.669,98.95a.558.558,0,0,1-.293-1.035,11.236,11.236,0,0,1,8.384-1.372.559.559,0,1,1-.253,1.088,10.129,10.129,0,0,0-7.546,1.236.554.554,0,0,1-.292.083" transform="translate(24.592 25.982)" fill="#bf945d"/>
        <path id="Trazado_601399" data-name="Trazado 601399" d="M57.049,51.563a.7.7,0,0,1-.1-.009,11.192,11.192,0,0,1-4.416-1.877c-.188-.135-.376-.277-.565-.419a4.8,4.8,0,0,0-2.252-1.178c-1.553-.152-2.807,1.4-3.739,2.762a.56.56,0,0,1-.924-.631c1.106-1.623,2.645-3.458,4.774-3.243a5.668,5.668,0,0,1,2.817,1.4c.18.136.358.272.54.4a10.07,10.07,0,0,0,3.97,1.688.559.559,0,0,1-.1,1.109" transform="translate(12.134 12.673)" fill="#a0a2ad"/>
        <path id="Trazado_601400" data-name="Trazado 601400" d="M56.187,51.806a.559.559,0,0,1-.065-1.115,7.857,7.857,0,0,0,3.67-1.427c.335-.241.667-.512,1-.785,1.205-.988,2.575-2.109,4.262-1.871a5.634,5.634,0,0,1,2.169.946,4.362,4.362,0,0,1,2.306,2.47c.109.237.239.517.406.856a.559.559,0,1,1-1,.5c-.174-.349-.307-.638-.42-.883-.485-1.044-.536-1.153-1.882-1.991a4.734,4.734,0,0,0-1.733-.786c-1.2-.164-2.269.7-3.4,1.627-.352.288-.7.574-1.055.828A8.985,8.985,0,0,1,56.253,51.8a.594.594,0,0,1-.066,0" transform="translate(15.015 12.572)" fill="#a0a2ad"/>
        <path id="Trazado_601401" data-name="Trazado 601401" d="M56.072,57.327a.559.559,0,0,1-.558-.517l-.349-4.628a.557.557,0,0,1,.516-.6.563.563,0,0,1,.6.514l.351,4.628a.56.56,0,0,1-.516.6h-.043" transform="translate(14.89 13.923)" fill="#a0a2ad"/>
        <path id="Trazado_601402" data-name="Trazado 601402" d="M17.9,123.1a.551.551,0,0,1-.184-.032,14.225,14.225,0,0,0-9.122-.057.56.56,0,0,1-.354-1.062,15.352,15.352,0,0,1,9.844.063A.559.559,0,0,1,17.9,123.1" transform="translate(2.12 32.705)" fill="#bf945d"/>
        <path id="Trazado_601403" data-name="Trazado 601403" d="M86.55,126.139a.56.56,0,0,1-.5-.3,10.1,10.1,0,0,0-6.017-4.885.56.56,0,1,1,.309-1.076,11.1,11.1,0,0,1,6.7,5.437.56.56,0,0,1-.232.757.554.554,0,0,1-.262.065" transform="translate(21.495 32.352)" fill="#bf945d"/>
        <path id="Trazado_601404" data-name="Trazado 601404" d="M46.3,126.6c-7.043,0-15.074-.878-21.957-4.793a.559.559,0,1,1,.552-.971c8.244,4.689,18.282,4.884,26.106,4.53,2.193-.1,4.389-.246,6.586-.395,6.784-.457,13.8-.93,20.641.1a.56.56,0,0,1-.166,1.107c-6.724-1.012-13.676-.542-20.4-.09-2.2.149-4.409.3-6.61.4-1.511.069-3.1.117-4.752.117" transform="translate(6.495 32.597)" fill="#bf945d"/>
        <path id="Trazado_601405" data-name="Trazado 601405" d="M42.913,48.567a.56.56,0,0,1-.547-.447,49.678,49.678,0,0,0-2.285-7.839.559.559,0,1,1,1.044-.4A50.782,50.782,0,0,1,43.462,47.9a.56.56,0,0,1-.436.66.578.578,0,0,1-.113.011" transform="translate(10.809 10.668)" fill="#bf945d"/>
        <path id="Trazado_601406" data-name="Trazado 601406" d="M59.406,59.337a.554.554,0,0,1-.163-.024c-.737-.225-1.473-.448-2.2-.7A36.484,36.484,0,0,1,44.36,51.146a.559.559,0,0,1,.752-.828A35.359,35.359,0,0,0,57.4,57.558c.718.244,1.443.465,2.168.684a.559.559,0,0,1-.163,1.095" transform="translate(11.924 13.543)" fill="#bf945d"/>
        <path id="Trazado_601407" data-name="Trazado 601407" d="M56.439,59.168c-.083,0-.164,0-.246,0a.558.558,0,0,1-.54-.578.53.53,0,0,1,.577-.54,13.843,13.843,0,0,0,5.511-1.436,22.2,22.2,0,0,0,4.429-2.239,7.067,7.067,0,0,0,2.808-3.681.559.559,0,0,1,1.078.3,8.163,8.163,0,0,1-3.237,4.294,23.033,23.033,0,0,1-4.65,2.362,15.222,15.222,0,0,1-5.73,1.524" transform="translate(15.022 13.572)" fill="#bf945d"/>
        <path id="Trazado_601408" data-name="Trazado 601408" d="M41.712,52.25a.56.56,0,0,1-.519-.352,56.739,56.739,0,0,1-3.044-10.441.559.559,0,0,1,1.1-.208,55.67,55.67,0,0,0,2.984,10.234.559.559,0,0,1-.519.767" transform="translate(10.295 11.011)" fill="#bf945d"/>
        <path id="Trazado_601409" data-name="Trazado 601409" d="M58.822,61.788a8.876,8.876,0,0,1-3.311-.644,16.98,16.98,0,0,1-2.893-1.633l-9.963-6.526a.559.559,0,1,1,.612-.936l9.964,6.526a16.045,16.045,0,0,0,2.7,1.533,7.708,7.708,0,0,0,3.026.56c2.527-.046,5.929-1.581,8.413-2.7l.422-.189a22.172,22.172,0,0,0,4.129-2.226,7.184,7.184,0,0,0,2.671-3.487.56.56,0,1,1,1.069.33,8.3,8.3,0,0,1-3.073,4.055A23,23,0,0,1,68.251,58.8l-.42.189c-2.573,1.161-6.1,2.749-8.853,2.8h-.156" transform="translate(11.445 13.946)" fill="#bf945d"/>
        <path id="Trazado_601410" data-name="Trazado 601410" d="M56.8,223.108a.561.561,0,0,1-.5-.3c-1.787-3.5-3.367-6.7-4.882-9.762-3.346-6.771-6.507-13.165-10.943-20.81a.559.559,0,0,1,.968-.561c4.455,7.677,7.623,14.089,10.978,20.875,1.514,3.064,3.09,6.254,4.875,9.749a.561.561,0,0,1-.244.753.55.55,0,0,1-.254.061" transform="translate(10.905 51.661)" fill="#6f6b74"/>
        <path id="Trazado_601411" data-name="Trazado 601411" d="M40.39,200.089a.535.535,0,0,1-.154-.022.558.558,0,0,1-.385-.691c3.768-13.262,4.91-33.711,4.07-46.22a.559.559,0,1,1,1.116-.076c.846,12.6-.309,33.219-4.111,46.6a.558.558,0,0,1-.537.406" transform="translate(10.751 41.179)" fill="#6f6b74"/>
        <path id="Trazado_601412" data-name="Trazado 601412" d="M45.236,153.681a22.809,22.809,0,0,1-8.6-1.7l-.733-.307c-1.816-.772-3.7-1.57-5.336-.9a.559.559,0,1,1-.423-1.035c2.074-.846,4.263.084,6.2.905l.719.3a21.727,21.727,0,0,0,8.578,1.608.52.52,0,0,1,.57.549.559.559,0,0,1-.547.57c-.14,0-.281,0-.42,0" transform="translate(8.041 40.329)" fill="#6f6b74"/>
        <path id="Trazado_601413" data-name="Trazado 601413" d="M65.891,152.469a.559.559,0,0,1-.329-1.011l4.426-3.219a.559.559,0,1,1,.657.9l-4.426,3.219a.558.558,0,0,1-.328.107" transform="translate(17.634 39.984)" fill="#6f6b74"/>
        <path id="Trazado_601414" data-name="Trazado 601414" d="M48.621,245.545a.558.558,0,0,1-.419-.188,97.4,97.4,0,0,1-8.369-11.9c-1.619-2.551-3.149-4.962-4.645-7.047a.56.56,0,1,1,.909-.653c1.515,2.112,3.053,4.535,4.681,7.1a96.588,96.588,0,0,0,8.262,11.758.559.559,0,0,1-.048.789.553.553,0,0,1-.371.141" transform="translate(9.469 60.873)" fill="#6f6b74"/>
        <path id="Trazado_601415" data-name="Trazado 601415" d="M74.423,282.549a.56.56,0,0,1-.547-.447,5.878,5.878,0,0,1,2.2-5.786.559.559,0,1,1,.671.9,4.8,4.8,0,0,0-1.772,4.666.56.56,0,0,1-.436.66.58.58,0,0,1-.113.011" transform="translate(19.91 74.553)" fill="#673c1b"/>
        <path id="Trazado_601416" data-name="Trazado 601416" d="M73.875,279.7a.561.561,0,0,1-.54-.414,7.282,7.282,0,0,1-.359-2.9A2.864,2.864,0,0,1,75,273.926a.559.559,0,0,1,.249,1.091,1.773,1.773,0,0,0-1.166,1.529A6.325,6.325,0,0,0,74.416,279a.56.56,0,0,1-.541.7" transform="translate(19.687 73.934)" fill="#673c1b"/>
        <path id="Trazado_601417" data-name="Trazado 601417" d="M72.349,277.109a.56.56,0,0,1-.56-.554,1.368,1.368,0,0,0-.034-.3c-.284.043-.574.091-.819.133a11.1,11.1,0,0,1-1.576.2,3.2,3.2,0,0,1-2.366-.874,1.994,1.994,0,0,1-.491-1.6,1.525,1.525,0,0,1,.72-1.125,2.444,2.444,0,0,1,2.083.041,7.327,7.327,0,0,1,2.789,1.62,3.548,3.548,0,0,1,4.042-4.056.559.559,0,1,1-.166,1.1,2.443,2.443,0,0,0-2.474,3.646.559.559,0,0,1-.6.829l-.023,0a2.49,2.49,0,0,1,.032.382.559.559,0,0,1-.552.565Zm-4.262-3.236a.565.565,0,0,0-.292.069.433.433,0,0,0-.185.323.875.875,0,0,0,.2.684,2.155,2.155,0,0,0,1.57.516,10.756,10.756,0,0,0,1.365-.184l.339-.057a6.835,6.835,0,0,0-2.164-1.149,2.7,2.7,0,0,0-.837-.2" transform="translate(17.945 73.026)" fill="#673c1b"/>
        <path id="Trazado_601418" data-name="Trazado 601418" d="M70.228,279.8a1.1,1.1,0,0,1-.13-.006,1.456,1.456,0,0,1-1.093-.657,2.771,2.771,0,0,1-.244-2.229,5.642,5.642,0,0,1,2.348-3.081.559.559,0,0,1,.6.946l-.053.036a.505.505,0,0,1,.132.038.558.558,0,0,1,.3.733,2.994,2.994,0,0,0-.1,1.289c.014.265.027.532.015.795a2.52,2.52,0,0,1-.776,1.749,1.479,1.479,0,0,1-.989.387m.745-4.442a4.5,4.5,0,0,0-1.143,1.877,1.667,1.667,0,0,0,.1,1.276.327.327,0,0,0,.263.169.361.361,0,0,0,.284-.108,1.438,1.438,0,0,0,.4-.958c.01-.226,0-.457-.015-.687a4.392,4.392,0,0,1,.113-1.57" transform="translate(18.526 73.89)" fill="#673c1b"/>
        <path id="Trazado_601419" data-name="Trazado 601419" d="M74.8,288.42h-.011a.558.558,0,0,1-.547-.571c.043-2.006,1.68-3.732,4.625-4.885a63.217,63.217,0,0,0-1.215-9.231c-.653-2.932-1.714-4.6-3.247-5.091a.559.559,0,1,1,.343-1.064c1.943.625,3.251,2.56,4,5.913a65.085,65.085,0,0,1,1.265,9.819.557.557,0,0,1-.368.559c-1.579.57-4.234,1.846-4.281,4.005a.559.559,0,0,1-.559.547" transform="translate(19.979 72.217)" fill="#673c1b"/>
        <path id="Trazado_601420" data-name="Trazado 601420" d="M78.42,300.995a.559.559,0,0,1-.394-.956c3.327-3.293,3.646-8.554,3.689-13.663a80.534,80.534,0,0,0-.831-10.961,81.011,81.011,0,0,1-.841-11.108.56.56,0,0,1,.559-.555h.005a.56.56,0,0,1,.555.564,80.518,80.518,0,0,0,.831,10.961,81.224,81.224,0,0,1,.841,11.108c-.044,5.343-.392,10.858-4.021,14.449a.563.563,0,0,1-.394.161" transform="translate(21.016 71.192)" fill="#673c1b"/>
        <path id="Trazado_601421" data-name="Trazado 601421" d="M36.6,288.685a.56.56,0,0,1-.517-.775,8.231,8.231,0,0,1,3.735-4.078,26.627,26.627,0,0,0-5.66-8.529.559.559,0,0,1,.794-.787,27.747,27.747,0,0,1,6.1,9.389.558.558,0,0,1-.295.715,7.088,7.088,0,0,0-3.642,3.721.558.558,0,0,1-.516.344" transform="translate(9.177 74.053)" fill="#673c1b"/>
        <path id="Trazado_601422" data-name="Trazado 601422" d="M40.109,282.067a.559.559,0,0,1-.538-.409,31.029,31.029,0,0,1-1.116-7.1.559.559,0,1,1,1.116-.046,30,30,0,0,0,1.077,6.847.558.558,0,0,1-.538.71" transform="translate(10.379 73.951)" fill="#673c1b"/>
        <path id="Trazado_601423" data-name="Trazado 601423" d="M44.383,286.255a.556.556,0,0,1-.469-.254A9.226,9.226,0,0,0,41,283.181a.56.56,0,0,1,.582-.956,10.347,10.347,0,0,1,3.269,3.166.558.558,0,0,1-.163.773.548.548,0,0,1-.3.091" transform="translate(10.994 76.156)" fill="#673c1b"/>
        <path id="Trazado_601424" data-name="Trazado 601424" d="M36.678,282.043a.56.56,0,0,1-.554-.486,2.805,2.805,0,0,1-.018-.565c-.009-.178-.022-.382-.034-.607-.164-2.662-.2-4.579.792-5a3.251,3.251,0,0,1,3.408.574.559.559,0,0,1-.752.828,2.145,2.145,0,0,0-2.217-.373,6.448,6.448,0,0,0-.187,2.5,2.809,2.809,0,0,1,.673-.46,3.093,3.093,0,0,1,3.475.6.559.559,0,0,1-.8.784,1.893,1.893,0,0,0-3.24,1.185c.008.2.013.362.01.483a.561.561,0,0,1-.53.545h-.03" transform="translate(9.713 74.264)" fill="#673c1b"/>
        <path id="Trazado_601425" data-name="Trazado 601425" d="M42.532,283.586a.561.561,0,0,1-.48-.271,3.459,3.459,0,0,0-1.563-1.606,1.215,1.215,0,0,0-1.012.122.611.611,0,0,0-.307.443.553.553,0,0,1-.607.505.559.559,0,0,1-.507-.607,1.7,1.7,0,0,1,.819-1.284,2.328,2.328,0,0,1,1.993-.232,4.466,4.466,0,0,1,2.144,2.083.559.559,0,0,1-.479.847" transform="translate(10.271 75.721)" fill="#673c1b"/>
        <path id="Trazado_601426" data-name="Trazado 601426" d="M39.168,293.975a5.7,5.7,0,0,1-4.117-1.483c-1.768-1.753-2.33-2.453-1.963-5.072a5.352,5.352,0,0,0-2.117-.253.559.559,0,1,1-.093-1.115,6.581,6.581,0,0,1,2.939.434.918.918,0,0,1,.692.888.672.672,0,0,1-.362.574c-.207,1.8.17,2.241,1.692,3.75,1.685,1.67,4.568,1.129,5.731.82.679-.182,1.351-.41,2.022-.636a16,16,0,0,1,4.512-1.05.559.559,0,1,1,.042,1.118,14.956,14.956,0,0,0-4.2.992c-.693.235-1.388.47-2.092.658a10.508,10.508,0,0,1-2.69.376" transform="translate(8.196 77.206)" fill="#673c1b"/>
        <path id="Trazado_601427" data-name="Trazado 601427" d="M40.983,26.962s3.044-.521,3.044-2.925a25.95,25.95,0,0,0-.885-5.609s1.772-4.005,2.657-5.608c0,0,15.936,3.205,24.79,0l4.427,4.005s.885,4.808.885,5.609,1.8,3.877,1.8,3.877,3.509-7.884,1.737-14.293S71.474,0,60.85,0,34.815,3.177,40.983,26.962" transform="translate(10.681)" fill="#653f35"/>
        <path id="Trazado_601428" data-name="Trazado 601428" d="M49.286,16.733c-2.137.32-2.669.969-2.824,1.184a2.35,2.35,0,0,0-.391,1.645,18.83,18.83,0,0,1,4.727-.928,19.164,19.164,0,0,1,3.359.076c.631-.663.632-1.05.559-1.266-.366-1.058-3.61-.983-5.429-.71" transform="translate(12.431 4.47)" fill="#443139"/>
        <path id="Trazado_601429" data-name="Trazado 601429" d="M63.43,16.733c2.137.32,2.669.969,2.824,1.184a2.359,2.359,0,0,1,.392,1.645,18.853,18.853,0,0,0-4.728-.928,19.164,19.164,0,0,0-3.359.076c-.631-.663-.632-1.05-.559-1.266.366-1.058,3.61-.983,5.429-.71" transform="translate(15.647 4.47)" fill="#443139"/>
        <path id="Trazado_601430" data-name="Trazado 601430" d="M57.248,43.835a8.748,8.748,0,0,1-3.043-.48A12.733,12.733,0,0,1,50.9,41.3l-2.52-1.957a.559.559,0,1,1,.686-.884l2.52,1.958a11.726,11.726,0,0,0,3,1.886,11.872,11.872,0,0,0,5.243.232,4.244,4.244,0,0,0,1.27-.262,4.2,4.2,0,0,0,1.018-.756l4.429-3.993a.559.559,0,1,1,.749.829l-4.428,4a4.026,4.026,0,0,1-2.923,1.3,25.875,25.875,0,0,1-2.7.185" transform="translate(13.001 10.091)" fill="#a1675d"/>
        <path id="Trazado_601431" data-name="Trazado 601431" d="M56.026,30.672a7.336,7.336,0,0,1-1.62-.18,1.268,1.268,0,0,1-.692-.352,1.161,1.161,0,0,1-.268-.782,11.2,11.2,0,0,1,.278-3.76,11.784,11.784,0,0,1,.842-1.929c.189-.373.381-.745.542-1.129l0-.006a.56.56,0,0,1,1.022-.427.952.952,0,0,1,.005.866c-.171.409-.375.806-.578,1.2a10.765,10.765,0,0,0-.767,1.744,10.444,10.444,0,0,0-.232,3.393c0,.015,0,.044,0,.071a.708.708,0,0,1,.084.017,6.337,6.337,0,0,0,2.053.117.559.559,0,0,1,.119,1.111,7.238,7.238,0,0,1-.8.043m-.853-7.994h0" transform="translate(14.417 5.893)" fill="#a1675d"/>
        <path id="Trazado_601432" data-name="Trazado 601432" d="M51.251,22.541a1.418,1.418,0,1,1-2.8,0,1.418,1.418,0,1,1,2.8,0" transform="translate(13.078 5.64)" fill="#443139"/>
        <path id="Trazado_601433" data-name="Trazado 601433" d="M63.257,22.541a1.418,1.418,0,1,1-2.8,0,1.418,1.418,0,1,1,2.8,0" transform="translate(16.319 5.64)" fill="#443139"/>
        <path id="Trazado_601434" data-name="Trazado 601434" d="M50.979,31.061a39.916,39.916,0,0,0,6.3.489,40,40,0,0,0,6.174-.489,4.829,4.829,0,0,1-1.081,1.845,6.89,6.89,0,0,1-5.1,1.926c-5.377.122-6.29-3.772-6.29-3.772" transform="translate(13.76 8.384)" fill="#fff"/>
        <path id="Trazado_601435" data-name="Trazado 601435" d="M42.164,21.612s-.438-4.261-2.518-3.467-.565,9.565,2.4,9.785Z" transform="translate(10.441 4.871)" fill="#c27d6d"/>
        <path id="Trazado_601436" data-name="Trazado 601436" d="M69.855,21.612s.438-4.261,2.518-3.467-.621,11.262-4.391,10.669Z" transform="translate(18.35 4.871)" fill="#c27d6d"/>
        <path id="Trazado_601437" data-name="Trazado 601437" d="M10.965,134.581c-.094,1.222,6.859,14.7,9.8,17.394,0,0,.489-12,3.184-14.209,0,0,5.391,1.96,7.106.245s-7.839-5.39-9.065-6.37a14.8,14.8,0,0,0-3.191-1.753s-7.343-1.678-7.833,4.692" transform="translate(2.959 35.006)" fill="#c27d6d"/>
        <path id="Trazado_601438" data-name="Trazado 601438" d="M82.185,133.616c.094,1.222-6.859,14.7-9.8,17.394,0,0-.49-12-3.185-14.209,0,0-5.39,1.959-7.1.245s7.839-5.39,9.063-6.37a14.8,14.8,0,0,1,3.19-1.753s7.344-1.678,7.834,4.692" transform="translate(16.706 34.745)" fill="#c27d6d"/>
      </g>
    </g>
    <g id="Grupo_870614" data-name="Grupo 870614" transform="translate(631.901 10995.031)">
      <path id="Sustracci칩n_7" data-name="Sustracci칩n 7" d="M123.091,50.022H0V6.094H15.76L18.868,0H144.293V40.927H126.12l-3.028,9.095Z" transform="translate(0 0)" fill="#359547"/>
      <path id="Trazado_608255" data-name="Trazado 608255" d="M12.976,18V5.914h3.719a5.647,5.647,0,0,1,2.851.718,5.007,5.007,0,0,1,1.963,2.042,6.3,6.3,0,0,1,.706,3.009v.556a6.316,6.316,0,0,1-.693,3,4.964,4.964,0,0,1-1.955,2.034A5.69,5.69,0,0,1,16.72,18Zm2.49-10.069V16h1.2a2.7,2.7,0,0,0,2.233-.955,4.314,4.314,0,0,0,.789-2.731v-.639a4.382,4.382,0,0,0-.764-2.793,2.7,2.7,0,0,0-2.233-.95ZM28,18.166a4.409,4.409,0,0,1-3.217-1.212,4.308,4.308,0,0,1-1.241-3.229v-.232a5.426,5.426,0,0,1,.523-2.42,3.838,3.838,0,0,1,1.482-1.644,4.159,4.159,0,0,1,2.187-.577,3.727,3.727,0,0,1,2.9,1.162,4.722,4.722,0,0,1,1.058,3.3v.979H25.975a2.229,2.229,0,0,0,.7,1.411,2.12,2.12,0,0,0,1.482.531,2.589,2.589,0,0,0,2.167-1l1.179,1.32a3.6,3.6,0,0,1-1.461,1.191A4.793,4.793,0,0,1,28,18.166Zm-.274-7.379a1.5,1.5,0,0,0-1.158.484A2.5,2.5,0,0,0,26,12.654h3.337v-.192a1.786,1.786,0,0,0-.432-1.238A1.547,1.547,0,0,0,27.726,10.787ZM37.92,15.518a.773.773,0,0,0-.436-.693,4.95,4.95,0,0,0-1.4-.452q-3.2-.672-3.2-2.723a2.468,2.468,0,0,1,.992-2,4,4,0,0,1,2.594-.8,4.307,4.307,0,0,1,2.735.805,2.538,2.538,0,0,1,1.025,2.092h-2.4A1.161,1.161,0,0,0,37.5,10.9a1.405,1.405,0,0,0-1.038-.336,1.436,1.436,0,0,0-.938.274.865.865,0,0,0-.332.7.739.739,0,0,0,.378.643,3.885,3.885,0,0,0,1.274.423,10.407,10.407,0,0,1,1.511.4,2.482,2.482,0,0,1,1.9,2.416A2.343,2.343,0,0,1,39.2,17.406a4.548,4.548,0,0,1-2.723.76,4.75,4.75,0,0,1-2-.4,3.363,3.363,0,0,1-1.374-1.1,2.565,2.565,0,0,1-.5-1.515h2.274a1.252,1.252,0,0,0,.473.979,1.877,1.877,0,0,0,1.179.34,1.737,1.737,0,0,0,1.042-.261A.814.814,0,0,0,37.92,15.518ZM47,18a2.664,2.664,0,0,1-.241-.805,2.9,2.9,0,0,1-2.266.971,3.189,3.189,0,0,1-2.187-.764,2.456,2.456,0,0,1-.867-1.926A2.538,2.538,0,0,1,42.5,13.285a5.222,5.222,0,0,1,3.059-.772h1.1V12a1.48,1.48,0,0,0-.32-1,1.257,1.257,0,0,0-1.009-.374,1.429,1.429,0,0,0-.95.291.987.987,0,0,0-.344.8h-2.4a2.41,2.41,0,0,1,.481-1.444A3.182,3.182,0,0,1,43.481,9.23a4.961,4.961,0,0,1,1.976-.378,3.92,3.92,0,0,1,2.635.834,2.918,2.918,0,0,1,.975,2.345v3.893a4.294,4.294,0,0,0,.357,1.934V18Zm-1.984-1.668A2.066,2.066,0,0,0,46,16.095a1.554,1.554,0,0,0,.664-.635V13.916h-.9q-1.8,0-1.917,1.245l-.008.141a.96.96,0,0,0,.315.739A1.225,1.225,0,0,0,45.017,16.332Zm10.94-5.063a6.517,6.517,0,0,0-.863-.066,1.757,1.757,0,0,0-1.785.921V18h-2.4V9.019h2.266l.066,1.071a2.223,2.223,0,0,1,2-1.237,2.514,2.514,0,0,1,.747.108Zm6.2,0a6.517,6.517,0,0,0-.863-.066,1.757,1.757,0,0,0-1.785.921V18h-2.4V9.019h2.266l.066,1.071a2.223,2.223,0,0,1,2-1.237,2.514,2.514,0,0,1,.747.108Zm.481,2.158a5.327,5.327,0,0,1,.515-2.382,3.767,3.767,0,0,1,1.482-1.619,4.323,4.323,0,0,1,2.245-.573,4.09,4.09,0,0,1,2.968,1.112,4.464,4.464,0,0,1,1.282,3.021l.017.614a4.694,4.694,0,0,1-1.154,3.316,4.472,4.472,0,0,1-6.2,0,4.777,4.777,0,0,1-1.158-3.387Zm2.4.17a3.357,3.357,0,0,0,.481,1.958,1.73,1.73,0,0,0,2.739.008,3.674,3.674,0,0,0,.49-2.141,3.324,3.324,0,0,0-.49-1.945,1.592,1.592,0,0,0-1.378-.69,1.566,1.566,0,0,0-1.361.686A3.736,3.736,0,0,0,65.038,13.6ZM75.157,18H72.75V5.25h2.407Zm4.507,0H77.257V5.25h2.407Zm7.18,0a2.664,2.664,0,0,1-.241-.805,2.9,2.9,0,0,1-2.266.971A3.189,3.189,0,0,1,82.15,17.4a2.456,2.456,0,0,1-.867-1.926,2.538,2.538,0,0,1,1.058-2.191,5.222,5.222,0,0,1,3.059-.772h1.1V12a1.48,1.48,0,0,0-.32-1,1.257,1.257,0,0,0-1.009-.374,1.429,1.429,0,0,0-.95.291.987.987,0,0,0-.344.8h-2.4a2.41,2.41,0,0,1,.481-1.444A3.182,3.182,0,0,1,83.325,9.23,4.961,4.961,0,0,1,85.3,8.853a3.92,3.92,0,0,1,2.635.834,2.918,2.918,0,0,1,.975,2.345v3.893a4.294,4.294,0,0,0,.357,1.934V18Zm-1.984-1.668a2.066,2.066,0,0,0,.979-.237,1.554,1.554,0,0,0,.664-.635V13.916h-.9q-1.8,0-1.917,1.245l-.008.141a.96.96,0,0,0,.315.739A1.225,1.225,0,0,0,84.861,16.332ZM95.8,11.268a6.517,6.517,0,0,0-.863-.066,1.757,1.757,0,0,0-1.785.921V18h-2.4V9.019H93.02l.066,1.071a2.223,2.223,0,0,1,2-1.237,2.514,2.514,0,0,1,.747.108Z" transform="translate(18.999 13.642)" fill="#fff"/>
      <path id="Trazado_214008" data-name="Trazado 214008" d="M-.808,1.311H26.244V7.625H-4Z" transform="translate(118.049 42.396)" fill="#7f8a9c"/>
    </g>
  </g>
</svg>
