<svg xmlns="http://www.w3.org/2000/svg" xmlns:xlink="http://www.w3.org/1999/xlink" width="144.293" height="376.741" viewBox="0 0 144.293 376.741">
  <defs>
    <clipPath id="clip-path">
      <rect id="Rect치ngulo_300803" data-name="Rect치ngulo 300803" width="105.19" height="376.741" fill="none"/>
    </clipPath>
  </defs>
  <g id="Grupo_886479" data-name="Grupo 886479" transform="translate(-1065.707 -10369.693)">
    <g id="Grupo_886081" data-name="Grupo 886081" transform="translate(1085.259 10369.693)">
      <g id="Grupo_886080" data-name="Grupo 886080" clip-path="url(#clip-path)">
        <path id="Trazado_601271" data-name="Trazado 601271" d="M52.621,8.4a6.519,6.519,0,0,1,5.354,5.879A8.014,8.014,0,0,1,54,21.91Z" transform="translate(15.346 2.45)" fill="#885732"/>
        <path id="Trazado_601272" data-name="Trazado 601272" d="M35.059,38.593,28.726,49.924l16.665,8,10.332-9-6.8-8.252Z" transform="translate(8.377 11.255)" fill="#fccdae"/>
        <path id="Trazado_601273" data-name="Trazado 601273" d="M33.962,273.793c2.126,4.731,2.685,15.661,2.413,15.9a2.034,2.034,0,0,1-1.323.342c-2.463.053-5.006.05-7.272,1.02-.988.422-1.891,1.02-2.861,1.48a22.855,22.855,0,0,1-6.6,1.64,49.36,49.36,0,0,1-10.678.762c-1.426-.106-3.068-.495-3.67-1.791a3.116,3.116,0,0,1,.606-3.136,13.237,13.237,0,0,1,2.561-2.163,39.72,39.72,0,0,0,5.922-5.919,34.339,34.339,0,0,0,3.853-5.03,34.36,34.36,0,0,0,2.671-6.392Z" transform="translate(1.096 78.885)" fill="#8f552f"/>
        <path id="Trazado_601274" data-name="Trazado 601274" d="M3.921,288.812c.6,1.3,2.242,1.686,3.67,1.791a49.355,49.355,0,0,0,10.678-.761,22.876,22.876,0,0,0,6.6-1.64c.971-.461,1.874-1.058,2.862-1.481,2.264-.97,4.807-.966,7.272-1.019a2.039,2.039,0,0,0,1.321-.342v1.957a.788.788,0,0,1-.883.788,13.538,13.538,0,0,0-8.738,1.943c-4.718,3-19.547,5.019-22.394,1.948Z" transform="translate(1.143 83.218)" fill="#5c3414"/>
        <path id="Trazado_601275" data-name="Trazado 601275" d="M14.879,286.018a8.007,8.007,0,0,1-1.937-.322,4.3,4.3,0,0,0-2.293-.194.645.645,0,0,1-.4-1.227,5.379,5.379,0,0,1,3.012.168,3.811,3.811,0,0,0,2.379.137,3.343,3.343,0,0,0,.976-.778,20.589,20.589,0,0,0,5.489-11.082.646.646,0,1,1,1.277.2A21.893,21.893,0,0,1,17.548,284.7a4.532,4.532,0,0,1-1.386,1.063,3.145,3.145,0,0,1-1.283.256" transform="translate(2.859 79.372)" fill="#5c3414"/>
        <path id="Trazado_601276" data-name="Trazado 601276" d="M10.672,282.12a.646.646,0,0,1-.43-1.129,8.512,8.512,0,0,1,6.935-2.028,2.065,2.065,0,0,1,.891.318l.1.074a.646.646,0,0,1,.468,1.155,1.013,1.013,0,0,1-1.252-.128,1.025,1.025,0,0,0-.413-.143,7.3,7.3,0,0,0-5.87,1.719.644.644,0,0,1-.429.163" transform="translate(2.924 81.323)" fill="#5c3414"/>
        <path id="Trazado_601277" data-name="Trazado 601277" d="M15.365,283.693a.645.645,0,0,1-.645-.616,7.7,7.7,0,0,0-1.9-4.716.646.646,0,0,1,.971-.852,9,9,0,0,1,2.218,5.51.647.647,0,0,1-.616.674h-.03" transform="translate(3.693 80.864)" fill="#5c3414"/>
        <path id="Trazado_601278" data-name="Trazado 601278" d="M13.784,279.5a.645.645,0,0,1-.284-1.226,7.84,7.84,0,0,0,1.569-1.137,10.069,10.069,0,0,1,1.6-1.19,5.4,5.4,0,0,1,3.955-.509.646.646,0,1,1-.323,1.25,4.111,4.111,0,0,0-3,.386,8.9,8.9,0,0,0-1.4,1.046,8.871,8.871,0,0,1-1.841,1.312.634.634,0,0,1-.283.066" transform="translate(3.831 80.275)" fill="#5c3414"/>
        <path id="Trazado_601279" data-name="Trazado 601279" d="M18.31,280.435a.647.647,0,0,1-.632-.511,14.945,14.945,0,0,0-.824-2.915,4.605,4.605,0,0,0-1.723-2.111.646.646,0,0,1,.663-1.109,5.8,5.8,0,0,1,2.242,2.7,16.034,16.034,0,0,1,.907,3.167.647.647,0,0,1-.5.766.6.6,0,0,1-.134.014" transform="translate(4.321 79.817)" fill="#5c3414"/>
        <path id="Trazado_601280" data-name="Trazado 601280" d="M19.742,278.235a.605.605,0,0,1-.621-.519l-.01-.075c-.466-3.336-1.47-5.288-2.756-5.354a.646.646,0,1,1,.067-1.29c1.409.074,3.241,1.254,3.968,6.466a.677.677,0,0,1-.544.765.706.706,0,0,1-.1.008" transform="translate(4.591 79.029)" fill="#5c3414"/>
        <path id="Trazado_601281" data-name="Trazado 601281" d="M15.483,275.4a.645.645,0,0,1-.509-1.044c.991-1.267,4.3-3.042,6.419-2.22a.645.645,0,0,1-.466,1.2c-1.341-.518-4.134.789-4.935,1.812a.646.646,0,0,1-.509.248" transform="translate(4.327 79.302)" fill="#5c3414"/>
        <path id="Trazado_601282" data-name="Trazado 601282" d="M23.99,288.332a.646.646,0,0,1-.645-.619,16.238,16.238,0,0,1,1.214-6.875,6.873,6.873,0,0,1,1.217-2.042,4,4,0,0,1,3.38-1.33.646.646,0,1,1-.092,1.288,2.723,2.723,0,0,0-2.339.918,5.647,5.647,0,0,0-.973,1.661,14.942,14.942,0,0,0-1.117,6.326.647.647,0,0,1-.617.673H23.99" transform="translate(6.804 80.912)" fill="#5c3414"/>
        <path id="Trazado_601283" data-name="Trazado 601283" d="M17.229,290.58a.647.647,0,0,1-.634-.526,7.647,7.647,0,0,0-2.892-4.322c-2.324-1.665-7.289-.017-7.339,0a.646.646,0,0,1-.413-1.223c.229-.079,5.642-1.875,8.5.174a8.826,8.826,0,0,1,3.41,5.134.645.645,0,0,1-.517.75.625.625,0,0,1-.119.012" transform="translate(1.607 82.736)" fill="#5c3414"/>
        <path id="Trazado_601284" data-name="Trazado 601284" d="M57.554,273.793c-2.126,4.731-2.685,15.661-2.413,15.9a2.034,2.034,0,0,0,1.323.342c2.463.053,5.006.05,7.272,1.02.988.422,1.891,1.02,2.862,1.48a22.836,22.836,0,0,0,6.6,1.64,49.36,49.36,0,0,0,10.678.762c1.426-.106,3.068-.495,3.67-1.791a3.116,3.116,0,0,0-.606-3.136,13.237,13.237,0,0,0-2.561-2.163,39.72,39.72,0,0,1-5.922-5.919,34.339,34.339,0,0,1-3.853-5.03,34.36,34.36,0,0,1-2.671-6.392Z" transform="translate(16.062 78.885)" fill="#8f552f"/>
        <path id="Trazado_601285" data-name="Trazado 601285" d="M87.533,288.812c-.6,1.3-2.242,1.686-3.67,1.791a49.355,49.355,0,0,1-10.678-.761,22.876,22.876,0,0,1-6.6-1.64c-.97-.461-1.874-1.058-2.862-1.481-2.264-.97-4.807-.966-7.272-1.019a2.039,2.039,0,0,1-1.321-.342v1.957a.788.788,0,0,0,.883.788,13.538,13.538,0,0,1,8.738,1.943c4.718,3,19.547,5.019,22.394,1.948Z" transform="translate(16.076 83.218)" fill="#5c3414"/>
        <path id="Trazado_601286" data-name="Trazado 601286" d="M72.327,286.018a3.137,3.137,0,0,1-1.283-.256,4.5,4.5,0,0,1-1.386-1.063,21.9,21.9,0,0,1-5.836-11.784.645.645,0,1,1,1.276-.2A20.594,20.594,0,0,0,70.588,283.8a3.35,3.35,0,0,0,.978.778,3.8,3.8,0,0,0,2.378-.137,5.38,5.38,0,0,1,3.012-.168.645.645,0,0,1-.4,1.227,4.274,4.274,0,0,0-2.293.194,8.017,8.017,0,0,1-1.936.322" transform="translate(18.61 79.372)" fill="#5c3414"/>
        <path id="Trazado_601287" data-name="Trazado 601287" d="M75.466,282.12a.639.639,0,0,1-.429-.164,7.315,7.315,0,0,0-5.872-1.718,1.1,1.1,0,0,0-.353.1c-.238.173-.787.576-1.311.169a.646.646,0,0,1,.468-1.153l.019-.014a2.131,2.131,0,0,1,.971-.377,8.513,8.513,0,0,1,6.936,2.029.646.646,0,0,1-.43,1.128" transform="translate(19.611 81.323)" fill="#5c3414"/>
        <path id="Trazado_601288" data-name="Trazado 601288" d="M69.528,283.693H69.5a.647.647,0,0,1-.616-.674,9,9,0,0,1,2.218-5.51.646.646,0,0,1,.971.852,7.7,7.7,0,0,0-1.9,4.716.645.645,0,0,1-.645.616" transform="translate(20.088 80.864)" fill="#5c3414"/>
        <path id="Trazado_601289" data-name="Trazado 601289" d="M72.154,279.5a.634.634,0,0,1-.283-.066,8.9,8.9,0,0,1-1.841-1.312,8.952,8.952,0,0,0-1.395-1.046,4.114,4.114,0,0,0-3-.386.646.646,0,0,1-.323-1.25,5.4,5.4,0,0,1,3.955.509,10.069,10.069,0,0,1,1.6,1.19,7.83,7.83,0,0,0,1.569,1.137.645.645,0,0,1-.284,1.226" transform="translate(18.904 80.275)" fill="#5c3414"/>
        <path id="Trazado_601290" data-name="Trazado 601290" d="M66.763,280.435a.6.6,0,0,1-.134-.014.647.647,0,0,1-.5-.766,16,16,0,0,1,.907-3.166,5.8,5.8,0,0,1,2.242-2.7.646.646,0,0,1,.661,1.109,4.607,4.607,0,0,0-1.722,2.112,14.907,14.907,0,0,0-.824,2.914.647.647,0,0,1-.632.511" transform="translate(19.281 79.817)" fill="#5c3414"/>
        <path id="Trazado_601291" data-name="Trazado 601291" d="M66.076,277.641l-.65-.017-.629-.161c.726-5.213,2.559-6.394,3.968-6.466a.646.646,0,0,1,.067,1.29c-1.286.066-2.291,2.018-2.756,5.354m-.65-.017h0Z" transform="translate(18.896 79.029)" fill="#5c3414"/>
        <path id="Trazado_601292" data-name="Trazado 601292" d="M70.229,275.4a.644.644,0,0,1-.509-.248c-.8-1.023-3.595-2.328-4.937-1.812a.645.645,0,1,1-.465-1.2c2.114-.818,5.426.952,6.418,2.22a.645.645,0,0,1-.508,1.044" transform="translate(18.636 79.302)" fill="#5c3414"/>
        <path id="Trazado_601293" data-name="Trazado 601293" d="M61.6,288.331h-.03a.646.646,0,0,1-.616-.673,14.963,14.963,0,0,0-1.119-6.326,5.727,5.727,0,0,0-.971-1.661,2.7,2.7,0,0,0-2.339-.918.646.646,0,1,1-.092-1.288,4,4,0,0,1,3.378,1.33,6.829,6.829,0,0,1,1.217,2.041,16.2,16.2,0,0,1,1.215,6.877.644.644,0,0,1-.643.619" transform="translate(16.282 80.912)" fill="#5c3414"/>
        <path id="Trazado_601294" data-name="Trazado 601294" d="M69.7,290.581a.725.725,0,0,1-.118-.01.647.647,0,0,1-.518-.753,8.826,8.826,0,0,1,3.41-5.134c2.861-2.05,8.274-.252,8.5-.174a.646.646,0,0,1-.413,1.224c-.05-.018-5.012-1.666-7.339,0a7.572,7.572,0,0,0-2.892,4.319.647.647,0,0,1-.634.528" transform="translate(20.138 82.736)" fill="#5c3414"/>
        <path id="Trazado_601295" data-name="Trazado 601295" d="M20.762,126.075c-.443,1.55-10.847,56.449-6.2,77.7,0,0-.221,44.938-.221,46.709s-.664,56.449-.664,56.449,1.479,5.492,2.878,6.642c2.742,2.255,13.88,3.017,13.88,3.017a1.652,1.652,0,0,0,1.9-1.046,91.2,91.2,0,0,0,3.7-12.375c1.107-5.757,3.542-61.763,3.542-61.763s5.495-46.57,7.748-54.456c.442-1.55,4.206-12.176,4.206-12.176s5.755,21.916,5.755,24.351.664,23.687,4.428,31.877c0,0-3.265,79.067,7.305,86.113.664.443,13.3-1.365,16.16-4.428,1.319-1.413,1.328-5.533,1.771-7.526s-1.55-69.51-1.771-73.716,7.526-83.014-3.764-107.807Z" transform="translate(3.899 36.057)" fill="#47608a"/>
        <path id="Trazado_601296" data-name="Trazado 601296" d="M17.4,143.615l.124,2.61s5.94-.372,7.426.619,5.321,5.94,7.055,5.94,1.113,3.095-2.475,2.847c-1.625-.111-6.973-3.465-6.973-3.465S20.374,167.636,20,167.636s-11.015-13-12.006-14.6-2.57-4.284-2.57-4.284c-.252-.958-2.442-7.884-4.123-16.61-1.786-9.279-1.3-31.5-1.055-40.086.214-7.6,3.166-13.362,9.495-13.362,10.549,0,6.582,10.456,7.033,19.691.7,14.417-.856,43.09.628,45.234" transform="translate(0 22.948)" fill="#fccdae"/>
        <path id="Trazado_601297" data-name="Trazado 601297" d="M75.6,140.227l-.124,2.61s-5.94-.372-7.426.619S62.732,149.4,61,149.4s-1.113,3.095,2.475,2.847c1.625-.111,6.973-3.465,6.973-3.465S72.632,164.249,73,164.249s11.015-13,12.006-14.6,2.57-4.284,2.57-4.284c.252-.958-.066-44.725-.307-53.309-.213-7.6-3.164-13.362-9.493-13.362-10.549,0-6.582,10.456-7.033,19.692-.7,14.416,6.341,39.7,4.857,41.846" transform="translate(17.518 22.948)" fill="#fccdae"/>
        <path id="Trazado_601298" data-name="Trazado 601298" d="M104.312,98.331c-.194-9.922-2.9-43.036-21.623-44.971L66.585,46.2l-.672-1.142a2.437,2.437,0,0,0-4.144-.076c-1.925,2.918-5.13,6.564-9.114,6.564-4.729,0-9.5-4.565-11.857-7.194a2.435,2.435,0,0,0-3.381-.247l-3.65,3.056L19.71,53.444C11.725,56.3,4.789,60.218,3.65,68.2c-.7,4.92-1.777,18-2.968,28.856-.739,6.762,15.975,7.379,15.975,7.379l2.4-10.482s-.342,38.877,4.085,44.632l1.33,10.847L47.8,148.5,85.124,147l-.664-11.511a10.777,10.777,0,0,0,1.328-5.535c.291-11.424-.329-35.682-.664-39.847,0,0,1.692,9.5,2.8,11.273Z" transform="translate(0.192 12.697)" fill="#dbdff0"/>
        <path id="Trazado_601299" data-name="Trazado 601299" d="M79.993,123.64l-37.327,1.5-23.328.936s-1.665,3.751-.874,4.619c1.11,1.215,62.887-1.66,63.317-2.215.789-1.02-1.788-4.838-1.788-4.838" transform="translate(5.322 36.057)" fill="#de9654"/>
        <path id="Trazado_601300" data-name="Trazado 601300" d="M36.825,63.262a1.279,1.279,0,0,1-.338-.047,1.761,1.761,0,0,1-.789-.536c-3.992-4.209-8.2-9.227-9.172-14.544A.646.646,0,0,1,27.8,47.9c.905,4.983,4.977,9.815,8.839,13.885a1.162,1.162,0,0,0,.2.182,1.347,1.347,0,0,0,.386-.364c.553-.688,1.077-1.379,1.6-2.063a28.949,28.949,0,0,1,5.757-6.2.645.645,0,1,1,.769,1.037,27.977,27.977,0,0,0-5.5,5.947c-.526.691-1.057,1.39-1.617,2.089a1.867,1.867,0,0,1-1.4.846" transform="translate(7.732 13.815)" fill="#acb1bf"/>
        <path id="Trazado_601301" data-name="Trazado 601301" d="M49.226,62.561a1.742,1.742,0,0,1-1.342-.882,51.265,51.265,0,0,0-5.994-6.915.646.646,0,0,1,.9-.93,52.642,52.642,0,0,1,6.144,7.09,1.2,1.2,0,0,0,.32.34c-.025-.026.039-.1.062-.133a20.463,20.463,0,0,0,4.363-14.963.646.646,0,1,1,1.283-.149,21.485,21.485,0,0,1-4.642,15.927,1.578,1.578,0,0,1-.743.562,1.181,1.181,0,0,1-.349.054" transform="translate(12.159 13.253)" fill="#acb1bf"/>
        <path id="Trazado_601302" data-name="Trazado 601302" d="M42.958,145.487a.646.646,0,0,1-.646-.646V69.961A109.5,109.5,0,0,0,40.78,54.1a.646.646,0,0,1,1.274-.217A110.848,110.848,0,0,1,43.6,69.947v74.895a.647.647,0,0,1-.646.646" transform="translate(11.89 15.556)" fill="#acb1bf"/>
        <path id="Trazado_601303" data-name="Trazado 601303" d="M41.122,61.519A1.026,1.026,0,1,1,40.1,60.357a1.1,1.1,0,0,1,1.018,1.162" transform="translate(11.399 17.602)" fill="#acb1bf"/>
        <path id="Trazado_601304" data-name="Trazado 601304" d="M41.122,67.821A1.026,1.026,0,1,1,40.1,66.659a1.1,1.1,0,0,1,1.018,1.162" transform="translate(11.399 19.439)" fill="#acb1bf"/>
        <path id="Trazado_601305" data-name="Trazado 601305" d="M41.122,73.785A1.026,1.026,0,1,1,40.1,72.623a1.1,1.1,0,0,1,1.018,1.162" transform="translate(11.399 21.179)" fill="#acb1bf"/>
        <path id="Trazado_601306" data-name="Trazado 601306" d="M41.122,80.087A1.026,1.026,0,1,1,40.1,78.925a1.1,1.1,0,0,1,1.018,1.162" transform="translate(11.399 23.017)" fill="#acb1bf"/>
        <path id="Trazado_601307" data-name="Trazado 601307" d="M41.122,86.407A1.026,1.026,0,1,1,40.1,85.245a1.1,1.1,0,0,1,1.018,1.162" transform="translate(11.399 24.86)" fill="#acb1bf"/>
        <path id="Trazado_601308" data-name="Trazado 601308" d="M41.122,92.758A1.026,1.026,0,1,1,40.1,91.6a1.1,1.1,0,0,1,1.018,1.162" transform="translate(11.399 26.712)" fill="#acb1bf"/>
        <path id="Trazado_601309" data-name="Trazado 601309" d="M41.122,99.554A1.026,1.026,0,1,1,40.1,98.392a1.1,1.1,0,0,1,1.018,1.162" transform="translate(11.399 28.694)" fill="#acb1bf"/>
        <path id="Trazado_601310" data-name="Trazado 601310" d="M41.122,105.856a1.026,1.026,0,1,1-1.018-1.162,1.1,1.1,0,0,1,1.018,1.162" transform="translate(11.399 30.531)" fill="#acb1bf"/>
        <path id="Trazado_601311" data-name="Trazado 601311" d="M41.122,112.406a1.026,1.026,0,1,1-1.018-1.162,1.1,1.1,0,0,1,1.018,1.162" transform="translate(11.399 32.442)" fill="#acb1bf"/>
        <path id="Trazado_601312" data-name="Trazado 601312" d="M41.122,117.6a1.026,1.026,0,1,1-1.018-1.162,1.1,1.1,0,0,1,1.018,1.162" transform="translate(11.399 33.957)" fill="#acb1bf"/>
        <path id="Trazado_601313" data-name="Trazado 601313" d="M16.558,67.523a.645.645,0,0,1-.607-.426l-.183-.508c-1.183-3.281-2.524-7-5.015-9.36a8.09,8.09,0,0,0-1.436-.965.645.645,0,0,1-.708-.961.867.867,0,0,1,.546-.353c.843-.107,2.47,1.326,2.485,1.341,2.715,2.572,4.111,6.444,5.343,9.86l.182.506a.645.645,0,0,1-.387.827.62.62,0,0,1-.22.039" transform="translate(2.483 16.023)" fill="#acb1bf"/>
        <path id="Trazado_601314" data-name="Trazado 601314" d="M15.212,86.812a.682.682,0,0,1-.072,0,.645.645,0,0,1-.57-.714,89.96,89.96,0,0,0,.111-12.356c-.067-1.925-.132-3.795-.139-5.509a.645.645,0,0,1,.643-.648.63.63,0,0,1,.648.642c.008,1.7.072,3.558.138,5.471a90.718,90.718,0,0,1-.118,12.544.648.648,0,0,1-.642.573" transform="translate(4.241 19.708)" fill="#acb1bf"/>
        <path id="Trazado_601315" data-name="Trazado 601315" d="M14.667,89.938a.647.647,0,0,1-.149-.017l-1.474-.338c-2.747-.625-5.86-1.332-7.444-2.189a7.35,7.35,0,0,1-3.564-3.225.646.646,0,1,1,1.187-.509,6.221,6.221,0,0,0,2.991,2.6,36.479,36.479,0,0,0,7.114,2.064l1.484.341a.646.646,0,0,1-.147,1.275" transform="translate(0.579 24.283)" fill="#acb1bf"/>
        <path id="Trazado_601316" data-name="Trazado 601316" d="M69.156,86.874a.646.646,0,0,1-.035-1.29c2.839-.159,10.562-.92,12.165-2.524a.646.646,0,1,1,.913.913c-2.24,2.241-11.911,2.839-13.007,2.9h-.036" transform="translate(19.979 24.167)" fill="#acb1bf"/>
        <path id="Trazado_601317" data-name="Trazado 601317" d="M65.216,73.269a.646.646,0,0,1-.641-.566c-1.732-13.862-1-20.042-.967-20.3a.646.646,0,0,1,1.281.16c-.008.062-.74,6.307.969,19.978a.647.647,0,0,1-.562.721.568.568,0,0,1-.08.005" transform="translate(18.497 15.118)" fill="#acb1bf"/>
        <path id="Trazado_601318" data-name="Trazado 601318" d="M66.269,80.865a.647.647,0,0,1-.641-.566L64.467,71a.646.646,0,1,1,1.281-.16l1.162,9.295a.647.647,0,0,1-.562.721.545.545,0,0,1-.08.005" transform="translate(18.799 20.495)" fill="#acb1bf"/>
        <path id="Trazado_601319" data-name="Trazado 601319" d="M43.986,163.383c-1.9-4.348-5.075-14.374-5.209-14.8l1.231-.387c.034.1,3.287,10.386,5.161,14.672Z" transform="translate(11.308 43.217)" fill="#334769"/>
        <path id="Trazado_601320" data-name="Trazado 601320" d="M27.787,292.972l-1.285-.127c.019-.194,1.906-19.615,1.906-42.78,0-13.33,1.793-26.31,3.372-37.763,1.232-8.926,2.4-17.359,2.631-25.02.548-17.751,11.226-31.091,11.334-31.224l1,.814c-.1.13-10.511,13.149-11.045,30.45-.238,7.729-1.407,16.2-2.643,25.157-1.652,11.97-3.361,24.345-3.361,37.586,0,23.231-1.894,42.713-1.913,42.906" transform="translate(7.729 45.51)" fill="#334769"/>
        <path id="Trazado_601321" data-name="Trazado 601321" d="M68.709,149.921c-5.9,0-8.7-11.468-8.815-11.958l1.257-.3c.728,3.051,3.5,10.965,7.559,10.965Z" transform="translate(17.467 40.147)" fill="#334769"/>
        <path id="Trazado_601322" data-name="Trazado 601322" d="M54.612,124.347a.645.645,0,0,1-.274-1.23c1.069-.5,3.974-2.193,4.572-3.986a.646.646,0,1,1,1.224.409c-.9,2.687-5.074,4.663-5.25,4.745a.639.639,0,0,1-.273.061" transform="translate(15.738 34.612)" fill="#acb1bf"/>
        <path id="Trazado_601323" data-name="Trazado 601323" d="M62.734,31.664c0,13.146-9.623,21.967-15.807,21.983-9.406.025-16.119-3.795-17.766-16.838s2.4-30.4,11.805-30.4c24.285,0,21.768,8.691,21.768,25.25" transform="translate(8.4 1.87)" fill="#fccdae"/>
        <path id="Trazado_601324" data-name="Trazado 601324" d="M30.266,36.912s1.757-6.2,4.2-9.909c3.031-4.6.471-11.267.471-11.267s31.427,10.591,28.726-.373c0,0,5.948-2.776,4.925-8.649S54.048-3.721,47.224,4.355c0,0-15.5-10.927-16.125,5.435,0,0-6.666-2.914-8.124,6.949a4.7,4.7,0,0,0,3.542,5.6,9.705,9.705,0,0,0-2.5,3.362c-1.465,3.995.625,9.415,6.25,11.207" transform="translate(6.677 0)" fill="#885732"/>
        <path id="Trazado_601325" data-name="Trazado 601325" d="M32.6,22.057s-5.881-4.376-5.811,2.869,2.44,7.745,4.782,7.134Z" transform="translate(7.812 6.05)" fill="#fccdae"/>
        <path id="Trazado_601326" data-name="Trazado 601326" d="M38.427,17.8c-2.174.327-2.715.986-2.873,1.2a2.4,2.4,0,0,0-.4,1.673,19.152,19.152,0,0,1,4.807-.944,19.367,19.367,0,0,1,3.416.077c.642-.674.643-1.068.568-1.288-.372-1.076-3.672-1-5.522-.722" transform="translate(10.248 5.139)" fill="#443139"/>
        <path id="Trazado_601327" data-name="Trazado 601327" d="M52.608,17.8c2.174.327,2.715.986,2.873,1.2a2.4,2.4,0,0,1,.4,1.673,19.152,19.152,0,0,0-4.807-.944,19.367,19.367,0,0,0-3.416.077c-.642-.674-.643-1.068-.568-1.288.372-1.076,3.672-1,5.522-.722" transform="translate(13.722 5.139)" fill="#443139"/>
        <path id="Trazado_601328" data-name="Trazado 601328" d="M40.384,23.631a1.442,1.442,0,1,1-1.423-1.675,1.565,1.565,0,0,1,1.423,1.675" transform="translate(10.947 6.403)" fill="#443139"/>
        <path id="Trazado_601329" data-name="Trazado 601329" d="M51.594,23.631a1.442,1.442,0,1,1-1.422-1.675,1.565,1.565,0,0,1,1.422,1.675" transform="translate(14.216 6.403)" fill="#443139"/>
        <path id="Trazado_601330" data-name="Trazado 601330" d="M47.227,34.724a.646.646,0,0,1-.081-1.286c.982-.127,1.6-.557,1.735-1.21a2.547,2.547,0,0,0-1.448-2.43c-3.025-1.813-3.112-4.444-2.734-5.584a.646.646,0,0,1,1.227.4c-.032.1-.69,2.359,2.171,4.075a3.77,3.77,0,0,1,2.049,3.8,3,3,0,0,1-2.835,2.228.592.592,0,0,1-.083.005" transform="translate(12.989 6.932)" fill="#c8a58d"/>
        <path id="Trazado_601331" data-name="Trazado 601331" d="M47.276,36.788c-.717,0-1.652-.017-2.851-.067-3.822-.159-6.471-3.379-6.582-3.516a.646.646,0,0,1,1-.812c.023.028,2.4,2.9,5.633,3.038a35.457,35.457,0,0,0,4.661.005.646.646,0,0,1,.159,1.281,19.011,19.011,0,0,1-2.024.071" transform="translate(10.994 9.377)" fill="#c8a58d"/>
        <path id="Trazado_601332" data-name="Trazado 601332" d="M43.784,45.094c-5.235,0-9.555-3.739-9.787-3.942a.646.646,0,0,1,.854-.97c.066.059,6.673,5.755,12.936,2.7a.645.645,0,1,1,.566,1.16,10.3,10.3,0,0,1-4.568,1.053" transform="translate(9.851 11.671)" fill="#c8a58d"/>
        <path id="Trazado_601333" data-name="Trazado 601333" d="M10.522,101.624a.632.632,0,0,1-.128-.013l-4.181-.836a.646.646,0,0,1,.253-1.267l4.182.837a.646.646,0,0,1-.127,1.279" transform="translate(1.661 29.015)" fill="#c8a58d"/>
        <path id="Trazado_601334" data-name="Trazado 601334" d="M72.385,99.681A.646.646,0,0,1,72.27,98.4l4.6-.836a.645.645,0,0,1,.231,1.27l-4.6.837a.59.59,0,0,1-.116.01" transform="translate(20.921 28.449)" fill="#c8a58d"/>
      </g>
    </g>
    <g id="Grupo_870616" data-name="Grupo 870616" transform="translate(1065.707 10504.031)">
      <path id="Sustracci칩n_7" data-name="Sustracci칩n 7" d="M123.091,50.022H0V6.094H15.76L18.868,0H144.293V40.927H126.12l-3.028,9.095Z" transform="translate(0 0)" fill="#bdcbd9"/>
      <path id="Trazado_608257" data-name="Trazado 608257" d="M29.577,13.576H27.594V18H25.1V5.914h4.491a5.076,5.076,0,0,1,3.3.955,3.3,3.3,0,0,1,1.162,2.7,3.718,3.718,0,0,1-.535,2.063A3.651,3.651,0,0,1,31.9,12.945l2.615,4.939V18H31.844Zm-1.984-2.017H29.6a2.057,2.057,0,0,0,1.453-.477,1.706,1.706,0,0,0,.515-1.316,1.826,1.826,0,0,0-.486-1.345,2.018,2.018,0,0,0-1.49-.49h-2Zm12.335,6.607a4.409,4.409,0,0,1-3.217-1.212,4.308,4.308,0,0,1-1.241-3.229v-.232a5.426,5.426,0,0,1,.523-2.42,3.838,3.838,0,0,1,1.482-1.644,4.159,4.159,0,0,1,2.187-.577,3.727,3.727,0,0,1,2.9,1.162,4.722,4.722,0,0,1,1.058,3.3v.979H37.9a2.229,2.229,0,0,0,.7,1.411,2.12,2.12,0,0,0,1.482.531,2.589,2.589,0,0,0,2.167-1l1.179,1.32a3.6,3.6,0,0,1-1.461,1.191A4.793,4.793,0,0,1,39.929,18.166Zm-.274-7.379a1.5,1.5,0,0,0-1.158.484,2.5,2.5,0,0,0-.569,1.384h3.337v-.192a1.786,1.786,0,0,0-.432-1.238A1.547,1.547,0,0,0,39.655,10.787Zm8.2-3.976V9.019h1.536v1.76H47.856v4.482a1.07,1.07,0,0,0,.191.714.959.959,0,0,0,.73.216,3.826,3.826,0,0,0,.706-.058V17.95a4.939,4.939,0,0,1-1.453.216,2.29,2.29,0,0,1-2.573-2.548V10.778H44.145V9.019h1.312V6.811Zm7.006,11.355a4.409,4.409,0,0,1-3.217-1.212A4.308,4.308,0,0,1,50.4,13.725v-.232a5.426,5.426,0,0,1,.523-2.42,3.838,3.838,0,0,1,1.482-1.644A4.159,4.159,0,0,1,54.6,8.853a3.727,3.727,0,0,1,2.9,1.162,4.722,4.722,0,0,1,1.058,3.3v.979H52.836a2.229,2.229,0,0,0,.7,1.411,2.12,2.12,0,0,0,1.482.531,2.589,2.589,0,0,0,2.167-1l1.179,1.32A3.6,3.6,0,0,1,56.9,17.739,4.793,4.793,0,0,1,54.862,18.166Zm-.274-7.379a1.5,1.5,0,0,0-1.158.484,2.5,2.5,0,0,0-.569,1.384H56.2v-.192a1.786,1.786,0,0,0-.432-1.238A1.547,1.547,0,0,0,54.588,10.787Zm7.537-1.768.075,1.038a3.136,3.136,0,0,1,2.582-1.2,2.606,2.606,0,0,1,2.125.838A3.912,3.912,0,0,1,67.62,12.2V18h-2.4V12.256a1.556,1.556,0,0,0-.332-1.108,1.486,1.486,0,0,0-1.1-.344,1.65,1.65,0,0,0-1.519.863V18h-2.4V9.019Zm11.447,9.147a4.409,4.409,0,0,1-3.217-1.212,4.308,4.308,0,0,1-1.241-3.229v-.232a5.426,5.426,0,0,1,.523-2.42,3.838,3.838,0,0,1,1.482-1.644,4.159,4.159,0,0,1,2.187-.577,3.727,3.727,0,0,1,2.9,1.162,4.722,4.722,0,0,1,1.058,3.3v.979H71.546a2.229,2.229,0,0,0,.7,1.411,2.12,2.12,0,0,0,1.482.531,2.589,2.589,0,0,0,2.167-1l1.179,1.32a3.6,3.6,0,0,1-1.461,1.191A4.793,4.793,0,0,1,73.572,18.166ZM73.3,10.787a1.5,1.5,0,0,0-1.158.484,2.5,2.5,0,0,0-.569,1.384h3.337v-.192a1.786,1.786,0,0,0-.432-1.238A1.547,1.547,0,0,0,73.3,10.787Zm10.376.481a6.517,6.517,0,0,0-.863-.066,1.757,1.757,0,0,0-1.785.921V18h-2.4V9.019h2.266l.066,1.071a2.223,2.223,0,0,1,2-1.237,2.514,2.514,0,0,1,.747.108Z" transform="translate(18.999 13.642)" fill="#12263f"/>
      <path id="Trazado_214008" data-name="Trazado 214008" d="M-.808,1.311H26.244V7.625H-4Z" transform="translate(118.049 42.396)" fill="#7f8a9c"/>
    </g>
  </g>
</svg>
