<svg xmlns="http://www.w3.org/2000/svg" xmlns:xlink="http://www.w3.org/1999/xlink" width="258.796" height="244.163" viewBox="0 0 258.796 244.163">
  <defs>
    <clipPath id="clip-path">
      <rect id="Rectángulo_298844" data-name="Rectángulo 298844" width="258.796" height="244.163" fill="none"/>
    </clipPath>
    <clipPath id="clip-path-3">
      <rect id="Rectángulo_298800" data-name="Rectángulo 298800" width="149.71" height="148.714" fill="none"/>
    </clipPath>
    <clipPath id="clip-path-4">
      <rect id="Rectángulo_298801" data-name="Rectángulo 298801" width="131.387" height="216.856" fill="none"/>
    </clipPath>
  </defs>
  <g id="Grupo_880688" data-name="Grupo 880688" transform="translate(0)">
    <g id="Grupo_880687" data-name="Grupo 880687" transform="translate(0)" clip-path="url(#clip-path)">
      <g id="Grupo_880686" data-name="Grupo 880686">
        <g id="Grupo_880685" data-name="Grupo 880685" clip-path="url(#clip-path)">
          <path id="Trazado_594747" data-name="Trazado 594747" d="M129.4,799.7c71.27,0,129.4-8.417,129.4-18.737S200.668,762.23,129.4,762.23,0,770.647,0,780.967,58.128,799.7,129.4,799.7" transform="translate(0 -555.542)" fill="#f2f2f4" fill-rule="evenodd"/>
          <path id="Trazado_594748" data-name="Trazado 594748" d="M139.131,248.815c59.721,0,108.43-48.709,108.43-108.43s-48.709-108.43-108.43-108.43S30.7,80.664,30.7,140.385s48.709,108.43,108.43,108.43" transform="translate(-22.376 -23.29)" fill="#d7e7f3" fill-rule="evenodd"/>
          <path id="Trazado_594749" data-name="Trazado 594749" d="M413.321,54.676A108.631,108.631,0,0,1,482.979,132.9a1.5,1.5,0,0,1-.216.616c-1.157,1.157-3.471-6.889-4.1-8.572s-1.735-3.313-2.1-5.417-1.05-2.734-3-4.207-3.682-5.1-4.733-6.627-2.367.053-4-.211-2.682-2.261-3.471-2.84-2.788.368-4.26-.527-3-2.524-4.208-2.84,1.789,3.419,2.841,4.313a46.385,46.385,0,0,0,4.207,3.628c.841.421,2.261.106,4.365,1.052s2.156.894,2.1,2.472-.684,2.1-.42,5.048-3.05,4.839-4.522,6.206-2.63,4.207-3.576,5.89,1.367,2,3.155,1.577,2.42,3.05,1.683,6.732a22.174,22.174,0,0,1-3.786,8.836c-1.578,2.1-6.1,7.152-7.258,9.887s-2.1,8.31-1.472,11.15-.211,4.417-.842,7.888-1.472,4.523-3.681,5.575-4.944,5.154-5.785,8.624-.527,4.628-3.576,5.47-4.576,5.889-5.943,7.887-5.154,4.26-6.521,4.26-4.733,1.42-6.574,2.261-3.787-2.314-3.524-4.26-.893-2.42-2.05-4.734a23.633,23.633,0,0,1-1.736-9.15c0-2.84-.736-2.315-2.314-6.627s.947-8.94,2.1-10.939.211-1.893-.105-2.945-.21-2.314.211-6.626-5.364-6.1-6.627-10.2,1.895-8.047,1.107-9.2a7.049,7.049,0,0,0-4.628-2.419c-1.946-.262-2.84,0-3.84-2.524s-3.628-1.051-4.522-1.051a31.04,31.04,0,0,0-6.732,2.313,7.4,7.4,0,0,1-4.838.263c-1.315-.263-3.419.474-5.364,1.052s-3.208-.421-5.364-2.683-4-1.946-4.786-3.629.053-2.63-1.367-3.471-4.313-2.368-4.313-3.577-.684-1.894-1.157-4.05,1.946-4.891,2.262-6.258-.525-2.84-1.367-4.313,0-3.155,2.1-4.628,2-3.05,3.681-5.679,2-1.052,4.838-2.735,2.42-2.209,2.525-4.1,2.419-2,4.628-3.787,4.207-1.367,6.942-1.577,4.733-2.63,7.468-2.735,5.785-.105,7.152,0,3.471,1.789,3.051,2.84,2.735,2.1,5.049,2.524,6.1,2.735,7.994,3.366,1.892.736,2.84-1.578,1.893-.946,3.576-.631,1.157.736,5.154,2.419,7.362-.421,9.362-.421.946-6.1-.631-8.52-6.1.211-9.466,0-4.839-4.417-6.206-4.627.631,2.525-1.262,3.681-3.576-1.262-4.839-2.629-1.578-3.366-2.84-2.524-1.894,2.84-2.21,1.893-.946-1.893-4.628-2.314-3.47-3.049-4.417-4-2.314.316-3.787,1.051-3.366-.1-4.523-.1-1.262,2.314-2.735,2.945-1.473,2.209-2.419,4.1-1.263,2.524-4.523,2.314-5.049.631-7.573.21.105-3.576.841-7.362.947-2.1,3.787-1.788,4.311.21,5.574-.526.947-2.419-.42-3.576-1.578-2.1.105-2.63a17.629,17.629,0,0,0,4.733-1.893c2.209-1.263,2.314-1.894,3.786-3.261s3.892-1.263,6.416-.841a11.6,11.6,0,0,0,5.891-.631c1.787-.526,1.893-1.788,2.1-3.366s1.788-1.683,4-2,2.1-2.63,1.578-4.628c-.24-.909.934-2.317,2.286-3.583M390.779,59.79s-1.683,1.052-2.314,1.525.053,2.577,1.946,3.156,2.788-1.525,4-.631,1.42,2.314,3.734,1.893,2.945-1.946,1.84-2.735-1.735-1.421-1.209-2.472,1.157-2.209,2.1-1.735.368,3.366,2.419,3.366,1.578-1.473,3.629-1.473-1-2.841,0-3,1.709-.5-.395-1.263-5.627-.762-6.994-1.367-4.68-.421-5.575.71-.841,1.447-1.841,1.763-1.34,2.261-1.34,2.261m-10.571,4.681c-.842.157-2.946.42-2.524,1.051s1.21,1.578-.053,2.052a6.424,6.424,0,0,0-2.893,1.525c-1.051,1-1.788,1.526-.263,2.262s2.157,1.315,2.893.21.737-2.314,1.473-2.366,1.052.841.894,1.735.894,1.261,3.155,1.42,3.839-1.262,3.05-2.051-3.05-1.42-3.155-2.577.1-2.051-.421-2.472a7.877,7.877,0,0,0-2.156-.789" transform="translate(-260.474 -39.85)" fill="#92c4cf" fill-rule="evenodd"/>
          <g id="Grupo_880681" data-name="Grupo 880681" transform="translate(8.325 8.665)" opacity="0.2">
            <g id="Grupo_880680" data-name="Grupo 880680">
              <g id="Grupo_880679" data-name="Grupo 880679" clip-path="url(#clip-path-3)">
                <path id="Trazado_594750" data-name="Trazado 594750" d="M147.078,32.247A82.284,82.284,0,1,1,30.833,145.738q-.13-2.66-.132-5.352a108.429,108.429,0,0,1,108.43-108.43q4.01,0,7.947.291" transform="translate(-30.701 -31.956)" fill="#fff" fill-rule="evenodd"/>
              </g>
            </g>
          </g>
          <path id="Trazado_594751" data-name="Trazado 594751" d="M41.578,341.086s-.945-.945-3.07-2.952-6.021,6.731-5.9,10.508-.709,9.092-1.181,12.751.236,17.238,4.132,23.968,8.382,15.584,9.563,20.661,8.383,19.836,12.043,25.621,9.621,10.3,12.927,13.02,2.163.114,1.1-3.664-4.582-5.931-3.52-7.7.236-3.542-.354-4.959,1.181-1.3,1.417-3.9-.354-4.25,0-6.494a18.868,18.868,0,0,0,.354-5.785c-.236-2.362,2.361-6.848,3.542-6.848s4.6-.944,4.959-4.369-1.771-12.513,0-14.992S82.9,378.87,82.9,375.682s-1.889-2.715-4.369-5.431-4.25-4.014-6.848-4.014a14.218,14.218,0,0,1-7.32-2.715c-1.3-1.063-3.9-1.18-5.549-.826s-3.069-1.535-2.479-2.362,2.242-3.07,1.653-4.841.591-2.716-1.653-4.723-3.867-1.093-4.6-1.565-2.687-.206-4.222-3.984-1.535-5.2-3.07-5.077a7.182,7.182,0,0,0-2.861.941" transform="translate(-22.809 -246.229)" fill="#92c4cf" fill-rule="evenodd"/>
          <path id="Trazado_594752" data-name="Trazado 594752" d="M264.424,762.6c-.579-2.1-.678-4.121,1.676-2.844,4.324,2.347,18.409,6.8,23.474,7.66s8.526-1.359,10.5-2.471,7.042-1.359,11.49-1.236,9.637.742,12.356-.246,9.76-1.36,11.613-1.36,1.976-2.471-1.113-4.2,3.83-2.347,6.672-1.235,3.583.74,5.436-.866,3.212.866,3.089,2.595,3.582.989,7.661-1.359,16.555-7.66,16.679-6.8a2.346,2.346,0,0,1-.222.741A108.545,108.545,0,0,1,264.424,762.6" transform="translate(-192.469 -546.739)" fill="#ebfff8" fill-rule="evenodd"/>
          <path id="Trazado_594753" data-name="Trazado 594753" d="M71.048,138.7c.678-.886,1.88-2.749,3.312-4.786a31.844,31.844,0,0,1,5.312-6.206c1.736-1.578,4-6.206,7.677-8.625s6.1-3.577,8.52-4.208.63-2.419,2.209-3.365-.21-2.1,1.788-2.314,3.155-.105,4.839-.841a11.99,11.99,0,0,0,4.943-3.576c1.052-1.578.736-3.471,2-4.418s1.262-1.156.841-3.155a3.662,3.662,0,0,0-2.339-2.378,108.922,108.922,0,0,0-39.1,43.872" transform="translate(-51.782 -69.115)" fill="#92c4cf" fill-rule="evenodd"/>
          <path id="Trazado_594754" data-name="Trazado 594754" d="M327.8,33.013a30,30,0,0,1-6.7,5.532c-6.1,3.576-13.463,6.732-9.782,7.573s12.2-5.891,15.778-5.575,5.364-.736,8.625-2.63,7.679-3.471,10.835-2.734,10.727,2,9.992-.421a16.184,16.184,0,0,0-.726-2.036,108.929,108.929,0,0,0-28.021.291" transform="translate(-226.181 -23.291)" fill="#ebfff8" fill-rule="evenodd"/>
          <g id="Grupo_880684" data-name="Grupo 880684" transform="translate(93.797 8.669)" opacity="0.3" style="mix-blend-mode: multiply;isolation: isolate">
            <g id="Grupo_880683" data-name="Grupo 880683">
              <g id="Grupo_880682" data-name="Grupo 880682" clip-path="url(#clip-path-4)">
                <path id="Trazado_594755" data-name="Trazado 594755" d="M345.907,246.382c51.745-9.863,90.8-54.316,90.8-107.675,0-50.45-34.911-92.939-82.453-105.758a109.442,109.442,0,0,1,14.316-.98,115.893,115.893,0,0,1,19.55,1.7,108.445,108.445,0,1,1-42.21,212.712" transform="translate(-345.907 -31.969)" fill="#b2dad9" fill-rule="evenodd"/>
              </g>
            </g>
          </g>
          <path id="Trazado_594756" data-name="Trazado 594756" d="M685.343,0a16.333,16.333,0,0,0-16.424,16.218c0,8.9,12.353,34.095,16.011,43.135,3.382-8.006,16.839-33.611,16.839-43.135A16.289,16.289,0,0,0,685.343,0" transform="translate(-487.533)" fill="#ff8859" fill-rule="evenodd"/>
          <path id="Trazado_594757" data-name="Trazado 594757" d="M707.229,44.31a8.282,8.282,0,1,1,8.352-8.282,8.307,8.307,0,0,1-8.352,8.282" transform="translate(-509.419 -20.222)" fill="#fff" fill-rule="evenodd"/>
          <path id="Trazado_594758" data-name="Trazado 594758" d="M753.591,77.21a.285.285,0,0,0-.553-.138c-1.311,4.348-2.83,8.559-4.486,12.7-1.657,4.072-3.45,8.007-5.313,11.941,0,.137,0,.275.137.345a.253.253,0,0,0,.345-.139c1.863-3.864,3.658-7.867,5.313-11.939,1.657-4.142,3.175-8.351,4.556-12.769" transform="translate(-541.7 -56.023)" fill="#ef4b4b" fill-rule="evenodd"/>
          <path id="Trazado_594759" data-name="Trazado 594759" d="M633.224,340.444a7.412,7.412,0,0,0-7.454,7.36c0,4.041,5.606,15.474,7.266,19.576,1.535-3.633,7.642-15.254,7.642-19.576a7.393,7.393,0,0,0-7.454-7.36" transform="translate(-456.085 -248.129)" fill="#ff8859" fill-rule="evenodd"/>
          <path id="Trazado_594760" data-name="Trazado 594760" d="M643.157,360.553a3.759,3.759,0,1,1,3.79-3.759,3.77,3.77,0,0,1-3.79,3.759" transform="translate(-466.017 -257.306)" fill="#fff" fill-rule="evenodd"/>
          <path id="Trazado_594761" data-name="Trazado 594761" d="M664.2,375.485a.129.129,0,0,0-.251-.063c-.595,1.973-1.285,3.885-2.036,5.763-.752,1.848-1.566,3.634-2.411,5.419,0,.062,0,.125.062.157a.115.115,0,0,0,.157-.063c.845-1.754,1.66-3.571,2.411-5.419.752-1.88,1.442-3.79,2.068-5.795" transform="translate(-480.668 -273.554)" fill="#ef4b4b" fill-rule="evenodd"/>
          <path id="Trazado_594762" data-name="Trazado 594762" d="M102.639,421.758a7.413,7.413,0,0,0-7.454,7.361c0,4.04,5.606,15.474,7.266,19.576,1.535-3.633,7.642-15.253,7.642-19.576a7.393,7.393,0,0,0-7.454-7.361" transform="translate(-69.374 -307.393)" fill="#ff8859" fill-rule="evenodd"/>
          <path id="Trazado_594763" data-name="Trazado 594763" d="M112.572,441.868a3.759,3.759,0,1,1,3.791-3.759,3.77,3.77,0,0,1-3.791,3.759" transform="translate(-79.308 -316.572)" fill="#fff" fill-rule="evenodd"/>
          <path id="Trazado_594764" data-name="Trazado 594764" d="M133.612,456.8a.129.129,0,0,0-.251-.062c-.595,1.973-1.285,3.884-2.036,5.763-.752,1.848-1.566,3.633-2.411,5.419,0,.062,0,.125.062.156a.115.115,0,0,0,.157-.063c.846-1.754,1.66-3.57,2.411-5.419.752-1.88,1.441-3.79,2.068-5.795" transform="translate(-93.957 -332.818)" fill="#ef4b4b" fill-rule="evenodd"/>
          <path id="Trazado_594765" data-name="Trazado 594765" d="M157.761,21.193a9.61,9.61,0,0,0-9.664,9.543c0,5.238,7.268,20.061,9.42,25.38,1.991-4.711,9.908-19.776,9.908-25.38a9.584,9.584,0,0,0-9.664-9.543" transform="translate(-107.939 -15.446)" fill="#ff8859" fill-rule="evenodd"/>
          <path id="Trazado_594766" data-name="Trazado 594766" d="M170.638,47.265a4.873,4.873,0,1,1,4.914-4.873,4.887,4.887,0,0,1-4.914,4.873" transform="translate(-120.816 -27.345)" fill="#fff" fill-rule="evenodd"/>
          <path id="Trazado_594767" data-name="Trazado 594767" d="M197.915,66.622a.168.168,0,0,0-.325-.081c-.771,2.558-1.665,5.036-2.64,7.472-.975,2.4-2.03,4.711-3.126,7.026,0,.081,0,.162.081.2a.149.149,0,0,0,.2-.081c1.1-2.274,2.152-4.629,3.126-7.025.975-2.437,1.869-4.913,2.681-7.513" transform="translate(-139.809 -48.409)" fill="#ef4b4b" fill-rule="evenodd"/>
          <rect id="Rectángulo_298802" data-name="Rectángulo 298802" width="56.311" height="28.383" transform="translate(108.411 179.724)" fill="#96554c"/>
          <rect id="Rectángulo_298803" data-name="Rectángulo 298803" width="56.314" height="1.923" transform="translate(108.411 182.109)" fill="#8c4b42"/>
          <rect id="Rectángulo_298804" data-name="Rectángulo 298804" width="56.314" height="1.926" transform="translate(108.411 186.418)" fill="#8c4b42"/>
          <rect id="Rectángulo_298805" data-name="Rectángulo 298805" width="56.314" height="1.926" transform="translate(108.411 190.726)" fill="#8c4b42"/>
          <rect id="Rectángulo_298806" data-name="Rectángulo 298806" width="56.314" height="1.926" transform="translate(108.411 195.037)" fill="#8c4b42"/>
          <rect id="Rectángulo_298807" data-name="Rectángulo 298807" width="56.314" height="1.926" transform="translate(108.411 199.346)" fill="#8c4b42"/>
          <rect id="Rectángulo_298808" data-name="Rectángulo 298808" width="56.314" height="1.926" transform="translate(108.411 203.657)" fill="#8c4b42"/>
          <path id="Trazado_594768" data-name="Trazado 594768" d="M678.351,425.625a.783.783,0,0,1,.781.782v40.432a.781.781,0,0,1-1.562,0V426.407a.783.783,0,0,1,.781-.782" transform="translate(-493.838 -310.212)" fill="#564875" fill-rule="evenodd"/>
          <path id="Trazado_594769" data-name="Trazado 594769" d="M671.142,438.791h3.182a1.279,1.279,0,1,1,0,2.558h-3.182a1.279,1.279,0,1,1,0-2.558" transform="translate(-488.22 -319.808)" fill="#564875" fill-rule="evenodd"/>
          <path id="Trazado_594770" data-name="Trazado 594770" d="M670.645,455.62h-9.939a.527.527,0,1,0,0,1.054h9.939a.527.527,0,1,0,0-1.054" transform="translate(-481.162 -332.073)" fill="#564875" fill-rule="evenodd"/>
          <path id="Trazado_594771" data-name="Trazado 594771" d="M670.645,468.139h-9.939a.527.527,0,1,0,0,1.053h9.939a.527.527,0,1,0,0-1.053" transform="translate(-481.162 -341.198)" fill="#564875" fill-rule="evenodd"/>
          <rect id="Rectángulo_298809" data-name="Rectángulo 298809" width="29.847" height="14.448" transform="translate(78.848 185.919)" fill="#b3abd1"/>
          <rect id="Rectángulo_298810" data-name="Rectángulo 298810" width="29.844" height="1.022" transform="translate(78.834 187.791)" fill="#9f95c2"/>
          <rect id="Rectángulo_298811" data-name="Rectángulo 298811" width="29.844" height="1.019" transform="translate(78.834 190.094)" fill="#9f95c2"/>
          <rect id="Rectángulo_298812" data-name="Rectángulo 298812" width="29.844" height="1.019" transform="translate(78.834 192.396)" fill="#9f95c2"/>
          <rect id="Rectángulo_298813" data-name="Rectángulo 298813" width="29.844" height="1.02" transform="translate(78.834 194.699)" fill="#9f95c2"/>
          <rect id="Rectángulo_298814" data-name="Rectángulo 298814" width="29.844" height="1.022" transform="translate(78.834 196.999)" fill="#9f95c2"/>
          <rect id="Rectángulo_298815" data-name="Rectángulo 298815" width="29.844" height="1.02" transform="translate(78.834 199.302)" fill="#9f95c2"/>
          <rect id="Rectángulo_298816" data-name="Rectángulo 298816" width="29.847" height="15.042" transform="translate(78.848 171.469)" fill="#ff8859"/>
          <rect id="Rectángulo_298817" data-name="Rectángulo 298817" width="29.847" height="1.022" transform="translate(78.848 172.731)" fill="#f17255"/>
          <rect id="Rectángulo_298818" data-name="Rectángulo 298818" width="29.847" height="1.022" transform="translate(78.848 175.015)" fill="#f17255"/>
          <rect id="Rectángulo_298819" data-name="Rectángulo 298819" width="29.847" height="1.02" transform="translate(78.848 177.3)" fill="#f17255"/>
          <rect id="Rectángulo_298820" data-name="Rectángulo 298820" width="29.847" height="1.02" transform="translate(78.848 179.585)" fill="#f17255"/>
          <rect id="Rectángulo_298821" data-name="Rectángulo 298821" width="29.847" height="1.02" transform="translate(78.848 181.869)" fill="#f17255"/>
          <rect id="Rectángulo_298822" data-name="Rectángulo 298822" width="29.847" height="1.022" transform="translate(78.848 184.151)" fill="#f17255"/>
          <path id="Trazado_594772" data-name="Trazado 594772" d="M663.112,574.609h36.918v27.069h10.495v10.548H700.029v15.7H663.112Z" transform="translate(-483.301 -418.797)" fill="#b3abd1" fill-rule="evenodd"/>
          <path id="Trazado_594773" data-name="Trazado 594773" d="M629.107,573.668h46.758q.021,4.7.049,9.407H638.1c-4.779-.961-9.023-4.462-9-9.407" transform="translate(-458.516 -418.111)" fill="#74698b" fill-rule="evenodd"/>
          <path id="Trazado_594774" data-name="Trazado 594774" d="M710.77,502.822,737.841,502l-2.457,9.092v10.341H710.77Z" transform="translate(-518.036 -365.877)" fill="#f17255" fill-rule="evenodd"/>
          <path id="Trazado_594775" data-name="Trazado 594775" d="M710.77,502.822,737.841,502l-2.457,9.092-24.614-.2Z" transform="translate(-518.036 -365.877)" fill="#f17255" fill-rule="evenodd"/>
          <rect id="Rectángulo_298823" data-name="Rectángulo 298823" width="6.973" height="6.154" transform="translate(47.259 183.877)" fill="#564875"/>
          <rect id="Rectángulo_298824" data-name="Rectángulo 298824" width="2.285" height="28.3" transform="translate(49.715 155.577)" fill="#564875"/>
          <rect id="Rectángulo_298825" data-name="Rectángulo 298825" width="11.692" height="5.109" transform="translate(28.873 185.284)" fill="#74698b"/>
          <rect id="Rectángulo_298826" data-name="Rectángulo 298826" width="10.362" height="5.968" transform="translate(62.688 184.02)" fill="#74698b"/>
          <rect id="Rectángulo_298827" data-name="Rectángulo 298827" width="6.774" height="7.492" transform="translate(86.739 193.746)" fill="#74698b"/>
          <rect id="Rectángulo_298828" data-name="Rectángulo 298828" width="6.773" height="7.492" transform="translate(100 193.746)" fill="#74698b"/>
          <rect id="Rectángulo_298829" data-name="Rectángulo 298829" width="6.771" height="7.492" transform="translate(113.197 193.746)" fill="#74698b"/>
          <rect id="Rectángulo_298830" data-name="Rectángulo 298830" width="6.771" height="7.492" transform="translate(125.698 193.746)" fill="#74698b"/>
          <rect id="Rectángulo_298831" data-name="Rectángulo 298831" width="6.771" height="7.492" transform="translate(138.198 193.746)" fill="#74698b"/>
          <rect id="Rectángulo_298832" data-name="Rectángulo 298832" width="6.771" height="7.492" transform="translate(150.242 193.746)" fill="#74698b"/>
          <rect id="Rectángulo_298833" data-name="Rectángulo 298833" width="6.771" height="7.492" transform="translate(163.143 193.746)" fill="#74698b"/>
          <path id="Trazado_594776" data-name="Trazado 594776" d="M148.709,697.74l5.736,10.906,103.173-.108q2.144-3.636,4.294-7.272l43.4.093s-2.386,11.389-9.77,17.133-18.969,12.448-19.785,15.728c-2.393.245-163.966-.142-163.966-.142s4.923-8.2,2.463-11.485c-1.756-2.339-10.592-16.761-15.525-24.854Z" transform="translate(-71.957 -508.539)" fill="#74698b" fill-rule="evenodd"/>
          <path id="Trazado_594777" data-name="Trazado 594777" d="M160.628,718.016l.866,1.642H112.12l-1.006-1.642Z" transform="translate(-80.984 -523.317)" fill="#f1f3f2" fill-rule="evenodd"/>
          <path id="Trazado_594778" data-name="Trazado 594778" d="M316.107,812.578c-2.837,2.145-4.913,4.019-5.244,5.341-2.393.246-163.965-.142-163.965-.142a30.528,30.528,0,0,0,2.4-5.2Z" transform="translate(-107.065 -592.238)" fill="#564875" fill-rule="evenodd"/>
          <path id="Trazado_594779" data-name="Trazado 594779" d="M789.111,733.347a2.857,2.857,0,1,0-2.858-2.857,2.862,2.862,0,0,0,2.858,2.857" transform="translate(-573.051 -530.326)" fill="#564875" fill-rule="evenodd"/>
          <path id="Trazado_594780" data-name="Trazado 594780" d="M653.381,772.1h-1.429a.786.786,0,0,0-.781.785v2.142a.786.786,0,0,0,.781.785h1.429a.792.792,0,0,0,.788-.785v-2.142a.792.792,0,0,0-.788-.785" transform="translate(-474.598 -562.735)" fill="#564875" fill-rule="evenodd"/>
          <path id="Trazado_594781" data-name="Trazado 594781" d="M616.963,772.1h-1.429a.787.787,0,0,0-.782.785v2.142a.786.786,0,0,0,.782.785h1.429a.787.787,0,0,0,.788-.785v-2.142a.788.788,0,0,0-.788-.785" transform="translate(-448.055 -562.735)" fill="#564875" fill-rule="evenodd"/>
          <path id="Trazado_594782" data-name="Trazado 594782" d="M580.545,772.1h-1.422a.788.788,0,0,0-.789.785v2.142a.787.787,0,0,0,.789.785h1.422a.787.787,0,0,0,.788-.785v-2.142a.788.788,0,0,0-.788-.785" transform="translate(-421.512 -562.735)" fill="#564875" fill-rule="evenodd"/>
          <path id="Trazado_594783" data-name="Trazado 594783" d="M544.126,772.1H542.7a.787.787,0,0,0-.782.785v2.142a.786.786,0,0,0,.782.785h1.429a.787.787,0,0,0,.788-.785v-2.142a.787.787,0,0,0-.788-.785" transform="translate(-394.968 -562.735)" fill="#564875" fill-rule="evenodd"/>
          <path id="Trazado_594784" data-name="Trazado 594784" d="M507.708,772.1h-1.422a.788.788,0,0,0-.789.785v2.142a.787.787,0,0,0,.789.785h1.422a.787.787,0,0,0,.788-.785v-2.142a.788.788,0,0,0-.788-.785" transform="translate(-368.426 -562.735)" fill="#564875" fill-rule="evenodd"/>
          <path id="Trazado_594785" data-name="Trazado 594785" d="M471.3,772.1h-1.429a.792.792,0,0,0-.788.785v2.142a.792.792,0,0,0,.788.785H471.3a.786.786,0,0,0,.781-.785v-2.142a.786.786,0,0,0-.781-.785" transform="translate(-341.884 -562.735)" fill="#564875" fill-rule="evenodd"/>
          <path id="Trazado_594786" data-name="Trazado 594786" d="M434.9,772.1h-1.429a.782.782,0,0,0-.781.785v2.142a.781.781,0,0,0,.781.785H434.9a.786.786,0,0,0,.781-.785v-2.142a.786.786,0,0,0-.781-.785" transform="translate(-315.359 -562.735)" fill="#564875" fill-rule="evenodd"/>
          <path id="Trazado_594787" data-name="Trazado 594787" d="M398.48,772.1h-1.429a.786.786,0,0,0-.781.785v2.142a.786.786,0,0,0,.781.785h1.429a.785.785,0,0,0,.781-.785v-2.142a.786.786,0,0,0-.781-.785" transform="translate(-288.816 -562.735)" fill="#564875" fill-rule="evenodd"/>
          <path id="Trazado_594788" data-name="Trazado 594788" d="M362.043,772.1h-1.429a.792.792,0,0,0-.789.785v2.142a.792.792,0,0,0,.789.785h1.429a.792.792,0,0,0,.788-.785v-2.142a.792.792,0,0,0-.788-.785" transform="translate(-262.255 -562.735)" fill="#564875" fill-rule="evenodd"/>
          <path id="Trazado_594789" data-name="Trazado 594789" d="M325.644,772.1h-1.429a.786.786,0,0,0-.781.785v2.142a.786.786,0,0,0,.781.785h1.429a.781.781,0,0,0,.781-.785v-2.142a.782.782,0,0,0-.781-.785" transform="translate(-235.731 -562.735)" fill="#564875" fill-rule="evenodd"/>
          <path id="Trazado_594790" data-name="Trazado 594790" d="M289.225,772.1H287.8a.786.786,0,0,0-.781.785v2.142a.786.786,0,0,0,.781.785h1.429a.792.792,0,0,0,.788-.785v-2.142a.792.792,0,0,0-.788-.785" transform="translate(-209.187 -562.735)" fill="#564875" fill-rule="evenodd"/>
          <rect id="Rectángulo_298834" data-name="Rectángulo 298834" width="24.609" height="2.589" transform="translate(192.734 145.216)" fill="#b3abd1"/>
          <path id="Trazado_594791" data-name="Trazado 594791" d="M795.7,556.035h-1.309a.871.871,0,0,1-.866-.867v-1.938a.872.872,0,0,1,.866-.867H795.7Z" transform="translate(-578.348 -402.582)" fill="#74698b" fill-rule="evenodd"/>
          <path id="Trazado_594792" data-name="Trazado 594792" d="M774.263,552.362h-1.795a.8.8,0,0,0-.8.8v2.073a.8.8,0,0,0,.8.8h1.795a.8.8,0,0,0,.8-.8v-2.073a.8.8,0,0,0-.8-.8" transform="translate(-562.419 -402.582)" fill="#74698b" fill-rule="evenodd"/>
          <path id="Trazado_594793" data-name="Trazado 594793" d="M775.768,621.924h-1.8a.805.805,0,0,0-.8.8V624.8a.805.805,0,0,0,.8.8h1.8a.806.806,0,0,0,.8-.8v-2.073a.805.805,0,0,0-.8-.8" transform="translate(-563.516 -453.282)" fill="#74698b" fill-rule="evenodd"/>
          <path id="Trazado_594794" data-name="Trazado 594794" d="M743.6,621.924h-1.788a.805.805,0,0,0-.8.8V624.8a.806.806,0,0,0,.8.8H743.6a.8.8,0,0,0,.8-.8v-2.073a.8.8,0,0,0-.8-.8" transform="translate(-540.076 -453.282)" fill="#74698b" fill-rule="evenodd"/>
          <path id="Trazado_594795" data-name="Trazado 594795" d="M711.446,621.924h-1.795a.8.8,0,0,0-.8.8V624.8a.8.8,0,0,0,.8.8h1.795a.8.8,0,0,0,.8-.8v-2.073a.8.8,0,0,0-.8-.8" transform="translate(-516.636 -453.282)" fill="#74698b" fill-rule="evenodd"/>
          <path id="Trazado_594796" data-name="Trazado 594796" d="M679.278,621.924H677.49a.8.8,0,0,0-.8.8V624.8a.8.8,0,0,0,.8.8h1.788a.8.8,0,0,0,.8-.8v-2.073a.8.8,0,0,0-.8-.8" transform="translate(-493.196 -453.282)" fill="#74698b" fill-rule="evenodd"/>
          <path id="Trazado_594797" data-name="Trazado 594797" d="M775.768,648.094h-1.8a.807.807,0,0,0-.8.8v2.075a.808.808,0,0,0,.8.8h1.8a.808.808,0,0,0,.8-.8v-2.075a.807.807,0,0,0-.8-.8" transform="translate(-563.516 -472.356)" fill="#74698b" fill-rule="evenodd"/>
          <path id="Trazado_594798" data-name="Trazado 594798" d="M743.6,648.094h-1.788a.807.807,0,0,0-.8.8v2.075a.808.808,0,0,0,.8.8H743.6a.8.8,0,0,0,.8-.8v-2.075a.8.8,0,0,0-.8-.8" transform="translate(-540.076 -472.356)" fill="#74698b" fill-rule="evenodd"/>
          <path id="Trazado_594799" data-name="Trazado 594799" d="M711.446,648.094h-1.795a.8.8,0,0,0-.8.8v2.075a.8.8,0,0,0,.8.8h1.795a.8.8,0,0,0,.8-.8v-2.075a.8.8,0,0,0-.8-.8" transform="translate(-516.636 -472.356)" fill="#74698b" fill-rule="evenodd"/>
          <path id="Trazado_594800" data-name="Trazado 594800" d="M679.278,648.094H677.49a.8.8,0,0,0-.8.8v2.075a.8.8,0,0,0,.8.8h1.788a.8.8,0,0,0,.8-.8v-2.075a.8.8,0,0,0-.8-.8" transform="translate(-493.196 -472.356)" fill="#74698b" fill-rule="evenodd"/>
          <path id="Trazado_594801" data-name="Trazado 594801" d="M752.218,552.362h-1.795a.8.8,0,0,0-.8.8v2.073a.8.8,0,0,0,.8.8h1.795a.8.8,0,0,0,.8-.8v-2.073a.8.8,0,0,0-.8-.8" transform="translate(-546.357 -402.582)" fill="#74698b" fill-rule="evenodd"/>
          <path id="Trazado_594802" data-name="Trazado 594802" d="M730.161,552.362h-1.795a.8.8,0,0,0-.8.8v2.073a.8.8,0,0,0,.8.8h1.795a.8.8,0,0,0,.8-.8v-2.073a.8.8,0,0,0-.8-.8" transform="translate(-530.276 -402.582)" fill="#74698b" fill-rule="evenodd"/>
          <path id="Trazado_594803" data-name="Trazado 594803" d="M711.938,552.362H710.77v3.673h1.168a.8.8,0,0,0,.8-.8v-2.073a.8.8,0,0,0-.8-.8" transform="translate(-518.036 -402.582)" fill="#74698b" fill-rule="evenodd"/>
          <path id="Trazado_594804" data-name="Trazado 594804" d="M653.762,668.588h47.405v-3.3H653.762Zm47.63.439H653.543a.22.22,0,0,1-.218-.22v-3.743a.219.219,0,0,1,.218-.218h47.849a.219.219,0,0,1,.218.218v3.743a.219.219,0,0,1-.218.22" transform="translate(-476.168 -484.566)" fill="#564875" fill-rule="evenodd"/>
          <path id="Trazado_594805" data-name="Trazado 594805" d="M810.04,668.437,810,665.646l.514-.008.035,2.791Z" transform="translate(-590.362 -485.142)" fill="#564875" fill-rule="evenodd"/>
          <path id="Trazado_594806" data-name="Trazado 594806" d="M790.423,668.437l-.042-2.791.521-.008.035,2.791Z" transform="translate(-576.059 -485.142)" fill="#564875" fill-rule="evenodd"/>
          <path id="Trazado_594807" data-name="Trazado 594807" d="M770.819,668.437l-.035-2.791.514-.008.035,2.791Z" transform="translate(-561.776 -485.142)" fill="#564875" fill-rule="evenodd"/>
          <path id="Trazado_594808" data-name="Trazado 594808" d="M751.194,668.437l-.036-2.791.521-.008.035,2.791Z" transform="translate(-547.473 -485.142)" fill="#564875" fill-rule="evenodd"/>
          <path id="Trazado_594809" data-name="Trazado 594809" d="M731.6,668.437l-.035-2.791.514-.008.035,2.791Z" transform="translate(-533.189 -485.142)" fill="#564875" fill-rule="evenodd"/>
          <path id="Trazado_594810" data-name="Trazado 594810" d="M711.973,668.437l-.035-2.791.514-.008.035,2.791Z" transform="translate(-518.887 -485.142)" fill="#564875" fill-rule="evenodd"/>
          <path id="Trazado_594811" data-name="Trazado 594811" d="M692.369,668.437l-.028-2.791.513-.008.035,2.791Z" transform="translate(-504.604 -485.142)" fill="#564875" fill-rule="evenodd"/>
          <path id="Trazado_594812" data-name="Trazado 594812" d="M672.751,668.437l-.035-2.791.514-.008.035,2.791Z" transform="translate(-490.301 -485.142)" fill="#564875" fill-rule="evenodd"/>
          <rect id="Rectángulo_298835" data-name="Rectángulo 298835" width="52.037" height="2.599" transform="translate(175.187 182.881)" fill="#564875"/>
          <rect id="Rectángulo_298836" data-name="Rectángulo 298836" width="56.314" height="27.265" transform="translate(108.601 152.725)" fill="#ffc967"/>
          <rect id="Rectángulo_298837" data-name="Rectángulo 298837" width="56.314" height="1.926" transform="translate(108.573 156.26)" fill="#fcbe59"/>
          <rect id="Rectángulo_298838" data-name="Rectángulo 298838" width="56.314" height="1.926" transform="translate(108.573 160.603)" fill="#fcbe59"/>
          <rect id="Rectángulo_298839" data-name="Rectángulo 298839" width="56.314" height="1.926" transform="translate(108.573 164.946)" fill="#fcbe59"/>
          <rect id="Rectángulo_298840" data-name="Rectángulo 298840" width="56.314" height="1.926" transform="translate(108.573 169.29)" fill="#fcbe59"/>
          <rect id="Rectángulo_298841" data-name="Rectángulo 298841" width="56.314" height="1.926" transform="translate(108.573 173.632)" fill="#fcbe59"/>
          <rect id="Rectángulo_298842" data-name="Rectángulo 298842" width="56.314" height="1.926" transform="translate(108.573 177.976)" fill="#fcbe59"/>
        </g>
      </g>
    </g>
  </g>
</svg>
