<svg xmlns="http://www.w3.org/2000/svg" xmlns:xlink="http://www.w3.org/1999/xlink" width="112" height="112" viewBox="0 0 112 112">
  <defs>
    <clipPath id="clip-path">
      <rect id="Rectángulo_300800" data-name="Rectángulo 300800" width="74.861" height="74.822" fill="none"/>
    </clipPath>
  </defs>
  <g id="Grupo_886476" data-name="Grupo 886476" transform="translate(-744 -5491.475)">
    <circle id="Elipse_6601" data-name="Elipse 6601" cx="56" cy="56" r="56" transform="translate(744 5491.475)" fill="#e1fbff"/>
    <g id="Grupo_886074" data-name="Grupo 886074" transform="translate(763 5510.48)">
      <g id="Grupo_886074-2" data-name="Grupo 886074" clip-path="url(#clip-path)">
        <path id="Trazado_601051" data-name="Trazado 601051" d="M255.185,163.311h0v0" transform="translate(-217.765 -139.364)" fill="#fefefe"/>
        <path id="Trazado_601052" data-name="Trazado 601052" d="M97.147,383.365q0-4.148,0-8.3l0-.01c-.323-.018-.272-.309-.3-.514a12.292,12.292,0,0,0-10.336-10.605,1.757,1.757,0,0,1-.9-.268c0-.014.007-.026.01-.04l-1.023.042v-.042l-.023.016.021.026q0,10.73,0,21.459H95.568a2.867,2.867,0,0,0,1.579-1.768" transform="translate(-72.182 -310.311)" fill="#fd4a60"/>
        <path id="Trazado_601053" data-name="Trazado 601053" d="M91.636,363.67a1.756,1.756,0,0,0,.9.268,12.293,12.293,0,0,1,10.336,10.605c.024.2-.027.5.3.514a3.77,3.77,0,0,1-.111-.482,12.5,12.5,0,0,0-11.39-10.945h-.019c0,.013-.008.025-.01.04" transform="translate(-78.199 -310.31)" fill="#fd4a60"/>
        <path id="Trazado_601054" data-name="Trazado 601054" d="M352.549,363.436h0c-.044-.019-.087-.04-.129-.063l-.586.024c0,.007,0,.014.006.022a1.888,1.888,0,0,1-1.1.3,12.3,12.3,0,0,0-10.3,10.07,1.889,1.889,0,0,1-.287.892c-.02,0-.038-.009-.057-.013v.005c-.2,2.52-.055,5.044-.093,7.566a7.654,7.654,0,0,0,.082.865h0a2.364,2.364,0,0,0,1.646,1.8h10.816q0-10.738.006-21.476" transform="translate(-290.131 -310.091)" fill="#00d56a"/>
        <path id="Trazado_601055" data-name="Trazado 601055" d="M341.077,373.93a12.3,12.3,0,0,1,10.3-10.07,1.888,1.888,0,0,0,1.1-.3c0-.008,0-.014-.006-.021h-.026a12.579,12.579,0,0,0-11.714,11.273c.019,0,.036.01.057.013a1.891,1.891,0,0,0,.287-.892" transform="translate(-290.772 -310.229)" fill="#00d56a"/>
        <path id="Trazado_601056" data-name="Trazado 601056" d="M255.108,363.6l.014.014.006-.029-.019.015" transform="translate(-217.701 -310.274)" fill="#1d9bfc"/>
        <path id="Trazado_601057" data-name="Trazado 601057" d="M267.585,383.6a3.588,3.588,0,0,1-.116-.4,22.409,22.409,0,0,1-.089-3.339q-.028-1.817,0-3.635a1.976,1.976,0,0,1,.343-1.377l0-.007c-.468-.122-.375-.574-.427-.9a11.592,11.592,0,0,0-2.288-5.3,12.056,12.056,0,0,0-7.841-4.746,2.531,2.531,0,0,1-1.117-.279c0-.017,0-.032.007-.047l-.87.03q0,10.74,0,21.479h10.962a3.251,3.251,0,0,0,1.442-1.486" transform="translate(-217.763 -310.268)" fill="#1d9bfc"/>
        <path id="Trazado_601058" data-name="Trazado 601058" d="M261.09,363.625a2.531,2.531,0,0,0,1.117.279,12.056,12.056,0,0,1,7.841,4.746,11.589,11.589,0,0,1,2.288,5.3c.052.322-.042.773.427.9a1.732,1.732,0,0,1-.239-.878,12.48,12.48,0,0,0-11.408-10.388H261.1c0,.015-.005.03-.007.047" transform="translate(-222.806 -310.265)" fill="#1d9bfc"/>
        <path id="Trazado_601059" data-name="Trazado 601059" d="M338.268,445.469a22.407,22.407,0,0,0,.089,3.339,3.575,3.575,0,0,0,.116.4,3.2,3.2,0,0,0,.128-.319h0a7.66,7.66,0,0,1-.082-.865c.038-2.522-.108-5.046.093-7.566a1.977,1.977,0,0,0-.343,1.377q-.028,1.817,0,3.635" transform="translate(-288.652 -375.872)" fill="#1d9bfc"/>
        <path id="Trazado_601060" data-name="Trazado 601060" d="M436.86,384.64a1.819,1.819,0,0,0,.974-1.616,78,78,0,0,0-.129-8.9,12.3,12.3,0,0,0-9.867-10.177,6.024,6.024,0,0,1-1.426-.277.879.879,0,0,1-.015-.094l-.7.031a.466.466,0,0,1,.07.108,2.673,2.673,0,0,1,.106,1.008q0,9.588,0,19.176a1.658,1.658,0,0,1-.235,1.186H436.45c-.024-.3.236-.341.41-.445" transform="translate(-363.223 -310.263)" fill="#00b75e"/>
        <path id="Trazado_601061" data-name="Trazado 601061" d="M442.5,382.314c-.044-.458.006-.923-.009-1.384a61.142,61.142,0,0,0-.137-6.692,12.414,12.414,0,0,0-11.516-10.663h-.006a.871.871,0,0,0,.015.094,6.018,6.018,0,0,0,1.427.277,12.3,12.3,0,0,1,9.867,10.177,78,78,0,0,1,.129,8.9,1.819,1.819,0,0,1-.974,1.616c-.174.1-.434.15-.41.445a2.475,2.475,0,0,0,1.615-2.77" transform="translate(-367.659 -310.263)" fill="#00b75e"/>
        <path id="Trazado_601062" data-name="Trazado 601062" d="M425.869,384.082q.007-9.588,0-19.176a2.681,2.681,0,0,0-.106-1.008.476.476,0,0,0-.07-.108l-.055,0q0,10.738-.006,21.476a1.658,1.658,0,0,0,.235-1.186" transform="translate(-363.223 -310.446)" fill="#00b75e"/>
        <path id="Trazado_601063" data-name="Trazado 601063" d="M182.5,383.909q-.007-9.782,0-19.564a1.622,1.622,0,0,1,.172-.92c.017-.016.035-.027.053-.041l-.05-.053-.508.026c0,.011.007.02.009.032a2.413,2.413,0,0,1-1.252.3,12.314,12.314,0,0,0-10.3,10.383,1.245,1.245,0,0,1-.286.733h-.05v.01h0a.752.752,0,0,1,.244.656c0,2.469.065,4.939-.03,7.406a4.421,4.421,0,0,1-.142.481,2.708,2.708,0,0,0,1.559,1.522h10.816a1.334,1.334,0,0,1-.236-.968" transform="translate(-145.315 -310.055)" fill="#3ab3fa"/>
        <path id="Trazado_601064" data-name="Trazado 601064" d="M170.631,374.22a12.314,12.314,0,0,1,10.3-10.383,2.413,2.413,0,0,0,1.252-.3c0-.011-.006-.021-.01-.032h-.027A12.392,12.392,0,0,0,172.475,369a13.241,13.241,0,0,0-2.181,5.957h.051a1.246,1.246,0,0,0,.286-.733" transform="translate(-145.323 -310.205)" fill="#3ab3fa"/>
        <path id="Trazado_601065" data-name="Trazado 601065" d="M170.336,450.172a4.461,4.461,0,0,0,.141-.481c.094-2.468.031-4.937.029-7.406a.752.752,0,0,0-.244-.656q0,4.148,0,8.3a2.477,2.477,0,0,0,.077.246" transform="translate(-145.294 -376.872)" fill="#3ab3fa"/>
        <path id="Trazado_601066" data-name="Trazado 601066" d="M253.792,363.7h0l-.013-.014c-.018.014-.035.026-.053.041a1.623,1.623,0,0,0-.172.92q-.008,9.782,0,19.564a1.334,1.334,0,0,0,.236.968Q253.79,374.444,253.792,363.7Z" transform="translate(-216.371 -310.362)" fill="#3ab3fa"/>
        <path id="Trazado_601067" data-name="Trazado 601067" d="M12.188,384.113q-.007-9.786,0-19.572a1.581,1.581,0,0,1,.177-.918c.012-.01.025-.017.037-.027l-.02-.025-.666.007,0,.01a1.943,1.943,0,0,1-1.1.305A12.478,12.478,0,0,0,.349,374.169c-.042.252.072.612-.349.681v8.624a3.463,3.463,0,0,0,1.608,1.608H12.424a1.335,1.335,0,0,1-.236-.969" transform="translate(0 -310.26)" fill="#fe7579"/>
        <path id="Trazado_601068" data-name="Trazado 601068" d="M.349,374.207a12.478,12.478,0,0,1,10.27-10.276,1.942,1.942,0,0,0,1.1-.305l0-.01h-.049a12.6,12.6,0,0,0-10.9,8.267c-.349.983-.483,2.011-.767,3.005.421-.069.307-.429.349-.681" transform="translate(0 -310.298)" fill="#fe7579"/>
        <path id="Trazado_601069" data-name="Trazado 601069" d="M83.315,363.741c-.012.009-.025.017-.037.027a1.582,1.582,0,0,0-.177.918q-.009,9.786,0,19.572a1.335,1.335,0,0,0,.236.969V363.767l-.021-.026" transform="translate(-70.912 -310.405)" fill="#fe7579"/>
        <path id="Trazado_601070" data-name="Trazado 601070" d="M153.568,24.02a.06.06,0,0,1,.007-.072h0a2.092,2.092,0,0,1-2.732-.281q-2.377-2.325-4.7-4.706a2.05,2.05,0,0,1,0-3.006,2.05,2.05,0,0,1,3.054-.1c.892.828,1.744,1.7,2.588,2.579.3.315.473.3.712-.056.3-.443.647-.852.974-1.276l.238-.448c-.217-.225-.127-.507-.127-.764q-.007-7.938,0-15.876a14.247,14.247,0,0,0-3.407.315,17.447,17.447,0,0,0,3.407,34.559Q153.571,29.453,153.568,24.02Z" transform="translate(-116.156 0)" fill="#00d56a"/>
        <path id="Trazado_601071" data-name="Trazado 601071" d="M255.187.08a1.148,1.148,0,0,1,.229.891c0,5.175.022,10.35-.009,15.523a.73.73,0,0,1,.012.089c1.241-1.641,2.47-3.29,3.728-4.917a2.143,2.143,0,0,1,3.631-.183,2.008,2.008,0,0,1-.009,2.726c-1.381,1.882-2.792,3.741-4.191,5.609q-1.246,1.664-2.493,3.327a4.19,4.19,0,0,1-.854.9c.011.008.022.013.033.023a.761.761,0,0,1,.1.235c.117,1.845.033,3.69.051,5.534.014,1.384.009,2.768,0,4.151a1.234,1.234,0,0,1-.228.962,15.713,15.713,0,0,0,7.971-1.912,17.079,17.079,0,0,0,9.49-15.6A16.224,16.224,0,0,0,269,6.84,16.983,16.983,0,0,0,255.187.08" transform="translate(-217.768 -0.068)" fill="#00b75e"/>
        <path id="Trazado_601072" data-name="Trazado 601072" d="M255.1,15.956c0,.257-.09.539.127.764l.1-.136a.706.706,0,0,0-.012-.089c.031-5.174.008-10.349.009-15.523A1.148,1.148,0,0,0,255.1.08q0,7.938,0,15.876" transform="translate(-217.68 -0.068)" fill="#00b75e"/>
        <path id="Trazado_601073" data-name="Trazado 601073" d="M255.376,173.479c.01-1.384.015-2.768,0-4.151-.018-1.844.066-3.689-.051-5.534a.766.766,0,0,0-.1-.235.359.359,0,0,0-.033-.023c-.018.013-.033.028-.051.041q0,5.432.007,10.865a1.235,1.235,0,0,0,.228-.962" transform="translate(-217.729 -139.556)" fill="#00b75e"/>
        <path id="Trazado_601074" data-name="Trazado 601074" d="M85.764,272.979c.12-.44.555-.335.852-.413a7.5,7.5,0,0,0,5.4-4.889,7.68,7.68,0,0,0-7.271-10.263h0q0,7.783,0,15.565v.01a.815.815,0,0,1,1.025-.01" transform="translate(-72.314 -219.669)" fill="#f3aa96"/>
        <path id="Trazado_601075" data-name="Trazado 601075" d="M84.772,256.378a7.68,7.68,0,0,1,7.271,10.263,7.5,7.5,0,0,1-5.4,4.889c-.3.078-.732-.027-.852.413l.016.01c.059-.039.114-.106.177-.114a7.857,7.857,0,0,0-1.213-15.632v.171h0" transform="translate(-72.34 -218.633)" fill="#f3aa96"/>
        <path id="Trazado_601076" data-name="Trazado 601076" d="M84.732,362.547c0,.015,0,.043,0,.043l1.023-.042,0-.011a.815.815,0,0,0-1.025.01" transform="translate(-72.307 -309.227)" fill="#f3aa96"/>
        <path id="Trazado_601077" data-name="Trazado 601077" d="M91.707,363.572h.019l-.016-.01,0,.011" transform="translate(-78.26 -310.251)" fill="#f3aa96"/>
        <path id="Trazado_601078" data-name="Trazado 601078" d="M380.33,272.9a1.788,1.788,0,0,0,.094-.871q.006-7.307.007-14.614h0a7.45,7.45,0,0,0-6.754,4,7.234,7.234,0,0,0,.277,7.825,7.463,7.463,0,0,0,5.129,3.419c.234.043.543-.03.632.3a.625.625,0,0,1,.617-.062" transform="translate(-318.014 -219.666)" fill="#f3aa96"/>
        <path id="Trazado_601079" data-name="Trazado 601079" d="M378.914,271.96c-.089-.331-.4-.259-.632-.3a7.463,7.463,0,0,1-5.129-3.42,7.234,7.234,0,0,1-.277-7.825,7.45,7.45,0,0,1,6.754-4h0c0-.057,0-.115,0-.172a7.569,7.569,0,0,0-6.135,2.938,7.8,7.8,0,0,0,2.629,11.975,10.693,10.693,0,0,0,2.765.82h0l.022-.015" transform="translate(-317.216 -218.668)" fill="#f3aa96"/>
        <path id="Trazado_601080" data-name="Trazado 601080" d="M420.772,362.772l0,.014.586-.024c.011-.017.018-.035.027-.052a.624.624,0,0,0-.617.062" transform="translate(-359.073 -309.481)" fill="#f3aa96"/>
        <path id="Trazado_601081" data-name="Trazado 601081" d="M420.641,363.438l-.022.015h.026l0-.014" transform="translate(-358.942 -310.146)" fill="#f3aa96"/>
        <path id="Trazado_601082" data-name="Trazado 601082" d="M255.234,272.938l-.008.042a.685.685,0,0,1,.866-.012c.067-.363.412-.282.65-.332a7.811,7.811,0,0,0,6.177-7.581,7.728,7.728,0,0,0-7.694-7.644h0Q255.229,265.175,255.234,272.938Z" transform="translate(-217.8 -219.666)" fill="#f8bba9"/>
        <path id="Trazado_601083" data-name="Trazado 601083" d="M255.225,256.358A7.728,7.728,0,0,1,262.919,264a7.81,7.81,0,0,1-6.177,7.581c-.238.05-.583-.031-.65.332l.017.01c.26-.239.6-.12.9-.2a7.877,7.877,0,0,0-1.787-15.548c0,.059,0,.118,0,.177h0" transform="translate(-217.799 -218.614)" fill="#f8bba9"/>
        <path id="Trazado_601084" data-name="Trazado 601084" d="M255.206,362.655l-.006.029h0l.87-.03,0-.011a.685.685,0,0,0-.866.012" transform="translate(-217.78 -309.342)" fill="#f8bba9"/>
        <path id="Trazado_601085" data-name="Trazado 601085" d="M261.137,363.518h.019l-.017-.01,0,.011" transform="translate(-222.846 -310.205)" fill="#f8bba9"/>
        <path id="Trazado_601086" data-name="Trazado 601086" d="M255.2,363.787Z" transform="translate(-217.78 -310.444)" fill="#f8bba9"/>
        <path id="Trazado_601087" data-name="Trazado 601087" d="M210.373,272.959a1.146,1.146,0,0,1-.249-.954q-.012-6.893,0-13.787a1.653,1.653,0,0,1,.112-.782,7.667,7.667,0,0,0-1.142,15.235c.251.042.582-.039.692.3a.453.453,0,0,1,.5-.025l.013.014Z" transform="translate(-172.939 -219.687)" fill="#fecebd"/>
        <path id="Trazado_601088" data-name="Trazado 601088" d="M208.916,271.922c-.11-.343-.44-.262-.692-.3a7.667,7.667,0,0,1,1.142-15.235.759.759,0,0,1,.128-.181,7.873,7.873,0,0,0-4.682,14.173,9.146,9.146,0,0,0,4.081,1.563l.022-.016" transform="translate(-172.071 -218.636)" fill="#fecebd"/>
        <path id="Trazado_601089" data-name="Trazado 601089" d="M251.274,362.9l0,.015.508-.026-.013-.014a.453.453,0,0,0-.5.025" transform="translate(-214.429 -309.611)" fill="#fecebd"/>
        <path id="Trazado_601090" data-name="Trazado 601090" d="M251.149,363.422l0-.015-.022.016h.027" transform="translate(-214.3 -310.12)" fill="#fecebd"/>
        <path id="Trazado_601091" data-name="Trazado 601091" d="M253.558,258.2q-.009,6.893,0,13.787a1.146,1.146,0,0,0,.249.954q-.005-7.763-.01-15.527c-.043,0-.085,0-.128,0a1.652,1.652,0,0,0-.112.782" transform="translate(-216.375 -219.666)" fill="#fecebd"/>
        <path id="Trazado_601092" data-name="Trazado 601092" d="M254.477,256.38q0-.089,0-.177a.764.764,0,0,0-.128.181c.043,0,.085,0,.128,0" transform="translate(-217.053 -218.636)" fill="#fecebd"/>
        <path id="Trazado_601093" data-name="Trazado 601093" d="M425.508,258.234q.009,6.851,0,13.7c0,.357.057.753-.292,1a.456.456,0,0,1,.1.078.532.532,0,0,1,.723-.012c-.038-.4.361-.263.561-.307a7.563,7.563,0,0,0,5.985-5.388,7.672,7.672,0,0,0-7.18-9.863,1.683,1.683,0,0,1,.1.789" transform="translate(-362.864 -219.695)" fill="#e69984"/>
        <path id="Trazado_601094" data-name="Trazado 601094" d="M425.788,256.384a7.672,7.672,0,0,1,7.18,9.863,7.563,7.563,0,0,1-5.985,5.388c-.2.044-.6-.1-.561.307l.006,0c.292-.228.653-.11.98-.193a7.873,7.873,0,0,0-1.743-15.546h0a.74.74,0,0,1,.123.176" transform="translate(-363.249 -218.635)" fill="#e69984"/>
        <path id="Trazado_601095" data-name="Trazado 601095" d="M424.856,363.1c-.02.014-.04.028-.062.04q.063.034.129.063l.033-.026a.457.457,0,0,0-.1-.078" transform="translate(-362.506 -309.856)" fill="#e69984"/>
        <path id="Trazado_601096" data-name="Trazado 601096" d="M425.9,362.767l.022.024.7-.031v0a.532.532,0,0,0-.723.012" transform="translate(-363.448 -309.447)" fill="#e69984"/>
        <path id="Trazado_601097" data-name="Trazado 601097" d="M430.832,363.551h.006l-.006,0v0" transform="translate(-367.658 -310.239)" fill="#e69984"/>
        <path id="Trazado_601098" data-name="Trazado 601098" d="M425.707,363.627c-.011.009-.022.016-.033.026l.055,0-.022-.024" transform="translate(-363.257 -310.308)" fill="#e69984"/>
        <path id="Trazado_601099" data-name="Trazado 601099" d="M424.981,272.9l.034.012h0c.349-.249.291-.645.292-1q.015-6.851,0-13.7a1.683,1.683,0,0,0-.1-.789c-.041,0-.082,0-.123,0q0,7.307-.007,14.614a1.788,1.788,0,0,1-.094.871" transform="translate(-362.665 -219.666)" fill="#e69984"/>
        <path id="Trazado_601100" data-name="Trazado 601100" d="M425.788,256.417a.741.741,0,0,0-.123-.176v.172c.041,0,.082,0,.123,0" transform="translate(-363.249 -218.668)" fill="#e69984"/>
        <path id="Trazado_601101" data-name="Trazado 601101" d="M424.855,363.029l-.034-.012c-.009.017-.017.035-.027.052.022-.013.042-.027.062-.04h0" transform="translate(-362.506 -309.787)" fill="#e69984"/>
        <path id="Trazado_601102" data-name="Trazado 601102" d="M40.476,273.013a1.239,1.239,0,0,1-.236-.965q-.01-6.9,0-13.808a1.631,1.631,0,0,1,.112-.787,7.678,7.678,0,0,0-1.363,15.2c.271.058.637-.028.768.341a.568.568,0,0,1,.642-.021l.035.043h.043Z" transform="translate(-28.05 -219.702)" fill="#f8bba9"/>
        <path id="Trazado_601103" data-name="Trazado 601103" d="M38.693,271.837c-.131-.368-.5-.283-.768-.341a7.678,7.678,0,0,1,1.363-15.2.744.744,0,0,1,.128-.177,5.148,5.148,0,0,0-1.794.218,7.865,7.865,0,0,0-2.153,14.4,10.233,10.233,0,0,0,3.184,1.127h0c.013-.011.026-.019.038-.029" transform="translate(-26.987 -218.549)" fill="#f8bba9"/>
        <path id="Trazado_601104" data-name="Trazado 601104" d="M79.835,362.781c0,.01.007.019.01.029l.666-.007-.035-.043a.568.568,0,0,0-.642.021" transform="translate(-68.129 -309.492)" fill="#f8bba9"/>
        <path id="Trazado_601105" data-name="Trazado 601105" d="M79.622,363.449c0-.01-.007-.019-.01-.029-.013.01-.026.018-.038.029h.048" transform="translate(-67.906 -310.131)" fill="#f8bba9"/>
        <path id="Trazado_601106" data-name="Trazado 601106" d="M83.1,258.207q-.009,6.9,0,13.808a1.239,1.239,0,0,0,.236.965q0-7.782,0-15.565c-.043,0-.085,0-.128.006a1.632,1.632,0,0,0-.112.787" transform="translate(-70.914 -219.67)" fill="#f8bba9"/>
        <path id="Trazado_601107" data-name="Trazado 601107" d="M84.024,256.417v-.171a.743.743,0,0,0-.128.177l.128-.006" transform="translate(-71.594 -218.672)" fill="#f8bba9"/>
        <path id="Trazado_601108" data-name="Trazado 601108" d="M255.708,85.186c2.175-2.923,4.37-5.832,6.551-8.751a4.517,4.517,0,0,0,.392-.614,1.859,1.859,0,0,0-.71-2.6,1.708,1.708,0,0,0-2.421.241c-1.342,1.475-2.415,3.165-3.654,4.723-.178.224-.274.574-.624.611a1.175,1.175,0,0,1-.193.489c-.022.035-.045.069-.068.1a1.757,1.757,0,0,1,.025.627c.008,2.026.005,4.052.006,6.078v0l0,0c.078-.413.464-.611.692-.917" transform="translate(-217.594 -62.153)" fill="#d8e3ee"/>
        <path id="Trazado_601109" data-name="Trazado 601109" d="M255.1,163.325l0,0a.06.06,0,0,0-.007.072c0-.024.006-.047.011-.07" transform="translate(-217.678 -139.375)" fill="#d8e3ee"/>
        <path id="Trazado_601110" data-name="Trazado 601110" d="M254.595,114.029a1.173,1.173,0,0,0,.193-.489.607.607,0,0,1-.1,0l-.238.448a.522.522,0,0,1,.078.142c.022-.035.046-.069.068-.1" transform="translate(-217.139 -96.891)" fill="#d8e3ee"/>
        <path id="Trazado_601111" data-name="Trazado 601111" d="M255.439,77.734c.35-.037.445-.387.624-.611,1.239-1.558,2.311-3.248,3.653-4.723a1.708,1.708,0,0,1,2.42-.241,1.859,1.859,0,0,1,.711,2.6,4.539,4.539,0,0,1-.392.614c-2.181,2.919-4.376,5.828-6.551,8.751-.228.306-.613.5-.692.917a.428.428,0,0,1,.041.029,4.186,4.186,0,0,0,.854-.9q1.244-1.665,2.493-3.327c1.4-1.868,2.81-3.728,4.191-5.609A2.008,2.008,0,0,0,262.8,72.5a2.143,2.143,0,0,0-3.631.183c-1.258,1.627-2.487,3.277-3.728,4.917a.731.731,0,0,1,0,.133" transform="translate(-217.791 -61.086)" fill="#d8e3ee"/>
        <path id="Trazado_601112" data-name="Trazado 601112" d="M255.141,163.409h0c.018-.013.034-.028.051-.041a.411.411,0,0,0-.041-.029c0,.023-.008.046-.011.07" transform="translate(-217.729 -139.388)" fill="#d8e3ee"/>
        <path id="Trazado_601113" data-name="Trazado 601113" d="M256.173,112.763a.731.731,0,0,0,0-.133l-.1.136a.607.607,0,0,0,.1,0" transform="translate(-218.525 -96.115)" fill="#d8e3ee"/>
        <path id="Trazado_601114" data-name="Trazado 601114" d="M209.19,112.9c-.015-1.772-.007-3.544-.007-5.316a2.01,2.01,0,0,1,.064-.437c-.2.3-.42.589-.648.87-.47.578-.719.6-1.25.091-.773-.742-1.514-1.516-2.278-2.266a1.89,1.89,0,0,0-2.946-.053,1.92,1.92,0,0,0,.126,2.851c1.45,1.476,2.95,2.9,4.373,4.4a2.209,2.209,0,0,0,2.248.655c.179-.037.361-.151.543-.055h0a.917.917,0,0,1-.226-.742" transform="translate(-171.996 -89.694)" fill="#eef5fd"/>
        <path id="Trazado_601115" data-name="Trazado 601115" d="M207.566,112.58a2.209,2.209,0,0,1-2.248-.655c-1.423-1.5-2.923-2.928-4.373-4.4a1.919,1.919,0,0,1-.126-2.851,1.89,1.89,0,0,1,2.946.053c.765.75,1.505,1.524,2.278,2.266.532.511.781.487,1.251-.09.228-.281.445-.57.648-.87a2.312,2.312,0,0,0,.059-.351c-.327.424-.675.833-.974,1.276-.239.354-.409.372-.712.057-.844-.878-1.7-1.75-2.588-2.579a2.178,2.178,0,0,0-3.05,3.108q2.317,2.384,4.7,4.706a2.092,2.092,0,0,0,2.732.28c-.182-.1-.364.018-.543.055" transform="translate(-170.691 -88.578)" fill="#eef5fd"/>
        <path id="Trazado_601116" data-name="Trazado 601116" d="M253.6,118.23c0,1.772-.008,3.544.007,5.316a.916.916,0,0,0,.226.742h0c0-2.026,0-4.052-.006-6.078a1.755,1.755,0,0,0-.026-.627c-.045.07-.09.14-.137.21a2.009,2.009,0,0,0-.064.437" transform="translate(-216.408 -100.342)" fill="#eef5fd"/>
        <path id="Trazado_601117" data-name="Trazado 601117" d="M254.183,116.759a.521.521,0,0,0-.078-.142,2.316,2.316,0,0,1-.059.351c.047-.069.092-.139.137-.21" transform="translate(-216.795 -99.517)" fill="#eef5fd"/>
      </g>
    </g>
  </g>
</svg>
