<svg xmlns="http://www.w3.org/2000/svg" xmlns:xlink="http://www.w3.org/1999/xlink" width="112" height="112" viewBox="0 0 112 112">
  <defs>
    <clipPath id="clip-path">
      <rect id="Rectángulo_300787" data-name="Rectángulo 300787" width="66.865" height="65.82" fill="none"/>
    </clipPath>
  </defs>
  <g id="Grupo_886473" data-name="Grupo 886473" transform="translate(9322 8254.252)">
    <circle id="Elipse_6598" data-name="Elipse 6598" cx="56" cy="56" r="56" transform="translate(-9322 -8254.252)" fill="#e1fbff"/>
    <g id="Grupo_886052" data-name="Grupo 886052" transform="translate(-9299.484 -8231.07)">
      <g id="Grupo_886052-2" data-name="Grupo 886052" clip-path="url(#clip-path)">
        <path id="Trazado_600620" data-name="Trazado 600620" d="M7,75.518A11.385,11.385,0,0,1,16.449,61.9a11.1,11.1,0,0,1,10.522,4.164c.451-.438.923-.857,1.346-1.32a1.916,1.916,0,0,1,1.613-.66c.823.038,1.649.025,2.474,0,.376-.01.47.13.481.49.056,1.764.055,1.89-1.668,1.725-1.518-.145-2.1.943-2.946,1.746a10.131,10.131,0,0,1,1.113,4.825h0a.3.3,0,0,1,.045.093l.082.169h0a56.967,56.967,0,0,0,7.167-4.887c.219-.175.459-.323.689-.483a1.185,1.185,0,0,1-.022-.117,3.347,3.347,0,0,1-.181-4.725,3.4,3.4,0,0,1,4.639-.33c.183.15.353.316.528.475a53.852,53.852,0,0,0,4.427-5.082c1.116-1.381,1.944-2.965,3.11-4.306q.008-7.563.016-15.126c0-3.325-.016-6.65.015-9.975.006-.64-.193-.794-.809-.788-3.129.029-6.258.013-9.387.012q-.014,3.129-.027,6.258c-.005,1.342-.359,1.7-1.708,1.7H27.732c-1.171,0-1.424-.185-1.707-1.328a1.113,1.113,0,0,0-2.19,0c-.293,1.153-.526,1.327-1.7,1.327q-5.151,0-10.3,0c-1.259,0-1.634-.377-1.637-1.632q-.01-3.162-.021-6.325L0,27.8V81.094a61.422,61.422,0,0,0,9.266-.786A13.265,13.265,0,0,1,7,75.518M26.375,57.2a2.96,2.96,0,0,1-.769.1c-1.173.01-2.346,0-3.519,0s-2.346.007-3.519-.005a2.7,2.7,0,0,1-.831-.12,1.03,1.03,0,0,1-.721-1.055,1.053,1.053,0,0,1,.709-1,2.46,2.46,0,0,1,.9-.125c2.325,0,4.649,0,6.974.007a2.988,2.988,0,0,1,.77.093,1.1,1.1,0,0,1,.009,2.11m-7.66-4.45c-.174,0-.349.009-.522,0A1.17,1.17,0,0,1,17.006,51.6a1.138,1.138,0,0,1,1.218-1.091c2.63-.012,5.26,0,7.89-.006,2.565,0,5.13.005,7.695-.005a1.154,1.154,0,0,1,1.277.875,1.129,1.129,0,0,1-1.112,1.367c-.563.033-1.13.01-1.7.01H18.715m24.1-6.8c-2.871.009-5.743,0-8.614,0a1.205,1.205,0,0,1-1.221-.706,1.07,1.07,0,0,1,.177-1.163,1.258,1.258,0,0,1,1.062-.388q2.186,0,4.372,0c1.414,0,2.828-.008,4.242,0,.875.007,1.32.384,1.328,1.086.008.72-.48,1.162-1.347,1.164m1.347,5.616a1.077,1.077,0,0,1-1.131,1.167c-1.479.032-2.959.029-4.438,0a1.119,1.119,0,1,1,.037-2.232c.718-.016,1.436,0,2.154,0,.74,0,1.48-.016,2.219.005a1.061,1.061,0,0,1,1.159,1.06M42.751,57.3c-2,.012-4,0-6,0q-2.835,0-5.669,0a2.322,2.322,0,0,1-.835-.106,1.045,1.045,0,0,1-.753-1.09,1,1,0,0,1,.772-1,2.684,2.684,0,0,1,.768-.1q5.8-.009,11.6,0c.858,0,1.373.307,1.5.869.185.834-.369,1.426-1.385,1.432m-15.4-18.133c2.608-.011,5.216,0,7.823,0,2.564,0,5.129,0,7.693,0,.79,0,1.231.359,1.288,1a1.074,1.074,0,0,1-.984,1.225,3.613,3.613,0,0,1-.456.016q-7.6,0-15.19.005c-.64,0-1.186-.128-1.389-.814-.23-.778.315-1.423,1.214-1.427m-9.114,0q2.178-.021,4.357,0a1.116,1.116,0,1,1,0,2.229c-.737.019-1.474,0-2.211,0-.715,0-1.431.013-2.146,0a1.12,1.12,0,1,1,0-2.229m.146,4.538c1.8-.008,3.607,0,5.411,0v.008c1.89,0,3.781-.015,5.671.008a1.045,1.045,0,0,1,1.1,1.047,1.134,1.134,0,0,1-1,1.171,1.866,1.866,0,0,1-.324.022q-5.443,0-10.887,0a1.2,1.2,0,0,1-1.352-1.117c-.013-.684.512-1.128,1.378-1.132m-8.166,13.58a3.445,3.445,0,0,1-3.417-3.4A3.391,3.391,0,0,1,10.213,50.5a3.353,3.353,0,0,1,3.369,3.406,3.41,3.41,0,0,1-3.365,3.373m0-18.116a3.373,3.373,0,0,1,3.363,3.421,3.419,3.419,0,0,1-3.374,3.365,3.454,3.454,0,0,1-3.413-3.412,3.4,3.4,0,0,1,3.424-3.374" transform="translate(0 -23.242)" fill="#b6e4fe"/>
        <path id="Trazado_600621" data-name="Trazado 600621" d="M332.74,353.3h0c0-.014,0-.028,0-.043l-.049.041h.052" transform="translate(-278.238 -295.439)" fill="#fefefe"/>
        <path id="Trazado_600622" data-name="Trazado 600622" d="M373.3,27.77l-.006.009h.013l-.007-.009" transform="translate(-312.201 -23.225)" fill="#fefefe"/>
        <path id="Trazado_600623" data-name="Trazado 600623" d="M1.63,223.513H48.382c1.239,0,1.24,0,1.24-1.263q0-16.2,0-32.392a4.372,4.372,0,0,1,.087-.99c-.134.186-.277.367-.4.56a57.85,57.85,0,0,1-5.868,7.556c-.31.347-.578.78-1.1.872,0,.013,0,.026.006.04h0a3.3,3.3,0,0,1-.162,4.345,3.442,3.442,0,0,1-4.338.57c-.149-.095-.293-.2-.438-.3a1.089,1.089,0,0,1-.4.455,55.507,55.507,0,0,1-6.71,4.652c-.242.141-.472.349-.787.258a11.8,11.8,0,0,1-1.251,5.076c.468.482.944.956,1.4,1.45a.84.84,0,0,0,.7.255c.651-.01,1.3.024,1.952-.012.473-.026.577.162.58.6.009,1.7.016,1.605-1.687,1.728a3.85,3.85,0,0,1-3.731-1.56,3.614,3.614,0,0,0-.468-.451,11.767,11.767,0,0,1-1.529,1.5h0a10.607,10.607,0,0,1-5.822,2.626A11.148,11.148,0,0,1,9.814,215.6a6.422,6.422,0,0,1-.442-.559.781.781,0,0,1-.1-.019.735.735,0,0,1-.078.138,5.06,5.06,0,0,1-2.078.443,34.076,34.076,0,0,1-4.4.329,12.007,12.007,0,0,0-1.293.092A1.746,1.746,0,0,1,0,215.81v7.967a.97.97,0,0,1,.716-.26c.3-.006.609,0,.914,0m38.022-11.1a3.392,3.392,0,1,1-3.365,3.413,3.363,3.363,0,0,1,3.365-3.413" transform="translate(0 -157.957)" fill="#98c7df"/>
        <path id="Trazado_600624" data-name="Trazado 600624" d="M188.161,272.038h0c-.23.16-.47.309-.688.483a56.979,56.979,0,0,1-7.168,4.887c0,.008,0,.016,0,.025.315.091.545-.117.787-.258a55.541,55.541,0,0,0,6.71-4.652,1.091,1.091,0,0,0,.4-.455Z" transform="translate(-150.794 -227.514)" fill="#98c7df"/>
        <path id="Trazado_600625" data-name="Trazado 600625" d="M1.429,349.678a11.991,11.991,0,0,1,1.293-.092,34.114,34.114,0,0,0,4.4-.329,5.059,5.059,0,0,0,2.078-.443.73.73,0,0,0,.078-.138H9.266A61.418,61.418,0,0,1,0,349.46a1.747,1.747,0,0,0,1.429.219" transform="translate(0 -291.608)" fill="#98c7df"/>
        <path id="Trazado_600626" data-name="Trazado 600626" d="M263.075,190.281a53.85,53.85,0,0,1-4.427,5.082c0,.024.007.048.011.073.517-.092.785-.525,1.1-.872a57.855,57.855,0,0,0,5.868-7.556c.122-.193.265-.374.4-.56a2.219,2.219,0,0,1,.164-.474c-1.166,1.341-1.994,2.925-3.11,4.306" transform="translate(-216.316 -155.537)" fill="#98c7df"/>
        <path id="Trazado_600627" data-name="Trazado 600627" d="M48.961,222.517c.924,0,.924,0,.924-.9q0-16.356,0-32.712c0-.511-.007-1.022-.013-1.534-.052.084-.109.165-.166.245a4.373,4.373,0,0,0-.087.99q.007,16.2,0,32.392c0,1.262,0,1.262-1.24,1.262H1.63c-.3,0-.609,0-.914,0a.97.97,0,0,0-.716.26c.3,0,.609-.008.914-.008H48.961" transform="translate(0 -156.705)" fill="#98c7df"/>
        <path id="Trazado_600628" data-name="Trazado 600628" d="M303.7,186.449c.058-.08.114-.161.166-.245q0-.114,0-.229a2.209,2.209,0,0,0-.164.474" transform="translate(-253.993 -155.537)" fill="#98c7df"/>
        <path id="Trazado_600629" data-name="Trazado 600629" d="M56.569,251.9l-3.98-3.74.184-.3H65.031l.008-.068a.782.782,0,0,1-.136-.244,12.822,12.822,0,0,0-.968-4.267.924.924,0,0,1-.069-.413c-.7.685-1.411,1.356-2.083,2.066-.3.319-.487.3-.757-.013-.363-.424-1.034-.793-1.072-1.229-.04-.459.682-.81,1.064-1.215.516-.548,1.049-1.081,1.576-1.619a2.3,2.3,0,0,1-.754-.668,11.1,11.1,0,0,0-18.418,3.633,11.039,11.039,0,0,0,1.184,10.332c.173.262.5.519.346.886a.19.19,0,0,1,.18-.027l.039.033A57.7,57.7,0,0,0,56.3,252.064a1.74,1.74,0,0,0,.269-.164" transform="translate(-35.674 -197.981)" fill="#fea411"/>
        <path id="Trazado_600630" data-name="Trazado 600630" d="M172.3,274.258a12.826,12.826,0,0,1,.968,4.267.778.778,0,0,0,.136.244q.01-.089.02-.179a10.126,10.126,0,0,0-1.113-4.825l-.081.079a.925.925,0,0,0,.069.413" transform="translate(-144.045 -228.96)" fill="#fea411"/>
        <path id="Trazado_600631" data-name="Trazado 600631" d="M179.54,303.248l.045.093a.3.3,0,0,0-.045-.093" transform="translate(-150.155 -253.616)" fill="#fea411"/>
        <path id="Trazado_600632" data-name="Trazado 600632" d="M43.683,254.036c.151-.366-.173-.624-.346-.886a11.038,11.038,0,0,1-1.184-10.332,11.1,11.1,0,0,1,18.418-3.633,2.3,2.3,0,0,0,.755.668l.052-.053h0a11.1,11.1,0,0,0-10.522-4.164,11.386,11.386,0,0,0-9.445,13.617,13.265,13.265,0,0,0,2.261,4.791l.011-.007" transform="translate(-34.406 -196.977)" fill="#fea411"/>
        <path id="Trazado_600633" data-name="Trazado 600633" d="M56.882,348.441l-.04-.033a.19.19,0,0,0-.18.027l0,.009a.778.778,0,0,0,.1.019h0l.125-.022" transform="translate(-47.385 -291.376)" fill="#fea411"/>
        <path id="Trazado_600634" data-name="Trazado 600634" d="M56.613,348.638h.007l0-.009-.011.007" transform="translate(-47.347 -291.572)" fill="#fea411"/>
        <path id="Trazado_600635" data-name="Trazado 600635" d="M62.616,6.839c.01,1.74,0,3.481.007,5.221.007,1.16.324,1.482,1.471,1.485q5.057.011,10.114,0c1.021,0,1.244-.17,1.569-1.108.26-.752.642-1.07,1.3-1.079a1.355,1.355,0,0,1,1.343,1.032c.394,1.02.578,1.154,1.682,1.156q4.992.009,9.983,0c1.154,0,1.521-.366,1.531-1.526.016-1.74,0-3.481.009-5.221a1.414,1.414,0,0,1,.222-1,1.107,1.107,0,0,1-.227-.866c-.01-.891-.015-1.783,0-2.675.009-.533-.219-.736-.742-.732-1.522.01-3.044,0-4.566,0H64c-.239,0-.479.01-.718,0-.472-.019-.663.2-.659.668q.013,1.37,0,2.74a1.057,1.057,0,0,1-.235.858,1.434,1.434,0,0,1,.23,1.042m2.628-1.01c3.958.02,7.917.011,11.876.011,3.937,0,7.874.011,11.811-.013.527,0,.652.157.642.657-.031,1.5-.023,3,0,4.5.005.4-.128.521-.522.52q-4.144-.02-8.287,0a.633.633,0,0,1-.652-.4,3.364,3.364,0,0,0-6-.007.63.63,0,0,1-.647.406q-4.144-.017-8.287,0c-.438,0-.555-.148-.55-.565.02-1.5.028-3,0-4.5-.01-.5.138-.615.623-.612" transform="translate(-52.175 -1.278)" fill="#235087"/>
        <path id="Trazado_600636" data-name="Trazado 600636" d="M91.411,28.616c-.01,1.74.007,3.481-.009,5.221-.01,1.16-.378,1.524-1.532,1.526q-4.992.01-9.983,0c-1.1,0-1.288-.135-1.682-1.156a1.354,1.354,0,0,0-1.342-1.032c-.654.009-1.036.327-1.3,1.079-.325.939-.547,1.106-1.569,1.108q-5.057.013-10.114,0c-1.147,0-1.464-.325-1.471-1.485-.011-1.74,0-3.481-.007-5.221a1.435,1.435,0,0,0-.23-1.042c-.014.013-.025.026-.041.039q.011,3.162.021,6.325c0,1.255.378,1.631,1.637,1.632q5.151,0,10.3,0c1.178,0,1.41-.174,1.7-1.327a1.113,1.113,0,0,1,2.19,0c.283,1.143.536,1.328,1.707,1.328H89.934c1.35,0,1.7-.354,1.708-1.7q.012-3.129.027-6.259c-.014-.012-.025-.025-.037-.037a1.414,1.414,0,0,0-.222,1" transform="translate(-51.966 -23.095)" fill="#235087"/>
        <path id="Trazado_600637" data-name="Trazado 600637" d="M62.415,3.72q.017-1.37,0-2.74c0-.466.187-.687.659-.668.239.01.478,0,.717,0H86.1c1.522,0,3.044.007,4.566,0,.523,0,.751.2.742.733-.016.891-.01,1.783,0,2.675a1.107,1.107,0,0,0,.227.866c.012-.014.022-.029.036-.043-.01-1.277-.038-2.554-.018-3.831.007-.464-.086-.638-.6-.637Q76.9.094,62.746.069c-.519,0-.6.174-.594.634.022,1.276,0,2.553-.012,3.829.015.014.027.03.04.045a1.057,1.057,0,0,0,.235-.858" transform="translate(-51.97 -0.058)" fill="#235087"/>
        <path id="Trazado_600638" data-name="Trazado 600638" d="M62.176,27.385c-.014-.015-.025-.03-.04-.045,0,.028,0,.056,0,.083.016-.012.027-.026.041-.038" transform="translate(-51.966 -22.865)" fill="#235087"/>
        <path id="Trazado_600639" data-name="Trazado 600639" d="M242.4,27.454c0-.027,0-.054,0-.081-.014.014-.024.029-.036.043.013.012.023.026.037.037" transform="translate(-202.698 -22.893)" fill="#235087"/>
        <path id="Trazado_600640" data-name="Trazado 600640" d="M160.815,99.486q7.6-.012,15.19,0a3.616,3.616,0,0,0,.456-.016,1.074,1.074,0,0,0,.984-1.225c-.057-.639-.5-1-1.288-1-2.564-.007-5.129,0-7.693,0-2.608,0-5.215-.007-7.823,0-.9,0-1.444.649-1.214,1.427.2.686.748.815,1.389.814" transform="translate(-133.29 -81.324)" fill="#6b7789"/>
        <path id="Trazado_600641" data-name="Trazado 600641" d="M120.874,168.779a1.129,1.129,0,0,0,1.112-1.367,1.153,1.153,0,0,0-1.277-.875c-2.565.011-5.13,0-7.695.005-2.63,0-5.26-.006-7.89.006a1.138,1.138,0,0,0-1.218,1.092,1.17,1.17,0,0,0,1.187,1.145c.173.014.348,0,.522,0h13.564c.565,0,1.132.024,1.7-.01" transform="translate(-86.9 -139.28)" fill="#6b778a"/>
        <path id="Trazado_600642" data-name="Trazado 600642" d="M44.926,104.088a3.419,3.419,0,0,0,3.374-3.365,3.394,3.394,0,1,0-6.787-.047,3.454,3.454,0,0,0,3.413,3.412" transform="translate(-34.719 -81.376)" fill="#4db4fe"/>
        <path id="Trazado_600643" data-name="Trazado 600643" d="M44.959,166.57a3.391,3.391,0,0,0-3.413,3.379,3.446,3.446,0,0,0,3.417,3.4,3.41,3.41,0,0,0,3.365-3.373,3.353,3.353,0,0,0-3.369-3.406" transform="translate(-34.746 -139.308)" fill="#fedb13"/>
        <path id="Trazado_600644" data-name="Trazado 600644" d="M193.371,194q-5.8,0-11.6,0a2.683,2.683,0,0,0-.768.1,1,1,0,0,0-.772,1,1.045,1.045,0,0,0,.753,1.09,2.322,2.322,0,0,0,.835.106q2.835,0,5.669,0c2,0,4,.009,6,0,1.016-.006,1.57-.6,1.385-1.432-.125-.562-.639-.868-1.5-.869" transform="translate(-150.733 -162.248)" fill="#6b778a"/>
        <path id="Trazado_600645" data-name="Trazado 600645" d="M105.252,127.242q5.443.013,10.887,0a1.865,1.865,0,0,0,.324-.022,1.134,1.134,0,0,0,1-1.171,1.045,1.045,0,0,0-1.1-1.047c-1.89-.022-3.781-.008-5.671-.008v-.008c-1.8,0-3.607-.006-5.411,0-.866,0-1.391.448-1.378,1.132a1.2,1.2,0,0,0,1.352,1.117" transform="translate(-86.895 -104.532)" fill="#6b778a"/>
        <path id="Trazado_600646" data-name="Trazado 600646" d="M136.853,304.688a.3.3,0,0,1-.053.078c-.032.017-.065.03-.1.044a3.812,3.812,0,0,1-1.26.747,51.137,51.137,0,0,1-6.984,3.2q1.943,1.971,3.884,3.943c.155.157.3.325.445.491.369-.33.7-.7,1.064-1.035a1.067,1.067,0,0,1,.563-.352c-.849-.858-1.689-1.724-2.553-2.566-.248-.241-.246-.39.006-.612.438-.387.82-1.072,1.285-1.127.5-.058.846.706,1.275,1.095.393.357.768.735,1.148,1.106a6.389,6.389,0,0,1,.41-1.107,11.243,11.243,0,0,0,.635-2.716,1.884,1.884,0,0,1,.31-1.141c-.011,0-.021,0-.032-.009s-.029-.026-.043-.039" transform="translate(-107.434 -254.821)" fill="#e4ae17"/>
        <path id="Trazado_600647" data-name="Trazado 600647" d="M179.754,303.959c.014.013.027.027.043.039s.021.005.032.009.01-.014.016-.02h0l-.082-.169a.2.2,0,0,1-.01.143" transform="translate(-150.334 -254.091)" fill="#e4ae17"/>
        <path id="Trazado_600648" data-name="Trazado 600648" d="M179.539,303.247h0" transform="translate(-150.155 -253.615)" fill="#e4ae17"/>
        <path id="Trazado_600649" data-name="Trazado 600649" d="M155.972,348.518c-.361.338-.695.7-1.064,1.035l.12.136h0a11.761,11.761,0,0,0,1.529-1.5l-.023-.023a1.067,1.067,0,0,0-.563.352" transform="translate(-129.555 -291.183)" fill="#e4ae17"/>
        <path id="Trazado_600650" data-name="Trazado 600650" d="M172.978,306.119a11.24,11.24,0,0,1-.635,2.716,6.406,6.406,0,0,0-.41,1.107l.118.116h0a11.8,11.8,0,0,0,1.251-5.076l-.015,0a1.884,1.884,0,0,0-.31,1.141" transform="translate(-143.793 -255.063)" fill="#e4ae17"/>
        <path id="Trazado_600651" data-name="Trazado 600651" d="M180.213,304.872l.015,0c0-.008,0-.016,0-.025s-.01.014-.016.021" transform="translate(-150.718 -254.957)" fill="#e4ae17"/>
        <path id="Trazado_600652" data-name="Trazado 600652" d="M178.916,304.406h0a1.26,1.26,0,0,1-.089.112c.033-.014.066-.027.1-.044a.3.3,0,0,0,.053-.078.655.655,0,0,1-.055-.057l-.008.068" transform="translate(-149.56 -254.528)" fill="#e4ae17"/>
        <path id="Trazado_600653" data-name="Trazado 600653" d="M179.415,303.425a.655.655,0,0,0,.055.057.2.2,0,0,0,.01-.143l-.045-.093h0l-.02.179" transform="translate(-150.051 -253.615)" fill="#e4ae17"/>
        <path id="Trazado_600654" data-name="Trazado 600654" d="M210.853,124.986c-1.414-.011-2.828,0-4.242,0q-2.186,0-4.372,0a1.258,1.258,0,0,0-1.062.388,1.071,1.071,0,0,0-.177,1.163,1.205,1.205,0,0,0,1.221.706c2.871,0,5.743.005,8.614,0,.866,0,1.355-.444,1.347-1.164-.008-.7-.453-1.079-1.328-1.086" transform="translate(-168.021 -104.525)" fill="#6b778a"/>
        <path id="Trazado_600655" data-name="Trazado 600655" d="M113.31,194.087a2.988,2.988,0,0,0-.77-.093c-2.325-.007-4.649,0-6.974-.007a2.466,2.466,0,0,0-.9.125,1.053,1.053,0,0,0-.709,1,1.03,1.03,0,0,0,.721,1.055,2.7,2.7,0,0,0,.831.12c1.173.013,2.346.005,3.519.005s2.346.005,3.519,0a2.945,2.945,0,0,0,.769-.1,1.1,1.1,0,0,0-.009-2.11" transform="translate(-86.944 -162.239)" fill="#6b778a"/>
        <path id="Trazado_600656" data-name="Trazado 600656" d="M152.123,253.487c-.561.576-1.126,1.15-1.707,1.706-.328.313-.382.562-.039.923.891.938.877.951,1.795.033.354-.354.7-.713,1.064-1.058.154-.146.3-.324.533-.323,0,0,0-.008,0-.012.68-1.106,1.439-2.09,2.951-1.933a5.963,5.963,0,0,0,.717,0c.767-.014.8-.048.809-.822.011-.922.005-.929-.947-.932-.544,0-1.09.033-1.631-.008a2.233,2.233,0,0,0-1.851.767c-.38.385-.678.9-1.277,1.016,0,.3-.238.457-.418.641" transform="translate(-125.57 -209.966)" fill="#235086"/>
        <path id="Trazado_600657" data-name="Trazado 600657" d="M164.79,251.569c.6-.116.9-.631,1.277-1.016a2.233,2.233,0,0,1,1.851-.767c.541.041,1.087.006,1.631.008.953,0,.959.011.947.932-.009.774-.042.808-.809.822a5.927,5.927,0,0,1-.717,0c-1.512-.157-2.271.826-2.951,1.933,0,0,0,.008,0,.012a.461.461,0,0,1,.074,0c.845-.8,1.428-1.891,2.946-1.746,1.723.165,1.725.038,1.668-1.725-.012-.36-.105-.5-.481-.49-.824.023-1.651.036-2.473,0a1.916,1.916,0,0,0-1.614.66c-.423.463-.9.882-1.346,1.32a.537.537,0,0,1,0,.056" transform="translate(-137.819 -208.689)" fill="#235086"/>
        <path id="Trazado_600658" data-name="Trazado 600658" d="M148.338,264.807c.038.436.709.8,1.072,1.228.27.316.455.333.757.013.672-.71,1.384-1.381,2.083-2.066,0-.028,0-.056.007-.083-.235,0-.379.177-.533.323-.362.345-.71.7-1.064,1.058-.918.918-.9.9-1.795-.033-.344-.361-.289-.61.039-.924.581-.555,1.146-1.129,1.707-1.706.18-.185.414-.346.418-.641l-.029.006-.022-.01c-.527.538-1.06,1.07-1.576,1.619-.382.405-1.1.757-1.064,1.215" transform="translate(-124.059 -219.097)" fill="#235086"/>
        <path id="Trazado_600659" data-name="Trazado 600659" d="M172.245,273.824l.081-.079a.475.475,0,0,0-.074,0c0,.028-.006.056-.007.083" transform="translate(-144.054 -228.939)" fill="#235086"/>
        <path id="Trazado_600660" data-name="Trazado 600660" d="M164.477,261.7l.022.009.03-.006c0-.019,0-.036,0-.056l-.052.053" transform="translate(-137.558 -218.826)" fill="#235086"/>
        <path id="Trazado_600661" data-name="Trazado 600661" d="M224.024,238.048a3.165,3.165,0,0,0-.533,3.945,5.256,5.256,0,0,1,.448.719c0,.007,0,.013,0,.02a39.311,39.311,0,0,0,4.033-3.588,5.084,5.084,0,0,1,.809-.767v0a.186.186,0,0,1,.012-.088,2.392,2.392,0,0,1-.738-.5,3.221,3.221,0,0,0-4.033.258" transform="translate(-186.529 -198.378)" fill="#fea411"/>
        <path id="Trazado_600662" data-name="Trazado 600662" d="M222.774,241.53a5.251,5.251,0,0,0-.448-.719,3.165,3.165,0,0,1,.533-3.945,3.221,3.221,0,0,1,4.033-.258,2.393,2.393,0,0,0,.738.5.178.178,0,0,1,.067-.081c-.176-.159-.345-.326-.528-.475a3.4,3.4,0,0,0-4.639.33,3.347,3.347,0,0,0,.181,4.725l.067-.054c0-.007,0-.013,0-.02" transform="translate(-185.365 -197.198)" fill="#fea411"/>
        <path id="Trazado_600663" data-name="Trazado 600663" d="M258.173,243.79a.185.185,0,0,0-.012.088v0c.031-.02.062-.041.1-.059,0-.013,0-.027-.006-.04-.021,0-.04.011-.062.013l-.016-.005" transform="translate(-215.908 -203.883)" fill="#fea411"/>
        <path id="Trazado_600664" data-name="Trazado 600664" d="M258.241,243.42l.016.005c.022,0,.041-.009.062-.013,0-.024-.009-.048-.011-.073a.179.179,0,0,0-.067.081" transform="translate(-215.975 -203.512)" fill="#fea411"/>
        <path id="Trazado_600665" data-name="Trazado 600665" d="M229.266,249.176a.76.76,0,0,1-.618.274.5.5,0,0,1,0,.09c.285-.053.5.137.731.249a3.217,3.217,0,0,0,3.793-.55,3.147,3.147,0,0,0,.511-3.739,3.229,3.229,0,0,1-.171-.351,1.362,1.362,0,0,1-.232.312,51.847,51.847,0,0,1-4.013,3.715" transform="translate(-191.224 -205.026)" fill="#ef8015"/>
        <path id="Trazado_600666" data-name="Trazado 600666" d="M228.259,271.34a.542.542,0,0,1-.079-.017c.005.039.012.078.022.117a.538.538,0,0,1,.055-.01.485.485,0,0,0,0-.09" transform="translate(-190.834 -226.916)" fill="#ef8015"/>
        <path id="Trazado_600667" data-name="Trazado 600667" d="M233.625,244.561a3.147,3.147,0,0,1-.511,3.739,3.217,3.217,0,0,1-3.793.55c-.231-.112-.446-.3-.731-.249,0,0,0,.008,0,.013s-.007.019-.011.028c.145.1.289.2.438.3a3.442,3.442,0,0,0,4.338-.57,3.3,3.3,0,0,0,.162-4.345.627.627,0,0,1-.062.184,3.164,3.164,0,0,0,.171.351" transform="translate(-191.167 -204.087)" fill="#ef8015"/>
        <path id="Trazado_600668" data-name="Trazado 600668" d="M228.366,271.976a.531.531,0,0,0-.055.01l.044.03c0-.01.008-.018.011-.028s0-.008,0-.013" transform="translate(-190.944 -227.463)" fill="#ef8015"/>
        <path id="Trazado_600669" data-name="Trazado 600669" d="M232.624,245.153a39.361,39.361,0,0,1-4.033,3.588.455.455,0,0,1,.012.071.761.761,0,0,0,.618-.274,51.871,51.871,0,0,0,4.013-3.715,1.362,1.362,0,0,0,.232-.312.772.772,0,0,1-.033-.125,5.086,5.086,0,0,0-.809.767" transform="translate(-191.178 -204.388)" fill="#ef8015"/>
        <path id="Trazado_600670" data-name="Trazado 600670" d="M228.248,270.995l-.067.054a.531.531,0,0,0,.079.017.458.458,0,0,0-.012-.071" transform="translate(-190.835 -226.642)" fill="#ef8015"/>
        <path id="Trazado_600671" data-name="Trazado 600671" d="M258.2,244.21a.626.626,0,0,0,.062-.184c-.033.018-.064.039-.1.059a.771.771,0,0,0,.033.125" transform="translate(-215.916 -204.087)" fill="#ef8015"/>
        <path id="Trazado_600672" data-name="Trazado 600672" d="M105.134,99.46c.715.017,1.431,0,2.146,0,.737,0,1.474.015,2.211,0a1.116,1.116,0,1,0,0-2.229q-2.178-.023-4.357,0a1.12,1.12,0,1,0,0,2.229" transform="translate(-86.896 -81.308)" fill="#6b778a"/>
        <path id="Trazado_600673" data-name="Trazado 600673" d="M234.176,166.552c-.739-.021-1.479,0-2.219-.005-.718,0-1.436-.013-2.154,0a1.119,1.119,0,1,0-.037,2.232c1.479.027,2.959.029,4.438,0a1.077,1.077,0,0,0,1.131-1.167,1.061,1.061,0,0,0-1.159-1.06" transform="translate(-191.175 -139.284)" fill="#6b778a"/>
        <path id="Trazado_600674" data-name="Trazado 600674" d="M379.039,31.095a5.667,5.667,0,0,0-5.014-3.2l-.026.021q-.01,1.1-.019,2.2l.209.075a3.391,3.391,0,0,1,1.31.352,3.528,3.528,0,0,1,1.884,3.395q-.005,4.732,0,9.464a1.345,1.345,0,0,0,.481,1.276,1.058,1.058,0,0,0,1.112.1,1.224,1.224,0,0,0,.663-1.242c0-3.285,0-6.571-.006-9.856a5.617,5.617,0,0,0-.591-2.58" transform="translate(-312.771 -23.331)" fill="#ee2648"/>
        <path id="Trazado_600675" data-name="Trazado 600675" d="M339.247,7.881l.006-.009a11.657,11.657,0,0,0-5.207-3.894,3.176,3.176,0,0,0-1.463,2.716q.03.6.061,1.206l6.6-.018" transform="translate(-278.15 -3.327)" fill="#fedb13"/>
        <path id="Trazado_600676" data-name="Trazado 600676" d="M338.936,23.99a1.287,1.287,0,0,0-.093.761c0,5.136-.017,10.272.014,15.408,0,.683-.2.838-.844.822-1.74-.044-3.481-.022-5.222-.01-.383,0-.6-.053-.6-.524q.029-9.306.029-18.612c-.01-.008-.02-.013-.029-.022a2.91,2.91,0,0,1-.031-1.243,1.642,1.642,0,0,0-.069.771q0,26.511,0,53.022a1.119,1.119,0,0,0,.086.7l.049-.041c-.011-.246-.03-.492-.03-.739q0-16.161,0-32.321c0-.862,0-.863.836-.863,1.7,0,3.4.024,5.092-.014.58-.013.732.163.731.736q-.026,13.451-.012,26.9c0,1.066,0,2.133.006,3.2h0q-.008,1.571-.017,3.141h0a.454.454,0,0,0,.025.126h0c.178-.152.122-.361.123-.549,0-1.131,0-2.263,0-3.394q-.006-23.3-.008-46.6c0-.2-.081-.447.177-.58h0a.391.391,0,0,1-.21-.072" transform="translate(-277.729 -17.203)" fill="#fec44c"/>
        <path id="Trazado_600677" data-name="Trazado 600677" d="M373.971,41.446v0a.391.391,0,0,0,.21.072h0Z" transform="translate(-312.763 -34.663)" fill="#fec44c"/>
        <path id="Trazado_600678" data-name="Trazado 600678" d="M332.352,21.812c.009.008.019.014.029.022,0-.02,0-.039,0-.059h0q-.03-.6-.061-1.206a2.908,2.908,0,0,0,.031,1.243" transform="translate(-277.887 -17.203)" fill="#fec44c"/>
        <path id="Trazado_600679" data-name="Trazado 600679" d="M346.576,353.422l-1.2-.016q-.06.009-.119.022a7.008,7.008,0,0,1-3.8,2.869,8.136,8.136,0,0,0,.8,1.68l2.222.009h0l2.222-4.436h0a.454.454,0,0,1-.123-.128" transform="translate(-285.57 -295.565)" fill="#ef8015"/>
        <path id="Trazado_600680" data-name="Trazado 600680" d="M372.844,353.5h-.1a.453.453,0,0,0,.123.128A.449.449,0,0,1,372.844,353.5Z" transform="translate(-311.741 -295.645)" fill="#ef8015"/>
        <path id="Trazado_600681" data-name="Trazado 600681" d="M342.578.919a10.971,10.971,0,0,1,3.862,2.914c.161.189.464.433.292.712l.006.009a.876.876,0,0,1,.118.027h0l.026-.016c-.006-.368,0-.736-.021-1.1A3.4,3.4,0,0,0,344.936.387a3.107,3.107,0,0,0-3.411.265,1.731,1.731,0,0,1,1.053.268" transform="translate(-285.629 0)" fill="#e4af17"/>
        <path id="Trazado_600682" data-name="Trazado 600682" d="M346.731,7.786c.172-.279-.131-.523-.292-.712a10.971,10.971,0,0,0-3.862-2.914,1.731,1.731,0,0,0-1.052-.268,11.657,11.657,0,0,1,5.207,3.894" transform="translate(-285.628 -3.241)" fill="#e4af17"/>
        <path id="Trazado_600683" data-name="Trazado 600683" d="M334.443,356.076a8.105,8.105,0,0,0,3.257-2.51.712.712,0,0,1,.057-.055l-5.019,0h-.052a26.111,26.111,0,0,0,1.435,2.874h0a.513.513,0,0,1,.32-.3" transform="translate(-278.237 -295.649)" fill="#fea411"/>
        <path id="Trazado_600684" data-name="Trazado 600684" d="M332.687,353.506Z" transform="translate(-278.237 -295.649)" fill="#fea411"/>
        <path id="Trazado_600685" data-name="Trazado 600685" d="M345.257,353.538h-.167a.73.73,0,0,0-.057.055,8.105,8.105,0,0,1-3.257,2.51.513.513,0,0,0-.321.3,7.007,7.007,0,0,0,3.8-2.869" transform="translate(-285.57 -295.676)" fill="#fea411"/>
        <path id="Trazado_600686" data-name="Trazado 600686" d="M346.276,381.33c0,.367-.026.735,0,1.1a1.113,1.113,0,1,0,2.226.009c.022-.365,0-.733,0-1.1h0a2.161,2.161,0,0,1-2.222-.009" transform="translate(-289.592 -318.919)" fill="#ee2648"/>
        <path id="Trazado_600687" data-name="Trazado 600687" d="M348.563,381.339l-2.222-.009a2.16,2.16,0,0,0,2.222.009" transform="translate(-289.656 -318.919)" fill="#ee2648"/>
        <path id="Trazado_600688" data-name="Trazado 600688" d="M70.5,330.076c-.152-.154-.322-.318-.251-.566l-.039-.005c-.069.332-.364.426-.628.523a57.273,57.273,0,0,1-10.2,2.729,1.339,1.339,0,0,1-.5,0c.5.426.922.935,1.44,1.349a11.086,11.086,0,0,0,13.712.272c.156-.116.309-.235.465-.35a.958.958,0,0,1-.231-.179q-1.9-1.873-3.769-3.772" transform="translate(-49.248 -275.575)" fill="#ef8015"/>
        <path id="Trazado_600689" data-name="Trazado 600689" d="M72.68,350.514a11.086,11.086,0,0,1-13.712-.271c-.518-.414-.941-.922-1.44-1.349a1.017,1.017,0,0,1-.266-.094,6.426,6.426,0,0,0,.442.559,11.148,11.148,0,0,0,9.837,3.486,10.608,10.608,0,0,0,5.822-2.626h0a.474.474,0,0,1-.218-.055c-.156.115-.309.235-.465.35" transform="translate(-47.89 -291.713)" fill="#ef8015"/>
        <path id="Trazado_600690" data-name="Trazado 600690" d="M58.662,332.708a57.278,57.278,0,0,0,10.2-2.729c.264-.1.56-.191.628-.523l-.07-.009a1.763,1.763,0,0,1-.269.164,57.691,57.691,0,0,1-11.128,2.982c.048.038.095.076.141.116a1.339,1.339,0,0,0,.5,0" transform="translate(-48.528 -275.527)" fill="#ef8015"/>
        <path id="Trazado_600691" data-name="Trazado 600691" d="M57.528,348.782c-.046-.039-.093-.078-.141-.116l-.125.022a1.01,1.01,0,0,0,.266.094" transform="translate(-47.89 -291.601)" fill="#ef8015"/>
        <path id="Trazado_600692" data-name="Trazado 600692" d="M128.267,329.538l-.021,0c-.071.248.1.412.251.566q1.87,1.9,3.769,3.772a.959.959,0,0,0,.231.179l.055-.041.043-.04c-.146-.166-.29-.333-.445-.491q-1.939-1.975-3.884-3.943" transform="translate(-107.243 -275.601)" fill="#ef8015"/>
        <path id="Trazado_600693" data-name="Trazado 600693" d="M154.362,356.681l-.055.041a.478.478,0,0,0,.218.055l-.12-.136-.043.04" transform="translate(-129.052 -298.271)" fill="#ef8015"/>
        <path id="Trazado_600694" data-name="Trazado 600694" d="M225.073,339.51a3.392,3.392,0,1,0,.007-6.784,3.392,3.392,0,0,0-.007,6.784" transform="translate(-185.427 -278.27)" fill="#e4ae17"/>
        <path id="Trazado_600695" data-name="Trazado 600695" d="M153.2,325.725c-.488-.46-.966-.932-1.424-1.421-.331-.353-.591-.321-.918.011-.961.98-.855.777-.025,1.627.469.48.954.944,1.419,1.427.168.175.392.332.348.626a.6.6,0,0,1,.133,0,3.527,3.527,0,0,1,1.23,1.044,2.354,2.354,0,0,0,1.861.775c.63-.021,1.261,0,1.891-.009.38,0,.527-.177.558-.554.1-1.243.033-1.33-1.23-1.332-.217,0-.435,0-.652,0a2.994,2.994,0,0,1-2.658-1.874c-.242.037-.381-.178-.533-.322" transform="translate(-125.594 -271.015)" fill="#163768"/>
        <path id="Trazado_600696" data-name="Trazado 600696" d="M168.777,337.928c.217,0,.435,0,.652,0,1.263,0,1.333.089,1.23,1.332-.031.377-.178.549-.558.554-.631.007-1.262-.012-1.891.009a2.354,2.354,0,0,1-1.861-.775,3.528,3.528,0,0,0-1.23-1.044.6.6,0,0,0-.133,0c0,.009,0,.017,0,.027a3.6,3.6,0,0,1,.468.451,3.85,3.85,0,0,0,3.731,1.56c1.7-.123,1.7-.028,1.687-1.728,0-.439-.106-.627-.58-.6-.649.036-1.3,0-1.952.012a.84.84,0,0,1-.7-.255c-.455-.493-.931-.968-1.4-1.45a.47.47,0,0,1-.121.036,2.994,2.994,0,0,0,2.658,1.875" transform="translate(-137.982 -281.022)" fill="#163768"/>
        <path id="Trazado_600697" data-name="Trazado 600697" d="M149.592,321.847c-.465.055-.848.74-1.285,1.127-.251.222-.253.371-.005.612.864.842,1.7,1.709,2.553,2.566l.026,0c.044-.293-.18-.451-.348-.626-.465-.483-.95-.947-1.419-1.427-.83-.85-.937-.647.025-1.627.326-.332.586-.364.918-.011.458.489.936.962,1.424,1.421.153.144.291.359.533.321l-.016-.037c0-.039.011-.077.018-.116-.38-.372-.755-.749-1.148-1.106-.429-.389-.779-1.153-1.275-1.095" transform="translate(-123.875 -269.168)" fill="#163768"/>
        <path id="Trazado_600698" data-name="Trazado 600698" d="M171.841,335.308c-.007.038-.014.076-.018.116,0,.013.011.025.016.037a.472.472,0,0,0,.121-.037h0l-.118-.116" transform="translate(-143.701 -280.429)" fill="#163768"/>
        <path id="Trazado_600699" data-name="Trazado 600699" d="M164.843,348.146l.023.023c0-.01,0-.018,0-.027l-.026,0" transform="translate(-137.864 -291.163)" fill="#163768"/>
        <path id="Trazado_600700" data-name="Trazado 600700" d="M116.8,305.98q-5.047.008-10.094,0a3.382,3.382,0,0,1-.722-.063,1.3,1.3,0,0,1,.339.249c.988.977,1.973,1.956,2.945,2.95a1.028,1.028,0,0,1,.346.611c0,.009,0,.017-.006.025a.1.1,0,0,1,.037.019.441.441,0,0,1,.014-.045,1.3,1.3,0,0,1,.654-.4,53.655,53.655,0,0,0,6.672-3.179,2.6,2.6,0,0,1,.506-.2,5.2,5.2,0,0,1-.691.027" transform="translate(-88.637 -255.853)" fill="#fedb13"/>
        <path id="Trazado_600701" data-name="Trazado 600701" d="M104.907,305.6a.617.617,0,0,0-.21-.063,1.429,1.429,0,0,0,.21.063" transform="translate(-87.562 -255.532)" fill="#fedb13"/>
        <path id="Trazado_600702" data-name="Trazado 600702" d="M107.4,308.78c0-.009,0-.016.006-.026a1.029,1.029,0,0,0-.346-.611c-.972-.993-1.957-1.973-2.945-2.95a1.308,1.308,0,0,0-.339-.249,1.386,1.386,0,0,1-.21-.063.62.62,0,0,1,.21.063,3.392,3.392,0,0,0,.722.063q5.047,0,10.094,0a5.226,5.226,0,0,0,.691-.027,1.841,1.841,0,0,0,.5-.222H103.528l-.184.3,3.98,3.74h0a.1.1,0,0,1,.076-.016" transform="translate(-86.43 -254.876)" fill="#fedb13"/>
        <path id="Trazado_600703" data-name="Trazado 600703" d="M135.691,305.745a53.653,53.653,0,0,1-6.672,3.179,1.3,1.3,0,0,0-.654.4c-.007.016-.009.03-.014.045a.121.121,0,0,1,.017.014,51.128,51.128,0,0,0,6.984-3.2,3.814,3.814,0,0,0,1.26-.747,1.614,1.614,0,0,1-.416.11,2.6,2.6,0,0,0-.506.2" transform="translate(-107.345 -255.447)" fill="#fedb13"/>
        <path id="Trazado_600704" data-name="Trazado 600704" d="M176.792,304.755a1.84,1.84,0,0,1-.5.222,1.6,1.6,0,0,0,.416-.11,1.264,1.264,0,0,0,.089-.112Z" transform="translate(-147.435 -254.877)" fill="#fedb13"/>
        <path id="Trazado_600705" data-name="Trazado 600705" d="M128.1,329.351c0,.009,0,.016-.006.025l.039.005,0-.011a.1.1,0,0,0-.037-.019" transform="translate(-107.128 -275.447)" fill="#fedb13"/>
        <path id="Trazado_600706" data-name="Trazado 600706" d="M127.664,329.355h0l.07.009c0-.008,0-.016.006-.025a.1.1,0,0,0-.076.016" transform="translate(-106.77 -275.435)" fill="#fedb13"/>
        <path id="Trazado_600707" data-name="Trazado 600707" d="M128.331,329.476l.021,0a.131.131,0,0,0-.017-.014l0,.011" transform="translate(-107.327 -275.542)" fill="#fedb13"/>
        <path id="Trazado_600708" data-name="Trazado 600708" d="M76.043,32.917c-.005.417.111.568.55.565q4.143-.026,8.287,0a.631.631,0,0,0,.647-.406,3.364,3.364,0,0,1,6,.007.633.633,0,0,0,.652.4q4.143-.015,8.287,0c.394,0,.528-.117.522-.519-.02-1.5-.027-3,0-4.5.01-.5-.115-.66-.642-.657-3.937.023-7.874.013-11.811.013-3.959,0-7.917.009-11.876-.011-.485,0-.633.117-.623.612.032,1.5.024,3,0,4.5" transform="translate(-63.594 -23.251)" fill="#b6e4fe"/>
        <path id="Trazado_600709" data-name="Trazado 600709" d="M340.022,27.824h-.013a.686.686,0,0,1-.185.182,7.088,7.088,0,0,1-1.813.084c-1.236.013-2.471.008-3.707,0a1.538,1.538,0,0,1-.809-.127,1.849,1.849,0,0,1,.136,1q0,8.228,0,16.457c0,.239.007.479,0,.718-.01.439.2.629.634.628,1.632,0,3.265,0,4.9,0,.407,0,.6-.19.6-.6,0-.239,0-.479,0-.718q0-7.151.007-14.3c0-.386-.136-.847.344-1.1A.331.331,0,0,1,340,29.9a3.581,3.581,0,0,1,.072-1.993l.063-.05v-.005h0a.083.083,0,0,1-.118-.027" transform="translate(-278.913 -23.27)" fill="#fea411"/>
        <path id="Trazado_600710" data-name="Trazado 600710" d="M372.731,30.067a.332.332,0,0,0,.113.155l0,0h0q.01-1.1.019-2.2l-.063.05a3.578,3.578,0,0,0-.072,1.993" transform="translate(-311.639 -23.437)" fill="#fea411"/>
        <path id="Trazado_600711" data-name="Trazado 600711" d="M333.043,27.965a1.54,1.54,0,0,0,.809.127c1.236.006,2.472.012,3.707,0a7.088,7.088,0,0,0,1.813-.084.69.69,0,0,0,.185-.182l-6.6.018h0a.871.871,0,0,1,.089.122" transform="translate(-278.46 -23.27)" fill="#fea411"/>
        <path id="Trazado_600712" data-name="Trazado 600712" d="M339.171,31.548q-.017,7.151-.007,14.3c0,.239-.005.479,0,.718,0,.406-.19.595-.6.6-1.632,0-3.265,0-4.9,0-.437,0-.643-.19-.633-.628.005-.239,0-.479,0-.718q0-8.228,0-16.457a1.847,1.847,0,0,0-.136-1,.782.782,0,0,1-.089-.063q-.011,9.306-.029,18.612c0,.471.216.526.6.524,1.741-.012,3.482-.034,5.222.01.645.016.848-.139.844-.822-.031-5.136-.018-10.272-.014-15.408a1.289,1.289,0,0,1,.093-.761h0c-.479.249-.342.71-.344,1.1" transform="translate(-278.309 -23.667)" fill="#fea411"/>
        <path id="Trazado_600713" data-name="Trazado 600713" d="M373.961,41.448h0l0,0h0l0,0" transform="translate(-312.756 -34.663)" fill="#fea411"/>
        <path id="Trazado_600714" data-name="Trazado 600714" d="M332.952,27.937h0c0,.02,0,.039,0,.059a.781.781,0,0,0,.089.063.857.857,0,0,0-.089-.122" transform="translate(-278.459 -23.365)" fill="#fea411"/>
        <path id="Trazado_600715" data-name="Trazado 600715" d="M373.377,27.824a.083.083,0,0,0,.118.027h0a.854.854,0,0,0-.118-.027" transform="translate(-312.268 -23.27)" fill="#fea411"/>
        <path id="Trazado_600716" data-name="Trazado 600716" d="M332.99,181.292a.886.886,0,0,1,.77-.265q1.823-.014,3.647,0a.97.97,0,0,1,.7.19.828.828,0,0,1,.1-.064.607.607,0,0,1,.188-.049,11.4,11.4,0,0,0,1.017-2.328,4.484,4.484,0,0,0-.063-.659q-.02-14.626-.007-29.253c0-1.274,0-1.274-1.3-1.274s-2.611,0-3.917,0c-.865,0-.916.052-.917.934q0,11.852,0,23.7,0,3.983,0,7.966a1.671,1.671,0,0,1-.17,1.012l-.05.042c0,.014,0,.028,0,.043Z" transform="translate(-278.488 -123.434)" fill="#fedb13"/>
        <path id="Trazado_600717" data-name="Trazado 600717" d="M333.046,178.781q.006-3.983,0-7.966,0-11.852,0-23.7c0-.882.051-.931.917-.934,1.306,0,2.611,0,3.917,0s1.3,0,1.3,1.274q0,14.627.007,29.253a4.476,4.476,0,0,1,.063.659q.1-.312.2-.626h0c0-1.066-.006-2.133-.006-3.2q0-13.451.012-26.9c0-.573-.15-.748-.731-.736-1.7.037-3.395.013-5.092.013-.835,0-.836,0-.836.863q0,16.161,0,32.321c0,.246.019.493.03.739l.05-.042a1.671,1.671,0,0,0,.17-1.012" transform="translate(-278.327 -122.019)" fill="#fedb13"/>
        <path id="Trazado_600718" data-name="Trazado 600718" d="M364.348,352.415a.853.853,0,0,0-.1.064.663.663,0,0,1,.072.079c.039-.009.079-.016.119-.022.035-.056.067-.114.1-.17a.6.6,0,0,0-.188.049" transform="translate(-304.628 -294.695)" fill="#fedb13"/>
        <path id="Trazado_600719" data-name="Trazado 600719" d="M337.419,351.861q-1.824-.015-3.647,0a.887.887,0,0,0-.77.265l5.019,0a.744.744,0,0,1,.094-.078.97.97,0,0,0-.7-.19" transform="translate(-278.501 -294.267)" fill="#fedb13"/>
        <path id="Trazado_600720" data-name="Trazado 600720" d="M363.667,353.138h.167a.646.646,0,0,0-.072-.079.756.756,0,0,0-.094.078" transform="translate(-304.147 -295.276)" fill="#fedb13"/>
        <path id="Trazado_600721" data-name="Trazado 600721" d="M367.084,343.231a1.29,1.29,0,0,1,.872.093,3.886,3.886,0,0,1-.061-1.5q.015-.178.025-.357a3.946,3.946,0,0,1-.573,1.409,2.778,2.778,0,0,1-.263.352" transform="translate(-307.004 -285.583)" fill="#e6b21c"/>
        <path id="Trazado_600722" data-name="Trazado 600722" d="M371.822,335.844a3.888,3.888,0,0,0,.061,1.5.864.864,0,0,1,.152.117h0q.008-1.571.017-3.141c-.065.391-.119.786-.205,1.171-.006.119-.015.238-.025.357" transform="translate(-310.932 -279.6)" fill="#e6b21c"/>
        <path id="Trazado_600723" data-name="Trazado 600723" d="M366.557,352.16a1.29,1.29,0,0,0-.872-.093.785.785,0,0,1-.274.193l1.2.016a.481.481,0,0,1-.04-.062c-.006-.018-.01-.036-.015-.054" transform="translate(-305.605 -294.419)" fill="#e6b21c"/>
        <path id="Trazado_600724" data-name="Trazado 600724" d="M372.426,352.848a.463.463,0,0,0,.04.062h.1a.856.856,0,0,0-.152-.117c.005.018.009.036.015.054" transform="translate(-311.46 -295.053)" fill="#e6b21c"/>
        <path id="Trazado_600725" data-name="Trazado 600725" d="M366.2,340.448a2.783,2.783,0,0,0,.263-.352,3.945,3.945,0,0,0,.573-1.409c.01-.182.013-.363.008-.545a11.413,11.413,0,0,1-1.017,2.328l.019,0,.154-.02" transform="translate(-306.123 -282.8)" fill="#e6b21c"/>
        <path id="Trazado_600726" data-name="Trazado 600726" d="M372.2,334.941c0,.181,0,.363-.008.545.086-.385.141-.779.205-1.171h0q-.095.315-.2.626" transform="translate(-311.275 -279.599)" fill="#e6b21c"/>
        <path id="Trazado_600727" data-name="Trazado 600727" d="M365.684,352.227l-.154.02-.019,0c-.034.057-.066.114-.1.17a.783.783,0,0,0,.274-.193" transform="translate(-305.604 -294.579)" fill="#e6b21c"/>
      </g>
    </g>
  </g>
</svg>
