<svg xmlns="http://www.w3.org/2000/svg" xmlns:xlink="http://www.w3.org/1999/xlink" width="328.486" height="321.119" viewBox="0 0 328.486 321.119">
  <defs>
    <clipPath id="clip-path">
      <rect id="Rect치ngulo_300835" data-name="Rect치ngulo 300835" width="139.18" height="151.55" fill="none"/>
    </clipPath>
  </defs>
  <g id="Grupo_886473" data-name="Grupo 886473" transform="translate(-460.361 -4844)">
    <rect id="Rect치ngulo_4912" data-name="Rect치ngulo 4912" width="328.486" height="321.119" rx="21" transform="translate(460.361 4844)" fill="#e1fbff"/>
    <path id="Trazado_608258" data-name="Trazado 608258" d="M54.789,14.474h-1.67V19H50.034V6.2H55.07a5.621,5.621,0,0,1,3.56,1.01,3.421,3.421,0,0,1,1.283,2.853,4.155,4.155,0,0,1-.541,2.213A3.837,3.837,0,0,1,57.68,13.7l2.672,5.167V19h-3.3ZM53.119,12.1H55.07a1.751,1.751,0,0,0,1.323-.463,1.788,1.788,0,0,0,.444-1.291,1.809,1.809,0,0,0-.448-1.3,1.735,1.735,0,0,0-1.318-.471H53.119Zm13.122,7.075A4.889,4.889,0,0,1,62.7,17.871a4.507,4.507,0,0,1-1.354-3.4v-.246a5.84,5.84,0,0,1,.541-2.575,3.955,3.955,0,0,1,1.578-1.727,4.763,4.763,0,0,1,2.461-.611,4.117,4.117,0,0,1,3.164,1.244,4.887,4.887,0,0,1,1.16,3.467v1.151H64.36a2.135,2.135,0,0,0,.694,1.257,2.066,2.066,0,0,0,1.389.457,2.662,2.662,0,0,0,2.2-.984l1.354,1.6a3.784,3.784,0,0,1-1.569,1.217A5.3,5.3,0,0,1,66.241,19.176ZM65.907,11.6q-1.3,0-1.547,1.723h2.988v-.229a1.467,1.467,0,0,0-.36-1.1A1.434,1.434,0,0,0,65.907,11.6Zm9.554,5.291a1.317,1.317,0,0,0,.967-.338,1.241,1.241,0,0,0,.334-.945h2.777a3.288,3.288,0,0,1-1.121,2.566,4.168,4.168,0,0,1-2.887,1,4.22,4.22,0,0,1-3.27-1.3,5.125,5.125,0,0,1-1.2-3.6v-.123A5.792,5.792,0,0,1,71.6,11.6a3.872,3.872,0,0,1,1.534-1.7A4.573,4.573,0,0,1,75.5,9.314a4.116,4.116,0,0,1,2.944,1.028,3.647,3.647,0,0,1,1.09,2.786H76.761A1.626,1.626,0,0,0,76.4,12a1.244,1.244,0,0,0-.967-.4q-1.151,0-1.345,1.468a10.357,10.357,0,0,0-.062,1.283,4.068,4.068,0,0,0,.343,1.986A1.187,1.187,0,0,0,75.46,16.891Zm11,1.081a3.054,3.054,0,0,1-2.54,1.2,3,3,0,0,1-2.369-.91,3.826,3.826,0,0,1-.8-2.615V9.49H83.7v6.179a1.065,1.065,0,0,0,1.187,1.222,1.548,1.548,0,0,0,1.45-.729V9.49h2.979V19H86.543Zm10.239-5.8-.976-.07a1.752,1.752,0,0,0-1.793.879V19H90.964V9.49h2.777l.1,1.222a2.294,2.294,0,0,1,2.083-1.4,2.888,2.888,0,0,1,.826.105Zm6.047,4.157a.684.684,0,0,0-.4-.606,6.016,6.016,0,0,0-1.5-.475,6.853,6.853,0,0,1-1.828-.646,3.062,3.062,0,0,1-1.1-.971,2.319,2.319,0,0,1-.378-1.31,2.628,2.628,0,0,1,1.081-2.158,4.453,4.453,0,0,1,2.83-.848,4.934,4.934,0,0,1,3.023.853,2.666,2.666,0,0,1,1.143,2.241h-2.971q0-1.143-1.2-1.143a1.194,1.194,0,0,0-.782.259.8.8,0,0,0-.316.646.737.737,0,0,0,.387.642,3.654,3.654,0,0,0,1.235.4,10.671,10.671,0,0,1,1.49.378A2.706,2.706,0,0,1,105.6,16.24a2.491,2.491,0,0,1-1.156,2.118,5.068,5.068,0,0,1-2.993.817,5.172,5.172,0,0,1-2.18-.439,3.645,3.645,0,0,1-1.494-1.2,2.707,2.707,0,0,1-.536-1.591h2.769a1.145,1.145,0,0,0,.439.962,1.808,1.808,0,0,0,1.081.3,1.422,1.422,0,0,0,.91-.246A.787.787,0,0,0,102.742,16.328Zm3.867-2.171a5.613,5.613,0,0,1,.554-2.536,3.96,3.96,0,0,1,1.591-1.709,4.791,4.791,0,0,1,2.435-.6,4.373,4.373,0,0,1,3.366,1.323,5.076,5.076,0,0,1,1.23,3.6v.105a4.925,4.925,0,0,1-1.235,3.529,4.384,4.384,0,0,1-3.344,1.305,4.434,4.434,0,0,1-3.261-1.217,4.761,4.761,0,0,1-1.327-3.3Zm2.962.185a3.538,3.538,0,0,0,.413,1.934,1.376,1.376,0,0,0,1.222.615q1.582,0,1.617-2.435v-.3q0-2.558-1.635-2.558-1.485,0-1.608,2.206Zm12.5,1.986a.684.684,0,0,0-.4-.606,6.016,6.016,0,0,0-1.5-.475,6.853,6.853,0,0,1-1.828-.646,3.062,3.062,0,0,1-1.1-.971,2.319,2.319,0,0,1-.378-1.31,2.628,2.628,0,0,1,1.081-2.158,4.453,4.453,0,0,1,2.83-.848,4.934,4.934,0,0,1,3.023.853,2.666,2.666,0,0,1,1.143,2.241h-2.971q0-1.143-1.2-1.143a1.194,1.194,0,0,0-.782.259.8.8,0,0,0-.316.646.737.737,0,0,0,.387.642,3.654,3.654,0,0,0,1.235.4,10.671,10.671,0,0,1,1.49.378,2.706,2.706,0,0,1,2.145,2.646,2.491,2.491,0,0,1-1.156,2.118,5.068,5.068,0,0,1-2.993.817,5.172,5.172,0,0,1-2.18-.439,3.645,3.645,0,0,1-1.494-1.2,2.707,2.707,0,0,1-.536-1.591h2.769a1.145,1.145,0,0,0,.439.962,1.808,1.808,0,0,0,1.081.3,1.422,1.422,0,0,0,.91-.246A.787.787,0,0,0,122.069,16.328ZM133.512,9.49l.1,1.116a3.225,3.225,0,0,1,2.716-1.292,2.713,2.713,0,0,1,2.219.888,4.226,4.226,0,0,1,.76,2.672V19h-2.971V13a1.6,1.6,0,0,0-.29-1.059,1.342,1.342,0,0,0-1.055-.338,1.413,1.413,0,0,0-1.292.686V19h-2.962V9.49Zm12.032,9.686A4.889,4.889,0,0,1,142,17.871a4.507,4.507,0,0,1-1.354-3.4v-.246a5.84,5.84,0,0,1,.541-2.575,3.955,3.955,0,0,1,1.578-1.727,4.763,4.763,0,0,1,2.461-.611,4.117,4.117,0,0,1,3.164,1.244,4.887,4.887,0,0,1,1.16,3.467v1.151h-5.889a2.135,2.135,0,0,0,.694,1.257,2.066,2.066,0,0,0,1.389.457,2.662,2.662,0,0,0,2.2-.984l1.354,1.6a3.784,3.784,0,0,1-1.569,1.217A5.3,5.3,0,0,1,145.544,19.176ZM145.21,11.6q-1.3,0-1.547,1.723h2.988v-.229a1.467,1.467,0,0,0-.36-1.1A1.434,1.434,0,0,0,145.21,11.6Zm9.554,5.291a1.317,1.317,0,0,0,.967-.338,1.241,1.241,0,0,0,.334-.945h2.777a3.288,3.288,0,0,1-1.121,2.566,4.168,4.168,0,0,1-2.887,1,4.22,4.22,0,0,1-3.27-1.3,5.125,5.125,0,0,1-1.2-3.6v-.123A5.792,5.792,0,0,1,150.9,11.6a3.872,3.872,0,0,1,1.534-1.7,4.573,4.573,0,0,1,2.373-.593,4.116,4.116,0,0,1,2.944,1.028,3.647,3.647,0,0,1,1.09,2.786h-2.777A1.626,1.626,0,0,0,155.7,12a1.244,1.244,0,0,0-.967-.4q-1.151,0-1.345,1.468a10.357,10.357,0,0,0-.062,1.283,4.068,4.068,0,0,0,.343,1.986A1.187,1.187,0,0,0,154.764,16.891Zm9.932,2.285a4.889,4.889,0,0,1-3.542-1.305,4.507,4.507,0,0,1-1.354-3.4v-.246a5.84,5.84,0,0,1,.541-2.575,3.955,3.955,0,0,1,1.578-1.727,4.763,4.763,0,0,1,2.461-.611,4.117,4.117,0,0,1,3.164,1.244,4.887,4.887,0,0,1,1.16,3.467v1.151h-5.889a2.135,2.135,0,0,0,.694,1.257,2.066,2.066,0,0,0,1.389.457,2.662,2.662,0,0,0,2.2-.984l1.354,1.6a3.784,3.784,0,0,1-1.569,1.217A5.3,5.3,0,0,1,164.7,19.176Zm-.334-7.576q-1.3,0-1.547,1.723H165.8v-.229a1.467,1.467,0,0,0-.36-1.1A1.434,1.434,0,0,0,164.362,11.6Zm10.512,4.729a.684.684,0,0,0-.4-.606,6.016,6.016,0,0,0-1.5-.475,6.853,6.853,0,0,1-1.828-.646,3.062,3.062,0,0,1-1.1-.971,2.319,2.319,0,0,1-.378-1.31,2.628,2.628,0,0,1,1.081-2.158,4.453,4.453,0,0,1,2.83-.848,4.934,4.934,0,0,1,3.023.853,2.666,2.666,0,0,1,1.143,2.241h-2.971q0-1.143-1.2-1.143a1.194,1.194,0,0,0-.782.259.8.8,0,0,0-.316.646.737.737,0,0,0,.387.642,3.654,3.654,0,0,0,1.235.4,10.671,10.671,0,0,1,1.49.378,2.706,2.706,0,0,1,2.145,2.646,2.491,2.491,0,0,1-1.156,2.118,5.068,5.068,0,0,1-2.993.817,5.172,5.172,0,0,1-2.18-.439,3.645,3.645,0,0,1-1.494-1.2,2.707,2.707,0,0,1-.536-1.591h2.769a1.145,1.145,0,0,0,.439.962,1.808,1.808,0,0,0,1.081.3,1.422,1.422,0,0,0,.91-.246A.787.787,0,0,0,174.874,16.328Zm9.6,2.672a3.344,3.344,0,0,1-.281-.853,2.754,2.754,0,0,1-2.285,1.028,3.374,3.374,0,0,1-2.285-.813,2.588,2.588,0,0,1-.94-2.043,2.66,2.66,0,0,1,1.143-2.338,5.821,5.821,0,0,1,3.322-.791h.914v-.5q0-1.316-1.134-1.316a.927.927,0,0,0-1.055,1.042h-2.962a2.655,2.655,0,0,1,1.173-2.239,4.931,4.931,0,0,1,2.993-.86,4.323,4.323,0,0,1,2.874.888,3.086,3.086,0,0,1,1.081,2.435v4.21a4.311,4.311,0,0,0,.4,2V19Zm-1.854-1.934a1.652,1.652,0,0,0,.918-.237,1.487,1.487,0,0,0,.523-.536V14.772H183.2q-1.547,0-1.547,1.389a.848.848,0,0,0,.272.655A.986.986,0,0,0,182.617,17.066Zm11.8-4.9-.976-.07a1.752,1.752,0,0,0-1.793.879V19H188.69V9.49h2.777l.1,1.222a2.294,2.294,0,0,1,2.083-1.4,2.888,2.888,0,0,1,.826.105ZM198.613,19h-2.971V9.49h2.971ZM195.466,7.038A1.322,1.322,0,0,1,195.923,6,1.943,1.943,0,0,1,198.3,6a1.322,1.322,0,0,1,.457,1.037,1.322,1.322,0,0,1-.457,1.037,1.943,1.943,0,0,1-2.373,0A1.322,1.322,0,0,1,195.466,7.038Zm4.6,7.119a5.613,5.613,0,0,1,.554-2.536,3.96,3.96,0,0,1,1.591-1.709,4.791,4.791,0,0,1,2.435-.6,4.373,4.373,0,0,1,3.366,1.323,5.076,5.076,0,0,1,1.23,3.6v.105A4.925,4.925,0,0,1,208,17.871a4.384,4.384,0,0,1-3.344,1.305,4.434,4.434,0,0,1-3.261-1.217,4.761,4.761,0,0,1-1.327-3.3Zm2.962.185a3.538,3.538,0,0,0,.413,1.934,1.376,1.376,0,0,0,1.222.615q1.582,0,1.617-2.435v-.3q0-2.558-1.635-2.558-1.485,0-1.608,2.206Zm12.5,1.986a.684.684,0,0,0-.4-.606,6.016,6.016,0,0,0-1.5-.475A6.853,6.853,0,0,1,211.8,14.6a3.062,3.062,0,0,1-1.1-.971,2.319,2.319,0,0,1-.378-1.31,2.628,2.628,0,0,1,1.081-2.158,4.453,4.453,0,0,1,2.83-.848,4.934,4.934,0,0,1,3.023.853,2.666,2.666,0,0,1,1.143,2.241h-2.971q0-1.143-1.2-1.143a1.194,1.194,0,0,0-.782.259.8.8,0,0,0-.316.646.737.737,0,0,0,.387.642,3.654,3.654,0,0,0,1.235.4,10.671,10.671,0,0,1,1.49.378,2.706,2.706,0,0,1,2.145,2.646,2.491,2.491,0,0,1-1.156,2.118,5.068,5.068,0,0,1-2.993.817,5.172,5.172,0,0,1-2.18-.439,3.645,3.645,0,0,1-1.494-1.2,2.707,2.707,0,0,1-.536-1.591h2.769a1.145,1.145,0,0,0,.439.962,1.808,1.808,0,0,0,1.081.3,1.422,1.422,0,0,0,.91-.246A.787.787,0,0,0,215.523,16.328Z" transform="translate(490.361 5091.627)" fill="#12263f"/>
    <g id="Grupo_886173" data-name="Grupo 886173" transform="translate(555.361 4903.266)">
      <g id="Grupo_886172" data-name="Grupo 886172" clip-path="url(#clip-path)">
        <path id="Trazado_602387" data-name="Trazado 602387" d="M49.614,1.318A5.431,5.431,0,0,0,47.587,5.58c-.033,10.488-.058,20.975.012,31.463.022,3.205,2.032,5.09,5.251,5.105,7.632.035,15.265,0,22.9.013l.389,0c1.192-1.719,2.857-3.011,4.221-4.576.354-.407.717-.805,1.076-1.208q.008-15.894.019-31.788A4.209,4.209,0,0,0,79.133.766c-.418-.247-.827-.51-1.24-.766H50.664c.016.729-.625.953-1.051,1.318m9.362,8.733c3.2-.019,6.4-.006,9.6-.006,3.15,0,6.3-.012,9.451,0,1.609.009,2.525.835,2.534,2.216a2.19,2.19,0,0,1-2.5,2.254q-9.524.021-19.048,0c-1.665,0-2.711-.929-2.671-2.289.039-1.317,1.036-2.172,2.632-2.181m-.154,10.811c4.187-.108,8.381-.123,12.568-.021a2.187,2.187,0,0,1,2.373,2.58c-.1,1.254-1.049,2.007-2.62,2.023-2.022.021-4.044.005-6.066.005-1.973,0-3.946.015-5.918,0-1.705-.017-2.72-.827-2.824-2.2a2.342,2.342,0,0,1,2.487-2.381" transform="translate(-28.746)" fill="#fef8de"/>
        <path id="Trazado_602388" data-name="Trazado 602388" d="M46.442,5.081q-.083,16.193-.008,32.388a5.176,5.176,0,0,0,5.338,5.143q11.685,0,23.369-.006c.094-.153.2-.3.3-.442l-.389,0c-7.632-.014-15.265.022-22.9-.013-3.219-.015-5.229-1.9-5.251-5.105-.07-10.487-.045-20.975-.012-31.463a5.43,5.43,0,0,1,2.027-4.261C49.343.953,49.983.729,49.967,0c-1.945,1.162-3.513,2.683-3.526,5.081" transform="translate(-28.048)" fill="#fef8de"/>
        <path id="Trazado_602389" data-name="Trazado 602389" d="M312.072,36.619c.011-.011.024-.022.034-.034l-.03-.033-.033.067h.029" transform="translate(-188.622 -22.095)" fill="#528ed7"/>
        <path id="Trazado_602390" data-name="Trazado 602390" d="M204.993.863A9.253,9.253,0,0,0,198.6,9.868c0,1.532-.031,3.065.03,4.6l44.867-.009c-.172-2.141.208-4.3-.247-6.435A9.463,9.463,0,0,0,235.977.276,2.265,2.265,0,0,1,235.485,0h-29.3c-.046.767-.734.7-1.192.863" transform="translate(-120.043)" fill="#528ed7"/>
        <path id="Trazado_602391" data-name="Trazado 602391" d="M204.549.346a9.442,9.442,0,0,0-6.943,7.8,41.474,41.474,0,0,0-.094,6.319h.419c-.061-1.534-.035-3.067-.03-4.6A9.253,9.253,0,0,1,204.292.863c.457-.167,1.145-.1,1.192-.863-.232.33-.619.244-.935.346" transform="translate(-119.343)" fill="#528ed7"/>
        <path id="Trazado_602392" data-name="Trazado 602392" d="M128.266,5.468q.016,14.386,0,28.772c0,.542-.026,1.081-.069,1.618,0,.042-.012.082-.017.123l7.466-7.7q0-.246,0-.49c-.015-7.149-.046-14.3.016-21.446.021-2.329-.393-4.312-2.62-5.518a.794.794,0,0,1-.5-.827h-8.287c3.108,1.007,4.005,2.205,4.009,5.468" transform="translate(-75.11)" fill="#feefac"/>
        <path id="Trazado_602393" data-name="Trazado 602393" d="M145.7.827c2.226,1.207,2.64,3.19,2.62,5.518-.063,7.148-.031,14.3-.016,21.446q0,.245,0,.49l.424-.437c.007-7.738.033-15.477.008-23.216A4.356,4.356,0,0,0,146.3.688c-.379-.213-.741-.458-1.11-.688a.794.794,0,0,0,.5.827" transform="translate(-87.761)" fill="#feefac"/>
        <path id="Trazado_602394" data-name="Trazado 602394" d="M127.816,4.592Q127.8,20.486,127.8,36.38l.387-.4c0-.041.014-.081.017-.123.042-.536.068-1.076.068-1.617q0-14.387,0-28.772c0-3.263-.9-4.462-4.008-5.468.413.256.822.519,1.24.766a4.208,4.208,0,0,1,2.319,3.826" transform="translate(-75.11)" fill="#feefac"/>
        <path id="Trazado_602395" data-name="Trazado 602395" d="M300.267,10.276c.006.986.026,1.972-.016,2.958a1.947,1.947,0,0,1-.339,1.257l.03.032,6.277-.1a27.355,27.355,0,0,0-.2-6.24A9.359,9.359,0,0,0,299.72.817C299.3.665,298.685.7,298.675,0h-6.807c5.309,1.014,8.363,4.747,8.4,10.276" transform="translate(-176.427)" fill="#0473cd"/>
        <path id="Trazado_602396" data-name="Trazado 602396" d="M310.123.817a9.358,9.358,0,0,1,6.294,7.362,27.355,27.355,0,0,1,.2,6.24l.394-.007c0-1.422,0-2.845,0-4.267a10.347,10.347,0,0,0-2.391-6.777A11.816,11.816,0,0,0,309.078,0c.01.7.628.665,1.045.817" transform="translate(-186.83)" fill="#0473cd"/>
        <path id="Trazado_602397" data-name="Trazado 602397" d="M299.634,8.022c.455,2.139.075,4.294.247,6.435l.03.033a1.944,1.944,0,0,0,.339-1.257c.042-.985.023-1.972.016-2.958-.036-5.528-3.089-9.262-8.4-10.276a2.274,2.274,0,0,0,.492.276,9.463,9.463,0,0,1,7.274,7.746" transform="translate(-176.427)" fill="#0473cd"/>
        <path id="Trazado_602398" data-name="Trazado 602398" d="M233.083,101.547l3.551-.01c.286-1.363,1.7-1.351,2.553-2.013a9.642,9.642,0,0,0,3.923-7.883c.057-18.283.023-36.567.019-54.85a1.177,1.177,0,0,1-.29.209,5.492,5.492,0,0,1-2.048.219q-20.263.007-40.525,0a4.315,4.315,0,0,1-1.961-.22c0,.047,0,.095.005.142.057,16.241.019,32.479.022,48.717a5.886,5.886,0,0,1-.111,1.318,2.177,2.177,0,0,1-.186.415c1.149-.26,1.975-1.19,3.122-1.514a2.792,2.792,0,0,1,3.095.705c.475.5.974.977,1.461,1.465,1.919,1.919,2.037,2.845.649,5.156-.2.337-.444.651-.628,1a2.861,2.861,0,0,0,1.685,4.368c.368.129.761.186,1.138.292,1.513.424,2.849,1.051,3.365,2.607a1.286,1.286,0,0,1,1.1-.52,95.889,95.889,0,0,1,10.858.127.744.744,0,0,1,.318.236c2.276-3.9,6.143-3.887,8.883.04M204.69,47.108c.013-1.9.806-2.694,2.655-2.743,2.6-.069,5.2-.155,7.8-.211.475-.01.992-.142,1.411.235a2.113,2.113,0,0,1,1.766,2.33q.011,4.4,0,8.8a2.092,2.092,0,0,1-1.508,2.238c-.4.4-.919.289-1.4.286-2.6-.016-5.21-.024-7.814-.079-2.007-.043-2.893-.939-2.906-2.9q-.026-3.982,0-7.964m13.63,27.279a2.119,2.119,0,0,1-1.759,2.359,11.815,11.815,0,0,1-4.661.181c-1.571-.1-3.137-.126-4.706-.17a2.246,2.246,0,0,1-2.5-2.446c-.039-2.854-.02-5.709-.008-8.563,0-1.143.48-2.192,1.629-2.332a39.535,39.535,0,0,1,10.246-.1,2.125,2.125,0,0,1,1.755,2.364q.005,4.354,0,8.709m6.74-25.51q7.464-.018,14.929,0a2.151,2.151,0,0,1,2.4,2.218c.027,1.386-.8,2.192-2.367,2.209-2.513.027-5.026.007-7.538.007-2.464,0-4.927.011-7.39,0a2.22,2.22,0,1,1-.038-4.432m-.216,14.414a6.635,6.635,0,0,1,1.743-.208q6.051,0,12.1,0a10.772,10.772,0,0,1,1.742.2,2.14,2.14,0,0,1,1.981,2.32,2.463,2.463,0,0,1-2.537,2.2c-2.459.034-4.919.01-7.379.01-2.361,0-4.723.01-7.083,0-1.576-.009-2.579-.742-2.693-1.925-.144-1.5.411-2.134,2.124-2.593m-2.124,11a2.063,2.063,0,0,1,2.143-2.01c1.469-.117,2.955-.028,4.433-.03,1.331,0,2.662-.026,3.992,0a2.215,2.215,0,0,1,2.422,2.072,2.167,2.167,0,0,1-1.939,2.381,31.873,31.873,0,0,1-9.239-.011,1.984,1.984,0,0,1-1.812-2.406" transform="translate(-119.708 -22.239)" fill="#dce9fa"/>
        <path id="Trazado_602399" data-name="Trazado 602399" d="M245.106,199.477a95.965,95.965,0,0,0-10.858-.128,1.287,1.287,0,0,0-1.1.52,4.013,4.013,0,0,1,.129.479c.188-.889.908-.579,1.427-.582,3.565-.023,7.13-.011,10.7-.011l.025-.042a.747.747,0,0,0-.318-.236" transform="translate(-140.931 -120.446)" fill="#dce9fa"/>
        <path id="Trazado_602400" data-name="Trazado 602400" d="M197.933,87.043a5.878,5.878,0,0,0,.111-1.318c0-16.238.034-32.476-.022-48.716,0-.047,0-.095-.005-.142a1.754,1.754,0,0,1-.429-.29q-.014,25.463-.029,50.926c.066-.01.126-.031.189-.045a2.14,2.14,0,0,0,.185-.415" transform="translate(-119.419 -22.11)" fill="#dce9fa"/>
        <path id="Trazado_602401" data-name="Trazado 602401" d="M200.663,37.071q20.263.014,40.525,0a5.482,5.482,0,0,0,2.048-.219,1.188,1.188,0,0,0,.29-.209v-.028l.033-.067-44.867.009c0,.1.006.193.01.29a4.316,4.316,0,0,0,1.961.22" transform="translate(-120.104 -22.095)" fill="#dce9fa"/>
        <path id="Trazado_602402" data-name="Trazado 602402" d="M198.051,36.576h-.419a1.747,1.747,0,0,0,.429.29c0-.1-.006-.193-.01-.29" transform="translate(-119.464 -22.109)" fill="#dce9fa"/>
        <path id="Trazado_602403" data-name="Trazado 602403" d="M252.834,210.594c.1-3.532,1.885-6.485,3.924-9.219,3.394-4.552,6.632-9.158,7.914-14.829a25.539,25.539,0,0,0,.86-5.648c0-10.254-.031-20.508.028-30.762a6.4,6.4,0,0,0-1.809-4.95,1.91,1.91,0,0,1-.273-.658h0a6.041,6.041,0,0,0-2.616,4.554c-.492,4.065-.773,8.157-1.3,12.217a13.854,13.854,0,0,1-.546,3.892h0a100.638,100.638,0,0,1-1.605,13.672c-.683,3.332-2.863,5.848-5.5,7.944a10.549,10.549,0,0,1-3.36,5.887c-1.609,1.516-3.128,3.127-4.705,4.678-1.156,1.137-2.251,1.264-3.252.426a2.218,2.218,0,0,1-.14-3.385c1.806-1.977,3.51-4.087,5.838-5.522,1.8-6.667.484-13.471.894-20.2a6.187,6.187,0,0,0-.241-1.736,2.484,2.484,0,0,1-.941-.871,4.345,4.345,0,0,0-6.948-.35c-.321.332-.535.793-1.032.925a.972.972,0,0,1,.105.719c-.6,3.638-.612,7.366-1.738,10.929-.882,2.791-2.762,4.841-4.766,6.83a73.427,73.427,0,0,0-5.512,5.338c-5.682,6.958-6.721,14.614-3.231,22.835,1.42,3.346.955,6.773.935,10.2a.885.885,0,0,1-.21.565l29.207-.022c-.005-4.486-.109-8.975.015-13.457" transform="translate(-133.514 -87.363)" fill="#fecdbe"/>
        <path id="Trazado_602404" data-name="Trazado 602404" d="M223.273,257.33c.019-3.427.485-6.854-.935-10.2-3.49-8.221-2.451-15.878,3.232-22.835a73.4,73.4,0,0,1,5.512-5.338c2-1.989,3.884-4.039,4.765-6.83,1.125-3.563,1.134-7.291,1.738-10.929a.97.97,0,0,0-.106-.719c-.016,0-.03.011-.047.015a49.433,49.433,0,0,0-1.133,7.976,15.976,15.976,0,0,1-5.183,9.956,71.051,71.051,0,0,0-5.928,5.709,21.221,21.221,0,0,0-4.663,18.979c.438,2.088,1.537,3.936,2.075,5.969.765,2.892.209,5.875.364,8.814h.1a.887.887,0,0,0,.211-.565" transform="translate(-132.965 -121.185)" fill="#fecdbe"/>
        <path id="Trazado_602405" data-name="Trazado 602405" d="M265.24,195.058a4.345,4.345,0,0,1,6.948.35,2.485,2.485,0,0,0,.941.871c-.021-.094-.041-.188-.059-.283-2.74-3.927-6.607-3.939-8.883-.04l.021.027c.5-.132.711-.592,1.032-.925" transform="translate(-159.694 -116.688)" fill="#fecdbe"/>
        <path id="Trazado_602406" data-name="Trazado 602406" d="M264.148,200.41l-.025.042c.017,0,.031-.011.047-.015-.006-.009-.014-.018-.021-.027" transform="translate(-159.656 -121.143)" fill="#fecdbe"/>
        <path id="Trazado_602407" data-name="Trazado 602407" d="M42.06,224.42c-.038-2.972-.517-5.97.3-8.9.591-2.12,1.71-4.055,2.135-6.252a21.17,21.17,0,0,0-5.4-19.31c-2.189-2.4-4.82-4.321-6.917-6.828a13.7,13.7,0,0,1-3.169-7.287c-.341-2.665-.771-5.321-1.257-7.964a2.581,2.581,0,0,0-1.075-2.019,4.724,4.724,0,0,0-1.221,3.36c.033,4.978.06,9.957-.013,14.933a9.225,9.225,0,0,0,1.213,5.08c1.759,1.715,3.537,3.409,5.262,5.157a2.821,2.821,0,0,1,.939,1.631,2.272,2.272,0,0,1-1.15,2.37,1.991,1.991,0,0,1-2.57-.337c-1.455-1.4-2.9-2.809-4.281-4.281a6.709,6.709,0,0,0-3.085-1.892,21.41,21.41,0,0,1-9.294-5.16c-3.271-3.272-4.706-7.353-5.074-11.9-.236-2.921-.615-5.831-.944-8.744-.362-3.2-.739-6.4-1.112-9.6-.316-2.717-.623-5.435-.961-8.15-.17-1.361-1.228-2.194-2-3.19h0a5.5,5.5,0,0,0-2.371,4.812C.014,160.1-.024,170.253.03,180.406a30.058,30.058,0,0,0,4.2,14.706c1.693,3.011,4.049,5.555,5.862,8.48a15.629,15.629,0,0,1,2.7,9.018c-.149,3.937-.026,7.884-.021,11.827l29.29-.017" transform="translate(0 -87.73)" fill="#fecdbf"/>
        <path id="Trazado_602408" data-name="Trazado 602408" d="M164.047,170.376c-.589-1.809-2.143-2.284-3.726-2.747-3.018-.883-3.795-2.9-2.185-5.643a11.151,11.151,0,0,0,.752-1.435,2.585,2.585,0,0,0-.695-3.319,5.531,5.531,0,0,1-.418-.416c-2.709-2.724-2.757-2.73-6.187-.986-.394.2-.789.488-1.242.228-.427.6-1.1.6-1.875.324a3.713,3.713,0,0,1-2.313-2.684c-1.18-3.855-1.195-3.85-5.094-3.822-2.309.016-2.9.459-3.6,2.686-.133.424-.228.858-.368,1.28a3.411,3.411,0,0,1-5.162,2.116c-3.738-1.868-3.738-1.868-6.632,1.116-1.39,1.433-1.509,2.157-.645,3.962.3.623.726,1.176,1.011,1.807a3.218,3.218,0,0,1-1.657,4.444c-.81.372-1.691.533-2.525.84a3.006,3.006,0,0,0-2.221,3.121c.009.394-.006.789,0,1.184.02,2.557.6,3.32,3.044,3.984a5.574,5.574,0,0,1,2.527,1.148,3.084,3.084,0,0,1,.823,3.874c-.413.948-1,1.808-1.336,2.8a2.551,2.551,0,0,0,.388,2.512,13.047,13.047,0,0,0,2.278,2.313,2.874,2.874,0,0,0,3.082.233c.819-.341,1.575-.824,2.405-1.141a3.263,3.263,0,0,1,4.517,2.064c.068.185-.02-.045.044.141,1.454,4.2,1.461,4.18,5.882,4.019a2.637,2.637,0,0,0,2.61-1.787c.312-.78.526-1.592.812-2.379a3.253,3.253,0,0,1,4.517-2.052c.827.322,1.587.8,2.406,1.141a2.976,2.976,0,0,0,3.537-.627c.349-.348.708-.687,1.049-1.043,1.562-1.629,1.674-2.312.716-4.354-.252-.536-.535-1.056-.783-1.593a3.4,3.4,0,0,1,2.112-4.962c3.923-1.406,3.924-1.406,4.173-5.646a4.1,4.1,0,0,1,.071-.608.163.163,0,0,1-.088-.092m-14.233,4.34a8.221,8.221,0,0,1-6.758,5.859,8.393,8.393,0,0,1-4.344-.4c-3.638-1.6-5.692-4.356-5.551-8.347a8.526,8.526,0,1,1,16.654,2.886" transform="translate(-72.09 -90.593)" fill="#cae1fe"/>
        <path id="Trazado_602409" data-name="Trazado 602409" d="M163.54,169.657a4.1,4.1,0,0,0-.071.608c-.249,4.24-.25,4.24-4.173,5.646a3.4,3.4,0,0,0-2.112,4.963c.248.537.532,1.057.783,1.593.958,2.041.846,2.724-.716,4.354-.341.356-.7.695-1.049,1.043a2.977,2.977,0,0,1-3.537.627c-.818-.345-1.578-.82-2.405-1.141a3.253,3.253,0,0,0-4.517,2.052c-.286.787-.5,1.6-.812,2.379a2.636,2.636,0,0,1-2.609,1.787c-4.421.161-4.428.18-5.882-4.019-.064-.186.024.044-.045-.141a3.262,3.262,0,0,0-4.516-2.064c-.83.316-1.586.8-2.406,1.141a2.874,2.874,0,0,1-3.082-.233,13.057,13.057,0,0,1-2.278-2.313,2.55,2.55,0,0,1-.388-2.512c.331-.993.924-1.852,1.336-2.8a3.084,3.084,0,0,0-.824-3.874,5.575,5.575,0,0,0-2.527-1.147c-2.448-.664-3.024-1.428-3.044-3.985,0-.394.013-.789,0-1.183a3.006,3.006,0,0,1,2.221-3.121c.834-.307,1.715-.467,2.525-.839a3.218,3.218,0,0,0,1.657-4.444c-.285-.631-.712-1.183-1.011-1.807-.864-1.805-.745-2.529.646-3.962,2.894-2.984,2.894-2.984,6.632-1.116a3.411,3.411,0,0,0,5.162-2.116c.139-.422.235-.856.367-1.28.7-2.227,1.291-2.669,3.6-2.686,3.9-.028,3.914-.032,5.094,3.822a3.712,3.712,0,0,0,2.313,2.684c.773.274,1.448.278,1.874-.324a.923.923,0,0,1-.116-.071,2.677,2.677,0,0,1-3.49-1.742,21.345,21.345,0,0,0-1.115-3.344c-1.055-1.889-6.564-2.138-7.755-.333a2.871,2.871,0,0,0-.335.657c-.31.929-.641,1.854-.888,2.8a2.693,2.693,0,0,1-2.856,2.08,4.17,4.17,0,0,1-2.185-.773c-2.247-1.341-3.564-2.025-5.739.6-.219.265-.484.491-.728.735-1.832,1.839-1.941,2.646-.649,4.918.194.341.433.657.624,1,1.2,2.146.4,4-1.988,4.644-4.017,1.079-4.27,1.41-4.254,5.572,0,.049,0,.1,0,.148.017,2.2.783,3.329,2.969,3.734,3.686.683,4.947,3.055,2.631,6.211-.9,1.232-1.352,2.858-.039,4.195,2.577,2.62,3.056,4.273,7.467,1.746.171-.1.347-.187.526-.269a2.873,2.873,0,0,1,4.235,1.952c.263.893.59,1.77.935,2.635a2.409,2.409,0,0,0,2.545,1.616c4.384-.15,5.045,1.084,6.611-4.6a2.561,2.561,0,0,1,2.791-1.936c1.31.074,2.273.887,3.381,1.385a3.338,3.338,0,0,0,3.5-.073c3.4-2.38,3.76-3.915,1.88-7.639-.066-.132-.13-.265-.2-.4a3.008,3.008,0,0,1,1.878-4.45c4.474-1.4,4.475-1.4,4.451-6.116,0-.148,0-.3-.007-.443h0a.487.487,0,0,1-.3-.027" transform="translate(-71.495 -89.782)" fill="#cae1fe"/>
        <path id="Trazado_602410" data-name="Trazado 602410" d="M208.445,174.1c-.377-.106-.77-.163-1.138-.292a2.861,2.861,0,0,1-1.685-4.369c.184-.346.426-.66.628-1,1.387-2.31,1.27-3.236-.649-5.155-.488-.488-.987-.965-1.461-1.466a2.793,2.793,0,0,0-3.095-.705c-1.147.324-1.972,1.255-3.121,1.514-.024.04-.047.08-.073.116.454.259.848-.028,1.242-.228,3.43-1.744,3.479-1.738,6.187.985a5.453,5.453,0,0,0,.418.417,2.585,2.585,0,0,1,.695,3.319,11.208,11.208,0,0,1-.752,1.436c-1.61,2.739-.833,4.76,2.185,5.643,1.583.463,3.136.939,3.726,2.748a.164.164,0,0,0,.088.092,1.649,1.649,0,0,1,.133-.4c.011-.018.025-.033.037-.05-.516-1.555-1.852-2.183-3.365-2.607" transform="translate(-119.596 -97.285)" fill="#cae1fe"/>
        <path id="Trazado_602411" data-name="Trazado 602411" d="M197.747,165.219c-.063.014-.123.035-.189.045a.959.959,0,0,0,.116.071c.026-.036.049-.076.073-.116" transform="translate(-119.419 -99.871)" fill="#cae1fe"/>
        <path id="Trazado_602412" data-name="Trazado 602412" d="M232.849,200.855a1.63,1.63,0,0,0-.134.4.488.488,0,0,0,.3.027h0a3.984,3.984,0,0,0-.13-.479c-.012.017-.025.032-.036.05" transform="translate(-140.67 -121.382)" fill="#cae1fe"/>
        <path id="Trazado_602413" data-name="Trazado 602413" d="M257.279,348.486a6.088,6.088,0,0,0-.591-2.829l-4.944-.066a1.421,1.421,0,0,1-.242.239,4.817,4.817,0,0,1-2.172.27q-12.3.01-24.593-.005a3.217,3.217,0,0,1-2.323-.437.946.946,0,0,1-.292.215,1.347,1.347,0,0,1-.28.1c-2.874.473-2.875.473-2.876,3.485,0,2.71-.015,5.419.006,8.129.016,2.131.239,2.359,2.4,2.361q17.221.016,34.442,0c.246,0,.493-.005.738.007.108,0,.217,0,.325.005a6.751,6.751,0,0,0,.4-2.533q-.054-4.471,0-8.943" transform="translate(-132.356 -208.901)" fill="#dce9fa"/>
        <path id="Trazado_602414" data-name="Trazado 602414" d="M255.84,359.988c-.245-.012-.492-.007-.738-.007q-17.221,0-34.441,0c-2.162,0-2.384-.23-2.4-2.361-.021-2.709-.006-5.42-.006-8.129,0-3.011,0-3.011,2.876-3.485a1.327,1.327,0,0,0,.28-.1.94.94,0,0,0,.292-.215c-.019-.016-.04-.028-.059-.045-.542,0-1.084.008-1.626.009-2.055.006-2.228.169-2.23,2.161q0,5.323,0,10.646c0,1.732.25,1.988,1.956,1.988q18.115,0,36.23-.01c.072-.147.133-.3.19-.444-.108,0-.217,0-.326-.006" transform="translate(-131.646 -208.933)" fill="#dce9fa"/>
        <path id="Trazado_602415" data-name="Trazado 602415" d="M230.014,346.093q12.3.023,24.593.005a4.819,4.819,0,0,0,2.172-.27,1.421,1.421,0,0,0,.242-.239h-.083l-29.208.022c-.013.015-.026.031-.04.046a3.219,3.219,0,0,0,2.323.437" transform="translate(-137.634 -208.899)" fill="#dce9fa"/>
        <path id="Trazado_602416" data-name="Trazado 602416" d="M227.641,345.643h-.1c.019.018.04.029.059.045.014-.015.027-.03.04-.045" transform="translate(-137.544 -208.933)" fill="#dce9fa"/>
        <path id="Trazado_602417" data-name="Trazado 602417" d="M314.963,148.892c-.026,10.446.13,20.9-.065,31.338-.119,6.386-2.583,12.079-6.348,17.208a65.613,65.613,0,0,0-4.191,6.082,14.8,14.8,0,0,0-2.153,7.873c.083,3.349.033,6.7.009,10.052a2.827,2.827,0,0,1-.3,1.764,8.028,8.028,0,0,1,4.922-.108,2.38,2.38,0,0,1,.233.208l1.719-.051a2.822,2.822,0,0,1-.322-1.785c-.015-3.743-.046-7.486,0-11.228.051-3.835,1.921-6.975,4.055-9.964a58.586,58.586,0,0,0,5.51-8.38,30.262,30.262,0,0,0,3.169-13.532c-.067-9.652-.146-19.306.042-28.955.075-3.823-3.076-7.168-7.244-5.966a1.378,1.378,0,0,1-1.257-.015l-.21.216a6.515,6.515,0,0,1,2.424,5.243" transform="translate(-182.502 -86.561)" fill="#feaf9d"/>
        <path id="Trazado_602418" data-name="Trazado 602418" d="M323.983,142.893c4.167-1.2,7.319,2.143,7.244,5.966-.188,9.648-.11,19.3-.043,28.955a30.265,30.265,0,0,1-3.169,13.532,58.541,58.541,0,0,1-5.51,8.379c-2.134,2.99-4,6.13-4.055,9.964-.05,3.742-.02,7.485,0,11.228a2.821,2.821,0,0,0,.322,1.785l.067,0h0c.008-4.039.077-8.079,0-12.116a14.022,14.022,0,0,1,2.374-8.073c1.851-2.839,3.919-5.537,5.742-8.392a26.755,26.755,0,0,0,4.572-13.835c.221-10.733.089-21.473.1-32.211a5.158,5.158,0,0,0-.38-2.157c-1.5-3.37-4.433-4.43-8.519-3.044l-.006.005a1.377,1.377,0,0,0,1.257.015" transform="translate(-192.479 -86.005)" fill="#feaf9d"/>
        <path id="Trazado_602419" data-name="Trazado 602419" d="M312.225,144.411a1.917,1.917,0,0,0,.273.658,6.4,6.4,0,0,1,1.809,4.95c-.059,10.254-.032,20.508-.028,30.762a25.514,25.514,0,0,1-.86,5.648c-1.282,5.671-4.521,10.277-7.914,14.829-2.038,2.734-3.826,5.686-3.924,9.219-.125,4.483-.021,8.971-.015,13.457h0c.037-.016.074-.026.111-.041a2.824,2.824,0,0,0,.3-1.764c.024-3.351.074-6.7-.009-10.052a14.8,14.8,0,0,1,2.153-7.873,65.627,65.627,0,0,1,4.191-6.082c3.765-5.129,6.229-10.823,6.348-17.208.194-10.443.038-20.892.064-31.338a6.516,6.516,0,0,0-2.424-5.243l-.074.076h0" transform="translate(-182.262 -87.247)" fill="#feaf9d"/>
        <path id="Trazado_602420" data-name="Trazado 602420" d="M306.79,344.919l.238-.007a2.339,2.339,0,0,0-.233-.208,8.022,8.022,0,0,0-4.922.108c-.01.014-.017.028-.028.042l4.944.066" transform="translate(-182.458 -208.163)" fill="#feaf9d"/>
        <path id="Trazado_602421" data-name="Trazado 602421" d="M301.636,345.526h.083c.011-.013.018-.028.029-.042C301.71,345.5,301.673,345.51,301.636,345.526Z" transform="translate(-182.331 -208.837)" fill="#feaf9d"/>
        <path id="Trazado_602422" data-name="Trazado 602422" d="M60.658,357.048q.005-4.851,0-9.7a2.986,2.986,0,0,0-.285-1.71l-4.685-.065a1.907,1.907,0,0,1-.375.319,6.2,6.2,0,0,1-2.052.189q-12.261.007-24.522-.006c-.816,0-1.694.173-2.387-.485a13.453,13.453,0,0,1-1.92,0c-1.426-.2-1.9.67-1.919,1.8q-.085,5.616,0,11.235c.018,1.134.509,1.817,1.927,1.81,11.976-.061,23.951-.04,35.927-.044a9.65,9.65,0,0,0,.289-3.339" transform="translate(-13.584 -208.882)" fill="#dce9fa"/>
        <path id="Trazado_602423" data-name="Trazado 602423" d="M34.674,346.092q12.261.023,24.522.006a6.2,6.2,0,0,0,2.052-.189,1.879,1.879,0,0,0,.375-.319h-.046l-29.289.017h0c.693.659,1.571.483,2.387.485" transform="translate(-19.517 -208.9)" fill="#dce9fa"/>
        <path id="Trazado_602424" data-name="Trazado 602424" d="M68.906,196.873a57.413,57.413,0,0,1,1.2,7.439c.36,4.379,2.75,7.487,5.826,10.256,3.605,3.246,7.108,6.555,8.8,11.3a21.15,21.15,0,0,1-.084,15.6,18.893,18.893,0,0,0-1.5,9.359c.087.81.356,1.769-.263,2.488a6.935,6.935,0,0,1,4.715-.09,1.622,1.622,0,0,1,.2.177l2.087-.05c.006-.789.039-1.579.011-2.366a22.131,22.131,0,0,1,1.5-9.511A21.468,21.468,0,0,0,84.993,216.8a46.662,46.662,0,0,1-5.046-4.987,11.228,11.228,0,0,1-2.8-6.22c-.364-2.966-.873-5.92-1.477-8.847a4.548,4.548,0,0,0-3.83-3.662,4,4,0,0,0-4.4,1.7c1.246.16,1.281,1.24,1.466,2.089" transform="translate(-40.766 -116.652)" fill="#feaf9d"/>
        <path id="Trazado_602425" data-name="Trazado 602425" d="M68.515,199.557c.485,2.642.915,5.3,1.257,7.964a13.7,13.7,0,0,0,3.17,7.287c2.1,2.506,4.727,4.431,6.917,6.828a21.17,21.17,0,0,1,5.4,19.31c-.424,2.2-1.543,4.133-2.134,6.252-.816,2.928-.338,5.927-.3,8.9.023-.011.046-.017.069-.027.619-.719.35-1.679.263-2.488a18.9,18.9,0,0,1,1.5-9.359,21.148,21.148,0,0,0,.084-15.6c-1.7-4.746-5.2-8.055-8.8-11.3-3.076-2.77-5.466-5.877-5.826-10.256a57.346,57.346,0,0,0-1.2-7.439c-.185-.849-.221-1.929-1.466-2.089a2.58,2.58,0,0,1,1.075,2.019" transform="translate(-40.766 -119.407)" fill="#feaf9d"/>
        <path id="Trazado_602426" data-name="Trazado 602426" d="M111.2,344.729a6.937,6.937,0,0,0-4.716.09l-.023.028,4.685.065.251-.006a1.648,1.648,0,0,0-.2-.177" transform="translate(-64.35 -208.157)" fill="#feaf9d"/>
        <path id="Trazado_602427" data-name="Trazado 602427" d="M106.34,345.548h.046c.008-.009.015-.019.023-.028-.023.01-.046.016-.069.027" transform="translate(-64.28 -208.859)" fill="#feaf9d"/>
        <path id="Trazado_602428" data-name="Trazado 602428" d="M8.444,146.908c.5,3.408.814,6.841,1.212,10.262.563,4.84,1.073,9.687,1.635,14.527a33.771,33.771,0,0,0,1.153,6.379c1.511,4.776,4.758,7.949,9.146,10.1a6.99,6.99,0,0,0,1.626.7c3.549.7,6,3.009,8.3,5.554a10.712,10.712,0,0,0,1.61,1.52,1.67,1.67,0,0,0,2.294-.039,1.749,1.749,0,0,0,.363-2.283,6.125,6.125,0,0,0-1.187-1.5q-1.775-1.779-3.553-3.554c-.328-.328-.854-.555-.758-1.169-5.285-.355-10.61-5.179-11.512-10.666-.571-3.474-.81-7-1.248-10.5-.778-6.22-1.482-12.447-2.078-18.687A5.869,5.869,0,0,0,6.016,143.3a4.164,4.164,0,0,1,2.428,3.609" transform="translate(-3.637 -85.895)" fill="#feaf9d"/>
        <path id="Trazado_602429" data-name="Trazado 602429" d="M8.02,148.325c.339,2.715.645,5.433.961,8.15.373,3.2.75,6.4,1.112,9.6.329,2.913.708,5.823.944,8.744.367,4.549,1.8,8.63,5.074,11.9a21.41,21.41,0,0,0,9.294,5.16,6.707,6.707,0,0,1,3.085,1.891c1.38,1.472,2.826,2.883,4.282,4.282a1.991,1.991,0,0,0,2.57.337,2.271,2.271,0,0,0,1.149-2.37,2.82,2.82,0,0,0-.938-1.631c-1.725-1.747-3.5-3.442-5.262-5.156-.1.614.43.841.758,1.169q1.777,1.777,3.553,3.554a6.13,6.13,0,0,1,1.187,1.5,1.749,1.749,0,0,1-.364,2.283,1.67,1.67,0,0,1-2.294.039,10.694,10.694,0,0,1-1.61-1.52c-2.306-2.545-4.755-4.853-8.3-5.554a6.97,6.97,0,0,1-1.626-.7c-4.388-2.15-7.635-5.322-9.146-10.1a33.772,33.772,0,0,1-1.153-6.379c-.562-4.84-1.071-9.687-1.634-14.527-.4-3.422-.709-6.854-1.212-10.263a4.164,4.164,0,0,0-2.428-3.609c.776,1,1.834,1.829,2,3.19" transform="translate(-3.637 -87.73)" fill="#feaf9d"/>
        <path id="Trazado_602430" data-name="Trazado 602430" d="M302.506,36.735a2.637,2.637,0,0,1,.454,1.944c.008,17.5.032,35-.014,52.5a10.309,10.309,0,0,1-5.6,9.58,4.744,4.744,0,0,0-1.1.741c2.744.067,5.483.106,7.979-1.276.009-.11.021-.219.03-.328.6-5.058,1.185-10.118,1.664-15.187a8.374,8.374,0,0,1,1.62-4.492c.384-.5.763-1.039,1.518-.973a.279.279,0,0,1,.259-.178.984.984,0,0,1-.218-.223,3.432,3.432,0,0,1-.26-1.588c0-13.376-.038-26.751.014-40.124,0-.056,0-.111,0-.167a1.039,1.039,0,0,1-.469.116c-1.892.016-3.8.342-5.669-.218l-.131-.144h-.064l-.017.016" transform="translate(-179.073 -22.195)" fill="#cae1fe"/>
        <path id="Trazado_602431" data-name="Trazado 602431" d="M328.082,36.794c0,.055,0,.111,0,.167-.053,13.373-.011,26.749-.014,40.124a3.424,3.424,0,0,0,.26,1.588.982.982,0,0,0,.217.223l.01,0q-.008-9.394-.018-18.788-.02-11.834-.049-23.667a1.1,1.1,0,0,1-.4.356" transform="translate(-198.299 -22.026)" fill="#cae1fe"/>
        <path id="Trazado_602432" data-name="Trazado 602432" d="M312.072,36.721h-.029l.012.016.017-.016" transform="translate(-188.622 -22.197)" fill="#cae1fe"/>
        <path id="Trazado_602433" data-name="Trazado 602433" d="M318.079,36.921a1.042,1.042,0,0,0,.469-.116c0-.117.005-.233.008-.35l-6.277.1c.043.048.087.1.131.144,1.87.56,3.776.234,5.669.218" transform="translate(-188.765 -22.036)" fill="#cae1fe"/>
        <path id="Trazado_602434" data-name="Trazado 602434" d="M328.129,36.794a1.1,1.1,0,0,0,.4-.356l-.394.006c0,.117-.006.233-.008.35" transform="translate(-198.346 -22.026)" fill="#cae1fe"/>
        <path id="Trazado_602435" data-name="Trazado 602435" d="M302.1,91.623a9.643,9.643,0,0,1-3.922,7.883c-.849.662-2.267.65-2.553,2.013l.246.006a4.74,4.74,0,0,1,1.1-.74,10.311,10.311,0,0,0,5.6-9.58q.069-26.249.014-52.5a2.639,2.639,0,0,0-.454-1.944l-.012.012c0,18.284.038,36.567-.019,54.85" transform="translate(-178.697 -22.221)" fill="#cae1fe"/>
        <path id="Trazado_602436" data-name="Trazado 602436" d="M312.044,36.722v.027l.012-.012-.012-.015" transform="translate(-188.623 -22.198)" fill="#cae1fe"/>
        <path id="Trazado_602437" data-name="Trazado 602437" d="M316.77,165a13.838,13.838,0,0,0,.547-3.892c.524-4.06.8-8.151,1.3-12.217a6.043,6.043,0,0,1,2.616-4.554h0a.363.363,0,0,1,.02-.116c-.755-.067-1.133.475-1.518.972a8.37,8.37,0,0,0-1.62,4.492c-.479,5.07-1.064,10.129-1.664,15.187-.009.109-.021.219-.03.328C316.535,165.14,316.653,165.075,316.77,165Z" transform="translate(-191.267 -87.177)" fill="#cae1fe"/>
        <path id="Trazado_602438" data-name="Trazado 602438" d="M328.635,143.96h.01c.015.013.028.027.044.04l.21-.216,0,0a.28.28,0,0,0-.259.178" transform="translate(-198.652 -86.913)" fill="#cae1fe"/>
        <path id="Trazado_602439" data-name="Trazado 602439" d="M329.3,143.782l.005-.006-.009,0,0,0" transform="translate(-199.048 -86.909)" fill="#cae1fe"/>
        <path id="Trazado_602440" data-name="Trazado 602440" d="M328.658,144.273c-.015-.013-.029-.027-.044-.04h-.01a.368.368,0,0,0-.02.116l.074-.076" transform="translate(-198.621 -87.185)" fill="#cae1fe"/>
        <path id="Trazado_602441" data-name="Trazado 602441" d="M127.21,78.3c-.494.476-.789,1.238-1.519,1.444a1.711,1.711,0,0,1-.4.74c-1.652,1.729-3.3,3.464-5.046,5.1,2.674.023,5.349.039,8.023-.015,3.117-.062,4.928-1.927,4.952-5.038.022-2.9.01-5.8.007-8.706A57.136,57.136,0,0,1,127.21,78.3" transform="translate(-72.684 -43.413)" fill="#fec345"/>
        <path id="Trazado_602442" data-name="Trazado 602442" d="M132.511,70.962c0,2.9.015,5.8-.007,8.706-.024,3.11-1.834,4.976-4.952,5.038-2.674.053-5.349.038-8.023.015-.157.146-.309.3-.467.441,2.949,0,5.9.034,8.847,0a4.918,4.918,0,0,0,5.045-4.734c.058-3.34-.008-6.682-.019-10.024-.138.19-.282.375-.424.562" transform="translate(-71.97 -42.555)" fill="#fec345"/>
        <path id="Trazado_602443" data-name="Trazado 602443" d="M125.033,92.588a1.7,1.7,0,0,0,.4-.74,1.394,1.394,0,0,1-.319.052c-.359.4-.721.8-1.076,1.208-1.363,1.565-3.029,2.857-4.221,4.576l.168,0c1.749-1.633,3.395-3.368,5.047-5.1" transform="translate(-72.427 -55.52)" fill="#fec345"/>
        <path id="Trazado_602444" data-name="Trazado 602444" d="M119.528,106.605h-.168c-.1.146-.205.29-.3.442.158-.144.31-.295.467-.441" transform="translate(-71.969 -64.439)" fill="#fec345"/>
        <path id="Trazado_602445" data-name="Trazado 602445" d="M135.535,78.107a57.137,57.137,0,0,0,6.015-6.477V71.5l-7.466,7.7a2.407,2.407,0,0,1-.068.347c.73-.206,1.025-.969,1.519-1.444" transform="translate(-81.009 -43.223)" fill="#fec345"/>
        <path id="Trazado_602446" data-name="Trazado 602446" d="M153.064,70.962c.142-.187.286-.371.424-.562l-.424.437v.124" transform="translate(-92.523 -42.555)" fill="#fec345"/>
        <path id="Trazado_602447" data-name="Trazado 602447" d="M133.6,90.971l-.388.4a1.391,1.391,0,0,0,.319-.053,2.34,2.34,0,0,0,.068-.346" transform="translate(-80.521 -54.99)" fill="#fec345"/>
        <path id="Trazado_602448" data-name="Trazado 602448" d="M120.63,345.615h0a1.708,1.708,0,0,1-1.939.234,2.62,2.62,0,0,1,.339,1.5c.032,3.69.027,7.381,0,11.071a2.336,2.336,0,0,1-.748,2h0c1.378,0,2.757.013,4.136.009,1.844,0,2.067-.218,2.071-2.016.006-2.955-.008-5.909,0-8.863.018-4.444.238-3.863-3.867-3.937" transform="translate(-71.502 -208.916)" fill="#cae1fe"/>
        <path id="Trazado_602449" data-name="Trazado 602449" d="M119.035,358.51c.023-3.69.028-7.381,0-11.071a2.615,2.615,0,0,0-.339-1.5c-.133-.053-.265-.111-.4-.178a2.987,2.987,0,0,1,.285,1.711q0,4.851,0,9.7a9.656,9.656,0,0,1-.289,3.339,2.337,2.337,0,0,0,.748-2" transform="translate(-71.502 -209.001)" fill="#cae1fe"/>
        <path id="Trazado_602450" data-name="Trazado 602450" d="M119.083,345.85a1.708,1.708,0,0,0,1.939-.234l-2.086.05a1.467,1.467,0,0,1,.147.184" transform="translate(-71.894 -208.916)" fill="#cae1fe"/>
        <path id="Trazado_602451" data-name="Trazado 602451" d="M118.552,345.741l-.251.006c.133.067.266.125.4.178a1.511,1.511,0,0,0-.147-.184" transform="translate(-71.51 -208.992)" fill="#cae1fe"/>
        <path id="Trazado_602452" data-name="Trazado 602452" d="M315.376,345.9a3.517,3.517,0,0,1,.61,2.249q.072,4.93,0,9.861a3.142,3.142,0,0,1-.513,2.019c1.111.016,2.222-.009,3.334-.008a1.394,1.394,0,0,0,1.583-1.52c.072-3.634.054-7.269.01-10.9a1.325,1.325,0,0,0-1.471-1.454,3.632,3.632,0,0,1-1.866-.316,1.555,1.555,0,0,1-.112-.135,1.378,1.378,0,0,1-1.576.208" transform="translate(-190.637 -208.96)" fill="#cae1fe"/>
        <path id="Trazado_602453" data-name="Trazado 602453" d="M316.438,345.772a3.629,3.629,0,0,0,1.866.316,1.326,1.326,0,0,1,1.471,1.454c.043,3.635.062,7.27-.01,10.9a1.4,1.4,0,0,1-1.583,1.52c-1.112,0-2.223.024-3.335.008a1.917,1.917,0,0,1-.506.439c1.277,0,2.555.013,3.832.01,1.719,0,2.058-.324,2.068-2.061.017-3-.01-5.994.009-8.991.026-4.221.141-3.712-3.734-3.76-.049,0-.1-.006-.147-.009h0c-.013.013-.028.021-.042.033a1.5,1.5,0,0,0,.112.134" transform="translate(-190.011 -208.909)" fill="#cae1fe"/>
        <path id="Trazado_602454" data-name="Trazado 602454" d="M315.364,348.188a3.517,3.517,0,0,0-.61-2.249q-.2-.08-.407-.181a6.086,6.086,0,0,1,.591,2.829q-.052,4.471,0,8.943a6.755,6.755,0,0,1-.4,2.533l.316.005a3.143,3.143,0,0,0,.513-2.02q.072-4.93,0-9.861" transform="translate(-190.015 -209.002)" fill="#cae1fe"/>
        <path id="Trazado_602455" data-name="Trazado 602455" d="M314.846,381.931l-.316-.006c-.057.149-.119.3-.191.444h0a1.933,1.933,0,0,0,.506-.439" transform="translate(-190.011 -230.864)" fill="#cae1fe"/>
        <path id="Trazado_602456" data-name="Trazado 602456" d="M315.118,345.849a1.378,1.378,0,0,0,1.576-.208c-.008-.011-.018-.021-.026-.031l-1.719.051a2.2,2.2,0,0,1,.168.188" transform="translate(-190.379 -208.912)" fill="#cae1fe"/>
        <path id="Trazado_602457" data-name="Trazado 602457" d="M319.322,345.637c.014-.013.028-.02.042-.033l-.067,0c.008.011.017.021.026.031" transform="translate(-193.006 -208.909)" fill="#cae1fe"/>
        <path id="Trazado_602458" data-name="Trazado 602458" d="M314.754,345.927a2.205,2.205,0,0,0-.168-.188l-.239.007q.2.1.407.181" transform="translate(-190.015 -208.991)" fill="#cae1fe"/>
        <path id="Trazado_602459" data-name="Trazado 602459" d="M72.443,29.866q9.524.018,19.048,0a2.19,2.19,0,0,0,2.5-2.254c-.009-1.381-.925-2.207-2.534-2.215-3.15-.017-6.3,0-9.45,0-3.2,0-6.4-.014-9.6.006-1.6.009-2.593.865-2.632,2.181-.041,1.36,1.005,2.286,2.671,2.289" transform="translate(-42.175 -15.344)" fill="#fed05b"/>
        <path id="Trazado_602460" data-name="Trazado 602460" d="M72.566,57.188c1.972.019,3.945,0,5.918,0,2.022,0,4.044.016,6.066,0,1.571-.016,2.518-.769,2.62-2.024a2.186,2.186,0,0,0-2.373-2.58c-4.187-.1-8.381-.087-12.568.021a2.343,2.343,0,0,0-2.487,2.38c.1,1.375,1.119,2.185,2.824,2.2" transform="translate(-42.154 -31.745)" fill="#fed05b"/>
        <path id="Trazado_602461" data-name="Trazado 602461" d="M295.812,200.549c.019-.02.039-.037.058-.056l-.246-.006c.063.023.125.041.188.062" transform="translate(-178.697 -121.189)" fill="#fefefe"/>
        <path id="Trazado_602462" data-name="Trazado 602462" d="M316.727,196.769c-.117.072-.235.136-.352.2-.008.1-.019.2-.028.3a2.183,2.183,0,0,0,.38-.5" transform="translate(-191.224 -118.942)" fill="#fefefe"/>
        <path id="Trazado_602463" data-name="Trazado 602463" d="M217.743,69.174c2.6.055,5.21.064,7.814.079.48,0,.995.11,1.4-.286h-4.617c1.694-2.111,1-4.463.991-6.674-.008-2.186.74-4.532-1.141-6.7H226.7c-.419-.377-.936-.245-1.411-.235-2.6.056-5.2.142-7.8.211-1.849.049-2.642.842-2.655,2.743q-.027,3.982,0,7.964c.013,1.956.9,2.852,2.906,2.895" transform="translate(-129.856 -33.446)" fill="#528ed7"/>
        <path id="Trazado_602464" data-name="Trazado 602464" d="M221.91,103.408h4.8a39.514,39.514,0,0,0-10.245.1c-1.149.14-1.624,1.189-1.629,2.332-.012,2.854-.032,5.709.007,8.563a2.246,2.246,0,0,0,2.5,2.446c1.569.044,3.136.066,4.707.17a11.824,11.824,0,0,0,4.661-.18h-4.625c1.439-2.279,1.417-11.455-.172-13.431" transform="translate(-129.853 -62.332)" fill="#528fd7"/>
        <path id="Trazado_602465" data-name="Trazado 602465" d="M263.105,107.991c2.361.013,4.723,0,7.084,0,2.46,0,4.92.024,7.379-.01a2.463,2.463,0,0,0,2.536-2.2,2.14,2.14,0,0,0-1.981-2.32,10.735,10.735,0,0,0-1.742-.2q-6.051,0-12.1,0a6.6,6.6,0,0,0-1.743.208c-1.713.458-2.268,1.092-2.124,2.593.113,1.183,1.117,1.916,2.692,1.924" transform="translate(-157.4 -62.421)" fill="#fef8de"/>
        <path id="Trazado_602466" data-name="Trazado 602466" d="M262.819,71.766c2.463.015,4.927,0,7.39,0,2.513,0,5.026.019,7.538-.008,1.566-.017,2.394-.823,2.367-2.209a2.151,2.151,0,0,0-2.4-2.218q-7.464-.025-14.929,0a2.22,2.22,0,1,0,.038,4.432" transform="translate(-157.429 -40.695)" fill="#fef8de"/>
        <path id="Trazado_602467" data-name="Trazado 602467" d="M238.606,103.852h0c-1.415.894-2.85.517-4.108.288,1.446,1.789,1.456,11,.023,12.851,1.24-.227,2.667-.592,4.081.292a2.119,2.119,0,0,0,1.758-2.359q.009-4.354,0-8.708a2.126,2.126,0,0,0-1.756-2.364" transform="translate(-141.748 -62.776)" fill="#0473cd"/>
        <path id="Trazado_602468" data-name="Trazado 602468" d="M233.462,116.991c1.433-1.855,1.423-11.062-.023-12.851,1.258.228,2.693.606,4.108-.288h-4.8c1.589,1.976,1.611,11.152.172,13.431h4.624c-1.413-.884-2.84-.519-4.08-.292" transform="translate(-140.689 -62.776)" fill="#0473cd"/>
        <path id="Trazado_602469" data-name="Trazado 602469" d="M235.085,56.275c1.541,2.111,1.5,11.026-.03,12.864a5.661,5.661,0,0,1,4.13.233,2.092,2.092,0,0,0,1.509-2.238q.011-4.4,0-8.8A2.113,2.113,0,0,0,238.93,56h0a4.906,4.906,0,0,1-3.844.274" transform="translate(-142.085 -33.851)" fill="#0473cd"/>
        <path id="Trazado_602470" data-name="Trazado 602470" d="M234.585,62.7c.008,2.212.7,4.563-.991,6.675h4.617a5.66,5.66,0,0,0-4.13-.233c1.53-1.838,1.571-10.753.03-12.864A4.907,4.907,0,0,0,237.956,56h-4.512c1.882,2.165,1.133,4.51,1.141,6.7" transform="translate(-141.111 -33.851)" fill="#0473cd"/>
        <path id="Trazado_602471" data-name="Trazado 602471" d="M271.484,130.864a2.167,2.167,0,0,0,1.939-2.381A2.215,2.215,0,0,0,271,126.411c-1.33-.031-2.661-.007-3.992,0-1.479,0-2.964-.087-4.433.03a2.064,2.064,0,0,0-2.143,2.01,1.984,1.984,0,0,0,1.812,2.406,31.875,31.875,0,0,0,9.239.011" transform="translate(-157.42 -76.391)" fill="#fef8de"/>
        <path id="Trazado_602472" data-name="Trazado 602472" d="M275.918,254.022c-1.174,1.4-2.7,2.455-3.9,3.834a20.553,20.553,0,0,0-1.787,1.96,1.946,1.946,0,0,0,.175,2.783,1.81,1.81,0,0,0,2.636-.3c2.01-1.955,4.007-3.924,5.942-5.955a11.117,11.117,0,0,0,2.091-4.084,6.247,6.247,0,0,1-5.156,1.761" transform="translate(-163.05 -152.485)" fill="#feaf9d"/>
        <path id="Trazado_602473" data-name="Trazado 602473" d="M278.28,255.835c-1.934,2.031-3.931,4-5.942,5.955a1.811,1.811,0,0,1-2.636.3,1.946,1.946,0,0,1-.175-2.783,20.449,20.449,0,0,1,1.786-1.96c1.2-1.379,2.727-2.434,3.9-3.834-.029,0-.057-.006-.086-.011-2.328,1.435-4.032,3.545-5.838,5.522a2.218,2.218,0,0,0,.14,3.386c1,.838,2.1.711,3.252-.426,1.577-1.55,3.1-3.161,4.705-4.677a10.551,10.551,0,0,0,3.36-5.888c-.124.115-.25.225-.377.333a11.113,11.113,0,0,1-2.091,4.084" transform="translate(-162.347 -151.976)" fill="#feaf9d"/>
        <path id="Trazado_602474" data-name="Trazado 602474" d="M285.362,253.746a6.247,6.247,0,0,0,5.156-1.761c.022-.061.046-.12.069-.181a16.12,16.12,0,0,1-5.2,1.914l-.023.028" transform="translate(-172.494 -152.209)" fill="#feaf9d"/>
        <path id="Trazado_602475" data-name="Trazado 602475" d="M298.467,251.571c-.023.061-.046.12-.069.181.127-.108.253-.219.377-.333h0l-.309.153" transform="translate(-180.374 -151.976)" fill="#feaf9d"/>
        <path id="Trazado_602476" data-name="Trazado 602476" d="M285.253,256.643c-.037,0-.072.013-.109.017l.086.011.023-.028" transform="translate(-172.362 -155.134)" fill="#feaf9d"/>
        <path id="Trazado_602477" data-name="Trazado 602477" d="M163.169,199.007a8.687,8.687,0,0,0-2.266-12.035c-.357-.246-.676-.55-1.012-.827a8.072,8.072,0,0,0-5.5,7.612c-.141,3.992,1.913,6.752,5.551,8.347.888-1.224,2.355-1.823,3.226-3.1" transform="translate(-93.322 -112.52)" fill="#5a5a5a"/>
        <path id="Trazado_602478" data-name="Trazado 602478" d="M168.308,185.18c3.385,1.072,5.767,5.56,5.034,9.459a8.665,8.665,0,0,1-4.983,6.5,8.394,8.394,0,0,0,4.344.4,8.221,8.221,0,0,0,6.758-5.859,8.5,8.5,0,0,0-11.153-10.5" transform="translate(-101.738 -111.555)" fill="#444"/>
        <path id="Trazado_602479" data-name="Trazado 602479" d="M173.342,195.6c.733-3.9-1.649-8.386-5.034-9.459.337.277.655.58,1.012.827a8.687,8.687,0,0,1,2.266,12.035c-.872,1.274-2.338,1.873-3.226,3.1a8.666,8.666,0,0,0,4.983-6.5" transform="translate(-101.738 -112.52)" fill="#444"/>
      </g>
    </g>
  </g>
</svg>
