<svg xmlns="http://www.w3.org/2000/svg" xmlns:xlink="http://www.w3.org/1999/xlink" width="328.486" height="322.119" viewBox="0 0 328.486 322.119">
  <defs>
    <clipPath id="clip-path">
      <rect id="Rect치ngulo_300838" data-name="Rect치ngulo 300838" width="148.954" height="151.55" fill="none"/>
    </clipPath>
  </defs>
  <g id="Grupo_886470" data-name="Grupo 886470" transform="translate(-986.361 -4499.373)">
    <rect id="Rect치ngulo_4912" data-name="Rect치ngulo 4912" width="328.486" height="322.119" rx="21" transform="translate(986.361 4499.373)" fill="#e1efe3"/>
    <path id="Trazado_608255" data-name="Trazado 608255" d="M40.959,16.609H36.731L35.993,19H32.7L37.391,6.2h2.9L45.02,19H41.706ZM37.47,14.228h2.751l-1.38-4.438Zm12.366,2.663a1.317,1.317,0,0,0,.967-.338,1.241,1.241,0,0,0,.334-.945h2.777a3.288,3.288,0,0,1-1.121,2.566,4.168,4.168,0,0,1-2.887,1,4.22,4.22,0,0,1-3.27-1.3,5.125,5.125,0,0,1-1.2-3.6v-.123a5.792,5.792,0,0,1,.532-2.544,3.872,3.872,0,0,1,1.534-1.7,4.573,4.573,0,0,1,2.373-.593,4.116,4.116,0,0,1,2.944,1.028,3.647,3.647,0,0,1,1.09,2.786H51.137A1.626,1.626,0,0,0,50.776,12a1.244,1.244,0,0,0-.967-.4q-1.151,0-1.345,1.468a10.357,10.357,0,0,0-.062,1.283,4.068,4.068,0,0,0,.343,1.986A1.187,1.187,0,0,0,49.836,16.891Zm9.352,0a1.317,1.317,0,0,0,.967-.338,1.241,1.241,0,0,0,.334-.945h2.777a3.288,3.288,0,0,1-1.121,2.566,4.168,4.168,0,0,1-2.887,1,4.22,4.22,0,0,1-3.27-1.3,5.125,5.125,0,0,1-1.2-3.6v-.123a5.792,5.792,0,0,1,.532-2.544,3.872,3.872,0,0,1,1.534-1.7,4.573,4.573,0,0,1,2.373-.593,4.116,4.116,0,0,1,2.944,1.028,3.647,3.647,0,0,1,1.09,2.786H60.488A1.626,1.626,0,0,0,60.128,12a1.244,1.244,0,0,0-.967-.4q-1.151,0-1.345,1.468a10.357,10.357,0,0,0-.062,1.283,4.068,4.068,0,0,0,.343,1.986A1.187,1.187,0,0,0,59.188,16.891ZM67.643,19H64.672V9.49h2.971ZM64.5,7.038A1.322,1.322,0,0,1,64.953,6a1.943,1.943,0,0,1,2.373,0,1.322,1.322,0,0,1,.457,1.037,1.322,1.322,0,0,1-.457,1.037,1.943,1.943,0,0,1-2.373,0A1.322,1.322,0,0,1,64.5,7.038Zm4.6,7.119a5.613,5.613,0,0,1,.554-2.536,3.96,3.96,0,0,1,1.591-1.709,4.791,4.791,0,0,1,2.435-.6,4.373,4.373,0,0,1,3.366,1.323,5.076,5.076,0,0,1,1.23,3.6v.105a4.925,4.925,0,0,1-1.235,3.529,4.384,4.384,0,0,1-3.344,1.305,4.434,4.434,0,0,1-3.261-1.217,4.761,4.761,0,0,1-1.327-3.3Zm2.962.185a3.538,3.538,0,0,0,.413,1.934,1.376,1.376,0,0,0,1.222.615q1.582,0,1.617-2.435v-.3q0-2.558-1.635-2.558-1.485,0-1.608,2.206ZM82.294,9.49l.1,1.116a3.225,3.225,0,0,1,2.716-1.292,2.713,2.713,0,0,1,2.219.888,4.226,4.226,0,0,1,.76,2.672V19H85.115V13a1.6,1.6,0,0,0-.29-1.059,1.342,1.342,0,0,0-1.055-.338,1.413,1.413,0,0,0-1.292.686V19H79.517V9.49Zm12.032,9.686a4.889,4.889,0,0,1-3.542-1.305,4.507,4.507,0,0,1-1.354-3.4v-.246a5.84,5.84,0,0,1,.541-2.575,3.955,3.955,0,0,1,1.578-1.727,4.763,4.763,0,0,1,2.461-.611,4.117,4.117,0,0,1,3.164,1.244,4.887,4.887,0,0,1,1.16,3.467v1.151H92.445a2.135,2.135,0,0,0,.694,1.257,2.066,2.066,0,0,0,1.389.457,2.662,2.662,0,0,0,2.2-.984l1.354,1.6a3.784,3.784,0,0,1-1.569,1.217A5.3,5.3,0,0,1,94.326,19.176ZM93.992,11.6q-1.3,0-1.547,1.723h2.988v-.229a1.467,1.467,0,0,0-.36-1.1A1.434,1.434,0,0,0,93.992,11.6ZM104.5,16.328a.684.684,0,0,0-.4-.606,6.016,6.016,0,0,0-1.5-.475,6.853,6.853,0,0,1-1.828-.646,3.062,3.062,0,0,1-1.1-.971,2.319,2.319,0,0,1-.378-1.31,2.628,2.628,0,0,1,1.081-2.158,4.453,4.453,0,0,1,2.83-.848,4.934,4.934,0,0,1,3.023.853,2.666,2.666,0,0,1,1.143,2.241h-2.971q0-1.143-1.2-1.143a1.194,1.194,0,0,0-.782.259.8.8,0,0,0-.316.646.737.737,0,0,0,.387.642,3.654,3.654,0,0,0,1.235.4,10.671,10.671,0,0,1,1.49.378,2.706,2.706,0,0,1,2.145,2.646,2.491,2.491,0,0,1-1.156,2.118,5.068,5.068,0,0,1-2.993.817,5.172,5.172,0,0,1-2.18-.439,3.645,3.645,0,0,1-1.494-1.2A2.707,2.707,0,0,1,99,15.95h2.769a1.145,1.145,0,0,0,.439.962,1.808,1.808,0,0,0,1.081.3,1.422,1.422,0,0,0,.91-.246A.787.787,0,0,0,104.5,16.328Zm8.35-2.18a5.709,5.709,0,0,1,.984-3.551,3.233,3.233,0,0,1,2.716-1.283,2.761,2.761,0,0,1,2.338,1.2l.211-1.02h2.566V22.656H118.7V18.209a2.757,2.757,0,0,1-2.162.967,3.2,3.2,0,0,1-2.685-1.305A6.027,6.027,0,0,1,112.854,14.148Zm2.962.185q0,2.558,1.477,2.558a1.43,1.43,0,0,0,1.406-.773V12.355a1.4,1.4,0,0,0-1.389-.756q-1.38,0-1.485,2.206Zm13.192,3.639a3.054,3.054,0,0,1-2.54,1.2,3,3,0,0,1-2.369-.91,3.826,3.826,0,0,1-.8-2.615V9.49h2.962v6.179a1.065,1.065,0,0,0,1.187,1.222,1.548,1.548,0,0,0,1.45-.729V9.49h2.979V19H129.1Zm9.088,1.2a4.889,4.889,0,0,1-3.542-1.305,4.507,4.507,0,0,1-1.354-3.4v-.246a5.84,5.84,0,0,1,.541-2.575,3.955,3.955,0,0,1,1.578-1.727,4.763,4.763,0,0,1,2.461-.611,4.117,4.117,0,0,1,3.164,1.244,4.887,4.887,0,0,1,1.16,3.467v1.151h-5.889a2.135,2.135,0,0,0,.694,1.257,2.066,2.066,0,0,0,1.389.457,2.662,2.662,0,0,0,2.2-.984l1.354,1.6a3.784,3.784,0,0,1-1.569,1.217A5.3,5.3,0,0,1,138.1,19.176Zm-.334-7.576q-1.3,0-1.547,1.723H139.2v-.229a1.467,1.467,0,0,0-.36-1.1A1.434,1.434,0,0,0,137.762,11.6Zm14.994,4.729a.684.684,0,0,0-.4-.606,6.016,6.016,0,0,0-1.5-.475,6.853,6.853,0,0,1-1.828-.646,3.062,3.062,0,0,1-1.1-.971,2.319,2.319,0,0,1-.378-1.31,2.628,2.628,0,0,1,1.081-2.158,4.453,4.453,0,0,1,2.83-.848,4.934,4.934,0,0,1,3.023.853,2.666,2.666,0,0,1,1.143,2.241h-2.971q0-1.143-1.2-1.143a1.194,1.194,0,0,0-.782.259.8.8,0,0,0-.316.646.737.737,0,0,0,.387.642,3.654,3.654,0,0,0,1.235.4,10.671,10.671,0,0,1,1.49.378,2.706,2.706,0,0,1,2.145,2.646,2.491,2.491,0,0,1-1.156,2.118,5.068,5.068,0,0,1-2.993.817,5.172,5.172,0,0,1-2.18-.439,3.645,3.645,0,0,1-1.494-1.2,2.707,2.707,0,0,1-.536-1.591h2.769a1.145,1.145,0,0,0,.439.962,1.808,1.808,0,0,0,1.081.3,1.422,1.422,0,0,0,.91-.246A.787.787,0,0,0,152.756,16.328Zm8.842,2.848a4.889,4.889,0,0,1-3.542-1.305,4.507,4.507,0,0,1-1.354-3.4v-.246a5.84,5.84,0,0,1,.541-2.575,3.955,3.955,0,0,1,1.578-1.727,4.763,4.763,0,0,1,2.461-.611,4.117,4.117,0,0,1,3.164,1.244,4.887,4.887,0,0,1,1.16,3.467v1.151h-5.889a2.135,2.135,0,0,0,.694,1.257,2.066,2.066,0,0,0,1.389.457,2.662,2.662,0,0,0,2.2-.984l1.354,1.6a3.784,3.784,0,0,1-1.569,1.217A5.3,5.3,0,0,1,161.6,19.176Zm-.334-7.576q-1.3,0-1.547,1.723h2.988v-.229a1.467,1.467,0,0,0-.36-1.1A1.434,1.434,0,0,0,161.264,11.6ZM174.4,19h-2.971V5.5H174.4Zm4.948,0h-2.971V5.5h2.971Zm6.425.176a4.889,4.889,0,0,1-3.542-1.305,4.507,4.507,0,0,1-1.354-3.4v-.246a5.84,5.84,0,0,1,.541-2.575A3.955,3.955,0,0,1,183,9.925a4.763,4.763,0,0,1,2.461-.611,4.117,4.117,0,0,1,3.164,1.244,4.887,4.887,0,0,1,1.16,3.467v1.151H183.9a2.135,2.135,0,0,0,.694,1.257,2.066,2.066,0,0,0,1.389.457,2.662,2.662,0,0,0,2.2-.984l1.354,1.6a3.784,3.784,0,0,1-1.569,1.217A5.3,5.3,0,0,1,185.776,19.176Zm-.334-7.576q-1.3,0-1.547,1.723h2.988v-.229a1.467,1.467,0,0,0-.36-1.1A1.434,1.434,0,0,0,185.442,11.6Zm9.211,3.876,1.5-5.985h3.12l-3.1,9.51H193.15l-3.1-9.51h3.129ZM205.385,19a3.344,3.344,0,0,1-.281-.853,2.754,2.754,0,0,1-2.285,1.028,3.374,3.374,0,0,1-2.285-.813,2.588,2.588,0,0,1-.94-2.043,2.66,2.66,0,0,1,1.143-2.338,5.821,5.821,0,0,1,3.322-.791h.914v-.5q0-1.316-1.134-1.316a.927.927,0,0,0-1.055,1.042h-2.962a2.655,2.655,0,0,1,1.173-2.239,4.931,4.931,0,0,1,2.993-.86,4.323,4.323,0,0,1,2.874.888,3.086,3.086,0,0,1,1.081,2.435v4.21a4.311,4.311,0,0,0,.4,2V19Zm-1.854-1.934a1.652,1.652,0,0,0,.918-.237,1.487,1.487,0,0,0,.523-.536V14.772h-.861q-1.547,0-1.547,1.389a.848.848,0,0,0,.272.655A.986.986,0,0,0,203.53,17.066Zm11.8-4.9-.976-.07a1.752,1.752,0,0,0-1.793.879V19H209.6V9.49h2.777l.1,1.222a2.294,2.294,0,0,1,2.083-1.4,2.888,2.888,0,0,1,.826.105ZM221.759,19a3.344,3.344,0,0,1-.281-.853,2.754,2.754,0,0,1-2.285,1.028,3.374,3.374,0,0,1-2.285-.813,2.588,2.588,0,0,1-.94-2.043,2.66,2.66,0,0,1,1.143-2.338,5.821,5.821,0,0,1,3.322-.791h.914v-.5q0-1.316-1.134-1.316a.927.927,0,0,0-1.055,1.042H216.2a2.655,2.655,0,0,1,1.173-2.239,4.931,4.931,0,0,1,2.993-.86,4.323,4.323,0,0,1,2.874.888,3.086,3.086,0,0,1,1.081,2.435v4.21a4.311,4.311,0,0,0,.4,2V19ZM219.9,17.066a1.652,1.652,0,0,0,.918-.237,1.487,1.487,0,0,0,.523-.536V14.772h-.861q-1.547,0-1.547,1.389a.848.848,0,0,0,.272.655A.986.986,0,0,0,219.9,17.066ZM220.643,5.5h3.129l-2.443,2.76-2.417,0Zm8.033,3.99.1,1.116a3.225,3.225,0,0,1,2.716-1.292,2.713,2.713,0,0,1,2.219.888,4.226,4.226,0,0,1,.76,2.672V19H231.5V13a1.6,1.6,0,0,0-.29-1.059,1.342,1.342,0,0,0-1.055-.338,1.413,1.413,0,0,0-1.292.686V19H225.9V9.49ZM56.617,44a3.344,3.344,0,0,1-.281-.853,2.754,2.754,0,0,1-2.285,1.028,3.374,3.374,0,0,1-2.285-.813,2.588,2.588,0,0,1-.94-2.043,2.66,2.66,0,0,1,1.143-2.338,5.821,5.821,0,0,1,3.322-.791H56.2v-.5q0-1.316-1.134-1.316a.927.927,0,0,0-1.055,1.042H51.053a2.655,2.655,0,0,1,1.173-2.239,4.931,4.931,0,0,1,2.993-.86,4.323,4.323,0,0,1,2.874.888,3.086,3.086,0,0,1,1.081,2.435v4.21a4.311,4.311,0,0,0,.4,2V44Zm-1.854-1.934a1.652,1.652,0,0,0,.918-.237,1.487,1.487,0,0,0,.523-.536V39.772h-.861q-1.547,0-1.547,1.389a.848.848,0,0,0,.272.655A.986.986,0,0,0,54.762,42.066Zm14.555-.176a1.317,1.317,0,0,0,.967-.338,1.241,1.241,0,0,0,.334-.945H73.4a3.288,3.288,0,0,1-1.121,2.566,4.168,4.168,0,0,1-2.887,1,4.22,4.22,0,0,1-3.27-1.3,5.125,5.125,0,0,1-1.2-3.6v-.123a5.792,5.792,0,0,1,.532-2.544,3.872,3.872,0,0,1,1.534-1.7,4.573,4.573,0,0,1,2.373-.593,4.116,4.116,0,0,1,2.944,1.028,3.647,3.647,0,0,1,1.09,2.786H70.618A1.626,1.626,0,0,0,70.257,37a1.244,1.244,0,0,0-.967-.4q-1.151,0-1.345,1.468a10.357,10.357,0,0,0-.062,1.283,4.068,4.068,0,0,0,.343,1.986A1.187,1.187,0,0,0,69.317,41.891ZM80,44a3.344,3.344,0,0,1-.281-.853,2.754,2.754,0,0,1-2.285,1.028,3.374,3.374,0,0,1-2.285-.813,2.588,2.588,0,0,1-.94-2.043,2.66,2.66,0,0,1,1.143-2.338,5.821,5.821,0,0,1,3.322-.791h.914v-.5q0-1.316-1.134-1.316A.927.927,0,0,0,77.4,37.413H74.441a2.655,2.655,0,0,1,1.173-2.239,4.931,4.931,0,0,1,2.993-.86,4.323,4.323,0,0,1,2.874.888,3.086,3.086,0,0,1,1.081,2.435v4.21a4.311,4.311,0,0,0,.4,2V44ZM78.15,42.066a1.652,1.652,0,0,0,.918-.237,1.487,1.487,0,0,0,.523-.536V39.772H78.73q-1.547,0-1.547,1.389a.848.848,0,0,0,.272.655A.986.986,0,0,0,78.15,42.066Zm14.88-2.742a5.8,5.8,0,0,1-.967,3.595,3.238,3.238,0,0,1-2.725,1.257A2.81,2.81,0,0,1,87,43.024L86.877,44H84.223V30.5h2.962v4.755a2.711,2.711,0,0,1,2.136-.94,3.239,3.239,0,0,1,2.742,1.274,5.826,5.826,0,0,1,.967,3.586Zm-2.971-.189a3.866,3.866,0,0,0-.365-1.952,1.229,1.229,0,0,0-1.121-.584,1.418,1.418,0,0,0-1.389.763v3.773a1.426,1.426,0,0,0,1.406.755,1.258,1.258,0,0,0,1.327-1.018A7.309,7.309,0,0,0,90.059,39.135Zm3.9.022a5.613,5.613,0,0,1,.554-2.536,3.96,3.96,0,0,1,1.591-1.709,4.791,4.791,0,0,1,2.435-.6,4.373,4.373,0,0,1,3.366,1.323,5.076,5.076,0,0,1,1.23,3.6v.105a4.925,4.925,0,0,1-1.235,3.529,4.384,4.384,0,0,1-3.344,1.305A4.434,4.434,0,0,1,95.3,42.958a4.761,4.761,0,0,1-1.327-3.3Zm2.962.185a3.538,3.538,0,0,0,.413,1.934,1.376,1.376,0,0,0,1.222.615q1.582,0,1.617-2.435v-.3q0-2.558-1.635-2.558-1.485,0-1.608,2.206Zm20.83-.026a5.735,5.735,0,0,1-1,3.538,3.2,3.2,0,0,1-2.694,1.323,2.742,2.742,0,0,1-2.153-.958v4.438h-2.962V34.49h2.769l.088.879a2.742,2.742,0,0,1,2.241-1.055,3.224,3.224,0,0,1,2.733,1.3,5.805,5.805,0,0,1,.976,3.564Zm-2.962-.185q0-2.531-1.477-2.531a1.394,1.394,0,0,0-1.406.756V41.1a1.439,1.439,0,0,0,1.424.791q1.415,0,1.459-2.443ZM124.416,44a3.344,3.344,0,0,1-.281-.853,2.754,2.754,0,0,1-2.285,1.028,3.374,3.374,0,0,1-2.285-.813,2.588,2.588,0,0,1-.94-2.043,2.66,2.66,0,0,1,1.143-2.338,5.821,5.821,0,0,1,3.322-.791H124v-.5q0-1.316-1.134-1.316a.927.927,0,0,0-1.055,1.042h-2.962a2.655,2.655,0,0,1,1.173-2.239,4.931,4.931,0,0,1,2.993-.86,4.323,4.323,0,0,1,2.874.888,3.086,3.086,0,0,1,1.081,2.435v4.21a4.311,4.311,0,0,0,.4,2V44Zm-1.854-1.934a1.652,1.652,0,0,0,.918-.237,1.487,1.487,0,0,0,.523-.536V39.772h-.861q-1.547,0-1.547,1.389a.848.848,0,0,0,.272.655A.986.986,0,0,0,122.561,42.066Zm11.8-4.9-.976-.07a1.752,1.752,0,0,0-1.793.879V44h-2.962V34.49h2.777l.1,1.222a2.294,2.294,0,0,1,2.083-1.4,2.888,2.888,0,0,1,.826.105ZM140.526,44a3.344,3.344,0,0,1-.281-.853,2.754,2.754,0,0,1-2.285,1.028,3.374,3.374,0,0,1-2.285-.813,2.588,2.588,0,0,1-.94-2.043,2.66,2.66,0,0,1,1.143-2.338,5.821,5.821,0,0,1,3.322-.791h.914v-.5q0-1.316-1.134-1.316a.927.927,0,0,0-1.055,1.042h-2.962a2.655,2.655,0,0,1,1.173-2.239,4.931,4.931,0,0,1,2.993-.86A4.323,4.323,0,0,1,142,35.2a3.086,3.086,0,0,1,1.081,2.435v4.21a4.311,4.311,0,0,0,.4,2V44Zm-1.854-1.934a1.652,1.652,0,0,0,.918-.237,1.487,1.487,0,0,0,.523-.536V39.772h-.861q-1.547,0-1.547,1.389a.848.848,0,0,0,.272.655A.986.986,0,0,0,138.671,42.066ZM154.562,44a3.344,3.344,0,0,1-.281-.853A2.754,2.754,0,0,1,152,44.176a3.374,3.374,0,0,1-2.285-.813,2.588,2.588,0,0,1-.94-2.043,2.66,2.66,0,0,1,1.143-2.338,5.821,5.821,0,0,1,3.322-.791h.914v-.5q0-1.316-1.134-1.316a.927.927,0,0,0-1.055,1.042H149a2.655,2.655,0,0,1,1.173-2.239,4.931,4.931,0,0,1,2.993-.86,4.323,4.323,0,0,1,2.874.888,3.086,3.086,0,0,1,1.081,2.435v4.21a4.311,4.311,0,0,0,.4,2V44Zm-1.854-1.934a1.652,1.652,0,0,0,.918-.237,1.487,1.487,0,0,0,.523-.536V39.772h-.861q-1.547,0-1.547,1.389a.848.848,0,0,0,.272.655A.986.986,0,0,0,152.708,42.066ZM161.883,44h-2.971V30.5h2.971Zm5.845-2.109a1.317,1.317,0,0,0,.967-.338,1.241,1.241,0,0,0,.334-.945h2.777a3.288,3.288,0,0,1-1.121,2.566,4.168,4.168,0,0,1-2.887,1,4.22,4.22,0,0,1-3.27-1.3,5.125,5.125,0,0,1-1.2-3.6v-.123a5.792,5.792,0,0,1,.532-2.544,3.872,3.872,0,0,1,1.534-1.7,4.573,4.573,0,0,1,2.373-.593,4.116,4.116,0,0,1,2.944,1.028,3.647,3.647,0,0,1,1.09,2.786h-2.777a1.626,1.626,0,0,0-.36-1.134,1.244,1.244,0,0,0-.967-.4q-1.151,0-1.345,1.468a10.357,10.357,0,0,0-.062,1.283,4.068,4.068,0,0,0,.343,1.986A1.187,1.187,0,0,0,167.728,41.891ZM178.416,44a3.344,3.344,0,0,1-.281-.853,2.754,2.754,0,0,1-2.285,1.028,3.374,3.374,0,0,1-2.285-.813,2.588,2.588,0,0,1-.94-2.043,2.66,2.66,0,0,1,1.143-2.338,5.821,5.821,0,0,1,3.322-.791H178v-.5q0-1.316-1.134-1.316a.927.927,0,0,0-1.055,1.042h-2.962a2.655,2.655,0,0,1,1.173-2.239,4.931,4.931,0,0,1,2.993-.86,4.323,4.323,0,0,1,2.874.888,3.086,3.086,0,0,1,1.081,2.435v4.21a4.311,4.311,0,0,0,.4,2V44Zm-1.854-1.934a1.652,1.652,0,0,0,.918-.237,1.487,1.487,0,0,0,.523-.536V39.772h-.861q-1.547,0-1.547,1.389a.848.848,0,0,0,.272.655A.986.986,0,0,0,176.561,42.066Zm8.771-7.576.1,1.116a3.225,3.225,0,0,1,2.716-1.292,2.713,2.713,0,0,1,2.219.888,4.226,4.226,0,0,1,.76,2.672V44h-2.971V38a1.6,1.6,0,0,0-.29-1.059,1.342,1.342,0,0,0-1.055-.338,1.413,1.413,0,0,0-1.292.686V44h-2.962V34.49Zm10.925,7.225h4.333V44h-8.077V42.348l4.219-5.572H192.7V34.49h7.8v1.6ZM207.384,44a3.344,3.344,0,0,1-.281-.853,2.754,2.754,0,0,1-2.285,1.028,3.374,3.374,0,0,1-2.285-.813,2.588,2.588,0,0,1-.94-2.043,2.66,2.66,0,0,1,1.143-2.338,5.821,5.821,0,0,1,3.322-.791h.914v-.5q0-1.316-1.134-1.316a.927.927,0,0,0-1.055,1.042h-2.962a2.655,2.655,0,0,1,1.173-2.239,4.931,4.931,0,0,1,2.993-.86,4.323,4.323,0,0,1,2.874.888,3.086,3.086,0,0,1,1.081,2.435v4.21a4.311,4.311,0,0,0,.4,2V44Zm-1.854-1.934a1.652,1.652,0,0,0,.918-.237,1.487,1.487,0,0,0,.523-.536V39.772h-.861q-1.547,0-1.547,1.389a.848.848,0,0,0,.272.655A.986.986,0,0,0,205.53,42.066Zm11.8-4.9-.976-.07a1.752,1.752,0,0,0-1.793.879V44H211.6V34.49h2.777l.1,1.222a2.294,2.294,0,0,1,2.083-1.4,2.888,2.888,0,0,1,.826.105ZM84.667,66.891a1.317,1.317,0,0,0,.967-.338,1.241,1.241,0,0,0,.334-.945h2.777a3.288,3.288,0,0,1-1.121,2.566,4.168,4.168,0,0,1-2.887,1,4.22,4.22,0,0,1-3.27-1.3,5.125,5.125,0,0,1-1.2-3.6v-.123A5.792,5.792,0,0,1,80.8,61.6a3.872,3.872,0,0,1,1.534-1.7,4.573,4.573,0,0,1,2.373-.593,4.116,4.116,0,0,1,2.944,1.028,3.647,3.647,0,0,1,1.09,2.786H85.968A1.626,1.626,0,0,0,85.607,62a1.244,1.244,0,0,0-.967-.4q-1.151,0-1.345,1.468a10.357,10.357,0,0,0-.062,1.283,4.068,4.068,0,0,0,.343,1.986A1.187,1.187,0,0,0,84.667,66.891ZM95.354,69a3.344,3.344,0,0,1-.281-.853,2.754,2.754,0,0,1-2.285,1.028,3.374,3.374,0,0,1-2.285-.813,2.588,2.588,0,0,1-.94-2.043,2.66,2.66,0,0,1,1.143-2.338,5.821,5.821,0,0,1,3.322-.791h.914v-.5q0-1.316-1.134-1.316a.927.927,0,0,0-1.055,1.042H89.791a2.655,2.655,0,0,1,1.173-2.239,4.931,4.931,0,0,1,2.993-.86,4.323,4.323,0,0,1,2.874.888,3.086,3.086,0,0,1,1.081,2.435v4.21a4.311,4.311,0,0,0,.4,2V69ZM93.5,67.066a1.652,1.652,0,0,0,.918-.237,1.487,1.487,0,0,0,.523-.536V64.772H94.08q-1.547,0-1.547,1.389a.848.848,0,0,0,.272.655A.986.986,0,0,0,93.5,67.066Zm5.678-2.892a5.809,5.809,0,0,1,.976-3.56,3.211,3.211,0,0,1,2.725-1.3,2.731,2.731,0,0,1,2.145,1V55.5h2.971V69H105.33l-.149-1.02a2.8,2.8,0,0,1-2.32,1.2,3.205,3.205,0,0,1-2.689-1.3A5.993,5.993,0,0,1,99.178,64.175Zm2.962.185q0,2.531,1.477,2.531a1.458,1.458,0,0,0,1.406-.826V62.443a1.419,1.419,0,0,0-1.389-.844q-1.371,0-1.485,2.215ZM115.033,69a3.344,3.344,0,0,1-.281-.853,2.754,2.754,0,0,1-2.285,1.028,3.374,3.374,0,0,1-2.285-.813,2.588,2.588,0,0,1-.94-2.043,2.66,2.66,0,0,1,1.143-2.338,5.821,5.821,0,0,1,3.322-.791h.914v-.5q0-1.316-1.134-1.316a.927.927,0,0,0-1.055,1.042H109.47a2.655,2.655,0,0,1,1.173-2.239,4.931,4.931,0,0,1,2.993-.86,4.323,4.323,0,0,1,2.874.888,3.086,3.086,0,0,1,1.081,2.435v4.21a4.311,4.311,0,0,0,.4,2V69Zm-1.854-1.934a1.652,1.652,0,0,0,.918-.237,1.487,1.487,0,0,0,.523-.536V64.772h-.861q-1.547,0-1.547,1.389a.848.848,0,0,0,.272.655A.986.986,0,0,0,113.179,67.066Zm10.16-2.909a5.613,5.613,0,0,1,.554-2.536,3.96,3.96,0,0,1,1.591-1.709,4.791,4.791,0,0,1,2.435-.6,4.373,4.373,0,0,1,3.366,1.323,5.076,5.076,0,0,1,1.23,3.6v.105a4.925,4.925,0,0,1-1.235,3.529,4.384,4.384,0,0,1-3.344,1.305,4.434,4.434,0,0,1-3.261-1.217,4.761,4.761,0,0,1-1.327-3.3Zm2.962.185a3.538,3.538,0,0,0,.413,1.934,1.376,1.376,0,0,0,1.222.615q1.582,0,1.617-2.435v-.3q0-2.558-1.635-2.558-1.485,0-1.608,2.206Zm16.348-.018a5.8,5.8,0,0,1-.967,3.595,3.238,3.238,0,0,1-2.725,1.257,2.81,2.81,0,0,1-2.338-1.151L136.5,69h-2.654V55.5H136.8v4.755a2.711,2.711,0,0,1,2.136-.94,3.239,3.239,0,0,1,2.742,1.274,5.826,5.826,0,0,1,.967,3.586Zm-2.971-.189a3.866,3.866,0,0,0-.365-1.952,1.229,1.229,0,0,0-1.121-.584,1.418,1.418,0,0,0-1.389.763v3.773a1.426,1.426,0,0,0,1.406.755,1.258,1.258,0,0,0,1.327-1.018A7.309,7.309,0,0,0,139.678,64.135Zm7.462-4.645v9.835a3.452,3.452,0,0,1-.967,2.6,3.714,3.714,0,0,1-2.672.914,6.308,6.308,0,0,1-1.4-.149V70.45a5.667,5.667,0,0,0,.835.079,1.084,1.084,0,0,0,1.23-1.222V59.49Zm-3.19-2.452A1.322,1.322,0,0,1,144.406,56a1.943,1.943,0,0,1,2.373,0,1.405,1.405,0,0,1,0,2.074,1.943,1.943,0,0,1-2.373,0A1.322,1.322,0,0,1,143.949,57.038Zm9.466,12.138a4.889,4.889,0,0,1-3.542-1.305,4.507,4.507,0,0,1-1.354-3.4v-.246a5.84,5.84,0,0,1,.541-2.575,3.955,3.955,0,0,1,1.578-1.727,4.763,4.763,0,0,1,2.461-.611,4.117,4.117,0,0,1,3.164,1.244,4.887,4.887,0,0,1,1.16,3.467v1.151h-5.889a2.135,2.135,0,0,0,.694,1.257,2.066,2.066,0,0,0,1.389.457,2.662,2.662,0,0,0,2.2-.984l1.354,1.6a3.784,3.784,0,0,1-1.569,1.217A5.3,5.3,0,0,1,153.415,69.176Zm-.334-7.576q-1.3,0-1.547,1.723h2.988v-.229a1.467,1.467,0,0,0-.36-1.1A1.434,1.434,0,0,0,153.081,61.6Zm8.982-4.474V59.49h1.564v2.057h-1.564V65.9a1.111,1.111,0,0,0,.193.747,1.037,1.037,0,0,0,.765.211,4.345,4.345,0,0,0,.738-.053v2.118a5.466,5.466,0,0,1-1.67.255,3.1,3.1,0,0,1-2.259-.721,2.954,2.954,0,0,1-.729-2.188v-4.72h-1.213V59.49H159.1V57.126ZM167.917,69h-2.971V59.49h2.971Zm-3.146-11.962A1.322,1.322,0,0,1,165.228,56a1.943,1.943,0,0,1,2.373,0,1.405,1.405,0,0,1,0,2.074,1.943,1.943,0,0,1-2.373,0A1.322,1.322,0,0,1,164.771,57.038Zm8.763,8.438,1.5-5.985h3.12l-3.1,9.51H172.03l-3.1-9.51h3.129Zm5-1.318a5.613,5.613,0,0,1,.554-2.536,3.96,3.96,0,0,1,1.591-1.709,4.791,4.791,0,0,1,2.435-.6,4.373,4.373,0,0,1,3.366,1.323,5.076,5.076,0,0,1,1.23,3.6v.105a4.925,4.925,0,0,1-1.235,3.529,4.384,4.384,0,0,1-3.344,1.305,4.434,4.434,0,0,1-3.261-1.217,4.761,4.761,0,0,1-1.327-3.3Zm2.962.185a3.538,3.538,0,0,0,.413,1.934,1.376,1.376,0,0,0,1.222.615q1.582,0,1.617-2.435v-.3q0-2.558-1.635-2.558-1.485,0-1.608,2.206Z" transform="translate(1016.361 4729)" fill="#12263f"/>
    <g id="Grupo_886196" data-name="Grupo 886196" transform="translate(1076.361 4558.639)">
      <g id="Grupo_886195" data-name="Grupo 886195" clip-path="url(#clip-path)">
        <path id="Trazado_602660" data-name="Trazado 602660" d="M174.05,146.728q.008-24.483.006-48.965a9.951,9.951,0,0,1,.142-2.5,1.326,1.326,0,0,1,.381-.521c-.017-8.036-.046-16.072-.046-24.109q0-12.619.047-25.237c0-.041,0-.083,0-.124a2.059,2.059,0,0,1-.338-.237,7.851,7.851,0,0,1-.165-2.35q-.008-17.579,0-35.158c0-.591.013-1.182-.029-1.772a2.011,2.011,0,0,0-1.23-2.012,1.775,1.775,0,0,0-2.234.949,3.182,3.182,0,0,0-.394,1.99c0,3.106.016,6.211-.007,9.317a4.275,4.275,0,0,1-.12,1.2q0,.917,0,1.835,0,48.735,0,97.47,0,12.629.036,25.259a11.494,11.494,0,0,1,.1,2.82c.068,2.213-.073,4.429.081,6.639-.007,1.062,1.118,1.551,1.288,2.525h1.48c1.325-2.2,1-4.632,1-7.015" transform="translate(-102.783 -2.193)" fill="#fed500"/>
        <path id="Trazado_602661" data-name="Trazado 602661" d="M170.179,15.062c.023-3.1.006-6.211.007-9.316a3.182,3.182,0,0,1,.394-1.99,1.774,1.774,0,0,1,2.233-.949,2.011,2.011,0,0,1,1.23,2.012c.043.59.029,1.181.029,1.772q0,17.579,0,35.157a7.863,7.863,0,0,0,.165,2.35,2.035,2.035,0,0,0,.338.237c-.017-.6-.044-1.2-.044-1.793q0-18.913,0-37.827c0-1.339-.457-2.357-1.866-2.59A2.09,2.09,0,0,0,170.063,3.9q0,6.179,0,12.358a4.279,4.279,0,0,0,.12-1.2" transform="translate(-102.787 -1.257)" fill="#fed500"/>
        <path id="Trazado_602662" data-name="Trazado 602662" d="M169.276,22.163c-.055,2.038-.084,4.076-.1,6.112a1.985,1.985,0,0,0,.141-.9c-.039-1.736-.045-3.473-.04-5.209" transform="translate(-102.253 -13.396)" fill="#fed500"/>
        <path id="Trazado_602663" data-name="Trazado 602663" d="M179.129,289.691q-.055-24.567-.021-49.134c0-2.169.031-4.339.047-6.508v-.1a1.324,1.324,0,0,0-.381.521,9.95,9.95,0,0,0-.142,2.5q-.007,24.483-.006,48.965c0,2.383.324,4.819-1,7.016a3.385,3.385,0,0,0,1.5-3.265" transform="translate(-107.36 -141.406)" fill="#fed500"/>
        <path id="Trazado_602664" data-name="Trazado 602664" d="M170.057,355.633a11.455,11.455,0,0,0-.1-2.82q.008,4.084.015,8.166c0,.589-.047,1.179-.072,1.768-.031-.112-.051-.225-.075-.338a1.542,1.542,0,0,0,.075.338c.032,1.041.814,1.521,1.532,2.049-.171-.974-1.3-1.463-1.288-2.525-.155-2.209-.013-4.425-.081-6.639" transform="translate(-102.642 -213.247)" fill="#fed500"/>
        <path id="Trazado_602665" data-name="Trazado 602665" d="M102.732,139.917q-.071-48.919.062-97.838.005-1.466.016-2.934a3.227,3.227,0,0,1-1.377.3,44.676,44.676,0,0,0-26.956,11.84,43.7,43.7,0,0,0-12.7,19.455c-4.9,15.806-2.283,30.376,7.9,43.489a42.722,42.722,0,0,0,12.145,10.449,3.394,3.394,0,0,1,1.963,3.443c-.11,1.817-.045,3.646-.019,5.47a5.3,5.3,0,0,0,3.829,5.364,3.38,3.38,0,0,1,1.5.728c4.2-.013,8.408-.013,12.612-.051a1.284,1.284,0,0,1,1.019.285" transform="translate(-35.893 -23.66)" fill="#fcf385"/>
        <path id="Trazado_602666" data-name="Trazado 602666" d="M169.388,346.848l.089.054q-.04-1.576-.084-3.152,0,1.549-.006,3.1" transform="translate(-102.381 -207.769)" fill="#fcf385"/>
        <path id="Trazado_602667" data-name="Trazado 602667" d="M86.991,138.03a5.3,5.3,0,0,1-3.829-5.364c-.027-1.824-.091-3.653.019-5.47a3.394,3.394,0,0,0-1.963-3.443A42.735,42.735,0,0,1,69.072,113.3c-10.186-13.113-12.806-27.683-7.9-43.489a43.7,43.7,0,0,1,12.7-19.455,44.672,44.672,0,0,1,26.956-11.84,3.232,3.232,0,0,0,1.377-.3q0-.3,0-.606c-.193.4-.6.532-1.294.532a20.779,20.779,0,0,0-3.664.353,46.135,46.135,0,0,0-26.38,14.265,46.2,46.2,0,0,0,10.43,71.5A2.43,2.43,0,0,1,82.79,126.8c-.124,1.767-.032,3.55-.03,5.325,0,3.961,1.723,5.982,5.646,6.632h.086a3.384,3.384,0,0,0-1.5-.728" transform="translate(-35.283 -22.735)" fill="#fcf385"/>
        <path id="Trazado_602668" data-name="Trazado 602668" d="M169.437,8.248c-.007,1.519-.019,3.038-.023,4.557.055-2.043.134-4.085.254-6.124-.393.475-.229,1.041-.231,1.567" transform="translate(-102.392 -4.038)" fill="#fcf385"/>
        <path id="Trazado_602669" data-name="Trazado 602669" d="M169.474,351.635l-.089-.054v.026c.01,1.815-.018,3.631.043,5.444a25.538,25.538,0,0,0,.128,4.614,1.646,1.646,0,0,1-.015-.242c.073-3.264.016-6.526-.066-9.788" transform="translate(-102.378 -212.502)" fill="#fcf385"/>
        <path id="Trazado_602670" data-name="Trazado 602670" d="M168.994,38.406q-.011,1.468-.016,2.934-.176,48.918-.062,97.838a1.205,1.205,0,0,1,.23.843c-.039,6.294-.046,12.587-.057,18.881q.043,1.576.083,3.152c.025.016.051.029.076.045a3.017,3.017,0,0,1,.138.388q-.024-12.629-.036-25.259-.011-48.735,0-97.47,0-.918,0-1.835a.845.845,0,0,1-.354.483" transform="translate(-102.076 -22.921)" fill="#fcf385"/>
        <path id="Trazado_602671" data-name="Trazado 602671" d="M169.517,19.039q0-6.179,0-12.358c-.119,2.039-.2,4.082-.253,6.124,0,1.737,0,3.474.04,5.209a1.98,1.98,0,0,1-.141.9q0,.3,0,.605a.842.842,0,0,0,.354-.483" transform="translate(-102.245 -4.038)" fill="#fcf385"/>
        <path id="Trazado_602672" data-name="Trazado 602672" d="M169.843,360.317q-.005-4.083-.015-8.166a3.011,3.011,0,0,0-.138-.388c-.025-.017-.051-.03-.076-.046.083,3.262.14,6.524.066,9.787a1.7,1.7,0,0,0,.015.242c.024.113.044.226.075.338.025-.589.073-1.179.072-1.768" transform="translate(-102.518 -212.584)" fill="#fcf385"/>
        <path id="Trazado_602673" data-name="Trazado 602673" d="M181.92,74.922q.017,22.746,0,45.493a3.246,3.246,0,0,1-.309,1.805c.453-.233.995.08,1.489.291,3.8,1.62,7.583,3.287,11.366,4.951,3.422,1.5,6.859,2.978,10.246,4.558.879.41,1.969.6,2.417,1.629.335-.4.884-.307,1.39-.315.538-.009,1.076-.025,1.614-.038q.011-11.282.032-22.564c0-.564-.217-1.189.269-1.685h0c.022-.1.013-.22.071-.282q4.456-4.736,8.922-9.465a1.507,1.507,0,0,1,1.237-.341l8.835,0c-.68-.24-.6-.823-.024-2.2.815-1.958,1.727-3.875,2.558-5.825a29.39,29.39,0,0,0,2-5.075c-.013-.079-.033-.156-.05-.234a17.693,17.693,0,0,1-3.991-1.6c-3.585-1.481-7.1-3.122-10.647-4.7-.45-.2-.93-.348-.611-1.059,2.208-4.931,4.389-9.875,6.6-14.807.059-.131.324-.169.493-.25h0a50.351,50.351,0,0,0-7.639-3.565c-2.31-1.005-2.356-.921-2.442-3.288l-.015,0a.3.3,0,0,0-.064.1c-.42,1.9-.433,1.932-2.272,1.069-2.622-1.23-5.361-2.2-7.9-3.608a1.279,1.279,0,0,1-.345.089c-2.546-.486-4.726-1.9-7.1-2.832-1.325-.521-2.653-1.063-3.924-1.7-1.1-.552-1.57-.164-2.006.842-1.94,4.467-3.927,8.914-5.863,13.383-1.174,2.709-2.329,5.426-3.575,8.1-.212.455-.355,1.438-1.129,1.066-.022.029-.04.06-.062.089a2.743,2.743,0,0,1,.425,1.972" transform="translate(-109.699 -29.749)" fill="#efeffe"/>
        <path id="Trazado_602674" data-name="Trazado 602674" d="M204.714,243.435c-3.388-1.58-6.825-3.053-10.246-4.558-3.783-1.663-7.564-3.332-11.366-4.951-.494-.211-1.036-.524-1.489-.291a1.637,1.637,0,0,1-.118.171,5.671,5.671,0,0,1,.985.237c7.435,3.263,14.873,6.521,22.287,9.832.8.355,1.857.466,2.172,1.548a1.11,1.11,0,0,1,.193-.36c-.448-1.025-1.538-1.218-2.417-1.629" transform="translate(-109.698 -141.164)" fill="#efeffe"/>
        <path id="Trazado_602675" data-name="Trazado 602675" d="M182.781,70.907c1.247-2.675,2.4-5.392,3.575-8.1,1.937-4.469,3.923-8.916,5.863-13.383.437-1.006.911-1.394,2.006-.842,1.271.64,2.6,1.182,3.924,1.7,2.37.932,4.55,2.345,7.1,2.832a1.271,1.271,0,0,0,.345-.089c-.105-.059-.212-.113-.317-.172-3.946-1.361-7.645-3.306-11.5-4.881-.7-.286-1.183-.429-1.537.386-2.485,5.711-4.934,11.437-7.481,17.12-.98,2.188-1.632,4.541-3.1,6.5.774.372.917-.612,1.129-1.066" transform="translate(-109.794 -28.86)" fill="#efeffe"/>
        <path id="Trazado_602676" data-name="Trazado 602676" d="M306.6,141.259c.017.078.036.155.05.234a29.426,29.426,0,0,1-2,5.075c-.832,1.951-1.743,3.867-2.558,5.825-.574,1.377-.656,1.96.023,2.2q14.077.005,28.154.013a5.61,5.61,0,0,1,.73.095,1.151,1.151,0,0,1,.269.006c-.426-.637-1.08-.352-1.627-.354-8.721-.019-17.443-.009-26.164-.023a2.333,2.333,0,0,1-1.634-.234c1.666-3.834,3.334-7.653,4.976-11.483.17-.4.744-.765.235-1.3h0c-.153-.008-.3-.031-.447-.053" transform="translate(-182.312 -85.38)" fill="#efeffe"/>
        <path id="Trazado_602677" data-name="Trazado 602677" d="M181.85,156.676q.012-22.746,0-45.493a2.745,2.745,0,0,0-.425-1.972q-.026,12.619-.047,25.237c0,8.036.029,16.072.046,24.109a.758.758,0,0,1,.118-.076,3.246,3.246,0,0,0,.309-1.805" transform="translate(-109.628 -66.01)" fill="#efeffe"/>
        <path id="Trazado_602678" data-name="Trazado 602678" d="M181.493,233.838v.1a1.679,1.679,0,0,0,.118-.171.765.765,0,0,0-.118.076" transform="translate(-109.698 -141.29)" fill="#efeffe"/>
        <path id="Trazado_602679" data-name="Trazado 602679" d="M269.8,238.963a7.319,7.319,0,0,1,2.2-.169q9.067-.008,18.135,0a7.2,7.2,0,0,0,2.336-.21c.137-.08.267-.167.4-.255l-.02-37.827h0l-38.066-.037a1.4,1.4,0,0,0-.088.307,10.965,10.965,0,0,0-.167,2.491q0,9.489,0,18.977a6.019,6.019,0,0,1-.227,2.325,2.121,2.121,0,0,1-.167.152c3.539.186,3.531.223,4.076,4.155.127.913.012,2,1.185,2.421a12.179,12.179,0,0,1,2.308.866,1.913,1.913,0,0,0,2.486-.2c1.245-.95,2.618-2.5,3.882-2.447,1.386.056,2.278,2.106,3.536,3.109,1.04.828,1.021,1.532.212,2.513-.841,1.019-1.533,2.16-2.275,3.258-.169.25-.579.491-.15.858h.02a.852.852,0,0,1,.394-.286" transform="translate(-153.6 -121.162)" fill="#95e0fe"/>
        <path id="Trazado_602680" data-name="Trazado 602680" d="M315.818,296.432a7.212,7.212,0,0,1-2.336.211q-9.067,0-18.135,0a7.332,7.332,0,0,0-2.2.168.854.854,0,0,0-.394.287q10.894-.009,21.788-.027c.563,0,1.191.216,1.671-.3q0-.3,0-.6c-.13.088-.26.175-.4.255" transform="translate(-176.947 -179.015)" fill="#95e0fe"/>
        <path id="Trazado_602681" data-name="Trazado 602681" d="M254.13,224.559a6.02,6.02,0,0,0,.227-2.325q.011-9.489,0-18.977a10.964,10.964,0,0,1,.166-2.491,1.393,1.393,0,0,1,.088-.308h-.443c-.486.5-.268,1.121-.269,1.685q-.034,11.282-.032,22.565l.092,0a2.118,2.118,0,0,0,.167-.152" transform="translate(-153.435 -121.16)" fill="#95e0fe"/>
        <path id="Trazado_602682" data-name="Trazado 602682" d="M249.825,27.136c.338-4.343,4.286-8.452,8.768-9.124a10.878,10.878,0,0,1,12.754,9.357c.89,5.517-3.267,10.852-9.337,11.981q2.066,5.38,4.124,10.761a.646.646,0,0,0,.182.273,2.4,2.4,0,0,1,2.005-2.7,3.059,3.059,0,0,0,.541-.237c4.143-2.011,2.853-1.925,6.734.429,3.542,2.148,2.98,2.233,5.4-.69.5-.607,1.106-1.123,1.634-1.709a1.412,1.412,0,0,0,.044-2.1c-.991-1.163-1.836-2.444-2.836-3.6a2.22,2.22,0,0,1-.374-2.829,7.882,7.882,0,0,0,.924-2.487,2.791,2.791,0,0,1,2.593-2.412c1.408-.241,2.784-.644,4.18-.947.864-.187,1.275-.53,1.148-1.5-.179-1.368,0-2.759-.094-4.135-.11-1.531-.475-1.871-1.961-2.038-1.517-.17-3.027-.394-4.543-.568a1.862,1.862,0,0,1-1.735-1.345,17.372,17.372,0,0,0-1.462-3.065,2.414,2.414,0,0,1,.091-2.772c.842-1.275,1.593-2.608,2.458-3.868a1.348,1.348,0,0,0-.118-1.971c-1.238-1.2-2.63-2.23-3.817-3.487-.482-.511-.963-.292-1.437.077-1.322,1.029-2.705,1.98-3.982,3.067A2.2,2.2,0,0,1,269,9.834a14.638,14.638,0,0,0-3.2-1.121,2.077,2.077,0,0,1-1.627-1.693c-.394-1.579-.782-3.159-1.094-4.754A1.4,1.4,0,0,0,261.181.978a15.489,15.489,0,0,1-4.121.227c-1.152-.062-1.585.481-1.72,1.525-.2,1.563-.4,3.127-.615,4.688a2.17,2.17,0,0,1-1.519,1.966,14.4,14.4,0,0,0-3.19,1.533,1.921,1.921,0,0,1-2.331-.1c-1.352-.9-2.822-1.623-4.136-2.584a1.379,1.379,0,0,0-2.161.292A30.917,30.917,0,0,1,238.4,11.8a1.325,1.325,0,0,0-.064,2.066c1.02,1.267,1.979,2.582,3.008,3.841a2.031,2.031,0,0,1,.306,2.451,18.671,18.671,0,0,0-1.265,3.467,1.62,1.62,0,0,1-.7,1.049,73,73,0,0,1,7.149,2.969c.407.165.8.364,1.2.556.675.328,1.2.442,1.279-.581.019-.256.176-.506.5-.463Z" transform="translate(-143.775 -0.554)" fill="#7974e2"/>
        <path id="Trazado_602683" data-name="Trazado 602683" d="M238.757,24.119a1.622,1.622,0,0,0,.7-1.049,18.671,18.671,0,0,1,1.265-3.467,2.033,2.033,0,0,0-.306-2.451c-1.029-1.259-1.988-2.574-3.008-3.841a1.325,1.325,0,0,1,.064-2.066,30.954,30.954,0,0,0,2.986-3.273,1.379,1.379,0,0,1,2.162-.292c1.313.961,2.783,1.682,4.136,2.585a1.921,1.921,0,0,0,2.331.1,14.418,14.418,0,0,1,3.19-1.533A2.171,2.171,0,0,0,253.8,6.864c.216-1.561.412-3.125.615-4.688.136-1.044.569-1.587,1.72-1.525a15.472,15.472,0,0,0,4.121-.228,1.4,1.4,0,0,1,1.888,1.288c.312,1.595.7,3.175,1.095,4.754a2.077,2.077,0,0,0,1.627,1.693,14.642,14.642,0,0,1,3.2,1.121,2.2,2.2,0,0,0,2.709-.343c1.278-1.086,2.66-2.038,3.983-3.067.473-.368.955-.587,1.437-.077,1.187,1.257,2.579,2.286,3.817,3.487a1.348,1.348,0,0,1,.118,1.971c-.865,1.26-1.616,2.593-2.459,3.868a2.414,2.414,0,0,0-.091,2.772,17.455,17.455,0,0,1,1.462,3.065,1.862,1.862,0,0,0,1.735,1.345c1.515.174,3.026.4,4.542.568,1.487.167,1.852.508,1.962,2.038.1,1.377-.085,2.768.094,4.135.127.973-.284,1.316-1.148,1.5-1.4.3-2.772.705-4.18.947a2.791,2.791,0,0,0-2.593,2.412,7.883,7.883,0,0,1-.924,2.487,2.219,2.219,0,0,0,.375,2.828c1,1.155,1.844,2.437,2.836,3.6a1.413,1.413,0,0,1-.044,2.1c-.529.587-1.133,1.1-1.635,1.709-2.416,2.923-1.853,2.839-5.4.69-3.881-2.354-2.591-2.44-6.734-.429a3.044,3.044,0,0,1-.541.237,2.4,2.4,0,0,0-2.005,2.7.542.542,0,0,0,.349.121h0a1.971,1.971,0,0,1,1.7-2.441,8.935,8.935,0,0,0,2.649-1.275,1.75,1.75,0,0,1,2.249.033c1.453,1.012,3.032,1.843,4.492,2.846a1.149,1.149,0,0,0,1.82-.273c1.118-1.313,2.272-2.6,3.493-3.817a1.389,1.389,0,0,0,.033-2.311c-.813-.849-1.37-1.951-2.212-2.764-1.435-1.385-1.773-2.76-.621-4.494a5.653,5.653,0,0,0,.657-2.1,1.487,1.487,0,0,1,1.348-1.3c1.875-.4,3.733-.88,5.612-1.26.729-.147.978-.426.906-1.191-.13-1.371-.116-2.756-.2-4.132-.2-3.227.043-2.673-2.845-3.008-.782-.091-1.56-.275-2.342-.29-1.881-.038-3.284-.586-3.66-2.7a4.424,4.424,0,0,0-.934-1.827,1.664,1.664,0,0,1,.064-2.248c.992-1.469,1.878-3.01,2.869-4.48a1.04,1.04,0,0,0-.178-1.629c-1.491-1.29-2.949-2.618-4.385-3.969-.483-.455-.815-.521-1.363-.069-1.29,1.067-2.7,1.989-3.955,3.1a2.321,2.321,0,0,1-3.105.464,11.23,11.23,0,0,0-3.059-1.047,1.263,1.263,0,0,1-1.109-1.14c-.4-1.876-.926-3.724-1.305-5.6-.159-.788-.458-1.07-1.261-1.012q-2.947.21-5.9.293c-.687.019-.926.275-1.005.942-.225,1.905-.6,3.8-.754,5.7a1.575,1.575,0,0,1-1.246,1.542,21.12,21.12,0,0,0-3.188,1.525,1.618,1.618,0,0,1-2-.018c-1.549-1.049-3.2-1.95-4.744-3a1,1,0,0,0-1.583.22c-1.264,1.447-2.557,2.873-3.9,4.247a1.008,1.008,0,0,0-.052,1.614c1.16,1.406,2.213,2.9,3.394,4.288a1.6,1.6,0,0,1,.278,2.091,13.1,13.1,0,0,0-1.245,3.461c-.1.47-.164,1.007-.814,1.079h0c.145.037.287.084.43.125" transform="translate(-142.846 0)" fill="#7974e2"/>
        <path id="Trazado_602684" data-name="Trazado 602684" d="M251.906,63.916c-.075,1.023-.6.909-1.279.581-.4-.192-.79-.391-1.2-.556a73.036,73.036,0,0,0-7.148-2.969,1.181,1.181,0,0,1-.114.047c2.54,1.407,5.28,2.378,7.9,3.608,1.839.863,1.853.835,2.272-1.07a.3.3,0,0,1,.064-.1.442.442,0,0,0-.5.463" transform="translate(-146.371 -36.853)" fill="#7974e2"/>
        <path id="Trazado_602685" data-name="Trazado 602685" d="M241.685,60.827a1.221,1.221,0,0,0,.114-.047c-.144-.042-.285-.088-.43-.125.1.06.212.114.317.172" transform="translate(-145.887 -36.661)" fill="#7974e2"/>
        <path id="Trazado_602686" data-name="Trazado 602686" d="M227.649,271c-.623-.689-1.2-1.415-1.793-2.135-.259-.1-.518-.191-.775-.292-.777-.362-.936-1.094-1.094-1.824-.1-.482-.137-.978-.25-1.458a7.174,7.174,0,0,0-.642-2.564c-.555-.8-1.578-.268-2.356-.513a1.073,1.073,0,0,1-.569-.334c-.866.67-1.966.4-2.953.6.157,1.684-.432,3.267-.7,4.894a1.631,1.631,0,0,1-.9,1.122,3.92,3.92,0,0,1-.532.256c-3.966,1.5-2.976,1.973-6.739-.727-1.794-1.287-1.829-1.293-3.423.3-2.9,2.905-2.59,2.212-.54,5.216.545.8,1.484,1.557,1.285,2.574a14.746,14.746,0,0,1-1.631,4.093,1.829,1.829,0,0,1-1.389.745c-1.061.225-2.129.416-3.2.547a1.416,1.416,0,0,0-1.419,1.677c.035,1.033.026,2.07,0,3.1a1.249,1.249,0,0,0,1.162,1.42c1.208.242,2.422.447,3.635.657a1.96,1.96,0,0,1,1.7,1.424c.02.064.02.08.016.081s.017.024.037.056c1.533,2.438,1.281,4.574-.692,6.764-1.435,1.592-1.257,1.753.247,3.26,2.541,2.547,2.587,2.611,5.486.517a3.991,3.991,0,0,1,4.432-.434,4.289,4.289,0,0,1,3.072,4.114c.028.486.174.971.224,1.459.108,1.067.611,1.578,1.741,1.5a26.667,26.667,0,0,1,2.955-.007,1.32,1.32,0,0,0,1.587-1.314c.106-.879.358-1.746.415-2.625a2.738,2.738,0,0,1,2.36-2.777,5.552,5.552,0,0,0,.962-.376c.091-.055.18-.1.269-.148a6.274,6.274,0,0,1,1.143-1.638c6-8.057,5.4-19.977-1.142-27.21M220.5,292.679a7.978,7.978,0,0,1-8.048-8.077,7.875,7.875,0,0,1,8.012-7.923,8.01,8.01,0,0,1,7.975,8.166,7.848,7.848,0,0,1-7.939,7.833" transform="translate(-119.695 -158.283)" fill="#7974e2"/>
        <path id="Trazado_602687" data-name="Trazado 602687" d="M226.715,300.907a5.531,5.531,0,0,1-.962.376,2.739,2.739,0,0,0-2.36,2.778c-.056.879-.309,1.747-.415,2.625A1.32,1.32,0,0,1,221.391,308a26.772,26.772,0,0,0-2.955.007c-1.13.083-1.634-.428-1.741-1.5-.049-.489-.2-.973-.224-1.459a4.289,4.289,0,0,0-3.072-4.114,3.991,3.991,0,0,0-4.433.433c-2.9,2.095-2.945,2.03-5.485-.516-1.5-1.508-1.682-1.668-.247-3.26,1.974-2.19,2.226-4.325.692-6.764-.02-.032-.03-.046-.037-.055s-.017-.022,0,0c0,0,0-.017-.016-.081a1.961,1.961,0,0,0-1.7-1.424c-1.212-.21-2.426-.415-3.635-.657a1.249,1.249,0,0,1-1.162-1.42c.023-1.034.032-2.07,0-3.1a1.416,1.416,0,0,1,1.419-1.677c1.074-.131,2.143-.322,3.2-.547a1.828,1.828,0,0,0,1.389-.745,14.747,14.747,0,0,0,1.631-4.093c.2-1.017-.741-1.776-1.285-2.574-2.051-3-2.362-2.311.539-5.217,1.593-1.595,1.629-1.589,3.423-.3,3.763,2.7,2.773,2.23,6.739.727a3.92,3.92,0,0,0,.532-.256,1.631,1.631,0,0,0,.9-1.122c.264-1.627.854-3.21.7-4.895a2.781,2.781,0,0,0-.283.069h0c-.246,1.6-.484,3.207-.743,4.808a1.144,1.144,0,0,1-.67.892c-3.606,1.848-3.6,1.856-6.884-.483-2.15-1.533-2.15-1.533-4.061.381-.627.628-1.217,1.3-1.892,1.872-.636.539-.594.984-.124,1.61.886,1.182,1.674,2.437,2.555,3.623a1.21,1.21,0,0,1,.114,1.463,22.264,22.264,0,0,0-1.117,2.725,1.447,1.447,0,0,1-1.343,1.124c-1.413.172-2.805.506-4.214.72-.716.109-.985.418-.955,1.163.059,1.477.055,2.959.015,4.437-.02.743.241,1.015.987,1.116,1.46.2,2.9.558,4.353.79a1.243,1.243,0,0,1,1.1.79c1.641,3.719,1.652,3.715-.616,7-1.346,1.953-1.353,1.96.415,3.707.909.9,1.754,2.313,2.8,2.492,1.072.184,2.169-1.167,3.14-1.968,1.322-1.091,2.405-1.1,4.051-.45a4.082,4.082,0,0,1,2.909,3.755c.494,3.391.635,3.371,4.091,3.394,2.866.019,3.028.036,3.324-2.743.244-2.289.8-4.061,3.38-4.436a1.792,1.792,0,0,1,.1-.487c-.089.045-.178.093-.269.148" transform="translate(-119.03 -159.197)" fill="#7974e2"/>
        <path id="Trazado_602688" data-name="Trazado 602688" d="M214.5,332.607c-.017-.022-.005,0,0,0" transform="translate(-129.646 -201.028)" fill="#7974e2"/>
        <path id="Trazado_602689" data-name="Trazado 602689" d="M246.392,262.4c.987-.194,2.087.071,2.953-.6-.012-.017-.028-.029-.039-.046-.538.013-1.076.029-1.614.038-.506.008-1.055-.09-1.39.315a2.065,2.065,0,0,1,.088.236c0,.019,0,.037,0,.056" transform="translate(-148.869 -158.212)" fill="#7974e2"/>
        <path id="Trazado_602690" data-name="Trazado 602690" d="M246.1,262.943c0-.019,0-.037,0-.056a2.06,2.06,0,0,0-.088-.236,1.125,1.125,0,0,0-.192.36h0a2.779,2.779,0,0,1,.283-.069" transform="translate(-148.575 -158.751)" fill="#7974e2"/>
        <path id="Trazado_602691" data-name="Trazado 602691" d="M254.564,262.146c.779.246,1.8-.286,2.356.513a7.165,7.165,0,0,1,.642,2.564c.112.48.146.976.25,1.458.158.73.317,1.462,1.094,1.824.257.1.515.2.775.292-.124-.151-.247-.3-.372-.451-1.173-.423-1.058-1.507-1.185-2.421-.545-3.932-.537-3.968-4.076-4.155l-.053.042a1.072,1.072,0,0,0,.569.334" transform="translate(-153.519 -158.219)" fill="#7974e2"/>
        <path id="Trazado_602692" data-name="Trazado 602692" d="M253.987,261.764l-.092,0c.011.018.027.03.04.046l.053-.042" transform="translate(-153.459 -158.212)" fill="#7974e2"/>
        <path id="Trazado_602693" data-name="Trazado 602693" d="M352.54,187.8q.015,17.131.008,34.261a5.8,5.8,0,0,1-.119,1.313,20.482,20.482,0,0,0,2.712-2.726q2.433-2.687,4.991-5.249a4.089,4.089,0,0,0,1.27-3.039q-.02-17.528-.015-35.056a2.637,2.637,0,0,0-.139-1.161c-.015-.014-.031-.023-.046-.036l-9.062,9.615a3.262,3.262,0,0,1,.4,2.077" transform="translate(-212.84 -106.441)" fill="#fcf386"/>
        <path id="Trazado_602694" data-name="Trazado 602694" d="M361.281,175.51c-.02,0-.04.005-.06.01l-.068.072c.015.013.031.022.046.036a2.637,2.637,0,0,1,.139,1.161q.016,17.528.015,35.056a4.089,4.089,0,0,1-1.27,3.039q-2.561,2.562-4.991,5.249a20.481,20.481,0,0,1-2.712,2.726,2.935,2.935,0,0,1-.321.827c3.333-2.927,6.135-6.367,9.212-9.542a2.49,2.49,0,0,0,.471-1.945q0-18.472,0-36.944h0a1.514,1.514,0,0,1-.464.255" transform="translate(-212.791 -105.927)" fill="#fcf386"/>
        <path id="Trazado_602695" data-name="Trazado 602695" d="M375.22,175.5c.02,0,.04,0,.06-.009a1.514,1.514,0,0,0,.464-.255h0a1.126,1.126,0,0,0-.268-.006l-.256.271" transform="translate(-226.79 -105.909)" fill="#fcf386"/>
        <path id="Trazado_602696" data-name="Trazado 602696" d="M352.459,202.488a3.262,3.262,0,0,0-.4-2.077l-.053.056h0q.01,18.913.021,37.827c.11-.074.216-.152.321-.232a5.8,5.8,0,0,0,.119-1.313q0-17.131-.008-34.261" transform="translate(-212.759 -121.132)" fill="#fcf386"/>
        <path id="Trazado_602697" data-name="Trazado 602697" d="M352.058,295.824q0,.3,0,.6a2.922,2.922,0,0,0,.321-.827c-.1.079-.212.157-.321.232" transform="translate(-212.791 -178.661)" fill="#fcf386"/>
        <path id="Trazado_602698" data-name="Trazado 602698" d="M147.974,314.177c-.013-6.01,0-12.021-.009-18.032,0-2.107-.055-2.156-2.142-2.162-3.054-.009-6.108.007-9.162-.009a3.2,3.2,0,0,1-1.931-.341,5.716,5.716,0,0,1,.226,2.251c.128,3.83-.324,7.68.268,11.491.767,4.947,4.006,7.906,8.944,8.579,1.405.191,2.918-.17,4.239.582a3.455,3.455,0,0,1-.433-2.36" transform="translate(-81.433 -177.478)" fill="#cecefe"/>
        <path id="Trazado_602699" data-name="Trazado 602699" d="M148.072,316.334c-1.322-.752-2.834-.391-4.239-.582-4.939-.672-8.177-3.632-8.944-8.579-.591-3.811-.14-7.661-.267-11.491a5.723,5.723,0,0,0-.227-2.251,1.661,1.661,0,0,1-.174-.133c0,4.041-.106,8.084.013,12.122.153,5.194,2.869,9.2,7.876,10.467a21.027,21.027,0,0,0,5.995.492c-.013-.015-.02-.031-.032-.046" transform="translate(-81.099 -177.276)" fill="#cecefe"/>
        <path id="Trazado_602700" data-name="Trazado 602700" d="M148.154,304.692q-.01-5.619-.015-11.238a1.285,1.285,0,0,0-1.019-.285c-4.2.038-8.408.038-12.612.051.019.021.04.039.058.061s.019.048.029.072a3.2,3.2,0,0,0,1.931.341c3.054.016,6.108,0,9.162.009,2.087.006,2.139.055,2.142,2.162.008,6.01,0,12.021.009,18.031a3.455,3.455,0,0,0,.433,2.36l.032.019q0-1.549.006-3.1c-.078-2.828-.153-5.656-.157-8.485" transform="translate(-81.299 -177.197)" fill="#cecefe"/>
        <path id="Trazado_602701" data-name="Trazado 602701" d="M134.433,293.36c-.018-.023-.039-.04-.058-.061h-.086a1.607,1.607,0,0,0,.174.133c-.011-.024-.017-.048-.029-.072" transform="translate(-81.167 -177.276)" fill="#cecefe"/>
        <path id="Trazado_602702" data-name="Trazado 602702" d="M169.3,351.531c.012.015.02.031.032.046v-.026l-.032-.02" transform="translate(-102.331 -212.472)" fill="#cecefe"/>
        <path id="Trazado_602703" data-name="Trazado 602703" d="M169.138,313.614c.011-6.294.018-12.587.057-18.881a1.206,1.206,0,0,0-.23-.843q.008,5.619.015,11.238c.005,2.83.08,5.658.157,8.485" transform="translate(-102.126 -177.633)" fill="#cecefe"/>
        <path id="Trazado_602704" data-name="Trazado 602704" d="M278.5,284.346c-.811-.426-.208-.9.013-1.27a24.408,24.408,0,0,1,2.1-3.026,1.24,1.24,0,0,0-.122-2.008,29.442,29.442,0,0,1-2.4-2.394,1.285,1.285,0,0,0-2.034-.144c-.881.709-1.854,1.292-2.767,1.954a2.12,2.12,0,0,1-2.46.2,14.147,14.147,0,0,0-1.625-.693,20.375,20.375,0,0,1,6.971,13.442,21.77,21.77,0,0,1-4.271,16.326c-.238.318-.511.6-.776.9a2.914,2.914,0,0,1,2.926.755c.712.6,1.551,1.047,2.315,1.588a1.242,1.242,0,0,0,1.828-.194c.787-.816,1.594-1.613,2.4-2.407a1.219,1.219,0,0,0,.11-1.828c-.717-.941-1.311-1.971-2.032-2.909a2.493,2.493,0,0,1-.259-2.348c.7-2.936,2.5-4.158,5.458-4.273,1.919-.074,2.014-.356,1.977-2.335-.081-4.324.813-3.69-3.811-4.529a4.685,4.685,0,0,1-3.646-4.439.655.655,0,0,1,.113-.341l-.008-.02" transform="translate(-162.711 -166.259)" fill="#6b64e7"/>
        <path id="Trazado_602705" data-name="Trazado 602705" d="M284.126,303.346c4.624.839,3.73.206,3.811,4.529.037,1.98-.058,2.262-1.977,2.335-2.954.114-4.76,1.336-5.458,4.273a2.491,2.491,0,0,0,.259,2.348c.721.938,1.314,1.968,2.031,2.909a1.219,1.219,0,0,1-.11,1.828c-.808.795-1.615,1.591-2.4,2.407a1.242,1.242,0,0,1-1.828.195c-.763-.542-1.6-.984-2.315-1.588a2.915,2.915,0,0,0-2.926-.756,6.784,6.784,0,0,0-.559.681,2.365,2.365,0,0,1,3.171.3c.885.77,1.946,1.334,2.888,2.042a.953.953,0,0,0,1.5-.159c1.006-1.08,2.041-2.139,3.13-3.133.621-.566.559-1,.1-1.612-.885-1.18-1.7-2.409-2.561-3.608a1.367,1.367,0,0,1-.2-1.33c.786-2.8,2.262-4.626,5.467-4.391a7.888,7.888,0,0,0,1.3-.226.894.894,0,0,0,.936-1.049c-.036-1.574-.039-3.15-.02-4.726.007-.633-.141-.957-.869-1.056-1.5-.207-2.978-.614-4.482-.807a1.224,1.224,0,0,1-1.132-.927c-.412-1.092-.856-2.172-1.288-3.257a.65.65,0,0,0-.113.341,4.685,4.685,0,0,0,3.646,4.44" transform="translate(-164.796 -180.459)" fill="#6b64e7"/>
        <path id="Trazado_602706" data-name="Trazado 602706" d="M269.755,276.944a2.121,2.121,0,0,0,2.46-.2c.914-.663,1.887-1.245,2.767-1.954a1.286,1.286,0,0,1,2.035.144,29.364,29.364,0,0,0,2.4,2.393,1.24,1.24,0,0,1,.122,2.008,24.4,24.4,0,0,0-2.1,3.026c-.222.372-.825.845-.014,1.27-.429-.367-.019-.608.15-.858.742-1.1,1.435-2.239,2.275-3.258.809-.981.828-1.685-.212-2.513-1.259-1-2.151-3.053-3.536-3.109-1.264-.051-2.638,1.5-3.883,2.447a1.913,1.913,0,0,1-2.485.2,12.164,12.164,0,0,0-2.308-.867h0c.241.188.473.38.7.574a14.239,14.239,0,0,1,1.625.693" transform="translate(-161.638 -165.549)" fill="#6b64e7"/>
        <path id="Trazado_602707" data-name="Trazado 602707" d="M270.16,281.67c6.543,7.233,7.147,19.153,1.142,27.21a6.272,6.272,0,0,0-1.142,1.638,3.346,3.346,0,0,1,.462-.194c.265-.292.538-.579.777-.9a21.771,21.771,0,0,0,4.271-16.326,20.379,20.379,0,0,0-6.971-13.442l-.331-.123c.589.72,1.17,1.446,1.793,2.135" transform="translate(-162.206 -168.956)" fill="#6b64e7"/>
        <path id="Trazado_602708" data-name="Trazado 602708" d="M272.75,357.561a1.792,1.792,0,0,0-.1.487,6.8,6.8,0,0,1,.56-.681,3.365,3.365,0,0,0-.462.194" transform="translate(-164.796 -215.999)" fill="#6b64e7"/>
        <path id="Trazado_602709" data-name="Trazado 602709" d="M268.13,278.969c-.229-.194-.461-.387-.7-.574.125.15.248.3.371.451l.331.123" transform="translate(-161.639 -168.267)" fill="#6b64e7"/>
        <path id="Trazado_602710" data-name="Trazado 602710" d="M289.516,100.835c-1.358-3.409-2.8-6.787-3.985-10.261A.827.827,0,0,1,285.59,90c.027-.03.057-.053.085-.08a30.486,30.486,0,0,1-2.034-5.187c-2.146,4.645-4.156,9.354-6.275,14.011-.509,1.119-.289,1.6.845,2.091,4.212,1.809,8.37,3.745,12.595,5.527a7.636,7.636,0,0,1,.916.471,28.3,28.3,0,0,0-1.132-2.954,6.6,6.6,0,0,1-.547-2.546c-.272.031-.431-.26-.527-.5" transform="translate(-167.489 -51.215)" fill="#cecefe"/>
        <path id="Trazado_602711" data-name="Trazado 602711" d="M309.806,126.443a6.6,6.6,0,0,0,.546,2.546,28.3,28.3,0,0,1,1.132,2.955q.255.151.505.311c-.46-2.042-1.847-3.8-1.849-5.982h0a.641.641,0,0,1-.335.17" transform="translate(-187.252 -76.322)" fill="#cecefe"/>
        <path id="Trazado_602712" data-name="Trazado 602712" d="M289.766,106.27c-4.225-1.782-8.382-3.718-12.595-5.527-1.134-.487-1.354-.973-.845-2.091,2.119-4.658,4.128-9.366,6.275-14.011l-.021-.062h0c-.169.081-.434.119-.493.25-2.208,4.932-4.389,9.875-6.6,14.807-.318.711.161.859.611,1.059,3.544,1.58,7.063,3.22,10.647,4.7a17.669,17.669,0,0,0,3.991,1.6c-.019-.086-.036-.173-.058-.258a7.665,7.665,0,0,0-.916-.471" transform="translate(-166.449 -51.12)" fill="#cecefe"/>
        <path id="Trazado_602713" data-name="Trazado 602713" d="M314.11,140.864c.148.023.295.045.447.053q-.25-.161-.505-.312c.022.085.039.172.058.258" transform="translate(-189.819 -84.985)" fill="#cecefe"/>
        <path id="Trazado_602714" data-name="Trazado 602714" d="M298.546,97.936c-.017-.029-.031-.059-.047-.089-.028.027-.059.05-.085.08a.829.829,0,0,0-.059.572c1.19,3.474,2.628,6.851,3.985,10.261.1.242.255.532.528.5v-.02c-.011-.094-.009-.18-.014-.271a.642.642,0,0,1-.182-.273q-2.051-5.385-4.125-10.761" transform="translate(-180.313 -59.141)" fill="#cecefe"/>
        <path id="Trazado_602715" data-name="Trazado 602715" d="M309.773,125.967c0,.091,0,.176.014.271,0,.007,0,.013,0,.02a.639.639,0,0,0,.335-.17.542.542,0,0,1-.349-.121" transform="translate(-187.233 -76.137)" fill="#cecefe"/>
        <path id="Trazado_602716" data-name="Trazado 602716" d="M12.986,150.657q-5.312-.148-10.632,0A2.165,2.165,0,0,0,0,152.949c.053,1.415,1.027,2.251,2.714,2.275,1.626.022,3.251,0,4.877,0,1.724,0,3.449.023,5.172-.007a2.448,2.448,0,0,0,2.7-2.187,2.312,2.312,0,0,0-2.474-2.377" transform="translate(0 -91.015)" fill="#fcef5b"/>
        <path id="Trazado_602717" data-name="Trazado 602717" d="M53.437,30.253a3.16,3.16,0,0,0-2.074-1.042,2.464,2.464,0,0,0-2.031,1.5,2.152,2.152,0,0,0,.653,2.534q3.592,3.624,7.212,7.219c1.3,1.291,2.408,1.406,3.475.411,1.108-1.034,1.065-2.281-.235-3.608-2.31-2.36-4.663-4.679-7-7.012" transform="translate(-29.704 -17.656)" fill="#fcef5b"/>
        <path id="Trazado_602718" data-name="Trazado 602718" d="M51.689,263.578a2.153,2.153,0,0,0,3.258-.111c2.486-2.45,4.937-4.936,7.409-7.4a2.374,2.374,0,0,0,.85-1.7,2.1,2.1,0,0,0-1.383-2.169,2.194,2.194,0,0,0-2.548.6c-2.486,2.52-5.012,5-7.5,7.523a2.163,2.163,0,0,0-.091,3.258" transform="translate(-30.821 -152.32)" fill="#fcef5b"/>
        <path id="Trazado_602719" data-name="Trazado 602719" d="M292.144,185.268a3.244,3.244,0,0,1,2,.386l0,.006a3.809,3.809,0,0,1,1.147-1.564c2.347-2.583,4.765-5.1,7.158-7.639a2.512,2.512,0,0,1,.468-.383,15.059,15.059,0,0,1-1.763.042c-11.269,0-22.539.023-33.808-.022a4.826,4.826,0,0,0-3.785,1.548c-2.331,2.4-4.476,4.976-6.907,7.279a3.148,3.148,0,0,0-.422.474,4.588,4.588,0,0,1,1.349-.127q17.282-.012,34.564,0" transform="translate(-154.871 -106.422)" fill="#fc6dc2"/>
        <path id="Trazado_602720" data-name="Trazado 602720" d="M255.7,184.244c2.431-2.3,4.576-4.879,6.907-7.279a4.826,4.826,0,0,1,3.786-1.548c11.269.045,22.539.026,33.808.022a14.966,14.966,0,0,0,1.763-.042c.056-.036.113-.07.171-.1a2.829,2.829,0,0,0-1.644-.168q-11.985-.023-23.97-.01c-.444,0-.888,0-1.332,0a5.037,5.037,0,0,1-1.47-.157l-8.835,0a1.506,1.506,0,0,0-1.237.341q-4.46,4.733-8.922,9.465c-.058.062-.049.187-.071.282a1.821,1.821,0,0,1,.623-.326,3.187,3.187,0,0,1,.422-.474" transform="translate(-153.92 -105.746)" fill="#fc6dc2"/>
        <path id="Trazado_602721" data-name="Trazado 602721" d="M305.652,175.125q11.985,0,23.969.01a2.826,2.826,0,0,1,1.644.168,4.494,4.494,0,0,1,.468-.229,5.615,5.615,0,0,0-.73-.095q-14.077-.01-28.153-.013a5.025,5.025,0,0,0,1.471.157c.444.005.888,0,1.332,0" transform="translate(-183.048 -105.753)" fill="#fc6dc2"/>
        <path id="Trazado_602722" data-name="Trazado 602722" d="M293.865,199.691a3.247,3.247,0,0,0-2-.386q-17.282-.014-34.564,0a4.588,4.588,0,0,0-1.349.126,1.674,1.674,0,0,0-.18.327l38.066.037h0c.006-.034.017-.064.025-.1l0-.006" transform="translate(-154.596 -120.459)" fill="#fc6dc2"/>
        <path id="Trazado_602723" data-name="Trazado 602723" d="M255.1,199.961a1.657,1.657,0,0,1,.18-.327,1.819,1.819,0,0,0-.623.326h.443" transform="translate(-153.919 -120.663)" fill="#fc6dc2"/>
        <path id="Trazado_602724" data-name="Trazado 602724" d="M360.846,176.014a2.517,2.517,0,0,0-.469.383c-2.394,2.54-4.811,5.057-7.158,7.64a3.8,3.8,0,0,0-1.147,1.563c.01.014.017.027.027.041l9.062-9.615c-.021-.019-.044-.034-.065-.051-.084.015-.167.029-.251.039" transform="translate(-212.799 -106.363)" fill="#fc6dc2"/>
        <path id="Trazado_602725" data-name="Trazado 602725" d="M374.95,175.995l.068-.072c-.044.009-.088.013-.133.021.022.017.044.032.065.051" transform="translate(-226.588 -106.331)" fill="#fc6dc2"/>
        <path id="Trazado_602726" data-name="Trazado 602726" d="M374.422,175.817c-.058.032-.116.066-.171.1.084-.01.167-.025.251-.039-.027-.021-.052-.045-.08-.063" transform="translate(-226.204 -106.267)" fill="#fc6dc2"/>
        <path id="Trazado_602727" data-name="Trazado 602727" d="M374.764,175.531c.044-.008.089-.011.133-.021l.256-.271a4.529,4.529,0,0,0-.468.229c.027.018.053.042.08.063" transform="translate(-226.466 -105.918)" fill="#fc6dc2"/>
        <path id="Trazado_602728" data-name="Trazado 602728" d="M352.032,200.308c-.008.033-.019.063-.025.1l.053-.056c-.01-.013-.017-.027-.027-.041" transform="translate(-212.76 -121.07)" fill="#fc6dc2"/>
        <path id="Trazado_602729" data-name="Trazado 602729" d="M271.188,56.69c1.911.74,3.758,1.654,5.636,2.484.561.248,1.229.417,1.434,1.139l-.063.139a12.685,12.685,0,0,1,2.049,5.183,4.419,4.419,0,0,1,1.761-.695,10.431,10.431,0,0,0-3.5-20.347,10.7,10.7,0,0,0-9.829,7.467c-.16.5-.124,1.094-.6,1.472h0v.021a.652.652,0,0,1,.089.017c.193,1.83,1.474,2.523,3.015,3.119" transform="translate(-162.035 -26.951)" fill="#fefefe"/>
        <path id="Trazado_602730" data-name="Trazado 602730" d="M278.261,74.009c-.2-.721-.874-.891-1.434-1.139-1.878-.83-3.724-1.744-5.636-2.484-1.541-.6-2.822-1.29-3.015-3.119a.8.8,0,0,0-.089-.017c.085,2.368.131,2.284,2.442,3.289a50.39,50.39,0,0,1,7.639,3.565h0c.011.014.019.029.029.043l.063-.138" transform="translate(-162.037 -40.647)" fill="#fefefe"/>
        <path id="Trazado_602731" data-name="Trazado 602731" d="M289.606,53.269a10.878,10.878,0,0,0-12.754-9.357c-4.482.672-8.43,4.781-8.768,9.124.473-.379.437-.969.6-1.472A10.7,10.7,0,0,1,278.51,44.1a10.431,10.431,0,0,1,3.5,20.347,4.422,4.422,0,0,0-1.76.695c.007.038.016.074.023.112,6.071-1.129,10.228-6.464,9.337-11.981" transform="translate(-162.035 -26.455)" fill="#fefefe"/>
        <path id="Trazado_602732" data-name="Trazado 602732" d="M295.682,89.87a12.684,12.684,0,0,0-2.049-5.183l-.009.019a30.485,30.485,0,0,0,2.034,5.187l.024-.023" transform="translate(-177.472 -51.186)" fill="#fefefe"/>
        <path id="Trazado_602733" data-name="Trazado 602733" d="M293.6,84.621l-.029-.043.021.062.009-.019" transform="translate(-177.44 -51.121)" fill="#fefefe"/>
        <path id="Trazado_602734" data-name="Trazado 602734" d="M298.813,97.9c-.007-.037-.016-.074-.023-.111l-.024.022c.016.03.03.06.047.089" transform="translate(-180.58 -59.107)" fill="#fefefe"/>
        <path id="Trazado_602735" data-name="Trazado 602735" d="M242.489,299.3a7.875,7.875,0,0,0-8.012,7.923,7.978,7.978,0,0,0,8.048,8.076,7.848,7.848,0,0,0,7.939-7.833,8.01,8.01,0,0,0-7.975-8.166" transform="translate(-141.722 -180.901)" fill="#fefefe"/>
      </g>
    </g>
  </g>
</svg>
