<svg xmlns="http://www.w3.org/2000/svg" xmlns:xlink="http://www.w3.org/1999/xlink" width="328.486" height="321.119" viewBox="0 0 328.486 321.119">
  <defs>
    <clipPath id="clip-path">
      <rect id="Rect치ngulo_300831" data-name="Rect치ngulo 300831" width="151.612" height="151.55" fill="none"/>
    </clipPath>
  </defs>
  <g id="Grupo_886467" data-name="Grupo 886467" transform="translate(-285.361 -4499.373)">
    <g id="Grupo_886468" data-name="Grupo 886468">
      <rect id="Rect치ngulo_4912" data-name="Rect치ngulo 4912" width="328.486" height="321.119" rx="21" transform="translate(285.361 4499.373)" fill="#e1efe3"/>
      <path id="Trazado_608246" data-name="Trazado 608246" d="M58.225,12.865a7.546,7.546,0,0,1-.694,3.313A5.132,5.132,0,0,1,55.558,18.4a5.494,5.494,0,0,1-2.914.778,5.572,5.572,0,0,1-2.9-.751,5.123,5.123,0,0,1-1.973-2.149,7.329,7.329,0,0,1-.743-3.208v-.721a7.58,7.58,0,0,1,.69-3.318A5.119,5.119,0,0,1,49.7,6.81,5.854,5.854,0,0,1,55.527,6.8,5.211,5.211,0,0,1,57.509,9a7.362,7.362,0,0,1,.716,3.274Zm-3.138-.536a5.381,5.381,0,0,0-.637-2.9,2.044,2.044,0,0,0-1.824-.989q-2.32,0-2.452,3.48l-.009.94a5.535,5.535,0,0,0,.624,2.892,2.041,2.041,0,0,0,1.854,1.011,2.016,2.016,0,0,0,1.8-.993,5.383,5.383,0,0,0,.642-2.856Zm13.421,2a5.8,5.8,0,0,1-.967,3.595,3.238,3.238,0,0,1-2.725,1.257,2.81,2.81,0,0,1-2.338-1.151L62.356,19H59.7V5.5h2.962v4.755a2.711,2.711,0,0,1,2.136-.94,3.239,3.239,0,0,1,2.742,1.274,5.826,5.826,0,0,1,.967,3.586Zm-2.971-.189a3.866,3.866,0,0,0-.365-1.952,1.229,1.229,0,0,0-1.121-.584,1.418,1.418,0,0,0-1.389.763v3.773a1.426,1.426,0,0,0,1.406.755A1.258,1.258,0,0,0,65.4,15.873,7.309,7.309,0,0,0,65.538,14.135ZM73,9.49v9.835a3.452,3.452,0,0,1-.967,2.6,3.714,3.714,0,0,1-2.672.914,6.308,6.308,0,0,1-1.4-.149V20.45a5.667,5.667,0,0,0,.835.079,1.084,1.084,0,0,0,1.23-1.222V9.49Zm-3.19-2.452A1.322,1.322,0,0,1,70.266,6a1.943,1.943,0,0,1,2.373,0A1.322,1.322,0,0,1,73.1,7.038a1.322,1.322,0,0,1-.457,1.037,1.943,1.943,0,0,1-2.373,0A1.322,1.322,0,0,1,69.809,7.038Zm9.466,12.138a4.889,4.889,0,0,1-3.542-1.305,4.507,4.507,0,0,1-1.354-3.4v-.246a5.84,5.84,0,0,1,.541-2.575A3.955,3.955,0,0,1,76.5,9.925a4.763,4.763,0,0,1,2.461-.611,4.117,4.117,0,0,1,3.164,1.244,4.887,4.887,0,0,1,1.16,3.467v1.151H77.394a2.135,2.135,0,0,0,.694,1.257,2.066,2.066,0,0,0,1.389.457,2.662,2.662,0,0,0,2.2-.984l1.354,1.6a3.784,3.784,0,0,1-1.569,1.217A5.3,5.3,0,0,1,79.275,19.176ZM78.941,11.6q-1.3,0-1.547,1.723h2.988v-.229a1.467,1.467,0,0,0-.36-1.1A1.434,1.434,0,0,0,78.941,11.6Zm8.982-4.474V9.49h1.564v2.057H87.923V15.9a1.111,1.111,0,0,0,.193.747,1.037,1.037,0,0,0,.765.211,4.345,4.345,0,0,0,.738-.053v2.118a5.466,5.466,0,0,1-1.67.255,3.1,3.1,0,0,1-2.259-.721,2.954,2.954,0,0,1-.729-2.188v-4.72H83.749V9.49h1.213V7.126ZM93.777,19H90.806V9.49h2.971ZM90.63,7.038A1.322,1.322,0,0,1,91.087,6,1.943,1.943,0,0,1,93.46,6a1.322,1.322,0,0,1,.457,1.037,1.322,1.322,0,0,1-.457,1.037,1.943,1.943,0,0,1-2.373,0A1.322,1.322,0,0,1,90.63,7.038Zm8.763,8.438,1.5-5.985h3.12l-3.1,9.51H97.89l-3.1-9.51h3.129Zm5-1.318a5.613,5.613,0,0,1,.554-2.536,3.96,3.96,0,0,1,1.591-1.709,4.791,4.791,0,0,1,2.435-.6,4.373,4.373,0,0,1,3.366,1.323,5.076,5.076,0,0,1,1.23,3.6v.105a4.925,4.925,0,0,1-1.235,3.529,4.384,4.384,0,0,1-3.344,1.305,4.434,4.434,0,0,1-3.261-1.217,4.761,4.761,0,0,1-1.327-3.3Zm2.962.185a3.538,3.538,0,0,0,.413,1.934,1.376,1.376,0,0,0,1.222.615q1.582,0,1.617-2.435v-.3q0-2.558-1.635-2.558-1.485,0-1.608,2.206Zm12.5,1.986a.684.684,0,0,0-.4-.606,6.016,6.016,0,0,0-1.5-.475,6.853,6.853,0,0,1-1.828-.646,3.062,3.062,0,0,1-1.1-.971,2.319,2.319,0,0,1-.378-1.31,2.628,2.628,0,0,1,1.081-2.158,4.453,4.453,0,0,1,2.83-.848,4.934,4.934,0,0,1,3.023.853,2.666,2.666,0,0,1,1.143,2.241h-2.971q0-1.143-1.2-1.143a1.194,1.194,0,0,0-.782.259.8.8,0,0,0-.316.646.737.737,0,0,0,.387.642,3.654,3.654,0,0,0,1.235.4,10.671,10.671,0,0,1,1.49.378,2.706,2.706,0,0,1,2.145,2.646,2.491,2.491,0,0,1-1.156,2.118,5.068,5.068,0,0,1-2.993.817,5.172,5.172,0,0,1-2.18-.439,3.645,3.645,0,0,1-1.494-1.2,2.707,2.707,0,0,1-.536-1.591h2.769a1.145,1.145,0,0,0,.439.962,1.808,1.808,0,0,0,1.081.3,1.422,1.422,0,0,0,.91-.246A.787.787,0,0,0,119.854,16.328Zm16.8-2.76H131.8v3.059h5.73V19h-8.815V6.2h8.833V8.585H131.8v2.7h4.852Zm6.979,2.76a.684.684,0,0,0-.4-.606,6.016,6.016,0,0,0-1.5-.475A6.853,6.853,0,0,1,139.9,14.6a3.062,3.062,0,0,1-1.1-.971,2.319,2.319,0,0,1-.378-1.31,2.628,2.628,0,0,1,1.081-2.158,4.453,4.453,0,0,1,2.83-.848,4.934,4.934,0,0,1,3.023.853,2.666,2.666,0,0,1,1.143,2.241h-2.971q0-1.143-1.2-1.143a1.194,1.194,0,0,0-.782.259.8.8,0,0,0-.316.646.737.737,0,0,0,.387.642,3.654,3.654,0,0,0,1.235.4,10.671,10.671,0,0,1,1.49.378,2.706,2.706,0,0,1,2.145,2.646,2.491,2.491,0,0,1-1.156,2.118,5.068,5.068,0,0,1-2.993.817,5.172,5.172,0,0,1-2.18-.439,3.645,3.645,0,0,1-1.494-1.2,2.707,2.707,0,0,1-.536-1.591H140.9a1.145,1.145,0,0,0,.439.962,1.808,1.808,0,0,0,1.081.3,1.422,1.422,0,0,0,.91-.246A.787.787,0,0,0,143.628,16.328ZM156.7,14.315a5.735,5.735,0,0,1-1,3.538,3.2,3.2,0,0,1-2.694,1.323,2.742,2.742,0,0,1-2.153-.958v4.438h-2.962V9.49h2.769l.088.879a2.742,2.742,0,0,1,2.241-1.055,3.224,3.224,0,0,1,2.733,1.3,5.805,5.805,0,0,1,.976,3.564Zm-2.962-.185q0-2.531-1.477-2.531a1.394,1.394,0,0,0-1.406.756V16.1a1.439,1.439,0,0,0,1.424.791q1.415,0,1.459-2.443Zm8.868,5.045a4.889,4.889,0,0,1-3.542-1.305,4.507,4.507,0,0,1-1.354-3.4v-.246a5.84,5.84,0,0,1,.541-2.575,3.955,3.955,0,0,1,1.578-1.727,4.763,4.763,0,0,1,2.461-.611,4.117,4.117,0,0,1,3.164,1.244,4.887,4.887,0,0,1,1.16,3.467v1.151h-5.889a2.135,2.135,0,0,0,.694,1.257,2.066,2.066,0,0,0,1.389.457,2.662,2.662,0,0,0,2.2-.984l1.354,1.6a3.784,3.784,0,0,1-1.569,1.217A5.3,5.3,0,0,1,162.6,19.176ZM162.27,11.6q-1.3,0-1.547,1.723h2.988v-.229a1.467,1.467,0,0,0-.36-1.1A1.434,1.434,0,0,0,162.27,11.6Zm9.554,5.291a1.317,1.317,0,0,0,.967-.338,1.241,1.241,0,0,0,.334-.945H175.9a3.288,3.288,0,0,1-1.121,2.566,4.168,4.168,0,0,1-2.887,1,4.22,4.22,0,0,1-3.27-1.3,5.125,5.125,0,0,1-1.2-3.6v-.123a5.792,5.792,0,0,1,.532-2.544,3.872,3.872,0,0,1,1.534-1.7,4.573,4.573,0,0,1,2.373-.593,4.116,4.116,0,0,1,2.944,1.028,3.647,3.647,0,0,1,1.09,2.786h-2.777a1.626,1.626,0,0,0-.36-1.134,1.244,1.244,0,0,0-.967-.4q-1.151,0-1.345,1.468a10.357,10.357,0,0,0-.062,1.283,4.068,4.068,0,0,0,.343,1.986A1.187,1.187,0,0,0,171.824,16.891ZM180.384,19H177.4V9.49h2.979ZM179.277,5.676h3.129l-2.443,2.76-2.417,0ZM182.977,19V11.547H181.6V9.49h1.38V9.174a3.631,3.631,0,0,1,1.248-2.909,4.987,4.987,0,0,1,3.243-.949,11.509,11.509,0,0,1,3.094.51l-.4,2.338-.492-.132a7.832,7.832,0,0,0-2.021-.255q-1.7,0-1.7,1.547V9.49h1.863v2.057h-1.863V19Zm8.947,0h-2.979V9.49h2.979Zm5.827-2.109a1.317,1.317,0,0,0,.967-.338,1.241,1.241,0,0,0,.334-.945h2.777a3.288,3.288,0,0,1-1.121,2.566,4.168,4.168,0,0,1-2.887,1,4.22,4.22,0,0,1-3.27-1.3,5.125,5.125,0,0,1-1.2-3.6v-.123a5.792,5.792,0,0,1,.532-2.544,3.872,3.872,0,0,1,1.534-1.7,4.573,4.573,0,0,1,2.373-.593,4.116,4.116,0,0,1,2.944,1.028,3.647,3.647,0,0,1,1.09,2.786h-2.777a1.626,1.626,0,0,0-.36-1.134,1.244,1.244,0,0,0-.967-.4q-1.151,0-1.345,1.468a10.357,10.357,0,0,0-.062,1.283,4.068,4.068,0,0,0,.343,1.986A1.187,1.187,0,0,0,197.751,16.891Zm4.957-2.733a5.613,5.613,0,0,1,.554-2.536,3.96,3.96,0,0,1,1.591-1.709,4.791,4.791,0,0,1,2.435-.6,4.373,4.373,0,0,1,3.366,1.323,5.076,5.076,0,0,1,1.23,3.6v.105a4.925,4.925,0,0,1-1.235,3.529,4.384,4.384,0,0,1-3.344,1.305,4.434,4.434,0,0,1-3.261-1.217,4.761,4.761,0,0,1-1.327-3.3Zm2.962.185a3.538,3.538,0,0,0,.413,1.934,1.376,1.376,0,0,0,1.222.615q1.582,0,1.617-2.435v-.3q0-2.558-1.635-2.558-1.485,0-1.608,2.206Zm12.5,1.986a.684.684,0,0,0-.4-.606,6.016,6.016,0,0,0-1.5-.475,6.853,6.853,0,0,1-1.828-.646,3.062,3.062,0,0,1-1.1-.971,2.319,2.319,0,0,1-.378-1.31,2.628,2.628,0,0,1,1.081-2.158,4.453,4.453,0,0,1,2.83-.848,4.934,4.934,0,0,1,3.023.853,2.666,2.666,0,0,1,1.143,2.241h-2.971q0-1.143-1.2-1.143a1.194,1.194,0,0,0-.782.259.8.8,0,0,0-.316.646.737.737,0,0,0,.387.642,3.654,3.654,0,0,0,1.235.4,10.671,10.671,0,0,1,1.49.378,2.706,2.706,0,0,1,2.145,2.646,2.491,2.491,0,0,1-1.156,2.118,5.068,5.068,0,0,1-2.993.817,5.172,5.172,0,0,1-2.18-.439,3.645,3.645,0,0,1-1.494-1.2,2.707,2.707,0,0,1-.536-1.591h2.769a1.145,1.145,0,0,0,.439.962,1.808,1.808,0,0,0,1.081.3,1.422,1.422,0,0,0,.91-.246A.787.787,0,0,0,218.168,16.328Z" transform="translate(315.361 4729)" fill="#12263f"/>
      <g id="Grupo_886169" data-name="Grupo 886169" transform="translate(373.361 4558.639)">
        <g id="Grupo_886156" data-name="Grupo 886156" clip-path="url(#clip-path)">
          <path id="Trazado_602145" data-name="Trazado 602145" d="M.512,63.088c3.354,4.586,7.824,8.109,11.65,12.244.507.548,1.213.976,1.323,1.8,2.86,2.824,5.781,5.59,8.551,8.5A5.849,5.849,0,0,0,27.9,87.393c2.833-.564,5.686-1.023,8.531-1.527h0l8.85-1.675c-.039-.74-.668-1.063-1.1-1.5Q30.092,68.577,15.987,54.481c-.415-.415-.792-.87-1.186-1.306Q8.744,55.4,2.688,57.619C1.3,58.133.66,59.361,0,60.556v2.369a.418.418,0,0,1,.512.163" transform="translate(0 -32.138)" fill="#29376d"/>
          <path id="Trazado_602146" data-name="Trazado 602146" d="M13.372,91.868h0l.114.111c-.109-.823-.816-1.251-1.323-1.8-3.826-4.136-8.3-7.659-11.65-12.244A.418.418,0,0,0,0,77.772,14.255,14.255,0,0,0,2.865,81.25q5.265,5.3,10.506,10.618" transform="translate(0 -46.985)" fill="#29376d"/>
          <path id="Trazado_602147" data-name="Trazado 602147" d="M57.012,4.184c-1.2,3.565-2.548,7.08-3.834,10.616.4.36.82.7,1.2,1.082Q68.536,30.029,82.693,44.176c.437.436.761,1.063,1.5,1.107l1.666-8.846h0c.508-2.845.97-5.7,1.537-8.534a5.825,5.825,0,0,0-1.747-5.867c-2.908-2.76-5.666-5.678-8.484-8.534-.68-.054-1.087-.6-1.535-1.048Q71.3,8.155,67,3.832A17.288,17.288,0,0,0,63.442.776C63.165.619,62.8.453,62.927,0H60.559a6.311,6.311,0,0,0-3.547,4.184" transform="translate(-32.14)" fill="#29376d"/>
          <path id="Trazado_602148" data-name="Trazado 602148" d="M78.3.776a17.288,17.288,0,0,1,3.555,3.056q4.314,4.314,8.632,8.623c.448.445.855.994,1.535,1.048l-.129-.132h0Q86.616,8.156,81.346,2.94A14.672,14.672,0,0,0,77.784,0c-.124.453.237.619.514.776" transform="translate(-46.995)" fill="#29376d"/>
          <path id="Trazado_602149" data-name="Trazado 602149" d="M208.208,39.388c19.712,4.848,32.578,17,37.314,36.681,6.4,26.617-10.334,52.527-37.153,58.561a35.555,35.555,0,0,1-10.1.962l.028.081q0,12.061,0,24.122a72.775,72.775,0,0,0,72.049-62.7A71.338,71.338,0,0,0,265.415,59,73.063,73.063,0,0,0,206.9,14.7c-2.873-.368-5.758-.326-8.64-.426q.011,11.991.022,23.983c3.3.451,6.649.323,9.924,1.129" transform="translate(-119.825 -8.628)" fill="#e53950"/>
          <path id="Trazado_602150" data-name="Trazado 602150" d="M198.26,13.668c2.882.1,5.767.058,8.64.426a73.063,73.063,0,0,1,58.514,44.3,72.741,72.741,0,0,1-15.266,79.05,72.816,72.816,0,0,1-51.862,21.746v.352a62.783,62.783,0,0,0,16.681-1.855A73.292,73.292,0,0,0,270.856,95.3a68.22,68.22,0,0,0-1.466-25.8c-7.761-28.881-26.251-47.051-55.194-54.507a54.276,54.276,0,0,0-15.936-1.666c0,.116,0,.231,0,.346" transform="translate(-119.824 -8.02)" fill="#e53950"/>
          <path id="Trazado_602151" data-name="Trazado 602151" d="M86.672,197.3a3.094,3.094,0,0,1,.076-.583,1.522,1.522,0,0,1,.2-.476l.009-.008a47.727,47.727,0,0,1-25.593-7.4c-12.87-8.219-20.454-19.927-22.514-35.094a47.665,47.665,0,0,1,6.04-30.434c-2.7.513-5.4.974-8.1,1.491a6.7,6.7,0,0,1-6.682-2.046c-2.268-2.447-4.7-4.74-7.06-7.1a3.527,3.527,0,0,1-.912-1.162A96.659,96.659,0,0,0,17.7,125.5a74.284,74.284,0,0,0,.152,44.671,71.389,71.389,0,0,0,13.7,24.5,72.339,72.339,0,0,0,21.932,17.521,74.328,74.328,0,0,0,33.38,8.173,2.469,2.469,0,0,1-.208-1.158c-.017-7.3-.045-14.6.013-21.9" transform="translate(-8.667 -69.194)" fill="#fe6c6c"/>
          <path id="Trazado_602152" data-name="Trazado 602152" d="M74.965,218.821a70.679,70.679,0,0,1-22.259-7.259A72.348,72.348,0,0,1,30.774,194.04a71.393,71.393,0,0,1-13.7-24.5,74.284,74.284,0,0,1-.152-44.671,96.61,96.61,0,0,1,4.436-11.012,1.53,1.53,0,0,1-.1-.411c-.192.344-.4.679-.574,1.033-7.717,15.945-9.677,32.591-5.458,49.776,5.017,20.438,16.9,35.906,35.1,46.4a70.734,70.734,0,0,0,36.02,9.426,1.367,1.367,0,0,1-.263-.351,70.713,70.713,0,0,1-11.121-.914" transform="translate(-7.886 -68.567)" fill="#fe6c6c"/>
          <path id="Trazado_602153" data-name="Trazado 602153" d="M34.048,114.03a3.527,3.527,0,0,0,.912,1.162c2.358,2.364,4.792,4.658,7.06,7.1a6.7,6.7,0,0,0,6.682,2.045c2.7-.517,5.4-.978,8.1-1.49.072-.129.139-.259.212-.387h0c-2.845.5-5.7.963-8.531,1.527a5.847,5.847,0,0,1-5.866-1.761c-2.771-2.909-5.691-5.676-8.551-8.5a1.57,1.57,0,0,1,.022.217l-.037.083" transform="translate(-20.578 -68.737)" fill="#fe6c6c"/>
          <path id="Trazado_602154" data-name="Trazado 602154" d="M33.934,113.778a1.571,1.571,0,0,0-.022-.217l-.113-.111a1.53,1.53,0,0,0,.1.411l.037-.083" transform="translate(-20.427 -68.567)" fill="#fe6c6c"/>
          <path id="Trazado_602155" data-name="Trazado 602155" d="M197.4,321.117l-.009.008a1.515,1.515,0,0,0-.2.477,3.084,3.084,0,0,0-.076.583c-.058,7.3-.03,14.6-.013,21.9a2.47,2.47,0,0,0,.208,1.159c.068,0,.137,0,.2,0h.058q0-12.061,0-24.123c-.059,0-.118,0-.178,0" transform="translate(-119.113 -194.076)" fill="#fe6c6c"/>
          <path id="Trazado_602156" data-name="Trazado 602156" d="M197.926,382.1h-.263a1.367,1.367,0,0,0,.263.352V382.1" transform="translate(-119.463 -230.934)" fill="#fe6c6c"/>
          <path id="Trazado_602157" data-name="Trazado 602157" d="M115.743,23.013c2.374,2.369,4.683,4.809,7.136,7.093a6.578,6.578,0,0,1,2,6.583c-.546,2.708-.957,5.441-1.494,8.151a47.818,47.818,0,0,1,24.322-6.361c.007-.056.012-.113.017-.169a1.552,1.552,0,0,1-.317-.467,5.371,5.371,0,0,1-.161-1.61q-.012-10.1,0-20.2a3.858,3.858,0,0,1,.245-1.772,80.545,80.545,0,0,0-12.624,1.154,70.6,70.6,0,0,0-18.913,6.135,6.155,6.155,0,0,1-1.337.558,3.791,3.791,0,0,1,1.124.906" transform="translate(-69.273 -8.618)" fill="#fe6c6c"/>
          <path id="Trazado_602158" data-name="Trazado 602158" d="M115.266,21a70.609,70.609,0,0,1,18.913-6.135A80.543,80.543,0,0,1,146.8,13.71a1.809,1.809,0,0,1,.216-.34,62.421,62.421,0,0,0-12.062.932,70.684,70.684,0,0,0-21.479,7.137h0a1.565,1.565,0,0,1,.451.118A6.157,6.157,0,0,0,115.266,21" transform="translate(-68.583 -8.069)" fill="#fe6c6c"/>
          <path id="Trazado_602159" data-name="Trazado 602159" d="M124.389,48.676a6.578,6.578,0,0,0-2-6.583c-2.453-2.284-4.761-4.724-7.136-7.093a3.779,3.779,0,0,0-1.124-.906l-.023.007a1.468,1.468,0,0,1-.3.007c2.818,2.856,5.576,5.774,8.484,8.534a5.825,5.825,0,0,1,1.747,5.867c-.567,2.834-1.029,5.688-1.537,8.534.131-.074.263-.142.394-.215.536-2.71.948-5.442,1.494-8.151" transform="translate(-68.781 -20.605)" fill="#fe6c6c"/>
          <path id="Trazado_602160" data-name="Trazado 602160" d="M113.906,33.919l.023-.007a1.565,1.565,0,0,0-.451-.118l.129.132a1.469,1.469,0,0,0,.3-.007" transform="translate(-68.584 -20.424)" fill="#fe6c6c"/>
          <path id="Trazado_602161" data-name="Trazado 602161" d="M197.087,16.032q-.011,10.1,0,20.2a5.373,5.373,0,0,0,.161,1.61,1.545,1.545,0,0,0,.317.467c0-.02,0-.04.006-.06q-.011-11.991-.022-23.983l-.208-.007h-.008a3.857,3.857,0,0,0-.245,1.772" transform="translate(-119.111 -8.618)" fill="#fe6c6c"/>
          <path id="Trazado_602162" data-name="Trazado 602162" d="M197.715,13.741h.008l.209.007q0-.173,0-.346a1.777,1.777,0,0,0-.216.34" transform="translate(-119.495 -8.099)" fill="#fe6c6c"/>
          <path id="Trazado_602163" data-name="Trazado 602163" d="M81.984,134.886a47.8,47.8,0,0,0-5.6,18.127,47.126,47.126,0,0,0,3.659,23.849c6.311,14.3,17.138,23.469,32.136,27.71a43.4,43.4,0,0,0,10.66,1.57c.538.015,1.125-.092,1.559.35.019-.016.037-.035.057-.05,0-7.455-.029-14.911.047-22.365.013-1.238-.318-1.881-1.516-2.062-11.651-.932-20.684-9.159-22.4-20.608a24.022,24.022,0,0,1,3.889-17.037q-6.134-6.179-12.265-12.362a1.377,1.377,0,0,0-.86-.413,1.667,1.667,0,0,1-.215.3,82.826,82.826,0,0,1-8.448,1.67l-.158.029c.035.5-.328.885-.547,1.293" transform="translate(-46.02 -79.533)" fill="#eff6fe"/>
          <path id="Trazado_602164" data-name="Trazado 602164" d="M92.327,133.552a82.945,82.945,0,0,0,8.447-1.67,1.708,1.708,0,0,0,.216-.3c-.016,0-.031-.006-.047-.008l-8.85,1.675h0a1.009,1.009,0,0,1,.077.333l.158-.03" transform="translate(-55.658 -79.521)" fill="#eff6fe"/>
          <path id="Trazado_602165" data-name="Trazado 602165" d="M198.181,320.784c-.019.015-.038.034-.057.05a1.194,1.194,0,0,1,.085.086l-.028-.081Z" transform="translate(-119.742 -193.875)" fill="#eff6fe"/>
          <path id="Trazado_602166" data-name="Trazado 602166" d="M75.6,167.136c2.06,15.167,9.644,26.875,22.514,35.094a47.728,47.728,0,0,0,25.593,7.4c.03-.031.062-.055.093-.082-.434-.442-1.02-.335-1.559-.349a43.381,43.381,0,0,1-10.66-1.57c-15-4.24-25.825-13.406-32.136-27.71a47.125,47.125,0,0,1-3.659-23.849,47.8,47.8,0,0,1,5.6-18.127c.218-.408.582-.8.547-1.293l-.288.054a47.666,47.666,0,0,0-6.04,30.433" transform="translate(-45.424 -82.588)" fill="#eff6fe"/>
          <path id="Trazado_602167" data-name="Trazado 602167" d="M91.844,136.14a1.01,1.01,0,0,0-.077-.332c-.073.128-.14.258-.212.387l.288-.055" transform="translate(-55.334 -82.079)" fill="#eff6fe"/>
          <path id="Trazado_602168" data-name="Trazado 602168" d="M197.888,320.992l.178,0a1.16,1.16,0,0,0-.085-.086,1.2,1.2,0,0,0-.093.082" transform="translate(-119.599 -193.951)" fill="#eff6fe"/>
          <path id="Trazado_602169" data-name="Trazado 602169" d="M69.818,75.665Q75.329,81.13,80.8,86.637a2.152,2.152,0,0,1,.783,1.292c5.353,5.327,10.72,10.639,16.044,15.995a6.263,6.263,0,0,0,3.849,1.979,4.6,4.6,0,0,0,4.213-3.377c.578-2.016-.308-3.522-1.681-4.877-.875-.863-1.707-1.77-2.559-2.657h0L87.873,81.448Q81.694,75.315,75.51,69.185a1.363,1.363,0,0,1-.412-.808c-.36.2-.722-.036-1.071-.3a12.2,12.2,0,0,1-1.177-1.122q-13.8-13.8-27.6-27.61a7.1,7.1,0,0,1-1.2-1.291,6.009,6.009,0,0,1-5.941,5.959,4.6,4.6,0,0,1,.731.661Q53.213,59.042,67.572,73.428c.432.434,1.192.864.808,1.6.679-.279,1.054.255,1.438.636" transform="translate(-23.03 -22.998)" fill="#47568b"/>
          <path id="Trazado_602170" data-name="Trazado 602170" d="M67.96,84.133c.384-.737-.377-1.167-.808-1.6q-14.346-14.4-28.735-28.755a4.623,4.623,0,0,0-.732-.661c-.092.008-.18.019-.274.023.395.436.771.891,1.186,1.306q14.1,14.106,28.192,28.211c.436.437,1.065.76,1.1,1.5.023-.011.044-.013.066-.023" transform="translate(-22.61 -32.102)" fill="#47568b"/>
          <path id="Trazado_602171" data-name="Trazado 602171" d="M54.325,38.955q13.794,13.812,27.6,27.61A12.3,12.3,0,0,0,83.1,67.687c.349.266.71.5,1.071.3,0-.032-.013-.062-.015-.1-.738-.043-1.063-.67-1.5-1.106Q68.494,52.648,54.346,38.492c-.381-.381-.8-.722-1.2-1.082,0,.087-.015.169-.022.255a7.117,7.117,0,0,0,1.2,1.291" transform="translate(-32.106 -22.61)" fill="#47568b"/>
          <path id="Trazado_602172" data-name="Trazado 602172" d="M43.975,37.98l-.028-.047a7.337,7.337,0,0,1-5.961,5.977l.047.029a6.009,6.009,0,0,0,5.941-5.959" transform="translate(-22.958 -22.926)" fill="#47568b"/>
          <path id="Trazado_602173" data-name="Trazado 602173" d="M37.639,53.043c-.076.017-.15.037-.227.053.093,0,.182-.016.274-.023l-.047-.029" transform="translate(-22.611 -32.058)" fill="#47568b"/>
          <path id="Trazado_602174" data-name="Trazado 602174" d="M53.1,37.41c-.015.071-.034.137-.049.207l.028.048c.006-.085.017-.168.022-.255" transform="translate(-32.064 -22.61)" fill="#47568b"/>
          <path id="Trazado_602175" data-name="Trazado 602175" d="M127.707,144.2h0l.095.095a2.153,2.153,0,0,0-.783-1.293q-5.475-5.5-10.981-10.972c-.384-.381-.759-.915-1.438-.636-.005.01-.013.021-.019.031a1.377,1.377,0,0,1,.86.413q6.126,6.187,12.265,12.362" transform="translate(-69.25 -79.367)" fill="#47568b"/>
          <path id="Trazado_602176" data-name="Trazado 602176" d="M114.528,131.516c-.023.01-.043.012-.066.023.016,0,.031.006.047.008s.014-.021.019-.031" transform="translate(-69.178 -79.485)" fill="#47568b"/>
          <path id="Trazado_602177" data-name="Trazado 602177" d="M140.975,100.277c1.226,1.2,2.428,2.435,3.657,3.637l.124.125a28.944,28.944,0,0,1,12.038-4.071,6.3,6.3,0,0,1,1.266.065l.034-.023-.029-.074q0-12.1-.01-24.192a.431.431,0,0,1-.09.085c-1.809.57-3.693.23-5.543.461a50.826,50.826,0,0,0-17.333,5.4c-.449.234-.869.636-1.412.6-.01.048-.018.1-.028.144-.517,2.817-.851,5.669-1.645,8.431a1.016,1.016,0,0,1-.268.26c3.17,2.961,6.147,6.116,9.24,9.155" transform="translate(-79.618 -45.778)" fill="#eff6fe"/>
          <path id="Trazado_602178" data-name="Trazado 602178" d="M131.9,100.748c.794-2.761,1.128-5.613,1.645-8.43.01-.048.018-.1.028-.145a1.1,1.1,0,0,1-.339-.074h0l-1.666,8.846.065.062a1.031,1.031,0,0,0,.268-.26" transform="translate(-79.519 -55.663)" fill="#eff6fe"/>
          <path id="Trazado_602179" data-name="Trazado 602179" d="M138.054,81.518a50.82,50.82,0,0,1,17.333-5.4c1.85-.231,3.734.109,5.543-.461a.42.42,0,0,0,.09-.084v-.106A47.818,47.818,0,0,0,136.7,81.828c-.019.1-.036.193-.055.289.544.037.963-.365,1.412-.6" transform="translate(-82.583 -45.606)" fill="#eff6fe"/>
          <path id="Trazado_602180" data-name="Trazado 602180" d="M136.178,91.555c-.131.073-.263.141-.394.215a1.088,1.088,0,0,0,.339.074c.019-.1.036-.193.055-.289" transform="translate(-82.065 -55.334)" fill="#eff6fe"/>
          <path id="Trazado_602181" data-name="Trazado 602181" d="M144.386,127.722h0c.1-.065.2-.125.3-.189l-.125-.125c-1.229-1.2-2.43-2.432-3.657-3.637-3.093-3.038-6.07-6.194-9.24-9.154-.016.011-.032.024-.049.033a1.365,1.365,0,0,0,.412.808q6.188,6.125,12.363,12.263" transform="translate(-79.543 -69.272)" fill="#eff6fe"/>
          <path id="Trazado_602182" data-name="Trazado 602182" d="M131.636,114.522l-.065-.062c0,.033.011.063.016.1.016-.009.032-.023.049-.033" transform="translate(-79.519 -69.177)" fill="#eff6fe"/>
          <path id="Trazado_602183" data-name="Trazado 602183" d="M198.138,98.5a2.922,2.922,0,0,1-.081.582,1.5,1.5,0,0,1-.21.481c-.011.009-.022.014-.033.023,6.528.371,12.361,2.484,16.948,7.278,6.574,6.871,8.67,15.088,5.848,24.111-2.878,9.205-9.4,14.737-18.945,16.606a16.215,16.215,0,0,1-3.961.248l-.4.019c.765.375.864,1.194.866,2.086.012,4.867,0,9.733,0,14.6,0,1.967.012,3.933-.007,5.9a2.8,2.8,0,0,1-.387,1.832,2.773,2.773,0,0,1,1.406-.237,48.428,48.428,0,0,0,46.406-43.2,46.781,46.781,0,0,0-11.426-36.466c-8.253-9.657-18.818-15.062-31.4-16.588-1.081-.131-2.171,0-3.251-.1a2.82,2.82,0,0,1-1.777-.528.278.278,0,0,1-.017.168,1.894,1.894,0,0,1,.436,1.464c.019,7.24.049,14.48-.013,21.72" transform="translate(-119.243 -45.418)" fill="#dee6f3"/>
          <path id="Trazado_602184" data-name="Trazado 602184" d="M198.317,75a2.821,2.821,0,0,0,1.778.528c1.079.1,2.17-.03,3.251.1,12.582,1.526,23.147,6.932,31.4,16.588a48.082,48.082,0,0,1-2.769,65.8,46.945,46.945,0,0,1-32.211,13.864,2.774,2.774,0,0,0-1.406.237c-.031.039-.057.079-.093.117a35.559,35.559,0,0,0,10.105-.962c26.818-6.035,43.557-31.944,37.153-58.561-4.736-19.684-17.6-31.832-37.314-36.681-3.275-.805-6.626-.677-9.925-1.129a.423.423,0,0,1,.03.1" transform="translate(-119.828 -45.266)" fill="#dee6f3"/>
          <path id="Trazado_602185" data-name="Trazado 602185" d="M198.314,75.088c-.013-.012-.024-.027-.036-.04,0,.057-.009.113-.016.17.013.012.023.026.036.038a.279.279,0,0,0,.017-.168" transform="translate(-119.825 -45.357)" fill="#dee6f3"/>
          <path id="Trazado_602186" data-name="Trazado 602186" d="M198.308,74.9h0c0,.02,0,.04-.006.06s.024.028.036.04a.417.417,0,0,0-.03-.1" transform="translate(-119.849 -45.266)" fill="#dee6f3"/>
          <path id="Trazado_602187" data-name="Trazado 602187" d="M196.5,281.494c.019-1.966.008-3.932.007-5.9,0-4.866.007-9.734,0-14.6,0-.892-.1-1.712-.866-2.086l-1.086.051c1.2.181,1.529.825,1.516,2.063-.077,7.454-.044,14.909-.047,22.364.03-.023.062-.042.093-.062a2.794,2.794,0,0,0,.387-1.832" transform="translate(-117.584 -156.48)" fill="#dee6f3"/>
          <path id="Trazado_602188" data-name="Trazado 602188" d="M198.36,320.629c-.032.019-.063.038-.094.061v.055c.036-.038.063-.078.094-.116" transform="translate(-119.828 -193.781)" fill="#dee6f3"/>
          <path id="Trazado_602189" data-name="Trazado 602189" d="M198.429,99.82a1.5,1.5,0,0,0,.21-.481,2.926,2.926,0,0,0,.081-.581c.062-7.24.032-14.48.013-21.72a1.892,1.892,0,0,0-.436-1.464.3.3,0,0,1-.036.068q0,12.1.01,24.192l.125.009c.01-.008.022-.014.032-.022" transform="translate(-119.825 -45.675)" fill="#dee6f3"/>
          <path id="Trazado_602190" data-name="Trazado 602190" d="M198.261,75.584a.3.3,0,0,0,.036-.068c-.013-.013-.022-.026-.036-.038v.106" transform="translate(-119.825 -45.617)" fill="#dee6f3"/>
          <path id="Trazado_602191" data-name="Trazado 602191" d="M162.036,201.522q-.007-9.407-.015-18.814a6.307,6.307,0,0,1-4.02-1.925q-7.5-7.51-15.01-15.014a3.206,3.206,0,0,1-.887-1.153,25.022,25.022,0,0,1-1.536,3.207c-3.8,9.032-2.937,17.492,3.239,25.207,4.013,5.013,9.393,7.637,15.7,8.461a9.557,9.557,0,0,1,1.337.21,2.276,2.276,0,0,1,1.039-.183c.05,0,.1,0,.15,0" transform="translate(-83.576 -99.49)" fill="#fe6c6c"/>
          <path id="Trazado_602192" data-name="Trazado 602192" d="M160.215,201.26a9.548,9.548,0,0,0-1.337-.21c-6.311-.825-11.691-3.448-15.7-8.461-6.176-7.716-7.043-16.176-3.239-25.208a25.152,25.152,0,0,0,1.537-3.207,1.45,1.45,0,0,1-.071-.289h0a24.022,24.022,0,0,0-3.888,17.037c1.718,11.45,10.751,19.676,22.4,20.608h0a.968.968,0,0,1,.3-.27" transform="translate(-82.945 -99.049)" fill="#fe6c6c"/>
          <path id="Trazado_602193" data-name="Trazado 602193" d="M147.937,164.319a3.2,3.2,0,0,0,.887,1.152q7.5,7.508,15.01,15.014a6.308,6.308,0,0,0,4.02,1.924V182.1h0a6.262,6.262,0,0,1-3.849-1.979c-5.324-5.356-10.692-10.668-16.044-15.995,0,.027.008.053.009.081s-.023.075-.033.114" transform="translate(-89.41 -99.193)" fill="#fe6c6c"/>
          <path id="Trazado_602194" data-name="Trazado 602194" d="M147.862,164.061c0-.028-.006-.054-.009-.081l-.095-.094a1.468,1.468,0,0,0,.071.289c.01-.038.024-.075.033-.114" transform="translate(-89.302 -99.049)" fill="#fe6c6c"/>
          <path id="Trazado_602195" data-name="Trazado 602195" d="M196.5,257.9c-.05,0-.1,0-.15,0a2.278,2.278,0,0,0-1.039.183c.04.011.08.019.12.031a2.1,2.1,0,0,1,.665.187l.4-.019q0-.19,0-.38" transform="translate(-118.044 -155.866)" fill="#fe6c6c"/>
          <path id="Trazado_602196" data-name="Trazado 602196" d="M194.975,258.388c-.04-.013-.08-.02-.12-.031a.968.968,0,0,0-.3.27l1.086-.052a2.1,2.1,0,0,0-.665-.187" transform="translate(-117.584 -156.145)" fill="#fe6c6c"/>
          <path id="Trazado_602197" data-name="Trazado 602197" d="M198.219,154.329c.11.108.218.218.328.326.9.905,1.845,1.771,2.7,2.718,1.34,1.485,2.249,3.154,1.517,5.223a4.929,4.929,0,0,1-4.3,3.431,3.271,3.271,0,0,1,.256,1.633q.018,7.8,0,15.6a3.516,3.516,0,0,1-.215,1.578c11.3.265,21.989-8.908,23.251-20.906A23.691,23.691,0,0,0,201.94,137.75c-1.216-.214-2.526.023-3.625-.738l-.041.028.011.027-.066,17.262" transform="translate(-119.799 -82.807)" fill="#e53950"/>
          <path id="Trazado_602198" data-name="Trazado 602198" d="M202.759,189.052c.732-2.07-.177-3.738-1.516-5.223-.855-.947-1.8-1.813-2.7-2.718l-.328-.326c0,.157,0,.315,0,.472h0c.851.887,1.684,1.793,2.559,2.657,1.373,1.355,2.259,2.861,1.681,4.877a4.6,4.6,0,0,1-4.213,3.377h0a1.619,1.619,0,0,1,.224.316,4.928,4.928,0,0,0,4.3-3.431" transform="translate(-119.796 -109.262)" fill="#e53950"/>
          <path id="Trazado_602199" data-name="Trazado 602199" d="M198.286,136.893h0l.029.074.041-.027c-.023-.016-.047-.03-.07-.047" transform="translate(-119.84 -82.735)" fill="#e53950"/>
          <path id="Trazado_602200" data-name="Trazado 602200" d="M202.281,184.911c9.541-1.869,16.067-7.4,18.945-16.606,2.822-9.023.726-17.24-5.848-24.111-4.587-4.794-10.42-6.907-16.948-7.279-.018.014-.037.025-.055.038,1.1.762,2.409.525,3.624.738a23.691,23.691,0,0,1,19.82,26.186c-1.262,12-11.953,21.171-23.251,20.907a1.592,1.592,0,0,1-.25.375,16.232,16.232,0,0,0,3.961-.248" transform="translate(-119.86 -82.748)" fill="#e53950"/>
          <path id="Trazado_602201" data-name="Trazado 602201" d="M198.411,136.9l-.125-.009c.023.017.047.03.07.047.019-.013.038-.024.056-.038" transform="translate(-119.84 -82.736)" fill="#e53950"/>
          <path id="Trazado_602202" data-name="Trazado 602202" d="M198.548,229.162a3.53,3.53,0,0,0,.214-1.578q.018-7.8,0-15.6a3.278,3.278,0,0,0-.256-1.633c-.025,0-.046.01-.071.013-.052,0-.1-.012-.152-.017q.007,9.407.014,18.815c.083,0,.167,0,.25,0" transform="translate(-119.838 -127.127)" fill="#e53950"/>
          <path id="Trazado_602203" data-name="Trazado 602203" d="M198.435,209.885c.025,0,.047-.009.071-.013a1.6,1.6,0,0,0-.224-.316v.312c.051,0,.1.013.153.017" transform="translate(-119.837 -126.652)" fill="#e53950"/>
          <path id="Trazado_602204" data-name="Trazado 602204" d="M198.319,258.28a1.587,1.587,0,0,0,.25-.375c-.083,0-.167,0-.25,0q0,.19,0,.38" transform="translate(-119.86 -155.869)" fill="#e53950"/>
          <path id="Trazado_602205" data-name="Trazado 602205" d="M166.308,140.825a3.632,3.632,0,0,1-1.139.528q6.377,6.413,12.8,12.782a5.237,5.237,0,0,1-.178-1.391c.007-4.558-.006-9.116.012-13.674a2.354,2.354,0,0,1,.507-1.926l-.044,0a5.166,5.166,0,0,1-2.358.55,25.953,25.953,0,0,0-9.6,3.135" transform="translate(-99.825 -82.884)" fill="#fe6c6c"/>
          <path id="Trazado_602206" data-name="Trazado 602206" d="M164.4,147.76a1.244,1.244,0,0,1-.5-.018l13.574,13.544a4.112,4.112,0,0,1-.272-.744q-6.436-6.356-12.8-12.781" transform="translate(-99.059 -89.292)" fill="#fe6c6c"/>
          <path id="Trazado_602207" data-name="Trazado 602207" d="M165.992,140.7a25.954,25.954,0,0,1,9.6-3.135,5.166,5.166,0,0,0,2.358-.55,6.281,6.281,0,0,0-1.266-.065,28.944,28.944,0,0,0-12.038,4.071l.207.207a3.632,3.632,0,0,0,1.139-.528" transform="translate(-99.509 -82.758)" fill="#fe6c6c"/>
          <path id="Trazado_602208" data-name="Trazado 602208" d="M164.4,147.472l-.206-.207c-.1.063-.2.123-.3.189a1.243,1.243,0,0,0,.5.018" transform="translate(-99.059 -89.004)" fill="#fe6c6c"/>
          <path id="Trazado_602209" data-name="Trazado 602209" d="M197.086,139.074c-.018,4.558-.005,9.116-.012,13.674a5.251,5.251,0,0,0,.178,1.391l.275.272q.033-8.631.066-17.263a2.355,2.355,0,0,0-.507,1.925" transform="translate(-119.107 -82.89)" fill="#fe6c6c"/>
          <path id="Trazado_602210" data-name="Trazado 602210" d="M197.8,180.368l-.275-.273a4.059,4.059,0,0,0,.273.744h0c0-.157,0-.315,0-.472" transform="translate(-119.38 -108.846)" fill="#fe6c6c"/>
        </g>
      </g>
    </g>
  </g>
</svg>
