<svg xmlns="http://www.w3.org/2000/svg" xmlns:xlink="http://www.w3.org/1999/xlink" width="86.453" height="121.816" viewBox="0 0 86.453 121.816">
  <defs>
    <clipPath id="clip-path">
      <rect id="Rectángulo_300836" data-name="Rectángulo 300836" width="50.286" height="50.341" fill="none"/>
    </clipPath>
  </defs>
  <g id="Grupo_886185" data-name="Grupo 886185" transform="translate(-1240.301 -23712)">
    <path id="Trazado_608267" data-name="Trazado 608267" d="M17.059,13.391a4.185,4.185,0,0,1-1.332,2.785,4.365,4.365,0,0,1-2.98.98,4.008,4.008,0,0,1-3.23-1.445A5.815,5.815,0,0,1,8.3,11.844V10.75a6.481,6.481,0,0,1,.566-2.789,4.231,4.231,0,0,1,1.605-1.848,4.47,4.47,0,0,1,2.406-.645A4.11,4.11,0,0,1,15.785,6.48a4.235,4.235,0,0,1,1.273,2.8H15.551A3.268,3.268,0,0,0,14.7,7.307,2.565,2.565,0,0,0,12.879,6.7a2.684,2.684,0,0,0-2.254,1.063,4.882,4.882,0,0,0-.816,3.026v1.1a5.018,5.018,0,0,0,.773,2.948,2.5,2.5,0,0,0,2.164,1.095,2.886,2.886,0,0,0,1.918-.566,3.143,3.143,0,0,0,.887-1.973Zm5.906-3.547a4.331,4.331,0,0,0-.711-.055A1.9,1.9,0,0,0,20.324,11v6H18.879V8.547h1.406l.023.977a2.251,2.251,0,0,1,2.016-1.133,1.477,1.477,0,0,1,.641.109Zm.789,2.852a4.993,4.993,0,0,1,.488-2.234A3.643,3.643,0,0,1,25.6,8.93a3.7,3.7,0,0,1,1.988-.539,3.565,3.565,0,0,1,2.793,1.2,4.6,4.6,0,0,1,1.066,3.18v.1a5.036,5.036,0,0,1-.473,2.215,3.589,3.589,0,0,1-1.352,1.527,3.743,3.743,0,0,1-2.02.547,3.556,3.556,0,0,1-2.785-1.2A4.575,4.575,0,0,1,23.754,12.8Zm1.453.172a3.616,3.616,0,0,0,.652,2.258,2.211,2.211,0,0,0,3.5-.012A3.955,3.955,0,0,0,30,12.7a3.61,3.61,0,0,0-.66-2.254,2.1,2.1,0,0,0-1.754-.863,2.075,2.075,0,0,0-1.727.852A3.925,3.925,0,0,0,25.207,12.867Zm9.422-4.32.047,1.063a3.08,3.08,0,0,1,2.531-1.219q2.68,0,2.7,3.023V17H38.465V11.406a1.946,1.946,0,0,0-.418-1.352,1.675,1.675,0,0,0-1.277-.437,2.086,2.086,0,0,0-1.234.375,2.546,2.546,0,0,0-.828.984V17H33.262V8.547ZM41.707,12.7a4.993,4.993,0,0,1,.488-2.234A3.643,3.643,0,0,1,43.555,8.93a3.7,3.7,0,0,1,1.988-.539,3.565,3.565,0,0,1,2.793,1.2,4.6,4.6,0,0,1,1.066,3.18v.1a5.036,5.036,0,0,1-.473,2.215,3.589,3.589,0,0,1-1.352,1.527,3.743,3.743,0,0,1-2.02.547,3.556,3.556,0,0,1-2.785-1.2A4.575,4.575,0,0,1,41.707,12.8Zm1.453.172a3.616,3.616,0,0,0,.652,2.258,2.211,2.211,0,0,0,3.5-.012,3.955,3.955,0,0,0,.648-2.418,3.61,3.61,0,0,0-.66-2.254,2.1,2.1,0,0,0-1.754-.863,2.075,2.075,0,0,0-1.727.852A3.925,3.925,0,0,0,43.16,12.867Zm7.711-.164a4.968,4.968,0,0,1,.914-3.145,3.151,3.151,0,0,1,4.836-.074l.07-.937h1.32V16.8a3.439,3.439,0,0,1-.973,2.586,3.589,3.589,0,0,1-2.613.945,4.348,4.348,0,0,1-1.789-.391,3.08,3.08,0,0,1-1.336-1.07l.75-.867a2.826,2.826,0,0,0,2.273,1.148,2.214,2.214,0,0,0,1.645-.594,2.269,2.269,0,0,0,.59-1.672v-.727a2.971,2.971,0,0,1-2.367,1,2.887,2.887,0,0,1-2.4-1.2A5.224,5.224,0,0,1,50.871,12.7Zm1.453.164a3.79,3.79,0,0,0,.586,2.246,1.9,1.9,0,0,0,1.641.816,2.117,2.117,0,0,0,2.008-1.242V10.828a2.142,2.142,0,0,0-1.992-1.211,1.921,1.921,0,0,0-1.648.82A4.128,4.128,0,0,0,52.324,12.867ZM64.277,9.844a4.331,4.331,0,0,0-.711-.055A1.9,1.9,0,0,0,61.637,11v6H60.191V8.547H61.6l.023.977a2.251,2.251,0,0,1,2.016-1.133,1.477,1.477,0,0,1,.641.109ZM70.512,17a3.036,3.036,0,0,1-.2-.891A3.225,3.225,0,0,1,67.9,17.156a2.984,2.984,0,0,1-2.051-.707,2.288,2.288,0,0,1-.8-1.793,2.39,2.39,0,0,1,1-2.051,4.733,4.733,0,0,1,2.824-.73h1.406v-.664A1.623,1.623,0,0,0,69.832,10,1.821,1.821,0,0,0,68.5,9.555a2.108,2.108,0,0,0-1.3.391,1.151,1.151,0,0,0-.523.945H65.223a2,2,0,0,1,.449-1.223,3.066,3.066,0,0,1,1.219-.934,4.1,4.1,0,0,1,1.691-.344,3.342,3.342,0,0,1,2.289.73,2.635,2.635,0,0,1,.859,2.012v3.891a4.757,4.757,0,0,0,.3,1.852V17Zm-2.4-1.1a2.54,2.54,0,0,0,1.289-.352,2.127,2.127,0,0,0,.883-.914V12.9H69.152q-2.656,0-2.656,1.555a1.316,1.316,0,0,0,.453,1.063A1.742,1.742,0,0,0,68.113,15.9Zm7.242-7.352.039.938A3.122,3.122,0,0,1,77.9,8.391,2.417,2.417,0,0,1,80.316,9.75a3.2,3.2,0,0,1,1.1-.984,3.242,3.242,0,0,1,1.6-.375q2.781,0,2.828,2.945V17H84.395V11.422a1.941,1.941,0,0,0-.414-1.355,1.823,1.823,0,0,0-1.391-.449,1.916,1.916,0,0,0-1.336.48,1.949,1.949,0,0,0-.617,1.293V17H79.184V11.461a1.613,1.613,0,0,0-1.8-1.844,1.934,1.934,0,0,0-1.945,1.211V17H73.988V8.547ZM93.238,17a3.036,3.036,0,0,1-.2-.891,3.225,3.225,0,0,1-2.406,1.047,2.984,2.984,0,0,1-2.051-.707,2.288,2.288,0,0,1-.8-1.793,2.39,2.39,0,0,1,1-2.051,4.733,4.733,0,0,1,2.824-.73h1.406v-.664A1.623,1.623,0,0,0,92.559,10a1.821,1.821,0,0,0-1.336-.449,2.108,2.108,0,0,0-1.3.391,1.151,1.151,0,0,0-.523.945H87.949A2,2,0,0,1,88.4,9.668a3.066,3.066,0,0,1,1.219-.934,4.1,4.1,0,0,1,1.691-.344,3.342,3.342,0,0,1,2.289.73,2.635,2.635,0,0,1,.859,2.012v3.891a4.757,4.757,0,0,0,.3,1.852V17Zm-2.4-1.1a2.54,2.54,0,0,0,1.289-.352,2.127,2.127,0,0,0,.883-.914V12.9H91.879q-2.656,0-2.656,1.555a1.316,1.316,0,0,0,.453,1.063A1.742,1.742,0,0,0,90.84,15.9Z" transform="translate(1232 23813.488)" fill="#12263f"/>
    <g id="Grupo_886178" data-name="Grupo 886178" transform="translate(-25)">
      <g id="Elipse_6631" data-name="Elipse 6631" transform="translate(1266 23712)" fill="#fff" stroke="#72e0fa" stroke-width="1">
        <circle cx="42.5" cy="42.5" r="42.5" stroke="none"/>
        <circle cx="42.5" cy="42.5" r="42" fill="none"/>
      </g>
      <g id="Grupo_886175" data-name="Grupo 886175" transform="translate(1284 23729)">
        <g id="Grupo_886174" data-name="Grupo 886174" clip-path="url(#clip-path)">
          <path id="Trazado_602480" data-name="Trazado 602480" d="M4.1,151.053q14.7.017,29.4.006l9.424,0c.143-.194.382-.16.572-.241a4.153,4.153,0,0,0,2.75-3.926c.038-5.1.013-10.207.011-15.311,0-.158.047-.332-.1-.461a2.981,2.981,0,0,1-2.543,1.206q-18.7-.02-37.4.008a2.865,2.865,0,0,1-2.9-2.261,2.8,2.8,0,0,1,2.631-3.265c.163-.006.327,0,.491,0q18.505,0,37.011-.009a3.153,3.153,0,0,1,2.787,1.371l.015,0q0-2.244.005-4.489c0-.143.034-.3-.1-.412a3.006,3.006,0,0,1-2.589,1.21c-3.895-.035-7.79-.01-11.686-.017a2.652,2.652,0,0,1-2.541-1.739,2.746,2.746,0,0,1,.7-3.012,2.83,2.83,0,0,1,1.968-.754q5.843-.006,11.686,0a2.99,2.99,0,0,1,2.545,1.367l.014-.006.015-4.233a.375.375,0,0,0-.014-.067h0l-27.5,0H.637c-.212,0-.425-.012-.637-.018v31.629A6.3,6.3,0,0,0,1.02,149.6a4.015,4.015,0,0,0,3.08,1.454m19.844-30.069c.769-.015,1.538-.016,2.306,0a.736.736,0,0,1,.739.754.755.755,0,0,1-.768.733c-.376.014-.752,0-1.129,0s-.753.01-1.129,0a.746.746,0,0,1-.784-.762.731.731,0,0,1,.764-.728m-8.683,0c.032,0,.065,0,.1,0h1.077v0c.375,0,.751-.014,1.126,0a.7.7,0,0,1,.737.741.715.715,0,0,1-.736.747c-.767.015-1.534.016-2.3,0a.745.745,0,0,1,0-1.49m-8.514,0q1.125-.024,2.252,0a.7.7,0,0,1,.754.723.723.723,0,0,1-.767.767c-.375.012-.751,0-1.126,0-.359,0-.718.008-1.077,0a.732.732,0,0,1-.8-.731.705.705,0,0,1,.768-.76m2.213,25.063c-.375.013-.751,0-1.126,0-.359,0-.719.012-1.077,0a.732.732,0,0,1-.777-.762.707.707,0,0,1,.793-.735q1.1-.019,2.2,0a.7.7,0,0,1,.778.748.741.741,0,0,1-.794.749m8.661-.01c-.8.028-1.6.028-2.4,0a.715.715,0,0,1-.7-.785.7.7,0,0,1,.725-.7c.391-.018.783,0,1.175,0s.784-.017,1.175,0a.691.691,0,0,1,.7.726.712.712,0,0,1-.678.757m23.664-9.342q1.126-.025,2.252,0a.705.705,0,0,1,.767.761.739.739,0,0,1-.8.735c-.359.011-.718,0-1.077,0-.375,0-.751.012-1.126,0a.73.73,0,0,1-.767-.772.7.7,0,0,1,.754-.722m-.009,7.856c.391-.016.783,0,1.175,0,.376,0,.752-.014,1.126,0a.7.7,0,0,1,.727.7.716.716,0,0,1-.7.786c-.783.027-1.567.025-2.35,0a.722.722,0,0,1-.726-.763.7.7,0,0,1,.746-.729m-8.672-7.855c.768-.016,1.537-.018,2.305,0a.729.729,0,0,1,.74.751.756.756,0,0,1-.761.739c-.375.017-.752,0-1.128,0s-.752.011-1.128,0a.77.77,0,0,1-.793-.764.739.739,0,0,1,.765-.73m-.021,7.853c.033,0,.065,0,.1,0h1.079v0c.376,0,.753-.013,1.128,0a.746.746,0,1,1,.021,1.491c-.784.021-1.57.022-2.354,0a.746.746,0,0,1,.028-1.491M23.9,136.7c.391-.022.785,0,1.177,0s.786-.016,1.177,0a.737.737,0,0,1,.734.71.756.756,0,0,1-.727.776q-1.177.032-2.354,0a.739.739,0,0,1-.728-.768.729.729,0,0,1,.722-.719m.064,7.852c.752-.014,1.5-.015,2.257,0a.739.739,0,0,1,.767.728.786.786,0,0,1-.792.77c-.033,0-.065,0-.1,0H25.07c-.36,0-.72.01-1.079,0a.769.769,0,0,1-.811-.743.738.738,0,0,1,.786-.754M5.99,134.668q5.99-.031,11.981,0a2.776,2.776,0,0,1,2.738,2.522,2.825,2.825,0,0,1-2.019,2.905,2.854,2.854,0,0,1-.827.074q-2.946.006-5.893,0c-1.981,0-3.962-.037-5.941.013a2.758,2.758,0,0,1-.04-5.515" transform="translate(0 -100.768)" fill="#e0f2fe"/>
          <path id="Trazado_602481" data-name="Trazado 602481" d="M.989,41.59q22.16,0,44.32,0a1.936,1.936,0,0,1,.916.108c.01.007.017.016.027.024,0-2.347.034-4.7,0-7.042a4.186,4.186,0,0,0-2.815-3.858c-.149-.047-.332-.054-.408-.235l-.394,0h0c0,1,0,1.995,0,2.993A1.76,1.76,0,0,1,40.9,35.452a1.805,1.805,0,0,1-1.788-1.834c-.027-1.013-.019-2.027-.026-3.04H11.2c-.007,1,0,1.993-.024,2.99a1.775,1.775,0,0,1-2.221,1.81A1.705,1.705,0,0,1,7.662,33.73c-.013-1.046-.008-2.092-.011-3.138a30.345,30.345,0,0,0-4.155.075,4.075,4.075,0,0,0-3.4,3.225A1.225,1.225,0,0,1,0,34.109V41.77A.727.727,0,0,1,.5,41.6c.163-.008.327-.007.491-.007" transform="translate(0 -26.545)" fill="#fd75a6"/>
          <path id="Trazado_602482" data-name="Trazado 602482" d="M18.755,114.8l27.5,0c0-.02,0-.041,0-.061a.353.353,0,0,0-.027-.024,1.934,1.934,0,0,0-.916-.108q-22.16,0-44.32,0c-.164,0-.327,0-.491.007a.727.727,0,0,0-.5.173c.212.006.425.018.637.018H18.755" transform="translate(0 -99.555)" fill="#fd75a6"/>
          <path id="Trazado_602483" data-name="Trazado 602483" d="M3.979,360.446q5.3-.006,10.6,0,14.153,0,28.306,0c.078-.013.155-.03.232-.047h-.189l-9.424,0q-14.7,0-29.4-.006a4.015,4.015,0,0,1-3.08-1.454A6.3,6.3,0,0,1,0,356.959a5.9,5.9,0,0,0,.273,1.134,3.909,3.909,0,0,0,3.706,2.354" transform="translate(0 -310.106)" fill="#fefefe"/>
          <path id="Trazado_602484" data-name="Trazado 602484" d="M324.794,29.978l.394,0h.239l-.239-.1a.47.47,0,0,0-.393.04C324.794,29.94,324.794,29.959,324.794,29.978Z" transform="translate(-282.162 -25.938)" fill="#fefefe"/>
          <path id="Trazado_602485" data-name="Trazado 602485" d="M59.526.383a1.646,1.646,0,0,0-.8,1.516c.011.52.008,1.04,0,1.56a.757.757,0,0,1-.121.546,1.05,1.05,0,0,1,.125.661c.006.769-.008,1.538.005,2.308a1.593,1.593,0,0,0,1.541,1.747,1.652,1.652,0,0,0,1.657-1.659c.057-.8.006-1.6.023-2.405a.891.891,0,0,1,.136-.646.686.686,0,0,1-.132-.521c-.01-.455,0-.909-.006-1.364a1.962,1.962,0,0,0-.89-1.789C60.941.263,60.8.184,60.828,0h-.982c.019.231-.177.292-.319.383" transform="translate(-50.908)" fill="#e0f2fe"/>
          <path id="Trazado_602486" data-name="Trazado 602486" d="M61.683,31.169c-.017.8.035,1.605-.023,2.405A1.652,1.652,0,0,1,60,35.233a1.593,1.593,0,0,1-1.541-1.747c-.013-.769,0-1.538-.005-2.308a1.05,1.05,0,0,0-.125-.661.424.424,0,0,1-.04.041c0,1.046,0,2.092.011,3.138a1.706,1.706,0,0,0,1.291,1.648,1.775,1.775,0,0,0,2.221-1.81c.02-1,.017-1.993.024-2.99-.008-.007-.014-.015-.021-.022a.891.891,0,0,0-.136.646" transform="translate(-50.641 -26.512)" fill="#e0f2fe"/>
          <path id="Trazado_602487" data-name="Trazado 602487" d="M75.78.336a1.963,1.963,0,0,1,.89,1.789c.007.455,0,.909.005,1.364a.687.687,0,0,0,.132.521c.006-.006.014-.011.02-.017,0-.494-.028-.99,0-1.482A2.339,2.339,0,0,0,75.549,0c-.029.184.113.263.23.336" transform="translate(-65.63)" fill="#e0f2fe"/>
          <path id="Trazado_602488" data-name="Trazado 602488" d="M85.161,30.441c.007.007.013.015.021.022,0-.013,0-.026,0-.039-.006.006-.014.011-.02.017" transform="translate(-73.983 -26.431)" fill="#e0f2fe"/>
          <path id="Trazado_602489" data-name="Trazado 602489" d="M58.3,1.938c.026.679,0,1.36,0,2.041.013.009.026.016.039.026h0a.757.757,0,0,0,.121-.546c.009-.52.012-1.04,0-1.56a1.646,1.646,0,0,1,.8-1.516c.142-.091.338-.152.319-.383a1.235,1.235,0,0,1-.194.142,1.743,1.743,0,0,0-1.089,1.8" transform="translate(-50.646)" fill="#e0f2fe"/>
          <path id="Trazado_602490" data-name="Trazado 602490" d="M58.332,30.339c-.013-.01-.026-.017-.039-.026,0,.023,0,.045,0,.068a.439.439,0,0,0,.04-.041h0" transform="translate(-50.641 -26.334)" fill="#e0f2fe"/>
          <path id="Trazado_602491" data-name="Trazado 602491" d="M298.977.336a1.963,1.963,0,0,0-.89,1.789c-.007.455,0,.909-.005,1.364a.687.687,0,0,1-.132.52.789.789,0,0,1,.135.572c.013.751,0,1.5.008,2.254a2.009,2.009,0,0,0,.4,1.284,1.549,1.549,0,0,0,1.716.516,1.519,1.519,0,0,0,1.082-1.428c.046-.832.007-1.666.018-2.5a1.108,1.108,0,0,1,.13-.7.754.754,0,0,1-.126-.554c-.009-.519-.012-1.039,0-1.558a1.644,1.644,0,0,0-.8-1.512c-.142-.091-.338-.151-.319-.382h-.982c.029.184-.113.263-.23.336" transform="translate(-258.842)" fill="#e0f2fe"/>
          <path id="Trazado_602492" data-name="Trazado 602492" d="M301.172,31.227c-.011.833.028,1.667-.018,2.5a1.519,1.519,0,0,1-1.082,1.428,1.55,1.55,0,0,1-1.716-.516,2.009,2.009,0,0,1-.4-1.284c-.012-.751,0-1.5-.008-2.254a.789.789,0,0,0-.135-.572c-.007.007-.013.015-.021.022.007,1.014,0,2.027.026,3.04a1.806,1.806,0,0,0,1.788,1.834,1.76,1.76,0,0,0,1.726-1.874c.005-1,0-1.995,0-2.993a.411.411,0,0,1-.033-.034,1.108,1.108,0,0,0-.13.7" transform="translate(-258.703 -26.516)" fill="#e0f2fe"/>
          <path id="Trazado_602493" data-name="Trazado 602493" d="M297.764,1.825c-.028.72-.01,1.442-.01,2.163.008.007.014.015.021.022a.687.687,0,0,0,.132-.521c.009-.455,0-.909.005-1.364A1.963,1.963,0,0,1,298.8.336c.118-.074.26-.152.23-.336a2.1,2.1,0,0,0-1.269,1.825" transform="translate(-258.666)" fill="#e0f2fe"/>
          <path id="Trazado_602494" data-name="Trazado 602494" d="M297.789,30.382c0,.015,0,.03,0,.044.008-.007.014-.015.021-.022s-.013-.015-.021-.022" transform="translate(-258.702 -26.394)" fill="#e0f2fe"/>
          <path id="Trazado_602495" data-name="Trazado 602495" d="M315.327.382a1.643,1.643,0,0,1,.8,1.512c-.01.519-.008,1.038,0,1.557a.754.754,0,0,0,.126.554l0,0,.03-.02c0-.765,0-1.529-.007-2.294A1.628,1.628,0,0,0,315.42.255L315.009,0c-.019.231.177.291.319.382" transform="translate(-273.66)" fill="#e0f2fe"/>
          <path id="Trazado_602496" data-name="Trazado 602496" d="M324.547,30.369a.439.439,0,0,0,.033.034c0-.019,0-.038,0-.057-.01.006-.02.012-.03.02l0,0" transform="translate(-281.948 -26.363)" fill="#e0f2fe"/>
          <path id="Trazado_602497" data-name="Trazado 602497" d="M68.589,200.563a3,3,0,0,0-2.381-.951q-18.53,0-37.06,0a2.672,2.672,0,0,0-2.905,2.293,2.556,2.556,0,0,0,2.274,2.851c.261.015.523.008.785.008q18.334,0,36.667.011a3.308,3.308,0,0,0,2.719-.954.37.37,0,0,1,.217-.106.317.317,0,0,1,.044.009,3.088,3.088,0,0,0,.078-2.9h0l-.015-.021c-.205.052-.314-.127-.422-.246M31.822,202.97q-1.174.031-2.349,0a.714.714,0,0,1-.719-.764.7.7,0,0,1,.754-.723c.391-.015.783,0,1.175,0,.375,0,.751-.014,1.126,0a.694.694,0,0,1,.718.708.715.715,0,0,1-.7.778m8.49.007c-.033,0-.065,0-.1,0H39.186c-.375,0-.751.012-1.126,0a.729.729,0,0,1-.761-.725.7.7,0,0,1,.761-.764c.75-.015,1.5-.014,2.252,0a.7.7,0,0,1,.76.715.734.734,0,0,1-.76.778m8.7,0c-.033,0-.065,0-.1,0H47.839c-.376,0-.753.012-1.128,0a.749.749,0,0,1-.756-.742.729.729,0,0,1,.744-.746q1.153-.025,2.306,0a.736.736,0,0,1,.76.733.769.769,0,0,1-.748.759m8.652,0q-1.153.024-2.306,0a.744.744,0,1,1,.012-1.488c.392-.015.785,0,1.177,0,.376,0,.753-.013,1.128,0a.735.735,0,0,1,.744.747.745.745,0,0,1-.756.741m8.668,0c-.391.018-.783,0-1.175,0-.375,0-.751.014-1.126,0a.722.722,0,0,1-.728-.757.687.687,0,0,1,.741-.731c.767-.015,1.534-.017,2.3,0a.692.692,0,0,1,.731.744.723.723,0,0,1-.744.743" transform="translate(-22.774 -173.411)" fill="#cfed7f"/>
          <path id="Trazado_602498" data-name="Trazado 602498" d="M67.809,202.574a.37.37,0,0,0-.217.106,3.308,3.308,0,0,1-2.719.954q-18.334-.025-36.667-.011c-.262,0-.524.007-.785-.008a2.556,2.556,0,0,1-2.274-2.851,2.672,2.672,0,0,1,2.905-2.293q18.53-.006,37.06,0a3,3,0,0,1,2.381.951c.108.12.217.3.422.246a3.153,3.153,0,0,0-2.787-1.371q-18.505.021-37.011.009c-.164,0-.327,0-.491,0a2.8,2.8,0,0,0-2.631,3.265,2.866,2.866,0,0,0,2.9,2.261q18.7-.047,37.4-.008a2.981,2.981,0,0,0,2.543-1.206l.016-.031a.321.321,0,0,0-.044-.009" transform="translate(-21.677 -172.265)" fill="#cfed7f"/>
          <path id="Trazado_602499" data-name="Trazado 602499" d="M334.687,128.631a.409.409,0,0,1,.234.234,2.909,2.909,0,0,1-.1,2.523.346.346,0,0,1-.174.152c.142.052.166.2.193.335a2.24,2.24,0,0,1,.024.44q0,7.4,0,14.808a4.419,4.419,0,0,1-1.495,3.444,3.987,3.987,0,0,1-1.349.8,4.855,4.855,0,0,1,.552-.035c.638,0,1.276,0,1.914,0a3.948,3.948,0,0,0,4.065-4.066q.01-10.873,0-21.746,0-4.172,0-8.345a3.351,3.351,0,0,1,.021-.587c0-.027,0-.055,0-.082l-3.779.014a3.13,3.13,0,0,1,.078,1.066q.009,1.252,0,2.5a1.176,1.176,0,0,1-.109.62.4.4,0,0,1-.073.043v.025a3.081,3.081,0,0,1-.078,2.9.42.42,0,0,1,.049,0,.622.622,0,0,1,.206.575c.012,1.276.01,2.551,0,3.827a.792.792,0,0,1-.133.512.334.334,0,0,1-.045.014v.026Z" transform="translate(-288.435 -101.212)" fill="#cbeafe"/>
          <path id="Trazado_602500" data-name="Trazado 602500" d="M327.676,250.878a3.987,3.987,0,0,0,1.349-.8,4.419,4.419,0,0,0,1.495-3.444q.015-7.4,0-14.808a2.24,2.24,0,0,0-.024-.44c-.027-.138-.051-.283-.193-.335l-.051.022c.145.13.1.3.1.461,0,5.1.026,10.207-.011,15.311a4.153,4.153,0,0,1-2.75,3.926c-.191.08-.429.046-.572.241a3.8,3.8,0,0,1,.655-.134" transform="translate(-284.097 -200.724)" fill="#cbeafe"/>
          <path id="Trazado_602501" data-name="Trazado 602501" d="M352.552,120.178q.007-1.252,0-2.5a3.129,3.129,0,0,0-.078-1.066h-.088l-.015,4.233a.4.4,0,0,0,.073-.043,1.176,1.176,0,0,0,.109-.62" transform="translate(-306.12 -101.302)" fill="#cbeafe"/>
          <path id="Trazado_602502" data-name="Trazado 602502" d="M351.941,175.551q.014-1.913,0-3.827a.623.623,0,0,0-.206-.575.415.415,0,0,0-.049,0l-.014.028c.133.113.1.269.1.412q0,2.244-.005,4.489a.354.354,0,0,0,.045-.014.791.791,0,0,0,.133-.512" transform="translate(-305.511 -148.684)" fill="#cbeafe"/>
          <path id="Trazado_602503" data-name="Trazado 602503" d="M335.484,116.584a3.361,3.361,0,0,0-.021.587q0,4.173,0,8.345,0,10.873,0,21.746a3.949,3.949,0,0,1-4.065,4.066c-.638,0-1.276,0-1.914,0a4.888,4.888,0,0,0-.552.035,4.136,4.136,0,0,1-.466.134q1.548,0,3.1,0a4.13,4.13,0,0,0,4.076-4.1q0-15.157,0-30.315c0-.2-.011-.392-.016-.588h-.135c0,.027,0,.055,0,.082" transform="translate(-285.35 -101.209)" fill="#cbeafe"/>
          <path id="Trazado_602504" data-name="Trazado 602504" d="M327.021,382.241h.189a4.123,4.123,0,0,0,.466-.134,3.792,3.792,0,0,0-.655.134" transform="translate(-284.097 -331.953)" fill="#cbeafe"/>
          <path id="Trazado_602505" data-name="Trazado 602505" d="M352,211.652a2.909,2.909,0,0,0,.1-2.523.409.409,0,0,0-.234-.234,3.089,3.089,0,0,1-.078,2.9.321.321,0,0,1,.035.009.345.345,0,0,0,.174-.152" transform="translate(-305.615 -181.477)" fill="#cbeafe"/>
          <path id="Trazado_602506" data-name="Trazado 602506" d="M351.684,230.983l-.016.031.051-.023a.321.321,0,0,0-.035-.009" transform="translate(-305.509 -200.665)" fill="#cbeafe"/>
          <path id="Trazado_602507" data-name="Trazado 602507" d="M27.607,263.687c1.979-.05,3.961-.013,5.941-.013q2.946,0,5.892,0a2.856,2.856,0,0,0,.827-.074,2.825,2.825,0,0,0,2.019-2.905,2.776,2.776,0,0,0-2.738-2.522q-5.99-.027-11.981,0a2.758,2.758,0,0,0,.04,5.515M36.84,260.2q1.15-.029,2.3,0a.691.691,0,0,1,.735.74.725.725,0,0,1-.737.751c-.391.018-.783,0-1.175,0-.375,0-.752.015-1.126,0a.727.727,0,0,1-.736-.752.694.694,0,0,1,.738-.739m-8.556,0q1.174-.029,2.349,0a.683.683,0,0,1,.7.727.718.718,0,0,1-.679.755c-.406.028-.815.006-1.223.006v0c-.375,0-.751.014-1.126,0a.726.726,0,0,1-.745-.742.692.692,0,0,1,.727-.748" transform="translate(-21.577 -224.272)" fill="#cfed7f"/>
          <path id="Trazado_602508" data-name="Trazado 602508" d="M239.955,140.673a2.959,2.959,0,0,0-2.363-.992q-5.62,0-11.24,0a2.714,2.714,0,0,0-2.566,1.333,2.536,2.536,0,0,0,2.184,3.833c4.024.018,8.049,0,12.074.009a2.456,2.456,0,0,0,1.723-.708c.146-.134.261-.333.488-.34a.7.7,0,0,1,.075-.485,3,3,0,0,0,.033-2c-.045-.136-.109-.276-.006-.416l-.014-.018c-.184.073-.291-.107-.389-.219m-10.947,2.381c-.033,0-.065,0-.1,0h-1.08c-.376,0-.753.012-1.129,0a.753.753,0,0,1-.754-.747.739.739,0,0,1,.753-.741q1.153-.024,2.306,0a.731.731,0,0,1,.751.741.755.755,0,0,1-.749.75m8.688-.006q-1.174.028-2.349,0a.708.708,0,0,1-.708-.723.7.7,0,0,1,.715-.761c.407-.021.816,0,1.223,0,.375,0,.752-.017,1.126,0a.7.7,0,0,1,.709.766.711.711,0,0,1-.716.717" transform="translate(-194.106 -121.347)" fill="#cfed7f"/>
          <path id="Trazado_602509" data-name="Trazado 602509" d="M239.129,142.775c-.227.007-.341.206-.488.34a2.454,2.454,0,0,1-1.723.708c-4.025-.007-8.049.009-12.074-.009a2.536,2.536,0,0,1-2.184-3.833,2.714,2.714,0,0,1,2.566-1.333q5.62-.007,11.24,0a2.959,2.959,0,0,1,2.363.992c.1.112.2.292.389.219a2.991,2.991,0,0,0-2.545-1.367q-5.843,0-11.686,0a2.831,2.831,0,0,0-1.968.754,2.746,2.746,0,0,0-.7,3.012A2.652,2.652,0,0,0,224.864,144c3.9.006,7.791-.017,11.686.017a3.005,3.005,0,0,0,2.589-1.21c0-.01-.007-.019-.01-.029" transform="translate(-192.98 -120.311)" fill="#cfed7f"/>
          <path id="Trazado_602510" data-name="Trazado 602510" d="M351.552,149.46a3,3,0,0,1-.033,2,.7.7,0,0,0-.075.485h.024a3.081,3.081,0,0,0,.078-2.9c-.1.14-.039.28.006.416" transform="translate(-305.295 -129.481)" fill="#cfed7f"/>
          <path id="Trazado_602511" data-name="Trazado 602511" d="M351.593,171.142c0,.01.006.019.01.029l.014-.028h-.025" transform="translate(-305.444 -148.678)" fill="#cfed7f"/>
          <path id="Trazado_602512" data-name="Trazado 602512" d="M334.717,35.825c.026,2.136.01,4.273.005,6.41a.738.738,0,0,1-.133.557.386.386,0,0,1,.042.054.78.78,0,0,1,.445-.107c1.013-.01,2.026-.011,3.039,0a.855.855,0,0,1,.324.055c-.023-2.282,0-4.565-.01-6.848a4.01,4.01,0,0,0-4.173-4.17c-.638,0-1.275,0-1.913,0a4.507,4.507,0,0,1-.477-.022,4.325,4.325,0,0,1,1.455.884,4.467,4.467,0,0,1,1.4,3.187" transform="translate(-288.305 -27.586)" fill="#fd5994"/>
          <path id="Trazado_602513" data-name="Trazado 602513" d="M352.447,115.9a.385.385,0,0,0-.042-.053c-.011.011-.02.022-.032.033a.372.372,0,0,1,.014.067.509.509,0,0,1,.059-.046" transform="translate(-306.121 -100.644)" fill="#fd5994"/>
          <path id="Trazado_602514" data-name="Trazado 602514" d="M331.185,41.412c0-2.137.021-4.274-.005-6.41a4.468,4.468,0,0,0-1.4-3.187,4.323,4.323,0,0,0-1.455-.884,2.051,2.051,0,0,1-.534-.125c.076.181.26.187.408.235a4.185,4.185,0,0,1,2.815,3.858c.037,2.347.006,4.695,0,7.042a.361.361,0,0,1,.032.028.738.738,0,0,0,.133-.557" transform="translate(-284.769 -26.762)" fill="#fd5994"/>
          <path id="Trazado_602515" data-name="Trazado 602515" d="M352.372,115.636c0,.02,0,.041,0,.061h0c.012-.011.021-.022.032-.033a.4.4,0,0,0-.032-.028" transform="translate(-306.121 -100.458)" fill="#fd5994"/>
          <path id="Trazado_602516" data-name="Trazado 602516" d="M330.385,30.706c.638,0,1.275,0,1.913,0a4.01,4.01,0,0,1,4.173,4.17c.006,2.283-.013,4.565.01,6.848a.5.5,0,0,1,.136.083c.006-2.4.016-4.8.015-7.2a4.117,4.117,0,0,0-3.3-3.958,21.2,21.2,0,0,0-3.717-.088l.3.124a4.543,4.543,0,0,0,.477.022" transform="translate(-286.348 -26.516)" fill="#fd5994"/>
          <path id="Trazado_602517" data-name="Trazado 602517" d="M327.794,30.806a2.051,2.051,0,0,0,.534.125l-.3-.124h-.239" transform="translate(-284.769 -26.762)" fill="#fd5994"/>
          <path id="Trazado_602518" data-name="Trazado 602518" d="M353.38,115.39a.78.78,0,0,0-.445.107.373.373,0,0,1,.028.041v0l3.779-.014c0-.028,0-.056,0-.083a.856.856,0,0,0-.324-.055c-1.013-.012-2.026-.011-3.039,0" transform="translate(-306.61 -100.238)" fill="#fd5994"/>
          <path id="Trazado_602519" data-name="Trazado 602519" d="M352.57,116.3a.432.432,0,0,0-.028-.041.513.513,0,0,0-.059.046h.088v0" transform="translate(-306.217 -100.997)" fill="#fd5994"/>
          <path id="Trazado_602520" data-name="Trazado 602520" d="M381.948,115.952h.135a.5.5,0,0,0-.136-.083c0,.028,0,.056,0,.083" transform="translate(-331.814 -100.66)" fill="#fd5994"/>
          <path id="Trazado_602521" data-name="Trazado 602521" d="M243.293,334.994c.784.024,1.57.023,2.354,0a.746.746,0,1,0-.021-1.491c-.375-.016-.752,0-1.128,0v0h-1.079c-.033,0-.066,0-.1,0a.746.746,0,0,0-.028,1.491" transform="translate(-210.737 -289.723)" fill="#6b46ce"/>
          <path id="Trazado_602522" data-name="Trazado 602522" d="M177.408,334.983c.359.012.719,0,1.079,0h1.03c.033,0,.066,0,.1,0a.786.786,0,0,0,.792-.77.739.739,0,0,0-.767-.728c-.752-.016-1.5-.015-2.257,0a.738.738,0,0,0-.786.754.769.769,0,0,0,.811.743" transform="translate(-153.417 -289.704)" fill="#6b46ce"/>
          <path id="Trazado_602523" data-name="Trazado 602523" d="M177.384,155.432c.376.013.752,0,1.129,0s.753.011,1.129,0a.755.755,0,0,0,.768-.733.735.735,0,0,0-.739-.754c-.768-.018-1.538-.018-2.306,0a.732.732,0,0,0-.764.728.746.746,0,0,0,.784.762" transform="translate(-153.42 -133.726)" fill="#6b46ce"/>
          <path id="Trazado_602524" data-name="Trazado 602524" d="M243.376,275.122c.376.014.752,0,1.128,0s.753.013,1.128,0a.756.756,0,0,0,.761-.739.729.729,0,0,0-.74-.751c-.768-.02-1.537-.019-2.305,0a.739.739,0,0,0-.765.73.77.77,0,0,0,.793.764" transform="translate(-210.742 -237.702)" fill="#6b46ce"/>
          <path id="Trazado_602525" data-name="Trazado 602525" d="M177.329,275.146q1.177.03,2.354,0a.756.756,0,0,0,.727-.776.738.738,0,0,0-.734-.711c-.392-.02-.785,0-1.177,0s-.786-.017-1.177,0a.729.729,0,0,0-.722.719.739.739,0,0,0,.728.768" transform="translate(-153.42 -237.73)" fill="#6b46ce"/>
          <path id="Trazado_602526" data-name="Trazado 602526" d="M309.52,335c.783.021,1.568.023,2.35,0a.716.716,0,0,0,.7-.786.7.7,0,0,0-.727-.7c-.375-.018-.751,0-1.126,0-.392,0-.784-.013-1.175,0a.7.7,0,0,0-.746.729.722.722,0,0,0,.726.763" transform="translate(-268.262 -289.725)" fill="#6b46ce"/>
          <path id="Trazado_602527" data-name="Trazado 602527" d="M309.563,275.117c.375.016.751,0,1.126,0,.359,0,.719.009,1.077,0a.739.739,0,0,0,.8-.735.705.705,0,0,0-.767-.761q-1.126-.025-2.252,0a.7.7,0,0,0-.754.721.73.73,0,0,0,.767.772" transform="translate(-268.264 -237.697)" fill="#6b46ce"/>
          <path id="Trazado_602528" data-name="Trazado 602528" d="M48.555,333.487q-1.1-.021-2.2,0a.707.707,0,0,0-.793.735.732.732,0,0,0,.777.762c.358.015.718,0,1.077,0,.375,0,.751.011,1.126,0a.741.741,0,0,0,.794-.749.7.7,0,0,0-.778-.748" transform="translate(-39.579 -289.706)" fill="#6b46ce"/>
          <path id="Trazado_602529" data-name="Trazado 602529" d="M113.733,333.513c-.39-.021-.783,0-1.175,0s-.784-.015-1.175,0a.7.7,0,0,0-.725.7.715.715,0,0,0,.7.785c.8.026,1.6.026,2.4,0a.712.712,0,0,0,.678-.757.691.691,0,0,0-.7-.726" transform="translate(-96.132 -289.728)" fill="#6b46ce"/>
          <path id="Trazado_602530" data-name="Trazado 602530" d="M111.4,155.446c.767.017,1.534.016,2.3,0a.715.715,0,0,0,.736-.747.7.7,0,0,0-.737-.741c-.374-.018-.75,0-1.126,0v0H111.5c-.033,0-.065,0-.1,0a.745.745,0,0,0,0,1.49" transform="translate(-96.139 -133.743)" fill="#6b46ce"/>
          <path id="Trazado_602531" data-name="Trazado 602531" d="M46.363,155.426c.359.01.718,0,1.077,0,.375,0,.751.01,1.126,0a.723.723,0,0,0,.767-.767.7.7,0,0,0-.754-.723q-1.125-.024-2.252,0a.705.705,0,0,0-.768.76.732.732,0,0,0,.8.731" transform="translate(-39.579 -133.72)" fill="#6b46ce"/>
          <path id="Trazado_602532" data-name="Trazado 602532" d="M179.649,213.805q-1.153-.022-2.306,0a.729.729,0,0,0-.744.746.749.749,0,0,0,.756.742c.375.016.752,0,1.128,0h1.079c.033,0,.066,0,.1,0a.769.769,0,0,0,.748-.759.736.736,0,0,0-.76-.733" transform="translate(-153.419 -185.732)" fill="#6b46ce"/>
          <path id="Trazado_602533" data-name="Trazado 602533" d="M245.648,213.822c-.375-.017-.752,0-1.128,0-.392,0-.785-.012-1.177,0a.744.744,0,1,0-.012,1.488q1.152.026,2.306,0a.745.745,0,0,0,.756-.741.735.735,0,0,0-.744-.747" transform="translate(-210.741 -185.749)" fill="#6b46ce"/>
          <path id="Trazado_602534" data-name="Trazado 602534" d="M311.843,213.8c-.767-.018-1.534-.017-2.3,0a.687.687,0,0,0-.741.731.722.722,0,0,0,.728.757c.374.018.751,0,1.126,0,.392,0,.784.014,1.175,0a.723.723,0,0,0,.744-.743.692.692,0,0,0-.731-.744" transform="translate(-268.269 -185.73)" fill="#6b46ce"/>
          <path id="Trazado_602535" data-name="Trazado 602535" d="M113.675,213.8c-.751-.014-1.5-.015-2.252,0a.7.7,0,0,0-.761.764.728.728,0,0,0,.761.725c.375.015.751,0,1.126,0h1.028c.033,0,.065,0,.1,0a.734.734,0,0,0,.76-.778.7.7,0,0,0-.76-.715" transform="translate(-96.137 -185.731)" fill="#6b46ce"/>
          <path id="Trazado_602536" data-name="Trazado 602536" d="M48.616,213.822c-.374-.017-.751,0-1.126,0-.392,0-.784-.012-1.175,0a.7.7,0,0,0-.754.723.714.714,0,0,0,.718.764q1.174.03,2.35,0a.715.715,0,0,0,.7-.778.694.694,0,0,0-.718-.708" transform="translate(-39.581 -185.748)" fill="#6b46ce"/>
          <path id="Trazado_602537" data-name="Trazado 602537" d="M111.4,275.12c.374.019.751,0,1.126,0,.392,0,.784.014,1.175,0a.725.725,0,0,0,.737-.751.691.691,0,0,0-.735-.74q-1.15-.028-2.3,0a.694.694,0,0,0-.738.739.727.727,0,0,0,.736.752" transform="translate(-96.137 -237.701)" fill="#6b46ce"/>
          <path id="Trazado_602538" data-name="Trazado 602538" d="M46.3,275.124c.374.018.75,0,1.126,0v0c.408,0,.817.022,1.223-.006a.718.718,0,0,0,.679-.755.683.683,0,0,0-.7-.727q-1.174-.033-2.349,0a.691.691,0,0,0-.727.748.727.727,0,0,0,.745.742" transform="translate(-39.58 -237.705)" fill="#6b46ce"/>
          <path id="Trazado_602539" data-name="Trazado 602539" d="M245.64,153.945q-1.153-.025-2.306,0a.739.739,0,0,0-.753.741.753.753,0,0,0,.754.747c.376.015.752,0,1.129,0h1.08c.033,0,.066,0,.1,0a.755.755,0,0,0,.749-.749.731.731,0,0,0-.751-.741" transform="translate(-210.74 -133.728)" fill="#6b46ce"/>
          <path id="Trazado_602540" data-name="Trazado 602540" d="M311.862,153.963c-.374-.022-.75,0-1.126,0-.408,0-.817-.017-1.223,0a.7.7,0,0,0-.715.761.708.708,0,0,0,.708.724q1.174.026,2.35,0a.711.711,0,0,0,.716-.717.7.7,0,0,0-.709-.766" transform="translate(-268.266 -133.744)" fill="#6b46ce"/>
        </g>
      </g>
    </g>
  </g>
</svg>
