<svg xmlns="http://www.w3.org/2000/svg" xmlns:xlink="http://www.w3.org/1999/xlink" width="393" height="145.738" viewBox="0 0 393 145.738">
  <defs>
    <clipPath id="clip-path">
      <rect id="Rectángulo_300832" data-name="Rectángulo 300832" width="50.334" height="50.341" fill="none"/>
    </clipPath>
    <clipPath id="clip-path-2">
      <rect id="Rectángulo_300833" data-name="Rectángulo 300833" width="50.516" height="50.341" fill="none"/>
    </clipPath>
    <clipPath id="clip-path-3">
      <rect id="Rectángulo_300831" data-name="Rectángulo 300831" width="50.362" height="50.341" fill="none"/>
    </clipPath>
  </defs>
  <g id="Grupo_886471" data-name="Grupo 886471" transform="translate(-288 -23712)">
    <g id="Grupo_886190" data-name="Grupo 886190" transform="translate(-56)">
      <path id="Trazado_608262" data-name="Trazado 608262" d="M24.543,14.023H19.777L18.707,17H17.16L21.5,5.625h1.313L27.168,17H25.629ZM20.23,12.8H24.1L22.16,7.477Zm9.609-4.25.047,1.063a3.08,3.08,0,0,1,2.531-1.219q2.68,0,2.7,3.023V17H33.676V11.406a1.946,1.946,0,0,0-.418-1.352,1.675,1.675,0,0,0-1.277-.437,2.086,2.086,0,0,0-1.234.375,2.546,2.546,0,0,0-.828.984V17H28.473V8.547ZM42.52,17a3.036,3.036,0,0,1-.2-.891,3.225,3.225,0,0,1-2.406,1.047,2.984,2.984,0,0,1-2.051-.707,2.287,2.287,0,0,1-.8-1.793,2.39,2.39,0,0,1,1-2.051,4.733,4.733,0,0,1,2.824-.73h1.406v-.664A1.623,1.623,0,0,0,41.84,10,1.821,1.821,0,0,0,40.5,9.555a2.107,2.107,0,0,0-1.3.391,1.151,1.151,0,0,0-.523.945H37.23a2,2,0,0,1,.449-1.223A3.066,3.066,0,0,1,38.9,8.734a4.1,4.1,0,0,1,1.691-.344,3.342,3.342,0,0,1,2.289.73,2.635,2.635,0,0,1,.859,2.012v3.891a4.757,4.757,0,0,0,.3,1.852V17Zm-2.4-1.1a2.54,2.54,0,0,0,1.289-.352,2.127,2.127,0,0,0,.883-.914V12.9H41.16q-2.656,0-2.656,1.555a1.316,1.316,0,0,0,.453,1.063A1.742,1.742,0,0,0,40.121,15.9ZM41.457,5h1.75L41.113,7.3l-1.164,0Zm6.117,12H46.129V5h1.445Zm3.883,0H50.012V8.547h1.445ZM49.895,6.3a.863.863,0,0,1,.215-.594.807.807,0,0,1,.637-.242.819.819,0,0,1,.641.242.854.854,0,0,1,.219.594.826.826,0,0,1-.219.586.834.834,0,0,1-.641.234.821.821,0,0,1-.637-.234A.834.834,0,0,1,49.895,6.3Zm8.8,8.453a1.064,1.064,0,0,0-.441-.91,4.249,4.249,0,0,0-1.539-.559,7.277,7.277,0,0,1-1.742-.562,2.479,2.479,0,0,1-.953-.781,1.869,1.869,0,0,1-.309-1.078,2.193,2.193,0,0,1,.879-1.758,3.432,3.432,0,0,1,2.246-.719,3.532,3.532,0,0,1,2.332.742,2.357,2.357,0,0,1,.895,1.9H58.605a1.3,1.3,0,0,0-.5-1.023,1.888,1.888,0,0,0-1.27-.43,1.976,1.976,0,0,0-1.234.344,1.082,1.082,0,0,0-.445.9.877.877,0,0,0,.414.789,5.1,5.1,0,0,0,1.5.508,7.8,7.8,0,0,1,1.754.578,2.558,2.558,0,0,1,1,.809,1.988,1.988,0,0,1,.324,1.152,2.163,2.163,0,0,1-.906,1.816,3.8,3.8,0,0,1-2.352.684,4.257,4.257,0,0,1-1.8-.359,2.922,2.922,0,0,1-1.223-1,2.42,2.42,0,0,1-.441-1.395h1.445a1.5,1.5,0,0,0,.582,1.152,2.258,2.258,0,0,0,1.434.426,2.331,2.331,0,0,0,1.316-.332A1.02,1.02,0,0,0,58.691,14.758ZM63.59,17H62.145V8.547H63.59ZM62.027,6.3a.863.863,0,0,1,.215-.594.807.807,0,0,1,.637-.242.819.819,0,0,1,.641.242.854.854,0,0,1,.219.594.826.826,0,0,1-.219.586.834.834,0,0,1-.641.234.821.821,0,0,1-.637-.234A.834.834,0,0,1,62.027,6.3Zm8.8,8.453a1.064,1.064,0,0,0-.441-.91,4.249,4.249,0,0,0-1.539-.559,7.277,7.277,0,0,1-1.742-.562,2.479,2.479,0,0,1-.953-.781,1.869,1.869,0,0,1-.309-1.078,2.193,2.193,0,0,1,.879-1.758,3.432,3.432,0,0,1,2.246-.719,3.532,3.532,0,0,1,2.332.742,2.357,2.357,0,0,1,.895,1.9H70.738a1.3,1.3,0,0,0-.5-1.023,1.888,1.888,0,0,0-1.27-.43,1.976,1.976,0,0,0-1.234.344,1.082,1.082,0,0,0-.445.9.877.877,0,0,0,.414.789,5.1,5.1,0,0,0,1.5.508,7.8,7.8,0,0,1,1.754.578,2.558,2.558,0,0,1,1,.809,1.988,1.988,0,0,1,.324,1.152,2.163,2.163,0,0,1-.906,1.816,3.8,3.8,0,0,1-2.352.684,4.257,4.257,0,0,1-1.8-.359,2.922,2.922,0,0,1-1.223-1,2.42,2.42,0,0,1-.441-1.395H67a1.5,1.5,0,0,0,.582,1.152,2.258,2.258,0,0,0,1.434.426,2.331,2.331,0,0,0,1.316-.332A1.02,1.02,0,0,0,70.824,14.758ZM32.207,35.977H27.434V41h-1.5V29.625H32.98v1.227H27.434v3.9h4.773Zm11.32-.3a7.037,7.037,0,0,1-.562,2.918,4.261,4.261,0,0,1-1.594,1.9,4.4,4.4,0,0,1-6.4-1.887,6.752,6.752,0,0,1-.59-2.832v-.82a6.953,6.953,0,0,1,.57-2.9,4.218,4.218,0,0,1,4-2.594,4.41,4.41,0,0,1,2.41.66,4.253,4.253,0,0,1,1.605,1.914,7.071,7.071,0,0,1,.563,2.918Zm-1.492-.734a5.1,5.1,0,0,0-.812-3.105,2.68,2.68,0,0,0-2.273-1.082,2.651,2.651,0,0,0-2.238,1.082,5,5,0,0,0-.84,3v.836a5.107,5.107,0,0,0,.824,3.082,2.888,2.888,0,0,0,4.52.063,5.079,5.079,0,0,0,.82-3.035ZM45.777,41V29.625h3.211a5.169,5.169,0,0,1,2.625.656,4.438,4.438,0,0,1,1.762,1.867A6.078,6.078,0,0,1,54,34.93v.727a6.1,6.1,0,0,1-.621,2.82,4.369,4.369,0,0,1-1.773,1.859A5.5,5.5,0,0,1,48.926,41Zm1.5-10.148v8.922h1.578a3.434,3.434,0,0,0,2.7-1.079,4.458,4.458,0,0,0,.965-3.073v-.665a4.529,4.529,0,0,0-.91-3.014,3.239,3.239,0,0,0-2.582-1.091Zm15.273,7.172H57.785L56.715,41H55.168l4.344-11.375h1.313L65.176,41H63.637ZM58.238,36.8h3.867l-1.937-5.32Z" transform="translate(495 23813.488)" fill="#12263f"/>
      <g id="Grupo_886183" data-name="Grupo 886183" transform="translate(0.5)">
        <g id="Elipse_6616" data-name="Elipse 6616" transform="translate(497.5 23712)" fill="#fff" stroke="#72e0fa" stroke-width="1">
          <circle cx="42.5" cy="42.5" r="42.5" stroke="none"/>
          <circle cx="42.5" cy="42.5" r="42" fill="none"/>
        </g>
        <g id="Grupo_886159" data-name="Grupo 886159" transform="translate(514.833 23730)">
          <g id="Grupo_886158" data-name="Grupo 886158" clip-path="url(#clip-path)">
            <path id="Trazado_602211" data-name="Trazado 602211" d="M235.652,210.662a11.268,11.268,0,0,0-6.176-.2h0a11.08,11.08,0,0,1-2.459,4.706,11.312,11.312,0,0,1-4.427,3.157h0a23.447,23.447,0,0,0-.02,2.631,12.187,12.187,0,0,0,1.2,4.106,10.443,10.443,0,0,0,2.277,3.042,11.441,11.441,0,0,0,14.177,1.209c.1-.066.191-.278.361-.085a10.867,10.867,0,0,0,2.241-3.533,9.92,9.92,0,0,0,.717-2.935.8.8,0,0,1,.087-.219v-2.064c-.19-.686-.223-1.4-.435-2.088a11.188,11.188,0,0,0-7.542-7.729m-1.04,8.534a5.819,5.819,0,0,1-.933,0c-.435-.044-.586.086-.581.556.027,2.162.012,4.324.012,6.486,0,.115,0,.23,0,.344a.818.818,0,0,1-.8.877.857.857,0,0,1-.855-.888c-.013-1.163,0-2.326,0-3.489,0-1.147-.012-2.293.006-3.44.005-.34-.093-.474-.442-.446a7.907,7.907,0,0,1-.982,0,.861.861,0,0,1-.835-.751.783.783,0,0,1,.673-.838,2.01,2.01,0,0,1,.386-.061c1.343,0,2.686-.012,4.03,0,.694.007,1.075.308,1.086.8a.77.77,0,0,1-.761.844" transform="translate(-193.296 -182.524)" fill="#aeeea4"/>
            <path id="Trazado_602212" data-name="Trazado 602212" d="M243.3,10.91a11.025,11.025,0,0,0-3.16-6.46,10.868,10.868,0,0,0-6.728-3.236,11.115,11.115,0,0,0-8.8,2.822c-.045.042-.087.085-.132.128a10.039,10.039,0,0,1-.682,1.15,12.468,12.468,0,0,0-1.327,4.361,11.109,11.109,0,0,0,.4,4.242,13.351,13.351,0,0,0,.645,1.74c.05.117.221.235.047.385a11.666,11.666,0,0,1,4,3.472c.329.465.612.962.916,1.444h0c.149-.176.267-.006.384.044a12.733,12.733,0,0,0,3.981,1.051,11.388,11.388,0,0,0,7.264-1.866c.112-.072.2-.231.373-.106a11.176,11.176,0,0,0,2.746-5.138,7.861,7.861,0,0,1,.294-1.362V11.323c-.27-.03-.2-.256-.225-.413m-5.851-2.428q-.756,3.849-1.519,7.7c-.149.749-.53,1.1-1.127,1.041a1.054,1.054,0,0,1-.924-.884c-.509-1.673-1.03-3.343-1.547-5.013-.023-.075-.051-.149-.129-.376-.593,1.917-1.137,3.695-1.694,5.469a1.006,1.006,0,0,1-1.08.809q-.719-.038-.917-.93c-.007-.032-.013-.064-.02-.1q-.758-3.849-1.516-7.7c-.118-.6.092-1.019.567-1.119.542-.114.909.185,1.036.836.341,1.743.684,3.485,1.041,5.306a1.755,1.755,0,0,0,.321-.758c.478-1.529.943-3.061,1.412-4.593.132-.429.317-.8.852-.8s.724.35.857.787c.544,1.781,1.1,3.56,1.725,5.351.122-.577.248-1.154.363-1.732.24-1.2.472-2.406.711-3.609.117-.59.475-.869.988-.781.477.082.714.506.6,1.095" transform="translate(-193.189 -0.991)" fill="#e05f78"/>
            <path id="Trazado_602213" data-name="Trazado 602213" d="M254.058,3.62a11.109,11.109,0,0,0-10.431-3.3,10.677,10.677,0,0,0-5.394,2.721h0a1.458,1.458,0,0,1-.063.219c.044-.042.087-.086.132-.128A11.115,11.115,0,0,1,247.1.316a10.867,10.867,0,0,1,6.728,3.236,11.025,11.025,0,0,1,3.16,6.46c.021.157-.045.383.225.413-.093-.089-.078-.21-.091-.321a10.847,10.847,0,0,0-3.066-6.483" transform="translate(-206.882 -0.092)" fill="#e05f78"/>
            <path id="Trazado_602214" data-name="Trazado 602214" d="M13.744,253.763a10.766,10.766,0,0,0,5.282-2.15,12.99,12.99,0,0,0,1.471-1.291,10.092,10.092,0,0,0-1.2.692,11.109,11.109,0,0,1-6.586,1.278,10.972,10.972,0,0,1-6.146-2.651,11.206,11.206,0,0,1-3.263-4.629,10.823,10.823,0,0,1-.7-3.577,11.423,11.423,0,0,1,1.406-5.975,9.821,9.821,0,0,0,.6-1.017,11.066,11.066,0,0,0-3.449,6.941,10.909,10.909,0,0,0,2.308,8.142,11,11,0,0,0,7.438,4.238c.144.02.353-.032.364.221h2.064c.029-.27.253-.2.409-.222" transform="translate(-0.946 -203.644)" fill="#c2aeef"/>
            <path id="Trazado_602215" data-name="Trazado 602215" d="M9.96,252.288a11,11,0,0,1-7.438-4.238,10.909,10.909,0,0,1-2.308-8.142,11.065,11.065,0,0,1,3.449-6.941,1.575,1.575,0,0,0,.073-.223h0a7.806,7.806,0,0,0-1.217,1.271,11.187,11.187,0,0,0-2.387,8.869,10.922,10.922,0,0,0,2.332,5.323,11.382,11.382,0,0,0,5.629,3.821c.732.229,1.494.29,2.23.481-.011-.253-.219-.2-.363-.221" transform="translate(0 -202.168)" fill="#c2aeef"/>
            <path id="Trazado_602216" data-name="Trazado 602216" d="M101.68,354.768a1.936,1.936,0,0,0-.218.072,12.978,12.978,0,0,1-1.471,1.291,10.766,10.766,0,0,1-5.282,2.15c-.156.02-.38-.048-.409.222a3.444,3.444,0,0,1,1.044-.187,11.252,11.252,0,0,0,6.336-3.548" transform="translate(-81.912 -308.162)" fill="#c2aeef"/>
            <path id="Trazado_602217" data-name="Trazado 602217" d="M223.646,287.169c.677-.145,1.367-.223,2.031-.435a11.285,11.285,0,0,0,4.913-3.054,1.281,1.281,0,0,0-.333.178A11.5,11.5,0,0,1,217,283.369a11.31,11.31,0,0,1-4.473-8.1,10.259,10.259,0,0,1,.068-2.537c0-.01.009-.018.013-.027a7.02,7.02,0,0,1-1.288.363h0l0,.016c.167.192.035.418,0,.62a11.279,11.279,0,0,0,9.552,13.284c.174.026.411-.048.462.232H223.4a.2.2,0,0,1,.132-.05c.039,0,.077,0,.116-.006" transform="translate(-183.386 -236.884)" fill="#8be0a3"/>
            <path id="Trazado_602218" data-name="Trazado 602218" d="M239.668,283.444c-.17-.193-.263.019-.361.085a11.441,11.441,0,0,1-14.177-1.208,10.439,10.439,0,0,1-2.277-3.042,12.186,12.186,0,0,1-1.2-4.106,23.444,23.444,0,0,1,.02-2.631h0l-.069.022c0,.009-.009.017-.013.027a10.253,10.253,0,0,0-.068,2.537,11.31,11.31,0,0,0,4.473,8.1,11.5,11.5,0,0,0,13.254.488,1.283,1.283,0,0,1,.333-.178C239.611,283.5,239.64,283.474,239.668,283.444Z" transform="translate(-192.378 -236.738)" fill="#8be0a3"/>
            <path id="Trazado_602219" data-name="Trazado 602219" d="M219.993,289.5a11.279,11.279,0,0,1-9.552-13.284c.035-.2.168-.428,0-.62a11.056,11.056,0,0,0-.22,4.217,11.2,11.2,0,0,0,7.669,9.341,19.439,19.439,0,0,0,2.564.578c-.051-.28-.288-.206-.462-.232" transform="translate(-182.508 -239.388)" fill="#8be0a3"/>
            <path id="Trazado_602220" data-name="Trazado 602220" d="M14.372,4.353a10.607,10.607,0,0,0-1.852,5A11.376,11.376,0,0,0,18.8,20.895a11.849,11.849,0,0,0,4.029,1.115c.858.094,1.69-.045,2.533-.021a11.182,11.182,0,0,1,3.157-4.428h0a11.042,11.042,0,0,1,4.295-2.353.932.932,0,0,0,.415-.185c-.127-.136-.065-.311-.033-.475A10.928,10.928,0,0,0,32.06,6.978a10.912,10.912,0,0,0-8.509-5.8,10.957,10.957,0,0,0-7.08,1.468,13.887,13.887,0,0,0-1.937,1.423l-.009.009c.055.119-.1.2-.152.276m4.766,10.085a.758.758,0,0,1,.976.2,3.187,3.187,0,0,0,1.855.915,1.923,1.923,0,0,0,1.719-.5.977.977,0,0,0-.078-1.54,4.131,4.131,0,0,0-1.136-.567c-.59-.24-1.183-.472-1.774-.71a2.249,2.249,0,0,1-1.527-1.929A2.453,2.453,0,0,1,20.4,7.812a4.158,4.158,0,0,1,4.7.561.825.825,0,0,1,.143,1.064.788.788,0,0,1-1.087.2A4.272,4.272,0,0,0,22.6,8.957a1.693,1.693,0,0,0-1.552.4.789.789,0,0,0,.272,1.372c.887.377,1.789.72,2.663,1.124a2.76,2.76,0,0,1,1.582,1.776,2.872,2.872,0,0,1-2.172,3.429,2.982,2.982,0,0,1-.991.122,4.731,4.731,0,0,1-3.22-1.17,1.183,1.183,0,0,1-.488-.713.807.807,0,0,1,.446-.857" transform="translate(-10.819 -0.938)" fill="#7cc2ed"/>
            <path id="Trazado_602221" data-name="Trazado 602221" d="M27.741,3.138l.009-.009a13.9,13.9,0,0,1,1.937-1.423A11.248,11.248,0,0,1,45.277,6.04a10.927,10.927,0,0,1,1.132,7.569c-.032.164-.094.339.033.475l.019-.018a11.873,11.873,0,0,0,.087-4.9A10.955,10.955,0,0,0,42.7,2.675,11.113,11.113,0,0,0,32.081.51a10.685,10.685,0,0,0-4.409,2.544h0a.258.258,0,0,1,.069.085" transform="translate(-24.037 0)" fill="#7cc2ed"/>
            <path id="Trazado_602222" data-name="Trazado 602222" d="M137.267,112.312c-.217-.055-.287-.249-.382-.416a11.016,11.016,0,0,0-4.207-4.212c-.168-.095-.365-.161-.422-.382l0-.011c-.771-.382-1.609-.6-2.393-.948a.57.57,0,0,1-.046.065.989.989,0,0,1-.626.018,11.077,11.077,0,0,0-4.137,0,1.064,1.064,0,0,1-.627-.008.379.379,0,0,1-.053-.044c-.018.218-.215.236-.368.281a11.778,11.778,0,0,0-4.281,2.307c-.055.048-.105.1-.159.147a10.325,10.325,0,0,1-.612.961,11.358,11.358,0,0,0,16.132,15.187,3.644,3.644,0,0,1,.395-.271c.043-.047.087-.091.13-.138a11.782,11.782,0,0,0,2.3-4.277.933.933,0,0,1,.2-.406.9.9,0,0,1,.016-.517,11.578,11.578,0,0,0,.022-4.263,1.031,1.031,0,0,1,.012-.624.616.616,0,0,1,.07-.047h0l-.957-2.4m-4.693,10.561a.807.807,0,0,1-1.249-.07c-.977-.965-1.947-1.937-2.92-2.906-.21-.112-.336.071-.482.149a4.761,4.761,0,0,1-5.188-.222,4.853,4.853,0,0,1-1.992-5.115,4.958,4.958,0,0,1,3.827-3.654,4.859,4.859,0,0,1,5.781,5.111,4.65,4.65,0,0,1-.663,2.132c-.078.129-.232.252-.123.44.969.973,1.941,1.943,2.906,2.92a.81.81,0,0,1,.1,1.215" transform="translate(-101.948 -92.275)" fill="#ecf3fe"/>
            <path id="Trazado_602223" data-name="Trazado 602223" d="M170.674,105.369a.384.384,0,0,0,.053.044,1.064,1.064,0,0,0,.627.008,11.078,11.078,0,0,1,4.138,0,.989.989,0,0,0,.626-.017.579.579,0,0,0,.046-.065h0c-.21-.007-.417-.032-.626-.055a12.365,12.365,0,0,0-2.79-.175,15.413,15.413,0,0,1-2.068.229c0,.012,0,.021,0,.032" transform="translate(-148.253 -91.271)" fill="#ecf3fe"/>
            <path id="Trazado_602224" data-name="Trazado 602224" d="M257.648,212.684a11.782,11.782,0,0,1-2.3,4.277c-.042.047-.087.092-.13.138a.622.622,0,0,1,.194-.062,11.081,11.081,0,0,0,2.459-4.706.424.424,0,0,1-.025-.054.931.931,0,0,0-.2.406" transform="translate(-221.688 -184.391)" fill="#ecf3fe"/>
            <path id="Trazado_602225" data-name="Trazado 602225" d="M230.682,114.319c.056.221.254.287.422.382a11.016,11.016,0,0,1,4.207,4.212c.1.167.165.361.382.416l-.027-.069c-.3-.482-.587-.979-.916-1.445a11.664,11.664,0,0,0-4-3.472l-.073-.035,0,.011" transform="translate(-200.374 -99.291)" fill="#ecf3fe"/>
            <path id="Trazado_602226" data-name="Trazado 602226" d="M275.032,171.459a11.576,11.576,0,0,1-.022,4.263.9.9,0,0,0-.016.517l.023-.024.02-.009a11.24,11.24,0,0,0,.3-3.236c-.046-.733-.219-1.448-.226-2.181a.6.6,0,0,0-.07.047,1.03,1.03,0,0,0-.012.624" transform="translate(-238.838 -148.352)" fill="#ecf3fe"/>
            <path id="Trazado_602227" data-name="Trazado 602227" d="M275.219,212.058a.43.43,0,0,0,.025.054h0c.007-.029.012-.058.019-.087l-.021.009c-.009.008-.016.016-.023.024" transform="translate(-239.063 -184.171)" fill="#ecf3fe"/>
            <path id="Trazado_602228" data-name="Trazado 602228" d="M134.161,109.749h0a1.7,1.7,0,0,1-.083.21c.053-.049.1-.1.159-.147a11.775,11.775,0,0,1,4.281-2.307c.153-.045.349-.063.368-.281l-.016-.014a.933.933,0,0,1-.415.185,11.042,11.042,0,0,0-4.295,2.353" transform="translate(-116.464 -93.127)" fill="#ecf3fe"/>
            <path id="Trazado_602229" data-name="Trazado 602229" d="M170.555,107.091l.016.014c0-.011,0-.02,0-.032l-.019.018" transform="translate(-148.149 -93.007)" fill="#ecf3fe"/>
            <path id="Trazado_602230" data-name="Trazado 602230" d="M25.092,211.377a11.248,11.248,0,0,0-4.241.063,11.378,11.378,0,0,0-5.234,2.653l-.051.05c.057.222-.119.386-.223.555a11.2,11.2,0,0,0-1.674,4.527,11.061,11.061,0,0,0,2.412,8.688,10.852,10.852,0,0,0,7.393,4.044,11,11,0,0,0,7.165-1.56c.244-.149.464-.432.8-.367.021-.023.044-.044.065-.067a11.242,11.242,0,0,0,2.861-7.216,12.566,12.566,0,0,0-.2-2.531c-.033-.189-.118-.394.029-.573a9.453,9.453,0,0,1-4.067-1.906,11.159,11.159,0,0,1-4-5.6c-.078-.246-.121-.5-.181-.756h0c-.277.2-.572.039-.846-.009m3.131,11.094a5.073,5.073,0,0,1-10.147-.05,5.073,5.073,0,0,1,10.147.05" transform="translate(-11.784 -183.46)" fill="#d5bcee"/>
            <path id="Trazado_602231" data-name="Trazado 602231" d="M28.541,213.212a11.376,11.376,0,0,1,5.234-2.653,11.248,11.248,0,0,1,4.241-.063c.274.048.569.209.846.009-.592-.1-1.181-.242-1.777-.282a11.314,11.314,0,0,0-6.467,1.367,9.19,9.19,0,0,0-2.172,1.564.432.432,0,0,1,.044.108l.051-.05" transform="translate(-24.709 -182.578)" fill="#d5bcee"/>
            <path id="Trazado_602232" data-name="Trazado 602232" d="M152.323,276.015a12.566,12.566,0,0,1,.2,2.531,11.241,11.241,0,0,1-2.861,7.216c-.021.023-.044.044-.065.067a.607.607,0,0,1,.115.034c.266-.13.384-.4.548-.615a11.366,11.366,0,0,0,2.4-6.945,17.341,17.341,0,0,0-.3-2.86l-.009,0c-.147.179-.062.384-.029.573" transform="translate(-129.944 -239.257)" fill="#d5bcee"/>
            <path id="Trazado_602233" data-name="Trazado 602233" d="M29.779,249.822a11.005,11.005,0,0,1-7.165,1.56,10.854,10.854,0,0,1-7.393-4.044,11.062,11.062,0,0,1-2.412-8.688,11.2,11.2,0,0,1,1.674-4.527c.1-.17.28-.333.223-.555-.04.038-.079.077-.118.115a9.8,9.8,0,0,1-.6,1.017,11.423,11.423,0,0,0-1.406,5.975,10.821,10.821,0,0,0,.7,3.577,11.206,11.206,0,0,0,3.263,4.629,10.974,10.974,0,0,0,6.146,2.651,11.11,11.11,0,0,0,6.586-1.278,10.09,10.09,0,0,1,1.2-.692c.034-.035.069-.07.1-.106-.335-.065-.556.217-.8.367" transform="translate(-10.925 -202.883)" fill="#d5bcee"/>
            <path id="Trazado_602234" data-name="Trazado 602234" d="M27.96,232.744h0a1.592,1.592,0,0,1-.074.223c.039-.038.078-.077.118-.115a.437.437,0,0,0-.044-.108" transform="translate(-24.223 -202.168)" fill="#d5bcee"/>
            <path id="Trazado_602235" data-name="Trazado 602235" d="M148.819,354.616a2,2,0,0,1,.218-.072.607.607,0,0,0-.115-.034c-.033.036-.068.07-.1.106" transform="translate(-129.269 -307.938)" fill="#d5bcee"/>
            <path id="Trazado_602236" data-name="Trazado 602236" d="M121.307,148.808a.651.651,0,0,1,.343-.249,11.641,11.641,0,0,0,3.654-2.53,11.443,11.443,0,0,1-15.9-15.932,11.644,11.644,0,0,0-2.521,3.617.71.71,0,0,1-.3.409,7.232,7.232,0,0,0-.366,1.285l0,.013a.483.483,0,0,1,.045.043,11.9,11.9,0,0,1-.214,1.744,11.559,11.559,0,0,0,.176,3.212,1.192,1.192,0,0,1,.036.483c-.012.01-.024.019-.036.027v0a.955.955,0,0,1,.236.527,11.187,11.187,0,0,0,4.708,6.2,9.836,9.836,0,0,0,2.979,1.354.548.548,0,0,1,.332.177c.007-.008.012-.017.02-.025a9.152,9.152,0,0,1,1.84.218,11.17,11.17,0,0,0,2.875-.151,2.229,2.229,0,0,1,.726-.077.467.467,0,0,1,.051.047l.014,0h0a2.2,2.2,0,0,1,1.3-.386" transform="translate(-92.071 -113.006)" fill="#dae9fe"/>
            <path id="Trazado_602237" data-name="Trazado 602237" d="M105.249,175.627a11.559,11.559,0,0,1-.176-3.212,11.9,11.9,0,0,0,.214-1.744.465.465,0,0,0-.045-.043,10.865,10.865,0,0,0-.314,1.952,9.38,9.38,0,0,0,.321,3.557c.012-.009.024-.017.036-.027a1.193,1.193,0,0,0-.036-.483" transform="translate(-91.093 -148.213)" fill="#dae9fe"/>
            <path id="Trazado_602238" data-name="Trazado 602238" d="M222.895,251.418a.651.651,0,0,0-.343.249l.058,0h0a11.309,11.309,0,0,0,4.427-3.157c-.159.131-.323.255-.488.376a11.642,11.642,0,0,1-3.654,2.53" transform="translate(-193.315 -215.865)" fill="#dae9fe"/>
            <path id="Trazado_602239" data-name="Trazado 602239" d="M176.056,275.059a2.229,2.229,0,0,0-.726.077,11.177,11.177,0,0,1-2.875.151,9.128,9.128,0,0,0-1.84-.218c-.008.008-.013.017-.02.025l.005.006a10.3,10.3,0,0,0,5.507.006.452.452,0,0,0-.051-.047" transform="translate(-148.184 -238.913)" fill="#dae9fe"/>
            <path id="Trazado_602240" data-name="Trazado 602240" d="M212.662,272.9a7.021,7.021,0,0,0,1.288-.363c0-.008.007-.016.011-.024a2.2,2.2,0,0,0-1.3.386" transform="translate(-184.725 -236.715)" fill="#dae9fe"/>
            <path id="Trazado_602241" data-name="Trazado 602241" d="M222.475,272.53c0,.007-.008.016-.011.024l.069-.022-.058,0" transform="translate(-193.239 -236.728)" fill="#dae9fe"/>
            <path id="Trazado_602242" data-name="Trazado 602242" d="M110.536,130.962c-.007.022-.014.044-.021.066a.711.711,0,0,0,.3-.409A11.642,11.642,0,0,1,113.331,127c.116-.159.236-.316.362-.468a11.181,11.181,0,0,0-3.157,4.428" transform="translate(-95.997 -109.911)" fill="#dae9fe"/>
            <path id="Trazado_602243" data-name="Trazado 602243" d="M134.242,144.279a11.355,11.355,0,0,1-16.132-15.187,10.3,10.3,0,0,0,.613-.961c-.094.086-.189.17-.279.258a11.443,11.443,0,0,0,15.9,15.932c.1-.1.2-.208.295-.314a3.7,3.7,0,0,0-.395.271" transform="translate(-101.109 -111.299)" fill="#dae9fe"/>
            <path id="Trazado_602244" data-name="Trazado 602244" d="M253.269,248.574c-.1.106-.194.212-.295.314.166-.12.329-.244.488-.375h0a.622.622,0,0,0-.194.062" transform="translate(-219.741 -215.865)" fill="#dae9fe"/>
            <path id="Trazado_602245" data-name="Trazado 602245" d="M132.313,126.534h0c-.126.153-.246.309-.362.468.091-.088.185-.173.279-.258a1.7,1.7,0,0,0,.082-.21" transform="translate(-114.617 -109.911)" fill="#dae9fe"/>
            <path id="Trazado_602246" data-name="Trazado 602246" d="M107.941,213.338a11.159,11.159,0,0,0,4,5.6,9.454,9.454,0,0,0,4.068,1.907l0,0a.548.548,0,0,0-.332-.177A9.835,9.835,0,0,1,112.7,219.3a11.187,11.187,0,0,1-4.708-6.2.955.955,0,0,0-.236-.527c.059.252.1.51.181.756" transform="translate(-93.604 -184.655)" fill="#dae9fe"/>
            <path id="Trazado_602247" data-name="Trazado 602247" d="M170.568,275.412l.009,0-.005-.006,0,0" transform="translate(-148.16 -239.228)" fill="#dae9fe"/>
            <path id="Trazado_602248" data-name="Trazado 602248" d="M15.044,44.827a1.393,1.393,0,0,1,.323-1.273,11.032,11.032,0,0,1-6.946-1.278,10.829,10.829,0,0,1-5.24-5.951A11.106,11.106,0,0,1,4.344,25.816,11.251,11.251,0,0,0,14.4,44.838c.206-.037.431-.165.632-.007l.016,0h0" transform="translate(-0.892 -22.425)" fill="#64abdb"/>
            <path id="Trazado_602249" data-name="Trazado 602249" d="M13.624,42.61a11.353,11.353,0,0,1-5.064-.194A11.254,11.254,0,0,1,3.572,23.588c.036-.053.07-.106.107-.159a.416.416,0,0,0,.076-.178A11.082,11.082,0,0,0,.2,32.764a10.879,10.879,0,0,0,4.611,7.99A11.175,11.175,0,0,0,14.256,42.6c-.2-.157-.427-.03-.632.007" transform="translate(-0.12 -20.197)" fill="#64abdb"/>
            <path id="Trazado_602250" data-name="Trazado 602250" d="M21.809,41.828a11.853,11.853,0,0,1-4.029-1.115A11.376,11.376,0,0,1,11.5,29.169a10.608,10.608,0,0,1,1.852-5c.054-.079.206-.157.152-.276-.086.083-.169.168-.252.252a11.107,11.107,0,0,0-1.163,10.509,10.829,10.829,0,0,0,5.24,5.951,11.032,11.032,0,0,0,6.946,1.278c.021-.026.041-.053.063-.078-.844-.024-1.675.115-2.533.021" transform="translate(-9.803 -20.756)" fill="#64abdb"/>
            <path id="Trazado_602251" data-name="Trazado 602251" d="M26.278,23.587c.083-.085.166-.169.252-.252a.259.259,0,0,0-.069-.085.415.415,0,0,1-.076.178c-.037.053-.071.106-.107.159" transform="translate(-22.826 -20.196)" fill="#64abdb"/>
            <path id="Trazado_602252" data-name="Trazado 602252" d="M107.766,160.757a1.393,1.393,0,0,0-.323,1.273h0a7.206,7.206,0,0,1,.366-1.285l-.018.009-.025,0" transform="translate(-93.29 -139.627)" fill="#64abdb"/>
            <path id="Trazado_602253" data-name="Trazado 602253" d="M110.191,160.322l.025,0,.018-.009.021-.066c-.023.026-.042.052-.063.078" transform="translate(-95.715 -139.193)" fill="#64abdb"/>
            <path id="Trazado_602254" data-name="Trazado 602254" d="M212.735,35.722a11.484,11.484,0,0,1,1.471-8.579c.024-.039.05-.077.077-.114a11.192,11.192,0,0,0-3.128,6.853,10.475,10.475,0,0,0,.122,2.888c.046.251.164.524.008.776a5.4,5.4,0,0,1,2.382.921,22.619,22.619,0,0,1-.932-2.745" transform="translate(-183.373 -23.479)" fill="#da4655"/>
            <path id="Trazado_602255" data-name="Trazado 602255" d="M210.473,32.822a10.475,10.475,0,0,1-.122-2.888,11.191,11.191,0,0,1,3.128-6.853,3.885,3.885,0,0,0,.442-.6,7.75,7.75,0,0,0-1.212,1.27,11.389,11.389,0,0,0-2.231,9.844h0c.156-.253.037-.525-.008-.776" transform="translate(-182.57 -19.53)" fill="#da4655"/>
            <path id="Trazado_602256" data-name="Trazado 602256" d="M223.236,24.53c-.027.037-.053.074-.076.114a11.483,11.483,0,0,0-1.471,8.579,22.617,22.617,0,0,0,.932,2.745l.083.063c.174-.15,0-.268-.047-.385a13.353,13.353,0,0,1-.645-1.74,11.11,11.11,0,0,1-.4-4.242,12.473,12.473,0,0,1,1.326-4.361,10.01,10.01,0,0,0,.682-1.15q-.195.186-.379.378" transform="translate(-192.327 -20.979)" fill="#da4655"/>
            <path id="Trazado_602257" data-name="Trazado 602257" d="M235.664,22.7a1.473,1.473,0,0,0,.063-.219,3.878,3.878,0,0,1-.442.6q.184-.192.379-.378" transform="translate(-204.376 -19.53)" fill="#da4655"/>
            <path id="Trazado_602258" data-name="Trazado 602258" d="M214.846,108.008a5.394,5.394,0,0,0-2.382-.921h0c.784.35,1.621.566,2.393.948l-.01-.028" transform="translate(-184.552 -93.02)" fill="#da4655"/>
            <path id="Trazado_602259" data-name="Trazado 602259" d="M212.444,107.084h0" transform="translate(-184.532 -93.016)" fill="#da4655"/>
            <path id="Trazado_602260" data-name="Trazado 602260" d="M230.61,114.123l.073.035-.083-.063.01.028" transform="translate(-200.306 -99.106)" fill="#da4655"/>
            <path id="Trazado_602261" data-name="Trazado 602261" d="M278.381,266.559c-1.343-.013-2.686-.005-4.03,0a2.009,2.009,0,0,0-.386.061.783.783,0,0,0-.673.838.861.861,0,0,0,.835.751,7.9,7.9,0,0,0,.982,0c.349-.028.447.106.442.446-.018,1.146-.007,2.293-.006,3.44,0,1.163-.008,2.326,0,3.489a.857.857,0,0,0,.855.888.818.818,0,0,0,.8-.877c.006-.114,0-.229,0-.344,0-2.162.015-4.324-.012-6.486-.006-.47.145-.6.581-.556a5.817,5.817,0,0,0,.933,0,.771.771,0,0,0,.761-.845c-.011-.5-.392-.8-1.086-.8" transform="translate(-237.39 -231.535)" fill="#aeeea4" stroke="#aeeea4" stroke-width="1"/>
            <path id="Trazado_602262" data-name="Trazado 602262" d="M266.839,48.5c-.513-.088-.87.19-.988.781-.239,1.2-.471,2.406-.711,3.608-.115.579-.242,1.155-.363,1.732-.63-1.791-1.181-3.57-1.725-5.351-.134-.437-.323-.792-.857-.787s-.72.373-.852.8c-.469,1.532-.935,3.064-1.412,4.593a1.758,1.758,0,0,1-.321.758c-.357-1.821-.7-3.563-1.041-5.306-.127-.651-.494-.95-1.036-.836-.474.1-.685.519-.567,1.119q.759,3.849,1.516,7.7c.006.032.012.064.02.1q.2.893.917.93a1.006,1.006,0,0,0,1.08-.809c.557-1.774,1.1-3.551,1.694-5.469.078.227.106.3.129.376.517,1.671,1.038,3.34,1.547,5.013a1.054,1.054,0,0,0,.923.884c.6.058.978-.291,1.127-1.041q.765-3.847,1.519-7.7c.116-.589-.121-1.013-.6-1.095" transform="translate(-223.179 -42.102)" fill="#e05f78" stroke="#e05f78" stroke-width="1"/>
            <path id="Trazado_602263" data-name="Trazado 602263" d="M270.83,150.62a11.281,11.281,0,0,0,7.273-1.22,12.581,12.581,0,0,0,2.268-1.631c.078-.067.153-.139.23-.208a17.4,17.4,0,0,1-1.611.88,11.4,11.4,0,0,1-9.062.107,6.628,6.628,0,0,0-.84-.326,5.612,5.612,0,0,1,.926,2.389h0c.265-.152.547-.035.814.008" transform="translate(-233.738 -128.176)" fill="#da4655"/>
            <path id="Trazado_602264" data-name="Trazado 602264" d="M269.539,146.3a11.4,11.4,0,0,0,9.062-.107,17.424,17.424,0,0,0,1.611-.88,1.516,1.516,0,0,1,.431-.293c-.17-.125-.261.034-.373.106A11.388,11.388,0,0,1,273.005,147a12.733,12.733,0,0,1-3.981-1.051c-.117-.05-.235-.221-.384-.044h0c.02.026.039.052.059.078a6.645,6.645,0,0,1,.84.325" transform="translate(-233.349 -125.932)" fill="#da4655"/>
            <path id="Trazado_602265" data-name="Trazado 602265" d="M286.507,146.748a12.575,12.575,0,0,1-2.268,1.631,11.282,11.282,0,0,1-7.273,1.22c-.267-.043-.55-.161-.814-.008a11.281,11.281,0,0,0,10.878-3.2q-.148.074-.293.154c-.077.069-.152.141-.23.208" transform="translate(-239.874 -127.155)" fill="#da4655"/>
            <path id="Trazado_602266" data-name="Trazado 602266" d="M357.021,145.471c.046-.046.092-.091.137-.139a1.513,1.513,0,0,0-.43.293q.145-.08.293-.154" transform="translate(-309.865 -126.24)" fill="#da4655"/>
            <path id="Trazado_602267" data-name="Trazado 602267" d="M268.881,152.532l-.029-.008h0l.957,2.4a5.612,5.612,0,0,0-.926-2.389" transform="translate(-233.531 -132.486)" fill="#da4655"/>
            <path id="Trazado_602268" data-name="Trazado 602268" d="M268.67,152.069l.029.008c-.02-.026-.038-.052-.059-.078l.028.069h0" transform="translate(-233.349 -132.031)" fill="#da4655"/>
            <path id="Trazado_602269" data-name="Trazado 602269" d="M60.348,57.284a4.73,4.73,0,0,0,3.22,1.17,2.981,2.981,0,0,0,.991-.122A2.872,2.872,0,0,0,66.731,54.9a2.76,2.76,0,0,0-1.582-1.776c-.874-.4-1.776-.747-2.663-1.124a.789.789,0,0,1-.272-1.372,1.693,1.693,0,0,1,1.552-.4,4.271,4.271,0,0,1,1.562.679.788.788,0,0,0,1.087-.2.825.825,0,0,0-.143-1.064,4.158,4.158,0,0,0-4.7-.561,2.454,2.454,0,0,0-1.224,2.495,2.249,2.249,0,0,0,1.527,1.929c.591.238,1.184.47,1.774.71a4.131,4.131,0,0,1,1.135.567.977.977,0,0,1,.078,1.54,1.924,1.924,0,0,1-1.719.5,3.188,3.188,0,0,1-1.855-.915.758.758,0,0,0-.976-.2.808.808,0,0,0-.446.857,1.183,1.183,0,0,0,.488.713" transform="translate(-51.987 -42.214)" fill="#7cc2ed" stroke="#7cc2ed" stroke-width="1"/>
            <path id="Trazado_602270" data-name="Trazado 602270" d="M151.077,150.094c-.109-.188.045-.31.123-.44a4.651,4.651,0,0,0,.663-2.132,4.859,4.859,0,0,0-5.781-5.111,4.958,4.958,0,0,0-3.827,3.654,4.853,4.853,0,0,0,1.992,5.115,4.761,4.761,0,0,0,5.188.222c.147-.078.272-.262.482-.149a2.974,2.974,0,0,1,1.159-1.159m-.845-2.865A3.231,3.231,0,0,1,147,150.4a3.173,3.173,0,0,1-3.2-3.244,3.242,3.242,0,0,1,3.24-3.216,3.326,3.326,0,0,1,3.193,3.284" transform="translate(-123.461 -123.631)" fill="#b5b0b6"/>
            <path id="Trazado_602271" data-name="Trazado 602271" d="M202.548,201.44q-.56.6-1.159,1.159c.973.969,1.943,1.941,2.92,2.906a.818.818,0,1,0,1.145-1.145c-.965-.977-1.937-1.947-2.906-2.92" transform="translate(-174.933 -174.977)" fill="#5d5360"/>
            <path id="Trazado_602272" data-name="Trazado 602272" d="M202.548,201.44a2.973,2.973,0,0,0-1.159,1.159q.6-.56,1.159-1.159" transform="translate(-174.933 -174.977)" fill="#5d5360"/>
            <path id="Trazado_602273" data-name="Trazado 602273" d="M47.888,263.247a5.073,5.073,0,1,0,5.1-5.038,5.08,5.08,0,0,0-5.1,5.038m8.526-.03a3.331,3.331,0,0,1-3.42,3.453,3.431,3.431,0,1,1,.017-6.862,3.373,3.373,0,0,1,3.4,3.409" transform="translate(-41.597 -224.285)" fill="#d5bcee" stroke="#d5bcee" stroke-width="1"/>
            <path id="Trazado_602274" data-name="Trazado 602274" d="M158,154.631a3.242,3.242,0,0,0-3.24,3.216,3.173,3.173,0,0,0,3.2,3.244,3.231,3.231,0,0,0,3.237-3.175A3.326,3.326,0,0,0,158,154.631" transform="translate(-134.418 -134.317)" fill="#ecf3fe"/>
            <path id="Trazado_602275" data-name="Trazado 602275" d="M60.345,273.863a3.43,3.43,0,0,0,3.469,3.394,3.331,3.331,0,0,0,3.42-3.453,3.373,3.373,0,0,0-3.4-3.409,3.457,3.457,0,0,0-3.486,3.468" transform="translate(-52.418 -234.874)" fill="#d5bcee"/>
            <path id="Trazado_602276" data-name="Trazado 602276" d="M70.291,57.965H67.6v3.552H65.952V53.025H70.8v1.289H67.6v2.368h2.695Z" transform="translate(-57.288 -46.059)" fill="#fff"/>
            <path id="Trazado_602277" data-name="Trazado 602277" d="M282.451,57.651a3.149,3.149,0,0,1-.846,2.339,3.43,3.43,0,0,1-4.5,0,3.161,3.161,0,0,1-.84-2.339V55.283a3.19,3.19,0,0,1,.837-2.342,3.007,3.007,0,0,1,2.243-.849,3.047,3.047,0,0,1,2.254.849,3.164,3.164,0,0,1,.849,2.342Zm-1.639-2.386a2.214,2.214,0,0,0-.376-1.4,1.309,1.309,0,0,0-1.088-.473,1.277,1.277,0,0,0-1.079.47,2.279,2.279,0,0,0-.362,1.4v2.386a2.3,2.3,0,0,0,.365,1.417,1.282,1.282,0,0,0,1.082.473,1.3,1.3,0,0,0,1.088-.473,2.272,2.272,0,0,0,.37-1.417Z" transform="translate(-239.975 -45.249)" fill="#fff"/>
            <path id="Trazado_602278" data-name="Trazado 602278" d="M65.951,279.178v-8.493H68.57a2.8,2.8,0,0,1,2.2.995,3.738,3.738,0,0,1,.869,2.552v1.406a3.724,3.724,0,0,1-.869,2.552,2.8,2.8,0,0,1-2.2.989Zm1.645-7.2v5.92h.974a1.171,1.171,0,0,0,1.027-.63,3.045,3.045,0,0,0,.391-1.627V274.22A3.021,3.021,0,0,0,69.6,272.6a1.171,1.171,0,0,0-1.027-.63Z" transform="translate(-57.287 -235.125)" fill="#fff"/>
            <path id="Trazado_602279" data-name="Trazado 602279" d="M277.608,277.34h-2.123l-.478,1.837h-1.715l2.409-8.493h1.7l2.409,8.493h-1.721Zm-1.785-1.295h1.447l-.706-2.695h-.035Z" transform="translate(-237.39 -235.125)" fill="#fff"/>
          </g>
        </g>
      </g>
    </g>
    <g id="Grupo_886189" data-name="Grupo 886189" transform="translate(-48)">
      <path id="Trazado_608263" data-name="Trazado 608263" d="M21.875,11.68a7.037,7.037,0,0,1-.562,2.918,4.261,4.261,0,0,1-1.594,1.9,4.385,4.385,0,0,1-2.406.656,4.244,4.244,0,0,1-4-2.543,6.752,6.752,0,0,1-.59-2.832v-.82a6.953,6.953,0,0,1,.57-2.9,4.218,4.218,0,0,1,4-2.594,4.41,4.41,0,0,1,2.41.66,4.253,4.253,0,0,1,1.605,1.914,7.071,7.071,0,0,1,.563,2.918Zm-1.492-.734A5.1,5.1,0,0,0,19.57,7.84,2.68,2.68,0,0,0,17.3,6.758,2.651,2.651,0,0,0,15.059,7.84a5,5,0,0,0-.84,3v.836a5.107,5.107,0,0,0,.824,3.082,2.662,2.662,0,0,0,2.27,1.121,2.652,2.652,0,0,0,2.25-1.059,5.079,5.079,0,0,0,.82-3.035Zm10.672,1.922a5.026,5.026,0,0,1-.891,3.113,2.846,2.846,0,0,1-2.391,1.176A2.947,2.947,0,0,1,25.3,16.023l-.07.977H23.9V5h1.445V9.477a2.93,2.93,0,0,1,2.414-1.086,2.863,2.863,0,0,1,2.418,1.164,5.177,5.177,0,0,1,.879,3.188ZM29.609,12.7a3.906,3.906,0,0,0-.57-2.281,1.888,1.888,0,0,0-1.641-.8,2.122,2.122,0,0,0-2.055,1.328V14.6a2.181,2.181,0,0,0,2.07,1.328,1.878,1.878,0,0,0,1.617-.8A4.153,4.153,0,0,0,29.609,12.7Zm4.758-4.156v9.43q0,2.438-2.211,2.438a2.7,2.7,0,0,1-.883-.14V19.125a2.794,2.794,0,0,0,.656.063.982.982,0,0,0,.738-.262,1.3,1.3,0,0,0,.254-.911V8.547ZM32.773,6.3a.867.867,0,0,1,.215-.59.79.79,0,0,1,.629-.246.819.819,0,0,1,.641.242.854.854,0,0,1,.219.594.826.826,0,0,1-.219.586.834.834,0,0,1-.641.234.808.808,0,0,1-.633-.234A.843.843,0,0,1,32.773,6.3ZM40.2,17.156a3.693,3.693,0,0,1-2.8-1.129,4.19,4.19,0,0,1-1.078-3.02v-.266a5.073,5.073,0,0,1,.48-2.246,3.748,3.748,0,0,1,1.344-1.547,3.378,3.378,0,0,1,1.871-.559,3.166,3.166,0,0,1,2.563,1.086,4.7,4.7,0,0,1,.914,3.109v.6H37.773a3,3,0,0,0,.73,2.02,2.3,2.3,0,0,0,1.777.77,2.517,2.517,0,0,0,1.3-.312,3.259,3.259,0,0,0,.93-.828l.883.688A3.55,3.55,0,0,1,40.2,17.156Zm-.18-7.578a1.928,1.928,0,0,0-1.469.637A3.1,3.1,0,0,0,37.82,12h4.234v-.109a2.753,2.753,0,0,0-.594-1.707A1.815,1.815,0,0,0,40.023,9.578ZM47.133,6.5V8.547h1.578V9.664H47.133v5.249a1.173,1.173,0,0,0,.211.763.888.888,0,0,0,.719.254,3.5,3.5,0,0,0,.688-.094V17a4.215,4.215,0,0,1-1.109.155,1.8,1.8,0,0,1-1.461-.586,2.517,2.517,0,0,1-.492-1.664V9.664H44.148V8.547h1.539V6.5ZM51.969,17H50.523V8.547h1.445ZM50.406,6.3a.863.863,0,0,1,.215-.594.807.807,0,0,1,.637-.242.819.819,0,0,1,.641.242.854.854,0,0,1,.219.594.826.826,0,0,1-.219.586.834.834,0,0,1-.641.234.821.821,0,0,1-.637-.234A.834.834,0,0,1,50.406,6.3Zm6.664,8.734,2.094-6.492h1.477L57.609,17h-1.1L53.445,8.547h1.477ZM61.531,12.7a4.993,4.993,0,0,1,.488-2.234A3.643,3.643,0,0,1,63.379,8.93a3.7,3.7,0,0,1,1.988-.539,3.565,3.565,0,0,1,2.793,1.2,4.6,4.6,0,0,1,1.066,3.18v.1a5.036,5.036,0,0,1-.473,2.215A3.589,3.589,0,0,1,67.4,16.609a3.743,3.743,0,0,1-2.02.547,3.556,3.556,0,0,1-2.785-1.2A4.575,4.575,0,0,1,61.531,12.8Zm1.453.172a3.616,3.616,0,0,0,.652,2.258,2.211,2.211,0,0,0,3.5-.012,3.955,3.955,0,0,0,.648-2.418,3.61,3.61,0,0,0-.66-2.254,2.1,2.1,0,0,0-1.754-.863,2.075,2.075,0,0,0-1.727.852A3.925,3.925,0,0,0,62.984,12.867Zm12.977,1.891a1.064,1.064,0,0,0-.441-.91,4.249,4.249,0,0,0-1.539-.559,7.277,7.277,0,0,1-1.742-.562,2.479,2.479,0,0,1-.953-.781,1.869,1.869,0,0,1-.309-1.078,2.193,2.193,0,0,1,.879-1.758A3.432,3.432,0,0,1,74.1,8.391a3.532,3.532,0,0,1,2.332.742,2.357,2.357,0,0,1,.895,1.9H75.875a1.3,1.3,0,0,0-.5-1.023,1.888,1.888,0,0,0-1.27-.43,1.976,1.976,0,0,0-1.234.344,1.082,1.082,0,0,0-.445.9.877.877,0,0,0,.414.789,5.1,5.1,0,0,0,1.5.508,7.8,7.8,0,0,1,1.754.578,2.558,2.558,0,0,1,1,.809,1.988,1.988,0,0,1,.324,1.152,2.163,2.163,0,0,1-.906,1.816,3.8,3.8,0,0,1-2.352.684,4.257,4.257,0,0,1-1.8-.359,2.922,2.922,0,0,1-1.223-1,2.42,2.42,0,0,1-.441-1.395h1.445a1.5,1.5,0,0,0,.582,1.152,2.258,2.258,0,0,0,1.434.426,2.331,2.331,0,0,0,1.316-.332A1.02,1.02,0,0,0,75.961,14.758Z" transform="translate(641 23813.488)" fill="#12263f"/>
      <g id="Grupo_886182" data-name="Grupo 886182">
        <g id="Elipse_6618" data-name="Elipse 6618" transform="translate(644 23712)" fill="#fff" stroke="#72e0fa" stroke-width="1">
          <circle cx="42.5" cy="42.5" r="42.5" stroke="none"/>
          <circle cx="42.5" cy="42.5" r="42" fill="none"/>
        </g>
        <g id="Grupo_886161" data-name="Grupo 886161" transform="translate(661 23729)">
          <g id="Grupo_886160" data-name="Grupo 886160" clip-path="url(#clip-path-2)">
            <path id="Trazado_602280" data-name="Trazado 602280" d="M3.32,270.219a1.352,1.352,0,0,0,1.5-.913.535.535,0,0,1,.172-.234l.031-.019q0-6.245.008-12.49c0-.246.006-.492.009-.738a1.514,1.514,0,0,0-1.186-1.359.519.519,0,0,1-.073.08,8.943,8.943,0,0,1-1.848.069A7.222,7.222,0,0,0,0,254.764v15.39c1.106.1,2.215.015,3.32.064" transform="translate(0 -220.915)" fill="#e05f78"/>
            <path id="Trazado_602281" data-name="Trazado 602281" d="M3.337,366.406c1.045,0,1.357-.226,1.684-1.207h0q0-.052,0-.105c-.01.007-.021.012-.031.019a.536.536,0,0,0-.173.234,1.351,1.351,0,0,1-1.5.913c-1.105-.05-2.215.032-3.32-.064a1.035,1.035,0,0,0,.729.215c.869-.012,1.739,0,2.608,0" transform="translate(0 -316.957)" fill="#e05f78"/>
            <path id="Trazado_602282" data-name="Trazado 602282" d="M3.779,254.536a.516.516,0,0,0,.073-.08h0c-1.039,0-2.079.014-3.118,0a.853.853,0,0,0-.73.3,7.22,7.22,0,0,1,1.931-.149,8.953,8.953,0,0,0,1.848-.069" transform="translate(0 -220.905)" fill="#e05f78"/>
            <path id="Trazado_602283" data-name="Trazado 602283" d="M89.745,5.06a2.187,2.187,0,0,0-2.372,1.819,2.635,2.635,0,0,0,.188,1.076,3.127,3.127,0,0,0,1.2,1.194c-1.284.147-2.087.761-2.166,2.034a2.136,2.136,0,0,0,1.469,2.075c-.223.016-.352.032-.481.032q-3.745,0-7.491,0a9.38,9.38,0,0,0-1.909.09,2.235,2.235,0,0,0-1.289,1.477h0a3.211,3.211,0,0,0,2.479.81c6.388-.019,12.776-.01,19.164-.01a1.546,1.546,0,0,1,1.663,1.649c0,2.135.017,4.27-.008,6.4a3.447,3.447,0,0,0,.771,2.414c.114.132.232.238.025.38a2.651,2.651,0,0,0,2.366-2.679,23.977,23.977,0,0,0-.014-2.6,2.694,2.694,0,0,1,1.3-2.655c.72-.5,1.4-1.064,2.1-1.6a2.512,2.512,0,0,1,1.465-.608h0c1.344.072,2.689.112,4.036.09V3.176a1.148,1.148,0,0,1-.613.1c-.674,0-1.347-.008-2.021.005a1.743,1.743,0,0,1-1.188-.394,8.286,8.286,0,0,0-5.6-1.792c-4.107.042-8.215.009-12.323.015a1.947,1.947,0,0,0-2.133,1.806A6.764,6.764,0,0,0,88.5,3.936a.4.4,0,0,1-.04.1A2.4,2.4,0,0,0,89.745,5.06" transform="translate(-66.754 -0.95)" fill="#fedfd1"/>
            <path id="Trazado_602284" data-name="Trazado 602284" d="M162.913,3.082a.4.4,0,0,0,.04-.1,6.779,6.779,0,0,1-.139-1.021A1.947,1.947,0,0,1,164.947.159c4.108-.005,8.216.028,12.323-.015a8.286,8.286,0,0,1,5.6,1.792,1.743,1.743,0,0,0,1.188.394c.673-.014,1.347,0,2.021-.005a1.148,1.148,0,0,0,.613-.1V2.181c-.855,0-1.711-.027-2.564.01a1.765,1.765,0,0,1-1.262-.43A7.726,7.726,0,0,0,177.771.007C173.464.016,169.156.03,164.849,0a2.1,2.1,0,0,0-1.942,3.072h0l.006.01" transform="translate(-141.207 0)" fill="#fedfd1"/>
            <path id="Trazado_602285" data-name="Trazado 602285" d="M226.746,117.715a1.01,1.01,0,0,1-.646.132c-1.095.044-2.185-.044-3.276-.109l-.042,0a22.871,22.871,0,0,1,1.937,4.281,19.043,19.043,0,0,1-13.564,24.185,2.153,2.153,0,0,1-2.367,2.2,2,2,0,0,1,1.371,1.347l.1.1h0c.335.062.683.045,1.012.137a.942.942,0,0,0,.129-.047,22.665,22.665,0,0,0,16.218-30.406c-.08-.2-.288-.439-.086-.66l-.008-.02a1.652,1.652,0,0,1-.782-1.145" transform="translate(-181.26 -102.194)" fill="#7cc2ed"/>
            <path id="Trazado_602286" data-name="Trazado 602286" d="M243.984,127.214a22.678,22.678,0,0,1-16.218,30.406.942.942,0,0,1-.129.047,1.4,1.4,0,0,1,.177.061,19.166,19.166,0,0,0,4.646-1.546,22.6,22.6,0,0,0,7.574-5.682,23.073,23.073,0,0,0,3.884-6.23,22.439,22.439,0,0,0,1.673-6.93,23.329,23.329,0,0,0-.422-6.684,29.774,29.774,0,0,0-1.269-4.1c-.2.221.006.457.086.66" transform="translate(-197.623 -109.868)" fill="#7cc2ed"/>
            <path id="Trazado_602287" data-name="Trazado 602287" d="M318.374,116.954c-1.346.022-2.692-.018-4.036-.09h0l.077.138.042,0c1.09.064,2.181.153,3.276.109a1.009,1.009,0,0,0,.647-.132C318.377,116.969,318.375,116.962,318.374,116.954Z" transform="translate(-272.893 -101.456)" fill="#7cc2ed"/>
            <path id="Trazado_602288" data-name="Trazado 602288" d="M21.989,54.687a2.084,2.084,0,0,1,.139.541l1.843.021,1.572-.007c-.356-.789-.732-1.569-1.063-2.367a18.4,18.4,0,0,1-1.273-8.661,18.206,18.206,0,0,1,3.819-9.877h0l.054-.075a.751.751,0,0,1,.173-.711,2.347,2.347,0,0,1,1.186-.914l.076-.018a18.257,18.257,0,0,1,6.381-4.4c.075-.032.149-.067.223-.1h0a15.359,15.359,0,0,1,2.351-1.792c0-.01,0-.021,0-.031a2.218,2.218,0,0,1,1.026-1.61,1.536,1.536,0,0,1,1.173-.316,1.227,1.227,0,0,1-1-.966c-.1.165-.292.177-.466.209a22.6,22.6,0,0,0-10.473,4.872,22.343,22.343,0,0,0-5.412,6.581A22.012,22.012,0,0,0,19.7,43.271a22.36,22.36,0,0,0,1.033,9.911c.074.215.26.451.088.684a1.205,1.205,0,0,1,1.17.821" transform="translate(-16.966 -20.316)" fill="#64abdb"/>
            <path id="Trazado_602289" data-name="Trazado 602289" d="M20.05,53.779c.172-.234-.014-.469-.088-.684a22.361,22.361,0,0,1-1.033-9.911,22.012,22.012,0,0,1,2.622-8.208A22.344,22.344,0,0,1,26.962,28.4a22.6,22.6,0,0,1,10.473-4.872c.174-.032.368-.043.466-.209,0,0,0-.008,0-.013a23.2,23.2,0,0,0-6.174,1.91,22.742,22.742,0,0,0-7.71,5.924,22.152,22.152,0,0,0-3.183,4.955,22.379,22.379,0,0,0-2.092,7.783,22.781,22.781,0,0,0,1.308,9.9h.005" transform="translate(-16.197 -20.23)" fill="#64abdb"/>
            <path id="Trazado_602290" data-name="Trazado 602290" d="M30.385,255.275a1.205,1.205,0,0,0-1.17-.821h0a1.514,1.514,0,0,1,1.186,1.359h.124a2.084,2.084,0,0,0-.139-.541" transform="translate(-25.362 -220.905)" fill="#85d6e4"/>
            <path id="Trazado_602291" data-name="Trazado 602291" d="M29.187,254.455h0" transform="translate(-25.335 -220.905)" fill="#85d6e4"/>
            <path id="Trazado_602292" data-name="Trazado 602292" d="M76.478,94.912a2.235,2.235,0,0,1,1.289-1.477c.039-.044.08-.086.12-.13l-.076.018a2.347,2.347,0,0,0-1.186.914.75.75,0,0,0-.173.711l.025-.035h0" transform="translate(-66.34 -81.003)" fill="#85d6e4"/>
            <path id="Trazado_602293" data-name="Trazado 602293" d="M157.7,24.345a1.536,1.536,0,0,0-1.173.316,2.218,2.218,0,0,0-1.027,1.61c0,.011,0,.021,0,.031l.117-.079a2.187,2.187,0,0,1,2.372-1.819,2.4,2.4,0,0,1-1.285-1.029l0,0a1.227,1.227,0,0,0,1,.966" transform="translate(-134.994 -20.294)" fill="#64abdb"/>
            <path id="Trazado_602294" data-name="Trazado 602294" d="M164.587,23.316l0,0-.006-.01h0l0,.013" transform="translate(-142.883 -20.231)" fill="#85d6e4"/>
            <path id="Trazado_602295" data-name="Trazado 602295" d="M345.905,23.457c1.067.028,2.134.027,3.2.02.667,0,.787-.113.788-.771q.011-7.045,0-14.09c0-.619-.1-.7-.725-.711-.821-.008-1.644.027-2.463-.011a1.37,1.37,0,0,0-1.473.907.758.758,0,0,1-.162.245l-.026.016a.894.894,0,0,1,.133.622q.007,6.013,0,12.027a1.146,1.146,0,0,1-.108.623.49.49,0,0,1-.039.033c.232.4.523.763.776,1.15l.023,0a.568.568,0,0,1,.076-.064" transform="translate(-299.539 -6.85)" fill="#e05f78"/>
            <path id="Trazado_602296" data-name="Trazado 602296" d="M344.973,8c.009-.006.017-.01.026-.016a.761.761,0,0,0,.163-.245,1.37,1.37,0,0,1,1.473-.907c.819.038,1.642,0,2.463.011.628.006.724.092.725.711q.01,7.045,0,14.091c0,.658-.121.766-.788.771-1.066.007-2.133.008-3.2-.02a.58.58,0,0,0-.076.064,3.611,3.611,0,0,0,.6.1c1,.012,2,0,3.007.008.439,0,.613-.212.612-.641q-.007-7.32,0-14.64c0-.439-.169-.626-.614-.618-.92.016-1.84,0-2.76,0-1.04,0-1.39.276-1.66,1.3.009.009.016.02.024.03" transform="translate(-299.468 -5.793)" fill="#e05f78"/>
            <path id="Trazado_602297" data-name="Trazado 602297" d="M344.949,30.057l.011.017a.491.491,0,0,0,.039-.033,1.147,1.147,0,0,0,.108-.623q0-6.014,0-12.027a.9.9,0,0,0-.133-.622l-.024.015Z" transform="translate(-299.468 -14.559)" fill="#e68f97"/>
            <path id="Trazado_602298" data-name="Trazado 602298" d="M344.973,16.576c-.008-.01-.015-.02-.024-.03v.045l.024-.015" transform="translate(-299.468 -14.364)" fill="#e68f97"/>
            <path id="Trazado_602299" data-name="Trazado 602299" d="M345.768,118.827c-.253-.387-.543-.749-.776-1.15l-.006.005a1.652,1.652,0,0,0,.782,1.145" transform="translate(-299.5 -102.161)" fill="#e68f97"/>
            <path id="Trazado_602300" data-name="Trazado 602300" d="M344.949,117.545h0c0,.008,0,.015,0,.022l.006-.005Z" transform="translate(-299.468 -102.047)" fill="#e68f97"/>
            <path id="Trazado_602301" data-name="Trazado 602301" d="M62.709,278.33a.413.413,0,0,1-.182-.138,2.81,2.81,0,0,1-1.971.635c-4.154,0-8.308.011-12.462-.01a7.848,7.848,0,0,1-3.655-.788,10.577,10.577,0,0,1-1.294-.8,2.853,2.853,0,0,0-1.464-.608c-.709-.063-.987-.466-.987-1.216q0-4.877,0-9.755h-.018c-.455.024-.909.011-1.364.008a.967.967,0,0,1-.45-.069c0,.02,0,.04.006.061.026,4.171.007,8.341.011,12.512a1.219,1.219,0,0,1-.074.5,1.481,1.481,0,0,1,.584-.079c.608,0,1.216.018,1.823-.008a2.018,2.018,0,0,1,1.408.47,7.467,7.467,0,0,0,3.94,1.663,8.446,8.446,0,0,0,.885.043H60.061c1.69,0,2.152-.345,2.642-1.971a.692.692,0,0,1,.088-.105l-.08-.342h0" transform="translate(-33.689 -230.573)" fill="#fed0c1"/>
            <path id="Trazado_602302" data-name="Trazado 602302" d="M62.073,364.246c-.49,1.627-.952,1.971-2.642,1.972H46.815a8.456,8.456,0,0,1-.885-.043,7.469,7.469,0,0,1-3.94-1.663,2.017,2.017,0,0,0-1.408-.47c-.607.026-1.215,0-1.823.008a1.479,1.479,0,0,0-.584.079.641.641,0,0,1-.1.155h0a19.842,19.842,0,0,1,2.795-.091,1.11,1.11,0,0,1,.808.279,8.308,8.308,0,0,0,5.573,1.909c4.2-.054,8.4-.016,12.606-.016a2.13,2.13,0,0,0,2.308-2.2l-.006-.028a.675.675,0,0,0-.088.105" transform="translate(-33.058 -316.041)" fill="#fed0c1"/>
            <path id="Trazado_602303" data-name="Trazado 602303" d="M38.249,277.453c0-4.17.015-8.341-.011-12.512,0-.02,0-.04-.006-.061a.456.456,0,0,1-.135-.108c0,.246-.009.492-.009.738q0,6.245-.008,12.49a.723.723,0,0,1,.1-.051,1.219,1.219,0,0,0,.074-.5" transform="translate(-33.058 -229.863)" fill="#fed0c1"/>
            <path id="Trazado_602304" data-name="Trazado 602304" d="M38.08,364.763v.105a.65.65,0,0,0,.1-.155.7.7,0,0,0-.1.05" transform="translate(-33.059 -316.626)" fill="#fed0c1"/>
            <path id="Trazado_602305" data-name="Trazado 602305" d="M218.909,360.946h0l-.022-.1-.1-.1c-.02.019-.04.036-.06.054a.413.413,0,0,0,.182.138" transform="translate(-189.888 -313.19)" fill="#fed0c1"/>
            <path id="Trazado_602306" data-name="Trazado 602306" d="M40.975,264.951h.018V264.8l-1.843-.021c0,.035.008.071.011.106a.967.967,0,0,0,.45.069c.454,0,.909.016,1.364-.008" transform="translate(-33.988 -229.873)" fill="#fed0c1"/>
            <path id="Trazado_602307" data-name="Trazado 602307" d="M38.332,264.774h-.124a.454.454,0,0,0,.135.108c0-.036-.007-.071-.011-.106" transform="translate(-33.17 -229.863)" fill="#fed0c1"/>
            <path id="Trazado_602308" data-name="Trazado 602308" d="M220.675,362.4a.3.3,0,0,1,.042.285,1.11,1.11,0,0,1,.575-.208,1.843,1.843,0,0,1-.617-.078" transform="translate(-191.579 -314.621)" fill="#7cc2ed"/>
            <path id="Trazado_602309" data-name="Trazado 602309" d="M221.384,362.964a1.111,1.111,0,0,0-.575.207.371.371,0,0,1-.028.061,7.186,7.186,0,0,0,1.081-.268c-.158-.008-.318,0-.477,0" transform="translate(-191.671 -315.104)" fill="#7cc2ed"/>
            <path id="Trazado_602310" data-name="Trazado 602310" d="M220.671,361.687a2.5,2.5,0,0,0,.3-.061c-.33-.092-.678-.075-1.012-.137h0a.949.949,0,0,1,.094.12,1.843,1.843,0,0,0,.617.078" transform="translate(-190.958 -313.827)" fill="#7cc2ed"/>
            <path id="Trazado_602311" data-name="Trazado 602311" d="M225.657,362.528a2.468,2.468,0,0,1-.3.061c.159,0,.319-.009.477,0h0a1.4,1.4,0,0,0-.177-.061" transform="translate(-195.643 -314.729)" fill="#7cc2ed"/>
            <path id="Trazado_602312" data-name="Trazado 602312" d="M220.2,362.24c-.024-.008-.048-.015-.072-.025l.08.342.034-.032a.3.3,0,0,0-.042-.285" transform="translate(-191.104 -314.457)" fill="#7cc2ed"/>
            <path id="Trazado_602313" data-name="Trazado 602313" d="M220.732,364.6l.006.028a.373.373,0,0,0,.028-.061l-.034.032" transform="translate(-191.629 -316.498)" fill="#7cc2ed"/>
            <path id="Trazado_602314" data-name="Trazado 602314" d="M220.053,361.61a.947.947,0,0,0-.094-.12l.022.1c.024.01.048.017.072.025" transform="translate(-190.958 -313.828)" fill="#7cc2ed"/>
            <path id="Trazado_602315" data-name="Trazado 602315" d="M79.163,111.683a1.872,1.872,0,0,0-.741,1.539c0,1.051.015,2.1-.006,3.152a2.754,2.754,0,0,1-1.906,2.706c-.194.072-.4.192-.6.015a2.618,2.618,0,0,1-2.687-2.471c-.071-1.642-.023-3.28-.057-4.919-.024-1.155-.529-1.682-1.676-1.682-5.749,0-11.5-.039-17.247.026a2.259,2.259,0,0,1-2.513-2.306,19.585,19.585,0,0,0-2.607,4.864,19.331,19.331,0,0,0,.365,13.851c.217.516.494,1,.722,1.51.071.16.19.33.074.5a3.063,3.063,0,0,0,2.333-.91c.7-.562,1.411-1.114,2.124-1.662a2,2,0,0,0,.859-1.682c-.009-1.019,0-2.039,0-3.058a2.547,2.547,0,0,1,2.37-2.807,2.477,2.477,0,0,1,2.662,2.37c0,1.644,0,3.288,0,4.932a1.665,1.665,0,0,0,.962,1.633,1.535,1.535,0,0,0,.721.1q8.828,0,17.655,0a2.071,2.071,0,1,1,.011,4.138c-2.975.009-5.951.005-8.926.006-.015,0-.032,0-.127.021,0,0,0,.005,0,.008a2.14,2.14,0,0,1,1.416,2.343,2.035,2.035,0,0,1-2.1,1.734.269.269,0,0,0-.018.054,2.563,2.563,0,0,1,1.358,1.8.953.953,0,0,1,.418-.185,18.186,18.186,0,0,0,7.357-3.947,18.549,18.549,0,0,0,5.779-9.047,18.871,18.871,0,0,0-1.107-13.44,17.09,17.09,0,0,0-.818-1.517.587.587,0,0,1-.1-.273,2.4,2.4,0,0,0-1.3.533c-.881.685-1.765,1.367-2.64,2.059m-7.924,7.887c-.351-.007-.47.131-.573.444a3.744,3.744,0,0,1-2.532,2.545c-.369.115-.531.268-.509.68.029.559-.249.818-.752.809a.647.647,0,0,1-.711-.749c.026-.443-.134-.611-.548-.747a3.744,3.744,0,0,1-2.5-2.574.482.482,0,0,0-.552-.405c-.6,0-.944-.3-.941-.773s.344-.768.951-.764a.484.484,0,0,0,.544-.416,3.76,3.76,0,0,1,2.561-2.578c.351-.111.5-.258.486-.646-.024-.576.233-.833.728-.835s.761.258.741.824a.557.557,0,0,0,.473.656,3.732,3.732,0,0,1,2.568,2.569.511.511,0,0,0,.586.428c.565-.007.9.3.914.751.01.472-.338.795-.93.782" transform="translate(-41.687 -93.537)" fill="#f8f6f6"/>
            <path id="Trazado_602316" data-name="Trazado 602316" d="M260.17,127a2.754,2.754,0,0,0,1.906-2.706c.021-1.05,0-2.1.006-3.152a1.872,1.872,0,0,1,.741-1.539c.876-.692,1.759-1.374,2.64-2.059a2.4,2.4,0,0,1,1.3-.533.3.3,0,0,1,.031-.144h0a2.512,2.512,0,0,0-1.465.608c-.695.54-1.375,1.1-2.1,1.6a2.694,2.694,0,0,0-1.3,2.655,23.946,23.946,0,0,1,.014,2.6,2.652,2.652,0,0,1-2.366,2.679h-.008c.194.177.4.057.6-.015" transform="translate(-225.348 -101.455)" fill="#f8f6f6"/>
            <path id="Trazado_602317" data-name="Trazado 602317" d="M238.306,118.187a17.093,17.093,0,0,1,.818,1.517,18.871,18.871,0,0,1,1.107,13.44,18.549,18.549,0,0,1-5.779,9.046,18.186,18.186,0,0,1-7.357,3.948.951.951,0,0,0-.418.185c0,.018.006.034.008.052a19.073,19.073,0,0,0,13.564-24.186,22.876,22.876,0,0,0-1.937-4.281l-.108.006a.586.586,0,0,0,.1.273" transform="translate(-196.79 -102.362)" fill="#f8f6f6"/>
            <path id="Trazado_602318" data-name="Trazado 602318" d="M314.1,117.007l.108-.006-.077-.138a.3.3,0,0,0-.031.144" transform="translate(-272.687 -101.455)" fill="#f8f6f6"/>
            <path id="Trazado_602319" data-name="Trazado 602319" d="M49.137,126.742c-.228-.509-.506-.994-.722-1.51a19.331,19.331,0,0,1-.365-13.851,19.589,19.589,0,0,1,2.607-4.864c0-.061.007-.123.014-.186a18.2,18.2,0,0,0-3.818,9.878,18.4,18.4,0,0,0,1.273,8.661c.331.8.707,1.579,1.063,2.368l.021,0c.116-.167,0-.337-.074-.5" transform="translate(-40.613 -92.311)" fill="#f8f6f6"/>
            <path id="Trazado_602320" data-name="Trazado 602320" d="M78.894,108.5c1.74.011,3.481,0,5.221,0h11.92c.23,0,.46-.008.689.015a1.557,1.557,0,0,1,1.491,1.59c.023,1.067.007,2.134.006,3.2a17.748,17.748,0,0,0,.088,2.015,2.344,2.344,0,0,0,1.881,2.185,1.48,1.48,0,0,1,.6.179,2.092,2.092,0,0,0-.259-.473,3.328,3.328,0,0,1-.638-2.079c0-2.086-.041-4.172.018-6.256a1.658,1.658,0,0,0-1.848-1.866c-6.388.035-12.777.016-19.165.017a2.515,2.515,0,0,1-2.128-.811c-.011-.018-.022-.036-.031-.054a.4.4,0,0,1-.022.086.811.811,0,0,1,.1.389,1.937,1.937,0,0,0,2.079,1.86" transform="translate(-66.601 -92.166)" fill="#fed0c1"/>
            <path id="Trazado_602321" data-name="Trazado 602321" d="M76.88,105.583c.009.018.019.036.031.054a2.514,2.514,0,0,0,2.128.811c6.388,0,12.777.018,19.165-.017a1.658,1.658,0,0,1,1.848,1.866c-.059,2.084-.013,4.171-.018,6.256a3.328,3.328,0,0,0,.638,2.079,2.093,2.093,0,0,1,.259.472.482.482,0,0,1,.045.037c.206-.142.088-.248-.025-.38a3.447,3.447,0,0,1-.771-2.414c.025-2.135.009-4.27.008-6.4a1.546,1.546,0,0,0-1.663-1.649c-6.388,0-12.776-.009-19.164.01a3.211,3.211,0,0,1-2.479-.81h0a.316.316,0,0,1,0,.088" transform="translate(-66.743 -91.586)" fill="#fed0c1"/>
            <path id="Trazado_602322" data-name="Trazado 602322" d="M76.367,105.816c-.009-.018-.017-.035-.024-.053l-.054.075h0a.359.359,0,0,1,.056.063.392.392,0,0,0,.022-.085" transform="translate(-66.23 -91.818)" fill="#fed0c1"/>
            <path id="Trazado_602323" data-name="Trazado 602323" d="M76.724,105.5l-.025.035c.007.018.015.035.024.053a.316.316,0,0,0,0-.088" transform="translate(-66.586 -91.587)" fill="#fed0c1"/>
            <path id="Trazado_602324" data-name="Trazado 602324" d="M78.676,109.241c5.748-.065,11.5-.027,17.247-.026,1.147,0,1.652.528,1.676,1.682.034,1.639-.015,3.277.057,4.919a2.618,2.618,0,0,0,2.687,2.471c-.012-.011-.024-.023-.036-.036v0a1.478,1.478,0,0,0-.6-.179,2.345,2.345,0,0,1-1.882-2.185,17.812,17.812,0,0,1-.088-2.015c0-1.067.016-2.135-.006-3.2a1.557,1.557,0,0,0-1.491-1.59c-.229-.023-.459-.014-.689-.015H83.633c-1.74,0-3.481.008-5.221,0a1.937,1.937,0,0,1-2.079-1.86.813.813,0,0,0-.1-.389.559.559,0,0,1-.027.06l-.044.062a2.259,2.259,0,0,0,2.513,2.306" transform="translate(-66.119 -92.729)" fill="#fed0c1"/>
            <path id="Trazado_602325" data-name="Trazado 602325" d="M259.3,193.559a.506.506,0,0,0,.036.036h.008a.506.506,0,0,0-.045-.037v0" transform="translate(-225.108 -168.037)" fill="#fed0c1"/>
            <path id="Trazado_602326" data-name="Trazado 602326" d="M76.223,106.455a.545.545,0,0,0,.027-.06.353.353,0,0,0-.056-.063c-.007.063-.011.125-.014.186l.043-.062" transform="translate(-66.136 -92.311)" fill="#fed0c1"/>
            <path id="Trazado_602327" data-name="Trazado 602327" d="M97.667,58.5a.881.881,0,0,1,.365.042,2.2,2.2,0,0,1,.721-4.121,3.735,3.735,0,0,1-.9-1.032l-.023-.061a18.221,18.221,0,0,0-2.311.7l-.179.147c-.976.5-1.982.943-2.915,1.528a16.948,16.948,0,0,0-3.16,2.487,3.738,3.738,0,0,1-.4.377,2.922,2.922,0,0,1,.579-.064l8.22,0" transform="translate(-77.151 -46.294)" fill="#f8f6f6"/>
            <path id="Trazado_602328" data-name="Trazado 602328" d="M95.948,53.22a3.735,3.735,0,0,0,.9,1.032,2.2,2.2,0,0,0-.721,4.121.881.881,0,0,0-.365-.042l-8.22,0a2.921,2.921,0,0,0-.579.064,1.233,1.233,0,0,1-.29.167,9.378,9.378,0,0,1,1.909-.09q3.746,0,7.491,0c.129,0,.258-.017.481-.032a2.137,2.137,0,0,1-1.469-2.075c.079-1.273.882-1.887,2.166-2.034a3.127,3.127,0,0,1-1.2-1.194l-.124.025.023.061" transform="translate(-75.243 -46.128)" fill="#f8f6f6"/>
            <path id="Trazado_602329" data-name="Trazado 602329" d="M88.149,62.764a16.947,16.947,0,0,1,3.16-2.487c.933-.586,1.939-1.028,2.915-1.528L94.4,58.6l-.22.074h0c-.074.033-.148.068-.223.1a18.257,18.257,0,0,0-6.381,4.4l.17-.037a3.738,3.738,0,0,0,.4-.377" transform="translate(-76.033 -50.875)" fill="#f8f6f6"/>
            <path id="Trazado_602330" data-name="Trazado 602330" d="M86.96,93.022q-.085.017-.17.037c-.04.044-.081.086-.12.13a1.234,1.234,0,0,0,.29-.167" transform="translate(-75.243 -80.757)" fill="#f8f6f6"/>
            <path id="Trazado_602331" data-name="Trazado 602331" d="M143.242,47.129a2.21,2.21,0,0,1-.152-.829,1.626,1.626,0,0,1-.321.263c-.54.356-1.053.75-1.555,1.156a14.75,14.75,0,0,1,1.814-.586.371.371,0,0,1,.214,0" transform="translate(-122.595 -40.195)" fill="#64abdb"/>
            <path id="Trazado_602332" data-name="Trazado 602332" d="M155.587,45.978a.572.572,0,0,1,.16.072,2.635,2.635,0,0,1-.188-1.076.8.8,0,0,1-.124.175,2.21,2.21,0,0,0,.152.829" transform="translate(-134.94 -39.044)" fill="#64abdb"/>
            <path id="Trazado_602333" data-name="Trazado 602333" d="M139.689,45.929a1.622,1.622,0,0,0,.321-.263c0-.032,0-.064.007-.1a15.359,15.359,0,0,0-2.351,1.792,2.943,2.943,0,0,1,.468-.277c.5-.407,1.015-.8,1.555-1.156" transform="translate(-119.515 -39.562)" fill="#64abdb"/>
            <path id="Trazado_602334" data-name="Trazado 602334" d="M155.567,44.974h0l-.117.079c0,.032-.006.064-.007.1a.8.8,0,0,0,.124-.175" transform="translate(-134.948 -39.044)" fill="#64abdb"/>
            <path id="Trazado_602335" data-name="Trazado 602335" d="M141.612,52.5a.371.371,0,0,0-.214,0,14.75,14.75,0,0,0-1.814.586l-.248.2a18.211,18.211,0,0,1,2.312-.7q-.018-.048-.036-.1" transform="translate(-120.965 -45.566)" fill="#64abdb"/>
            <path id="Trazado_602336" data-name="Trazado 602336" d="M156.632,52.686c.042-.008.083-.018.124-.025a.575.575,0,0,0-.16-.072q.017.049.036.1" transform="translate(-135.949 -45.655)" fill="#64abdb"/>
            <path id="Trazado_602337" data-name="Trazado 602337" d="M137.885,57.267l.247-.2a2.949,2.949,0,0,0-.468.276h0l.22-.074" transform="translate(-119.514 -49.54)" fill="#64abdb"/>
            <path id="Trazado_602338" data-name="Trazado 602338" d="M76.374,208.089a2.351,2.351,0,0,0-.857-1.174c-.12-.1-.328-.172-.291-.36,0,0,0-.006,0-.009l-.073-.047.092-.008c.069-.148.257-.171.412-.2a1.784,1.784,0,0,0,1.364-1.02,1.86,1.86,0,0,0-.67-2.43c-.166-.122-.483-.212-.42-.423v0l-.011-.006.015,0c.079-.223.392-.164.612-.164q4.092-.008,8.183,0a2.619,2.619,0,0,0,1.2-.238,1.865,1.865,0,0,0,1.06-1.9,1.932,1.932,0,0,0-1.428-1.645,3.8,3.8,0,0,0-.979-.082q-8.553,0-17.106,0a1.922,1.922,0,0,1-1.409-.462A1.943,1.943,0,0,1,65.5,196.4c-.005-1.561.008-3.122-.005-4.683a2.278,2.278,0,0,0-1.891-2.313,2.32,2.32,0,0,0-2.631,1.419,3.551,3.551,0,0,0-.221,1.3c0,.953,0,1.906,0,2.859a2.2,2.2,0,0,1-.884,1.837q-1.3,1.022-2.607,2.027a2.676,2.676,0,0,1-1.338.586.714.714,0,0,1-.635-.112.418.418,0,0,1-.066.069,5.01,5.01,0,0,1-1.432.072,1.606,1.606,0,0,1,.06.659q.005,4.313,0,8.627c0,.2-.007.395.012.591a.887.887,0,0,0,.845.929,3.319,3.319,0,0,1,1.6.7,7.81,7.81,0,0,0,4.853,1.512c4.124.016,8.249.006,12.373,0a2.893,2.893,0,0,0,1.692-.434.522.522,0,0,1,.273-.113,1.972,1.972,0,0,0-1.107-1.1c-.114-.041-.292-.086-.257-.247s.2-.147.332-.148a2.045,2.045,0,0,0,1.584-.765c.331-.38.312-.883.505-1.309a.489.489,0,0,1-.188-.289" transform="translate(-46.7 -164.389)" fill="#fedfd0"/>
            <path id="Trazado_602339" data-name="Trazado 602339" d="M210.009,334.937a2.044,2.044,0,0,1-1.584.765c-.127,0-.3,0-.332.148s.144.206.257.247a1.972,1.972,0,0,1,1.107,1.1.3.3,0,0,1,.094.012h0a2,2,0,0,0-1.371-1.347,2.153,2.153,0,0,0,2.367-2.205.375.375,0,0,1-.034-.024c-.193.426-.174.929-.505,1.309" transform="translate(-180.652 -289.64)" fill="#fedfd0"/>
            <path id="Trazado_602340" data-name="Trazado 602340" d="M54.644,264.971a.418.418,0,0,0,.066-.069l-.014-.012-1.572.007a.608.608,0,0,1,.088.146,5.009,5.009,0,0,0,1.432-.072" transform="translate(-46.12 -229.965)" fill="#fedfd0"/>
            <path id="Trazado_602341" data-name="Trazado 602341" d="M74.651,278.636a2.892,2.892,0,0,1-1.692.434c-4.124,0-8.249.012-12.373,0a7.809,7.809,0,0,1-4.853-1.512,3.319,3.319,0,0,0-1.6-.7.887.887,0,0,1-.845-.929c-.019-.2-.012-.394-.012-.591q0-4.313,0-8.627a1.6,1.6,0,0,0-.061-.658h-.088q0,4.877,0,9.755c0,.751.279,1.153.987,1.216a2.851,2.851,0,0,1,1.464.608,10.579,10.579,0,0,0,1.294.8,7.847,7.847,0,0,0,3.655.788c4.154.021,8.308.006,12.462.01a2.809,2.809,0,0,0,1.971-.635l0,0c-.01-.021-.021-.042-.031-.063a.521.521,0,0,0-.273.113" transform="translate(-46.119 -230.97)" fill="#fedfd0"/>
            <path id="Trazado_602342" data-name="Trazado 602342" d="M218.472,360.665c.01.021.021.041.031.063l0,0c.02-.018.04-.035.06-.054a.3.3,0,0,0-.094-.012" transform="translate(-189.667 -313.112)" fill="#fedfd0"/>
            <path id="Trazado_602343" data-name="Trazado 602343" d="M53.125,265.088h.088a.608.608,0,0,0-.088-.146v.146" transform="translate(-46.121 -230.01)" fill="#fedfd0"/>
            <path id="Trazado_602344" data-name="Trazado 602344" d="M216.326,319.733s0,.005,0,.009c-.038.189.17.259.291.36a2.35,2.35,0,0,1,.857,1.174.489.489,0,0,0,.188.289l0-.008.022-.02a2.562,2.562,0,0,0-1.358-1.8" transform="translate(-187.797 -277.577)" fill="#fedfd0"/>
            <path id="Trazado_602345" data-name="Trazado 602345" d="M217.619,288.824a1.86,1.86,0,0,1,.67,2.43,1.784,1.784,0,0,1-1.364,1.02c-.155.03-.343.053-.412.2a2.036,2.036,0,0,0,2.1-1.734A2.14,2.14,0,0,0,217.2,288.4v0c-.063.211.254.3.42.423" transform="translate(-187.966 -250.373)" fill="#fedfd0"/>
            <path id="Trazado_602346" data-name="Trazado 602346" d="M65.789,198.318a2.675,2.675,0,0,0,1.338-.586q1.31-1.006,2.607-2.027a2.2,2.2,0,0,0,.884-1.837c-.005-.953,0-1.906,0-2.859a3.546,3.546,0,0,1,.221-1.3,2.32,2.32,0,0,1,2.631-1.419,2.277,2.277,0,0,1,1.891,2.313c.014,1.561,0,3.122.005,4.683a1.944,1.944,0,0,0,.567,1.521,1.923,1.923,0,0,0,1.409.462q8.553-.009,17.106,0a3.8,3.8,0,0,1,.979.082,1.932,1.932,0,0,1,1.428,1.645,1.865,1.865,0,0,1-1.06,1.9,2.619,2.619,0,0,1-1.2.238q-4.092-.006-8.183,0c-.219,0-.533-.059-.612.164.1-.016.112-.021.127-.021,2.975,0,5.951,0,8.926-.006a2.071,2.071,0,1,0-.011-4.138q-8.828-.005-17.656,0a1.534,1.534,0,0,1-.721-.1,1.665,1.665,0,0,1-.962-1.633c0-1.644,0-3.288,0-4.932a2.477,2.477,0,0,0-2.662-2.37,2.547,2.547,0,0,0-2.37,2.807c0,1.019-.007,2.039,0,3.058a2,2,0,0,1-.859,1.682c-.712.548-1.422,1.1-2.124,1.662a3.063,3.063,0,0,1-2.333.91l-.007.01a.714.714,0,0,0,.635.112" transform="translate(-56.564 -163.268)" fill="#fedfd0"/>
            <path id="Trazado_602347" data-name="Trazado 602347" d="M226.487,333.438l0,.008a.372.372,0,0,0,.034.024c0-.018-.006-.035-.008-.052l-.022.02" transform="translate(-196.622 -289.457)" fill="#fedfd0"/>
            <path id="Trazado_602348" data-name="Trazado 602348" d="M65.067,264.892l-.021,0,.014.012.007-.01" transform="translate(-56.47 -229.965)" fill="#fedfd0"/>
            <path id="Trazado_602349" data-name="Trazado 602349" d="M160.8,156.341a.511.511,0,0,1-.586-.428,3.732,3.732,0,0,0-2.568-2.569.557.557,0,0,1-.473-.656c.02-.566-.244-.825-.741-.824s-.751.259-.728.835c.016.388-.135.536-.486.646a3.76,3.76,0,0,0-2.561,2.578.484.484,0,0,1-.544.416c-.607,0-.947.294-.951.764s.34.776.941.773a.482.482,0,0,1,.552.405,3.744,3.744,0,0,0,2.5,2.573c.415.137.574.3.548.748a.647.647,0,0,0,.711.749c.5.009.781-.25.752-.809-.022-.413.14-.565.509-.68a3.744,3.744,0,0,0,2.532-2.545c.1-.313.222-.451.573-.444.593.013.941-.311.93-.782-.01-.451-.349-.759-.914-.751m-1.937.785a2.421,2.421,0,0,1-2.419,2.449,2.466,2.466,0,0,1-.016-4.932,2.415,2.415,0,0,1,2.434,2.483" transform="translate(-131.227 -131.842)" fill="#da4655"/>
            <path id="Trazado_602350" data-name="Trazado 602350" d="M174.988,172.931a2.466,2.466,0,0,0,.016,4.932,2.467,2.467,0,0,0-.016-4.932m-.016,3.331a.887.887,0,0,1,.025-1.746c.457,0,.753.363.743.911a.763.763,0,0,1-.768.835" transform="translate(-149.791 -150.13)" fill="#f8f6f6"/>
            <path id="Trazado_602351" data-name="Trazado 602351" d="M186.274,184.956a.887.887,0,0,0-.025,1.746.763.763,0,0,0,.768-.835c.01-.548-.286-.91-.743-.91" transform="translate(-161.068 -160.57)" fill="#e69098"/>
          </g>
        </g>
      </g>
    </g>
    <g id="Grupo_886191" data-name="Grupo 886191">
      <path id="Trazado_608261" data-name="Trazado 608261" d="M5.285,5.625,9,14.906l3.719-9.281h1.945V17h-1.5V12.57l.141-4.781L9.574,17H8.426L4.7,7.813l.148,4.758V17h-1.5V5.625ZM18.66,17H17.215V8.547H18.66ZM17.1,6.3a.863.863,0,0,1,.215-.594.807.807,0,0,1,.637-.242.819.819,0,0,1,.641.242.854.854,0,0,1,.219.594.826.826,0,0,1-.219.586.834.834,0,0,1-.641.234.821.821,0,0,1-.637-.234A.834.834,0,0,1,17.1,6.3Zm8.8,8.453a1.064,1.064,0,0,0-.441-.91,4.249,4.249,0,0,0-1.539-.559,7.277,7.277,0,0,1-1.742-.562,2.479,2.479,0,0,1-.953-.781,1.869,1.869,0,0,1-.309-1.078,2.193,2.193,0,0,1,.879-1.758,3.432,3.432,0,0,1,2.246-.719,3.532,3.532,0,0,1,2.332.742,2.357,2.357,0,0,1,.895,1.9H25.809a1.3,1.3,0,0,0-.5-1.023,1.888,1.888,0,0,0-1.27-.43,1.976,1.976,0,0,0-1.234.344,1.082,1.082,0,0,0-.445.9.877.877,0,0,0,.414.789,5.1,5.1,0,0,0,1.5.508,7.8,7.8,0,0,1,1.754.578,2.558,2.558,0,0,1,1,.809,1.988,1.988,0,0,1,.324,1.152,2.163,2.163,0,0,1-.906,1.816,3.8,3.8,0,0,1-2.352.684,4.257,4.257,0,0,1-1.8-.359,2.922,2.922,0,0,1-1.223-1,2.42,2.42,0,0,1-.441-1.395h1.445a1.5,1.5,0,0,0,.582,1.152,2.258,2.258,0,0,0,1.434.426,2.331,2.331,0,0,0,1.316-.332A1.02,1.02,0,0,0,25.895,14.758ZM30.793,17H29.348V8.547h1.445ZM29.23,6.3a.863.863,0,0,1,.215-.594.807.807,0,0,1,.637-.242.819.819,0,0,1,.641.242.854.854,0,0,1,.219.594.826.826,0,0,1-.219.586.834.834,0,0,1-.641.234.821.821,0,0,1-.637-.234A.834.834,0,0,1,29.23,6.3ZM32.723,12.7a4.993,4.993,0,0,1,.488-2.234A3.643,3.643,0,0,1,34.57,8.93a3.7,3.7,0,0,1,1.988-.539,3.565,3.565,0,0,1,2.793,1.2,4.6,4.6,0,0,1,1.066,3.18v.1a5.036,5.036,0,0,1-.473,2.215,3.589,3.589,0,0,1-1.352,1.527,3.743,3.743,0,0,1-2.02.547,3.556,3.556,0,0,1-2.785-1.2A4.575,4.575,0,0,1,32.723,12.8Zm1.453.172a3.616,3.616,0,0,0,.652,2.258,2.211,2.211,0,0,0,3.5-.012,3.955,3.955,0,0,0,.648-2.418,3.61,3.61,0,0,0-.66-2.254,2.1,2.1,0,0,0-1.754-.863,2.075,2.075,0,0,0-1.727.852A3.925,3.925,0,0,0,34.176,12.867ZM37.215,5h1.75L36.871,7.3l-1.164,0ZM43.6,8.547l.047,1.063a3.08,3.08,0,0,1,2.531-1.219q2.68,0,2.7,3.023V17H47.434V11.406a1.946,1.946,0,0,0-.418-1.352,1.675,1.675,0,0,0-1.277-.437,2.086,2.086,0,0,0-1.234.375,2.546,2.546,0,0,0-.828.984V17H42.23V8.547ZM54.668,12.7a4.952,4.952,0,0,1,.922-3.129,3.137,3.137,0,0,1,4.766-.168V5H61.8V17H60.473l-.07-.906a2.943,2.943,0,0,1-2.414,1.063,2.887,2.887,0,0,1-2.395-1.2,5.008,5.008,0,0,1-.926-3.141Zm1.445.164a3.749,3.749,0,0,0,.594,2.25,1.92,1.92,0,0,0,1.641.813A2.108,2.108,0,0,0,60.355,14.7V10.813a2.125,2.125,0,0,0-1.992-1.2,1.929,1.929,0,0,0-1.656.82A4.128,4.128,0,0,0,56.113,12.867Zm11.438,4.289a3.693,3.693,0,0,1-2.8-1.129,4.19,4.19,0,0,1-1.078-3.02v-.266a5.073,5.073,0,0,1,.48-2.246A3.748,3.748,0,0,1,65.5,8.949a3.378,3.378,0,0,1,1.871-.559,3.166,3.166,0,0,1,2.563,1.086,4.7,4.7,0,0,1,.914,3.109v.6H65.121a3,3,0,0,0,.73,2.02,2.3,2.3,0,0,0,1.777.77,2.517,2.517,0,0,0,1.3-.312,3.259,3.259,0,0,0,.93-.828l.883.688A3.55,3.55,0,0,1,67.551,17.156Zm-.18-7.578a1.928,1.928,0,0,0-1.469.637A3.1,3.1,0,0,0,65.168,12H69.4v-.109a2.753,2.753,0,0,0-.594-1.707A1.815,1.815,0,0,0,67.371,9.578ZM78.051,17H76.605V5h1.445Zm7.531,0a3.036,3.036,0,0,1-.2-.891,3.225,3.225,0,0,1-2.406,1.047,2.984,2.984,0,0,1-2.051-.707,2.288,2.288,0,0,1-.8-1.793,2.39,2.39,0,0,1,1-2.051,4.733,4.733,0,0,1,2.824-.73h1.406v-.664A1.623,1.623,0,0,0,84.9,10a1.821,1.821,0,0,0-1.336-.449,2.108,2.108,0,0,0-1.3.391,1.151,1.151,0,0,0-.523.945H80.293a2,2,0,0,1,.449-1.223,3.066,3.066,0,0,1,1.219-.934,4.1,4.1,0,0,1,1.691-.344,3.342,3.342,0,0,1,2.289.73,2.635,2.635,0,0,1,.859,2.012v3.891a4.757,4.757,0,0,0,.3,1.852V17Zm-2.4-1.1a2.54,2.54,0,0,0,1.289-.352,2.127,2.127,0,0,0,.883-.914V12.9H84.223q-2.656,0-2.656,1.555a1.316,1.316,0,0,0,.453,1.063A1.742,1.742,0,0,0,83.184,15.9ZM18.441,41.156a3.693,3.693,0,0,1-2.8-1.129,4.19,4.19,0,0,1-1.078-3.02v-.266a5.073,5.073,0,0,1,.48-2.246,3.748,3.748,0,0,1,1.344-1.547,3.378,3.378,0,0,1,1.871-.559,3.166,3.166,0,0,1,2.563,1.086,4.7,4.7,0,0,1,.914,3.109v.6H16.012a3,3,0,0,0,.73,2.02,2.3,2.3,0,0,0,1.777.77,2.517,2.517,0,0,0,1.3-.312,3.259,3.259,0,0,0,.93-.828l.883.688A3.55,3.55,0,0,1,18.441,41.156Zm-.18-7.578a1.928,1.928,0,0,0-1.469.637A3.1,3.1,0,0,0,16.059,36h4.234v-.109a2.753,2.753,0,0,0-.594-1.707A1.815,1.815,0,0,0,18.262,33.578Zm6.508-1.031.039.938a3.122,3.122,0,0,1,2.508-1.094A2.417,2.417,0,0,1,29.73,33.75a3.2,3.2,0,0,1,1.1-.984,3.242,3.242,0,0,1,1.6-.375q2.781,0,2.828,2.945V41H33.809V35.422a1.941,1.941,0,0,0-.414-1.355A1.823,1.823,0,0,0,32,33.617a1.916,1.916,0,0,0-1.336.48,1.949,1.949,0,0,0-.617,1.293V41H28.6V35.461a1.613,1.613,0,0,0-1.8-1.844,1.934,1.934,0,0,0-1.945,1.211V41H23.4V32.547Zm19.8,4.32a5.062,5.062,0,0,1-.883,3.109,2.829,2.829,0,0,1-2.391,1.18,3.1,3.1,0,0,1-2.422-.977v4.07H37.434v-11.7h1.32l.07.938a2.977,2.977,0,0,1,2.453-1.094,2.882,2.882,0,0,1,2.41,1.148,5.117,5.117,0,0,1,.887,3.2ZM43.129,36.7a3.735,3.735,0,0,0-.609-2.258,1.963,1.963,0,0,0-1.672-.828,2.125,2.125,0,0,0-1.969,1.164V38.82a2.129,2.129,0,0,0,1.984,1.156,1.954,1.954,0,0,0,1.652-.824A4.077,4.077,0,0,0,43.129,36.7ZM50.5,33.844a4.331,4.331,0,0,0-.711-.055A1.9,1.9,0,0,0,47.855,35v6H46.41V32.547h1.406l.023.977a2.251,2.251,0,0,1,2.016-1.133,1.477,1.477,0,0,1,.641.109Zm4.836,7.313a3.693,3.693,0,0,1-2.8-1.129,4.19,4.19,0,0,1-1.078-3.02v-.266a5.073,5.073,0,0,1,.48-2.246,3.748,3.748,0,0,1,1.344-1.547,3.378,3.378,0,0,1,1.871-.559,3.166,3.166,0,0,1,2.563,1.086,4.7,4.7,0,0,1,.914,3.109v.6H52.9a3,3,0,0,0,.73,2.02,2.3,2.3,0,0,0,1.777.77,2.517,2.517,0,0,0,1.3-.312,3.258,3.258,0,0,0,.93-.828l.883.688A3.55,3.55,0,0,1,55.332,41.156Zm-.18-7.578a1.928,1.928,0,0,0-1.469.637A3.1,3.1,0,0,0,52.949,36h4.234v-.109a2.753,2.753,0,0,0-.594-1.707A1.815,1.815,0,0,0,55.152,33.578Zm10.07,5.18a1.064,1.064,0,0,0-.441-.91,4.249,4.249,0,0,0-1.539-.559,7.277,7.277,0,0,1-1.742-.562,2.479,2.479,0,0,1-.953-.781,1.869,1.869,0,0,1-.309-1.078,2.193,2.193,0,0,1,.879-1.758,3.432,3.432,0,0,1,2.246-.719,3.532,3.532,0,0,1,2.332.742,2.357,2.357,0,0,1,.895,1.9H65.137a1.3,1.3,0,0,0-.5-1.023,1.888,1.888,0,0,0-1.27-.43,1.976,1.976,0,0,0-1.234.344,1.082,1.082,0,0,0-.445.9.877.877,0,0,0,.414.789,5.1,5.1,0,0,0,1.5.508,7.8,7.8,0,0,1,1.754.578,2.558,2.558,0,0,1,1,.809,1.988,1.988,0,0,1,.324,1.152,2.163,2.163,0,0,1-.906,1.816,3.8,3.8,0,0,1-2.352.684,4.257,4.257,0,0,1-1.8-.359,2.922,2.922,0,0,1-1.223-1,2.42,2.42,0,0,1-.441-1.395h1.445a1.5,1.5,0,0,0,.582,1.152,2.258,2.258,0,0,0,1.434.426,2.331,2.331,0,0,0,1.316-.332A1.02,1.02,0,0,0,65.223,38.758ZM73.77,41a3.036,3.036,0,0,1-.2-.891,3.225,3.225,0,0,1-2.406,1.047,2.984,2.984,0,0,1-2.051-.707,2.288,2.288,0,0,1-.8-1.793,2.39,2.39,0,0,1,1-2.051,4.733,4.733,0,0,1,2.824-.73h1.406v-.664A1.623,1.623,0,0,0,73.09,34a1.821,1.821,0,0,0-1.336-.449,2.107,2.107,0,0,0-1.3.391,1.151,1.151,0,0,0-.523.945H68.48a2,2,0,0,1,.449-1.223,3.066,3.066,0,0,1,1.219-.934,4.1,4.1,0,0,1,1.691-.344,3.342,3.342,0,0,1,2.289.73,2.635,2.635,0,0,1,.859,2.012v3.891a4.757,4.757,0,0,0,.3,1.852V41Zm-2.4-1.1a2.54,2.54,0,0,0,1.289-.352,2.127,2.127,0,0,0,.883-.914V36.9H72.41q-2.656,0-2.656,1.555a1.316,1.316,0,0,0,.453,1.063A1.742,1.742,0,0,0,71.371,39.9Z" transform="translate(285 23813.488)" fill="#12263f"/>
      <g id="Grupo_886184" data-name="Grupo 886184" transform="translate(3)">
        <g id="Elipse_6614" data-name="Elipse 6614" transform="translate(285 23712)" fill="#fff" stroke="#72e0fa" stroke-width="1">
          <circle cx="42.5" cy="42.5" r="42.5" stroke="none"/>
          <circle cx="42.5" cy="42.5" r="42" fill="none"/>
        </g>
        <g id="Grupo_886169" data-name="Grupo 886169" transform="translate(302 23730)">
          <g id="Grupo_886156" data-name="Grupo 886156" clip-path="url(#clip-path-3)">
            <path id="Trazado_602145" data-name="Trazado 602145" d="M.17,56.468a48.551,48.551,0,0,0,3.87,4.067c.168.182.4.324.439.6.95.938,1.92,1.857,2.841,2.823a1.943,1.943,0,0,0,1.949.585c.941-.187,1.889-.34,2.834-.507h0l2.94-.556c-.013-.246-.222-.353-.367-.5Q10,58.291,5.311,53.609c-.138-.138-.263-.289-.394-.434Q2.9,53.913.893,54.651A1.82,1.82,0,0,0,0,55.627v.787a.139.139,0,0,1,.17.054" transform="translate(0 -46.187)" fill="#29376d"/>
            <path id="Trazado_602146" data-name="Trazado 602146" d="M4.442,82.434h0l.038.037c-.036-.273-.271-.416-.439-.6A48.594,48.594,0,0,1,.17,77.806.139.139,0,0,0,0,77.752a4.735,4.735,0,0,0,.952,1.155q1.749,1.76,3.49,3.527" transform="translate(0 -67.525)" fill="#29376d"/>
            <path id="Trazado_602147" data-name="Trazado 602147" d="M54.452,1.39c-.4,1.184-.846,2.352-1.274,3.526.133.119.272.233.4.36q4.7,4.7,9.405,9.4c.145.145.253.353.5.368l.554-2.939h0c.169-.945.322-1.893.51-2.835a1.935,1.935,0,0,0-.58-1.949C63,6.4,62.081,5.434,61.145,4.485c-.226-.018-.361-.2-.51-.348Q59.2,2.709,57.768,1.273A5.743,5.743,0,0,0,56.587.258C56.5.206,56.375.15,56.416,0H55.63a2.1,2.1,0,0,0-1.178,1.39" transform="translate(-46.19)" fill="#29376d"/>
            <path id="Trazado_602148" data-name="Trazado 602148" d="M77.937.258a5.743,5.743,0,0,1,1.181,1.015q1.433,1.433,2.867,2.864c.149.148.284.33.51.348l-.043-.044h0Q80.7,2.709,78.95.977A4.874,4.874,0,0,0,77.767,0c-.041.15.079.206.171.258" transform="translate(-67.54)" fill="#29376d"/>
            <path id="Trazado_602149" data-name="Trazado 602149" d="M201.565,22.617c6.548,1.61,10.822,5.646,12.395,12.185a16.062,16.062,0,0,1-12.341,19.453,11.811,11.811,0,0,1-3.357.319l.009.027q0,4.006,0,8.013A24.174,24.174,0,0,0,222.2,41.787a23.7,23.7,0,0,0-1.635-12.654,24.27,24.27,0,0,0-19.437-14.715c-.954-.122-1.913-.108-2.87-.141q0,3.983.007,7.967a31.189,31.189,0,0,1,3.3.375" transform="translate(-172.206 -12.4)" fill="#e53950"/>
            <path id="Trazado_602150" data-name="Trazado 602150" d="M198.26,13.4c.957.033,1.916.019,2.87.141a24.27,24.27,0,0,1,19.437,14.715A24.163,24.163,0,0,1,215.5,54.517a24.188,24.188,0,0,1-17.227,7.224v.117a20.855,20.855,0,0,0,5.541-.616,24.346,24.346,0,0,0,18.564-20.723,22.661,22.661,0,0,0-.487-8.572c-2.578-9.593-8.72-15.629-18.334-18.106a18.029,18.029,0,0,0-5.294-.553c0,.038,0,.077,0,.115" transform="translate(-172.205 -11.526)" fill="#e53950"/>
            <path id="Trazado_602151" data-name="Trazado 602151" d="M38.367,142a1.028,1.028,0,0,1,.025-.194.505.505,0,0,1,.066-.158l0,0a16.183,16.183,0,0,1-13.974-24.224c-.9.17-1.794.324-2.69.5a2.227,2.227,0,0,1-2.22-.68c-.753-.813-1.562-1.575-2.345-2.36a1.172,1.172,0,0,1-.3-.386,32.108,32.108,0,0,0-1.474,3.658,24.675,24.675,0,0,0,.05,14.839,23.714,23.714,0,0,0,4.552,8.137,24.029,24.029,0,0,0,7.285,5.82,24.69,24.69,0,0,0,11.088,2.715.82.82,0,0,1-.069-.385c-.006-2.425-.015-4.85,0-7.275" transform="translate(-12.456 -99.442)" fill="#fe6c6c"/>
            <path id="Trazado_602152" data-name="Trazado 602152" d="M33.616,148.452a23.478,23.478,0,0,1-7.394-2.411,24.032,24.032,0,0,1-7.285-5.82,23.715,23.715,0,0,1-4.552-8.137,24.675,24.675,0,0,1-.05-14.839,32.091,32.091,0,0,1,1.474-3.658.508.508,0,0,1-.033-.136c-.064.114-.134.226-.191.343a24.344,24.344,0,0,0,9.847,31.948A23.5,23.5,0,0,0,37.4,148.872a.454.454,0,0,1-.087-.117,23.489,23.489,0,0,1-3.694-.3" transform="translate(-11.333 -98.541)" fill="#fe6c6c"/>
            <path id="Trazado_602153" data-name="Trazado 602153" d="M34.048,113.83a1.172,1.172,0,0,0,.3.386c.783.785,1.592,1.547,2.345,2.36a2.227,2.227,0,0,0,2.219.679c.9-.172,1.794-.325,2.69-.5.024-.043.046-.086.07-.129h0c-.945.168-1.893.32-2.834.507a1.942,1.942,0,0,1-1.949-.585c-.92-.966-1.89-1.886-2.841-2.823a.521.521,0,0,1,.007.072l-.012.027" transform="translate(-29.574 -98.785)" fill="#fe6c6c"/>
            <path id="Trazado_602154" data-name="Trazado 602154" d="M33.844,113.559a.522.522,0,0,0-.007-.072l-.038-.037a.508.508,0,0,0,.033.136l.012-.027" transform="translate(-29.357 -98.541)" fill="#fe6c6c"/>
            <path id="Trazado_602155" data-name="Trazado 602155" d="M197.189,321.117l0,0a.5.5,0,0,0-.066.158,1.023,1.023,0,0,0-.025.194c-.019,2.425-.01,4.85,0,7.275a.821.821,0,0,0,.069.385h.087q0-4.006,0-8.013h-.059" transform="translate(-171.183 -278.917)" fill="#fe6c6c"/>
            <path id="Trazado_602156" data-name="Trazado 602156" d="M197.75,382.1h-.087a.454.454,0,0,0,.087.117V382.1" transform="translate(-171.687 -331.888)" fill="#fe6c6c"/>
            <path id="Trazado_602157" data-name="Trazado 602157" d="M114.992,17.167c.789.787,1.555,1.6,2.37,2.356a2.185,2.185,0,0,1,.665,2.187c-.181.9-.318,1.807-.5,2.707a15.884,15.884,0,0,1,8.079-2.113c0-.019,0-.037.006-.056a.516.516,0,0,1-.105-.155,1.785,1.785,0,0,1-.053-.535q0-3.355,0-6.71a1.282,1.282,0,0,1,.081-.589,26.755,26.755,0,0,0-4.193.383,23.453,23.453,0,0,0-6.283,2.038,2.045,2.045,0,0,1-.444.185,1.259,1.259,0,0,1,.373.3" transform="translate(-99.556 -12.386)" fill="#fe6c6c"/>
            <path id="Trazado_602158" data-name="Trazado 602158" d="M114.071,15.891a23.454,23.454,0,0,1,6.283-2.038,26.754,26.754,0,0,1,4.193-.383.6.6,0,0,1,.072-.113,20.735,20.735,0,0,0-4.007.309,23.48,23.48,0,0,0-7.135,2.371h0a.52.52,0,0,1,.15.039,2.045,2.045,0,0,0,.444-.185" transform="translate(-98.564 -11.596)" fill="#fe6c6c"/>
            <path id="Trazado_602159" data-name="Trazado 602159" d="M117.321,38.937a2.185,2.185,0,0,0-.665-2.187c-.815-.759-1.582-1.569-2.37-2.356a1.255,1.255,0,0,0-.373-.3l-.008,0a.488.488,0,0,1-.1,0c.936.949,1.852,1.918,2.818,2.835a1.935,1.935,0,0,1,.58,1.949c-.188.941-.342,1.889-.51,2.835l.131-.071c.178-.9.315-1.808.5-2.707" transform="translate(-98.849 -29.613)" fill="#fe6c6c"/>
            <path id="Trazado_602160" data-name="Trazado 602160" d="M113.62,33.836l.008,0a.52.52,0,0,0-.15-.039l.043.044a.488.488,0,0,0,.1,0" transform="translate(-98.565 -29.353)" fill="#fe6c6c"/>
            <path id="Trazado_602161" data-name="Trazado 602161" d="M197.083,14.848q0,3.355,0,6.71a1.785,1.785,0,0,0,.053.535.513.513,0,0,0,.105.155c0-.007,0-.013,0-.02q0-3.983-.007-7.967l-.069,0h0a1.281,1.281,0,0,0-.081.589" transform="translate(-171.181 -12.385)" fill="#fe6c6c"/>
            <path id="Trazado_602162" data-name="Trazado 602162" d="M197.715,13.514h0l.069,0q0-.058,0-.115a.59.59,0,0,0-.072.113" transform="translate(-171.732 -11.64)" fill="#fe6c6c"/>
            <path id="Trazado_602163" data-name="Trazado 602163" d="M78.085,132.688a15.879,15.879,0,0,0-1.859,6.021,15.654,15.654,0,0,0,1.215,7.922,15.825,15.825,0,0,0,10.675,9.2,14.415,14.415,0,0,0,3.541.521c.179,0,.374-.03.518.116l.019-.017c0-2.476-.01-4.953.016-7.429,0-.411-.106-.625-.5-.685a8.026,8.026,0,0,1-6.15-12.5q-2.038-2.052-4.074-4.106a.458.458,0,0,0-.286-.137.553.553,0,0,1-.071.1,27.511,27.511,0,0,1-2.806.555l-.052.01c.012.165-.109.294-.182.429" transform="translate(-66.138 -114.3)" fill="#eff6fe"/>
            <path id="Trazado_602164" data-name="Trazado 602164" d="M92.17,132.231a27.553,27.553,0,0,0,2.806-.555.567.567,0,0,0,.072-.1l-.016,0-2.94.556h0a.335.335,0,0,1,.025.111l.052-.01" transform="translate(-79.99 -114.283)" fill="#eff6fe"/>
            <path id="Trazado_602165" data-name="Trazado 602165" d="M198.143,320.784l-.019.017a.4.4,0,0,1,.028.029l-.009-.027Z" transform="translate(-172.087 -278.628)" fill="#eff6fe"/>
            <path id="Trazado_602166" data-name="Trazado 602166" d="M75.306,146.776a16.187,16.187,0,0,0,15.98,14.115c.01-.01.021-.018.031-.027-.144-.147-.339-.111-.518-.116a14.41,14.41,0,0,1-3.541-.522,15.825,15.825,0,0,1-10.675-9.2,15.654,15.654,0,0,1-1.215-7.922,15.879,15.879,0,0,1,1.859-6.021c.073-.136.193-.264.182-.429l-.1.018a15.834,15.834,0,0,0-2.006,10.109" transform="translate(-65.281 -118.691)" fill="#eff6fe"/>
            <path id="Trazado_602167" data-name="Trazado 602167" d="M91.652,135.918a.336.336,0,0,0-.025-.11c-.024.043-.046.086-.07.129l.1-.018" transform="translate(-79.524 -117.961)" fill="#eff6fe"/>
            <path id="Trazado_602168" data-name="Trazado 602168" d="M197.888,320.937h.059a.386.386,0,0,0-.028-.029.391.391,0,0,0-.031.027" transform="translate(-171.882 -278.737)" fill="#eff6fe"/>
            <path id="Trazado_602169" data-name="Trazado 602169" d="M48.639,50.547q1.831,1.815,3.648,3.645a.715.715,0,0,1,.26.429c1.778,1.77,3.561,3.534,5.329,5.313a2.08,2.08,0,0,0,1.279.657,1.528,1.528,0,0,0,1.4-1.122A1.559,1.559,0,0,0,60,57.849c-.291-.287-.567-.588-.85-.882h0l-4.509-4.5q-2.053-2.037-4.107-4.073a.453.453,0,0,1-.137-.268c-.12.066-.24-.012-.356-.1a4.054,4.054,0,0,1-.391-.373q-4.585-4.585-9.169-9.171a2.359,2.359,0,0,1-.4-.429,2,2,0,0,1-1.974,1.98,1.529,1.529,0,0,1,.243.219q4.776,4.773,9.545,9.552c.143.144.4.287.268.532.226-.093.35.085.478.211" transform="translate(-33.097 -33.052)" fill="#47568b"/>
            <path id="Trazado_602170" data-name="Trazado 602170" d="M47.559,63.419c.128-.245-.125-.388-.268-.532q-4.765-4.783-9.545-9.552a1.536,1.536,0,0,0-.243-.219c-.03,0-.06.006-.091.008.131.145.256.3.394.434q4.682,4.686,9.365,9.371c.145.145.354.252.367.5l.022-.008" transform="translate(-32.495 -46.136)" fill="#47568b"/>
            <path id="Trazado_602171" data-name="Trazado 602171" d="M53.522,37.923q4.582,4.588,9.169,9.171a4.086,4.086,0,0,0,.391.373c.116.088.236.166.356.1,0-.011,0-.021-.005-.032-.245-.014-.353-.223-.5-.367q-4.706-4.7-9.405-9.4c-.126-.126-.266-.24-.4-.36,0,.029,0,.056-.007.085a2.364,2.364,0,0,0,.4.429" transform="translate(-46.142 -32.494)" fill="#47568b"/>
            <path id="Trazado_602172" data-name="Trazado 602172" d="M39.975,37.949l-.009-.016a2.437,2.437,0,0,1-1.98,1.986l.016.01a2,2,0,0,0,1.974-1.98" transform="translate(-32.994 -32.948)" fill="#47568b"/>
            <path id="Trazado_602173" data-name="Trazado 602173" d="M37.487,53.043l-.075.017c.031,0,.06-.005.091-.008l-.016-.01" transform="translate(-32.495 -46.072)" fill="#47568b"/>
            <path id="Trazado_602174" data-name="Trazado 602174" d="M53.069,37.41c0,.024-.011.046-.016.069l.009.016c0-.028.006-.056.007-.085" transform="translate(-46.081 -32.494)" fill="#47568b"/>
            <path id="Trazado_602175" data-name="Trazado 602175" d="M118.941,135.6h0l.032.031a.715.715,0,0,0-.26-.429q-1.819-1.828-3.648-3.645c-.128-.126-.252-.3-.478-.211l-.006.01a.457.457,0,0,1,.286.137q2.035,2.055,4.074,4.106" transform="translate(-99.523 -114.062)" fill="#47568b"/>
            <path id="Trazado_602176" data-name="Trazado 602176" d="M114.484,131.516l-.022.008.016,0,.006-.01" transform="translate(-99.42 -114.233)" fill="#47568b"/>
            <path id="Trazado_602177" data-name="Trazado 602177" d="M134.8,83.893c.407.4.806.809,1.215,1.208l.041.041a9.615,9.615,0,0,1,4-1.352,2.093,2.093,0,0,1,.42.022l.011-.008-.01-.025q0-4.018,0-8.036a.143.143,0,0,1-.03.028,10.057,10.057,0,0,1-1.841.153,16.883,16.883,0,0,0-5.758,1.794c-.149.078-.289.211-.469.2l-.009.048c-.172.936-.283,1.883-.546,2.8a.338.338,0,0,1-.089.086c1.053.984,2.042,2.032,3.069,3.041" transform="translate(-114.423 -65.79)" fill="#eff6fe"/>
            <path id="Trazado_602178" data-name="Trazado 602178" d="M131.682,94.972c.264-.917.375-1.865.546-2.8,0-.016.006-.032.009-.048a.366.366,0,0,1-.113-.024h0l-.554,2.939.022.021a.342.342,0,0,0,.089-.086" transform="translate(-114.281 -79.996)" fill="#eff6fe"/>
            <path id="Trazado_602179" data-name="Trazado 602179" d="M137.111,77.472a16.881,16.881,0,0,1,5.758-1.794,10.043,10.043,0,0,0,1.841-.153.139.139,0,0,0,.03-.028v-.035a15.884,15.884,0,0,0-8.079,2.113c-.006.032-.012.064-.018.1.181.012.32-.121.469-.2" transform="translate(-118.685 -65.544)" fill="#eff6fe"/>
            <path id="Trazado_602180" data-name="Trazado 602180" d="M135.915,91.555l-.131.071a.361.361,0,0,0,.113.025c.006-.032.012-.064.018-.1" transform="translate(-117.94 -79.523)" fill="#eff6fe"/>
            <path id="Trazado_602181" data-name="Trazado 602181" d="M135.855,118.97h0l.1-.063-.041-.041c-.408-.4-.807-.808-1.215-1.208-1.027-1.009-2.016-2.057-3.069-3.041l-.016.011a.453.453,0,0,0,.137.268q2.055,2.035,4.107,4.074" transform="translate(-114.315 -99.555)" fill="#eff6fe"/>
            <path id="Trazado_602182" data-name="Trazado 602182" d="M131.593,114.481l-.022-.021c0,.011,0,.021.005.032l.016-.011" transform="translate(-114.281 -99.418)" fill="#eff6fe"/>
            <path id="Trazado_602183" data-name="Trazado 602183" d="M197.578,82.906a.971.971,0,0,1-.027.193.5.5,0,0,1-.07.16l-.011.007a8.1,8.1,0,0,1,5.63,2.418,8.016,8.016,0,0,1-4.351,13.525,5.386,5.386,0,0,1-1.316.083l-.134.006c.254.124.287.4.288.693,0,1.617,0,3.233,0,4.85,0,.653,0,1.306,0,1.96a.929.929,0,0,1-.129.609.921.921,0,0,1,.467-.079,16.039,16.039,0,0,0,1.189-31.972c-.359-.044-.721,0-1.08-.034a.937.937,0,0,1-.59-.175.092.092,0,0,1-.006.056.629.629,0,0,1,.145.486c.006,2.4.016,4.81,0,7.215" transform="translate(-171.371 -65.273)" fill="#dee6f3"/>
            <path id="Trazado_602184" data-name="Trazado 602184" d="M198.284,74.929a.937.937,0,0,0,.59.175c.359.034.721-.01,1.08.034a15.734,15.734,0,0,1,10.43,5.51,16.036,16.036,0,0,1-11.619,26.462.922.922,0,0,0-.467.079.5.5,0,0,1-.031.039,11.812,11.812,0,0,0,3.357-.32,16.062,16.062,0,0,0,12.341-19.453c-1.573-6.538-5.847-10.574-12.395-12.185a31.188,31.188,0,0,0-3.3-.375.141.141,0,0,1,.01.033" transform="translate(-172.212 -65.053)" fill="#dee6f3"/>
            <path id="Trazado_602185" data-name="Trazado 602185" d="M198.278,75.061l-.012-.013c0,.019,0,.038-.005.056l.012.013a.093.093,0,0,0,.006-.056" transform="translate(-172.206 -65.186)" fill="#dee6f3"/>
            <path id="Trazado_602186" data-name="Trazado 602186" d="M198.3,74.9h0c0,.007,0,.013,0,.02l.012.013a.139.139,0,0,0-.01-.033" transform="translate(-172.242 -65.054)" fill="#dee6f3"/>
            <path id="Trazado_602187" data-name="Trazado 602187" d="M195.2,266.412c.006-.653,0-1.306,0-1.959,0-1.617,0-3.233,0-4.85,0-.3-.034-.569-.288-.693l-.361.017c.4.06.508.274.5.685-.025,2.476-.015,4.952-.016,7.429.01-.008.021-.014.031-.021a.928.928,0,0,0,.129-.609" transform="translate(-168.987 -224.885)" fill="#dee6f3"/>
            <path id="Trazado_602188" data-name="Trazado 602188" d="M198.3,320.629c-.011.006-.021.013-.031.02v.018c.012-.012.021-.026.031-.039" transform="translate(-172.211 -278.493)" fill="#dee6f3"/>
            <path id="Trazado_602189" data-name="Trazado 602189" d="M198.317,83.628a.5.5,0,0,0,.07-.16.972.972,0,0,0,.027-.193c.021-2.4.011-4.81,0-7.215a.628.628,0,0,0-.145-.486.1.1,0,0,1-.012.022q0,4.018,0,8.036l.042,0,.011-.007" transform="translate(-172.206 -65.642)" fill="#dee6f3"/>
            <path id="Trazado_602190" data-name="Trazado 602190" d="M198.261,75.513a.1.1,0,0,0,.012-.022l-.012-.013v.035" transform="translate(-172.206 -65.559)" fill="#dee6f3"/>
            <path id="Trazado_602191" data-name="Trazado 602191" d="M146.174,176.875q0-3.125,0-6.25a2.1,2.1,0,0,1-1.335-.639q-2.492-2.495-4.986-4.987a1.065,1.065,0,0,1-.295-.383,8.312,8.312,0,0,1-.51,1.065,7.895,7.895,0,0,0,6.292,11.184,3.176,3.176,0,0,1,.444.07.756.756,0,0,1,.345-.061h.05" transform="translate(-120.112 -142.983)" fill="#fe6c6c"/>
            <path id="Trazado_602192" data-name="Trazado 602192" d="M144.872,176.3a3.172,3.172,0,0,0-.444-.07,7.895,7.895,0,0,1-6.292-11.184,8.355,8.355,0,0,0,.51-1.065.481.481,0,0,1-.024-.1h0a8.026,8.026,0,0,0,6.15,12.5h0a.321.321,0,0,1,.1-.09" transform="translate(-119.205 -142.348)" fill="#fe6c6c"/>
            <path id="Trazado_602193" data-name="Trazado 602193" d="M147.937,164.189a1.063,1.063,0,0,0,.295.383q2.493,2.494,4.986,4.987a2.1,2.1,0,0,0,1.335.639v-.1h0a2.08,2.08,0,0,1-1.279-.657c-1.768-1.779-3.552-3.544-5.329-5.313,0,.009,0,.018,0,.027s-.008.025-.011.038" transform="translate(-128.496 -142.556)" fill="#fe6c6c"/>
            <path id="Trazado_602194" data-name="Trazado 602194" d="M147.793,163.944c0-.009,0-.018,0-.027l-.032-.031a.488.488,0,0,0,.024.1c0-.013.008-.025.011-.038" transform="translate(-128.34 -142.349)" fill="#fe6c6c"/>
            <path id="Trazado_602195" data-name="Trazado 602195" d="M195.709,257.9h-.05a.757.757,0,0,0-.345.061l.04.01a.7.7,0,0,1,.221.062l.134-.006q0-.063,0-.126" transform="translate(-169.647 -224.004)" fill="#fe6c6c"/>
            <path id="Trazado_602196" data-name="Trazado 602196" d="M194.694,258.367l-.04-.01a.322.322,0,0,0-.1.09l.361-.017a.7.7,0,0,0-.221-.062" transform="translate(-168.987 -224.405)" fill="#fe6c6c"/>
            <path id="Trazado_602197" data-name="Trazado 602197" d="M198.219,142.764l.109.108c.3.3.613.588.9.9a1.656,1.656,0,0,1,.5,1.735,1.637,1.637,0,0,1-1.427,1.14,1.087,1.087,0,0,1,.085.542q.006,2.591,0,5.183a1.168,1.168,0,0,1-.071.524,7.87,7.87,0,0,0,1.14-15.643,2.74,2.74,0,0,1-1.2-.245l-.014.009,0,.009q-.011,2.867-.022,5.734" transform="translate(-172.17 -119.006)" fill="#e53950"/>
            <path id="Trazado_602198" data-name="Trazado 602198" d="M199.723,183.53a1.656,1.656,0,0,0-.5-1.735c-.284-.315-.6-.6-.9-.9l-.109-.108c0,.052,0,.1,0,.157h0c.283.295.559.6.85.883a1.559,1.559,0,0,1,.559,1.62,1.528,1.528,0,0,1-1.4,1.122h0a.538.538,0,0,1,.074.1,1.637,1.637,0,0,0,1.427-1.14" transform="translate(-172.165 -157.026)" fill="#e53950"/>
            <path id="Trazado_602199" data-name="Trazado 602199" d="M198.286,136.893h0l.01.025.014-.009-.023-.016" transform="translate(-172.228 -118.903)" fill="#e53950"/>
            <path id="Trazado_602200" data-name="Trazado 602200" d="M199.636,152.858a8.016,8.016,0,0,0,4.351-13.525,8.1,8.1,0,0,0-5.63-2.418l-.018.013a2.737,2.737,0,0,0,1.2.245,7.87,7.87,0,0,1-1.14,15.643.529.529,0,0,1-.083.125,5.392,5.392,0,0,0,1.316-.083" transform="translate(-172.258 -118.922)" fill="#e53950"/>
            <path id="Trazado_602201" data-name="Trazado 602201" d="M198.328,136.9l-.042,0,.023.016.019-.013" transform="translate(-172.228 -118.904)" fill="#e53950"/>
            <path id="Trazado_602202" data-name="Trazado 602202" d="M198.371,216.6a1.172,1.172,0,0,0,.071-.524q.006-2.591,0-5.183a1.089,1.089,0,0,0-.085-.542l-.024,0-.051-.006q0,3.125,0,6.25h.083" transform="translate(-172.225 -182.702)" fill="#e53950"/>
            <path id="Trazado_602203" data-name="Trazado 602203" d="M198.333,209.666l.024,0a.533.533,0,0,0-.074-.1v.1l.051.006" transform="translate(-172.225 -182.018)" fill="#e53950"/>
            <path id="Trazado_602204" data-name="Trazado 602204" d="M198.319,258.026a.527.527,0,0,0,.083-.125h-.083q0,.063,0,.126" transform="translate(-172.257 -224.008)" fill="#e53950"/>
            <path id="Trazado_602205" data-name="Trazado 602205" d="M165.547,138.364a1.206,1.206,0,0,1-.378.175q2.118,2.13,4.252,4.246a1.739,1.739,0,0,1-.059-.462c0-1.514,0-3.028,0-4.542a.782.782,0,0,1,.168-.64h-.015a1.716,1.716,0,0,1-.783.183,8.621,8.621,0,0,0-3.189,1.041" transform="translate(-143.463 -119.118)" fill="#fe6c6c"/>
            <path id="Trazado_602206" data-name="Trazado 602206" d="M164.068,147.748a.413.413,0,0,1-.167-.006l4.509,4.5a1.366,1.366,0,0,1-.09-.247q-2.138-2.111-4.252-4.246" transform="translate(-142.363 -128.326)" fill="#fe6c6c"/>
            <path id="Trazado_602207" data-name="Trazado 602207" d="M165.094,138.182a8.621,8.621,0,0,1,3.189-1.041,1.716,1.716,0,0,0,.783-.183,2.086,2.086,0,0,0-.42-.022,9.614,9.614,0,0,0-4,1.352l.069.069a1.206,1.206,0,0,0,.378-.175" transform="translate(-143.01 -118.936)" fill="#fe6c6c"/>
            <path id="Trazado_602208" data-name="Trazado 602208" d="M164.068,147.334l-.068-.069c-.033.021-.066.041-.1.063a.413.413,0,0,0,.167.006" transform="translate(-142.363 -127.912)" fill="#fe6c6c"/>
            <path id="Trazado_602209" data-name="Trazado 602209" d="M197.078,137.789c-.006,1.514,0,3.028,0,4.542a1.744,1.744,0,0,0,.059.462l.091.09q.011-2.867.022-5.734a.782.782,0,0,0-.168.64" transform="translate(-171.175 -119.125)" fill="#fe6c6c"/>
            <path id="Trazado_602210" data-name="Trazado 602210" d="M197.616,180.186l-.091-.091a1.347,1.347,0,0,0,.091.247h0c0-.052,0-.1,0-.157" transform="translate(-171.567 -156.428)" fill="#fe6c6c"/>
          </g>
        </g>
      </g>
    </g>
  </g>
</svg>
