<svg xmlns="http://www.w3.org/2000/svg" xmlns:xlink="http://www.w3.org/1999/xlink" width="85" height="85" viewBox="0 0 85 85">
  <defs>
    <clipPath id="clip-path">
      <rect id="Rectángulo_300833" data-name="Rectángulo 300833" width="50.516" height="50.341" fill="none"/>
    </clipPath>
  </defs>
  <g id="Grupo_886182" data-name="Grupo 886182" transform="translate(-644 -23712)">
    <g id="Elipse_6618" data-name="Elipse 6618" transform="translate(644 23712)" fill="#fff" stroke="#72e0fa" stroke-width="1">
      <circle cx="42.5" cy="42.5" r="42.5" stroke="none"/>
      <circle cx="42.5" cy="42.5" r="42" fill="none"/>
    </g>
    <g id="Grupo_886161" data-name="Grupo 886161" transform="translate(661 23729)">
      <g id="Grupo_886160" data-name="Grupo 886160" clip-path="url(#clip-path)">
        <path id="Trazado_602280" data-name="Trazado 602280" d="M3.32,270.219a1.352,1.352,0,0,0,1.5-.913.535.535,0,0,1,.172-.234l.031-.019q0-6.245.008-12.49c0-.246.006-.492.009-.738a1.514,1.514,0,0,0-1.186-1.359.519.519,0,0,1-.073.08,8.943,8.943,0,0,1-1.848.069A7.222,7.222,0,0,0,0,254.764v15.39c1.106.1,2.215.015,3.32.064" transform="translate(0 -220.915)" fill="#e05f78"/>
        <path id="Trazado_602281" data-name="Trazado 602281" d="M3.337,366.406c1.045,0,1.357-.226,1.684-1.207h0q0-.052,0-.105c-.01.007-.021.012-.031.019a.536.536,0,0,0-.173.234,1.351,1.351,0,0,1-1.5.913c-1.105-.05-2.215.032-3.32-.064a1.035,1.035,0,0,0,.729.215c.869-.012,1.739,0,2.608,0" transform="translate(0 -316.957)" fill="#e05f78"/>
        <path id="Trazado_602282" data-name="Trazado 602282" d="M3.779,254.536a.516.516,0,0,0,.073-.08h0c-1.039,0-2.079.014-3.118,0a.853.853,0,0,0-.73.3,7.22,7.22,0,0,1,1.931-.149,8.953,8.953,0,0,0,1.848-.069" transform="translate(0 -220.905)" fill="#e05f78"/>
        <path id="Trazado_602283" data-name="Trazado 602283" d="M89.745,5.06a2.187,2.187,0,0,0-2.372,1.819,2.635,2.635,0,0,0,.188,1.076,3.127,3.127,0,0,0,1.2,1.194c-1.284.147-2.087.761-2.166,2.034a2.136,2.136,0,0,0,1.469,2.075c-.223.016-.352.032-.481.032q-3.745,0-7.491,0a9.38,9.38,0,0,0-1.909.09,2.235,2.235,0,0,0-1.289,1.477h0a3.211,3.211,0,0,0,2.479.81c6.388-.019,12.776-.01,19.164-.01a1.546,1.546,0,0,1,1.663,1.649c0,2.135.017,4.27-.008,6.4a3.447,3.447,0,0,0,.771,2.414c.114.132.232.238.025.38a2.651,2.651,0,0,0,2.366-2.679,23.977,23.977,0,0,0-.014-2.6,2.694,2.694,0,0,1,1.3-2.655c.72-.5,1.4-1.064,2.1-1.6a2.512,2.512,0,0,1,1.465-.608h0c1.344.072,2.689.112,4.036.09V3.176a1.148,1.148,0,0,1-.613.1c-.674,0-1.347-.008-2.021.005a1.743,1.743,0,0,1-1.188-.394,8.286,8.286,0,0,0-5.6-1.792c-4.107.042-8.215.009-12.323.015a1.947,1.947,0,0,0-2.133,1.806A6.764,6.764,0,0,0,88.5,3.936a.4.4,0,0,1-.04.1A2.4,2.4,0,0,0,89.745,5.06" transform="translate(-66.754 -0.95)" fill="#fedfd1"/>
        <path id="Trazado_602284" data-name="Trazado 602284" d="M162.913,3.082a.4.4,0,0,0,.04-.1,6.779,6.779,0,0,1-.139-1.021A1.947,1.947,0,0,1,164.947.159c4.108-.005,8.216.028,12.323-.015a8.286,8.286,0,0,1,5.6,1.792,1.743,1.743,0,0,0,1.188.394c.673-.014,1.347,0,2.021-.005a1.148,1.148,0,0,0,.613-.1V2.181c-.855,0-1.711-.027-2.564.01a1.765,1.765,0,0,1-1.262-.43A7.726,7.726,0,0,0,177.771.007C173.464.016,169.156.03,164.849,0a2.1,2.1,0,0,0-1.942,3.072h0l.006.01" transform="translate(-141.207 0)" fill="#fedfd1"/>
        <path id="Trazado_602285" data-name="Trazado 602285" d="M226.746,117.715a1.01,1.01,0,0,1-.646.132c-1.095.044-2.185-.044-3.276-.109l-.042,0a22.871,22.871,0,0,1,1.937,4.281,19.043,19.043,0,0,1-13.564,24.185,2.153,2.153,0,0,1-2.367,2.2,2,2,0,0,1,1.371,1.347l.1.1h0c.335.062.683.045,1.012.137a.942.942,0,0,0,.129-.047,22.665,22.665,0,0,0,16.218-30.406c-.08-.2-.288-.439-.086-.66l-.008-.02a1.652,1.652,0,0,1-.782-1.145" transform="translate(-181.26 -102.194)" fill="#7cc2ed"/>
        <path id="Trazado_602286" data-name="Trazado 602286" d="M243.984,127.214a22.678,22.678,0,0,1-16.218,30.406.942.942,0,0,1-.129.047,1.4,1.4,0,0,1,.177.061,19.166,19.166,0,0,0,4.646-1.546,22.6,22.6,0,0,0,7.574-5.682,23.073,23.073,0,0,0,3.884-6.23,22.439,22.439,0,0,0,1.673-6.93,23.329,23.329,0,0,0-.422-6.684,29.774,29.774,0,0,0-1.269-4.1c-.2.221.006.457.086.66" transform="translate(-197.623 -109.868)" fill="#7cc2ed"/>
        <path id="Trazado_602287" data-name="Trazado 602287" d="M318.374,116.954c-1.346.022-2.692-.018-4.036-.09h0l.077.138.042,0c1.09.064,2.181.153,3.276.109a1.009,1.009,0,0,0,.647-.132C318.377,116.969,318.375,116.962,318.374,116.954Z" transform="translate(-272.893 -101.456)" fill="#7cc2ed"/>
        <path id="Trazado_602288" data-name="Trazado 602288" d="M21.989,54.687a2.084,2.084,0,0,1,.139.541l1.843.021,1.572-.007c-.356-.789-.732-1.569-1.063-2.367a18.4,18.4,0,0,1-1.273-8.661,18.206,18.206,0,0,1,3.819-9.877h0l.054-.075a.751.751,0,0,1,.173-.711,2.347,2.347,0,0,1,1.186-.914l.076-.018a18.257,18.257,0,0,1,6.381-4.4c.075-.032.149-.067.223-.1h0a15.359,15.359,0,0,1,2.351-1.792c0-.01,0-.021,0-.031a2.218,2.218,0,0,1,1.026-1.61,1.536,1.536,0,0,1,1.173-.316,1.227,1.227,0,0,1-1-.966c-.1.165-.292.177-.466.209a22.6,22.6,0,0,0-10.473,4.872,22.343,22.343,0,0,0-5.412,6.581A22.012,22.012,0,0,0,19.7,43.271a22.36,22.36,0,0,0,1.033,9.911c.074.215.26.451.088.684a1.205,1.205,0,0,1,1.17.821" transform="translate(-16.966 -20.316)" fill="#64abdb"/>
        <path id="Trazado_602289" data-name="Trazado 602289" d="M20.05,53.779c.172-.234-.014-.469-.088-.684a22.361,22.361,0,0,1-1.033-9.911,22.012,22.012,0,0,1,2.622-8.208A22.344,22.344,0,0,1,26.962,28.4a22.6,22.6,0,0,1,10.473-4.872c.174-.032.368-.043.466-.209,0,0,0-.008,0-.013a23.2,23.2,0,0,0-6.174,1.91,22.742,22.742,0,0,0-7.71,5.924,22.152,22.152,0,0,0-3.183,4.955,22.379,22.379,0,0,0-2.092,7.783,22.781,22.781,0,0,0,1.308,9.9h.005" transform="translate(-16.197 -20.23)" fill="#64abdb"/>
        <path id="Trazado_602290" data-name="Trazado 602290" d="M30.385,255.275a1.205,1.205,0,0,0-1.17-.821h0a1.514,1.514,0,0,1,1.186,1.359h.124a2.084,2.084,0,0,0-.139-.541" transform="translate(-25.362 -220.905)" fill="#85d6e4"/>
        <path id="Trazado_602291" data-name="Trazado 602291" d="M29.187,254.455h0" transform="translate(-25.335 -220.905)" fill="#85d6e4"/>
        <path id="Trazado_602292" data-name="Trazado 602292" d="M76.478,94.912a2.235,2.235,0,0,1,1.289-1.477c.039-.044.08-.086.12-.13l-.076.018a2.347,2.347,0,0,0-1.186.914.75.75,0,0,0-.173.711l.025-.035h0" transform="translate(-66.34 -81.003)" fill="#85d6e4"/>
        <path id="Trazado_602293" data-name="Trazado 602293" d="M157.7,24.345a1.536,1.536,0,0,0-1.173.316,2.218,2.218,0,0,0-1.027,1.61c0,.011,0,.021,0,.031l.117-.079a2.187,2.187,0,0,1,2.372-1.819,2.4,2.4,0,0,1-1.285-1.029l0,0a1.227,1.227,0,0,0,1,.966" transform="translate(-134.994 -20.294)" fill="#64abdb"/>
        <path id="Trazado_602294" data-name="Trazado 602294" d="M164.587,23.316l0,0-.006-.01h0l0,.013" transform="translate(-142.883 -20.231)" fill="#85d6e4"/>
        <path id="Trazado_602295" data-name="Trazado 602295" d="M345.905,23.457c1.067.028,2.134.027,3.2.02.667,0,.787-.113.788-.771q.011-7.045,0-14.09c0-.619-.1-.7-.725-.711-.821-.008-1.644.027-2.463-.011a1.37,1.37,0,0,0-1.473.907.758.758,0,0,1-.162.245l-.026.016a.894.894,0,0,1,.133.622q.007,6.013,0,12.027a1.146,1.146,0,0,1-.108.623.49.49,0,0,1-.039.033c.232.4.523.763.776,1.15l.023,0a.568.568,0,0,1,.076-.064" transform="translate(-299.539 -6.85)" fill="#e05f78"/>
        <path id="Trazado_602296" data-name="Trazado 602296" d="M344.973,8c.009-.006.017-.01.026-.016a.761.761,0,0,0,.163-.245,1.37,1.37,0,0,1,1.473-.907c.819.038,1.642,0,2.463.011.628.006.724.092.725.711q.01,7.045,0,14.091c0,.658-.121.766-.788.771-1.066.007-2.133.008-3.2-.02a.58.58,0,0,0-.076.064,3.611,3.611,0,0,0,.6.1c1,.012,2,0,3.007.008.439,0,.613-.212.612-.641q-.007-7.32,0-14.64c0-.439-.169-.626-.614-.618-.92.016-1.84,0-2.76,0-1.04,0-1.39.276-1.66,1.3.009.009.016.02.024.03" transform="translate(-299.468 -5.793)" fill="#e05f78"/>
        <path id="Trazado_602297" data-name="Trazado 602297" d="M344.949,30.057l.011.017a.491.491,0,0,0,.039-.033,1.147,1.147,0,0,0,.108-.623q0-6.014,0-12.027a.9.9,0,0,0-.133-.622l-.024.015Z" transform="translate(-299.468 -14.559)" fill="#e68f97"/>
        <path id="Trazado_602298" data-name="Trazado 602298" d="M344.973,16.576c-.008-.01-.015-.02-.024-.03v.045l.024-.015" transform="translate(-299.468 -14.364)" fill="#e68f97"/>
        <path id="Trazado_602299" data-name="Trazado 602299" d="M345.768,118.827c-.253-.387-.543-.749-.776-1.15l-.006.005a1.652,1.652,0,0,0,.782,1.145" transform="translate(-299.5 -102.161)" fill="#e68f97"/>
        <path id="Trazado_602300" data-name="Trazado 602300" d="M344.949,117.545h0c0,.008,0,.015,0,.022l.006-.005Z" transform="translate(-299.468 -102.047)" fill="#e68f97"/>
        <path id="Trazado_602301" data-name="Trazado 602301" d="M62.709,278.33a.413.413,0,0,1-.182-.138,2.81,2.81,0,0,1-1.971.635c-4.154,0-8.308.011-12.462-.01a7.848,7.848,0,0,1-3.655-.788,10.577,10.577,0,0,1-1.294-.8,2.853,2.853,0,0,0-1.464-.608c-.709-.063-.987-.466-.987-1.216q0-4.877,0-9.755h-.018c-.455.024-.909.011-1.364.008a.967.967,0,0,1-.45-.069c0,.02,0,.04.006.061.026,4.171.007,8.341.011,12.512a1.219,1.219,0,0,1-.074.5,1.481,1.481,0,0,1,.584-.079c.608,0,1.216.018,1.823-.008a2.018,2.018,0,0,1,1.408.47,7.467,7.467,0,0,0,3.94,1.663,8.446,8.446,0,0,0,.885.043H60.061c1.69,0,2.152-.345,2.642-1.971a.692.692,0,0,1,.088-.105l-.08-.342h0" transform="translate(-33.689 -230.573)" fill="#fed0c1"/>
        <path id="Trazado_602302" data-name="Trazado 602302" d="M62.073,364.246c-.49,1.627-.952,1.971-2.642,1.972H46.815a8.456,8.456,0,0,1-.885-.043,7.469,7.469,0,0,1-3.94-1.663,2.017,2.017,0,0,0-1.408-.47c-.607.026-1.215,0-1.823.008a1.479,1.479,0,0,0-.584.079.641.641,0,0,1-.1.155h0a19.842,19.842,0,0,1,2.795-.091,1.11,1.11,0,0,1,.808.279,8.308,8.308,0,0,0,5.573,1.909c4.2-.054,8.4-.016,12.606-.016a2.13,2.13,0,0,0,2.308-2.2l-.006-.028a.675.675,0,0,0-.088.105" transform="translate(-33.058 -316.041)" fill="#fed0c1"/>
        <path id="Trazado_602303" data-name="Trazado 602303" d="M38.249,277.453c0-4.17.015-8.341-.011-12.512,0-.02,0-.04-.006-.061a.456.456,0,0,1-.135-.108c0,.246-.009.492-.009.738q0,6.245-.008,12.49a.723.723,0,0,1,.1-.051,1.219,1.219,0,0,0,.074-.5" transform="translate(-33.058 -229.863)" fill="#fed0c1"/>
        <path id="Trazado_602304" data-name="Trazado 602304" d="M38.08,364.763v.105a.65.65,0,0,0,.1-.155.7.7,0,0,0-.1.05" transform="translate(-33.059 -316.626)" fill="#fed0c1"/>
        <path id="Trazado_602305" data-name="Trazado 602305" d="M218.909,360.946h0l-.022-.1-.1-.1c-.02.019-.04.036-.06.054a.413.413,0,0,0,.182.138" transform="translate(-189.888 -313.19)" fill="#fed0c1"/>
        <path id="Trazado_602306" data-name="Trazado 602306" d="M40.975,264.951h.018V264.8l-1.843-.021c0,.035.008.071.011.106a.967.967,0,0,0,.45.069c.454,0,.909.016,1.364-.008" transform="translate(-33.988 -229.873)" fill="#fed0c1"/>
        <path id="Trazado_602307" data-name="Trazado 602307" d="M38.332,264.774h-.124a.454.454,0,0,0,.135.108c0-.036-.007-.071-.011-.106" transform="translate(-33.17 -229.863)" fill="#fed0c1"/>
        <path id="Trazado_602308" data-name="Trazado 602308" d="M220.675,362.4a.3.3,0,0,1,.042.285,1.11,1.11,0,0,1,.575-.208,1.843,1.843,0,0,1-.617-.078" transform="translate(-191.579 -314.621)" fill="#7cc2ed"/>
        <path id="Trazado_602309" data-name="Trazado 602309" d="M221.384,362.964a1.111,1.111,0,0,0-.575.207.371.371,0,0,1-.028.061,7.186,7.186,0,0,0,1.081-.268c-.158-.008-.318,0-.477,0" transform="translate(-191.671 -315.104)" fill="#7cc2ed"/>
        <path id="Trazado_602310" data-name="Trazado 602310" d="M220.671,361.687a2.5,2.5,0,0,0,.3-.061c-.33-.092-.678-.075-1.012-.137h0a.949.949,0,0,1,.094.12,1.843,1.843,0,0,0,.617.078" transform="translate(-190.958 -313.827)" fill="#7cc2ed"/>
        <path id="Trazado_602311" data-name="Trazado 602311" d="M225.657,362.528a2.468,2.468,0,0,1-.3.061c.159,0,.319-.009.477,0h0a1.4,1.4,0,0,0-.177-.061" transform="translate(-195.643 -314.729)" fill="#7cc2ed"/>
        <path id="Trazado_602312" data-name="Trazado 602312" d="M220.2,362.24c-.024-.008-.048-.015-.072-.025l.08.342.034-.032a.3.3,0,0,0-.042-.285" transform="translate(-191.104 -314.457)" fill="#7cc2ed"/>
        <path id="Trazado_602313" data-name="Trazado 602313" d="M220.732,364.6l.006.028a.373.373,0,0,0,.028-.061l-.034.032" transform="translate(-191.629 -316.498)" fill="#7cc2ed"/>
        <path id="Trazado_602314" data-name="Trazado 602314" d="M220.053,361.61a.947.947,0,0,0-.094-.12l.022.1c.024.01.048.017.072.025" transform="translate(-190.958 -313.828)" fill="#7cc2ed"/>
        <path id="Trazado_602315" data-name="Trazado 602315" d="M79.163,111.683a1.872,1.872,0,0,0-.741,1.539c0,1.051.015,2.1-.006,3.152a2.754,2.754,0,0,1-1.906,2.706c-.194.072-.4.192-.6.015a2.618,2.618,0,0,1-2.687-2.471c-.071-1.642-.023-3.28-.057-4.919-.024-1.155-.529-1.682-1.676-1.682-5.749,0-11.5-.039-17.247.026a2.259,2.259,0,0,1-2.513-2.306,19.585,19.585,0,0,0-2.607,4.864,19.331,19.331,0,0,0,.365,13.851c.217.516.494,1,.722,1.51.071.16.19.33.074.5a3.063,3.063,0,0,0,2.333-.91c.7-.562,1.411-1.114,2.124-1.662a2,2,0,0,0,.859-1.682c-.009-1.019,0-2.039,0-3.058a2.547,2.547,0,0,1,2.37-2.807,2.477,2.477,0,0,1,2.662,2.37c0,1.644,0,3.288,0,4.932a1.665,1.665,0,0,0,.962,1.633,1.535,1.535,0,0,0,.721.1q8.828,0,17.655,0a2.071,2.071,0,1,1,.011,4.138c-2.975.009-5.951.005-8.926.006-.015,0-.032,0-.127.021,0,0,0,.005,0,.008a2.14,2.14,0,0,1,1.416,2.343,2.035,2.035,0,0,1-2.1,1.734.269.269,0,0,0-.018.054,2.563,2.563,0,0,1,1.358,1.8.953.953,0,0,1,.418-.185,18.186,18.186,0,0,0,7.357-3.947,18.549,18.549,0,0,0,5.779-9.047,18.871,18.871,0,0,0-1.107-13.44,17.09,17.09,0,0,0-.818-1.517.587.587,0,0,1-.1-.273,2.4,2.4,0,0,0-1.3.533c-.881.685-1.765,1.367-2.64,2.059m-7.924,7.887c-.351-.007-.47.131-.573.444a3.744,3.744,0,0,1-2.532,2.545c-.369.115-.531.268-.509.68.029.559-.249.818-.752.809a.647.647,0,0,1-.711-.749c.026-.443-.134-.611-.548-.747a3.744,3.744,0,0,1-2.5-2.574.482.482,0,0,0-.552-.405c-.6,0-.944-.3-.941-.773s.344-.768.951-.764a.484.484,0,0,0,.544-.416,3.76,3.76,0,0,1,2.561-2.578c.351-.111.5-.258.486-.646-.024-.576.233-.833.728-.835s.761.258.741.824a.557.557,0,0,0,.473.656,3.732,3.732,0,0,1,2.568,2.569.511.511,0,0,0,.586.428c.565-.007.9.3.914.751.01.472-.338.795-.93.782" transform="translate(-41.687 -93.537)" fill="#f8f6f6"/>
        <path id="Trazado_602316" data-name="Trazado 602316" d="M260.17,127a2.754,2.754,0,0,0,1.906-2.706c.021-1.05,0-2.1.006-3.152a1.872,1.872,0,0,1,.741-1.539c.876-.692,1.759-1.374,2.64-2.059a2.4,2.4,0,0,1,1.3-.533.3.3,0,0,1,.031-.144h0a2.512,2.512,0,0,0-1.465.608c-.695.54-1.375,1.1-2.1,1.6a2.694,2.694,0,0,0-1.3,2.655,23.946,23.946,0,0,1,.014,2.6,2.652,2.652,0,0,1-2.366,2.679h-.008c.194.177.4.057.6-.015" transform="translate(-225.348 -101.455)" fill="#f8f6f6"/>
        <path id="Trazado_602317" data-name="Trazado 602317" d="M238.306,118.187a17.093,17.093,0,0,1,.818,1.517,18.871,18.871,0,0,1,1.107,13.44,18.549,18.549,0,0,1-5.779,9.046,18.186,18.186,0,0,1-7.357,3.948.951.951,0,0,0-.418.185c0,.018.006.034.008.052a19.073,19.073,0,0,0,13.564-24.186,22.876,22.876,0,0,0-1.937-4.281l-.108.006a.586.586,0,0,0,.1.273" transform="translate(-196.79 -102.362)" fill="#f8f6f6"/>
        <path id="Trazado_602318" data-name="Trazado 602318" d="M314.1,117.007l.108-.006-.077-.138a.3.3,0,0,0-.031.144" transform="translate(-272.687 -101.455)" fill="#f8f6f6"/>
        <path id="Trazado_602319" data-name="Trazado 602319" d="M49.137,126.742c-.228-.509-.506-.994-.722-1.51a19.331,19.331,0,0,1-.365-13.851,19.589,19.589,0,0,1,2.607-4.864c0-.061.007-.123.014-.186a18.2,18.2,0,0,0-3.818,9.878,18.4,18.4,0,0,0,1.273,8.661c.331.8.707,1.579,1.063,2.368l.021,0c.116-.167,0-.337-.074-.5" transform="translate(-40.613 -92.311)" fill="#f8f6f6"/>
        <path id="Trazado_602320" data-name="Trazado 602320" d="M78.894,108.5c1.74.011,3.481,0,5.221,0h11.92c.23,0,.46-.008.689.015a1.557,1.557,0,0,1,1.491,1.59c.023,1.067.007,2.134.006,3.2a17.748,17.748,0,0,0,.088,2.015,2.344,2.344,0,0,0,1.881,2.185,1.48,1.48,0,0,1,.6.179,2.092,2.092,0,0,0-.259-.473,3.328,3.328,0,0,1-.638-2.079c0-2.086-.041-4.172.018-6.256a1.658,1.658,0,0,0-1.848-1.866c-6.388.035-12.777.016-19.165.017a2.515,2.515,0,0,1-2.128-.811c-.011-.018-.022-.036-.031-.054a.4.4,0,0,1-.022.086.811.811,0,0,1,.1.389,1.937,1.937,0,0,0,2.079,1.86" transform="translate(-66.601 -92.166)" fill="#fed0c1"/>
        <path id="Trazado_602321" data-name="Trazado 602321" d="M76.88,105.583c.009.018.019.036.031.054a2.514,2.514,0,0,0,2.128.811c6.388,0,12.777.018,19.165-.017a1.658,1.658,0,0,1,1.848,1.866c-.059,2.084-.013,4.171-.018,6.256a3.328,3.328,0,0,0,.638,2.079,2.093,2.093,0,0,1,.259.472.482.482,0,0,1,.045.037c.206-.142.088-.248-.025-.38a3.447,3.447,0,0,1-.771-2.414c.025-2.135.009-4.27.008-6.4a1.546,1.546,0,0,0-1.663-1.649c-6.388,0-12.776-.009-19.164.01a3.211,3.211,0,0,1-2.479-.81h0a.316.316,0,0,1,0,.088" transform="translate(-66.743 -91.586)" fill="#fed0c1"/>
        <path id="Trazado_602322" data-name="Trazado 602322" d="M76.367,105.816c-.009-.018-.017-.035-.024-.053l-.054.075h0a.359.359,0,0,1,.056.063.392.392,0,0,0,.022-.085" transform="translate(-66.23 -91.818)" fill="#fed0c1"/>
        <path id="Trazado_602323" data-name="Trazado 602323" d="M76.724,105.5l-.025.035c.007.018.015.035.024.053a.316.316,0,0,0,0-.088" transform="translate(-66.586 -91.587)" fill="#fed0c1"/>
        <path id="Trazado_602324" data-name="Trazado 602324" d="M78.676,109.241c5.748-.065,11.5-.027,17.247-.026,1.147,0,1.652.528,1.676,1.682.034,1.639-.015,3.277.057,4.919a2.618,2.618,0,0,0,2.687,2.471c-.012-.011-.024-.023-.036-.036v0a1.478,1.478,0,0,0-.6-.179,2.345,2.345,0,0,1-1.882-2.185,17.812,17.812,0,0,1-.088-2.015c0-1.067.016-2.135-.006-3.2a1.557,1.557,0,0,0-1.491-1.59c-.229-.023-.459-.014-.689-.015H83.633c-1.74,0-3.481.008-5.221,0a1.937,1.937,0,0,1-2.079-1.86.813.813,0,0,0-.1-.389.559.559,0,0,1-.027.06l-.044.062a2.259,2.259,0,0,0,2.513,2.306" transform="translate(-66.119 -92.729)" fill="#fed0c1"/>
        <path id="Trazado_602325" data-name="Trazado 602325" d="M259.3,193.559a.506.506,0,0,0,.036.036h.008a.506.506,0,0,0-.045-.037v0" transform="translate(-225.108 -168.037)" fill="#fed0c1"/>
        <path id="Trazado_602326" data-name="Trazado 602326" d="M76.223,106.455a.545.545,0,0,0,.027-.06.353.353,0,0,0-.056-.063c-.007.063-.011.125-.014.186l.043-.062" transform="translate(-66.136 -92.311)" fill="#fed0c1"/>
        <path id="Trazado_602327" data-name="Trazado 602327" d="M97.667,58.5a.881.881,0,0,1,.365.042,2.2,2.2,0,0,1,.721-4.121,3.735,3.735,0,0,1-.9-1.032l-.023-.061a18.221,18.221,0,0,0-2.311.7l-.179.147c-.976.5-1.982.943-2.915,1.528a16.948,16.948,0,0,0-3.16,2.487,3.738,3.738,0,0,1-.4.377,2.922,2.922,0,0,1,.579-.064l8.22,0" transform="translate(-77.151 -46.294)" fill="#f8f6f6"/>
        <path id="Trazado_602328" data-name="Trazado 602328" d="M95.948,53.22a3.735,3.735,0,0,0,.9,1.032,2.2,2.2,0,0,0-.721,4.121.881.881,0,0,0-.365-.042l-8.22,0a2.921,2.921,0,0,0-.579.064,1.233,1.233,0,0,1-.29.167,9.378,9.378,0,0,1,1.909-.09q3.746,0,7.491,0c.129,0,.258-.017.481-.032a2.137,2.137,0,0,1-1.469-2.075c.079-1.273.882-1.887,2.166-2.034a3.127,3.127,0,0,1-1.2-1.194l-.124.025.023.061" transform="translate(-75.243 -46.128)" fill="#f8f6f6"/>
        <path id="Trazado_602329" data-name="Trazado 602329" d="M88.149,62.764a16.947,16.947,0,0,1,3.16-2.487c.933-.586,1.939-1.028,2.915-1.528L94.4,58.6l-.22.074h0c-.074.033-.148.068-.223.1a18.257,18.257,0,0,0-6.381,4.4l.17-.037a3.738,3.738,0,0,0,.4-.377" transform="translate(-76.033 -50.875)" fill="#f8f6f6"/>
        <path id="Trazado_602330" data-name="Trazado 602330" d="M86.96,93.022q-.085.017-.17.037c-.04.044-.081.086-.12.13a1.234,1.234,0,0,0,.29-.167" transform="translate(-75.243 -80.757)" fill="#f8f6f6"/>
        <path id="Trazado_602331" data-name="Trazado 602331" d="M143.242,47.129a2.21,2.21,0,0,1-.152-.829,1.626,1.626,0,0,1-.321.263c-.54.356-1.053.75-1.555,1.156a14.75,14.75,0,0,1,1.814-.586.371.371,0,0,1,.214,0" transform="translate(-122.595 -40.195)" fill="#64abdb"/>
        <path id="Trazado_602332" data-name="Trazado 602332" d="M155.587,45.978a.572.572,0,0,1,.16.072,2.635,2.635,0,0,1-.188-1.076.8.8,0,0,1-.124.175,2.21,2.21,0,0,0,.152.829" transform="translate(-134.94 -39.044)" fill="#64abdb"/>
        <path id="Trazado_602333" data-name="Trazado 602333" d="M139.689,45.929a1.622,1.622,0,0,0,.321-.263c0-.032,0-.064.007-.1a15.359,15.359,0,0,0-2.351,1.792,2.943,2.943,0,0,1,.468-.277c.5-.407,1.015-.8,1.555-1.156" transform="translate(-119.515 -39.562)" fill="#64abdb"/>
        <path id="Trazado_602334" data-name="Trazado 602334" d="M155.567,44.974h0l-.117.079c0,.032-.006.064-.007.1a.8.8,0,0,0,.124-.175" transform="translate(-134.948 -39.044)" fill="#64abdb"/>
        <path id="Trazado_602335" data-name="Trazado 602335" d="M141.612,52.5a.371.371,0,0,0-.214,0,14.75,14.75,0,0,0-1.814.586l-.248.2a18.211,18.211,0,0,1,2.312-.7q-.018-.048-.036-.1" transform="translate(-120.965 -45.566)" fill="#64abdb"/>
        <path id="Trazado_602336" data-name="Trazado 602336" d="M156.632,52.686c.042-.008.083-.018.124-.025a.575.575,0,0,0-.16-.072q.017.049.036.1" transform="translate(-135.949 -45.655)" fill="#64abdb"/>
        <path id="Trazado_602337" data-name="Trazado 602337" d="M137.885,57.267l.247-.2a2.949,2.949,0,0,0-.468.276h0l.22-.074" transform="translate(-119.514 -49.54)" fill="#64abdb"/>
        <path id="Trazado_602338" data-name="Trazado 602338" d="M76.374,208.089a2.351,2.351,0,0,0-.857-1.174c-.12-.1-.328-.172-.291-.36,0,0,0-.006,0-.009l-.073-.047.092-.008c.069-.148.257-.171.412-.2a1.784,1.784,0,0,0,1.364-1.02,1.86,1.86,0,0,0-.67-2.43c-.166-.122-.483-.212-.42-.423v0l-.011-.006.015,0c.079-.223.392-.164.612-.164q4.092-.008,8.183,0a2.619,2.619,0,0,0,1.2-.238,1.865,1.865,0,0,0,1.06-1.9,1.932,1.932,0,0,0-1.428-1.645,3.8,3.8,0,0,0-.979-.082q-8.553,0-17.106,0a1.922,1.922,0,0,1-1.409-.462A1.943,1.943,0,0,1,65.5,196.4c-.005-1.561.008-3.122-.005-4.683a2.278,2.278,0,0,0-1.891-2.313,2.32,2.32,0,0,0-2.631,1.419,3.551,3.551,0,0,0-.221,1.3c0,.953,0,1.906,0,2.859a2.2,2.2,0,0,1-.884,1.837q-1.3,1.022-2.607,2.027a2.676,2.676,0,0,1-1.338.586.714.714,0,0,1-.635-.112.418.418,0,0,1-.066.069,5.01,5.01,0,0,1-1.432.072,1.606,1.606,0,0,1,.06.659q.005,4.313,0,8.627c0,.2-.007.395.012.591a.887.887,0,0,0,.845.929,3.319,3.319,0,0,1,1.6.7,7.81,7.81,0,0,0,4.853,1.512c4.124.016,8.249.006,12.373,0a2.893,2.893,0,0,0,1.692-.434.522.522,0,0,1,.273-.113,1.972,1.972,0,0,0-1.107-1.1c-.114-.041-.292-.086-.257-.247s.2-.147.332-.148a2.045,2.045,0,0,0,1.584-.765c.331-.38.312-.883.505-1.309a.489.489,0,0,1-.188-.289" transform="translate(-46.7 -164.389)" fill="#fedfd0"/>
        <path id="Trazado_602339" data-name="Trazado 602339" d="M210.009,334.937a2.044,2.044,0,0,1-1.584.765c-.127,0-.3,0-.332.148s.144.206.257.247a1.972,1.972,0,0,1,1.107,1.1.3.3,0,0,1,.094.012h0a2,2,0,0,0-1.371-1.347,2.153,2.153,0,0,0,2.367-2.205.375.375,0,0,1-.034-.024c-.193.426-.174.929-.505,1.309" transform="translate(-180.652 -289.64)" fill="#fedfd0"/>
        <path id="Trazado_602340" data-name="Trazado 602340" d="M54.644,264.971a.418.418,0,0,0,.066-.069l-.014-.012-1.572.007a.608.608,0,0,1,.088.146,5.009,5.009,0,0,0,1.432-.072" transform="translate(-46.12 -229.965)" fill="#fedfd0"/>
        <path id="Trazado_602341" data-name="Trazado 602341" d="M74.651,278.636a2.892,2.892,0,0,1-1.692.434c-4.124,0-8.249.012-12.373,0a7.809,7.809,0,0,1-4.853-1.512,3.319,3.319,0,0,0-1.6-.7.887.887,0,0,1-.845-.929c-.019-.2-.012-.394-.012-.591q0-4.313,0-8.627a1.6,1.6,0,0,0-.061-.658h-.088q0,4.877,0,9.755c0,.751.279,1.153.987,1.216a2.851,2.851,0,0,1,1.464.608,10.579,10.579,0,0,0,1.294.8,7.847,7.847,0,0,0,3.655.788c4.154.021,8.308.006,12.462.01a2.809,2.809,0,0,0,1.971-.635l0,0c-.01-.021-.021-.042-.031-.063a.521.521,0,0,0-.273.113" transform="translate(-46.119 -230.97)" fill="#fedfd0"/>
        <path id="Trazado_602342" data-name="Trazado 602342" d="M218.472,360.665c.01.021.021.041.031.063l0,0c.02-.018.04-.035.06-.054a.3.3,0,0,0-.094-.012" transform="translate(-189.667 -313.112)" fill="#fedfd0"/>
        <path id="Trazado_602343" data-name="Trazado 602343" d="M53.125,265.088h.088a.608.608,0,0,0-.088-.146v.146" transform="translate(-46.121 -230.01)" fill="#fedfd0"/>
        <path id="Trazado_602344" data-name="Trazado 602344" d="M216.326,319.733s0,.005,0,.009c-.038.189.17.259.291.36a2.35,2.35,0,0,1,.857,1.174.489.489,0,0,0,.188.289l0-.008.022-.02a2.562,2.562,0,0,0-1.358-1.8" transform="translate(-187.797 -277.577)" fill="#fedfd0"/>
        <path id="Trazado_602345" data-name="Trazado 602345" d="M217.619,288.824a1.86,1.86,0,0,1,.67,2.43,1.784,1.784,0,0,1-1.364,1.02c-.155.03-.343.053-.412.2a2.036,2.036,0,0,0,2.1-1.734A2.14,2.14,0,0,0,217.2,288.4v0c-.063.211.254.3.42.423" transform="translate(-187.966 -250.373)" fill="#fedfd0"/>
        <path id="Trazado_602346" data-name="Trazado 602346" d="M65.789,198.318a2.675,2.675,0,0,0,1.338-.586q1.31-1.006,2.607-2.027a2.2,2.2,0,0,0,.884-1.837c-.005-.953,0-1.906,0-2.859a3.546,3.546,0,0,1,.221-1.3,2.32,2.32,0,0,1,2.631-1.419,2.277,2.277,0,0,1,1.891,2.313c.014,1.561,0,3.122.005,4.683a1.944,1.944,0,0,0,.567,1.521,1.923,1.923,0,0,0,1.409.462q8.553-.009,17.106,0a3.8,3.8,0,0,1,.979.082,1.932,1.932,0,0,1,1.428,1.645,1.865,1.865,0,0,1-1.06,1.9,2.619,2.619,0,0,1-1.2.238q-4.092-.006-8.183,0c-.219,0-.533-.059-.612.164.1-.016.112-.021.127-.021,2.975,0,5.951,0,8.926-.006a2.071,2.071,0,1,0-.011-4.138q-8.828-.005-17.656,0a1.534,1.534,0,0,1-.721-.1,1.665,1.665,0,0,1-.962-1.633c0-1.644,0-3.288,0-4.932a2.477,2.477,0,0,0-2.662-2.37,2.547,2.547,0,0,0-2.37,2.807c0,1.019-.007,2.039,0,3.058a2,2,0,0,1-.859,1.682c-.712.548-1.422,1.1-2.124,1.662a3.063,3.063,0,0,1-2.333.91l-.007.01a.714.714,0,0,0,.635.112" transform="translate(-56.564 -163.268)" fill="#fedfd0"/>
        <path id="Trazado_602347" data-name="Trazado 602347" d="M226.487,333.438l0,.008a.372.372,0,0,0,.034.024c0-.018-.006-.035-.008-.052l-.022.02" transform="translate(-196.622 -289.457)" fill="#fedfd0"/>
        <path id="Trazado_602348" data-name="Trazado 602348" d="M65.067,264.892l-.021,0,.014.012.007-.01" transform="translate(-56.47 -229.965)" fill="#fedfd0"/>
        <path id="Trazado_602349" data-name="Trazado 602349" d="M160.8,156.341a.511.511,0,0,1-.586-.428,3.732,3.732,0,0,0-2.568-2.569.557.557,0,0,1-.473-.656c.02-.566-.244-.825-.741-.824s-.751.259-.728.835c.016.388-.135.536-.486.646a3.76,3.76,0,0,0-2.561,2.578.484.484,0,0,1-.544.416c-.607,0-.947.294-.951.764s.34.776.941.773a.482.482,0,0,1,.552.405,3.744,3.744,0,0,0,2.5,2.573c.415.137.574.3.548.748a.647.647,0,0,0,.711.749c.5.009.781-.25.752-.809-.022-.413.14-.565.509-.68a3.744,3.744,0,0,0,2.532-2.545c.1-.313.222-.451.573-.444.593.013.941-.311.93-.782-.01-.451-.349-.759-.914-.751m-1.937.785a2.421,2.421,0,0,1-2.419,2.449,2.466,2.466,0,0,1-.016-4.932,2.415,2.415,0,0,1,2.434,2.483" transform="translate(-131.227 -131.842)" fill="#da4655"/>
        <path id="Trazado_602350" data-name="Trazado 602350" d="M174.988,172.931a2.466,2.466,0,0,0,.016,4.932,2.467,2.467,0,0,0-.016-4.932m-.016,3.331a.887.887,0,0,1,.025-1.746c.457,0,.753.363.743.911a.763.763,0,0,1-.768.835" transform="translate(-149.791 -150.13)" fill="#f8f6f6"/>
        <path id="Trazado_602351" data-name="Trazado 602351" d="M186.274,184.956a.887.887,0,0,0-.025,1.746.763.763,0,0,0,.768-.835c.01-.548-.286-.91-.743-.91" transform="translate(-161.068 -160.57)" fill="#e69098"/>
      </g>
    </g>
  </g>
</svg>
