<svg xmlns="http://www.w3.org/2000/svg" xmlns:xlink="http://www.w3.org/1999/xlink" width="85" height="85" viewBox="0 0 85 85">
  <defs>
    <clipPath id="clip-path">
      <rect id="Rectángulo_300835" data-name="Rectángulo 300835" width="46.232" height="50.341" fill="none"/>
    </clipPath>
  </defs>
  <g id="Grupo_886180" data-name="Grupo 886180" transform="translate(-948 -23712)">
    <g id="Elipse_6629" data-name="Elipse 6629" transform="translate(948 23712)" fill="#fff" stroke="#72e0fa" stroke-width="1">
      <circle cx="42.5" cy="42.5" r="42.5" stroke="none"/>
      <circle cx="42.5" cy="42.5" r="42" fill="none"/>
    </g>
    <g id="Grupo_886173" data-name="Grupo 886173" transform="translate(967 23729)">
      <g id="Grupo_886172" data-name="Grupo 886172" clip-path="url(#clip-path)">
        <path id="Trazado_602387" data-name="Trazado 602387" d="M48.239.438a1.8,1.8,0,0,0-.673,1.416c-.011,3.484-.019,6.968,0,10.451A1.6,1.6,0,0,0,49.314,14c2.535.012,5.071,0,7.606,0h.129a18.654,18.654,0,0,1,1.4-1.52c.118-.135.238-.267.357-.4q0-5.28.006-10.559a1.4,1.4,0,0,0-.77-1.271C57.905.172,57.769.085,57.632,0H48.588c.005.242-.207.317-.349.438m3.11,2.9c1.063-.006,2.126,0,3.188,0,1.046,0,2.093,0,3.139,0,.534,0,.839.277.842.736a.727.727,0,0,1-.829.749q-3.164.007-6.327,0c-.553,0-.9-.309-.887-.76s.344-.721.874-.725M51.3,6.93c1.391-.036,2.784-.041,4.175-.007a.726.726,0,0,1,.788.857c-.034.416-.348.667-.87.672-.672.007-1.343,0-2.015,0-.655,0-1.311,0-1.966,0-.567-.006-.9-.275-.938-.731A.778.778,0,0,1,51.3,6.93" transform="translate(-41.307)" fill="#fef8de"/>
        <path id="Trazado_602388" data-name="Trazado 602388" d="M46.415,1.688q-.028,5.379,0,10.758a1.719,1.719,0,0,0,1.773,1.709q3.881,0,7.763,0c.031-.051.066-.1.1-.147h-.129c-2.535,0-5.071.007-7.606,0a1.6,1.6,0,0,1-1.744-1.7c-.023-3.484-.015-6.968,0-10.451A1.8,1.8,0,0,1,47.237.438c.141-.121.354-.2.349-.438a1.99,1.99,0,0,0-1.171,1.688" transform="translate(-40.305)" fill="#fef8de"/>
        <path id="Trazado_602389" data-name="Trazado 602389" d="M312.053,36.575l.011-.011-.01-.011-.011.022h.01" transform="translate(-271.046 -31.751)" fill="#528ed7"/>
        <path id="Trazado_602390" data-name="Trazado 602390" d="M200.718.287a3.074,3.074,0,0,0-2.123,2.991c0,.509-.01,1.018.01,1.528l14.9,0a16.258,16.258,0,0,0-.082-2.137A3.143,3.143,0,0,0,211.01.092.752.752,0,0,1,210.846,0h-9.733c-.015.255-.244.231-.4.287" transform="translate(-172.5)" fill="#528ed7"/>
        <path id="Trazado_602391" data-name="Trazado 602391" d="M199.8.115a3.136,3.136,0,0,0-2.306,2.591,13.777,13.777,0,0,0-.031,2.1h.139c-.02-.51-.012-1.019-.01-1.528A3.074,3.074,0,0,1,199.711.287c.152-.055.38-.032.4-.287-.077.11-.205.081-.311.115" transform="translate(-171.493)" fill="#528ed7"/>
        <path id="Trazado_602392" data-name="Trazado 602392" d="M125.589,1.816q.005,4.779,0,9.557c0,.18-.009.359-.023.537,0,.014,0,.027-.006.041l2.48-2.557q0-.082,0-.163c0-2.375-.015-4.749.005-7.124a1.8,1.8,0,0,0-.87-1.833A.264.264,0,0,1,127.01,0h-2.753a1.565,1.565,0,0,1,1.332,1.816" transform="translate(-107.932)" fill="#feefac"/>
        <path id="Trazado_602393" data-name="Trazado 602393" d="M145.356.275a1.8,1.8,0,0,1,.87,1.833c-.021,2.374-.01,4.749-.005,7.124q0,.081,0,.163l.141-.145c0-2.571.011-5.141,0-7.712a1.447,1.447,0,0,0-.807-1.309c-.126-.071-.246-.152-.369-.228a.264.264,0,0,0,.167.275" transform="translate(-126.11)" fill="#feefac"/>
        <path id="Trazado_602394" data-name="Trazado 602394" d="M125.439,1.525q-.007,5.28-.006,10.559l.128-.133c0-.014,0-.027.006-.041.014-.178.023-.357.023-.537q0-4.779,0-9.557A1.565,1.565,0,0,0,124.257,0c.137.085.273.172.412.254a1.4,1.4,0,0,1,.77,1.271" transform="translate(-107.932)" fill="#feefac"/>
        <path id="Trazado_602395" data-name="Trazado 602395" d="M294.658,3.413c0,.328.009.655-.005.982a.647.647,0,0,1-.113.418l.01.011,2.085-.035a9.086,9.086,0,0,0-.068-2.073A3.109,3.109,0,0,0,294.476.271c-.139-.051-.344-.038-.347-.271h-2.261a3.242,3.242,0,0,1,2.79,3.413" transform="translate(-253.522)" fill="#0473cd"/>
        <path id="Trazado_602396" data-name="Trazado 602396" d="M309.425.271a3.109,3.109,0,0,1,2.091,2.445,9.086,9.086,0,0,1,.068,2.073l.131,0c0-.472,0-.945,0-1.417a3.437,3.437,0,0,0-.794-2.251A3.925,3.925,0,0,0,309.078,0c0,.233.209.221.347.271" transform="translate(-268.47)" fill="#0473cd"/>
        <path id="Trazado_602397" data-name="Trazado 602397" d="M294.448,2.665A16.268,16.268,0,0,1,294.53,4.8l.01.011a.646.646,0,0,0,.113-.417c.014-.327.008-.655.005-.983A3.242,3.242,0,0,0,291.868,0a.755.755,0,0,0,.163.092,3.143,3.143,0,0,1,2.416,2.573" transform="translate(-253.522)" fill="#0473cd"/>
        <path id="Trazado_602398" data-name="Trazado 602398" d="M209.678,58.3l1.18,0c.1-.453.566-.449.848-.669a3.2,3.2,0,0,0,1.3-2.618c.019-6.073.008-12.147.006-18.22a.391.391,0,0,1-.1.07,1.824,1.824,0,0,1-.68.073q-6.731,0-13.461,0a1.433,1.433,0,0,1-.652-.073c0,.016,0,.031,0,.047.019,5.395.006,10.789.007,16.182a1.954,1.954,0,0,1-.037.438.723.723,0,0,1-.062.138c.382-.086.656-.4,1.037-.5a.927.927,0,0,1,1.028.234c.158.166.323.325.485.487.637.638.676.945.215,1.713-.067.112-.148.216-.209.331a.95.95,0,0,0,.56,1.451c.122.043.253.062.378.1a1.426,1.426,0,0,1,1.118.866.427.427,0,0,1,.366-.173,31.853,31.853,0,0,1,3.607.042.247.247,0,0,1,.106.078c.756-1.3,2.041-1.291,2.951.013m-9.432-18.083c0-.631.268-.895.882-.911.863-.023,1.727-.051,2.59-.07.158,0,.329-.047.469.078a.7.7,0,0,1,.587.774q0,1.462,0,2.924a.7.7,0,0,1-.5.743c-.134.132-.305.1-.465.1-.865-.005-1.731-.008-2.6-.026-.667-.014-.961-.312-.965-.962q-.008-1.323,0-2.645m4.528,9.061a.7.7,0,0,1-.584.783,3.925,3.925,0,0,1-1.548.06c-.522-.035-1.042-.042-1.563-.056a.746.746,0,0,1-.829-.812c-.013-.948-.007-1.9,0-2.844,0-.38.159-.728.541-.775a13.133,13.133,0,0,1,3.4-.034.706.706,0,0,1,.583.785q0,1.446,0,2.893m2.239-8.474q2.479-.006,4.959,0a.714.714,0,0,1,.8.737c.009.46-.266.728-.786.734-.835.009-1.669,0-2.5,0-.818,0-1.637,0-2.455,0a.738.738,0,1,1-.013-1.472m-.072,4.788a2.2,2.2,0,0,1,.579-.069h4.02a3.579,3.579,0,0,1,.579.067.711.711,0,0,1,.658.771.818.818,0,0,1-.843.73c-.817.011-1.634,0-2.451,0-.784,0-1.569,0-2.353,0-.524,0-.857-.246-.894-.639-.048-.5.137-.709.706-.861m-.705,3.655a.685.685,0,0,1,.712-.668c.488-.039.981-.009,1.473-.01.442,0,.884-.009,1.326,0a.736.736,0,0,1,.8.688.72.72,0,0,1-.644.791,10.587,10.587,0,0,1-3.069,0,.659.659,0,0,1-.6-.8" transform="translate(-172.017 -31.957)" fill="#dce9fa"/>
        <path id="Trazado_602399" data-name="Trazado 602399" d="M237.119,199.33a31.881,31.881,0,0,0-3.607-.042.428.428,0,0,0-.366.173,1.332,1.332,0,0,1,.043.159c.062-.3.3-.192.474-.193,1.184-.008,2.368,0,3.553,0l.008-.014a.248.248,0,0,0-.106-.078" transform="translate(-202.515 -173.078)" fill="#dce9fa"/>
        <path id="Trazado_602400" data-name="Trazado 602400" d="M197.682,53.341a1.953,1.953,0,0,0,.037-.438c0-5.394.011-10.788-.007-16.182,0-.016,0-.031,0-.047a.583.583,0,0,1-.143-.1q0,8.458-.01,16.916c.022,0,.042-.01.063-.015a.712.712,0,0,0,.062-.138" transform="translate(-171.602 -31.771)" fill="#dce9fa"/>
        <path id="Trazado_602401" data-name="Trazado 602401" d="M199.346,36.725q6.731,0,13.461,0a1.821,1.821,0,0,0,.68-.073.394.394,0,0,0,.1-.07v-.009l.011-.022-14.9,0c0,.032,0,.064,0,.1a1.434,1.434,0,0,0,.652.073" transform="translate(-172.586 -31.75)" fill="#dce9fa"/>
        <path id="Trazado_602402" data-name="Trazado 602402" d="M197.771,36.576h-.139a.58.58,0,0,0,.143.1c0-.032,0-.064,0-.1" transform="translate(-171.667 -31.771)" fill="#dce9fa"/>
        <path id="Trazado_602403" data-name="Trazado 602403" d="M231.492,166.473a5.428,5.428,0,0,1,1.3-3.062,13.238,13.238,0,0,0,2.629-4.926,8.483,8.483,0,0,0,.286-1.876c0-3.406-.01-6.812.009-10.218a2.127,2.127,0,0,0-.6-1.644.635.635,0,0,1-.091-.218h0a2.006,2.006,0,0,0-.869,1.513c-.164,1.35-.257,2.709-.431,4.058a4.6,4.6,0,0,1-.181,1.293h0a33.429,33.429,0,0,1-.533,4.541,4.621,4.621,0,0,1-1.826,2.639,3.5,3.5,0,0,1-1.116,1.956c-.534.5-1.039,1.039-1.563,1.554-.384.378-.748.42-1.08.141a.737.737,0,0,1-.047-1.124,9.544,9.544,0,0,1,1.939-1.834c.6-2.215.161-4.475.3-6.71a2.056,2.056,0,0,0-.08-.577.825.825,0,0,1-.312-.289,1.443,1.443,0,0,0-2.308-.116c-.107.11-.178.263-.343.307a.323.323,0,0,1,.035.239,25.739,25.739,0,0,1-.577,3.63,5.655,5.655,0,0,1-1.583,2.269,24.393,24.393,0,0,0-1.831,1.773,6.937,6.937,0,0,0-1.073,7.585,8.148,8.148,0,0,1,.311,3.388.294.294,0,0,1-.07.188l9.7-.007c0-1.49-.036-2.981.005-4.47" transform="translate(-191.857 -125.539)" fill="#fecdbe"/>
        <path id="Trazado_602404" data-name="Trazado 602404" d="M221.066,219.363a8.152,8.152,0,0,0-.311-3.388,6.937,6.937,0,0,1,1.074-7.585,24.378,24.378,0,0,1,1.831-1.773,5.654,5.654,0,0,0,1.583-2.269,25.761,25.761,0,0,0,.577-3.63.322.322,0,0,0-.035-.239l-.015,0a16.42,16.42,0,0,0-.376,2.649,5.307,5.307,0,0,1-1.722,3.307,23.6,23.6,0,0,0-1.969,1.9,7.049,7.049,0,0,0-1.549,6.3c.146.694.511,1.308.689,1.983a14.106,14.106,0,0,1,.121,2.928H221a.3.3,0,0,0,.07-.188" transform="translate(-191.068 -174.139)" fill="#fecdbe"/>
        <path id="Trazado_602405" data-name="Trazado 602405" d="M264.537,193.711a1.443,1.443,0,0,1,2.308.116.826.826,0,0,0,.312.289c-.007-.031-.014-.063-.02-.094-.91-1.3-2.195-1.309-2.951-.013l.007.009c.165-.044.236-.2.343-.307" transform="translate(-229.477 -167.679)" fill="#fecdbe"/>
        <path id="Trazado_602406" data-name="Trazado 602406" d="M264.131,200.41l-.008.014.016,0-.007-.009" transform="translate(-229.422 -174.08)" fill="#fecdbe"/>
        <path id="Trazado_602407" data-name="Trazado 602407" d="M13.972,171.471a10.311,10.311,0,0,1,.1-2.956c.2-.7.568-1.347.709-2.077a7.032,7.032,0,0,0-1.794-6.414c-.727-.8-1.6-1.435-2.3-2.268a4.551,4.551,0,0,1-1.053-2.421c-.113-.885-.256-1.768-.418-2.645a.857.857,0,0,0-.357-.671,1.569,1.569,0,0,0-.406,1.116c.011,1.653.02,3.307,0,4.96a3.064,3.064,0,0,0,.4,1.687c.584.57,1.175,1.133,1.748,1.713a.937.937,0,0,1,.312.542.755.755,0,0,1-.382.787.661.661,0,0,1-.854-.112c-.483-.464-.964-.933-1.422-1.422a2.229,2.229,0,0,0-1.025-.628,7.112,7.112,0,0,1-3.087-1.714A6.042,6.042,0,0,1,2.459,155c-.078-.97-.2-1.937-.314-2.9-.12-1.064-.246-2.126-.369-3.19-.105-.9-.207-1.805-.319-2.707-.056-.452-.408-.729-.665-1.06h0a1.827,1.827,0,0,0-.788,1.6c0,3.372-.011,6.745.007,10.118A9.985,9.985,0,0,0,1.4,161.736c.562,1,1.345,1.845,1.947,2.817a5.192,5.192,0,0,1,.9,3c-.049,1.308-.009,2.619-.007,3.929l9.729-.006" transform="translate(0 -126.067)" fill="#fecdbf"/>
        <path id="Trazado_602408" data-name="Trazado 602408" d="M134.138,156.682c-.2-.6-.712-.759-1.238-.913-1-.293-1.26-.964-.726-1.874a3.7,3.7,0,0,0,.25-.477.859.859,0,0,0-.231-1.1,1.837,1.837,0,0,1-.139-.138c-.9-.9-.916-.907-2.055-.327-.131.067-.262.162-.413.076-.142.2-.366.2-.623.108a1.233,1.233,0,0,1-.768-.892c-.392-1.28-.4-1.279-1.692-1.27-.767.005-.964.152-1.2.892-.044.141-.076.285-.122.425a1.133,1.133,0,0,1-1.715.7c-1.242-.621-1.242-.621-2.2.371a.923.923,0,0,0-.214,1.316c.1.207.241.39.336.6a1.069,1.069,0,0,1-.55,1.476c-.269.124-.562.177-.839.279a1,1,0,0,0-.738,1.037c0,.131,0,.262,0,.393.007.849.2,1.1,1.011,1.324a1.852,1.852,0,0,1,.839.381,1.024,1.024,0,0,1,.274,1.287c-.137.315-.334.6-.444.93a.847.847,0,0,0,.129.835,4.333,4.333,0,0,0,.757.768.955.955,0,0,0,1.024.078c.272-.113.523-.274.8-.379a1.084,1.084,0,0,1,1.5.686c.023.061-.007-.015.015.047.483,1.395.485,1.388,1.954,1.335a.876.876,0,0,0,.867-.594c.1-.259.175-.529.27-.79a1.08,1.08,0,0,1,1.5-.682c.275.107.527.265.8.379a.989.989,0,0,0,1.175-.208c.116-.116.235-.228.349-.346a1,1,0,0,0,.238-1.446c-.084-.178-.178-.351-.26-.529a1.128,1.128,0,0,1,.7-1.648c1.3-.467,1.3-.467,1.386-1.875a1.36,1.36,0,0,1,.024-.2.054.054,0,0,1-.029-.031m-4.728,1.442a2.731,2.731,0,0,1-2.245,1.946,2.816,2.816,0,0,1-3.287-2.9,2.832,2.832,0,1,1,5.532.959" transform="translate(-103.592 -130.181)" fill="#cae1fe"/>
        <path id="Trazado_602409" data-name="Trazado 602409" d="M133.312,155.547a1.361,1.361,0,0,0-.024.2c-.083,1.409-.083,1.409-1.386,1.875a1.128,1.128,0,0,0-.7,1.648c.082.178.177.351.26.529a1,1,0,0,1-.238,1.446c-.113.118-.233.231-.349.346a.989.989,0,0,1-1.175.208c-.272-.114-.524-.272-.8-.379a1.081,1.081,0,0,0-1.5.682c-.095.261-.166.531-.27.79a.876.876,0,0,1-.867.594c-1.469.053-1.471.06-1.954-1.335-.021-.062.008.015-.015-.047a1.084,1.084,0,0,0-1.5-.686c-.276.105-.527.265-.8.379a.955.955,0,0,1-1.024-.078,4.338,4.338,0,0,1-.757-.768.847.847,0,0,1-.129-.835c.11-.33.307-.615.444-.93a1.024,1.024,0,0,0-.274-1.287,1.852,1.852,0,0,0-.839-.381c-.813-.221-1-.474-1.011-1.324,0-.131,0-.262,0-.393a1,1,0,0,1,.738-1.037c.277-.1.57-.155.839-.279a1.069,1.069,0,0,0,.55-1.476c-.095-.21-.237-.393-.336-.6a.923.923,0,0,1,.214-1.316c.961-.991.961-.991,2.2-.371a1.133,1.133,0,0,0,1.715-.7c.046-.14.078-.284.122-.425.231-.74.429-.887,1.2-.892,1.3-.009,1.3-.011,1.692,1.27a1.233,1.233,0,0,0,.768.892c.257.091.481.092.623-.108a.305.305,0,0,1-.038-.024.889.889,0,0,1-1.159-.579,7.091,7.091,0,0,0-.37-1.111,2.035,2.035,0,0,0-2.576-.11.953.953,0,0,0-.111.218c-.1.309-.213.616-.3.93a.894.894,0,0,1-.949.691,1.385,1.385,0,0,1-.726-.257c-.746-.445-1.184-.673-1.906.2-.073.088-.161.163-.242.244-.609.611-.645.879-.215,1.634.064.113.144.218.207.332a.969.969,0,0,1-.66,1.543c-1.334.358-1.418.468-1.413,1.851,0,.016,0,.033,0,.049a1.071,1.071,0,0,0,.986,1.24c1.224.227,1.643,1.015.874,2.063a1.016,1.016,0,0,0-.013,1.393c.856.87,1.015,1.419,2.481.58.057-.033.115-.062.175-.089a.954.954,0,0,1,1.407.648c.088.3.2.588.311.875a.8.8,0,0,0,.845.537c1.456-.05,1.676.36,2.2-1.53a.851.851,0,0,1,.927-.643,3.179,3.179,0,0,1,1.123.46,1.109,1.109,0,0,0,1.163-.024c1.129-.79,1.249-1.3.624-2.538-.022-.044-.043-.088-.065-.132a1,1,0,0,1,.624-1.478c1.486-.465,1.486-.465,1.479-2.031,0-.049,0-.1,0-.147h0a.162.162,0,0,1-.1-.009" transform="translate(-102.737 -129.015)" fill="#cae1fe"/>
        <path id="Trazado_602410" data-name="Trazado 602410" d="M201.37,165.313c-.125-.035-.256-.054-.378-.1a.95.95,0,0,1-.56-1.451c.061-.115.142-.219.209-.331.461-.767.422-1.075-.215-1.712-.162-.162-.328-.321-.485-.487a.928.928,0,0,0-1.028-.234c-.381.108-.655.417-1.037.5-.008.013-.016.027-.024.039.151.086.282-.009.413-.076,1.139-.579,1.156-.577,2.055.327a1.813,1.813,0,0,0,.139.138.859.859,0,0,1,.231,1.1,3.721,3.721,0,0,1-.25.477c-.535.91-.277,1.581.726,1.874.526.154,1.042.312,1.238.913a.054.054,0,0,0,.029.031.548.548,0,0,1,.044-.133l.012-.017a1.426,1.426,0,0,0-1.118-.866" transform="translate(-171.857 -139.797)" fill="#cae1fe"/>
        <path id="Trazado_602411" data-name="Trazado 602411" d="M197.621,165.219c-.021,0-.041.012-.063.015a.317.317,0,0,0,.038.024c.009-.012.016-.025.024-.039" transform="translate(-171.602 -143.512)" fill="#cae1fe"/>
        <path id="Trazado_602412" data-name="Trazado 602412" d="M232.759,200.822a.541.541,0,0,0-.044.133.162.162,0,0,0,.1.009h0a1.328,1.328,0,0,0-.043-.159l-.012.017" transform="translate(-202.14 -174.423)" fill="#cae1fe"/>
        <path id="Trazado_602413" data-name="Trazado 602413" d="M231.689,346.553a2.022,2.022,0,0,0-.2-.94l-1.642-.022a.472.472,0,0,1-.081.079,1.6,1.6,0,0,1-.722.09q-4.085,0-8.169,0a1.069,1.069,0,0,1-.771-.145.314.314,0,0,1-.1.071.449.449,0,0,1-.093.033c-.955.157-.955.157-.955,1.158,0,.9,0,1.8,0,2.7.005.708.079.784.8.784q5.72.005,11.441,0c.082,0,.164,0,.245,0l.108,0a2.243,2.243,0,0,0,.134-.841q-.018-1.485,0-2.971" transform="translate(-190.193 -300.186)" fill="#dce9fa"/>
        <path id="Trazado_602414" data-name="Trazado 602414" d="M230.426,350.409c-.081,0-.163,0-.245,0q-5.72,0-11.441,0c-.718,0-.792-.076-.8-.784-.007-.9,0-1.8,0-2.7,0-1,0-1,.955-1.157a.44.44,0,0,0,.093-.033.312.312,0,0,0,.1-.071c-.006-.005-.013-.009-.02-.015l-.54,0c-.683,0-.74.056-.741.718q0,1.768,0,3.536c0,.575.083.66.65.66q6.017,0,12.035,0c.024-.049.044-.1.063-.148l-.108,0" transform="translate(-189.172 -300.232)" fill="#dce9fa"/>
        <path id="Trazado_602415" data-name="Trazado 602415" d="M228.463,345.756q4.085.007,8.169,0a1.6,1.6,0,0,0,.722-.09.471.471,0,0,0,.081-.079h-.027l-9.7.007-.013.015a1.069,1.069,0,0,0,.771.145" transform="translate(-197.777 -300.184)" fill="#dce9fa"/>
        <path id="Trazado_602416" data-name="Trazado 602416" d="M227.576,345.643h-.033c.006.006.013.01.02.015l.013-.015" transform="translate(-197.648 -300.231)" fill="#dce9fa"/>
        <path id="Trazado_602417" data-name="Trazado 602417" d="M306.251,145.091c-.009,3.47.043,6.941-.021,10.41a9.9,9.9,0,0,1-2.109,5.716,21.8,21.8,0,0,0-1.392,2.02,4.916,4.916,0,0,0-.715,2.615c.028,1.112.011,2.226,0,3.339a.939.939,0,0,1-.1.586,2.667,2.667,0,0,1,1.635-.036.789.789,0,0,1,.077.069l.571-.017a.937.937,0,0,1-.107-.593c-.005-1.243-.015-2.487,0-3.73a5.842,5.842,0,0,1,1.347-3.31,19.462,19.462,0,0,0,1.83-2.783,10.052,10.052,0,0,0,1.053-4.5c-.022-3.206-.048-6.413.014-9.618a1.892,1.892,0,0,0-2.406-1.982.458.458,0,0,1-.418-.005l-.07.072a2.164,2.164,0,0,1,.805,1.741" transform="translate(-262.251 -124.386)" fill="#feaf9d"/>
        <path id="Trazado_602418" data-name="Trazado 602418" d="M320.27,142.483a1.892,1.892,0,0,1,2.406,1.982c-.063,3.2-.036,6.412-.014,9.618a10.053,10.053,0,0,1-1.053,4.5,19.447,19.447,0,0,1-1.83,2.783,5.844,5.844,0,0,0-1.347,3.31c-.017,1.243-.007,2.486,0,3.73a.937.937,0,0,0,.107.593h.022c0-1.342.025-2.684,0-4.025a4.658,4.658,0,0,1,.788-2.682c.615-.943,1.3-1.839,1.907-2.788a8.887,8.887,0,0,0,1.519-4.6c.073-3.565.03-7.133.034-10.7a1.713,1.713,0,0,0-.126-.716c-.5-1.119-1.472-1.471-2.83-1.011l0,0a.457.457,0,0,0,.418.005" transform="translate(-276.588 -123.587)" fill="#feaf9d"/>
        <path id="Trazado_602419" data-name="Trazado 602419" d="M305.076,144.36a.637.637,0,0,0,.091.218,2.127,2.127,0,0,1,.6,1.644c-.019,3.406-.011,6.812-.009,10.218a8.475,8.475,0,0,1-.286,1.876,13.24,13.24,0,0,1-2.629,4.926,5.428,5.428,0,0,0-1.3,3.062c-.041,1.489-.007,2.98-.005,4.47h0l.037-.014a.938.938,0,0,0,.1-.586c.008-1.113.025-2.227,0-3.339a4.915,4.915,0,0,1,.715-2.615,21.794,21.794,0,0,1,1.392-2.02,9.9,9.9,0,0,0,2.109-5.716c.065-3.469.013-6.94.021-10.41a2.164,2.164,0,0,0-.805-1.741l-.025.025h0" transform="translate(-261.906 -125.372)" fill="#feaf9d"/>
        <path id="Trazado_602420" data-name="Trazado 602420" d="M303.488,344.553l.079,0a.778.778,0,0,0-.077-.069,2.665,2.665,0,0,0-1.635.036l-.009.014,1.642.022" transform="translate(-262.189 -299.126)" fill="#feaf9d"/>
        <path id="Trazado_602421" data-name="Trazado 602421" d="M301.636,345.5h.028l.009-.014Z" transform="translate(-262.006 -300.094)" fill="#feaf9d"/>
        <path id="Trazado_602422" data-name="Trazado 602422" d="M35.156,349.375q0-1.611,0-3.222a.992.992,0,0,0-.095-.568l-1.556-.022a.634.634,0,0,1-.125.106,2.061,2.061,0,0,1-.681.063q-4.073,0-8.145,0c-.271,0-.563.058-.793-.161a4.47,4.47,0,0,1-.638,0c-.474-.065-.632.223-.638.6q-.028,1.865,0,3.732c.006.377.169.6.64.6,3.978-.02,7.956-.013,11.934-.015a3.205,3.205,0,0,0,.1-1.109" transform="translate(-19.519 -300.158)" fill="#dce9fa"/>
        <path id="Trazado_602423" data-name="Trazado 602423" d="M33.08,345.757q4.073.008,8.145,0a2.06,2.06,0,0,0,.681-.063.624.624,0,0,0,.125-.106h-.015l-9.729.006h0c.23.219.522.161.793.161" transform="translate(-28.045 -300.185)" fill="#dce9fa"/>
        <path id="Trazado_602424" data-name="Trazado 602424" d="M67.927,194.274a19.072,19.072,0,0,1,.4,2.471,5.077,5.077,0,0,0,1.935,3.407,9.51,9.51,0,0,1,2.925,3.754,7.026,7.026,0,0,1-.028,5.181,6.276,6.276,0,0,0-.5,3.109c.029.269.118.588-.087.827a2.3,2.3,0,0,1,1.566-.03.54.54,0,0,1,.065.059l.693-.017c0-.262.013-.524,0-.786a7.351,7.351,0,0,1,.5-3.159,7.131,7.131,0,0,0-2.129-8.2,15.5,15.5,0,0,1-1.676-1.656,3.73,3.73,0,0,1-.931-2.066c-.121-.985-.29-1.967-.491-2.939a1.511,1.511,0,0,0-1.272-1.216,1.33,1.33,0,0,0-1.461.564c.414.053.426.412.487.694" transform="translate(-58.58 -167.627)" fill="#feaf9d"/>
        <path id="Trazado_602425" data-name="Trazado 602425" d="M67.8,198.209c.161.878.3,1.76.417,2.645a4.551,4.551,0,0,0,1.053,2.421c.7.833,1.57,1.472,2.3,2.268a7.032,7.032,0,0,1,1.794,6.414c-.141.73-.513,1.373-.709,2.077a10.311,10.311,0,0,0-.1,2.956l.023-.009c.205-.239.116-.558.087-.827a6.277,6.277,0,0,1,.5-3.109,7.025,7.025,0,0,0,.028-5.181,9.512,9.512,0,0,0-2.925-3.754,5.078,5.078,0,0,1-1.935-3.407,19.049,19.049,0,0,0-.4-2.471c-.061-.282-.073-.641-.487-.694a.857.857,0,0,1,.357.671" transform="translate(-58.58 -171.585)" fill="#feaf9d"/>
        <path id="Trazado_602426" data-name="Trazado 602426" d="M108.03,344.483a2.3,2.3,0,0,0-1.566.03l-.008.009,1.556.022.083,0a.548.548,0,0,0-.065-.059" transform="translate(-92.47 -299.117)" fill="#feaf9d"/>
        <path id="Trazado_602427" data-name="Trazado 602427" d="M106.34,345.53h.015l.008-.009-.023.009" transform="translate(-92.369 -300.125)" fill="#feaf9d"/>
        <path id="Trazado_602428" data-name="Trazado 602428" d="M6.823,143.7c.167,1.132.27,2.272.4,3.409.187,1.608.356,3.218.543,4.826a11.218,11.218,0,0,0,.383,2.119,5.519,5.519,0,0,0,3.038,3.355,2.322,2.322,0,0,0,.54.232,5.106,5.106,0,0,1,2.758,1.845,3.558,3.558,0,0,0,.535.5.555.555,0,0,0,.762-.013.581.581,0,0,0,.121-.758,2.034,2.034,0,0,0-.394-.5l-1.18-1.181c-.109-.109-.284-.184-.252-.388a4.464,4.464,0,0,1-3.824-3.543c-.19-1.154-.269-2.326-.415-3.487-.258-2.066-.492-4.134-.69-6.207A1.95,1.95,0,0,0,6.016,142.5a1.383,1.383,0,0,1,.807,1.2" transform="translate(-5.226 -123.429)" fill="#feaf9d"/>
        <path id="Trazado_602429" data-name="Trazado 602429" d="M6.682,146.195c.112.9.214,1.8.319,2.707.124,1.063.249,2.126.369,3.19.109.968.235,1.934.314,2.9a6.042,6.042,0,0,0,1.685,3.953,7.112,7.112,0,0,0,3.087,1.714,2.228,2.228,0,0,1,1.025.628c.458.489.939.958,1.422,1.422a.661.661,0,0,0,.854.112.754.754,0,0,0,.382-.787.937.937,0,0,0-.312-.542c-.573-.58-1.164-1.143-1.748-1.713-.032.2.143.279.252.388l1.18,1.181a2.036,2.036,0,0,1,.394.5.581.581,0,0,1-.121.758.555.555,0,0,1-.762.013,3.552,3.552,0,0,1-.535-.505,5.106,5.106,0,0,0-2.758-1.845,2.315,2.315,0,0,1-.54-.232,5.519,5.519,0,0,1-3.038-3.355,11.218,11.218,0,0,1-.383-2.119c-.187-1.608-.356-3.218-.543-4.825-.132-1.137-.236-2.277-.4-3.409a1.383,1.383,0,0,0-.807-1.2c.258.331.609.608.666,1.06" transform="translate(-5.226 -126.067)" fill="#feaf9d"/>
        <path id="Trazado_602430" data-name="Trazado 602430" d="M298.325,36.724a.876.876,0,0,1,.151.646c0,5.813.011,11.626,0,17.439a3.424,3.424,0,0,1-1.859,3.182,1.576,1.576,0,0,0-.366.246,5.011,5.011,0,0,0,2.65-.424c0-.036.007-.073.01-.109.2-1.68.394-3.361.553-5.045A2.782,2.782,0,0,1,300,51.167c.128-.165.253-.345.5-.323a.093.093,0,0,1,.086-.059.327.327,0,0,1-.072-.074,1.14,1.14,0,0,1-.086-.527c0-4.443-.013-8.886,0-13.328,0-.019,0-.037,0-.055a.345.345,0,0,1-.156.038,6.22,6.22,0,0,1-1.883-.072l-.043-.048h-.021l-.005.005" transform="translate(-257.323 -31.894)" fill="#cae1fe"/>
        <path id="Trazado_602431" data-name="Trazado 602431" d="M328.062,36.556c0,.018,0,.037,0,.055-.018,4.442,0,8.885,0,13.328a1.137,1.137,0,0,0,.086.527.326.326,0,0,0,.072.074h0q0-3.12-.006-6.241-.007-3.931-.016-7.862a.364.364,0,0,1-.133.118" transform="translate(-284.951 -31.651)" fill="#cae1fe"/>
        <path id="Trazado_602432" data-name="Trazado 602432" d="M312.053,36.721h-.01l0,.005.006-.005" transform="translate(-271.046 -31.896)" fill="#cae1fe"/>
        <path id="Trazado_602433" data-name="Trazado 602433" d="M314.206,36.61a.346.346,0,0,0,.156-.038c0-.039,0-.078,0-.116l-2.085.035.043.048a6.215,6.215,0,0,0,1.883.072" transform="translate(-271.251 -31.665)" fill="#cae1fe"/>
        <path id="Trazado_602434" data-name="Trazado 602434" d="M328.129,36.556a.364.364,0,0,0,.133-.118l-.131,0c0,.039,0,.078,0,.116" transform="translate(-285.018 -31.651)" fill="#cae1fe"/>
        <path id="Trazado_602435" data-name="Trazado 602435" d="M297.775,54.985a3.2,3.2,0,0,1-1.3,2.618c-.282.22-.753.216-.848.669l.082,0a1.574,1.574,0,0,1,.366-.246,3.425,3.425,0,0,0,1.859-3.182q.023-8.719,0-17.439a.877.877,0,0,0-.151-.646l0,0c0,6.073.013,12.147-.006,18.22" transform="translate(-256.784 -31.931)" fill="#cae1fe"/>
        <path id="Trazado_602436" data-name="Trazado 602436" d="M312.044,36.722v.009l0,0,0-.005" transform="translate(-271.047 -31.897)" fill="#cae1fe"/>
        <path id="Trazado_602437" data-name="Trazado 602437" d="M316.535,151.123a4.6,4.6,0,0,0,.182-1.293c.174-1.349.267-2.708.431-4.058a2.007,2.007,0,0,1,.869-1.513h0a.121.121,0,0,1,.007-.039c-.251-.022-.376.158-.5.323a2.78,2.78,0,0,0-.538,1.492c-.159,1.684-.353,3.365-.553,5.045,0,.036-.007.073-.01.109C316.457,151.168,316.5,151.147,316.535,151.123Z" transform="translate(-274.846 -125.271)" fill="#cae1fe"/>
        <path id="Trazado_602438" data-name="Trazado 602438" d="M328.635,143.841h0l.014.013.07-.072h0a.093.093,0,0,0-.086.059" transform="translate(-285.458 -124.891)" fill="#cae1fe"/>
        <path id="Trazado_602439" data-name="Trazado 602439" d="M329.292,143.778l0,0h0" transform="translate(-286.028 -124.886)" fill="#cae1fe"/>
        <path id="Trazado_602440" data-name="Trazado 602440" d="M328.609,144.246l-.015-.013h0a.122.122,0,0,0-.007.039l.025-.025" transform="translate(-285.414 -125.283)" fill="#cae1fe"/>
        <path id="Trazado_602441" data-name="Trazado 602441" d="M122.557,73.972c-.164.158-.262.411-.5.48a.568.568,0,0,1-.133.246c-.549.574-1.1,1.151-1.676,1.693.888.008,1.777.013,2.665,0a1.543,1.543,0,0,0,1.645-1.673c.007-.964,0-1.928,0-2.892a18.978,18.978,0,0,1-2,2.152" transform="translate(-104.445 -62.384)" fill="#fec345"/>
        <path id="Trazado_602442" data-name="Trazado 602442" d="M123.529,70.587c0,.964,0,1.928,0,2.892a1.543,1.543,0,0,1-1.645,1.673c-.888.018-1.777.013-2.665,0-.052.048-.1.1-.155.146.979,0,1.959.011,2.939,0a1.634,1.634,0,0,0,1.676-1.572c.019-1.11,0-2.22-.006-3.33-.046.063-.094.125-.141.187" transform="translate(-103.419 -61.151)" fill="#fec345"/>
        <path id="Trazado_602443" data-name="Trazado 602443" d="M121.55,92.094a.565.565,0,0,0,.133-.246.463.463,0,0,1-.106.017c-.119.134-.24.266-.357.4a18.653,18.653,0,0,0-1.4,1.52h.056c.581-.542,1.128-1.119,1.676-1.693" transform="translate(-104.076 -79.781)" fill="#fec345"/>
        <path id="Trazado_602444" data-name="Trazado 602444" d="M119.216,106.6h-.056c-.034.048-.068.1-.1.147.053-.048.1-.1.155-.146" transform="translate(-103.418 -92.598)" fill="#fec345"/>
        <path id="Trazado_602445" data-name="Trazado 602445" d="M134.521,73.7a18.979,18.979,0,0,0,2-2.152V71.5l-2.48,2.558a.8.8,0,0,1-.023.115c.242-.068.34-.322.5-.48" transform="translate(-116.409 -62.11)" fill="#fec345"/>
        <path id="Trazado_602446" data-name="Trazado 602446" d="M153.064,70.587c.047-.062.095-.123.141-.187l-.141.145v.041" transform="translate(-132.954 -61.151)" fill="#fec345"/>
        <path id="Trazado_602447" data-name="Trazado 602447" d="M133.337,90.971l-.129.133a.462.462,0,0,0,.106-.017.778.778,0,0,0,.023-.115" transform="translate(-115.707 -79.019)" fill="#fec345"/>
        <path id="Trazado_602448" data-name="Trazado 602448" d="M119.065,345.615h0a.567.567,0,0,1-.644.078.87.87,0,0,1,.113.5c.011,1.226.009,2.452,0,3.678a.776.776,0,0,1-.248.663h0c.458,0,.916,0,1.374,0,.613,0,.687-.073.688-.67,0-.981,0-1.963,0-2.944.006-1.476.079-1.283-1.285-1.308" transform="translate(-102.746 -300.207)" fill="#cae1fe"/>
        <path id="Trazado_602449" data-name="Trazado 602449" d="M118.535,349.992c.008-1.226.009-2.452,0-3.678a.869.869,0,0,0-.113-.5c-.044-.018-.088-.037-.132-.059a.992.992,0,0,1,.095.568q0,1.611,0,3.222a3.208,3.208,0,0,1-.1,1.109.776.776,0,0,0,.248-.663" transform="translate(-102.746 -300.33)" fill="#cae1fe"/>
        <path id="Trazado_602450" data-name="Trazado 602450" d="M118.985,345.694a.567.567,0,0,0,.644-.078l-.693.017a.49.49,0,0,1,.049.061" transform="translate(-103.31 -300.208)" fill="#cae1fe"/>
        <path id="Trazado_602451" data-name="Trazado 602451" d="M118.384,345.741l-.083,0c.044.022.088.042.132.059a.5.5,0,0,0-.049-.061" transform="translate(-102.758 -300.317)" fill="#cae1fe"/>
        <path id="Trazado_602452" data-name="Trazado 602452" d="M315.376,345.757a1.168,1.168,0,0,1,.2.747q.024,1.638,0,3.276a1.044,1.044,0,0,1-.17.671c.369.005.738,0,1.108,0a.463.463,0,0,0,.526-.5c.024-1.207.018-2.415,0-3.622a.44.44,0,0,0-.489-.483,1.207,1.207,0,0,1-.62-.105.52.52,0,0,1-.037-.045.458.458,0,0,1-.524.069" transform="translate(-273.941 -300.27)" fill="#cae1fe"/>
        <path id="Trazado_602453" data-name="Trazado 602453" d="M315.038,345.66a1.206,1.206,0,0,0,.62.105.44.44,0,0,1,.489.483c.014,1.207.021,2.415,0,3.622a.463.463,0,0,1-.526.5c-.369,0-.738.008-1.108,0a.637.637,0,0,1-.168.146c.424,0,.849,0,1.273,0,.571,0,.684-.108.687-.685.006-1,0-1.991,0-2.986.009-1.4.047-1.233-1.24-1.249l-.049,0h0l-.014.011a.493.493,0,0,0,.037.045" transform="translate(-273.042 -300.198)" fill="#cae1fe"/>
        <path id="Trazado_602454" data-name="Trazado 602454" d="M314.685,346.565a1.168,1.168,0,0,0-.2-.747q-.067-.027-.135-.06a2.022,2.022,0,0,1,.2.94q-.017,1.485,0,2.971a2.244,2.244,0,0,1-.134.841l.1,0a1.044,1.044,0,0,0,.17-.671q.024-1.638,0-3.276" transform="translate(-273.047 -300.331)" fill="#cae1fe"/>
        <path id="Trazado_602455" data-name="Trazado 602455" d="M314.508,381.927l-.1,0c-.019.05-.039.1-.063.148h0a.642.642,0,0,0,.168-.146" transform="translate(-273.041 -331.747)" fill="#cae1fe"/>
        <path id="Trazado_602456" data-name="Trazado 602456" d="M315.006,345.689a.458.458,0,0,0,.524-.069l-.009-.01-.571.017a.731.731,0,0,1,.056.063" transform="translate(-273.571 -300.202)" fill="#cae1fe"/>
        <path id="Trazado_602457" data-name="Trazado 602457" d="M319.3,345.615l.014-.011H319.3l.009.01" transform="translate(-277.346 -300.198)" fill="#cae1fe"/>
        <path id="Trazado_602458" data-name="Trazado 602458" d="M314.482,345.8a.734.734,0,0,0-.056-.063l-.079,0q.068.034.135.06" transform="translate(-273.047 -300.315)" fill="#cae1fe"/>
        <path id="Trazado_602459" data-name="Trazado 602459" d="M70.659,26.873q3.164.006,6.327,0a.728.728,0,0,0,.829-.749c0-.459-.307-.733-.842-.736-1.046-.006-2.093,0-3.139,0-1.063,0-2.126,0-3.188,0-.53,0-.861.287-.874.725s.334.759.887.76" transform="translate(-60.604 -22.049)" fill="#fed05b"/>
        <path id="Trazado_602460" data-name="Trazado 602460" d="M70.676,54.068c.655.006,1.311,0,1.966,0,.672,0,1.343.005,2.015,0,.522-.005.836-.256.87-.672a.726.726,0,0,0-.788-.857c-1.391-.034-2.784-.029-4.175.007a.778.778,0,0,0-.826.791c.035.457.372.726.938.731" transform="translate(-60.574 -45.616)" fill="#fed05b"/>
        <path id="Trazado_602461" data-name="Trazado 602461" d="M295.686,200.508l.019-.019-.082,0,.062.02" transform="translate(-256.784 -174.146)" fill="#fefefe"/>
        <path id="Trazado_602462" data-name="Trazado 602462" d="M316.473,196.769c-.039.024-.078.045-.117.067,0,.034-.006.067-.009.1a.726.726,0,0,0,.126-.167" transform="translate(-274.784 -170.917)" fill="#fefefe"/>
        <path id="Trazado_602463" data-name="Trazado 602463" d="M215.794,59.928c.865.018,1.73.021,2.6.026.159,0,.33.037.465-.1h-1.534c.563-.7.332-1.482.329-2.217s.246-1.505-.379-2.224h1.5c-.139-.125-.311-.081-.469-.078-.863.019-1.727.047-2.59.07-.614.016-.878.28-.882.911q-.009,1.323,0,2.646c0,.65.3.947.965.962" transform="translate(-186.6 -48.06)" fill="#528ed7"/>
        <path id="Trazado_602464" data-name="Trazado 602464" d="M217.175,103.214h1.595a13.126,13.126,0,0,0-3.4.033c-.382.047-.54.395-.541.775,0,.948-.011,1.9,0,2.844a.746.746,0,0,0,.829.812c.521.015,1.042.022,1.563.057a3.927,3.927,0,0,0,1.548-.06h-1.536c.478-.757.471-3.805-.057-4.461" transform="translate(-186.596 -89.57)" fill="#528fd7"/>
        <path id="Trazado_602465" data-name="Trazado 602465" d="M261.293,104.835c.784,0,1.569,0,2.353,0,.817,0,1.634.008,2.451,0a.818.818,0,0,0,.843-.73.711.711,0,0,0-.658-.771,3.565,3.565,0,0,0-.579-.067h-4.02a2.191,2.191,0,0,0-.579.069c-.569.152-.753.363-.706.861.038.393.371.636.894.639" transform="translate(-226.18 -89.698)" fill="#fef8de"/>
        <path id="Trazado_602466" data-name="Trazado 602466" d="M261.229,68.8c.818,0,1.637,0,2.455,0,.835,0,1.669.006,2.5,0,.52-.006.8-.273.786-.734a.714.714,0,0,0-.8-.737q-2.479-.008-4.959,0a.738.738,0,1,0,.013,1.472" transform="translate(-226.222 -58.478)" fill="#fef8de"/>
        <path id="Trazado_602467" data-name="Trazado 602467" d="M235.862,103.852h0a1.759,1.759,0,0,1-1.364.1,6.531,6.531,0,0,1,.008,4.269,1.757,1.757,0,0,1,1.355.1.7.7,0,0,0,.584-.784q0-1.446,0-2.893a.706.706,0,0,0-.583-.785" transform="translate(-203.689 -90.208)" fill="#0473cd"/>
        <path id="Trazado_602468" data-name="Trazado 602468" d="M232.984,108.217a6.53,6.53,0,0,0-.008-4.269,1.76,1.76,0,0,0,1.364-.1h-1.595c.528.656.535,3.7.057,4.461h1.536a1.756,1.756,0,0,0-1.355-.1" transform="translate(-202.167 -90.208)" fill="#0473cd"/>
        <path id="Trazado_602469" data-name="Trazado 602469" d="M235.065,56.092c.512.7.5,3.663-.01,4.273a1.88,1.88,0,0,1,1.372.077.7.7,0,0,0,.5-.743q0-1.462,0-2.924a.7.7,0,0,0-.586-.774h0a1.63,1.63,0,0,1-1.277.091" transform="translate(-204.173 -48.643)" fill="#0473cd"/>
        <path id="Trazado_602470" data-name="Trazado 602470" d="M233.823,58.225c0,.735.234,1.516-.329,2.217h1.534a1.88,1.88,0,0,0-1.372-.077c.508-.61.522-3.572.01-4.273A1.63,1.63,0,0,0,234.943,56h-1.5c.625.719.376,1.5.379,2.224" transform="translate(-202.773 -48.643)" fill="#0473cd"/>
        <path id="Trazado_602471" data-name="Trazado 602471" d="M264.1,127.867a.72.72,0,0,0,.644-.791.736.736,0,0,0-.8-.688c-.442-.01-.884,0-1.326,0-.491,0-.984-.029-1.473.01a.685.685,0,0,0-.712.668.659.659,0,0,0,.6.8,10.588,10.588,0,0,0,3.069,0" transform="translate(-226.21 -109.773)" fill="#fef8de"/>
        <path id="Trazado_602472" data-name="Trazado 602472" d="M271.791,252.846c-.39.465-.9.816-1.3,1.273a6.825,6.825,0,0,0-.593.651.646.646,0,0,0,.058.924.6.6,0,0,0,.876-.1c.668-.649,1.331-1.3,1.974-1.978a3.693,3.693,0,0,0,.694-1.357,2.075,2.075,0,0,1-1.713.585" transform="translate(-234.299 -219.118)" fill="#feaf9d"/>
        <path id="Trazado_602473" data-name="Trazado 602473" d="M271.8,252.885c-.642.675-1.306,1.329-1.974,1.978a.6.6,0,0,1-.876.1.647.647,0,0,1-.058-.924,6.8,6.8,0,0,1,.593-.651c.4-.458.906-.808,1.3-1.274l-.029,0a9.543,9.543,0,0,0-1.939,1.834.737.737,0,0,0,.046,1.125c.333.278.7.236,1.08-.141.524-.515,1.028-1.05,1.563-1.554a3.5,3.5,0,0,0,1.116-1.956c-.041.038-.083.075-.125.111a3.691,3.691,0,0,1-.695,1.357" transform="translate(-233.289 -218.386)" fill="#feaf9d"/>
        <path id="Trazado_602474" data-name="Trazado 602474" d="M285.362,252.449a2.075,2.075,0,0,0,1.713-.585l.023-.06a5.354,5.354,0,0,1-1.728.636l-.008.009" transform="translate(-247.87 -218.721)" fill="#feaf9d"/>
        <path id="Trazado_602475" data-name="Trazado 602475" d="M298.421,251.469l-.023.06c.042-.036.084-.073.125-.111h0l-.1.051" transform="translate(-259.194 -218.386)" fill="#feaf9d"/>
        <path id="Trazado_602476" data-name="Trazado 602476" d="M285.18,256.643l-.036.006.029,0,.008-.009" transform="translate(-247.681 -222.924)" fill="#feaf9d"/>
        <path id="Trazado_602477" data-name="Trazado 602477" d="M157.3,190.417a2.886,2.886,0,0,0-.753-4c-.119-.082-.224-.183-.336-.275a2.681,2.681,0,0,0-1.827,2.528,2.765,2.765,0,0,0,1.844,2.773c.295-.407.782-.606,1.072-1.029" transform="translate(-134.101 -161.689)" fill="#5a5a5a"/>
        <path id="Trazado_602478" data-name="Trazado 602478" d="M168.308,184.758a2.913,2.913,0,0,1,.017,5.3,2.788,2.788,0,0,0,1.443.132,2.731,2.731,0,0,0,2.245-1.946,2.823,2.823,0,0,0-3.7-3.487" transform="translate(-146.195 -160.302)" fill="#444"/>
        <path id="Trazado_602479" data-name="Trazado 602479" d="M169.98,189.287a2.867,2.867,0,0,0-1.672-3.142c.112.092.217.193.336.275a2.886,2.886,0,0,1,.753,4c-.29.423-.777.622-1.072,1.029a2.879,2.879,0,0,0,1.655-2.159" transform="translate(-146.195 -161.689)" fill="#444"/>
      </g>
    </g>
  </g>
</svg>
