<svg xmlns="http://www.w3.org/2000/svg" xmlns:xlink="http://www.w3.org/1999/xlink" width="85" height="85" viewBox="0 0 85 85">
  <defs>
    <clipPath id="clip-path">
      <circle id="Elipse_6592" data-name="Elipse 6592" cx="42.5" cy="42.5" r="42.5" transform="translate(180 2138)" fill="#fcc15a"/>
    </clipPath>
    <clipPath id="clip-path-2">
      <rect id="Rectángulo_299323" data-name="Rectángulo 299323" width="68.358" height="85" fill="none"/>
    </clipPath>
  </defs>
  <g id="Grupo_881702" data-name="Grupo 881702" transform="translate(-180 -2138)">
    <circle id="Elipse_6587" data-name="Elipse 6587" cx="42.5" cy="42.5" r="42.5" transform="translate(180 2138)" fill="#fcc15a"/>
    <g id="Enmascarar_grupo_744816" data-name="Enmascarar grupo 744816" clip-path="url(#clip-path)">
      <g id="Grupo_881698" data-name="Grupo 881698" transform="translate(188.321 2138)">
        <g id="Grupo_881697" data-name="Grupo 881697" transform="translate(0 -0.001)" clip-path="url(#clip-path-2)">
          <path id="Trazado_596592" data-name="Trazado 596592" d="M42.651,36.908a13.06,13.06,0,0,1,5.663,9.776S48.761,50.263,50.2,67c1.372,15.967,1.886,18.834,1.886,18.834a14.125,14.125,0,0,1-4.936,1.773,11.936,11.936,0,0,1-4.553-.144L40.446,65.015l.575-9.776Z" transform="translate(8.631 7.877)" fill="#6a7984"/>
          <path id="Trazado_596593" data-name="Trazado 596593" d="M42.651,36.908a13.06,13.06,0,0,1,5.663,9.776S48.761,50.263,50.2,67c1.372,15.967,1.886,18.834,1.886,18.834a14.125,14.125,0,0,1-4.936,1.773,11.936,11.936,0,0,1-4.553-.144L40.446,65.015l.575-9.776Z" transform="translate(8.631 7.877)" fill="none" stroke="#000" stroke-linecap="round" stroke-linejoin="round" stroke-width="0.495"/>
          <path id="Trazado_596594" data-name="Trazado 596594" d="M46.665,62.751S44.908,64.7,43.31,64.6A2.874,2.874,0,0,0,45,65.882" transform="translate(9.242 13.392)" fill="none" stroke="#000" stroke-linecap="round" stroke-linejoin="round" stroke-width="0.495"/>
          <path id="Trazado_596595" data-name="Trazado 596595" d="M28.627,65.435C36.334,53.393,35.091,33.5,35.091,33.5H22.163s-1.244,19.889,6.464,31.931" transform="translate(4.714 7.15)" fill="#fff"/>
          <path id="Trazado_596596" data-name="Trazado 596596" d="M28.627,65.435C36.334,53.393,35.091,33.5,35.091,33.5H22.163S20.919,53.393,28.627,65.435Z" transform="translate(4.714 7.15)" fill="none" stroke="#000" stroke-linecap="round" stroke-linejoin="round" stroke-width="0.495"/>
          <path id="Trazado_596597" data-name="Trazado 596597" d="M34.51,41.256C32.593,35.5,33.033,27.2,33.033,27.2H23.928s.67,7.9-1.381,14.057Z" transform="translate(4.811 5.805)" fill="#f2e3d4"/>
          <path id="Trazado_596598" data-name="Trazado 596598" d="M34.51,41.256C32.593,35.5,33.033,27.2,33.033,27.2H23.928s.67,7.9-1.381,14.057Z" transform="translate(4.811 5.805)" fill="none" stroke="#000" stroke-linecap="round" stroke-linejoin="round" stroke-width="0.495"/>
          <path id="Trazado_596599" data-name="Trazado 596599" d="M29.31,41.154H26.832l-1.063,3.8-.978,28.532,3.323,4.666,3.195-4.666-.978-28.532Z" transform="translate(5.29 8.783)" fill="#6f8bc4"/>
          <path id="Trazado_596600" data-name="Trazado 596600" d="M29.31,41.154H26.832l-1.063,3.8-.978,28.532,3.323,4.666,3.195-4.666-.978-28.532Z" transform="translate(5.29 8.783)" fill="none" stroke="#000" stroke-linecap="round" stroke-linejoin="round" stroke-width="0.495"/>
          <path id="Trazado_596601" data-name="Trazado 596601" d="M31.036,39.057c.015-1.3-1.775-1.382-3-1.4s-3.057.025-3.071,1.326,1.342,4.064,3.027,4.062,3.03-2.691,3.044-3.992" transform="translate(5.327 8.037)" fill="#6f8bc4"/>
          <path id="Trazado_596602" data-name="Trazado 596602" d="M31.036,39.057c.015-1.3-1.775-1.382-3-1.4s-3.057.025-3.071,1.326,1.342,4.064,3.027,4.062S31.021,40.358,31.036,39.057Z" transform="translate(5.327 8.037)" fill="none" stroke="#000" stroke-linecap="round" stroke-linejoin="round" stroke-width="0.495"/>
          <path id="Trazado_596603" data-name="Trazado 596603" d="M46.173,65.623l2.532-27.786s-11.6-5.26-11.646-4.436c-.218,3.656.962,12.556-6.442,30.447-6.972-17.842-6.224-26.759-6.441-30.414-.05-.824-11.646,4.4-11.646,4.4l2.532,27.786L13.389,90.51c6.113,3.04,15.894,1.239,15.894,1.239l1.342-7.324L31.9,91.749s9.83,1.8,15.943-1.239Z" transform="translate(2.674 7.11)" fill="#6a7984"/>
          <path id="Trazado_596604" data-name="Trazado 596604" d="M46.173,65.623l2.532-27.786s-11.6-5.26-11.646-4.436c-.218,3.656.962,12.556-6.442,30.447-6.972-17.842-6.224-26.759-6.441-30.414-.05-.824-11.646,4.4-11.646,4.4l2.532,27.786L13.389,90.51c6.113,3.04,15.894,1.239,15.894,1.239l1.342-7.324L31.9,91.749s9.83,1.8,15.943-1.239Z" transform="translate(2.674 7.11)" fill="none" stroke="#000" stroke-linecap="round" stroke-linejoin="round" stroke-width="0.495"/>
          <path id="Trazado_596605" data-name="Trazado 596605" d="M22.4,34.94a15.263,15.263,0,0,1,1.658-2.447c-.163,1.542.868,3.459,4.559,5.943.521.349-5.629,5.735-5.629,5.735a21.778,21.778,0,0,1-.587-9.23" transform="translate(4.728 6.932)" fill="#fff"/>
          <path id="Trazado_596606" data-name="Trazado 596606" d="M22.4,34.94a15.263,15.263,0,0,1,1.658-2.447c-.163,1.542.868,3.459,4.559,5.943.521.349-5.629,5.735-5.629,5.735A21.778,21.778,0,0,1,22.4,34.94Z" transform="translate(4.728 6.932)" fill="none" stroke="#000" stroke-linecap="round" stroke-linejoin="round" stroke-width="0.495"/>
          <path id="Trazado_596607" data-name="Trazado 596607" d="M33.933,34.94a15.263,15.263,0,0,0-1.658-2.447c.163,1.542-.868,3.459-4.559,5.943-.521.349,5.629,5.735,5.629,5.735a21.778,21.778,0,0,0,.587-9.23" transform="translate(5.908 6.932)" fill="#fff"/>
          <path id="Trazado_596608" data-name="Trazado 596608" d="M33.933,34.94a15.263,15.263,0,0,0-1.658-2.447c.163,1.542-.868,3.459-4.559,5.943-.521.349,5.629,5.735,5.629,5.735A21.778,21.778,0,0,0,33.933,34.94Z" transform="translate(5.908 6.932)" fill="none" stroke="#000" stroke-linecap="round" stroke-linejoin="round" stroke-width="0.495"/>
          <path id="Trazado_596609" data-name="Trazado 596609" d="M20.09,35.911l-3.179,4.081L19.85,42.02l-2.236,2.747s3.421,7.124,6.1,11.661a43.879,43.879,0,0,0,5.975,7.828s-8.139-21.086-6.095-29.2l1.462-2.748a12.716,12.716,0,0,0-4.968,3.6" transform="translate(3.609 6.895)" fill="#6a7984"/>
          <path id="Trazado_596610" data-name="Trazado 596610" d="M20.09,35.911l-3.179,4.081L19.85,42.02l-2.236,2.747s3.421,7.124,6.1,11.661a43.879,43.879,0,0,0,5.975,7.828s-8.139-21.086-6.095-29.2l1.462-2.748A12.716,12.716,0,0,0,20.09,35.911Z" transform="translate(3.609 6.895)" fill="none" stroke="#000" stroke-linecap="round" stroke-linejoin="round" stroke-width="0.495"/>
          <path id="Trazado_596611" data-name="Trazado 596611" d="M37.175,35.911l3.179,4.081L37.416,42.02l2.236,2.747s-3.421,7.124-6.1,11.661a43.879,43.879,0,0,1-5.975,7.828s8.139-21.086,6.095-29.2l-1.462-2.748a12.716,12.716,0,0,1,4.968,3.6" transform="translate(5.884 6.895)" fill="#6a7984"/>
          <path id="Trazado_596612" data-name="Trazado 596612" d="M37.175,35.911l3.179,4.081L37.416,42.02l2.236,2.747s-3.421,7.124-6.1,11.661a43.879,43.879,0,0,1-5.975,7.828s8.139-21.086,6.095-29.2l-1.462-2.748A12.716,12.716,0,0,1,37.175,35.911Z" transform="translate(5.884 6.895)" fill="none" stroke="#000" stroke-linecap="round" stroke-linejoin="round" stroke-width="0.495"/>
          <path id="Trazado_596613" data-name="Trazado 596613" d="M21.365,69.532l-5.639-.37.214-2.182,5.728.284Z" transform="translate(3.356 14.294)" fill="#6a7984"/>
          <path id="Trazado_596614" data-name="Trazado 596614" d="M21.365,69.532l-5.639-.37.214-2.182,5.728.284Z" transform="translate(3.356 14.294)" fill="none" stroke="#000" stroke-linecap="round" stroke-linejoin="round" stroke-width="0.495"/>
          <path id="Trazado_596615" data-name="Trazado 596615" d="M34.329,69.532l5.639-.37-.214-2.182-5.728.284Z" transform="translate(7.261 14.294)" fill="#6a7984"/>
          <path id="Trazado_596616" data-name="Trazado 596616" d="M34.329,69.532l5.639-.37-.214-2.182-5.728.284Z" transform="translate(7.261 14.294)" fill="none" stroke="#000" stroke-linecap="round" stroke-linejoin="round" stroke-width="0.495"/>
          <path id="Trazado_596617" data-name="Trazado 596617" d="M29.111,61.321a1.374,1.374,0,1,1-1.374-1.374,1.374,1.374,0,0,1,1.374,1.374" transform="translate(5.626 12.793)"/>
          <path id="Trazado_596618" data-name="Trazado 596618" d="M29.111,68.325a1.374,1.374,0,1,1-1.374-1.374,1.374,1.374,0,0,1,1.374,1.374" transform="translate(5.626 14.288)"/>
          <path id="Trazado_596619" data-name="Trazado 596619" d="M21.947,21.308c.506,1.518,1.566,4.155.166,4.621s-2.911-.116-4.263-3.058c-.667-1.454-.1-3.387,1.3-3.853s2.287.772,2.793,2.29" transform="translate(3.75 4.038)" fill="#f2e3d4"/>
          <path id="Trazado_596620" data-name="Trazado 596620" d="M21.947,21.308c.506,1.518,1.566,4.155.166,4.621s-2.911-.116-4.263-3.058c-.667-1.454-.1-3.387,1.3-3.853S21.441,19.79,21.947,21.308Z" transform="translate(3.75 4.038)" fill="none" stroke="#000" stroke-linecap="round" stroke-linejoin="round" stroke-width="0.495"/>
          <path id="Trazado_596621" data-name="Trazado 596621" d="M34.006,21.308c-.506,1.518-1.566,4.155-.166,4.621s2.912-.116,4.263-3.058c.667-1.454.1-3.387-1.3-3.853s-2.287.772-2.793,2.29" transform="translate(7.073 4.038)" fill="#f2e3d4"/>
          <path id="Trazado_596622" data-name="Trazado 596622" d="M34.006,21.308c-.506,1.518-1.566,4.155-.166,4.621s2.912-.116,4.263-3.058c.667-1.454.1-3.387-1.3-3.853S34.512,19.79,34.006,21.308Z" transform="translate(7.073 4.038)" fill="none" stroke="#000" stroke-linecap="round" stroke-linejoin="round" stroke-width="0.495"/>
          <path id="Trazado_596623" data-name="Trazado 596623" d="M38.546,18.982c-.137,8.343-1.928,17.287-9.432,17.287-7.985,0-9.431-10.1-9.431-17.287S24.161,6.727,29.369,6.727s9.3,5.067,9.177,12.255" transform="translate(4.201 1.436)" fill="#f2e3d4"/>
          <path id="Trazado_596624" data-name="Trazado 596624" d="M38.546,18.982c-.137,8.343-1.928,17.287-9.432,17.287-7.985,0-9.431-10.1-9.431-17.287S24.161,6.727,29.369,6.727,38.665,11.794,38.546,18.982Z" transform="translate(4.201 1.436)" fill="none" stroke="#000" stroke-linecap="round" stroke-linejoin="round" stroke-width="0.495"/>
          <path id="Trazado_596625" data-name="Trazado 596625" d="M31.867,20.839a.853.853,0,1,1-.849-.927.891.891,0,0,1,.849.927" transform="translate(6.438 4.25)"/>
          <path id="Trazado_596626" data-name="Trazado 596626" d="M25.046,20.839a.853.853,0,1,1-.849-.927.891.891,0,0,1,.849.927" transform="translate(4.982 4.25)"/>
          <path id="Trazado_596627" data-name="Trazado 596627" d="M22.552,18.584a2.269,2.269,0,0,1,2.952.189" transform="translate(4.813 3.872)" fill="none" stroke="#000" stroke-linecap="round" stroke-linejoin="round" stroke-width="0.495"/>
          <path id="Trazado_596628" data-name="Trazado 596628" d="M32.881,18.584a2.269,2.269,0,0,0-2.952.189" transform="translate(6.387 3.872)" fill="none" stroke="#000" stroke-linecap="round" stroke-linejoin="round" stroke-width="0.495"/>
          <line id="Línea_507" data-name="Línea 507" y2="0.512" transform="translate(33.331 29.457)" fill="none" stroke="#000" stroke-linecap="round" stroke-linejoin="round" stroke-width="0.495"/>
          <path id="Trazado_596629" data-name="Trazado 596629" d="M30.128,26.3c-2.358,3.861-4.465.024-4.465.024Z" transform="translate(5.476 5.613)" fill="#fff"/>
          <path id="Trazado_596630" data-name="Trazado 596630" d="M30.128,26.3c-2.358,3.861-4.465.024-4.465.024Z" transform="translate(5.476 5.613)" fill="none" stroke="#000" stroke-linecap="round" stroke-linejoin="round" stroke-width="0.391"/>
          <path id="Trazado_596631" data-name="Trazado 596631" d="M41.495,16.324c0-3.076-1.8-6.214-3.355-6.63-.191-1.806-2.751-4.3-6.2-3.44A7.073,7.073,0,0,0,27.4,4.911c-3.584,0-6.537,2.729-6.976,5.1-1.423.96-2.583,3.664-2.583,6.318A7.766,7.766,0,0,0,20.3,22.27a50.577,50.577,0,0,0,1.647-9.526c1.359,1.631,4.979,2.694,8.681,1.653a8.72,8.72,0,0,0,6.9.288,51.084,51.084,0,0,0,1.388,7.586,7.781,7.781,0,0,0,2.577-5.946" transform="translate(3.806 1.049)" fill="#80786c"/>
          <path id="Trazado_596632" data-name="Trazado 596632" d="M41.495,16.324c0-3.076-1.8-6.214-3.355-6.63-.191-1.806-2.751-4.3-6.2-3.44A7.073,7.073,0,0,0,27.4,4.911c-3.584,0-6.537,2.729-6.976,5.1-1.423.96-2.583,3.664-2.583,6.318A7.766,7.766,0,0,0,20.3,22.27a50.577,50.577,0,0,0,1.647-9.526c1.359,1.631,4.979,2.694,8.681,1.653a8.72,8.72,0,0,0,6.9.288,51.084,51.084,0,0,0,1.388,7.586A7.781,7.781,0,0,0,41.495,16.324Z" transform="translate(3.806 1.049)" fill="none" stroke="#000" stroke-linecap="round" stroke-linejoin="round" stroke-width="0.495"/>
          <path id="Trazado_596633" data-name="Trazado 596633" d="M28.918,13.1s-.9.127-3.293-2.238" transform="translate(5.468 2.319)" fill="none" stroke="#000" stroke-linecap="round" stroke-linejoin="round" stroke-width="0.495"/>
          <path id="Trazado_596634" data-name="Trazado 596634" d="M30.7,10.049a5.54,5.54,0,0,1,4.052,3.4" transform="translate(6.552 2.145)" fill="none" stroke="#000" stroke-linecap="round" stroke-linejoin="round" stroke-width="0.495"/>
          <path id="Trazado_596635" data-name="Trazado 596635" d="M34.743,51.82c1.293,3.032,1.206,4.349.631,4.439-.864.135-1.81-.211-3.356-2.83s-2.625-4.06-1.872-4.5,3.4.1,4.6,2.9" transform="translate(6.381 10.412)" fill="#6a7984"/>
          <path id="Trazado_596636" data-name="Trazado 596636" d="M34.743,51.82c1.293,3.032,1.206,4.349.631,4.439-.864.135-1.81-.211-3.356-2.83s-2.625-4.06-1.872-4.5S33.55,49.024,34.743,51.82Z" transform="translate(6.381 10.412)" fill="none" stroke="#000" stroke-linecap="round" stroke-linejoin="round" stroke-width="0.495"/>
          <path id="Trazado_596637" data-name="Trazado 596637" d="M34.842,49.758c1.314,1.554,2.136,3.3,1.482,3.849s-2.535-.294-3.849-1.848-1.849-3.263-1.2-3.815,2.248.26,3.563,1.814" transform="translate(6.615 10.195)" fill="#fff"/>
          <path id="Trazado_596638" data-name="Trazado 596638" d="M34.842,49.758c1.314,1.554,2.136,3.3,1.482,3.849s-2.535-.294-3.849-1.848-1.849-3.263-1.2-3.815S33.527,48.2,34.842,49.758Z" transform="translate(6.615 10.195)" fill="none" stroke="#000" stroke-linecap="round" stroke-linejoin="round" stroke-width="0.495"/>
          <path id="Trazado_596639" data-name="Trazado 596639" d="M42.158,45.836a1.778,1.778,0,0,0-1.867-1.512,1.658,1.658,0,0,0-2.133-1.7S37.43,41.3,36.3,41.613a3.092,3.092,0,0,0-1.253.843.623.623,0,0,0-.106-.055c-.669-.172-1.88,1.119-2.32,2.087a3.785,3.785,0,0,0-.125,2.1,16.826,16.826,0,0,0-.909,3.662l-.534,5.811,5.309-1.65s.98-.673,2.336-1.541A22.057,22.057,0,0,0,40.913,51.5c1.98-1.658,1.972-2.77,1.972-2.77s1.014-2.326-.727-2.9" transform="translate(6.626 8.871)" fill="#f2e3d4"/>
          <path id="Trazado_596640" data-name="Trazado 596640" d="M42.158,45.836a1.778,1.778,0,0,0-1.867-1.512,1.658,1.658,0,0,0-2.133-1.7S37.43,41.3,36.3,41.613a3.092,3.092,0,0,0-1.253.843.623.623,0,0,0-.106-.055c-.669-.172-1.88,1.119-2.32,2.087a3.785,3.785,0,0,0-.125,2.1,16.826,16.826,0,0,0-.909,3.662l-.534,5.811,5.309-1.65s.98-.673,2.336-1.541A22.057,22.057,0,0,0,40.913,51.5c1.98-1.658,1.972-2.77,1.972-2.77S43.9,46.407,42.158,45.836Z" transform="translate(6.626 8.871)" fill="none" stroke="#000" stroke-linecap="round" stroke-linejoin="round" stroke-width="0.495"/>
          <path id="Trazado_596641" data-name="Trazado 596641" d="M34.594,42.3a6.206,6.206,0,0,0-1.442,2.375" transform="translate(7.075 9.027)" fill="none" stroke="#000" stroke-linecap="round" stroke-linejoin="round" stroke-width="0.495"/>
          <path id="Trazado_596642" data-name="Trazado 596642" d="M29.6,49.65l2.087-1.8s2.443,5.716,4.939,5.735l-3.31,2.072S29.249,52.655,29.6,49.65" transform="translate(6.312 10.213)" fill="#fff"/>
          <path id="Trazado_596643" data-name="Trazado 596643" d="M29.6,49.65l2.087-1.8s2.443,5.716,4.939,5.735l-3.31,2.072S29.249,52.655,29.6,49.65Z" transform="translate(6.312 10.213)" fill="none" stroke="#000" stroke-linecap="round" stroke-linejoin="round" stroke-width="0.495"/>
          <path id="Trazado_596644" data-name="Trazado 596644" d="M36.765,56.111A12.859,12.859,0,0,1,34.8,51.57s-8.461,5.246-13.244,8.673c-1.32-3.053-1.126-8.477-4.362-15.5L15.248,36.4s-3.192,1.1-4.662,2.9c-1.957,2.4-3.821,4.975-1.273,12.418.223.653.544,6.254,2.791,11.093a52.752,52.752,0,0,0,4.149,7.318C18.8,73.036,24.2,71.7,28.27,68.8c3.276-2.342,11.761-9.9,11.761-9.9a8.623,8.623,0,0,1-3.266-2.792" transform="translate(1.723 7.767)" fill="#6a7984"/>
          <path id="Trazado_596645" data-name="Trazado 596645" d="M36.765,56.111A12.859,12.859,0,0,1,34.8,51.57s-8.461,5.246-13.244,8.673c-1.32-3.053-1.126-8.477-4.362-15.5L15.248,36.4s-3.192,1.1-4.662,2.9c-1.957,2.4-3.821,4.975-1.273,12.418.223.653.544,6.254,2.791,11.093a52.752,52.752,0,0,0,4.149,7.318C18.8,73.036,24.2,71.7,28.27,68.8c3.276-2.342,11.761-9.9,11.761-9.9A8.623,8.623,0,0,1,36.765,56.111Z" transform="translate(1.723 7.767)" fill="none" stroke="#000" stroke-linecap="round" stroke-linejoin="round" stroke-width="0.495"/>
          <path id="Trazado_596646" data-name="Trazado 596646" d="M15.667,60.029C16.743,57.623,20.2,56.05,20.2,56.05s-4.2.524-5.761,2.365" transform="translate(3.081 11.962)" fill="none" stroke="#000" stroke-linecap="round" stroke-linejoin="round" stroke-width="0.495"/>
        </g>
      </g>
    </g>
  </g>
</svg>
