<svg xmlns="http://www.w3.org/2000/svg" xmlns:xlink="http://www.w3.org/1999/xlink" width="295" height="274.808" viewBox="0 0 295 274.808">
  <defs>
    <clipPath id="clip-path">
      <rect id="Rectángulo_300776" data-name="Rectángulo 300776" width="196.995" height="207.796" fill="none"/>
    </clipPath>
    <clipPath id="clip-path-4">
      <rect id="Rectángulo_300759" data-name="Rectángulo 300759" width="62.752" height="135.862" fill="none"/>
    </clipPath>
    <clipPath id="clip-path-5">
      <rect id="Rectángulo_300760" data-name="Rectángulo 300760" width="31.376" height="22.644" fill="none"/>
    </clipPath>
    <clipPath id="clip-path-6">
      <rect id="Rectángulo_300761" data-name="Rectángulo 300761" width="35.298" height="67.931" fill="none"/>
    </clipPath>
    <clipPath id="clip-path-7">
      <rect id="Rectángulo_300762" data-name="Rectángulo 300762" width="78.061" height="45.506" fill="none"/>
    </clipPath>
    <clipPath id="clip-path-8">
      <rect id="Rectángulo_300763" data-name="Rectángulo 300763" width="43.032" height="35.767" fill="none"/>
    </clipPath>
    <clipPath id="clip-path-10">
      <rect id="Rectángulo_300765" data-name="Rectángulo 300765" width="14.239" height="19.313" fill="none"/>
    </clipPath>
    <clipPath id="clip-path-11">
      <rect id="Rectángulo_300766" data-name="Rectángulo 300766" width="5.782" height="7.626" fill="none"/>
    </clipPath>
    <clipPath id="clip-path-12">
      <rect id="Rectángulo_300767" data-name="Rectángulo 300767" width="12.506" height="18.327" fill="none"/>
    </clipPath>
    <clipPath id="clip-path-14">
      <rect id="Rectángulo_300769" data-name="Rectángulo 300769" width="27.369" height="73.851" fill="none"/>
    </clipPath>
    <clipPath id="clip-path-15">
      <rect id="Rectángulo_300770" data-name="Rectángulo 300770" width="8.172" height="18.694" fill="none"/>
    </clipPath>
    <clipPath id="clip-path-16">
      <rect id="Rectángulo_300771" data-name="Rectángulo 300771" width="10.446" height="4.114" fill="none"/>
    </clipPath>
    <clipPath id="clip-path-17">
      <rect id="Rectángulo_300772" data-name="Rectángulo 300772" width="1.763" height="1.185" fill="none"/>
    </clipPath>
    <clipPath id="clip-path-18">
      <rect id="Rectángulo_300773" data-name="Rectángulo 300773" width="2.297" height="4.008" fill="none"/>
    </clipPath>
    <clipPath id="clip-path-19">
      <rect id="Rectángulo_300774" data-name="Rectángulo 300774" width="5.843" height="3.539" fill="none"/>
    </clipPath>
  </defs>
  <g id="Grupo_886503" data-name="Grupo 886503" transform="translate(-1020 -9843.241)">
    <g id="Grupo_870618" data-name="Grupo 870618" transform="translate(1020 10068.026)">
      <path id="Sustracción_7" data-name="Sustracción 7" d="M251.654,50.022H0V6.094H32.22L38.576,0H295V40.927H257.846l-6.192,9.095Z" transform="translate(0 0)" fill="#3ae3fe"/>
      <path id="Trazado_608314" data-name="Trazado 608314" d="M71.93,5.914l3.1,8.766,3.088-8.766h3.271V18h-2.5V14.7l.249-5.7L75.881,18h-1.71L70.917,9l.249,5.694V18h-2.49V5.914ZM87.544,18.166a4.409,4.409,0,0,1-3.217-1.212,4.308,4.308,0,0,1-1.241-3.229v-.232a5.426,5.426,0,0,1,.523-2.42,3.838,3.838,0,0,1,1.482-1.644,4.159,4.159,0,0,1,2.187-.577,3.727,3.727,0,0,1,2.9,1.162,4.722,4.722,0,0,1,1.058,3.3v.979H85.518a2.229,2.229,0,0,0,.7,1.411,2.12,2.12,0,0,0,1.482.531,2.589,2.589,0,0,0,2.167-1l1.179,1.32a3.6,3.6,0,0,1-1.461,1.191A4.793,4.793,0,0,1,87.544,18.166Zm-.274-7.379a1.5,1.5,0,0,0-1.158.484,2.5,2.5,0,0,0-.569,1.384H88.88v-.192a1.786,1.786,0,0,0-.432-1.238A1.547,1.547,0,0,0,87.27,10.787Zm7.869-1.768V18.49A3.213,3.213,0,0,1,94.35,20.8a3,3,0,0,1-2.274.826,4.878,4.878,0,0,1-1.187-.141v-1.9a4.5,4.5,0,0,0,.755.075q1.087,0,1.087-1.154V9.019Zm-2.6-2.324a1.181,1.181,0,0,1,.361-.888,1.562,1.562,0,0,1,1.967,0,1.181,1.181,0,0,1,.361.888,1.178,1.178,0,0,1-.369.9,1.539,1.539,0,0,1-1.951,0A1.178,1.178,0,0,1,92.541,6.694Zm4.1,6.732a5.326,5.326,0,0,1,.515-2.382,3.768,3.768,0,0,1,1.482-1.619,4.323,4.323,0,0,1,2.245-.573,4.09,4.09,0,0,1,2.968,1.112,4.464,4.464,0,0,1,1.282,3.021l.017.614A4.694,4.694,0,0,1,104,16.917a4.472,4.472,0,0,1-6.2,0,4.777,4.777,0,0,1-1.158-3.387Zm2.4.17a3.357,3.357,0,0,0,.481,1.958,1.73,1.73,0,0,0,2.739.008,3.674,3.674,0,0,0,.49-2.141,3.324,3.324,0,0,0-.49-1.945,1.592,1.592,0,0,0-1.378-.69,1.566,1.566,0,0,0-1.361.686A3.736,3.736,0,0,0,99.04,13.6Zm12.634-2.328a6.517,6.517,0,0,0-.863-.066,1.757,1.757,0,0,0-1.785.921V18h-2.4V9.019h2.266l.066,1.071a2.223,2.223,0,0,1,2-1.237,2.514,2.514,0,0,1,.747.108ZM117.783,18a2.664,2.664,0,0,1-.241-.805,2.9,2.9,0,0,1-2.266.971,3.189,3.189,0,0,1-2.187-.764,2.456,2.456,0,0,1-.867-1.926,2.538,2.538,0,0,1,1.058-2.191,5.222,5.222,0,0,1,3.059-.772h1.1V12a1.48,1.48,0,0,0-.32-1,1.257,1.257,0,0,0-1.009-.374,1.429,1.429,0,0,0-.95.291.987.987,0,0,0-.344.8h-2.4a2.41,2.41,0,0,1,.481-1.444,3.182,3.182,0,0,1,1.361-1.042,4.961,4.961,0,0,1,1.976-.378,3.92,3.92,0,0,1,2.635.834,2.918,2.918,0,0,1,.975,2.345v3.893a4.294,4.294,0,0,0,.357,1.934V18ZM115.8,16.332a2.066,2.066,0,0,0,.979-.237,1.554,1.554,0,0,0,.664-.635V13.916h-.9q-1.8,0-1.917,1.245l-.008.141a.96.96,0,0,0,.315.739A1.225,1.225,0,0,0,115.8,16.332Zm13.862-.1a1.573,1.573,0,0,0,1.079-.365,1.28,1.28,0,0,0,.432-.971h2.25a3.077,3.077,0,0,1-.5,1.673,3.286,3.286,0,0,1-1.341,1.179,4.2,4.2,0,0,1-1.88.419,3.9,3.9,0,0,1-3.038-1.224,4.845,4.845,0,0,1-1.112-3.383V13.4a4.79,4.79,0,0,1,1.1-3.312,3.854,3.854,0,0,1,3.03-1.237,3.778,3.778,0,0,1,2.7.959,3.4,3.4,0,0,1,1.033,2.552h-2.25a1.648,1.648,0,0,0-.432-1.139,1.6,1.6,0,0,0-2.362.173,3.541,3.541,0,0,0-.427,1.983v.249a3.586,3.586,0,0,0,.423,2A1.463,1.463,0,0,0,129.662,16.232Zm4.756-2.806a5.327,5.327,0,0,1,.515-2.382,3.767,3.767,0,0,1,1.482-1.619,4.323,4.323,0,0,1,2.245-.573,4.09,4.09,0,0,1,2.968,1.112,4.464,4.464,0,0,1,1.282,3.021l.017.614a4.694,4.694,0,0,1-1.154,3.316,4.472,4.472,0,0,1-6.2,0,4.777,4.777,0,0,1-1.158-3.387Zm2.4.17a3.357,3.357,0,0,0,.481,1.958,1.73,1.73,0,0,0,2.739.008,3.674,3.674,0,0,0,.49-2.141,3.324,3.324,0,0,0-.49-1.945,1.592,1.592,0,0,0-1.378-.69,1.566,1.566,0,0,0-1.361.686A3.735,3.735,0,0,0,136.817,13.6Zm9.795-4.578.075,1.038a3.136,3.136,0,0,1,2.582-1.2,2.606,2.606,0,0,1,2.125.838,3.912,3.912,0,0,1,.714,2.507V18h-2.4V12.256a1.556,1.556,0,0,0-.332-1.108,1.486,1.486,0,0,0-1.1-.344,1.65,1.65,0,0,0-1.519.863V18h-2.4V9.019ZM156.8,6.811V9.019h1.536v1.76H156.8v4.482a1.07,1.07,0,0,0,.191.714.959.959,0,0,0,.73.216,3.826,3.826,0,0,0,.706-.058V17.95a4.939,4.939,0,0,1-1.453.216,2.29,2.29,0,0,1-2.573-2.548V10.778h-1.312V9.019H154.4V6.811ZM162.2,18h-2.407V9.019H162.2ZM159.653,6.694a1.181,1.181,0,0,1,.361-.888,1.556,1.556,0,0,1,1.963,0,1.175,1.175,0,0,1,.365.888,1.178,1.178,0,0,1-.369.9,1.539,1.539,0,0,1-1.951,0A1.178,1.178,0,0,1,159.653,6.694Zm6.732,2.324.075,1.038a3.136,3.136,0,0,1,2.582-1.2,2.606,2.606,0,0,1,2.125.838,3.912,3.912,0,0,1,.714,2.507V18h-2.4V12.256a1.556,1.556,0,0,0-.332-1.108,1.486,1.486,0,0,0-1.1-.344,1.65,1.65,0,0,0-1.519.863V18h-2.4V9.019Zm12.692,8.068a3.008,3.008,0,0,1-2.457,1.079,2.837,2.837,0,0,1-2.2-.83,3.543,3.543,0,0,1-.776-2.432V9.019h2.4v5.809q0,1.4,1.278,1.4a1.732,1.732,0,0,0,1.677-.848V9.019H181.4V18h-2.258Zm9.338.913a2.664,2.664,0,0,1-.241-.805,2.9,2.9,0,0,1-2.266.971,3.189,3.189,0,0,1-2.187-.764,2.456,2.456,0,0,1-.867-1.926,2.538,2.538,0,0,1,1.058-2.191,5.222,5.222,0,0,1,3.059-.772h1.1V12a1.48,1.48,0,0,0-.32-1,1.257,1.257,0,0,0-1.009-.374,1.429,1.429,0,0,0-.95.291.987.987,0,0,0-.344.8h-2.4a2.41,2.41,0,0,1,.481-1.444A3.182,3.182,0,0,1,184.9,9.23a4.961,4.961,0,0,1,1.976-.378,3.92,3.92,0,0,1,2.635.834,2.918,2.918,0,0,1,.975,2.345v3.893a4.294,4.294,0,0,0,.357,1.934V18Zm-1.984-1.668a2.066,2.066,0,0,0,.979-.237,1.554,1.554,0,0,0,.664-.635V13.916h-.9q-1.8,0-1.917,1.245l-.008.141a.96.96,0,0,0,.315.739A1.225,1.225,0,0,0,186.431,16.332Z" transform="translate(18.999 13.642)" fill="#12263f"/>
      <path id="Trazado_214008" data-name="Trazado 214008" d="M-.808,1.311H26.244V7.625H-4Z" transform="translate(268.756 42.396)" fill="#7f8a9c"/>
    </g>
    <g id="Grupo_886016" data-name="Grupo 886016" transform="translate(1069.002 9843.241)">
      <g id="Grupo_886015" data-name="Grupo 886015" clip-path="url(#clip-path)">
        <g id="Grupo_885966" data-name="Grupo 885966">
          <g id="Grupo_885965" data-name="Grupo 885965" clip-path="url(#clip-path)">
            <path id="Trazado_600059" data-name="Trazado 600059" d="M44.088,334.634l33.078,19.1a4.62,4.62,0,0,0,4.181,0L145.8,316.519a1.274,1.274,0,0,0,0-2.414l-33.079-19.1a4.619,4.619,0,0,0-4.181,0L44.088,332.22a1.274,1.274,0,0,0,0,2.414" transform="translate(-21.491 -146.436)" fill="#e0e0e0"/>
            <path id="Trazado_600060" data-name="Trazado 600060" d="M323.916,347.493c11.006,6.355,11.006,16.657,0,23.011s-28.851,6.355-39.857,0-11.006-16.657,0-23.012,28.85-6.355,39.857,0" transform="translate(-137.136 -170.411)" fill="#e0e0e0"/>
            <path id="Trazado_600061" data-name="Trazado 600061" d="M47.15,277.03c10.786,6.227,10.786,16.324,0,22.552s-28.274,6.227-39.06,0-10.787-16.324,0-22.552,28.274-6.227,39.06,0" transform="translate(0 -135.423)" fill="#e0e0e0"/>
          </g>
        </g>
        <g id="Grupo_885983" data-name="Grupo 885983">
          <g id="Grupo_885982" data-name="Grupo 885982" clip-path="url(#clip-path)">
            <path id="Trazado_600062" data-name="Trazado 600062" d="M173.721,137.723v74.724c0,14.1-5.883,26.04-19.61,33.965l-39.22,22.644v4.529l43.142-24.908c15.688-9.058,19.609-22.127,19.609-36.23V140.4Z" transform="translate(-57.127 -68.479)" fill="#27debf"/>
            <g id="Grupo_885969" data-name="Grupo 885969" transform="translate(57.765 69.245)" opacity="0.15">
              <g id="Grupo_885968" data-name="Grupo 885968">
                <g id="Grupo_885967" data-name="Grupo 885967" clip-path="url(#clip-path-4)">
                  <path id="Trazado_600063" data-name="Trazado 600063" d="M173.721,137.723v74.724c0,14.1-5.883,26.04-19.61,33.965l-39.22,22.644v4.529l43.142-24.908c15.688-9.058,19.609-22.127,19.609-36.23V140.4Z" transform="translate(-114.892 -137.724)"/>
                </g>
              </g>
            </g>
            <path id="Trazado_600064" data-name="Trazado 600064" d="M52.486,362.909l31.376,18.115v4.529L52.486,367.438Z" transform="translate(-26.097 -180.447)" fill="#27debf"/>
            <g id="Grupo_885972" data-name="Grupo 885972" transform="translate(26.389 182.462)" opacity="0.07">
              <g id="Grupo_885971" data-name="Grupo 885971">
                <g id="Grupo_885970" data-name="Grupo 885970" clip-path="url(#clip-path-5)">
                  <path id="Trazado_600065" data-name="Trazado 600065" d="M52.486,362.909l31.376,18.115v4.529L52.486,367.438Z" transform="translate(-52.486 -362.909)"/>
                </g>
              </g>
            </g>
            <path id="Trazado_600066" data-name="Trazado 600066" d="M111.316,101.694v78.641A32.435,32.435,0,0,1,95.1,208.425l-42.612,24.6,31.376,18.115,42.612-24.6a32.436,32.436,0,0,0,16.218-28.09V119.809Z" transform="translate(-26.098 -50.565)" fill="#27debf"/>
            <path id="Trazado_600067" data-name="Trazado 600067" d="M142.193,60.2l60.792,35.1L171.608,29.634Z" transform="translate(-70.701 -14.735)" fill="#27debf"/>
            <path id="Trazado_600068" data-name="Trazado 600068" d="M232.074,93.062,236,90.8,204.62,25.13,200.7,27.395Z" transform="translate(-99.791 -12.495)" fill="#27debf"/>
            <g id="Grupo_885975" data-name="Grupo 885975" transform="translate(100.906 12.635)" opacity="0.5">
              <g id="Grupo_885974" data-name="Grupo 885974">
                <g id="Grupo_885973" data-name="Grupo 885973" clip-path="url(#clip-path-6)">
                  <path id="Trazado_600069" data-name="Trazado 600069" d="M232.074,93.062,236,90.8,204.62,25.13,200.7,27.395Z" transform="translate(-200.698 -25.131)" fill="#fff"/>
                </g>
              </g>
            </g>
            <g id="Grupo_885978" data-name="Grupo 885978" transform="translate(26.389 155.071)" opacity="0.35">
              <g id="Grupo_885977" data-name="Grupo 885977">
                <g id="Grupo_885976" data-name="Grupo 885976" clip-path="url(#clip-path-7)">
                  <path id="Trazado_600070" data-name="Trazado 600070" d="M130.548,326.544,99.171,308.429a32.352,32.352,0,0,1-4.072,2.789l-42.612,24.6,31.376,18.115,42.612-24.6a32.389,32.389,0,0,0,4.072-2.789" transform="translate(-52.487 -308.429)" fill="#fff"/>
                </g>
              </g>
            </g>
            <g id="Grupo_885981" data-name="Grupo 885981" transform="translate(73.074 137.42)" opacity="0.2">
              <g id="Grupo_885980" data-name="Grupo 885980">
                <g id="Grupo_885979" data-name="Grupo 885979" clip-path="url(#clip-path-8)">
                  <path id="Trazado_600071" data-name="Trazado 600071" d="M156.568,273.321a32.442,32.442,0,0,1-11.228,17.651l31.376,18.115a32.443,32.443,0,0,0,11.655-19.7Z" transform="translate(-145.34 -273.321)" fill="#fff"/>
                </g>
              </g>
            </g>
          </g>
        </g>
        <path id="Trazado_600072" data-name="Trazado 600072" d="M358.139,359.922h-5.19l-.631-9.442,5.822.189Z" transform="translate(-175.18 -174.266)" fill="#ffa8a7"/>
        <path id="Trazado_600073" data-name="Trazado 600073" d="M326.164,342.88l-5.4.193-.75-10.17,6.145-.209Z" transform="translate(-159.12 -165.423)" fill="#ffa8a7"/>
        <g id="Grupo_885994" data-name="Grupo 885994">
          <g id="Grupo_885993" data-name="Grupo 885993" clip-path="url(#clip-path)">
            <path id="Trazado_600074" data-name="Trazado 600074" d="M339.637,205.279c1.039,12.149,0,41.891,0,41.891.107,1.312,1.54,6.671,1.285,11.712-.347,6.848-1.508,23.669-1.508,23.669a8.111,8.111,0,0,1-5.93.123s-3.359-25.183-4.181-31.97c-.717-5.923-2.084-22.906-2.084-22.906l-2.492,18.3a28.24,28.24,0,0,1,.569,7.591c-.215,3.139-1.768,21.658-1.768,21.658a8.079,8.079,0,0,1-6.026.48s-2.963-26.914-3.017-29.794c-.06-3.283,1.157-33.828,1.157-33.828Z" transform="translate(-156.368 -102.069)" fill="#455a64"/>
            <path id="Trazado_600075" data-name="Trazado 600075" d="M343.836,363.334l-.073-1.093c-.684,0-1.407,3.916-4.533,7.266-1.54,1.651-4.268,4.065-4.836,5.8-.591,1.8,2.309,2.745,5.3,2.353,1.792-.235,5.008-1.876,5.781-3.084s1.135-2.991,1.763-3.876,2.722-2.591,3.062-3.616a6.791,6.791,0,0,0-.3-2.838c-.24-.956-.5-2.007-.814-1.917,0,.116,0,.589,0,.589a4.008,4.008,0,0,1-2.595.914c-.76.03-2.764.106-2.758-.5" transform="translate(-166.23 -180.114)" fill="#37474f"/>
            <path id="Trazado_600076" data-name="Trazado 600076" d="M307.448,349.442c-.281.01-.432.5-1.05,1.2a21.3,21.3,0,0,1-4.367,2.924c-2.021,1.054-5.951,2.675-7.73,3.51-1.111.521-1.059,1.919.09,2.715s3.922,1.369,7.251.593c1.814-.423,4.073-1.725,5.67-2.073,1.463-.319,5.482-.473,6.585-1.264s.662-2.484.35-3.937c-.34-1.586-.766-4.06-1.27-3.952v.547c-.649,1.024-4.033,1.444-5.459.691Z" transform="translate(-145.934 -173.607)" fill="#37474f"/>
            <path id="Trazado_600077" data-name="Trazado 600077" d="M333,237.934a15.15,15.15,0,0,1-5.895-3.649s.473,2.323,4.883,4.636l-.77,19.949L333.5,242.22Z" transform="translate(-162.642 -116.492)" fill="#37474f"/>
            <path id="Trazado_600078" data-name="Trazado 600078" d="M306.77,107.641c.722,1.8,8.141,16.946,10.26,19.983,5.877-2.6,3.257-13.592,3.257-13.592a118.262,118.262,0,0,1-7.012-10.577,7.765,7.765,0,0,1-.547-2.428c-.117-.9-.984-11.926-.49-15.256a2.436,2.436,0,0,1,.862-1.5,13.946,13.946,0,0,0,2.515-3.162c.677-.939,1.324-1.238,1.183-1.487a1.316,1.316,0,0,0-1.752-.361,9.227,9.227,0,0,0-1.763,1.3,12.228,12.228,0,0,1,1.489-3.624c1.564-2.569,1.452-4-2.356-3.507-2.386.308-4.691,2.193-5.759,7.691a48.439,48.439,0,0,0-.442,6.009c-.208,4.651-.633,12.066-.505,15.283a15.637,15.637,0,0,0,1.061,5.234" transform="translate(-151.994 -36.46)" fill="#ffa8a7"/>
            <path id="Trazado_600079" data-name="Trazado 600079" d="M323.588,145.46c-1.99-.574-7.349-9.243-7.349-9.243-1.842-.357-7.087,3.855-6.447,5.913,2.1,4.873,4.977,9.523,5.518,12.561.56,1.74,2.825.632,4.184-2.675,1.9-4.615,5.711-6.09,4.094-6.556" transform="translate(-154.009 -67.72)" fill="#27debf"/>
            <g id="Grupo_885986" data-name="Grupo 885986" transform="translate(155.73 68.476)" opacity="0.3">
              <g id="Grupo_885985" data-name="Grupo 885985">
                <g id="Grupo_885984" data-name="Grupo 885984" clip-path="url(#clip-path-10)">
                  <path id="Trazado_600080" data-name="Trazado 600080" d="M323.588,145.46c-1.99-.574-7.349-9.243-7.349-9.243-1.842-.357-7.087,3.855-6.447,5.913,2.1,4.873,4.977,9.523,5.518,12.561.56,1.74,2.825.632,4.184-2.675,1.9-4.615,5.711-6.09,4.094-6.556" transform="translate(-309.739 -136.195)"/>
                </g>
              </g>
            </g>
            <path id="Trazado_600081" data-name="Trazado 600081" d="M342.508,161.722l-1.793,11.625.69,14.217c-6.731,3.152-18.065,3.53-24.831-1.918,0,0,0-19.168,1.984-26.054,1.415-4.911,4.664-8.228,8.148-8.12,3.675.115,8.4.635,8.4.635l4.023,1.071s3.463,6.8,3.381,8.544" transform="translate(-157.408 -75.314)" fill="#ebebeb"/>
            <path id="Trazado_600082" data-name="Trazado 600082" d="M372.085,140.761c.461-.234,2.569.817,3.851,2.635s1.376,4.356.961,4.882-5.563-1.827-5.563-1.827Z" transform="translate(-184.636 -69.974)" fill="#27debf"/>
            <g id="Grupo_885989" data-name="Grupo 885989" transform="translate(186.699 70.755)" opacity="0.6">
              <g id="Grupo_885988" data-name="Grupo 885988">
                <g id="Grupo_885987" data-name="Grupo 885987" clip-path="url(#clip-path-11)">
                  <path id="Trazado_600083" data-name="Trazado 600083" d="M372.085,140.761c.461-.234,2.569.817,3.851,2.635s1.376,4.356.961,4.882-5.563-1.827-5.563-1.827Z" transform="translate(-371.335 -140.729)"/>
                </g>
              </g>
            </g>
            <path id="Trazado_600084" data-name="Trazado 600084" d="M375.157,115.2c-.762,1.779-10.136,13.9-12.324,16.89a9.66,9.66,0,0,1-1.653-9.792s6.846-9.206,7.911-10.863a3.779,3.779,0,0,0,.491-1.382c.155-.894,1.065-6.954.646-10.293a2.439,2.439,0,0,0-.828-1.521,13.967,13.967,0,0,1-2.443-3.218c-.656-.953-1.3-1.268-1.149-1.513a1.316,1.316,0,0,1,1.759-.322,9.206,9.206,0,0,1,1.734,1.336,12.222,12.222,0,0,0-1.407-3.657c-1.506-2.6-1.361-4.03,2.434-3.453,2.378.361,4.641,2.3,5.585,7.819a48.288,48.288,0,0,1,.307,6.017,102.949,102.949,0,0,1-.267,10.311,7.637,7.637,0,0,1-.8,3.641" transform="translate(-179.256 -43.402)" fill="#ffa8a7"/>
            <path id="Trazado_600085" data-name="Trazado 600085" d="M358.152,147.584l7.072-6.792s-.636,5.825,4.817,7.512l-8.127,10.279c-.939,1.568-3.516-.47-4.091-4-.8-4.924.33-7,.33-7" transform="translate(-177.774 -70.005)" fill="#27debf"/>
            <g id="Grupo_885992" data-name="Grupo 885992" transform="translate(179.76 70.788)" opacity="0.3">
              <g id="Grupo_885991" data-name="Grupo 885991">
                <g id="Grupo_885990" data-name="Grupo 885990" clip-path="url(#clip-path-12)">
                  <path id="Trazado_600086" data-name="Trazado 600086" d="M358.152,147.584l7.072-6.792s-.636,5.825,4.817,7.512l-8.127,10.279c-.939,1.568-3.516-.47-4.091-4-.8-4.924.33-7,.33-7" transform="translate(-357.534 -140.793)"/>
                </g>
              </g>
            </g>
            <path id="Trazado_600087" data-name="Trazado 600087" d="M336.145,111.274a6.007,6.007,0,1,1-5.717-6.282,6.007,6.007,0,0,1,5.717,6.282" transform="translate(-161.169 -52.201)" fill="#263238"/>
            <path id="Trazado_600088" data-name="Trazado 600088" d="M358.879,114.966a1.9,1.9,0,0,0-.781-.715c-.391-.184-.928-.558-1.214-.092-.184.3-.091.81-.137,1.146q-.24,1.732-.479,3.462a4.327,4.327,0,0,0-.154,1.113l-1.137-1.029-.246,9.59a1.23,1.23,0,0,0,1.08-.863c.439-1.064.666-2.188.992-3.154.345-1.024.874-2.333,1.247-3.347.565-1.538,1.322-2.661,1.282-4.3a4.005,4.005,0,0,0-.264-1.451,2.419,2.419,0,0,0-.189-.362" transform="translate(-176.38 -56.651)" fill="#263238"/>
            <path id="Trazado_600089" data-name="Trazado 600089" d="M341.257,118.26c.4.265,1.026-.5,1.559-1.006a1.79,1.79,0,0,1,2.972.626c.76,1.817-.925,4.091-2.25,4.44-2.285.6-2.554-.859-2.554-.859l-.561,8.934c-2.968,3.456-10.72,2.787-7.307-.809l.123-3.045a14.219,14.219,0,0,1-3.042.013c-1.644-.334-2.624-1.689-3.041-3.5-.671-2.916-.867-5.255.084-10.883,1.042-6.169,8.262-5.893,12.043-3.256s1.975,9.35,1.975,9.35" transform="translate(-162.387 -53.272)" fill="#ffa8a7"/>
            <path id="Trazado_600090" data-name="Trazado 600090" d="M326.567,105.578a.319.319,0,0,1,.167.042.365.365,0,0,1,.105.146,2.676,2.676,0,0,0,2.81,1.135,3.166,3.166,0,0,0,1.1-.387,1.988,1.988,0,0,0,.757-.866,2.484,2.484,0,0,0,2.188,1.163,3.772,3.772,0,0,0,2.352-.978,1.8,1.8,0,0,0,1.083,1.907,3.52,3.52,0,0,0,1.246.169,1.532,1.532,0,0,0,.718,2.512,1.7,1.7,0,0,0-.346,1.036,6.866,6.866,0,0,0-.064,1.067c.055.327.21,1.45.684,1.482.207.014,1.057-1.257,1.592-1.7.276-.228.286-.788.315-1.108a15.929,15.929,0,0,0,.029-1.959,3.779,3.779,0,0,1,.05-1.272c.145-.374.6-.663.888-.927a2.251,2.251,0,0,0,.706-1.122,4.014,4.014,0,0,0-.294-2.829,3.551,3.551,0,0,0-1.5-1.621,2.314,2.314,0,0,0-2.153-.027A3.539,3.539,0,0,0,337.2,98.4c-1.3-.707-2.522-.318-3.79.185a3.877,3.877,0,0,0-3.069-1.383,3.682,3.682,0,0,0-2.726,1.848,3.62,3.62,0,0,0-3.311.4,3.3,3.3,0,0,0-1.314,1.838,4.156,4.156,0,0,0-.124,1.018,3.546,3.546,0,0,0,.313,1.591,2.866,2.866,0,0,0,1.182,1.093,4.092,4.092,0,0,0,2.209.585" transform="translate(-160.534 -48.325)" fill="#263238"/>
            <path id="Trazado_600091" data-name="Trazado 600091" d="M339.769,142.882a28.363,28.363,0,0,0,5.055-1.2A4.26,4.26,0,0,0,346.693,140a5.825,5.825,0,0,1-1.113,2.036c-1,1.163-5.857,1.826-5.857,1.826Z" transform="translate(-168.918 -69.613)" fill="#f28f8f"/>
            <path id="Trazado_600092" data-name="Trazado 600092" d="M342.477,126.061a.742.742,0,1,0,.777-.737.754.754,0,0,0-.777.737" transform="translate(-170.287 -62.314)" fill="#263238"/>
            <path id="Trazado_600093" data-name="Trazado 600093" d="M344.3,120.849l1.543.949a.951.951,0,0,0-.31-1.279.884.884,0,0,0-1.233.33" transform="translate(-171.195 -59.86)" fill="#263238"/>
            <path id="Trazado_600094" data-name="Trazado 600094" d="M339.2,136.912l-1.721.555a.888.888,0,0,0,1.122.614.947.947,0,0,0,.6-1.169" transform="translate(-167.801 -68.076)" fill="#f28f8f"/>
            <path id="Trazado_600095" data-name="Trazado 600095" d="M329.4,120.4l1.5-1.044a.876.876,0,0,0-1.247-.252.959.959,0,0,0-.25,1.3" transform="translate(-163.71 -59.14)" fill="#263238"/>
            <path id="Trazado_600096" data-name="Trazado 600096" d="M330.247,125.064a.742.742,0,1,0,.777-.737.753.753,0,0,0-.777.737" transform="translate(-164.206 -61.818)" fill="#263238"/>
            <path id="Trazado_600097" data-name="Trazado 600097" d="M335.107,124.75l-.453,4.442-2.288-.9Z" transform="translate(-165.26 -62.029)" fill="#f28f8f"/>
          </g>
        </g>
        <g id="Grupo_886014" data-name="Grupo 886014">
          <g id="Grupo_886013" data-name="Grupo 886013" clip-path="url(#clip-path)">
            <path id="Trazado_600098" data-name="Trazado 600098" d="M42.858,78.928h-7.3v-32.4a10.842,10.842,0,1,1,21.684,0V64.546A14.381,14.381,0,0,1,42.858,78.928" transform="translate(-17.679 -17.746)" fill="#37474f"/>
            <path id="Trazado_600099" data-name="Trazado 600099" d="M52.7,279.722a2.97,2.97,0,0,0,.44,1.738,21.7,21.7,0,0,0,2.869,3.762c1.534,1.649,3.829,3.6,5.472,5.031.915.8.252,2.123-1.055,2.547a7.867,7.867,0,0,1-6.58-.886c-2.48-1.417-3.793-4.634-5.306-5.509a13.519,13.519,0,0,1-2.991-1.915,2.56,2.56,0,0,1-.226-3.273c.736-1.37,1.842-3.484,2.3-3.248l-.141.436c.358,1.117,3.405,2.418,4.967,2.108Z" transform="translate(-22.299 -138.203)" fill="#263238"/>
            <path id="Trazado_600100" data-name="Trazado 600100" d="M56.488,269.084c-.512,1.8-.869,3.229-1.078,4.232a7.654,7.654,0,0,0-.163,1.991,3.216,3.216,0,0,0,.437,1.175,21.593,21.593,0,0,0,2.874,3.636c.746.8,1.558,1.75,2.5,2.6a.78.78,0,0,1,.136.4c0,.855-2.083,1.082-3.3.728a7.688,7.688,0,0,1-3.764-2.891c-.7-.937-2.283-2.737-3.283-4.083a6.888,6.888,0,0,1-.873-1.355,2.772,2.772,0,0,1-.127-1.937l.063-.2a34.417,34.417,0,0,0,1.045-5.543" transform="translate(-24.728 -133.172)" fill="#ffbda7"/>
            <path id="Trazado_600101" data-name="Trazado 600101" d="M39.3,295.792v-.748a14.458,14.458,0,0,0,3.737,6.545c1.649,1.5,3.9,3.242,4.471,4.919.6,1.744-2.658,2.434-4.79,2.221a8.6,8.6,0,0,1-5.367-2.807c-1.357-1.556-1.333-2.618-1.966-3.475s-2.092-1.812-2.434-2.8a6.315,6.315,0,0,1,.3-2.745c.242-.925.5-1.941.821-1.854,0,.113,0,.57,0,.57a4.133,4.133,0,0,0,2.614.884c.765.029,2.621-.123,2.614-.706" transform="translate(-16.351 -146.7)" fill="#263238"/>
            <path id="Trazado_600102" data-name="Trazado 600102" d="M45.059,296.644c-.43-.38-.861-.754-1.256-1.114a12.071,12.071,0,0,1-2.119-2.71,11.3,11.3,0,0,1-1.531-6.23c.051-1.3.121-2.821.194-3.741l-5.925.877a39.2,39.2,0,0,1,.415,5.055v.775s.547,1.286,1.3,2.754a20.738,20.738,0,0,0,2.05,3.357c1.565,1.919,3.377,3.164,5.438,2.987s2.309-1.033,1.433-2.01" transform="translate(-17.115 -140.639)" fill="#ffbda7"/>
            <path id="Trazado_600103" data-name="Trazado 600103" d="M45.517,206.191c2.751-8.905,8.936-25.512,9.776-28.307.893-2.982-.211-30.316-2.068-38.243L32.3,139.3c-4.637,6.38-4.636,12.27-3.256,26.814.658,6.936,1.088,15.115,1.088,15.115a26.457,26.457,0,0,0-1.531,12.4c.386,3.537,2.052,14.6,2.809,19.169a7.5,7.5,0,0,0,5.811-.522c.316-4.019,1.149-11.93,1.715-16.715.858-7.188,1.144-12.433,1.881-16.629.928-5.237,1.248-24.011,1.248-24.011l2.454,21.3a17.762,17.762,0,0,0-3.23,8.066c-.446,3.388-.8,15.4-1.169,20.769.871.928,3.691,1.545,5.4,1.134" transform="translate(-14.041 -69.261)" fill="#27debf"/>
            <g id="Grupo_885997" data-name="Grupo 885997" transform="translate(14.197 70.035)" opacity="0.5">
              <g id="Grupo_885996" data-name="Grupo 885996">
                <g id="Grupo_885995" data-name="Grupo 885995" clip-path="url(#clip-path-14)">
                  <path id="Trazado_600104" data-name="Trazado 600104" d="M45.517,206.191c2.751-8.905,8.936-25.512,9.776-28.307.893-2.982-.211-30.316-2.068-38.243L32.3,139.3c-4.637,6.38-4.636,12.27-3.256,26.814.658,6.936,1.088,15.115,1.088,15.115a26.457,26.457,0,0,0-1.531,12.4c.386,3.537,2.052,14.6,2.809,19.169a7.5,7.5,0,0,0,5.811-.522c.316-4.019,1.149-11.93,1.715-16.715.858-7.188,1.144-12.433,1.881-16.629.928-5.237,1.248-24.011,1.248-24.011l2.454,21.3a17.762,17.762,0,0,0-3.23,8.066c-.446,3.388-.8,15.4-1.169,20.769.871.928,3.691,1.545,5.4,1.134" transform="translate(-28.238 -139.296)"/>
                </g>
              </g>
            </g>
            <g id="Grupo_886000" data-name="Grupo 886000" transform="translate(28.022 81.119)" opacity="0.15">
              <g id="Grupo_885999" data-name="Grupo 885999">
                <g id="Grupo_885998" data-name="Grupo 885998" clip-path="url(#clip-path-15)">
                  <path id="Trazado_600105" data-name="Trazado 600105" d="M55.734,165.883a14.837,14.837,0,0,0,8.172-4.542s-.911,3.37-6.784,5.377l.242,13.318Z" transform="translate(-55.734 -161.341)"/>
                </g>
              </g>
            </g>
            <path id="Trazado_600106" data-name="Trazado 600106" d="M83.359,32.067c-3.472,8.2-7.2,12.8-9.344,19.28-3.336.326-8.231-5.463-6.345-9.275,3.922-1.467,10.6-14.729,10.6-15.851,0-3.776-.394-10.424-.8-13.587a4.439,4.439,0,0,0-1.053-2.264c-1.138-.988-1.258-1.863-2.109-2.958-.664-.853-1.365-1.2-1.242-1.434a1.266,1.266,0,0,1,1.651-.323,11.255,11.255,0,0,1,1.824,1.318A16.169,16.169,0,0,0,74.825,3.4C73.279,1.055,73.338-.282,76.907.049c2.237.208,4.09,1.828,5.27,6.924.34,1.468.769,4.836,1.06,6.723.79,5.131,1.233,8.853,1.527,12.524.156,1.953-.146,2.873-1.4,5.846" transform="translate(-33.439 0)" fill="#ffbda7"/>
            <path id="Trazado_600107" data-name="Trazado 600107" d="M53.1,106.907c.3-1.4.654-4.04.864-5.967,3.521-3.293,2.534-6.89,1.253-9.537-2.562-5.292-5.3-7.732-6.452-7.732l-7.243-.007c-3.463.411-5.829.8-6.668.985-2.133.467-2.07,2.012-2.194,4.275a24.15,24.15,0,0,0,.232,6.993l2.917,6.3.259,3.881s-5.559,6.833-6.839,12.142c0,0,3.55.118,5.571-2.238,0,0,2.751,4.146,9.572,4.489s10.191-5.721,10.191-5.721Z" transform="translate(-14.534 -41.6)" fill="#27debf"/>
            <g id="Grupo_886003" data-name="Grupo 886003" transform="translate(24.93 57.337)" opacity="0.1">
              <g id="Grupo_886002" data-name="Grupo 886002">
                <g id="Grupo_886001" data-name="Grupo 886001" clip-path="url(#clip-path-16)">
                  <path id="Trazado_600108" data-name="Trazado 600108" d="M49.584,114.111a5.66,5.66,0,0,0,5.338,3.047,5.972,5.972,0,0,0,5.108-3.117s-.2,4.161-5.12,4.114-5.326-4.044-5.326-4.044" transform="translate(-49.584 -114.04)"/>
                </g>
              </g>
            </g>
            <path id="Trazado_600109" data-name="Trazado 600109" d="M55.16,44.378c1.2.672,2.739,3.618,2.744,9.873,0,5.3-1.681,6.65-2.534,7.048s-2.521.208-4.144-.023l.076,3.18s4.585,4.776.881,5.338c-1.849.281-4.217-.835-5.822-2.043a6.473,6.473,0,0,1-2.136-3.289l-.131-6.917s-.929.947-2.576-.425c-1.36-1.132-1.856-3.085-.843-4.163a2.321,2.321,0,0,1,3.709.647s.95.054,1.856-1.729a11.578,11.578,0,0,0,5.011-.932c4.243-1.854,4.372-5.183,3.909-6.565" transform="translate(-19.957 -22.066)" fill="#ffbda7"/>
            <path id="Trazado_600110" data-name="Trazado 600110" d="M60.466,60.388a.667.667,0,1,1-.716-.643.678.678,0,0,1,.716.643" transform="translate(-29.403 -29.706)" fill="#263238"/>
            <g id="Grupo_886006" data-name="Grupo 886006" transform="translate(31.956 35.345)" opacity="0.5" style="mix-blend-mode: multiply;isolation: isolate">
              <g id="Grupo_886005" data-name="Grupo 886005">
                <g id="Grupo_886004" data-name="Grupo 886004" clip-path="url(#clip-path-17)">
                  <path id="Trazado_600111" data-name="Trazado 600111" d="M63.59,70.3l1.731.507a.886.886,0,0,1-1.1.643A.944.944,0,0,1,63.59,70.3" transform="translate(-63.558 -70.299)" fill="#f0997a"/>
                </g>
              </g>
            </g>
            <path id="Trazado_600112" data-name="Trazado 600112" d="M72.307,55.341l-1.37-.9a.787.787,0,0,1,1.114-.256.862.862,0,0,1,.256,1.158" transform="translate(-35.271 -26.875)" fill="#263238"/>
            <path id="Trazado_600113" data-name="Trazado 600113" d="M58.711,55.109l-1.517.624a.787.787,0,0,1,.415-1.065.861.861,0,0,1,1.1.44" transform="translate(-28.401 -27.151)" fill="#263238"/>
            <path id="Trazado_600114" data-name="Trazado 600114" d="M71.708,59.828a.667.667,0,1,1-.716-.643.678.678,0,0,1,.716.643" transform="translate(-34.993 -29.427)" fill="#263238"/>
            <g id="Grupo_886009" data-name="Grupo 886009" transform="translate(33.509 30.096)" opacity="0.5" style="mix-blend-mode: multiply;isolation: isolate">
              <g id="Grupo_886008" data-name="Grupo 886008">
                <g id="Grupo_886007" data-name="Grupo 886007" clip-path="url(#clip-path-18)">
                  <path id="Trazado_600115" data-name="Trazado 600115" d="M66.647,59.86l.2,4.008,2.1-.7Z" transform="translate(-66.647 -59.86)" fill="#f0997a"/>
                </g>
              </g>
            </g>
            <g id="Grupo_886012" data-name="Grupo 886012" transform="translate(25.451 36.733)" opacity="0.5" style="mix-blend-mode: multiply;isolation: isolate">
              <g id="Grupo_886011" data-name="Grupo 886011">
                <g id="Grupo_886010" data-name="Grupo 886010" clip-path="url(#clip-path-19)">
                  <path id="Trazado_600116" data-name="Trazado 600116" d="M56.438,75.539c-1.709-.183-5.238-1.105-5.818-2.478A3.59,3.59,0,0,0,51.892,74.8c1.068.872,4.572,1.8,4.572,1.8Z" transform="translate(-50.62 -73.06)" fill="#f0997a"/>
                </g>
              </g>
            </g>
            <path id="Trazado_600117" data-name="Trazado 600117" d="M48.582,61.019l.067,2.787A1.9,1.9,0,0,0,50.5,61.863l-.062-2.573Z" transform="translate(-24.156 -29.48)" fill="#37474f"/>
            <path id="Trazado_600118" data-name="Trazado 600118" d="M10.246,34.588c3.94,9.595,8.824,15.473,12,21.614,5.414.316,5.917-8.062,3.47-11.542,0,0-9.421-11.394-10.256-15.566a119.809,119.809,0,0,1-2.058-12.035,3.632,3.632,0,0,1,.432-2.07,14.975,14.975,0,0,0,2.1-3.514c.525-.945.887-1.268.729-1.484-.2-.278-1.023-.346-1.838.155a6.258,6.258,0,0,0-1.277,1.2A12.586,12.586,0,0,1,14.6,7.987c1.169-2.554,1.124-4.882-2.353-4.009-2.179.547-3.961,3.061-4.349,8.277a58.6,58.6,0,0,0,.064,6.812c.328,4.022.695,7.875,1.148,11.207a17.6,17.6,0,0,0,1.137,4.314" transform="translate(-3.891 -1.885)" fill="#ffbda7"/>
          </g>
        </g>
      </g>
    </g>
  </g>
</svg>
