<svg xmlns="http://www.w3.org/2000/svg" xmlns:xlink="http://www.w3.org/1999/xlink" width="820" height="395.072" viewBox="0 0 820 395.072">
  <defs>
    <clipPath id="clip-path">
      <rect id="Rectángulo_377638" data-name="Rectángulo 377638" width="81.711" height="87.22" fill="#03386e"/>
    </clipPath>
  </defs>
  <g id="Grupo_1072193" data-name="Grupo 1072193" transform="translate(-389.5 -3774.133)">
    <g id="Grupo_877272" data-name="Grupo 877272" transform="translate(601.062 3774.133)" opacity="0.534">
      <path id="Trazado_263272" data-name="Trazado 263272" d="M0,110.836C0,213.7,83.385,297.081,186.245,297.081V110.836Z" transform="translate(0 97.991)" fill="#03386e"/>
      <path id="Trazado_263273" data-name="Trazado 263273" d="M186.245,0C83.385,0,0,83.385,0,186.245H186.245Z" transform="translate(0 0)" fill="#d2f1dc"/>
      <path id="Trazado_263274" data-name="Trazado 263274" d="M110.836,297.081c102.861,0,186.246-83.385,186.246-186.245H110.836Z" transform="translate(97.99 97.991)" fill="#0c5e46"/>
      <path id="Trazado_263275" data-name="Trazado 263275" d="M110.836,0V186.245H297.081C297.081,83.385,213.7,0,110.836,0" transform="translate(97.99 0)" fill="#6debff"/>
    </g>
    <g id="Grupo_877270" data-name="Grupo 877270" transform="translate(612.937 3786.008)">
      <path id="Trazado_263272-2" data-name="Trazado 263272" d="M0,110.836A175.049,175.049,0,0,0,175.049,285.885V110.836Z" transform="translate(0 85.438)" fill="#03386e"/>
      <path id="Trazado_263273-2" data-name="Trazado 263273" d="M175.049,0A175.049,175.049,0,0,0,0,175.049H175.049Z" transform="translate(0 0)" fill="#d2f1dc"/>
      <path id="Trazado_263274-2" data-name="Trazado 263274" d="M110.836,285.885A175.049,175.049,0,0,0,285.885,110.836H110.836Z" transform="translate(85.437 85.438)" fill="#0c5e46"/>
      <path id="Trazado_263275-2" data-name="Trazado 263275" d="M110.836,0V175.049H285.885A175.049,175.049,0,0,0,110.836,0" transform="translate(85.437 0)" fill="#6debff"/>
    </g>
    <path id="Trazado_836460" data-name="Trazado 836460" d="M0,0H350.1V350.1H0Z" transform="translate(623.548 3796.62)" fill="none"/>
    <path id="Trazado_836461" data-name="Trazado 836461" d="M15.32,15V3.625h3.664a5.39,5.39,0,0,1,2.711.684,4.805,4.805,0,0,1,1.879,1.93,5.826,5.826,0,0,1,.684,2.793v.523a5.86,5.86,0,0,1-.66,2.8,4.826,4.826,0,0,1-1.859,1.938A5.271,5.271,0,0,1,19.063,15Zm2.742-9.258v7.148h.953a2.133,2.133,0,0,0,1.813-.84,4.116,4.116,0,0,0,.633-2.5V9.063a4.082,4.082,0,0,0-.633-2.484,2.17,2.17,0,0,0-1.844-.836Zm14.656,4.43H28.406v2.719H33.5V15H25.664V3.625h7.852V5.742H28.406v2.4h4.313ZM41.523,15H38.789V3.625h2.734ZM47.031,3.625l2.539,7.914L52.1,3.625h3.609V15h-2.75V12.344l.266-5.437L50.477,15H48.664L45.906,6.9l.266,5.445V15H43.43V3.625ZM60.2,11.141V15H57.453V3.625h4.539a5.287,5.287,0,0,1,2.309.48,3.621,3.621,0,0,1,1.555,1.367,3.734,3.734,0,0,1,.551,2.012,3.291,3.291,0,0,1-1.191,2.66,4.943,4.943,0,0,1-3.27,1Zm0-2.117h1.8a1.7,1.7,0,0,0,1.215-.4A1.48,1.48,0,0,0,63.625,7.5a1.83,1.83,0,0,0-.43-1.273,1.522,1.522,0,0,0-1.172-.484H60.2Zm12.742,3.852H69.18L68.523,15h-2.93L69.766,3.625h2.578L76.547,15H73.6Zm-3.1-2.117h2.445L71.055,6.813Zm16.578.391a4.154,4.154,0,0,1-.641,2.1,3.866,3.866,0,0,1-1.645,1.41,5.6,5.6,0,0,1-2.418.5A4.467,4.467,0,0,1,78.18,13.7,6.032,6.032,0,0,1,76.891,9.57V9.008a6.885,6.885,0,0,1,.582-2.926,4.41,4.41,0,0,1,1.676-1.937,4.676,4.676,0,0,1,2.531-.684,4.9,4.9,0,0,1,3.328,1.09,4.306,4.306,0,0,1,1.43,3H83.7a2.037,2.037,0,0,0-.523-1.492,2.153,2.153,0,0,0-1.5-.453,1.638,1.638,0,0,0-1.5.766,4.921,4.921,0,0,0-.5,2.445v.8a5.445,5.445,0,0,0,.457,2.6,1.672,1.672,0,0,0,1.574.781,2.106,2.106,0,0,0,1.445-.445,1.89,1.89,0,0,0,.531-1.414Zm10-5.406H93V15H90.258V5.742H86.906V3.625h9.508Zm10.57,3.8a6.708,6.708,0,0,1-.617,2.945,4.561,4.561,0,0,1-1.754,1.973,4.884,4.884,0,0,1-2.59.691,4.953,4.953,0,0,1-2.578-.668,4.554,4.554,0,0,1-1.754-1.91,6.515,6.515,0,0,1-.66-2.852V9.086a6.738,6.738,0,0,1,.613-2.949A4.55,4.55,0,0,1,99.4,4.164a5.2,5.2,0,0,1,5.184-.008,4.632,4.632,0,0,1,1.762,1.957,6.544,6.544,0,0,1,.637,2.91ZM104.2,9.07a4.783,4.783,0,0,0-.566-2.574,1.817,1.817,0,0,0-1.621-.879q-2.062,0-2.18,3.094l-.008.836a4.92,4.92,0,0,0,.555,2.57,1.814,1.814,0,0,0,1.648.9,1.792,1.792,0,0,0,1.6-.883,4.785,4.785,0,0,0,.57-2.539Z" transform="translate(445.5 3847.014)" fill="#12263f"/>
    <path id="Trazado_836462" data-name="Trazado 836462" d="M10.116,15V3.625H13.78a5.39,5.39,0,0,1,2.711.684,4.805,4.805,0,0,1,1.879,1.93,5.826,5.826,0,0,1,.684,2.793v.523a5.86,5.86,0,0,1-.66,2.8,4.826,4.826,0,0,1-1.859,1.938A5.271,5.271,0,0,1,13.858,15Zm2.742-9.258v7.148h.953a2.133,2.133,0,0,0,1.813-.84,4.116,4.116,0,0,0,.633-2.5V9.063a4.082,4.082,0,0,0-.633-2.484,2.17,2.17,0,0,0-1.844-.836Zm14.656,4.43H23.2v2.719H28.3V15H20.46V3.625h7.852V5.742H23.2v2.4h4.313Zm14.094.8H40.124V15H37.382V3.625h4.477a5,5,0,0,1,3.164.9,3.041,3.041,0,0,1,1.141,2.536,3.693,3.693,0,0,1-.48,1.967,3.41,3.41,0,0,1-1.5,1.264l2.375,4.593V15H43.616ZM40.124,8.867h1.734a1.557,1.557,0,0,0,1.176-.411,1.59,1.59,0,0,0,.395-1.147,1.608,1.608,0,0,0-.4-1.155,1.542,1.542,0,0,0-1.172-.419H40.124Zm14.75,1.3H50.562v2.719h5.094V15H47.819V3.625h7.852V5.742H50.562v2.4h4.313Zm7.766,1.8a1.127,1.127,0,0,0-.426-.937,5.292,5.292,0,0,0-1.5-.7,14.353,14.353,0,0,1-1.75-.7,3.314,3.314,0,0,1-2.211-2.984A2.676,2.676,0,0,1,57.308,5a3.562,3.562,0,0,1,1.559-1.125,6.065,6.065,0,0,1,2.266-.4,5.305,5.305,0,0,1,2.2.438,3.482,3.482,0,0,1,1.512,1.246A3.254,3.254,0,0,1,65.382,7H62.647a1.375,1.375,0,0,0-.426-1.078,1.66,1.66,0,0,0-1.152-.383,1.872,1.872,0,0,0-1.16.324.955.955,0,0,0,.043,1.617,5.911,5.911,0,0,0,1.648.734,10.1,10.1,0,0,1,1.938.816,3.256,3.256,0,0,1,1.844,2.93A2.778,2.778,0,0,1,64.257,14.3a5,5,0,0,1-3.086.852,6.122,6.122,0,0,1-2.5-.5A3.775,3.775,0,0,1,56.979,13.3a3.542,3.542,0,0,1-.566-1.988h2.75a1.744,1.744,0,0,0,.473,1.348,2.234,2.234,0,0,0,1.535.434,1.765,1.765,0,0,0,1.074-.293A.967.967,0,0,0,62.64,11.977ZM75.71,3.625V11.07a4.279,4.279,0,0,1-.539,2.191,3.492,3.492,0,0,1-1.547,1.41,5.449,5.449,0,0,1-2.383.484,4.708,4.708,0,0,1-3.273-1.078,3.845,3.845,0,0,1-1.219-2.953v-7.5h2.758V11.18q.047,1.867,1.734,1.867a1.679,1.679,0,0,0,1.289-.469,2.191,2.191,0,0,0,.438-1.523V3.625Zm4.453,9.266h4.773V15H77.421V3.625h2.742ZM93.421,5.742H90.007V15H87.265V5.742H83.913V3.625h9.508Zm6.68,7.133H96.343L95.687,15h-2.93L96.929,3.625h2.578L103.71,15h-2.945ZM97,10.758h2.445L98.218,6.813ZM104.538,15V3.625H108.2a5.39,5.39,0,0,1,2.711.684,4.805,4.805,0,0,1,1.879,1.93,5.826,5.826,0,0,1,.684,2.793v.523a5.86,5.86,0,0,1-.66,2.8,4.826,4.826,0,0,1-1.859,1.938A5.271,5.271,0,0,1,108.28,15Zm2.742-9.258v7.148h.953a2.133,2.133,0,0,0,1.813-.84,4.116,4.116,0,0,0,.633-2.5V9.063a4.082,4.082,0,0,0-.633-2.484,2.17,2.17,0,0,0-1.844-.836Zm17.234,3.8a6.708,6.708,0,0,1-.617,2.945,4.561,4.561,0,0,1-1.754,1.973,4.884,4.884,0,0,1-2.59.691,4.953,4.953,0,0,1-2.578-.668,4.554,4.554,0,0,1-1.754-1.91,6.515,6.515,0,0,1-.66-2.852V9.086a6.738,6.738,0,0,1,.613-2.949,4.55,4.55,0,0,1,1.758-1.973,5.2,5.2,0,0,1,5.184-.008,4.632,4.632,0,0,1,1.762,1.957,6.544,6.544,0,0,1,.637,2.91Zm-2.789-.477a4.783,4.783,0,0,0-.566-2.574,1.817,1.817,0,0,0-1.621-.879q-2.062,0-2.18,3.094l-.008.836a4.92,4.92,0,0,0,.555,2.57,1.814,1.814,0,0,0,1.648.9,1.792,1.792,0,0,0,1.6-.883,4.785,4.785,0,0,0,.57-2.539Zm10.07,2.906a1.127,1.127,0,0,0-.426-.937,5.292,5.292,0,0,0-1.5-.7,14.353,14.353,0,0,1-1.75-.7,3.314,3.314,0,0,1-2.211-2.984A2.676,2.676,0,0,1,126.464,5a3.562,3.562,0,0,1,1.559-1.125,6.065,6.065,0,0,1,2.266-.4,5.305,5.305,0,0,1,2.2.438A3.482,3.482,0,0,1,134,5.152,3.254,3.254,0,0,1,134.538,7H131.8a1.375,1.375,0,0,0-.426-1.078,1.66,1.66,0,0,0-1.152-.383,1.872,1.872,0,0,0-1.16.324.955.955,0,0,0,.043,1.617,5.911,5.911,0,0,0,1.648.734,10.1,10.1,0,0,1,1.938.816,3.256,3.256,0,0,1,1.844,2.93,2.778,2.778,0,0,1-1.125,2.344,5,5,0,0,1-3.086.852,6.122,6.122,0,0,1-2.5-.5,3.775,3.775,0,0,1-1.687-1.359,3.542,3.542,0,0,1-.566-1.988h2.75a1.744,1.744,0,0,0,.473,1.348,2.234,2.234,0,0,0,1.535.434A1.765,1.765,0,0,0,131.4,12.8.967.967,0,0,0,131.8,11.977Z" transform="translate(438.5 4051.498)" fill="#12263f"/>
    <path id="Trazado_836463" data-name="Trazado 836463" d="M14.445,10.469H10.023V15H7.281V3.625h7.609V5.742H10.023V8.359h4.422Zm11.219-.922a6.708,6.708,0,0,1-.617,2.945,4.561,4.561,0,0,1-1.754,1.973,4.884,4.884,0,0,1-2.59.691,4.953,4.953,0,0,1-2.578-.668,4.554,4.554,0,0,1-1.754-1.91,6.515,6.515,0,0,1-.66-2.852V9.086a6.737,6.737,0,0,1,.613-2.949,4.55,4.55,0,0,1,1.758-1.973,5.2,5.2,0,0,1,5.184-.008,4.632,4.632,0,0,1,1.762,1.957,6.544,6.544,0,0,1,.637,2.91ZM22.875,9.07A4.783,4.783,0,0,0,22.309,6.5a1.817,1.817,0,0,0-1.621-.879q-2.062,0-2.18,3.094l-.008.836a4.92,4.92,0,0,0,.555,2.57,1.814,1.814,0,0,0,1.648.9,1.792,1.792,0,0,0,1.6-.883,4.785,4.785,0,0,0,.57-2.539Zm8.43,1.906H29.82V15H27.078V3.625h4.477a5,5,0,0,1,3.164.9,3.041,3.041,0,0,1,1.141,2.536,3.693,3.693,0,0,1-.48,1.967,3.41,3.41,0,0,1-1.5,1.264l2.375,4.593V15H33.313ZM29.82,8.867h1.734a1.557,1.557,0,0,0,1.176-.411,1.59,1.59,0,0,0,.395-1.147,1.608,1.608,0,0,0-.4-1.155,1.542,1.542,0,0,0-1.172-.419H29.82Zm11.3-5.242,2.539,7.914,2.531-7.914H49.8V15h-2.75V12.344l.266-5.437L44.563,15H42.75L39.992,6.9l.266,5.445V15H37.516V3.625Zm17.023,9.25H54.383L53.727,15H50.8L54.969,3.625h2.578L61.75,15H58.8Zm-3.1-2.117h2.445L56.258,6.813ZM70.57,5.742H67.156V15H64.414V5.742H61.063V3.625H70.57ZM74.648,15H71.914V3.625h2.734Zm6.32-3.094,2.266-8.281H86.3L82.469,15h-3l-3.8-11.375h3.039ZM93,12.875H89.242L88.586,15h-2.93L89.828,3.625h2.578L96.609,15H93.664Zm-3.1-2.117h2.445L91.117,6.813Z" transform="translate(1030.5 3846.751)" fill="#12263f"/>
    <path id="Trazado_836464" data-name="Trazado 836464" d="M19.254,15V3.625h3.664a5.39,5.39,0,0,1,2.711.684,4.805,4.805,0,0,1,1.879,1.93,5.826,5.826,0,0,1,.684,2.793v.523a5.86,5.86,0,0,1-.66,2.8,4.826,4.826,0,0,1-1.859,1.938A5.271,5.271,0,0,1,23,15ZM22,5.742v7.148h.953a2.133,2.133,0,0,0,1.813-.84,4.116,4.116,0,0,0,.633-2.5V9.063a4.082,4.082,0,0,0-.633-2.484,2.17,2.17,0,0,0-1.844-.836Zm14.656,4.43H32.34v2.719h5.094V15H29.6V3.625h7.852V5.742H32.34v2.4h4.313Zm8.625.969V15H42.535V3.625h4.539a5.287,5.287,0,0,1,2.309.48,3.621,3.621,0,0,1,1.555,1.367,3.734,3.734,0,0,1,.551,2.012,3.291,3.291,0,0,1-1.191,2.66,4.943,4.943,0,0,1-3.27,1Zm0-2.117h1.8a1.7,1.7,0,0,0,1.215-.4A1.48,1.48,0,0,0,48.707,7.5a1.83,1.83,0,0,0-.43-1.273,1.522,1.522,0,0,0-1.172-.484H45.277Zm11.9,1.953H55.691V15H52.949V3.625h4.477a5,5,0,0,1,3.164.9A3.041,3.041,0,0,1,61.73,7.059a3.693,3.693,0,0,1-.48,1.967,3.41,3.41,0,0,1-1.5,1.264l2.375,4.593V15H59.184ZM55.691,8.867h1.734A1.557,1.557,0,0,0,58.6,8.456,1.59,1.59,0,0,0,59,7.309a1.608,1.608,0,0,0-.4-1.155,1.542,1.542,0,0,0-1.172-.419H55.691Zm17.328.68a6.708,6.708,0,0,1-.617,2.945,4.561,4.561,0,0,1-1.754,1.973,4.884,4.884,0,0,1-2.59.691,4.953,4.953,0,0,1-2.578-.668,4.554,4.554,0,0,1-1.754-1.91,6.515,6.515,0,0,1-.66-2.852V9.086a6.737,6.737,0,0,1,.613-2.949,4.55,4.55,0,0,1,1.758-1.973,5.2,5.2,0,0,1,5.184-.008,4.632,4.632,0,0,1,1.762,1.957,6.544,6.544,0,0,1,.637,2.91ZM70.23,9.07A4.783,4.783,0,0,0,69.664,6.5a1.817,1.817,0,0,0-1.621-.879q-2.062,0-2.18,3.094l-.008.836a4.92,4.92,0,0,0,.555,2.57,1.814,1.814,0,0,0,1.648.9,1.792,1.792,0,0,0,1.6-.883,4.785,4.785,0,0,0,.57-2.539Zm13.406,2.078a4.154,4.154,0,0,1-.641,2.1,3.866,3.866,0,0,1-1.645,1.41,5.6,5.6,0,0,1-2.418.5A4.467,4.467,0,0,1,75.4,13.7,6.032,6.032,0,0,1,74.113,9.57V9.008A6.885,6.885,0,0,1,74.7,6.082a4.41,4.41,0,0,1,1.676-1.937A4.676,4.676,0,0,1,78.9,3.461a4.9,4.9,0,0,1,3.328,1.09,4.306,4.306,0,0,1,1.43,3H80.926A2.037,2.037,0,0,0,80.4,6.063a2.153,2.153,0,0,0-1.5-.453,1.638,1.638,0,0,0-1.5.766,4.921,4.921,0,0,0-.5,2.445v.8a5.445,5.445,0,0,0,.457,2.6,1.672,1.672,0,0,0,1.574.781,2.106,2.106,0,0,0,1.445-.445,1.89,1.89,0,0,0,.531-1.414Zm8.352-.977H87.676v2.719H92.77V15H84.934V3.625h7.852V5.742H87.676v2.4h4.313Zm7.766,1.8a1.127,1.127,0,0,0-.426-.937,5.292,5.292,0,0,0-1.5-.7,14.353,14.353,0,0,1-1.75-.7,3.314,3.314,0,0,1-2.211-2.984A2.676,2.676,0,0,1,94.422,5,3.562,3.562,0,0,1,95.98,3.871a6.065,6.065,0,0,1,2.266-.4,5.305,5.305,0,0,1,2.2.438,3.482,3.482,0,0,1,1.512,1.246A3.254,3.254,0,0,1,102.5,7H99.762a1.375,1.375,0,0,0-.426-1.078,1.66,1.66,0,0,0-1.152-.383,1.872,1.872,0,0,0-1.16.324.955.955,0,0,0,.043,1.617,5.911,5.911,0,0,0,1.648.734,10.1,10.1,0,0,1,1.938.816,3.256,3.256,0,0,1,1.844,2.93,2.778,2.778,0,0,1-1.125,2.344,5,5,0,0,1-3.086.852,6.122,6.122,0,0,1-2.5-.5A3.775,3.775,0,0,1,94.094,13.3a3.542,3.542,0,0,1-.566-1.988h2.75a1.745,1.745,0,0,0,.473,1.348,2.234,2.234,0,0,0,1.535.434,1.765,1.765,0,0,0,1.074-.293A.967.967,0,0,0,99.754,11.977Zm13.781-2.43a6.708,6.708,0,0,1-.617,2.945,4.561,4.561,0,0,1-1.754,1.973,4.884,4.884,0,0,1-2.59.691A4.953,4.953,0,0,1,106,14.488a4.554,4.554,0,0,1-1.754-1.91,6.515,6.515,0,0,1-.66-2.852V9.086a6.738,6.738,0,0,1,.613-2.949,4.55,4.55,0,0,1,1.758-1.973,5.2,5.2,0,0,1,5.184-.008A4.632,4.632,0,0,1,112.9,6.113a6.544,6.544,0,0,1,.637,2.91Zm-2.789-.477A4.783,4.783,0,0,0,110.18,6.5a1.817,1.817,0,0,0-1.621-.879q-2.062,0-2.18,3.094l-.008.836a4.92,4.92,0,0,0,.555,2.57,1.814,1.814,0,0,0,1.648.9,1.792,1.792,0,0,0,1.6-.883,4.785,4.785,0,0,0,.57-2.539Zm10.07,2.906a1.127,1.127,0,0,0-.426-.937,5.292,5.292,0,0,0-1.5-.7,14.353,14.353,0,0,1-1.75-.7,3.314,3.314,0,0,1-2.211-2.984A2.676,2.676,0,0,1,115.484,5a3.562,3.562,0,0,1,1.559-1.125,6.065,6.065,0,0,1,2.266-.4,5.305,5.305,0,0,1,2.2.438,3.482,3.482,0,0,1,1.512,1.246A3.254,3.254,0,0,1,123.559,7h-2.734a1.375,1.375,0,0,0-.426-1.078,1.66,1.66,0,0,0-1.152-.383,1.872,1.872,0,0,0-1.16.324.955.955,0,0,0,.043,1.617,5.911,5.911,0,0,0,1.648.734,10.1,10.1,0,0,1,1.938.816,3.256,3.256,0,0,1,1.844,2.93,2.778,2.778,0,0,1-1.125,2.344,5,5,0,0,1-3.086.852,6.122,6.122,0,0,1-2.5-.5,3.775,3.775,0,0,1-1.687-1.359,3.542,3.542,0,0,1-.566-1.988h2.75a1.745,1.745,0,0,0,.473,1.348,2.234,2.234,0,0,0,1.535.434,1.765,1.765,0,0,0,1.074-.293A.967.967,0,0,0,120.816,11.977Z" transform="translate(1014.5 4049.498)" fill="#12263f"/>
    <path id="Trazado_836465" data-name="Trazado 836465" d="M95.691,0A95.691,95.691,0,1,1,0,95.691,95.691,95.691,0,0,1,95.691,0Z" transform="translate(695.966 3886.116)" fill="#fff"/>
    <path id="Trazado_836466" data-name="Trazado 836466" d="M11.852,10.172H7.539v2.719h5.094V15H4.8V3.625h7.852V5.742H7.539v2.4h4.313Zm6.313,1.734L20.43,3.625h3.063L19.664,15h-3l-3.8-11.375h3.039Zm12.031.969H26.438L25.781,15h-2.93L27.023,3.625H29.6L33.8,15H30.859Zm-3.1-2.117h2.445L28.313,6.813Zm10.281,2.133h4.773V15H34.633V3.625h2.742ZM52.039,3.625V11.07a4.279,4.279,0,0,1-.539,2.191,3.492,3.492,0,0,1-1.547,1.41,5.449,5.449,0,0,1-2.383.484A4.708,4.708,0,0,1,44.3,14.078a3.845,3.845,0,0,1-1.219-2.953v-7.5h2.758V11.18q.047,1.867,1.734,1.867a1.679,1.679,0,0,0,1.289-.469,2.191,2.191,0,0,0,.438-1.523V3.625Zm8,9.25H56.281L55.625,15H52.7L56.867,3.625h2.578L63.648,15H60.7Zm-3.1-2.117h2.445L58.156,6.813Zm16.578.391a4.154,4.154,0,0,1-.641,2.1,3.866,3.866,0,0,1-1.645,1.41,5.6,5.6,0,0,1-2.418.5A4.467,4.467,0,0,1,65.281,13.7,6.032,6.032,0,0,1,63.992,9.57V9.008a6.885,6.885,0,0,1,.582-2.926A4.41,4.41,0,0,1,66.25,4.145a4.676,4.676,0,0,1,2.531-.684,4.9,4.9,0,0,1,3.328,1.09,4.306,4.306,0,0,1,1.43,3H70.8a2.037,2.037,0,0,0-.523-1.492,2.153,2.153,0,0,0-1.5-.453,1.638,1.638,0,0,0-1.5.766,4.921,4.921,0,0,0-.5,2.445v.8a5.445,5.445,0,0,0,.457,2.6,1.672,1.672,0,0,0,1.574.781,2.106,2.106,0,0,0,1.445-.445,1.89,1.89,0,0,0,.531-1.414ZM77.734,15H75V3.625h2.734ZM89.273,9.547a6.708,6.708,0,0,1-.617,2.945A4.561,4.561,0,0,1,86.9,14.465a4.884,4.884,0,0,1-2.59.691,4.953,4.953,0,0,1-2.578-.668,4.554,4.554,0,0,1-1.754-1.91,6.515,6.515,0,0,1-.66-2.852V9.086a6.738,6.738,0,0,1,.613-2.949,4.55,4.55,0,0,1,1.758-1.973,5.2,5.2,0,0,1,5.184-.008,4.632,4.632,0,0,1,1.762,1.957,6.544,6.544,0,0,1,.637,2.91ZM86.484,9.07A4.783,4.783,0,0,0,85.918,6.5,1.817,1.817,0,0,0,84.3,5.617q-2.062,0-2.18,3.094l-.008.836a4.92,4.92,0,0,0,.555,2.57,1.814,1.814,0,0,0,1.648.9,1.792,1.792,0,0,0,1.6-.883,4.785,4.785,0,0,0,.57-2.539ZM84.617.578H87.4L85.227,3.031l-2.148,0ZM100.188,15H97.461L93.43,7.922V15H90.688V3.625H93.43L97.453,10.7V3.625h2.734Z" transform="translate(746.098 4022.786)" fill="#12263f"/>
    <path id="Trazado_835936" data-name="Trazado 835936" d="M4256-7404.737h260.986" transform="translate(-3866.5 11276.751)" fill="none" stroke="#d2f1dc" stroke-width="5"/>
    <path id="Trazado_835938" data-name="Trazado 835938" d="M4256-7404.737h260.986" transform="translate(5465.5 -3533.25) rotate(180)" fill="none" stroke="#6debff" stroke-width="5"/>
    <path id="Trazado_835939" data-name="Trazado 835939" d="M4256-7404.737h260.986" transform="translate(5465.5 -3327.503) rotate(180)" fill="none" stroke="#0c5e46" stroke-width="5"/>
    <path id="Trazado_835937" data-name="Trazado 835937" d="M4256-7404.737h260.986" transform="translate(-3866.5 11482.497)" fill="none" stroke="#03386e" stroke-width="5"/>
    <path id="Trazado_836467" data-name="Trazado 836467" d="M12,0A12,12,0,1,1,0,12,12,12,0,0,1,12,0Z" transform="translate(389.5 3859.751)" fill="#d2f1dc"/>
    <path id="Trazado_836468" data-name="Trazado 836468" d="M12,0A12,12,0,1,1,0,12,12,12,0,0,1,12,0Z" transform="translate(1209.5 3883.751) rotate(180)" fill="#6debff"/>
    <path id="Trazado_836469" data-name="Trazado 836469" d="M12,0A12,12,0,1,1,0,12,12,12,0,0,1,12,0Z" transform="translate(1209.5 4089.498) rotate(180)" fill="#0c5e46"/>
    <path id="Trazado_836470" data-name="Trazado 836470" d="M12,0A12,12,0,1,1,0,12,12,12,0,0,1,12,0Z" transform="translate(389.5 4065.498)" fill="#03386e"/>
    <g id="Grupo_1072155" data-name="Grupo 1072155" transform="translate(757.742 3921.827)">
      <g id="Grupo_1072154" data-name="Grupo 1072154" clip-path="url(#clip-path)">
        <path id="Trazado_835940" data-name="Trazado 835940" d="M0,35.494Q0,18.649.005,1.8A3.124,3.124,0,0,1,.016,1.4,1.429,1.429,0,0,1,1.562,0c.1,0,.2,0,.306,0H68.961a3.072,3.072,0,0,1,.61.036,1.374,1.374,0,0,1,1.271,1.437c.01.136.005.273.005.409v60.33c0,.471,0,.471-.461.471-.659,0-1.317-.011-1.975.006-.248.007-.325-.077-.292-.308a1.689,1.689,0,0,0,0-.238q0-29.484,0-58.967c0-.449,0-.449-.449-.449q-32.252,0-64.5-.008c-.347,0-.445.076-.444.437q.014,32.277,0,64.554c0,.327.055.433.415.432q7.05-.022,14.1-.009a3.309,3.309,0,0,1,.442.014,1.44,1.44,0,0,1,1.4,1.675q0,7.1,0,14.205c0,.456,0,.456.442.456H67.679c.444,0,.444,0,.444.454,0,.67-.008,1.34,0,2.01,0,.208-.053.3-.266.264a1.141,1.141,0,0,0-.17,0q-24.9,0-49.792.006a1.71,1.71,0,0,1-1.275-.533L3.7,73.747Q2.121,72.169.539,70.6A1.75,1.75,0,0,1,0,69.287q.009-16.9,0-33.793M4.8,70.855,16.348,82.413a.821.821,0,0,0,0-.082q0-5.584.008-11.167c0-.274-.094-.307-.331-.307q-5.5.01-10.994.007c-.1,0-.2-.031-.238-.007" transform="translate(0 0)" fill="#03386e"/>
        <path id="Trazado_835941" data-name="Trazado 835941" d="M53.861,44.919a31.063,31.063,0,0,1,5.51.626,28.447,28.447,0,0,1,13.881,7.286,28.11,28.11,0,0,1,7.237,11.138,29.281,29.281,0,0,1,1.562,7.05,26.848,26.848,0,0,1-.228,6.855,28.516,28.516,0,0,1-4.347,11.272,22.483,22.483,0,0,1-1.382,1.939c-.126.153-.1.236.023.364,1.7,1.753,3.431,3.472,5.159,5.2.172.171.27.146.413,0,.235-.246.478-.485.719-.726a1.41,1.41,0,0,1,2.23-.009c1.175,1.169,2.337,2.35,3.509,3.521q5.552,5.549,11.108,11.094a1.459,1.459,0,0,1-.046,2.381q-2.423,2.417-4.849,4.831c-.522.521-1.036,1.051-1.558,1.573a1.385,1.385,0,0,1-2.174,0q-7.345-7.345-14.688-14.693a1.4,1.4,0,0,1,.014-2.248c.212-.205.408-.43.637-.614s.241-.328.024-.541c-.721-.708-1.424-1.434-2.137-2.149q-1.5-1.507-3.01-3.011c-.087-.088-.142-.186-.3-.059a26.823,26.823,0,0,1-4.592,2.966,27.111,27.111,0,0,1-6.251,2.35,27.5,27.5,0,0,1-9.826.667,28.628,28.628,0,0,1-15.824-7.009A28.3,28.3,0,0,1,26.9,83.793,29.09,29.09,0,0,1,25.2,77.226a26.461,26.461,0,0,1-.069-6.756,28.705,28.705,0,0,1,17.628-23.4,29.716,29.716,0,0,1,7.1-1.907,27.721,27.721,0,0,1,4-.24m-.3,54.5A25.892,25.892,0,1,0,27.674,72.842,25.826,25.826,0,0,0,53.562,99.419m38.175,17.158c.04-.037.092-.079.138-.126q2.272-2.277,4.547-4.55c.169-.168.179-.26.007-.43-1.042-1.028-2.073-2.068-3.107-3.1q-2.768-2.769-5.531-5.542c-.185-.187-.256-.071-.37.044q-2.147,2.162-4.3,4.321c-.406.406-.415.406-.007.816q4.219,4.229,8.442,8.455c.046.046.08.113.177.116m-6.05-15.823c-.036-.043-.075-.1-.122-.143-.632-.636-1.269-1.267-1.894-1.909-.137-.141-.2-.064-.3.032q-2.294,2.3-4.594,4.6c-.138.138-.143.213,0,.35q.938.915,1.854,1.851c.133.137.2.149.347,0q2.263-2.286,4.539-4.558a.44.44,0,0,0,.167-.228m-6.168-2c-.014-.126-.115-.193-.193-.271q-2.426-2.432-4.857-4.86c-.312-.311-.315-.3-.628.027-.117.123-.249.231-.373.346-.106.1-.129.162,0,.293q2.353,2.336,4.687,4.692c.6.6.6.6,1.212-.016.061-.061.159-.1.149-.211" transform="translate(-18.135 -32.649)" fill="#03386e"/>
        <path id="Trazado_835942" data-name="Trazado 835942" d="M26.776,30.855q-2.536,0-5.073,0c-1.186,0-1.737-.544-1.738-1.724q0-3.763,0-7.527a1.474,1.474,0,0,1,1.637-1.65q5.158-.008,10.317,0a1.487,1.487,0,0,1,1.669,1.688q0,3.78,0,7.561a1.486,1.486,0,0,1-1.671,1.652q-2.57.005-5.141,0m-.036-2.728c1.282,0,2.563-.005,3.845,0,.224,0,.283-.064.282-.285q-.013-2.433,0-4.867c0-.23-.048-.308-.294-.308q-3.794.014-7.588,0c-.24,0-.3.065-.3.3.01,1.611.013,3.222,0,4.833,0,.288.1.326.348.324,1.236-.011,2.472,0,3.709,0" transform="translate(-14.51 -14.5)" fill="#03386e"/>
        <path id="Trazado_835943" data-name="Trazado 835943" d="M118.164,19.936q8.99,0,17.981-.008c.319,0,.394.09.384.393-.022.692-.014,1.385,0,2.078,0,.206-.05.3-.264.266a1.1,1.1,0,0,0-.17,0q-17.963,0-35.927.009c-.362,0-.452-.1-.437-.446.028-.657.02-1.317,0-1.975-.007-.252.057-.326.317-.322,1.192.015,2.384.007,3.575.007h14.541" transform="translate(-72.486 -14.484)" fill="#03386e"/>
        <path id="Trazado_835944" data-name="Trazado 835944" d="M92.038,272.082c-3.961,0-7.923,0-11.884.008-.307,0-.378-.081-.368-.375.023-.7.013-1.408,0-2.111,0-.188.047-.278.245-.25a1.217,1.217,0,0,0,.17,0q11.85,0,23.7-.009c.35,0,.435.089.42.427-.029.646-.024,1.294,0,1.941.011.293-.059.377-.367.376-3.973-.012-7.945-.008-11.918-.008" transform="translate(-57.99 -195.771)" fill="#03386e"/>
        <path id="Trazado_835945" data-name="Trazado 835945" d="M112,289.313c3.961,0,7.923,0,11.884-.008.315,0,.4.084.386.391-.024.669-.019,1.34,0,2.009.007.259-.055.343-.332.341-1.952-.013-3.9-.007-5.857-.007q-8.973,0-17.946.008c-.332,0-.418-.083-.4-.409.028-.658.022-1.317,0-1.975-.009-.278.059-.36.349-.359,3,.011,5.993.007,8.99.007H112" transform="translate(-72.486 -210.278)" fill="#03386e"/>
        <path id="Trazado_835946" data-name="Trazado 835946" d="M19.966,75.243q0-1.856,0-3.711a1.5,1.5,0,0,1,1.685-1.705c1.611,0,3.222,0,4.833-.007.241,0,.306.066.3.3-.016.692-.019,1.385,0,2.077.008.275-.053.366-.347.361-1.146-.019-2.292,0-3.438-.014-.263,0-.315.076-.314.324.009,2.508,0,5.016.011,7.524,0,.258-.052.371-.331.34a6.278,6.278,0,0,0-.68,0,1.506,1.506,0,0,1-1.72-1.707q0-1.89,0-3.779" transform="translate(-14.512 -50.748)" fill="#03386e"/>
        <path id="Trazado_835947" data-name="Trazado 835947" d="M79.8,21.31c0-.375.01-.749,0-1.123-.008-.2.066-.247.253-.244.748.009,1.5.008,2.246,0,.172,0,.238.042.236.227q-.014,1.14,0,2.28c0,.184-.063.228-.236.227-.748-.008-1.5-.009-2.246,0-.187,0-.261-.045-.253-.244.015-.374,0-.748,0-1.123" transform="translate(-58 -14.495)" fill="#03386e"/>
        <path id="Trazado_835948" data-name="Trazado 835948" d="M81.159,289.324c.386,0,.771.006,1.157,0,.158,0,.219.043.217.21q-.011,1.157,0,2.314c0,.168-.062.21-.219.208q-1.14-.009-2.28,0c-.173,0-.237-.044-.235-.227q.014-1.14,0-2.28c0-.185.065-.231.237-.226.374.01.748,0,1.123,0" transform="translate(-58.002 -210.29)" fill="#03386e"/>
        <path id="Trazado_835949" data-name="Trazado 835949" d="M71.755,69.857A21.789,21.789,0,1,1,49.972,92.27,21.783,21.783,0,0,1,71.755,69.857m.424,40.864A19.079,19.079,0,1,0,52.674,92.364a19.025,19.025,0,0,0,19.506,18.357" transform="translate(-36.316 -50.775)" fill="#03386e"/>
        <path id="Trazado_835950" data-name="Trazado 835950" d="M109.38,115.264a1.788,1.788,0,0,1-.646,1.233q-1.475,1.462-2.944,2.93-5.8,5.806-11.595,11.615a1.4,1.4,0,0,1-2.246.01l-6.475-6.478a1.41,1.41,0,0,1,.008-2.251q1.871-1.861,3.732-3.731a1.4,1.4,0,0,1,2.2-.029c.5.49,1,.991,1.488,1.5.128.133.2.125.322,0q3.4-3.414,6.806-6.82,1.395-1.4,2.782-2.8a1.413,1.413,0,0,1,2.253-.023q1.9,1.883,3.781,3.778a1.656,1.656,0,0,1,.529,1.072m-3.264-.008c-.038-.044-.079-.1-.126-.145-.632-.636-1.268-1.268-1.895-1.909-.115-.118-.178-.082-.273.014-.349.357-.7.708-1.056,1.062q-4.305,4.315-8.611,8.629a1.381,1.381,0,0,1-2.173,0c-.5-.494-1-.993-1.482-1.5-.132-.139-.2-.117-.321.006-.619.632-1.242,1.261-1.875,1.88-.147.144-.121.219.011.35q2.294,2.28,4.574,4.574c.131.131.2.161.346.014q2.192-2.213,4.4-4.413l8.33-8.331c.063-.063.141-.116.155-.23" transform="translate(-61.721 -79.855)" fill="#03386e"/>
      </g>
    </g>
  </g>
</svg>
