<svg xmlns="http://www.w3.org/2000/svg" xmlns:xlink="http://www.w3.org/1999/xlink" width="144.293" height="376.741" viewBox="0 0 144.293 376.741">
  <defs>
    <clipPath id="clip-path">
      <rect id="Rect치ngulo_300804" data-name="Rect치ngulo 300804" width="116.68" height="376.741" fill="none"/>
    </clipPath>
  </defs>
  <g id="Grupo_886478" data-name="Grupo 886478" transform="translate(-855.707 -10369.693)">
    <g id="Grupo_886083" data-name="Grupo 886083" transform="translate(869.514 10369.693)">
      <g id="Grupo_886082" data-name="Grupo 886082" clip-path="url(#clip-path)">
        <path id="Trazado_601335" data-name="Trazado 601335" d="M45.73,3.2C43.774.1,36.429.427,29.084,13.581a27.877,27.877,0,0,0-3.077,7.731c-1.6,7.561,2.246,15.236,2.072,22.962-.241,10.805-8.269,20.508-7.586,31.3A58.285,58.285,0,0,0,30.9,77.575a5.269,5.269,0,0,0,2.891-.28,5.035,5.035,0,0,0,1.974-2.275c2.414-4.49,3.6-9.52,4.761-14.483,1.4-5.978,2.8-12.177,1.6-18.2-.666-3.339-2.111-6.482-2.787-9.818C37.655,24.2,43.034,16.171,46.2,8.292A5.615,5.615,0,0,0,45.73,3.2" transform="translate(6.087 0.471)" fill="#4f241f"/>
        <path id="Trazado_601336" data-name="Trazado 601336" d="M66.64,142.779c.344,1.376,19.594,64.632,20.627,70.476.614,3.485-2.9,32.433-5.833,55.234-.6,4.631-.16,8.564-.67,12.424-.48,3.637-1.911,7.259-2.245,9.753-.494,3.676-.793,5.869-.793,5.869l-16.022.128a42.292,42.292,0,0,1-2.263-11.03c-.189-2.555.812-7.286.609-10.2-.579-8.3-.933-15.47-1.085-20.878-.17-6.147,2.86-29.608,2.86-29.608s-23.721-44-24.751-50.192S42.23,144.5,42.23,144.5Z" transform="translate(11 42.497)" fill="#2b7f9d"/>
        <path id="Trazado_601337" data-name="Trazado 601337" d="M21.991,299.259l13.537.3a36.743,36.743,0,0,0,2.564-12.451c.131-2.713-2.3-5.926-2.2-9.155.069-2.127,1.721-6.53,1.831-8.789.981-20.084,1.879-41.891,3.436-45.785,2.751-6.876,4.893-48.621,4.893-48.621L51.212,144.5s-43.317-4.125-44.348.344,7.908,60.507,8.25,65.32-3.781,23.721-2.062,33.347c.9,5.049,3.315,20.137,5.409,33.346.291,1.83.574,3.623.846,5.349.327,2.068-.728,4.544-.441,6.362a39.074,39.074,0,0,0,3.125,10.69" transform="translate(2.018 42.494)" fill="#2b7f9d"/>
        <path id="Trazado_601338" data-name="Trazado 601338" d="M31.592,46.235S47.323,85.4,55.021,86.364,75.87,89.252,75.87,83.478,53.505,48.2,53.505,48.2l.875-9.3L38.437,35.725Z" transform="translate(9.403 10.633)" fill="#fabeab"/>
        <path id="Trazado_601339" data-name="Trazado 601339" d="M65.853,28.93c0,13.207-12.765,23.934-18.931,23.173-9.378-1.159-15.59-5.811-15.59-19.02S32.164,7.71,41.615,7.71s24.239,8.013,24.239,21.22" transform="translate(9.326 2.295)" fill="#fabeab"/>
        <path id="Trazado_601340" data-name="Trazado 601340" d="M35.319,22.852a1.429,1.429,0,0,1-1.429-1.429c0-.789.64-.8,1.429-.8s1.429.014,1.429.8a1.429,1.429,0,0,1-1.429,1.429" transform="translate(10.087 6.137)" fill="#3d251e"/>
        <path id="Trazado_601341" data-name="Trazado 601341" d="M45.673,60.546c3.959,3.748,11.806,3.282,26.878,3.02,7.795-.135,12.261,81.153-1.05,105.077,1.748,3.513-39.262,12.983-48.27,2.908-4.583-5.127,22.441-111,22.441-111" transform="translate(6.759 18.021)" fill="#faa53d"/>
        <path id="Trazado_601342" data-name="Trazado 601342" d="M41,43.824c-13.737.981-14.682,4.2-19.871,8.7-7.971,6.91-10.407,24.84-8.66,45.226.934,10.907,8.191,23.019,7.7,25.019C17.033,135.449,9.178,147.12,5.345,155.353c-11.212,24.079-1.3,79.281-1.3,79.281S36.315,239.8,56.07,235.7c6.784-1.408,8.891-13.829,9.1-20.755C65.5,203.9,73.2,108.878,68.913,84.246c-.474-2.716-9.185-18.371-14.613-26C46.452,47.212,41,43.824,41,43.824" transform="translate(0 13.044)" fill="#98939c"/>
        <path id="Trazado_601343" data-name="Trazado 601343" d="M48.487,45.341C47.533,44.387,66.8,76.085,68.11,84.588s1.309,40.228-.327,49.386-7.071,27.725-6.54,37.285c.655,11.816,10.8,65.6,18.961,58.528,8.336-7.224-14.449-45.85-8.169-79.786,1.473-7.956,12.1-51.022,8.83-65.74S77.182,62.423,71.3,55.882s-21.5-9.233-22.809-10.541" transform="translate(14.422 13.489)" fill="#98939c"/>
        <path id="Trazado_601344" data-name="Trazado 601344" d="M55.576,146.247,32.9,154.426s7.063,22.305,8.178,22.305,46.1-15.242,46.1-15.242-1.487-24.165-2.6-23.792-29,8.55-29,8.55" transform="translate(9.793 40.983)" fill="#f4866a"/>
        <path id="Trazado_601345" data-name="Trazado 601345" d="M14.577,97.2l-1.132-.16a21.64,21.64,0,0,1,4.428-10.358l.9.707a20.5,20.5,0,0,0-4.194,9.81" transform="translate(4.002 25.802)" fill="#7b7c7f"/>
        <path id="Trazado_601346" data-name="Trazado 601346" d="M26.384,113.387a23.09,23.09,0,0,1-9.547-2.53l.52-1.019c3.536,1.809,8.817,3.173,12.06,1.9,3.133-1.231,4.817-5.261,6.169-8.5l.121-.288a21.273,21.273,0,0,0,1.168-7.986,25.931,25.931,0,0,0-.689-7.569l1.1-.319a26.893,26.893,0,0,1,.734,7.9,22.243,22.243,0,0,1-1.256,8.413l-.121.288c-1.436,3.437-3.223,7.714-6.806,9.121a9.456,9.456,0,0,1-3.452.585" transform="translate(5.011 25.918)" fill="#7b7c7f"/>
        <path id="Trazado_601347" data-name="Trazado 601347" d="M6.657,212.121c-2.53-17.957-4.931-38.783-1.357-58.689a59.77,59.77,0,0,1,4.768-15.385l14.867-31.779,1.036.484L11.1,138.531a58.749,58.749,0,0,0-4.677,15.1c-3.543,19.74-1.154,40.458,1.364,58.328Z" transform="translate(1.039 31.63)" fill="#7b7c7f"/>
        <path id="Trazado_601348" data-name="Trazado 601348" d="M36.033,97.768a3.778,3.778,0,0,1-2.07-1.045,4.019,4.019,0,0,0-1.444-.872l-1.033-.173.7-.776a23.844,23.844,0,0,0,4.3-6.7l1.052.448a25.029,25.029,0,0,1-3.959,6.406,8.925,8.925,0,0,1,1.089.769c.738.58,1.242.943,1.536.736l.662.934a1.423,1.423,0,0,1-.834.275" transform="translate(9.372 26.252)" fill="#7b7c7f"/>
        <path id="Trazado_601349" data-name="Trazado 601349" d="M44.831.4c3.6-1.565,16.086,1.81,18.934,3.912,4.8,3.541,5.6,8.762,6.017,14.71a200.829,200.829,0,0,1,.182,25.2,27.209,27.209,0,0,1-1.237,7.734,47.53,47.53,0,0,0-1.948,5.035,16.856,16.856,0,0,0-.009,5.941c1.045,8.332,6.236,18.369,10.314,25.709,4.564,8.214-3.649,8.876-4.115,8.479S51.018,71.348,50.88,57.848a13.434,13.434,0,0,1,3.955-9.077c2.318-2.489,9.4-15.957,6.131-16.88-7.372-2.079-9.509-11.671-10.032-14.284-1.1-5.477-7.639-6.915-13.982-7.147,0,0-4.051-4.871,7.879-10.058" transform="translate(10.801 0)" fill="#602f2a"/>
        <path id="Trazado_601350" data-name="Trazado 601350" d="M55.669,25.345s2.8-5.521,4.05-2.392-1.1,9.231-5.633,9.857Z" transform="translate(16.098 6.546)" fill="#fabeab"/>
        <path id="Trazado_601351" data-name="Trazado 601351" d="M25.979,125.587,24.84,125.5a138.128,138.128,0,0,1,2.828-19.083l1.116.247a136.852,136.852,0,0,0-2.8,18.925" transform="translate(7.393 31.674)" fill="#7b7c7f"/>
        <path id="Trazado_601352" data-name="Trazado 601352" d="M18.5,263.364v32.531a15.2,15.2,0,0,1,3.571,1.823c.781.78,5.206.258,8.85.519s8.9,0,8.9,0a31.534,31.534,0,0,0-2.641-14.172c-2.7-6.469-5.148-14.078-5.148-20.4Z" transform="translate(5.507 78.389)" fill="#ca8c46"/>
        <path id="Trazado_601353" data-name="Trazado 601353" d="M20.937,263.364l10.39.3c0,6.326,2.447,13.935,5.146,20.4,0,0-.96,4.093-8.728-1.39s-6.809-19.312-6.809-19.312" transform="translate(6.221 78.389)" fill="#fabeab"/>
        <path id="Trazado_601354" data-name="Trazado 601354" d="M56.854,261.4l-1.06,9.536a11.944,11.944,0,0,0-1.9,3.458c-1.8,5.714.781,23.948.781,23.948h5.206l-1.3-13.8s5.466,13.8,9.891,13.8H93.2s.781-4.165-3.9-5.206A17.4,17.4,0,0,1,79.081,286.1c-3.408-4.662-6.205-12.306-6.205-24.833Z" transform="translate(15.852 77.765)" fill="#ca8c46"/>
        <path id="Trazado_601355" data-name="Trazado 601355" d="M78.257,286.1c-3.409-4.662-6.205-12.3-6.205-24.833l-16.022.13s6.671,20.274,17.189,24.28c3.523,1.343,5.039.423,5.039.423" transform="translate(16.677 77.765)" fill="#fabeab"/>
        <path id="Trazado_601356" data-name="Trazado 601356" d="M44.657,42.709a12.383,12.383,0,0,1-8.09-2.982.571.571,0,0,1,.763-.85c3.088,2.776,8.758,3.9,12.9.986a.572.572,0,0,1,.659.934,10.741,10.741,0,0,1-6.233,1.911" transform="translate(10.828 11.528)" fill="#bb807d"/>
        <path id="Trazado_601357" data-name="Trazado 601357" d="M38.672,34.574a.579.579,0,0,1-.26-.062c-1.357-.694-2.648-1.535-2.9-2.974A4.726,4.726,0,0,1,36.547,28.3l.224-.366a11.655,11.655,0,0,0,1.418-8.2.572.572,0,0,1,1.121-.224,12.817,12.817,0,0,1-1.56,9.012l-.232.379a3.792,3.792,0,0,0-.879,2.445c.164.946,1.2,1.594,2.292,2.151a.572.572,0,0,1-.261,1.081" transform="translate(10.558 5.669)" fill="#bb807d"/>
        <path id="Trazado_601358" data-name="Trazado 601358" d="M39.481,17.475a4.5,4.5,0,0,1,2.739-1.69A5.874,5.874,0,0,1,45.2,16.1a9.237,9.237,0,0,1,2.467,1.34,5.313,5.313,0,0,1,1.91,2.264.564.564,0,0,1-1.028.463l-.069-.138a4.678,4.678,0,0,0-1.588-1.473,7.763,7.763,0,0,0-2.164-.952A4.189,4.189,0,0,0,42.6,17.54a2.576,2.576,0,0,0-1.483,1.106l-.005.009a1.007,1.007,0,1,1-1.667-1.13l.036-.049" transform="translate(11.689 4.676)" fill="#bb807d"/>
        <path id="Trazado_601359" data-name="Trazado 601359" d="M32.521,18.278a3.5,3.5,0,0,1,.925-1.137,2.727,2.727,0,0,1,1.492-.558A3.77,3.77,0,0,1,37.766,17.7l.013.013A.924.924,0,0,1,36.5,19.048a1.236,1.236,0,0,1-.108-.125,2.155,2.155,0,0,0-1.43-.851,1.615,1.615,0,0,0-1.46.792l-.017.023a.571.571,0,0,1-.963-.61" transform="translate(9.659 4.935)" fill="#bb807d"/>
        <path id="Trazado_601360" data-name="Trazado 601360" d="M44.462,22.9a1.429,1.429,0,0,1-1.429-1.429c0-.789.64-.8,1.429-.8s1.429.014,1.429.8A1.429,1.429,0,0,1,44.462,22.9" transform="translate(12.809 6.151)" fill="#3d251e"/>
        <path id="Trazado_601361" data-name="Trazado 601361" d="M22.4,282.8A69.632,69.632,0,0,1,20.4,271.9l-.675-5.272c-1.708-13.331-3.474-27.114-4.294-40.772a84.721,84.721,0,0,1,.156-15.743c.178-1.436.422-2.9.657-4.312.714-4.277,1.449-8.7.437-12.877l1.111-.269c1.068,4.4.311,8.942-.419,13.333-.235,1.4-.476,2.851-.651,4.264a83.7,83.7,0,0,0-.149,15.534c.819,13.619,2.581,27.384,4.287,40.7l.675,5.274a68.67,68.67,0,0,0,1.954,10.715Z" transform="translate(4.509 57.344)" fill="#1b5c73"/>
        <path id="Trazado_601362" data-name="Trazado 601362" d="M28.644,250.006c-2.927-3.762-5.529-7.5-5.213-11.863l.031-.435.427-.084a3.333,3.333,0,0,1,3.559,1.716l-1.016.524a2.217,2.217,0,0,0-1.883-1.156c-.064,3.767,2.324,7.164,5,10.6Z" transform="translate(6.966 70.709)" fill="#1b5c73"/>
        <path id="Trazado_601363" data-name="Trazado 601363" d="M70.208,248.743A120.5,120.5,0,0,0,62.2,230.315l1.007-.541a121.612,121.612,0,0,1,8.088,18.6Z" transform="translate(18.512 68.391)" fill="#1b5c73"/>
        <path id="Trazado_601364" data-name="Trazado 601364" d="M59.828,210.752l-1.091-.339,1.2-3.859a2.626,2.626,0,0,0-.587-2.987c-3.345-5-6.612-10.15-9.708-15.3l.98-.589c3.087,5.136,6.343,10.268,9.678,15.255a3.689,3.689,0,0,1,.728,3.962Z" transform="translate(14.775 55.861)" fill="#1b5c73"/>
        <path id="Trazado_601365" data-name="Trazado 601365" d="M39.311,32.507A10.705,10.705,0,0,0,48.2,29.751a7.917,7.917,0,0,1-2.89,5.464c-1.921,1.37-6.741-1.17-6.514-1.963Z" transform="translate(11.547 8.855)" fill="#fff"/>
        <path id="Trazado_601366" data-name="Trazado 601366" d="M20.179,108.213c-4.461-2.974-2.106-14.393,1.983-17.368s8.148-4.145,10.75-1.914,27.151,56.3,33.47,60.391c0,0,8.2,5.464,8.568,7.323s4.461,24.536,4.461,24.536-2.416,2.268-4.7.842c-1.477-.923-2.212,0-3.853-1.57-.984-.941-1.3-.295-2.6-1.5-5.2-4.832-8.179-17.844-8.179-17.844Z" transform="translate(5.288 26.124)" fill="#fabeab"/>
        <path id="Trazado_601367" data-name="Trazado 601367" d="M77.089,90.14,69.92,149.581l2.017,3.2a8.94,8.94,0,0,1,1.363,5.266l-1.043,18.709s.744,4.461-2.974,1.116-6.32-17.473-7.436-21.934,15.242-65.8,15.242-65.8" transform="translate(18.392 26.83)" fill="#fabeab"/>
        <path id="Trazado_601368" data-name="Trazado 601368" d="M33.984,95.237a201.491,201.491,0,0,0-8.156-38.46l1.09-.345a202.727,202.727,0,0,1,8.2,38.679Z" transform="translate(7.688 16.797)" fill="#7b7c7f"/>
        <path id="Trazado_601369" data-name="Trazado 601369" d="M56.165,141.456c-2.617-6.744-1.523-14.249-.465-21.506l.121-.832c.531-3.661,2.2-8.077,3.812-12.346,1.636-4.326,3.327-8.8,3.811-12.43l1.133.152c-.5,3.759-2.216,8.3-3.875,12.683-1.592,4.212-3.238,8.567-3.751,12.1l-.121.833c-1.036,7.111-2.109,14.465.4,20.928Z" transform="translate(16.235 28.08)" fill="#cc8831"/>
        <path id="Trazado_601370" data-name="Trazado 601370" d="M51.126,102.1c0,2.067-.958,3.744-2.14,3.744s-2.139-1.677-2.139-3.744.958-3.744,2.139-3.744,2.14,1.675,2.14,3.744" transform="translate(13.944 29.274)" fill="#7b7c7f"/>
        <path id="Trazado_601371" data-name="Trazado 601371" d="M51.126,117.95c0,2.068-.958,3.745-2.14,3.745s-2.139-1.677-2.139-3.745.958-3.742,2.139-3.742,2.14,1.675,2.14,3.742" transform="translate(13.944 33.993)" fill="#7b7c7f"/>
        <path id="Trazado_601372" data-name="Trazado 601372" d="M58.605,95.011c-4.115-3.8-8.436-7.486-12.84-10.959a3.7,3.7,0,0,1-1.84-3.136c-.254-2.261-.331-4.734-.4-7.124-.069-2.2-.139-4.465-.348-6.551a24.59,24.59,0,0,1-10.327-2.987l-.2-.113-.067-.223a67.813,67.813,0,0,1-2.812-17.2l1.142-.038a66.691,66.691,0,0,0,2.7,16.681,23.445,23.445,0,0,0,10.11,2.76l.491.019.055.488c.254,2.26.331,4.734.4,7.124.073,2.368.149,4.818.4,7.033a3.743,3.743,0,0,0,.247,1.148,3.842,3.842,0,0,0,1.164,1.217c4.429,3.491,8.772,7.2,12.909,11.017Z" transform="translate(8.859 13.895)" fill="#7b7c7f"/>
        <path id="Trazado_601373" data-name="Trazado 601373" d="M34.945,178.531l-.392,0a71.087,71.087,0,0,1-13.288-1.395c-1.6-.323-3.343-.855-4.127-2.359a5.643,5.643,0,0,1-.492-2.325c-.267-4.347-.282-9.814-.293-15.1-.013-5.271-.026-10.72-.292-15.035l-.115-1.862,1.138,1.478c2.045,2.656,5.965,2.921,9.479,2.961l14.089.16-.013,1.143-14.09-.161c-3.247-.036-6.827-.263-9.265-2.266.189,4.064.2,8.891.212,13.579.013,5.27.026,10.72.292,15.033a4.694,4.694,0,0,0,.365,1.867c.561,1.077,2,1.5,3.339,1.766a69.789,69.789,0,0,0,13.072,1.373c2.34.023,4.725-.141,6.4-1.505l.721.886c-1.856,1.51-4.316,1.765-6.739,1.765" transform="translate(4.746 41.805)" fill="#7b7c7f"/>
        <path id="Trazado_601374" data-name="Trazado 601374" d="M35.014,150.51a66.461,66.461,0,0,1-14.659-1.638l.252-1.115a65.361,65.361,0,0,0,17.988,1.512l.064,1.141q-1.822.1-3.644.1" transform="translate(6.059 43.979)" fill="#7b7c7f"/>
        <path id="Trazado_601375" data-name="Trazado 601375" d="M59.619,162.1a.429.429,0,0,1-.407-.3c-.476-1.47-1-2.882-1.556-4.377a72.387,72.387,0,0,1-2.562-7.829.429.429,0,0,1,.832-.206,71.6,71.6,0,0,0,2.534,7.737c.533,1.438,1.085,2.924,1.566,4.412a.428.428,0,0,1-.407.561" transform="translate(16.395 44.369)" fill="#bb807d"/>
        <path id="Trazado_601376" data-name="Trazado 601376" d="M62.746,164.342h-.021a.429.429,0,0,1-.407-.449c.161-3.358-2.456-14.5-3.889-16.562a.429.429,0,1,1,.7-.491c1.573,2.259,4.216,13.442,4.041,17.094a.428.428,0,0,1-.427.407" transform="translate(17.368 43.652)" fill="#bb807d"/>
        <path id="Trazado_601377" data-name="Trazado 601377" d="M65.984,163.853a.428.428,0,0,1-.418-.336c-.21-.958-.407-1.9-.6-2.821-1-4.725-1.933-9.186-4.073-13.747a.429.429,0,1,1,.776-.365c2.181,4.652,3.131,9.161,4.136,13.935.195.923.392,1.86.6,2.813a.429.429,0,0,1-.327.51.446.446,0,0,1-.092.01" transform="translate(18.112 43.556)" fill="#bb807d"/>
        <path id="Trazado_601378" data-name="Trazado 601378" d="M66.2,156.268a.412.412,0,0,1-.228-.066.429.429,0,0,1-.134-.59c.237-.375.306-2.786-.279-8.345-.091-.85-.24-1.792-.881-2.184a.43.43,0,0,1,.449-.733c1.054.649,1.2,2.065,1.285,2.825.824,7.83.318,8.633.152,8.9a.426.426,0,0,1-.363.2" transform="translate(19.189 42.946)" fill="#bb807d"/>
        <path id="Trazado_601379" data-name="Trazado 601379" d="M68.883,163.073a.42.42,0,0,1-.191-.045.428.428,0,0,1-.192-.575c.644-1.287.485-5.175.331-8.934a68.56,68.56,0,0,1,0-9,.434.434,0,0,1,.471-.382.428.428,0,0,1,.383.471,67.807,67.807,0,0,0,.006,8.875c.173,4.221.322,7.868-.42,9.352a.429.429,0,0,1-.384.237" transform="translate(20.375 42.901)" fill="#bb807d"/>
        <path id="Trazado_601380" data-name="Trazado 601380" d="M21.518,293.4a91.443,91.443,0,0,1-.989-16.374l1.142.034a90.485,90.485,0,0,0,.976,16.169Z" transform="translate(6.099 82.456)" fill="#a67438"/>
      </g>
    </g>
    <g id="Grupo_870618" data-name="Grupo 870618" transform="translate(855.707 10504.031)">
      <path id="Sustracci칩n_7" data-name="Sustracci칩n 7" d="M123.091,50.022H0V6.094H15.76L18.868,0H144.293V40.927H126.12l-3.028,9.095Z" transform="translate(0 0)" fill="#3ae3fe"/>
      <path id="Trazado_608256" data-name="Trazado 608256" d="M29.03,5.914l3.1,8.766,3.088-8.766h3.271V18h-2.5V14.7l.249-5.7L32.981,18h-1.71L28.017,9l.249,5.694V18h-2.49V5.914Zm11.106,7.512a5.327,5.327,0,0,1,.515-2.382,3.767,3.767,0,0,1,1.482-1.619,4.323,4.323,0,0,1,2.245-.573,4.09,4.09,0,0,1,2.968,1.112,4.464,4.464,0,0,1,1.282,3.021l.017.614a4.694,4.694,0,0,1-1.154,3.316,4.472,4.472,0,0,1-6.2,0,4.777,4.777,0,0,1-1.158-3.387Zm2.4.17a3.357,3.357,0,0,0,.481,1.958,1.73,1.73,0,0,0,2.739.008,3.674,3.674,0,0,0,.49-2.141,3.324,3.324,0,0,0-.49-1.945,1.592,1.592,0,0,0-1.378-.69,1.566,1.566,0,0,0-1.361.686A3.735,3.735,0,0,0,42.535,13.6ZM52.994,6.811V9.019H54.53v1.76H52.994v4.482a1.07,1.07,0,0,0,.191.714.959.959,0,0,0,.73.216,3.826,3.826,0,0,0,.706-.058V17.95a4.939,4.939,0,0,1-1.453.216A2.29,2.29,0,0,1,50.6,15.618V10.778H49.283V9.019H50.6V6.811ZM58.4,18H55.991V9.019H58.4ZM55.849,6.694a1.181,1.181,0,0,1,.361-.888,1.556,1.556,0,0,1,1.963,0,1.175,1.175,0,0,1,.365.888,1.178,1.178,0,0,1-.369.9,1.539,1.539,0,0,1-1.951,0A1.178,1.178,0,0,1,55.849,6.694Zm7.886,8.375L65.4,9.019H67.91L64.881,18H62.59L59.56,9.019h2.507ZM74.045,18a2.664,2.664,0,0,1-.241-.805,2.9,2.9,0,0,1-2.266.971,3.189,3.189,0,0,1-2.187-.764,2.456,2.456,0,0,1-.867-1.926,2.538,2.538,0,0,1,1.058-2.191,5.222,5.222,0,0,1,3.059-.772h1.1V12a1.48,1.48,0,0,0-.32-1,1.257,1.257,0,0,0-1.009-.374,1.429,1.429,0,0,0-.95.291.987.987,0,0,0-.344.8h-2.4a2.41,2.41,0,0,1,.481-1.444A3.182,3.182,0,0,1,70.525,9.23,4.961,4.961,0,0,1,72.5,8.853a3.92,3.92,0,0,1,2.635.834,2.918,2.918,0,0,1,.975,2.345v3.893a4.294,4.294,0,0,0,.357,1.934V18Zm-1.984-1.668a2.066,2.066,0,0,0,.979-.237,1.554,1.554,0,0,0,.664-.635V13.916h-.9q-1.8,0-1.917,1.245l-.008.141a.96.96,0,0,0,.315.739A1.225,1.225,0,0,0,72.061,16.332ZM83,11.268a6.517,6.517,0,0,0-.863-.066,1.757,1.757,0,0,0-1.785.921V18h-2.4V9.019h2.266l.066,1.071a2.223,2.223,0,0,1,2-1.237,2.514,2.514,0,0,1,.747.108Z" transform="translate(18.999 13.642)" fill="#12263f"/>
      <path id="Trazado_214008" data-name="Trazado 214008" d="M-.808,1.311H26.244V7.625H-4Z" transform="translate(118.049 42.396)" fill="#7f8a9c"/>
    </g>
  </g>
</svg>
