<svg xmlns="http://www.w3.org/2000/svg" xmlns:xlink="http://www.w3.org/1999/xlink" width="85" height="85" viewBox="0 0 85 85">
  <defs>
    <clipPath id="clip-path">
      <circle id="Elipse_6590" data-name="Elipse 6590" cx="42.5" cy="42.5" r="42.5" transform="translate(0 0.367)" fill="#fcc15a"/>
    </clipPath>
    <clipPath id="clip-path-2">
      <rect id="Rectángulo_299322" data-name="Rectángulo 299322" width="72.363" height="89.98" fill="none"/>
    </clipPath>
  </defs>
  <g id="Grupo_881703" data-name="Grupo 881703" transform="translate(0 -0.367)">
    <circle id="Elipse_6585" data-name="Elipse 6585" cx="42.5" cy="42.5" r="42.5" transform="translate(0 0.367)" fill="#fcc15a"/>
    <g id="Enmascarar_grupo_744814" data-name="Enmascarar grupo 744814" clip-path="url(#clip-path)">
      <g id="Grupo_881696" data-name="Grupo 881696" transform="translate(4.166 -4.701)">
        <g id="Grupo_881695" data-name="Grupo 881695" clip-path="url(#clip-path-2)">
          <path id="Trazado_596526" data-name="Trazado 596526" d="M30.428,64.824c6.966-11.736,5.843-31.119,5.843-31.119H24.585s-1.123,19.383,5.843,31.119" transform="translate(6.975 9.589)" fill="#fff"/>
          <path id="Trazado_596527" data-name="Trazado 596527" d="M30.428,64.824c6.966-11.736,5.843-31.119,5.843-31.119H24.585S23.462,53.088,30.428,64.824Z" transform="translate(6.975 9.589)" fill="none" stroke="#000" stroke-linecap="round" stroke-linejoin="round" stroke-width="0.495"/>
          <path id="Trazado_596528" data-name="Trazado 596528" d="M35.723,40.652c-1.733-5.612-1.335-13.7-1.335-13.7H26.157s.606,7.7-1.247,13.7a8.519,8.519,0,0,0,5.559,1.518c3.663-.1,5.254-1.518,5.254-1.518" transform="translate(7.087 7.668)" fill="#f5e8dd"/>
          <path id="Trazado_596529" data-name="Trazado 596529" d="M35.723,40.652c-1.733-5.612-1.335-13.7-1.335-13.7H26.157s.606,7.7-1.247,13.7a8.519,8.519,0,0,0,5.559,1.518C34.133,42.067,35.723,40.652,35.723,40.652Z" transform="translate(7.087 7.668)" fill="none" stroke="#000" stroke-linecap="round" stroke-linejoin="round" stroke-width="0.495"/>
          <path id="Trazado_596530" data-name="Trazado 596530" d="M41.139,39.772c0,1.667-4.362,3.019-9.743,3.019s-9.744-1.351-9.744-3.019,4.362-3.019,9.744-3.019,9.743,1.351,9.743,3.019" transform="translate(6.16 10.456)" fill="#f5e8dd"/>
          <path id="Trazado_596531" data-name="Trazado 596531" d="M20.654,40A33.519,33.519,0,0,0,42.8,40" transform="translate(5.876 11.38)" fill="none" stroke="#000" stroke-linecap="round" stroke-linejoin="round" stroke-width="0.495"/>
          <path id="Trazado_596532" data-name="Trazado 596532" d="M45.176,65.018l3.878-27.081s-10.481-5.125-10.526-4.322c-.2,3.563.871,12.237-5.823,29.673C26.4,45.9,27.08,37.209,26.882,33.647c-.044-.8-10.525,4.29-10.525,4.29l3.878,27.081-3.1,24.254C22.659,92.235,31.5,90.481,31.5,90.481l1.213-7.139,1.155,7.139s8.885,1.755,14.411-1.209Z" transform="translate(4.654 9.539)" fill="#8090a2"/>
          <path id="Trazado_596533" data-name="Trazado 596533" d="M45.176,65.018l3.878-27.081s-10.481-5.125-10.526-4.322c-.2,3.563.871,12.237-5.823,29.673C26.4,45.9,27.08,37.209,26.882,33.647c-.044-.8-10.525,4.29-10.525,4.29l3.878,27.081-3.1,24.254C22.659,92.235,31.5,90.481,31.5,90.481l1.213-7.139,1.155,7.139s8.885,1.755,14.411-1.209Z" transform="translate(4.654 9.539)" fill="none" stroke="#000" stroke-linecap="round" stroke-linejoin="round" stroke-width="0.495"/>
          <path id="Trazado_596534" data-name="Trazado 596534" d="M22.97,36.115,20.1,40.092l2.656,1.977-2.022,2.678s3.092,6.943,5.516,11.365a42.44,42.44,0,0,0,5.4,7.629S24.662,43.51,26.51,35.6l.951-3a11.486,11.486,0,0,0-4.491,3.512" transform="translate(5.718 9.276)" fill="#8090a2"/>
          <path id="Trazado_596535" data-name="Trazado 596535" d="M22.97,36.115,20.1,40.092l2.656,1.977-2.022,2.678s3.092,6.943,5.516,11.365a42.44,42.44,0,0,0,5.4,7.629S24.662,43.51,26.51,35.6l.951-3A11.486,11.486,0,0,0,22.97,36.115Z" transform="translate(5.718 9.276)" fill="none" stroke="#000" stroke-linecap="round" stroke-linejoin="round" stroke-width="0.495"/>
          <path id="Trazado_596536" data-name="Trazado 596536" d="M37.88,36.115l2.873,3.977L38.1,42.068l2.022,2.678S37.026,51.689,34.6,56.112a42.515,42.515,0,0,1-5.4,7.629s6.866-20.382,5.017-28.292l-.83-2.845a11.5,11.5,0,0,1,4.491,3.512" transform="translate(8.308 9.276)" fill="#8090a2"/>
          <path id="Trazado_596537" data-name="Trazado 596537" d="M37.88,36.115l2.873,3.977L38.1,42.068l2.022,2.678S37.026,51.689,34.6,56.112a42.515,42.515,0,0,1-5.4,7.629s6.866-20.382,5.017-28.292l-.83-2.845A11.5,11.5,0,0,1,37.88,36.115Z" transform="translate(8.308 9.276)" fill="none" stroke="#000" stroke-linecap="round" stroke-linejoin="round" stroke-width="0.495"/>
          <path id="Trazado_596538" data-name="Trazado 596538" d="M24.364,67.246l-5.1-.361.193-2.126,5.179.276Z" transform="translate(5.481 18.424)" fill="#8090a2"/>
          <path id="Trazado_596539" data-name="Trazado 596539" d="M24.364,67.246l-5.1-.361.193-2.126,5.179.276Z" transform="translate(5.481 18.424)" fill="none" stroke="#000" stroke-linecap="round" stroke-linejoin="round" stroke-width="0.495"/>
          <path id="Trazado_596540" data-name="Trazado 596540" d="M34.985,67.246l5.1-.361-.193-2.126-5.179.276Z" transform="translate(9.875 18.424)" fill="#8090a2"/>
          <path id="Trazado_596541" data-name="Trazado 596541" d="M34.985,67.246l5.1-.361-.193-2.126-5.179.276Z" transform="translate(9.875 18.424)" fill="none" stroke="#000" stroke-linecap="round" stroke-linejoin="round" stroke-width="0.495"/>
          <path id="Trazado_596542" data-name="Trazado 596542" d="M30.652,59.622a1.245,1.245,0,1,1-1.242-1.338,1.293,1.293,0,0,1,1.242,1.338" transform="translate(8.014 16.582)"/>
          <path id="Trazado_596543" data-name="Trazado 596543" d="M30.652,66.07a1.245,1.245,0,1,1-1.242-1.338,1.293,1.293,0,0,1,1.242,1.338" transform="translate(8.014 18.416)"/>
          <path id="Trazado_596544" data-name="Trazado 596544" d="M38.451,35.809c-.491,1.539-2.157,5.645-4.277,6.031.434-1.156,1.066-1.436.482-2.408-4.457-7.414.948-13.9,1.756-13.2a10.026,10.026,0,0,1,2.04,9.576" transform="translate(9.363 7.449)" fill="#908686"/>
          <path id="Trazado_596545" data-name="Trazado 596545" d="M38.451,35.809c-.491,1.539-2.157,5.645-4.277,6.031.434-1.156,1.066-1.436.482-2.408-4.457-7.414.948-13.9,1.756-13.2A10.026,10.026,0,0,1,38.451,35.809Z" transform="translate(9.363 7.449)" fill="none" stroke="#000" stroke-linecap="round" stroke-linejoin="round" stroke-width="0.495"/>
          <path id="Trazado_596546" data-name="Trazado 596546" d="M23.153,26.633s-1.354,1.744-.245,3.24" transform="translate(6.393 7.577)" fill="none" stroke="#000" stroke-linecap="round" stroke-linejoin="round" stroke-width="0.495"/>
          <path id="Trazado_596547" data-name="Trazado 596547" d="M35.443,23.625c-.509,1.526-1.575,4.175-.167,4.645S38.2,28.152,39.56,25.2c.672-1.462.1-3.4-1.309-3.873s-2.3.776-2.808,2.3" transform="translate(9.837 6.038)" fill="#f5e8dd"/>
          <path id="Trazado_596548" data-name="Trazado 596548" d="M35.443,23.625c-.509,1.526-1.575,4.175-.167,4.645S38.2,28.152,39.56,25.2c.672-1.462.1-3.4-1.309-3.873S35.952,22.1,35.443,23.625Z" transform="translate(9.837 6.038)" fill="none" stroke="#000" stroke-linecap="round" stroke-linejoin="round" stroke-width="0.495"/>
          <path id="Trazado_596549" data-name="Trazado 596549" d="M24.172,23.7c.509,1.527,1.575,4.175.167,4.645s-2.926-.117-4.284-3.073c-.671-1.462-.1-3.4,1.309-3.874s2.3.776,2.808,2.3" transform="translate(5.626 6.059)" fill="#f5e8dd"/>
          <path id="Trazado_596550" data-name="Trazado 596550" d="M24.172,23.7c.509,1.527,1.575,4.175.167,4.645s-2.926-.117-4.284-3.073c-.671-1.462-.1-3.4,1.309-3.874S23.663,22.173,24.172,23.7Z" transform="translate(5.626 6.059)" fill="none" stroke="#000" stroke-linecap="round" stroke-linejoin="round" stroke-width="0.495"/>
          <path id="Trazado_596551" data-name="Trazado 596551" d="M40.57,20.8c.361,8.073-2.924,17.591-9.446,17.591-6.611,0-9.587-9.952-9.271-17.808.29-7.233,4.663-10.9,9.59-10.812,4.868.091,8.815,4.044,9.128,11.029" transform="translate(6.21 2.779)" fill="#f5e8dd"/>
          <path id="Trazado_596552" data-name="Trazado 596552" d="M40.57,20.8c.361,8.073-2.924,17.591-9.446,17.591-6.611,0-9.587-9.952-9.271-17.808.29-7.233,4.663-10.9,9.59-10.812C36.31,9.859,40.258,13.811,40.57,20.8Z" transform="translate(6.21 2.779)" fill="none" stroke="#000" stroke-linecap="round" stroke-linejoin="round" stroke-width="0.495"/>
          <path id="Trazado_596553" data-name="Trazado 596553" d="M27.68,27.754a3.368,3.368,0,0,0,3.735,0" transform="translate(7.875 7.896)" fill="none" stroke="#000" stroke-linecap="round" stroke-linejoin="round" stroke-width="0.495"/>
          <path id="Trazado_596554" data-name="Trazado 596554" d="M25.231,23.122a.868.868,0,1,0,.854-1.021.949.949,0,0,0-.854,1.021" transform="translate(7.178 6.288)"/>
          <path id="Trazado_596555" data-name="Trazado 596555" d="M31.707,23.122a.868.868,0,1,0,.854-1.021.949.949,0,0,0-.854,1.021" transform="translate(9.021 6.288)"/>
          <path id="Trazado_596556" data-name="Trazado 596556" d="M24.464,20.557A3.068,3.068,0,0,1,27.883,21" transform="translate(6.96 5.752)" fill="none" stroke="#000" stroke-linecap="round" stroke-linejoin="round" stroke-width="0.495"/>
          <path id="Trazado_596557" data-name="Trazado 596557" d="M34.768,20.557A3.068,3.068,0,0,0,31.349,21" transform="translate(8.919 5.752)" fill="none" stroke="#000" stroke-linecap="round" stroke-linejoin="round" stroke-width="0.495"/>
          <line id="Línea_506" data-name="Línea 506" y2="0.514" transform="translate(37.423 32.895)" fill="none" stroke="#000" stroke-linecap="round" stroke-linejoin="round" stroke-width="0.495"/>
          <path id="Trazado_596558" data-name="Trazado 596558" d="M35.1,26.783s1.611,1.552.5,3.047" transform="translate(9.987 7.62)" fill="none" stroke="#000" stroke-linecap="round" stroke-linejoin="round" stroke-width="0.495"/>
          <path id="Trazado_596559" data-name="Trazado 596559" d="M26.954,10.075c-9.219,3.665-4.74,15.455-4.74,15.455,2.185-2.957,3.327-5.841,5.9-10.853.866,3.477,5.335,7.96,12.853,9.888,0,0,2.717-9.69-4.366-13.918a10.979,10.979,0,0,0-9.643-.573" transform="translate(6.01 2.627)" fill="#908686"/>
          <path id="Trazado_596560" data-name="Trazado 596560" d="M26.954,10.075c-9.219,3.665-4.74,15.455-4.74,15.455,2.185-2.957,3.327-5.841,5.9-10.853.866,3.477,5.335,7.96,12.853,9.888,0,0,2.717-9.69-4.366-13.918A10.979,10.979,0,0,0,26.954,10.075Z" transform="translate(6.01 2.627)" fill="none" stroke="#000" stroke-linecap="round" stroke-linejoin="round" stroke-width="0.495"/>
          <path id="Trazado_596561" data-name="Trazado 596561" d="M33.943,14.822a11.332,11.332,0,0,1,3.245,7.454" transform="translate(9.657 4.217)" fill="none" stroke="#000" stroke-linecap="round" stroke-linejoin="round" stroke-width="0.495"/>
          <path id="Trazado_596562" data-name="Trazado 596562" d="M22.844,16.21s-.482.531-.482,2.41" transform="translate(6.362 4.612)" fill="none" stroke="#000" stroke-linecap="round" stroke-linejoin="round" stroke-width="0.495"/>
          <path id="Trazado_596563" data-name="Trazado 596563" d="M32.242,16.648a5.465,5.465,0,0,0,1.9,1.928" transform="translate(9.173 4.737)" fill="none" stroke="#000" stroke-linecap="round" stroke-linejoin="round" stroke-width="0.495"/>
          <path id="Trazado_596564" data-name="Trazado 596564" d="M42.259,36.875c2.988.758,5.2,4.542,5.363,12.673.181,9.048.669,14.492-3.8,15.208-.715.116-2.861.371-4.094-3.581L40.876,48.2Z" transform="translate(11.304 10.491)" fill="#8090a2"/>
          <path id="Trazado_596565" data-name="Trazado 596565" d="M42.259,36.875c2.988.758,5.2,4.542,5.363,12.673.181,9.048.669,14.492-3.8,15.208-.715.116-2.861.371-4.094-3.581L40.876,48.2Z" transform="translate(11.304 10.491)" fill="none" stroke="#000" stroke-linecap="round" stroke-linejoin="round" stroke-width="0.495"/>
          <path id="Trazado_596566" data-name="Trazado 596566" d="M47.946,42.063c-2.466-.453-4.749.166-4.983,1.435s1.67,2.709,4.137,3.164,4.655-.208,4.889-1.478-1.576-2.667-4.044-3.12" transform="translate(12.217 11.925)" fill="#8090a2"/>
          <path id="Trazado_596567" data-name="Trazado 596567" d="M47.946,42.063c-2.466-.453-4.749.166-4.983,1.435s1.67,2.709,4.137,3.164,4.655-.208,4.889-1.478S50.413,42.516,47.946,42.063Z" transform="translate(12.217 11.925)" fill="none" stroke="#000" stroke-linecap="round" stroke-linejoin="round" stroke-width="0.495"/>
          <path id="Trazado_596568" data-name="Trazado 596568" d="M47.306,35.905c.8.425,2.587.663,2.884.107s-.344-2.033-1.231-1.856c-1.2.241-2.257-.785-2.552-.23a1.68,1.68,0,0,0,.9,1.979" transform="translate(13.175 9.605)" fill="#f5e8dd"/>
          <path id="Trazado_596569" data-name="Trazado 596569" d="M47.306,35.905c.8.425,2.587.663,2.884.107s-.344-2.033-1.231-1.856c-1.2.241-2.257-.785-2.552-.23A1.68,1.68,0,0,0,47.306,35.905Z" transform="translate(13.175 9.605)" fill="none" stroke="#000" stroke-linecap="round" stroke-linejoin="round" stroke-width="0.495"/>
          <path id="Trazado_596570" data-name="Trazado 596570" d="M43.951,37.717c.022-.854.811-1.353,1.143-1.6a5.916,5.916,0,0,1,.936-.158c.292,0,.911-.673,1.567-.582a1.467,1.467,0,0,1,1.626-.515s.812-1.051,1.517-.8c0,0,.745.613,1.59,1.382.4.362,1.075.622,1.407,1.1a2.569,2.569,0,0,1-.012,1.728s-1.089,4.992-3.478,6.642l-.274,3.526a3.688,3.688,0,0,1-3.242.9,3.74,3.74,0,0,1-2.484-2.528l.361-2.371s-.683-2.863.075-4.555c-.943-.374-.754-1.341-.732-2.164" transform="translate(12.495 9.679)" fill="#f5e8dd"/>
          <path id="Trazado_596571" data-name="Trazado 596571" d="M43.951,37.717c.022-.854.811-1.353,1.143-1.6a5.916,5.916,0,0,1,.936-.158c.292,0,.911-.673,1.567-.582a1.467,1.467,0,0,1,1.626-.515s.812-1.051,1.517-.8c0,0,.745.613,1.59,1.382.4.362,1.075.622,1.407,1.1a2.569,2.569,0,0,1-.012,1.728s-1.089,4.992-3.478,6.642l-.274,3.526a3.688,3.688,0,0,1-3.242.9,3.74,3.74,0,0,1-2.484-2.528l.361-2.371s-.683-2.863.075-4.555C43.74,39.507,43.929,38.54,43.951,37.717Z" transform="translate(12.495 9.679)" fill="none" stroke="#000" stroke-linecap="round" stroke-linejoin="round" stroke-width="0.495"/>
          <path id="Trazado_596572" data-name="Trazado 596572" d="M44.775,37.279a2.4,2.4,0,0,0,.247.721,2.269,2.269,0,0,0-.411.867" transform="translate(12.692 10.606)" fill="none" stroke="#000" stroke-linecap="round" stroke-linejoin="round" stroke-width="0.495"/>
          <path id="Trazado_596573" data-name="Trazado 596573" d="M45.21,35.654A9.911,9.911,0,0,0,46.7,37.075" transform="translate(12.862 10.144)" fill="none" stroke="#000" stroke-linecap="round" stroke-linejoin="round" stroke-width="0.495"/>
          <path id="Trazado_596574" data-name="Trazado 596574" d="M46.481,35.068a8.278,8.278,0,0,0,1.951,1.358" transform="translate(13.224 9.977)" fill="none" stroke="#000" stroke-linecap="round" stroke-linejoin="round" stroke-width="0.495"/>
          <path id="Trazado_596575" data-name="Trazado 596575" d="M48.159,34.715a4.342,4.342,0,0,0,1.6,1.2" transform="translate(13.701 9.877)" fill="none" stroke="#000" stroke-linecap="round" stroke-linejoin="round" stroke-width="0.495"/>
          <path id="Trazado_596576" data-name="Trazado 596576" d="M39.55,58.185a36.287,36.287,0,0,1,4.4-15.063s2.32,3.135,4.6,3.576c2.511.486,4.476-2.087,4.476-2.087s-3.073,13.618-5.475,16.32a4.639,4.639,0,0,1-5.875,2.112c-2.1-.712-2.313-2.881-2.13-4.857" transform="translate(11.237 12.268)" fill="#8090a2"/>
          <path id="Trazado_596577" data-name="Trazado 596577" d="M39.55,58.185a36.287,36.287,0,0,1,4.4-15.063s2.32,3.135,4.6,3.576c2.511.486,4.476-2.087,4.476-2.087s-3.073,13.618-5.475,16.32a4.639,4.639,0,0,1-5.875,2.112C39.577,62.33,39.366,60.161,39.55,58.185Z" transform="translate(11.237 12.268)" fill="none" stroke="#000" stroke-linecap="round" stroke-linejoin="round" stroke-width="0.495"/>
          <path id="Trazado_596578" data-name="Trazado 596578" d="M17.658,36.875c-2.988.758-5.2,4.542-5.364,12.673-.181,9.048-.668,14.492,3.8,15.208.715.116,2.861.371,4.094-3.581l-.742-11.151Z" transform="translate(3.466 10.491)" fill="#8090a2"/>
          <path id="Trazado_596579" data-name="Trazado 596579" d="M17.658,36.875c-2.988.758-5.2,4.542-5.364,12.673-.181,9.048-.668,14.492,3.8,15.208.715.116,2.861.371,4.094-3.581l-.742-11.151Z" transform="translate(3.466 10.491)" fill="none" stroke="#000" stroke-linecap="round" stroke-linejoin="round" stroke-width="0.495"/>
          <path id="Trazado_596580" data-name="Trazado 596580" d="M12.206,42.063c2.466-.453,4.749.166,4.983,1.435s-1.67,2.709-4.137,3.164S8.4,46.453,8.162,45.183s1.577-2.667,4.044-3.12" transform="translate(2.316 11.925)" fill="#8090a2"/>
          <path id="Trazado_596581" data-name="Trazado 596581" d="M12.206,42.063c2.466-.453,4.749.166,4.983,1.435s-1.67,2.709-4.137,3.164S8.4,46.453,8.162,45.183,9.74,42.516,12.206,42.063Z" transform="translate(2.316 11.925)" fill="none" stroke="#000" stroke-linecap="round" stroke-linejoin="round" stroke-width="0.495"/>
          <path id="Trazado_596582" data-name="Trazado 596582" d="M11.715,35.905c-.8.425-2.587.663-2.884.107s.344-2.033,1.231-1.856c1.2.241,2.256-.785,2.552-.23a1.68,1.68,0,0,1-.9,1.979" transform="translate(2.492 9.605)" fill="#f5e8dd"/>
          <path id="Trazado_596583" data-name="Trazado 596583" d="M11.715,35.905c-.8.425-2.587.663-2.884.107s.344-2.033,1.231-1.856c1.2.241,2.256-.785,2.552-.23A1.68,1.68,0,0,1,11.715,35.905Z" transform="translate(2.492 9.605)" fill="none" stroke="#000" stroke-linecap="round" stroke-linejoin="round" stroke-width="0.495"/>
          <path id="Trazado_596584" data-name="Trazado 596584" d="M16.4,37.717c-.022-.854-.811-1.353-1.143-1.6a5.916,5.916,0,0,0-.936-.158c-.292,0-.911-.673-1.567-.582a1.467,1.467,0,0,0-1.626-.515s-.812-1.051-1.517-.8c0,0-.745.613-1.59,1.382-.4.362-1.075.622-1.407,1.1a2.569,2.569,0,0,0,.012,1.728s1.089,4.992,3.478,6.642l.274,3.526a3.688,3.688,0,0,0,3.242.9A3.74,3.74,0,0,0,16.1,46.807l-.361-2.371s.683-2.863-.075-4.555c.943-.374.754-1.341.732-2.164" transform="translate(1.843 9.679)" fill="#f5e8dd"/>
          <path id="Trazado_596585" data-name="Trazado 596585" d="M16.4,37.717c-.022-.854-.811-1.353-1.143-1.6a5.916,5.916,0,0,0-.936-.158c-.292,0-.911-.673-1.567-.582a1.467,1.467,0,0,0-1.626-.515s-.812-1.051-1.517-.8c0,0-.745.613-1.59,1.382-.4.362-1.075.622-1.407,1.1a2.569,2.569,0,0,0,.012,1.728s1.089,4.992,3.478,6.642l.274,3.526a3.688,3.688,0,0,0,3.242.9A3.74,3.74,0,0,0,16.1,46.807l-.361-2.371s.683-2.863-.075-4.555C16.608,39.507,16.42,38.54,16.4,37.717Z" transform="translate(1.843 9.679)" fill="none" stroke="#000" stroke-linecap="round" stroke-linejoin="round" stroke-width="0.495"/>
          <path id="Trazado_596586" data-name="Trazado 596586" d="M13.461,37.279a2.4,2.4,0,0,1-.247.721,2.269,2.269,0,0,1,.411.867" transform="translate(3.759 10.606)" fill="none" stroke="#000" stroke-linecap="round" stroke-linejoin="round" stroke-width="0.495"/>
          <path id="Trazado_596587" data-name="Trazado 596587" d="M13.265,35.654a9.911,9.911,0,0,1-1.494,1.421" transform="translate(3.349 10.144)" fill="none" stroke="#000" stroke-linecap="round" stroke-linejoin="round" stroke-width="0.495"/>
          <path id="Trazado_596588" data-name="Trazado 596588" d="M12.1,35.068a8.278,8.278,0,0,1-1.951,1.358" transform="translate(2.886 9.977)" fill="none" stroke="#000" stroke-linecap="round" stroke-linejoin="round" stroke-width="0.495"/>
          <path id="Trazado_596589" data-name="Trazado 596589" d="M10.341,34.715a4.342,4.342,0,0,1-1.6,1.2" transform="translate(2.486 9.877)" fill="none" stroke="#000" stroke-linecap="round" stroke-linejoin="round" stroke-width="0.495"/>
          <path id="Trazado_596590" data-name="Trazado 596590" d="M21.593,58.185a36.287,36.287,0,0,0-4.4-15.063s-2.32,3.135-4.6,3.576c-2.511.486-4.476-2.087-4.476-2.087s3.073,13.618,5.475,16.32a4.639,4.639,0,0,0,5.875,2.112c2.1-.712,2.313-2.881,2.13-4.857" transform="translate(2.308 12.268)" fill="#8090a2"/>
          <path id="Trazado_596591" data-name="Trazado 596591" d="M21.593,58.185a36.287,36.287,0,0,0-4.4-15.063s-2.32,3.135-4.6,3.576c-2.511.486-4.476-2.087-4.476-2.087s3.073,13.618,5.475,16.32a4.639,4.639,0,0,0,5.875,2.112C21.566,62.33,21.776,60.161,21.593,58.185Z" transform="translate(2.308 12.268)" fill="none" stroke="#000" stroke-linecap="round" stroke-linejoin="round" stroke-width="0.495"/>
        </g>
      </g>
    </g>
  </g>
</svg>
