<svg xmlns="http://www.w3.org/2000/svg" xmlns:xlink="http://www.w3.org/1999/xlink" width="120" height="120" viewBox="0 0 120 120">
  <defs>
    <clipPath id="clip-path">
      <rect id="Rectángulo_299323" data-name="Rectángulo 299323" width="76.354" height="94.943" fill="none"/>
    </clipPath>
  </defs>
  <g id="Grupo_1072190" data-name="Grupo 1072190" transform="translate(-180 -2091.146)">
    <path id="Trazado_835934" data-name="Trazado 835934" d="M60,0A60,60,0,1,1,0,60,60,60,0,0,1,60,0Z" transform="translate(180 2091.146)" fill="#e1efe3"/>
    <g id="Grupo_881698" data-name="Grupo 881698" transform="translate(201.403 2099.947)">
      <g id="Grupo_881697" data-name="Grupo 881697" transform="translate(0 -0.001)" clip-path="url(#clip-path)">
        <path id="Trazado_596592" data-name="Trazado 596592" d="M42.909,36.908a14.588,14.588,0,0,1,6.325,10.92s.5,4,2.1,22.7c1.533,17.835,2.106,21.038,2.106,21.038a15.778,15.778,0,0,1-5.513,1.98,13.332,13.332,0,0,1-5.085-.161L40.446,68.3l.642-10.92Z" transform="translate(14.372 13.115)" fill="#6a7984"/>
        <path id="Trazado_596593" data-name="Trazado 596593" d="M42.909,36.908a14.588,14.588,0,0,1,6.325,10.92s.5,4,2.1,22.7c1.533,17.835,2.106,21.038,2.106,21.038a15.778,15.778,0,0,1-5.513,1.98,13.332,13.332,0,0,1-5.085-.161L40.446,68.3l.642-10.92Z" transform="translate(14.372 13.115)" fill="none" stroke="#000" stroke-linecap="round" stroke-linejoin="round" stroke-width="0.495"/>
        <path id="Trazado_596594" data-name="Trazado 596594" d="M47.058,62.751s-1.963,2.177-3.747,2.07A3.21,3.21,0,0,0,45.2,66.248" transform="translate(15.39 22.298)" fill="none" stroke="#000" stroke-linecap="round" stroke-linejoin="round" stroke-width="0.495"/>
        <path id="Trazado_596595" data-name="Trazado 596595" d="M29.392,69.17C38,55.719,36.611,33.5,36.611,33.5H22.172s-1.389,22.215,7.22,35.666" transform="translate(7.849 11.906)" fill="#fff"/>
        <path id="Trazado_596596" data-name="Trazado 596596" d="M29.392,69.17C38,55.719,36.611,33.5,36.611,33.5H22.172S20.782,55.719,29.392,69.17Z" transform="translate(7.849 11.906)" fill="none" stroke="#000" stroke-linecap="round" stroke-linejoin="round" stroke-width="0.495"/>
        <path id="Trazado_596597" data-name="Trazado 596597" d="M35.909,42.9c-2.141-6.432-1.649-15.7-1.649-15.7H24.089s.748,8.825-1.542,15.7Z" transform="translate(8.012 9.665)" fill="#f2e3d4"/>
        <path id="Trazado_596598" data-name="Trazado 596598" d="M35.909,42.9c-2.141-6.432-1.649-15.7-1.649-15.7H24.089s.748,8.825-1.542,15.7Z" transform="translate(8.012 9.665)" fill="none" stroke="#000" stroke-linecap="round" stroke-linejoin="round" stroke-width="0.495"/>
        <path id="Trazado_596599" data-name="Trazado 596599" d="M29.838,41.154H27.071L25.883,45.4,24.791,77.266,28.5,82.478l3.569-5.211L30.979,45.4Z" transform="translate(8.809 14.624)" fill="#6f8bc4"/>
        <path id="Trazado_596600" data-name="Trazado 596600" d="M29.838,41.154H27.071L25.883,45.4,24.791,77.266,28.5,82.478l3.569-5.211L30.979,45.4Z" transform="translate(8.809 14.624)" fill="none" stroke="#000" stroke-linecap="round" stroke-linejoin="round" stroke-width="0.495"/>
        <path id="Trazado_596601" data-name="Trazado 596601" d="M31.746,39.22c.016-1.453-1.983-1.544-3.352-1.56s-3.414.028-3.43,1.481,1.5,4.539,3.382,4.538,3.384-3.006,3.4-4.459" transform="translate(8.871 13.382)" fill="#6f8bc4"/>
        <path id="Trazado_596602" data-name="Trazado 596602" d="M31.746,39.22c.016-1.453-1.983-1.544-3.352-1.56s-3.414.028-3.43,1.481,1.5,4.539,3.382,4.538S31.73,40.673,31.746,39.22Z" transform="translate(8.871 13.382)" fill="none" stroke="#000" stroke-linecap="round" stroke-linejoin="round" stroke-width="0.495"/>
        <path id="Trazado_596603" data-name="Trazado 596603" d="M50.108,69.4l2.829-31.036s-12.953-5.875-13.009-4.955C39.684,37.5,41,47.437,32.733,67.42c-7.788-19.929-6.952-29.889-7.194-33.971-.056-.92-13.009,4.919-13.009,4.919L15.359,69.4,13.49,97.2c6.828,3.4,17.754,1.384,17.754,1.384l1.5-8.181,1.427,8.181S45.149,100.6,51.977,97.2Z" transform="translate(4.452 11.838)" fill="#6a7984"/>
        <path id="Trazado_596604" data-name="Trazado 596604" d="M50.108,69.4l2.829-31.036s-12.953-5.875-13.009-4.955C39.684,37.5,41,47.437,32.733,67.42c-7.788-19.929-6.952-29.889-7.194-33.971-.056-.92-13.009,4.919-13.009,4.919L15.359,69.4,13.49,97.2c6.828,3.4,17.754,1.384,17.754,1.384l1.5-8.181,1.427,8.181S45.149,100.6,51.977,97.2Z" transform="translate(4.452 11.838)" fill="none" stroke="#000" stroke-linecap="round" stroke-linejoin="round" stroke-width="0.495"/>
        <path id="Trazado_596605" data-name="Trazado 596605" d="M22.424,35.228a17.049,17.049,0,0,1,1.851-2.734c-.182,1.723.969,3.864,5.092,6.638.581.39-6.287,6.405-6.287,6.405a24.325,24.325,0,0,1-.656-10.31" transform="translate(7.873 11.543)" fill="#fff"/>
        <path id="Trazado_596606" data-name="Trazado 596606" d="M22.424,35.228a17.049,17.049,0,0,1,1.851-2.734c-.182,1.723.969,3.864,5.092,6.638.581.39-6.287,6.405-6.287,6.405A24.325,24.325,0,0,1,22.424,35.228Z" transform="translate(7.873 11.543)" fill="none" stroke="#000" stroke-linecap="round" stroke-linejoin="round" stroke-width="0.495"/>
        <path id="Trazado_596607" data-name="Trazado 596607" d="M34.664,35.228a17.049,17.049,0,0,0-1.851-2.734c.182,1.723-.969,3.864-5.092,6.638-.581.39,6.287,6.405,6.287,6.405a24.325,24.325,0,0,0,.656-10.31" transform="translate(9.838 11.543)" fill="#fff"/>
        <path id="Trazado_596608" data-name="Trazado 596608" d="M34.664,35.228a17.049,17.049,0,0,0-1.851-2.734c.182,1.723-.969,3.864-5.092,6.638-.581.39,6.287,6.405,6.287,6.405A24.325,24.325,0,0,0,34.664,35.228Z" transform="translate(9.838 11.543)" fill="none" stroke="#000" stroke-linecap="round" stroke-linejoin="round" stroke-width="0.495"/>
        <path id="Trazado_596609" data-name="Trazado 596609" d="M20.462,36.332,16.911,40.89l3.283,2.266-2.5,3.068s3.821,7.957,6.816,13.025a49.011,49.011,0,0,0,6.674,8.743S22.094,44.44,24.378,35.377l1.633-3.07a14.2,14.2,0,0,0-5.549,4.025" transform="translate(6.009 11.48)" fill="#6a7984"/>
        <path id="Trazado_596610" data-name="Trazado 596610" d="M20.462,36.332,16.911,40.89l3.283,2.266-2.5,3.068s3.821,7.957,6.816,13.025a49.011,49.011,0,0,0,6.674,8.743S22.094,44.44,24.378,35.377l1.633-3.07A14.2,14.2,0,0,0,20.462,36.332Z" transform="translate(6.009 11.48)" fill="none" stroke="#000" stroke-linecap="round" stroke-linejoin="round" stroke-width="0.495"/>
        <path id="Trazado_596611" data-name="Trazado 596611" d="M38.3,36.332l3.551,4.558-3.283,2.266,2.5,3.068s-3.821,7.957-6.816,13.025a49.011,49.011,0,0,1-6.674,8.743s9.092-23.553,6.808-32.616l-1.633-3.07A14.2,14.2,0,0,1,38.3,36.332" transform="translate(9.798 11.48)" fill="#6a7984"/>
        <path id="Trazado_596612" data-name="Trazado 596612" d="M38.3,36.332l3.551,4.558-3.283,2.266,2.5,3.068s-3.821,7.957-6.816,13.025a49.011,49.011,0,0,1-6.674,8.743s9.092-23.553,6.808-32.616l-1.633-3.07A14.2,14.2,0,0,1,38.3,36.332Z" transform="translate(9.798 11.48)" fill="none" stroke="#000" stroke-linecap="round" stroke-linejoin="round" stroke-width="0.495"/>
        <path id="Trazado_596613" data-name="Trazado 596613" d="M22.025,69.83l-6.3-.413.239-2.437,6.4.317Z" transform="translate(5.588 23.801)" fill="#6a7984"/>
        <path id="Trazado_596614" data-name="Trazado 596614" d="M22.025,69.83l-6.3-.413.239-2.437,6.4.317Z" transform="translate(5.588 23.801)" fill="none" stroke="#000" stroke-linecap="round" stroke-linejoin="round" stroke-width="0.495"/>
        <path id="Trazado_596615" data-name="Trazado 596615" d="M34.365,69.83l6.3-.413-.239-2.437-6.4.317Z" transform="translate(12.091 23.801)" fill="#6a7984"/>
        <path id="Trazado_596616" data-name="Trazado 596616" d="M34.365,69.83l6.3-.413-.239-2.437-6.4.317Z" transform="translate(12.091 23.801)" fill="none" stroke="#000" stroke-linecap="round" stroke-linejoin="round" stroke-width="0.495"/>
        <path id="Trazado_596617" data-name="Trazado 596617" d="M29.432,61.481A1.534,1.534,0,1,1,27.9,59.947a1.535,1.535,0,0,1,1.534,1.534" transform="translate(9.368 21.302)"/>
        <path id="Trazado_596618" data-name="Trazado 596618" d="M29.432,68.485A1.534,1.534,0,1,1,27.9,66.951a1.535,1.535,0,0,1,1.534,1.534" transform="translate(9.368 23.791)"/>
        <path id="Trazado_596619" data-name="Trazado 596619" d="M22.459,21.588c.565,1.7,1.75,4.641.186,5.161s-3.251-.13-4.761-3.415c-.745-1.624-.11-3.783,1.456-4.3s2.555.862,3.12,2.558" transform="translate(6.244 6.723)" fill="#f2e3d4"/>
        <path id="Trazado_596620" data-name="Trazado 596620" d="M22.459,21.588c.565,1.7,1.75,4.641.186,5.161s-3.251-.13-4.761-3.415c-.745-1.624-.11-3.783,1.456-4.3S21.894,19.892,22.459,21.588Z" transform="translate(6.244 6.723)" fill="none" stroke="#000" stroke-linecap="round" stroke-linejoin="round" stroke-width="0.495"/>
        <path id="Trazado_596621" data-name="Trazado 596621" d="M34.107,21.588c-.565,1.7-1.75,4.641-.186,5.161s3.253-.13,4.761-3.415c.745-1.624.11-3.783-1.456-4.3s-2.555.862-3.12,2.558" transform="translate(11.777 6.723)" fill="#f2e3d4"/>
        <path id="Trazado_596622" data-name="Trazado 596622" d="M34.107,21.588c-.565,1.7-1.75,4.641-.186,5.161s3.253-.13,4.761-3.415c.745-1.624.11-3.783-1.456-4.3S34.672,19.892,34.107,21.588Z" transform="translate(11.777 6.723)" fill="none" stroke="#000" stroke-linecap="round" stroke-linejoin="round" stroke-width="0.495"/>
        <path id="Trazado_596623" data-name="Trazado 596623" d="M40.753,20.416C40.6,29.735,38.6,39.725,30.218,39.725c-8.919,0-10.534-11.279-10.534-19.309s5-13.689,10.818-13.689,10.383,5.66,10.25,13.689" transform="translate(6.994 2.391)" fill="#f2e3d4"/>
        <path id="Trazado_596624" data-name="Trazado 596624" d="M40.753,20.416C40.6,29.735,38.6,39.725,30.218,39.725c-8.919,0-10.534-11.279-10.534-19.309s5-13.689,10.818-13.689S40.886,12.387,40.753,20.416Z" transform="translate(6.994 2.391)" fill="none" stroke="#000" stroke-linecap="round" stroke-linejoin="round" stroke-width="0.495"/>
        <path id="Trazado_596625" data-name="Trazado 596625" d="M32.066,20.947a.953.953,0,1,1-.949-1.035,1,1,0,0,1,.949,1.035" transform="translate(10.719 7.076)"/>
        <path id="Trazado_596626" data-name="Trazado 596626" d="M25.245,20.947a.953.953,0,1,1-.949-1.035,1,1,0,0,1,.949,1.035" transform="translate(8.296 7.076)"/>
        <path id="Trazado_596627" data-name="Trazado 596627" d="M22.552,18.635a2.534,2.534,0,0,1,3.3.211" transform="translate(8.014 6.447)" fill="none" stroke="#000" stroke-linecap="round" stroke-linejoin="round" stroke-width="0.495"/>
        <path id="Trazado_596628" data-name="Trazado 596628" d="M33.227,18.635a2.534,2.534,0,0,0-3.3.211" transform="translate(10.635 6.447)" fill="none" stroke="#000" stroke-linecap="round" stroke-linejoin="round" stroke-width="0.495"/>
        <line id="Línea_507" data-name="Línea 507" y2="0.572" transform="translate(37.23 32.903)" fill="none" stroke="#000" stroke-linecap="round" stroke-linejoin="round" stroke-width="0.495"/>
        <path id="Trazado_596629" data-name="Trazado 596629" d="M30.651,26.3c-2.633,4.313-4.988.027-4.988.027Z" transform="translate(9.119 9.347)" fill="#fff"/>
        <path id="Trazado_596630" data-name="Trazado 596630" d="M30.651,26.3c-2.633,4.313-4.988.027-4.988.027Z" transform="translate(9.119 9.347)" fill="none" stroke="#000" stroke-linecap="round" stroke-linejoin="round" stroke-width="0.391"/>
        <path id="Trazado_596631" data-name="Trazado 596631" d="M44.262,17.659c0-3.436-2.011-6.941-3.748-7.406-.213-2.017-3.073-4.807-6.93-3.842a7.9,7.9,0,0,0-5.07-1.5c-4,0-7.3,3.048-7.792,5.691-1.59,1.072-2.886,4.093-2.886,7.057a8.674,8.674,0,0,0,2.75,6.641A56.493,56.493,0,0,0,22.426,13.66c1.518,1.822,5.561,3.009,9.7,1.846a9.74,9.74,0,0,0,7.71.321,57.059,57.059,0,0,0,1.55,8.474,8.691,8.691,0,0,0,2.879-6.641" transform="translate(6.338 1.746)" fill="#80786c"/>
        <path id="Trazado_596632" data-name="Trazado 596632" d="M44.262,17.659c0-3.436-2.011-6.941-3.748-7.406-.213-2.017-3.073-4.807-6.93-3.842a7.9,7.9,0,0,0-5.07-1.5c-4,0-7.3,3.048-7.792,5.691-1.59,1.072-2.886,4.093-2.886,7.057a8.674,8.674,0,0,0,2.75,6.641A56.493,56.493,0,0,0,22.426,13.66c1.518,1.822,5.561,3.009,9.7,1.846a9.74,9.74,0,0,0,7.71.321,57.059,57.059,0,0,0,1.55,8.474A8.691,8.691,0,0,0,44.262,17.659Z" transform="translate(6.338 1.746)" fill="none" stroke="#000" stroke-linecap="round" stroke-linejoin="round" stroke-width="0.495"/>
        <path id="Trazado_596633" data-name="Trazado 596633" d="M29.3,13.365s-1,.142-3.678-2.5" transform="translate(9.105 3.862)" fill="none" stroke="#000" stroke-linecap="round" stroke-linejoin="round" stroke-width="0.495"/>
        <path id="Trazado_596634" data-name="Trazado 596634" d="M30.7,10.049a6.188,6.188,0,0,1,4.525,3.8" transform="translate(10.909 3.571)" fill="none" stroke="#000" stroke-linecap="round" stroke-linejoin="round" stroke-width="0.495"/>
        <path id="Trazado_596635" data-name="Trazado 596635" d="M35.309,52.175c1.445,3.387,1.347,4.858.7,4.958-.965.15-2.022-.236-3.749-3.161s-2.932-4.535-2.091-5.031,3.8.11,5.135,3.234" transform="translate(10.624 17.337)" fill="#6a7984"/>
        <path id="Trazado_596636" data-name="Trazado 596636" d="M35.309,52.175c1.445,3.387,1.347,4.858.7,4.958-.965.15-2.022-.236-3.749-3.161s-2.932-4.535-2.091-5.031S33.977,49.051,35.309,52.175Z" transform="translate(10.624 17.337)" fill="none" stroke="#000" stroke-linecap="round" stroke-linejoin="round" stroke-width="0.495"/>
        <path id="Trazado_596637" data-name="Trazado 596637" d="M35.291,49.99c1.468,1.736,2.385,3.682,1.655,4.3s-2.831-.328-4.3-2.064-2.066-3.644-1.335-4.261,2.511.29,3.979,2.026" transform="translate(11.015 16.975)" fill="#fff"/>
        <path id="Trazado_596638" data-name="Trazado 596638" d="M35.291,49.99c1.468,1.736,2.385,3.682,1.655,4.3s-2.831-.328-4.3-2.064-2.066-3.644-1.335-4.261S33.823,48.254,35.291,49.99Z" transform="translate(11.015 16.975)" fill="none" stroke="#000" stroke-linecap="round" stroke-linejoin="round" stroke-width="0.495"/>
        <path id="Trazado_596639" data-name="Trazado 596639" d="M43.457,46.335a1.986,1.986,0,0,0-2.086-1.689,1.852,1.852,0,0,0-2.383-1.895s-.812-1.479-2.079-1.133a3.453,3.453,0,0,0-1.4.942.7.7,0,0,0-.118-.061c-.747-.192-2.1,1.25-2.591,2.331a4.228,4.228,0,0,0-.14,2.35,18.794,18.794,0,0,0-1.015,4.09l-.6,6.491,5.93-1.843s1.1-.752,2.609-1.721a24.637,24.637,0,0,0,2.479-1.532c2.212-1.851,2.2-3.094,2.2-3.094s1.133-2.6-.812-3.237" transform="translate(11.033 14.771)" fill="#f2e3d4"/>
        <path id="Trazado_596640" data-name="Trazado 596640" d="M43.457,46.335a1.986,1.986,0,0,0-2.086-1.689,1.852,1.852,0,0,0-2.383-1.895s-.812-1.479-2.079-1.133a3.453,3.453,0,0,0-1.4.942.7.7,0,0,0-.118-.061c-.747-.192-2.1,1.25-2.591,2.331a4.228,4.228,0,0,0-.14,2.35,18.794,18.794,0,0,0-1.015,4.09l-.6,6.491,5.93-1.843s1.1-.752,2.609-1.721a24.637,24.637,0,0,0,2.479-1.532c2.212-1.851,2.2-3.094,2.2-3.094S45.4,46.974,43.457,46.335Z" transform="translate(11.033 14.771)" fill="none" stroke="#000" stroke-linecap="round" stroke-linejoin="round" stroke-width="0.495"/>
        <path id="Trazado_596641" data-name="Trazado 596641" d="M34.762,42.3a6.932,6.932,0,0,0-1.61,2.652" transform="translate(11.78 15.031)" fill="none" stroke="#000" stroke-linecap="round" stroke-linejoin="round" stroke-width="0.495"/>
        <path id="Trazado_596642" data-name="Trazado 596642" d="M29.6,49.86l2.331-2.006s2.728,6.385,5.516,6.405l-3.7,2.315S29.21,53.217,29.6,49.86" transform="translate(10.511 17.005)" fill="#fff"/>
        <path id="Trazado_596643" data-name="Trazado 596643" d="M29.6,49.86l2.331-2.006s2.728,6.385,5.516,6.405l-3.7,2.315S29.21,53.217,29.6,49.86Z" transform="translate(10.511 17.005)" fill="none" stroke="#000" stroke-linecap="round" stroke-linejoin="round" stroke-width="0.495"/>
        <path id="Trazado_596644" data-name="Trazado 596644" d="M40.121,58.418a14.363,14.363,0,0,1-2.192-5.073S28.479,59.2,23.136,63.033c-1.475-3.41-1.258-9.468-4.872-17.309L16.087,36.4s-3.566,1.225-5.207,3.238C8.694,42.314,6.612,45.19,9.458,53.5c.249.729.607,6.985,3.117,12.39a58.923,58.923,0,0,0,4.634,8.174c2.842,3.254,8.883,1.767,13.423-1.479C34.292,69.973,43.77,61.536,43.77,61.536a9.632,9.632,0,0,1-3.649-3.119" transform="translate(2.869 12.933)" fill="#6a7984"/>
        <path id="Trazado_596645" data-name="Trazado 596645" d="M40.121,58.418a14.363,14.363,0,0,1-2.192-5.073S28.479,59.2,23.136,63.033c-1.475-3.41-1.258-9.468-4.872-17.309L16.087,36.4s-3.566,1.225-5.207,3.238C8.694,42.314,6.612,45.19,9.458,53.5c.249.729.607,6.985,3.117,12.39a58.923,58.923,0,0,0,4.634,8.174c2.842,3.254,8.883,1.767,13.423-1.479C34.292,69.973,43.77,61.536,43.77,61.536A9.632,9.632,0,0,1,40.121,58.418Z" transform="translate(2.869 12.933)" fill="none" stroke="#000" stroke-linecap="round" stroke-linejoin="round" stroke-width="0.495"/>
        <path id="Trazado_596646" data-name="Trazado 596646" d="M15.81,60.494c1.2-2.688,5.065-4.444,5.065-4.444s-4.692.586-6.435,2.642" transform="translate(5.131 19.917)" fill="none" stroke="#000" stroke-linecap="round" stroke-linejoin="round" stroke-width="0.495"/>
      </g>
    </g>
  </g>
</svg>
