<svg xmlns="http://www.w3.org/2000/svg" xmlns:xlink="http://www.w3.org/1999/xlink" width="120" height="120" viewBox="0 0 120 120">
  <defs>
    <clipPath id="clip-path">
      <rect id="Rectángulo_299322" data-name="Rectángulo 299322" width="76.854" height="95.564" fill="none"/>
    </clipPath>
  </defs>
  <g id="Grupo_1072189" data-name="Grupo 1072189" transform="translate(-810 -1808.712)">
    <path id="Trazado_835933" data-name="Trazado 835933" d="M60,0A60,60,0,1,1,0,60,60,60,0,0,1,60,0Z" transform="translate(810 1808.712)" fill="#e1efe3"/>
    <g id="Grupo_881696" data-name="Grupo 881696" transform="translate(831.573 1812.712)">
      <g id="Grupo_881695" data-name="Grupo 881695" clip-path="url(#clip-path)">
        <path id="Trazado_596526" data-name="Trazado 596526" d="M30.795,66.756C38.193,54.291,37,33.705,37,33.705H24.589S23.4,54.291,30.795,66.756" transform="translate(8.93 12.276)" fill="#fff"/>
        <path id="Trazado_596527" data-name="Trazado 596527" d="M30.795,66.756C38.193,54.291,37,33.705,37,33.705H24.589S23.4,54.291,30.795,66.756Z" transform="translate(8.93 12.276)" fill="none" stroke="#000" stroke-linecap="round" stroke-linejoin="round" stroke-width="0.495"/>
        <path id="Trazado_596528" data-name="Trazado 596528" d="M36.394,41.5c-1.84-5.96-1.417-14.551-1.417-14.551H26.235S26.879,35.13,24.91,41.5a9.048,9.048,0,0,0,5.9,1.612c3.891-.11,5.58-1.612,5.58-1.612" transform="translate(9.072 9.817)" fill="#f5e8dd"/>
        <path id="Trazado_596529" data-name="Trazado 596529" d="M36.394,41.5c-1.84-5.96-1.417-14.551-1.417-14.551H26.235S26.879,35.13,24.91,41.5a9.048,9.048,0,0,0,5.9,1.612C34.705,43,36.394,41.5,36.394,41.5Z" transform="translate(9.072 9.817)" fill="none" stroke="#000" stroke-linecap="round" stroke-linejoin="round" stroke-width="0.495"/>
        <path id="Trazado_596530" data-name="Trazado 596530" d="M42.348,39.959c0,1.771-4.633,3.206-10.348,3.206S21.652,41.73,21.652,39.959,26.285,36.753,32,36.753s10.348,1.435,10.348,3.206" transform="translate(7.886 13.386)" fill="#f5e8dd"/>
        <path id="Trazado_596531" data-name="Trazado 596531" d="M20.654,40a35.6,35.6,0,0,0,23.518,0" transform="translate(7.522 14.568)" fill="none" stroke="#000" stroke-linecap="round" stroke-linejoin="round" stroke-width="0.495"/>
        <path id="Trazado_596532" data-name="Trazado 596532" d="M46.964,66.972l4.119-28.762S39.951,32.768,39.9,33.62c-.209,3.784.925,13-6.184,31.515-6.693-18.469-5.974-27.7-6.184-31.48-.046-.854-11.178,4.556-11.178,4.556l4.119,28.762L17.181,92.731c5.869,3.147,15.259,1.284,15.259,1.284l1.288-7.582,1.226,7.582s9.436,1.864,15.305-1.284Z" transform="translate(5.957 12.212)" fill="#8090a2"/>
        <path id="Trazado_596533" data-name="Trazado 596533" d="M46.964,66.972l4.119-28.762S39.951,32.768,39.9,33.62c-.209,3.784.925,13-6.184,31.515-6.693-18.469-5.974-27.7-6.184-31.48-.046-.854-11.178,4.556-11.178,4.556l4.119,28.762L17.181,92.731c5.869,3.147,15.259,1.284,15.259,1.284l1.288-7.582,1.226,7.582s9.436,1.864,15.305-1.284Z" transform="translate(5.957 12.212)" fill="none" stroke="#000" stroke-linecap="round" stroke-linejoin="round" stroke-width="0.495"/>
        <path id="Trazado_596534" data-name="Trazado 596534" d="M23.149,36.333,20.1,40.556l2.821,2.1L20.771,45.5s3.284,7.374,5.858,12.071a45.074,45.074,0,0,0,5.736,8.1s-7.42-21.486-5.457-29.886l1.01-3.184a12.2,12.2,0,0,0-4.769,3.73" transform="translate(7.32 11.875)" fill="#8090a2"/>
        <path id="Trazado_596535" data-name="Trazado 596535" d="M23.149,36.333,20.1,40.556l2.821,2.1L20.771,45.5s3.284,7.374,5.858,12.071a45.074,45.074,0,0,0,5.736,8.1s-7.42-21.486-5.457-29.886l1.01-3.184A12.2,12.2,0,0,0,23.149,36.333Z" transform="translate(7.32 11.875)" fill="none" stroke="#000" stroke-linecap="round" stroke-linejoin="round" stroke-width="0.495"/>
        <path id="Trazado_596536" data-name="Trazado 596536" d="M38.419,36.333l3.052,4.224-2.821,2.1L40.8,45.5s-3.285,7.374-5.858,12.071a45.153,45.153,0,0,1-5.736,8.1s7.292-21.647,5.329-30.048L33.649,32.6a12.209,12.209,0,0,1,4.769,3.73" transform="translate(10.636 11.875)" fill="#8090a2"/>
        <path id="Trazado_596537" data-name="Trazado 596537" d="M38.419,36.333l3.052,4.224-2.821,2.1L40.8,45.5s-3.285,7.374-5.858,12.071a45.153,45.153,0,0,1-5.736,8.1s7.292-21.647,5.329-30.048L33.649,32.6A12.209,12.209,0,0,1,38.419,36.333Z" transform="translate(10.636 11.875)" fill="none" stroke="#000" stroke-linecap="round" stroke-linejoin="round" stroke-width="0.495"/>
        <path id="Trazado_596538" data-name="Trazado 596538" d="M24.68,67.4l-5.413-.383.2-2.258,5.5.293Z" transform="translate(7.017 23.586)" fill="#8090a2"/>
        <path id="Trazado_596539" data-name="Trazado 596539" d="M24.68,67.4l-5.413-.383.2-2.258,5.5.293Z" transform="translate(7.017 23.586)" fill="none" stroke="#000" stroke-linecap="round" stroke-linejoin="round" stroke-width="0.495"/>
        <path id="Trazado_596540" data-name="Trazado 596540" d="M35,67.4l5.413-.383-.2-2.258-5.5.293Z" transform="translate(12.642 23.586)" fill="#8090a2"/>
        <path id="Trazado_596541" data-name="Trazado 596541" d="M35,67.4l5.413-.383-.2-2.258-5.5.293Z" transform="translate(12.642 23.586)" fill="none" stroke="#000" stroke-linecap="round" stroke-linejoin="round" stroke-width="0.495"/>
        <path id="Trazado_596542" data-name="Trazado 596542" d="M30.806,59.706a1.322,1.322,0,1,1-1.319-1.422,1.373,1.373,0,0,1,1.319,1.422" transform="translate(10.259 21.228)"/>
        <path id="Trazado_596543" data-name="Trazado 596543" d="M30.806,66.154a1.322,1.322,0,1,1-1.319-1.422,1.373,1.373,0,0,1,1.319,1.422" transform="translate(10.259 23.576)"/>
        <path id="Trazado_596544" data-name="Trazado 596544" d="M38.794,36.407c-.521,1.634-2.291,6-4.543,6.4.461-1.228,1.132-1.525.512-2.558-4.734-7.874,1.007-14.759,1.865-14.017a10.648,10.648,0,0,1,2.166,10.17" transform="translate(11.987 9.536)" fill="#908686"/>
        <path id="Trazado_596545" data-name="Trazado 596545" d="M38.794,36.407c-.521,1.634-2.291,6-4.543,6.4.461-1.228,1.132-1.525.512-2.558-4.734-7.874,1.007-14.759,1.865-14.017A10.648,10.648,0,0,1,38.794,36.407Z" transform="translate(11.987 9.536)" fill="none" stroke="#000" stroke-linecap="round" stroke-linejoin="round" stroke-width="0.495"/>
        <path id="Trazado_596546" data-name="Trazado 596546" d="M23.2,26.633s-1.438,1.853-.261,3.441" transform="translate(8.184 9.7)" fill="none" stroke="#000" stroke-linecap="round" stroke-linejoin="round" stroke-width="0.495"/>
        <path id="Trazado_596547" data-name="Trazado 596547" d="M35.5,23.774c-.54,1.621-1.673,4.434-.177,4.933s3.108-.126,4.55-3.265c.713-1.552.105-3.614-1.39-4.113s-2.442.824-2.982,2.445" transform="translate(12.593 7.73)" fill="#f5e8dd"/>
        <path id="Trazado_596548" data-name="Trazado 596548" d="M35.5,23.774c-.54,1.621-1.673,4.434-.177,4.933s3.108-.126,4.55-3.265c.713-1.552.105-3.614-1.39-4.113S36.037,22.153,35.5,23.774Z" transform="translate(12.593 7.73)" fill="none" stroke="#000" stroke-linecap="round" stroke-linejoin="round" stroke-width="0.495"/>
        <path id="Trazado_596549" data-name="Trazado 596549" d="M24.445,23.848c.54,1.622,1.673,4.434.177,4.933s-3.108-.124-4.55-3.263c-.712-1.552-.105-3.615,1.39-4.114s2.442.824,2.982,2.445" transform="translate(7.202 7.757)" fill="#f5e8dd"/>
        <path id="Trazado_596550" data-name="Trazado 596550" d="M24.445,23.848c.54,1.622,1.673,4.434.177,4.933s-3.108-.124-4.55-3.263c-.712-1.552-.105-3.615,1.39-4.114S23.9,22.227,24.445,23.848Z" transform="translate(7.202 7.757)" fill="none" stroke="#000" stroke-linecap="round" stroke-linejoin="round" stroke-width="0.495"/>
        <path id="Trazado_596551" data-name="Trazado 596551" d="M41.733,21.481c.383,8.574-3.1,18.683-10.032,18.683-7.022,0-10.182-10.57-9.847-18.913.308-7.682,4.952-11.581,10.185-11.483,5.17.1,9.363,4.295,9.694,11.713" transform="translate(7.95 3.557)" fill="#f5e8dd"/>
        <path id="Trazado_596552" data-name="Trazado 596552" d="M41.733,21.481c.383,8.574-3.1,18.683-10.032,18.683-7.022,0-10.182-10.57-9.847-18.913.308-7.682,4.952-11.581,10.185-11.483C37.209,9.864,41.4,14.062,41.733,21.481Z" transform="translate(7.95 3.557)" fill="none" stroke="#000" stroke-linecap="round" stroke-linejoin="round" stroke-width="0.495"/>
        <path id="Trazado_596553" data-name="Trazado 596553" d="M27.68,27.754a3.577,3.577,0,0,0,3.967,0" transform="translate(10.081 10.109)" fill="none" stroke="#000" stroke-linecap="round" stroke-linejoin="round" stroke-width="0.495"/>
        <path id="Trazado_596554" data-name="Trazado 596554" d="M25.231,23.186a.922.922,0,1,0,.907-1.085,1.008,1.008,0,0,0-.907,1.085" transform="translate(9.189 8.05)"/>
        <path id="Trazado_596555" data-name="Trazado 596555" d="M31.707,23.186a.922.922,0,1,0,.907-1.085,1.008,1.008,0,0,0-.907,1.085" transform="translate(11.548 8.05)"/>
        <path id="Trazado_596556" data-name="Trazado 596556" d="M24.464,20.578a3.258,3.258,0,0,1,3.632.471" transform="translate(8.91 7.364)" fill="none" stroke="#000" stroke-linecap="round" stroke-linejoin="round" stroke-width="0.495"/>
        <path id="Trazado_596557" data-name="Trazado 596557" d="M34.981,20.578a3.258,3.258,0,0,0-3.632.471" transform="translate(11.418 7.364)" fill="none" stroke="#000" stroke-linecap="round" stroke-linejoin="round" stroke-width="0.495"/>
        <line id="Línea_506" data-name="Línea 506" y2="0.546" transform="translate(39.745 34.936)" fill="none" stroke="#000" stroke-linecap="round" stroke-linejoin="round" stroke-width="0.495"/>
        <path id="Trazado_596558" data-name="Trazado 596558" d="M35.1,26.783s1.711,1.648.533,3.236" transform="translate(12.785 9.755)" fill="none" stroke="#000" stroke-linecap="round" stroke-linejoin="round" stroke-width="0.495"/>
        <path id="Trazado_596559" data-name="Trazado 596559" d="M27.315,10.127c-9.791,3.892-5.034,16.414-5.034,16.414,2.321-3.14,3.533-6.2,6.262-11.526.919,3.693,5.666,8.454,13.65,10.5,0,0,2.885-10.292-4.637-14.781a11.661,11.661,0,0,0-10.241-.608" transform="translate(7.694 3.363)" fill="#908686"/>
        <path id="Trazado_596560" data-name="Trazado 596560" d="M27.315,10.127c-9.791,3.892-5.034,16.414-5.034,16.414,2.321-3.14,3.533-6.2,6.262-11.526.919,3.693,5.666,8.454,13.65,10.5,0,0,2.885-10.292-4.637-14.781A11.661,11.661,0,0,0,27.315,10.127Z" transform="translate(7.694 3.363)" fill="none" stroke="#000" stroke-linecap="round" stroke-linejoin="round" stroke-width="0.495"/>
        <path id="Trazado_596561" data-name="Trazado 596561" d="M33.943,14.822a12.035,12.035,0,0,1,3.446,7.917" transform="translate(12.362 5.399)" fill="none" stroke="#000" stroke-linecap="round" stroke-linejoin="round" stroke-width="0.495"/>
        <path id="Trazado_596562" data-name="Trazado 596562" d="M22.874,16.21s-.512.563-.512,2.559" transform="translate(8.144 5.904)" fill="none" stroke="#000" stroke-linecap="round" stroke-linejoin="round" stroke-width="0.495"/>
        <path id="Trazado_596563" data-name="Trazado 596563" d="M32.242,16.648A5.8,5.8,0,0,0,34.256,18.7" transform="translate(11.743 6.064)" fill="none" stroke="#000" stroke-linecap="round" stroke-linejoin="round" stroke-width="0.495"/>
        <path id="Trazado_596564" data-name="Trazado 596564" d="M42.415,36.875c3.173.8,5.524,4.824,5.7,13.459.192,9.609.711,15.391-4.031,16.152-.76.123-3.038.394-4.348-3.8L40.948,48.9Z" transform="translate(14.471 13.431)" fill="#8090a2"/>
        <path id="Trazado_596565" data-name="Trazado 596565" d="M42.415,36.875c3.173.8,5.524,4.824,5.7,13.459.192,9.609.711,15.391-4.031,16.152-.76.123-3.038.394-4.348-3.8L40.948,48.9Z" transform="translate(14.471 13.431)" fill="none" stroke="#000" stroke-linecap="round" stroke-linejoin="round" stroke-width="0.495"/>
        <path id="Trazado_596566" data-name="Trazado 596566" d="M48.256,42.072c-2.619-.482-5.043.176-5.292,1.524s1.773,2.877,4.394,3.36,4.944-.221,5.192-1.57-1.674-2.832-4.295-3.314" transform="translate(15.641 15.266)" fill="#8090a2"/>
        <path id="Trazado_596567" data-name="Trazado 596567" d="M48.256,42.072c-2.619-.482-5.043.176-5.292,1.524s1.773,2.877,4.394,3.36,4.944-.221,5.192-1.57S50.877,42.554,48.256,42.072Z" transform="translate(15.641 15.266)" fill="none" stroke="#000" stroke-linecap="round" stroke-linejoin="round" stroke-width="0.495"/>
        <path id="Trazado_596568" data-name="Trazado 596568" d="M47.368,36.039c.847.452,2.748.7,3.063.113s-.366-2.16-1.307-1.971c-1.28.256-2.4-.834-2.711-.244a1.784,1.784,0,0,0,.955,2.1" transform="translate(16.866 12.296)" fill="#f5e8dd"/>
        <path id="Trazado_596569" data-name="Trazado 596569" d="M47.368,36.039c.847.452,2.748.7,3.063.113s-.366-2.16-1.307-1.971c-1.28.256-2.4-.834-2.711-.244A1.784,1.784,0,0,0,47.368,36.039Z" transform="translate(16.866 12.296)" fill="none" stroke="#000" stroke-linecap="round" stroke-linejoin="round" stroke-width="0.495"/>
        <path id="Trazado_596570" data-name="Trazado 596570" d="M43.952,37.946c.023-.907.861-1.437,1.214-1.7a6.283,6.283,0,0,1,.995-.168c.31,0,.967-.715,1.664-.618a1.558,1.558,0,0,1,1.727-.547s.862-1.116,1.611-.854c0,0,.791.651,1.689,1.468.423.385,1.142.66,1.494,1.173a2.728,2.728,0,0,1-.012,1.835s-1.157,5.3-3.694,7.054l-.291,3.745a3.917,3.917,0,0,1-3.443.951A3.973,3.973,0,0,1,44.268,47.6l.383-2.518s-.726-3.041.079-4.837c-1-.4-.8-1.424-.778-2.3" transform="translate(15.996 12.391)" fill="#f5e8dd"/>
        <path id="Trazado_596571" data-name="Trazado 596571" d="M43.952,37.946c.023-.907.861-1.437,1.214-1.7a6.283,6.283,0,0,1,.995-.168c.31,0,.967-.715,1.664-.618a1.558,1.558,0,0,1,1.727-.547s.862-1.116,1.611-.854c0,0,.791.651,1.689,1.468.423.385,1.142.66,1.494,1.173a2.728,2.728,0,0,1-.012,1.835s-1.157,5.3-3.694,7.054l-.291,3.745a3.917,3.917,0,0,1-3.443.951A3.973,3.973,0,0,1,44.268,47.6l.383-2.518s-.726-3.041.079-4.837C43.729,39.848,43.929,38.821,43.952,37.946Z" transform="translate(15.996 12.391)" fill="none" stroke="#000" stroke-linecap="round" stroke-linejoin="round" stroke-width="0.495"/>
        <path id="Trazado_596572" data-name="Trazado 596572" d="M44.786,37.279a2.55,2.55,0,0,0,.262.765,2.41,2.41,0,0,0-.437.921" transform="translate(16.248 13.578)" fill="none" stroke="#000" stroke-linecap="round" stroke-linejoin="round" stroke-width="0.495"/>
        <path id="Trazado_596573" data-name="Trazado 596573" d="M45.21,35.654A10.526,10.526,0,0,0,46.8,37.163" transform="translate(16.466 12.986)" fill="none" stroke="#000" stroke-linecap="round" stroke-linejoin="round" stroke-width="0.495"/>
        <path id="Trazado_596574" data-name="Trazado 596574" d="M46.481,35.068a8.792,8.792,0,0,0,2.072,1.442" transform="translate(16.929 12.773)" fill="none" stroke="#000" stroke-linecap="round" stroke-linejoin="round" stroke-width="0.495"/>
        <path id="Trazado_596575" data-name="Trazado 596575" d="M48.159,34.715a4.611,4.611,0,0,0,1.7,1.28" transform="translate(17.54 12.644)" fill="none" stroke="#000" stroke-linecap="round" stroke-linejoin="round" stroke-width="0.495"/>
        <path id="Trazado_596576" data-name="Trazado 596576" d="M39.553,59.12a38.539,38.539,0,0,1,4.672-16s2.464,3.33,4.889,3.8c2.667.516,4.754-2.217,4.754-2.217s-3.263,14.463-5.814,17.332a4.927,4.927,0,0,1-6.24,2.243c-2.233-.756-2.457-3.06-2.262-5.158" transform="translate(14.385 15.706)" fill="#8090a2"/>
        <path id="Trazado_596577" data-name="Trazado 596577" d="M39.553,59.12a38.539,38.539,0,0,1,4.672-16s2.464,3.33,4.889,3.8c2.667.516,4.754-2.217,4.754-2.217s-3.263,14.463-5.814,17.332a4.927,4.927,0,0,1-6.24,2.243C39.581,63.522,39.358,61.218,39.553,59.12Z" transform="translate(14.385 15.706)" fill="none" stroke="#000" stroke-linecap="round" stroke-linejoin="round" stroke-width="0.495"/>
        <path id="Trazado_596578" data-name="Trazado 596578" d="M18,36.875c-3.173.8-5.524,4.824-5.7,13.459-.192,9.609-.709,15.391,4.033,16.152.76.123,3.038.394,4.348-3.8L19.892,50.84Z" transform="translate(4.437 13.431)" fill="#8090a2"/>
        <path id="Trazado_596579" data-name="Trazado 596579" d="M18,36.875c-3.173.8-5.524,4.824-5.7,13.459-.192,9.609-.709,15.391,4.033,16.152.76.123,3.038.394,4.348-3.8L19.892,50.84Z" transform="translate(4.437 13.431)" fill="none" stroke="#000" stroke-linecap="round" stroke-linejoin="round" stroke-width="0.495"/>
        <path id="Trazado_596580" data-name="Trazado 596580" d="M12.458,42.072c2.619-.482,5.043.176,5.292,1.524s-1.773,2.877-4.394,3.36-4.944-.221-5.192-1.57,1.675-2.832,4.295-3.314" transform="translate(2.965 15.266)" fill="#8090a2"/>
        <path id="Trazado_596581" data-name="Trazado 596581" d="M12.458,42.072c2.619-.482,5.043.176,5.292,1.524s-1.773,2.877-4.394,3.36-4.944-.221-5.192-1.57S9.839,42.554,12.458,42.072Z" transform="translate(2.965 15.266)" fill="none" stroke="#000" stroke-linecap="round" stroke-linejoin="round" stroke-width="0.495"/>
        <path id="Trazado_596582" data-name="Trazado 596582" d="M11.9,36.039c-.849.452-2.748.7-3.063.113s.366-2.16,1.307-1.971c1.278.256,2.4-.834,2.711-.244a1.784,1.784,0,0,1-.955,2.1" transform="translate(3.19 12.296)" fill="#f5e8dd"/>
        <path id="Trazado_596583" data-name="Trazado 596583" d="M11.9,36.039c-.849.452-2.748.7-3.063.113s.366-2.16,1.307-1.971c1.278.256,2.4-.834,2.711-.244A1.784,1.784,0,0,1,11.9,36.039Z" transform="translate(3.19 12.296)" fill="none" stroke="#000" stroke-linecap="round" stroke-linejoin="round" stroke-width="0.495"/>
        <path id="Trazado_596584" data-name="Trazado 596584" d="M17.013,37.946c-.023-.907-.861-1.437-1.214-1.7a6.283,6.283,0,0,0-.995-.168c-.31,0-.967-.715-1.664-.618a1.558,1.558,0,0,0-1.727-.547S10.551,33.8,9.8,34.06c0,0-.791.651-1.689,1.468-.423.385-1.142.66-1.494,1.173a2.728,2.728,0,0,0,.012,1.835s1.157,5.3,3.694,7.054l.291,3.745a3.917,3.917,0,0,0,3.443.951A3.973,3.973,0,0,0,16.7,47.6l-.383-2.518s.726-3.041-.079-4.837c1-.4.8-1.424.778-2.3" transform="translate(2.36 12.391)" fill="#f5e8dd"/>
        <path id="Trazado_596585" data-name="Trazado 596585" d="M17.013,37.946c-.023-.907-.861-1.437-1.214-1.7a6.283,6.283,0,0,0-.995-.168c-.31,0-.967-.715-1.664-.618a1.558,1.558,0,0,0-1.727-.547S10.551,33.8,9.8,34.06c0,0-.791.651-1.689,1.468-.423.385-1.142.66-1.494,1.173a2.728,2.728,0,0,0,.012,1.835s1.157,5.3,3.694,7.054l.291,3.745a3.917,3.917,0,0,0,3.443.951A3.973,3.973,0,0,0,16.7,47.6l-.383-2.518s.726-3.041-.079-4.837C17.237,39.848,17.036,38.821,17.013,37.946Z" transform="translate(2.36 12.391)" fill="none" stroke="#000" stroke-linecap="round" stroke-linejoin="round" stroke-width="0.495"/>
        <path id="Trazado_596586" data-name="Trazado 596586" d="M13.476,37.279a2.55,2.55,0,0,1-.262.765,2.41,2.41,0,0,1,.437.921" transform="translate(4.813 13.578)" fill="none" stroke="#000" stroke-linecap="round" stroke-linejoin="round" stroke-width="0.495"/>
        <path id="Trazado_596587" data-name="Trazado 596587" d="M13.358,35.654a10.527,10.527,0,0,1-1.587,1.509" transform="translate(4.287 12.986)" fill="none" stroke="#000" stroke-linecap="round" stroke-linejoin="round" stroke-width="0.495"/>
        <path id="Trazado_596588" data-name="Trazado 596588" d="M12.217,35.068a8.792,8.792,0,0,1-2.072,1.442" transform="translate(3.695 12.773)" fill="none" stroke="#000" stroke-linecap="round" stroke-linejoin="round" stroke-width="0.495"/>
        <path id="Trazado_596589" data-name="Trazado 596589" d="M10.44,34.715a4.611,4.611,0,0,1-1.7,1.28" transform="translate(3.183 12.644)" fill="none" stroke="#000" stroke-linecap="round" stroke-linejoin="round" stroke-width="0.495"/>
        <path id="Trazado_596590" data-name="Trazado 596590" d="M22.429,59.12a38.539,38.539,0,0,0-4.672-16s-2.464,3.33-4.889,3.8C10.2,47.436,8.113,44.7,8.113,44.7s3.263,14.463,5.814,17.332a4.927,4.927,0,0,0,6.24,2.243c2.233-.756,2.457-3.06,2.262-5.158" transform="translate(2.955 15.706)" fill="#8090a2"/>
        <path id="Trazado_596591" data-name="Trazado 596591" d="M22.429,59.12a38.539,38.539,0,0,0-4.672-16s-2.464,3.33-4.889,3.8C10.2,47.436,8.113,44.7,8.113,44.7s3.263,14.463,5.814,17.332a4.927,4.927,0,0,0,6.24,2.243C22.4,63.522,22.624,61.218,22.429,59.12Z" transform="translate(2.955 15.706)" fill="none" stroke="#000" stroke-linecap="round" stroke-linejoin="round" stroke-width="0.495"/>
      </g>
    </g>
  </g>
</svg>
