<svg xmlns="http://www.w3.org/2000/svg" xmlns:xlink="http://www.w3.org/1999/xlink" width="120" height="120" viewBox="0 0 120 120">
  <defs>
    <clipPath id="clip-path">
      <rect id="Rectángulo_299319" data-name="Rectángulo 299319" width="78.171" height="86.644" fill="none"/>
    </clipPath>
  </defs>
  <g id="Grupo_1072188" data-name="Grupo 1072188" transform="translate(-180 -1808.712)">
    <path id="Trazado_608973" data-name="Trazado 608973" d="M60,0A60,60,0,1,1,0,60,60,60,0,0,1,60,0Z" transform="translate(180 1808.712)" fill="#e1efe3"/>
    <g id="Grupo_1072145" data-name="Grupo 1072145" transform="translate(23.42 -3.774)">
      <g id="Grupo_881693" data-name="Grupo 881693" transform="translate(172.141 1821.407)">
        <g id="Grupo_881692" data-name="Grupo 881692" transform="translate(0 0)" clip-path="url(#clip-path)">
          <path id="Trazado_596472" data-name="Trazado 596472" d="M51.951,36.7s5.382,3.084,5.772,9.252c0,0,.456,3.387,1.921,19.231,1.4,15.111,2.5,23.092,2.5,23.092a26.509,26.509,0,0,1-4.494.938,19.506,19.506,0,0,1-4.813.068L49.7,63.3l.586-9.252Z" transform="translate(11.773 8.692)" fill="#6a7984"/>
          <path id="Trazado_596473" data-name="Trazado 596473" d="M51.951,36.7s5.382,3.084,5.772,9.252c0,0,.456,3.387,1.921,19.231,1.4,15.111,2.5,23.092,2.5,23.092a26.509,26.509,0,0,1-4.494.938,19.506,19.506,0,0,1-4.813.068L49.7,63.3l.586-9.252Z" transform="translate(11.773 8.692)" fill="none" stroke="#000" stroke-linecap="round" stroke-linejoin="round" stroke-width="0.495"/>
          <path id="Trazado_596474" data-name="Trazado 596474" d="M55.895,62.5s-1.791,1.986-3.42,1.889a2.93,2.93,0,0,0,1.727,1.3" transform="translate(12.429 14.804)" fill="none" stroke="#000" stroke-linecap="round" stroke-linejoin="round" stroke-width="0.495"/>
          <path id="Trazado_596475" data-name="Trazado 596475" d="M38.07,65.281c7.857-12.275,6.589-32.547,6.589-32.547H31.481S30.214,53.006,38.07,65.281" transform="translate(7.439 7.754)" fill="#fff"/>
          <path id="Trazado_596476" data-name="Trazado 596476" d="M38.07,65.281c7.857-12.275,6.589-32.547,6.589-32.547H31.481S30.214,53.006,38.07,65.281Z" transform="translate(7.439 7.754)" fill="none" stroke="#000" stroke-linecap="round" stroke-linejoin="round" stroke-width="0.495"/>
          <path id="Trazado_596477" data-name="Trazado 596477" d="M43.778,40.322C41.9,34.68,42.331,26.546,42.331,26.546H33.407s.657,7.743-1.352,13.776Z" transform="translate(7.593 6.288)" fill="#f2e3d4"/>
          <path id="Trazado_596478" data-name="Trazado 596478" d="M43.778,40.322C41.9,34.68,42.331,26.546,42.331,26.546H33.407s.657,7.743-1.352,13.776Z" transform="translate(7.593 6.288)" fill="none" stroke="#000" stroke-linecap="round" stroke-linejoin="round" stroke-width="0.495"/>
          <path id="Trazado_596479" data-name="Trazado 596479" d="M38.714,41.4H36.188L35.1,45.269l-1,29.084L37.5,79.108l3.257-4.756-1-29.084Z" transform="translate(8.079 9.805)" fill="#6f8bc4"/>
          <path id="Trazado_596480" data-name="Trazado 596480" d="M38.714,41.4H36.188L35.1,45.269l-1,29.084L37.5,79.108l3.257-4.756-1-29.084Z" transform="translate(8.079 9.805)" fill="none" stroke="#000" stroke-linecap="round" stroke-linejoin="round" stroke-width="0.495"/>
          <path id="Trazado_596481" data-name="Trazado 596481" d="M40.47,38.776c.015-1.326-1.81-1.409-3.059-1.424s-3.116.026-3.131,1.352,1.368,4.142,3.086,4.141,3.088-2.743,3.1-4.069" transform="translate(8.12 8.847)" fill="#6f8bc4"/>
          <path id="Trazado_596482" data-name="Trazado 596482" d="M40.47,38.776c.015-1.326-1.81-1.409-3.059-1.424s-3.116.026-3.131,1.352,1.368,4.142,3.086,4.141S40.455,40.1,40.47,38.776Z" transform="translate(8.12 8.847)" fill="none" stroke="#000" stroke-linecap="round" stroke-linejoin="round" stroke-width="0.495"/>
          <path id="Trazado_596483" data-name="Trazado 596483" d="M56.14,65.939l2.581-28.324S46.9,32.254,46.85,33.094c-.223,3.727.981,12.8-6.567,31.035-7.107-18.187-6.344-27.277-6.565-31-.051-.84-11.871,4.487-11.871,4.487l2.581,28.324L22.723,91.307c6.231,3.1,16.2,1.263,16.2,1.263L40.292,85.1l1.3,7.466s10.02,1.836,16.251-1.263Z" transform="translate(5.175 7.818)" fill="#6a7984"/>
          <path id="Trazado_596484" data-name="Trazado 596484" d="M56.14,65.939l2.581-28.324S46.9,32.254,46.85,33.094c-.223,3.727.981,12.8-6.567,31.035-7.107-18.187-6.344-27.277-6.565-31-.051-.84-11.871,4.487-11.871,4.487l2.581,28.324L22.723,91.307c6.231,3.1,16.2,1.263,16.2,1.263L40.292,85.1l1.3,7.466s10.02,1.836,16.251-1.263Z" transform="translate(5.175 7.818)" fill="none" stroke="#000" stroke-linecap="round" stroke-linejoin="round" stroke-width="0.495"/>
          <path id="Trazado_596485" data-name="Trazado 596485" d="M31.718,34.679a15.559,15.559,0,0,1,1.69-2.495c-.166,1.572.884,3.526,4.647,6.058.531.356-5.738,5.845-5.738,5.845a22.2,22.2,0,0,1-.6-9.409" transform="translate(7.455 7.621)" fill="#fff"/>
          <path id="Trazado_596486" data-name="Trazado 596486" d="M31.718,34.679a15.559,15.559,0,0,1,1.69-2.495c-.166,1.572.884,3.526,4.647,6.058.531.356-5.738,5.845-5.738,5.845A22.2,22.2,0,0,1,31.718,34.679Z" transform="translate(7.455 7.621)" fill="none" stroke="#000" stroke-linecap="round" stroke-linejoin="round" stroke-width="0.495"/>
          <path id="Trazado_596487" data-name="Trazado 596487" d="M43.371,34.679a15.558,15.558,0,0,0-1.69-2.495c.166,1.572-.884,3.526-4.647,6.058-.531.356,5.738,5.845,5.738,5.845a22.2,22.2,0,0,0,.6-9.409" transform="translate(8.765 7.621)" fill="#fff"/>
          <path id="Trazado_596488" data-name="Trazado 596488" d="M43.371,34.679a15.558,15.558,0,0,0-1.69-2.495c.166,1.572-.884,3.526-4.647,6.058-.531.356,5.738,5.845,5.738,5.845A22.2,22.2,0,0,0,43.371,34.679Z" transform="translate(8.765 7.621)" fill="none" stroke="#000" stroke-linecap="round" stroke-linejoin="round" stroke-width="0.495"/>
          <path id="Trazado_596489" data-name="Trazado 596489" d="M29.469,35.671l-3.241,4.16,3,2.068-2.28,2.8s3.487,7.262,6.22,11.886a44.727,44.727,0,0,0,6.09,7.979S30.958,43.07,33.042,34.8l1.49-2.8a12.962,12.962,0,0,0-5.064,3.673" transform="translate(6.212 7.579)" fill="#6a7984"/>
          <path id="Trazado_596490" data-name="Trazado 596490" d="M29.469,35.671l-3.241,4.16,3,2.068-2.28,2.8s3.487,7.262,6.22,11.886a44.727,44.727,0,0,0,6.09,7.979S30.958,43.07,33.042,34.8l1.49-2.8A12.962,12.962,0,0,0,29.469,35.671Z" transform="translate(6.212 7.579)" fill="none" stroke="#000" stroke-linecap="round" stroke-linejoin="round" stroke-width="0.495"/>
          <path id="Trazado_596491" data-name="Trazado 596491" d="M46.678,35.671l3.241,4.16-3,2.068,2.28,2.8s-3.487,7.262-6.22,11.886a44.727,44.727,0,0,1-6.09,7.979S45.189,43.07,43.1,34.8L41.614,32a12.962,12.962,0,0,1,5.064,3.673" transform="translate(8.738 7.579)" fill="#6a7984"/>
          <path id="Trazado_596492" data-name="Trazado 596492" d="M46.678,35.671l3.241,4.16-3,2.068,2.28,2.8s-3.487,7.262-6.22,11.886a44.727,44.727,0,0,1-6.09,7.979S45.189,43.07,43.1,34.8L41.614,32A12.962,12.962,0,0,1,46.678,35.671Z" transform="translate(8.738 7.579)" fill="none" stroke="#000" stroke-linecap="round" stroke-linejoin="round" stroke-width="0.495"/>
          <path id="Trazado_596493" data-name="Trazado 596493" d="M30.791,69.333l-5.748-.377.218-2.224,5.839.289Z" transform="translate(5.932 15.807)" fill="#6a7984"/>
          <path id="Trazado_596494" data-name="Trazado 596494" d="M30.791,69.333l-5.748-.377.218-2.224,5.839.289Z" transform="translate(5.932 15.807)" fill="none" stroke="#000" stroke-linecap="round" stroke-linejoin="round" stroke-width="0.495"/>
          <path id="Trazado_596495" data-name="Trazado 596495" d="M43.652,69.333l5.748-.377-.218-2.224-5.839.289Z" transform="translate(10.266 15.807)" fill="#6a7984"/>
          <path id="Trazado_596496" data-name="Trazado 596496" d="M43.652,69.333l5.748-.377-.218-2.224-5.839.289Z" transform="translate(10.266 15.807)" fill="none" stroke="#000" stroke-linecap="round" stroke-linejoin="round" stroke-width="0.495"/>
          <path id="Trazado_596497" data-name="Trazado 596497" d="M38.758,60.924a1.531,1.531,0,1,1-1.531-1.531,1.531,1.531,0,0,1,1.531,1.531" transform="translate(8.455 14.068)"/>
          <path id="Trazado_596498" data-name="Trazado 596498" d="M38.758,68.35a1.531,1.531,0,1,1-1.531-1.53,1.531,1.531,0,0,1,1.531,1.53" transform="translate(8.455 15.828)"/>
          <path id="Trazado_596499" data-name="Trazado 596499" d="M23.132,36.734c-3.3.746-5.834,4.832-6.245,13.745-.458,9.918-1.017,16.233,3.859,17.147.782.147,3.225.879,4.689-3.419Z" transform="translate(3.931 8.701)" fill="#6a7984"/>
          <path id="Trazado_596500" data-name="Trazado 596500" d="M23.132,36.734c-3.3.746-5.834,4.832-6.245,13.745-.458,9.918-1.017,16.233,3.859,17.147.782.147,3.225.879,4.689-3.419Z" transform="translate(3.931 8.701)" fill="none" stroke="#000" stroke-linecap="round" stroke-linejoin="round" stroke-width="0.495"/>
          <path id="Trazado_596501" data-name="Trazado 596501" d="M16.218,39.21c2.719-.427,5.2.318,5.424,1.717s-1.91,2.924-4.628,3.351-5.1-.361-5.32-1.761,1.806-2.879,4.524-3.306" transform="translate(2.766 9.259)" fill="#6a7984"/>
          <path id="Trazado_596502" data-name="Trazado 596502" d="M16.218,39.21c2.719-.427,5.2.318,5.424,1.717s-1.91,2.924-4.628,3.351-5.1-.361-5.32-1.761S13.5,39.637,16.218,39.21Z" transform="translate(2.766 9.259)" fill="none" stroke="#000" stroke-linecap="round" stroke-linejoin="round" stroke-width="0.495"/>
          <path id="Trazado_596503" data-name="Trazado 596503" d="M21.4,32.962a2.968,2.968,0,0,0-.161-2.25,3.109,3.109,0,0,0-1.37-1.411,2.542,2.542,0,0,0-1.4-1.093,6.648,6.648,0,0,0-2.234-.172,2.01,2.01,0,0,0-1.565,1.714,3.039,3.039,0,0,0-.067.98l-1.137-3.52C12.743,24.64,11.65,23.171,11,23.95c-.335.4,1.3,6.836,1.76,8.559-.047.033-2.529-3.041-2.529-3.041-1.5-1.7-2.978-3.1-3.7-2.61-1.033.705,3.521,6.187,4.357,7.67,0,0-4.579-3.816-5.5-1.547-.085.214,1.554.67,5.253,4.165a10.3,10.3,0,0,0,3.132,4.036l.615,3.077a7.719,7.719,0,0,0,4.508.506c2.612-.464,2.318-.97,2.318-.97l-1.143-4.3a8.68,8.68,0,0,0,.266-2.957A12.541,12.541,0,0,0,21.4,32.962m-3.379-3.118a1.765,1.765,0,0,0,1.106.49,3.992,3.992,0,0,0-.016,2.064,10.336,10.336,0,0,1-.527,1.369c-.545-.5-.968-1.474-1.693-2.115a3.16,3.16,0,0,0,.062-1.132.662.662,0,0,0-.1-.3,1.949,1.949,0,0,0,1.169-.38" transform="translate(1.275 5.624)" fill="#f2e3d4"/>
          <path id="Trazado_596504" data-name="Trazado 596504" d="M21.4,32.962a2.968,2.968,0,0,0-.161-2.25,3.109,3.109,0,0,0-1.37-1.411,2.542,2.542,0,0,0-1.4-1.093,6.648,6.648,0,0,0-2.234-.172,2.01,2.01,0,0,0-1.565,1.714,3.039,3.039,0,0,0-.067.98l-1.137-3.52C12.743,24.64,11.65,23.171,11,23.95c-.335.4,1.3,6.836,1.76,8.559-.047.033-2.529-3.041-2.529-3.041-1.5-1.7-2.978-3.1-3.7-2.61-1.033.705,3.521,6.187,4.357,7.67,0,0-4.579-3.816-5.5-1.547-.085.214,1.554.67,5.253,4.165a10.3,10.3,0,0,0,3.132,4.036l.615,3.077a7.719,7.719,0,0,0,4.508.506c2.612-.464,2.318-.97,2.318-.97l-1.143-4.3a8.68,8.68,0,0,0,.266-2.957A12.541,12.541,0,0,0,21.4,32.962Zm-3.379-3.118a1.765,1.765,0,0,0,1.106.49,3.992,3.992,0,0,0-.016,2.064,10.336,10.336,0,0,1-.527,1.369c-.545-.5-.968-1.474-1.693-2.115a3.16,3.16,0,0,0,.062-1.132.662.662,0,0,0-.1-.3A1.949,1.949,0,0,0,18.016,29.844Z" transform="translate(1.275 5.624)" fill="none" stroke="#000" stroke-linecap="round" stroke-linejoin="round" stroke-width="0.495"/>
          <path id="Trazado_596505" data-name="Trazado 596505" d="M14.859,32.29s-1.558,2.233-1.18,4.255" transform="translate(3.226 7.649)" fill="none" stroke="#000" stroke-linecap="round" stroke-linejoin="round" stroke-width="0.495"/>
          <path id="Trazado_596506" data-name="Trazado 596506" d="M16.547,29.352s.861-.174.829-.874" transform="translate(3.919 6.746)" fill="none" stroke="#000" stroke-linecap="round" stroke-linejoin="round" stroke-width="0.495"/>
          <path id="Trazado_596507" data-name="Trazado 596507" d="M13.258,43.429l-1.012-3.237a5.778,5.778,0,0,0,4.19,1.014,4.3,4.3,0,0,0,3.322-2.377l1.18,3.22s.388,1.8-1.848,2.268a8.361,8.361,0,0,1-5.833-.888" transform="translate(2.901 9.197)" fill="#fff"/>
          <path id="Trazado_596508" data-name="Trazado 596508" d="M13.258,43.429l-1.012-3.237a5.778,5.778,0,0,0,4.19,1.014,4.3,4.3,0,0,0,3.322-2.377l1.18,3.22s.388,1.8-1.848,2.268A8.361,8.361,0,0,1,13.258,43.429Z" transform="translate(2.901 9.197)" fill="none" stroke="#000" stroke-linecap="round" stroke-linejoin="round" stroke-width="0.495"/>
          <path id="Trazado_596509" data-name="Trazado 596509" d="M11.642,41.9s3,18.422,5.556,21.858c0,0,2.2,4.643,6.806,3.028,2.327-.815,2.849-5.028,2.7-7.49-.354-6.016-1.643-10.585-5.062-18.751,0,0,.205,1.922-2.265,2.6A10.1,10.1,0,0,1,11.642,41.9" transform="translate(2.758 9.604)" fill="#6a7984"/>
          <path id="Trazado_596510" data-name="Trazado 596510" d="M11.642,41.9s3,18.422,5.556,21.858c0,0,2.2,4.643,6.806,3.028,2.327-.815,2.849-5.028,2.7-7.49-.354-6.016-1.643-10.585-5.062-18.751,0,0,.205,1.922-2.265,2.6A10.1,10.1,0,0,1,11.642,41.9Z" transform="translate(2.758 9.604)" fill="none" stroke="#000" stroke-linecap="round" stroke-linejoin="round" stroke-width="0.495"/>
          <path id="Trazado_596511" data-name="Trazado 596511" d="M31.219,21.481c.516,1.546,1.6,4.231.169,4.708s-2.966-.119-4.343-3.116c-.68-1.481-.1-3.45,1.327-3.925s2.331.787,2.846,2.333" transform="translate(6.339 4.512)" fill="#f2e3d4"/>
          <path id="Trazado_596512" data-name="Trazado 596512" d="M31.219,21.481c.516,1.546,1.6,4.231.169,4.708s-2.966-.119-4.343-3.116c-.68-1.481-.1-3.45,1.327-3.925S30.7,19.935,31.219,21.481Z" transform="translate(6.339 4.512)" fill="none" stroke="#000" stroke-linecap="round" stroke-linejoin="round" stroke-width="0.495"/>
          <path id="Trazado_596513" data-name="Trazado 596513" d="M43.2,21.481c-.516,1.546-1.6,4.231-.169,4.708S46,26.07,47.375,23.073c.68-1.481.1-3.45-1.327-3.925s-2.331.787-2.846,2.333" transform="translate(10.025 4.512)" fill="#f2e3d4"/>
          <path id="Trazado_596514" data-name="Trazado 596514" d="M43.2,21.481c-.516,1.546-1.6,4.231-.169,4.708S46,26.07,47.375,23.073c.68-1.481.1-3.45-1.327-3.925S43.716,19.935,43.2,21.481Z" transform="translate(10.025 4.512)" fill="none" stroke="#000" stroke-linecap="round" stroke-linejoin="round" stroke-width="0.495"/>
          <path id="Trazado_596515" data-name="Trazado 596515" d="M48.087,19.348c-.14,8.5-1.964,17.61-9.608,17.61-8.135,0-9.608-10.286-9.608-17.61S33.433,6.864,38.739,6.864s9.468,5.161,9.348,12.484" transform="translate(6.839 1.626)" fill="#f2e3d4"/>
          <path id="Trazado_596516" data-name="Trazado 596516" d="M48.087,19.348c-.14,8.5-1.964,17.61-9.608,17.61-8.135,0-9.608-10.286-9.608-17.61S33.433,6.864,38.739,6.864,48.207,12.025,48.087,19.348Z" transform="translate(6.839 1.626)" fill="none" stroke="#000" stroke-linecap="round" stroke-linejoin="round" stroke-width="0.495"/>
          <path id="Trazado_596517" data-name="Trazado 596517" d="M41.081,20.985a.869.869,0,1,1-.866-.944.906.906,0,0,1,.866.944" transform="translate(9.32 4.747)"/>
          <path id="Trazado_596518" data-name="Trazado 596518" d="M34.264,20.985a.869.869,0,1,1-.866-.944.906.906,0,0,1,.866.944" transform="translate(7.706 4.747)"/>
          <path id="Trazado_596519" data-name="Trazado 596519" d="M35.032,26.569a3.288,3.288,0,0,0,4.036-.021" transform="translate(8.298 6.289)" fill="none" stroke="#000" stroke-linecap="round" stroke-linejoin="round" stroke-width="0.495"/>
          <path id="Trazado_596520" data-name="Trazado 596520" d="M31.738,18.721a2.311,2.311,0,0,1,3.008.193" transform="translate(7.518 4.328)" fill="none" stroke="#000" stroke-linecap="round" stroke-linejoin="round" stroke-width="0.495"/>
          <path id="Trazado_596521" data-name="Trazado 596521" d="M42.118,18.721a2.311,2.311,0,0,0-3.008.193" transform="translate(9.264 4.328)" fill="none" stroke="#000" stroke-linecap="round" stroke-linejoin="round" stroke-width="0.495"/>
          <line id="Línea_505" data-name="Línea 505" y2="0.521" transform="translate(45.334 30.182)" fill="none" stroke="#000" stroke-linecap="round" stroke-linejoin="round" stroke-width="0.495"/>
          <path id="Trazado_596522" data-name="Trazado 596522" d="M51.126,16.676c0-3.133-1.834-6.33-3.419-6.755-.193-1.839-2.8-4.383-6.319-3.5a7.209,7.209,0,0,0-4.625-1.368c-3.651,0-6.658,2.779-7.106,5.19-1.45.977-2.631,3.733-2.631,6.437a7.915,7.915,0,0,0,2.507,6.057,51.533,51.533,0,0,0,1.677-9.7c1.384,1.661,5.072,2.743,8.844,1.683A8.871,8.871,0,0,0,47.086,15,52.312,52.312,0,0,0,48.5,22.732a7.927,7.927,0,0,0,2.626-6.057" transform="translate(6.402 1.196)" fill="#80786c"/>
          <path id="Trazado_596523" data-name="Trazado 596523" d="M51.126,16.676c0-3.133-1.834-6.33-3.419-6.755-.193-1.839-2.8-4.383-6.319-3.5a7.209,7.209,0,0,0-4.625-1.368c-3.651,0-6.658,2.779-7.106,5.19-1.45.977-2.631,3.733-2.631,6.437a7.915,7.915,0,0,0,2.507,6.057,51.533,51.533,0,0,0,1.677-9.7c1.384,1.661,5.072,2.743,8.844,1.683A8.871,8.871,0,0,0,47.086,15,52.312,52.312,0,0,0,48.5,22.732,7.927,7.927,0,0,0,51.126,16.676Z" transform="translate(6.402 1.196)" fill="none" stroke="#000" stroke-linecap="round" stroke-linejoin="round" stroke-width="0.495"/>
          <path id="Trazado_596524" data-name="Trazado 596524" d="M38.163,13.28s-.912.13-3.354-2.28" transform="translate(8.245 2.606)" fill="none" stroke="#000" stroke-linecap="round" stroke-linejoin="round" stroke-width="0.495"/>
          <path id="Trazado_596525" data-name="Trazado 596525" d="M39.883,10.183a5.642,5.642,0,0,1,4.127,3.468" transform="translate(9.447 2.412)" fill="none" stroke="#000" stroke-linecap="round" stroke-linejoin="round" stroke-width="0.495"/>
        </g>
      </g>
    </g>
  </g>
</svg>
