<svg xmlns="http://www.w3.org/2000/svg" xmlns:xlink="http://www.w3.org/1999/xlink" width="85" height="85" viewBox="0 0 85 85">
  <defs>
    <clipPath id="clip-path">
      <circle id="Elipse_6591" data-name="Elipse 6591" cx="42.5" cy="42.5" r="42.5" transform="translate(810 2138)" fill="#fcc15a"/>
    </clipPath>
    <clipPath id="clip-path-2">
      <rect id="Rectángulo_299324" data-name="Rectángulo 299324" width="72.565" height="90.23" fill="none"/>
    </clipPath>
  </defs>
  <g id="Grupo_881704" data-name="Grupo 881704" transform="translate(-810 -2138)">
    <circle id="Elipse_6588" data-name="Elipse 6588" cx="42.5" cy="42.5" r="42.5" transform="translate(810 2138)" fill="#fcc15a"/>
    <g id="Enmascarar_grupo_744815" data-name="Enmascarar grupo 744815" clip-path="url(#clip-path)">
      <g id="Grupo_881700" data-name="Grupo 881700" transform="translate(816.217 2135.408)">
        <g id="Grupo_881699" data-name="Grupo 881699" transform="translate(0 0)" clip-path="url(#clip-path-2)">
          <path id="Trazado_596647" data-name="Trazado 596647" d="M31.535,65.757c6.985-11.768,5.859-31.206,5.859-31.206H25.676S24.55,53.989,31.535,65.757" transform="translate(7.377 9.954)" fill="#fff"/>
          <path id="Trazado_596648" data-name="Trazado 596648" d="M31.535,65.757c6.985-11.768,5.859-31.206,5.859-31.206H25.676S24.55,53.989,31.535,65.757Z" transform="translate(7.377 9.954)" fill="none" stroke="#000" stroke-linecap="round" stroke-linejoin="round" stroke-width="0.495"/>
          <path id="Trazado_596649" data-name="Trazado 596649" d="M36.843,41.536C35.105,35.908,35.5,27.8,35.5,27.8H27.251S27.859,35.519,26,41.536a8.543,8.543,0,0,0,5.575,1.523c3.672-.1,5.268-1.523,5.268-1.523" transform="translate(7.49 8.008)" fill="#f5e8dd"/>
          <path id="Trazado_596650" data-name="Trazado 596650" d="M36.843,41.536C35.105,35.908,35.5,27.8,35.5,27.8H27.251S27.859,35.519,26,41.536a8.543,8.543,0,0,0,5.575,1.523C35.247,42.954,36.843,41.536,36.843,41.536Z" transform="translate(7.49 8.008)" fill="none" stroke="#000" stroke-linecap="round" stroke-linejoin="round" stroke-width="0.495"/>
          <path id="Trazado_596651" data-name="Trazado 596651" d="M42.284,40.626c0,1.672-4.374,3.027-9.771,3.027s-9.77-1.355-9.77-3.027,4.374-3.027,9.77-3.027,9.771,1.355,9.771,3.027" transform="translate(6.552 10.832)" fill="#f5e8dd"/>
          <path id="Trazado_596652" data-name="Trazado 596652" d="M21.745,40.844a33.613,33.613,0,0,0,22.205,0" transform="translate(6.264 11.767)" fill="none" stroke="#000" stroke-linecap="round" stroke-linejoin="round" stroke-width="0.495"/>
          <path id="Trazado_596653" data-name="Trazado 596653" d="M46.348,65.951,50.236,38.8S39.726,33.655,39.681,34.46c-.2,3.573.873,12.272-5.839,29.756C27.522,46.779,28.2,38.064,28,34.492c-.045-.805-10.557,4.3-10.557,4.3l3.89,27.155L18.226,90.274c5.541,2.97,14.407,1.211,14.407,1.211l1.216-7.159,1.158,7.159s8.91,1.76,14.451-1.211Z" transform="translate(5.026 9.903)" fill="#8090a2"/>
          <path id="Trazado_596654" data-name="Trazado 596654" d="M46.348,65.951,50.236,38.8S39.726,33.655,39.681,34.46c-.2,3.573.873,12.272-5.839,29.756C27.522,46.779,28.2,38.064,28,34.492c-.045-.805-10.557,4.3-10.557,4.3l3.89,27.155L18.226,90.274c5.541,2.97,14.407,1.211,14.407,1.211l1.216-7.159,1.158,7.159s8.91,1.76,14.451-1.211Z" transform="translate(5.026 9.903)" fill="none" stroke="#000" stroke-linecap="round" stroke-linejoin="round" stroke-width="0.495"/>
          <path id="Trazado_596655" data-name="Trazado 596655" d="M24.069,36.97l-2.881,3.988,2.664,1.982-2.027,2.686s3.1,6.962,5.531,11.4a42.558,42.558,0,0,0,5.416,7.65s-7.006-20.287-5.152-28.218l.953-3.006a11.518,11.518,0,0,0-4.5,3.522" transform="translate(6.104 9.636)" fill="#8090a2"/>
          <path id="Trazado_596656" data-name="Trazado 596656" d="M24.069,36.97l-2.881,3.988,2.664,1.982-2.027,2.686s3.1,6.962,5.531,11.4a42.558,42.558,0,0,0,5.416,7.65s-7.006-20.287-5.152-28.218l.953-3.006A11.518,11.518,0,0,0,24.069,36.97Z" transform="translate(6.104 9.636)" fill="none" stroke="#000" stroke-linecap="round" stroke-linejoin="round" stroke-width="0.495"/>
          <path id="Trazado_596657" data-name="Trazado 596657" d="M39,36.97l2.881,3.988L39.213,42.94l2.027,2.686s-3.1,6.962-5.532,11.4a42.591,42.591,0,0,1-5.415,7.65S37.178,44.233,35.324,36.3l-.832-2.853A11.528,11.528,0,0,1,39,36.97" transform="translate(8.727 9.636)" fill="#8090a2"/>
          <path id="Trazado_596658" data-name="Trazado 596658" d="M39,36.97l2.881,3.988L39.213,42.94l2.027,2.686s-3.1,6.962-5.532,11.4a42.591,42.591,0,0,1-5.415,7.65S37.178,44.233,35.324,36.3l-.832-2.853A11.528,11.528,0,0,1,39,36.97Z" transform="translate(8.727 9.636)" fill="none" stroke="#000" stroke-linecap="round" stroke-linejoin="round" stroke-width="0.495"/>
          <path id="Trazado_596659" data-name="Trazado 596659" d="M25.489,68.068l-5.111-.362.193-2.132,5.194.277Z" transform="translate(5.87 18.891)" fill="#8090a2"/>
          <path id="Trazado_596660" data-name="Trazado 596660" d="M25.489,68.068l-5.111-.362.193-2.132,5.194.277Z" transform="translate(5.87 18.891)" fill="none" stroke="#000" stroke-linecap="round" stroke-linejoin="round" stroke-width="0.495"/>
          <path id="Trazado_596661" data-name="Trazado 596661" d="M36.076,68.068l5.111-.362-.193-2.132-5.194.277Z" transform="translate(10.313 18.891)" fill="#8090a2"/>
          <path id="Trazado_596662" data-name="Trazado 596662" d="M36.076,68.068l5.111-.362-.193-2.132-5.194.277Z" transform="translate(10.313 18.891)" fill="none" stroke="#000" stroke-linecap="round" stroke-linejoin="round" stroke-width="0.495"/>
          <path id="Trazado_596663" data-name="Trazado 596663" d="M31.749,60.441A1.248,1.248,0,1,1,30.5,59.1a1.3,1.3,0,0,1,1.246,1.342" transform="translate(8.429 17.026)"/>
          <path id="Trazado_596664" data-name="Trazado 596664" d="M31.749,66.889A1.248,1.248,0,1,1,30.5,65.547a1.3,1.3,0,0,1,1.246,1.342" transform="translate(8.429 18.883)"/>
          <path id="Trazado_596665" data-name="Trazado 596665" d="M18.748,37.763c-2.782.629-4.935,4.229-5.281,11.747-.386,8.367-.858,13.694,3.256,14.465.659.124,3.671.07,4.908-3.556Z" transform="translate(3.809 10.879)" fill="#8090a2"/>
          <path id="Trazado_596666" data-name="Trazado 596666" d="M18.748,37.763c-2.782.629-4.935,4.229-5.281,11.747-.386,8.367-.858,13.694,3.256,14.465.659.124,3.671.07,4.908-3.556Z" transform="translate(3.809 10.879)" fill="none" stroke="#000" stroke-linecap="round" stroke-linejoin="round" stroke-width="0.495"/>
          <path id="Trazado_596667" data-name="Trazado 596667" d="M13.778,39.971c2.293-.361,4.39.268,4.575,1.448s-1.611,2.467-3.9,2.827-4.3-.305-4.488-1.485,1.524-2.429,3.817-2.79" transform="translate(2.866 11.486)" fill="#8090a2"/>
          <path id="Trazado_596668" data-name="Trazado 596668" d="M13.778,39.971c2.293-.361,4.39.268,4.575,1.448s-1.611,2.467-3.9,2.827-4.3-.305-4.488-1.485S11.485,40.331,13.778,39.971Z" transform="translate(2.866 11.486)" fill="none" stroke="#000" stroke-linecap="round" stroke-linejoin="round" stroke-width="0.495"/>
          <path id="Trazado_596669" data-name="Trazado 596669" d="M18.627,36.787a2.387,2.387,0,0,0-.13-1.81,2.5,2.5,0,0,0-1.1-1.136,2.042,2.042,0,0,0-1.124-.88,5.328,5.328,0,0,0-1.8-.139,1.62,1.62,0,0,0-1.26,1.38,2.458,2.458,0,0,0-.053.79l-.915-2.834c-.582-2.069-1.465-3.251-1.989-2.624-.27.323,1.047,5.5,1.417,6.89-.039.027-2.036-2.449-2.036-2.449-1.211-1.371-2.4-2.5-2.975-2.1-.832.568,2.835,4.98,3.509,6.174,0,0-3.686-3.071-4.428-1.244a37.821,37.821,0,0,1,4.229,3.352A8.281,8.281,0,0,0,12.49,43.4l.495,2.477a6.2,6.2,0,0,0,3.63.407c2.1-.372,1.865-.779,1.865-.779l-.926-3.486a6.957,6.957,0,0,0,.22-2.357,10.1,10.1,0,0,0,.853-2.879m-2.72-2.509a1.416,1.416,0,0,0,.89.394,3.223,3.223,0,0,0-.013,1.662,8.439,8.439,0,0,1-.424,1.1c-.439-.407-.779-1.188-1.364-1.7a2.491,2.491,0,0,0,.05-.911.521.521,0,0,0-.081-.24,1.568,1.568,0,0,0,.942-.305" transform="translate(1.653 8.46)" fill="#f5e8dd"/>
          <path id="Trazado_596670" data-name="Trazado 596670" d="M18.627,36.787a2.387,2.387,0,0,0-.13-1.81,2.5,2.5,0,0,0-1.1-1.136,2.042,2.042,0,0,0-1.124-.88,5.328,5.328,0,0,0-1.8-.139,1.62,1.62,0,0,0-1.26,1.38,2.458,2.458,0,0,0-.053.79l-.915-2.834c-.582-2.069-1.465-3.251-1.989-2.624-.27.323,1.047,5.5,1.417,6.89-.039.027-2.036-2.449-2.036-2.449-1.211-1.371-2.4-2.5-2.975-2.1-.832.568,2.835,4.98,3.509,6.174,0,0-3.686-3.071-4.428-1.244a37.821,37.821,0,0,1,4.229,3.352A8.281,8.281,0,0,0,12.49,43.4l.495,2.477a6.2,6.2,0,0,0,3.63.407c2.1-.372,1.865-.779,1.865-.779l-.926-3.486a6.957,6.957,0,0,0,.22-2.357A10.1,10.1,0,0,0,18.627,36.787Zm-2.72-2.509a1.416,1.416,0,0,0,.89.394,3.223,3.223,0,0,0-.013,1.662,8.439,8.439,0,0,1-.424,1.1c-.439-.407-.779-1.188-1.364-1.7a2.491,2.491,0,0,0,.05-.911.521.521,0,0,0-.081-.24A1.568,1.568,0,0,0,15.906,34.278Z" transform="translate(1.653 8.46)" fill="none" stroke="#000" stroke-linecap="round" stroke-linejoin="round" stroke-width="0.495"/>
          <path id="Trazado_596671" data-name="Trazado 596671" d="M13.1,35.973a5.372,5.372,0,0,0-.949,3.425" transform="translate(3.487 10.364)" fill="none" stroke="#000" stroke-linecap="round" stroke-linejoin="round" stroke-width="0.495"/>
          <path id="Trazado_596672" data-name="Trazado 596672" d="M14.307,33.661a.654.654,0,0,0,.763-.594" transform="translate(4.122 9.527)" fill="none" stroke="#000" stroke-linecap="round" stroke-linejoin="round" stroke-width="0.495"/>
          <path id="Trazado_596673" data-name="Trazado 596673" d="M9.919,42.193s2.671,15.856,4.829,18.756a4.891,4.891,0,0,0,5.867,2.187c1.963-.688,1.921-3.4,1.763-6.071a52.368,52.368,0,0,0-4.021-16.016s.135,1.405-1.948,1.975a8.862,8.862,0,0,1-6.491-.831" transform="translate(2.857 11.826)" fill="#8090a2"/>
          <path id="Trazado_596674" data-name="Trazado 596674" d="M9.919,42.193s2.671,15.856,4.829,18.756a4.891,4.891,0,0,0,5.867,2.187c1.963-.688,1.921-3.4,1.763-6.071a52.368,52.368,0,0,0-4.021-16.016s.135,1.405-1.948,1.975A8.862,8.862,0,0,1,9.919,42.193Z" transform="translate(2.857 11.826)" fill="none" stroke="#000" stroke-linecap="round" stroke-linejoin="round" stroke-width="0.495"/>
          <path id="Trazado_596675" data-name="Trazado 596675" d="M43.561,37.823a11.776,11.776,0,0,1,5.133,8.817s-.441,3.493.863,18.592c1.243,14.4,2.912,19.943,2.912,19.943A13.331,13.331,0,0,1,48.3,86.46a20.6,20.6,0,0,1-4.629.1L41.563,63.172l-.675-7.064Z" transform="translate(11.779 10.897)" fill="#8090a2"/>
          <path id="Trazado_596676" data-name="Trazado 596676" d="M43.561,37.823a11.776,11.776,0,0,1,5.133,8.817s-.441,3.493.863,18.592c1.243,14.4,2.912,19.943,2.912,19.943A13.331,13.331,0,0,1,48.3,86.46a20.6,20.6,0,0,1-4.629.1L41.563,63.172l-.675-7.064Z" transform="translate(11.779 10.897)" fill="none" stroke="#000" stroke-linecap="round" stroke-linejoin="round" stroke-width="0.495"/>
          <path id="Trazado_596677" data-name="Trazado 596677" d="M46.9,61.616s-1.593,1.905-3.041,1.811a2.658,2.658,0,0,0,1.535,1.249" transform="translate(12.634 17.751)" fill="none" stroke="#000" stroke-linecap="round" stroke-linejoin="round" stroke-width="0.495"/>
          <path id="Trazado_596678" data-name="Trazado 596678" d="M39.556,35.836c-.492,1.543-2.163,5.661-4.289,6.048.434-1.159,1.069-1.44.483-2.415-4.47-7.435.951-13.936,1.761-13.235a10.054,10.054,0,0,1,2.045,9.6" transform="translate(9.795 7.543)" fill="#908686"/>
          <path id="Trazado_596679" data-name="Trazado 596679" d="M39.556,35.836c-.492,1.543-2.163,5.661-4.289,6.048.434-1.159,1.069-1.44.483-2.415-4.47-7.435.951-13.936,1.761-13.235A10.054,10.054,0,0,1,39.556,35.836Z" transform="translate(9.795 7.543)" fill="none" stroke="#000" stroke-linecap="round" stroke-linejoin="round" stroke-width="0.495"/>
          <path id="Trazado_596680" data-name="Trazado 596680" d="M24.245,26.633s-1.356,1.75-.246,3.249" transform="translate(6.788 7.673)" fill="none" stroke="#000" stroke-linecap="round" stroke-linejoin="round" stroke-width="0.495"/>
          <path id="Trazado_596681" data-name="Trazado 596681" d="M36.517,23.707c-.51,1.53-1.579,4.188-.167,4.658s2.934-.117,4.3-3.082c.672-1.466.1-3.412-1.313-3.882s-2.306.777-2.816,2.307" transform="translate(10.269 6.136)" fill="#f5e8dd"/>
          <path id="Trazado_596682" data-name="Trazado 596682" d="M36.517,23.707c-.51,1.53-1.579,4.188-.167,4.658s2.934-.117,4.3-3.082c.672-1.466.1-3.412-1.313-3.882S37.028,22.176,36.517,23.707Z" transform="translate(10.269 6.136)" fill="none" stroke="#000" stroke-linecap="round" stroke-linejoin="round" stroke-width="0.495"/>
          <path id="Trazado_596683" data-name="Trazado 596683" d="M25.274,23.707c.51,1.53,1.579,4.188.167,4.658s-2.934-.117-4.3-3.082c-.674-1.466-.1-3.412,1.313-3.882s2.306.777,2.816,2.307" transform="translate(6.011 6.136)" fill="#f5e8dd"/>
          <path id="Trazado_596684" data-name="Trazado 596684" d="M25.274,23.707c.51,1.53,1.579,4.188.167,4.658s-2.934-.117-4.3-3.082c-.674-1.466-.1-3.412,1.313-3.882S24.764,22.176,25.274,23.707Z" transform="translate(6.011 6.136)" fill="none" stroke="#000" stroke-linecap="round" stroke-linejoin="round" stroke-width="0.495"/>
          <path id="Trazado_596685" data-name="Trazado 596685" d="M41.712,20.827c.362,8.1-2.933,17.64-9.473,17.64-6.63,0-9.616-9.98-9.3-17.858.291-7.253,4.676-10.935,9.617-10.842,4.882.091,8.84,4.055,9.153,11.059" transform="translate(6.603 2.814)" fill="#f5e8dd"/>
          <path id="Trazado_596686" data-name="Trazado 596686" d="M41.712,20.827c.362,8.1-2.933,17.64-9.473,17.64-6.63,0-9.616-9.98-9.3-17.858.291-7.253,4.676-10.935,9.617-10.842C37.441,9.859,41.4,13.822,41.712,20.827Z" transform="translate(6.603 2.814)" fill="none" stroke="#000" stroke-linecap="round" stroke-linejoin="round" stroke-width="0.495"/>
          <path id="Trazado_596687" data-name="Trazado 596687" d="M26.321,23.125a.87.87,0,1,0,.857-1.024.952.952,0,0,0-.857,1.024" transform="translate(7.583 6.367)"/>
          <path id="Trazado_596688" data-name="Trazado 596688" d="M32.8,23.125a.87.87,0,1,0,.857-1.024.952.952,0,0,0-.857,1.024" transform="translate(9.448 6.367)"/>
          <path id="Trazado_596689" data-name="Trazado 596689" d="M25.435,21.5a3.078,3.078,0,0,1,3.4-.64" transform="translate(7.327 5.927)" fill="none" stroke="#000" stroke-linecap="round" stroke-linejoin="round" stroke-width="0.495"/>
          <path id="Trazado_596690" data-name="Trazado 596690" d="M35.773,21.5a3.078,3.078,0,0,0-3.4-.64" transform="translate(9.327 5.927)" fill="none" stroke="#000" stroke-linecap="round" stroke-linejoin="round" stroke-width="0.495"/>
          <line id="Línea_508" data-name="Línea 508" y2="0.515" transform="translate(38.931 32.987)" fill="none" stroke="#000" stroke-linecap="round" stroke-linejoin="round" stroke-width="0.495"/>
          <path id="Trazado_596691" data-name="Trazado 596691" d="M32.864,27.8c-2.218,3.635-4.2.022-4.2.022Z" transform="translate(8.257 8.008)" fill="#fff"/>
          <path id="Trazado_596692" data-name="Trazado 596692" d="M32.864,27.8c-2.218,3.635-4.2.022-4.2.022Z" transform="translate(8.257 8.008)" fill="none" stroke="#000" stroke-linecap="round" stroke-linejoin="round" stroke-width="0.371"/>
          <path id="Trazado_596693" data-name="Trazado 596693" d="M36.193,26.783s1.615,1.556.5,3.055" transform="translate(10.426 7.716)" fill="none" stroke="#000" stroke-linecap="round" stroke-linejoin="round" stroke-width="0.495"/>
          <path id="Trazado_596694" data-name="Trazado 596694" d="M28.059,10.077c-9.243,3.675-4.752,15.5-4.752,15.5,2.191-2.965,3.335-5.857,5.912-10.883.869,3.487,5.349,7.982,12.889,9.916,0,0,2.726-9.717-4.378-13.956a11.013,11.013,0,0,0-9.671-.574" transform="translate(6.4 2.66)" fill="#908686"/>
          <path id="Trazado_596695" data-name="Trazado 596695" d="M28.059,10.077c-9.243,3.675-4.752,15.5-4.752,15.5,2.191-2.965,3.335-5.857,5.912-10.883.869,3.487,5.349,7.982,12.889,9.916,0,0,2.726-9.717-4.378-13.956A11.013,11.013,0,0,0,28.059,10.077Z" transform="translate(6.4 2.66)" fill="none" stroke="#000" stroke-linecap="round" stroke-linejoin="round" stroke-width="0.495"/>
          <path id="Trazado_596696" data-name="Trazado 596696" d="M35.033,14.822A11.364,11.364,0,0,1,38.287,22.3" transform="translate(10.092 4.271)" fill="none" stroke="#000" stroke-linecap="round" stroke-linejoin="round" stroke-width="0.495"/>
          <path id="Trazado_596697" data-name="Trazado 596697" d="M23.935,16.21s-.483.532-.483,2.416" transform="translate(6.756 4.67)" fill="none" stroke="#000" stroke-linecap="round" stroke-linejoin="round" stroke-width="0.495"/>
          <path id="Trazado_596698" data-name="Trazado 596698" d="M33.332,16.648a5.48,5.48,0,0,0,1.9,1.933" transform="translate(9.602 4.797)" fill="none" stroke="#000" stroke-linecap="round" stroke-linejoin="round" stroke-width="0.495"/>
        </g>
      </g>
    </g>
  </g>
</svg>
