<svg xmlns="http://www.w3.org/2000/svg" xmlns:xlink="http://www.w3.org/1999/xlink" width="120" height="120" viewBox="0 0 120 120">
  <defs>
    <clipPath id="clip-path">
      <rect id="Rectángulo_299324" data-name="Rectángulo 299324" width="81.251" height="101.03" fill="none"/>
    </clipPath>
  </defs>
  <g id="Grupo_1072191" data-name="Grupo 1072191" transform="translate(-810 -2091.146)">
    <path id="Trazado_835935" data-name="Trazado 835935" d="M60,0A60,60,0,1,1,0,60,60,60,0,0,1,60,0Z" transform="translate(810 2091.146)" fill="#e1efe3"/>
    <g id="Grupo_1072153" data-name="Grupo 1072153" transform="translate(824.435 2093.23)">
      <g id="Grupo_881699" data-name="Grupo 881699" transform="translate(0 0)" clip-path="url(#clip-path)">
        <path id="Trazado_596647" data-name="Trazado 596647" d="M32.245,69.493c7.821-13.176,6.561-34.942,6.561-34.942H25.684s-1.261,21.765,6.561,34.942" transform="translate(11.326 15.281)" fill="#fff"/>
        <path id="Trazado_596648" data-name="Trazado 596648" d="M32.245,69.493c7.821-13.176,6.561-34.942,6.561-34.942H25.684S24.423,56.316,32.245,69.493Z" transform="translate(11.326 15.281)" fill="none" stroke="#000" stroke-linecap="round" stroke-linejoin="round" stroke-width="0.495"/>
        <path id="Trazado_596649" data-name="Trazado 596649" d="M38.141,43.18c-1.946-6.3-1.5-15.383-1.5-15.383H27.4s.681,8.646-1.4,15.383a9.565,9.565,0,0,0,6.242,1.7c4.112-.117,5.9-1.7,5.9-1.7" transform="translate(11.499 12.294)" fill="#f5e8dd"/>
        <path id="Trazado_596650" data-name="Trazado 596650" d="M38.141,43.18c-1.946-6.3-1.5-15.383-1.5-15.383H27.4s.681,8.646-1.4,15.383a9.565,9.565,0,0,0,6.242,1.7C36.354,44.768,38.141,43.18,38.141,43.18Z" transform="translate(11.499 12.294)" fill="none" stroke="#000" stroke-linecap="round" stroke-linejoin="round" stroke-width="0.495"/>
        <path id="Trazado_596651" data-name="Trazado 596651" d="M44.624,40.988c0,1.872-4.9,3.389-10.941,3.389s-10.94-1.517-10.94-3.389,4.9-3.389,10.94-3.389,10.941,1.517,10.941,3.389" transform="translate(10.058 16.629)" fill="#f5e8dd"/>
        <path id="Trazado_596652" data-name="Trazado 596652" d="M21.745,40.844a37.636,37.636,0,0,0,24.863,0" transform="translate(9.617 18.064)" fill="none" stroke="#000" stroke-linecap="round" stroke-linejoin="round" stroke-width="0.495"/>
        <path id="Trazado_596653" data-name="Trazado 596653" d="M49.807,69.731l4.354-30.406S42.392,33.569,42.342,34.47c-.221,4,.978,13.74-6.538,33.318-7.076-19.524-6.316-29.282-6.536-33.282-.05-.9-11.821,4.819-11.821,4.819L21.8,69.731,18.32,96.965c6.2,3.326,16.132,1.356,16.132,1.356L35.813,90.3l1.3,8.016s9.976,1.97,16.181-1.356Z" transform="translate(7.716 15.203)" fill="#8090a2"/>
        <path id="Trazado_596654" data-name="Trazado 596654" d="M49.807,69.731l4.354-30.406S42.392,33.569,42.342,34.47c-.221,4,.978,13.74-6.538,33.318-7.076-19.524-6.316-29.282-6.536-33.282-.05-.9-11.821,4.819-11.821,4.819L21.8,69.731,18.32,96.965c6.2,3.326,16.132,1.356,16.132,1.356L35.813,90.3l1.3,8.016s9.976,1.97,16.181-1.356Z" transform="translate(7.716 15.203)" fill="none" stroke="#000" stroke-linecap="round" stroke-linejoin="round" stroke-width="0.495"/>
        <path id="Trazado_596655" data-name="Trazado 596655" d="M24.414,37.391l-3.226,4.465,2.983,2.22L21.9,47.083s3.472,7.8,6.193,12.761a47.652,47.652,0,0,0,6.065,8.566s-7.844-22.716-5.769-31.6l1.067-3.366a12.9,12.9,0,0,0-5.042,3.943" transform="translate(9.371 14.793)" fill="#8090a2"/>
        <path id="Trazado_596656" data-name="Trazado 596656" d="M24.414,37.391l-3.226,4.465,2.983,2.22L21.9,47.083s3.472,7.8,6.193,12.761a47.652,47.652,0,0,0,6.065,8.566s-7.844-22.716-5.769-31.6l1.067-3.366A12.9,12.9,0,0,0,24.414,37.391Z" transform="translate(9.371 14.793)" fill="none" stroke="#000" stroke-linecap="round" stroke-linejoin="round" stroke-width="0.495"/>
        <path id="Trazado_596657" data-name="Trazado 596657" d="M40.037,37.391l3.226,4.465-2.983,2.22,2.27,3.007s-3.473,7.8-6.195,12.761a47.689,47.689,0,0,1-6.063,8.566S38,45.524,35.926,36.643l-.932-3.195a12.908,12.908,0,0,1,5.042,3.943" transform="translate(13.397 14.793)" fill="#8090a2"/>
        <path id="Trazado_596658" data-name="Trazado 596658" d="M40.037,37.391l3.226,4.465-2.983,2.22,2.27,3.007s-3.473,7.8-6.195,12.761a47.689,47.689,0,0,1-6.063,8.566S38,45.524,35.926,36.643l-.932-3.195A12.908,12.908,0,0,1,40.037,37.391Z" transform="translate(13.397 14.793)" fill="none" stroke="#000" stroke-linecap="round" stroke-linejoin="round" stroke-width="0.495"/>
        <path id="Trazado_596659" data-name="Trazado 596659" d="M26.1,68.366l-5.723-.405.216-2.387,5.815.31Z" transform="translate(9.012 29.002)" fill="#8090a2"/>
        <path id="Trazado_596660" data-name="Trazado 596660" d="M26.1,68.366l-5.723-.405.216-2.387,5.815.31Z" transform="translate(9.012 29.002)" fill="none" stroke="#000" stroke-linecap="round" stroke-linejoin="round" stroke-width="0.495"/>
        <path id="Trazado_596661" data-name="Trazado 596661" d="M36.109,68.366l5.723-.405-.216-2.387-5.815.31Z" transform="translate(15.833 29.002)" fill="#8090a2"/>
        <path id="Trazado_596662" data-name="Trazado 596662" d="M36.109,68.366l5.723-.405-.216-2.387-5.815.31Z" transform="translate(15.833 29.002)" fill="none" stroke="#000" stroke-linecap="round" stroke-linejoin="round" stroke-width="0.495"/>
        <path id="Trazado_596663" data-name="Trazado 596663" d="M32.047,60.6a1.4,1.4,0,1,1-1.395-1.5,1.451,1.451,0,0,1,1.395,1.5" transform="translate(12.94 26.138)"/>
        <path id="Trazado_596664" data-name="Trazado 596664" d="M32.047,67.05a1.4,1.4,0,1,1-1.395-1.5,1.451,1.451,0,0,1,1.395,1.5" transform="translate(12.94 28.989)"/>
        <path id="Trazado_596665" data-name="Trazado 596665" d="M19.409,37.763c-3.115.7-5.525,4.735-5.913,13.153-.433,9.369-.961,15.333,3.646,16.2.738.138,4.11.078,5.5-3.982Z" transform="translate(5.848 16.702)" fill="#8090a2"/>
        <path id="Trazado_596666" data-name="Trazado 596666" d="M19.409,37.763c-3.115.7-5.525,4.735-5.913,13.153-.433,9.369-.961,15.333,3.646,16.2.738.138,4.11.078,5.5-3.982Z" transform="translate(5.848 16.702)" fill="none" stroke="#000" stroke-linecap="round" stroke-linejoin="round" stroke-width="0.495"/>
        <path id="Trazado_596667" data-name="Trazado 596667" d="M14.236,39.983c2.567-.4,4.915.3,5.123,1.621s-1.8,2.762-4.371,3.166-4.817-.342-5.025-1.663,1.706-2.72,4.273-3.124" transform="translate(4.399 17.633)" fill="#8090a2"/>
        <path id="Trazado_596668" data-name="Trazado 596668" d="M14.236,39.983c2.567-.4,4.915.3,5.123,1.621s-1.8,2.762-4.371,3.166-4.817-.342-5.025-1.663S11.669,40.387,14.236,39.983Z" transform="translate(4.399 17.633)" fill="none" stroke="#000" stroke-linecap="round" stroke-linejoin="round" stroke-width="0.495"/>
        <path id="Trazado_596669" data-name="Trazado 596669" d="M20.169,37.675a2.673,2.673,0,0,0-.146-2.026,2.8,2.8,0,0,0-1.235-1.272,2.286,2.286,0,0,0-1.259-.985,5.966,5.966,0,0,0-2.013-.156,1.814,1.814,0,0,0-1.411,1.545,2.753,2.753,0,0,0-.059.884l-1.024-3.173c-.652-2.316-1.64-3.64-2.227-2.938-.3.362,1.173,6.161,1.586,7.715-.043.03-2.28-2.742-2.28-2.742-1.356-1.535-2.685-2.794-3.332-2.352-.932.636,3.174,5.576,3.929,6.913,0,0-4.128-3.438-4.958-1.393-.078.192,1.4.6,4.735,3.753A9.272,9.272,0,0,0,13.3,45.084l.554,2.773a6.948,6.948,0,0,0,4.064.456C20.27,47.9,20,47.441,20,47.441l-1.037-3.9a7.79,7.79,0,0,0,.247-2.639,11.313,11.313,0,0,0,.955-3.223m-3.046-2.81a1.586,1.586,0,0,0,1,.441,3.609,3.609,0,0,0-.014,1.861,9.449,9.449,0,0,1-.475,1.235c-.492-.456-.873-1.33-1.527-1.907a2.789,2.789,0,0,0,.056-1.02.583.583,0,0,0-.091-.268,1.755,1.755,0,0,0,1.054-.342" transform="translate(2.538 12.988)" fill="#f5e8dd"/>
        <path id="Trazado_596670" data-name="Trazado 596670" d="M20.169,37.675a2.673,2.673,0,0,0-.146-2.026,2.8,2.8,0,0,0-1.235-1.272,2.286,2.286,0,0,0-1.259-.985,5.966,5.966,0,0,0-2.013-.156,1.814,1.814,0,0,0-1.411,1.545,2.753,2.753,0,0,0-.059.884l-1.024-3.173c-.652-2.316-1.64-3.64-2.227-2.938-.3.362,1.173,6.161,1.586,7.715-.043.03-2.28-2.742-2.28-2.742-1.356-1.535-2.685-2.794-3.332-2.352-.932.636,3.174,5.576,3.929,6.913,0,0-4.128-3.438-4.958-1.393-.078.192,1.4.6,4.735,3.753A9.272,9.272,0,0,0,13.3,45.084l.554,2.773a6.948,6.948,0,0,0,4.064.456C20.27,47.9,20,47.441,20,47.441l-1.037-3.9a7.79,7.79,0,0,0,.247-2.639A11.313,11.313,0,0,0,20.169,37.675Zm-3.046-2.81a1.586,1.586,0,0,0,1,.441,3.609,3.609,0,0,0-.014,1.861,9.449,9.449,0,0,1-.475,1.235c-.492-.456-.873-1.33-1.527-1.907a2.789,2.789,0,0,0,.056-1.02.583.583,0,0,0-.091-.268A1.755,1.755,0,0,0,17.123,34.866Z" transform="translate(2.538 12.988)" fill="none" stroke="#000" stroke-linecap="round" stroke-linejoin="round" stroke-width="0.495"/>
        <path id="Trazado_596671" data-name="Trazado 596671" d="M13.22,35.973a6.015,6.015,0,0,0-1.063,3.835" transform="translate(5.353 15.91)" fill="none" stroke="#000" stroke-linecap="round" stroke-linejoin="round" stroke-width="0.495"/>
        <path id="Trazado_596672" data-name="Trazado 596672" d="M14.307,33.732a.733.733,0,0,0,.854-.665" transform="translate(6.327 14.625)" fill="none" stroke="#000" stroke-linecap="round" stroke-linejoin="round" stroke-width="0.495"/>
        <path id="Trazado_596673" data-name="Trazado 596673" d="M9.919,42.33s2.991,17.754,5.407,21A5.476,5.476,0,0,0,21.9,65.779c2.2-.77,2.15-3.8,1.974-6.8a58.636,58.636,0,0,0-4.5-17.933s.151,1.574-2.181,2.211a9.923,9.923,0,0,1-7.268-.93" transform="translate(4.387 18.155)" fill="#8090a2"/>
        <path id="Trazado_596674" data-name="Trazado 596674" d="M9.919,42.33s2.991,17.754,5.407,21A5.476,5.476,0,0,0,21.9,65.779c2.2-.77,2.15-3.8,1.974-6.8a58.636,58.636,0,0,0-4.5-17.933s.151,1.574-2.181,2.211A9.923,9.923,0,0,1,9.919,42.33Z" transform="translate(4.387 18.155)" fill="none" stroke="#000" stroke-linecap="round" stroke-linejoin="round" stroke-width="0.495"/>
        <path id="Trazado_596675" data-name="Trazado 596675" d="M43.881,37.823A13.185,13.185,0,0,1,49.628,47.7s-.493,3.911.966,20.818c1.392,16.124,3.261,22.33,3.261,22.33a14.927,14.927,0,0,1-4.67,1.438A23.071,23.071,0,0,1,44,92.392L41.644,66.207,40.888,58.3Z" transform="translate(18.083 16.728)" fill="#8090a2"/>
        <path id="Trazado_596676" data-name="Trazado 596676" d="M43.881,37.823A13.185,13.185,0,0,1,49.628,47.7s-.493,3.911.966,20.818c1.392,16.124,3.261,22.33,3.261,22.33a14.927,14.927,0,0,1-4.67,1.438A23.071,23.071,0,0,1,44,92.392L41.644,66.207,40.888,58.3Z" transform="translate(18.083 16.728)" fill="none" stroke="#000" stroke-linecap="round" stroke-linejoin="round" stroke-width="0.495"/>
        <path id="Trazado_596677" data-name="Trazado 596677" d="M47.261,61.616s-1.784,2.133-3.405,2.028a2.976,2.976,0,0,0,1.719,1.4" transform="translate(19.396 27.251)" fill="none" stroke="#000" stroke-linecap="round" stroke-linejoin="round" stroke-width="0.495"/>
        <path id="Trazado_596678" data-name="Trazado 596678" d="M40.221,36.992c-.551,1.728-2.422,6.339-4.8,6.771.486-1.3,1.2-1.612.541-2.7-5-8.325,1.064-15.6,1.972-14.819a11.257,11.257,0,0,1,2.29,10.752" transform="translate(15.038 11.58)" fill="#908686"/>
        <path id="Trazado_596679" data-name="Trazado 596679" d="M40.221,36.992c-.551,1.728-2.422,6.339-4.8,6.771.486-1.3,1.2-1.612.541-2.7-5-8.325,1.064-15.6,1.972-14.819A11.257,11.257,0,0,1,40.221,36.992Z" transform="translate(15.038 11.58)" fill="none" stroke="#000" stroke-linecap="round" stroke-linejoin="round" stroke-width="0.495"/>
        <path id="Trazado_596680" data-name="Trazado 596680" d="M24.326,26.633s-1.519,1.96-.275,3.637" transform="translate(10.42 11.779)" fill="none" stroke="#000" stroke-linecap="round" stroke-linejoin="round" stroke-width="0.495"/>
        <path id="Trazado_596681" data-name="Trazado 596681" d="M36.622,23.995c-.571,1.713-1.768,4.689-.188,5.215s3.285-.131,4.81-3.451c.753-1.641.111-3.821-1.47-4.347s-2.582.87-3.153,2.583" transform="translate(15.766 9.42)" fill="#f5e8dd"/>
        <path id="Trazado_596682" data-name="Trazado 596682" d="M36.622,23.995c-.571,1.713-1.768,4.689-.188,5.215s3.285-.131,4.81-3.451c.753-1.641.111-3.821-1.47-4.347S37.193,22.281,36.622,23.995Z" transform="translate(15.766 9.42)" fill="none" stroke="#000" stroke-linecap="round" stroke-linejoin="round" stroke-width="0.495"/>
        <path id="Trazado_596683" data-name="Trazado 596683" d="M25.8,23.995c.571,1.713,1.768,4.689.187,5.215s-3.285-.131-4.81-3.451c-.754-1.641-.111-3.821,1.47-4.347s2.582.87,3.153,2.583" transform="translate(9.228 9.42)" fill="#f5e8dd"/>
        <path id="Trazado_596684" data-name="Trazado 596684" d="M25.8,23.995c.571,1.713,1.768,4.689.187,5.215s-3.285-.131-4.81-3.451c-.754-1.641-.111-3.821,1.47-4.347S25.231,22.281,25.8,23.995Z" transform="translate(9.228 9.42)" fill="none" stroke="#000" stroke-linecap="round" stroke-linejoin="round" stroke-width="0.495"/>
        <path id="Trazado_596685" data-name="Trazado 596685" d="M43.961,22.151C44.367,31.215,40.677,41.9,33.355,41.9c-7.423,0-10.766-11.175-10.41-20,.326-8.121,5.235-12.243,10.768-12.139,5.466.1,9.9,4.54,10.249,12.383" transform="translate(10.136 4.32)" fill="#f5e8dd"/>
        <path id="Trazado_596686" data-name="Trazado 596686" d="M43.961,22.151C44.367,31.215,40.677,41.9,33.355,41.9c-7.423,0-10.766-11.175-10.41-20,.326-8.121,5.235-12.243,10.768-12.139C39.179,9.87,43.611,14.308,43.961,22.151Z" transform="translate(10.136 4.32)" fill="none" stroke="#000" stroke-linecap="round" stroke-linejoin="round" stroke-width="0.495"/>
        <path id="Trazado_596687" data-name="Trazado 596687" d="M26.321,23.248A.974.974,0,1,0,27.28,22.1a1.066,1.066,0,0,0-.959,1.147" transform="translate(11.641 9.775)"/>
        <path id="Trazado_596688" data-name="Trazado 596688" d="M32.8,23.248a.974.974,0,1,0,.959-1.147,1.066,1.066,0,0,0-.959,1.147" transform="translate(14.505 9.775)"/>
        <path id="Trazado_596689" data-name="Trazado 596689" d="M25.435,21.616a3.446,3.446,0,0,1,3.8-.717" transform="translate(11.249 9.099)" fill="none" stroke="#000" stroke-linecap="round" stroke-linejoin="round" stroke-width="0.495"/>
        <path id="Trazado_596690" data-name="Trazado 596690" d="M36.18,21.616a3.446,3.446,0,0,0-3.8-.717" transform="translate(14.318 9.099)" fill="none" stroke="#000" stroke-linecap="round" stroke-linejoin="round" stroke-width="0.495"/>
        <line id="Línea_508" data-name="Línea 508" y2="0.577" transform="translate(43.591 36.935)" fill="none" stroke="#000" stroke-linecap="round" stroke-linejoin="round" stroke-width="0.495"/>
        <path id="Trazado_596691" data-name="Trazado 596691" d="M33.367,27.8c-2.484,4.07-4.706.025-4.706.025Z" transform="translate(12.676 12.294)" fill="#fff"/>
        <path id="Trazado_596692" data-name="Trazado 596692" d="M33.367,27.8c-2.484,4.07-4.706.025-4.706.025Z" transform="translate(12.676 12.294)" fill="none" stroke="#000" stroke-linecap="round" stroke-linejoin="round" stroke-width="0.371"/>
        <path id="Trazado_596693" data-name="Trazado 596693" d="M36.193,26.783S38,28.525,36.757,30.2" transform="translate(16.007 11.846)" fill="none" stroke="#000" stroke-linecap="round" stroke-linejoin="round" stroke-width="0.495"/>
        <path id="Trazado_596694" data-name="Trazado 596694" d="M28.758,10.178c-10.35,4.115-5.32,17.353-5.32,17.353,2.453-3.32,3.734-6.558,6.62-12.186.974,3.9,5.99,8.938,14.431,11.1,0,0,3.052-10.88-4.9-15.627a12.331,12.331,0,0,0-10.828-.643" transform="translate(9.825 4.083)" fill="#908686"/>
        <path id="Trazado_596695" data-name="Trazado 596695" d="M28.758,10.178c-10.35,4.115-5.32,17.353-5.32,17.353,2.453-3.32,3.734-6.558,6.62-12.186.974,3.9,5.99,8.938,14.431,11.1,0,0,3.052-10.88-4.9-15.627A12.331,12.331,0,0,0,28.758,10.178Z" transform="translate(9.825 4.083)" fill="none" stroke="#000" stroke-linecap="round" stroke-linejoin="round" stroke-width="0.495"/>
        <path id="Trazado_596696" data-name="Trazado 596696" d="M35.033,14.822a12.724,12.724,0,0,1,3.643,8.369" transform="translate(15.494 6.556)" fill="none" stroke="#000" stroke-linecap="round" stroke-linejoin="round" stroke-width="0.495"/>
        <path id="Trazado_596697" data-name="Trazado 596697" d="M23.993,16.21s-.541.6-.541,2.706" transform="translate(10.372 7.17)" fill="none" stroke="#000" stroke-linecap="round" stroke-linejoin="round" stroke-width="0.495"/>
        <path id="Trazado_596698" data-name="Trazado 596698" d="M33.332,16.648a6.136,6.136,0,0,0,2.129,2.165" transform="translate(14.741 7.363)" fill="none" stroke="#000" stroke-linecap="round" stroke-linejoin="round" stroke-width="0.495"/>
      </g>
    </g>
  </g>
</svg>
