<svg id="Grupo_886231" data-name="Grupo 886231" xmlns="http://www.w3.org/2000/svg" xmlns:xlink="http://www.w3.org/1999/xlink" width="96.523" height="96.483" viewBox="0 0 96.523 96.483">
  <defs>
    <clipPath id="clip-path">
      <rect id="Rectángulo_300831" data-name="Rectángulo 300831" width="96.523" height="96.483" fill="none"/>
    </clipPath>
  </defs>
  <g id="Grupo_886156" data-name="Grupo 886156" clip-path="url(#clip-path)">
    <path id="Trazado_602145" data-name="Trazado 602145" d="M.326,59.486c2.135,2.919,4.981,5.162,7.417,7.8.323.349.772.622.842,1.146,1.821,1.8,3.681,3.559,5.444,5.411a3.724,3.724,0,0,0,3.735,1.121c1.8-.359,3.62-.651,5.431-.972h0l5.634-1.066c-.025-.471-.425-.677-.7-.955q-8.969-8.986-17.948-17.96c-.264-.264-.5-.554-.755-.831Q5.567,54.589,1.711,56A3.488,3.488,0,0,0,0,57.874v1.508a.266.266,0,0,1,.326.1" transform="translate(0 -39.782)" fill="#29376d"/>
    <path id="Trazado_602146" data-name="Trazado 602146" d="M8.513,86.735h0l.072.071c-.07-.524-.519-.8-.842-1.145-2.436-2.633-5.281-4.876-7.417-7.8a.266.266,0,0,0-.326-.1,9.075,9.075,0,0,0,1.824,2.214q3.352,3.372,6.689,6.76" transform="translate(0 -58.161)" fill="#29376d"/>
    <path id="Trazado_602147" data-name="Trazado 602147" d="M55.619,2.664C54.854,4.933,54,7.171,53.178,9.422c.255.229.522.447.764.689q9.013,9.006,18.026,18.013c.278.278.485.677.955.7L73.984,23.2h0c.323-1.811.618-3.629.978-5.433a3.708,3.708,0,0,0-1.113-3.735C72,12.272,70.242,10.414,68.448,8.6c-.433-.034-.692-.384-.977-.667q-2.756-2.737-5.5-5.489A11.006,11.006,0,0,0,59.712.494c-.176-.1-.406-.206-.327-.494H57.877a4.018,4.018,0,0,0-2.258,2.664" transform="translate(-39.784)" fill="#29376d"/>
    <path id="Trazado_602148" data-name="Trazado 602148" d="M78.1.494a11.006,11.006,0,0,1,2.263,1.945q2.746,2.747,5.5,5.489c.285.283.545.633.977.667l-.082-.084h0Q83.4,5.193,80.043,1.872A9.341,9.341,0,0,0,77.774,0c-.079.288.151.394.327.494" transform="translate(-58.173)" fill="#29376d"/>
    <path id="Trazado_602149" data-name="Trazado 602149" d="M204.594,30.263c12.55,3.087,20.741,10.821,23.756,23.353C232.426,70.562,221.77,87.057,204.7,90.9a22.636,22.636,0,0,1-6.433.612l.018.052q0,7.679,0,15.357A46.332,46.332,0,0,0,244.147,67a45.417,45.417,0,0,0-3.133-24.253,46.515,46.515,0,0,0-37.252-28.2c-1.829-.234-3.666-.208-5.5-.271q.007,7.634.014,15.269a59.776,59.776,0,0,1,6.318.719" transform="translate(-148.325 -10.68)" fill="#e53950"/>
    <path id="Trazado_602150" data-name="Trazado 602150" d="M198.26,13.523c1.835.063,3.672.037,5.5.271A46.515,46.515,0,0,1,241.013,42a46.31,46.31,0,0,1-9.719,50.327,46.358,46.358,0,0,1-33.017,13.845v.224a39.97,39.97,0,0,0,10.62-1.181,46.661,46.661,0,0,0,35.58-39.718,43.432,43.432,0,0,0-.933-16.428c-4.941-18.387-16.712-29.955-35.139-34.7A34.554,34.554,0,0,0,198.26,13.3c0,.074,0,.147,0,.22" transform="translate(-148.324 -9.928)" fill="#e53950"/>
    <path id="Trazado_602151" data-name="Trazado 602151" d="M60.39,167.211a1.969,1.969,0,0,1,.049-.371.969.969,0,0,1,.126-.3l.006-.005A31.016,31.016,0,0,1,33.789,120.1c-1.716.326-3.439.62-5.155.949a4.268,4.268,0,0,1-4.254-1.3c-1.444-1.558-2.993-3.018-4.495-4.523a2.245,2.245,0,0,1-.581-.739A61.537,61.537,0,0,0,16.48,121.5a47.293,47.293,0,0,0,.1,28.44,45.449,45.449,0,0,0,8.724,15.6,46.054,46.054,0,0,0,13.963,11.155,47.32,47.32,0,0,0,21.251,5.2,1.572,1.572,0,0,1-.132-.737c-.011-4.648-.029-9.3.008-13.943" transform="translate(-10.728 -85.652)" fill="#fe6c6c"/>
    <path id="Trazado_602152" data-name="Trazado 602152" d="M52.467,180.534A45,45,0,0,1,38.3,175.912a46.059,46.059,0,0,1-13.963-11.155,45.452,45.452,0,0,1-8.724-15.6,47.292,47.292,0,0,1-.1-28.44,61.5,61.5,0,0,1,2.824-7.011.974.974,0,0,1-.062-.261c-.122.219-.256.432-.365.657A45.777,45.777,0,0,0,14.434,145.8c3.194,13.012,10.758,22.859,22.348,29.541a45.032,45.032,0,0,0,22.932,6,.87.87,0,0,1-.167-.224,45.022,45.022,0,0,1-7.08-.582" transform="translate(-9.762 -84.875)" fill="#fe6c6c"/>
    <path id="Trazado_602153" data-name="Trazado 602153" d="M34.048,113.922a2.246,2.246,0,0,0,.581.74c1.5,1.5,3.051,2.965,4.495,4.523a4.268,4.268,0,0,0,4.254,1.3c1.716-.329,3.439-.622,5.155-.949.046-.082.088-.165.135-.246h0c-1.811.321-3.628.613-5.431.972a3.723,3.723,0,0,1-3.734-1.121c-1.764-1.852-3.623-3.614-5.444-5.411a1,1,0,0,1,.014.138l-.024.053" transform="translate(-25.472 -85.086)" fill="#fe6c6c"/>
    <path id="Trazado_602154" data-name="Trazado 602154" d="M33.885,113.659a1,1,0,0,0-.014-.138l-.072-.071a.974.974,0,0,0,.062.261l.024-.053" transform="translate(-25.286 -84.875)" fill="#fe6c6c"/>
    <path id="Trazado_602155" data-name="Trazado 602155" d="M197.286,321.117l-.006.005a.966.966,0,0,0-.126.3,1.96,1.96,0,0,0-.049.371c-.037,4.648-.019,9.3-.008,13.943a1.573,1.573,0,0,0,.132.738h.167q0-7.679,0-15.357l-.113,0" transform="translate(-147.444 -240.237)" fill="#fe6c6c"/>
    <path id="Trazado_602156" data-name="Trazado 602156" d="M197.831,382.1h-.168a.87.87,0,0,0,.168.224V382.1" transform="translate(-147.878 -285.862)" fill="#fe6c6c"/>
    <path id="Trazado_602157" data-name="Trazado 602157" d="M115.335,19.832c1.511,1.508,2.981,3.062,4.543,4.516a4.188,4.188,0,0,1,1.275,4.191c-.348,1.724-.61,3.464-.951,5.189a30.443,30.443,0,0,1,15.485-4.05c0-.036.008-.072.011-.108a.988.988,0,0,1-.2-.3,3.42,3.42,0,0,1-.1-1.025q-.008-6.43,0-12.86a2.456,2.456,0,0,1,.156-1.128,51.279,51.279,0,0,0-8.037.734A44.95,44.95,0,0,0,115.47,18.9a3.92,3.92,0,0,1-.851.355,2.413,2.413,0,0,1,.716.577" transform="translate(-85.75 -10.668)" fill="#fe6c6c"/>
    <path id="Trazado_602158" data-name="Trazado 602158" d="M114.616,18.219a44.953,44.953,0,0,1,12.041-3.905,51.277,51.277,0,0,1,8.037-.734,1.15,1.15,0,0,1,.138-.217,39.74,39.74,0,0,0-7.68.593A45,45,0,0,0,113.477,18.5h0a1,1,0,0,1,.287.075,3.919,3.919,0,0,0,.851-.355" transform="translate(-84.896 -9.988)" fill="#fe6c6c"/>
    <path id="Trazado_602159" data-name="Trazado 602159" d="M120.543,43.377a4.188,4.188,0,0,0-1.275-4.191c-1.562-1.454-3.031-3.008-4.543-4.516a2.406,2.406,0,0,0-.716-.577l-.015,0a.935.935,0,0,1-.19,0c1.794,1.818,3.55,3.676,5.4,5.433a3.708,3.708,0,0,1,1.112,3.735c-.361,1.8-.655,3.621-.978,5.433.083-.047.167-.091.251-.137.342-1.725.6-3.465.951-5.189" transform="translate(-85.141 -25.506)" fill="#fe6c6c"/>
    <path id="Trazado_602160" data-name="Trazado 602160" d="M113.751,33.874l.015,0a1,1,0,0,0-.287-.075l.082.084a.935.935,0,0,0,.19,0" transform="translate(-84.896 -25.282)" fill="#fe6c6c"/>
    <path id="Trazado_602161" data-name="Trazado 602161" d="M197.085,15.388q-.007,6.43,0,12.86a3.422,3.422,0,0,0,.1,1.025.984.984,0,0,0,.2.3c0-.013,0-.025,0-.038q-.007-7.634-.014-15.269l-.133,0h0a2.455,2.455,0,0,0-.156,1.128" transform="translate(-147.442 -10.668)" fill="#fe6c6c"/>
    <path id="Trazado_602162" data-name="Trazado 602162" d="M197.715,13.617h0l.133,0q0-.11,0-.22a1.134,1.134,0,0,0-.137.216" transform="translate(-147.917 -10.026)" fill="#fe6c6c"/>
    <path id="Trazado_602163" data-name="Trazado 602163" d="M79.862,133.69A30.433,30.433,0,0,0,76.3,145.23a30,30,0,0,0,2.33,15.183,30.329,30.329,0,0,0,20.459,17.641,27.624,27.624,0,0,0,6.786,1c.343.009.716-.058.992.223.012-.01.024-.022.036-.032,0-4.746-.019-9.493.03-14.238.008-.788-.2-1.2-.965-1.313a15.382,15.382,0,0,1-11.786-23.967q-3.905-3.934-7.808-7.87a.877.877,0,0,0-.548-.263,1.06,1.06,0,0,1-.137.191,52.728,52.728,0,0,1-5.378,1.063l-.1.019c.022.316-.209.563-.348.823" transform="translate(-56.966 -98.449)" fill="#eff6fe"/>
    <path id="Trazado_602164" data-name="Trazado 602164" d="M92.241,132.833a52.81,52.81,0,0,0,5.378-1.063,1.086,1.086,0,0,0,.137-.191l-.03-.005-5.634,1.066h0a.643.643,0,0,1,.049.212l.1-.019" transform="translate(-68.897 -98.435)" fill="#eff6fe"/>
    <path id="Trazado_602165" data-name="Trazado 602165" d="M198.16,320.784c-.012.009-.024.021-.036.032a.754.754,0,0,1,.054.055l-.018-.052Z" transform="translate(-148.223 -239.988)" fill="#eff6fe"/>
    <path id="Trazado_602166" data-name="Trazado 602166" d="M75.442,156.059a31.023,31.023,0,0,0,30.627,27.052c.019-.02.039-.035.059-.052-.276-.281-.65-.213-.992-.222a27.618,27.618,0,0,1-6.786-1A30.329,30.329,0,0,1,77.891,164.2a30,30,0,0,1-2.33-15.183,30.433,30.433,0,0,1,3.562-11.54c.139-.26.37-.507.348-.823l-.184.035a30.346,30.346,0,0,0-3.846,19.375" transform="translate(-56.228 -102.231)" fill="#eff6fe"/>
    <path id="Trazado_602167" data-name="Trazado 602167" d="M91.74,136.02a.643.643,0,0,0-.049-.212c-.047.082-.089.164-.135.246l.184-.035" transform="translate(-68.496 -101.602)" fill="#eff6fe"/>
    <path id="Trazado_602168" data-name="Trazado 602168" d="M197.888,320.962l.113,0a.711.711,0,0,0-.054-.055.741.741,0,0,0-.059.052" transform="translate(-148.046 -240.083)" fill="#eff6fe"/>
    <path id="Trazado_602169" data-name="Trazado 602169" d="M58.295,62q3.509,3.479,6.991,6.985a1.37,1.37,0,0,1,.5.823C69.192,73.2,72.609,76.58,76,79.99a3.988,3.988,0,0,0,2.451,1.26,2.928,2.928,0,0,0,2.682-2.15,2.988,2.988,0,0,0-1.07-3.105c-.557-.55-1.087-1.127-1.629-1.691h0L69.789,65.68q-3.934-3.9-7.871-7.807a.868.868,0,0,1-.262-.515c-.229.126-.459-.023-.682-.192a7.768,7.768,0,0,1-.749-.714q-8.789-8.787-17.573-17.577a4.522,4.522,0,0,1-.765-.822A3.826,3.826,0,0,1,38.1,41.847a2.93,2.93,0,0,1,.466.421q9.153,9.148,18.294,18.307c.275.276.759.55.514,1.019.432-.178.671.162.916.4" transform="translate(-28.508 -28.469)" fill="#47568b"/>
    <path id="Trazado_602170" data-name="Trazado 602170" d="M56.86,72.863c.245-.469-.24-.743-.515-1.019q-9.133-9.167-18.294-18.307a2.944,2.944,0,0,0-.466-.421c-.058,0-.115.012-.175.015.251.278.491.567.755.831q8.974,8.98,17.948,17.96c.278.278.678.484.7.955.015-.007.028-.009.042-.015" transform="translate(-27.988 -39.738)" fill="#47568b"/>
    <path id="Trazado_602171" data-name="Trazado 602171" d="M53.888,38.394q8.782,8.793,17.573,17.577a7.832,7.832,0,0,0,.749.714c.222.169.452.318.682.192,0-.021-.008-.04-.01-.061-.47-.027-.677-.427-.955-.7q-9.019-9-18.026-18.013c-.242-.242-.509-.46-.765-.689,0,.055-.01.108-.014.162a4.531,4.531,0,0,0,.765.822" transform="translate(-39.743 -27.988)" fill="#47568b"/>
    <path id="Trazado_602172" data-name="Trazado 602172" d="M41.8,37.963l-.018-.03a4.671,4.671,0,0,1-3.795,3.806l.03.019A3.826,3.826,0,0,0,41.8,37.963" transform="translate(-28.418 -28.379)" fill="#47568b"/>
    <path id="Trazado_602173" data-name="Trazado 602173" d="M37.557,53.043c-.049.011-.1.024-.145.033.059,0,.116-.01.174-.015l-.03-.019" transform="translate(-27.989 -39.683)" fill="#47568b"/>
    <path id="Trazado_602174" data-name="Trazado 602174" d="M53.084,37.41c-.009.045-.021.087-.031.132l.018.03c0-.054.011-.107.014-.162" transform="translate(-39.691 -27.988)" fill="#47568b"/>
    <path id="Trazado_602175" data-name="Trazado 602175" d="M122.937,139.522h0l.06.06a1.37,1.37,0,0,0-.5-.823q-3.486-3.5-6.991-6.985c-.245-.242-.483-.582-.916-.4,0,.006-.008.013-.012.02a.877.877,0,0,1,.548.263q3.9,3.939,7.808,7.87" transform="translate(-85.722 -98.244)" fill="#47568b"/>
    <path id="Trazado_602176" data-name="Trazado 602176" d="M114.5,131.516c-.014.006-.027.008-.042.015l.03.005.012-.02" transform="translate(-85.632 -98.391)" fill="#47568b"/>
    <path id="Trazado_602177" data-name="Trazado 602177" d="M137.617,91.363c.781.767,1.545,1.55,2.328,2.315l.079.079a18.427,18.427,0,0,1,7.664-2.591,4.01,4.01,0,0,1,.806.041l.022-.015-.019-.047q0-7.7-.006-15.4a.273.273,0,0,1-.057.054,19.274,19.274,0,0,1-3.529.293,32.358,32.358,0,0,0-11.035,3.438c-.286.149-.553.405-.9.381-.006.031-.012.061-.018.092-.329,1.793-.542,3.609-1.047,5.367a.647.647,0,0,1-.171.165c2.018,1.885,3.913,3.894,5.882,5.828" transform="translate(-98.555 -56.666)" fill="#eff6fe"/>
    <path id="Trazado_602178" data-name="Trazado 602178" d="M131.783,97.605c.505-1.758.718-3.574,1.047-5.367.006-.031.012-.061.018-.092a.7.7,0,0,1-.216-.047h0l-1.061,5.632.041.04a.656.656,0,0,0,.171-.165" transform="translate(-98.432 -68.902)" fill="#eff6fe"/>
    <path id="Trazado_602179" data-name="Trazado 602179" d="M137.541,79.317a32.354,32.354,0,0,1,11.035-3.438,19.247,19.247,0,0,0,3.529-.293.266.266,0,0,0,.057-.054v-.068a30.443,30.443,0,0,0-15.485,4.05c-.012.061-.023.123-.035.184.346.024.613-.232.9-.381" transform="translate(-102.226 -56.454)" fill="#eff6fe"/>
    <path id="Trazado_602180" data-name="Trazado 602180" d="M136.035,91.555c-.084.046-.168.09-.251.137a.692.692,0,0,0,.216.047c.012-.061.023-.123.035-.184" transform="translate(-101.584 -68.495)" fill="#eff6fe"/>
    <path id="Trazado_602181" data-name="Trazado 602181" d="M139.744,122.96h0c.062-.042.125-.08.188-.12l-.079-.079c-.782-.765-1.547-1.549-2.328-2.315-1.969-1.934-3.864-3.943-5.882-5.828-.01.007-.021.015-.031.021a.869.869,0,0,0,.262.515q3.939,3.9,7.871,7.807" transform="translate(-98.462 -85.748)" fill="#eff6fe"/>
    <path id="Trazado_602182" data-name="Trazado 602182" d="M131.612,114.5l-.041-.04c0,.021.007.04.01.061.01-.006.021-.014.031-.021" transform="translate(-98.432 -85.631)" fill="#eff6fe"/>
    <path id="Trazado_602183" data-name="Trazado 602183" d="M197.833,90.016a1.862,1.862,0,0,1-.051.37.956.956,0,0,1-.133.306l-.021.014a15.524,15.524,0,0,1,10.79,4.634c4.186,4.374,5.519,9.606,3.723,15.35-1.833,5.861-5.987,9.382-12.062,10.572a10.324,10.324,0,0,1-2.522.158l-.257.012c.487.239.55.76.551,1.328.008,3.1,0,6.2,0,9.3,0,1.252.008,2.5,0,3.756a1.781,1.781,0,0,1-.247,1.167,1.766,1.766,0,0,1,.9-.151,30.831,30.831,0,0,0,29.544-27.5,29.782,29.782,0,0,0-7.275-23.216A30.155,30.155,0,0,0,200.776,75.55c-.688-.084-1.382,0-2.07-.065a1.8,1.8,0,0,1-1.131-.336.177.177,0,0,1-.011.107,1.206,1.206,0,0,1,.277.932c.012,4.609.031,9.218-.008,13.828" transform="translate(-147.605 -56.221)" fill="#dee6f3"/>
    <path id="Trazado_602184" data-name="Trazado 602184" d="M198.3,74.96a1.8,1.8,0,0,0,1.132.336c.687.064,1.381-.019,2.07.065a30.155,30.155,0,0,1,19.991,10.561,30.611,30.611,0,0,1-1.763,41.89,29.887,29.887,0,0,1-20.507,8.826,1.766,1.766,0,0,0-.9.151.946.946,0,0,1-.059.074,22.639,22.639,0,0,0,6.433-.613c17.074-3.842,27.73-20.337,23.653-37.283C225.339,86.436,217.148,78.7,204.6,75.615a59.773,59.773,0,0,0-6.318-.719.265.265,0,0,1,.019.064" transform="translate(-148.33 -56.032)" fill="#dee6f3"/>
    <path id="Trazado_602185" data-name="Trazado 602185" d="M198.294,75.073c-.008-.008-.015-.017-.023-.025,0,.036-.006.072-.01.108.009.008.015.016.023.024a.178.178,0,0,0,.011-.107" transform="translate(-148.325 -56.146)" fill="#dee6f3"/>
    <path id="Trazado_602186" data-name="Trazado 602186" d="M198.306,74.9h0c0,.013,0,.025,0,.038s.015.018.023.025a.266.266,0,0,0-.019-.064" transform="translate(-148.356 -56.033)" fill="#dee6f3"/>
    <path id="Trazado_602187" data-name="Trazado 602187" d="M195.8,273.288c.012-1.252.005-2.5,0-3.755,0-3.1,0-6.2,0-9.295,0-.568-.064-1.09-.551-1.328l-.692.032c.763.115.973.525.965,1.314-.049,4.745-.028,9.492-.03,14.238.019-.015.04-.027.059-.039a1.779,1.779,0,0,0,.247-1.167" transform="translate(-145.552 -193.699)" fill="#dee6f3"/>
    <path id="Trazado_602188" data-name="Trazado 602188" d="M198.326,320.629c-.02.012-.04.025-.06.039v.035c.023-.024.04-.049.06-.074" transform="translate(-148.329 -239.872)" fill="#dee6f3"/>
    <path id="Trazado_602189" data-name="Trazado 602189" d="M198.368,91.01a.959.959,0,0,0,.133-.306,1.863,1.863,0,0,0,.051-.37c.04-4.609.02-9.219.008-13.828a1.2,1.2,0,0,0-.277-.932.189.189,0,0,1-.023.043q0,7.7.006,15.4l.08.006.021-.014" transform="translate(-148.325 -56.539)" fill="#dee6f3"/>
    <path id="Trazado_602190" data-name="Trazado 602190" d="M198.261,75.545a.188.188,0,0,0,.023-.043c-.008-.008-.014-.017-.023-.024v.067" transform="translate(-148.325 -56.467)" fill="#dee6f3"/>
    <path id="Trazado_602191" data-name="Trazado 602191" d="M153.406,188.112q0-5.989-.009-11.978a4.015,4.015,0,0,1-2.559-1.225q-4.776-4.781-9.556-9.558a2.041,2.041,0,0,1-.565-.734,15.933,15.933,0,0,1-.978,2.042c-2.422,5.75-1.87,11.136,2.062,16.048a14.705,14.705,0,0,0,10,5.387,6.082,6.082,0,0,1,.851.134,1.449,1.449,0,0,1,.661-.116l.1,0" transform="translate(-103.455 -123.154)" fill="#fe6c6c"/>
    <path id="Trazado_602192" data-name="Trazado 602192" d="M151.867,187.68a6.073,6.073,0,0,0-.851-.134,14.706,14.706,0,0,1-10-5.387c-3.932-4.912-4.484-10.3-2.062-16.048a16.009,16.009,0,0,0,.978-2.041.922.922,0,0,1-.045-.184h0a15.382,15.382,0,0,0,11.787,23.967h0a.616.616,0,0,1,.191-.172" transform="translate(-102.674 -122.607)" fill="#fe6c6c"/>
    <path id="Trazado_602193" data-name="Trazado 602193" d="M147.937,164.248a2.038,2.038,0,0,0,.565.734q4.778,4.78,9.556,9.559a4.016,4.016,0,0,0,2.56,1.225v-.2h0a3.986,3.986,0,0,1-2.45-1.26c-3.389-3.41-6.807-6.792-10.214-10.183,0,.017.005.034.006.052s-.015.048-.021.072" transform="translate(-110.676 -122.786)" fill="#fe6c6c"/>
    <path id="Trazado_602194" data-name="Trazado 602194" d="M147.824,164c0-.018,0-.034-.006-.052l-.06-.06a.934.934,0,0,0,.045.184c.007-.024.015-.048.021-.072" transform="translate(-110.542 -122.608)" fill="#fe6c6c"/>
    <path id="Trazado_602195" data-name="Trazado 602195" d="M196.071,257.9h-.1a1.449,1.449,0,0,0-.661.116c.025.007.051.012.077.02a1.34,1.34,0,0,1,.423.119l.257-.012q0-.121,0-.242" transform="translate(-146.12 -192.939)" fill="#fe6c6c"/>
    <path id="Trazado_602196" data-name="Trazado 602196" d="M194.822,258.377c-.025-.008-.051-.013-.077-.02a.617.617,0,0,0-.191.172l.691-.033a1.336,1.336,0,0,0-.423-.119" transform="translate(-145.552 -193.285)" fill="#fe6c6c"/>
    <path id="Trazado_602197" data-name="Trazado 602197" d="M198.219,148.037l.209.208c.574.576,1.175,1.128,1.719,1.731a3.173,3.173,0,0,1,.966,3.325,3.138,3.138,0,0,1-2.735,2.184,2.083,2.083,0,0,1,.163,1.039q.012,4.967,0,9.934a2.238,2.238,0,0,1-.137,1,15.084,15.084,0,0,0,2.184-29.981,5.253,5.253,0,0,1-2.308-.47l-.026.018.007.017q-.021,5.495-.042,10.99" transform="translate(-148.294 -102.503)" fill="#e53950"/>
    <path id="Trazado_602198" data-name="Trazado 602198" d="M201.107,186.048a3.173,3.173,0,0,0-.965-3.325c-.544-.6-1.145-1.154-1.719-1.731l-.209-.208c0,.1,0,.2,0,.3h0c.542.565,1.072,1.142,1.629,1.692a2.988,2.988,0,0,1,1.07,3.105,2.928,2.928,0,0,1-2.682,2.15h0a1.032,1.032,0,0,1,.143.2,3.138,3.138,0,0,0,2.735-2.184" transform="translate(-148.289 -135.25)" fill="#e53950"/>
    <path id="Trazado_602199" data-name="Trazado 602199" d="M198.286,136.893h0l.018.047.026-.017c-.015-.01-.03-.019-.044-.03" transform="translate(-148.344 -102.414)" fill="#e53950"/>
    <path id="Trazado_602200" data-name="Trazado 602200" d="M200.842,167.471c6.074-1.19,10.229-4.712,12.061-10.572,1.8-5.744.462-10.976-3.723-15.35a15.525,15.525,0,0,0-10.79-4.634c-.012.009-.024.016-.035.024a5.245,5.245,0,0,0,2.307.47,15.084,15.084,0,0,1-2.184,29.981,1.015,1.015,0,0,1-.159.239,10.336,10.336,0,0,0,2.522-.158" transform="translate(-148.369 -102.43)" fill="#e53950"/>
    <path id="Trazado_602201" data-name="Trazado 602201" d="M198.366,136.9l-.08-.006.044.03.036-.024" transform="translate(-148.344 -102.415)" fill="#e53950"/>
    <path id="Trazado_602202" data-name="Trazado 602202" d="M198.452,222.325a2.247,2.247,0,0,0,.137-1q.012-4.967,0-9.934a2.087,2.087,0,0,0-.163-1.039c-.016,0-.029.006-.045.008-.033,0-.064-.008-.1-.011q0,5.989.009,11.978l.159,0" transform="translate(-148.342 -157.365)" fill="#e53950"/>
    <path id="Trazado_602203" data-name="Trazado 602203" d="M198.379,209.766c.016,0,.03-.006.045-.008a1.02,1.02,0,0,0-.143-.2v.2c.033,0,.064.009.1.011" transform="translate(-148.341 -156.776)" fill="#e53950"/>
    <path id="Trazado_602204" data-name="Trazado 602204" d="M198.319,258.142a1.008,1.008,0,0,0,.159-.239c-.053,0-.106,0-.159,0q0,.121,0,.242" transform="translate(-148.368 -192.943)" fill="#e53950"/>
    <path id="Trazado_602205" data-name="Trazado 602205" d="M165.894,139.486a2.312,2.312,0,0,1-.725.336q4.06,4.083,8.149,8.137a3.334,3.334,0,0,1-.114-.885c0-2.9,0-5.8.008-8.706a1.5,1.5,0,0,1,.323-1.226l-.028,0a3.289,3.289,0,0,1-1.5.35,16.524,16.524,0,0,0-6.113,2" transform="translate(-123.568 -102.599)" fill="#fe6c6c"/>
    <path id="Trazado_602206" data-name="Trazado 602206" d="M164.221,147.754a.792.792,0,0,1-.319-.012l8.642,8.622a2.617,2.617,0,0,1-.173-.474q-4.1-4.046-8.15-8.137" transform="translate(-122.62 -110.53)" fill="#fe6c6c"/>
    <path id="Trazado_602207" data-name="Trazado 602207" d="M165.5,139.33a16.523,16.523,0,0,1,6.113-2,3.289,3.289,0,0,0,1.5-.35,4,4,0,0,0-.806-.041,18.427,18.427,0,0,0-7.664,2.591l.131.132a2.312,2.312,0,0,0,.725-.336" transform="translate(-123.177 -102.442)" fill="#fe6c6c"/>
    <path id="Trazado_602208" data-name="Trazado 602208" d="M164.221,147.4l-.131-.132c-.063.04-.126.079-.188.12a.791.791,0,0,0,.319.012" transform="translate(-122.62 -110.173)" fill="#fe6c6c"/>
    <path id="Trazado_602209" data-name="Trazado 602209" d="M197.082,138.375c-.011,2.9,0,5.8-.008,8.706a3.342,3.342,0,0,0,.114.885l.175.173q.021-5.495.042-10.99a1.5,1.5,0,0,0-.323,1.226" transform="translate(-147.437 -102.605)" fill="#fe6c6c"/>
    <path id="Trazado_602210" data-name="Trazado 602210" d="M197.7,180.269l-.175-.174a2.58,2.58,0,0,0,.174.474h0q0-.15,0-.3" transform="translate(-147.774 -134.735)" fill="#fe6c6c"/>
  </g>
</svg>
