<svg id="Grupo_886236" data-name="Grupo 886236" xmlns="http://www.w3.org/2000/svg" xmlns:xlink="http://www.w3.org/1999/xlink" width="97.989" height="96.483" viewBox="0 0 97.989 96.483">
  <defs>
    <clipPath id="clip-path">
      <rect id="Rectángulo_300871" data-name="Rectángulo 300871" width="97.989" height="96.483" fill="none"/>
    </clipPath>
  </defs>
  <g id="Grupo_886235" data-name="Grupo 886235" clip-path="url(#clip-path)">
    <path id="Trazado_603232" data-name="Trazado 603232" d="M.481,87.236a14.018,14.018,0,0,0,7.108,9.928,14.788,14.788,0,0,0,7.059,1.816c1.88.052,3.763,0,5.644.015,1.234.009,1.375.132,1.089,1.344a10.925,10.925,0,0,0,9.026,12.9,10.73,10.73,0,0,0,1.62.1c6.346,0,12.691-.016,19.036.006a8.463,8.463,0,0,1,8.2,5.765,11.736,11.736,0,0,1,.509,3.68c.018,3.7,0,7.4.008,11.1,0,1.576.414,2.01,1.968,2.025q3.3.031,6.6,0c1.564-.014,1.99-.452,1.995-2,.007-2.264-.051-4.53.017-6.792a15.183,15.183,0,0,1,1.59-7.022,6.928,6.928,0,0,1,1.445-1.89c.658-.586.909-.584,1.5.1a13.3,13.3,0,0,0,4.777,3.738,11.754,11.754,0,0,0,16.328-9.54,12.475,12.475,0,0,0-.281-4.167A2.212,2.212,0,0,1,96,106.6a10.546,10.546,0,0,0,.077-11.419,2.4,2.4,0,0,1-.056-2.642c2.716-5.159,2.2-10.258-1.635-14.648a11.658,11.658,0,0,0-9.539-4.043c-.573.018-1.147.026-1.72.074-.919.078-1.056-.07-.751-.948a15.831,15.831,0,0,0,.794-5.36A14.7,14.7,0,0,0,73.084,53.707c-.394-.13-.795-.234-1.186-.368l-.086-.035a1.885,1.885,0,0,0,.127.347c.641,1.224.641,1.218-.594,1.918-.327.186-.636.4-.954.608v0a10.549,10.549,0,0,1,7.119,4.008,11.938,11.938,0,0,1-.232,15.63c-.547.6-.6,1.48-1.324,1.977-.279.192.136.421.287.587a9.618,9.618,0,0,1-.583,13.408,8.77,8.77,0,0,1-5.636,2.486c-.655.03-1.029.261-.955.982a8.461,8.461,0,0,1,0,.86c0,1.5.152,1.625,1.636,1.4a12.946,12.946,0,0,0,10.918-10.2,12.333,12.333,0,0,0-1.2-8.495c-.289-.569-.187-.738.3-1a9.52,9.52,0,0,1,12.611,3.57,9.261,9.261,0,0,1,.161,9.6c-.249.46-.447.624-.931.289a10.442,10.442,0,0,0-5.288-1.683c-.378-.029-.538.074-.594.413a1.622,1.622,0,0,0-.013.286,5.551,5.551,0,0,0,.095,2.168c.3.617,1.244.371,1.9.54a8.13,8.13,0,0,1,6.054,8.422,8.046,8.046,0,0,1-6.421,7.222c-1.625.308-1.625.308-1.625,1.959,0,1.508-.005,1.447,1.461,1.31a9.893,9.893,0,0,0,4.284-1.449c.73-.444.745.151.747.576a8.715,8.715,0,0,1-1.415,4.971,8.786,8.786,0,0,1-16.162-3.864c-.056-.605-.247-.879-.86-.843-.381.023-.765,0-1.148,0-1.346,0-1.591.091-1.2,1.393.51,1.7-.132,2.59-1.316,3.674a11.584,11.584,0,0,0-3.331,7.109,60.65,60.65,0,0,0-.179,8.3c-.013.85-.212,1.232-1.129,1.166a23.113,23.113,0,0,0-2.963,0c-.729.042-.919-.222-.912-.927.032-3.6.093-7.207-.006-10.807a10.592,10.592,0,0,0-5.592-9.259,10.779,10.779,0,0,0-5.745-1.432q-8.99.088-17.981,0a9.94,9.94,0,0,1-4.717-.923,7.809,7.809,0,0,1-2.06-12.613,8.359,8.359,0,0,1,6.07-2.518c3.7.021,7.4.006,11.094.007a11.617,11.617,0,0,1-.194-3.253l-1.653-.029-5.6.029c-.524.862-1.066,1.713-1.564,2.59-.22.388-.415.51-.794.2a4.419,4.419,0,0,0-.662-.369c-1.561-.868-1.562-.869-.822-2.419v0a9.357,9.357,0,0,0-3.987.76,7.934,7.934,0,0,1-9.084-1.512c-.347-.317-.537-.31-.843.017A6.843,6.843,0,0,1,17,91.753c-.483.291-.536.605-.055,1.023A11.718,11.718,0,0,0,22.053,95.6a1.889,1.889,0,0,1,.879.4c-2.678,0-5.356-.023-8.033.009a12.814,12.814,0,0,1-4.382-.739,11.309,11.309,0,0,1-7.3-10.213c.024-4.57,1.925-8.031,5.856-10.178a11.013,11.013,0,0,1,11.181.244c.577.322.276.721.193,1.065a11.948,11.948,0,0,0,.037,6.114A14.122,14.122,0,0,0,21.6,85.038c.222.426.5.568.905.234a.776.776,0,0,1,.075-.059c.643-.409,1.526-.678,1.863-1.263.356-.617-.51-1.262-.7-1.953a9.209,9.209,0,0,1,.582-7.029c.245-.464.238-.652-.19-.98a17.057,17.057,0,0,0-5.81-3.177c-.818-.223-.738-.952-.685-1.567.057-.656.631-.4.988-.4,2.008-.024,4.016-.005,6.024-.018.334,0,.709.133.992-.182-2.382,0-4.765-.016-7.147.017-.646.009-.879-.163-.882-.847-.009-2.257-.036-2.257,2.226-2.256h5.709a.8.8,0,0,0,0-.081c-.275-.181-.6-.085-.9-.087-1.817-.012-3.633-.017-5.45,0-.587.006-.65-.187-.393-.672a10.418,10.418,0,0,1,13.183-4.864A18.86,18.86,0,0,1,37.5,53.007a17.2,17.2,0,0,1,7.167-3.244,13.636,13.636,0,0,0-11.373,6.155,1.341,1.341,0,0,1-1.845.614c-.834-.374-1.867-.044-2.607-.741A.743.743,0,0,1,28.8,55.7c-.9,1.558-.927,1.547-2.534.551-.187-.116-.381-.223-.573-.332v0c-.139.5-.6.517-.984.629A13.218,13.218,0,0,0,14.92,67.17a12.641,12.641,0,0,0-.135,2.186c-.04.962-.258,1.2-1.18,1.247A14.183,14.183,0,0,0,.5,82.009c-.071.353.083.873-.5.982v3.444c.514.051.422.5.481.8" transform="translate(0 -39.689)" fill="#ea7e99"/>
    <path id="Trazado_603233" data-name="Trazado 603233" d="M.5,106.078A14.183,14.183,0,0,1,13.6,94.673c.922-.043,1.141-.285,1.181-1.247a12.642,12.642,0,0,1,.135-2.186,13.218,13.218,0,0,1,9.793-10.623c.384-.113.844-.126.984-.629v0l-.075-.043c-.621.567-1.468.506-2.2.776A13.613,13.613,0,0,0,14.505,93.4c.014.592-.012.981-.826,1.038-5.9.411-10.029,3.405-12.531,8.728A30.682,30.682,0,0,0,0,107.061c.586-.11.431-.63.5-.983" transform="translate(0 -63.758)" fill="#ea7e99"/>
    <path id="Trazado_603234" data-name="Trazado 603234" d="M142.31,54.7c.741.7,1.773.366,2.607.741a1.341,1.341,0,0,0,1.845-.614,13.636,13.636,0,0,1,11.372-6.155q.27-.052.543-.1a1.609,1.609,0,0,0,.346-.142,11.629,11.629,0,0,0-2.664.08,14.329,14.329,0,0,0-10.035,6.468c-.131.2-.256.559-.548.433-1.113-.481-2.388-.29-3.468-.873l-.036.062a.712.712,0,0,0,.038.095" transform="translate(-113.47 -38.598)" fill="#ea7e99"/>
    <path id="Trazado_603235" data-name="Trazado 603235" d="M14.591,112.454c2.041.007,4.082.016,6.122-.008.53-.006.663.143.52.655a9.4,9.4,0,0,0-.365,2.448,11.206,11.206,0,0,0,11.08,11.294c6.377.03,12.755,0,19.132.013a8.174,8.174,0,0,1,6.229,2.645,8.6,8.6,0,0,1,2.155,6.151c0,3.922,0,7.844,0,11.767,0,1.41.556,1.963,1.97,1.97q3.587.015,7.175,0c1.476,0,1.993-.546,2.021-2.021.058-3.09-.174-6.186.165-9.268a10.189,10.189,0,0,1,2.8-6.529c.428-.417.639-.511,1.069.064A12.022,12.022,0,0,0,95.993,121.58a1.671,1.671,0,0,1,.126-1.441,10.919,10.919,0,0,0-.129-12.4A1.085,1.085,0,0,1,96,106.38a12.84,12.84,0,0,0-7.553-19.194,15.663,15.663,0,0,0-6.061-.2c.076-.231.126-.381.174-.532,2.051-6.439.778-12.077-4.172-16.744a12.579,12.579,0,0,0-6.631-3.365h0c.02.061.038.122.057.184l.086.035c.391.134.792.238,1.186.368A14.7,14.7,0,0,1,83.171,80.842a15.836,15.836,0,0,1-.794,5.36c-.306.877-.168,1.025.751.948.573-.048,1.146-.056,1.72-.074a11.658,11.658,0,0,1,9.539,4.043c3.832,4.39,4.351,9.49,1.635,14.648a2.4,2.4,0,0,0,.055,2.642A10.546,10.546,0,0,1,96,119.827a2.211,2.211,0,0,0-.289,1.737,12.474,12.474,0,0,1,.281,4.167,11.753,11.753,0,0,1-16.328,9.54,13.294,13.294,0,0,1-4.777-3.738c-.59-.683-.84-.684-1.5-.1a6.932,6.932,0,0,0-1.445,1.89,15.188,15.188,0,0,0-1.59,7.022c-.068,2.262-.01,4.528-.017,6.792,0,1.546-.43,1.984-1.995,2q-3.3.03-6.6,0c-1.554-.015-1.965-.448-1.968-2.025-.006-3.7.009-7.4-.008-11.1a11.738,11.738,0,0,0-.509-3.68,8.463,8.463,0,0,0-8.2-5.765c-6.346-.022-12.691-.006-19.036-.006a10.753,10.753,0,0,1-1.62-.1,10.925,10.925,0,0,1-9.026-12.9c.287-1.212.145-1.334-1.088-1.344-1.881-.014-3.764.038-5.644-.015a14.792,14.792,0,0,1-7.059-1.816,14.019,14.019,0,0,1-7.108-9.928c-.059-.3.033-.75-.481-.8.209.856.371,1.728.635,2.567a14.512,14.512,0,0,0,13.956,10.23" transform="translate(0 -52.912)" fill="#ea7e99"/>
    <path id="Trazado_603236" data-name="Trazado 603236" d="M165.026,49.673a16.931,16.931,0,0,0-6.971,3.163,17.438,17.438,0,0,0-5.08,5.974c-.165.337-.292.733-.72.836a21.437,21.437,0,0,0-1.4,6.38,17.36,17.36,0,0,0,3.669,11.543,15.652,15.652,0,0,0,6.943,5.315h0l2.227-.067h0c.006-3.476-.006-6.951.036-10.426.009-.744-.326-.836-.923-.8a4.848,4.848,0,0,1-4.831-2.264,4.809,4.809,0,0,1,4.921-7.261,4.638,4.638,0,0,1,3.787,3.372,5.387,5.387,0,0,1,.132,1.991c-.034.682.137,1.013.892.94.7-.066,1.516.187,2.071-.1.686-.36.2-1.268.3-1.929a4.879,4.879,0,0,1,4.211-4.312,4.712,4.712,0,0,1,5.22,3.381,4.8,4.8,0,0,1-4.529,6.188c-1.669.015-1.67.015-1.668,1.652q0,4.783.012,9.566h0l2.222.077h0a16.472,16.472,0,0,0,9.017-8.866,17.194,17.194,0,0,0-1.044-16.519c-.113-.19-.2-.4-.3-.594h0l-2.006-2.458-.047.01c-.461-.022-.722-.371-1.028-.64a17.43,17.43,0,0,0-10.454-4.411c-1.287-.1-2.536.159-3.8.056l-.12,0c-.169.21-.488.152-.728.2" transform="translate(-120.303 -39.392)" fill="#fbdf13"/>
    <path id="Trazado_603237" data-name="Trazado 603237" d="M224.517,48.352l.12,0c1.267.1,2.516-.156,3.8-.056a17.429,17.429,0,0,1,10.454,4.41c.306.269.567.619,1.028.64l.047-.01-.083-.1h0a22.562,22.562,0,0,0-4.449-3.247,18.753,18.753,0,0,0-10.818-1.879.52.52,0,0,1-.1.241" transform="translate(-179.065 -38.275)" fill="#fbdf13"/>
    <path id="Trazado_603238" data-name="Trazado 603238" d="M158.557,59.1a17.434,17.434,0,0,1,5.08-5.974,16.929,16.929,0,0,1,6.971-3.163c.24-.053.559.005.728-.2q-.4-.01-.787,0A17.2,17.2,0,0,0,163.382,53a18.862,18.862,0,0,0-5.514,6.846l-.031.09c.428-.1.555-.5.72-.836" transform="translate(-125.884 -39.677)" fill="#fbdf13"/>
    <path id="Trazado_603239" data-name="Trazado 603239" d="M220.629,48.825q.389-.008.787,0a.522.522,0,0,0,.1-.241h0a1.606,1.606,0,0,1-.346.142q-.273.044-.543.1" transform="translate(-175.964 -38.751)" fill="#fbdf13"/>
    <path id="Trazado_603240" data-name="Trazado 603240" d="M159.5,1.795c-.1-.178-.15-.433-.464-.454-.669.382-1.348.8-2.051,1.163-.455.238-.554.449-.257.934.848,1.381,1.628,2.8,2.439,4.208,1.3,2.257,1.3,2.244,3.5.884.416-.258.5-.437.238-.88-1.154-1.94-2.266-3.9-3.4-5.856" transform="translate(-124.862 -1.07)" fill="#f85925"/>
    <path id="Trazado_603241" data-name="Trazado 603241" d="M291.557,1.72c-.382-.2-.579-.217-.815.2-1.122,1.993-2.279,3.965-3.418,5.948-.1.178-.36.417-.109.581.795.521,1.625.987,2.414,1.458.363-.037.408-.335.526-.536.82-1.4,1.622-2.8,2.432-4.208,1.291-2.239,1.287-2.229-1.029-3.446" transform="translate(-228.985 -1.263)" fill="#f85925"/>
    <path id="Trazado_603242" data-name="Trazado 603242" d="M303.3,69.387a8.93,8.93,0,0,1,3.2-1.081c.426-.105.869-.14,1.3-.208-.635-1.4-.632-1.4.735-2.2.372-.218.731-.455,1.093-.69a15.083,15.083,0,0,0-7.389,1.363,6.358,6.358,0,0,1-1.017.446c.96.545,1.383,1.578,2.074,2.368" transform="translate(-240.242 -51.972)" fill="#ea7f9a"/>
    <path id="Trazado_603243" data-name="Trazado 603243" d="M301.611,65.646A15.082,15.082,0,0,1,309,64.284l.264-.17a13.709,13.709,0,0,0-8.83,1.894c.055.027.107.056.16.085a6.361,6.361,0,0,0,1.017-.446" transform="translate(-239.614 -51.046)" fill="#ea7f9a"/>
    <path id="Trazado_603244" data-name="Trazado 603244" d="M302.85,76.8h0c.047-.037.1-.072.145-.106-.692-.79-1.114-1.823-2.074-2.368l-.077.016,2.006,2.458h0" transform="translate(-239.94 -59.279)" fill="#ea7f9a"/>
    <path id="Trazado_603245" data-name="Trazado 603245" d="M300.594,73.99c-.052-.03-.1-.059-.16-.085l.083.1.077-.016" transform="translate(-239.614 -58.944)" fill="#ea7f9a"/>
    <path id="Trazado_603246" data-name="Trazado 603246" d="M233.164,2.663c.005-.063,0-.127,0-.191,0-2.6,0-2.583-2.619-2.4-.459.031-.61.186-.6.624.015,1.209.007,2.419,0,3.628,0,.313.036.587.443.573.885-.032,1.92.314,2.607-.142.507-.336.106-1.369.169-2.088" transform="translate(-183.391 0)" fill="#f85b27"/>
    <path id="Trazado_603247" data-name="Trazado 603247" d="M122.351,67.074c.981.551.988.566,1.631-.361.1-.144.19-.3.388-.315a.151.151,0,0,1,0-.025c.192-1.258.194-1.259-.964-1.886q-.922-.5-1.8-1.069c-.417-.27-.7-.208-.91.239-.027.057-.069.107-.1.162-.272.5-.741.972-.758,1.512-.019.63.814.584,1.167.972a1.013,1.013,0,0,1,.247.31c.494-.187.758.269,1.1.46" transform="translate(-95.578 -50.451)" fill="#f85925"/>
    <path id="Trazado_603248" data-name="Trazado 603248" d="M120.325,65.306c-.352-.388-1.186-.342-1.167-.972.017-.541.485-1.012.758-1.513.03-.056.072-.105.1-.162.208-.447.493-.509.91-.239q.878.568,1.8,1.068c1.158.627,1.157.628.965,1.886a.155.155,0,0,0,0,.026.415.415,0,0,1,.046,0,2.507,2.507,0,0,1,.237-.412c.515-.6.273-.948-.35-1.266a20.219,20.219,0,0,1-2.389-1.382c-.73-.51-1.1-.471-1.552.382-1.014,1.924-1.068,1.9.836,2.916h0c.018-.008.036-.014.054-.021a1.014,1.014,0,0,0-.247-.311" transform="translate(-94.897 -49.453)" fill="#f85925"/>
    <path id="Trazado_603249" data-name="Trazado 603249" d="M129.941,78.772c-.2.011-.288.171-.388.315-.643.927-.65.912-1.631.361-.341-.192-.605-.647-1.1-.46a.323.323,0,0,1,.021.063c.192.109.385.216.573.332,1.607,1,1.63,1.007,2.534-.551a.223.223,0,0,1-.009-.06" transform="translate(-101.149 -62.825)" fill="#f85925"/>
    <path id="Trazado_603250" data-name="Trazado 603250" d="M142.235,78.823l.036-.062a.333.333,0,0,0-.046,0,.222.222,0,0,0,.009.06" transform="translate(-113.433 -62.816)" fill="#f85925"/>
    <path id="Trazado_603251" data-name="Trazado 603251" d="M126.611,79.839c-.018.007-.035.012-.054.021l.075.043a.342.342,0,0,0-.021-.063" transform="translate(-100.937 -63.676)" fill="#f85925"/>
    <path id="Trazado_603252" data-name="Trazado 603252" d="M336.039,66.981a3.381,3.381,0,0,1,.96-.616c.578-.278.743-.64.346-1.207a.745.745,0,0,1-.19-.751.563.563,0,0,1-.174-.148A1.027,1.027,0,0,0,335.436,64a.8.8,0,0,1-.37.1c-.229.535-.818.653-1.257.921-.658.4-1.318.726-.708,1.653a.3.3,0,0,1-.046.34c.969,1.314.982,1.308,2.543.432a1.684,1.684,0,0,1,.263-.1h0l.005,0c-.043-.125.058-.247.173-.362" transform="translate(-265.474 -50.854)" fill="#f85925"/>
    <path id="Trazado_603253" data-name="Trazado 603253" d="M343.759,62.849a.8.8,0,0,0,.37-.1,1.027,1.027,0,0,1,1.545.257.56.56,0,0,0,.174.148.651.651,0,0,1,.075-.121c-.459-.956-1.112-1.077-1.942-.454a1.4,1.4,0,0,1-.163.092,1.063,1.063,0,0,1-.059.174" transform="translate(-274.168 -49.607)" fill="#f85925"/>
    <path id="Trazado_603254" data-name="Trazado 603254" d="M349.151,67.69c.4.568.232.929-.346,1.207a3.386,3.386,0,0,0-.96.617c-.115.115-.216.237-.173.362.317-.2.626-.422.953-.608,1.236-.7,1.235-.695.594-1.918a1.868,1.868,0,0,1-.127-.347,1.212,1.212,0,0,1-.131-.064c-.131.28.037.533.19.751" transform="translate(-277.281 -53.388)" fill="#f85925"/>
    <path id="Trazado_603255" data-name="Trazado 603255" d="M354.08,66.463a1.189,1.189,0,0,0,.131.064c-.018-.062-.036-.124-.057-.184h0a.65.65,0,0,0-.074.121" transform="translate(-282.399 -52.912)" fill="#f85925"/>
    <path id="Trazado_603256" data-name="Trazado 603256" d="M332.1,68.279l.022.03a.3.3,0,0,0,.046-.34c-.61-.927.05-1.252.708-1.653.439-.268,1.028-.386,1.257-.921l-.086,0-.119-.009c-.362.235-.721.472-1.093.69-1.367.8-1.37.8-.735,2.2" transform="translate(-264.545 -52.153)" fill="#f85925"/>
    <path id="Trazado_603257" data-name="Trazado 603257" d="M342.747,64.72l.119.009.086,0a1.086,1.086,0,0,0,.059-.174l-.264.17" transform="translate(-273.361 -51.482)" fill="#f85925"/>
    <path id="Trazado_603258" data-name="Trazado 603258" d="M166.333,80.26a2.784,2.784,0,0,1-1.54,1.028c-.455.2-.708-.1-.909-.449a1.68,1.68,0,0,1-.381-.885.644.644,0,0,1-.054.059c-1.454.461-2.956.744-4.406,1.217l.048.054a17.641,17.641,0,0,1,2.926,10.61,17.835,17.835,0,0,1-4.054,10.623,18.963,18.963,0,0,1-5.181,4.326,4.079,4.079,0,0,1-1.674.671c-.08,0-.16,0-.241,0l-.2.155c-.072.712,0,1.286.964,1.134.48-.075.637.235.549.647a9.889,9.889,0,0,1-.942,3.363,10.925,10.925,0,0,0-.772,2.47l-1.5.03h0a7.554,7.554,0,0,1-.594,3.811,4.843,4.843,0,0,1-8.491.013c-.112-.182-.206-.375-.307-.563-.329.339-.792.232-1.2.234q-5.07.022-10.14.006c-4.9-.016-9.642,5.085-7.333,10.616a7.34,7.34,0,0,0,6.23,4.731,102.4,102.4,0,0,0,10.606.193c3.379.042,6.76,0,10.14.011a11.294,11.294,0,0,1,10.9,10.926c.006,3.412,0,6.824,0,10.235,0,1.2.028,1.218,1.244,1.223.7,0,1.4.013,2.1,0,.962-.022,1.087-.141,1.095-1.132.015-2.009-.065-4.02.02-6.026.17-4,1.336-7.588,4.551-10.243a1.239,1.239,0,0,0,.441-1.358,6.455,6.455,0,0,1-.2-1.99.82.82,0,0,1,.847-.847c.255-.017.51-.019.765-.021,1.878-.01,1.878-.01,2.233,1.856a8.609,8.609,0,0,0,16.975-1.4c.018-.789-.11-.881-.784-.535a12.124,12.124,0,0,1-4.376,1.291c-1.025.1-1.274-.092-1.325-1.1,0-.064,0-.128,0-.191-.05-2.159-.05-2.159,2.066-2.611a7.759,7.759,0,0,0-.153-15.135c-1.946-.37-1.946-.37-1.914-2.394.022-1.378.194-1.527,1.579-1.414a10.354,10.354,0,0,1,4.171,1.29c.874.478.984.428,1.443-.477a9.331,9.331,0,0,0-2.669-11.212,9.118,9.118,0,0,0-9.295-1.332c-1.125.444-1.183.61-.673,1.7A13.083,13.083,0,0,1,166.8,121.809a4.947,4.947,0,0,1-.858.059c-.932-.022-1.126-.205-1.179-1.11q-.005-.1,0-.191c.029-1.764-.292-2.21,2.034-2.6a9.261,9.261,0,0,0,5.612-14.821c-.806-1.036-.758-1.01-.136-2.178a14.061,14.061,0,0,1,1.284-1.889A11.8,11.8,0,0,0,168.248,80.9c-.572-.212-1.174-.293-1.751-.467a.347.347,0,0,1-.158-.167h-.007m8.675,47.082a7.783,7.783,0,0,1,6.9-5.575c.672-.076.765.114.72.661-.024.285,0,.573,0,1.027.263.958-.182,1.376-1.322,1.68a4.4,4.4,0,0,0-3.275,3.506c-.166.791-.508,1.168-1.329,1.01a.5.5,0,0,0-.1,0c-2.33,0-2.4-.047-1.6-2.308M154.6,111.087c2.141-1.276,2.13-1.3,3.382.863q1.219,2.1,2.431,4.212c.095.165.18.336.3.569a5,5,0,0,1-1.539.984c-.4.195-.7.709-1.239.493-.144-.058-.22-.3-.315-.464-1.085-1.869-2.158-3.745-3.258-5.605-.273-.462-.305-.73.234-1.052m8.991,24.354c-.723.239-1.327,1.134-2.006.95-.66-.178-.888-1.164-1.344-1.768a15.435,15.435,0,0,0-10.664-6.313c-3.613-.473-7.249-.028-10.124-.193-3.965,0-7.183-.021-10.4.016-.746.009-.985-.194-.976-.962.025-2.306-.008-2.306,2.292-2.306q8.172,0,16.345,0a19.374,19.374,0,0,1,13.567,5.075,22.039,22.039,0,0,1,3.627,4.366c.339.52.395.9-.315,1.135m5.363-45.924c1.625-.033,3.252.011,4.877-.015.555-.009.779.135.8.744.073,2.5.094,2.5-2.373,2.5h-1.721c-1.084,0-2.168-.023-3.251.009-.546.016-.724-.187-.711-.722.078-3.091-.467-2.456,2.383-2.514m-2.482,12.706c.522.3,1.051.595,1.571.9.18.107.435.167.393.56-.424.717-.88,1.517-1.368,2.3-.132.211-.345.06-.506-.032-1.106-.628-2.205-1.266-3.315-1.886-.314-.176-.413-.374-.2-.685a.6.6,0,0,0,.046-.083c1.112-2.4,1.111-2.4,3.381-1.073" transform="translate(-95.947 -63.769)" fill="#fe99b2"/>
    <path id="Trazado_603259" data-name="Trazado 603259" d="M165.469,81.634c.578.175,1.179.255,1.751.467a11.8,11.8,0,0,1,5.306,18.179,14.03,14.03,0,0,0-1.284,1.889c-.623,1.168-.67,1.142.136,2.178a9.261,9.261,0,0,1-5.612,14.821c-2.326.394-2.005.84-2.034,2.6,0,.064,0,.128,0,.191.053.9.247,1.088,1.179,1.11a4.949,4.949,0,0,0,.858-.059,13.084,13.084,0,0,0,10.118-18.338c-.51-1.092-.452-1.258.672-1.7a9.117,9.117,0,0,1,9.295,1.332,9.331,9.331,0,0,1,2.669,11.212c-.458.9-.569.955-1.443.477a10.352,10.352,0,0,0-4.171-1.29c-1.385-.113-1.557.037-1.579,1.414-.032,2.024-.032,2.024,1.914,2.394a7.759,7.759,0,0,1,.153,15.135c-2.116.451-2.116.451-2.066,2.611,0,.064,0,.128,0,.191.051,1.006.3,1.2,1.325,1.1a12.122,12.122,0,0,0,4.376-1.291c.674-.346.8-.254.784.535a8.567,8.567,0,0,1-16.975,1.4c-.355-1.867-.355-1.867-2.233-1.856-.255,0-.51,0-.765.021a.821.821,0,0,0-.847.847,6.459,6.459,0,0,0,.2,1.99,1.239,1.239,0,0,1-.442,1.358c-3.215,2.656-4.381,6.246-4.551,10.243-.085,2.005,0,4.017-.02,6.026-.007.991-.132,1.11-1.095,1.132-.7.016-1.4.006-2.1,0-1.216-.005-1.242-.026-1.244-1.223,0-3.412,0-6.824,0-10.235a11.294,11.294,0,0,0-10.9-10.926c-3.38-.008-6.76.032-10.14-.011a102.458,102.458,0,0,1-10.606-.193,7.34,7.34,0,0,1-6.23-4.731c-2.31-5.53,2.437-10.631,7.333-10.616q5.07.016,10.14-.006c.41,0,.874.105,1.2-.234l-.011-.021c-3.7,0-7.4.014-11.095-.007a8.358,8.358,0,0,0-6.07,2.518,7.809,7.809,0,0,0,2.06,12.613,9.937,9.937,0,0,0,4.716.923q8.99.083,17.981,0a10.78,10.78,0,0,1,5.745,1.432,10.592,10.592,0,0,1,5.592,9.259c.1,3.6.038,7.2.007,10.807-.006.7.184.969.912.927a23.113,23.113,0,0,1,2.963,0c.918.065,1.117-.316,1.129-1.167a60.65,60.65,0,0,1,.179-8.3,11.583,11.583,0,0,1,3.33-7.109c1.185-1.084,1.827-1.978,1.317-3.674-.392-1.3-.146-1.392,1.2-1.393.382,0,.766.019,1.147,0,.613-.037.8.237.86.843a8.786,8.786,0,0,0,16.162,3.864,8.716,8.716,0,0,0,1.415-4.971c0-.425-.016-1.02-.747-.576a9.894,9.894,0,0,1-4.284,1.449c-1.466.137-1.461.2-1.461-1.31,0-1.651,0-1.651,1.625-1.959a8.046,8.046,0,0,0,6.421-7.222,8.13,8.13,0,0,0-6.054-8.422c-.653-.169-1.6.077-1.9-.54a5.546,5.546,0,0,1-.095-2.168,1.626,1.626,0,0,1,.013-.286c.056-.339.215-.442.594-.413a10.438,10.438,0,0,1,5.287,1.683c.484.335.682.17.931-.289a9.261,9.261,0,0,0-.161-9.6,9.52,9.52,0,0,0-12.611-3.57c-.491.266-.592.435-.3,1a12.334,12.334,0,0,1,1.2,8.495,12.947,12.947,0,0,1-10.918,10.2c-1.484.23-1.636.1-1.636-1.4a8.468,8.468,0,0,0,0-.86c-.074-.721.3-.952.955-.982a8.77,8.77,0,0,0,5.636-2.486,9.618,9.618,0,0,0,.583-13.408c-.151-.166-.565-.395-.287-.587.721-.5.777-1.381,1.324-1.977a11.938,11.938,0,0,0,.232-15.63,10.549,10.549,0,0,0-7.119-4.008.345.345,0,0,0,.158.167" transform="translate(-94.918 -64.975)" fill="#fe99b2"/>
    <path id="Trazado_603260" data-name="Trazado 603260" d="M279.576,86.908a17.194,17.194,0,0,1,1.044,16.519,16.472,16.472,0,0,1-9.017,8.866h0l-.315.245c.08,0,.161,0,.241,0a4.079,4.079,0,0,0,1.674-.67,18.964,18.964,0,0,0,5.181-4.326,17.836,17.836,0,0,0,4.055-10.623,17.644,17.644,0,0,0-2.926-10.61c-.017-.018-.032-.036-.048-.054-.062.02-.124.038-.186.059.1.2.185.4.3.594" transform="translate(-216.368 -68.793)" fill="#fe99b2"/>
    <path id="Trazado_603261" data-name="Trazado 603261" d="M314.669,79.864a8.927,8.927,0,0,0-3.2,1.081l.041.047c1.45-.472,2.953-.755,4.406-1.217a.643.643,0,0,0,.054-.059c0-.02,0-.039,0-.061-.435.067-.878.1-1.3.207" transform="translate(-248.415 -63.531)" fill="#fe99b2"/>
    <path id="Trazado_603262" data-name="Trazado 603262" d="M310.755,86.13h0c.062-.021.124-.039.186-.06l-.041-.047c-.049.034-.1.069-.145.106" transform="translate(-247.845 -68.609)" fill="#fe99b2"/>
    <path id="Trazado_603263" data-name="Trazado 603263" d="M334.085,80.719c.2.351.453.649.909.449a2.784,2.784,0,0,0,1.54-1.028,1.684,1.684,0,0,0-.263.1c-1.561.876-1.574.882-2.543-.432l-.024.031a1.68,1.68,0,0,0,.381.885" transform="translate(-266.148 -63.648)" fill="#fe99b2"/>
    <path id="Trazado_603264" data-name="Trazado 603264" d="M333.707,79.718c.008-.01.016-.02.024-.031l-.022-.03c0,.021,0,.04,0,.061" transform="translate(-266.151 -63.531)" fill="#fe99b2"/>
    <path id="Trazado_603265" data-name="Trazado 603265" d="M45.986,128.871c.932-1.583,1.883-3.156,2.785-4.755.319-.566.578-.648,1.167-.3,2.044,1.211,2.056,1.18.885,3.217-.309.537-.595,1.086-.888,1.632a1.183,1.183,0,0,1,.188-.042c1.737-.1,3.474-.048,5.21-.033h.087c-.013-2.2-.04-4.4-.02-6.6a1.283,1.283,0,0,0-.269-.9c-.062,0-.123,0-.185,0a11.6,11.6,0,0,1-4.964-2.94,17.442,17.442,0,0,1-6-12.289,18.4,18.4,0,0,1,1.091-7.493,1.747,1.747,0,0,1,.416-.756,15.82,15.82,0,0,0-3.812-.636,10.134,10.134,0,0,0-8.574,4.869c-.15.23-.433.489-.279.764s.519.163.8.165c1.589.012,3.178-.021,4.766.023.289.008.782-.132.8.33a.658.658,0,0,1,.1.081l-.01,3.076c.07.119,0,.231-.191.325a2.291,2.291,0,0,1-1.034.132c-1.817.005-3.633-.008-5.45.01-.382,0-.915-.163-1.028.417a.981.981,0,0,0,.774,1.153c.692.244,1.376.506,2.047.8a19.66,19.66,0,0,1,3.566,2.389.83.83,0,0,1,.242,1.173,8.667,8.667,0,0,0-.007,8.089.963.963,0,0,1-.43,1.44c-.384.227-.762.464-1.141.7-.94.582-1.3.491-1.8-.5a12.087,12.087,0,0,1-1.121-7.986c.263-1.35.253-1.381-.986-1.946a10.968,10.968,0,0,0-15.6,9.677,11.142,11.142,0,0,0,11.26,11.245c2.574-.042,5.153-.092,7.734.07a6.5,6.5,0,0,1-2.838-.844,12.876,12.876,0,0,1-2.585-1.8c-.823-.72-.835-1.1,0-1.749.6-.464,1-1.322,1.786-1.355.748-.031,1.182.787,1.8,1.163a7.574,7.574,0,0,0,6.594.86,20.984,20.984,0,0,1,3.475-1.036,3.023,3.023,0,0,1,1.509.008.709.709,0,0,1,.13.145h0Zm-3.323-11.193c-1.04.607-2.092,1.192-3.127,1.806-.372.221-.579.188-.838-.2-1.445-2.159-1.456-2.151.724-3.45a1.26,1.26,0,0,1,.161-.1c.693-.279,1.417-1.231,1.959-.9.667.411.959,1.432,1.412,2.19a2.058,2.058,0,0,1,.088.191c.044.277-.2.356-.379.46" transform="translate(-13.65 -77.341)" fill="#fe99b2"/>
    <path id="Trazado_603266" data-name="Trazado 603266" d="M44.89,165.415a3.028,3.028,0,0,0-1.509-.008,21,21,0,0,0-3.475,1.036,7.573,7.573,0,0,1-6.594-.86c-.62-.377-1.053-1.195-1.8-1.163-.79.033-1.19.891-1.786,1.355-.835.65-.822,1.029,0,1.75a12.883,12.883,0,0,0,2.585,1.8,6.5,6.5,0,0,0,2.838.844c-2.581-.162-5.16-.111-7.734-.069a11.141,11.141,0,0,1-11.26-11.245,10.968,10.968,0,0,1,15.6-9.677c1.239.565,1.248.6.986,1.946a12.087,12.087,0,0,0,1.121,7.987c.5.986.865,1.077,1.8.5.379-.235.757-.473,1.141-.7a.963.963,0,0,0,.43-1.44,8.667,8.667,0,0,1,.007-8.089.83.83,0,0,0-.242-1.173,19.651,19.651,0,0,0-3.565-2.389c-.671-.3-1.356-.557-2.047-.8a.981.981,0,0,1-.774-1.153c.112-.581.646-.414,1.027-.418,1.817-.018,3.633,0,5.45-.01a2.291,2.291,0,0,0,1.034-.132c.192-.094.261-.206.191-.325v.01h0c-.283.315-.658.18-.992.182-2.008.012-4.016-.006-6.024.018-.356,0-.931-.254-.988.4-.053.615-.133,1.344.685,1.567a17.052,17.052,0,0,1,5.81,3.177c.429.327.435.516.19.979a9.21,9.21,0,0,0-.582,7.03c.193.69,1.059,1.336.7,1.953-.337.584-1.22.854-1.863,1.263a.8.8,0,0,0-.075.059c-.409.334-.683.192-.9-.234a14.089,14.089,0,0,1-1.109-2.734,11.947,11.947,0,0,1-.037-6.114c.084-.344.384-.743-.192-1.065a11.013,11.013,0,0,0-11.181-.244c-3.932,2.147-5.833,5.608-5.856,10.178a11.309,11.309,0,0,0,7.3,10.213,12.805,12.805,0,0,0,4.382.74c2.677-.032,5.355-.009,8.033-.009a1.889,1.889,0,0,0-.879-.4,11.721,11.721,0,0,1-5.108-2.826c-.481-.418-.428-.732.055-1.023a6.844,6.844,0,0,0,1.42-1.268c.306-.327.5-.334.843-.017a7.934,7.934,0,0,0,9.084,1.512,9.365,9.365,0,0,1,3.987-.76.707.707,0,0,0-.13-.145" transform="translate(-12.686 -114.029)" fill="#fe99b2"/>
    <path id="Trazado_603267" data-name="Trazado 603267" d="M184.209,253.066c-1.736-.015-3.472-.062-5.21.033a1.181,1.181,0,0,0-.188.042l-.109.2,5.6-.029c0-.083,0-.167,0-.25h-.087" transform="translate(-142.526 -201.815)" fill="#fe99b2"/>
    <path id="Trazado_603268" data-name="Trazado 603268" d="M98.246,101.842c-1.588-.044-3.177-.012-4.766-.023-.276,0-.642.109-.8-.165s.128-.534.279-.764a10.134,10.134,0,0,1,8.574-4.869,15.808,15.808,0,0,1,3.812.635.889.889,0,0,1,.142-.106,10.418,10.418,0,0,0-13.183,4.864c-.256.485-.194.677.393.672,1.817-.018,3.633-.013,5.45,0,.3,0,.624-.094.9.087-.022-.462-.515-.321-.8-.33" transform="translate(-73.507 -76.385)" fill="#fe99b2"/>
    <path id="Trazado_603269" data-name="Trazado 603269" d="M160.531,123.291h0a15.653,15.653,0,0,1-6.943-5.315,17.361,17.361,0,0,1-3.669-11.543,21.437,21.437,0,0,1,1.4-6.38.79.79,0,0,1-.087.021l-.023-.005a1.745,1.745,0,0,0-.416.756,18.4,18.4,0,0,0-1.091,7.493,17.442,17.442,0,0,0,6,12.289,11.6,11.6,0,0,0,4.964,2.94c.062,0,.123,0,.185,0a1.18,1.18,0,0,0-.32-.255" transform="translate(-119.371 -79.797)" fill="#fe99b2"/>
    <path id="Trazado_603270" data-name="Trazado 603270" d="M157.314,99.718a.779.779,0,0,0,.087-.021l.031-.09a.9.9,0,0,0-.142.106l.023.005" transform="translate(-125.449 -79.442)" fill="#fe99b2"/>
    <path id="Trazado_603271" data-name="Trazado 603271" d="M217.071,222.613c.018-.029.037-.058.059-.087.378-.262.858-.1,1.248-.308.081-.29.178-.574.283-.856.013-1.8.024-3.6.05-5.4,0-.007,0-.014,0-.02a1.562,1.562,0,0,1-.041-.924.392.392,0,0,1,.083-.189,3.134,3.134,0,0,1-1.592-.169.873.873,0,0,1-.128-.159,22.828,22.828,0,0,1-3.151-.007l-3.2,0-3.005,0a1.04,1.04,0,0,1-.105.147,3.4,3.4,0,0,1-1.775.182.847.847,0,0,1,.312.663c.058,2.217.083,4.435-.014,6.652a.565.565,0,0,1-.04.178,2.763,2.763,0,0,1,1.52.2c.012.026.022.051.033.077,3.155-.053,6.311-.084,9.466.013" transform="translate(-164.132 -171.071)" fill="#3dcce6"/>
    <path id="Trazado_603272" data-name="Trazado 603272" d="M208.009,253.3a2.762,2.762,0,0,0-1.52-.2.948.948,0,0,1-.147.251l1.653.029h.048c-.012-.026-.021-.051-.034-.077" transform="translate(-164.57 -201.847)" fill="#3dcce6"/>
    <path id="Trazado_603273" data-name="Trazado 603273" d="M205.6,214.659a1.043,1.043,0,0,0,.105-.147h-.154l-2.226.067a1.505,1.505,0,0,1,.5.262,3.4,3.4,0,0,0,1.775-.182" transform="translate(-162.161 -171.086)" fill="#3dcce6"/>
    <path id="Trazado_603274" data-name="Trazado 603274" d="M261.3,214.5a.873.873,0,0,0,.128.159,3.132,3.132,0,0,0,1.592.169c.148-.176.436-.131.616-.257l-2.222-.077h0l-.114.006" transform="translate(-208.405 -171.073)" fill="#3dcce6"/>
    <path id="Trazado_603275" data-name="Trazado 603275" d="M269.206,216.285a1.56,1.56,0,0,0,.041.924c0-.325-.133-.681.142-.97l.2-.155c-.1,0-.2.007-.3.013a.393.393,0,0,0-.083.189" transform="translate(-214.669 -172.339)" fill="#3dcce6"/>
    <path id="Trazado_603276" data-name="Trazado 603276" d="M263.092,248.422c-.1.282-.2.566-.283.856-.39.206-.87.046-1.248.308-.021.029-.04.058-.059.087l.084,0h0l1.5-.03q0-.612.009-1.223" transform="translate(-208.563 -198.131)" fill="#3dcce6"/>
    <path id="Trazado_603277" data-name="Trazado 603277" d="M270.418,214.875c-.18.126-.468.081-.616.257.1-.005.2-.01.3-.013l.315-.245h0" transform="translate(-215.183 -171.375)" fill="#3dcce6"/>
    <path id="Trazado_603278" data-name="Trazado 603278" d="M205.394,216.774a.846.846,0,0,0-.312-.663l-.18-.006a1.283,1.283,0,0,1,.269.9c-.02,2.2.008,4.4.02,6.6l.148,0a.566.566,0,0,0,.04-.178c.1-2.217.072-4.435.014-6.652" transform="translate(-163.421 -172.356)" fill="#3dcce6"/>
    <path id="Trazado_603279" data-name="Trazado 603279" d="M206.333,253.154c0,.083,0,.167,0,.25a.95.95,0,0,0,.147-.252l-.148,0" transform="translate(-164.563 -201.903)" fill="#3dcce6"/>
    <path id="Trazado_603280" data-name="Trazado 603280" d="M203.321,214.843h0a1.176,1.176,0,0,1,.32.255l.181.006a1.505,1.505,0,0,0-.5-.262" transform="translate(-162.16 -171.35)" fill="#3dcce6"/>
    <path id="Trazado_603281" data-name="Trazado 603281" d="M216.3,259.47a4.232,4.232,0,0,0,4.8,1.076,4.376,4.376,0,0,0,3.01-4.117,4.1,4.1,0,0,1,.135-1.565,1.976,1.976,0,0,1-1.038.2q-3.625.011-7.249,0a1.758,1.758,0,0,1-1.1-.253,8.85,8.85,0,0,1,.237,3.093.935.935,0,0,1-.095.118c.613.318.85.979,1.3,1.452" transform="translate(-171.363 -203.223)" fill="#f85925"/>
    <path id="Trazado_603282" data-name="Trazado 603282" d="M214.738,257.687a8.846,8.846,0,0,0-.237-3.093c-.024-.018-.048-.034-.072-.054a11.617,11.617,0,0,0,.194,3.253c.007,0,.013.008.02.012a.893.893,0,0,0,.095-.118" transform="translate(-171.004 -203.01)" fill="#f85925"/>
    <path id="Trazado_603283" data-name="Trazado 603283" d="M224.638,256.273a4.376,4.376,0,0,1-3.01,4.117,4.232,4.232,0,0,1-4.8-1.076c-.448-.473-.685-1.134-1.3-1.452l-.009.009c.1.188.2.382.308.563a4.843,4.843,0,0,0,8.49-.013,7.554,7.554,0,0,0,.594-3.811,1.133,1.133,0,0,1-.139.1,4.1,4.1,0,0,0-.135,1.565" transform="translate(-171.89 -203.067)" fill="#f85925"/>
    <path id="Trazado_603284" data-name="Trazado 603284" d="M215.475,270.63l.009-.009c-.007,0-.013-.009-.02-.012l.011.021" transform="translate(-171.845 -215.826)" fill="#f85925"/>
    <path id="Trazado_603285" data-name="Trazado 603285" d="M223.115,254.649a1.977,1.977,0,0,0,1.038-.2c.017-.033.035-.067.056-.1-3.155-.1-6.311-.066-9.466-.013l.024.055a1.758,1.758,0,0,0,1.1.253q3.625.013,7.249,0" transform="translate(-171.269 -202.812)" fill="#f85925"/>
    <path id="Trazado_603286" data-name="Trazado 603286" d="M214.554,254.536h-.048c.023.02.048.036.071.054l-.024-.055" transform="translate(-171.081 -203.007)" fill="#f85925"/>
    <path id="Trazado_603287" data-name="Trazado 603287" d="M261.283,254.6q-.031.049-.055.1a1.136,1.136,0,0,0,.139-.1h0l-.084,0" transform="translate(-208.345 -203.057)" fill="#f85925"/>
    <path id="Trazado_603288" data-name="Trazado 603288" d="M158.346,236.107c-.214.41-.088.606.267.846,1.737,1.174,1.719,1.177,2.823-.62.27-.439.413-1.016.923-1.248-.057-.593.4-1,.633-1.481.1-.2.223-.386.337-.577.975-1.636.959-1.606-.723-2.509-.656-.352-.964-.168-1.275.417-.657,1.237-1.362,2.448-2.085,3.647-.162.268-.228.7-.7.657v0c.2.307-.058.6-.2.864" transform="translate(-126.206 -183.711)" fill="#f85925"/>
    <path id="Trazado_603289" data-name="Trazado 603289" d="M160.728,255.028c-1.1,1.8-1.086,1.793-2.823.62-.355-.24-.482-.436-.267-.846.138-.264.4-.557.2-.864-.74,1.551-.739,1.551.822,2.419a4.392,4.392,0,0,1,.662.369c.379.309.574.186.794-.2.5-.877,1.04-1.728,1.564-2.59h0a1.1,1.1,0,0,1-.025-.153c-.51.232-.653.809-.923,1.248" transform="translate(-125.498 -202.404)" fill="#f85925"/>
    <path id="Trazado_603290" data-name="Trazado 603290" d="M163.681,228.759c-.59-.349-.848-.267-1.167.3-.9,1.6-1.853,3.172-2.785,4.755.475.043.542-.389.7-.657.723-1.2,1.428-2.41,2.085-3.647.311-.585.62-.769,1.275-.417,1.682.9,1.7.873.723,2.509-.114.191-.241.377-.337.577-.233.485-.69.888-.633,1.481a1.038,1.038,0,0,1,.133-.05c.293-.546.579-1.1.887-1.632,1.172-2.036,1.159-2.006-.885-3.217" transform="translate(-127.393 -182.282)" fill="#f85925"/>
    <path id="Trazado_603291" data-name="Trazado 603291" d="M178.582,253.583a1.13,1.13,0,0,0,.024.154l.109-.2a1.068,1.068,0,0,0-.133.05" transform="translate(-142.43 -202.207)" fill="#f85925"/>
    <path id="Trazado_603292" data-name="Trazado 603292" d="M94.363,128.09c-1.684,0-3.369.037-5.052-.017-.687-.022-.969.205-.985.916-.032,1.487.022,1.578,1.5,1.582,1.621,0,3.241,0,4.862,0a3.2,3.2,0,0,1,1.223.129.561.561,0,0,1,.151.129,3.626,3.626,0,0,1,.023-3.051h-.1a1.137,1.137,0,0,1-.019.155,3.781,3.781,0,0,1-1.6.156" transform="translate(-70.441 -101.911)" fill="#f85926"/>
    <path id="Trazado_603293" data-name="Trazado 603293" d="M94.828,130.7a3.2,3.2,0,0,0-1.223-.129c-1.621-.005-3.241,0-4.862,0-1.478,0-1.532-.094-1.5-1.582.015-.711.3-.938.985-.916,1.683.054,3.368.021,5.052.017a3.782,3.782,0,0,0,1.6-.156,1.168,1.168,0,0,0,.019-.155H89.188c-2.262,0-2.235,0-2.226,2.256,0,.684.236.856.882.847,2.382-.033,4.765-.015,7.147-.017-.005-.012-.008-.023-.013-.034a.557.557,0,0,0-.151-.129" transform="translate(-69.357 -101.906)" fill="#f85926"/>
    <path id="Trazado_603294" data-name="Trazado 603294" d="M125.284,130.831a.2.2,0,0,1,.013.024q0-1.538.01-3.076a3.626,3.626,0,0,0-.023,3.051" transform="translate(-99.662 -101.912)" fill="#f85926"/>
    <path id="Trazado_603295" data-name="Trazado 603295" d="M126.578,142.877a.237.237,0,0,0-.013-.024c0,.012.008.023.013.034Z" transform="translate(-100.943 -113.934)" fill="#f85926"/>
    <path id="Trazado_603296" data-name="Trazado 603296" d="M193.146,133.446l.073,0c-.007-3.434-.007-6.868-.031-10.3,0-.541.184-.7.719-.716,2.528-.088,2.529-.1,2.527,2.434q0,4.293-.013,8.586h0a10.572,10.572,0,0,1,3.114.154,1.975,1.975,0,0,1-.129-.945c-.009-3.029-.015-6.059,0-9.088.006-1.2.193-1.383,1.4-1.393a5.321,5.321,0,0,0,2.413-.476,4.47,4.47,0,0,0,2.409-5.211,4.519,4.519,0,0,0-8.742.056,7.881,7.881,0,0,0-.207,1.9.9.9,0,0,1-1,1.006c-.064,0-.127.007-.191.007-2.657.017-2.6.15-2.619-2.3a4.338,4.338,0,0,0-3.486-3.924,4.512,4.512,0,0,0-5.021,2.453,4.451,4.451,0,0,0,3.912,6.455c2.205.067,2.106.177,2.105,2.264,0,2.679,0,5.357,0,8.036a2.549,2.549,0,0,1-.124,1.153,9.873,9.873,0,0,1,2.9-.141m6.507-15.293c.073-1.44.51-2.071,1.634-2.058a1.532,1.532,0,0,1,1.611,1.511c.029,1.016-.738,1.594-2.238,1.6-.754.185-1.053-.143-1.007-1.05m-9.616.705c-.147.7-.833.121-1.1.346-1.417-.011-2.075-.52-2.087-1.532a1.413,1.413,0,0,1,1.048-1.515,1.536,1.536,0,0,1,1.947.752,2.882,2.882,0,0,1,.187,1.949" transform="translate(-146.672 -90.233)" fill="#f85925"/>
    <path id="Trazado_603297" data-name="Trazado 603297" d="M189.083,131.216c.01-2.678,0-5.357,0-8.036,0-2.087.1-2.2-2.105-2.263a4.451,4.451,0,0,1-3.912-6.455,4.512,4.512,0,0,1,5.021-2.453,4.338,4.338,0,0,1,3.486,3.924c.022,2.453-.038,2.32,2.619,2.3.064,0,.128-.007.191-.007a.9.9,0,0,0,1-1.006,7.883,7.883,0,0,1,.207-1.9,4.519,4.519,0,0,1,8.742-.056,4.471,4.471,0,0,1-2.409,5.211,5.324,5.324,0,0,1-2.413.476c-1.208.01-1.394.195-1.4,1.393-.016,3.029-.01,6.059,0,9.088a1.981,1.981,0,0,0,.129.945c.05.018.1.035.15.056q-.006-4.783-.012-9.566c0-1.637,0-1.637,1.668-1.652a4.8,4.8,0,0,0,4.529-6.188,4.713,4.713,0,0,0-5.22-3.381,4.879,4.879,0,0,0-4.211,4.312c-.1.661.391,1.57-.3,1.929-.554.291-1.376.037-2.071.1-.755.072-.926-.258-.892-.94a5.387,5.387,0,0,0-.132-1.991,4.638,4.638,0,0,0-3.787-3.372,4.809,4.809,0,0,0-4.921,7.261,4.849,4.849,0,0,0,4.831,2.264c.6-.038.932.055.923.8-.042,3.475-.029,6.951-.036,10.426q.1-.04.191-.073a2.548,2.548,0,0,0,.124-1.153" transform="translate(-145.38 -89.016)" fill="#f85925"/>
    <path id="Trazado_603298" data-name="Trazado 603298" d="M218.015,213.305a9.873,9.873,0,0,0-2.9.141c-.012.025-.022.049-.037.073l3.005,0c0-.071,0-.142,0-.214h-.073" transform="translate(-171.541 -170.093)" fill="#f85925"/>
    <path id="Trazado_603299" data-name="Trazado 603299" d="M245.739,213.295h0c0,.07,0,.14,0,.21a22.8,22.8,0,0,0,3.151.006c-.013-.02-.025-.041-.036-.062a10.572,10.572,0,0,0-3.114-.154" transform="translate(-195.99 -170.082)" fill="#f85925"/>
    <path id="Trazado_603300" data-name="Trazado 603300" d="M214.476,214.224c.014-.024.025-.049.037-.073q-.1.032-.191.073h.154" transform="translate(-170.934 -170.798)" fill="#f85925"/>
    <path id="Trazado_603301" data-name="Trazado 603301" d="M261.162,214.28l.114-.006c-.05-.021-.1-.038-.15-.056.011.021.023.042.036.062" transform="translate(-208.263 -170.851)" fill="#f85925"/>
    <path id="Trazado_603302" data-name="Trazado 603302" d="M190.9,306.871a19.374,19.374,0,0,0-13.566-5.075q-8.172.009-16.345,0c-2.3,0-2.267,0-2.292,2.306-.008.767.23.97.977.962,3.218-.037,6.436-.016,10.4-.016,2.875.165,6.511-.28,10.124.193a15.436,15.436,0,0,1,10.664,6.313c.456.6.684,1.59,1.344,1.768.679.183,1.283-.712,2.006-.95s.654-.615.315-1.135a22.039,22.039,0,0,0-3.627-4.366" transform="translate(-126.568 -240.7)" fill="#ea7f99"/>
    <path id="Trazado_603303" data-name="Trazado 603303" d="M390.31,294.316a.5.5,0,0,1,.1,0c.821.159,1.163-.218,1.329-1.01a4.4,4.4,0,0,1,3.275-3.506c1.139-.3,1.584-.723,1.322-1.68,0-.454-.019-.742,0-1.027.045-.547-.049-.736-.72-.661a7.783,7.783,0,0,0-6.9,5.575c-.8,2.261-.734,2.31,1.6,2.308" transform="translate(-309.653 -228.434)" fill="#ea7f99"/>
    <path id="Trazado_603304" data-name="Trazado 603304" d="M349.561,130.352c1.083-.031,2.167-.009,3.251-.009h1.721c2.467,0,2.446,0,2.373-2.5-.018-.609-.242-.752-.8-.744-1.625.026-3.252-.018-4.877.015-2.85.058-2.305-.578-2.383,2.514-.013.535.165.737.711.721" transform="translate(-278.228 -101.369)" fill="#f85926"/>
    <path id="Trazado_603305" data-name="Trazado 603305" d="M291.061,236.941c.1.164.171.406.315.464.536.216.842-.3,1.239-.493a5,5,0,0,0,1.539-.984c-.125-.234-.21-.4-.3-.569q-1.213-2.107-2.431-4.212c-1.251-2.16-1.241-2.139-3.382-.863-.54.321-.507.59-.234,1.052,1.1,1.86,2.173,3.736,3.258,5.605" transform="translate(-229.386 -182.966)" fill="#f85925"/>
    <path id="Trazado_603306" data-name="Trazado 603306" d="M331.041,187.529a.6.6,0,0,1-.046.084c-.212.311-.113.509.2.685,1.11.62,2.21,1.258,3.315,1.886.161.092.374.243.506.032.488-.78.944-1.579,1.368-2.3.041-.393-.213-.453-.393-.56-.519-.308-1.049-.6-1.571-.9-2.269-1.323-2.269-1.324-3.381,1.073" transform="translate(-263.898 -148.001)" fill="#f85925"/>
    <path id="Trazado_603307" data-name="Trazado 603307" d="M270.28,227.169a13.09,13.09,0,0,0,1.115-3.5c.06-.567.021-.905-.642-.984a.892.892,0,0,1-.513-.2,3.679,3.679,0,0,1,.1.624,31.094,31.094,0,0,1-.063,4.066" transform="translate(-215.533 -177.44)" fill="#e3839e"/>
    <path id="Trazado_603308" data-name="Trazado 603308" d="M269.5,217.99a.891.891,0,0,0,.514.2c.662.079.7.417.642.984a13.083,13.083,0,0,1-1.116,3.5c-.052.6-.124,1.192-.228,1.785a10.919,10.919,0,0,1,.772-2.47,9.889,9.889,0,0,0,.942-3.363c.087-.412-.07-.723-.549-.647-.969.152-1.036-.422-.964-1.134a1.762,1.762,0,0,0-.012,1.14" transform="translate(-214.791 -172.95)" fill="#e3839e"/>
    <path id="Trazado_603309" data-name="Trazado 603309" d="M269.354,227.064c.07-.188.144-.376.219-.562a31.1,31.1,0,0,0,.063-4.066,3.662,3.662,0,0,0-.1-.624.59.59,0,0,1-.13-.169c0,.007,0,.014,0,.021-.025,1.8-.037,3.6-.05,5.4" transform="translate(-214.825 -176.773)" fill="#e3839e"/>
    <path id="Trazado_603310" data-name="Trazado 603310" d="M269.468,217.82a.593.593,0,0,0,.13.169,1.762,1.762,0,0,1,.012-1.14c-.275.289-.144.646-.142.97" transform="translate(-214.89 -172.95)" fill="#e3839e"/>
    <path id="Trazado_603311" data-name="Trazado 603311" d="M269.319,246.207q0,.612-.009,1.223c.1-.594.176-1.189.228-1.785-.076.186-.149.374-.219.562" transform="translate(-214.79 -195.916)" fill="#e3839e"/>
    <path id="Trazado_603312" data-name="Trazado 603312" d="M124.007,187.14c-.453-.758-.745-1.779-1.412-2.19-.541-.333-1.265.619-1.958.9a1.242,1.242,0,0,0-.162.1c-2.179,1.3-2.168,1.291-.724,3.449.259.387.465.42.838.2,1.035-.614,2.087-1.2,3.127-1.806.178-.1.423-.183.379-.46-.035-.076-.056-.137-.088-.191" transform="translate(-94.702 -147.453)" fill="#f85925"/>
    <path id="Trazado_603313" data-name="Trazado 603313" d="M233.333,169.917c-.012-2.772,0-5.545-.015-8.317,0-.417.16-.993-.414-1.147a2.733,2.733,0,0,0-1.961.07c-.381.194-.26.686-.261,1.056-.011,2.772,0,5.545-.01,8.317a2.759,2.759,0,0,1-.119,1.165c.974-.022,1.947-.024,2.921,0a2.322,2.322,0,0,1-.141-1.146" transform="translate(-183.88 -127.854)" fill="#fbde13"/>
    <path id="Trazado_603314" data-name="Trazado 603314" d="M232.977,213.369c-.974-.025-1.947-.023-2.921,0a1.09,1.09,0,0,1-.127.216l3.2,0a.987.987,0,0,1-.153-.213" transform="translate(-183.383 -170.16)" fill="#fbde13"/>
    <path id="Trazado_603315" data-name="Trazado 603315" d="M230.49,158.916c-.534.019-.723.175-.719.716.024,3.434.024,6.868.031,10.3l.127,0a2.759,2.759,0,0,0,.119-1.165c.01-2.772,0-5.545.01-8.317,0-.371-.12-.862.261-1.057a2.733,2.733,0,0,1,1.961-.07c.573.154.411.73.414,1.147.018,2.772,0,5.545.015,8.317a2.323,2.323,0,0,0,.141,1.146l.153,0q.007-4.293.013-8.586c0-2.538,0-2.522-2.527-2.434" transform="translate(-183.256 -126.724)" fill="#fbde13"/>
    <path id="Trazado_603316" data-name="Trazado 603316" d="M245.135,213.443l-.153,0a.982.982,0,0,0,.153.213c0-.07,0-.14,0-.21" transform="translate(-195.387 -170.231)" fill="#fbde13"/>
    <path id="Trazado_603317" data-name="Trazado 603317" d="M229.928,213.439c0,.071,0,.143,0,.214a1.091,1.091,0,0,0,.127-.216l-.127,0" transform="translate(-183.381 -170.228)" fill="#fbde13"/>
    <path id="Trazado_603318" data-name="Trazado 603318" d="M199.537,127.711a1.413,1.413,0,0,0-1.048,1.515c.012,1.012.67,1.521,2.087,1.532.262-.224.949.351,1.1-.346a2.881,2.881,0,0,0-.187-1.949,1.536,1.536,0,0,0-1.947-.752" transform="translate(-158.307 -101.788)" fill="#fbde13"/>
    <path id="Trazado_603319" data-name="Trazado 603319" d="M262.7,130.854c1.5,0,2.267-.582,2.238-1.6a1.532,1.532,0,0,0-1.611-1.511c-1.124-.013-1.561.618-1.634,2.058-.046.908.253,1.236,1.007,1.05" transform="translate(-208.712 -101.884)" fill="#fbdf13"/>
  </g>
</svg>
