<svg xmlns="http://www.w3.org/2000/svg" xmlns:xlink="http://www.w3.org/1999/xlink" width="85" height="85" viewBox="0 0 85 85">
  <defs>
    <clipPath id="clip-path">
      <rect id="Rectángulo_300834" data-name="Rectángulo 300834" width="51.341" height="51.341" fill="none"/>
    </clipPath>
  </defs>
  <g id="Grupo_886181" data-name="Grupo 886181" transform="translate(-797.106 -23712)">
    <g id="Elipse_6628" data-name="Elipse 6628" transform="translate(797.106 23712)" fill="#fff" stroke="#72e0fa" stroke-width="1">
      <circle cx="42.5" cy="42.5" r="42.5" stroke="none"/>
      <circle cx="42.5" cy="42.5" r="42" fill="none"/>
    </g>
    <g id="Grupo_886171" data-name="Grupo 886171" transform="translate(813.936 23729)">
      <g id="Grupo_886170" data-name="Grupo 886170" clip-path="url(#clip-path)">
        <path id="Trazado_602358" data-name="Trazado 602358" d="M324.636,109.076l.008-.012-.016.008.008,0" transform="translate(-281.125 -94.449)" fill="#fefefe"/>
        <path id="Trazado_602359" data-name="Trazado 602359" d="M336.484,97.029l.023-.023L336.5,97l-.017.034" transform="translate(-291.392 -83.997)" fill="#fefefe"/>
        <path id="Trazado_602360" data-name="Trazado 602360" d="M.882,124.207a12.48,12.48,0,0,1,1.9.053,2.27,2.27,0,0,1,1.041,4.081c-.5.332-1.029.618-1.547.921-.622.364-.7.645-.347,1.26.409.708.816,1.417,1.236,2.117.3.5.576.575,1.078.3.453-.248.9-.517,1.346-.77a2.246,2.246,0,0,1,3.134.633c.278-.185.54.005.8.055a17.29,17.29,0,0,0,8.222-.309v0a10.49,10.49,0,0,1-6.825-3.527c-.066-.074-.122-.156-.183-.234a10.277,10.277,0,0,1-2.323-5.636,10.4,10.4,0,0,1,10.159-11.42A10.4,10.4,0,0,1,29.208,122.48a1.573,1.573,0,0,0,.02.2h0a17.234,17.234,0,0,0,1.471-5.606,16.321,16.321,0,0,0-.114-4.12.384.384,0,0,1,.1-.366,2.27,2.27,0,0,1-1.359-.418,2.419,2.419,0,0,1-.729-3.087c.26-.486.548-.957.813-1.44s.215-.708-.238-1.016c-.692-.469-1.431-.862-2.165-1.259a.621.621,0,0,0-.908.247c-.284.433-.54.883-.8,1.334a2.376,2.376,0,0,1-2.611,1.233,2.407,2.407,0,0,1-1.959-2.346c-.021-.517,0-1.036-.008-1.554-.012-.574-.219-.8-.78-.818-.768-.02-1.537-.023-2.305,0-.606.02-.769.187-.75.8a17.192,17.192,0,0,1-.123,2,2.4,2.4,0,0,1-4.247,1.052,10.8,10.8,0,0,1-.823-1.375c-.446-.785-.685-.849-1.476-.387-.577.337-1.161.661-1.74,1-.552.319-.622.59-.288,1.146.25.416.489.837.728,1.258a2.347,2.347,0,0,1-.3,2.829,2.362,2.362,0,0,1-2.922.539c-.461-.235-.9-.513-1.349-.77-.585-.334-.8-.28-1.146.284-.408.671-.783,1.361-1.18,2.039a.606.606,0,0,0,.233.972c.422.27.873.493,1.3.754A2.442,2.442,0,0,1,2.54,120.2c-.234.012-.468,0-.7,0A3.406,3.406,0,0,0,0,120.468v3.309a.884.884,0,0,0,.882.429" transform="translate(0 -89.583)" fill="#f49292"/>
        <path id="Trazado_602361" data-name="Trazado 602361" d="M1.838,119.5c.234,0,.468.007.7,0A2.442,2.442,0,0,0,3.555,114.9c-.427-.261-.878-.484-1.3-.754a.606.606,0,0,1-.233-.971c.4-.677.772-1.368,1.18-2.039.343-.563.561-.618,1.146-.284.449.257.888.535,1.349.77a2.362,2.362,0,0,0,2.922-.539,2.346,2.346,0,0,0,.3-2.829c-.24-.421-.479-.842-.728-1.258-.334-.556-.263-.826.288-1.146.578-.335,1.163-.659,1.74-1,.791-.462,1.03-.4,1.476.387a10.829,10.829,0,0,0,.823,1.375,2.4,2.4,0,0,0,4.247-1.053,17.16,17.16,0,0,0,.123-2c-.018-.618.145-.785.75-.8.768-.025,1.537-.022,2.305,0,.561.014.768.244.78.818.011.518-.013,1.036.008,1.554a2.407,2.407,0,0,0,1.959,2.346,2.376,2.376,0,0,0,2.611-1.233c.255-.451.512-.9.8-1.334A.621.621,0,0,1,27,104.66c.734.4,1.473.791,2.165,1.26.453.307.5.537.238,1.016s-.553.954-.813,1.44a2.419,2.419,0,0,0,.729,3.087,2.271,2.271,0,0,0,1.358.418.592.592,0,0,1,.2-.12,7.511,7.511,0,0,1-.842-.082,2.28,2.28,0,0,1-1.308-3.288c.267-.482.551-.953.821-1.433.309-.548.24-.829-.308-1.158q-1.073-.644-2.162-1.26a.721.721,0,0,0-1.13.31c-.3.5-.571,1.02-.885,1.511a2.125,2.125,0,0,1-2.135,1.025,2.163,2.163,0,0,1-1.989-1.707,10.266,10.266,0,0,1-.084-2.194c-.023-.6-.248-.841-.857-.849-.635-.008-1.269,0-1.9,0-1.354,0-1.376.024-1.379,1.361a5.748,5.748,0,0,1-.166,1.883,2.165,2.165,0,0,1-1.987,1.521,2.16,2.16,0,0,1-2.108-1.09c-.286-.47-.545-.957-.827-1.429-.328-.549-.638-.627-1.2-.306q-1.088.617-2.168,1.251a.683.683,0,0,0-.277,1.088c.256.449.524.892.781,1.341a2.223,2.223,0,0,1-.321,2.839,2.245,2.245,0,0,1-2.847.328c-.435-.248-.863-.507-1.3-.755-.552-.316-.838-.243-1.156.3-.4.691-.8,1.387-1.2,2.079-.376.645-.305.908.354,1.289.491.284,1,.543,1.468.858a2.226,2.226,0,0,1,.885,2.513A2.257,2.257,0,0,1,2.5,119.355c-.534.012-1.07.024-1.6,0a.956.956,0,0,0-.9.411,3.407,3.407,0,0,1,1.838-.268" transform="translate(0 -88.878)" fill="#f49292"/>
        <path id="Trazado_602362" data-name="Trazado 602362" d="M71.217,189.648a2.656,2.656,0,0,1,.631-1.8,2.389,2.389,0,0,1,3.83.288c.3.461.549.955.832,1.428a.677.677,0,0,0,1.083.3q1.026-.576,2.033-1.187c.538-.327.59-.573.274-1.114-.261-.447-.538-.885-.775-1.346a2.407,2.407,0,0,1,1.628-3.526,2.055,2.055,0,0,1,1.367.151c.549.25,1.06.565,1.581.866.561.324.83.259,1.162-.282.411-.668.791-1.355,1.176-2.039.274-.486.2-.749-.286-1.037s-.953-.553-1.42-.846a2.358,2.358,0,0,1-1.042-2.689,2.334,2.334,0,0,1,2.274-1.7c.518-.007,1.036.017,1.553-.01.614-.032.834-.261.843-.879.011-.751.018-1.5,0-2.254-.017-.615-.214-.784-.832-.806a9.4,9.4,0,0,1-2.094-.107,2.4,2.4,0,0,1-.727-4.339c.449-.291.926-.533,1.385-.806.549-.327.627-.6.315-1.154-.361-.639-.718-1.282-1.1-1.91s-.6-.694-1.259-.311c-.332.194-.665.384-1,.575a2.639,2.639,0,0,1-1.266.434h-.046a3.273,3.273,0,0,0,.014,1.359,17.517,17.517,0,0,1-1.258,8.274.789.789,0,0,1-.34.477l-.03-.01a10.478,10.478,0,0,1-9.336,9.839,10.046,10.046,0,0,1-2.141.026h0l-.008,0a.425.425,0,0,1,.011.048,1.151,1.151,0,0,1-.718.307,17.848,17.848,0,0,1-7.521.1,6.738,6.738,0,0,0-.734-.134l-.021,0a2.276,2.276,0,0,1-.048,2.525c-.265.423-.506.862-.748,1.3s-.194.772.226,1.027c.8.484,1.611.944,2.424,1.4a.657.657,0,0,0,.968-.313c.3-.5.569-1.019.88-1.512a2.173,2.173,0,0,1,2.3-1.069,2.115,2.115,0,0,1,1.832,1.628,7.173,7.173,0,0,1,.058,2,1.368,1.368,0,0,0,.392,1.077H70.95a4.507,4.507,0,0,0,.267-2.237" transform="translate(-50.494 -140.544)" fill="#fa636f"/>
        <path id="Trazado_602363" data-name="Trazado 602363" d="M153.064,189.918c-.023-.517-.015-1.035,0-1.553a2.276,2.276,0,0,1,1.751-2.224,2.247,2.247,0,0,1,2.518,1.1c.282.473.548.955.83,1.427s.59.563,1.041.311c.786-.439,1.567-.889,2.337-1.354a.646.646,0,0,0,.272-1.011c-.287-.527-.609-1.035-.891-1.565a2.211,2.211,0,0,1,.392-2.669,2.156,2.156,0,0,1,2.659-.407c.516.271,1.013.58,1.524.862a.7.7,0,0,0,1.119-.311q.637-1.076,1.255-2.164c.325-.57.244-.85-.33-1.189-.531-.314-1.078-.6-1.591-.945a2.237,2.237,0,0,1-.834-2.484,2.2,2.2,0,0,1,2.025-1.588c.6-.017,1.2,0,1.8-.012.572-.015.829-.272.835-.833q.014-1.278,0-2.555c-.007-.573-.252-.8-.839-.807-.534-.006-1.069.008-1.6,0a2.287,2.287,0,0,1-2.236-1.674,2.249,2.249,0,0,1,1.1-2.6c.473-.282.96-.539,1.429-.826a.674.674,0,0,0,.283-1.051q-.647-1.157-1.324-2.3a.659.659,0,0,0-1.044-.294c-.221.117-.432.253-.652.372a4.338,4.338,0,0,1-1.816.783h0c-.017.039-.031.077-.044.116h.046a2.639,2.639,0,0,0,1.266-.434c.333-.191.667-.381,1-.575.655-.383.872-.327,1.259.311s.738,1.271,1.1,1.91c.312.552.234.827-.315,1.154-.459.273-.936.515-1.385.806a2.4,2.4,0,0,0,.727,4.339,9.4,9.4,0,0,0,2.094.107c.618.022.815.191.832.806.021.751.014,1.5,0,2.254-.009.617-.229.847-.843.879-.517.027-1.035,0-1.553.01a2.334,2.334,0,0,0-2.274,1.7,2.359,2.359,0,0,0,1.042,2.689c.467.293.947.564,1.42.846s.559.551.286,1.037c-.385.684-.765,1.371-1.176,2.039-.333.541-.6.606-1.162.282-.52-.3-1.032-.616-1.581-.866a2.055,2.055,0,0,0-1.367-.151,2.407,2.407,0,0,0-1.628,3.526c.236.461.514.9.775,1.346.315.541.264.786-.274,1.114q-1.006.611-2.033,1.187a.677.677,0,0,1-1.083-.3c-.283-.473-.53-.967-.832-1.428a2.389,2.389,0,0,0-3.83-.288,2.656,2.656,0,0,0-.631,1.8,4.51,4.51,0,0,1-.267,2.237.913.913,0,0,0,.419-.895" transform="translate(-132.189 -139.472)" fill="#fa636f"/>
        <path id="Trazado_602364" data-name="Trazado 602364" d="M219.457,171.989a16.329,16.329,0,0,1,.114,4.12,17.238,17.238,0,0,1-1.471,5.606v0l.03.01a.788.788,0,0,0,.34-.477,17.515,17.515,0,0,0,1.258-8.274,3.273,3.273,0,0,1-.014-1.359c-.054,0-.107,0-.16,0a.385.385,0,0,0-.1.366" transform="translate(-188.873 -148.622)" fill="#fa636f"/>
        <path id="Trazado_602365" data-name="Trazado 602365" d="M65.892,320.922c-.257-.05-.519-.24-.8-.055.013.021.024.042.036.063l.021,0a6.73,6.73,0,0,1,.734.134,17.849,17.849,0,0,0,7.521-.1,1.151,1.151,0,0,0,.718-.307.447.447,0,0,0-.011-.048,17.29,17.29,0,0,1-8.222.309" transform="translate(-56.372 -277.648)" fill="#fa636f"/>
        <path id="Trazado_602366" data-name="Trazado 602366" d="M229.108,170.87c.013-.039.027-.077.043-.116a.6.6,0,0,0-.2.12c.053,0,.107,0,.16,0" transform="translate(-198.267 -147.872)" fill="#fa636f"/>
        <path id="Trazado_602367" data-name="Trazado 602367" d="M64.965,322.562a.393.393,0,0,0,.053.01c-.012-.021-.023-.042-.036-.063a.32.32,0,0,0-.017.053" transform="translate(-56.259 -279.29)" fill="#fefefe"/>
        <path id="Trazado_602368" data-name="Trazado 602368" d="M230.847,15.456a8.5,8.5,0,0,0,4.935,1.082,8.728,8.728,0,0,0,4.505-1.686.848.848,0,0,0,.165-.224l-.008,0a4.919,4.919,0,1,1,2.308-4.013,5.447,5.447,0,0,1-.7,2.388l.006.012a5.4,5.4,0,0,0,1.309-2.282,8.564,8.564,0,0,0-.686-7.4A1.908,1.908,0,0,1,242.562,3h0A2.739,2.739,0,0,1,239.4.591a.687.687,0,0,0-.749-.59c-.518,0-1.036,0-1.554,0-.559.006-.795.212-.835.771a2.156,2.156,0,0,1-.285.948,2.781,2.781,0,0,1-3.852.766c-.475-.365-.721-.361-1.135.04-.372.36-.734.731-1.1,1.1a.684.684,0,0,0-.024,1.06,2.109,2.109,0,0,1,.468.818,2.767,2.767,0,0,1-2.159,3.348c-.571.076-.753.276-.76.847,0,.334,0,.668,0,1,0,1.131,0,1.13,1.087,1.35a2.028,2.028,0,0,1,.334.1,2.963,2.963,0,0,1,1.508,3.19c.2-.13.353.029.5.112" transform="translate(-196.942 -0.001)" fill="#fbdc2e"/>
        <path id="Trazado_602369" data-name="Trazado 602369" d="M262.519,24.334c0-1.083,0-1.082-1.078-1.3a1.735,1.735,0,0,1-.189-.064,2.684,2.684,0,0,1-1.192-4.045c.348-.438.35-.706-.025-1.1s-.773-.787-1.17-1.169a.652.652,0,0,0-.982-.03,3.027,3.027,0,0,1-1.082.592,1.532,1.532,0,0,1,.485.685,8.8,8.8,0,0,1-.494,8.959c-.112.178-.208.391-.465.415a.511.511,0,0,1-.032-.05l-.023.023a6.45,6.45,0,0,1-1.573,1.583l-.008.012.025.014c.02.268-.19.376-.366.49a8.71,8.71,0,0,1-8.6.794c-.4-.17-.78-.374-1.16-.581a2.672,2.672,0,0,1-.5.857.688.688,0,0,0,.051,1.059c.369.363.729.736,1.1,1.1.414.4.684.422,1.131.041a2.276,2.276,0,0,1,2.615-.211,2.183,2.183,0,0,1,1.515,1.972.669.669,0,0,0,.732.712c.568,0,1.136,0,1.7,0a.673.673,0,0,0,.744-.7,2.235,2.235,0,0,1,1.646-2.035,2.21,2.21,0,0,1,2.513.294.7.7,0,0,0,1.064-.025c.393-.386.784-.775,1.169-1.17a.675.675,0,0,0,.028-1.024,2.262,2.262,0,0,1-.273-2.648,2.211,2.211,0,0,1,2.011-1.54.665.665,0,0,0,.687-.755c-.008-.384,0-.769,0-1.153" transform="translate(-211.179 -14.222)" fill="#f8c201"/>
        <path id="Trazado_602370" data-name="Trazado 602370" d="M259.043,109.657c.176-.113.385-.221.366-.49l-.025-.014a.845.845,0,0,1-.165.224,8.728,8.728,0,0,1-4.505,1.686,8.5,8.5,0,0,1-4.935-1.082c-.147-.083-.3-.242-.5-.112.38.207.763.412,1.16.581a8.71,8.71,0,0,0,8.6-.794" transform="translate(-215.873 -94.526)" fill="#f8c201"/>
        <path id="Trazado_602371" data-name="Trazado 602371" d="M337.968,30.124a5.4,5.4,0,0,1-1.309,2.281.519.519,0,0,0,.032.05c.257-.023.353-.237.465-.415a8.8,8.8,0,0,0,.494-8.959,1.53,1.53,0,0,0-.486-.685,1.927,1.927,0,0,0,.118.326,8.564,8.564,0,0,1,.686,7.4" transform="translate(-291.544 -19.396)" fill="#f8c201"/>
        <path id="Trazado_602372" data-name="Trazado 602372" d="M66.238,183.345a9.837,9.837,0,0,0,5.97,1.447,10.2,10.2,0,0,0,8.381-5.2,9.955,9.955,0,0,0,1.375-4.684,10.41,10.41,0,0,0-1.629-6.2c-.043-.069-.118-.134-.129-.215l-.044-.04a10,10,0,0,0-5.437-2.24,10.292,10.292,0,0,0-11.309,9.28,10.364,10.364,0,0,0,2.262,7.526l.04.044c.224-.032.365.185.521.28m7.418-9.986a3.044,3.044,0,0,1,3.1,3.1,3.114,3.114,0,0,1-3.105,3.123,3.167,3.167,0,0,1-3.122-3.132,3.112,3.112,0,0,1,3.132-3.1" transform="translate(-54.871 -143.9)" fill="#786e79"/>
        <path id="Trazado_602373" data-name="Trazado 602373" d="M64.825,182.208a10.364,10.364,0,0,1-2.262-7.526,10.309,10.309,0,0,1,16.746-7.04l.044.04a.175.175,0,0,1,.035-.129,10.244,10.244,0,0,0-6.8-2.321,10.4,10.4,0,0,0-10.159,11.42,10.276,10.276,0,0,0,2.323,5.635.39.39,0,0,1,.112-.035l-.039-.044" transform="translate(-54.018 -143.087)" fill="#786e79"/>
        <path id="Trazado_602374" data-name="Trazado 602374" d="M89.846,203.781a10.32,10.32,0,0,0,7.855-3.134,10.065,10.065,0,0,0,2.877-6.189c.017-.167-.049-.377.175-.469-.224-.079-.138-.288-.136-.439a10.347,10.347,0,0,0-1.129-4.825,10.479,10.479,0,0,0-2.294-2.935,10.007,10.007,0,0,1,1.475,3.988,10.555,10.555,0,0,1-9.177,12.072,10.432,10.432,0,0,1-6.894-1.544,10.4,10.4,0,0,0,6.216,3.367c.159.025.387-.047.456.181h.009c.168-.173.378-.077.565-.073" transform="translate(-71.53 -160.892)" fill="#554e57"/>
        <path id="Trazado_602375" data-name="Trazado 602375" d="M86.65,296.1a10.4,10.4,0,0,1-6.216-3.367c-.112-.07-.224-.14-.335-.214.061.078.117.161.183.234a10.49,10.49,0,0,0,6.824,3.527c-.07-.227-.3-.155-.456-.18" transform="translate(-69.365 -253.315)" fill="#554e57"/>
        <path id="Trazado_602376" data-name="Trazado 602376" d="M191.908,185.935a10.344,10.344,0,0,1,1.129,4.825c0,.152-.088.361.136.44l0,0h0a1.57,1.57,0,0,1-.02-.2,10.222,10.222,0,0,0-3.837-8.431c.1.142.2.286.3.432a10.475,10.475,0,0,1,2.294,2.935" transform="translate(-163.949 -158.102)" fill="#554e57"/>
        <path id="Trazado_602377" data-name="Trazado 602377" d="M143.758,247.444a10.065,10.065,0,0,1-2.877,6.189,10.32,10.32,0,0,1-7.855,3.134c-.187,0-.4-.1-.565.073a10.059,10.059,0,0,0,2.141-.026,10.478,10.478,0,0,0,9.336-9.839h0c-.224.093-.158.3-.175.469" transform="translate(-114.71 -213.878)" fill="#554e57"/>
        <path id="Trazado_602378" data-name="Trazado 602378" d="M218.07,246.96h0v0l0,0" transform="translate(-188.847 -213.864)" fill="#554e57"/>
        <path id="Trazado_602379" data-name="Trazado 602379" d="M95.556,183.746a10.41,10.41,0,0,1,1.629,6.2,9.955,9.955,0,0,1-1.375,4.684,10.2,10.2,0,0,1-8.381,5.2,9.836,9.836,0,0,1-5.97-1.447c-.157-.1-.3-.313-.521-.28.073.085.148.167.223.249a10.433,10.433,0,0,0,6.894,1.544,10.555,10.555,0,0,0,9.177-12.072,10.007,10.007,0,0,0-1.475-3.988q-.163-.153-.33-.3c.012.081.086.146.129.215" transform="translate(-70.092 -158.936)" fill="#554e57"/>
        <path id="Trazado_602380" data-name="Trazado 602380" d="M80.211,292.255a.386.386,0,0,0-.113.035c.111.074.223.144.335.214-.075-.082-.149-.164-.222-.249" transform="translate(-69.364 -253.09)" fill="#554e57"/>
        <path id="Trazado_602381" data-name="Trazado 602381" d="M189.044,182.7q.167.15.33.3c-.094-.146-.192-.29-.3-.432a.175.175,0,0,0-.035.129" transform="translate(-163.709 -158.102)" fill="#554e57"/>
        <path id="Trazado_602382" data-name="Trazado 602382" d="M278.695,48.885a4.788,4.788,0,0,0-4.558-6.672,4.772,4.772,0,0,0-.868,9.426,4.656,4.656,0,0,0,3.032-.323c.194-.086.381-.259.618-.139l.016-.008h0a18.655,18.655,0,0,1,1.573-1.583l.017-.034c-.136-.257.079-.458.17-.667m-4.377-.344a1.541,1.541,0,0,1-1.533-1.567,1.535,1.535,0,0,1,3.069.007,1.531,1.531,0,0,1-1.536,1.561" transform="translate(-233.415 -36.554)" fill="#786e79"/>
        <path id="Trazado_602383" data-name="Trazado 602383" d="M275.414,50.562a4.656,4.656,0,0,1-3.032.323,4.773,4.773,0,1,1,5.426-2.754c-.091.209-.306.41-.17.667a5.446,5.446,0,0,0,.7-2.388,4.88,4.88,0,1,0-2.308,4.013c-.237-.12-.423.053-.617.139" transform="translate(-232.528 -35.8)" fill="#786e79"/>
        <path id="Trazado_602384" data-name="Trazado 602384" d="M324.744,98.835h0a6.45,6.45,0,0,0,1.573-1.583,18.658,18.658,0,0,0-1.573,1.583" transform="translate(-281.226 -84.219)" fill="#786e79"/>
        <path id="Trazado_602385" data-name="Trazado 602385" d="M119.939,226.055a3.114,3.114,0,0,0,3.105-3.123,3.044,3.044,0,0,0-3.1-3.1,3.112,3.112,0,0,0-3.132,3.1,3.167,3.167,0,0,0,3.122,3.132" transform="translate(-101.162 -190.369)" fill="#fefefe"/>
        <path id="Trazado_602386" data-name="Trazado 602386" d="M295.3,66.423a1.493,1.493,0,0,0-1.514,1.519,1.535,1.535,0,1,0,3.069.007,1.494,1.494,0,0,0-1.555-1.526" transform="translate(-254.413 -57.522)" fill="#fefefe"/>
      </g>
    </g>
  </g>
</svg>
