<svg id="Grupo_886237" data-name="Grupo 886237" xmlns="http://www.w3.org/2000/svg" xmlns:xlink="http://www.w3.org/1999/xlink" width="105.461" height="104.624" viewBox="0 0 105.461 104.624">
  <defs>
    <clipPath id="clip-path">
      <rect id="Rectángulo_300872" data-name="Rectángulo 300872" width="105.461" height="104.624" fill="none"/>
    </clipPath>
  </defs>
  <g id="Grupo_886237-2" data-name="Grupo 886237" clip-path="url(#clip-path)">
    <path id="Trazado_603320" data-name="Trazado 603320" d="M4.988,67.973q17.122.006,34.243.011c.658,0,1.4-.187,1.908.469.007.019.011.038.018.057h16.1a32.023,32.023,0,0,1-3.926-6.2q-22.383.008-44.766.011c-1.623,0-2.377-.694-2.377-2.162q-.008-22.962,0-45.925c0-.136.021-.272.033-.409h0Q6.2,11.563,6.19,9.3c-.176-2.144-.215-3.311,3.18-3.31Q52.807,6,96.243,6c1.869,0,2.714.509,2.995,1.828a4.453,4.453,0,0,1,.05.919q0,25.484,0,50.968c0,.332.1.691-.163.983h0c-.344,1.2-.932,1.622-2.357,1.624q-8.375.009-16.75,0l-7.5,0a10.959,10.959,0,0,1-.2,3.129,3.443,3.443,0,0,1,2.338.387,2.607,2.607,0,0,1,1.181,2.514q13.531,0,27.063-.009c1.575,0,2.015-.319,2.387-1.677-.011-.239-.032-.478-.032-.717q0-31.78,0-63.561c0-.239.019-.478.029-.717-.381-1.3-.828-1.651-2.212-1.652q-9.421-.009-18.842,0Q43.406.018,2.582,0A2.6,2.6,0,0,0,0,1.268v65.8c1.5,1.19,3.274.9,4.988.9" transform="translate(0 0)" fill="#6770e5"/>
    <path id="Trazado_603321" data-name="Trazado 603321" d="M2.446,326.468q18.635-.039,37.271-.009c.431,0,.894-.147,1.293.155h.147c-.007-.019-.011-.038-.018-.057-.511-.656-1.249-.468-1.907-.469q-17.122-.02-34.243-.011c-1.714,0-3.487.289-4.988-.9a2.378,2.378,0,0,0,2.446,1.292" transform="translate(0 -258.104)" fill="#6770e5"/>
    <path id="Trazado_603322" data-name="Trazado 603322" d="M360.057,348.191a8.3,8.3,0,0,1-3.307,2.882,6.319,6.319,0,0,1-6.6-1.148c-2.318-2.322-4.31-4.931-6.452-7.408q-2.711-3.135-5.413-6.28-3.5-4.078-6.98-8.166c-.932-1.089-1.859-2.183-2.82-3.246-.358-.4-.5-.713-.055-1.125.71-.658,1.406-1.331,2.108-2-.013-.023-.03-.043-.042-.066A2.078,2.078,0,0,1,331,320.3a1.024,1.024,0,0,1-.274-.584,2.415,2.415,0,0,0-2.414-2.1,1.15,1.15,0,0,1-.814-.24,28.693,28.693,0,0,0-6,6.064c.244.215.168.555.192.857a2.318,2.318,0,0,0,3.13,2.247,1.488,1.488,0,0,1,1.712.545c6.939,8.249,14.06,16.343,21.012,24.581.793.94,1.6,1.875,2.483,2.737a6.018,6.018,0,0,0,9.945-1.923c.16-.359.064-.934.673-1.009v-2.468c-.518-.044-.435-.515-.592-.816" transform="translate(-255.188 -251.913)" fill="#5fd3e2"/>
    <path id="Trazado_603323" data-name="Trazado 603323" d="M359.767,375.819a6.018,6.018,0,0,1-9.945,1.923c-.887-.862-1.689-1.8-2.483-2.737-6.952-8.238-14.073-16.332-21.012-24.581a1.488,1.488,0,0,0-1.712-.545,2.318,2.318,0,0,1-3.13-2.247c-.024-.3.051-.642-.192-.857l-.018.025h0c-.285,2.689,1.144,3.96,3.741,3.237.694-.193.849.275,1.131.6,1.858,2.148,3.7,4.313,5.544,6.471,3.493,4.082,6.962,8.186,10.489,12.238,2.539,2.917,4.9,5.988,7.625,8.742a6.228,6.228,0,0,0,8.624.1,8.852,8.852,0,0,0,2.013-3.377c-.609.075-.513.65-.673,1.009" transform="translate(-254.979 -275.248)" fill="#5fd3e2"/>
    <path id="Trazado_603324" data-name="Trazado 603324" d="M351.382,317.454a2.415,2.415,0,0,1,2.414,2.1,1.024,1.024,0,0,0,.273.584c.009-.009.017-.02.027-.029a2.607,2.607,0,0,0-1.181-2.514,3.444,3.444,0,0,0-2.338-.387l-.01.008a1.15,1.15,0,0,0,.814.24" transform="translate(-278.259 -251.75)" fill="#5fd3e2"/>
    <path id="Trazado_603325" data-name="Trazado 603325" d="M508.425,465.994c.157.3.074.772.592.816l-.44-1.019c-.05.068-.1.135-.152.2" transform="translate(-403.556 -369.716)" fill="#5fd3e2"/>
    <path id="Trazado_603326" data-name="Trazado 603326" d="M365.595,331.539a2.078,2.078,0,0,0-.508,1.338c.013.023.029.043.042.066l.051-.048a3.53,3.53,0,0,0,.439-1.335l-.024-.021" transform="translate(-289.783 -263.155)" fill="#5fd3e2"/>
    <path id="Trazado_603327" data-name="Trazado 603327" d="M367.572,331.448c0-.017,0-.033,0-.05-.01.009-.017.02-.027.029l.024.021" transform="translate(-291.736 -263.043)" fill="#5fd3e2"/>
    <path id="Trazado_603328" data-name="Trazado 603328" d="M261.039,275.876c1.354-1.443,2.769-2.826,4.191-4.2a1.566,1.566,0,0,1,1.24-.576.679.679,0,0,1-.084-.114c.036-1.031-.266-2.1.3-3.075a8.247,8.247,0,0,0-.817-2.807c-2.876-4.7-7.376-6.556-12.974-5.88-2.288.276-4.6.681-6.912-.04-1.127-.351-1.592.242-1.231,1.425.436,1.433.909,2.855,1.366,4.282h0l1.33,2.935a1.452,1.452,0,0,1,.605.665,41.222,41.222,0,0,0,3.119,4.938c.165.23.43.5.267.731a9.484,9.484,0,0,0,5.534,3.168c.472.064.95.087,1.425.125a2.4,2.4,0,0,1,1.906-.395.686.686,0,0,1,.151.084c-.16-.576.272-.929.588-1.266" transform="translate(-194.169 -205.643)" fill="#d376e1"/>
    <path id="Trazado_603329" data-name="Trazado 603329" d="M313.428,346.175a.683.683,0,0,0-.151-.084,2.4,2.4,0,0,0-1.906.395l.1.007h0l1.976-.265h0c-.006-.018-.009-.035-.014-.052" transform="translate(-247.147 -274.676)" fill="#d376e1"/>
    <path id="Trazado_603330" data-name="Trazado 603330" d="M262.005,307.072a41.2,41.2,0,0,1-3.119-4.938,1.452,1.452,0,0,0-.605-.665l.057.125h0a32.034,32.034,0,0,0,3.927,6.2l.008.008c.163-.234-.1-.5-.267-.731" transform="translate(-205.007 -239.287)" fill="#d376e1"/>
    <path id="Trazado_603331" data-name="Trazado 603331" d="M349.926,304.951a.7.7,0,0,0,.084.114h.019a10.958,10.958,0,0,0,.2-3.129c0-.02,0-.04-.006-.06-.562.979-.259,2.043-.3,3.075" transform="translate(-277.71 -239.61)" fill="#d376e1"/>
    <path id="Trazado_603332" data-name="Trazado 603332" d="M327.23,317.315a1.566,1.566,0,0,0-1.24.576c-1.421,1.376-2.837,2.76-4.191,4.2-.316.336-.748.69-.588,1.266.012.009.022.018.033.028a28.7,28.7,0,0,1,6-6.064l-.009-.008" transform="translate(-254.93 -251.86)" fill="#d376e1"/>
    <path id="Trazado_603333" data-name="Trazado 603333" d="M321.376,346.668c-.011-.009-.021-.019-.033-.028,0,.018.008.034.014.052h0l.018-.025" transform="translate(-255.062 -275.141)" fill="#d376e1"/>
    <path id="Trazado_603334" data-name="Trazado 603334" d="M350.534,317.343l.01-.008h-.019l.009.008" transform="translate(-278.225 -251.881)" fill="#d376e1"/>
    <path id="Trazado_603335" data-name="Trazado 603335" d="M219.776,335.369a7.017,7.017,0,0,1-4.505-3.178.719.719,0,0,1-.331.221,4.482,4.482,0,0,1-1.225.1q-6.567.006-13.133,0a2.579,2.579,0,0,1-1.373-.188,8.11,8.11,0,0,1,.114,2.242c.02,1.436.015,2.873,0,4.309a2.026,2.026,0,0,1-.218,1.092c-.012.013-.025.021-.037.032q11.041,0,22.082-.006c.349,0,.738.119,1.049-.123-.017-.021-.034-.042-.05-.065a10.385,10.385,0,0,1-.027-4.206,3.29,3.29,0,0,1-2.346-.227" transform="translate(-158.008 -263.672)" fill="#5861c6"/>
    <path id="Trazado_603336" data-name="Trazado 603336" d="M198.837,339.929a2.026,2.026,0,0,0,.218-1.092c.015-1.436.02-2.873,0-4.309a8.11,8.11,0,0,0-.114-2.242,1.179,1.179,0,0,1-.191-.14q-.01,3.908-.02,7.815h.07c.012-.012.025-.02.037-.032" transform="translate(-157.739 -263.637)" fill="#5861c6"/>
    <path id="Trazado_603337" data-name="Trazado 603337" d="M310.089,352.5c.016.023.033.044.05.065a.764.764,0,0,0,.108-.1h0l.021-4.276a1.884,1.884,0,0,1-.205.107,10.384,10.384,0,0,0,.027,4.206" transform="translate(-245.948 -276.366)" fill="#5861c6"/>
    <path id="Trazado_603338" data-name="Trazado 603338" d="M200.952,332.469q6.567.013,13.133,0a4.485,4.485,0,0,0,1.225-.1.719.719,0,0,0,.331-.221l-.006-.01h-16.1c.017.046.031.093.045.14a2.579,2.579,0,0,0,1.373.188" transform="translate(-158.378 -263.632)" fill="#5861c6"/>
    <path id="Trazado_603339" data-name="Trazado 603339" d="M198.971,332.147h-.146a1.213,1.213,0,0,0,.191.14c-.014-.047-.028-.093-.044-.14" transform="translate(-157.815 -263.637)" fill="#5861c6"/>
    <path id="Trazado_603340" data-name="Trazado 603340" d="M277.624,332.178v0a7.016,7.016,0,0,0,4.5,3.178,3.291,3.291,0,0,0,2.346.227c0-.008,0-.015,0-.023.035-.032.07-.063.106-.092-.476-.038-.953-.061-1.425-.125a9.484,9.484,0,0,1-5.534-3.168" transform="translate(-220.36 -263.662)" fill="#5861c6"/>
    <path id="Trazado_603341" data-name="Trazado 603341" d="M310.949,348.146c-.036.029-.071.059-.106.092,0,.008,0,.015,0,.023a1.844,1.844,0,0,0,.205-.107h0l-.1-.007" transform="translate(-246.724 -276.336)" fill="#5861c6"/>
    <path id="Trazado_603342" data-name="Trazado 603342" d="M277.6,332.148l-.008-.008.006.01v0" transform="translate(-220.336 -263.632)" fill="#5861c6"/>
    <path id="Trazado_603343" data-name="Trazado 603343" d="M197.719,378.941q-17.127-.033-34.253.005a3.7,3.7,0,0,1-2.746-.822c-.019.047-.036.1-.053.146-.048,1.614.562,2.344,2.138,2.553a9.381,9.381,0,0,0,1.232.048h32.184a9.641,9.641,0,0,0,1.335-.056c1.6-.223,2.169-.923,2.086-2.558-.009-.031-.019-.06-.029-.09a2.217,2.217,0,0,1-1.893.773" transform="translate(-127.525 -300.132)" fill="#5962c7"/>
    <path id="Trazado_603344" data-name="Trazado 603344" d="M198.2,377.42c.083,1.635-.487,2.335-2.086,2.557a9.608,9.608,0,0,1-1.334.056H162.594a9.349,9.349,0,0,1-1.232-.048c-1.576-.209-2.186-.939-2.138-2.553.016-.051.034-.1.053-.146a2.935,2.935,0,0,1-.211-.218,2.109,2.109,0,0,0,1.485,3.075,5.843,5.843,0,0,0,1.315.159q16.864.013,33.728,0a5.911,5.911,0,0,0,1.314-.16,2.066,2.066,0,0,0,1.442-3.07,2.471,2.471,0,0,1-.18.257c.01.03.02.059.029.09" transform="translate(-126.083 -299.294)" fill="#5962c7"/>
    <path id="Trazado_603345" data-name="Trazado 603345" d="M190.834,371.076c-4.422.022-8.844.012-13.265.012-2.434,0-4.867.007-7.3-.006A2.721,2.721,0,0,1,169.2,371h-.545a3.009,3.009,0,0,1-.983.085c-1.554.046-3.11-.071-4.66.069a2.291,2.291,0,0,0-1.863,1.21c2.291.992,4.726.548,7.1.56,9.153.049,18.306.022,27.458.018,1.442,0,2.916.18,4.247-.555a2.092,2.092,0,0,0-1.855-1.227c-1.556-.163-3.116-.025-4.672-.074a3.139,3.139,0,0,1-.845-.087h-.677c-.3.192-.724.079-1.071.081" transform="translate(-127.912 -294.472)" fill="#666fe5"/>
    <path id="Trazado_603346" data-name="Trazado 603346" d="M338.675,370.5c.2.024.4.055.607.1a1.163,1.163,0,0,0-.607-.1" transform="translate(-268.819 -294.078)" fill="#666fe5"/>
    <path id="Trazado_603347" data-name="Trazado 603347" d="M160.166,371.967a2.291,2.291,0,0,1,1.863-1.21c1.55-.14,3.107-.023,4.66-.069a3.009,3.009,0,0,0,.983-.085l-5.948,0a4.951,4.951,0,0,1,.515-.1,1.011,1.011,0,0,0-.515.1,1.963,1.963,0,0,0-1.815,1.253c.085.041.171.076.257.113" transform="translate(-126.926 -294.078)" fill="#666fe5"/>
    <path id="Trazado_603348" data-name="Trazado 603348" d="M314.378,371.069c1.556.049,3.115-.088,4.672.074a2.092,2.092,0,0,1,1.855,1.227c.075-.041.15-.084.224-.132a1.814,1.814,0,0,0-1.8-1.26l-5.792,0a3.14,3.14,0,0,0,.845.087" transform="translate(-248.863 -294.459)" fill="#666fe5"/>
    <path id="Trazado_603349" data-name="Trazado 603349" d="M200.184,371a2.725,2.725,0,0,0,1.065.086c2.434.012,4.867.006,7.3.006,4.422,0,8.844.009,13.265-.013.347,0,.768.111,1.071-.081q-6.016,0-12.031.007-5.336,0-10.672,0" transform="translate(-158.893 -294.474)" fill="#666fe5"/>
    <path id="Trazado_603350" data-name="Trazado 603350" d="M195.534,378.195c-9.153,0-18.306.032-27.458-.018-2.372-.013-4.807.432-7.1-.56-.016.034-.031.068-.045.1a3.7,3.7,0,0,0,2.746.822q17.127-.048,34.253-.005a2.218,2.218,0,0,0,1.893-.773c-.014-.043-.029-.085-.045-.125-1.331.735-2.8.554-4.247.555" transform="translate(-127.738 -299.729)" fill="#666fe5"/>
    <path id="Trazado_603351" data-name="Trazado 603351" d="M349.318,377.344a2.466,2.466,0,0,0,.18-.257c-.074.048-.149.091-.224.132.016.04.03.082.044.125" transform="translate(-277.232 -299.308)" fill="#666fe5"/>
    <path id="Trazado_603352" data-name="Trazado 603352" d="M160.12,377.287c.014-.036.03-.071.045-.1-.086-.037-.171-.072-.257-.113a2.986,2.986,0,0,0,.211.218" transform="translate(-126.926 -299.294)" fill="#666fe5"/>
    <path id="Trazado_603353" data-name="Trazado 603353" d="M198.523,370.179a.958.958,0,0,1-.1.079h.2a.973.973,0,0,1-.1-.079" transform="translate(-157.496 -293.825)" fill="#868de1"/>
    <path id="Trazado_603354" data-name="Trazado 603354" d="M310.786,369.842h.364a.951.951,0,0,1-.233-.187.755.755,0,0,1-.131.187" transform="translate(-246.682 -293.409)" fill="#868de1"/>
    <path id="Trazado_603355" data-name="Trazado 603355" d="M176.818,370.145a.97.97,0,0,0,.1-.079c-.012-.011-.025-.018-.036-.029-.782.015-1.566.01-2.347.051-1.109.058-2.227-.118-3.331.045.132,0,.264.014.394.014h5.22" transform="translate(-135.891 -293.712)" fill="#868de1"/>
    <path id="Trazado_603356" data-name="Trazado 603356" d="M311.655,369.257h5.085c.1,0,.2-.007.3-.011-1.471-.176-2.954.028-4.428-.052-.393-.021-.825.109-1.129-.277a1.082,1.082,0,0,1-.064.152.952.952,0,0,0,.233.187" transform="translate(-247.187 -292.823)" fill="#868de1"/>
    <path id="Trazado_603357" data-name="Trazado 603357" d="M221.021,369.533q-11.041.013-22.082.006c-.011.011-.022.02-.034.029a.978.978,0,0,0,.1.079q11.489,0,22.979,0a.752.752,0,0,0,.131-.187c-.015-.016-.029-.033-.044-.051-.311.242-.7.123-1.049.123" transform="translate(-157.878 -293.214)" fill="#868de1"/>
    <path id="Trazado_603358" data-name="Trazado 603358" d="M198.8,370.037h-.07c.012.012.024.019.036.029l.034-.029" transform="translate(-157.739 -293.712)" fill="#868de1"/>
    <path id="Trazado_603359" data-name="Trazado 603359" d="M311.21,369.018c.014.018.029.034.044.051a1.086,1.086,0,0,0,.064-.152.749.749,0,0,1-.108.1" transform="translate(-247.019 -292.822)" fill="#868de1"/>
    <path id="Trazado_603360" data-name="Trazado 603360" d="M197.924,370.563h-.2a.918.918,0,0,1-.181.092h.544a.945.945,0,0,1-.166-.092" transform="translate(-156.799 -294.13)" fill="#868de1"/>
    <path id="Trazado_603361" data-name="Trazado 603361" d="M310.251,370.653h.677a1.045,1.045,0,0,1-.2-.089h-.364a.618.618,0,0,1-.11.09" transform="translate(-246.258 -294.13)" fill="#868de1"/>
    <path id="Trazado_603362" data-name="Trazado 603362" d="M174.654,370.6a.912.912,0,0,0,.181-.092h-5.22c-.13,0-.263-.012-.394-.014a4.961,4.961,0,0,0-.515.1l5.948,0" transform="translate(-133.908 -294.08)" fill="#868de1"/>
    <path id="Trazado_603363" data-name="Trazado 603363" d="M312.55,370.523a1.043,1.043,0,0,0,.2.089l5.792,0c-.2-.04-.4-.072-.607-.1-.1,0-.2.011-.3.011H312.55" transform="translate(-248.082 -294.09)" fill="#868de1"/>
    <path id="Trazado_603364" data-name="Trazado 603364" d="M210.218,370.654q6.015,0,12.031-.007a.6.6,0,0,0,.11-.09q-11.489,0-22.979,0a.961.961,0,0,0,.166.092q5.336,0,10.672,0" transform="translate(-158.255 -294.124)" fill="#868de1"/>
    <path id="Trazado_603365" data-name="Trazado 603365" d="M77.092,113.456a5.824,5.824,0,0,1-.374-.878,1.628,1.628,0,0,1-.785.071q-15.484.006-30.968.017c-.761,0-1.076-.142-1.074-1.006q.05-18.128.032-36.257h0c0-.137.006-.274.007-.411.009-2.63.009-2.63,2.7-2.63h55.252c1.333,0,1.333,0,1.334,1.316q0,.873,0,1.746,0,18.106.027,36.212c0,.819-.239,1.057-1.045,1.033-1.755-.052-3.513-.023-5.269-.02.361.89.935,1.739.576,2.773a3.313,3.313,0,0,1,1.683-.21q10.949-.011,21.9,0c1.145,0,2.224-.109,2.679-1.407a3.04,3.04,0,0,0,.181-1.313q0-22.735,0-45.471l-92.5-.006s0,.009,0,.013c.032.342.029.684.029,1.027q0,21.687,0,43.374c0,3.655.12,3.773,3.847,3.773q20.385,0,40.77,0a10.192,10.192,0,0,1,1.847.072c.024,0,.046.012.07.018-.522-.483-.568-1.246-.908-1.835m45.085-9.772c0,2.637-.021,5.275.014,7.911.01.753-.129,1.086-1,1.078-4.974-.043-9.949-.035-14.923,0-.759,0-1-.2-1-.979q.047-8.014,0-16.028c0-.739.255-.92.952-.917q7.513.036,15.026,0c.709,0,.954.2.944.926-.037,2.671-.015,5.343-.015,8.014M106.2,72.541q7.513.042,15.027,0c.794-.005.982.261.97,1.006-.041,2.5-.015,5-.015,7.5s-.018,5,.012,7.5c.008.659-.186.9-.872.892q-7.565-.035-15.13,0c-.744,0-.919-.262-.916-.954q.035-7.5,0-15c0-.7.192-.947.925-.943m-.942,21c.052-2.034,0-2.035,2.087-2.035,4.562,0,9.125.021,13.687-.019.863-.007,1.211.155,1.176,1.113-.071,1.978-.014,1.98-2.035,1.98h-6.483c-2.436,0-4.872-.031-7.306.017-.814.016-1.148-.154-1.125-1.057M41.873,111.4c0,.957-.2,1.316-1.227,1.278-2.158-.079-4.321-.055-6.48-.007-.771.017-.989-.222-.987-.988q.037-18.127.024-36.254c0-.785.022-1.57-.006-2.354-.019-.524.168-.724.708-.719q3.639.03,7.279,0c.556,0,.707.243.69.744-.027.784-.018,1.569-.024,2.353q0,17.973.022,35.946" transform="translate(-24.954 -53.191)" fill="#ecd3c1"/>
    <path id="Trazado_603366" data-name="Trazado 603366" d="M76.842,115.291c-.023-.006-.045-.013-.07-.018a10.211,10.211,0,0,0-1.847-.072q-20.385,0-40.77,0c-3.727,0-3.848-.118-3.847-3.773q0-21.687,0-43.374c0-.343,0-.685-.029-1.027,0,0,0-.009,0-.013h-.267c-.011.136-.033.273-.033.409q0,22.963,0,45.925c0,1.468.754,2.162,2.377,2.162q22.383,0,44.766-.011a1.462,1.462,0,0,1-.284-.207" transform="translate(-23.796 -53.191)" fill="#ecd3c1"/>
    <path id="Trazado_603367" data-name="Trazado 603367" d="M378.156,108.154q-.014-20.557-.022-41.114h-.087q.006,22.735,0,45.471a3.04,3.04,0,0,1-.181,1.313c-.456,1.3-1.535,1.407-2.679,1.407q-10.949,0-21.9,0a3.309,3.309,0,0,0-1.683.21c-.011.032-.02.063-.032.095l7.5,0q8.375,0,16.75,0c1.426,0,2.013-.421,2.357-1.624h0c-.009-1.918-.026-3.836-.027-5.755" transform="translate(-279.059 -53.212)" fill="#ecd3c1"/>
    <path id="Trazado_603368" data-name="Trazado 603368" d="M251.138,287.237h0a.617.617,0,0,1-.18.141,5.825,5.825,0,0,0,.374.878c.341.59.386,1.352.908,1.835a1.078,1.078,0,0,1,.228.081l-1.33-2.935Z" transform="translate(-199.195 -227.991)" fill="#ecd3c1"/>
    <path id="Trazado_603369" data-name="Trazado 603369" d="M347.866,288.263h-.279a8.248,8.248,0,0,1,.817,2.807l.012-.022.026-.013c.358-1.034-.215-1.883-.576-2.773" transform="translate(-275.893 -228.805)" fill="#ecd3c1"/>
    <path id="Trazado_603370" data-name="Trazado 603370" d="M351.561,301.721l-.012.022c0,.02,0,.04.006.06.013-.032.021-.063.032-.1l-.026.013" transform="translate(-279.037 -239.477)" fill="#ecd3c1"/>
    <path id="Trazado_603371" data-name="Trazado 603371" d="M257.4,301.155a1.093,1.093,0,0,0-.228-.081,1.454,1.454,0,0,0,.284.207h0l-.057-.125" transform="translate(-204.131 -238.974)" fill="#ecd3c1"/>
    <path id="Trazado_603372" data-name="Trazado 603372" d="M33.354,49.109q44.293,0,88.585.007a3.71,3.71,0,0,1,2.007.224q0-1.929,0-3.858c0-.138,0-.268,0-.4a.662.662,0,0,0-.646-.183,4.81,4.81,0,0,1-.515,0q-45.3,0-90.606,0c-.244,0-.488.01-.732.02q.049,2.166,0,4.333a2.013,2.013,0,0,1,.776-.14c.377-.02.754-.011,1.132-.011" transform="translate(-24.957 -35.634)" fill="#fef6f1"/>
    <path id="Trazado_603373" data-name="Trazado 603373" d="M480.026,46.4a.88.88,0,0,0-.131-.574c0,.127,0,.258,0,.4q0,1.929,0,3.858c.029.017.058.035.087.054.01-1.245,0-2.49.04-3.733" transform="translate(-380.91 -36.375)" fill="#fef6f1"/>
    <path id="Trazado_603374" data-name="Trazado 603374" d="M30.306,45.054l-.3.011q.014,2.259.028,4.518h0a.889.889,0,0,1,.27-.2q.049-2.166,0-4.333" transform="translate(-23.821 -35.761)" fill="#fef6f1"/>
    <path id="Trazado_603375" data-name="Trazado 603375" d="M123.944,65.476a3.711,3.711,0,0,0-2.007-.224q-44.293-.013-88.586-.007c-.377,0-.755-.008-1.132.012a2.005,2.005,0,0,0-.776.14c0,.065,0,.131,0,.2l92.5.006Z" transform="translate(-24.955 -51.77)" fill="#fef6f1"/>
    <path id="Trazado_603376" data-name="Trazado 603376" d="M30.419,66.061a.9.9,0,0,0-.27.2h.266c0-.065,0-.131,0-.2" transform="translate(-23.93 -52.435)" fill="#fef6f1"/>
    <path id="Trazado_603377" data-name="Trazado 603377" d="M479.914,66.447v.122H480c0-.023,0-.046,0-.068-.029-.019-.058-.037-.087-.054" transform="translate(-380.926 -52.741)" fill="#fef6f1"/>
    <path id="Trazado_603378" data-name="Trazado 603378" d="M33.458,33.31h88.276c1.377,0,1.977,0,2.235.446-.054-2.639-.639-3.065-3.525-3.065H34.559c-2.553.015-2.945.339-3.081,2.77a1.987,1.987,0,0,1,.746-.139c.411-.017.823-.011,1.234-.011" transform="translate(-24.985 -24.36)" fill="#8f95e5"/>
    <path id="Trazado_603379" data-name="Trazado 603379" d="M33.152,29.4h85.885c2.886,0,3.471.427,3.525,3.065a4.631,4.631,0,0,1,.184,1.987,9.816,9.816,0,0,1-.081,2.392,1.81,1.81,0,0,1,.086.9q.005,22.6,0,45.209a2.764,2.764,0,0,1-.049.817c.263-.292.163-.652.163-.983q.006-25.484,0-50.968a4.452,4.452,0,0,0-.05-.919c-.28-1.319-1.125-1.828-2.995-1.828q-43.437,0-86.873,0c-3.395,0-3.356,1.166-3.18,3.311a1.041,1.041,0,0,1,.3-.2c.136-2.431.527-2.755,3.081-2.77" transform="translate(-23.579 -23.066)" fill="#8f95e5"/>
    <path id="Trazado_603380" data-name="Trazado 603380" d="M480.434,112.889q0-22.6,0-45.209a1.809,1.809,0,0,0-.086-.9c0,.018-.007.035-.012.053q.011,20.557.022,41.115c0,1.918.018,3.836.027,5.755h0a2.763,2.763,0,0,0,.049-.817" transform="translate(-381.26 -53.009)" fill="#8f95e5"/>
    <path id="Trazado_603381" data-name="Trazado 603381" d="M122.778,43.711a4.752,4.752,0,0,0,.514,0,.663.663,0,0,1,.646.183c0-.019,0-.038,0-.057-.258-.445-.857-.446-2.235-.446H33.427c-.411,0-.823-.006-1.234.011a1.991,1.991,0,0,0-.746.139c0,.048-.006.1-.008.146,0,.015,0,.031,0,.047.244-.01.488-.02.732-.02q45.3,0,90.606,0" transform="translate(-24.954 -34.439)" fill="#8f95e5"/>
    <path id="Trazado_603382" data-name="Trazado 603382" d="M480.022,46.184c-.04,1.244-.031,2.489-.04,3.733l.006,0,.005.011a9.824,9.824,0,0,0,.081-2.392,4.627,4.627,0,0,0-.184-1.987c0,.019,0,.038,0,.057a.881.881,0,0,1,.131.574" transform="translate(-380.906 -36.158)" fill="#8f95e5"/>
    <path id="Trazado_603383" data-name="Trazado 603383" d="M30.306,44.268c0-.05.005-.1.008-.146a1.045,1.045,0,0,0-.3.2l.3-.011c0-.016,0-.031,0-.047" transform="translate(-23.821 -35.021)" fill="#8f95e5"/>
    <path id="Trazado_603384" data-name="Trazado 603384" d="M480.334,66.709c0,.023,0,.045,0,.068,0-.018.007-.035.012-.053s0-.008,0-.011l-.006,0" transform="translate(-381.259 -52.949)" fill="#8f95e5"/>
    <path id="Trazado_603385" data-name="Trazado 603385" d="M356.1,340.3a.829.829,0,0,0-.027,1.315c3.164,3.739,6.368,7.444,9.553,11.165,3.408,3.981,6.85,7.932,10.221,11.945a21.185,21.185,0,0,0,1.55,1.645,6.086,6.086,0,0,0,9-.75c.23-.305.348-.765.771-.87a8.109,8.109,0,0,0-2.619-3.211q-6.213-5.285-12.411-10.587c-4-3.422-8-6.853-12.019-10.257a9.639,9.639,0,0,1-2.375-2.229A7.266,7.266,0,0,1,356.1,340.3" transform="translate(-282.378 -268.652)" fill="#69eafb"/>
    <path id="Trazado_603386" data-name="Trazado 603386" d="M367.74,340.415c4.02,3.4,8.015,6.835,12.019,10.257q6.2,5.3,12.411,10.587a8.106,8.106,0,0,1,2.618,3.211.8.8,0,0,1,.237-.022,7.826,7.826,0,0,0-2.723-3.4q-5.273-4.508-10.563-9-8.172-6.968-16.338-13.941c-.01.025-.025.048-.036.072a9.644,9.644,0,0,0,2.375,2.229" transform="translate(-290.004 -268.374)" fill="#69eafb"/>
    <path id="Trazado_603387" data-name="Trazado 603387" d="M385.551,364.657c-.423.1-.541.565-.771.87a6.086,6.086,0,0,1-9,.75,21.2,21.2,0,0,1-1.55-1.645c-3.371-4.012-6.813-7.964-10.221-11.945-3.185-3.721-6.389-7.426-9.553-11.165a.829.829,0,0,1,.027-1.315,7.266,7.266,0,0,0,1.644-1.835l-.015-.024c-.7.667-1.4,1.341-2.108,2-.444.411-.3.729.055,1.125.961,1.063,1.888,2.157,2.82,3.246q3.493,4.081,6.98,8.166,2.7,3.147,5.412,6.28c2.142,2.477,4.134,5.087,6.453,7.408a6.32,6.32,0,0,0,6.6,1.148,8.3,8.3,0,0,0,3.307-2.882.489.489,0,0,0-.041-.068c-.013-.039-.029-.076-.043-.114" transform="translate(-280.767 -268.56)" fill="#69eafb"/>
    <path id="Trazado_603388" data-name="Trazado 603388" d="M365.292,338.162l.015.024c.011-.025.025-.047.036-.073l-.051.049" transform="translate(-289.946 -268.373)" fill="#69eafb"/>
    <path id="Trazado_603389" data-name="Trazado 603389" d="M508.059,465.922a.5.5,0,0,1,.041.068c.051-.068.1-.134.152-.2a.8.8,0,0,0-.237.022c.014.038.03.075.043.114" transform="translate(-403.231 -369.711)" fill="#69eafb"/>
    <path id="Trazado_603390" data-name="Trazado 603390" d="M150.451,144.667c1.556-.007,1.585-.034,1.59-1.632.005-1.849,0-3.7,0-5.548q0-14.281,0-28.562c0-.377,0-.753.028-1.129,0,0,0-.01,0-.015-.21.008-.42.016-.629.016q-28.67,0-57.34,0c-.246,0-.492-.015-.738-.031,0,.005,0,.01,0,.015.062,1.267.026,2.535.026,3.8q.006,15.365,0,30.73c0,.308,0,.617,0,.925.017,1.361.072,1.425,1.477,1.426q8.905.009,17.81,0,6.074,0,12.148,0a5.175,5.175,0,0,1,.963.058c0-.011-.009-.023-.014-.034a29.976,29.976,0,0,1-1.322-3.99c-.388-1.5.184-2.211,1.655-1.841,2.265.569,4.495.192,6.733-.025,3.469-.336,6.787-.041,9.674,2.155a11.545,11.545,0,0,1,3.5,3.836l0,.013a2.135,2.135,0,0,1,1.041-.16c1.132-.019,2.264,0,3.4-.008m-22.533-17.06a10.631,10.631,0,1,1-11.22-7.944,12.2,12.2,0,0,1,5.6.939h0l4.967-7.3c.248-.364.5-.726.846-1.23L138.5,127.607Z" transform="translate(-74.103 -85.538)" fill="#fef6f1"/>
    <path id="Trazado_603391" data-name="Trazado 603391" d="M265.206,263.932l-.005-.013a11.54,11.54,0,0,0-3.5-3.836c-2.886-2.2-6.2-2.491-9.674-2.155-2.239.217-4.469.594-6.733.025-1.471-.37-2.043.338-1.655,1.841a29.915,29.915,0,0,0,1.322,3.99l.013.034a2.259,2.259,0,0,1,.259.063c-.457-1.427-.93-2.849-1.366-4.282-.36-1.184.1-1.776,1.232-1.425,2.316.721,4.624.316,6.911.04,5.6-.676,10.1,1.183,12.974,5.88a.954.954,0,0,1,.217-.161" transform="translate(-193.295 -204.635)" fill="#fef6f1"/>
    <path id="Trazado_603392" data-name="Trazado 603392" d="M123.6,144.6q-6.074.01-12.148,0-8.9,0-17.81,0c-1.405,0-1.46-.065-1.477-1.426,0-.308,0-.617,0-.925q0-15.365,0-30.73c0-1.267.036-2.535-.026-3.8,0-.005,0-.01,0-.015l-.288-.017q-.006,18.128-.032,36.257c0,.864.312,1.008,1.074,1.006q15.484-.029,30.968-.017a1.63,1.63,0,0,0,.785-.071c-.026-.068-.052-.136-.08-.2a5.175,5.175,0,0,0-.963-.058" transform="translate(-72.875 -85.474)" fill="#fef6f1"/>
    <path id="Trazado_603393" data-name="Trazado 603393" d="M354.693,107.814c-.031.376-.028.752-.028,1.129q0,14.281,0,28.562c0,1.849,0,3.7,0,5.548,0,1.6-.033,1.625-1.589,1.632-1.132,0-2.264-.011-3.4.008a2.135,2.135,0,0,0-1.041.16q.03.08.062.161c1.757,0,3.514-.032,5.269.02.806.024,1.047-.214,1.045-1.033q-.042-18.106-.027-36.212l-.3.011s0,.01,0,.015" transform="translate(-276.727 -85.556)" fill="#fef6f1"/>
    <path id="Trazado_603394" data-name="Trazado 603394" d="M347.8,287.484a.954.954,0,0,0-.217.161h.279c-.021-.053-.043-.107-.062-.161" transform="translate(-275.893 -228.187)" fill="#fef6f1"/>
    <path id="Trazado_603395" data-name="Trazado 603395" d="M250.652,287.136a.617.617,0,0,0,.18-.141,2.271,2.271,0,0,0-.259-.063q.041.1.08.2" transform="translate(-198.888 -227.749)" fill="#fef6f1"/>
    <path id="Trazado_603396" data-name="Trazado 603396" d="M39.9,107.8q0,18.127-.024,36.254c0,.766.216,1,.987.988,2.159-.047,4.322-.071,6.48.007,1.027.037,1.23-.322,1.227-1.278q-.049-17.973-.023-35.946L39.9,107.8" transform="translate(-31.651 -85.568)" fill="#fef6f1"/>
    <path id="Trazado_603397" data-name="Trazado 603397" d="M405.357,201.455q-7.513.038-15.026,0c-.7,0-.956.177-.952.917q.041,8.014,0,16.028c0,.778.238.983,1,.978,4.974-.031,9.949-.038,14.923.005.874.007,1.013-.325,1-1.078-.035-2.637-.014-5.274-.014-7.911,0-2.672-.023-5.343.015-8.014.01-.729-.235-.93-.943-.926m-12.019,12.156c-2.295,0-2.295,0-2.295-2.307,0-2.212,0-2.212,2.288-2.212,2.243,0,2.243,0,2.243,2.257s0,2.263-2.236,2.263m-.041-5.753c-2.253,0-2.253,0-2.253-2.256,0-2.077,0-2.077,2.124-2.077,2.406,0,2.406,0,2.406,2.2,0,2.129,0,2.129-2.277,2.129m10.3,4.314q-2.872-.011-5.744,0c-.547,0-.98-.191-1.014-.771-.042-.71.521-.676,1.008-.677.923,0,1.846,0,2.769,0q1.488,0,2.975,0c.537,0,1.015.178.986.772-.026.518-.479.68-.98.678m-.007-5.758q-2.873,0-5.746,0c-.5,0-.953-.155-.98-.679-.03-.6.453-.769.987-.769h2.976c.923,0,1.847.006,2.771,0,.5,0,.955.162.98.68.029.6-.45.769-.987.769" transform="translate(-309.063 -159.902)" fill="#fef6f1"/>
    <path id="Trazado_603398" data-name="Trazado 603398" d="M94.481,96.914q28.276-.01,56.553,0a2.625,2.625,0,0,1,1.058.125c-.03-.541-.013-1.084-.022-1.625-.01-.581-.26-.892-.862-.9-.343-.007-.686-.015-1.029-.015H95.128c-1.7.008-1.7.01-1.7,1.726,0,.271-.006.542-.018.812a2.717,2.717,0,0,1,1.076-.118" transform="translate(-74.139 -75.003)" fill="#8f95e5"/>
    <path id="Trazado_603399" data-name="Trazado 603399" d="M92.264,95.8c.012-.271.018-.541.018-.812,0-1.716.009-1.719,1.7-1.726h55.052c.343,0,.686.009,1.029.016.6.012.852.323.862.9.009.542-.009,1.084.022,1.625a1.127,1.127,0,0,1,.308.2q0-.873,0-1.746c0-1.315,0-1.316-1.334-1.316H94.67c-2.687,0-2.687,0-2.7,2.63,0,.137,0,.274-.007.411h0a1.13,1.13,0,0,1,.3-.182" transform="translate(-72.998 -73.771)" fill="#8f95e5"/>
    <path id="Trazado_603400" data-name="Trazado 603400" d="M151.441,106.558c.21,0,.42-.008.629-.016-.006-.069-.008-.139-.012-.208A2.625,2.625,0,0,0,151,106.21q-28.276-.011-56.553,0a2.722,2.722,0,0,0-1.076.118c0,.066,0,.133-.008.2.246.015.492.03.738.03q28.67,0,57.34,0" transform="translate(-74.106 -84.298)" fill="#8f95e5"/>
    <path id="Trazado_603401" data-name="Trazado 603401" d="M92.264,106.8a1.13,1.13,0,0,0-.3.182h0c.1,0,.192.011.288.017,0-.066.006-.133.009-.2" transform="translate(-72.998 -84.773)" fill="#8f95e5"/>
    <path id="Trazado_603402" data-name="Trazado 603402" d="M377.942,107.041l.3-.011a1.127,1.127,0,0,0-.308-.2c0,.069.006.139.012.208" transform="translate(-299.977 -84.797)" fill="#8f95e5"/>
    <path id="Trazado_603403" data-name="Trazado 603403" d="M441.431,123.8l.058-.079h-.053Z" transform="translate(-350.38 -98.204)" fill="#fef6f1"/>
    <path id="Trazado_603404" data-name="Trazado 603404" d="M441.406,124.12c0-.005,0-.011,0-.016H441.4c0,.005,0,.011,0,.016" transform="translate(-350.358 -98.506)" fill="#fef6f1"/>
    <path id="Trazado_603405" data-name="Trazado 603405" d="M389.392,109.747c0,.692.171.958.916.954q7.564-.043,15.13,0c.686,0,.879-.233.872-.892-.03-2.5-.012-5-.012-7.5s-.025-5,.015-7.5c.012-.745-.176-1.011-.97-1.006q-7.513.051-15.027,0c-.732,0-.928.238-.925.943q.037,7.5,0,15m2.461-14.278q5.969.028,11.939-.016c.679-.005.906.219.876.888-.056,1.23-.046,2.463-.064,3.695h0q-.025,2.247-.049,4.494c.02,1.3.024,2.6.069,3.9.019.538-.253.619-.7.61-1.269-.027-2.538-.03-3.807-.042l-4.52.008c-1.259.009-2.52,0-3.778.038-.569.018-.79-.17-.77-.755.042-1.256.031-2.514.041-3.772q0-2.252,0-4.5c-.011-1.233,0-2.466-.042-3.7-.021-.6.157-.85.806-.847" transform="translate(-309.075 -74.452)" fill="#fef6f1"/>
    <path id="Trazado_603406" data-name="Trazado 603406" d="M390.427,188.76c2.434-.047,4.87-.017,7.306-.017h6.483c2.021,0,1.964,0,2.035-1.98.034-.958-.313-1.121-1.176-1.113-4.562.04-9.124.019-13.687.019-2.083,0-2.035,0-2.087,2.035-.023.9.311,1.073,1.126,1.057" transform="translate(-309.002 -147.357)" fill="#8f95e5"/>
    <path id="Trazado_603407" data-name="Trazado 603407" d="M41.12,95.659q3.173-.019,6.346,0A1.577,1.577,0,0,1,48.613,96c.006-.785,0-1.57.024-2.353.017-.5-.133-.748-.69-.744q-3.64.028-7.279,0c-.54,0-.726.2-.708.719.028.784.006,1.569.005,2.354h0a1.587,1.587,0,0,1,1.154-.318" transform="translate(-31.717 -73.741)" fill="#8f95e5"/>
    <path id="Trazado_603408" data-name="Trazado 603408" d="M47.492,106.222q-3.173-.02-6.346,0a1.588,1.588,0,0,0-1.155.318l8.648.025a1.576,1.576,0,0,0-1.147-.344" transform="translate(-31.742 -84.305)" fill="#8f95e5"/>
    <path id="Trazado_603409" data-name="Trazado 603409" d="M180.077,173.165H170.13l4.532-6.718.049-.2a12.2,12.2,0,0,0-5.6-.939,10.646,10.646,0,1,0,11.22,7.944l-.255-.087" transform="translate(-126.516 -131.183)" fill="#69eafb"/>
    <path id="Trazado_603410" data-name="Trazado 603410" d="M238.626,129.876l-4.967,7.3h0a.42.42,0,0,1,.046.271,14.233,14.233,0,0,1,3.643,3.189,11.17,11.17,0,0,1,1.62,3.267c.034.01.068.021.1.034a.364.364,0,0,1,.208.246h10.578l-10.385-15.534c-.347.5-.6.866-.846,1.23" transform="translate(-185.463 -102.111)" fill="#fe8354"/>
    <path id="Trazado_603411" data-name="Trazado 603411" d="M233.517,170.264a.42.42,0,0,0-.046-.271l-.049.2.1.07" transform="translate(-185.276 -134.93)" fill="#fe8354"/>
    <path id="Trazado_603412" data-name="Trazado 603412" d="M259.5,202.635c-.034-.013-.068-.023-.1-.034.018.065.039.128.056.193l.255.087a.363.363,0,0,0-.208-.246" transform="translate(-205.895 -160.812)" fill="#fe8354"/>
    <path id="Trazado_603413" data-name="Trazado 603413" d="M399.744,238.478c-2.288,0-2.288,0-2.288,2.212,0,2.307,0,2.307,2.295,2.307,2.236,0,2.236,0,2.236-2.263s0-2.257-2.243-2.257" transform="translate(-315.476 -189.289)" fill="#ecd3c2"/>
    <path id="Trazado_603414" data-name="Trazado 603414" d="M399.581,211.484c-2.124,0-2.124,0-2.124,2.077,0,2.256,0,2.256,2.253,2.256,2.277,0,2.277,0,2.277-2.129,0-2.2,0-2.2-2.406-2.2" transform="translate(-315.476 -167.863)" fill="#ecd3c1"/>
    <path id="Trazado_603415" data-name="Trazado 603415" d="M432.289,246.375q-1.487,0-2.975,0c-.923,0-1.846,0-2.77,0-.487,0-1.05-.032-1.008.677.034.581.468.773,1.014.771q2.872-.008,5.744,0c.5,0,.954-.16.98-.678.03-.594-.449-.773-.986-.772" transform="translate(-337.762 -195.556)" fill="#ecd3c1"/>
    <path id="Trazado_603416" data-name="Trazado 603416" d="M432.4,218.472c-.923.008-1.847,0-2.771,0H426.65c-.534,0-1.017.167-.987.769.026.524.483.68.98.679q2.873-.008,5.746,0c.537,0,1.017-.173.987-.769-.025-.518-.481-.684-.98-.68" transform="translate(-337.863 -173.409)" fill="#ecd3c1"/>
    <path id="Trazado_603417" data-name="Trazado 603417" d="M401.96,106.338c0-1.185.014-2.371-.019-3.556-.016-.58.21-.772.775-.757,1.254.033,2.51.019,3.765.025h0c1.19-.007,2.38,0,3.569-.029.566-.016.795.179.776.76-.037,1.187-.027,2.375-.036,3.563a1.3,1.3,0,0,0,.177.054c.018-1.232.008-2.464.064-3.694.03-.669-.2-.893-.876-.888q-5.969.046-11.939.016c-.65,0-.827.242-.806.847.042,1.231.031,2.465.042,3.7l4.507-.038" transform="translate(-315.438 -80.815)" fill="#a1f0fb"/>
    <path id="Trazado_603418" data-name="Trazado 603418" d="M402.139,128.322l-.015-.048c0-1.164.02-2.328-.018-3.491-.02-.62.191-.853.824-.834,1.233.037,2.468.009,3.7.008h0c.008-.039.014-.079.02-.119,0-.005,0-.011,0-.016l-4.46-.074c-.017.028-.034.056-.054.084a7.939,7.939,0,0,1-4.517-.047q0,2.251,0,4.5l4.516.035Z" transform="translate(-315.605 -98.223)" fill="#e982f9"/>
    <path id="Trazado_603419" data-name="Trazado 603419" d="M402.136,123.826c.02-.028.037-.056.054-.084h-.064l-4.507.038a7.939,7.939,0,0,0,4.517.047" transform="translate(-315.605 -98.218)" fill="#e982f9"/>
    <path id="Trazado_603420" data-name="Trazado 603420" d="M441.4,145.853h0q0,2.218,0,4.436c1.269.013,2.538.016,3.807.042.443.009.715-.071.7-.61-.045-1.3-.048-2.6-.069-3.9l-4.435.032h0" transform="translate(-350.359 -115.744)" fill="#df734a"/>
    <path id="Trazado_603421" data-name="Trazado 603421" d="M401.866,145.9a8.744,8.744,0,0,1-4.389-.144c-.011,1.257,0,2.515-.042,3.772-.019.585.2.772.77.755,1.259-.039,2.519-.028,3.778-.038q0-2.22.008-4.439a.649.649,0,0,1-.126.094" transform="translate(-315.458 -115.693)" fill="#feab8c"/>
    <path id="Trazado_603422" data-name="Trazado 603422" d="M402.03,145.9a.648.648,0,0,0,.126-.094v-.015l-4.516-.035a8.744,8.744,0,0,0,4.389.144" transform="translate(-315.622 -115.693)" fill="#feab8c"/>
    <path id="Trazado_603423" data-name="Trazado 603423" d="M445.62,123.733l-4.218-.009-.058.079c0,.005,0,.011,0,.016a.336.336,0,0,1,0,.145l-.018.01q.01,2.133.02,4.266h0a6.578,6.578,0,0,1,4.432.043q.024-2.247.048-4.494h0a.3.3,0,0,1-.2-.055" transform="translate(-350.294 -98.204)" fill="#b665c1"/>
    <path id="Trazado_603424" data-name="Trazado 603424" d="M462.16,123.768a.3.3,0,0,0,.2.055h0a1.294,1.294,0,0,1-.177-.055h-.026" transform="translate(-366.833 -98.239)" fill="#b665c1"/>
    <path id="Trazado_603425" data-name="Trazado 603425" d="M441.321,124.3h0c0,.012,0,.024,0,.036l.018-.01a.336.336,0,0,0,0-.145c-.006.04-.012.079-.02.119" transform="translate(-350.293 -98.569)" fill="#b665c1"/>
    <path id="Trazado_603426" data-name="Trazado 603426" d="M441.407,144.216l0,.074h0l4.435-.032a6.578,6.578,0,0,0-4.432-.043" transform="translate(-350.359 -114.181)" fill="#b665c1"/>
    <path id="Trazado_603427" data-name="Trazado 603427" d="M423.964,145.637l-.021-.023-4.384.015a.611.611,0,0,1-.054.061,7.078,7.078,0,0,1-.012,4.442l4.52-.008a7.16,7.16,0,0,1-.049-4.488" transform="translate(-332.967 -115.579)" fill="#fe8354"/>
    <path id="Trazado_603428" data-name="Trazado 603428" d="M419.476,145.738h0l0,.012a.608.608,0,0,0,.054-.061h-.073l.015.048" transform="translate(-332.942 -115.639)" fill="#fe8354"/>
    <path id="Trazado_603429" data-name="Trazado 603429" d="M439.924,145.776l-.048-.052a7.16,7.16,0,0,0,.049,4.488Q439.924,147.994,439.924,145.776Z" transform="translate(-348.878 -115.667)" fill="#fe8354"/>
    <path id="Trazado_603430" data-name="Trazado 603430" d="M419.505,145.985l0,0q0,2.22-.008,4.439a7.078,7.078,0,0,0,.012-4.442" transform="translate(-332.967 -115.874)" fill="#fe8354"/>
    <path id="Trazado_603431" data-name="Trazado 603431" d="M419.534,145.926v.015l0,0Z" transform="translate(-333 -115.827)" fill="#fe8354"/>
    <path id="Trazado_603432" data-name="Trazado 603432" d="M441.088,145.635l0-.008.049-.015h-.073l.021.023" transform="translate(-350.091 -115.578)" fill="#fe8354"/>
    <path id="Trazado_603433" data-name="Trazado 603433" d="M441.17,145.636l.048.052,0-.074-.049.015,0,.008" transform="translate(-350.173 -115.578)" fill="#fe8354"/>
    <path id="Trazado_603434" data-name="Trazado 603434" d="M214.929,177.992c.281.3.643.163.959.164,2.365.013,4.73,0,7.1.009a5,5,0,0,1,.946.038,4.075,4.075,0,0,1-.385-.811,9.778,9.778,0,0,0-4.11-4.84,1.252,1.252,0,0,1-.647-.633c-.947,1.754-2.181,3.324-3.238,5.008a3.686,3.686,0,0,0-.62,1.064" transform="translate(-170.597 -136.458)" fill="#d376e1"/>
    <path id="Trazado_603435" data-name="Trazado 603435" d="M221.166,177.448a4.993,4.993,0,0,0-.946-.038c-2.365,0-4.73,0-7.1-.009-.316,0-.678.139-.959-.164a3.682,3.682,0,0,1,.619-1.064c1.057-1.684,2.291-3.254,3.238-5.008a.814.814,0,0,1-.043-.2l-4.532,6.718h9.946a1.147,1.147,0,0,1-.229-.237" transform="translate(-167.834 -135.703)" fill="#d376e1"/>
    <path id="Trazado_603436" data-name="Trazado 603436" d="M233.632,171.433a1.251,1.251,0,0,0,.647.633,9.781,9.781,0,0,1,4.11,4.84,4.063,4.063,0,0,0,.385.811,1.668,1.668,0,0,1,.173.044,11.171,11.171,0,0,0-1.62-3.266,14.237,14.237,0,0,0-3.643-3.189c0,.016,0,.033-.009.05s-.029.051-.043.077" transform="translate(-185.442 -135.972)" fill="#d376e1"/>
    <path id="Trazado_603437" data-name="Trazado 603437" d="M233.465,171.164c.014-.026.029-.051.043-.077s.006-.033.009-.05l-.1-.07a.815.815,0,0,0,.043.2" transform="translate(-185.276 -135.703)" fill="#d376e1"/>
    <path id="Trazado_603438" data-name="Trazado 603438" d="M258.79,202.625c-.017-.065-.037-.129-.056-.193a1.623,1.623,0,0,0-.173-.044,1.147,1.147,0,0,0,.229.237" transform="translate(-205.229 -160.643)" fill="#d376e1"/>
    <path id="Trazado_603439" data-name="Trazado 603439" d="M424.31,104.3h-.026c-.755.04-1.51.013-2.265.016-2.062.009-1.9-.132-1.933,1.982a3.748,3.748,0,0,1-.217,1.983,8.022,8.022,0,0,1,4.325-.067.309.309,0,0,1,.116.17h.006l0-.079q-.006-2-.012-4.005" transform="translate(-333.266 -82.788)" fill="#69eafb"/>
    <path id="Trazado_603440" data-name="Trazado 603440" d="M419.479,107.114a3.749,3.749,0,0,0,.217-1.983c.028-2.114-.129-1.974,1.932-1.982.755,0,1.51.024,2.265-.016h.026q0-.14,0-.279c-1.255-.006-2.511.007-3.765-.025-.564-.015-.791.177-.775.757.033,1.185.015,2.371.019,3.556l.082-.028" transform="translate(-332.875 -81.619)" fill="#69eafb"/>
    <path id="Trazado_603441" data-name="Trazado 603441" d="M424.123,122.264a8.024,8.024,0,0,0-4.325.067l-.019.029,4.46.074a.309.309,0,0,0-.116-.17" transform="translate(-333.194 -96.836)" fill="#69eafb"/>
    <path id="Trazado_603442" data-name="Trazado 603442" d="M419.534,123.635l.019-.029-.082.028h.064" transform="translate(-332.949 -98.111)" fill="#69eafb"/>
    <path id="Trazado_603443" data-name="Trazado 603443" d="M445.7,108.306a.341.341,0,0,1-.078-.094,8.644,8.644,0,0,1-.157-2.829c0-.785-.309-1.1-1.094-1.073-.945.029-1.892.026-2.838,0a6.219,6.219,0,0,1-.084,4h.054l.058-.079a7.16,7.16,0,0,1,4.139.072" transform="translate(-350.396 -82.794)" fill="#5fd3e2"/>
    <path id="Trazado_603444" data-name="Trazado 603444" d="M444.326,103.118c.785-.024,1.09.288,1.094,1.073a8.642,8.642,0,0,0,.157,2.829.337.337,0,0,0,.078.094l.046.016c.009-1.188,0-2.376.036-3.563.018-.581-.211-.776-.776-.76-1.189.034-2.379.022-3.569.029h0q.051.14.1.281c.946.026,1.893.028,2.838,0" transform="translate(-350.349 -81.601)" fill="#5fd3e2"/>
    <path id="Trazado_603445" data-name="Trazado 603445" d="M441.769,122.3l-.058.079,4.218.009-.021-.016a7.16,7.16,0,0,0-4.139-.072" transform="translate(-350.602 -96.861)" fill="#5fd3e2"/>
    <path id="Trazado_603446" data-name="Trazado 603446" d="M462.059,123.689l.021.016h.025l-.046-.016" transform="translate(-366.753 -98.177)" fill="#5fd3e2"/>
    <path id="Trazado_603447" data-name="Trazado 603447" d="M441.491,104.307l-.1,0q.006,2,.012,4.005a6.221,6.221,0,0,0,.084-4" transform="translate(-350.352 -82.791)" fill="#5fd3e2"/>
    <path id="Trazado_603448" data-name="Trazado 603448" d="M441.488,103.234q-.045-.14-.1-.281,0,.14,0,.279l.1,0" transform="translate(-350.349 -81.718)" fill="#5fd3e2"/>
    <path id="Trazado_603449" data-name="Trazado 603449" d="M421.545,125.231c-1.384.057-1.4.051-1.428,1.463a8.172,8.172,0,0,1-.143,2.44.585.585,0,0,1-.058.082,7.072,7.072,0,0,1,4.334-.016l-.037-.04a7.9,7.9,0,0,1,.1-4.188c-.879.5-1.845.22-2.77.258" transform="translate(-333.303 -99.196)" fill="#d376e1"/>
    <path id="Trazado_603450" data-name="Trazado 603450" d="M419.481,129.012a.619.619,0,0,0,.058-.082,8.171,8.171,0,0,0,.143-2.44c.028-1.412.044-1.407,1.428-1.463.925-.038,1.89.245,2.77-.258.005-.015.01-.029.015-.044-1.234,0-2.469.029-3.7-.008-.634-.019-.845.214-.824.834.038,1.163.015,2.327.018,3.491h0l.094-.03" transform="translate(-332.868 -98.992)" fill="#d376e1"/>
    <path id="Trazado_603451" data-name="Trazado 603451" d="M439.858,129.128l.037.04.1.03q-.01-2.133-.02-4.266l-.016.008a7.9,7.9,0,0,0-.1,4.188" transform="translate(-348.947 -99.163)" fill="#d376e1"/>
    <path id="Trazado_603452" data-name="Trazado 603452" d="M441.262,124.759c-.006.015-.01.029-.015.044l.016-.008c0-.012,0-.024,0-.036Z" transform="translate(-350.234 -99.026)" fill="#d376e1"/>
    <path id="Trazado_603453" data-name="Trazado 603453" d="M419.835,144.205c-.007.01-.014.02-.021.03l4.384-.015-.028-.03a7.072,7.072,0,0,0-4.334.016" transform="translate(-333.222 -114.185)" fill="#d376e1"/>
    <path id="Trazado_603454" data-name="Trazado 603454" d="M419.461,145.575h.073c.008-.009.014-.02.021-.03l-.094.03" transform="translate(-332.942 -115.524)" fill="#d376e1"/>
    <path id="Trazado_603455" data-name="Trazado 603455" d="M440.958,145.5h.073l-.1-.03.028.03" transform="translate(-349.982 -115.463)" fill="#d376e1"/>
  </g>
</svg>
