<svg id="Grupo_886232" data-name="Grupo 886232" xmlns="http://www.w3.org/2000/svg" xmlns:xlink="http://www.w3.org/1999/xlink" width="96.484" height="96.483" viewBox="0 0 96.484 96.483">
  <defs>
    <clipPath id="clip-path">
      <rect id="Rectángulo_300834" data-name="Rectángulo 300834" width="96.484" height="96.483" fill="none"/>
    </clipPath>
  </defs>
  <g id="Grupo_886170" data-name="Grupo 886170" clip-path="url(#clip-path)">
    <path id="Trazado_602358" data-name="Trazado 602358" d="M324.643,109.087l.015-.023-.029.015.015.008" transform="translate(-242.874 -81.598)" fill="#fefefe"/>
    <path id="Trazado_602359" data-name="Trazado 602359" d="M336.484,97.059l.044-.042L336.517,97l-.033.064" transform="translate(-251.745 -72.568)" fill="#fefefe"/>
    <path id="Trazado_602360" data-name="Trazado 602360" d="M1.658,142.461a23.457,23.457,0,0,1,3.569.1,4.266,4.266,0,0,1,1.957,7.669c-.938.624-1.933,1.161-2.906,1.732-1.169.685-1.321,1.212-.653,2.369.768,1.33,1.533,2.662,2.324,3.979.564.941,1.082,1.08,2.026.564.852-.466,1.683-.972,2.529-1.448a4.221,4.221,0,0,1,5.89,1.189c.523-.347,1.014.01,1.5.1a32.493,32.493,0,0,0,15.452-.581l0-.007A19.713,19.713,0,0,1,20.516,151.5c-.124-.139-.23-.293-.344-.44a19.314,19.314,0,0,1-4.366-10.591A19.543,19.543,0,0,1,34.9,119.009a19.535,19.535,0,0,1,19.991,20.207,2.957,2.957,0,0,0,.037.372h0a32.387,32.387,0,0,0,2.764-10.536,30.673,30.673,0,0,0-.214-7.743.722.722,0,0,1,.182-.687,4.266,4.266,0,0,1-2.553-.785,4.546,4.546,0,0,1-1.371-5.8c.489-.913,1.029-1.8,1.528-2.707s.4-1.331-.447-1.909c-1.3-.881-2.689-1.621-4.069-2.367a1.167,1.167,0,0,0-1.707.464c-.533.813-1.016,1.66-1.494,2.508a4.465,4.465,0,0,1-4.906,2.317,4.524,4.524,0,0,1-3.682-4.409c-.04-.972.005-1.947-.016-2.92-.023-1.079-.412-1.51-1.466-1.537-1.444-.037-2.889-.044-4.332,0-1.138.037-1.445.351-1.41,1.513a32.307,32.307,0,0,1-.231,3.755,4.511,4.511,0,0,1-7.98,1.978,20.3,20.3,0,0,1-1.546-2.583c-.839-1.476-1.287-1.595-2.773-.727-1.084.633-2.183,1.242-3.269,1.872-1.037.6-1.17,1.108-.542,2.153.469.781.918,1.573,1.368,2.364a4.41,4.41,0,0,1-.561,5.317,4.439,4.439,0,0,1-5.492,1.013c-.866-.442-1.69-.964-2.535-1.447-1.1-.629-1.51-.526-2.154.533-.767,1.261-1.471,2.558-2.218,3.831a1.139,1.139,0,0,0,.439,1.826c.793.507,1.64.927,2.444,1.417a4.589,4.589,0,0,1-1.907,8.632c-.439.022-.879.006-1.319.009a6.4,6.4,0,0,0-3.455.5v6.218a1.661,1.661,0,0,0,1.658.807" transform="translate(0 -77.394)" fill="#f49292"/>
    <path id="Trazado_602361" data-name="Trazado 602361" d="M3.455,134.323c.439,0,.88.013,1.319-.009a4.589,4.589,0,0,0,1.907-8.632c-.8-.491-1.651-.91-2.444-1.417a1.139,1.139,0,0,1-.439-1.826c.747-1.273,1.451-2.571,2.218-3.831.644-1.059,1.055-1.162,2.154-.533.845.483,1.669,1.005,2.535,1.447A4.439,4.439,0,0,0,16.2,118.51a4.409,4.409,0,0,0,.561-5.317c-.45-.791-.9-1.583-1.369-2.364-.628-1.045-.495-1.553.542-2.153,1.087-.629,2.185-1.238,3.269-1.872,1.486-.868,1.935-.749,2.773.727a20.349,20.349,0,0,0,1.546,2.584,4.511,4.511,0,0,0,7.98-1.978,32.248,32.248,0,0,0,.231-3.755c-.034-1.161.272-1.476,1.41-1.513,1.443-.047,2.889-.041,4.333,0,1.054.027,1.443.458,1.466,1.537.021.973-.024,1.947.016,2.92a4.524,4.524,0,0,0,3.682,4.409,4.465,4.465,0,0,0,4.906-2.317c.479-.848.961-1.694,1.494-2.508a1.167,1.167,0,0,1,1.707-.464c1.38.746,2.768,1.486,4.069,2.367.852.577.941,1.01.447,1.909s-1.038,1.793-1.528,2.707a4.546,4.546,0,0,0,1.371,5.8,4.269,4.269,0,0,0,2.553.785,1.113,1.113,0,0,1,.383-.225,14.116,14.116,0,0,1-1.582-.154A4.285,4.285,0,0,1,54,113.454c.5-.905,1.036-1.792,1.543-2.693.58-1.03.45-1.558-.578-2.175q-2.016-1.21-4.063-2.369a1.356,1.356,0,0,0-2.124.582c-.563.942-1.073,1.916-1.663,2.84a3.994,3.994,0,0,1-4.012,1.927,4.065,4.065,0,0,1-3.739-3.207,19.293,19.293,0,0,1-.159-4.124c-.043-1.126-.465-1.581-1.611-1.6-1.192-.016-2.385,0-3.578,0-2.545,0-2.586.045-2.592,2.557a10.8,10.8,0,0,1-.312,3.538,4.069,4.069,0,0,1-3.735,2.859,4.059,4.059,0,0,1-3.962-2.048c-.537-.884-1.024-1.8-1.555-2.686-.617-1.031-1.2-1.179-2.263-.575q-2.046,1.159-4.074,2.35a1.284,1.284,0,0,0-.52,2.045c.481.845.984,1.676,1.468,2.519a4.177,4.177,0,0,1-.6,5.336,4.219,4.219,0,0,1-5.35.616c-.817-.465-1.622-.952-2.439-1.419-1.037-.593-1.575-.457-2.172.562-.761,1.3-1.505,2.606-2.263,3.906-.707,1.212-.574,1.705.666,2.423.922.534,1.876,1.021,2.76,1.613a4.183,4.183,0,0,1,1.663,4.722,4.242,4.242,0,0,1-4.026,3.108c-1,.022-2.01.045-3.012-.006A1.8,1.8,0,0,0,0,134.827a6.4,6.4,0,0,1,3.455-.5" transform="translate(0 -76.785)" fill="#f49292"/>
    <path id="Trazado_602362" data-name="Trazado 602362" d="M82.568,213.7a4.992,4.992,0,0,1,1.186-3.383,4.49,4.49,0,0,1,7.2.541c.567.866,1.032,1.8,1.563,2.684a1.272,1.272,0,0,0,2.035.555q1.929-1.082,3.82-2.23c1.012-.615,1.108-1.076.515-2.093-.49-.84-1.012-1.663-1.456-2.529a4.524,4.524,0,0,1,3.059-6.626,3.863,3.863,0,0,1,2.568.284c1.031.469,1.992,1.062,2.97,1.627,1.054.609,1.559.487,2.184-.53.772-1.256,1.487-2.547,2.21-3.832.515-.914.374-1.408-.537-1.95-.89-.529-1.792-1.04-2.669-1.589a4.432,4.432,0,0,1-1.958-5.054,4.387,4.387,0,0,1,4.273-3.2c.973-.012,1.947.033,2.918-.018,1.153-.06,1.566-.491,1.584-1.651.021-1.412.034-2.825-.005-4.236-.032-1.156-.4-1.474-1.563-1.516a17.669,17.669,0,0,1-3.935-.2,4.5,4.5,0,0,1-1.367-8.155c.843-.546,1.74-1,2.6-1.515,1.033-.614,1.179-1.13.592-2.168-.679-1.2-1.349-2.409-2.066-3.589-.728-1.2-1.135-1.3-2.367-.584-.623.364-1.25.721-1.876,1.08a4.959,4.959,0,0,1-2.379.816l-.087,0a6.151,6.151,0,0,0,.025,2.554,32.919,32.919,0,0,1-2.365,15.548,1.482,1.482,0,0,1-.638.9c-.02-.005-.038-.012-.056-.018a19.691,19.691,0,0,1-17.544,18.489,18.882,18.882,0,0,1-4.023.048h0l-.015,0a.794.794,0,0,1,.021.09,2.162,2.162,0,0,1-1.35.576,33.541,33.541,0,0,1-14.134.188,12.659,12.659,0,0,0-1.38-.252c-.014,0-.026-.005-.04-.007a4.277,4.277,0,0,1-.091,4.745c-.5.8-.952,1.621-1.407,2.443-.467.844-.364,1.451.425,1.93,1.5.91,3.027,1.774,4.555,2.634a1.235,1.235,0,0,0,1.82-.589c.566-.939,1.07-1.915,1.654-2.842a4.083,4.083,0,0,1,4.329-2.009,3.975,3.975,0,0,1,3.442,3.06,13.479,13.479,0,0,1,.109,3.749,2.57,2.57,0,0,0,.737,2.023h6.407c.749-1.332.465-2.789.5-4.2" transform="translate(-43.624 -121.421)" fill="#fa636f"/>
    <path id="Trazado_602363" data-name="Trazado 602363" d="M153.432,215.3c-.044-.971-.028-1.946,0-2.919a4.278,4.278,0,0,1,3.29-4.18,4.222,4.222,0,0,1,4.732,2.066c.529.888,1.029,1.794,1.56,2.681.52.868,1.109,1.059,1.956.585,1.477-.826,2.944-1.67,4.393-2.544a1.213,1.213,0,0,0,.512-1.9c-.538-.991-1.144-1.946-1.674-2.941a4.156,4.156,0,0,1,.736-5.016,4.051,4.051,0,0,1,5-.765c.97.51,1.9,1.09,2.863,1.62a1.319,1.319,0,0,0,2.1-.585q1.2-2.022,2.359-4.066c.611-1.072.458-1.6-.62-2.235-1-.59-2.027-1.134-2.989-1.776a4.2,4.2,0,0,1-1.567-4.667,4.126,4.126,0,0,1,3.806-2.984c1.129-.032,2.26.007,3.389-.023,1.075-.027,1.558-.511,1.569-1.565q.026-2.4,0-4.8c-.014-1.077-.474-1.505-1.577-1.517-1-.011-2.009.015-3.013-.008a4.3,4.3,0,0,1-4.2-3.146,4.226,4.226,0,0,1,2.064-4.889c.888-.529,1.8-1.013,2.685-1.552a1.266,1.266,0,0,0,.532-1.975q-1.215-2.174-2.489-4.316a1.239,1.239,0,0,0-1.961-.552c-.415.219-.811.476-1.225.7-1.1.588-2.09,1.409-3.412,1.472h0c-.032.073-.058.145-.082.218l.087,0a4.96,4.96,0,0,0,2.379-.816c.626-.359,1.253-.716,1.876-1.08,1.232-.72,1.639-.614,2.367.584.717,1.18,1.387,2.388,2.066,3.589.587,1.038.44,1.554-.592,2.168-.863.513-1.759.969-2.6,1.515a4.5,4.5,0,0,0,1.367,8.155,17.675,17.675,0,0,0,3.935.2c1.161.042,1.531.36,1.563,1.516.039,1.412.027,2.824.005,4.236-.017,1.16-.43,1.591-1.584,1.651-.971.05-1.945.006-2.918.018a4.387,4.387,0,0,0-4.273,3.2A4.433,4.433,0,0,0,177.8,193.7c.877.55,1.779,1.061,2.669,1.589.911.541,1.051,1.035.537,1.949-.723,1.285-1.438,2.576-2.21,3.832-.625,1.016-1.131,1.138-2.184.53-.978-.565-1.939-1.158-2.971-1.627a3.862,3.862,0,0,0-2.568-.284,4.524,4.524,0,0,0-3.059,6.626c.444.866.966,1.688,1.456,2.529.593,1.017.5,1.478-.515,2.093q-1.89,1.148-3.821,2.23a1.272,1.272,0,0,1-2.035-.555c-.531-.889-1-1.818-1.563-2.684a4.49,4.49,0,0,0-7.2-.541,4.991,4.991,0,0,0-1.186,3.383c-.037,1.416.247,2.873-.5,4.2a1.715,1.715,0,0,0,.786-1.682" transform="translate(-114.203 -120.495)" fill="#fa636f"/>
    <path id="Trazado_602364" data-name="Trazado 602364" d="M220.65,172.314a30.686,30.686,0,0,1,.215,7.743,32.4,32.4,0,0,1-2.764,10.535v.007c.018.006.035.013.056.018a1.481,1.481,0,0,0,.638-.9,32.916,32.916,0,0,0,2.365-15.548,6.15,6.15,0,0,1-.025-2.554c-.1,0-.2.008-.3.007a.723.723,0,0,0-.182.687" transform="translate(-163.174 -128.4)" fill="#fa636f"/>
    <path id="Trazado_602365" data-name="Trazado 602365" d="M66.593,321.194c-.484-.094-.975-.451-1.5-.1.024.039.045.079.068.118.014,0,.026.006.04.007a12.651,12.651,0,0,1,1.379.252,33.543,33.543,0,0,0,14.134-.188,2.163,2.163,0,0,0,1.35-.577.838.838,0,0,0-.021-.089,32.493,32.493,0,0,1-15.452.581" transform="translate(-48.702 -239.87)" fill="#fa636f"/>
    <path id="Trazado_602366" data-name="Trazado 602366" d="M229.249,170.972c.024-.073.05-.146.082-.218a1.118,1.118,0,0,0-.383.225c.1,0,.2,0,.3-.007" transform="translate(-171.29 -127.752)" fill="#fa636f"/>
    <path id="Trazado_602367" data-name="Trazado 602367" d="M64.965,322.609a.739.739,0,0,0,.1.018c-.023-.039-.044-.079-.068-.118a.6.6,0,0,0-.033.1" transform="translate(-48.604 -241.289)" fill="#fefefe"/>
    <path id="Trazado_602368" data-name="Trazado 602368" d="M233.862,29.046a15.98,15.98,0,0,0,9.274,2.034,16.4,16.4,0,0,0,8.467-3.169,1.593,1.593,0,0,0,.31-.422l-.015-.008a9.245,9.245,0,1,1,4.337-7.542,10.236,10.236,0,0,1-1.319,4.488l.011.022a10.145,10.145,0,0,0,2.46-4.288A16.094,16.094,0,0,0,256.1,6.253a3.585,3.585,0,0,1-.221-.612h0c-3.389.1-5.165-1.25-5.934-4.53A1.292,1.292,0,0,0,248.537,0c-.973,0-1.947-.007-2.92,0-1.051.011-1.494.4-1.57,1.448a4.051,4.051,0,0,1-.535,1.782,5.226,5.226,0,0,1-7.238,1.439c-.892-.686-1.356-.678-2.133.075-.7.677-1.379,1.374-2.066,2.063a1.286,1.286,0,0,0-.045,1.991,3.964,3.964,0,0,1,.879,1.537,5.2,5.2,0,0,1-4.058,6.291c-1.074.144-1.415.519-1.428,1.592-.008.628,0,1.256,0,1.884,0,2.125,0,2.123,2.042,2.536a3.811,3.811,0,0,1,.628.2c1.981.778,3.353,3.686,2.833,6,.382-.244.663.054.939.211" transform="translate(-170.145 -0.001)" fill="#fbdc2e"/>
    <path id="Trazado_602369" data-name="Trazado 602369" d="M278.926,31.29c0-2.034,0-2.033-2.027-2.439a3.258,3.258,0,0,1-.356-.119,5.044,5.044,0,0,1-2.24-7.6c.654-.824.658-1.326-.046-2.063s-1.452-1.478-2.2-2.2a1.225,1.225,0,0,0-1.846-.056,5.689,5.689,0,0,1-2.034,1.112,2.879,2.879,0,0,1,.912,1.287,16.533,16.533,0,0,1-.928,16.837c-.21.334-.391.735-.873.779a.972.972,0,0,1-.06-.094l-.044.042a12.122,12.122,0,0,1-2.957,2.975l-.015.023c.016.009.031.016.047.026.037.5-.357.707-.687.92A16.368,16.368,0,0,1,247.4,42.214c-.747-.319-1.466-.7-2.181-1.092a5.021,5.021,0,0,1-.942,1.611,1.292,1.292,0,0,0,.1,1.99c.694.682,1.371,1.382,2.069,2.061.778.756,1.286.793,2.125.077,1.555-1.327,3.177-1.145,4.914-.4a4.1,4.1,0,0,1,2.847,3.706,1.257,1.257,0,0,0,1.375,1.338c1.067,0,2.135,0,3.2,0a1.264,1.264,0,0,0,1.4-1.323c.107-2.046,1.325-3.095,3.093-3.823a4.153,4.153,0,0,1,4.723.553,1.312,1.312,0,0,0,2-.047c.739-.726,1.474-1.456,2.2-2.2a1.268,1.268,0,0,0,.053-1.924c-1.391-1.54-1.279-3.193-.512-4.977a4.155,4.155,0,0,1,3.78-2.894,1.25,1.25,0,0,0,1.291-1.419c-.015-.722,0-1.444,0-2.167" transform="translate(-182.445 -12.287)" fill="#f8c201"/>
    <path id="Trazado_602370" data-name="Trazado 602370" d="M267.629,110.1c.33-.213.724-.416.687-.92l-.048-.026a1.586,1.586,0,0,1-.311.422,16.4,16.4,0,0,1-8.467,3.169,15.979,15.979,0,0,1-9.274-2.034c-.277-.157-.557-.455-.939-.211.715.389,1.434.774,2.18,1.092a16.368,16.368,0,0,0,16.171-1.492" transform="translate(-186.5 -81.665)" fill="#f8c201"/>
    <path id="Trazado_602371" data-name="Trazado 602371" d="M339.119,36.918a10.143,10.143,0,0,1-2.46,4.288.97.97,0,0,0,.06.094c.482-.044.663-.446.873-.779a16.532,16.532,0,0,0,.928-16.837,2.877,2.877,0,0,0-.913-1.287,3.631,3.631,0,0,0,.222.612,16.094,16.094,0,0,1,1.289,13.909" transform="translate(-251.876 -16.757)" fill="#f8c201"/>
    <path id="Trazado_602372" data-name="Trazado 602372" d="M68.768,198.449a18.486,18.486,0,0,0,11.218,2.719,19.174,19.174,0,0,0,15.749-9.77,18.707,18.707,0,0,0,2.584-8.8,19.563,19.563,0,0,0-3.061-11.65c-.082-.13-.221-.252-.243-.4l-.082-.076a18.793,18.793,0,0,0-10.217-4.21A19.341,19.341,0,0,0,63.463,183.7a19.476,19.476,0,0,0,4.25,14.143l.074.083c.421-.061.685.349.98.527m13.941-18.767a5.721,5.721,0,0,1,5.817,5.834,5.853,5.853,0,0,1-5.836,5.869,5.952,5.952,0,0,1-5.867-5.885,5.849,5.849,0,0,1,5.885-5.817" transform="translate(-47.405 -124.321)" fill="#786e79"/>
    <path id="Trazado_602373" data-name="Trazado 602373" d="M66.977,197.136a19.478,19.478,0,0,1-4.251-14.143,19.374,19.374,0,0,1,31.47-13.23l.082.075a.329.329,0,0,1,.066-.243,19.251,19.251,0,0,0-12.779-4.363,19.543,19.543,0,0,0-19.092,21.461,19.311,19.311,0,0,0,4.366,10.591.734.734,0,0,1,.211-.065l-.074-.083" transform="translate(-46.668 -123.618)" fill="#786e79"/>
    <path id="Trazado_602374" data-name="Trazado 602374" d="M96.217,219.6a19.394,19.394,0,0,0,14.762-5.89,18.915,18.915,0,0,0,5.407-11.63c.032-.314-.093-.708.329-.882-.421-.148-.259-.54-.255-.826a19.445,19.445,0,0,0-2.121-9.067,19.692,19.692,0,0,0-4.31-5.516,18.806,18.806,0,0,1,2.771,7.494,19.836,19.836,0,0,1-17.246,22.687,19.6,19.6,0,0,1-12.957-2.9A19.548,19.548,0,0,0,94.281,219.4c.3.047.727-.088.857.339l.017,0h0c.316-.325.71-.144,1.061-.138" transform="translate(-61.797 -139)" fill="#554e57"/>
    <path id="Trazado_602375" data-name="Trazado 602375" d="M92.411,299.244a19.548,19.548,0,0,1-11.682-6.328c-.211-.131-.421-.263-.63-.4.114.147.22.3.344.441a19.713,19.713,0,0,0,12.825,6.629c-.131-.427-.558-.292-.857-.339" transform="translate(-59.927 -218.848)" fill="#554e57"/>
    <path id="Trazado_602376" data-name="Trazado 602376" d="M194.184,188.9a19.438,19.438,0,0,1,2.121,9.067c0,.285-.166.678.255.826l.008,0h0a2.949,2.949,0,0,1-.037-.371,19.209,19.209,0,0,0-7.212-15.844c.194.267.378.538.555.811a19.686,19.686,0,0,1,4.31,5.516" transform="translate(-141.641 -136.59)" fill="#554e57"/>
    <path id="Trazado_602377" data-name="Trazado 602377" d="M153.692,247.857a18.915,18.915,0,0,1-5.407,11.63,19.394,19.394,0,0,1-14.762,5.89c-.351-.006-.745-.188-1.061.138a18.9,18.9,0,0,0,4.023-.048,19.692,19.692,0,0,0,17.544-18.489l-.007,0c-.422.174-.3.568-.329.882" transform="translate(-99.102 -184.777)" fill="#554e57"/>
    <path id="Trazado_602378" data-name="Trazado 602378" d="M218.07,246.962l.007,0v-.007l-.008,0" transform="translate(-163.152 -184.765)" fill="#554e57"/>
    <path id="Trazado_602379" data-name="Trazado 602379" d="M108.409,183.935a19.563,19.563,0,0,1,3.061,11.65,18.709,18.709,0,0,1-2.584,8.8,19.175,19.175,0,0,1-15.749,9.769,18.484,18.484,0,0,1-11.218-2.719c-.295-.178-.558-.587-.98-.527.138.159.278.314.418.468a19.606,19.606,0,0,0,12.957,2.9,19.836,19.836,0,0,0,17.246-22.687,18.805,18.805,0,0,0-2.771-7.494q-.306-.287-.621-.569c.022.153.161.274.243.4" transform="translate(-60.555 -137.311)" fill="#554e57"/>
    <path id="Trazado_602380" data-name="Trazado 602380" d="M80.31,292.255a.727.727,0,0,0-.212.065c.209.139.419.271.63.4-.141-.153-.281-.309-.418-.467" transform="translate(-59.926 -218.654)" fill="#554e57"/>
    <path id="Trazado_602381" data-name="Trazado 602381" d="M189.046,182.811q.314.282.621.569c-.177-.273-.361-.544-.555-.811a.328.328,0,0,0-.067.243" transform="translate(-141.435 -136.59)" fill="#554e57"/>
    <path id="Trazado_602382" data-name="Trazado 602382" d="M286.748,54.754a9,9,0,0,0-8.566-12.538,8.968,8.968,0,0,0-1.631,17.714,8.749,8.749,0,0,0,5.7-.607c.365-.161.716-.487,1.16-.261l.029-.015h0a35.064,35.064,0,0,1,2.957-2.975c.011-.021.021-.043.033-.064-.255-.484.149-.861.32-1.254m-8.226-.646a2.9,2.9,0,0,1-2.881-2.945,2.884,2.884,0,0,1,5.768.013,2.878,2.878,0,0,1-2.887,2.933" transform="translate(-201.656 -31.581)" fill="#786e79"/>
    <path id="Trazado_602383" data-name="Trazado 602383" d="M281.483,58.671a8.749,8.749,0,0,1-5.7.607,8.97,8.97,0,1,1,10.2-5.176c-.171.393-.575.77-.32,1.254a10.235,10.235,0,0,0,1.319-4.488,9.17,9.17,0,1,0-4.337,7.542c-.445-.226-.795.1-1.16.261" transform="translate(-200.89 -30.929)" fill="#786e79"/>
    <path id="Trazado_602384" data-name="Trazado 602384" d="M324.744,100.226h0a12.121,12.121,0,0,0,2.957-2.975,35.057,35.057,0,0,0-2.957,2.974" transform="translate(-242.961 -72.76)" fill="#786e79"/>
    <path id="Trazado_602385" data-name="Trazado 602385" d="M122.684,231.53a5.853,5.853,0,0,0,5.836-5.869,5.721,5.721,0,0,0-5.817-5.834,5.849,5.849,0,0,0-5.885,5.817,5.952,5.952,0,0,0,5.867,5.885" transform="translate(-87.398 -164.467)" fill="#fefefe"/>
    <path id="Trazado_602386" data-name="Trazado 602386" d="M296.628,66.423a2.806,2.806,0,0,0-2.845,2.854,2.884,2.884,0,1,0,5.768.013,2.807,2.807,0,0,0-2.923-2.867" transform="translate(-219.797 -49.695)" fill="#fefefe"/>
  </g>
</svg>
