<svg xmlns="http://www.w3.org/2000/svg" xmlns:xlink="http://www.w3.org/1999/xlink" width="85" height="85" viewBox="0 0 85 85">
  <defs>
    <clipPath id="clip-path">
      <rect id="Rectángulo_300823" data-name="Rectángulo 300823" width="56.153" height="56.493" fill="none"/>
    </clipPath>
  </defs>
  <g id="Grupo_886491" data-name="Grupo 886491" transform="translate(-671 -14136.487)">
    <g id="Elipse_6608" data-name="Elipse 6608" transform="translate(671 14136.487)" fill="#fff" stroke="#72e0fa" stroke-width="1">
      <circle cx="42.5" cy="42.5" r="42.5" stroke="none"/>
      <circle cx="42.5" cy="42.5" r="42" fill="none"/>
    </g>
    <g id="Grupo_886133" data-name="Grupo 886133" transform="translate(685 14150.487)">
      <g id="Grupo_886132" data-name="Grupo 886132" transform="translate(0)" clip-path="url(#clip-path)">
        <path id="Trazado_601655" data-name="Trazado 601655" d="M102.609,221.516l0,0h0l0,0" transform="translate(-86.196 -186.084)" fill="#fefefe"/>
        <path id="Trazado_601656" data-name="Trazado 601656" d="M244.941,258.745l-.009-.009c0,.005,0,.011,0,.016l.012-.007" transform="translate(-205.755 -217.354)" fill="#fefefe"/>
        <path id="Trazado_601657" data-name="Trazado 601657" d="M59.92,223.324l-.011-.006v.019l.011-.014" transform="translate(-50.327 -187.6)" fill="#fefefe"/>
        <path id="Trazado_601658" data-name="Trazado 601658" d="M210.311,274.357h0" transform="translate(-176.674 -230.476)" fill="#fefefe"/>
        <path id="Trazado_601659" data-name="Trazado 601659" d="M92.65,42.625a5.689,5.689,0,0,1-2.229,1.406c-2.224.844-4.442,1.708-6.662,2.563a1.2,1.2,0,0,1-.224.079c-.148.026-.3.188-.444.051s-.012-.3.038-.439c.194-.52.405-1.034.611-1.55a1.988,1.988,0,0,0,.226-.855h0q-1.227.456-2.454.91c-.123.045-.265.158-.378.013-.08-.1.006-.226.048-.335.5-1.316,1.015-2.629,1.51-3.948.125-.333.246-.336.487-.093.769.776,1.555,1.535,2.335,2.3a1.223,1.223,0,0,0,.91-.039A22.217,22.217,0,0,0,89.5,41.4c0-.005,0-.011,0-.016l-2.532-2.605h0c-.778-.766-1.55-1.54-2.339-2.3-.232-.222-.21-.369.011-.575.393-.366.763-.755,1.143-1.135q5.062-5.064,10.123-10.128c.139-.139.263-.293.395-.44q0-11.038-.008-22.075A1.906,1.906,0,0,0,94.149,0H62.08a1.911,1.911,0,0,0-2.167,2.168q0,11.845,0,23.69v9.86l.011.005a11.447,11.447,0,0,0,1.008-1.629c.342-.559.656-1.135.987-1.7.082-.14.134-.4.377-.244A16.14,16.14,0,0,1,65.344,34.1c.111.111.206.238.308.358h0a2.273,2.273,0,0,0,0-.357c-.068-.471.124-.618.6-.6.911.036,1.825.027,2.738,0,.394-.01.5.127.508.512.018,1.41.031,1.409-1.389,1.41-.455,0-.91,0-1.364.006l0,0a7.124,7.124,0,0,1,.984,1.32,3.534,3.534,0,0,1-.564,3.313c-1.1,1.861-2.176,3.732-3.273,5.593a.6.6,0,0,0,.081.7,19.355,19.355,0,0,1,1.8,3.415q14.295,0,28.589,0a1.86,1.86,0,0,0,1.932-1.918c.007-2.95,0-5.9,0-8.851-1.218,1.2-2.471,2.369-3.641,3.614M83.485,31.593c-3.806,0-7.613-.009-11.419.011-.512,0-.693-.109-.677-.655.036-1.27.007-1.27,1.305-1.27h5.441c2.033,0,4.066.011,6.1-.009.434,0,.588.1.585.563-.009,1.36.012,1.361-1.333,1.361m3.841-3.829c-5.083,0-10.166-.009-15.249.013-.566,0-.7-.17-.687-.706.034-1.222.008-1.222,1.232-1.222h7.415c2.651,0,5.3.01,7.953-.009.468,0,.67.082.658.612-.028,1.312,0,1.312-1.324,1.312M69.507,10.528C69.5,9.055,69.5,7.582,69.482,6.11c0-.291.1-.372.38-.37,2.11.015,4.219.018,6.329.024h3.826c2.109-.007,4.218-.006,6.327-.026.341,0,.388.146.382.429-.011.5.008.994.015,1.491.08,0,.16,0,.239,0,.529.048,1.211-.238,1.549.126s.1,1.029.1,1.561c.008,4.325,0,8.65.017,12.975,0,.53-.142.669-.669.667q-7.953-.029-15.906,0c-.576,0-.729-.186-.679-.714.037-.4.006-.8.005-1.2-.5-.007-.995-.026-1.492-.015-.289.007-.429-.056-.427-.39C69.5,17.294,69.5,13.911,69.507,10.528ZM67.074,25.849c.657,0,1.314.013,1.97-.005.337-.009.437.117.45.449.058,1.471.068,1.47-1.395,1.47h-.537c-.5,0-1-.012-1.492,0-.311.01-.4-.114-.419-.419-.084-1.5-.092-1.5,1.424-1.5m2.035,5.731a13.015,13.015,0,0,1-1.551.012c-.5,0-1,.01-1.492,0-.731-.018-.4-.6-.378-.892.024-.341-.389-.975.376-1.009,1.013-.044,2.03-.029,3.044,0,.668.017.375.577.35.857-.031.351.377.95-.349,1.038m8.484,14.344a4.1,4.1,0,0,1-2.175-1.276,1.522,1.522,0,0,0-.924-.61,1.415,1.415,0,0,0-1.312.549,3.526,3.526,0,0,1-2.917,1.361,3.427,3.427,0,0,1-2.053-.853c-.465-.387-.793-.913-1.445-1.112-.346-.106-.073-.611-.152-.877,0-1.1.116-1.171,1.116-.776a4.846,4.846,0,0,1,1.682,1.209,1.24,1.24,0,0,0,2.057,0,3.692,3.692,0,0,1,2.9-1.412,3.255,3.255,0,0,1,2.206.907c.409.391.715.925,1.355,1.021.221.033.172.238.175.388.006.359-.014.718.006,1.076.024.405-.172.479-.515.4m2.09-10.5H76.157c-1.415,0-2.829-.011-4.244.007-.383,0-.515-.105-.52-.5-.02-1.418-.035-1.418,1.393-1.418,2.53,0,5.061.01,7.591-.01.46,0,.62.11.613.6-.02,1.328,0,1.328-1.306,1.328" transform="translate(-50.327 0)" fill="#e5e6e7"/>
        <path id="Trazado_601660" data-name="Trazado 601660" d="M11.723,180.254a.671.671,0,0,1,0-.808c1.166-1.99,2.3-4,3.474-5.984a3.829,3.829,0,0,0,.5-2.227l-.373-.97c-.231.1-.327-.147-.45-.265a13.388,13.388,0,0,0-2.662-1.693c-.3-.178-.472-.014-.623.238-.488.822-.96,1.653-1.439,2.48-.126.217-.248.583-.5.526a.375.375,0,0,1-.056-.017l-.011.013v-.019c-.239-.109-.158-.459-.159-.7q-.014-4.241,0-8.481a.925.925,0,0,1,.163-.679,3.964,3.964,0,0,0-3.705,2.268q-2.187,3.84-4.421,7.653a9.38,9.38,0,0,0-1.431,4.684C-.008,181.436.019,186.6,0,191.759c0,.479.172.549.59.545,2.092-.018,4.185-.008,6.278-.008,2.212,0,4.425-.01,6.637.009.411,0,.614-.094.67-.533a16.686,16.686,0,0,0,.2-1.714,25.091,25.091,0,0,0-.245-4.462,22.747,22.747,0,0,0-1.067-3.015c-.413-.8-.857-1.572-1.339-2.326" transform="translate(0 -135.811)" fill="#fec377"/>
        <path id="Trazado_601661" data-name="Trazado 601661" d="M58.845,162.353q0,4.241,0,8.481c0,.241-.08.591.159.7v-9.86a.925.925,0,0,0-.163.679" transform="translate(-49.426 -135.816)" fill="#fec377"/>
        <path id="Trazado_601662" data-name="Trazado 601662" d="M60.536,203.827c.479-.827.951-1.658,1.439-2.48.15-.253.321-.417.623-.238a13.388,13.388,0,0,1,2.662,1.693c.122.118.218.361.45.265h0c-.1-.12-.2-.247-.308-.358a16.128,16.128,0,0,0-3.052-1.946c-.242-.154-.294.1-.376.244-.332.565-.645,1.141-.987,1.7a11.45,11.45,0,0,1-1.008,1.63.358.358,0,0,0,.056.017c.255.056.376-.309.5-.526" transform="translate(-50.384 -168.613)" fill="#fec377"/>
        <path id="Trazado_601663" data-name="Trazado 601663" d="M243.958,154.22c-.118.134-.229.274-.355.4q-6.652,6.656-13.307,13.307c-.139.139-.254.319-.45.381.685.7,1.387,1.38,2.07,2.082.152.156.366.293.346.547l.009.009c.323.294.487,0,.672-.187q2.808-2.8,5.613-5.606c.154-.154.32-.295.48-.442.217-.231.428-.468.652-.692q3.515-3.532,7.034-7.061c-.9-.935-1.791-1.877-2.763-2.738" transform="translate(-193.084 -129.554)" fill="#00cbb2"/>
        <path id="Trazado_601664" data-name="Trazado 601664" d="M229.114,242.327l2.532,2.605c.02-.253-.194-.39-.345-.547-.682-.7-1.385-1.383-2.07-2.082a.468.468,0,0,1-.117.023h0" transform="translate(-192.469 -203.55)" fill="#00cbb2"/>
        <path id="Trazado_601665" data-name="Trazado 601665" d="M226.045,140.523q-5.247,5.26-10.5,10.51c-.112.113-.218.234-.339.336-.352.3-.35.561-.008.886.7.669,1.377,1.372,2.071,2.054a5.906,5.906,0,0,1,.639-.651q6.444-6.453,12.9-12.9a2.268,2.268,0,0,1,.6-.521c-.816-.92-1.707-1.767-2.6-2.616l-2.267,2.192c0,.351-.29.505-.492.708" transform="translate(-180.561 -115.612)" fill="#00b29c"/>
        <path id="Trazado_601666" data-name="Trazado 601666" d="M224.9,151.769q-5.06,5.065-10.123,10.128c-.38.38-.75.769-1.143,1.135-.221.206-.242.353-.011.575.789.755,1.561,1.529,2.339,2.3h0c.018-.028.04-.053.06-.08-.694-.682-1.366-1.384-2.071-2.054-.342-.325-.344-.59.008-.886.121-.1.226-.224.339-.336q5.254-5.253,10.5-10.51c.2-.2.495-.357.492-.708-.131.147-.256.3-.395.44" transform="translate(-179.321 -127.125)" fill="#00b29c"/>
        <path id="Trazado_601667" data-name="Trazado 601667" d="M243.026,154.5q-6.452,6.446-12.9,12.9a5.9,5.9,0,0,0-.64.651l.005.005.052.052c.2-.063.312-.243.45-.382q6.657-6.65,13.307-13.307c.126-.126.237-.266.355-.4l-.035-.039a2.266,2.266,0,0,0-.6.521" transform="translate(-192.784 -129.352)" fill="#00b29c"/>
        <path id="Trazado_601668" data-name="Trazado 601668" d="M229.174,241.947c-.02.027-.042.051-.06.08a.468.468,0,0,0,.117-.023l-.052-.052-.005-.005" transform="translate(-192.469 -203.25)" fill="#00b29c"/>
        <path id="Trazado_601669" data-name="Trazado 601669" d="M213.056,225.878a1.488,1.488,0,0,1-.362.308c-.208.1-.418.17-.52-.14l-.012.007a.479.479,0,0,1-.013.076.967.967,0,0,1-.506.389c-.856.355-1.723.681-2.6.993a1.162,1.162,0,0,1-.732.046c.109.181.034.313-.285.418-.478.158-.938.371-1.405.56h0c.01.006.02.009.031.016.177.309-.007.578-.1.853a12.988,12.988,0,0,0-.63,1.719c.22.125.377,0,.536-.062q3.572-1.378,7.145-2.754a3.536,3.536,0,0,0,1.287-.839c1.131-1.154,2.277-2.292,3.426-3.428.174-.173.317-.43.633-.375h0q-.006-1.927-.012-3.854h0a1.493,1.493,0,0,1-.4.586q-2.744,2.739-5.485,5.482" transform="translate(-172.988 -184.654)" fill="#d7d6d9"/>
        <path id="Trazado_601670" data-name="Trazado 601670" d="M217.04,244.243c-1.149,1.136-2.3,2.274-3.426,3.428a3.539,3.539,0,0,1-1.287.839q-3.572,1.379-7.145,2.755c-.159.061-.315.188-.536.062a12.989,12.989,0,0,1,.63-1.719c.1-.275.279-.544.1-.853-.01-.007-.02-.01-.031-.016a1.988,1.988,0,0,1-.226.855c-.205.516-.417,1.029-.611,1.549-.051.136-.194.3-.038.439s.3-.025.444-.051a1.21,1.21,0,0,0,.224-.079c2.22-.856,4.438-1.719,6.662-2.563a5.687,5.687,0,0,0,2.229-1.406c1.17-1.245,2.423-2.413,3.641-3.614-.317-.056-.459.2-.634.374" transform="translate(-171.711 -204.858)" fill="#d7d6d9"/>
        <path id="Trazado_601671" data-name="Trazado 601671" d="M219.986,260.167a.942.942,0,0,1,.143.174,1.162,1.162,0,0,0,.733-.046c.872-.313,1.739-.638,2.595-.993a.965.965,0,0,0,.506-.389.479.479,0,0,0,.013-.077,22.251,22.251,0,0,1-3.079,1.292,1.224,1.224,0,0,1-.91.038" transform="translate(-184.801 -217.439)" fill="#d7d6d9"/>
        <path id="Trazado_601672" data-name="Trazado 601672" d="M245.675,225.859c-.185.185-.349.481-.672.187.1.31.312.244.52.14a1.49,1.49,0,0,0,.362-.308q2.744-2.74,5.486-5.482a1.5,1.5,0,0,0,.4-.586c-.16.147-.326.289-.48.442q-2.808,2.8-5.613,5.606" transform="translate(-205.817 -184.654)" fill="#d7d6d9"/>
        <path id="Trazado_601673" data-name="Trazado 601673" d="M304.921,122.037c-1.467.323-2.346,1.41-3.288,2.426.186-.057.3.063.416.172.7.682,1.39,1.37,2.068,2.071.093.1.214.2.169.355a.281.281,0,0,1,.2.057c.872.775,1.68,1.614,2.479,2.462a.261.261,0,0,1,.06.275,10.181,10.181,0,0,0,2.005-2.185,3.817,3.817,0,0,0-4.111-5.633" transform="translate(-253.39 -102.451)" fill="#e5e6e7"/>
        <path id="Trazado_601674" data-name="Trazado 601674" d="M320.786,156.387c-.8-.848-1.607-1.687-2.479-2.462a.28.28,0,0,0-.2-.057.3.3,0,0,1-.021.056c.972.861,1.865,1.8,2.763,2.738a.261.261,0,0,0-.06-.275" transform="translate(-267.209 -129.258)" fill="#e5e6e7"/>
        <path id="Trazado_601675" data-name="Trazado 601675" d="M304.229,140.161c.012-.006.023-.012.035-.017h.022c.045-.156-.076-.259-.169-.355-.678-.7-1.37-1.389-2.068-2.071-.112-.109-.23-.23-.416-.172.888.849,1.779,1.7,2.6,2.616" transform="translate(-253.39 -115.534)" fill="#e5e6e7"/>
        <path id="Trazado_601676" data-name="Trazado 601676" d="M317.862,153.887l.035.039a.3.3,0,0,0,.021-.056H317.9c-.012,0-.023.012-.035.017" transform="translate(-267.023 -129.259)" fill="#e5e6e7"/>
        <path id="Trazado_601677" data-name="Trazado 601677" d="M75.388,232.176c-.147-.245.06-.493.19-.716q1.709-2.938,3.387-5.893a2.745,2.745,0,0,0-.328-3.608c-.108-.133-.331-.273-.206-.464l0,0-.6,0a3.479,3.479,0,0,1-.481,2.28c-1.114,1.933-2.226,3.868-3.351,5.794a.931.931,0,0,0,.012,1.1,14.81,14.81,0,0,1,1.968,4.139,2.3,2.3,0,0,1,.169,1.05l1.316-.007h0c-.778-1.172-1.35-2.461-2.073-3.664" transform="translate(-62.017 -186.063)" fill="#d7d6d9"/>
        <path id="Trazado_601678" data-name="Trazado 601678" d="M83.523,231.759c1.1-1.861,2.177-3.732,3.273-5.593a3.533,3.533,0,0,0,.564-3.313,7.117,7.117,0,0,0-.984-1.32c-.124.191.1.332.206.464a2.745,2.745,0,0,1,.328,3.608q-1.673,2.958-3.387,5.893c-.13.223-.337.472-.19.716.724,1.2,1.3,2.492,2.073,3.664a19.332,19.332,0,0,0-1.8-3.415.6.6,0,0,1-.081-.7" transform="translate(-69.963 -186.101)" fill="#d7d6d9"/>
        <path id="Trazado_601679" data-name="Trazado 601679" d="M74.815,234.792a14.808,14.808,0,0,0-1.968-4.139.931.931,0,0,1-.012-1.1c1.126-1.926,2.237-3.861,3.351-5.794a3.478,3.478,0,0,0,.481-2.28h-.114a3.829,3.829,0,0,1-.5,2.227c-1.176,1.984-2.307,3.995-3.474,5.984a.672.672,0,0,0,0,.808c.482.754.926,1.53,1.339,2.326a22.77,22.77,0,0,1,1.068,3.015,2.3,2.3,0,0,0-.17-1.05" transform="translate(-60.856 -186.059)" fill="#d7d6d9"/>
        <path id="Trazado_601680" data-name="Trazado 601680" d="M120.187,76.358c.5-.011.994.008,1.492.015q6.815-.01,13.629-.026c.548,0,1.279.256,1.595-.122.269-.322.1-1.026.095-1.56q0-4.423-.017-8.846l-6.679.008v2.817c-.584-.583-1.083-1.047-1.54-1.549-.284-.312-.483-.319-.757,0-.435.511-.9.995-1.355,1.49l-.187-.107q0-1.327,0-2.654l-6.679-.008c-.006,3.383-.009,6.766-.025,10.149,0,.334.138.4.427.39" transform="translate(-100.605 -55.291)" fill="#fea633"/>
        <path id="Trazado_601681" data-name="Trazado 601681" d="M147.037,50.418a1.29,1.29,0,0,1,.16.805q.007,4.45,0,8.9c0,.914-.125,1.04-1.035,1.041q-6.84.009-13.68,0a1.175,1.175,0,0,1-.8-.174c0,.4.032.8-.005,1.2-.05.527.1.716.679.714q7.953-.035,15.906,0c.527,0,.671-.137.669-.667-.021-4.325-.008-8.65-.017-12.975,0-.532.227-1.206-.1-1.561s-1.02-.078-1.549-.126c-.079-.007-.159,0-.239,0q-.019,1.408-.038,2.817c.018.011.036.021.053.034" transform="translate(-110.608 -39.909)" fill="#d7d6d9"/>
        <path id="Trazado_601682" data-name="Trazado 601682" d="M132.556,76.27q6.84.005,13.68,0c.91,0,1.034-.127,1.035-1.042q.009-4.45,0-8.9a1.29,1.29,0,0,0-.16-.805c-.017-.013-.035-.023-.053-.034,0,.018,0,.035,0,.053q.01,4.423.017,8.846c0,.535.174,1.238-.095,1.56-.316.378-1.047.12-1.595.122q-6.815.027-13.629.026a1.176,1.176,0,0,0,.8.174" transform="translate(-110.684 -55.014)" fill="#d7d6d9"/>
        <path id="Trazado_601683" data-name="Trazado 601683" d="M148.29,161.557c-2.651.019-5.3.009-7.953.009h-7.415c-1.224,0-1.2,0-1.232,1.222-.015.535.121.708.687.706,5.083-.023,10.166-.013,15.249-.013,1.323,0,1.3,0,1.324-1.312.011-.53-.19-.615-.658-.612" transform="translate(-110.626 -135.717)" fill="#bbbdbf"/>
        <path id="Trazado_601684" data-name="Trazado 601684" d="M120.339,40.5c1.9-.01,3.8-.023,5.7.006a1,1,0,0,1,.29.054.466.466,0,0,1,.134.085q0-2.365.006-4.729c-2.11-.007-4.219-.009-6.329-.024-.279,0-.383.079-.38.37.018,1.472.018,2.945.024,4.418a.717.717,0,0,1,.55-.179" transform="translate(-100.609 -30.148)" fill="#fe9711"/>
        <path id="Trazado_601685" data-name="Trazado 601685" d="M126.6,64.824v-.042a.463.463,0,0,0-.134-.085,1,1,0,0,0-.29-.054c-1.9-.029-3.8-.016-5.705-.006a.718.718,0,0,0-.55.179Z" transform="translate(-100.737 -54.289)" fill="#fe9711"/>
        <path id="Trazado_601686" data-name="Trazado 601686" d="M185.758,40.551a4.946,4.946,0,0,1,1.36-.075q2.2-.01,4.4,0a1.47,1.47,0,0,1,.787.122,4.542,4.542,0,0,1,.055-2.806c-.007-.5-.026-.994-.015-1.491.006-.283-.041-.432-.382-.429-2.109.02-4.218.02-6.327.026q0,2.366.006,4.731a.483.483,0,0,1,.119-.08" transform="translate(-155.943 -30.136)" fill="#fe9711"/>
        <path id="Trazado_601687" data-name="Trazado 601687" d="M191.545,64.6q-2.2-.009-4.4,0a4.945,4.945,0,0,0-1.36.075.479.479,0,0,0-.119.08v.04l6.679-.008-.016-.064a1.47,1.47,0,0,0-.787-.122" transform="translate(-155.974 -54.259)" fill="#fe9711"/>
        <path id="Trazado_601688" data-name="Trazado 601688" d="M226.3,50.683l.017.011.038-2.817a4.542,4.542,0,0,0-.056,2.806" transform="translate(-189.946 -40.22)" fill="#fe9711"/>
        <path id="Trazado_601689" data-name="Trazado 601689" d="M227.326,65.419c.006.021.011.043.016.064,0-.018,0-.035,0-.053l-.017-.011" transform="translate(-190.967 -54.956)" fill="#fe9711"/>
        <path id="Trazado_601690" data-name="Trazado 601690" d="M144.522,185.5c-2.033.02-4.066.009-6.1.009h-5.441c-1.3,0-1.269,0-1.306,1.271-.016.546.165.658.677.655,3.806-.021,7.613-.011,11.42-.011,1.344,0,1.324,0,1.333-1.361,0-.46-.15-.567-.585-.563" transform="translate(-110.616 -155.832)" fill="#bbbdbf"/>
        <path id="Trazado_601691" data-name="Trazado 601691" d="M113.174,265.624c0-.151.046-.355-.175-.388-.64-.1-.947-.63-1.355-1.021a3.254,3.254,0,0,0-2.206-.907,3.692,3.692,0,0,0-2.9,1.412,1.241,1.241,0,0,1-2.057,0,4.845,4.845,0,0,0-1.681-1.209c-1-.4-1.116-.321-1.117.776.079.266-.194.771.152.877.652.2.98.725,1.445,1.112a3.427,3.427,0,0,0,2.053.853,3.526,3.526,0,0,0,2.917-1.361,1.415,1.415,0,0,1,1.312-.549,1.522,1.522,0,0,1,.924.61,4.1,4.1,0,0,0,2.175,1.276c.343.076.539,0,.515-.4-.021-.358,0-.717-.006-1.076" transform="translate(-85.399 -221.179)" fill="#bbbdbf"/>
        <path id="Trazado_601692" data-name="Trazado 601692" d="M161.9,40.206a.785.785,0,0,1-.169.581.776.776,0,0,1,.139.552c.015.613.006,1.226,0,1.895.366-.365.7-.7,1.029-1.028.689-.682.774-.68,1.481.019.324.32.639.648,1,1,.009-.644-.011-1.253.007-1.86a.8.8,0,0,1,.141-.571.782.782,0,0,1-.17-.583q-.02-1.78,0-3.56a.787.787,0,0,1,.185-.607h-3.826a.787.787,0,0,1,.185.607q.018,1.78,0,3.56" transform="translate(-135.848 -30.275)" fill="#ed8600"/>
        <path id="Trazado_601693" data-name="Trazado 601693" d="M165.352,66.3c-.018.607,0,1.216-.007,1.86-.361-.348-.677-.676-1-1-.707-.7-.792-.7-1.481-.019-.333.33-.662.663-1.029,1.028.007-.669.016-1.282,0-1.895a.777.777,0,0,0-.139-.552c-.007.008-.013.016-.021.023V68.4l.187.107c.453-.5.919-.98,1.355-1.49.274-.321.473-.314.757,0,.457.5.955.966,1.54,1.549V65.748c-.007-.007-.013-.014-.019-.021a.8.8,0,0,0-.141.571" transform="translate(-135.817 -55.213)" fill="#ed8600"/>
        <path id="Trazado_601694" data-name="Trazado 601694" d="M161.7,40.787a.786.786,0,0,0,.169-.581q.02-1.78,0-3.56a.788.788,0,0,0-.185-.607q0,2.365-.006,4.729l.021.019" transform="translate(-135.817 -30.275)" fill="#ed8600"/>
        <path id="Trazado_601695" data-name="Trazado 601695" d="M161.676,65.607v.042c.008-.007.014-.015.021-.023l-.021-.019" transform="translate(-135.818 -55.114)" fill="#ed8600"/>
        <path id="Trazado_601696" data-name="Trazado 601696" d="M184.433,40.206a.783.783,0,0,0,.17.583l.019-.019q0-2.366-.006-4.731a.787.787,0,0,0-.185.607q-.017,1.78,0,3.56" transform="translate(-154.927 -30.275)" fill="#ed8600"/>
        <path id="Trazado_601697" data-name="Trazado 601697" d="M185.549,65.638c.007.007.012.014.019.021v-.04l-.019.019" transform="translate(-155.872 -55.124)" fill="#ed8600"/>
        <path id="Trazado_601698" data-name="Trazado 601698" d="M140.669,209.442c-2.53.02-5.06.009-7.591.009-1.427,0-1.412,0-1.392,1.418.006.4.138.509.52.5,1.414-.018,2.829-.007,4.244-.007h3.527c1.308,0,1.285,0,1.305-1.328.008-.486-.153-.6-.613-.6" transform="translate(-110.621 -175.943)" fill="#bbbdbf"/>
        <path id="Trazado_601699" data-name="Trazado 601699" d="M197.216,256.261c.223-.117.428-.209.463-.455a15.322,15.322,0,0,1-1.9-1.767c-.162-.147-.3-.316-.472-.454-.132-.108-.266-.114-.334.062-.5,1.291-1.019,2.573-1.541,4.013.788-.222,1.4-.549,2.052-.747.214-.065.419-.2.647-.07h0c.209-.469.719-.392,1.08-.581" transform="translate(-162.498 -212.962)" fill="#898890"/>
        <path id="Trazado_601700" data-name="Trazado 601700" d="M194.618,255.39c-.653.2-1.264.525-2.052.747.521-1.441,1.044-2.723,1.541-4.013.068-.176.2-.17.334-.062.17.139.31.308.472.454a15.339,15.339,0,0,0,1.9,1.767.58.58,0,0,0,0-.116c-.78-.766-1.565-1.525-2.335-2.3-.241-.243-.361-.24-.487.093-.5,1.319-1.006,2.632-1.51,3.948-.042.109-.127.232-.048.335.112.145.254.033.378-.013q1.228-.452,2.454-.91c-.228-.13-.434.005-.647.07" transform="translate(-161.628 -211.439)" fill="#898890"/>
        <path id="Trazado_601701" data-name="Trazado 601701" d="M211.855,267.878c-.035.246-.239.338-.463.455-.362.189-.872.112-1.08.581h0c.467-.189.927-.4,1.405-.56.319-.106.394-.237.285-.418a1.053,1.053,0,0,1-.131-.047l-.016-.012" transform="translate(-176.675 -225.034)" fill="#898890"/>
        <path id="Trazado_601702" data-name="Trazado 601702" d="M219.961,267.27l.016.012a1.042,1.042,0,0,0,.131.047.937.937,0,0,0-.143-.174.58.58,0,0,1,0,.116" transform="translate(-184.78 -224.425)" fill="#898890"/>
        <path id="Trazado_601703" data-name="Trazado 601703" d="M96.074,163.5c.5-.016.995,0,1.492,0H98.1c1.463,0,1.453,0,1.395-1.47-.013-.332-.113-.459-.45-.45-.656.018-1.313.005-1.97.005-1.516,0-1.507,0-1.424,1.5.017.3.108.429.419.418" transform="translate(-80.331 -135.737)" fill="#bbbdbf"/>
        <path id="Trazado_601704" data-name="Trazado 601704" d="M99.322,186.335c.025-.28.318-.84-.35-.857-1.014-.025-2.031-.04-3.044,0-.766.033-.353.668-.377,1.009-.021.293-.353.873.378.892.5.012.995,0,1.492,0a13.015,13.015,0,0,0,1.551-.012c.726-.088.318-.687.35-1.038" transform="translate(-80.191 -155.793)" fill="#bbbdbf"/>
        <path id="Trazado_601705" data-name="Trazado 601705" d="M97.013,212.242a7.69,7.69,0,0,1,1.835-.067c.454,0,.633-.161.634-.627,0-.919,0-.939-.9-.94q-.832,0-1.665,0c-.786,0-.786,0-1.028.732a.446.446,0,0,1-.07.036,1.591,1.591,0,0,1,.468.9.487.487,0,0,1,.618.073h0a.476.476,0,0,1,.106-.109" transform="translate(-80.491 -176.922)" fill="#bbbdbf"/>
        <path id="Trazado_601706" data-name="Trazado 601706" d="M95.829,210.349c.242-.73.242-.73,1.028-.732q.832,0,1.665,0c.907,0,.9.021.9.94,0,.466-.18.627-.634.627a7.687,7.687,0,0,0-1.835.067.48.48,0,0,0-.106.109c.455,0,.91-.006,1.364-.006,1.42,0,1.407,0,1.389-1.41,0-.385-.115-.523-.508-.512-.912.024-1.826.033-2.738,0-.472-.018-.664.129-.6.6a2.276,2.276,0,0,1,0,.357h0a.435.435,0,0,0,.071-.036" transform="translate(-80.434 -175.932)" fill="#bbbdbf"/>
        <path id="Trazado_601707" data-name="Trazado 601707" d="M95.814,215.418h0l.373.97h0a.8.8,0,0,1,.1-.069,1.592,1.592,0,0,0-.468-.9" transform="translate(-80.49 -180.964)" fill="#bbbdbf"/>
        <path id="Trazado_601708" data-name="Trazado 601708" d="M95.815,215.418h0" transform="translate(-80.49 -180.964)" fill="#bbbdbf"/>
        <path id="Trazado_601709" data-name="Trazado 601709" d="M98.744,220.637c.006.02.011.039.017.059,0,0,0,.007,0,.011l.6,0a.487.487,0,0,0-.618-.073" transform="translate(-82.951 -185.282)" fill="#bbbdbf"/>
        <path id="Trazado_601710" data-name="Trazado 601710" d="M98.242,221.054a.793.793,0,0,0-.1.069h.114v-.011c-.006-.019-.012-.039-.017-.059" transform="translate(-82.449 -185.699)" fill="#bbbdbf"/>
      </g>
    </g>
  </g>
</svg>
