<svg xmlns="http://www.w3.org/2000/svg" xmlns:xlink="http://www.w3.org/1999/xlink" width="400" height="583" viewBox="0 0 400 583">
  <defs>
    <clipPath id="clip-path">
      <rect id="Rectángulo_300971" data-name="Rectángulo 300971" width="190" height="245" transform="translate(495 431.459)" fill="none" stroke="#707070" stroke-width="1"/>
    </clipPath>
    <clipPath id="clip-path-2">
      <rect id="Rectángulo_300806" data-name="Rectángulo 300806" width="146.092" height="515.453" fill="none"/>
    </clipPath>
    <clipPath id="clip-path-3">
      <rect id="Rectángulo_300974" data-name="Rectángulo 300974" width="190" height="272" transform="translate(390 414.459)" fill="#fff" stroke="#707070" stroke-width="1"/>
    </clipPath>
    <clipPath id="clip-path-4">
      <rect id="Rectángulo_300805" data-name="Rectángulo 300805" width="165.292" height="475.901" fill="none"/>
    </clipPath>
    <clipPath id="clip-path-5">
      <rect id="Rectángulo_300975" data-name="Rectángulo 300975" width="190" height="273" transform="translate(180 739.459)" fill="none" stroke="#707070" stroke-width="1"/>
    </clipPath>
    <clipPath id="clip-path-6">
      <rect id="Rectángulo_300804" data-name="Rectángulo 300804" width="149.786" height="483.634" fill="none"/>
    </clipPath>
    <clipPath id="clip-path-7">
      <rect id="Rectángulo_300976" data-name="Rectángulo 300976" width="190" height="273" transform="translate(390 739.459)" fill="none" stroke="#707070" stroke-width="1"/>
    </clipPath>
    <clipPath id="clip-path-8">
      <rect id="Rectángulo_300803" data-name="Rectángulo 300803" width="145.273" height="520.301" fill="none"/>
    </clipPath>
  </defs>
  <g id="Grupo_1017622" data-name="Grupo 1017622" transform="translate(10571 7343)">
    <rect id="Rectángulo_300979" data-name="Rectángulo 300979" width="400" height="583" transform="translate(-10571 -7343)" fill="#fff"/>
    <g id="Grupo_1017621" data-name="Grupo 1017621" transform="translate(-10751 -7757.459)">
      <rect id="Rectángulo_300972" data-name="Rectángulo 300972" width="190" height="272" rx="38" transform="translate(180 414.459)" fill="#e1fbff"/>
      <rect id="Rectángulo_300977" data-name="Rectángulo 300977" width="190" height="272" rx="38" transform="translate(180 720.459)" fill="#dee4f0"/>
      <rect id="Rectángulo_300978" data-name="Rectángulo 300978" width="190" height="272" rx="38" transform="translate(390 720.459)" fill="#e8e8e8"/>
      <rect id="Rectángulo_300973" data-name="Rectángulo 300973" width="190" height="272" rx="38" transform="translate(390 414.459)" fill="#e1efe3"/>
      <g id="Enmascarar_grupo_744821" data-name="Enmascarar grupo 744821" transform="translate(-315 -17)" clip-path="url(#clip-path)">
        <g id="Grupo_886087" data-name="Grupo 886087" transform="translate(516.954 447.06)">
          <g id="Grupo_886086" data-name="Grupo 886086" clip-path="url(#clip-path-2)">
            <path id="Trazado_601439" data-name="Trazado 601439" d="M57.92,8.066c.961,2.739.072,3.621-1.263,6.2-1.142,2.206-2.311,4.751-1.445,7.078.39,1.043,1.153,1.9,1.6,2.921a10.779,10.779,0,0,1,.459,5.23c-.6,7.794-1.338,15.979-5.7,22.463a12.764,12.764,0,0,0-2.1,3.749c-.473,1.843.136,3.77.739,5.572,1.467,4.376,3.387,9.256,7.67,10.984,1.649.664,11.969,6.4,22.844,1.046.969-.477,1.726-1.336,2.732-1.735,2.452-.971,5.317,1.1,7.794.189,2.383-.873,3.027-4.187,1.935-6.479s-3.329-3.78-5.464-5.156c2.624.842,5.832,1.565,7.855-.3s1.481-5.34-.276-7.445-4.367-3.249-6.748-4.608-4.763-3.211-5.424-5.873a2.329,2.329,0,0,1-.042-1.2c.444-1.523,2.615-1.282,4.18-1.537,3.418-.554,4.8-5.8,2.1-7.965-1.369-1.1-3.256-1.317-4.756-2.232-4.942-3.018.737-10.336-5.055-17.043C74.986,6.625,56.6,4.31,57.92,8.066" transform="translate(36.815 4.644)" fill="#b24f4d"/>
            <path id="Trazado_601440" data-name="Trazado 601440" d="M84.627,90.742s6.769-14.985-1.4-28.519c-4.147-6.872-12.04-13.382-23.812-12.21-7.1.706,25.209,40.729,25.209,40.729" transform="translate(43.609 37.245)" fill="#868964"/>
            <path id="Trazado_601441" data-name="Trazado 601441" d="M67.6,275.849s4.77,12.014,7.825,15.069-6.945,6.943-13.055,5.277-8.612-21.945-8.612-21.945Z" transform="translate(40.141 204.799)" fill="#fccdae"/>
            <path id="Trazado_601442" data-name="Trazado 601442" d="M60.628,296.015c30.743,7,17.454-11.623,11.111-12.222,3.055,3.055-6.945,6.945-13.055,5.277" transform="translate(43.823 211.925)" fill="#462c2a"/>
            <path id="Trazado_601443" data-name="Trazado 601443" d="M63.129,296.2c-6.112-1.666-8.612-21.945-8.612-21.945s-8.2,24.615,10.556,28.89" transform="translate(39.378 204.799)" fill="#462c2a"/>
            <path id="Trazado_601444" data-name="Trazado 601444" d="M122.8,136.394s-15.661,36.057-35.361,44.652c0,0-15.057,102.535-15.057,107.55s-1.5,53.664.286,59.753,7.522,6.805,4.657,12.536,2.507,5.015,1.074,10.746,3.223,8.6-.358,11.1-5.015,3.225-11.82,6.089-9.312,3.224-9.312-2.149-.716-2.508-3.583-10.388-4.655-11.461-3.581-16.117-11.82-30.8-13.611-55.875,2.947-51.608,2.507-52.651c-2.547-6.056-.716-11.1-1.79-16.477S28.968,195.41,24.67,177.5s4.248-39.844,4.248-39.844Z" transform="translate(17.52 101.853)" fill="#adafb2"/>
            <path id="Trazado_601445" data-name="Trazado 601445" d="M110.239,50.775c6.468,1.626,19.089,40.216,22.551,48.694,7.845,19.22-9.806,22.75-8.629,33.732,1.757,16.4,6.288,27.48,10.528,42.581.847,3.024,3.23,5.551,4.03,8.971.377,1.611-.8,3.927-.442,5.649.732,3.518,1.42,7.287,2.04,11.373.548,3.6-62.534,19.962-93.88,1.263,0,0,3.352-6.791,6.538-19.578.557-2.236-3.466-7.452-1.724-11.848,4.526-11.419,8.959-25.543,8.3-29.8-1.429-9.279-7.408-40.12-12.4-41.547s-22.191,20.088-24.266,23.552c-.788,1.314,2.854,9.991,2.854,9.991L7.184,137.376S-.668,129.526.047,124.53,28.594,60.3,45.724,55.3s46.773-8.985,64.515-4.524" transform="translate(0.001 36.472)" fill="#9fa177"/>
            <path id="Trazado_601446" data-name="Trazado 601446" d="M35.436,51.931A147.155,147.155,0,0,1,72.681,48.9c2.073.121,13.59,7.555,6.742,12.233-8.526,5.825-9.843,9.062-31.4,2.816C28.867,58.4,30.376,53.026,35.436,51.931" transform="translate(24.004 36.375)" fill="#fccdae"/>
            <path id="Trazado_601447" data-name="Trazado 601447" d="M60.71,188.989c.838-3.448,12.194,69.662,8.68,89.874-.6,3.476-14.17,70.461-14.886,75.116s-5.731,9.672-3.583,9.672,0,11.819,1.434,12.895l1.432,1.074s11.663,4.04,16.32,1.176,1.074-5.015,1.074-5.015,7.163-4.3,3.223-7.522-1.79-6.805,2.507-12.536,18.268-46.2,23.641-67.338,13.59-114.355,2.136-149.991Z" transform="translate(37.629 101.853)" fill="#adafb2"/>
            <path id="Trazado_601448" data-name="Trazado 601448" d="M61.774,277.421s4.447,14.741,6.947,16.407-16.666,11.389-20.554,4.721-2.779-14.444-2.779-14.444Z" transform="translate(33.784 207.167)" fill="#fccdae"/>
            <path id="Trazado_601449" data-name="Trazado 601449" d="M60.116,294.085a1.02,1.02,0,0,1-.328-.054,1.521,1.521,0,0,1-.835-.852,43.178,43.178,0,0,1-3.476-15.831.769.769,0,0,1,.749-.79.746.746,0,0,1,.788.751,41.631,41.631,0,0,0,3.331,15.212.769.769,0,0,1,.269,1.431,1.017,1.017,0,0,1-.5.133" transform="translate(41.427 206.522)" fill="#bc8d81"/>
            <path id="Trazado_601450" data-name="Trazado 601450" d="M46.664,281.248s-1.113,7.778,2.776,14.444S72.5,292.637,70,290.97c0,0,8.612,4.444,6.947,7.778s-22.5,9.721-30,5-.276-22.5-.276-22.5" transform="translate(32.509 210.024)" fill="#462c2a"/>
            <path id="Trazado_601451" data-name="Trazado 601451" d="M22.669,97.483l27.3,49.58s-3.6,13.922-6.6,19.649,3.857,11.218,3.857,16.02-1.642,7.05-7.5-3.923,2.561-22.678-1.462-27.8S4.113,101.052,4.113,101.052Z" transform="translate(3.071 72.796)" fill="#fccdae"/>
            <path id="Trazado_601452" data-name="Trazado 601452" d="M63.757,58.679l-3.272-15.4-15.207.77-3.85,15.207Z" transform="translate(30.937 32.319)" fill="#fccdae"/>
            <path id="Trazado_601453" data-name="Trazado 601453" d="M81.745,52.14c-3,11.951-17.864,22.662-26.119,20.7-12.559-2.989-20.29-10.243-18.3-28.175S50.015,6.469,62.845,7.9s28.006,7.934,18.9,44.244" transform="translate(27.642 5.844)" fill="#fccdae"/>
            <path id="Trazado_601454" data-name="Trazado 601454" d="M101.831,22.806C96.061,6.461,81.011,8.512,77.582,5.319,75.039,2.95,72.1.789,68.686.157S61.3.81,59.7,3.9c-1.427,2.756-.887,6.549-3.237,8.577-2.594,2.241-6.538.638-9.967.629a10.856,10.856,0,0,0-9.253,5.537,12.144,12.144,0,0,0-.285,10.884c.714,1.53,1.764,3.06,1.562,4.735-.365,2.987-10.309,3.9-13.2,4.727-7.249,2.077-8.468,16.451-3.467,24.757,5.626,9.345,34,20.558,37.582,10.4,1.029-6.924-13.4-9.1-1.13-16.467,8.051-4.83,1.469-14.648,2.245-15.665,2.966-3.883,10.673,1.888,13.67-1.969,1.516-1.949.37-4.748.465-7.216A7.212,7.212,0,0,1,79.3,26.593c3.616-1.4,6.912,7.509,13.16,7.029,4.023-.309,12.131-3,9.375-10.816" transform="translate(14.058 0)" fill="#c35754"/>
            <path id="Trazado_601455" data-name="Trazado 601455" d="M58.357,198.853c-.026,0-.052,0-.08,0A.77.77,0,0,1,57.59,198a198.308,198.308,0,0,1,4.44-25.922,18.276,18.276,0,0,1,1.01-3.249c1.35-3.029,4.093-5.17,6.856-7.034l1.445-.964c4.3-2.858,8.75-5.815,10.706-10.383a.769.769,0,1,1,1.413.606c-2.135,4.99-6.777,8.074-11.267,11.057l-1.438.959c-2.4,1.618-5.059,3.577-6.311,6.386a17.027,17.027,0,0,0-.919,2.982,196.8,196.8,0,0,0-4.4,25.721.771.771,0,0,1-.765.69" transform="translate(43.003 112.002)" fill="#77797c"/>
            <path id="Trazado_601456" data-name="Trazado 601456" d="M31.783,165.235a.77.77,0,0,1-.374-1.443,42.254,42.254,0,0,0,8.638-6.334c4.086-3.878,6.288-7.8,6.549-11.66a.769.769,0,0,1,1.535.1c-.286,4.257-2.65,8.519-7.024,12.673a43.932,43.932,0,0,1-8.952,6.564.777.777,0,0,1-.372.1" transform="translate(23.158 108.341)" fill="#77797c"/>
            <path id="Trazado_601457" data-name="Trazado 601457" d="M43.133,246.324H43.11a.772.772,0,0,1-.748-.791c.423-15.066-2.728-30.256-5.775-44.942-3.558-17.162-7.239-34.905-5.242-52.558a.769.769,0,1,1,1.528.171c-1.969,17.41,1.686,35.031,5.221,52.074,3.064,14.774,6.232,30.051,5.806,45.3a.77.77,0,0,1-.769.748" transform="translate(22.987 110.034)" fill="#77797c"/>
            <path id="Trazado_601458" data-name="Trazado 601458" d="M37.813,213.651a.767.767,0,0,1-.751-.935,21.026,21.026,0,0,0,.412-6.376.771.771,0,0,1,.7-.835.757.757,0,0,1,.833.7,22.515,22.515,0,0,1-.442,6.842.77.77,0,0,1-.751.6" transform="translate(27.662 153.46)" fill="#77797c"/>
            <path id="Trazado_601459" data-name="Trazado 601459" d="M56.469,331.7a.735.735,0,0,1-.162-.017.769.769,0,0,1-.59-.914l1.23-5.736a3.463,3.463,0,0,1-1.071.037,5.216,5.216,0,0,1-3.839-2.655,13.3,13.3,0,0,1-1.142-3.7,15.946,15.946,0,0,0-.69-2.636c-.19-.484-.428-.95-.666-1.418a9.545,9.545,0,0,1-1.123-3.015,4.064,4.064,0,0,1,.9-3.1,3.517,3.517,0,0,1-1.56-2.206,3.616,3.616,0,0,1,1.68-3.733c-3.675-8.568-6.987-17.4-9.845-26.271-2.089-6.479-4.114-13.474-4.776-20.739-.741-8.115.252-16.283,1.21-24.184l2.3-18.972a.769.769,0,1,1,1.527.185l-2.3,18.972c-.948,7.82-1.93,15.906-1.205,23.859.648,7.115,2.646,14.013,4.708,20.407,2.922,9.062,6.318,18.089,10.093,26.832a.771.771,0,0,1-.5,1.046,2.067,2.067,0,0,0-1.389,2.285,2.092,2.092,0,0,0,1.752,1.542,2.465,2.465,0,0,1,.632-.005.769.769,0,0,1,.012,1.525,2.823,2.823,0,0,1-.557.028,1.2,1.2,0,0,0-.528.332,2.514,2.514,0,0,0-.634,1.99,8.31,8.31,0,0,0,.971,2.529c.26.512.519,1.025.727,1.556a17.266,17.266,0,0,1,.765,2.889,12,12,0,0,0,.992,3.287,3.723,3.723,0,0,0,2.655,1.85,1.541,1.541,0,0,0,1.42-.489.769.769,0,0,1,1.333.666l-1.581,7.375a.77.77,0,0,1-.751.608" transform="translate(25.805 158.131)" fill="#77797c"/>
            <path id="Trazado_601460" data-name="Trazado 601460" d="M40.478,272.241a.769.769,0,0,1-.054-1.535c2.411-.173,4.573-1.457,6.861-2.816,2.6-1.541,5.266-3.137,8.386-2.985a.769.769,0,0,1-.073,1.537c-2.669-.131-5.018,1.282-7.527,2.77-2.342,1.392-4.763,2.83-7.537,3.027-.019,0-.038,0-.056,0" transform="translate(29.653 197.812)" fill="#77797c"/>
            <path id="Trazado_601461" data-name="Trazado 601461" d="M44.115,281.946a.769.769,0,0,1-.367-1.446l12.435-6.7a.77.77,0,1,1,.73,1.355l-12.433,6.7a.771.771,0,0,1-.365.093" transform="translate(32.368 204.393)" fill="#77797c"/>
            <path id="Trazado_601462" data-name="Trazado 601462" d="M42.94,274.046a.769.769,0,0,1-.157-1.521l5.611-1.183a.769.769,0,1,1,.318,1.506L43.1,274.03a.818.818,0,0,1-.159.016" transform="translate(31.492 202.615)" fill="#77797c"/>
            <path id="Trazado_601463" data-name="Trazado 601463" d="M57.137,282.088l-.044,0a.769.769,0,0,1-.725-.81,5.109,5.109,0,0,1,1.448-2.868,3.612,3.612,0,0,0,1.09-2.037c-.01-.884-.844-1.539-1.81-2.3-1.05-.824-2.238-1.761-2.442-3.238a5.123,5.123,0,0,1,.433-2.459c.065-.18.129-.358.187-.536a7.265,7.265,0,0,0-.07-4.55l-1.769-.066a.767.767,0,0,1-.741-.8.786.786,0,0,1,.795-.741l2.278.084a.768.768,0,0,1,.678.465,8.8,8.8,0,0,1,.293,6.073c-.063.2-.133.391-.2.587a3.905,3.905,0,0,0-.358,1.729c.121.863.969,1.532,1.869,2.239,1.116.879,2.381,1.872,2.4,3.494a4.808,4.808,0,0,1-1.436,3.024,3.919,3.919,0,0,0-1.106,1.984.768.768,0,0,1-.767.725" transform="translate(39.35 195.413)" fill="#77797c"/>
            <path id="Trazado_601464" data-name="Trazado 601464" d="M62.237,273.707a9.681,9.681,0,0,1-5.97-2.059.77.77,0,1,1,.957-1.205,8.094,8.094,0,0,0,6.433,1.6.769.769,0,1,1,.283,1.513,9.291,9.291,0,0,1-1.7.155" transform="translate(41.8 201.83)" fill="#77797c"/>
            <path id="Trazado_601465" data-name="Trazado 601465" d="M64.4,268.574a.774.774,0,0,1-.225-.033l-8.458-2.582a.768.768,0,0,1,.045-1.483,24.757,24.757,0,0,1,8.678-.521.77.77,0,0,1,.674.854.75.75,0,0,1-.854.674,23.264,23.264,0,0,0-4.978-.045l5.343,1.631a.769.769,0,0,1-.225,1.5" transform="translate(41.197 196.986)" fill="#77797c"/>
            <path id="Trazado_601466" data-name="Trazado 601466" d="M54.987,336.244a.771.771,0,0,1-.749-.945A459.932,459.932,0,0,1,73.674,272.72l.314-.8c1.686-4.3,3.429-8.746,4.054-13.328a55.978,55.978,0,0,0-.2-12.917A706.1,706.1,0,0,0,65.09,163.514a.77.77,0,1,1,1.5-.327,707.728,707.728,0,0,1,12.781,82.339,57.3,57.3,0,0,1,.192,13.27c-.652,4.765-2.428,9.3-4.147,13.682l-.313.8A458.19,458.19,0,0,0,55.735,335.65a.768.768,0,0,1-.748.594" transform="translate(40.487 121.409)" fill="#77797c"/>
            <path id="Trazado_601467" data-name="Trazado 601467" d="M50.211,273.557a.769.769,0,0,1-.44-1.4,31.777,31.777,0,0,1,7.108-3.715.769.769,0,1,1,.535,1.443,30.277,30.277,0,0,0-6.763,3.535.766.766,0,0,1-.438.138" transform="translate(36.921 200.424)" fill="#77797c"/>
            <path id="Trazado_601468" data-name="Trazado 601468" d="M17.037,96.157a.8.8,0,0,1-.238-.037A60.366,60.366,0,0,0,5.975,93.675a.769.769,0,1,1,.2-1.525,61.666,61.666,0,0,1,11.1,2.507.769.769,0,0,1-.238,1.5" transform="translate(3.961 68.808)" fill="#808360"/>
            <path id="Trazado_601469" data-name="Trazado 601469" d="M2,94.934a.769.769,0,0,1-.325-1.467C1.72,93.445,6.188,91.582,8,92.142l7.64-1.128a.77.77,0,0,1,.225,1.523L8.017,93.7a.779.779,0,0,1-.507-.1c-.6-.25-3.836.641-5.188,1.268A.762.762,0,0,1,2,94.934" transform="translate(0.918 67.959)" fill="#808360"/>
            <path id="Trazado_601470" data-name="Trazado 601470" d="M55.9,108.664c-.024,0-.047,0-.072,0-7.3-.681-14.105-1.867-17.218-8.784C36.545,95.3,35.151,84.4,35.738,77.455a.77.77,0,0,1,1.534.129c-.569,6.741.76,17.268,2.737,21.662,2.772,6.163,9.13,7.246,15.957,7.883a.769.769,0,0,1-.07,1.535" transform="translate(26.587 57.313)" fill="#808360"/>
            <path id="Trazado_601471" data-name="Trazado 601471" d="M72.412,99.559a.682.682,0,0,1-.1-.007A34.84,34.84,0,0,1,62.16,96.236l-1.237-.554a1.7,1.7,0,0,1-.98-1.946A1.727,1.727,0,0,1,61.657,92.4l13.078.332a.771.771,0,0,1,.749.79.745.745,0,0,1-.79.749l-13.078-.332a.153.153,0,0,0-.173.133.16.16,0,0,0,.1.2l1.245.557a33.555,33.555,0,0,0,9.722,3.193.769.769,0,0,1-.1,1.532" transform="translate(44.731 69.004)" fill="#808360"/>
            <path id="Trazado_601472" data-name="Trazado 601472" d="M60.809,145.179c-2.788,0-5.609-.084-8.416-.288a100.7,100.7,0,0,1-22.2-4.161.769.769,0,0,1,.452-1.471,99.18,99.18,0,0,0,21.855,4.1,165.482,165.482,0,0,0,24.208-.428c10.327-.786,22.063-2.182,30.661-8.833a.77.77,0,0,1,.941,1.217c-8.933,6.912-20.937,8.348-31.485,9.151-4.9.372-10.388.714-16.021.714" transform="translate(22.145 100.017)" fill="#808360"/>
            <path id="Trazado_601473" data-name="Trazado 601473" d="M54.286,141.1a148.351,148.351,0,0,1-15.665-1.079l-7.745-.821a.769.769,0,0,1,.162-1.53l7.745.821c10.571,1.12,23.728,2.512,34.605-2.5a.769.769,0,0,1,.643,1.4c-6.2,2.856-13.047,3.71-19.745,3.71" transform="translate(22.543 101.5)" fill="#808360"/>
            <path id="Trazado_601474" data-name="Trazado 601474" d="M49.493,21.115a.516.516,0,0,1-.073,0L46.1,20.8a.769.769,0,0,1,.147-1.532l2.578.246A17.578,17.578,0,0,1,50.586,14a.769.769,0,0,1,1.366.707,16.005,16.005,0,0,0-1.694,5.714.769.769,0,0,1-.765.693" transform="translate(33.903 10.145)" fill="#a04644"/>
            <path id="Trazado_601475" data-name="Trazado 601475" d="M30.47,33.947c-.327,0-.653-.007-.973-.017a.768.768,0,0,1-.741-.795.759.759,0,0,1,.795-.742c2.206.072,4.461-.035,5.981-1.335,1.432-1.223,2.072-3.375,1.96-6.578-.014-.414-.035-.83-.058-1.247-.115-2.273-.238-4.624.711-6.79A7.974,7.974,0,0,1,47.7,12.227a.769.769,0,1,1-.494,1.457,6.469,6.469,0,0,0-7.647,3.376c-.8,1.831-.7,3.9-.583,6.093.023.426.044.849.058,1.272.131,3.7-.686,6.255-2.5,7.8-1.666,1.425-3.927,1.719-6.061,1.719" transform="translate(21.474 8.852)" fill="#a04644"/>
            <path id="Trazado_601476" data-name="Trazado 601476" d="M33.393,44.212a3.047,3.047,0,0,1-2.257-.926.769.769,0,0,1,1.13-1.043,1.83,1.83,0,0,0,2.29.061,3.468,3.468,0,0,0,1.249-2.58,12.321,12.321,0,0,0-.04-1.8,9.675,9.675,0,0,1,.091-2.875,5.48,5.48,0,0,1,6.79-3.859.769.769,0,1,1-.473,1.464,3.946,3.946,0,0,0-4.816,2.737,8.342,8.342,0,0,0-.056,2.426,13.5,13.5,0,0,1,.038,2.03,4.988,4.988,0,0,1-1.88,3.7,3.533,3.533,0,0,1-2.066.662" transform="translate(23.099 23.119)" fill="#a04644"/>
            <path id="Trazado_601477" data-name="Trazado 601477" d="M72.232,44.967a1.863,1.863,0,0,1-.791-.176l-.063-.026a.791.791,0,0,1-.51.124.771.771,0,0,1-.681-.849.961.961,0,0,1,.48-.739,1.542,1.542,0,0,1,1.415.093.466.466,0,0,0,.489-.1,1.271,1.271,0,0,0,.5-1.093,4.39,4.39,0,0,0-1.719-2.349c-2.5-2.236-4.852-4.487-6.033-7.436-1.219-3.043-.9-7.235,2.063-9.359a.77.77,0,1,1,.9,1.252c-2.3,1.644-2.5,5.109-1.53,7.536,1.059,2.643,3.176,4.671,5.63,6.86a5.714,5.714,0,0,1,2.217,3.287,2.787,2.787,0,0,1-1.106,2.538,2.1,2.1,0,0,1-1.256.44" transform="translate(48.278 17.109)" fill="#a04644"/>
            <path id="Trazado_601478" data-name="Trazado 601478" d="M60.735,47.541a.77.77,0,0,1-.079-1.535l4.4-.458c1.184-.122,2.6-.381,3-1.3.535-1.212-1.015-2.69-1.988-3.462-1.328-1.057-1.256-1.766-.611-2.865a8.4,8.4,0,0,0,.472-.889.77.77,0,0,1,1.4.631,10.264,10.264,0,0,1-.548,1.036,3.321,3.321,0,0,0-.243.459c.023.009.112.128.484.423,2.919,2.321,2.938,4.157,2.438,5.287-.817,1.855-3.225,2.1-4.252,2.213l-4.4.456a.642.642,0,0,1-.08.005" transform="translate(44.78 27.315)" fill="#a04644"/>
            <path id="Trazado_601479" data-name="Trazado 601479" d="M71,48.919a.769.769,0,0,1-.583-1.272,4.632,4.632,0,0,0-.049-5.864,9.792,9.792,0,0,0-1.5-1.273c-.37-.276-.741-.55-1.086-.851a4.419,4.419,0,0,1-1.785-3.6.77.77,0,1,1,1.534.129A3.1,3.1,0,0,0,68.788,38.5c.318.276.657.526.994.776a10.931,10.931,0,0,1,1.735,1.486,6.155,6.155,0,0,1,.068,7.892.773.773,0,0,1-.583.267" transform="translate(49.274 26.401)" fill="#a04644"/>
            <path id="Trazado_601480" data-name="Trazado 601480" d="M30.63,73.595a.8.8,0,0,1-.157-.014.769.769,0,0,1-.6-.912,21.132,21.132,0,0,0-4.5-17.654.77.77,0,0,1,1.172-1,22.7,22.7,0,0,1,4.833,18.97.767.767,0,0,1-.751.61" transform="translate(18.813 40.135)" fill="#808360"/>
            <path id="Trazado_601481" data-name="Trazado 601481" d="M25.371,81.33a.74.74,0,0,1-.29-.058.769.769,0,0,1-.423-1,27.629,27.629,0,0,1,7.431-10.379.769.769,0,1,1,1.01,1.16,26.106,26.106,0,0,0-7.015,9.8.769.769,0,0,1-.713.479" transform="translate(18.371 52.05)" fill="#808360"/>
            <path id="Trazado_601482" data-name="Trazado 601482" d="M63.12,71.6a.771.771,0,0,1-.4-.114,30.255,30.255,0,0,1-8.844-8.274.769.769,0,0,1,1.256-.887,28.743,28.743,0,0,0,8.393,7.85.769.769,0,0,1-.4,1.425" transform="translate(40.126 46.3)" fill="#808360"/>
            <path id="Trazado_601483" data-name="Trazado 601483" d="M69.841,71.62c-7.41,0-33.81-4.985-39.522-16.1a.769.769,0,1,1,1.369-.7c5.67,11.038,34.441,15.861,39.15,15.211,4.056-.559,13.752-8.975,14.767-10.629a4.156,4.156,0,0,0,.814-3.3,4.766,4.766,0,0,0-.975-1.53,38.624,38.624,0,0,0-3.39-3.728.769.769,0,1,1,1.069-1.106,39.774,39.774,0,0,1,3.5,3.85,6.064,6.064,0,0,1,1.261,2.051c.419,1.328.1,2.821-.971,4.566-1.261,2.058-11.205,10.708-15.868,11.35a9.067,9.067,0,0,1-1.207.065" transform="translate(22.577 36.982)" fill="#808360"/>
            <path id="Trazado_601484" data-name="Trazado 601484" d="M60.8,32.232a1.951,1.951,0,1,0-1.724-2.154A1.951,1.951,0,0,0,60.8,32.232" transform="translate(44.11 21.165)" fill="#7c6557"/>
            <path id="Trazado_601485" data-name="Trazado 601485" d="M49.6,30.988a1.952,1.952,0,1,0-1.724-2.156A1.952,1.952,0,0,0,49.6,30.988" transform="translate(35.741 20.234)" fill="#7c6557"/>
            <path id="Trazado_601486" data-name="Trazado 601486" d="M55.366,40.887a17.787,17.787,0,0,1-2.547-.183.77.77,0,0,1,.222-1.523,16.283,16.283,0,0,0,4.561.014c-.449-1.97-1.6-7.317.327-10.784a.769.769,0,1,1,1.345.748c-1.694,3.048-.521,8.168-.136,9.852.154.671.224.976-.114,1.294a1.466,1.466,0,0,1-.811.353,17.732,17.732,0,0,1-2.847.231" transform="translate(38.952 20.92)" fill="#bc8d81"/>
            <path id="Trazado_601487" data-name="Trazado 601487" d="M55.009,40.611a10,10,0,0,1-7.663-3.546.769.769,0,1,1,1.186-.978,8.538,8.538,0,0,0,8.98,2.587A.769.769,0,0,1,58,40.134a9.493,9.493,0,0,1-2.989.477" transform="translate(35.224 26.739)" fill="#bc8d81"/>
            <path id="Trazado_601488" data-name="Trazado 601488" d="M66.109,29.433a.771.771,0,0,1-.683-.414,3.9,3.9,0,0,0-2.545-2.065,4.063,4.063,0,0,0-3.3.678.769.769,0,1,1-.893-1.252,5.62,5.62,0,0,1,4.552-.922,5.428,5.428,0,0,1,3.551,2.852.772.772,0,0,1-.328,1.038.785.785,0,0,1-.355.086" transform="translate(43.586 18.901)" fill="#7c6557"/>
            <path id="Trazado_601489" data-name="Trazado 601489" d="M46.828,27.385a.769.769,0,0,1-.589-1.265,7.472,7.472,0,0,1,10.468-1.1.77.77,0,1,1-.926,1.23,5.967,5.967,0,0,0-8.363.865.769.769,0,0,1-.59.274" transform="translate(34.395 17.456)" fill="#7c6557"/>
            <path id="Trazado_601490" data-name="Trazado 601490" d="M54.353,55.629a.768.768,0,0,1-.767-.744,3.476,3.476,0,0,1,2.126-3.128,8.73,8.73,0,0,1,3.326-.655,1.325,1.325,0,0,1,1.2.463,1,1,0,0,1-.194,1.345.892.892,0,0,1-1.228-.063.719.719,0,0,1-.126-.178,6.338,6.338,0,0,0-2.318.475,2.043,2.043,0,0,0-1.254,1.691.765.765,0,0,1-.742.793l-.026,0" transform="translate(40.015 38.156)" fill="#bc8d81"/>
            <path id="Trazado_601491" data-name="Trazado 601491" d="M56.667,56.9a.771.771,0,0,1-.751-.606,1.8,1.8,0,0,0-1.478-1.162,6.976,6.976,0,0,0-2.459.178,64.671,64.671,0,0,1-12.584,1.1.769.769,0,0,1-.76-.779.734.734,0,0,1,.777-.76,62.629,62.629,0,0,0,12.149-1.052,8.619,8.619,0,0,1,3.149-.2,3.294,3.294,0,0,1,2.707,2.348.767.767,0,0,1-.587.915.749.749,0,0,1-.164.017" transform="translate(28.851 39.984)" fill="#bc8d81"/>
            <path id="Trazado_601492" data-name="Trazado 601492" d="M23.088,100.9A2.454,2.454,0,0,0,24.7,97.931a3.289,3.289,0,0,0-1.914-2.576c-2.222-.636-19.048,4.6-19.843,5.239s.477,3.81,2.7,4.6c1.764.629,12.916-2.837,17.452-4.3" transform="translate(2.016 71.167)" fill="#808360"/>
          </g>
        </g>
      </g>
      <g id="Grupo_1017617" data-name="Grupo 1017617" transform="translate(-105 17)">
        <path id="Sustracción_7" data-name="Sustracción 7" d="M162.083,65.867H0V8.024H20.752L24.845,0H190V53.891H166.071l-3.988,11.976Z" transform="translate(285 602.592)" fill="#03386e"/>
        <path id="Trazado_836439" data-name="Trazado 836439" d="M38.119,13.51H33.753L32.923,16H30.275l4.5-12.086h2.308L41.605,16H38.957Zm-3.694-2.017h3.021L35.928,6.969ZM45.307,4.811V7.019h1.536v1.76H45.307v4.482a1.07,1.07,0,0,0,.191.714.959.959,0,0,0,.73.216,3.826,3.826,0,0,0,.706-.058V15.95a4.939,4.939,0,0,1-1.453.216,2.29,2.29,0,0,1-2.573-2.548V8.778H41.6V7.019h1.312V4.811Zm7.919,4.458a6.517,6.517,0,0,0-.863-.066,1.757,1.757,0,0,0-1.785.921V16h-2.4V7.019h2.266l.066,1.071a2.223,2.223,0,0,1,2-1.237,2.514,2.514,0,0,1,.747.108ZM59.336,16a2.664,2.664,0,0,1-.241-.805,2.9,2.9,0,0,1-2.266.971,3.189,3.189,0,0,1-2.187-.764,2.456,2.456,0,0,1-.867-1.926,2.538,2.538,0,0,1,1.058-2.191,5.222,5.222,0,0,1,3.059-.772H59V10a1.48,1.48,0,0,0-.32-1,1.257,1.257,0,0,0-1.009-.374,1.429,1.429,0,0,0-.95.291.987.987,0,0,0-.344.8h-2.4a2.41,2.41,0,0,1,.481-1.444A3.182,3.182,0,0,1,55.816,7.23a4.961,4.961,0,0,1,1.976-.378,3.92,3.92,0,0,1,2.635.834,2.918,2.918,0,0,1,.975,2.345v3.893a4.294,4.294,0,0,0,.357,1.934V16Zm-1.984-1.668a2.066,2.066,0,0,0,.979-.237A1.554,1.554,0,0,0,59,13.46V11.916h-.9q-1.8,0-1.917,1.245l-.008.141a.96.96,0,0,0,.315.739A1.225,1.225,0,0,0,57.352,14.332Zm10.027,1.834a4.409,4.409,0,0,1-3.217-1.212,4.308,4.308,0,0,1-1.241-3.229v-.232a5.426,5.426,0,0,1,.523-2.42,3.838,3.838,0,0,1,1.482-1.644,4.159,4.159,0,0,1,2.187-.577,3.727,3.727,0,0,1,2.9,1.162,4.722,4.722,0,0,1,1.058,3.3v.979H65.354a2.229,2.229,0,0,0,.7,1.411,2.12,2.12,0,0,0,1.482.531,2.589,2.589,0,0,0,2.167-1l1.179,1.32a3.6,3.6,0,0,1-1.461,1.191A4.793,4.793,0,0,1,67.379,16.166Zm-.274-7.379a1.5,1.5,0,0,0-1.158.484,2.5,2.5,0,0,0-.569,1.384h3.337v-.192a1.786,1.786,0,0,0-.432-1.238A1.547,1.547,0,0,0,67.105,8.787Zm10.376.481a6.517,6.517,0,0,0-.863-.066,1.757,1.757,0,0,0-1.785.921V16h-2.4V7.019H74.7l.066,1.071a2.223,2.223,0,0,1,2-1.237,2.514,2.514,0,0,1,.747.108Z" transform="translate(326 625.526)" fill="#fff"/>
        <path id="Trazado_214008" data-name="Trazado 214008" d="M2.649,1.311H59v10H-4Z" transform="translate(415.999 658.149)" fill="#7f8a9c"/>
      </g>
      <g id="Enmascarar_grupo_744822" data-name="Enmascarar grupo 744822" clip-path="url(#clip-path-3)">
        <g id="Grupo_886085" data-name="Grupo 886085" transform="translate(402.354 437.993)">
          <g id="Grupo_886084" data-name="Grupo 886084" clip-path="url(#clip-path-4)">
            <path id="Trazado_601381" data-name="Trazado 601381" d="M65.122,266.3c4.583,1.834,11.914-6.415,11-11.914l4.582,7.333c1.1-.7,3.308,6.77,1.348,13.395-1.365,4.607-6.447,10.5-8.212,5.865-1.875-4.926-8.715-14.678-8.715-14.678" transform="translate(39.345 153.694)" fill="#a7aabd"/>
            <path id="Trazado_601382" data-name="Trazado 601382" d="M47.59,270.73s-9.165,5.5-15.58-.916L30.433,285.52l15.323-7.459Z" transform="translate(18.387 163.013)" fill="#a7aabd"/>
            <path id="Trazado_601383" data-name="Trazado 601383" d="M48.192,173.265l-.916-39.408,44.906-4.582s8.249,16.5,0,44.906c-9.546,32.884-43.99,181.46-43.99,181.46s-8.871,8.029-17.784-2.047C24.4,346.8,48.192,173.265,48.192,173.265" transform="translate(17.784 78.104)" fill="#443f4b"/>
            <path id="Trazado_601384" data-name="Trazado 601384" d="M21.442,128.7s-4.862,32.189-3.666,79.732c.257,10.188,1.774,45.507,7.345,52.391,18.227,22.516,61.947,83.93,65.532,85.364,4.583,1.834,15.1-10.366,14.186-15.865s-49.489-98.977-49.489-98.977l3.666-57.737L58.1,134.2Z" transform="translate(10.625 77.758)" fill="#443f4b"/>
            <path id="Trazado_601385" data-name="Trazado 601385" d="M71.7,132.149s3.757-6.45,7.471-8.306,7.737,3.712,7.118,6.5,2.374,2.475-4.692,7.735Z" transform="translate(43.321 74.598)" fill="#e7e9ff"/>
            <path id="Trazado_601386" data-name="Trazado 601386" d="M11.741,137.336a14.443,14.443,0,0,1-2.058-5.884c-.107-2.782,6.375-7.828,11.953-.043Z" transform="translate(5.849 76.886)" fill="#e7e9ff"/>
            <path id="Trazado_601387" data-name="Trazado 601387" d="M30.273,284.643v12.349l3.666,1.834s-.916,6.415,9.165,6.415c5.616,0,10.379-1.137,11.754-4.2,1.092-2.438.043-6.1-4.423-11.375a29.845,29.845,0,0,1-2.748-11.914c0-3.709-2.762-4.966-8.122-4.129a11.111,11.111,0,0,0-9.291,11.026" transform="translate(18.29 165.161)" fill="#8f552f"/>
            <path id="Trazado_601388" data-name="Trazado 601388" d="M54.857,292.139c-1.375,3.067-6.138,4.2-11.752,4.2-10.082,0-9.165-6.415-9.165-6.415L30.273,288.1s0,4.583.918,5.5l1.832,1.834s0,6.415,9.165,6.415c13.748,0,12.67-9.7,12.67-9.7" transform="translate(18.29 174.058)" fill="#422100"/>
            <path id="Trazado_601389" data-name="Trazado 601389" d="M71.589,276.03c-3.783,1.577-1.834,4.582,2.75,11.914S78,307.189,78,310.855c0,1.834,2.52,3.895,5.5,3.781s6.415-2.406,8.249-9.28c3.666-13.746.916-22.911.916-28.41s2.219-10.993-4.2-13.743c-4.188-1.8-6.4-5.17-9.078-5.387a1.574,1.574,0,0,0-1.652,1.97c1.041,4.025,2.188,12.769-6.152,16.244" transform="translate(42.042 155.761)" fill="#8f552f"/>
            <path id="Trazado_601390" data-name="Trazado 601390" d="M78.262,311.753c2.979-.114,6.415-2.406,8.249-9.279,3.666-13.748.916-22.912.916-28.411,0-4.06.135-6.866-1.141-10.6-.452-1.325,4.275-1.181,4.275.647,0,.916,4.265,31.187.531,39.4-4.582,10.081-12.83,8.244-12.83,8.244" transform="translate(47.283 158.644)" fill="#422100"/>
            <path id="Trazado_601391" data-name="Trazado 601391" d="M67.808,39.009C53.145,43.592,32.066,46.34,24.735,58.254S0,110.107,0,122.938a117.615,117.615,0,0,0,1.526,16.69c.807,5.6,11.536,45.648,14,45.143,1.216-.247,2.655-2.382,4.068-2.846,3.191-1.046,5.889.141,7.886,2.8l-1.375-57.28L36.19,96.287s-1.41,41.5-3.932,60.843c-.8,6.1,2.594,13.565,2.594,13.565s-3.1,10.576-2.328,11.739c0,0,42.615,17.872,78.357,2.292l.266-8.606s5.186-3.306,6.149-5.141c8.587-16.367,8.029-59.707,8.707-69.193,0,0,12.827,30.237,15.578,32.991.757.759-11.035,21.045-13.286,23.594-2.873,3.258-2.3,6.855-3.815,10.522-.69,1.673-4.062,3.969-4.164,5.57-.265,4.142,8.569,6.1,8.234,11.933,2.366-1.97,7.349-4.322,8.967-6.635,1.518-2.167,8.029-8.149,9.878-9.609,2.539-2.005,11.136-13.759,13.52-17,3.982-5.414,4.817-16.6,4.184-23.645-2.01-22.361-8.855-56.131-26.267-68.962s-31.159-17.413-31.159-17.413Z" transform="translate(0 23.568)" fill="#fdc179"/>
            <path id="Trazado_601392" data-name="Trazado 601392" d="M40.636,41.766c-1.153.59,2.75,5.653,2.75,11,0,.916-2.75,8.247-.916,10.081l3.666-3.666S60.8,67.426,64.465,68.344s15.58-1.834,18.329-9.165c0,0,1.869-.441,4.582,5.5,0,0,4.07-5.283-.962-18.408-5.409-14.113-31.5-11.813-45.777-4.5" transform="translate(24.422 21.727)" fill="#e7e9ff"/>
            <path id="Trazado_601393" data-name="Trazado 601393" d="M47.037,44.3s1.518,7.668,6.1,11.333c2.863,2.289,6.415,4.582,6.415,4.582A65.347,65.347,0,0,0,69.633,53.8c2.95-2.36,5.5-9.165,5.5-9.165l-.916-11.914H49.471Z" transform="translate(28.418 19.771)" fill="#c27d6d"/>
            <path id="Trazado_601394" data-name="Trazado 601394" d="M40.313,22.134A101.127,101.127,0,0,0,41.979,40.29c2.43,12.748,15.9,26.377,21.82,26.377,16.63,0,24.6-31.376,24.6-42.509S85.048,1.893,61.561,1.893,40.313,22.134,40.313,22.134" transform="translate(24.321 1.144)" fill="#c27d6d"/>
            <path id="Trazado_601395" data-name="Trazado 601395" d="M79.318,84.672a.805.805,0,0,1-.106-.008.706.706,0,0,1-.594-.8,91.062,91.062,0,0,1,9.71-29.353.707.707,0,1,1,1.248.666,89.615,89.615,0,0,0-9.561,28.9.708.708,0,0,1-.7.6" transform="translate(47.494 32.705)" fill="#bf945d"/>
            <path id="Trazado_601396" data-name="Trazado 601396" d="M26.216,86.985a.544.544,0,0,1-.088-.006.706.706,0,0,1-.613-.788,45.5,45.5,0,0,0-1.049-18.618A110.239,110.239,0,0,0,19.6,51.993a.706.706,0,1,1,1.312-.521,111.273,111.273,0,0,1,4.931,15.78,46.7,46.7,0,0,1,1.076,19.114.707.707,0,0,1-.7.619" transform="translate(11.81 30.828)" fill="#bf945d"/>
            <path id="Trazado_601397" data-name="Trazado 601397" d="M14.619,95.045a.705.705,0,0,1-.271-.055,9.731,9.731,0,0,0-7.195-.074A.707.707,0,0,1,6.64,93.6a11.175,11.175,0,0,1,8.25.087.706.706,0,0,1-.271,1.359" transform="translate(3.74 56.099)" fill="#bf945d"/>
            <path id="Trazado_601398" data-name="Trazado 601398" d="M91.817,99.659a.705.705,0,0,1-.371-1.307,14.193,14.193,0,0,1,10.591-1.732.706.706,0,1,1-.319,1.375,12.8,12.8,0,0,0-9.532,1.561.7.7,0,0,1-.369.1" transform="translate(55.045 58.156)" fill="#bf945d"/>
            <path id="Trazado_601399" data-name="Trazado 601399" d="M60.232,52.778a.888.888,0,0,1-.13-.011A14.137,14.137,0,0,1,54.525,50.4c-.237-.17-.475-.35-.714-.529a6.06,6.06,0,0,0-2.844-1.489c-1.962-.192-3.545,1.763-4.723,3.489a.707.707,0,0,1-1.168-.8c1.4-2.05,3.341-4.368,6.03-4.1a7.159,7.159,0,0,1,3.558,1.768c.228.172.452.343.682.505a12.721,12.721,0,0,0,5.015,2.132.706.706,0,0,1-.128,1.4" transform="translate(27.16 28.366)" fill="#a0a2ad"/>
            <path id="Trazado_601400" data-name="Trazado 601400" d="M56.334,53.182a.707.707,0,0,1-.082-1.408,9.924,9.924,0,0,0,4.636-1.8c.423-.3.842-.646,1.264-.991,1.522-1.248,3.253-2.665,5.384-2.363a7.117,7.117,0,0,1,2.74,1.2c1.991,1.237,2.207,1.6,2.913,3.12.138.3.3.653.513,1.081a.706.706,0,1,1-1.264.627c-.22-.441-.388-.805-.531-1.115-.613-1.319-.677-1.457-2.377-2.515a5.98,5.98,0,0,0-2.19-.993c-1.514-.207-2.867.887-4.293,2.055-.444.364-.887.725-1.333,1.046a11.35,11.35,0,0,1-5.3,2.06.75.75,0,0,1-.083,0" transform="translate(33.609 28.139)" fill="#a0a2ad"/>
            <path id="Trazado_601401" data-name="Trazado 601401" d="M56.311,58.839a.707.707,0,0,1-.7-.653l-.441-5.846a.7.7,0,0,1,.651-.757.711.711,0,0,1,.757.65l.443,5.846a.708.708,0,0,1-.651.759l-.055,0" transform="translate(33.328 31.164)" fill="#a0a2ad"/>
            <path id="Trazado_601402" data-name="Trazado 601402" d="M20.54,123.6a.7.7,0,0,1-.233-.04,17.97,17.97,0,0,0-11.523-.072.707.707,0,0,1-.448-1.341,19.392,19.392,0,0,1,12.436.08.706.706,0,0,1-.233,1.373" transform="translate(4.745 73.204)" fill="#bf945d"/>
            <path id="Trazado_601403" data-name="Trazado 601403" d="M88.371,127.792a.707.707,0,0,1-.626-.375,12.759,12.759,0,0,0-7.6-6.171.707.707,0,1,1,.39-1.359A14.018,14.018,0,0,1,89,126.754a.707.707,0,0,1-.294.956.7.7,0,0,1-.33.082" transform="translate(48.112 72.415)" fill="#bf945d"/>
            <path id="Trazado_601404" data-name="Trazado 601404" d="M52.157,128.138c-8.9,0-19.041-1.108-27.736-6.054a.706.706,0,1,1,.7-1.227c10.414,5.923,23.094,6.17,32.977,5.722,2.77-.124,5.544-.311,8.319-.5,8.569-.578,17.429-1.174,26.074.125a.707.707,0,0,1-.21,1.4c-8.494-1.279-17.275-.685-25.769-.114-2.785.188-5.57.375-8.35.5-1.909.087-3.922.148-6,.148" transform="translate(14.538 72.962)" fill="#bf945d"/>
            <path id="Trazado_601405" data-name="Trazado 601405" d="M43.668,50.948a.707.707,0,0,1-.691-.565,62.753,62.753,0,0,0-2.886-9.9.706.706,0,1,1,1.319-.505A64.148,64.148,0,0,1,44.361,50.1a.708.708,0,0,1-.55.834.73.73,0,0,1-.143.014" transform="translate(24.193 23.878)" fill="#bf945d"/>
            <path id="Trazado_601406" data-name="Trazado 601406" d="M63.414,61.749a.7.7,0,0,1-.205-.03c-.93-.284-1.861-.566-2.782-.879A46.087,46.087,0,0,1,44.408,51.4a.706.706,0,0,1,.95-1.046A44.665,44.665,0,0,0,60.881,59.5c.906.308,1.822.587,2.738.865a.707.707,0,0,1-.205,1.383" transform="translate(26.69 30.313)" fill="#bf945d"/>
            <path id="Trazado_601407" data-name="Trazado 601407" d="M56.646,61.507c-.1,0-.207,0-.311,0a.705.705,0,0,1-.682-.73.669.669,0,0,1,.728-.682c2.4.074,4.825-.927,6.962-1.814a28.049,28.049,0,0,0,5.6-2.828,8.927,8.927,0,0,0,3.547-4.65.707.707,0,0,1,1.362.377A10.311,10.311,0,0,1,69.759,56.6a29.1,29.1,0,0,1-5.874,2.984,19.228,19.228,0,0,1-7.238,1.925" transform="translate(33.624 30.378)" fill="#bf945d"/>
            <path id="Trazado_601408" data-name="Trazado 601408" d="M42.653,55.265A.707.707,0,0,1,42,54.821a71.672,71.672,0,0,1-3.845-13.189.706.706,0,0,1,1.388-.263A70.322,70.322,0,0,0,43.309,54.3a.706.706,0,0,1-.656.969" transform="translate(23.043 24.647)" fill="#bf945d"/>
            <path id="Trazado_601409" data-name="Trazado 601409" d="M63.144,64.451a11.212,11.212,0,0,1-4.182-.813,21.449,21.449,0,0,1-3.654-2.063L42.723,53.331a.706.706,0,1,1,.773-1.182l12.586,8.244a20.268,20.268,0,0,0,3.41,1.936,9.736,9.736,0,0,0,3.823.707c3.192-.058,7.49-2,10.628-3.412l.533-.239a28.008,28.008,0,0,0,5.215-2.812,9.074,9.074,0,0,0,3.374-4.405.707.707,0,1,1,1.351.417,10.486,10.486,0,0,1-3.882,5.122,29.059,29.059,0,0,1-5.478,2.966l-.531.239c-3.25,1.466-7.7,3.473-11.183,3.537-.066,0-.132,0-.2,0" transform="translate(25.618 31.217)" fill="#bf945d"/>
            <path id="Trazado_601410" data-name="Trazado 601410" d="M61.117,231.456a.709.709,0,0,1-.63-.385c-2.257-4.421-4.253-8.457-6.166-12.331-4.227-8.553-8.22-16.63-13.823-26.288a.707.707,0,0,1,1.222-.709c5.627,9.7,9.63,17.8,13.868,26.369,1.912,3.871,3.9,7.9,6.158,12.315a.709.709,0,0,1-.308.951.7.7,0,0,1-.321.077" transform="translate(24.409 115.633)" fill="#6f6b74"/>
            <path id="Trazado_601411" data-name="Trazado 601411" d="M40.537,212.6a.675.675,0,0,1-.194-.027.705.705,0,0,1-.486-.873c4.76-16.752,6.2-42.584,5.141-58.385a.707.707,0,1,1,1.41-.1c1.068,15.921-.39,41.962-5.193,58.868a.705.705,0,0,1-.679.513" transform="translate(24.064 92.172)" fill="#6f6b74"/>
            <path id="Trazado_601412" data-name="Trazado 601412" d="M49.3,154.806a28.813,28.813,0,0,1-10.87-2.142l-.926-.388c-2.294-.975-4.668-1.983-6.741-1.137a.706.706,0,1,1-.534-1.307c2.62-1.068,5.385.106,7.828,1.144l.908.382A27.445,27.445,0,0,0,49.8,153.387a.657.657,0,0,1,.72.693.706.706,0,0,1-.691.72c-.176,0-.355,0-.531,0" transform="translate(17.999 90.268)" fill="#6f6b74"/>
            <path id="Trazado_601413" data-name="Trazado 601413" d="M66.038,153.611a.706.706,0,0,1-.415-1.277l5.591-4.067a.706.706,0,1,1,.829,1.142l-5.591,4.067a.7.7,0,0,1-.414.135" transform="translate(39.471 89.496)" fill="#6f6b74"/>
            <path id="Trazado_601414" data-name="Trazado 601414" d="M52.184,250.814a.705.705,0,0,1-.529-.237c-3.646-4.12-7.167-9.667-10.571-15.033-2.045-3.223-3.978-6.267-5.868-8.9a.707.707,0,1,1,1.149-.825c1.914,2.668,3.856,5.728,5.913,8.969,3.375,5.319,6.864,10.819,10.437,14.853a.706.706,0,0,1-.061,1,.7.7,0,0,1-.468.178" transform="translate(21.196 136.254)" fill="#6f6b74"/>
            <path id="Trazado_601415" data-name="Trazado 601415" d="M74.6,284.219a.707.707,0,0,1-.691-.565,7.426,7.426,0,0,1,2.775-7.309.706.706,0,1,1,.847,1.131,6.069,6.069,0,0,0-2.238,5.894.707.707,0,0,1-.55.834.734.734,0,0,1-.143.014" transform="translate(44.566 166.874)" fill="#673c1b"/>
            <path id="Trazado_601416" data-name="Trazado 601416" d="M74.122,281.229a.708.708,0,0,1-.682-.523,9.2,9.2,0,0,1-.454-3.664,3.618,3.618,0,0,1,2.559-3.112.707.707,0,0,1,.314,1.378,2.239,2.239,0,0,0-1.473,1.931,7.99,7.99,0,0,0,.419,3.1.707.707,0,0,1-.683.889" transform="translate(44.065 165.489)" fill="#673c1b"/>
            <path id="Trazado_601417" data-name="Trazado 601417" d="M73.893,278.836a.708.708,0,0,1-.707-.7,1.728,1.728,0,0,0-.043-.385c-.359.055-.725.116-1.035.168a14.019,14.019,0,0,1-1.991.252,4.041,4.041,0,0,1-2.989-1.1,2.519,2.519,0,0,1-.621-2.026,1.926,1.926,0,0,1,.91-1.421,3.087,3.087,0,0,1,2.631.051,9.256,9.256,0,0,1,3.523,2.047,4.482,4.482,0,0,1,5.106-5.124.706.706,0,1,1-.21,1.4,3.086,3.086,0,0,0-3.125,4.606.706.706,0,0,1-.754,1.048l-.029,0a3.145,3.145,0,0,1,.04.483.706.706,0,0,1-.7.714Zm-5.384-4.087a.714.714,0,0,0-.369.087.547.547,0,0,0-.234.407,1.105,1.105,0,0,0,.258.865,2.722,2.722,0,0,0,1.983.651,13.583,13.583,0,0,0,1.724-.233l.428-.072A8.634,8.634,0,0,0,69.566,275a3.408,3.408,0,0,0-1.057-.253" transform="translate(40.167 163.456)" fill="#673c1b"/>
            <path id="Trazado_601418" data-name="Trazado 601418" d="M70.648,281.4a1.392,1.392,0,0,1-.164-.008,1.84,1.84,0,0,1-1.381-.829,3.5,3.5,0,0,1-.308-2.815,7.127,7.127,0,0,1,2.966-3.892.707.707,0,0,1,.754,1.2c-.022.014-.045.029-.067.045a.638.638,0,0,1,.167.048.7.7,0,0,1,.375.926,3.782,3.782,0,0,0-.132,1.628c.018.335.034.672.019,1a3.184,3.184,0,0,1-.98,2.209,1.868,1.868,0,0,1-1.25.489m.942-5.611a5.684,5.684,0,0,0-1.444,2.371,2.105,2.105,0,0,0,.128,1.612.414.414,0,0,0,.332.213.456.456,0,0,0,.359-.136,1.816,1.816,0,0,0,.5-1.21c.013-.286,0-.578-.019-.868a5.548,5.548,0,0,1,.143-1.983" transform="translate(41.468 165.389)" fill="#673c1b"/>
            <path id="Trazado_601419" data-name="Trazado 601419" d="M75.009,293.913h-.014a.705.705,0,0,1-.691-.722c.055-2.535,2.122-4.715,5.842-6.171a79.857,79.857,0,0,0-1.535-11.661c-.825-3.7-2.166-5.807-4.1-6.431a.706.706,0,1,1,.433-1.344c2.454.789,4.107,3.234,5.048,7.469a82.218,82.218,0,0,1,1.6,12.4.7.7,0,0,1-.465.706c-1.994.72-5.348,2.332-5.408,5.06a.706.706,0,0,1-.706.691" transform="translate(44.719 161.646)" fill="#673c1b"/>
            <path id="Trazado_601420" data-name="Trazado 601420" d="M78.567,310.8a.707.707,0,0,1-.5-1.208c4.2-4.16,4.606-10.806,4.66-17.259a101.727,101.727,0,0,0-1.049-13.846,102.337,102.337,0,0,1-1.062-14.032.707.707,0,0,1,.706-.7h.006a.707.707,0,0,1,.7.712,101.709,101.709,0,0,0,1.049,13.846,102.606,102.606,0,0,1,1.062,14.032c-.056,6.749-.5,13.716-5.079,18.252a.711.711,0,0,1-.5.2" transform="translate(47.041 159.351)" fill="#673c1b"/>
            <path id="Trazado_601421" data-name="Trazado 601421" d="M37.288,292.458a.707.707,0,0,1-.653-.979,10.4,10.4,0,0,1,4.718-5.151,33.636,33.636,0,0,0-7.15-10.774.706.706,0,0,1,1-.995,35.05,35.05,0,0,1,7.706,11.86.7.7,0,0,1-.372.9,8.954,8.954,0,0,0-4.6,4.7.705.705,0,0,1-.651.435" transform="translate(20.541 165.754)" fill="#673c1b"/>
            <path id="Trazado_601422" data-name="Trazado 601422" d="M40.544,284.2a.707.707,0,0,1-.68-.517,39.2,39.2,0,0,1-1.41-8.972.706.706,0,1,1,1.41-.058,37.893,37.893,0,0,0,1.36,8.65.7.7,0,0,1-.68.9" transform="translate(23.232 165.526)" fill="#673c1b"/>
            <path id="Trazado_601423" data-name="Trazado 601423" d="M45.344,287.337a.7.7,0,0,1-.592-.321,11.654,11.654,0,0,0-3.682-3.563.707.707,0,0,1,.735-1.208,13.07,13.07,0,0,1,4.129,4,.7.7,0,0,1-.205.977.693.693,0,0,1-.385.116" transform="translate(24.609 170.462)" fill="#673c1b"/>
            <path id="Trazado_601424" data-name="Trazado 601424" d="M36.86,283.862a.707.707,0,0,1-.7-.614,3.544,3.544,0,0,1-.022-.714c-.011-.225-.027-.483-.043-.767-.207-3.362-.253-5.785,1-6.32a4.107,4.107,0,0,1,4.306.725.706.706,0,0,1-.95,1.046,2.709,2.709,0,0,0-2.8-.472c-.271.3-.281,1.827-.236,3.16a3.549,3.549,0,0,1,.85-.581,3.908,3.908,0,0,1,4.389.752.706.706,0,1,1-1.007.99,2.391,2.391,0,0,0-4.092,1.5c.01.249.016.457.013.61a.709.709,0,0,1-.669.688H36.86" transform="translate(21.74 166.226)" fill="#673c1b"/>
            <path id="Trazado_601425" data-name="Trazado 601425" d="M43.711,284.391a.709.709,0,0,1-.606-.342,4.37,4.37,0,0,0-1.975-2.029,1.535,1.535,0,0,0-1.279.154.772.772,0,0,0-.388.56.7.7,0,0,1-.767.638.707.707,0,0,1-.64-.767,2.147,2.147,0,0,1,1.035-1.622,2.941,2.941,0,0,1,2.517-.294,5.641,5.641,0,0,1,2.708,2.631.706.706,0,0,1-.6,1.07" transform="translate(22.991 169.488)" fill="#673c1b"/>
            <path id="Trazado_601426" data-name="Trazado 601426" d="M41.485,296.066a7.2,7.2,0,0,1-5.2-1.874c-2.233-2.214-2.944-3.1-2.48-6.407a6.763,6.763,0,0,0-2.674-.319.707.707,0,1,1-.117-1.408,8.314,8.314,0,0,1,3.712.549,1.159,1.159,0,0,1,.874,1.121.849.849,0,0,1-.457.725c-.261,2.271.215,2.831,2.137,4.737,2.129,2.109,5.77,1.426,7.24,1.036.858-.229,1.707-.518,2.554-.8a20.21,20.21,0,0,1,5.7-1.327.706.706,0,1,1,.053,1.412,18.891,18.891,0,0,0-5.3,1.253c-.876.3-1.753.594-2.642.831a13.274,13.274,0,0,1-3.4.475" transform="translate(18.345 172.811)" fill="#673c1b"/>
            <path id="Trazado_601427" data-name="Trazado 601427" d="M41.355,34.058S45.2,33.4,45.2,30.364a32.781,32.781,0,0,0-1.118-7.086s2.238-5.06,3.356-7.084c0,0,20.131,4.049,31.315,0l5.592,5.06s1.118,6.073,1.118,7.086,2.278,4.9,2.278,4.9,4.432-9.959,2.195-18.055S79.871,0,66.45,0s-32.887,4.014-25.1,34.058" transform="translate(23.908)" fill="#653f35"/>
            <path id="Trazado_601428" data-name="Trazado 601428" d="M50.137,16.779c-2.7.4-3.372,1.224-3.568,1.5a2.969,2.969,0,0,0-.494,2.077,23.786,23.786,0,0,1,5.971-1.173,24.208,24.208,0,0,1,4.243.1c.8-.837.8-1.327.706-1.6-.462-1.336-4.561-1.242-6.858-.9" transform="translate(27.824 10.004)" fill="#443139"/>
            <path id="Trazado_601429" data-name="Trazado 601429" d="M64.867,16.779c2.7.4,3.372,1.224,3.568,1.5a2.979,2.979,0,0,1,.5,2.077,23.816,23.816,0,0,0-5.972-1.173,24.208,24.208,0,0,0-4.243.1c-.8-.837-.8-1.327-.706-1.6.462-1.336,4.561-1.242,6.858-.9" transform="translate(35.023 10.004)" fill="#443139"/>
            <path id="Trazado_601430" data-name="Trazado 601430" d="M59.638,45.534a11.051,11.051,0,0,1-3.844-.606,16.084,16.084,0,0,1-4.171-2.594l-3.183-2.472a.707.707,0,1,1,.866-1.117l3.183,2.474A14.812,14.812,0,0,0,56.283,43.6c2.082.767,4.495.515,6.624.294a5.361,5.361,0,0,0,1.6-.33,5.3,5.3,0,0,0,1.287-.954l5.6-5.044a.706.706,0,1,1,.946,1.048L66.745,43.66A5.085,5.085,0,0,1,63.052,45.3a32.686,32.686,0,0,1-3.414.234" transform="translate(29.101 22.586)" fill="#a1675d"/>
            <path id="Trazado_601431" data-name="Trazado 601431" d="M56.714,33a9.266,9.266,0,0,1-2.047-.228,1.6,1.6,0,0,1-.874-.444,1.466,1.466,0,0,1-.338-.988,14.142,14.142,0,0,1,.351-4.75,14.886,14.886,0,0,1,1.064-2.437c.239-.472.481-.942.685-1.426l0-.008a.707.707,0,0,1,1.291-.539,1.2,1.2,0,0,1,.006,1.094c-.217.517-.473,1.019-.73,1.521a13.6,13.6,0,0,0-.969,2.2,13.193,13.193,0,0,0-.294,4.286c0,.019,0,.056,0,.09a.9.9,0,0,1,.106.021,8,8,0,0,0,2.594.148.706.706,0,0,1,.151,1.4A9.144,9.144,0,0,1,56.714,33M55.636,22.9h0" transform="translate(32.269 13.19)" fill="#a1675d"/>
            <path id="Trazado_601432" data-name="Trazado 601432" d="M51.987,22.975a1.791,1.791,0,1,1-3.534,0,1.791,1.791,0,1,1,3.534,0" transform="translate(29.274 12.624)" fill="#443139"/>
            <path id="Trazado_601433" data-name="Trazado 601433" d="M63.993,22.975a1.791,1.791,0,1,1-3.534,0,1.791,1.791,0,1,1,3.534,0" transform="translate(36.527 12.624)" fill="#443139"/>
            <path id="Trazado_601434" data-name="Trazado 601434" d="M50.979,31.061a50.422,50.422,0,0,0,7.958.618,50.53,50.53,0,0,0,7.8-.618,6.1,6.1,0,0,1-1.365,2.331c-1.1,1.169-3.056,2.357-6.447,2.434-6.792.154-7.945-4.764-7.945-4.764" transform="translate(30.8 18.766)" fill="#fff"/>
            <path id="Trazado_601435" data-name="Trazado 601435" d="M43.08,22.55s-.553-5.382-3.181-4.379-.714,12.083,3.03,12.36Z" transform="translate(23.371 10.903)" fill="#c27d6d"/>
            <path id="Trazado_601436" data-name="Trazado 601436" d="M70.348,22.55s.553-5.382,3.181-4.379S72.745,32.4,67.982,31.648Z" transform="translate(41.073 10.903)" fill="#c27d6d"/>
            <path id="Trazado_601437" data-name="Trazado 601437" d="M10.965,135.868c-.119,1.543,8.664,18.567,12.378,21.972,0,0,.618-15.164,4.022-17.949,0,0,6.81,2.475,8.977.31s-9.9-6.808-11.451-8.047a18.691,18.691,0,0,0-4.031-2.214s-9.275-2.119-9.895,5.927" transform="translate(6.624 78.354)" fill="#c27d6d"/>
            <path id="Trazado_601438" data-name="Trazado 601438" d="M87.527,134.9c.119,1.543-8.664,18.567-12.378,21.972,0,0-.619-15.164-4.023-17.949,0,0-6.808,2.475-8.974.31s9.9-6.808,11.449-8.046a18.7,18.7,0,0,1,4.03-2.214s9.277-2.119,9.9,5.927" transform="translate(37.393 77.771)" fill="#c27d6d"/>
          </g>
        </g>
      </g>
      <g id="Grupo_1017618" data-name="Grupo 1017618" transform="translate(105 18)">
        <path id="Sustracción_7-2" data-name="Sustracción 7" d="M162.083,65.867H0V8.024H20.752L24.845,0H190V53.891H166.071l-3.988,11.976Z" transform="translate(285 602.592)" fill="#2b7e3b"/>
        <path id="Trazado_836438" data-name="Trazado 836438" d="M12.976,16V3.914h3.719a5.647,5.647,0,0,1,2.851.718,5.007,5.007,0,0,1,1.963,2.042,6.3,6.3,0,0,1,.706,3.009v.556a6.316,6.316,0,0,1-.693,3,4.964,4.964,0,0,1-1.955,2.034A5.69,5.69,0,0,1,16.72,16Zm2.49-10.069V14h1.2a2.7,2.7,0,0,0,2.233-.955,4.314,4.314,0,0,0,.789-2.731V9.675a4.382,4.382,0,0,0-.764-2.793,2.7,2.7,0,0,0-2.233-.95ZM28,16.166a4.409,4.409,0,0,1-3.217-1.212,4.308,4.308,0,0,1-1.241-3.229v-.232a5.426,5.426,0,0,1,.523-2.42,3.838,3.838,0,0,1,1.482-1.644,4.159,4.159,0,0,1,2.187-.577,3.727,3.727,0,0,1,2.9,1.162,4.722,4.722,0,0,1,1.058,3.3v.979H25.975a2.229,2.229,0,0,0,.7,1.411,2.12,2.12,0,0,0,1.482.531,2.589,2.589,0,0,0,2.167-1l1.179,1.32a3.6,3.6,0,0,1-1.461,1.191A4.793,4.793,0,0,1,28,16.166Zm-.274-7.379a1.5,1.5,0,0,0-1.158.484A2.5,2.5,0,0,0,26,10.654h3.337v-.192a1.786,1.786,0,0,0-.432-1.238A1.547,1.547,0,0,0,27.726,8.787ZM37.92,13.518a.773.773,0,0,0-.436-.693,4.95,4.95,0,0,0-1.4-.452q-3.2-.672-3.2-2.723a2.468,2.468,0,0,1,.992-2,4,4,0,0,1,2.594-.8,4.307,4.307,0,0,1,2.735.805A2.538,2.538,0,0,1,40.227,9.75h-2.4A1.161,1.161,0,0,0,37.5,8.9a1.405,1.405,0,0,0-1.038-.336,1.436,1.436,0,0,0-.938.274.865.865,0,0,0-.332.7.739.739,0,0,0,.378.643,3.885,3.885,0,0,0,1.274.423,10.407,10.407,0,0,1,1.511.4,2.482,2.482,0,0,1,1.9,2.416A2.343,2.343,0,0,1,39.2,15.406a4.548,4.548,0,0,1-2.723.76,4.75,4.75,0,0,1-2-.4,3.363,3.363,0,0,1-1.374-1.1,2.565,2.565,0,0,1-.5-1.515h2.274a1.252,1.252,0,0,0,.473.979,1.877,1.877,0,0,0,1.179.34,1.737,1.737,0,0,0,1.042-.261A.814.814,0,0,0,37.92,13.518ZM47,16a2.664,2.664,0,0,1-.241-.805,2.9,2.9,0,0,1-2.266.971,3.189,3.189,0,0,1-2.187-.764,2.456,2.456,0,0,1-.867-1.926A2.538,2.538,0,0,1,42.5,11.285a5.222,5.222,0,0,1,3.059-.772h1.1V10a1.48,1.48,0,0,0-.32-1,1.257,1.257,0,0,0-1.009-.374,1.429,1.429,0,0,0-.95.291.987.987,0,0,0-.344.8h-2.4a2.41,2.41,0,0,1,.481-1.444A3.182,3.182,0,0,1,43.481,7.23a4.961,4.961,0,0,1,1.976-.378,3.92,3.92,0,0,1,2.635.834,2.918,2.918,0,0,1,.975,2.345v3.893a4.294,4.294,0,0,0,.357,1.934V16Zm-1.984-1.668A2.066,2.066,0,0,0,46,14.095a1.554,1.554,0,0,0,.664-.635V11.916h-.9q-1.8,0-1.917,1.245l-.008.141a.96.96,0,0,0,.315.739A1.225,1.225,0,0,0,45.017,14.332Zm10.94-5.063a6.517,6.517,0,0,0-.863-.066,1.757,1.757,0,0,0-1.785.921V16h-2.4V7.019h2.266l.066,1.071a2.223,2.223,0,0,1,2-1.237,2.514,2.514,0,0,1,.747.108Zm6.2,0a6.517,6.517,0,0,0-.863-.066,1.757,1.757,0,0,0-1.785.921V16h-2.4V7.019h2.266l.066,1.071a2.223,2.223,0,0,1,2-1.237,2.514,2.514,0,0,1,.747.108Zm.481,2.158a5.327,5.327,0,0,1,.515-2.382,3.767,3.767,0,0,1,1.482-1.619,4.323,4.323,0,0,1,2.245-.573,4.09,4.09,0,0,1,2.968,1.112,4.464,4.464,0,0,1,1.282,3.021l.017.614a4.694,4.694,0,0,1-1.154,3.316,4.472,4.472,0,0,1-6.2,0,4.777,4.777,0,0,1-1.158-3.387Zm2.4.17a3.357,3.357,0,0,0,.481,1.958,1.73,1.73,0,0,0,2.739.008,3.674,3.674,0,0,0,.49-2.141,3.324,3.324,0,0,0-.49-1.945,1.592,1.592,0,0,0-1.378-.69,1.566,1.566,0,0,0-1.361.686A3.736,3.736,0,0,0,65.038,11.6ZM75.157,16H72.75V3.25h2.407Zm4.507,0H77.257V3.25h2.407Zm7.18,0a2.664,2.664,0,0,1-.241-.805,2.9,2.9,0,0,1-2.266.971A3.189,3.189,0,0,1,82.15,15.4a2.456,2.456,0,0,1-.867-1.926,2.538,2.538,0,0,1,1.058-2.191,5.222,5.222,0,0,1,3.059-.772h1.1V10a1.48,1.48,0,0,0-.32-1,1.257,1.257,0,0,0-1.009-.374,1.429,1.429,0,0,0-.95.291.987.987,0,0,0-.344.8h-2.4a2.41,2.41,0,0,1,.481-1.444A3.182,3.182,0,0,1,83.325,7.23,4.961,4.961,0,0,1,85.3,6.853a3.92,3.92,0,0,1,2.635.834,2.918,2.918,0,0,1,.975,2.345v3.893a4.294,4.294,0,0,0,.357,1.934V16Zm-1.984-1.668a2.066,2.066,0,0,0,.979-.237,1.554,1.554,0,0,0,.664-.635V11.916h-.9q-1.8,0-1.917,1.245l-.008.141a.96.96,0,0,0,.315.739A1.225,1.225,0,0,0,84.861,14.332ZM95.8,9.268a6.517,6.517,0,0,0-.863-.066,1.757,1.757,0,0,0-1.785.921V16h-2.4V7.019H93.02l.066,1.071a2.223,2.223,0,0,1,2-1.237,2.514,2.514,0,0,1,.747.108Z" transform="translate(326 625.526)" fill="#fff"/>
        <path id="Trazado_214008-2" data-name="Trazado 214008" d="M2.649,1.311H59v10H-4Z" transform="translate(415.999 658.149)" fill="#7f8a9c"/>
      </g>
      <g id="Enmascarar_grupo_744823" data-name="Enmascarar grupo 744823" transform="translate(0 -20)" clip-path="url(#clip-path-5)">
        <g id="Grupo_886083" data-name="Grupo 886083" transform="translate(210.214 764.26)">
          <g id="Grupo_886082" data-name="Grupo 886082" clip-path="url(#clip-path-6)">
            <path id="Trazado_601335" data-name="Trazado 601335" d="M52.9,3.66C50.392-.323,40.961.1,31.533,16.985a35.787,35.787,0,0,0-3.95,9.925c-2.054,9.707,2.884,19.558,2.66,29.477-.31,13.871-10.615,26.327-9.738,40.175a74.822,74.822,0,0,0,13.358,2.575,6.764,6.764,0,0,0,3.711-.36,6.464,6.464,0,0,0,2.534-2.92c3.1-5.764,4.621-12.22,6.112-18.592,1.794-7.674,3.6-15.632,2.057-23.36-.855-4.286-2.71-8.321-3.578-12.6C42.536,30.616,49.44,20.31,53.508,10.195A7.209,7.209,0,0,0,52.9,3.66" transform="translate(13.618 1.055)" fill="#4f241f"/>
            <path id="Trazado_601336" data-name="Trazado 601336" d="M75.062,142.779c.441,1.766,25.154,82.97,26.48,90.473.788,4.474-3.72,41.636-7.488,70.906-.765,5.945-.2,10.994-.86,15.949-.616,4.669-2.454,9.319-2.882,12.52-.635,4.719-1.018,7.535-1.018,7.535l-20.568.165a54.291,54.291,0,0,1-2.905-14.16c-.243-3.28,1.043-9.354.781-13.1-.743-10.66-1.2-19.86-1.393-26.8-.218-7.891,3.671-38.009,3.671-38.009s-30.451-56.49-31.774-64.432,6.618-38.837,6.618-38.837Z" transform="translate(24.608 95.066)" fill="#2b7f9d"/>
            <path id="Trazado_601337" data-name="Trazado 601337" d="M26.306,343.661l17.378.381a47.168,47.168,0,0,0,3.292-15.984c.168-3.483-2.957-7.608-2.82-11.752.088-2.73,2.209-8.383,2.35-11.283,1.259-25.782,2.412-53.776,4.411-58.775,3.532-8.827,6.282-62.417,6.282-62.417l6.62-38.837s-55.607-5.3-56.931.441,10.152,77.674,10.591,83.853S12.625,259.74,14.832,272.1c1.158,6.482,4.256,25.85,6.943,42.807.373,2.349.736,4.651,1.086,6.867.42,2.655-.935,5.834-.566,8.168a50.161,50.161,0,0,0,4.011,13.723" transform="translate(4.515 95.057)" fill="#2b7f9d"/>
            <path id="Trazado_601338" data-name="Trazado 601338" d="M31.592,49.217S51.787,99.5,61.668,100.732s26.765,3.706,26.765-3.7-28.71-45.292-28.71-45.292l1.123-11.942L40.379,35.725Z" transform="translate(21.035 23.787)" fill="#fabeab"/>
            <path id="Trazado_601339" data-name="Trazado 601339" d="M75.648,34.951c0,16.955-16.387,30.724-24.3,29.748-12.039-1.488-20.013-7.46-20.013-24.416S32.4,7.71,44.532,7.71,75.648,18,75.648,34.951" transform="translate(20.862 5.134)" fill="#fabeab"/>
            <path id="Trazado_601340" data-name="Trazado 601340" d="M35.724,23.485a1.834,1.834,0,0,1-1.834-1.834c0-1.013.821-1.031,1.834-1.031s1.834.018,1.834,1.031a1.834,1.834,0,0,1-1.834,1.834" transform="translate(22.565 13.729)" fill="#3d251e"/>
            <path id="Trazado_601341" data-name="Trazado 601341" d="M52.188,60.546c5.082,4.811,15.156,4.213,34.5,3.876,10.007-.173,15.74,104.179-1.348,134.89,2.244,4.509-50.4,16.667-61.965,3.733-5.884-6.582,28.809-142.5,28.809-142.5" transform="translate(15.119 40.313)" fill="#faa53d"/>
            <path id="Trazado_601342" data-name="Trazado 601342" d="M52.627,43.824C34.992,45.083,33.78,49.213,27.118,54.988,16.885,63.859,13.758,86.876,16,113.046c1.2,14,10.515,29.55,9.882,32.117-4.016,16.283-14.1,31.266-19.02,41.834C-7.531,217.908,5.187,288.772,5.187,288.772s41.431,6.635,66.791,1.374c8.709-1.807,11.414-17.753,11.682-26.643.428-14.183,10.3-136.168,4.8-167.788-.608-3.487-11.791-23.583-18.759-33.378-10.075-14.163-17.08-18.512-17.08-18.512" transform="translate(0 29.179)" fill="#98939c"/>
            <path id="Trazado_601343" data-name="Trazado 601343" d="M48.5,45.347C47.272,44.122,72.008,84.814,73.687,95.73s1.681,51.642-.42,63.4-9.077,35.592-8.4,47.864c.841,15.169,13.863,84.216,24.341,75.134,10.7-9.274-18.549-58.859-10.486-102.423,1.891-10.213,15.535-65.5,11.336-84.392S85.333,67.276,77.777,58.878,50.176,47.026,48.5,45.347" transform="translate(32.261 30.175)" fill="#98939c"/>
            <path id="Trazado_601344" data-name="Trazado 601344" d="M62.01,148.674l-29.11,10.5s9.067,28.634,10.5,28.634,59.177-19.567,59.177-19.567-1.909-31.021-3.34-30.543S62.01,148.674,62.01,148.674" transform="translate(21.906 91.679)" fill="#f4866a"/>
            <path id="Trazado_601345" data-name="Trazado 601345" d="M14.9,100.189l-1.453-.2a27.78,27.78,0,0,1,5.684-13.3l1.153.908A26.321,26.321,0,0,0,14.9,100.189" transform="translate(8.952 57.718)" fill="#7b7c7f"/>
            <path id="Trazado_601346" data-name="Trazado 601346" d="M29.092,120.852A29.642,29.642,0,0,1,16.837,117.6l.668-1.308c4.539,2.322,11.319,4.073,15.482,2.44,4.021-1.581,6.184-6.753,7.919-10.911l.155-.37c1.306-3.115,1.454-6.627,1.5-10.251a33.289,33.289,0,0,0-.885-9.717l1.409-.41a34.523,34.523,0,0,1,.943,10.145c-.048,3.775-.207,7.443-1.613,10.8l-.155.37c-1.844,4.413-4.138,9.9-8.737,11.709a12.139,12.139,0,0,1-4.431.751" transform="translate(11.21 57.978)" fill="#7b7c7f"/>
            <path id="Trazado_601347" data-name="Trazado 601347" d="M7.556,242.154c-3.248-23.052-6.33-49.787-1.742-75.34a76.728,76.728,0,0,1,6.12-19.75l19.085-40.8,1.329.621-19.087,40.8a75.418,75.418,0,0,0-6,19.387c-4.548,25.341-1.481,51.937,1.751,74.877Z" transform="translate(2.324 70.756)" fill="#7b7c7f"/>
            <path id="Trazado_601348" data-name="Trazado 601348" d="M37.323,100.483a4.851,4.851,0,0,1-2.657-1.341,5.159,5.159,0,0,0-1.854-1.119L31.486,97.8l.9-1A30.609,30.609,0,0,0,37.906,88.2l1.351.575A32.13,32.13,0,0,1,34.175,97a11.458,11.458,0,0,1,1.4.988c.948.745,1.594,1.211,1.972.945l.85,1.2a1.827,1.827,0,0,1-1.071.353" transform="translate(20.964 58.725)" fill="#7b7c7f"/>
            <path id="Trazado_601349" data-name="Trazado 601349" d="M47.255.515C51.874-1.494,67.9,2.839,71.561,5.537c6.159,4.546,7.188,11.248,7.724,18.884a257.811,257.811,0,0,1,.233,32.349A34.928,34.928,0,0,1,77.931,66.7c-.783,2.177-1.971,4.213-2.5,6.463a21.639,21.639,0,0,0-.012,7.626c1.341,10.7,8.006,23.581,13.24,33,5.859,10.545-4.684,11.394-5.282,10.884S55.2,91.592,55.019,74.261c-.045-4.366,2.1-8.457,5.077-11.652s12.072-20.485,7.871-21.669C58.5,38.271,55.761,25.957,55.089,22.6c-1.406-7.031-9.807-8.877-17.949-9.175,0,0-5.2-6.254,10.115-12.912" transform="translate(24.162 0)" fill="#602f2a"/>
            <path id="Trazado_601350" data-name="Trazado 601350" d="M56.118,26.3s3.592-7.088,5.2-3.07-1.406,11.851-7.231,12.654Z" transform="translate(36.012 14.643)" fill="#fabeab"/>
            <path id="Trazado_601351" data-name="Trazado 601351" d="M26.3,131.027l-1.463-.113a177.318,177.318,0,0,1,3.63-24.5l1.433.317a175.68,175.68,0,0,0-3.6,24.294" transform="translate(16.539 70.854)" fill="#7b7c7f"/>
            <path id="Trazado_601352" data-name="Trazado 601352" d="M18.5,263.364v41.761s3.582,1.338,4.584,2.34,6.683.331,11.361.666,11.431,0,11.431,0,.866-7.989-3.39-18.192c-3.465-8.3-6.608-18.073-6.608-26.193Z" transform="translate(12.319 175.354)" fill="#ca8c46"/>
            <path id="Trazado_601353" data-name="Trazado 601353" d="M20.947,263.364l13.338.381c0,8.121,3.142,17.889,6.607,26.193,0,0-1.233,5.254-11.2-1.784s-8.741-24.791-8.741-24.791" transform="translate(13.915 175.354)" fill="#fabeab"/>
            <path id="Trazado_601354" data-name="Trazado 601354" d="M57.874,261.435l-1.361,12.242a15.333,15.333,0,0,0-2.435,4.439c-2.312,7.335,1,30.743,1,30.743h6.683L60.093,291.15s7.016,17.709,12.7,17.709h31.746s1-5.347-5.012-6.683a22.34,22.34,0,0,1-13.115-9.029c-4.374-5.985-7.966-15.8-7.966-31.879Z" transform="translate(35.461 173.959)" fill="#ca8c46"/>
            <path id="Trazado_601355" data-name="Trazado 601355" d="M84.564,293.146c-4.376-5.985-7.966-15.8-7.966-31.879l-20.568.167S64.594,287.46,78.1,292.6c4.523,1.724,6.468.543,6.468.543" transform="translate(37.306 173.958)" fill="#fabeab"/>
            <path id="Trazado_601356" data-name="Trazado 601356" d="M47.006,43.838A15.9,15.9,0,0,1,36.621,40.01a.733.733,0,0,1,.98-1.091c3.965,3.563,11.243,5.009,16.56,1.266a.734.734,0,0,1,.846,1.2,13.788,13.788,0,0,1-8,2.454" transform="translate(24.221 25.788)" fill="#bb807d"/>
            <path id="Trazado_601357" data-name="Trazado 601357" d="M39.579,38.979a.743.743,0,0,1-.333-.08c-1.742-.891-3.4-1.971-3.72-3.818-.275-1.571.576-2.947,1.326-4.161l.288-.47a14.962,14.962,0,0,0,1.821-10.526.734.734,0,0,1,1.439-.288,16.453,16.453,0,0,1-2,11.569l-.3.486c-.673,1.088-1.308,2.116-1.128,3.138.21,1.214,1.538,2.046,2.942,2.762a.734.734,0,0,1-.335,1.388" transform="translate(23.619 12.681)" fill="#bb807d"/>
            <path id="Trazado_601358" data-name="Trazado 601358" d="M39.541,17.975a5.782,5.782,0,0,1,3.517-2.169,7.54,7.54,0,0,1,3.826.406,11.857,11.857,0,0,1,3.167,1.721A6.82,6.82,0,0,1,52.5,20.84a.724.724,0,0,1-1.319.595l-.088-.177a6,6,0,0,0-2.039-1.891,9.966,9.966,0,0,0-2.779-1.223,5.378,5.378,0,0,0-2.732-.087,3.307,3.307,0,0,0-1.9,1.419l-.007.012a1.293,1.293,0,1,1-2.141-1.451l.047-.063" transform="translate(26.148 10.46)" fill="#bb807d"/>
            <path id="Trazado_601359" data-name="Trazado 601359" d="M32.541,18.76A4.49,4.49,0,0,1,33.728,17.3a3.5,3.5,0,0,1,1.916-.716,4.839,4.839,0,0,1,3.63,1.439l.017.017a1.186,1.186,0,0,1-1.644,1.709,1.587,1.587,0,0,1-.138-.16A2.767,2.767,0,0,0,35.672,18.5,2.073,2.073,0,0,0,33.8,19.513l-.022.03a.733.733,0,0,1-1.236-.783" transform="translate(21.607 11.039)" fill="#bb807d"/>
            <path id="Trazado_601360" data-name="Trazado 601360" d="M44.867,23.531A1.834,1.834,0,0,1,43.033,21.7c0-1.013.821-1.031,1.834-1.031S46.7,20.684,46.7,21.7a1.834,1.834,0,0,1-1.834,1.834" transform="translate(28.652 13.76)" fill="#3d251e"/>
            <path id="Trazado_601361" data-name="Trazado 601361" d="M24.452,308.374a89.388,89.388,0,0,1-2.557-13.986l-.866-6.768c-2.192-17.113-4.459-34.807-5.512-52.34a108.759,108.759,0,0,1,.2-20.21c.228-1.844.541-3.721.843-5.536.916-5.491,1.861-11.169.561-16.53l1.426-.345c1.371,5.65.4,11.479-.538,17.116-.3,1.8-.611,3.66-.836,5.474a107.451,107.451,0,0,0-.192,19.942c1.051,17.483,3.313,35.154,5.5,52.242l.866,6.77a88.154,88.154,0,0,0,2.509,13.755Z" transform="translate(10.088 128.277)" fill="#1b5c73"/>
            <path id="Trazado_601362" data-name="Trazado 601362" d="M30.13,253.536c-3.758-4.829-7.1-9.627-6.692-15.229l.04-.558.548-.108a4.278,4.278,0,0,1,4.569,2.2l-1.3.673a2.846,2.846,0,0,0-2.417-1.484c-.082,4.836,2.983,9.2,6.413,13.6Z" transform="translate(15.583 158.176)" fill="#1b5c73"/>
            <path id="Trazado_601363" data-name="Trazado 601363" d="M72.481,254.125A154.686,154.686,0,0,0,62.2,230.469l1.293-.695a156.115,156.115,0,0,1,10.383,23.881Z" transform="translate(41.411 152.989)" fill="#1b5c73"/>
            <path id="Trazado_601364" data-name="Trazado 601364" d="M62.718,217.3l-1.4-.435,1.539-4.954a3.371,3.371,0,0,0-.753-3.835c-4.295-6.422-8.487-13.03-12.462-19.643l1.258-.756c3.963,6.593,8.143,13.182,12.424,19.583a4.736,4.736,0,0,1,.935,5.086Z" transform="translate(33.052 124.959)" fill="#1b5c73"/>
            <path id="Trazado_601365" data-name="Trazado 601365" d="M39.458,33.289a13.742,13.742,0,0,0,11.418-3.538c-.373,2.7-1.494,5.436-3.71,7.015-2.465,1.759-8.654-1.5-8.362-2.52Z" transform="translate(25.829 19.809)" fill="#fff"/>
            <path id="Trazado_601366" data-name="Trazado 601366" d="M20.864,114.013c-5.727-3.818-2.7-18.477,2.545-22.3s10.46-5.321,13.8-2.457,34.854,72.277,42.967,77.526c0,0,10.523,7.015,11,9.4s5.727,31.5,5.727,31.5-3.1,2.912-6.032,1.081c-1.9-1.184-2.84,0-4.946-2.016-1.263-1.208-1.669-.378-3.338-1.929-6.682-6.2-10.5-22.907-10.5-22.907Z" transform="translate(11.83 58.439)" fill="#fabeab"/>
            <path id="Trazado_601367" data-name="Trazado 601367" d="M81.429,90.14l-9.2,76.306,2.589,4.11a11.477,11.477,0,0,1,1.749,6.76l-1.339,24.018s.955,5.727-3.818,1.433-8.113-22.43-9.545-28.157S81.429,90.14,81.429,90.14" transform="translate(41.143 60.017)" fill="#fabeab"/>
            <path id="Trazado_601368" data-name="Trazado 601368" d="M36.3,106.247a258.66,258.66,0,0,0-10.47-49.372l1.4-.443a260.246,260.246,0,0,1,10.53,49.653Z" transform="translate(17.197 37.574)" fill="#7b7c7f"/>
            <path id="Trazado_601369" data-name="Trazado 601369" d="M56.625,154.823c-3.36-8.657-1.956-18.292-.6-27.608l.155-1.068c.681-4.7,2.824-10.368,4.894-15.849,2.1-5.554,4.271-11.3,4.893-15.957l1.454.195c-.645,4.826-2.845,10.65-4.974,16.282-2.044,5.407-4.156,11-4.816,15.539l-.155,1.069c-1.329,9.129-2.707,18.569.515,26.866Z" transform="translate(36.317 62.815)" fill="#cc8831"/>
            <path id="Trazado_601370" data-name="Trazado 601370" d="M52.34,103.159c0,2.654-1.229,4.806-2.747,4.806s-2.745-2.152-2.745-4.806,1.229-4.806,2.745-4.806,2.747,2.151,2.747,4.806" transform="translate(31.193 65.486)" fill="#7b7c7f"/>
            <path id="Trazado_601371" data-name="Trazado 601371" d="M52.34,119.012c0,2.655-1.229,4.808-2.747,4.808s-2.745-2.152-2.745-4.808,1.229-4.8,2.745-4.8,2.747,2.151,2.747,4.8" transform="translate(31.193 76.042)" fill="#7b7c7f"/>
            <path id="Trazado_601372" data-name="Trazado 601372" d="M66.789,108.723c-5.282-4.878-10.83-9.61-16.483-14.068a4.754,4.754,0,0,1-2.362-4.026c-.326-2.9-.425-6.077-.518-9.145-.088-2.822-.178-5.732-.446-8.409A31.567,31.567,0,0,1,33.722,69.24L33.46,69.1l-.087-.287a87.054,87.054,0,0,1-3.61-22.077l1.466-.048A85.613,85.613,0,0,0,34.693,68.1,30.1,30.1,0,0,0,47.672,71.64l.63.025.07.626c.326,2.9.425,6.077.52,9.145.093,3.04.192,6.185.511,9.029a4.8,4.8,0,0,0,.317,1.474A4.933,4.933,0,0,0,51.213,93.5c5.685,4.481,11.261,9.24,16.572,14.143Z" transform="translate(19.818 31.083)" fill="#7b7c7f"/>
            <path id="Trazado_601373" data-name="Trazado 601373" d="M40.335,189.336c-.168,0-.336,0-.5,0a91.256,91.256,0,0,1-17.058-1.791c-2.052-.415-4.291-1.1-5.3-3.028a7.244,7.244,0,0,1-.631-2.985c-.343-5.581-.361-12.6-.376-19.385-.017-6.767-.033-13.761-.375-19.3l-.148-2.39,1.461,1.9c2.625,3.41,7.658,3.75,12.169,3.8l18.086.2-.017,1.468-18.088-.207c-4.168-.047-8.764-.338-11.894-2.909.243,5.217.258,11.414.272,17.431.017,6.765.033,13.761.375,19.3a6.026,6.026,0,0,0,.468,2.4c.72,1.383,2.57,1.922,4.286,2.267a89.588,89.588,0,0,0,16.782,1.762c3,.03,6.065-.182,8.214-1.932l.926,1.138c-2.382,1.939-5.541,2.266-8.651,2.266" transform="translate(10.617 93.516)" fill="#7b7c7f"/>
            <path id="Trazado_601374" data-name="Trazado 601374" d="M39.174,151.291a85.317,85.317,0,0,1-18.819-2.1l.323-1.431A83.907,83.907,0,0,0,43.77,149.7l.082,1.464q-2.339.127-4.678.128" transform="translate(13.553 98.381)" fill="#7b7c7f"/>
            <path id="Trazado_601375" data-name="Trazado 601375" d="M60.906,165.8a.55.55,0,0,1-.523-.382c-.611-1.887-1.284-3.7-2-5.619a92.924,92.924,0,0,1-3.288-10.05.55.55,0,0,1,1.068-.265,91.921,91.921,0,0,0,3.253,9.932c.685,1.846,1.393,3.753,2.011,5.664a.549.549,0,0,1-.523.72" transform="translate(36.674 99.253)" fill="#bb807d"/>
            <path id="Trazado_601376" data-name="Trazado 601376" d="M63.993,169.36h-.027a.551.551,0,0,1-.523-.576c.207-4.311-3.153-18.619-4.992-21.261a.55.55,0,1,1,.9-.63c2.019,2.9,5.412,17.256,5.187,21.944a.549.549,0,0,1-.548.523" transform="translate(38.852 97.648)" fill="#bb807d"/>
            <path id="Trazado_601377" data-name="Trazado 601377" d="M67.44,168.823a.549.549,0,0,1-.536-.431c-.27-1.229-.523-2.434-.773-3.622-1.278-6.065-2.482-11.792-5.229-17.648a.55.55,0,1,1,1-.468c2.8,5.972,4.02,11.761,5.309,17.889.25,1.184.5,2.387.771,3.611a.55.55,0,0,1-.42.655.573.573,0,0,1-.118.013" transform="translate(40.515 97.434)" fill="#bb807d"/>
            <path id="Trazado_601378" data-name="Trazado 601378" d="M66.686,159.667a.529.529,0,0,1-.293-.085.55.55,0,0,1-.172-.758c.3-.481.393-3.577-.358-10.713-.117-1.091-.308-2.3-1.131-2.8a.552.552,0,0,1,.576-.941c1.353.833,1.544,2.65,1.649,3.626,1.058,10.052.408,11.083.195,11.419a.547.547,0,0,1-.466.255" transform="translate(42.925 96.07)" fill="#bb807d"/>
            <path id="Trazado_601379" data-name="Trazado 601379" d="M69,168.446a.54.54,0,0,1-.245-.058.55.55,0,0,1-.247-.738c.826-1.653.623-6.643.425-11.469a88.016,88.016,0,0,1-.005-11.552.557.557,0,0,1,.6-.49.549.549,0,0,1,.491.6,87.046,87.046,0,0,0,.008,11.393c.222,5.419.413,10.1-.54,12.006a.551.551,0,0,1-.493.3" transform="translate(45.579 95.969)" fill="#bb807d"/>
            <path id="Trazado_601380" data-name="Trazado 601380" d="M21.81,298.048a117.388,117.388,0,0,1-1.269-21.019l1.466.043a116.159,116.159,0,0,0,1.253,20.756Z" transform="translate(13.642 184.453)" fill="#a67438"/>
          </g>
        </g>
      </g>
      <g id="Enmascarar_grupo_744824" data-name="Enmascarar grupo 744824" transform="translate(0 -20)" clip-path="url(#clip-path-7)">
        <g id="Grupo_886081" data-name="Grupo 886081" transform="translate(412.363 761.593)">
          <g id="Grupo_886080" data-name="Grupo 886080" transform="translate(0)" clip-path="url(#clip-path-8)">
            <path id="Trazado_601271" data-name="Trazado 601271" d="M60.079,8.4a9,9,0,0,0-7.394,8.12c-.762,7.176,5.5,10.535,5.5,10.535Z" transform="translate(-8.672 6.586)" fill="#885732"/>
            <path id="Trazado_601272" data-name="Trazado 601272" d="M57.264,38.593,66.01,54.242,42.995,65.289,28.726,52.862l9.4-11.4Z" transform="translate(28.022 30.249)" fill="#fccdae"/>
            <path id="Trazado_601273" data-name="Trazado 601273" d="M7.18,275.046C4.244,281.581,3.471,296.675,3.848,297a2.81,2.81,0,0,0,1.827.473c3.4.073,6.914.07,10.043,1.409,1.365.583,2.611,1.409,3.951,2.044a31.563,31.563,0,0,0,9.121,2.265c4.888.708,9.822,1.416,14.747,1.052,1.969-.146,4.237-.683,5.068-2.474a4.3,4.3,0,0,0-.837-4.331,18.281,18.281,0,0,0-3.537-2.988,54.858,54.858,0,0,1-8.179-8.175,47.426,47.426,0,0,1-5.321-6.946,47.454,47.454,0,0,1-3.689-8.828Z" transform="translate(89.676 212.022)" fill="#8f552f"/>
            <path id="Trazado_601274" data-name="Trazado 601274" d="M48.675,290.127c-.831,1.793-3.1,2.328-5.068,2.474-4.925.366-9.859-.344-14.747-1.051a31.593,31.593,0,0,1-9.119-2.265c-1.341-.637-2.588-1.461-3.953-2.046-3.127-1.34-6.639-1.334-10.043-1.407a2.815,2.815,0,0,1-1.825-.473v2.7a1.089,1.089,0,0,0,1.22,1.088,18.7,18.7,0,0,1,12.067,2.683c6.516,4.138,27,6.932,30.928,2.69Z" transform="translate(89.604 223.666)" fill="#5c3414"/>
            <path id="Trazado_601275" data-name="Trazado 601275" d="M21.558,291.294a11.058,11.058,0,0,0,2.676-.444,5.937,5.937,0,0,1,3.166-.268.891.891,0,0,0,.553-1.695,7.429,7.429,0,0,0-4.16.232,5.263,5.263,0,0,1-3.286.189,4.617,4.617,0,0,1-1.349-1.074,28.434,28.434,0,0,1-7.581-15.305.892.892,0,1,0-1.764.269,30.236,30.236,0,0,0,8.059,16.274,6.259,6.259,0,0,0,1.914,1.468,4.344,4.344,0,0,0,1.771.353" transform="translate(99.218 213.33)" fill="#5c3414"/>
            <path id="Trazado_601276" data-name="Trazado 601276" d="M21.376,283.362a.892.892,0,0,0,.594-1.559,11.756,11.756,0,0,0-9.577-2.8,2.852,2.852,0,0,0-1.231.439c-.059.043-.1.077-.139.1a.892.892,0,0,0-.646,1.595,1.4,1.4,0,0,0,1.729-.177,1.415,1.415,0,0,1,.571-.2,10.075,10.075,0,0,1,8.107,2.374.89.89,0,0,0,.592.225" transform="translate(105.121 218.573)" fill="#5c3414"/>
            <path id="Trazado_601277" data-name="Trazado 601277" d="M13.555,286.133a.891.891,0,0,0,.89-.851,10.636,10.636,0,0,1,2.622-6.513.892.892,0,0,0-1.341-1.177,12.433,12.433,0,0,0-3.063,7.61.894.894,0,0,0,.851.931h.041" transform="translate(105.398 217.341)" fill="#5c3414"/>
            <path id="Trazado_601278" data-name="Trazado 601278" d="M23.259,281.109a.891.891,0,0,0,.392-1.693,10.828,10.828,0,0,1-2.167-1.57,13.907,13.907,0,0,0-2.215-1.643,7.462,7.462,0,0,0-5.462-.7.892.892,0,0,0,.446,1.727,5.677,5.677,0,0,1,4.146.533,12.293,12.293,0,0,1,1.928,1.445,12.253,12.253,0,0,0,2.542,1.812.876.876,0,0,0,.391.091" transform="translate(97.687 215.757)" fill="#5c3414"/>
            <path id="Trazado_601279" data-name="Trazado 601279" d="M15.71,283a.893.893,0,0,0,.872-.706,20.638,20.638,0,0,1,1.138-4.026,6.36,6.36,0,0,1,2.38-2.915.892.892,0,0,0-.915-1.532,8.007,8.007,0,0,0-3.1,3.728,22.145,22.145,0,0,0-1.252,4.374.893.893,0,0,0,.689,1.058.83.83,0,0,0,.186.02" transform="translate(98.309 214.526)" fill="#5c3414"/>
            <path id="Trazado_601280" data-name="Trazado 601280" d="M16.644,280.993a.836.836,0,0,0,.858-.717l.014-.1c.644-4.608,2.03-7.3,3.807-7.394A.892.892,0,1,0,21.23,271c-1.946.1-4.476,1.732-5.48,8.93a.936.936,0,0,0,.751,1.056.978.978,0,0,0,.143.011" transform="translate(95.024 212.408)" fill="#5c3414"/>
            <path id="Trazado_601281" data-name="Trazado 601281" d="M23.569,276.727a.891.891,0,0,0,.7-1.441c-1.368-1.75-5.945-4.2-8.866-3.066a.891.891,0,0,0,.644,1.662c1.852-.715,5.71,1.09,6.816,2.5a.893.893,0,0,0,.7.342" transform="translate(94.346 213.141)" fill="#5c3414"/>
            <path id="Trazado_601282" data-name="Trazado 601282" d="M31.294,292.477a.893.893,0,0,0,.89-.854,22.425,22.425,0,0,0-1.677-9.5,9.492,9.492,0,0,0-1.68-2.82,5.526,5.526,0,0,0-4.668-1.837.891.891,0,1,0,.127,1.778,3.76,3.76,0,0,1,3.23,1.268,7.8,7.8,0,0,1,1.343,2.294,20.636,20.636,0,0,1,1.543,8.737.894.894,0,0,0,.853.929h.039" transform="translate(71.452 217.468)" fill="#5c3414"/>
            <path id="Trazado_601283" data-name="Trazado 601283" d="M6.4,293.2a.894.894,0,0,0,.876-.726,10.561,10.561,0,0,1,3.994-5.969c3.209-2.3,10.066-.023,10.136,0a.892.892,0,0,0,.571-1.689c-.316-.109-7.792-2.59-11.745.241a12.19,12.19,0,0,0-4.709,7.091.89.89,0,0,0,.714,1.036.864.864,0,0,0,.164.016" transform="translate(112.856 222.371)" fill="#5c3414"/>
            <path id="Trazado_601284" data-name="Trazado 601284" d="M96.79,275.046c2.936,6.534,3.709,21.629,3.332,21.955a2.81,2.81,0,0,1-1.827.473c-3.4.073-6.914.07-10.043,1.409-1.365.583-2.611,1.409-3.953,2.044a31.537,31.537,0,0,1-9.119,2.265c-4.888.708-9.822,1.416-14.747,1.052-1.969-.146-4.237-.683-5.068-2.474a4.3,4.3,0,0,1,.837-4.331,18.281,18.281,0,0,1,3.537-2.988,54.857,54.857,0,0,0,8.179-8.175,47.426,47.426,0,0,0,5.321-6.946,47.455,47.455,0,0,0,3.689-8.828Z" transform="translate(-53.184 212.022)" fill="#8f552f"/>
            <path id="Trazado_601285" data-name="Trazado 601285" d="M55.127,290.127c.831,1.793,3.1,2.328,5.068,2.474,4.925.366,9.859-.344,14.747-1.051a31.593,31.593,0,0,0,9.119-2.265c1.34-.637,2.588-1.461,3.953-2.046,3.127-1.34,6.639-1.334,10.043-1.407a2.815,2.815,0,0,0,1.825-.473v2.7a1.089,1.089,0,0,1-1.22,1.088,18.7,18.7,0,0,0-12.067,2.683c-6.516,4.138-27,6.932-30.928,2.69Z" transform="translate(-52.944 223.666)" fill="#5c3414"/>
            <path id="Trazado_601286" data-name="Trazado 601286" d="M70.824,291.294a4.332,4.332,0,0,0,1.771-.353,6.217,6.217,0,0,0,1.914-1.468A30.249,30.249,0,0,0,82.568,273.2a.891.891,0,1,0-1.762-.269,28.441,28.441,0,0,1-7.581,15.305,4.625,4.625,0,0,1-1.35,1.074,5.247,5.247,0,0,1-3.284-.189,7.43,7.43,0,0,0-4.16-.232.891.891,0,0,0,.553,1.695,5.9,5.9,0,0,1,3.166.267,11.071,11.071,0,0,0,2.674.444" transform="translate(-51.139 213.33)" fill="#5c3414"/>
            <path id="Trazado_601287" data-name="Trazado 601287" d="M68.141,283.362a.883.883,0,0,0,.592-.227,10.1,10.1,0,0,1,8.109-2.372,1.52,1.52,0,0,1,.487.139c.328.239,1.086.8,1.811.234a.891.891,0,0,0-.646-1.593l-.027-.02A2.943,2.943,0,0,0,77.126,279a11.758,11.758,0,0,0-9.579,2.8.892.892,0,0,0,.594,1.557" transform="translate(-54.175 218.573)" fill="#5c3414"/>
            <path id="Trazado_601288" data-name="Trazado 601288" d="M72.615,286.133h.041a.894.894,0,0,0,.851-.931,12.433,12.433,0,0,0-3.063-7.61A.892.892,0,0,0,69.1,278.77a10.636,10.636,0,0,1,2.622,6.513.891.891,0,0,0,.89.851" transform="translate(-51.106 217.341)" fill="#5c3414"/>
            <path id="Trazado_601289" data-name="Trazado 601289" d="M65.718,281.109a.876.876,0,0,0,.391-.091,12.3,12.3,0,0,0,2.542-1.812,12.364,12.364,0,0,1,1.927-1.445,5.682,5.682,0,0,1,4.147-.533.892.892,0,0,0,.446-1.727,7.461,7.461,0,0,0-5.462.7,13.907,13.907,0,0,0-2.215,1.643,10.813,10.813,0,0,1-2.167,1.57.891.891,0,0,0,.392,1.693" transform="translate(-46.201 215.757)" fill="#5c3414"/>
            <path id="Trazado_601290" data-name="Trazado 601290" d="M70.94,283a.83.83,0,0,0,.186-.02.893.893,0,0,0,.689-1.058,22.092,22.092,0,0,0-1.252-4.372,8,8,0,0,0-3.1-3.73.892.892,0,0,0-.913,1.532,6.362,6.362,0,0,1,2.378,2.917,20.585,20.585,0,0,1,1.138,4.024.893.893,0,0,0,.872.706" transform="translate(-44.498 214.526)" fill="#5c3414"/>
            <path id="Trazado_601291" data-name="Trazado 601291" d="M69.449,280.173l.9-.023.869-.223c-1-7.2-3.534-8.83-5.48-8.93a.892.892,0,0,0-.093,1.782c1.777.091,3.164,2.786,3.807,7.394m.9-.023h0Z" transform="translate(-41.527 212.408)" fill="#5c3414"/>
            <path id="Trazado_601292" data-name="Trazado 601292" d="M64.8,276.726a.89.89,0,0,0,.7-.342c1.106-1.413,4.964-3.214,6.818-2.5a.891.891,0,1,0,.642-1.662c-2.92-1.129-7.494,1.315-8.864,3.066a.891.891,0,0,0,.7,1.441" transform="translate(-42.25 213.141)" fill="#5c3414"/>
            <path id="Trazado_601293" data-name="Trazado 601293" d="M56.741,292.477h.041a.892.892,0,0,0,.851-.929,20.665,20.665,0,0,1,1.545-8.737,7.91,7.91,0,0,1,1.341-2.294,3.723,3.723,0,0,1,3.23-1.268.892.892,0,1,0,.127-1.779,5.526,5.526,0,0,0-4.665,1.837,9.43,9.43,0,0,0-1.68,2.818,22.38,22.38,0,0,0-1.679,9.5.89.89,0,0,0,.888.854" transform="translate(-19.026 217.469)" fill="#5c3414"/>
            <path id="Trazado_601294" data-name="Trazado 601294" d="M85.236,293.2a1,1,0,0,0,.162-.014.893.893,0,0,0,.715-1.04,12.19,12.19,0,0,0-4.709-7.091c-3.951-2.831-11.427-.348-11.745-.241a.892.892,0,0,0,.571,1.691c.07-.025,6.921-2.3,10.136,0a10.457,10.457,0,0,1,3.994,5.965.893.893,0,0,0,.876.73" transform="translate(-64.034 222.371)" fill="#5c3414"/>
            <path id="Trazado_601295" data-name="Trazado 601295" d="M105.634,127c.612,2.141,14.98,77.96,8.561,107.309,0,0,.305,62.062.305,64.508s.917,77.959.917,77.959-2.042,7.585-3.974,9.172c-3.787,3.115-19.169,4.167-19.169,4.167a2.281,2.281,0,0,1-2.626-1.445,125.95,125.95,0,0,1-5.109-17.091c-1.529-7.95-4.891-85.3-4.891-85.3s-7.588-64.315-10.7-75.207c-.61-2.141-5.808-16.816-5.808-16.816s-7.949,30.268-7.949,33.63-.917,32.713-6.115,44.024c0,0,4.509,109.2-10.089,118.926-.917.612-18.37-1.885-22.317-6.115-1.821-1.952-1.834-7.642-2.446-10.394s2.141-96,2.446-101.805S6.274,157.88,21.867,123.64Z" transform="translate(5.581 96.91)" fill="#47608a"/>
            <path id="Trazado_601296" data-name="Trazado 601296" d="M21.451,168.355l-.171,3.605s-8.2-.514-10.255.854-7.349,8.2-9.743,8.2S-.256,185.292,4.7,184.95c2.244-.153,9.631-4.786,9.631-4.786s3.018,21.366,3.532,21.366,15.212-17.947,16.581-20.17,3.55-5.917,3.55-5.917c.348-1.324,3.373-10.888,5.694-22.94,2.467-12.815,1.791-43.507,1.457-55.36-.3-10.5-4.372-18.453-13.113-18.453-14.568,0-9.09,14.44-9.713,27.194-.97,19.911,1.183,59.51-.867,62.471" transform="translate(99.787 61.678)" fill="#fccdae"/>
            <path id="Trazado_601297" data-name="Trazado 601297" d="M76.739,163.677l.171,3.605s8.2-.514,10.255.854,7.349,8.2,9.743,8.2,1.538,4.274-3.418,3.932c-2.244-.153-9.631-4.786-9.631-4.786s-3.018,21.366-3.532,21.366-15.212-17.947-16.58-20.17-3.55-5.917-3.55-5.917c-.348-1.324.091-61.768.425-73.623.294-10.5,4.37-18.453,13.111-18.453,14.568,0,9.09,14.44,9.713,27.2.97,19.909-8.757,54.831-6.707,57.792" transform="translate(-60.071 61.677)" fill="#fccdae"/>
            <path id="Trazado_601298" data-name="Trazado 601298" d="M.658,119.211C.925,105.508,4.666,59.776,30.52,57.1l22.241-9.888.928-1.577a3.365,3.365,0,0,1,5.722-.105C62.069,49.564,66.5,54.6,72,54.6c6.531,0,13.12-6.3,16.375-9.936a3.362,3.362,0,0,1,4.67-.341l5.041,4.22L117.5,57.218c11.028,3.939,20.607,9.356,22.18,20.382.97,6.795,2.455,24.864,4.1,39.852,1.02,9.338-22.062,10.191-22.062,10.191L118.4,113.167s.473,53.691-5.642,61.639l-1.837,14.98-32.216-1.293-51.55-2.069.917-15.9s-1.7-2.453-1.834-7.644c-.4-15.778.455-49.279.917-55.03,0,0-2.337,13.123-3.866,15.569Z" transform="translate(0.29 34.125)" fill="#dbdff0"/>
            <path id="Trazado_601299" data-name="Trazado 601299" d="M20.927,123.64l51.55,2.069L104.7,127s2.3,5.18,1.208,6.379c-1.532,1.679-86.85-2.292-87.444-3.059-1.09-1.409,2.469-6.682,2.469-6.682" transform="translate(6.52 96.91)" fill="#de9654"/>
            <path id="Trazado_601300" data-name="Trazado 601300" d="M38.636,69.317a1.767,1.767,0,0,0,.467-.064,2.433,2.433,0,0,0,1.09-.74C45.707,62.7,51.524,55.769,52.86,48.427a.892.892,0,0,0-1.755-.319c-1.25,6.882-6.873,13.555-12.207,19.176a1.6,1.6,0,0,1-.273.252,1.86,1.86,0,0,1-.533-.5c-.763-.951-1.488-1.905-2.2-2.849-2.394-3.148-4.652-6.124-7.95-8.564a.891.891,0,1,0-1.061,1.432c3.093,2.29,5.277,5.168,7.59,8.213.726.954,1.459,1.919,2.233,2.884a2.578,2.578,0,0,0,1.935,1.168" transform="translate(45.102 37.132)" fill="#acb1bf"/>
            <path id="Trazado_601301" data-name="Trazado 601301" d="M49.8,69.083a2.406,2.406,0,0,0,1.853-1.218,70.8,70.8,0,0,1,8.279-9.55A.893.893,0,0,0,58.7,57.03a72.7,72.7,0,0,0-8.486,9.791,1.655,1.655,0,0,1-.442.469c.034-.036-.054-.145-.086-.184a28.26,28.26,0,0,1-6.026-20.665.892.892,0,0,0-1.771-.205,29.671,29.671,0,0,0,6.411,22,2.179,2.179,0,0,0,1.026.776,1.632,1.632,0,0,0,.482.075" transform="translate(10.695 35.621)" fill="#acb1bf"/>
            <path id="Trazado_601302" data-name="Trazado 601302" d="M41.663,180.6a.892.892,0,0,0,.892-.892V76.293A151.226,151.226,0,0,1,44.67,54.383a.892.892,0,0,0-1.759-.3,153.086,153.086,0,0,0-2.141,22.191V179.708a.893.893,0,0,0,.892.892" transform="translate(27.863 41.811)" fill="#acb1bf"/>
            <path id="Trazado_601303" data-name="Trazado 601303" d="M39.088,61.962a1.417,1.417,0,1,0,1.406-1.605,1.516,1.516,0,0,0-1.406,1.605" transform="translate(33.65 47.308)" fill="#acb1bf"/>
            <path id="Trazado_601304" data-name="Trazado 601304" d="M39.088,68.264a1.417,1.417,0,1,0,1.406-1.605,1.516,1.516,0,0,0-1.406,1.605" transform="translate(33.65 52.248)" fill="#acb1bf"/>
            <path id="Trazado_601305" data-name="Trazado 601305" d="M39.088,74.228a1.417,1.417,0,1,0,1.406-1.605,1.516,1.516,0,0,0-1.406,1.605" transform="translate(33.65 56.922)" fill="#acb1bf"/>
            <path id="Trazado_601306" data-name="Trazado 601306" d="M39.088,80.53a1.417,1.417,0,1,0,1.406-1.605,1.516,1.516,0,0,0-1.406,1.605" transform="translate(33.65 61.862)" fill="#acb1bf"/>
            <path id="Trazado_601307" data-name="Trazado 601307" d="M39.088,86.85a1.417,1.417,0,1,0,1.406-1.605,1.516,1.516,0,0,0-1.406,1.605" transform="translate(33.65 66.816)" fill="#acb1bf"/>
            <path id="Trazado_601308" data-name="Trazado 601308" d="M39.088,93.2A1.417,1.417,0,1,0,40.494,91.6,1.516,1.516,0,0,0,39.088,93.2" transform="translate(33.65 71.794)" fill="#acb1bf"/>
            <path id="Trazado_601309" data-name="Trazado 601309" d="M39.088,100a1.417,1.417,0,1,0,1.406-1.605A1.516,1.516,0,0,0,39.088,100" transform="translate(33.65 77.12)" fill="#acb1bf"/>
            <path id="Trazado_601310" data-name="Trazado 601310" d="M39.088,106.3a1.417,1.417,0,1,0,1.406-1.605,1.516,1.516,0,0,0-1.406,1.605" transform="translate(33.65 82.06)" fill="#acb1bf"/>
            <path id="Trazado_601311" data-name="Trazado 601311" d="M39.088,112.849a1.417,1.417,0,1,0,1.406-1.605,1.516,1.516,0,0,0-1.406,1.605" transform="translate(33.65 87.194)" fill="#acb1bf"/>
            <path id="Trazado_601312" data-name="Trazado 601312" d="M39.088,118.047a1.417,1.417,0,1,0,1.406-1.605,1.516,1.516,0,0,0-1.406,1.605" transform="translate(33.65 91.268)" fill="#acb1bf"/>
            <path id="Trazado_601313" data-name="Trazado 601313" d="M9.406,72.316a.89.89,0,0,0,.838-.589l.253-.7C12.132,66.5,13.984,61.36,17.425,58.1a11.173,11.173,0,0,1,1.984-1.332.891.891,0,0,0,.978-1.327,1.2,1.2,0,0,0-.755-.487C18.466,54.8,16.221,56.784,16.2,56.8c-3.75,3.552-5.678,8.9-7.38,13.618l-.252.7A.891.891,0,0,0,9.1,72.263a.857.857,0,0,0,.3.054" transform="translate(109.57 43.066)" fill="#acb1bf"/>
            <path id="Trazado_601314" data-name="Trazado 601314" d="M15.807,94.141a.944.944,0,0,0,.1-.005.891.891,0,0,0,.787-.986,124.24,124.24,0,0,1-.153-17.064c.093-2.658.182-5.241.193-7.608a.891.891,0,0,0-.888-.9.871.871,0,0,0-.9.887c-.011,2.353-.1,4.914-.191,7.556a125.287,125.287,0,0,0,.162,17.324.894.894,0,0,0,.887.792" transform="translate(102.6 52.969)" fill="#acb1bf"/>
            <path id="Trazado_601315" data-name="Trazado 601315" d="M2.876,92.48a.893.893,0,0,0,.205-.023l2.035-.467c3.794-.863,8.093-1.839,10.28-3.024,1.9-1.027,4-2.3,4.922-4.454a.892.892,0,1,0-1.639-.7c-.7,1.623-2.422,2.663-4.131,3.589-1.973,1.067-6.327,2.057-9.825,2.851l-2.05.471a.892.892,0,0,0,.2,1.761" transform="translate(121.341 65.265)" fill="#acb1bf"/>
            <path id="Trazado_601316" data-name="Trazado 601316" d="M86.784,88.4a.892.892,0,0,0,.048-1.782c-3.921-.219-14.586-1.27-16.8-3.486a.892.892,0,1,0-1.261,1.261c3.093,3.095,16.45,3.921,17.963,4l.05,0" transform="translate(-64.611 64.955)" fill="#acb1bf"/>
            <path id="Trazado_601317" data-name="Trazado 601317" d="M64.32,81.435a.893.893,0,0,0,.885-.781c2.392-19.144,1.381-27.679,1.336-28.033a.892.892,0,0,0-1.77.221c.011.086,1.022,8.71-1.338,27.59a.893.893,0,0,0,.776,1,.784.784,0,0,0,.111.007" transform="translate(-34.659 40.633)" fill="#acb1bf"/>
            <path id="Trazado_601318" data-name="Trazado 601318" d="M65.356,84.9a.894.894,0,0,0,.885-.781l1.6-12.836a.892.892,0,1,0-1.77-.221L64.469,83.9a.893.893,0,0,0,.776,1,.753.753,0,0,0,.111.007" transform="translate(-37.566 55.085)" fill="#acb1bf"/>
            <path id="Trazado_601319" data-name="Trazado 601319" d="M40.411,169.171c2.626-6,7.009-19.852,7.194-20.441l-1.7-.535c-.046.141-4.54,14.344-7.128,20.262Z" transform="translate(28.498 116.156)" fill="#334769"/>
            <path id="Trazado_601320" data-name="Trazado 601320" d="M52.688,345.143l1.775-.175c-.027-.268-2.633-27.089-2.633-59.081,0-18.409-2.476-36.336-4.658-52.153-1.7-12.328-3.309-23.974-3.634-34.554-.756-24.515-15.5-42.938-15.653-43.122L26.5,157.182c.144.18,14.517,18.159,15.253,42.053.328,10.674,1.943,22.367,3.65,34.743,2.281,16.531,4.641,33.621,4.641,51.909,0,32.084,2.615,58.989,2.642,59.256" transform="translate(43.536 122.319)" fill="#334769"/>
            <path id="Trazado_601321" data-name="Trazado 601321" d="M59.894,154.592c8.148,0,12.014-15.838,12.174-16.514l-1.736-.412c-1.006,4.213-4.839,15.143-10.439,15.143Z" transform="translate(-33.635 107.903)" fill="#334769"/>
            <path id="Trazado_601322" data-name="Trazado 601322" d="M61.64,126.5a.891.891,0,0,0,.378-1.7c-1.477-.692-5.489-3.029-6.315-5.5a.892.892,0,1,0-1.691.565c1.236,3.71,7.007,6.44,7.251,6.554a.882.882,0,0,0,.376.084" transform="translate(-13.523 93.029)" fill="#acb1bf"/>
            <path id="Trazado_601323" data-name="Trazado 601323" d="M28.905,41.286c0,18.156,13.289,30.337,21.83,30.36C63.725,71.68,73,66.405,75.272,48.392S71.959,6.414,58.968,6.414c-33.539,0-30.063,12-30.063,34.872" transform="translate(18.128 5.027)" fill="#fccdae"/>
            <path id="Trazado_601324" data-name="Trazado 601324" d="M75.989,50.978s-2.426-8.557-5.8-13.685c-4.187-6.356-.651-15.56-.651-15.56s-43.4,14.627-39.672-.516c0,0-8.214-3.833-6.8-11.944S43.144-5.139,52.57,6.015c0,0,21.406-15.091,22.269,7.506,0,0,9.206-4.024,11.22,9.6a6.484,6.484,0,0,1-4.891,7.738A13.4,13.4,0,0,1,84.621,35.5c2.023,5.517-.863,13-8.632,15.478" transform="translate(18.264 0)" fill="#885732"/>
            <path id="Trazado_601325" data-name="Trazado 601325" d="M26.787,22.556s8.122-6.044,8.025,3.962-3.37,10.7-6.6,9.852Z" transform="translate(62.679 16.262)" fill="#fccdae"/>
            <path id="Trazado_601326" data-name="Trazado 601326" d="M42.811,17.866c3,.451,3.75,1.361,3.967,1.663a3.31,3.31,0,0,1,.549,2.31,26.45,26.45,0,0,0-6.639-1.3,26.747,26.747,0,0,0-4.718.107c-.887-.931-.888-1.475-.785-1.778.514-1.486,5.071-1.381,7.626-1" transform="translate(35.239 13.811)" fill="#443139"/>
            <path id="Trazado_601327" data-name="Trazado 601327" d="M51.594,17.866c-3,.451-3.75,1.361-3.967,1.663a3.31,3.31,0,0,0-.549,2.31,26.45,26.45,0,0,1,6.639-1.3,26.746,26.746,0,0,1,4.718.107c.887-.931.888-1.475.785-1.778-.514-1.486-5.071-1.381-7.626-1" transform="translate(2.074 13.811)" fill="#443139"/>
            <path id="Trazado_601328" data-name="Trazado 601328" d="M37.539,24.27a1.991,1.991,0,1,0,3.93,0,1.991,1.991,0,1,0-3.93,0" transform="translate(36.842 17.209)" fill="#443139"/>
            <path id="Trazado_601329" data-name="Trazado 601329" d="M48.749,24.27a1.991,1.991,0,1,0,3.93,0,1.991,1.991,0,1,0-3.93,0" transform="translate(5.636 17.209)" fill="#443139"/>
            <path id="Trazado_601330" data-name="Trazado 601330" d="M48.647,38.9a.892.892,0,0,0,.112-1.777c-1.356-.175-2.207-.769-2.4-1.671-.235-1.127.587-2.508,2-3.355,4.178-2.5,4.3-6.138,3.776-7.711a.892.892,0,0,0-1.695.555c.045.143.953,3.257-3,5.628-2.087,1.25-3.223,3.359-2.829,5.248.351,1.68,1.778,2.8,3.915,3.077a.818.818,0,0,0,.114.007" transform="translate(13.465 18.632)" fill="#c8a58d"/>
            <path id="Trazado_601331" data-name="Trazado 601331" d="M41.275,38.554c.99,0,2.281-.023,3.937-.093,5.278-.219,8.937-4.666,9.09-4.856a.892.892,0,0,0-1.386-1.122c-.032.039-3.316,4.01-7.779,4.2a48.969,48.969,0,0,1-6.438.007.892.892,0,0,0-.219,1.77,26.255,26.255,0,0,0,2.8.1" transform="translate(23.524 25.203)" fill="#c8a58d"/>
            <path id="Trazado_601332" data-name="Trazado 601332" d="M40.589,47.028c7.23,0,13.2-5.164,13.516-5.444a.892.892,0,0,0-1.179-1.34c-.091.082-9.215,7.949-17.865,3.728a.891.891,0,1,0-.781,1.6,14.223,14.223,0,0,0,6.309,1.454" transform="translate(30.612 31.369)" fill="#c8a58d"/>
            <path id="Trazado_601333" data-name="Trazado 601333" d="M6.586,102.435a.873.873,0,0,0,.177-.018l5.774-1.154a.892.892,0,0,0-.35-1.75l-5.776,1.156a.892.892,0,0,0,.175,1.766" transform="translate(121.863 77.985)" fill="#c8a58d"/>
            <path id="Trazado_601334" data-name="Trazado 601334" d="M78.984,100.492a.892.892,0,0,0,.159-1.77l-6.352-1.154a.891.891,0,0,0-.319,1.753l6.352,1.156a.814.814,0,0,0,.161.014" transform="translate(-62.571 76.463)" fill="#c8a58d"/>
          </g>
        </g>
      </g>
      <g id="Grupo_1017619" data-name="Grupo 1017619" transform="translate(-105 327)">
        <path id="Sustracción_7-3" data-name="Sustracción 7" d="M162.083,65.867H0V8.024H20.752L24.845,0H190V53.891H166.071l-3.988,11.976Z" transform="translate(285 602.592)" fill="#6debff"/>
        <path id="Trazado_836440" data-name="Trazado 836440" d="M29.03,3.914l3.1,8.766,3.088-8.766h3.271V16h-2.5V12.7l.249-5.7L32.981,16h-1.71L28.017,7l.249,5.694V16h-2.49V3.914Zm11.106,7.512a5.327,5.327,0,0,1,.515-2.382,3.767,3.767,0,0,1,1.482-1.619,4.323,4.323,0,0,1,2.245-.573,4.09,4.09,0,0,1,2.968,1.112,4.464,4.464,0,0,1,1.282,3.021l.017.614a4.694,4.694,0,0,1-1.154,3.316,4.472,4.472,0,0,1-6.2,0,4.777,4.777,0,0,1-1.158-3.387Zm2.4.17a3.357,3.357,0,0,0,.481,1.958,1.73,1.73,0,0,0,2.739.008,3.674,3.674,0,0,0,.49-2.141,3.324,3.324,0,0,0-.49-1.945,1.592,1.592,0,0,0-1.378-.69,1.566,1.566,0,0,0-1.361.686A3.735,3.735,0,0,0,42.535,11.6ZM52.994,4.811V7.019H54.53v1.76H52.994v4.482a1.07,1.07,0,0,0,.191.714.959.959,0,0,0,.73.216,3.826,3.826,0,0,0,.706-.058V15.95a4.939,4.939,0,0,1-1.453.216A2.29,2.29,0,0,1,50.6,13.618V8.778H49.283V7.019H50.6V4.811ZM58.4,16H55.991V7.019H58.4ZM55.849,4.694a1.181,1.181,0,0,1,.361-.888,1.556,1.556,0,0,1,1.963,0,1.175,1.175,0,0,1,.365.888,1.178,1.178,0,0,1-.369.9,1.539,1.539,0,0,1-1.951,0A1.178,1.178,0,0,1,55.849,4.694Zm7.886,8.375L65.4,7.019H67.91L64.881,16H62.59L59.56,7.019h2.507ZM74.045,16a2.664,2.664,0,0,1-.241-.805,2.9,2.9,0,0,1-2.266.971,3.189,3.189,0,0,1-2.187-.764,2.456,2.456,0,0,1-.867-1.926,2.538,2.538,0,0,1,1.058-2.191,5.222,5.222,0,0,1,3.059-.772h1.1V10a1.48,1.48,0,0,0-.32-1,1.257,1.257,0,0,0-1.009-.374,1.429,1.429,0,0,0-.95.291.987.987,0,0,0-.344.8h-2.4a2.41,2.41,0,0,1,.481-1.444A3.182,3.182,0,0,1,70.525,7.23,4.961,4.961,0,0,1,72.5,6.853a3.92,3.92,0,0,1,2.635.834,2.918,2.918,0,0,1,.975,2.345v3.893a4.294,4.294,0,0,0,.357,1.934V16Zm-1.984-1.668a2.066,2.066,0,0,0,.979-.237,1.554,1.554,0,0,0,.664-.635V11.916h-.9q-1.8,0-1.917,1.245l-.008.141a.96.96,0,0,0,.315.739A1.225,1.225,0,0,0,72.061,14.332ZM83,9.268a6.517,6.517,0,0,0-.863-.066,1.757,1.757,0,0,0-1.785.921V16h-2.4V7.019h2.266l.066,1.071a2.223,2.223,0,0,1,2-1.237,2.514,2.514,0,0,1,.747.108Z" transform="translate(326 625.526)" fill="#12263f"/>
        <path id="Trazado_214008-3" data-name="Trazado 214008" d="M2.649,1.311H59v10H-4Z" transform="translate(415.999 658.149)" fill="#7f8a9c"/>
      </g>
      <g id="Grupo_1017620" data-name="Grupo 1017620" transform="translate(105 328)">
        <path id="Sustracción_7-4" data-name="Sustracción 7" d="M162.083,65.867H0V8.024H20.752L24.845,0H190V53.891H166.071l-3.988,11.976Z" transform="translate(285 602.592)" fill="#b0c0d2"/>
        <path id="Trazado_836441" data-name="Trazado 836441" d="M29.577,11.576H27.594V16H25.1V3.914h4.491a5.076,5.076,0,0,1,3.3.955,3.3,3.3,0,0,1,1.162,2.7,3.718,3.718,0,0,1-.535,2.063A3.651,3.651,0,0,1,31.9,10.945l2.615,4.939V16H31.844ZM27.594,9.559H29.6a2.057,2.057,0,0,0,1.453-.477,1.706,1.706,0,0,0,.515-1.316,1.826,1.826,0,0,0-.486-1.345,2.018,2.018,0,0,0-1.49-.49h-2Zm12.335,6.607a4.409,4.409,0,0,1-3.217-1.212,4.308,4.308,0,0,1-1.241-3.229v-.232a5.426,5.426,0,0,1,.523-2.42,3.838,3.838,0,0,1,1.482-1.644,4.159,4.159,0,0,1,2.187-.577,3.727,3.727,0,0,1,2.9,1.162,4.722,4.722,0,0,1,1.058,3.3v.979H37.9a2.229,2.229,0,0,0,.7,1.411,2.12,2.12,0,0,0,1.482.531,2.589,2.589,0,0,0,2.167-1l1.179,1.32a3.6,3.6,0,0,1-1.461,1.191A4.793,4.793,0,0,1,39.929,16.166Zm-.274-7.379A1.5,1.5,0,0,0,38.5,9.27a2.5,2.5,0,0,0-.569,1.384h3.337v-.192a1.786,1.786,0,0,0-.432-1.238A1.547,1.547,0,0,0,39.655,8.787Zm8.2-3.976V7.019h1.536v1.76H47.856v4.482a1.07,1.07,0,0,0,.191.714.959.959,0,0,0,.73.216,3.826,3.826,0,0,0,.706-.058V15.95a4.939,4.939,0,0,1-1.453.216,2.29,2.29,0,0,1-2.573-2.548V8.778H44.145V7.019h1.312V4.811Zm7.006,11.355a4.409,4.409,0,0,1-3.217-1.212A4.308,4.308,0,0,1,50.4,11.725v-.232a5.426,5.426,0,0,1,.523-2.42,3.838,3.838,0,0,1,1.482-1.644A4.159,4.159,0,0,1,54.6,6.853a3.727,3.727,0,0,1,2.9,1.162,4.722,4.722,0,0,1,1.058,3.3v.979H52.836a2.229,2.229,0,0,0,.7,1.411,2.12,2.12,0,0,0,1.482.531,2.589,2.589,0,0,0,2.167-1l1.179,1.32A3.6,3.6,0,0,1,56.9,15.739,4.793,4.793,0,0,1,54.862,16.166Zm-.274-7.379a1.5,1.5,0,0,0-1.158.484,2.5,2.5,0,0,0-.569,1.384H56.2v-.192a1.786,1.786,0,0,0-.432-1.238A1.547,1.547,0,0,0,54.588,8.787Zm7.537-1.768L62.2,8.056a3.136,3.136,0,0,1,2.582-1.2,2.606,2.606,0,0,1,2.125.838A3.912,3.912,0,0,1,67.62,10.2V16h-2.4V10.256a1.556,1.556,0,0,0-.332-1.108,1.486,1.486,0,0,0-1.1-.344,1.65,1.65,0,0,0-1.519.863V16h-2.4V7.019Zm11.447,9.147a4.409,4.409,0,0,1-3.217-1.212,4.308,4.308,0,0,1-1.241-3.229v-.232a5.426,5.426,0,0,1,.523-2.42,3.838,3.838,0,0,1,1.482-1.644,4.159,4.159,0,0,1,2.187-.577,3.727,3.727,0,0,1,2.9,1.162,4.722,4.722,0,0,1,1.058,3.3v.979H71.546a2.229,2.229,0,0,0,.7,1.411,2.12,2.12,0,0,0,1.482.531,2.589,2.589,0,0,0,2.167-1l1.179,1.32a3.6,3.6,0,0,1-1.461,1.191A4.793,4.793,0,0,1,73.572,16.166ZM73.3,8.787a1.5,1.5,0,0,0-1.158.484,2.5,2.5,0,0,0-.569,1.384h3.337v-.192a1.786,1.786,0,0,0-.432-1.238A1.547,1.547,0,0,0,73.3,8.787Zm10.376.481A6.517,6.517,0,0,0,82.81,9.2a1.757,1.757,0,0,0-1.785.921V16h-2.4V7.019h2.266l.066,1.071a2.223,2.223,0,0,1,2-1.237,2.514,2.514,0,0,1,.747.108Z" transform="translate(326 625.526)" fill="#12263f"/>
        <path id="Trazado_214008-4" data-name="Trazado 214008" d="M2.649,1.311H59v10H-4Z" transform="translate(415.999 658.149)" fill="#7f8a9c"/>
      </g>
    </g>
  </g>
</svg>
