<svg xmlns="http://www.w3.org/2000/svg" xmlns:xlink="http://www.w3.org/1999/xlink" width="820" height="376.741" viewBox="0 0 820 376.741">
  <defs>
    <clipPath id="clip-path">
      <rect id="Rectángulo_300803" data-name="Rectángulo 300803" width="105.19" height="376.741" fill="none"/>
    </clipPath>
    <clipPath id="clip-path-2">
      <rect id="Rectángulo_300804" data-name="Rectángulo 300804" width="116.68" height="376.741" fill="none"/>
    </clipPath>
    <clipPath id="clip-path-3">
      <rect id="Rectángulo_300805" data-name="Rectángulo 300805" width="130.851" height="376.741" fill="none"/>
    </clipPath>
    <clipPath id="clip-path-4">
      <rect id="Rectángulo_300806" data-name="Rectángulo 300806" width="106.777" height="376.74" fill="none"/>
    </clipPath>
  </defs>
  <g id="Grupo_886088" data-name="Grupo 886088" transform="translate(-390 -10860.693)">
    <g id="Grupo_886081" data-name="Grupo 886081" transform="translate(1085.259 10860.693)">
      <g id="Grupo_886080" data-name="Grupo 886080" clip-path="url(#clip-path)">
        <path id="Trazado_601271" data-name="Trazado 601271" d="M52.621,8.4a6.519,6.519,0,0,1,5.354,5.879A8.014,8.014,0,0,1,54,21.91Z" transform="translate(15.346 2.45)" fill="#885732"/>
        <path id="Trazado_601272" data-name="Trazado 601272" d="M35.059,38.593,28.726,49.924l16.665,8,10.332-9-6.8-8.252Z" transform="translate(8.377 11.255)" fill="#fccdae"/>
        <path id="Trazado_601273" data-name="Trazado 601273" d="M33.962,273.793c2.126,4.731,2.685,15.661,2.413,15.9a2.034,2.034,0,0,1-1.323.342c-2.463.053-5.006.05-7.272,1.02-.988.422-1.891,1.02-2.861,1.48a22.855,22.855,0,0,1-6.6,1.64,49.36,49.36,0,0,1-10.678.762c-1.426-.106-3.068-.495-3.67-1.791a3.116,3.116,0,0,1,.606-3.136,13.237,13.237,0,0,1,2.561-2.163,39.72,39.72,0,0,0,5.922-5.919,34.339,34.339,0,0,0,3.853-5.03,34.36,34.36,0,0,0,2.671-6.392Z" transform="translate(1.096 78.885)" fill="#8f552f"/>
        <path id="Trazado_601274" data-name="Trazado 601274" d="M3.921,288.812c.6,1.3,2.242,1.686,3.67,1.791a49.355,49.355,0,0,0,10.678-.761,22.876,22.876,0,0,0,6.6-1.64c.971-.461,1.874-1.058,2.862-1.481,2.264-.97,4.807-.966,7.272-1.019a2.039,2.039,0,0,0,1.321-.342v1.957a.788.788,0,0,1-.883.788,13.538,13.538,0,0,0-8.738,1.943c-4.718,3-19.547,5.019-22.394,1.948Z" transform="translate(1.143 83.218)" fill="#5c3414"/>
        <path id="Trazado_601275" data-name="Trazado 601275" d="M14.879,286.018a8.007,8.007,0,0,1-1.937-.322,4.3,4.3,0,0,0-2.293-.194.645.645,0,0,1-.4-1.227,5.379,5.379,0,0,1,3.012.168,3.811,3.811,0,0,0,2.379.137,3.343,3.343,0,0,0,.976-.778,20.589,20.589,0,0,0,5.489-11.082.646.646,0,1,1,1.277.2A21.893,21.893,0,0,1,17.548,284.7a4.532,4.532,0,0,1-1.386,1.063,3.145,3.145,0,0,1-1.283.256" transform="translate(2.859 79.372)" fill="#5c3414"/>
        <path id="Trazado_601276" data-name="Trazado 601276" d="M10.672,282.12a.646.646,0,0,1-.43-1.129,8.512,8.512,0,0,1,6.935-2.028,2.065,2.065,0,0,1,.891.318l.1.074a.646.646,0,0,1,.468,1.155,1.013,1.013,0,0,1-1.252-.128,1.025,1.025,0,0,0-.413-.143,7.3,7.3,0,0,0-5.87,1.719.644.644,0,0,1-.429.163" transform="translate(2.924 81.323)" fill="#5c3414"/>
        <path id="Trazado_601277" data-name="Trazado 601277" d="M15.365,283.693a.645.645,0,0,1-.645-.616,7.7,7.7,0,0,0-1.9-4.716.646.646,0,0,1,.971-.852,9,9,0,0,1,2.218,5.51.647.647,0,0,1-.616.674h-.03" transform="translate(3.693 80.864)" fill="#5c3414"/>
        <path id="Trazado_601278" data-name="Trazado 601278" d="M13.784,279.5a.645.645,0,0,1-.284-1.226,7.84,7.84,0,0,0,1.569-1.137,10.069,10.069,0,0,1,1.6-1.19,5.4,5.4,0,0,1,3.955-.509.646.646,0,1,1-.323,1.25,4.111,4.111,0,0,0-3,.386,8.9,8.9,0,0,0-1.4,1.046,8.871,8.871,0,0,1-1.841,1.312.634.634,0,0,1-.283.066" transform="translate(3.831 80.275)" fill="#5c3414"/>
        <path id="Trazado_601279" data-name="Trazado 601279" d="M18.31,280.435a.647.647,0,0,1-.632-.511,14.945,14.945,0,0,0-.824-2.915,4.605,4.605,0,0,0-1.723-2.111.646.646,0,0,1,.663-1.109,5.8,5.8,0,0,1,2.242,2.7,16.034,16.034,0,0,1,.907,3.167.647.647,0,0,1-.5.766.6.6,0,0,1-.134.014" transform="translate(4.321 79.817)" fill="#5c3414"/>
        <path id="Trazado_601280" data-name="Trazado 601280" d="M19.742,278.235a.605.605,0,0,1-.621-.519l-.01-.075c-.466-3.336-1.47-5.288-2.756-5.354a.646.646,0,1,1,.067-1.29c1.409.074,3.241,1.254,3.968,6.466a.677.677,0,0,1-.544.765.706.706,0,0,1-.1.008" transform="translate(4.591 79.029)" fill="#5c3414"/>
        <path id="Trazado_601281" data-name="Trazado 601281" d="M15.483,275.4a.645.645,0,0,1-.509-1.044c.991-1.267,4.3-3.042,6.419-2.22a.645.645,0,0,1-.466,1.2c-1.341-.518-4.134.789-4.935,1.812a.646.646,0,0,1-.509.248" transform="translate(4.327 79.302)" fill="#5c3414"/>
        <path id="Trazado_601282" data-name="Trazado 601282" d="M23.99,288.332a.646.646,0,0,1-.645-.619,16.238,16.238,0,0,1,1.214-6.875,6.873,6.873,0,0,1,1.217-2.042,4,4,0,0,1,3.38-1.33.646.646,0,1,1-.092,1.288,2.723,2.723,0,0,0-2.339.918,5.647,5.647,0,0,0-.973,1.661,14.942,14.942,0,0,0-1.117,6.326.647.647,0,0,1-.617.673H23.99" transform="translate(6.804 80.912)" fill="#5c3414"/>
        <path id="Trazado_601283" data-name="Trazado 601283" d="M17.229,290.58a.647.647,0,0,1-.634-.526,7.647,7.647,0,0,0-2.892-4.322c-2.324-1.665-7.289-.017-7.339,0a.646.646,0,0,1-.413-1.223c.229-.079,5.642-1.875,8.5.174a8.826,8.826,0,0,1,3.41,5.134.645.645,0,0,1-.517.75.625.625,0,0,1-.119.012" transform="translate(1.607 82.736)" fill="#5c3414"/>
        <path id="Trazado_601284" data-name="Trazado 601284" d="M57.554,273.793c-2.126,4.731-2.685,15.661-2.413,15.9a2.034,2.034,0,0,0,1.323.342c2.463.053,5.006.05,7.272,1.02.988.422,1.891,1.02,2.862,1.48a22.836,22.836,0,0,0,6.6,1.64,49.36,49.36,0,0,0,10.678.762c1.426-.106,3.068-.495,3.67-1.791a3.116,3.116,0,0,0-.606-3.136,13.237,13.237,0,0,0-2.561-2.163,39.72,39.72,0,0,1-5.922-5.919,34.339,34.339,0,0,1-3.853-5.03,34.36,34.36,0,0,1-2.671-6.392Z" transform="translate(16.062 78.885)" fill="#8f552f"/>
        <path id="Trazado_601285" data-name="Trazado 601285" d="M87.533,288.812c-.6,1.3-2.242,1.686-3.67,1.791a49.355,49.355,0,0,1-10.678-.761,22.876,22.876,0,0,1-6.6-1.64c-.97-.461-1.874-1.058-2.862-1.481-2.264-.97-4.807-.966-7.272-1.019a2.039,2.039,0,0,1-1.321-.342v1.957a.788.788,0,0,0,.883.788,13.538,13.538,0,0,1,8.738,1.943c4.718,3,19.547,5.019,22.394,1.948Z" transform="translate(16.076 83.218)" fill="#5c3414"/>
        <path id="Trazado_601286" data-name="Trazado 601286" d="M72.327,286.018a3.137,3.137,0,0,1-1.283-.256,4.5,4.5,0,0,1-1.386-1.063,21.9,21.9,0,0,1-5.836-11.784.645.645,0,1,1,1.276-.2A20.594,20.594,0,0,0,70.588,283.8a3.35,3.35,0,0,0,.978.778,3.8,3.8,0,0,0,2.378-.137,5.38,5.38,0,0,1,3.012-.168.645.645,0,0,1-.4,1.227,4.274,4.274,0,0,0-2.293.194,8.017,8.017,0,0,1-1.936.322" transform="translate(18.61 79.372)" fill="#5c3414"/>
        <path id="Trazado_601287" data-name="Trazado 601287" d="M75.466,282.12a.639.639,0,0,1-.429-.164,7.315,7.315,0,0,0-5.872-1.718,1.1,1.1,0,0,0-.353.1c-.238.173-.787.576-1.311.169a.646.646,0,0,1,.468-1.153l.019-.014a2.131,2.131,0,0,1,.971-.377,8.513,8.513,0,0,1,6.936,2.029.646.646,0,0,1-.43,1.128" transform="translate(19.611 81.323)" fill="#5c3414"/>
        <path id="Trazado_601288" data-name="Trazado 601288" d="M69.528,283.693H69.5a.647.647,0,0,1-.616-.674,9,9,0,0,1,2.218-5.51.646.646,0,0,1,.971.852,7.7,7.7,0,0,0-1.9,4.716.645.645,0,0,1-.645.616" transform="translate(20.088 80.864)" fill="#5c3414"/>
        <path id="Trazado_601289" data-name="Trazado 601289" d="M72.154,279.5a.634.634,0,0,1-.283-.066,8.9,8.9,0,0,1-1.841-1.312,8.952,8.952,0,0,0-1.395-1.046,4.114,4.114,0,0,0-3-.386.646.646,0,0,1-.323-1.25,5.4,5.4,0,0,1,3.955.509,10.069,10.069,0,0,1,1.6,1.19,7.83,7.83,0,0,0,1.569,1.137.645.645,0,0,1-.284,1.226" transform="translate(18.904 80.275)" fill="#5c3414"/>
        <path id="Trazado_601290" data-name="Trazado 601290" d="M66.763,280.435a.6.6,0,0,1-.134-.014.647.647,0,0,1-.5-.766,16,16,0,0,1,.907-3.166,5.8,5.8,0,0,1,2.242-2.7.646.646,0,0,1,.661,1.109,4.607,4.607,0,0,0-1.722,2.112,14.907,14.907,0,0,0-.824,2.914.647.647,0,0,1-.632.511" transform="translate(19.281 79.817)" fill="#5c3414"/>
        <path id="Trazado_601291" data-name="Trazado 601291" d="M66.076,277.641l-.65-.017-.629-.161c.726-5.213,2.559-6.394,3.968-6.466a.646.646,0,0,1,.067,1.29c-1.286.066-2.291,2.018-2.756,5.354m-.65-.017h0Z" transform="translate(18.896 79.029)" fill="#5c3414"/>
        <path id="Trazado_601292" data-name="Trazado 601292" d="M70.229,275.4a.644.644,0,0,1-.509-.248c-.8-1.023-3.595-2.328-4.937-1.812a.645.645,0,1,1-.465-1.2c2.114-.818,5.426.952,6.418,2.22a.645.645,0,0,1-.508,1.044" transform="translate(18.636 79.302)" fill="#5c3414"/>
        <path id="Trazado_601293" data-name="Trazado 601293" d="M61.6,288.331h-.03a.646.646,0,0,1-.616-.673,14.963,14.963,0,0,0-1.119-6.326,5.727,5.727,0,0,0-.971-1.661,2.7,2.7,0,0,0-2.339-.918.646.646,0,1,1-.092-1.288,4,4,0,0,1,3.378,1.33,6.829,6.829,0,0,1,1.217,2.041,16.2,16.2,0,0,1,1.215,6.877.644.644,0,0,1-.643.619" transform="translate(16.282 80.912)" fill="#5c3414"/>
        <path id="Trazado_601294" data-name="Trazado 601294" d="M69.7,290.581a.725.725,0,0,1-.118-.01.647.647,0,0,1-.518-.753,8.826,8.826,0,0,1,3.41-5.134c2.861-2.05,8.274-.252,8.5-.174a.646.646,0,0,1-.413,1.224c-.05-.018-5.012-1.666-7.339,0a7.572,7.572,0,0,0-2.892,4.319.647.647,0,0,1-.634.528" transform="translate(20.138 82.736)" fill="#5c3414"/>
        <path id="Trazado_601295" data-name="Trazado 601295" d="M20.762,126.075c-.443,1.55-10.847,56.449-6.2,77.7,0,0-.221,44.938-.221,46.709s-.664,56.449-.664,56.449,1.479,5.492,2.878,6.642c2.742,2.255,13.88,3.017,13.88,3.017a1.652,1.652,0,0,0,1.9-1.046,91.2,91.2,0,0,0,3.7-12.375c1.107-5.757,3.542-61.763,3.542-61.763s5.495-46.57,7.748-54.456c.442-1.55,4.206-12.176,4.206-12.176s5.755,21.916,5.755,24.351.664,23.687,4.428,31.877c0,0-3.265,79.067,7.305,86.113.664.443,13.3-1.365,16.16-4.428,1.319-1.413,1.328-5.533,1.771-7.526s-1.55-69.51-1.771-73.716,7.526-83.014-3.764-107.807Z" transform="translate(3.899 36.057)" fill="#47608a"/>
        <path id="Trazado_601296" data-name="Trazado 601296" d="M17.4,143.615l.124,2.61s5.94-.372,7.426.619,5.321,5.94,7.055,5.94,1.113,3.095-2.475,2.847c-1.625-.111-6.973-3.465-6.973-3.465S20.374,167.636,20,167.636s-11.015-13-12.006-14.6-2.57-4.284-2.57-4.284c-.252-.958-2.442-7.884-4.123-16.61-1.786-9.279-1.3-31.5-1.055-40.086.214-7.6,3.166-13.362,9.495-13.362,10.549,0,6.582,10.456,7.033,19.691.7,14.417-.856,43.09.628,45.234" transform="translate(0 22.948)" fill="#fccdae"/>
        <path id="Trazado_601297" data-name="Trazado 601297" d="M75.6,140.227l-.124,2.61s-5.94-.372-7.426.619S62.732,149.4,61,149.4s-1.113,3.095,2.475,2.847c1.625-.111,6.973-3.465,6.973-3.465S72.632,164.249,73,164.249s11.015-13,12.006-14.6,2.57-4.284,2.57-4.284c.252-.958-.066-44.725-.307-53.309-.213-7.6-3.164-13.362-9.493-13.362-10.549,0-6.582,10.456-7.033,19.692-.7,14.416,6.341,39.7,4.857,41.846" transform="translate(17.518 22.948)" fill="#fccdae"/>
        <path id="Trazado_601298" data-name="Trazado 601298" d="M104.312,98.331c-.194-9.922-2.9-43.036-21.623-44.971L66.585,46.2l-.672-1.142a2.437,2.437,0,0,0-4.144-.076c-1.925,2.918-5.13,6.564-9.114,6.564-4.729,0-9.5-4.565-11.857-7.194a2.435,2.435,0,0,0-3.381-.247l-3.65,3.056L19.71,53.444C11.725,56.3,4.789,60.218,3.65,68.2c-.7,4.92-1.777,18-2.968,28.856-.739,6.762,15.975,7.379,15.975,7.379l2.4-10.482s-.342,38.877,4.085,44.632l1.33,10.847L47.8,148.5,85.124,147l-.664-11.511a10.777,10.777,0,0,0,1.328-5.535c.291-11.424-.329-35.682-.664-39.847,0,0,1.692,9.5,2.8,11.273Z" transform="translate(0.192 12.697)" fill="#dbdff0"/>
        <path id="Trazado_601299" data-name="Trazado 601299" d="M79.993,123.64l-37.327,1.5-23.328.936s-1.665,3.751-.874,4.619c1.11,1.215,62.887-1.66,63.317-2.215.789-1.02-1.788-4.838-1.788-4.838" transform="translate(5.322 36.057)" fill="#de9654"/>
        <path id="Trazado_601300" data-name="Trazado 601300" d="M36.825,63.262a1.279,1.279,0,0,1-.338-.047,1.761,1.761,0,0,1-.789-.536c-3.992-4.209-8.2-9.227-9.172-14.544A.646.646,0,0,1,27.8,47.9c.905,4.983,4.977,9.815,8.839,13.885a1.162,1.162,0,0,0,.2.182,1.347,1.347,0,0,0,.386-.364c.553-.688,1.077-1.379,1.6-2.063a28.949,28.949,0,0,1,5.757-6.2.645.645,0,1,1,.769,1.037,27.977,27.977,0,0,0-5.5,5.947c-.526.691-1.057,1.39-1.617,2.089a1.867,1.867,0,0,1-1.4.846" transform="translate(7.732 13.815)" fill="#acb1bf"/>
        <path id="Trazado_601301" data-name="Trazado 601301" d="M49.226,62.561a1.742,1.742,0,0,1-1.342-.882,51.265,51.265,0,0,0-5.994-6.915.646.646,0,0,1,.9-.93,52.642,52.642,0,0,1,6.144,7.09,1.2,1.2,0,0,0,.32.34c-.025-.026.039-.1.062-.133a20.463,20.463,0,0,0,4.363-14.963.646.646,0,1,1,1.283-.149,21.485,21.485,0,0,1-4.642,15.927,1.578,1.578,0,0,1-.743.562,1.181,1.181,0,0,1-.349.054" transform="translate(12.159 13.253)" fill="#acb1bf"/>
        <path id="Trazado_601302" data-name="Trazado 601302" d="M42.958,145.487a.646.646,0,0,1-.646-.646V69.961A109.5,109.5,0,0,0,40.78,54.1a.646.646,0,0,1,1.274-.217A110.848,110.848,0,0,1,43.6,69.947v74.895a.647.647,0,0,1-.646.646" transform="translate(11.89 15.556)" fill="#acb1bf"/>
        <path id="Trazado_601303" data-name="Trazado 601303" d="M41.122,61.519A1.026,1.026,0,1,1,40.1,60.357a1.1,1.1,0,0,1,1.018,1.162" transform="translate(11.399 17.602)" fill="#acb1bf"/>
        <path id="Trazado_601304" data-name="Trazado 601304" d="M41.122,67.821A1.026,1.026,0,1,1,40.1,66.659a1.1,1.1,0,0,1,1.018,1.162" transform="translate(11.399 19.439)" fill="#acb1bf"/>
        <path id="Trazado_601305" data-name="Trazado 601305" d="M41.122,73.785A1.026,1.026,0,1,1,40.1,72.623a1.1,1.1,0,0,1,1.018,1.162" transform="translate(11.399 21.179)" fill="#acb1bf"/>
        <path id="Trazado_601306" data-name="Trazado 601306" d="M41.122,80.087A1.026,1.026,0,1,1,40.1,78.925a1.1,1.1,0,0,1,1.018,1.162" transform="translate(11.399 23.017)" fill="#acb1bf"/>
        <path id="Trazado_601307" data-name="Trazado 601307" d="M41.122,86.407A1.026,1.026,0,1,1,40.1,85.245a1.1,1.1,0,0,1,1.018,1.162" transform="translate(11.399 24.86)" fill="#acb1bf"/>
        <path id="Trazado_601308" data-name="Trazado 601308" d="M41.122,92.758A1.026,1.026,0,1,1,40.1,91.6a1.1,1.1,0,0,1,1.018,1.162" transform="translate(11.399 26.712)" fill="#acb1bf"/>
        <path id="Trazado_601309" data-name="Trazado 601309" d="M41.122,99.554A1.026,1.026,0,1,1,40.1,98.392a1.1,1.1,0,0,1,1.018,1.162" transform="translate(11.399 28.694)" fill="#acb1bf"/>
        <path id="Trazado_601310" data-name="Trazado 601310" d="M41.122,105.856a1.026,1.026,0,1,1-1.018-1.162,1.1,1.1,0,0,1,1.018,1.162" transform="translate(11.399 30.531)" fill="#acb1bf"/>
        <path id="Trazado_601311" data-name="Trazado 601311" d="M41.122,112.406a1.026,1.026,0,1,1-1.018-1.162,1.1,1.1,0,0,1,1.018,1.162" transform="translate(11.399 32.442)" fill="#acb1bf"/>
        <path id="Trazado_601312" data-name="Trazado 601312" d="M41.122,117.6a1.026,1.026,0,1,1-1.018-1.162,1.1,1.1,0,0,1,1.018,1.162" transform="translate(11.399 33.957)" fill="#acb1bf"/>
        <path id="Trazado_601313" data-name="Trazado 601313" d="M16.558,67.523a.645.645,0,0,1-.607-.426l-.183-.508c-1.183-3.281-2.524-7-5.015-9.36a8.09,8.09,0,0,0-1.436-.965.645.645,0,0,1-.708-.961.867.867,0,0,1,.546-.353c.843-.107,2.47,1.326,2.485,1.341,2.715,2.572,4.111,6.444,5.343,9.86l.182.506a.645.645,0,0,1-.387.827.62.62,0,0,1-.22.039" transform="translate(2.483 16.023)" fill="#acb1bf"/>
        <path id="Trazado_601314" data-name="Trazado 601314" d="M15.212,86.812a.682.682,0,0,1-.072,0,.645.645,0,0,1-.57-.714,89.96,89.96,0,0,0,.111-12.356c-.067-1.925-.132-3.795-.139-5.509a.645.645,0,0,1,.643-.648.63.63,0,0,1,.648.642c.008,1.7.072,3.558.138,5.471a90.718,90.718,0,0,1-.118,12.544.648.648,0,0,1-.642.573" transform="translate(4.241 19.708)" fill="#acb1bf"/>
        <path id="Trazado_601315" data-name="Trazado 601315" d="M14.667,89.938a.647.647,0,0,1-.149-.017l-1.474-.338c-2.747-.625-5.86-1.332-7.444-2.189a7.35,7.35,0,0,1-3.564-3.225.646.646,0,1,1,1.187-.509,6.221,6.221,0,0,0,2.991,2.6,36.479,36.479,0,0,0,7.114,2.064l1.484.341a.646.646,0,0,1-.147,1.275" transform="translate(0.579 24.283)" fill="#acb1bf"/>
        <path id="Trazado_601316" data-name="Trazado 601316" d="M69.156,86.874a.646.646,0,0,1-.035-1.29c2.839-.159,10.562-.92,12.165-2.524a.646.646,0,1,1,.913.913c-2.24,2.241-11.911,2.839-13.007,2.9h-.036" transform="translate(19.979 24.167)" fill="#acb1bf"/>
        <path id="Trazado_601317" data-name="Trazado 601317" d="M65.216,73.269a.646.646,0,0,1-.641-.566c-1.732-13.862-1-20.042-.967-20.3a.646.646,0,0,1,1.281.16c-.008.062-.74,6.307.969,19.978a.647.647,0,0,1-.562.721.568.568,0,0,1-.08.005" transform="translate(18.497 15.118)" fill="#acb1bf"/>
        <path id="Trazado_601318" data-name="Trazado 601318" d="M66.269,80.865a.647.647,0,0,1-.641-.566L64.467,71a.646.646,0,1,1,1.281-.16l1.162,9.295a.647.647,0,0,1-.562.721.545.545,0,0,1-.08.005" transform="translate(18.799 20.495)" fill="#acb1bf"/>
        <path id="Trazado_601319" data-name="Trazado 601319" d="M43.986,163.383c-1.9-4.348-5.075-14.374-5.209-14.8l1.231-.387c.034.1,3.287,10.386,5.161,14.672Z" transform="translate(11.308 43.217)" fill="#334769"/>
        <path id="Trazado_601320" data-name="Trazado 601320" d="M27.787,292.972l-1.285-.127c.019-.194,1.906-19.615,1.906-42.78,0-13.33,1.793-26.31,3.372-37.763,1.232-8.926,2.4-17.359,2.631-25.02.548-17.751,11.226-31.091,11.334-31.224l1,.814c-.1.13-10.511,13.149-11.045,30.45-.238,7.729-1.407,16.2-2.643,25.157-1.652,11.97-3.361,24.345-3.361,37.586,0,23.231-1.894,42.713-1.913,42.906" transform="translate(7.729 45.51)" fill="#334769"/>
        <path id="Trazado_601321" data-name="Trazado 601321" d="M68.709,149.921c-5.9,0-8.7-11.468-8.815-11.958l1.257-.3c.728,3.051,3.5,10.965,7.559,10.965Z" transform="translate(17.467 40.147)" fill="#334769"/>
        <path id="Trazado_601322" data-name="Trazado 601322" d="M54.612,124.347a.645.645,0,0,1-.274-1.23c1.069-.5,3.974-2.193,4.572-3.986a.646.646,0,1,1,1.224.409c-.9,2.687-5.074,4.663-5.25,4.745a.639.639,0,0,1-.273.061" transform="translate(15.738 34.612)" fill="#acb1bf"/>
        <path id="Trazado_601323" data-name="Trazado 601323" d="M62.734,31.664c0,13.146-9.623,21.967-15.807,21.983-9.406.025-16.119-3.795-17.766-16.838s2.4-30.4,11.805-30.4c24.285,0,21.768,8.691,21.768,25.25" transform="translate(8.4 1.87)" fill="#fccdae"/>
        <path id="Trazado_601324" data-name="Trazado 601324" d="M30.266,36.912s1.757-6.2,4.2-9.909c3.031-4.6.471-11.267.471-11.267s31.427,10.591,28.726-.373c0,0,5.948-2.776,4.925-8.649S54.048-3.721,47.224,4.355c0,0-15.5-10.927-16.125,5.435,0,0-6.666-2.914-8.124,6.949a4.7,4.7,0,0,0,3.542,5.6,9.705,9.705,0,0,0-2.5,3.362c-1.465,3.995.625,9.415,6.25,11.207" transform="translate(6.677 0)" fill="#885732"/>
        <path id="Trazado_601325" data-name="Trazado 601325" d="M32.6,22.057s-5.881-4.376-5.811,2.869,2.44,7.745,4.782,7.134Z" transform="translate(7.812 6.05)" fill="#fccdae"/>
        <path id="Trazado_601326" data-name="Trazado 601326" d="M38.427,17.8c-2.174.327-2.715.986-2.873,1.2a2.4,2.4,0,0,0-.4,1.673,19.152,19.152,0,0,1,4.807-.944,19.367,19.367,0,0,1,3.416.077c.642-.674.643-1.068.568-1.288-.372-1.076-3.672-1-5.522-.722" transform="translate(10.248 5.139)" fill="#443139"/>
        <path id="Trazado_601327" data-name="Trazado 601327" d="M52.608,17.8c2.174.327,2.715.986,2.873,1.2a2.4,2.4,0,0,1,.4,1.673,19.152,19.152,0,0,0-4.807-.944,19.367,19.367,0,0,0-3.416.077c-.642-.674-.643-1.068-.568-1.288.372-1.076,3.672-1,5.522-.722" transform="translate(13.722 5.139)" fill="#443139"/>
        <path id="Trazado_601328" data-name="Trazado 601328" d="M40.384,23.631a1.442,1.442,0,1,1-1.423-1.675,1.565,1.565,0,0,1,1.423,1.675" transform="translate(10.947 6.403)" fill="#443139"/>
        <path id="Trazado_601329" data-name="Trazado 601329" d="M51.594,23.631a1.442,1.442,0,1,1-1.422-1.675,1.565,1.565,0,0,1,1.422,1.675" transform="translate(14.216 6.403)" fill="#443139"/>
        <path id="Trazado_601330" data-name="Trazado 601330" d="M47.227,34.724a.646.646,0,0,1-.081-1.286c.982-.127,1.6-.557,1.735-1.21a2.547,2.547,0,0,0-1.448-2.43c-3.025-1.813-3.112-4.444-2.734-5.584a.646.646,0,0,1,1.227.4c-.032.1-.69,2.359,2.171,4.075a3.77,3.77,0,0,1,2.049,3.8,3,3,0,0,1-2.835,2.228.592.592,0,0,1-.083.005" transform="translate(12.989 6.932)" fill="#c8a58d"/>
        <path id="Trazado_601331" data-name="Trazado 601331" d="M47.276,36.788c-.717,0-1.652-.017-2.851-.067-3.822-.159-6.471-3.379-6.582-3.516a.646.646,0,0,1,1-.812c.023.028,2.4,2.9,5.633,3.038a35.457,35.457,0,0,0,4.661.005.646.646,0,0,1,.159,1.281,19.011,19.011,0,0,1-2.024.071" transform="translate(10.994 9.377)" fill="#c8a58d"/>
        <path id="Trazado_601332" data-name="Trazado 601332" d="M43.784,45.094c-5.235,0-9.555-3.739-9.787-3.942a.646.646,0,0,1,.854-.97c.066.059,6.673,5.755,12.936,2.7a.645.645,0,1,1,.566,1.16,10.3,10.3,0,0,1-4.568,1.053" transform="translate(9.851 11.671)" fill="#c8a58d"/>
        <path id="Trazado_601333" data-name="Trazado 601333" d="M10.522,101.624a.632.632,0,0,1-.128-.013l-4.181-.836a.646.646,0,0,1,.253-1.267l4.182.837a.646.646,0,0,1-.127,1.279" transform="translate(1.661 29.015)" fill="#c8a58d"/>
        <path id="Trazado_601334" data-name="Trazado 601334" d="M72.385,99.681A.646.646,0,0,1,72.27,98.4l4.6-.836a.645.645,0,0,1,.231,1.27l-4.6.837a.59.59,0,0,1-.116.01" transform="translate(20.921 28.449)" fill="#c8a58d"/>
      </g>
    </g>
    <g id="Grupo_870616" data-name="Grupo 870616" transform="translate(1065.707 10995.031)">
      <path id="Sustracción_7" data-name="Sustracción 7" d="M123.091,50.022H0V6.094H15.76L18.868,0H144.293V40.927H126.12l-3.028,9.095Z" transform="translate(0 0)" fill="#bdcbd9"/>
      <path id="Trazado_836436" data-name="Trazado 836436" d="M29.577,11.576H27.594V16H25.1V3.914h4.491a5.076,5.076,0,0,1,3.3.955,3.3,3.3,0,0,1,1.162,2.7,3.718,3.718,0,0,1-.535,2.063A3.651,3.651,0,0,1,31.9,10.945l2.615,4.939V16H31.844ZM27.594,9.559H29.6a2.057,2.057,0,0,0,1.453-.477,1.706,1.706,0,0,0,.515-1.316,1.826,1.826,0,0,0-.486-1.345,2.018,2.018,0,0,0-1.49-.49h-2Zm12.335,6.607a4.409,4.409,0,0,1-3.217-1.212,4.308,4.308,0,0,1-1.241-3.229v-.232a5.426,5.426,0,0,1,.523-2.42,3.838,3.838,0,0,1,1.482-1.644,4.159,4.159,0,0,1,2.187-.577,3.727,3.727,0,0,1,2.9,1.162,4.722,4.722,0,0,1,1.058,3.3v.979H37.9a2.229,2.229,0,0,0,.7,1.411,2.12,2.12,0,0,0,1.482.531,2.589,2.589,0,0,0,2.167-1l1.179,1.32a3.6,3.6,0,0,1-1.461,1.191A4.793,4.793,0,0,1,39.929,16.166Zm-.274-7.379A1.5,1.5,0,0,0,38.5,9.27a2.5,2.5,0,0,0-.569,1.384h3.337v-.192a1.786,1.786,0,0,0-.432-1.238A1.547,1.547,0,0,0,39.655,8.787Zm8.2-3.976V7.019h1.536v1.76H47.856v4.482a1.07,1.07,0,0,0,.191.714.959.959,0,0,0,.73.216,3.826,3.826,0,0,0,.706-.058V15.95a4.939,4.939,0,0,1-1.453.216,2.29,2.29,0,0,1-2.573-2.548V8.778H44.145V7.019h1.312V4.811Zm7.006,11.355a4.409,4.409,0,0,1-3.217-1.212A4.308,4.308,0,0,1,50.4,11.725v-.232a5.426,5.426,0,0,1,.523-2.42,3.838,3.838,0,0,1,1.482-1.644A4.159,4.159,0,0,1,54.6,6.853a3.727,3.727,0,0,1,2.9,1.162,4.722,4.722,0,0,1,1.058,3.3v.979H52.836a2.229,2.229,0,0,0,.7,1.411,2.12,2.12,0,0,0,1.482.531,2.589,2.589,0,0,0,2.167-1l1.179,1.32A3.6,3.6,0,0,1,56.9,15.739,4.793,4.793,0,0,1,54.862,16.166Zm-.274-7.379a1.5,1.5,0,0,0-1.158.484,2.5,2.5,0,0,0-.569,1.384H56.2v-.192a1.786,1.786,0,0,0-.432-1.238A1.547,1.547,0,0,0,54.588,8.787Zm7.537-1.768L62.2,8.056a3.136,3.136,0,0,1,2.582-1.2,2.606,2.606,0,0,1,2.125.838A3.912,3.912,0,0,1,67.62,10.2V16h-2.4V10.256a1.556,1.556,0,0,0-.332-1.108,1.486,1.486,0,0,0-1.1-.344,1.65,1.65,0,0,0-1.519.863V16h-2.4V7.019Zm11.447,9.147a4.409,4.409,0,0,1-3.217-1.212,4.308,4.308,0,0,1-1.241-3.229v-.232a5.426,5.426,0,0,1,.523-2.42,3.838,3.838,0,0,1,1.482-1.644,4.159,4.159,0,0,1,2.187-.577,3.727,3.727,0,0,1,2.9,1.162,4.722,4.722,0,0,1,1.058,3.3v.979H71.546a2.229,2.229,0,0,0,.7,1.411,2.12,2.12,0,0,0,1.482.531,2.589,2.589,0,0,0,2.167-1l1.179,1.32a3.6,3.6,0,0,1-1.461,1.191A4.793,4.793,0,0,1,73.572,16.166ZM73.3,8.787a1.5,1.5,0,0,0-1.158.484,2.5,2.5,0,0,0-.569,1.384h3.337v-.192a1.786,1.786,0,0,0-.432-1.238A1.547,1.547,0,0,0,73.3,8.787Zm10.376.481A6.517,6.517,0,0,0,82.81,9.2a1.757,1.757,0,0,0-1.785.921V16h-2.4V7.019h2.266l.066,1.071a2.223,2.223,0,0,1,2-1.237,2.514,2.514,0,0,1,.747.108Z" transform="translate(18.999 13.642)" fill="#12263f"/>
      <path id="Trazado_214008" data-name="Trazado 214008" d="M-.808,1.311H26.244V7.625H-4Z" transform="translate(118.049 42.396)" fill="#7f8a9c"/>
    </g>
    <g id="Grupo_886083" data-name="Grupo 886083" transform="translate(869.514 10860.693)">
      <g id="Grupo_886082" data-name="Grupo 886082" clip-path="url(#clip-path-2)">
        <path id="Trazado_601335" data-name="Trazado 601335" d="M45.73,3.2C43.774.1,36.429.427,29.084,13.581a27.877,27.877,0,0,0-3.077,7.731c-1.6,7.561,2.246,15.236,2.072,22.962-.241,10.805-8.269,20.508-7.586,31.3A58.285,58.285,0,0,0,30.9,77.575a5.269,5.269,0,0,0,2.891-.28,5.035,5.035,0,0,0,1.974-2.275c2.414-4.49,3.6-9.52,4.761-14.483,1.4-5.978,2.8-12.177,1.6-18.2-.666-3.339-2.111-6.482-2.787-9.818C37.655,24.2,43.034,16.171,46.2,8.292A5.615,5.615,0,0,0,45.73,3.2" transform="translate(6.087 0.471)" fill="#4f241f"/>
        <path id="Trazado_601336" data-name="Trazado 601336" d="M66.64,142.779c.344,1.376,19.594,64.632,20.627,70.476.614,3.485-2.9,32.433-5.833,55.234-.6,4.631-.16,8.564-.67,12.424-.48,3.637-1.911,7.259-2.245,9.753-.494,3.676-.793,5.869-.793,5.869l-16.022.128a42.292,42.292,0,0,1-2.263-11.03c-.189-2.555.812-7.286.609-10.2-.579-8.3-.933-15.47-1.085-20.878-.17-6.147,2.86-29.608,2.86-29.608s-23.721-44-24.751-50.192S42.23,144.5,42.23,144.5Z" transform="translate(11 42.497)" fill="#2b7f9d"/>
        <path id="Trazado_601337" data-name="Trazado 601337" d="M21.991,299.259l13.537.3a36.743,36.743,0,0,0,2.564-12.451c.131-2.713-2.3-5.926-2.2-9.155.069-2.127,1.721-6.53,1.831-8.789.981-20.084,1.879-41.891,3.436-45.785,2.751-6.876,4.893-48.621,4.893-48.621L51.212,144.5s-43.317-4.125-44.348.344,7.908,60.507,8.25,65.32-3.781,23.721-2.062,33.347c.9,5.049,3.315,20.137,5.409,33.346.291,1.83.574,3.623.846,5.349.327,2.068-.728,4.544-.441,6.362a39.074,39.074,0,0,0,3.125,10.69" transform="translate(2.018 42.494)" fill="#2b7f9d"/>
        <path id="Trazado_601338" data-name="Trazado 601338" d="M31.592,46.235S47.323,85.4,55.021,86.364,75.87,89.252,75.87,83.478,53.505,48.2,53.505,48.2l.875-9.3L38.437,35.725Z" transform="translate(9.403 10.633)" fill="#fabeab"/>
        <path id="Trazado_601339" data-name="Trazado 601339" d="M65.853,28.93c0,13.207-12.765,23.934-18.931,23.173-9.378-1.159-15.59-5.811-15.59-19.02S32.164,7.71,41.615,7.71s24.239,8.013,24.239,21.22" transform="translate(9.326 2.295)" fill="#fabeab"/>
        <path id="Trazado_601340" data-name="Trazado 601340" d="M35.319,22.852a1.429,1.429,0,0,1-1.429-1.429c0-.789.64-.8,1.429-.8s1.429.014,1.429.8a1.429,1.429,0,0,1-1.429,1.429" transform="translate(10.087 6.137)" fill="#3d251e"/>
        <path id="Trazado_601341" data-name="Trazado 601341" d="M45.673,60.546c3.959,3.748,11.806,3.282,26.878,3.02,7.795-.135,12.261,81.153-1.05,105.077,1.748,3.513-39.262,12.983-48.27,2.908-4.583-5.127,22.441-111,22.441-111" transform="translate(6.759 18.021)" fill="#faa53d"/>
        <path id="Trazado_601342" data-name="Trazado 601342" d="M41,43.824c-13.737.981-14.682,4.2-19.871,8.7-7.971,6.91-10.407,24.84-8.66,45.226.934,10.907,8.191,23.019,7.7,25.019C17.033,135.449,9.178,147.12,5.345,155.353c-11.212,24.079-1.3,79.281-1.3,79.281S36.315,239.8,56.07,235.7c6.784-1.408,8.891-13.829,9.1-20.755C65.5,203.9,73.2,108.878,68.913,84.246c-.474-2.716-9.185-18.371-14.613-26C46.452,47.212,41,43.824,41,43.824" transform="translate(0 13.044)" fill="#98939c"/>
        <path id="Trazado_601343" data-name="Trazado 601343" d="M48.487,45.341C47.533,44.387,66.8,76.085,68.11,84.588s1.309,40.228-.327,49.386-7.071,27.725-6.54,37.285c.655,11.816,10.8,65.6,18.961,58.528,8.336-7.224-14.449-45.85-8.169-79.786,1.473-7.956,12.1-51.022,8.83-65.74S77.182,62.423,71.3,55.882s-21.5-9.233-22.809-10.541" transform="translate(14.422 13.489)" fill="#98939c"/>
        <path id="Trazado_601344" data-name="Trazado 601344" d="M55.576,146.247,32.9,154.426s7.063,22.305,8.178,22.305,46.1-15.242,46.1-15.242-1.487-24.165-2.6-23.792-29,8.55-29,8.55" transform="translate(9.793 40.983)" fill="#f4866a"/>
        <path id="Trazado_601345" data-name="Trazado 601345" d="M14.577,97.2l-1.132-.16a21.64,21.64,0,0,1,4.428-10.358l.9.707a20.5,20.5,0,0,0-4.194,9.81" transform="translate(4.002 25.802)" fill="#7b7c7f"/>
        <path id="Trazado_601346" data-name="Trazado 601346" d="M26.384,113.387a23.09,23.09,0,0,1-9.547-2.53l.52-1.019c3.536,1.809,8.817,3.173,12.06,1.9,3.133-1.231,4.817-5.261,6.169-8.5l.121-.288a21.273,21.273,0,0,0,1.168-7.986,25.931,25.931,0,0,0-.689-7.569l1.1-.319a26.893,26.893,0,0,1,.734,7.9,22.243,22.243,0,0,1-1.256,8.413l-.121.288c-1.436,3.437-3.223,7.714-6.806,9.121a9.456,9.456,0,0,1-3.452.585" transform="translate(5.011 25.918)" fill="#7b7c7f"/>
        <path id="Trazado_601347" data-name="Trazado 601347" d="M6.657,212.121c-2.53-17.957-4.931-38.783-1.357-58.689a59.77,59.77,0,0,1,4.768-15.385l14.867-31.779,1.036.484L11.1,138.531a58.749,58.749,0,0,0-4.677,15.1c-3.543,19.74-1.154,40.458,1.364,58.328Z" transform="translate(1.039 31.63)" fill="#7b7c7f"/>
        <path id="Trazado_601348" data-name="Trazado 601348" d="M36.033,97.768a3.778,3.778,0,0,1-2.07-1.045,4.019,4.019,0,0,0-1.444-.872l-1.033-.173.7-.776a23.844,23.844,0,0,0,4.3-6.7l1.052.448a25.029,25.029,0,0,1-3.959,6.406,8.925,8.925,0,0,1,1.089.769c.738.58,1.242.943,1.536.736l.662.934a1.423,1.423,0,0,1-.834.275" transform="translate(9.372 26.252)" fill="#7b7c7f"/>
        <path id="Trazado_601349" data-name="Trazado 601349" d="M44.831.4c3.6-1.565,16.086,1.81,18.934,3.912,4.8,3.541,5.6,8.762,6.017,14.71a200.829,200.829,0,0,1,.182,25.2,27.209,27.209,0,0,1-1.237,7.734,47.53,47.53,0,0,0-1.948,5.035,16.856,16.856,0,0,0-.009,5.941c1.045,8.332,6.236,18.369,10.314,25.709,4.564,8.214-3.649,8.876-4.115,8.479S51.018,71.348,50.88,57.848a13.434,13.434,0,0,1,3.955-9.077c2.318-2.489,9.4-15.957,6.131-16.88-7.372-2.079-9.509-11.671-10.032-14.284-1.1-5.477-7.639-6.915-13.982-7.147,0,0-4.051-4.871,7.879-10.058" transform="translate(10.801 0)" fill="#602f2a"/>
        <path id="Trazado_601350" data-name="Trazado 601350" d="M55.669,25.345s2.8-5.521,4.05-2.392-1.1,9.231-5.633,9.857Z" transform="translate(16.098 6.546)" fill="#fabeab"/>
        <path id="Trazado_601351" data-name="Trazado 601351" d="M25.979,125.587,24.84,125.5a138.128,138.128,0,0,1,2.828-19.083l1.116.247a136.852,136.852,0,0,0-2.8,18.925" transform="translate(7.393 31.674)" fill="#7b7c7f"/>
        <path id="Trazado_601352" data-name="Trazado 601352" d="M18.5,263.364v32.531a15.2,15.2,0,0,1,3.571,1.823c.781.78,5.206.258,8.85.519s8.9,0,8.9,0a31.534,31.534,0,0,0-2.641-14.172c-2.7-6.469-5.148-14.078-5.148-20.4Z" transform="translate(5.507 78.389)" fill="#ca8c46"/>
        <path id="Trazado_601353" data-name="Trazado 601353" d="M20.937,263.364l10.39.3c0,6.326,2.447,13.935,5.146,20.4,0,0-.96,4.093-8.728-1.39s-6.809-19.312-6.809-19.312" transform="translate(6.221 78.389)" fill="#fabeab"/>
        <path id="Trazado_601354" data-name="Trazado 601354" d="M56.854,261.4l-1.06,9.536a11.944,11.944,0,0,0-1.9,3.458c-1.8,5.714.781,23.948.781,23.948h5.206l-1.3-13.8s5.466,13.8,9.891,13.8H93.2s.781-4.165-3.9-5.206A17.4,17.4,0,0,1,79.081,286.1c-3.408-4.662-6.205-12.306-6.205-24.833Z" transform="translate(15.852 77.765)" fill="#ca8c46"/>
        <path id="Trazado_601355" data-name="Trazado 601355" d="M78.257,286.1c-3.409-4.662-6.205-12.3-6.205-24.833l-16.022.13s6.671,20.274,17.189,24.28c3.523,1.343,5.039.423,5.039.423" transform="translate(16.677 77.765)" fill="#fabeab"/>
        <path id="Trazado_601356" data-name="Trazado 601356" d="M44.657,42.709a12.383,12.383,0,0,1-8.09-2.982.571.571,0,0,1,.763-.85c3.088,2.776,8.758,3.9,12.9.986a.572.572,0,0,1,.659.934,10.741,10.741,0,0,1-6.233,1.911" transform="translate(10.828 11.528)" fill="#bb807d"/>
        <path id="Trazado_601357" data-name="Trazado 601357" d="M38.672,34.574a.579.579,0,0,1-.26-.062c-1.357-.694-2.648-1.535-2.9-2.974A4.726,4.726,0,0,1,36.547,28.3l.224-.366a11.655,11.655,0,0,0,1.418-8.2.572.572,0,0,1,1.121-.224,12.817,12.817,0,0,1-1.56,9.012l-.232.379a3.792,3.792,0,0,0-.879,2.445c.164.946,1.2,1.594,2.292,2.151a.572.572,0,0,1-.261,1.081" transform="translate(10.558 5.669)" fill="#bb807d"/>
        <path id="Trazado_601358" data-name="Trazado 601358" d="M39.481,17.475a4.5,4.5,0,0,1,2.739-1.69A5.874,5.874,0,0,1,45.2,16.1a9.237,9.237,0,0,1,2.467,1.34,5.313,5.313,0,0,1,1.91,2.264.564.564,0,0,1-1.028.463l-.069-.138a4.678,4.678,0,0,0-1.588-1.473,7.763,7.763,0,0,0-2.164-.952A4.189,4.189,0,0,0,42.6,17.54a2.576,2.576,0,0,0-1.483,1.106l-.005.009a1.007,1.007,0,1,1-1.667-1.13l.036-.049" transform="translate(11.689 4.676)" fill="#bb807d"/>
        <path id="Trazado_601359" data-name="Trazado 601359" d="M32.521,18.278a3.5,3.5,0,0,1,.925-1.137,2.727,2.727,0,0,1,1.492-.558A3.77,3.77,0,0,1,37.766,17.7l.013.013A.924.924,0,0,1,36.5,19.048a1.236,1.236,0,0,1-.108-.125,2.155,2.155,0,0,0-1.43-.851,1.615,1.615,0,0,0-1.46.792l-.017.023a.571.571,0,0,1-.963-.61" transform="translate(9.659 4.935)" fill="#bb807d"/>
        <path id="Trazado_601360" data-name="Trazado 601360" d="M44.462,22.9a1.429,1.429,0,0,1-1.429-1.429c0-.789.64-.8,1.429-.8s1.429.014,1.429.8A1.429,1.429,0,0,1,44.462,22.9" transform="translate(12.809 6.151)" fill="#3d251e"/>
        <path id="Trazado_601361" data-name="Trazado 601361" d="M22.4,282.8A69.632,69.632,0,0,1,20.4,271.9l-.675-5.272c-1.708-13.331-3.474-27.114-4.294-40.772a84.721,84.721,0,0,1,.156-15.743c.178-1.436.422-2.9.657-4.312.714-4.277,1.449-8.7.437-12.877l1.111-.269c1.068,4.4.311,8.942-.419,13.333-.235,1.4-.476,2.851-.651,4.264a83.7,83.7,0,0,0-.149,15.534c.819,13.619,2.581,27.384,4.287,40.7l.675,5.274a68.67,68.67,0,0,0,1.954,10.715Z" transform="translate(4.509 57.344)" fill="#1b5c73"/>
        <path id="Trazado_601362" data-name="Trazado 601362" d="M28.644,250.006c-2.927-3.762-5.529-7.5-5.213-11.863l.031-.435.427-.084a3.333,3.333,0,0,1,3.559,1.716l-1.016.524a2.217,2.217,0,0,0-1.883-1.156c-.064,3.767,2.324,7.164,5,10.6Z" transform="translate(6.966 70.709)" fill="#1b5c73"/>
        <path id="Trazado_601363" data-name="Trazado 601363" d="M70.208,248.743A120.5,120.5,0,0,0,62.2,230.315l1.007-.541a121.612,121.612,0,0,1,8.088,18.6Z" transform="translate(18.512 68.391)" fill="#1b5c73"/>
        <path id="Trazado_601364" data-name="Trazado 601364" d="M59.828,210.752l-1.091-.339,1.2-3.859a2.626,2.626,0,0,0-.587-2.987c-3.345-5-6.612-10.15-9.708-15.3l.98-.589c3.087,5.136,6.343,10.268,9.678,15.255a3.689,3.689,0,0,1,.728,3.962Z" transform="translate(14.775 55.861)" fill="#1b5c73"/>
        <path id="Trazado_601365" data-name="Trazado 601365" d="M39.311,32.507A10.705,10.705,0,0,0,48.2,29.751a7.917,7.917,0,0,1-2.89,5.464c-1.921,1.37-6.741-1.17-6.514-1.963Z" transform="translate(11.547 8.855)" fill="#fff"/>
        <path id="Trazado_601366" data-name="Trazado 601366" d="M20.179,108.213c-4.461-2.974-2.106-14.393,1.983-17.368s8.148-4.145,10.75-1.914,27.151,56.3,33.47,60.391c0,0,8.2,5.464,8.568,7.323s4.461,24.536,4.461,24.536-2.416,2.268-4.7.842c-1.477-.923-2.212,0-3.853-1.57-.984-.941-1.3-.295-2.6-1.5-5.2-4.832-8.179-17.844-8.179-17.844Z" transform="translate(5.288 26.124)" fill="#fabeab"/>
        <path id="Trazado_601367" data-name="Trazado 601367" d="M77.089,90.14,69.92,149.581l2.017,3.2a8.94,8.94,0,0,1,1.363,5.266l-1.043,18.709s.744,4.461-2.974,1.116-6.32-17.473-7.436-21.934,15.242-65.8,15.242-65.8" transform="translate(18.392 26.83)" fill="#fabeab"/>
        <path id="Trazado_601368" data-name="Trazado 601368" d="M33.984,95.237a201.491,201.491,0,0,0-8.156-38.46l1.09-.345a202.727,202.727,0,0,1,8.2,38.679Z" transform="translate(7.688 16.797)" fill="#7b7c7f"/>
        <path id="Trazado_601369" data-name="Trazado 601369" d="M56.165,141.456c-2.617-6.744-1.523-14.249-.465-21.506l.121-.832c.531-3.661,2.2-8.077,3.812-12.346,1.636-4.326,3.327-8.8,3.811-12.43l1.133.152c-.5,3.759-2.216,8.3-3.875,12.683-1.592,4.212-3.238,8.567-3.751,12.1l-.121.833c-1.036,7.111-2.109,14.465.4,20.928Z" transform="translate(16.235 28.08)" fill="#cc8831"/>
        <path id="Trazado_601370" data-name="Trazado 601370" d="M51.126,102.1c0,2.067-.958,3.744-2.14,3.744s-2.139-1.677-2.139-3.744.958-3.744,2.139-3.744,2.14,1.675,2.14,3.744" transform="translate(13.944 29.274)" fill="#7b7c7f"/>
        <path id="Trazado_601371" data-name="Trazado 601371" d="M51.126,117.95c0,2.068-.958,3.745-2.14,3.745s-2.139-1.677-2.139-3.745.958-3.742,2.139-3.742,2.14,1.675,2.14,3.742" transform="translate(13.944 33.993)" fill="#7b7c7f"/>
        <path id="Trazado_601372" data-name="Trazado 601372" d="M58.605,95.011c-4.115-3.8-8.436-7.486-12.84-10.959a3.7,3.7,0,0,1-1.84-3.136c-.254-2.261-.331-4.734-.4-7.124-.069-2.2-.139-4.465-.348-6.551a24.59,24.59,0,0,1-10.327-2.987l-.2-.113-.067-.223a67.813,67.813,0,0,1-2.812-17.2l1.142-.038a66.691,66.691,0,0,0,2.7,16.681,23.445,23.445,0,0,0,10.11,2.76l.491.019.055.488c.254,2.26.331,4.734.4,7.124.073,2.368.149,4.818.4,7.033a3.743,3.743,0,0,0,.247,1.148,3.842,3.842,0,0,0,1.164,1.217c4.429,3.491,8.772,7.2,12.909,11.017Z" transform="translate(8.859 13.895)" fill="#7b7c7f"/>
        <path id="Trazado_601373" data-name="Trazado 601373" d="M34.945,178.531l-.392,0a71.087,71.087,0,0,1-13.288-1.395c-1.6-.323-3.343-.855-4.127-2.359a5.643,5.643,0,0,1-.492-2.325c-.267-4.347-.282-9.814-.293-15.1-.013-5.271-.026-10.72-.292-15.035l-.115-1.862,1.138,1.478c2.045,2.656,5.965,2.921,9.479,2.961l14.089.16-.013,1.143-14.09-.161c-3.247-.036-6.827-.263-9.265-2.266.189,4.064.2,8.891.212,13.579.013,5.27.026,10.72.292,15.033a4.694,4.694,0,0,0,.365,1.867c.561,1.077,2,1.5,3.339,1.766a69.789,69.789,0,0,0,13.072,1.373c2.34.023,4.725-.141,6.4-1.505l.721.886c-1.856,1.51-4.316,1.765-6.739,1.765" transform="translate(4.746 41.805)" fill="#7b7c7f"/>
        <path id="Trazado_601374" data-name="Trazado 601374" d="M35.014,150.51a66.461,66.461,0,0,1-14.659-1.638l.252-1.115a65.361,65.361,0,0,0,17.988,1.512l.064,1.141q-1.822.1-3.644.1" transform="translate(6.059 43.979)" fill="#7b7c7f"/>
        <path id="Trazado_601375" data-name="Trazado 601375" d="M59.619,162.1a.429.429,0,0,1-.407-.3c-.476-1.47-1-2.882-1.556-4.377a72.387,72.387,0,0,1-2.562-7.829.429.429,0,0,1,.832-.206,71.6,71.6,0,0,0,2.534,7.737c.533,1.438,1.085,2.924,1.566,4.412a.428.428,0,0,1-.407.561" transform="translate(16.395 44.369)" fill="#bb807d"/>
        <path id="Trazado_601376" data-name="Trazado 601376" d="M62.746,164.342h-.021a.429.429,0,0,1-.407-.449c.161-3.358-2.456-14.5-3.889-16.562a.429.429,0,1,1,.7-.491c1.573,2.259,4.216,13.442,4.041,17.094a.428.428,0,0,1-.427.407" transform="translate(17.368 43.652)" fill="#bb807d"/>
        <path id="Trazado_601377" data-name="Trazado 601377" d="M65.984,163.853a.428.428,0,0,1-.418-.336c-.21-.958-.407-1.9-.6-2.821-1-4.725-1.933-9.186-4.073-13.747a.429.429,0,1,1,.776-.365c2.181,4.652,3.131,9.161,4.136,13.935.195.923.392,1.86.6,2.813a.429.429,0,0,1-.327.51.446.446,0,0,1-.092.01" transform="translate(18.112 43.556)" fill="#bb807d"/>
        <path id="Trazado_601378" data-name="Trazado 601378" d="M66.2,156.268a.412.412,0,0,1-.228-.066.429.429,0,0,1-.134-.59c.237-.375.306-2.786-.279-8.345-.091-.85-.24-1.792-.881-2.184a.43.43,0,0,1,.449-.733c1.054.649,1.2,2.065,1.285,2.825.824,7.83.318,8.633.152,8.9a.426.426,0,0,1-.363.2" transform="translate(19.189 42.946)" fill="#bb807d"/>
        <path id="Trazado_601379" data-name="Trazado 601379" d="M68.883,163.073a.42.42,0,0,1-.191-.045.428.428,0,0,1-.192-.575c.644-1.287.485-5.175.331-8.934a68.56,68.56,0,0,1,0-9,.434.434,0,0,1,.471-.382.428.428,0,0,1,.383.471,67.807,67.807,0,0,0,.006,8.875c.173,4.221.322,7.868-.42,9.352a.429.429,0,0,1-.384.237" transform="translate(20.375 42.901)" fill="#bb807d"/>
        <path id="Trazado_601380" data-name="Trazado 601380" d="M21.518,293.4a91.443,91.443,0,0,1-.989-16.374l1.142.034a90.485,90.485,0,0,0,.976,16.169Z" transform="translate(6.099 82.456)" fill="#a67438"/>
      </g>
    </g>
    <g id="Grupo_870618" data-name="Grupo 870618" transform="translate(855.707 10995.031)">
      <path id="Sustracción_7-2" data-name="Sustracción 7" d="M123.091,50.022H0V6.094H15.76L18.868,0H144.293V40.927H126.12l-3.028,9.095Z" transform="translate(0 0)" fill="#6debff"/>
      <path id="Trazado_836435" data-name="Trazado 836435" d="M29.03,3.914l3.1,8.766,3.088-8.766h3.271V16h-2.5V12.7l.249-5.7L32.981,16h-1.71L28.017,7l.249,5.694V16h-2.49V3.914Zm11.106,7.512a5.327,5.327,0,0,1,.515-2.382,3.767,3.767,0,0,1,1.482-1.619,4.323,4.323,0,0,1,2.245-.573,4.09,4.09,0,0,1,2.968,1.112,4.464,4.464,0,0,1,1.282,3.021l.017.614a4.694,4.694,0,0,1-1.154,3.316,4.472,4.472,0,0,1-6.2,0,4.777,4.777,0,0,1-1.158-3.387Zm2.4.17a3.357,3.357,0,0,0,.481,1.958,1.73,1.73,0,0,0,2.739.008,3.674,3.674,0,0,0,.49-2.141,3.324,3.324,0,0,0-.49-1.945,1.592,1.592,0,0,0-1.378-.69,1.566,1.566,0,0,0-1.361.686A3.735,3.735,0,0,0,42.535,11.6ZM52.994,4.811V7.019H54.53v1.76H52.994v4.482a1.07,1.07,0,0,0,.191.714.959.959,0,0,0,.73.216,3.826,3.826,0,0,0,.706-.058V15.95a4.939,4.939,0,0,1-1.453.216A2.29,2.29,0,0,1,50.6,13.618V8.778H49.283V7.019H50.6V4.811ZM58.4,16H55.991V7.019H58.4ZM55.849,4.694a1.181,1.181,0,0,1,.361-.888,1.556,1.556,0,0,1,1.963,0,1.175,1.175,0,0,1,.365.888,1.178,1.178,0,0,1-.369.9,1.539,1.539,0,0,1-1.951,0A1.178,1.178,0,0,1,55.849,4.694Zm7.886,8.375L65.4,7.019H67.91L64.881,16H62.59L59.56,7.019h2.507ZM74.045,16a2.664,2.664,0,0,1-.241-.805,2.9,2.9,0,0,1-2.266.971,3.189,3.189,0,0,1-2.187-.764,2.456,2.456,0,0,1-.867-1.926,2.538,2.538,0,0,1,1.058-2.191,5.222,5.222,0,0,1,3.059-.772h1.1V10a1.48,1.48,0,0,0-.32-1,1.257,1.257,0,0,0-1.009-.374,1.429,1.429,0,0,0-.95.291.987.987,0,0,0-.344.8h-2.4a2.41,2.41,0,0,1,.481-1.444A3.182,3.182,0,0,1,70.525,7.23,4.961,4.961,0,0,1,72.5,6.853a3.92,3.92,0,0,1,2.635.834,2.918,2.918,0,0,1,.975,2.345v3.893a4.294,4.294,0,0,0,.357,1.934V16Zm-1.984-1.668a2.066,2.066,0,0,0,.979-.237,1.554,1.554,0,0,0,.664-.635V11.916h-.9q-1.8,0-1.917,1.245l-.008.141a.96.96,0,0,0,.315.739A1.225,1.225,0,0,0,72.061,14.332ZM83,9.268a6.517,6.517,0,0,0-.863-.066,1.757,1.757,0,0,0-1.785.921V16h-2.4V7.019h2.266l.066,1.071a2.223,2.223,0,0,1,2-1.237,2.514,2.514,0,0,1,.747.108Z" transform="translate(18.999 13.642)" fill="#12263f"/>
      <path id="Trazado_214008-2" data-name="Trazado 214008" d="M-.808,1.311H26.244V7.625H-4Z" transform="translate(118.049 42.396)" fill="#7f8a9c"/>
    </g>
    <g id="Grupo_886085" data-name="Grupo 886085" transform="translate(638.622 10860.693)">
      <g id="Grupo_886084" data-name="Grupo 886084" clip-path="url(#clip-path-3)">
        <path id="Trazado_601381" data-name="Trazado 601381" d="M65.122,263.821c3.628,1.452,9.432-5.078,8.707-9.432l3.627,5.8c.871-.557,2.619,5.359,1.067,10.6-1.081,3.647-5.1,8.31-6.5,4.643-1.485-3.9-6.9-11.62-6.9-11.62" transform="translate(17.578 68.665)" fill="#a7aabd"/>
        <path id="Trazado_601382" data-name="Trazado 601382" d="M44.015,270.539s-7.255,4.353-12.333-.725l-1.248,12.434,12.13-5.905Z" transform="translate(8.215 72.829)" fill="#a7aabd"/>
        <path id="Trazado_601383" data-name="Trazado 601383" d="M44.284,164.1l-.725-31.2,35.549-3.627s6.53,13.059,0,35.549c-7.557,26.032-34.824,143.651-34.824,143.651s-7.023,6.356-14.078-1.62C25.447,301.475,44.284,164.1,44.284,164.1" transform="translate(7.945 34.894)" fill="#443f4b"/>
        <path id="Trazado_601384" data-name="Trazado 601384" d="M20.639,128.7s-3.849,25.482-2.9,63.119c.2,8.065,1.4,36.025,5.815,41.474,14.429,17.825,49.039,66.442,51.878,67.578,3.628,1.452,11.956-8.206,11.23-12.56S47.482,209.96,47.482,209.96l2.9-45.707-.725-31.2Z" transform="translate(4.747 34.74)" fill="#443f4b"/>
        <path id="Trazado_601385" data-name="Trazado 601385" d="M71.7,130.341s2.974-5.106,5.914-6.576,6.125,2.939,5.635,5.144,1.879,1.959-3.715,6.124Z" transform="translate(19.354 33.328)" fill="#e7e9ff"/>
        <path id="Trazado_601386" data-name="Trazado 601386" d="M11.312,135.237a11.434,11.434,0,0,1-1.629-4.658c-.085-2.2,5.047-6.2,9.462-.034Z" transform="translate(2.613 34.35)" fill="#e7e9ff"/>
        <path id="Trazado_601387" data-name="Trazado 601387" d="M30.273,282.294v9.776l2.9,1.452S32.45,298.6,40.43,298.6c4.446,0,8.216-.9,9.3-3.328.865-1.93.034-4.827-3.5-9.005a23.626,23.626,0,0,1-2.175-9.432c0-2.936-2.187-3.932-6.43-3.269a8.8,8.8,0,0,0-7.355,8.728" transform="translate(8.171 73.788)" fill="#8f552f"/>
        <path id="Trazado_601388" data-name="Trazado 601388" d="M49.735,291.3c-1.088,2.428-4.859,3.328-9.3,3.328-7.981,0-7.255-5.078-7.255-5.078l-2.9-1.452s0,3.628.726,4.353l1.45,1.451s0,5.078,7.255,5.078c10.883,0,10.03-7.682,10.03-7.682" transform="translate(8.171 77.763)" fill="#422100"/>
        <path id="Trazado_601389" data-name="Trazado 601389" d="M71.172,272.234c-2.994,1.248-1.452,3.627,2.177,9.432s2.9,15.235,2.9,18.137c0,1.452,2,3.083,4.353,2.993s5.078-1.9,6.53-7.346c2.9-10.882.725-18.137.725-22.49s1.756-8.7-3.322-10.879c-3.316-1.421-5.07-4.093-7.186-4.264a1.246,1.246,0,0,0-1.308,1.56c.824,3.186,1.732,10.109-4.87,12.859" transform="translate(18.783 69.589)" fill="#8f552f"/>
        <path id="Trazado_601390" data-name="Trazado 601390" d="M78.262,301.508c2.358-.09,5.078-1.9,6.53-7.345,2.9-10.883.725-18.138.725-22.492,0-3.214.107-5.435-.9-8.394-.358-1.049,3.384-.935,3.384.512,0,.725,3.377,24.688.42,31.193-3.627,7.98-10.157,6.526-10.157,6.526" transform="translate(21.125 70.876)" fill="#422100"/>
        <path id="Trazado_601391" data-name="Trazado 601391" d="M53.68,39.009c-11.608,3.628-28.3,5.8-34.1,15.235S0,95.293,0,105.45a93.108,93.108,0,0,0,1.208,13.212c.639,4.432,9.132,36.137,11.086,35.737.963-.2,2.1-1.886,3.221-2.253,2.526-.828,4.662.112,6.243,2.219L20.669,109.02l7.98-24.667s-1.116,32.855-3.113,48.166c-.63,4.832,2.053,10.738,2.053,10.738s-2.457,8.373-1.843,9.293c0,0,33.735,14.148,62.031,1.815l.211-6.813s4.106-2.617,4.868-4.07c6.8-12.957,6.356-47.266,6.893-54.776,0,0,10.154,23.937,12.332,26.117.6.6-8.736,16.66-10.517,18.678-2.274,2.579-1.82,5.426-3.02,8.329-.546,1.325-3.215,3.142-3.3,4.409-.21,3.279,6.784,4.83,6.519,9.447,1.873-1.559,5.818-3.421,7.1-5.252,1.2-1.716,6.356-6.451,7.82-7.607,2.01-1.587,8.816-10.892,10.7-13.457,3.152-4.286,3.814-13.137,3.312-18.719-1.591-17.7-7.01-44.436-20.794-54.593S85.24,42.274,85.24,42.274Z" transform="translate(0 10.529)" fill="#fdc179"/>
        <path id="Trazado_601392" data-name="Trazado 601392" d="M40.592,40.557c-.913.467,2.177,4.475,2.177,8.707,0,.725-2.177,6.529-.725,7.98l2.9-2.9S56.554,60.87,59.455,61.6s12.333-1.452,14.51-7.255c0,0,1.479-.349,3.627,4.352,0,0,3.222-4.182-.762-14.572-4.282-11.173-24.936-9.352-36.238-3.565" transform="translate(10.911 9.707)" fill="#e7e9ff"/>
        <path id="Trazado_601393" data-name="Trazado 601393" d="M47.037,41.89s1.2,6.07,4.828,8.972c2.267,1.812,5.078,3.627,5.078,3.627a51.732,51.732,0,0,0,7.981-5.078c2.335-1.868,4.352-7.255,4.352-7.255l-.725-9.432H48.963Z" transform="translate(12.696 8.833)" fill="#c27d6d"/>
        <path id="Trazado_601394" data-name="Trazado 601394" d="M40.3,17.917A80.056,80.056,0,0,0,41.62,32.29c1.924,10.092,12.586,20.881,17.273,20.881,13.165,0,19.477-24.838,19.477-33.652S75.715,1.893,57.122,1.893,40.3,17.917,40.3,17.917" transform="translate(10.866 0.511)" fill="#c27d6d"/>
        <path id="Trazado_601395" data-name="Trazado 601395" d="M79.171,78.308a.637.637,0,0,1-.084-.006.559.559,0,0,1-.47-.636A72.088,72.088,0,0,1,86.3,54.429a.56.56,0,1,1,.988.527,70.943,70.943,0,0,0-7.569,22.876.56.56,0,0,1-.552.476" transform="translate(21.219 14.612)" fill="#bf945d"/>
        <path id="Trazado_601396" data-name="Trazado 601396" d="M24.826,79.493a.431.431,0,0,1-.07-.005.559.559,0,0,1-.485-.624,36.017,36.017,0,0,0-.831-14.739,87.269,87.269,0,0,0-3.854-12.333.559.559,0,1,1,1.039-.413,88.088,88.088,0,0,1,3.9,12.492A36.97,36.97,0,0,1,25.381,79a.56.56,0,0,1-.555.49" transform="translate(5.276 13.773)" fill="#bf945d"/>
        <path id="Trazado_601397" data-name="Trazado 601397" d="M12.863,94.588a.558.558,0,0,1-.215-.043,7.7,7.7,0,0,0-5.7-.058.56.56,0,0,1-.406-1.043,8.847,8.847,0,0,1,6.531.069.559.559,0,0,1-.215,1.076" transform="translate(1.671 25.063)" fill="#bf945d"/>
        <path id="Trazado_601398" data-name="Trazado 601398" d="M91.669,98.95a.558.558,0,0,1-.293-1.035,11.236,11.236,0,0,1,8.384-1.372.559.559,0,1,1-.253,1.088,10.129,10.129,0,0,0-7.546,1.236.554.554,0,0,1-.292.083" transform="translate(24.592 25.982)" fill="#bf945d"/>
        <path id="Trazado_601399" data-name="Trazado 601399" d="M57.049,51.563a.7.7,0,0,1-.1-.009,11.192,11.192,0,0,1-4.416-1.877c-.188-.135-.376-.277-.565-.419a4.8,4.8,0,0,0-2.252-1.178c-1.553-.152-2.807,1.4-3.739,2.762a.56.56,0,0,1-.924-.631c1.106-1.623,2.645-3.458,4.774-3.243a5.668,5.668,0,0,1,2.817,1.4c.18.136.358.272.54.4a10.07,10.07,0,0,0,3.97,1.688.559.559,0,0,1-.1,1.109" transform="translate(12.134 12.673)" fill="#a0a2ad"/>
        <path id="Trazado_601400" data-name="Trazado 601400" d="M56.187,51.806a.559.559,0,0,1-.065-1.115,7.857,7.857,0,0,0,3.67-1.427c.335-.241.667-.512,1-.785,1.205-.988,2.575-2.109,4.262-1.871a5.634,5.634,0,0,1,2.169.946,4.362,4.362,0,0,1,2.306,2.47c.109.237.239.517.406.856a.559.559,0,1,1-1,.5c-.174-.349-.307-.638-.42-.883-.485-1.044-.536-1.153-1.882-1.991a4.734,4.734,0,0,0-1.733-.786c-1.2-.164-2.269.7-3.4,1.627-.352.288-.7.574-1.055.828A8.985,8.985,0,0,1,56.253,51.8a.594.594,0,0,1-.066,0" transform="translate(15.015 12.572)" fill="#a0a2ad"/>
        <path id="Trazado_601401" data-name="Trazado 601401" d="M56.072,57.327a.559.559,0,0,1-.558-.517l-.349-4.628a.557.557,0,0,1,.516-.6.563.563,0,0,1,.6.514l.351,4.628a.56.56,0,0,1-.516.6h-.043" transform="translate(14.89 13.923)" fill="#a0a2ad"/>
        <path id="Trazado_601402" data-name="Trazado 601402" d="M17.9,123.1a.551.551,0,0,1-.184-.032,14.225,14.225,0,0,0-9.122-.057.56.56,0,0,1-.354-1.062,15.352,15.352,0,0,1,9.844.063A.559.559,0,0,1,17.9,123.1" transform="translate(2.12 32.705)" fill="#bf945d"/>
        <path id="Trazado_601403" data-name="Trazado 601403" d="M86.55,126.139a.56.56,0,0,1-.5-.3,10.1,10.1,0,0,0-6.017-4.885.56.56,0,1,1,.309-1.076,11.1,11.1,0,0,1,6.7,5.437.56.56,0,0,1-.232.757.554.554,0,0,1-.262.065" transform="translate(21.495 32.352)" fill="#bf945d"/>
        <path id="Trazado_601404" data-name="Trazado 601404" d="M46.3,126.6c-7.043,0-15.074-.878-21.957-4.793a.559.559,0,1,1,.552-.971c8.244,4.689,18.282,4.884,26.106,4.53,2.193-.1,4.389-.246,6.586-.395,6.784-.457,13.8-.93,20.641.1a.56.56,0,0,1-.166,1.107c-6.724-1.012-13.676-.542-20.4-.09-2.2.149-4.409.3-6.61.4-1.511.069-3.1.117-4.752.117" transform="translate(6.495 32.597)" fill="#bf945d"/>
        <path id="Trazado_601405" data-name="Trazado 601405" d="M42.913,48.567a.56.56,0,0,1-.547-.447,49.678,49.678,0,0,0-2.285-7.839.559.559,0,1,1,1.044-.4A50.782,50.782,0,0,1,43.462,47.9a.56.56,0,0,1-.436.66.578.578,0,0,1-.113.011" transform="translate(10.809 10.668)" fill="#bf945d"/>
        <path id="Trazado_601406" data-name="Trazado 601406" d="M59.406,59.337a.554.554,0,0,1-.163-.024c-.737-.225-1.473-.448-2.2-.7A36.484,36.484,0,0,1,44.36,51.146a.559.559,0,0,1,.752-.828A35.359,35.359,0,0,0,57.4,57.558c.718.244,1.443.465,2.168.684a.559.559,0,0,1-.163,1.095" transform="translate(11.924 13.543)" fill="#bf945d"/>
        <path id="Trazado_601407" data-name="Trazado 601407" d="M56.439,59.168c-.083,0-.164,0-.246,0a.558.558,0,0,1-.54-.578.53.53,0,0,1,.577-.54,13.843,13.843,0,0,0,5.511-1.436,22.2,22.2,0,0,0,4.429-2.239,7.067,7.067,0,0,0,2.808-3.681.559.559,0,0,1,1.078.3,8.163,8.163,0,0,1-3.237,4.294,23.033,23.033,0,0,1-4.65,2.362,15.222,15.222,0,0,1-5.73,1.524" transform="translate(15.022 13.572)" fill="#bf945d"/>
        <path id="Trazado_601408" data-name="Trazado 601408" d="M41.712,52.25a.56.56,0,0,1-.519-.352,56.739,56.739,0,0,1-3.044-10.441.559.559,0,0,1,1.1-.208,55.67,55.67,0,0,0,2.984,10.234.559.559,0,0,1-.519.767" transform="translate(10.295 11.011)" fill="#bf945d"/>
        <path id="Trazado_601409" data-name="Trazado 601409" d="M58.822,61.788a8.876,8.876,0,0,1-3.311-.644,16.98,16.98,0,0,1-2.893-1.633l-9.963-6.526a.559.559,0,1,1,.612-.936l9.964,6.526a16.045,16.045,0,0,0,2.7,1.533,7.708,7.708,0,0,0,3.026.56c2.527-.046,5.929-1.581,8.413-2.7l.422-.189a22.172,22.172,0,0,0,4.129-2.226,7.184,7.184,0,0,0,2.671-3.487.56.56,0,1,1,1.069.33,8.3,8.3,0,0,1-3.073,4.055A23,23,0,0,1,68.251,58.8l-.42.189c-2.573,1.161-6.1,2.749-8.853,2.8h-.156" transform="translate(11.445 13.946)" fill="#bf945d"/>
        <path id="Trazado_601410" data-name="Trazado 601410" d="M56.8,223.108a.561.561,0,0,1-.5-.3c-1.787-3.5-3.367-6.7-4.882-9.762-3.346-6.771-6.507-13.165-10.943-20.81a.559.559,0,0,1,.968-.561c4.455,7.677,7.623,14.089,10.978,20.875,1.514,3.064,3.09,6.254,4.875,9.749a.561.561,0,0,1-.244.753.55.55,0,0,1-.254.061" transform="translate(10.905 51.661)" fill="#6f6b74"/>
        <path id="Trazado_601411" data-name="Trazado 601411" d="M40.39,200.089a.535.535,0,0,1-.154-.022.558.558,0,0,1-.385-.691c3.768-13.262,4.91-33.711,4.07-46.22a.559.559,0,1,1,1.116-.076c.846,12.6-.309,33.219-4.111,46.6a.558.558,0,0,1-.537.406" transform="translate(10.751 41.179)" fill="#6f6b74"/>
        <path id="Trazado_601412" data-name="Trazado 601412" d="M45.236,153.681a22.809,22.809,0,0,1-8.6-1.7l-.733-.307c-1.816-.772-3.7-1.57-5.336-.9a.559.559,0,1,1-.423-1.035c2.074-.846,4.263.084,6.2.905l.719.3a21.727,21.727,0,0,0,8.578,1.608.52.52,0,0,1,.57.549.559.559,0,0,1-.547.57c-.14,0-.281,0-.42,0" transform="translate(8.041 40.329)" fill="#6f6b74"/>
        <path id="Trazado_601413" data-name="Trazado 601413" d="M65.891,152.469a.559.559,0,0,1-.329-1.011l4.426-3.219a.559.559,0,1,1,.657.9l-4.426,3.219a.558.558,0,0,1-.328.107" transform="translate(17.634 39.984)" fill="#6f6b74"/>
        <path id="Trazado_601414" data-name="Trazado 601414" d="M48.621,245.545a.558.558,0,0,1-.419-.188,97.4,97.4,0,0,1-8.369-11.9c-1.619-2.551-3.149-4.962-4.645-7.047a.56.56,0,1,1,.909-.653c1.515,2.112,3.053,4.535,4.681,7.1a96.588,96.588,0,0,0,8.262,11.758.559.559,0,0,1-.048.789.553.553,0,0,1-.371.141" transform="translate(9.469 60.873)" fill="#6f6b74"/>
        <path id="Trazado_601415" data-name="Trazado 601415" d="M74.423,282.549a.56.56,0,0,1-.547-.447,5.878,5.878,0,0,1,2.2-5.786.559.559,0,1,1,.671.9,4.8,4.8,0,0,0-1.772,4.666.56.56,0,0,1-.436.66.58.58,0,0,1-.113.011" transform="translate(19.91 74.553)" fill="#673c1b"/>
        <path id="Trazado_601416" data-name="Trazado 601416" d="M73.875,279.7a.561.561,0,0,1-.54-.414,7.282,7.282,0,0,1-.359-2.9A2.864,2.864,0,0,1,75,273.926a.559.559,0,0,1,.249,1.091,1.773,1.773,0,0,0-1.166,1.529A6.325,6.325,0,0,0,74.416,279a.56.56,0,0,1-.541.7" transform="translate(19.687 73.934)" fill="#673c1b"/>
        <path id="Trazado_601417" data-name="Trazado 601417" d="M72.349,277.109a.56.56,0,0,1-.56-.554,1.368,1.368,0,0,0-.034-.3c-.284.043-.574.091-.819.133a11.1,11.1,0,0,1-1.576.2,3.2,3.2,0,0,1-2.366-.874,1.994,1.994,0,0,1-.491-1.6,1.525,1.525,0,0,1,.72-1.125,2.444,2.444,0,0,1,2.083.041,7.327,7.327,0,0,1,2.789,1.62,3.548,3.548,0,0,1,4.042-4.056.559.559,0,1,1-.166,1.1,2.443,2.443,0,0,0-2.474,3.646.559.559,0,0,1-.6.829l-.023,0a2.49,2.49,0,0,1,.032.382.559.559,0,0,1-.552.565Zm-4.262-3.236a.565.565,0,0,0-.292.069.433.433,0,0,0-.185.323.875.875,0,0,0,.2.684,2.155,2.155,0,0,0,1.57.516,10.756,10.756,0,0,0,1.365-.184l.339-.057a6.835,6.835,0,0,0-2.164-1.149,2.7,2.7,0,0,0-.837-.2" transform="translate(17.945 73.026)" fill="#673c1b"/>
        <path id="Trazado_601418" data-name="Trazado 601418" d="M70.228,279.8a1.1,1.1,0,0,1-.13-.006,1.456,1.456,0,0,1-1.093-.657,2.771,2.771,0,0,1-.244-2.229,5.642,5.642,0,0,1,2.348-3.081.559.559,0,0,1,.6.946l-.053.036a.505.505,0,0,1,.132.038.558.558,0,0,1,.3.733,2.994,2.994,0,0,0-.1,1.289c.014.265.027.532.015.795a2.52,2.52,0,0,1-.776,1.749,1.479,1.479,0,0,1-.989.387m.745-4.442a4.5,4.5,0,0,0-1.143,1.877,1.667,1.667,0,0,0,.1,1.276.327.327,0,0,0,.263.169.361.361,0,0,0,.284-.108,1.438,1.438,0,0,0,.4-.958c.01-.226,0-.457-.015-.687a4.392,4.392,0,0,1,.113-1.57" transform="translate(18.526 73.89)" fill="#673c1b"/>
        <path id="Trazado_601419" data-name="Trazado 601419" d="M74.8,288.42h-.011a.558.558,0,0,1-.547-.571c.043-2.006,1.68-3.732,4.625-4.885a63.217,63.217,0,0,0-1.215-9.231c-.653-2.932-1.714-4.6-3.247-5.091a.559.559,0,1,1,.343-1.064c1.943.625,3.251,2.56,4,5.913a65.085,65.085,0,0,1,1.265,9.819.557.557,0,0,1-.368.559c-1.579.57-4.234,1.846-4.281,4.005a.559.559,0,0,1-.559.547" transform="translate(19.979 72.217)" fill="#673c1b"/>
        <path id="Trazado_601420" data-name="Trazado 601420" d="M78.42,300.995a.559.559,0,0,1-.394-.956c3.327-3.293,3.646-8.554,3.689-13.663a80.534,80.534,0,0,0-.831-10.961,81.011,81.011,0,0,1-.841-11.108.56.56,0,0,1,.559-.555h.005a.56.56,0,0,1,.555.564,80.518,80.518,0,0,0,.831,10.961,81.224,81.224,0,0,1,.841,11.108c-.044,5.343-.392,10.858-4.021,14.449a.563.563,0,0,1-.394.161" transform="translate(21.016 71.192)" fill="#673c1b"/>
        <path id="Trazado_601421" data-name="Trazado 601421" d="M36.6,288.685a.56.56,0,0,1-.517-.775,8.231,8.231,0,0,1,3.735-4.078,26.627,26.627,0,0,0-5.66-8.529.559.559,0,0,1,.794-.787,27.747,27.747,0,0,1,6.1,9.389.558.558,0,0,1-.295.715,7.088,7.088,0,0,0-3.642,3.721.558.558,0,0,1-.516.344" transform="translate(9.177 74.053)" fill="#673c1b"/>
        <path id="Trazado_601422" data-name="Trazado 601422" d="M40.109,282.067a.559.559,0,0,1-.538-.409,31.029,31.029,0,0,1-1.116-7.1.559.559,0,1,1,1.116-.046,30,30,0,0,0,1.077,6.847.558.558,0,0,1-.538.71" transform="translate(10.379 73.951)" fill="#673c1b"/>
        <path id="Trazado_601423" data-name="Trazado 601423" d="M44.383,286.255a.556.556,0,0,1-.469-.254A9.226,9.226,0,0,0,41,283.181a.56.56,0,0,1,.582-.956,10.347,10.347,0,0,1,3.269,3.166.558.558,0,0,1-.163.773.548.548,0,0,1-.3.091" transform="translate(10.994 76.156)" fill="#673c1b"/>
        <path id="Trazado_601424" data-name="Trazado 601424" d="M36.678,282.043a.56.56,0,0,1-.554-.486,2.805,2.805,0,0,1-.018-.565c-.009-.178-.022-.382-.034-.607-.164-2.662-.2-4.579.792-5a3.251,3.251,0,0,1,3.408.574.559.559,0,0,1-.752.828,2.145,2.145,0,0,0-2.217-.373,6.448,6.448,0,0,0-.187,2.5,2.809,2.809,0,0,1,.673-.46,3.093,3.093,0,0,1,3.475.6.559.559,0,0,1-.8.784,1.893,1.893,0,0,0-3.24,1.185c.008.2.013.362.01.483a.561.561,0,0,1-.53.545h-.03" transform="translate(9.713 74.264)" fill="#673c1b"/>
        <path id="Trazado_601425" data-name="Trazado 601425" d="M42.532,283.586a.561.561,0,0,1-.48-.271,3.459,3.459,0,0,0-1.563-1.606,1.215,1.215,0,0,0-1.012.122.611.611,0,0,0-.307.443.553.553,0,0,1-.607.505.559.559,0,0,1-.507-.607,1.7,1.7,0,0,1,.819-1.284,2.328,2.328,0,0,1,1.993-.232,4.466,4.466,0,0,1,2.144,2.083.559.559,0,0,1-.479.847" transform="translate(10.271 75.721)" fill="#673c1b"/>
        <path id="Trazado_601426" data-name="Trazado 601426" d="M39.168,293.975a5.7,5.7,0,0,1-4.117-1.483c-1.768-1.753-2.33-2.453-1.963-5.072a5.352,5.352,0,0,0-2.117-.253.559.559,0,1,1-.093-1.115,6.581,6.581,0,0,1,2.939.434.918.918,0,0,1,.692.888.672.672,0,0,1-.362.574c-.207,1.8.17,2.241,1.692,3.75,1.685,1.67,4.568,1.129,5.731.82.679-.182,1.351-.41,2.022-.636a16,16,0,0,1,4.512-1.05.559.559,0,1,1,.042,1.118,14.956,14.956,0,0,0-4.2.992c-.693.235-1.388.47-2.092.658a10.508,10.508,0,0,1-2.69.376" transform="translate(8.196 77.206)" fill="#673c1b"/>
        <path id="Trazado_601427" data-name="Trazado 601427" d="M40.983,26.962s3.044-.521,3.044-2.925a25.95,25.95,0,0,0-.885-5.609s1.772-4.005,2.657-5.608c0,0,15.936,3.205,24.79,0l4.427,4.005s.885,4.808.885,5.609,1.8,3.877,1.8,3.877,3.509-7.884,1.737-14.293S71.474,0,60.85,0,34.815,3.177,40.983,26.962" transform="translate(10.681)" fill="#653f35"/>
        <path id="Trazado_601428" data-name="Trazado 601428" d="M49.286,16.733c-2.137.32-2.669.969-2.824,1.184a2.35,2.35,0,0,0-.391,1.645,18.83,18.83,0,0,1,4.727-.928,19.164,19.164,0,0,1,3.359.076c.631-.663.632-1.05.559-1.266-.366-1.058-3.61-.983-5.429-.71" transform="translate(12.431 4.47)" fill="#443139"/>
        <path id="Trazado_601429" data-name="Trazado 601429" d="M63.43,16.733c2.137.32,2.669.969,2.824,1.184a2.359,2.359,0,0,1,.392,1.645,18.853,18.853,0,0,0-4.728-.928,19.164,19.164,0,0,0-3.359.076c-.631-.663-.632-1.05-.559-1.266.366-1.058,3.61-.983,5.429-.71" transform="translate(15.647 4.47)" fill="#443139"/>
        <path id="Trazado_601430" data-name="Trazado 601430" d="M57.248,43.835a8.748,8.748,0,0,1-3.043-.48A12.733,12.733,0,0,1,50.9,41.3l-2.52-1.957a.559.559,0,1,1,.686-.884l2.52,1.958a11.726,11.726,0,0,0,3,1.886,11.872,11.872,0,0,0,5.243.232,4.244,4.244,0,0,0,1.27-.262,4.2,4.2,0,0,0,1.018-.756l4.429-3.993a.559.559,0,1,1,.749.829l-4.428,4a4.026,4.026,0,0,1-2.923,1.3,25.875,25.875,0,0,1-2.7.185" transform="translate(13.001 10.091)" fill="#a1675d"/>
        <path id="Trazado_601431" data-name="Trazado 601431" d="M56.026,30.672a7.336,7.336,0,0,1-1.62-.18,1.268,1.268,0,0,1-.692-.352,1.161,1.161,0,0,1-.268-.782,11.2,11.2,0,0,1,.278-3.76,11.784,11.784,0,0,1,.842-1.929c.189-.373.381-.745.542-1.129l0-.006a.56.56,0,0,1,1.022-.427.952.952,0,0,1,.005.866c-.171.409-.375.806-.578,1.2a10.765,10.765,0,0,0-.767,1.744,10.444,10.444,0,0,0-.232,3.393c0,.015,0,.044,0,.071a.708.708,0,0,1,.084.017,6.337,6.337,0,0,0,2.053.117.559.559,0,0,1,.119,1.111,7.238,7.238,0,0,1-.8.043m-.853-7.994h0" transform="translate(14.417 5.893)" fill="#a1675d"/>
        <path id="Trazado_601432" data-name="Trazado 601432" d="M51.251,22.541a1.418,1.418,0,1,1-2.8,0,1.418,1.418,0,1,1,2.8,0" transform="translate(13.078 5.64)" fill="#443139"/>
        <path id="Trazado_601433" data-name="Trazado 601433" d="M63.257,22.541a1.418,1.418,0,1,1-2.8,0,1.418,1.418,0,1,1,2.8,0" transform="translate(16.319 5.64)" fill="#443139"/>
        <path id="Trazado_601434" data-name="Trazado 601434" d="M50.979,31.061a39.916,39.916,0,0,0,6.3.489,40,40,0,0,0,6.174-.489,4.829,4.829,0,0,1-1.081,1.845,6.89,6.89,0,0,1-5.1,1.926c-5.377.122-6.29-3.772-6.29-3.772" transform="translate(13.76 8.384)" fill="#fff"/>
        <path id="Trazado_601435" data-name="Trazado 601435" d="M42.164,21.612s-.438-4.261-2.518-3.467-.565,9.565,2.4,9.785Z" transform="translate(10.441 4.871)" fill="#c27d6d"/>
        <path id="Trazado_601436" data-name="Trazado 601436" d="M69.855,21.612s.438-4.261,2.518-3.467-.621,11.262-4.391,10.669Z" transform="translate(18.35 4.871)" fill="#c27d6d"/>
        <path id="Trazado_601437" data-name="Trazado 601437" d="M10.965,134.581c-.094,1.222,6.859,14.7,9.8,17.394,0,0,.489-12,3.184-14.209,0,0,5.391,1.96,7.106.245s-7.839-5.39-9.065-6.37a14.8,14.8,0,0,0-3.191-1.753s-7.343-1.678-7.833,4.692" transform="translate(2.959 35.006)" fill="#c27d6d"/>
        <path id="Trazado_601438" data-name="Trazado 601438" d="M82.185,133.616c.094,1.222-6.859,14.7-9.8,17.394,0,0-.49-12-3.185-14.209,0,0-5.39,1.959-7.1.245s7.839-5.39,9.063-6.37a14.8,14.8,0,0,1,3.19-1.753s7.344-1.678,7.834,4.692" transform="translate(16.706 34.745)" fill="#c27d6d"/>
      </g>
    </g>
    <g id="Grupo_870614" data-name="Grupo 870614" transform="translate(631.901 10995.031)">
      <path id="Trazado_836433" data-name="Trazado 836433" d="M123.091,50.022H0V6.094H15.76L18.868,0H144.293V40.927H126.12l-3.028,9.095Z" transform="translate(0 0)" fill="#0c5e46"/>
      <path id="Trazado_836434" data-name="Trazado 836434" d="M12.976,16V3.914h3.719a5.647,5.647,0,0,1,2.851.718,5.007,5.007,0,0,1,1.963,2.042,6.3,6.3,0,0,1,.706,3.009v.556a6.316,6.316,0,0,1-.693,3,4.964,4.964,0,0,1-1.955,2.034A5.69,5.69,0,0,1,16.72,16Zm2.49-10.069V14h1.2a2.7,2.7,0,0,0,2.233-.955,4.314,4.314,0,0,0,.789-2.731V9.675a4.382,4.382,0,0,0-.764-2.793,2.7,2.7,0,0,0-2.233-.95ZM28,16.166a4.409,4.409,0,0,1-3.217-1.212,4.308,4.308,0,0,1-1.241-3.229v-.232a5.426,5.426,0,0,1,.523-2.42,3.838,3.838,0,0,1,1.482-1.644,4.159,4.159,0,0,1,2.187-.577,3.727,3.727,0,0,1,2.9,1.162,4.722,4.722,0,0,1,1.058,3.3v.979H25.975a2.229,2.229,0,0,0,.7,1.411,2.12,2.12,0,0,0,1.482.531,2.589,2.589,0,0,0,2.167-1l1.179,1.32a3.6,3.6,0,0,1-1.461,1.191A4.793,4.793,0,0,1,28,16.166Zm-.274-7.379a1.5,1.5,0,0,0-1.158.484A2.5,2.5,0,0,0,26,10.654h3.337v-.192a1.786,1.786,0,0,0-.432-1.238A1.547,1.547,0,0,0,27.726,8.787ZM37.92,13.518a.773.773,0,0,0-.436-.693,4.95,4.95,0,0,0-1.4-.452q-3.2-.672-3.2-2.723a2.468,2.468,0,0,1,.992-2,4,4,0,0,1,2.594-.8,4.307,4.307,0,0,1,2.735.805A2.538,2.538,0,0,1,40.227,9.75h-2.4A1.161,1.161,0,0,0,37.5,8.9a1.405,1.405,0,0,0-1.038-.336,1.436,1.436,0,0,0-.938.274.865.865,0,0,0-.332.7.739.739,0,0,0,.378.643,3.885,3.885,0,0,0,1.274.423,10.407,10.407,0,0,1,1.511.4,2.482,2.482,0,0,1,1.9,2.416A2.343,2.343,0,0,1,39.2,15.406a4.548,4.548,0,0,1-2.723.76,4.75,4.75,0,0,1-2-.4,3.363,3.363,0,0,1-1.374-1.1,2.565,2.565,0,0,1-.5-1.515h2.274a1.252,1.252,0,0,0,.473.979,1.877,1.877,0,0,0,1.179.34,1.737,1.737,0,0,0,1.042-.261A.814.814,0,0,0,37.92,13.518ZM47,16a2.664,2.664,0,0,1-.241-.805,2.9,2.9,0,0,1-2.266.971,3.189,3.189,0,0,1-2.187-.764,2.456,2.456,0,0,1-.867-1.926A2.538,2.538,0,0,1,42.5,11.285a5.222,5.222,0,0,1,3.059-.772h1.1V10a1.48,1.48,0,0,0-.32-1,1.257,1.257,0,0,0-1.009-.374,1.429,1.429,0,0,0-.95.291.987.987,0,0,0-.344.8h-2.4a2.41,2.41,0,0,1,.481-1.444A3.182,3.182,0,0,1,43.481,7.23a4.961,4.961,0,0,1,1.976-.378,3.92,3.92,0,0,1,2.635.834,2.918,2.918,0,0,1,.975,2.345v3.893a4.294,4.294,0,0,0,.357,1.934V16Zm-1.984-1.668A2.066,2.066,0,0,0,46,14.095a1.554,1.554,0,0,0,.664-.635V11.916h-.9q-1.8,0-1.917,1.245l-.008.141a.96.96,0,0,0,.315.739A1.225,1.225,0,0,0,45.017,14.332Zm10.94-5.063a6.517,6.517,0,0,0-.863-.066,1.757,1.757,0,0,0-1.785.921V16h-2.4V7.019h2.266l.066,1.071a2.223,2.223,0,0,1,2-1.237,2.514,2.514,0,0,1,.747.108Zm6.2,0a6.517,6.517,0,0,0-.863-.066,1.757,1.757,0,0,0-1.785.921V16h-2.4V7.019h2.266l.066,1.071a2.223,2.223,0,0,1,2-1.237,2.514,2.514,0,0,1,.747.108Zm.481,2.158a5.327,5.327,0,0,1,.515-2.382,3.767,3.767,0,0,1,1.482-1.619,4.323,4.323,0,0,1,2.245-.573,4.09,4.09,0,0,1,2.968,1.112,4.464,4.464,0,0,1,1.282,3.021l.017.614a4.694,4.694,0,0,1-1.154,3.316,4.472,4.472,0,0,1-6.2,0,4.777,4.777,0,0,1-1.158-3.387Zm2.4.17a3.357,3.357,0,0,0,.481,1.958,1.73,1.73,0,0,0,2.739.008,3.674,3.674,0,0,0,.49-2.141,3.324,3.324,0,0,0-.49-1.945,1.592,1.592,0,0,0-1.378-.69,1.566,1.566,0,0,0-1.361.686A3.736,3.736,0,0,0,65.038,11.6ZM75.157,16H72.75V3.25h2.407Zm4.507,0H77.257V3.25h2.407Zm7.18,0a2.664,2.664,0,0,1-.241-.805,2.9,2.9,0,0,1-2.266.971A3.189,3.189,0,0,1,82.15,15.4a2.456,2.456,0,0,1-.867-1.926,2.538,2.538,0,0,1,1.058-2.191,5.222,5.222,0,0,1,3.059-.772h1.1V10a1.48,1.48,0,0,0-.32-1,1.257,1.257,0,0,0-1.009-.374,1.429,1.429,0,0,0-.95.291.987.987,0,0,0-.344.8h-2.4a2.41,2.41,0,0,1,.481-1.444A3.182,3.182,0,0,1,83.325,7.23,4.961,4.961,0,0,1,85.3,6.853a3.92,3.92,0,0,1,2.635.834,2.918,2.918,0,0,1,.975,2.345v3.893a4.294,4.294,0,0,0,.357,1.934V16Zm-1.984-1.668a2.066,2.066,0,0,0,.979-.237,1.554,1.554,0,0,0,.664-.635V11.916h-.9q-1.8,0-1.917,1.245l-.008.141a.96.96,0,0,0,.315.739A1.225,1.225,0,0,0,84.861,14.332ZM95.8,9.268a6.517,6.517,0,0,0-.863-.066,1.757,1.757,0,0,0-1.785.921V16h-2.4V7.019H93.02l.066,1.071a2.223,2.223,0,0,1,2-1.237,2.514,2.514,0,0,1,.747.108Z" transform="translate(18.999 13.642)" fill="#fff"/>
      <path id="Trazado_214008-3" data-name="Trazado 214008" d="M-.808,1.311H26.244V7.625H-4Z" transform="translate(118.049 42.396)" fill="#7f8a9c"/>
    </g>
    <g id="Grupo_886087" data-name="Grupo 886087" transform="translate(401.515 10860.693)">
      <g id="Grupo_886086" data-name="Grupo 886086" clip-path="url(#clip-path-4)">
        <path id="Trazado_601439" data-name="Trazado 601439" d="M55.6,7.569c.7,2,.052,2.647-.923,4.53-.835,1.612-1.689,3.473-1.056,5.173.285.762.843,1.392,1.172,2.135a7.878,7.878,0,0,1,.336,3.822c-.44,5.7-.978,11.679-4.17,16.418a9.329,9.329,0,0,0-1.536,2.74,7.326,7.326,0,0,0,.54,4.073c1.072,3.2,2.476,6.765,5.606,8.028,1.205.485,8.748,4.678,16.7.765.709-.349,1.261-.977,2-1.268,1.792-.71,3.886.8,5.7.138,1.741-.638,2.212-3.06,1.415-4.735s-2.433-2.763-3.993-3.769c1.918.615,4.263,1.144,5.741-.222s1.083-3.9-.2-5.441-3.192-2.375-4.932-3.368-3.482-2.347-3.964-4.292a1.7,1.7,0,0,1-.031-.88c.324-1.113,1.911-.937,3.055-1.123,2.5-.4,3.508-4.237,1.535-5.822-1-.8-2.38-.963-3.476-1.632-3.612-2.206.539-7.554-3.695-12.457C68.074,6.515,54.637,4.824,55.6,7.569" transform="translate(13.641 1.721)" fill="#b24f4d"/>
        <path id="Trazado_601440" data-name="Trazado 601440" d="M77.569,79.744S82.516,68.792,76.547,58.9c-3.031-5.023-8.8-9.781-17.4-8.924-5.19.516,18.425,29.769,18.425,29.769" transform="translate(16.158 13.8)" fill="#868964"/>
        <path id="Trazado_601441" data-name="Trazado 601441" d="M63.871,275.419s3.487,8.781,5.72,11.014-5.076,5.075-9.542,3.857-6.294-16.039-6.294-16.039Z" transform="translate(14.873 75.883)" fill="#fccdae"/>
        <path id="Trazado_601442" data-name="Trazado 601442" d="M60.1,292.726c22.47,5.12,12.757-8.5,8.121-8.933,2.233,2.233-5.076,5.076-9.542,3.857" transform="translate(16.237 78.523)" fill="#462c2a"/>
        <path id="Trazado_601443" data-name="Trazado 601443" d="M60.331,290.29c-4.467-1.218-6.294-16.039-6.294-16.039s-6,17.991,7.715,21.115" transform="translate(14.591 75.883)" fill="#462c2a"/>
        <path id="Trazado_601444" data-name="Trazado 601444" d="M96.065,136.394S84.618,162.747,70.22,169.03c0,0-11.005,74.942-11.005,78.607s-1.1,39.223.209,43.673,5.5,4.974,3.4,9.163,1.832,3.665.785,7.854,2.355,6.283-.262,8.115-3.665,2.357-8.639,4.451-6.806,2.357-6.806-1.57-.523-1.833-2.618-7.592-3.4-8.376-2.617-11.78-8.639-22.513-9.948-40.839,2.154-37.72,1.832-38.482c-1.861-4.426-.523-8.116-1.309-12.043s-5.759-29.058-8.9-42.147,3.1-29.121,3.1-29.121Z" transform="translate(6.492 37.739)" fill="#adafb2"/>
        <path id="Trazado_601445" data-name="Trazado 601445" d="M80.573,50.254c4.728,1.189,13.952,29.393,16.482,35.59,5.734,14.047-7.167,16.628-6.307,24.654,1.284,11.988,4.6,20.085,7.695,31.122.619,2.21,2.361,4.057,2.945,6.557.276,1.177-.585,2.87-.323,4.129.535,2.571,1.038,5.326,1.491,8.313.4,2.63-45.706,14.59-68.616.923a78.171,78.171,0,0,0,4.779-14.309c.407-1.634-2.533-5.446-1.26-8.66,3.308-8.346,6.548-18.669,6.069-21.782-1.044-6.782-5.414-29.323-9.066-30.366s-16.219,14.682-17.736,17.214c-.576.96,2.086,7.3,2.086,7.3L5.251,113.55s-5.739-5.737-5.217-9.389S20.9,57.214,33.42,53.561s34.186-6.567,47.153-3.307" transform="translate(0 13.514)" fill="#9fa177"/>
        <path id="Trazado_601446" data-name="Trazado 601446" d="M34.55,51.064a107.554,107.554,0,0,1,27.222-2.216c1.515.088,9.933,5.522,4.928,8.941-6.232,4.258-7.194,6.623-22.95,2.058-14-4.057-12.9-7.982-9.2-8.782" transform="translate(8.894 13.478)" fill="#fccdae"/>
        <path id="Trazado_601447" data-name="Trazado 601447" d="M57.933,174.835c.613-2.52,8.913,50.916,6.344,65.688-.442,2.541-10.357,51.5-10.88,54.9s-4.189,7.069-2.618,7.069,0,8.638,1.048,9.425l1.047.785s8.524,2.953,11.928.859.785-3.665.785-3.665,5.236-3.142,2.355-5.5-1.309-4.974,1.832-9.163,13.352-33.77,17.279-49.217,9.933-83.581,1.561-109.627Z" transform="translate(13.942 37.739)" fill="#adafb2"/>
        <path id="Trazado_601448" data-name="Trazado 601448" d="M57.325,277.421s3.25,10.774,5.077,11.992-12.181,8.324-15.023,3.451a18.209,18.209,0,0,1-2.031-10.557Z" transform="translate(12.518 76.76)" fill="#fccdae"/>
        <path id="Trazado_601449" data-name="Trazado 601449" d="M58.867,289.368a.745.745,0,0,1-.24-.04,1.112,1.112,0,0,1-.61-.623,31.559,31.559,0,0,1-2.541-11.571.562.562,0,0,1,.548-.577.546.546,0,0,1,.576.549,30.428,30.428,0,0,0,2.435,11.119.562.562,0,0,1,.2,1.046.743.743,0,0,1-.364.1" transform="translate(15.35 76.522)" fill="#bc8d81"/>
        <path id="Trazado_601450" data-name="Trazado 601450" d="M45.822,281.248A18.208,18.208,0,0,0,47.851,291.8c2.843,4.873,16.851-2.233,15.024-3.451,0,0,6.294,3.248,5.077,5.685s-16.446,7.1-21.928,3.654-.2-16.445-.2-16.445" transform="translate(12.045 77.819)" fill="#462c2a"/>
        <path id="Trazado_601451" data-name="Trazado 601451" d="M17.675,97.483l19.952,36.238S35,143.9,32.8,148.082s2.819,8.2,2.819,11.709-1.2,5.153-5.478-2.867,1.872-16.575-1.069-20.319S4.113,100.091,4.113,100.091Z" transform="translate(1.138 26.973)" fill="#fccdae"/>
        <path id="Trazado_601452" data-name="Trazado 601452" d="M57.748,54.535,55.357,43.279l-11.115.563L41.428,54.957Z" transform="translate(11.463 11.975)" fill="#fccdae"/>
        <path id="Trazado_601453" data-name="Trazado 601453" d="M69.708,40.215c-2.191,8.735-13.057,16.564-19.09,15.128-9.179-2.184-14.83-7.487-13.373-20.593S46.517,6.834,55.894,7.877s20.469,5.8,13.814,32.337" transform="translate(10.242 2.165)" fill="#fccdae"/>
        <path id="Trazado_601454" data-name="Trazado 601454" d="M79.493,16.668C75.276,4.722,64.276,6.221,61.77,3.887a13.543,13.543,0,0,0-6.5-3.773c-2.5-.462-5.4.477-6.566,2.733-1.043,2.015-.649,4.786-2.366,6.269-1.9,1.638-4.779.466-7.285.46a7.934,7.934,0,0,0-6.763,4.047,8.876,8.876,0,0,0-.208,7.955c.522,1.118,1.289,2.237,1.141,3.461-.267,2.183-7.535,2.848-9.649,3.455-5.3,1.518-6.189,12.024-2.534,18.095,4.112,6.83,24.853,15.025,27.468,7.6.752-5.061-9.8-6.654-.826-12.035,5.884-3.53,1.074-10.706,1.641-11.449,2.168-2.838,7.8,1.38,9.991-1.439,1.108-1.425.271-3.47.34-5.274a5.271,5.271,0,0,1,3.37-4.559c2.643-1.024,5.052,5.489,9.619,5.137,2.94-.226,8.867-2.2,6.852-7.905" transform="translate(5.209 0)" fill="#c35754"/>
        <path id="Trazado_601455" data-name="Trazado 601455" d="M58.149,185.7l-.059,0a.563.563,0,0,1-.5-.618,144.942,144.942,0,0,1,3.245-18.946,13.358,13.358,0,0,1,.738-2.375c.987-2.214,2.991-3.779,5.011-5.141l1.056-.7c3.144-2.089,6.395-4.25,7.825-7.589a.562.562,0,1,1,1.033.443c-1.56,3.647-4.954,5.9-8.235,8.081l-1.051.7c-1.752,1.182-3.7,2.615-4.613,4.668a12.445,12.445,0,0,0-.672,2.179,143.836,143.836,0,0,0-3.219,18.8.564.564,0,0,1-.559.5" transform="translate(15.934 41.5)" fill="#77797c"/>
        <path id="Trazado_601456" data-name="Trazado 601456" d="M31.575,159.811a.562.562,0,0,1-.273-1.055,30.883,30.883,0,0,0,6.313-4.629c2.986-2.834,4.6-5.7,4.786-8.522a.562.562,0,0,1,1.122.075c-.209,3.111-1.937,6.226-5.134,9.262a32.11,32.11,0,0,1-6.543,4.8.568.568,0,0,1-.272.07" transform="translate(8.581 40.143)" fill="#77797c"/>
        <path id="Trazado_601457" data-name="Trazado 601457" d="M39.809,219.689h-.017a.564.564,0,0,1-.546-.578c.309-11.011-1.994-22.114-4.221-32.848-2.6-12.543-5.291-25.512-3.831-38.414a.562.562,0,1,1,1.117.125c-1.439,12.725,1.232,25.6,3.816,38.061,2.239,10.8,4.555,21.964,4.244,33.108a.563.563,0,0,1-.562.546" transform="translate(8.517 40.77)" fill="#77797c"/>
        <path id="Trazado_601458" data-name="Trazado 601458" d="M37.606,211.458a.568.568,0,0,1-.121-.013.562.562,0,0,1-.428-.67,15.367,15.367,0,0,0,.3-4.66.563.563,0,0,1,.511-.61.553.553,0,0,1,.609.511,16.456,16.456,0,0,1-.323,5,.563.563,0,0,1-.549.442" transform="translate(10.25 56.861)" fill="#77797c"/>
        <path id="Trazado_601459" data-name="Trazado 601459" d="M50.572,299.424a.538.538,0,0,1-.119-.013.562.562,0,0,1-.432-.668l.9-4.193a2.531,2.531,0,0,1-.783.027,3.812,3.812,0,0,1-2.806-1.941,9.725,9.725,0,0,1-.835-2.708,11.655,11.655,0,0,0-.5-1.927c-.139-.354-.313-.695-.486-1.037a6.976,6.976,0,0,1-.821-2.2,2.97,2.97,0,0,1,.657-2.269,2.571,2.571,0,0,1-1.14-1.612,2.643,2.643,0,0,1,1.228-2.728c-2.686-6.262-5.107-12.72-7.2-19.2a70.612,70.612,0,0,1-3.49-15.158c-.541-5.932.184-11.9.885-17.676l1.683-13.866a.562.562,0,1,1,1.116.135l-1.683,13.866c-.693,5.716-1.411,11.626-.881,17.438a69.645,69.645,0,0,0,3.441,14.916c2.136,6.623,4.618,13.221,7.377,19.611a.564.564,0,0,1-.364.765,1.511,1.511,0,0,0-1.015,1.67,1.529,1.529,0,0,0,1.281,1.127,1.8,1.8,0,0,1,.462,0,.562.562,0,0,1,.009,1.115,2.062,2.062,0,0,1-.407.02.879.879,0,0,0-.386.243,1.837,1.837,0,0,0-.463,1.454,6.073,6.073,0,0,0,.71,1.849c.19.374.379.749.531,1.138a12.619,12.619,0,0,1,.559,2.112,8.773,8.773,0,0,0,.725,2.4,2.721,2.721,0,0,0,1.941,1.352A1.126,1.126,0,0,0,51.3,293.1a.562.562,0,0,1,.974.486l-1.155,5.39a.563.563,0,0,1-.549.444" transform="translate(9.561 58.591)" fill="#77797c"/>
        <path id="Trazado_601460" data-name="Trazado 601460" d="M40.271,270.264a.562.562,0,0,1-.04-1.122,11.861,11.861,0,0,0,5.015-2.058c1.9-1.126,3.849-2.293,6.129-2.182a.562.562,0,0,1-.054,1.124c-1.951-.1-3.668.937-5.5,2.025a12.835,12.835,0,0,1-5.509,2.212h-.041" transform="translate(10.987 73.294)" fill="#77797c"/>
        <path id="Trazado_601461" data-name="Trazado 601461" d="M43.908,279.729a.562.562,0,0,1-.268-1.057l9.089-4.9a.563.563,0,1,1,.534.991l-9.087,4.9a.563.563,0,0,1-.267.068" transform="translate(11.993 75.733)" fill="#77797c"/>
        <path id="Trazado_601462" data-name="Trazado 601462" d="M42.734,273.314a.562.562,0,0,1-.115-1.112l4.1-.864a.562.562,0,1,1,.232,1.1l-4.1.864a.6.6,0,0,1-.116.011" transform="translate(11.669 75.074)" fill="#77797c"/>
        <path id="Trazado_601463" data-name="Trazado 601463" d="M55.942,276.6H55.91a.562.562,0,0,1-.53-.592,3.734,3.734,0,0,1,1.058-2.1,2.64,2.64,0,0,0,.8-1.489c-.008-.646-.617-1.125-1.323-1.68a3.9,3.9,0,0,1-1.785-2.367,3.745,3.745,0,0,1,.317-1.8c.047-.132.094-.262.137-.392a5.31,5.31,0,0,0-.051-3.326l-1.293-.049a.56.56,0,0,1-.541-.582.575.575,0,0,1,.581-.541l1.665.061a.561.561,0,0,1,.5.34,6.433,6.433,0,0,1,.214,4.439c-.046.143-.1.286-.148.429a2.854,2.854,0,0,0-.262,1.264c.088.631.709,1.12,1.366,1.637a2.784,2.784,0,0,1,.7,4.763,2.864,2.864,0,0,0-.808,1.45.561.561,0,0,1-.56.53" transform="translate(14.58 72.405)" fill="#77797c"/>
        <path id="Trazado_601464" data-name="Trazado 601464" d="M60.552,272.784a7.076,7.076,0,0,1-4.364-1.505.562.562,0,1,1,.7-.881,5.916,5.916,0,0,0,4.7,1.167.562.562,0,1,1,.207,1.106,6.79,6.79,0,0,1-1.245.114" transform="translate(15.488 74.783)" fill="#77797c"/>
        <path id="Trazado_601465" data-name="Trazado 601465" d="M61.913,267.286a.566.566,0,0,1-.165-.024l-6.182-1.887a.562.562,0,0,1,.033-1.084,18.1,18.1,0,0,1,6.343-.38.563.563,0,0,1,.493.624.548.548,0,0,1-.624.493,17,17,0,0,0-3.639-.033l3.905,1.192a.562.562,0,0,1-.165,1.1" transform="translate(15.265 72.988)" fill="#77797c"/>
        <path id="Trazado_601466" data-name="Trazado 601466" d="M54.78,289.51a.564.564,0,0,1-.548-.691A336.16,336.16,0,0,1,68.438,243.08l.23-.587a43.26,43.26,0,0,0,2.963-9.741,40.914,40.914,0,0,0-.146-9.441,516.079,516.079,0,0,0-9.321-60.048.562.562,0,1,1,1.1-.239A517.274,517.274,0,0,1,72.605,223.2a41.882,41.882,0,0,1,.14,9.7,44.154,44.154,0,0,1-3.031,10l-.229.585a334.888,334.888,0,0,0-14.16,45.587.561.561,0,0,1-.546.434" transform="translate(15.001 44.985)" fill="#77797c"/>
        <path id="Trazado_601467" data-name="Trazado 601467" d="M50,272.167a.562.562,0,0,1-.322-1.024,23.227,23.227,0,0,1,5.195-2.716.562.562,0,1,1,.391,1.055,22.13,22.13,0,0,0-4.943,2.584.56.56,0,0,1-.32.1" transform="translate(13.68 74.262)" fill="#77797c"/>
        <path id="Trazado_601468" data-name="Trazado 601468" d="M13.88,95.077a.586.586,0,0,1-.174-.027,44.121,44.121,0,0,0-7.912-1.787.562.562,0,1,1,.144-1.115,45.071,45.071,0,0,1,8.115,1.832.562.562,0,0,1-.174,1.1" transform="translate(1.468 25.495)" fill="#808360"/>
        <path id="Trazado_601469" data-name="Trazado 601469" d="M1.792,93.876A.562.562,0,0,1,1.554,92.8c.033-.015,3.3-1.378,4.623-.968l5.584-.825a.563.563,0,0,1,.165,1.113l-5.736.846a.569.569,0,0,1-.37-.074c-.439-.183-2.8.469-3.792.927a.557.557,0,0,1-.236.052" transform="translate(0.34 25.18)" fill="#808360"/>
        <path id="Trazado_601470" data-name="Trazado 601470" d="M50.434,100.076l-.052,0c-5.334-.5-10.309-1.365-12.584-6.42-1.507-3.347-2.525-11.311-2.1-16.388a.562.562,0,0,1,1.121.094c-.416,4.927.555,12.621,2,15.832,2.026,4.5,6.673,5.3,11.663,5.762a.562.562,0,0,1-.051,1.122" transform="translate(9.851 21.236)" fill="#808360"/>
        <path id="Trazado_601471" data-name="Trazado 601471" d="M69.045,97.633a.5.5,0,0,1-.075-.005,25.464,25.464,0,0,1-7.418-2.423l-.9-.4a1.243,1.243,0,0,1-.716-1.422,1.263,1.263,0,0,1,1.252-.974l9.559.243a.564.564,0,0,1,.548.577.545.545,0,0,1-.577.548l-9.559-.243a.112.112,0,0,0-.126.1.117.117,0,0,0,.075.147l.91.407a24.525,24.525,0,0,0,7.106,2.334.562.562,0,0,1-.075,1.12" transform="translate(16.574 25.567)" fill="#808360"/>
        <path id="Trazado_601472" data-name="Trazado 601472" d="M52.425,142.153c-2.038,0-4.1-.061-6.151-.211A73.6,73.6,0,0,1,30.051,138.9a.562.562,0,0,1,.331-1.075,72.49,72.49,0,0,0,15.974,3,120.948,120.948,0,0,0,17.694-.313c7.548-.575,16.126-1.595,22.41-6.456a.562.562,0,0,1,.688.89c-6.529,5.052-15.3,6.1-23.012,6.689-3.582.272-7.592.522-11.71.522" transform="translate(8.205 37.059)" fill="#808360"/>
        <path id="Trazado_601473" data-name="Trazado 601473" d="M47.8,139.705a108.428,108.428,0,0,1-11.449-.789l-5.661-.6a.562.562,0,0,1,.119-1.118l5.661.6c7.727.818,17.343,1.836,25.293-1.826a.562.562,0,0,1,.47,1.021A34.318,34.318,0,0,1,47.8,139.705" transform="translate(8.353 37.608)" fill="#808360"/>
        <path id="Trazado_601474" data-name="Trazado 601474" d="M48.391,19.089a.377.377,0,0,1-.054,0l-2.43-.231a.562.562,0,0,1,.107-1.12l1.884.18a12.848,12.848,0,0,1,1.291-4.027.562.562,0,0,1,1,.517,11.7,11.7,0,0,0-1.238,4.176.562.562,0,0,1-.559.507" transform="translate(12.562 3.759)" fill="#a04644"/>
        <path id="Trazado_601475" data-name="Trazado 601475" d="M30.009,28c-.239,0-.477-.005-.711-.013a.561.561,0,0,1-.541-.581.555.555,0,0,1,.581-.543c1.612.052,3.261-.026,4.371-.975,1.047-.894,1.514-2.467,1.432-4.808-.01-.3-.026-.606-.042-.912a10.767,10.767,0,0,1,.52-4.963A5.828,5.828,0,0,1,42.6,12.127a.562.562,0,1,1-.361,1.065,4.728,4.728,0,0,0-5.589,2.468,9.788,9.788,0,0,0-.426,4.453c.017.312.032.62.042.929.1,2.707-.5,4.572-1.826,5.7A6.656,6.656,0,0,1,30.009,28" transform="translate(7.956 3.28)" fill="#a04644"/>
        <path id="Trazado_601476" data-name="Trazado 601476" d="M32.731,40.645a2.227,2.227,0,0,1-1.649-.677.562.562,0,0,1,.826-.762,1.338,1.338,0,0,0,1.674.045,2.535,2.535,0,0,0,.913-1.886,9.006,9.006,0,0,0-.029-1.316,7.071,7.071,0,0,1,.066-2.1,4.005,4.005,0,0,1,4.963-2.82.562.562,0,1,1-.346,1.07,2.884,2.884,0,0,0-3.52,2,6.1,6.1,0,0,0-.041,1.773,9.864,9.864,0,0,1,.028,1.484,3.646,3.646,0,0,1-1.374,2.707,2.582,2.582,0,0,1-1.51.484" transform="translate(8.559 8.566)" fill="#a04644"/>
        <path id="Trazado_601477" data-name="Trazado 601477" d="M70.192,39.032a1.362,1.362,0,0,1-.578-.129l-.046-.019a.578.578,0,0,1-.373.091.563.563,0,0,1-.5-.62.7.7,0,0,1,.351-.54,1.127,1.127,0,0,1,1.034.068.34.34,0,0,0,.357-.074.929.929,0,0,0,.365-.8,3.208,3.208,0,0,0-1.256-1.717,15.318,15.318,0,0,1-4.41-5.435c-.891-2.224-.659-5.288,1.508-6.841a.563.563,0,1,1,.655.915c-1.679,1.2-1.828,3.734-1.118,5.508.774,1.932,2.321,3.414,4.115,5.014a4.176,4.176,0,0,1,1.62,2.4,2.037,2.037,0,0,1-.808,1.855,1.533,1.533,0,0,1-.918.322" transform="translate(17.888 6.339)" fill="#a04644"/>
        <path id="Trazado_601478" data-name="Trazado 601478" d="M60.528,44.591a.563.563,0,0,1-.057-1.122l3.213-.334c.866-.089,1.9-.278,2.195-.951.391-.886-.742-1.966-1.453-2.53-.97-.772-.918-1.291-.447-2.094a6.137,6.137,0,0,0,.345-.65.563.563,0,0,1,1.026.461,7.5,7.5,0,0,1-.4.757,2.428,2.428,0,0,0-.177.336c.017.006.082.093.354.309,2.133,1.7,2.147,3.039,1.782,3.865-.6,1.356-2.357,1.538-3.107,1.618l-3.213.333a.469.469,0,0,1-.059,0" transform="translate(16.592 10.121)" fill="#a04644"/>
        <path id="Trazado_601479" data-name="Trazado 601479" d="M69.651,45.269a.562.562,0,0,1-.426-.929,3.385,3.385,0,0,0-.036-4.286,7.157,7.157,0,0,0-1.1-.931c-.271-.2-.541-.4-.794-.622a3.23,3.23,0,0,1-1.3-2.631.562.562,0,1,1,1.121.094,2.268,2.268,0,0,0,.921,1.688c.232.2.48.384.726.567a7.989,7.989,0,0,1,1.268,1.086,4.5,4.5,0,0,1,.05,5.768.565.565,0,0,1-.426.2" transform="translate(18.257 9.782)" fill="#a04644"/>
        <path id="Trazado_601480" data-name="Trazado 601480" d="M29.167,68.253a.582.582,0,0,1-.115-.01.562.562,0,0,1-.435-.666,15.445,15.445,0,0,0-3.29-12.9.563.563,0,0,1,.857-.73,16.591,16.591,0,0,1,3.533,13.865.561.561,0,0,1-.549.446" transform="translate(6.971 14.871)" fill="#808360"/>
        <path id="Trazado_601481" data-name="Trazado 601481" d="M25.164,78.2a.541.541,0,0,1-.212-.042.562.562,0,0,1-.309-.733,20.194,20.194,0,0,1,5.431-7.586.562.562,0,1,1,.738.848,19.08,19.08,0,0,0-5.127,7.164.562.562,0,0,1-.521.35" transform="translate(6.807 19.286)" fill="#808360"/>
        <path id="Trazado_601482" data-name="Trazado 601482" d="M60.594,69.018a.563.563,0,0,1-.294-.083,22.113,22.113,0,0,1-6.464-6.048.562.562,0,0,1,.918-.649,21.008,21.008,0,0,0,6.135,5.737.562.562,0,0,1-.295,1.042" transform="translate(14.868 17.155)" fill="#808360"/>
        <path id="Trazado_601483" data-name="Trazado 601483" d="M59.182,65.673c-5.416,0-24.712-3.644-28.886-11.766a.562.562,0,1,1,1-.513c4.144,8.067,25.173,11.592,28.615,11.117,2.964-.409,10.051-6.56,10.793-7.769a3.037,3.037,0,0,0,.595-2.412,3.484,3.484,0,0,0-.712-1.118,28.228,28.228,0,0,0-2.478-2.724.562.562,0,1,1,.781-.808,29.071,29.071,0,0,1,2.56,2.814,4.432,4.432,0,0,1,.922,1.5,4.006,4.006,0,0,1-.71,3.337c-.922,1.5-8.19,7.826-11.6,8.3a6.628,6.628,0,0,1-.882.047" transform="translate(8.365 13.703)" fill="#808360"/>
        <path id="Trazado_601484" data-name="Trazado 601484" d="M60.337,31.185a1.426,1.426,0,1,0-1.26-1.574,1.426,1.426,0,0,0,1.26,1.574" transform="translate(16.344 7.842)" fill="#7c6557"/>
        <path id="Trazado_601485" data-name="Trazado 601485" d="M49.131,29.94a1.427,1.427,0,1,0-1.26-1.575,1.427,1.427,0,0,0,1.26,1.575" transform="translate(13.243 7.497)" fill="#7c6557"/>
        <path id="Trazado_601486" data-name="Trazado 601486" d="M54.5,37.423a13,13,0,0,1-1.861-.134.563.563,0,0,1,.162-1.113,11.9,11.9,0,0,0,3.333.01c-.328-1.44-1.168-5.348.239-7.882a.562.562,0,1,1,.983.546c-1.238,2.228-.38,5.97-.1,7.2.112.49.163.714-.083.946a1.072,1.072,0,0,1-.592.258,12.96,12.96,0,0,1-2.081.169" transform="translate(14.433 7.751)" fill="#bc8d81"/>
        <path id="Trazado_601487" data-name="Trazado 601487" d="M52.9,39.318a7.312,7.312,0,0,1-5.6-2.592.562.562,0,1,1,.867-.715A6.24,6.24,0,0,0,54.728,37.9a.562.562,0,0,1,.355,1.067,6.938,6.938,0,0,1-2.184.349" transform="translate(13.051 9.907)" fill="#bc8d81"/>
        <path id="Trazado_601488" data-name="Trazado 601488" d="M64.025,28.324a.563.563,0,0,1-.5-.3,2.851,2.851,0,0,0-1.86-1.509,2.969,2.969,0,0,0-2.412.5.562.562,0,1,1-.652-.915,4.107,4.107,0,0,1,3.327-.674,3.967,3.967,0,0,1,2.6,2.085.564.564,0,0,1-.24.758.574.574,0,0,1-.259.063" transform="translate(16.15 7.003)" fill="#7c6557"/>
        <path id="Trazado_601489" data-name="Trazado 601489" d="M46.621,26.306a.562.562,0,0,1-.43-.924,5.461,5.461,0,0,1,7.651-.807.563.563,0,1,1-.677.9,4.361,4.361,0,0,0-6.113.632.562.562,0,0,1-.432.2" transform="translate(12.744 6.468)" fill="#7c6557"/>
        <path id="Trazado_601490" data-name="Trazado 601490" d="M54.147,54.409a.561.561,0,0,1-.56-.544,2.541,2.541,0,0,1,1.554-2.287,6.381,6.381,0,0,1,2.431-.479.968.968,0,0,1,.88.338.729.729,0,0,1-.142.983.652.652,0,0,1-.9-.046.526.526,0,0,1-.092-.13,4.633,4.633,0,0,0-1.694.347,1.493,1.493,0,0,0-.917,1.236.559.559,0,0,1-.543.58h-.019" transform="translate(14.827 14.138)" fill="#bc8d81"/>
        <path id="Trazado_601491" data-name="Trazado 601491" d="M51.814,56a.564.564,0,0,1-.549-.443,1.314,1.314,0,0,0-1.08-.849,5.1,5.1,0,0,0-1.8.13,47.267,47.267,0,0,1-9.2.807.562.562,0,0,1-.555-.569.536.536,0,0,1,.568-.555,45.775,45.775,0,0,0,8.879-.769,6.3,6.3,0,0,1,2.3-.149,2.408,2.408,0,0,1,1.979,1.716.561.561,0,0,1-.429.669.548.548,0,0,1-.12.013" transform="translate(10.69 14.815)" fill="#bc8d81"/>
        <path id="Trazado_601492" data-name="Trazado 601492" d="M17.6,99.394a1.793,1.793,0,0,0,1.175-2.17,2.4,2.4,0,0,0-1.4-1.883c-1.624-.465-13.922,3.364-14.5,3.829s.349,2.784,1.972,3.365c1.289.46,9.44-2.073,12.755-3.141" transform="translate(0.747 26.369)" fill="#808360"/>
      </g>
    </g>
    <g id="Grupo_870615" data-name="Grupo 870615" transform="translate(390 10995.031)">
      <path id="Sustracción_7-3" data-name="Sustracción 7" d="M123.091,50.022H0V6.094H15.76L18.868,0H144.293V40.927H126.12l-3.028,9.095Z" transform="translate(0 0)" fill="#03386e"/>
      <path id="Trazado_836437" data-name="Trazado 836437" d="M38.119,13.51H33.753L32.923,16H30.275l4.5-12.086h2.308L41.605,16H38.957Zm-3.694-2.017h3.021L35.928,6.969ZM45.307,4.811V7.019h1.536v1.76H45.307v4.482a1.07,1.07,0,0,0,.191.714.959.959,0,0,0,.73.216,3.826,3.826,0,0,0,.706-.058V15.95a4.939,4.939,0,0,1-1.453.216,2.29,2.29,0,0,1-2.573-2.548V8.778H41.6V7.019h1.312V4.811Zm7.919,4.458a6.517,6.517,0,0,0-.863-.066,1.757,1.757,0,0,0-1.785.921V16h-2.4V7.019h2.266l.066,1.071a2.223,2.223,0,0,1,2-1.237,2.514,2.514,0,0,1,.747.108ZM59.336,16a2.664,2.664,0,0,1-.241-.805,2.9,2.9,0,0,1-2.266.971,3.189,3.189,0,0,1-2.187-.764,2.456,2.456,0,0,1-.867-1.926,2.538,2.538,0,0,1,1.058-2.191,5.222,5.222,0,0,1,3.059-.772H59V10a1.48,1.48,0,0,0-.32-1,1.257,1.257,0,0,0-1.009-.374,1.429,1.429,0,0,0-.95.291.987.987,0,0,0-.344.8h-2.4a2.41,2.41,0,0,1,.481-1.444A3.182,3.182,0,0,1,55.816,7.23a4.961,4.961,0,0,1,1.976-.378,3.92,3.92,0,0,1,2.635.834,2.918,2.918,0,0,1,.975,2.345v3.893a4.294,4.294,0,0,0,.357,1.934V16Zm-1.984-1.668a2.066,2.066,0,0,0,.979-.237A1.554,1.554,0,0,0,59,13.46V11.916h-.9q-1.8,0-1.917,1.245l-.008.141a.96.96,0,0,0,.315.739A1.225,1.225,0,0,0,57.352,14.332Zm10.027,1.834a4.409,4.409,0,0,1-3.217-1.212,4.308,4.308,0,0,1-1.241-3.229v-.232a5.426,5.426,0,0,1,.523-2.42,3.838,3.838,0,0,1,1.482-1.644,4.159,4.159,0,0,1,2.187-.577,3.727,3.727,0,0,1,2.9,1.162,4.722,4.722,0,0,1,1.058,3.3v.979H65.354a2.229,2.229,0,0,0,.7,1.411,2.12,2.12,0,0,0,1.482.531,2.589,2.589,0,0,0,2.167-1l1.179,1.32a3.6,3.6,0,0,1-1.461,1.191A4.793,4.793,0,0,1,67.379,16.166Zm-.274-7.379a1.5,1.5,0,0,0-1.158.484,2.5,2.5,0,0,0-.569,1.384h3.337v-.192a1.786,1.786,0,0,0-.432-1.238A1.547,1.547,0,0,0,67.105,8.787Zm10.376.481a6.517,6.517,0,0,0-.863-.066,1.757,1.757,0,0,0-1.785.921V16h-2.4V7.019H74.7l.066,1.071a2.223,2.223,0,0,1,2-1.237,2.514,2.514,0,0,1,.747.108Z" transform="translate(18.999 13.642)" fill="#fff"/>
      <path id="Trazado_214008-4" data-name="Trazado 214008" d="M-.808,1.311H26.244V7.625H-4Z" transform="translate(118.049 42.396)" fill="#7f8a9c"/>
    </g>
  </g>
</svg>
