<svg xmlns="http://www.w3.org/2000/svg" xmlns:xlink="http://www.w3.org/1999/xlink" width="274.495" height="244.163" viewBox="0 0 274.495 244.163">
  <defs>
    <clipPath id="clip-path">
      <rect id="Rectángulo_298877" data-name="Rectángulo 298877" width="274.495" height="244.163" fill="none"/>
    </clipPath>
  </defs>
  <g id="Grupo_880690" data-name="Grupo 880690" transform="translate(0)">
    <g id="Grupo_880689" data-name="Grupo 880689" transform="translate(0)" clip-path="url(#clip-path)">
      <path id="Trazado_594813" data-name="Trazado 594813" d="M292.665,79.823H278.779V29.832a3.206,3.206,0,0,0-3.213-3.168H264.74a3.205,3.205,0,0,0-3.213,3.168V68.19H254.21V4.9a3.644,3.644,0,0,0-3.662-3.609h-19A3.643,3.643,0,0,0,227.885,4.9v99.644h-13.59V49.154H196.012V30.85h-2.5V29.625H181.224V30.85h-3.048V54.636H161.494V93.459H153.83V9.3H151.2V0H129.621V9.3h-1.239V58.6h-6.733V44.046h-4.382V23.138H103.522V44.046H97.215v36.44H84.177l.086,38.809h-3.2v-3.92H64.8v20.967H53.143V216.25l239.522.588v-.286h12.646V106.842H292.665Z" transform="translate(-38.204)" fill="#d7e7f3" fill-rule="evenodd"/>
      <path id="Trazado_594814" data-name="Trazado 594814" d="M137.248,769.195c75.593,0,137.247-8.726,137.247-19.426s-61.654-19.425-137.247-19.425S0,739.07,0,749.769s61.654,19.426,137.248,19.426" transform="translate(0 -525.032)" fill="#f2f2f4" fill-rule="evenodd"/>
      <path id="Trazado_594815" data-name="Trazado 594815" d="M318.238,672.012v22.466c-2.411,0-4.47.066-6.972.043-10.822-.02-22.753-.132-33.133-.132,0-7.5,1.749-14.9,1.749-22.377Z" transform="translate(-199.944 -483.098)" fill="#322b33" fill-rule="evenodd"/>
      <path id="Trazado_594816" data-name="Trazado 594816" d="M385.246,470.722H260.262a3.308,3.308,0,0,0-3.3,3.3v55.346H388.545V474.021a3.308,3.308,0,0,0-3.3-3.3" transform="translate(-184.726 -338.394)" fill="#fda954" fill-rule="evenodd"/>
      <path id="Trazado_594817" data-name="Trazado 594817" d="M775.906,672.091H737.548v22.487l38.2-.155Z" transform="translate(-530.211 -483.155)" fill="#322b33" fill-rule="evenodd"/>
      <path id="Trazado_594818" data-name="Trazado 594818" d="M387.344,678.642H255.535v9.535h8.918a16.269,16.269,0,0,1,29.019,0h93.871Z" transform="translate(-183.7 -487.864)" fill="#f6904d" fill-rule="evenodd"/>
      <path id="Trazado_594819" data-name="Trazado 594819" d="M770.344,715.748a14.586,14.586,0,1,1,14.586-14.586,14.632,14.632,0,0,1-14.586,14.586" transform="translate(-543.285 -493.567)" fill="#74698b" fill-rule="evenodd"/>
      <path id="Trazado_594820" data-name="Trazado 594820" d="M781.152,722.333a10.358,10.358,0,1,1,10.36-10.358,10.39,10.39,0,0,1-10.36,10.358" transform="translate(-554.094 -504.381)" fill="#564875" fill-rule="evenodd"/>
      <path id="Trazado_594821" data-name="Trazado 594821" d="M780.362,700.437a10.691,10.691,0,1,0,7.548,18.238,10.69,10.69,0,0,0-7.548-18.238m-7.1,3.585a10.043,10.043,0,1,1-2.945,7.1,9.993,9.993,0,0,1,2.945-7.1" transform="translate(-553.304 -503.532)" fill="#d5dce9" fill-rule="evenodd"/>
      <path id="Trazado_594822" data-name="Trazado 594822" d="M793.943,730.087a5.379,5.379,0,1,1,5.379-5.378,5.385,5.385,0,0,1-5.379,5.378" transform="translate(-566.885 -517.113)" fill="#d5dce9" fill-rule="evenodd"/>
      <rect id="Rectángulo_298845" data-name="Rectángulo 298845" width="0.907" height="20.716" transform="translate(226.594 197.236)" fill="#d5dce9"/>
      <path id="Trazado_594823" data-name="Trazado 594823" d="M793.339,719.421l-.443-.8-17.951,10.358.466.8Z" transform="translate(-557.093 -516.607)" fill="#d5dce9" fill-rule="evenodd"/>
      <path id="Trazado_594824" data-name="Trazado 594824" d="M774.944,719.421l.466-.8,17.929,10.358-.443.8Z" transform="translate(-557.093 -516.607)" fill="#d5dce9" fill-rule="evenodd"/>
      <path id="Trazado_594825" data-name="Trazado 594825" d="M798.992,706.175l-.775-.464-10.359,17.95.8.442Z" transform="translate(-566.378 -507.323)" fill="#d5dce9" fill-rule="evenodd"/>
      <path id="Trazado_594826" data-name="Trazado 594826" d="M787.859,706.175l.8-.464,10.338,17.95-.775.442Z" transform="translate(-566.378 -507.323)" fill="#d5dce9" fill-rule="evenodd"/>
      <path id="Trazado_594827" data-name="Trazado 594827" d="M301.532,715.984A14.586,14.586,0,1,1,316.141,701.4a14.614,14.614,0,0,1-14.609,14.586" transform="translate(-206.28 -493.737)" fill="#74698b" fill-rule="evenodd"/>
      <path id="Trazado_594828" data-name="Trazado 594828" d="M724.38,551.308q16.335.032,32.715.11c4.913.021,6.75,2.1,8.764,7.326,1.306,3.408,5.357,19.39,5.357,19.39q-.066,14.708-.11,29.437l-7.481.023a15.487,15.487,0,0,0,.42-3.674,16.413,16.413,0,0,0-32.826,0,15.425,15.425,0,0,0,.466,3.808l-7.527.044q.1-28.253.222-56.464" transform="translate(-520.585 -396.326)" fill="#74698b" fill-rule="evenodd"/>
      <path id="Trazado_594829" data-name="Trazado 594829" d="M767.109,586.423c.178.575.354,1.173.531,1.837H724.788v-1.837Z" transform="translate(-521.037 -421.57)" fill="#443451" fill-rule="evenodd"/>
      <path id="Trazado_594830" data-name="Trazado 594830" d="M262.984,723.622h-7.64V712.56h8.972a16.222,16.222,0,0,0-1.332,11.062M395.9,712.56a16.4,16.4,0,0,0-1.7,7.282,15.432,15.432,0,0,0,.466,3.808c-33.361.138-66.682.063-100,.01a16.222,16.222,0,0,0-1.323-11.1Z" transform="translate(-183.562 -512.247)" fill="#a99fbd" fill-rule="evenodd"/>
      <path id="Trazado_594831" data-name="Trazado 594831" d="M868.79,712.56l-.044,10.933-7.481.023a15.493,15.493,0,0,0,.42-3.674,16.4,16.4,0,0,0-1.7-7.282Z" transform="translate(-618.224 -512.247)" fill="#a99fbd" fill-rule="evenodd"/>
      <path id="Trazado_594832" data-name="Trazado 594832" d="M752.273,596.66H740.9a.776.776,0,0,0-.753.753v12.573a.761.761,0,0,0,.753.752h11.376a.746.746,0,0,0,.753-.752V597.413a.76.76,0,0,0-.753-.753" transform="translate(-532.076 -428.929)" fill="#d7e7f3" fill-rule="evenodd"/>
      <path id="Trazado_594833" data-name="Trazado 594833" d="M752.273,596.66H740.9a.776.776,0,0,0-.753.753v2.567c3.142.066,7.991.177,12.882.354v-2.921a.76.76,0,0,0-.753-.753" transform="translate(-532.076 -428.929)" fill="#dfeefa" fill-rule="evenodd"/>
      <path id="Trazado_594834" data-name="Trazado 594834" d="M750.856,594.688H739.479A1.366,1.366,0,0,0,738.172,596v12.572a1.325,1.325,0,0,0,.4.928,1.212,1.212,0,0,0,.907.377h11.376a1.287,1.287,0,0,0,1.307-1.3V596a1.224,1.224,0,0,0-.377-.909,1.287,1.287,0,0,0-.93-.4M739.479,595.8h11.376a.2.2,0,0,1,.155.066.315.315,0,0,1,.045.134v12.572a.315.315,0,0,1-.045.154.33.33,0,0,1-.155.044H739.479a.319.319,0,0,1-.132-.044.2.2,0,0,1-.068-.154V596a.194.194,0,0,1,.068-.134.156.156,0,0,1,.132-.066" transform="translate(-530.659 -427.511)" fill="#74698b" fill-rule="evenodd"/>
      <path id="Trazado_594835" data-name="Trazado 594835" d="M814.1,659.318h7.658a.335.335,0,0,0,.332-.339l-.266-13.7a.332.332,0,0,0-.664.014l.259,13.363H814.3c-3.151-5.935-10.278-6.319-15.541-6.02,0-2.42,0-5.4.021-7.767a.332.332,0,0,0-.664-.006c-.021,2.48-.021,5.646-.021,8.127a.332.332,0,0,0,.353.332c5.593-.355,12.395-.012,15.353,5.816a.335.335,0,0,0,.3.183" transform="translate(-573.738 -463.343)" fill="#443451" fill-rule="evenodd"/>
      <path id="Trazado_594836" data-name="Trazado 594836" d="M870.127,603.242h6.2a.869.869,0,0,1,.554.223.823.823,0,0,1,.222.553V613.8a.757.757,0,0,1-.775.775h-2.877Zm6.2-.6h-6.817l3.321,12.527h3.5a1.39,1.39,0,0,0,.974-.4,1.433,1.433,0,0,0,.4-.975v-9.783a1.36,1.36,0,0,0-1.373-1.371" transform="translate(-625.073 -433.233)" fill="#342f35" fill-rule="evenodd"/>
      <path id="Trazado_594837" data-name="Trazado 594837" d="M895.463,608h-1.129a.585.585,0,0,0-.576.575v2.987a.586.586,0,0,0,.576.576h1.129a.586.586,0,0,0,.575-.576v-2.987a.585.585,0,0,0-.575-.575" transform="translate(-642.507 -437.081)" fill="#4e484f" fill-rule="evenodd"/>
      <path id="Trazado_594838" data-name="Trazado 594838" d="M894.991,627.052h-1.107a.6.6,0,0,0-.6.6v2.987a.591.591,0,0,0,.6.575h1.107a.591.591,0,0,0,.6-.575v-2.987a.6.6,0,0,0-.6-.6" transform="translate(-642.168 -450.777)" fill="#4e484f" fill-rule="evenodd"/>
      <path id="Trazado_594839" data-name="Trazado 594839" d="M818.632,596.66l3.763,13.966H799.2V596.66Z" transform="translate(-574.53 -428.929)" fill="#d7e7f3" fill-rule="evenodd"/>
      <path id="Trazado_594840" data-name="Trazado 594840" d="M818.632,596.66l2.081,7.747a62.05,62.05,0,0,0-14.764-3.5c-2.015-.155-4.338-.288-6.75-.421V596.66Z" transform="translate(-574.53 -428.929)" fill="#dfeefa" fill-rule="evenodd"/>
      <path id="Trazado_594841" data-name="Trazado 594841" d="M816.793,595.8l3.452,12.861H798.332V595.8Zm4.715,13.259-3.763-13.923a.547.547,0,0,0-.531-.443H797.78a.564.564,0,0,0-.555.554l.023,13.966a.543.543,0,0,0,.532.553h23.152a.516.516,0,0,0,.177-.021.563.563,0,0,0,.4-.687" transform="translate(-573.111 -427.512)" fill="#443451" fill-rule="evenodd"/>
      <path id="Trazado_594842" data-name="Trazado 594842" d="M881.025,704.611l-.044,6.95c-1.7-.134-3.409-.576-3.874-1.728-.686-1.682,2.058-3.94,3.917-5.222" transform="translate(-630.46 -506.533)" fill="#c8e4ef" fill-rule="evenodd"/>
      <path id="Trazado_594843" data-name="Trazado 594843" d="M882.589,715.287a1.309,1.309,0,0,1,.73,1.726,1.336,1.336,0,1,1-.73-1.726" transform="translate(-633.153 -514.132)" fill="#b3b3b3" fill-rule="evenodd"/>
      <path id="Trazado_594844" data-name="Trazado 594844" d="M883.939,717.375a.733.733,0,0,1,.376.953.7.7,0,0,1-.93.4.73.73,0,0,1,.554-1.351" transform="translate(-634.723 -515.669)" fill="#d5dce9" fill-rule="evenodd"/>
      <path id="Trazado_594845" data-name="Trazado 594845" d="M810.669,654.293h-3.7a1.218,1.218,0,1,0,0,2.435h3.7a1.217,1.217,0,1,0,0-2.435" transform="translate(-579.228 -470.36)" fill="#443451" fill-rule="evenodd"/>
      <path id="Trazado_594846" data-name="Trazado 594846" d="M805.778,657.52c-.021.088-.021.177-.043.266h6.153a1.121,1.121,0,0,0-.045-.266Z" transform="translate(-579.229 -472.68)" fill="#74698b" fill-rule="evenodd"/>
      <rect id="Rectángulo_298846" data-name="Rectángulo 298846" width="20.718" height="0.907" transform="translate(216.7 207.131)" fill="#d5dce9"/>
      <path id="Trazado_594847" data-name="Trazado 594847" d="M312.347,722.57a10.359,10.359,0,1,1,10.381-10.36,10.386,10.386,0,0,1-10.381,10.36" transform="translate(-217.095 -504.55)" fill="#564875" fill-rule="evenodd"/>
      <path id="Trazado_594848" data-name="Trazado 594848" d="M311.552,700.673a10.694,10.694,0,1,0,7.57,3.142,10.629,10.629,0,0,0-7.57-3.142m-7.1,3.585a10.1,10.1,0,1,1-2.922,7.1,10.08,10.08,0,0,1,2.922-7.1" transform="translate(-216.3 -503.702)" fill="#d5dce9" fill-rule="evenodd"/>
      <path id="Trazado_594849" data-name="Trazado 594849" d="M325.138,730.322a5.379,5.379,0,1,1,5.38-5.379,5.379,5.379,0,0,1-5.38,5.379" transform="translate(-229.886 -517.282)" fill="#d5dce9" fill-rule="evenodd"/>
      <rect id="Rectángulo_298847" data-name="Rectángulo 298847" width="0.908" height="20.718" transform="translate(94.81 197.303)" fill="#d5dce9"/>
      <path id="Trazado_594850" data-name="Trazado 594850" d="M324.552,719.656l-.464-.8-17.929,10.358.464.8Z" transform="translate(-220.092 -516.776)" fill="#d5dce9" fill-rule="evenodd"/>
      <path id="Trazado_594851" data-name="Trazado 594851" d="M306.159,719.656l.464-.8,17.929,10.358-.464.8Z" transform="translate(-220.092 -516.776)" fill="#d5dce9" fill-rule="evenodd"/>
      <path id="Trazado_594852" data-name="Trazado 594852" d="M330.205,706.411l-.775-.466L319.069,723.9l.775.444Z" transform="translate(-229.373 -507.492)" fill="#d5dce9" fill-rule="evenodd"/>
      <path id="Trazado_594853" data-name="Trazado 594853" d="M319.069,706.411l.775-.466L330.2,723.9l-.775.444Z" transform="translate(-229.373 -507.492)" fill="#d5dce9" fill-rule="evenodd"/>
      <rect id="Rectángulo_298848" data-name="Rectángulo 298848" width="20.696" height="0.907" transform="translate(84.917 207.197)" fill="#d5dce9"/>
      <path id="Trazado_594854" data-name="Trazado 594854" d="M255.535,721.456V727.5h2.013a.737.737,0,0,0,.731-.73v-4.583a.722.722,0,0,0-.731-.73Z" transform="translate(-183.7 -518.642)" fill="#dd2d2d" fill-rule="evenodd"/>
      <rect id="Rectángulo_298849" data-name="Rectángulo 298849" width="131.582" height="2.194" transform="translate(72.236 135.374)" fill="#ffc967"/>
      <rect id="Rectángulo_298850" data-name="Rectángulo 298850" width="131.582" height="2.193" transform="translate(72.236 140.42)" fill="#ffc967"/>
      <rect id="Rectángulo_298851" data-name="Rectángulo 298851" width="131.582" height="2.193" transform="translate(72.236 145.465)" fill="#ffc967"/>
      <rect id="Rectángulo_298852" data-name="Rectángulo 298852" width="131.582" height="2.193" transform="translate(72.236 150.51)" fill="#ffc967"/>
      <rect id="Rectángulo_298853" data-name="Rectángulo 298853" width="131.453" height="2.193" transform="translate(72.236 155.555)" fill="#ffc967"/>
      <rect id="Rectángulo_298854" data-name="Rectángulo 298854" width="131.453" height="2.193" transform="translate(72.236 160.6)" fill="#ffc967"/>
      <rect id="Rectángulo_298855" data-name="Rectángulo 298855" width="131.496" height="2.193" transform="translate(72.236 165.645)" fill="#ffc967"/>
      <rect id="Rectángulo_298856" data-name="Rectángulo 298856" width="131.453" height="2.193" transform="translate(72.236 170.69)" fill="#ffc967"/>
      <rect id="Rectángulo_298857" data-name="Rectángulo 298857" width="131.453" height="2.193" transform="translate(72.236 175.735)" fill="#ffc967"/>
      <rect id="Rectángulo_298858" data-name="Rectángulo 298858" width="131.453" height="2.193" transform="translate(72.236 180.781)" fill="#ffc967"/>
      <rect id="Rectángulo_298859" data-name="Rectángulo 298859" width="131.453" height="2.193" transform="translate(72.236 185.826)" fill="#ffc967"/>
      <path id="Trazado_594855" data-name="Trazado 594855" d="M439.693,550.584H376.568a.844.844,0,0,0-.841.842V566.3a.844.844,0,0,0,.841.842h63.125a.844.844,0,0,0,.842-.842V551.426a.844.844,0,0,0-.842-.842" transform="translate(-270.104 -395.806)" fill="#f6904d" fill-rule="evenodd"/>
      <path id="Trazado_594856" data-name="Trazado 594856" d="M445.8,572.526v2.541h-1.66V572.5l-2.776-4.61h1.763l1.915,3.186,1.916-3.186h1.629Zm-6.331-2.028a1.137,1.137,0,0,0-.39-.928,1.739,1.739,0,0,0-1.136-.323h-1.353v2.5h1.353a1.724,1.724,0,0,0,1.136-.328,1.139,1.139,0,0,0,.39-.922m.031,4.568-1.384-2h-1.526v2h-1.66V567.9h3.1a3.982,3.982,0,0,1,1.654.318,2.369,2.369,0,0,1,1.459,2.285,2.334,2.334,0,0,1-1.474,2.264l1.608,2.3Zm-5.89-1.331v1.331h-5.554V567.9h5.42v1.332H429.7v1.557h3.33v1.291H429.7v1.66Zm-6.147-5.84-3.106,7.171h-1.639l-3.094-7.171h1.792l2.182,5.122,2.213-5.122Zm-10.216,0h1.66v7.171h-1.66Zm-6.187,0h1.659v5.819h3.6v1.352h-5.255Zm-1.322,5.84v1.331h-5.553V567.9h5.42v1.332h-3.77v1.557h3.33v1.291h-3.33v1.66ZM398.9,573.7a2.41,2.41,0,0,0,1.716-.6,2.381,2.381,0,0,0,0-3.248,2.412,2.412,0,0,0-1.716-.6H397.38V573.7ZM395.72,567.9h3.258a4.582,4.582,0,0,1,2.065.445,3.337,3.337,0,0,1,1.393,1.255,3.822,3.822,0,0,1,0,3.77,3.336,3.336,0,0,1-1.393,1.255,4.578,4.578,0,0,1-2.065.446H395.72Z" transform="translate(-284.476 -408.25)" fill="#ffc967" fill-rule="evenodd"/>
      <path id="Trazado_594857" data-name="Trazado 594857" d="M243.7,804.8l-.418,3.914-6.012.311-.008-4.225Z" transform="translate(-170.564 -578.555)" fill="#fdad88" fill-rule="evenodd"/>
      <path id="Trazado_594858" data-name="Trazado 594858" d="M141.578,803.642,140,808.177l-6.019-.325.93-4.21Z" transform="translate(-96.316 -577.725)" fill="#fdad88" fill-rule="evenodd"/>
      <path id="Trazado_594859" data-name="Trazado 594859" d="M130.745,821.338l-.073,2.184h-9.38c-.061-1.7,1.153-1.255,2.5-2.362a4.69,4.69,0,0,0,1.067-2.54l6.019.325Z" transform="translate(-87.193 -588.491)" fill="#645680" fill-rule="evenodd"/>
      <path id="Trazado_594860" data-name="Trazado 594860" d="M237.409,821.438l.077,2.188h9.393c.044-1.7-1.151-1.256-2.494-2.363a4.774,4.774,0,0,1-1.083-2.541l-6.012.311Z" transform="translate(-170.584 -588.565)" fill="#645680" fill-rule="evenodd"/>
      <path id="Trazado_594861" data-name="Trazado 594861" d="M243.233,538.1s-2.485,40.457-2.7,43.589-2.592,31.491-2.592,31.491h-9.127l-1.46-73.512Z" transform="translate(-163.44 -386.832)" fill="#74698b" fill-rule="evenodd"/>
      <path id="Trazado_594862" data-name="Trazado 594862" d="M167.1,538.294l-23.36,74.919h-8.616l13.34-74.756Z" transform="translate(-97.141 -386.97)" fill="#74698b" fill-rule="evenodd"/>
      <path id="Trazado_594863" data-name="Trazado 594863" d="M277.847,389.144c3.75,6.27,4.868,12.57,7.955,18.4l-8.7,1.026s-.432-12.639-.379-14.692a17.121,17.121,0,0,1,1.12-4.738" transform="translate(-198.931 -279.749)" fill="#ff8859" fill-rule="evenodd"/>
      <path id="Trazado_594864" data-name="Trazado 594864" d="M196.484,374.258s6.113.714,9.048,2.472C208.5,378.5,208,384.3,208,388.275c0,10.871.18,22.216.561,33.5-7.58,4-22.322,1.689-30.507-.2-.043-11.581,1.456-23.569,1.383-34.956-.032-3.8-1.458-6.356-1-7.389.651-1.492,1.9-2.875,4.6-3.732a40.731,40.731,0,0,1,7.536-1.537,46.245,46.245,0,0,1,5.9.3" transform="translate(-128.003 -268.813)" fill="#ff8859" fill-rule="evenodd"/>
      <path id="Trazado_594865" data-name="Trazado 594865" d="M248.491,342.211c-.566,0-1.032-.694-1.032-1.507,0-.841.466-1.507,1.032-1.507s1.04.666,1.04,1.507c0,.814-.468,1.507-1.04,1.507" transform="translate(-177.894 -243.843)" fill="#fdad88" fill-rule="evenodd"/>
      <path id="Trazado_594866" data-name="Trazado 594866" d="M214.31,341.877c-.549,0-1.015-.68-1.015-1.507s.466-1.507,1.015-1.507c.586,0,1.04.668,1.04,1.507s-.454,1.507-1.04,1.507" transform="translate(-153.334 -243.603)" fill="#fdad88" fill-rule="evenodd"/>
      <path id="Trazado_594867" data-name="Trazado 594867" d="M226.7,355.084s.235,4.047.354,5.479l.306.146a3.1,3.1,0,0,1-2.033,2.524,5.207,5.207,0,0,1-4.563-.2,3.544,3.544,0,0,1-1.416-2.751,1.49,1.49,0,0,1,.352-.054c.029-1.58.384-5.465.384-5.465Z" transform="translate(-157.683 -255.029)" fill="#fdad88" fill-rule="evenodd"/>
      <path id="Trazado_594868" data-name="Trazado 594868" d="M227.893,356.441l.059.532c-.2,1.063-.738,3.307-2.805,3.664-2.689.457-3.8-3.621-3.8-3.621Z" transform="translate(-159.125 -256.239)" fill="#f5976e" fill-rule="evenodd"/>
      <path id="Trazado_594869" data-name="Trazado 594869" d="M225.3,321.537c0,.44-.308,6.471-1.31,8.15a6.158,6.158,0,0,1-2.307,2.429,3.054,3.054,0,0,1-3.269-.015,6.432,6.432,0,0,1-2.242-2.414c-1-1.68-1.3-7.71-1.3-8.15a8.594,8.594,0,0,1,3.118-2.508,7.8,7.8,0,0,1,1.776-.306V318.7h.643v.026a7.716,7.716,0,0,1,1.77.306,8.583,8.583,0,0,1,3.124,2.508" transform="translate(-154.465 -229.105)" fill="#fdad88" fill-rule="evenodd"/>
      <path id="Trazado_594870" data-name="Trazado 594870" d="M223.436,317.232a5.145,5.145,0,0,0,1.291-3.456c-.119-1.961.083-2.614-.692-3.6-1.392-1.8-4.032-3.629-6.711-2.081-1.654.974-1.815-.067-3.029,1.108s-1.015,1.587-1.442,3.428c-.4,1.841.843,4.523.843,4.523a4.306,4.306,0,0,1,.758-2.348,12.506,12.506,0,0,0,1.164-2.148c.228-.426.718-.092,1.707.481,1.028.6,1.134.159,2.842.6s1.909.093,2.414,1.4c.478,1.321.855,2.095.855,2.095" transform="translate(-152.96 -221.065)" fill="#ffe2a9" fill-rule="evenodd"/>
      <path id="Trazado_594871" data-name="Trazado 594871" d="M283.4,420.945a.243.243,0,0,0-.252-.25.247.247,0,0,0-.236.25l.146,7.592a.25.25,0,0,0,.5-.013Z" transform="translate(-203.378 -302.43)" fill="#f17255" fill-rule="evenodd"/>
      <path id="Trazado_594872" data-name="Trazado 594872" d="M212.247,312.362s-.484-3.144.228-4.733a6.521,6.521,0,0,1,6.274-3.616,5.732,5.732,0,0,1,5.63,4.465,8.149,8.149,0,0,1-.049,3.7c-4.216-2.748-8.459-.9-12.083.183" transform="translate(-152.465 -218.549)" fill="#ff8859" fill-rule="evenodd"/>
      <path id="Trazado_594873" data-name="Trazado 594873" d="M212.477,327.961s-.056-.325-.071-.558c4.234-2.014,8.783-2.432,12.266-.144-.035.174-.068.348-.112.52-4.741-2.654-8.787-.858-12.083.183" transform="translate(-152.695 -234.148)" fill="#ffd777" fill-rule="evenodd"/>
      <path id="Trazado_594874" data-name="Trazado 594874" d="M224.5,329.158s.517,2.03-.566,2.112c-1.272.112-3.447-2.795-9.237.082-2.415,1.2-2.521-1.477-2.3-1.979,4.146-1.64,8.092-2.263,12.1-.215" transform="translate(-152.63 -235.697)" fill="#f18555" fill-rule="evenodd"/>
      <path id="Trazado_594875" data-name="Trazado 594875" d="M237.141,371.764s2.334.778,2.159,3.019a5.589,5.589,0,0,1-2.307,3.687,9.53,9.53,0,0,0-3.5-2.584s2.558-.684,3.153-1.67a4.924,4.924,0,0,0,.5-2.452" transform="translate(-167.85 -267.255)" fill="#ffd777" fill-rule="evenodd"/>
      <path id="Trazado_594876" data-name="Trazado 594876" d="M214.783,370.9c.245,3.114.884,3.439,3.454,4.365a16.987,16.987,0,0,0-5.074,2.328s-.945-2.89-.645-4.281,2.266-2.411,2.266-2.411" transform="translate(-152.733 -266.634)" fill="#ffd777" fill-rule="evenodd"/>
      <rect id="Rectángulo_298860" data-name="Rectángulo 298860" width="42.456" height="23.658" transform="translate(54.839 126.556)" fill="#f6c58a"/>
      <rect id="Rectángulo_298861" data-name="Rectángulo 298861" width="31.869" height="23.658" transform="translate(65.426 126.556)" fill="#f6d297"/>
      <rect id="Rectángulo_298862" data-name="Rectángulo 298862" width="31.869" height="3.565" transform="translate(65.426 136.603)" fill="#ffe7c7"/>
      <rect id="Rectángulo_298863" data-name="Rectángulo 298863" width="10.587" height="3.565" transform="translate(54.839 136.603)" fill="#ffe7c7"/>
      <path id="Trazado_594877" data-name="Trazado 594877" d="M342.95,528.615a1.562,1.562,0,0,1-.9,1.5c-1.027.553-1.675-.04-1.418-.5s1.445-1.013,1.445-1.229.877.23.877.23" transform="translate(-244.831 -379.804)" fill="#fdad88" fill-rule="evenodd"/>
      <path id="Trazado_594878" data-name="Trazado 594878" d="M156.058,449.668c-.216,2.052-.326,9.938,3.834,14.259s10.872,6.152,10.872,6.152a2.252,2.252,0,0,0,2.065-2.487s-9.21-5.933-10.182-9.5a16.485,16.485,0,0,1-.379-6.7q-3.107-.863-6.21-1.727" transform="translate(-112.127 -323.259)" fill="#fdad88" fill-rule="evenodd"/>
      <path id="Trazado_594879" data-name="Trazado 594879" d="M210.651,513.429a7.094,7.094,0,0,1,3.5,1.032c1.314.985,1.182,1.326,1.523,1.56s.551.8,0,.868-1.1-.469-1.431-.564-.245.247-.07.787a3.423,3.423,0,0,0,1.421,1.536c.573.329,2.016.469,2.028,1.056s-1.137.6-2.028.528-1.724.622-3.7-.668a12.13,12.13,0,0,1-3.306-3.648Z" transform="translate(-149.949 -369.095)" fill="#fdad88" fill-rule="evenodd"/>
      <path id="Trazado_594880" data-name="Trazado 594880" d="M157.452,387.622a49.211,49.211,0,0,0-6.537,9.933,55.192,55.192,0,0,0-3.294,8.372l10.153,2.863s1.837-10.425,1.514-13.5a49.06,49.06,0,0,0-1.54-7.177Z" transform="translate(-106.123 -278.655)" fill="#ff8859" fill-rule="evenodd"/>
      <path id="Trazado_594881" data-name="Trazado 594881" d="M183.5,440.989c.3-1.725.534-3.467.768-5.154.126-.923.252-1.844.389-2.76l-.683-.1q-.2,1.381-.388,2.768c-.231,1.681-.472,3.418-.763,5.131Z" transform="translate(-131.428 -311.258)" fill="#f17255" fill-rule="evenodd"/>
      <path id="Trazado_594882" data-name="Trazado 594882" d="M342.41,504.67a3.155,3.155,0,0,1,.8,1.563c-.028.865-.134,2.754-.134,3.592s-.109,1.755-1.149,1.9-1.635-.135-1.526-.554,1.351-.81,1.457-1.12.095-3.592.095-3.592a4.975,4.975,0,0,1-.614-1.782c.051-.515.318-.672.5-.649.2.026.379.369.575.638" transform="translate(-244.699 -362.338)" fill="#fdad88" fill-rule="evenodd"/>
      <path id="Trazado_594883" data-name="Trazado 594883" d="M228.862,588.941a.292.292,0,0,0,.279-.205l1.3-4.175a.293.293,0,0,0-.559-.173l-1.3,4.175a.3.3,0,0,0,.192.366.306.306,0,0,0,.087.013" transform="translate(-164.315 -419.958)" fill="#645680" fill-rule="evenodd"/>
      <path id="Trazado_594884" data-name="Trazado 594884" d="M619.692,196.532h20.466v4.884a2.449,2.449,0,0,1-2.442,2.442H622.134a2.449,2.449,0,0,1-2.442-2.442Z" transform="translate(-445.486 -141.284)" fill="#fda954" fill-rule="evenodd"/>
      <path id="Trazado_594885" data-name="Trazado 594885" d="M570.446,163.44h3.439a.761.761,0,0,1,.76.76v4.279h-4.958V164.2a.762.762,0,0,1,.76-.76" transform="translate(-409.537 -117.494)" fill="#74698b" fill-rule="evenodd"/>
      <path id="Trazado_594886" data-name="Trazado 594886" d="M724.874,163.368h3.438a.762.762,0,0,1,.76.76v4.279h-4.958v-4.279a.762.762,0,0,1,.76-.76" transform="translate(-520.553 -117.443)" fill="#74698b" fill-rule="evenodd"/>
      <path id="Trazado_594887" data-name="Trazado 594887" d="M576.566,153.2h.28a.481.481,0,0,1,.48.48v2.4h-1.24v-2.4a.481.481,0,0,1,.48-.48" transform="translate(-414.138 -110.131)" fill="#fda954" fill-rule="evenodd"/>
      <path id="Trazado_594888" data-name="Trazado 594888" d="M730.993,153.126h.28a.481.481,0,0,1,.48.48v2.4h-1.24v-2.4a.481.481,0,0,1,.479-.48" transform="translate(-525.154 -110.08)" fill="#fda954" fill-rule="evenodd"/>
      <path id="Trazado_594889" data-name="Trazado 594889" d="M554.159,152.205c5.2,0,9.437-.224,9.437-.5s-4.239-.5-9.437-.5-9.437.225-9.437.5,4.239.5,9.437.5" transform="translate(-391.591 -108.699)" fill="#d9d0ed" fill-rule="evenodd"/>
      <path id="Trazado_594890" data-name="Trazado 594890" d="M708.587,152.134c5.2,0,9.437-.224,9.437-.5s-4.239-.5-9.437-.5-9.437.225-9.437.5,4.239.5,9.437.5" transform="translate(-502.607 -108.648)" fill="#d9d0ed" fill-rule="evenodd"/>
      <rect id="Rectángulo_298864" data-name="Rectángulo 298864" width="38.423" height="26.231" transform="translate(164.991 66.721)" fill="#eac18b"/>
      <rect id="Rectángulo_298865" data-name="Rectángulo 298865" width="4.746" height="26.231" transform="translate(182.041 66.721)" fill="#ffe2c9"/>
      <rect id="Rectángulo_298866" data-name="Rectángulo 298866" width="0.72" height="4.011" transform="translate(194.068 86.664)" fill="#53616e"/>
      <rect id="Rectángulo_298867" data-name="Rectángulo 298867" width="0.723" height="4.011" transform="translate(195.422 86.664)" fill="#53616e"/>
      <rect id="Rectángulo_298868" data-name="Rectángulo 298868" width="0.72" height="4.011" transform="translate(196.784 86.664)" fill="#53616e"/>
      <rect id="Rectángulo_298869" data-name="Rectángulo 298869" width="0.72" height="4.011" transform="translate(198.144 86.664)" fill="#53616e"/>
      <rect id="Rectángulo_298870" data-name="Rectángulo 298870" width="0.723" height="4.011" transform="translate(199.498 86.664)" fill="#53616e"/>
      <rect id="Rectángulo_298871" data-name="Rectángulo 298871" width="40.026" height="1.36" transform="translate(164.068 92.933)" fill="#74698b"/>
      <path id="Trazado_594891" data-name="Trazado 594891" d="M581.722,199.852h1.458v37.915a.5.5,0,0,1-.5.5h-.456a.5.5,0,0,1-.5-.5Z" transform="translate(-418.19 -143.67)" fill="#fda954" fill-rule="evenodd"/>
      <path id="Trazado_594892" data-name="Trazado 594892" d="M723.589,200.137h1.459v37.915a.5.5,0,0,1-.5.5h-.456a.5.5,0,0,1-.5-.5Z" transform="translate(-520.175 -143.875)" fill="#fda954" fill-rule="evenodd"/>
      <rect id="Rectángulo_298872" data-name="Rectángulo 298872" width="20.466" height="1.438" transform="translate(174.206 55.248)" fill="#f5952e"/>
      <rect id="Rectángulo_298873" data-name="Rectángulo 298873" width="1.458" height="0.725" transform="translate(163.532 56.182)" fill="#f5952e"/>
      <rect id="Rectángulo_298874" data-name="Rectángulo 298874" width="1.459" height="0.765" transform="translate(203.414 56.262)" fill="#f5952e"/>
      <rect id="Rectángulo_298875" data-name="Rectángulo 298875" width="4.958" height="1.074" transform="translate(160.149 49.91)" fill="#6a5f82"/>
      <rect id="Rectángulo_298876" data-name="Rectángulo 298876" width="4.958" height="1.074" transform="translate(203.561 49.89)" fill="#6a5f82"/>
      <path id="Trazado_594893" data-name="Trazado 594893" d="M577.259,196.523H581.5v.52a.521.521,0,0,1-.52.52h-3.2a.521.521,0,0,1-.52-.52Z" transform="translate(-414.981 -141.277)" fill="#74698b" fill-rule="evenodd"/>
      <path id="Trazado_594894" data-name="Trazado 594894" d="M718.379,196.511h4.238v.52a.521.521,0,0,1-.519.52h-3.2a.521.521,0,0,1-.52-.52Z" transform="translate(-516.43 -141.268)" fill="#74698b" fill-rule="evenodd"/>
      <path id="Trazado_594895" data-name="Trazado 594895" d="M560.364,181.362h50.757a2.132,2.132,0,0,1,0,4.265H560.364a2.132,2.132,0,1,1,0-4.265" transform="translate(-401.303 -130.378)" fill="#ffc967" fill-rule="evenodd"/>
    </g>
  </g>
</svg>
