<svg xmlns="http://www.w3.org/2000/svg" width="294.913" height="456.773" viewBox="0 0 294.913 456.773">
  <g id="Grupo_881523" data-name="Grupo 881523" transform="translate(0 0.354)">
    <g id="Grupo_870577" data-name="Grupo 870577" transform="translate(5.046 5.593)">
      <path id="Sustracción_7" data-name="Sustracción 7" d="M254.816,50.022H0V6.094H27.546L32.592,0H289.229V40.927h-29.5l-4.916,9.095Z" transform="translate(0 0)" fill="#2b7e3b"/>
      <path id="Trazado_214008" data-name="Trazado 214008" d="M-.808,1.311H26.244V7.625H-4Z" transform="translate(263.623 42.396)" fill="#359547" opacity="0.4"/>
    </g>
    <path id="Trazado_608260" data-name="Trazado 608260" d="M17.485,12.892a7.725,7.725,0,0,1-.668,3.313,5.03,5.03,0,0,1-1.912,2.2,5.288,5.288,0,0,1-2.852.773,5.324,5.324,0,0,1-2.839-.765,5.08,5.08,0,0,1-1.934-2.184,7.5,7.5,0,0,1-.694-3.265v-.633A7.685,7.685,0,0,1,7.268,9,5.072,5.072,0,0,1,9.193,6.8a5.3,5.3,0,0,1,2.843-.769,5.3,5.3,0,0,1,2.843.769A5.072,5.072,0,0,1,16.8,9a7.663,7.663,0,0,1,.681,3.318Zm-2.672-.58a5.385,5.385,0,0,0-.721-3.059,2.349,2.349,0,0,0-2.057-1.046A2.349,2.349,0,0,0,9.988,9.24a5.324,5.324,0,0,0-.729,3.028v.624a5.453,5.453,0,0,0,.721,3.041,2.342,2.342,0,0,0,2.074,1.081,2.321,2.321,0,0,0,2.039-1.042,5.421,5.421,0,0,0,.721-3.037ZM27.8,14.333a5.758,5.758,0,0,1-.976,3.564A3.231,3.231,0,0,1,24.1,19.176a2.969,2.969,0,0,1-2.47-1.187L21.519,19H19.234V5.5h2.54v4.843a2.893,2.893,0,0,1,2.312-1.028,3.258,3.258,0,0,1,2.729,1.279,5.767,5.767,0,0,1,.989,3.6Zm-2.54-.185a3.783,3.783,0,0,0-.457-2.1,1.545,1.545,0,0,0-1.362-.664,1.676,1.676,0,0,0-1.67.993v3.753a1.7,1.7,0,0,0,1.688,1,1.568,1.568,0,0,0,1.617-1.213A6.257,6.257,0,0,0,25.263,14.148ZM32.057,9.49V19.519a3.4,3.4,0,0,1-.835,2.448,3.174,3.174,0,0,1-2.408.875,5.165,5.165,0,0,1-1.257-.149V20.679a4.768,4.768,0,0,0,.8.079q1.151,0,1.151-1.222V9.49ZM29.306,7.029a1.251,1.251,0,0,1,.382-.94,1.654,1.654,0,0,1,2.083,0,1.251,1.251,0,0,1,.382.94,1.247,1.247,0,0,1-.391.949,1.629,1.629,0,0,1-2.065,0A1.247,1.247,0,0,1,29.306,7.029Zm9.114,12.146a4.668,4.668,0,0,1-3.406-1.283A4.561,4.561,0,0,1,33.7,14.474v-.246a5.745,5.745,0,0,1,.554-2.562,4.064,4.064,0,0,1,1.569-1.74,4.4,4.4,0,0,1,2.316-.611,3.947,3.947,0,0,1,3.072,1.23,5,5,0,0,1,1.121,3.489v1.037H36.276a2.36,2.36,0,0,0,.743,1.494,2.245,2.245,0,0,0,1.569.563,2.742,2.742,0,0,0,2.294-1.063l1.248,1.4a3.813,3.813,0,0,1-1.547,1.261A5.075,5.075,0,0,1,38.421,19.176Zm-.29-7.813a1.587,1.587,0,0,0-1.226.512,2.651,2.651,0,0,0-.6,1.466h3.533v-.2a1.891,1.891,0,0,0-.457-1.311A1.638,1.638,0,0,0,38.131,11.362Zm8.684-4.21V9.49H48.44v1.863H46.814V16.1a1.133,1.133,0,0,0,.2.756,1.015,1.015,0,0,0,.773.229,4.051,4.051,0,0,0,.747-.062v1.925A5.229,5.229,0,0,1,47,19.176a2.425,2.425,0,0,1-2.725-2.7V11.354H42.885V9.49h1.389V7.152ZM52.536,19H49.987V9.49h2.549Zm-2.7-11.971a1.251,1.251,0,0,1,.382-.94,1.648,1.648,0,0,1,2.079,0,1.244,1.244,0,0,1,.387.94,1.247,1.247,0,0,1-.391.949,1.629,1.629,0,0,1-2.065,0A1.247,1.247,0,0,1,49.838,7.029Zm8.35,8.868L59.954,9.49h2.654L59.4,19H56.974L53.766,9.49h2.654Zm5.01-1.74a5.64,5.64,0,0,1,.545-2.522,3.989,3.989,0,0,1,1.569-1.714,4.577,4.577,0,0,1,2.377-.606,4.33,4.33,0,0,1,3.142,1.178,4.727,4.727,0,0,1,1.358,3.2l.018.65a4.97,4.97,0,0,1-1.222,3.511,4.735,4.735,0,0,1-6.561,0A5.058,5.058,0,0,1,63.2,14.271Zm2.54.18a3.555,3.555,0,0,0,.51,2.073,1.831,1.831,0,0,0,2.9.009,3.89,3.89,0,0,0,.519-2.267,3.519,3.519,0,0,0-.519-2.06,1.686,1.686,0,0,0-1.459-.731,1.658,1.658,0,0,0-1.441.726A3.955,3.955,0,0,0,65.737,14.338Zm13.184,2.035a.818.818,0,0,0-.461-.734,5.241,5.241,0,0,0-1.481-.479q-3.393-.712-3.393-2.883a2.613,2.613,0,0,1,1.05-2.114,4.237,4.237,0,0,1,2.747-.848,4.56,4.56,0,0,1,2.9.853,2.687,2.687,0,0,1,1.085,2.215h-2.54a1.229,1.229,0,0,0-.352-.9,1.488,1.488,0,0,0-1.1-.356,1.52,1.52,0,0,0-.993.29.916.916,0,0,0-.352.738.783.783,0,0,0,.4.681,4.114,4.114,0,0,0,1.349.448,11.019,11.019,0,0,1,1.6.426,2.628,2.628,0,0,1,2.013,2.558,2.481,2.481,0,0,1-1.116,2.1,4.815,4.815,0,0,1-2.883.8,5.029,5.029,0,0,1-2.123-.426,3.561,3.561,0,0,1-1.455-1.169,2.716,2.716,0,0,1-.527-1.6H75.7a1.326,1.326,0,0,0,.5,1.037,1.987,1.987,0,0,0,1.248.36,1.839,1.839,0,0,0,1.1-.277A.861.861,0,0,0,78.921,16.372ZM93.018,19a2.821,2.821,0,0,1-.255-.853,3.073,3.073,0,0,1-2.4,1.028,3.376,3.376,0,0,1-2.316-.809,2.6,2.6,0,0,1-.918-2.039,2.687,2.687,0,0,1,1.121-2.32,5.529,5.529,0,0,1,3.239-.817h1.169v-.545a1.567,1.567,0,0,0-.338-1.055,1.331,1.331,0,0,0-1.068-.4,1.513,1.513,0,0,0-1.006.308,1.045,1.045,0,0,0-.365.844h-2.54a2.551,2.551,0,0,1,.51-1.529,3.37,3.37,0,0,1,1.441-1.1,5.253,5.253,0,0,1,2.092-.4,4.15,4.15,0,0,1,2.791.883,3.09,3.09,0,0,1,1.033,2.483V16.8a4.546,4.546,0,0,0,.378,2.048V19Zm-2.1-1.767a2.188,2.188,0,0,0,1.037-.25,1.645,1.645,0,0,0,.7-.672V14.676h-.949q-1.907,0-2.03,1.318l-.009.149a1.017,1.017,0,0,0,.334.782A1.3,1.3,0,0,0,90.918,17.233Zm13.1-7.743.079,1.063a3.342,3.342,0,0,1,2.733-1.239,2.536,2.536,0,0,1,2.522,1.45,3.265,3.265,0,0,1,2.856-1.45,2.836,2.836,0,0,1,2.3.9,4.141,4.141,0,0,1,.756,2.711V19h-2.549V12.936a1.811,1.811,0,0,0-.316-1.182,1.4,1.4,0,0,0-1.116-.374,1.585,1.585,0,0,0-1.582,1.09l.009,6.53h-2.54V12.944a1.789,1.789,0,0,0-.325-1.2,1.416,1.416,0,0,0-1.107-.369,1.646,1.646,0,0,0-1.564.9V19h-2.54V9.49ZM121.6,19.176a4.668,4.668,0,0,1-3.406-1.283,4.561,4.561,0,0,1-1.314-3.419v-.246a5.745,5.745,0,0,1,.554-2.562A4.064,4.064,0,0,1,119,9.925a4.4,4.4,0,0,1,2.316-.611,3.947,3.947,0,0,1,3.072,1.23,5,5,0,0,1,1.121,3.489v1.037h-6.056a2.36,2.36,0,0,0,.743,1.494,2.245,2.245,0,0,0,1.569.563,2.742,2.742,0,0,0,2.294-1.063l1.248,1.4a3.813,3.813,0,0,1-1.547,1.261A5.075,5.075,0,0,1,121.6,19.176Zm-.29-7.813a1.587,1.587,0,0,0-1.226.512,2.651,2.651,0,0,0-.6,1.466h3.533v-.2a1.891,1.891,0,0,0-.457-1.311A1.638,1.638,0,0,0,121.31,11.362Zm5.247,2.813a5.731,5.731,0,0,1,1-3.542,3.237,3.237,0,0,1,2.729-1.318,2.913,2.913,0,0,1,2.294,1.037V5.5h2.549V19h-2.294l-.123-1.011a2.989,2.989,0,0,1-2.443,1.187,3.228,3.228,0,0,1-2.694-1.323A5.916,5.916,0,0,1,126.557,14.175Zm2.54.189a3.754,3.754,0,0,0,.466,2.051,1.517,1.517,0,0,0,1.354.713,1.7,1.7,0,0,0,1.661-.995V12.375a1.675,1.675,0,0,0-1.644-.995Q129.1,11.38,129.1,14.364ZM139.776,19h-2.549V9.49h2.549Zm-2.7-11.971a1.251,1.251,0,0,1,.382-.94,1.648,1.648,0,0,1,2.079,0,1.244,1.244,0,0,1,.387.94,1.247,1.247,0,0,1-.391.949,1.629,1.629,0,0,1-2.065,0A1.247,1.247,0,0,1,137.078,7.029ZM147.379,19a2.821,2.821,0,0,1-.255-.853,3.073,3.073,0,0,1-2.4,1.028,3.376,3.376,0,0,1-2.316-.809,2.6,2.6,0,0,1-.918-2.039,2.687,2.687,0,0,1,1.121-2.32,5.529,5.529,0,0,1,3.239-.817h1.169v-.545a1.567,1.567,0,0,0-.338-1.055,1.331,1.331,0,0,0-1.068-.4,1.513,1.513,0,0,0-1.006.308,1.045,1.045,0,0,0-.365.844H141.7a2.551,2.551,0,0,1,.51-1.529,3.37,3.37,0,0,1,1.441-1.1,5.253,5.253,0,0,1,2.092-.4,4.15,4.15,0,0,1,2.791.883,3.09,3.09,0,0,1,1.033,2.483V16.8a4.546,4.546,0,0,0,.378,2.048V19Zm-2.1-1.767a2.188,2.188,0,0,0,1.037-.25,1.645,1.645,0,0,0,.7-.672V14.676h-.949q-1.907,0-2.03,1.318l-.009.149a1.017,1.017,0,0,0,.334.782A1.3,1.3,0,0,0,145.278,17.233Zm8.578-7.743.079,1.1a3.32,3.32,0,0,1,2.733-1.274,2.759,2.759,0,0,1,2.25.888,4.142,4.142,0,0,1,.756,2.654V19h-2.54V12.918a1.648,1.648,0,0,0-.352-1.173,1.574,1.574,0,0,0-1.169-.365,1.747,1.747,0,0,0-1.608.914V19h-2.54V9.49Zm7.348,4.667a5.64,5.64,0,0,1,.545-2.522,3.989,3.989,0,0,1,1.569-1.714,4.577,4.577,0,0,1,2.377-.606,4.33,4.33,0,0,1,3.142,1.178,4.727,4.727,0,0,1,1.358,3.2l.018.65a4.97,4.97,0,0,1-1.222,3.511,4.735,4.735,0,0,1-6.561,0,5.058,5.058,0,0,1-1.226-3.586Zm2.54.18a3.555,3.555,0,0,0,.51,2.073,1.831,1.831,0,0,0,2.9.009,3.89,3.89,0,0,0,.519-2.267,3.519,3.519,0,0,0-.519-2.06,1.686,1.686,0,0,0-1.459-.731,1.658,1.658,0,0,0-1.441.726A3.955,3.955,0,0,0,163.744,14.338Zm21.076,0a5.7,5.7,0,0,1-1,3.52,3.2,3.2,0,0,1-2.694,1.323,2.963,2.963,0,0,1-2.329-1v4.482h-2.54V9.49h2.355l.088.932a2.985,2.985,0,0,1,2.408-1.107,3.22,3.22,0,0,1,2.733,1.3,5.858,5.858,0,0,1,.976,3.586Zm-2.54-.185a3.743,3.743,0,0,0-.47-2.048,1.532,1.532,0,0,0-1.367-.721,1.663,1.663,0,0,0-1.644.914v3.894a1.692,1.692,0,0,0,1.661.94Q182.28,17.128,182.28,14.148ZM189.074,19h-2.549V5.5h2.549Zm7.6,0a2.821,2.821,0,0,1-.255-.853,3.073,3.073,0,0,1-2.4,1.028,3.376,3.376,0,0,1-2.316-.809,2.6,2.6,0,0,1-.918-2.039,2.687,2.687,0,0,1,1.121-2.32,5.529,5.529,0,0,1,3.239-.817h1.169v-.545a1.567,1.567,0,0,0-.338-1.055,1.331,1.331,0,0,0-1.068-.4,1.513,1.513,0,0,0-1.006.308,1.045,1.045,0,0,0-.365.844H191a2.551,2.551,0,0,1,.51-1.529,3.37,3.37,0,0,1,1.441-1.1,5.253,5.253,0,0,1,2.092-.4,4.15,4.15,0,0,1,2.791.883,3.09,3.09,0,0,1,1.033,2.483V16.8a4.546,4.546,0,0,0,.378,2.048V19Zm-2.1-1.767a2.188,2.188,0,0,0,1.037-.25,1.645,1.645,0,0,0,.7-.672V14.676h-.949q-1.907,0-2.03,1.318l-.009.149a1.017,1.017,0,0,0,.334.782A1.3,1.3,0,0,0,194.576,17.233Zm9.158-.281h4.649V19h-7.893V17.453l4.474-5.915h-4.342V9.49h7.62v1.5Zm5.7-2.795a5.64,5.64,0,0,1,.545-2.522,3.989,3.989,0,0,1,1.569-1.714,4.577,4.577,0,0,1,2.377-.606,4.33,4.33,0,0,1,3.142,1.178,4.727,4.727,0,0,1,1.358,3.2l.018.65a4.97,4.97,0,0,1-1.222,3.511,4.735,4.735,0,0,1-6.561,0,5.058,5.058,0,0,1-1.226-3.586Zm2.54.18a3.555,3.555,0,0,0,.51,2.073,1.831,1.831,0,0,0,2.9.009,3.89,3.89,0,0,0,.519-2.267,3.519,3.519,0,0,0-.519-2.06,1.686,1.686,0,0,0-1.459-.731,1.658,1.658,0,0,0-1.441.726A3.955,3.955,0,0,0,211.978,14.338Z" transform="translate(38.046 19.615)" fill="#fff"/>
    <path id="Trazado_214911" data-name="Trazado 214911" d="M-7781.046-3824.119h29.8l7.5-7.5" transform="translate(7781.046 3831.615)" fill="none" stroke="#707070" stroke-width="1"/>
    <path id="Trazado_214918" data-name="Trazado 214918" d="M-7180.355-9612.3v-377.6" transform="translate(7225.003 10045.529)" fill="none" stroke="#18b8c4" stroke-width="2"/>
    <g id="Grupo_871204" data-name="Grupo 871204" transform="translate(91.842 80.031)">
      <g id="Grupo_871198" data-name="Grupo 871198" transform="translate(2.882 0.018)">
        <path id="Sustracción_4" data-name="Sustracción 4" d="M177.452,46.372H0V0H2.376c.02,2.143.074,3.647.075,3.661H24.336L25.689,0h173.9V35.246H180.851l-3.4,11.125Z" transform="translate(0 0)" fill="#e1fbff"/>
        <path id="Trazado_213850" data-name="Trazado 213850" d="M-1.359,1.311H21.028V8.376H-4Z" transform="translate(179.16 37.996)" fill="#3ae3fe" opacity="0.5"/>
      </g>
      <g id="Grupo_871199" data-name="Grupo 871199" transform="translate(25.385 26.41) rotate(-180)">
        <path id="Trazado_213855" data-name="Trazado 213855" d="M0,0,3.277,2.914V23.679H0Z" transform="translate(22.108 0)" fill="#3ae3fe"/>
        <path id="Trazado_213856" data-name="Trazado 213856" d="M0,25.385l3.7-3.173V0H0Z" transform="translate(25.385 22.706) rotate(90)" fill="#3ae3fe"/>
      </g>
    </g>
    <g id="Grupo_881513" data-name="Grupo 881513" transform="translate(91.842 141.031)">
      <g id="Grupo_871198-2" data-name="Grupo 871198" transform="translate(2.882 0.018)">
        <path id="Sustracción_4-2" data-name="Sustracción 4" d="M177.452,46.372H0V0H2.376c.02,2.143.074,3.647.075,3.661H24.336L25.689,0h173.9V35.246H180.851l-3.4,11.125Z" transform="translate(0 0)" fill="#e1fbff"/>
        <path id="Trazado_213850-2" data-name="Trazado 213850" d="M-1.359,1.311H21.028V8.376H-4Z" transform="translate(179.16 37.996)" fill="#3ae3fe" opacity="0.5"/>
      </g>
      <g id="Grupo_871199-2" data-name="Grupo 871199" transform="translate(25.385 26.41) rotate(-180)">
        <path id="Trazado_213855-2" data-name="Trazado 213855" d="M0,0,3.277,2.914V23.679H0Z" transform="translate(22.108 0)" fill="#3ae3fe"/>
        <path id="Trazado_213856-2" data-name="Trazado 213856" d="M0,25.385l3.7-3.173V0H0Z" transform="translate(25.385 22.706) rotate(90)" fill="#3ae3fe"/>
      </g>
    </g>
    <g id="Grupo_881515" data-name="Grupo 881515" transform="translate(91.842 202.031)">
      <g id="Grupo_871198-3" data-name="Grupo 871198" transform="translate(2.882 0.018)">
        <path id="Sustracción_4-3" data-name="Sustracción 4" d="M177.452,46.372H0V0H2.376c.02,2.143.074,3.647.075,3.661H24.336L25.689,0h173.9V35.246H180.851l-3.4,11.125Z" transform="translate(0 0)" fill="#e1fbff"/>
        <path id="Trazado_213850-3" data-name="Trazado 213850" d="M-1.359,1.311H21.028V8.376H-4Z" transform="translate(179.16 37.996)" fill="#3ae3fe" opacity="0.5"/>
      </g>
      <g id="Grupo_871199-3" data-name="Grupo 871199" transform="translate(25.385 26.41) rotate(-180)">
        <path id="Trazado_213855-3" data-name="Trazado 213855" d="M0,0,3.277,2.914V23.679H0Z" transform="translate(22.108 0)" fill="#3ae3fe"/>
        <path id="Trazado_213856-3" data-name="Trazado 213856" d="M0,25.385l3.7-3.173V0H0Z" transform="translate(25.385 22.706) rotate(90)" fill="#3ae3fe"/>
      </g>
    </g>
    <g id="Grupo_881517" data-name="Grupo 881517" transform="translate(91.842 263.031)">
      <g id="Grupo_871198-4" data-name="Grupo 871198" transform="translate(2.882 0.018)">
        <path id="Sustracción_4-4" data-name="Sustracción 4" d="M177.452,46.372H0V0H2.376c.02,2.143.074,3.647.075,3.661H24.336L25.689,0h173.9V35.246H180.851l-3.4,11.125Z" transform="translate(0 0)" fill="#e1fbff"/>
        <path id="Trazado_213850-4" data-name="Trazado 213850" d="M-1.359,1.311H21.028V8.376H-4Z" transform="translate(179.16 37.996)" fill="#3ae3fe" opacity="0.5"/>
      </g>
      <g id="Grupo_871199-4" data-name="Grupo 871199" transform="translate(25.385 26.41) rotate(-180)">
        <path id="Trazado_213855-4" data-name="Trazado 213855" d="M0,0,3.277,2.914V23.679H0Z" transform="translate(22.108 0)" fill="#3ae3fe"/>
        <path id="Trazado_213856-4" data-name="Trazado 213856" d="M0,25.385l3.7-3.173V0H0Z" transform="translate(25.385 22.706) rotate(90)" fill="#3ae3fe"/>
      </g>
    </g>
    <g id="Grupo_881522" data-name="Grupo 881522" transform="translate(91.842 410.031)">
      <g id="Grupo_871198-5" data-name="Grupo 871198" transform="translate(2.882 0.018)">
        <path id="Sustracción_4-5" data-name="Sustracción 4" d="M177.452,46.372H0V0H2.376c.02,2.143.074,3.647.075,3.661H24.336L25.689,0h173.9V35.246H180.851l-3.4,11.125Z" transform="translate(0 0)" fill="#e1fbff"/>
        <path id="Trazado_213850-5" data-name="Trazado 213850" d="M-1.359,1.311H21.028V8.376H-4Z" transform="translate(179.16 37.996)" fill="#3ae3fe" opacity="0.5"/>
      </g>
      <g id="Grupo_871199-5" data-name="Grupo 871199" transform="translate(25.385 26.41) rotate(-180)">
        <path id="Trazado_213855-5" data-name="Trazado 213855" d="M0,0,3.277,2.914V23.679H0Z" transform="translate(22.108 0)" fill="#3ae3fe"/>
        <path id="Trazado_213856-5" data-name="Trazado 213856" d="M0,25.385l3.7-3.173V0H0Z" transform="translate(25.385 22.706) rotate(90)" fill="#3ae3fe"/>
      </g>
    </g>
    <g id="Grupo_881519" data-name="Grupo 881519" transform="translate(91.842 324.031)">
      <g id="Grupo_871198-6" data-name="Grupo 871198" transform="translate(2.882 0.018)">
        <path id="Sustracción_4-6" data-name="Sustracción 4" d="M177.452,73.252H0V0H2.376c.02,3.386.074,5.76.075,5.783H24.336L25.689,0h173.9V55.677H180.851l-3.4,17.574Z" transform="translate(0 0)" fill="#e1fbff"/>
        <path id="Trazado_213850-6" data-name="Trazado 213850" d="M-1.359,1.311H21.028V8.376H-4Z" transform="translate(179.16 64.876)" fill="#3ae3fe" opacity="0.5"/>
      </g>
      <g id="Grupo_871199-6" data-name="Grupo 871199" transform="translate(25.385 26.41) rotate(-180)">
        <path id="Trazado_213855-6" data-name="Trazado 213855" d="M0,0,3.277,2.914V23.679H0Z" transform="translate(22.108 0)" fill="#3ae3fe"/>
        <path id="Trazado_213856-6" data-name="Trazado 213856" d="M0,25.385l3.7-3.173V0H0Z" transform="translate(25.385 22.706) rotate(90)" fill="#3ae3fe"/>
      </g>
    </g>
    <path id="Trazado_608254" data-name="Trazado 608254" d="M76.814,7.217H72.929V18H71.344V7.217H67.467v-1.3h9.347ZM83.911,18a3.226,3.226,0,0,1-.216-.946,3.426,3.426,0,0,1-2.557,1.112,3.17,3.17,0,0,1-2.179-.751,2.43,2.43,0,0,1-.851-1.905,2.539,2.539,0,0,1,1.067-2.179,5.029,5.029,0,0,1,3-.776H83.67v-.706a1.725,1.725,0,0,0-.481-1.282,1.935,1.935,0,0,0-1.419-.477,2.239,2.239,0,0,0-1.378.415,1.223,1.223,0,0,0-.556,1H78.292a2.119,2.119,0,0,1,.477-1.3,3.258,3.258,0,0,1,1.295-.992,4.356,4.356,0,0,1,1.8-.365,3.551,3.551,0,0,1,2.432.776,2.8,2.8,0,0,1,.913,2.137V15.9a5.054,5.054,0,0,0,.315,1.967V18Zm-2.548-1.17a2.7,2.7,0,0,0,1.37-.374,2.259,2.259,0,0,0,.938-.971V13.642h-1.2q-2.822,0-2.822,1.652a1.4,1.4,0,0,0,.481,1.129A1.85,1.85,0,0,0,81.363,16.83ZM82.782,5.25h1.859L82.417,7.69l-1.237,0Zm8.434,11.663a2.212,2.212,0,0,0,1.436-.5,1.752,1.752,0,0,0,.681-1.245h1.453a2.785,2.785,0,0,1-.531,1.469,3.5,3.5,0,0,1-1.307,1.112,3.772,3.772,0,0,1-1.731.415A3.7,3.7,0,0,1,88.3,16.942a4.877,4.877,0,0,1-1.083-3.349v-.257A5.407,5.407,0,0,1,87.7,11a3.667,3.667,0,0,1,1.382-1.585,3.926,3.926,0,0,1,2.129-.564,3.6,3.6,0,0,1,2.511.9,3.234,3.234,0,0,1,1.067,2.349H93.333a2.116,2.116,0,0,0-.66-1.432,2.053,2.053,0,0,0-1.465-.56,2.149,2.149,0,0,0-1.814.843,3.957,3.957,0,0,0-.643,2.436v.291a3.878,3.878,0,0,0,.639,2.391A2.16,2.16,0,0,0,91.216,16.913ZM98.6,6.844V9.019h1.677v1.187H98.6v5.577a1.247,1.247,0,0,0,.224.81.943.943,0,0,0,.764.27,3.718,3.718,0,0,0,.73-.1V18a4.478,4.478,0,0,1-1.179.165,1.912,1.912,0,0,1-1.552-.623,2.675,2.675,0,0,1-.523-1.768v-5.57H95.424V9.019H97.06V6.844ZM103.733,18H102.2V9.019h1.536Zm-1.66-11.364a.917.917,0,0,1,.228-.631.857.857,0,0,1,.677-.257.87.87,0,0,1,.681.257.907.907,0,0,1,.232.631.877.877,0,0,1-.232.623.886.886,0,0,1-.681.249.872.872,0,0,1-.677-.249A.886.886,0,0,1,102.073,6.636Zm7.72,10.276a2.212,2.212,0,0,0,1.436-.5,1.752,1.752,0,0,0,.681-1.245h1.453a2.785,2.785,0,0,1-.531,1.469,3.5,3.5,0,0,1-1.307,1.112,3.772,3.772,0,0,1-1.731.415,3.7,3.7,0,0,1-2.918-1.224,4.877,4.877,0,0,1-1.083-3.349v-.257A5.407,5.407,0,0,1,106.273,11a3.667,3.667,0,0,1,1.382-1.585,3.926,3.926,0,0,1,2.129-.564,3.6,3.6,0,0,1,2.511.9,3.234,3.234,0,0,1,1.067,2.349H111.91a2.116,2.116,0,0,0-.66-1.432,2.053,2.053,0,0,0-1.465-.56,2.149,2.149,0,0,0-1.814.843,3.957,3.957,0,0,0-.643,2.436v.291a3.878,3.878,0,0,0,.639,2.391A2.16,2.16,0,0,0,109.793,16.913ZM120.634,18a3.226,3.226,0,0,1-.216-.946,3.426,3.426,0,0,1-2.557,1.112,3.17,3.17,0,0,1-2.179-.751,2.43,2.43,0,0,1-.851-1.905,2.539,2.539,0,0,1,1.067-2.179,5.029,5.029,0,0,1,3-.776h1.494v-.706a1.725,1.725,0,0,0-.481-1.282,1.935,1.935,0,0,0-1.419-.477,2.239,2.239,0,0,0-1.378.415,1.223,1.223,0,0,0-.556,1h-1.544a2.119,2.119,0,0,1,.477-1.3,3.258,3.258,0,0,1,1.295-.992,4.356,4.356,0,0,1,1.8-.365,3.551,3.551,0,0,1,2.432.776,2.8,2.8,0,0,1,.913,2.137V15.9a5.054,5.054,0,0,0,.315,1.967V18Zm-2.548-1.17a2.7,2.7,0,0,0,1.37-.374,2.259,2.259,0,0,0,.938-.971V13.642h-1.2q-2.822,0-2.822,1.652a1.4,1.4,0,0,0,.481,1.129A1.85,1.85,0,0,0,118.085,16.83Zm11.48-1.212a1.13,1.13,0,0,0-.469-.967,4.514,4.514,0,0,0-1.635-.594,7.731,7.731,0,0,1-1.851-.6,2.633,2.633,0,0,1-1.013-.83,1.986,1.986,0,0,1-.328-1.146,2.33,2.33,0,0,1,.934-1.868,3.647,3.647,0,0,1,2.386-.764,3.753,3.753,0,0,1,2.478.789,2.5,2.5,0,0,1,.95,2.017h-1.544a1.386,1.386,0,0,0-.535-1.087,2.006,2.006,0,0,0-1.349-.457,2.1,2.1,0,0,0-1.312.365,1.15,1.15,0,0,0-.473.955.932.932,0,0,0,.44.838,5.413,5.413,0,0,0,1.59.54,8.283,8.283,0,0,1,1.864.614,2.718,2.718,0,0,1,1.058.859,2.112,2.112,0,0,1,.344,1.224,2.3,2.3,0,0,1-.963,1.93,4.039,4.039,0,0,1-2.5.726,4.523,4.523,0,0,1-1.909-.382,3.105,3.105,0,0,1-1.3-1.067,2.571,2.571,0,0,1-.469-1.482H125.5a1.59,1.59,0,0,0,.618,1.224,2.4,2.4,0,0,0,1.523.452,2.476,2.476,0,0,0,1.4-.353A1.084,1.084,0,0,0,129.565,15.618Z" transform="translate(96 93.42)" fill="#12263f"/>
    <path id="Trazado_608255" data-name="Trazado 608255" d="M42.457,12.347a7.476,7.476,0,0,1-.6,3.1,4.527,4.527,0,0,1-1.693,2.021,4.673,4.673,0,0,1-6.8-2,7.174,7.174,0,0,1-.627-3.009v-.872a7.388,7.388,0,0,1,.606-3.08,4.482,4.482,0,0,1,4.25-2.756,4.685,4.685,0,0,1,2.561.7,4.519,4.519,0,0,1,1.706,2.034,7.513,7.513,0,0,1,.6,3.1Zm-1.585-.78a5.419,5.419,0,0,0-.863-3.3,2.847,2.847,0,0,0-2.416-1.15,2.817,2.817,0,0,0-2.378,1.15,5.308,5.308,0,0,0-.892,3.192v.888a5.427,5.427,0,0,0,.876,3.275,3.069,3.069,0,0,0,4.8.066,5.4,5.4,0,0,0,.872-3.225ZM52.21,13.609a5.34,5.34,0,0,1-.946,3.308,3.024,3.024,0,0,1-2.54,1.249,3.131,3.131,0,0,1-2.631-1.2L46.018,18H44.607V5.25h1.536v4.756a3.113,3.113,0,0,1,2.565-1.154,3.042,3.042,0,0,1,2.569,1.237,5.5,5.5,0,0,1,.934,3.387Zm-1.536-.174a4.15,4.15,0,0,0-.606-2.424,2.006,2.006,0,0,0-1.743-.855,2.255,2.255,0,0,0-2.183,1.411v3.885a2.318,2.318,0,0,0,2.2,1.411,2,2,0,0,0,1.718-.855A4.413,4.413,0,0,0,50.675,13.435ZM55.73,9.019V19.038q0,2.59-2.349,2.59a2.865,2.865,0,0,1-.938-.149V20.258a2.969,2.969,0,0,0,.7.066,1.043,1.043,0,0,0,.784-.278,1.376,1.376,0,0,0,.27-.968V9.019ZM54.037,6.636a.921.921,0,0,1,.228-.627.839.839,0,0,1,.668-.261.87.87,0,0,1,.681.257.907.907,0,0,1,.232.631.877.877,0,0,1-.232.623.886.886,0,0,1-.681.249.859.859,0,0,1-.672-.249A.9.9,0,0,1,54.037,6.636Zm7.894,11.53a3.924,3.924,0,0,1-2.972-1.2,4.452,4.452,0,0,1-1.146-3.208v-.282a5.39,5.39,0,0,1,.51-2.386,3.982,3.982,0,0,1,1.428-1.644,3.59,3.59,0,0,1,1.988-.594,3.364,3.364,0,0,1,2.723,1.154,5,5,0,0,1,.971,3.3v.639H59.349a3.193,3.193,0,0,0,.776,2.146,2.44,2.44,0,0,0,1.888.818,2.675,2.675,0,0,0,1.378-.332,3.462,3.462,0,0,0,.988-.88l.938.73A3.772,3.772,0,0,1,61.931,18.166Zm-.191-8.052a2.048,2.048,0,0,0-1.561.677,3.288,3.288,0,0,0-.78,1.9h4.5v-.116a2.925,2.925,0,0,0-.631-1.814A1.928,1.928,0,0,0,61.74,10.114Zm7.554-3.271V9.019H70.97v1.187H69.293v5.577a1.247,1.247,0,0,0,.224.81.943.943,0,0,0,.764.27,3.718,3.718,0,0,0,.73-.1V18a4.478,4.478,0,0,1-1.179.165,1.912,1.912,0,0,1-1.552-.623,2.675,2.675,0,0,1-.523-1.768v-5.57H66.123V9.019h1.635V6.844ZM74.432,18H72.9V9.019h1.536ZM72.771,6.636A.917.917,0,0,1,73,6.005a.857.857,0,0,1,.677-.257.87.87,0,0,1,.681.257.907.907,0,0,1,.232.631.877.877,0,0,1-.232.623.886.886,0,0,1-.681.249A.872.872,0,0,1,73,7.259.886.886,0,0,1,72.771,6.636Zm7.081,9.28,2.225-6.9h1.569L80.425,18h-1.17L76,9.019h1.569Zm4.74-2.49a5.3,5.3,0,0,1,.519-2.374,3.87,3.87,0,0,1,1.444-1.627,3.932,3.932,0,0,1,2.113-.573,3.788,3.788,0,0,1,2.968,1.27A4.886,4.886,0,0,1,92.768,13.5v.108a5.351,5.351,0,0,1-.5,2.353,3.813,3.813,0,0,1-1.436,1.623,3.977,3.977,0,0,1-2.146.581,3.778,3.778,0,0,1-2.959-1.27,4.861,4.861,0,0,1-1.133-3.362Zm1.544.183a3.842,3.842,0,0,0,.693,2.4A2.349,2.349,0,0,0,90.543,16a4.2,4.2,0,0,0,.689-2.569,3.836,3.836,0,0,0-.7-2.395,2.23,2.23,0,0,0-1.864-.917,2.205,2.205,0,0,0-1.834.9A4.17,4.17,0,0,0,86.136,13.609Zm13.788,2.009a1.131,1.131,0,0,0-.469-.967,4.514,4.514,0,0,0-1.635-.594,7.731,7.731,0,0,1-1.851-.6,2.633,2.633,0,0,1-1.013-.83,1.986,1.986,0,0,1-.328-1.146,2.33,2.33,0,0,1,.934-1.868,3.647,3.647,0,0,1,2.386-.764,3.753,3.753,0,0,1,2.478.789,2.5,2.5,0,0,1,.95,2.017H99.832a1.386,1.386,0,0,0-.535-1.087,2.006,2.006,0,0,0-1.349-.457,2.1,2.1,0,0,0-1.312.365,1.15,1.15,0,0,0-.473.955.932.932,0,0,0,.44.838,5.413,5.413,0,0,0,1.59.54,8.283,8.283,0,0,1,1.864.614,2.718,2.718,0,0,1,1.058.859,2.112,2.112,0,0,1,.344,1.224,2.3,2.3,0,0,1-.963,1.93,4.039,4.039,0,0,1-2.5.726,4.523,4.523,0,0,1-1.909-.382,3.105,3.105,0,0,1-1.3-1.067,2.571,2.571,0,0,1-.469-1.482h1.536a1.59,1.59,0,0,0,.618,1.224A2.4,2.4,0,0,0,98,16.913a2.476,2.476,0,0,0,1.4-.353A1.084,1.084,0,0,0,99.923,15.618Zm9.828-8.774V9.019h1.677v1.187h-1.677v5.577a1.247,1.247,0,0,0,.224.81.943.943,0,0,0,.764.27,3.718,3.718,0,0,0,.73-.1V18a4.478,4.478,0,0,1-1.179.165,1.912,1.912,0,0,1-1.552-.623,2.675,2.675,0,0,1-.523-1.768v-5.57h-1.635V9.019h1.635V6.844ZM118.766,18a3.226,3.226,0,0,1-.216-.946,3.426,3.426,0,0,1-2.557,1.112,3.17,3.17,0,0,1-2.179-.751,2.43,2.43,0,0,1-.851-1.905,2.539,2.539,0,0,1,1.067-2.179,5.029,5.029,0,0,1,3-.776h1.494v-.706a1.725,1.725,0,0,0-.481-1.282,1.935,1.935,0,0,0-1.419-.477,2.239,2.239,0,0,0-1.378.415,1.223,1.223,0,0,0-.556,1h-1.544a2.119,2.119,0,0,1,.477-1.3,3.258,3.258,0,0,1,1.295-.992,4.356,4.356,0,0,1,1.8-.365,3.551,3.551,0,0,1,2.432.776,2.8,2.8,0,0,1,.913,2.137V15.9a5.054,5.054,0,0,0,.315,1.967V18Zm-2.548-1.17a2.7,2.7,0,0,0,1.37-.374,2.259,2.259,0,0,0,.938-.971V13.642h-1.2q-2.822,0-2.822,1.652a1.4,1.4,0,0,0,.481,1.129A1.85,1.85,0,0,0,116.218,16.83Zm1.419-11.58H119.5l-2.225,2.44-1.237,0Zm8.434,11.663a2.212,2.212,0,0,0,1.436-.5,1.752,1.752,0,0,0,.681-1.245h1.453a2.785,2.785,0,0,1-.531,1.469,3.5,3.5,0,0,1-1.307,1.112,3.772,3.772,0,0,1-1.731.415,3.7,3.7,0,0,1-2.918-1.224,4.877,4.877,0,0,1-1.083-3.349v-.257A5.407,5.407,0,0,1,122.551,11a3.667,3.667,0,0,1,1.382-1.585,3.926,3.926,0,0,1,2.129-.564,3.6,3.6,0,0,1,2.511.9,3.234,3.234,0,0,1,1.067,2.349h-1.453a2.116,2.116,0,0,0-.66-1.432,2.053,2.053,0,0,0-1.465-.56,2.149,2.149,0,0,0-1.814.843,3.957,3.957,0,0,0-.643,2.436v.291a3.878,3.878,0,0,0,.639,2.391A2.16,2.16,0,0,0,126.071,16.913ZM133.45,6.844V9.019h1.677v1.187H133.45v5.577a1.247,1.247,0,0,0,.224.81.943.943,0,0,0,.764.27,3.718,3.718,0,0,0,.73-.1V18a4.478,4.478,0,0,1-1.179.165,1.912,1.912,0,0,1-1.552-.623,2.675,2.675,0,0,1-.523-1.768v-5.57h-1.635V9.019h1.635V6.844ZM138.588,18h-1.536V9.019h1.536Zm-1.66-11.364a.917.917,0,0,1,.228-.631.857.857,0,0,1,.677-.257.87.87,0,0,1,.681.257.907.907,0,0,1,.232.631.877.877,0,0,1-.232.623.886.886,0,0,1-.681.249.872.872,0,0,1-.677-.249A.886.886,0,0,1,136.928,6.636Zm7.72,10.276a2.212,2.212,0,0,0,1.436-.5,1.752,1.752,0,0,0,.681-1.245h1.453a2.785,2.785,0,0,1-.531,1.469,3.5,3.5,0,0,1-1.307,1.112,3.772,3.772,0,0,1-1.731.415,3.7,3.7,0,0,1-2.918-1.224,4.877,4.877,0,0,1-1.083-3.349v-.257A5.407,5.407,0,0,1,141.128,11a3.667,3.667,0,0,1,1.382-1.585,3.926,3.926,0,0,1,2.129-.564,3.6,3.6,0,0,1,2.511.9,3.234,3.234,0,0,1,1.067,2.349h-1.453a2.116,2.116,0,0,0-.66-1.432,2.053,2.053,0,0,0-1.465-.56,2.149,2.149,0,0,0-1.814.843,3.957,3.957,0,0,0-.643,2.436v.291a3.878,3.878,0,0,0,.639,2.391A2.16,2.16,0,0,0,144.648,16.913Zm4.889-3.486a5.3,5.3,0,0,1,.519-2.374A3.87,3.87,0,0,1,151.5,9.425a3.932,3.932,0,0,1,2.113-.573,3.788,3.788,0,0,1,2.968,1.27,4.886,4.886,0,0,1,1.133,3.378v.108a5.351,5.351,0,0,1-.5,2.353,3.813,3.813,0,0,1-1.436,1.623,3.977,3.977,0,0,1-2.146.581,3.778,3.778,0,0,1-2.959-1.27,4.861,4.861,0,0,1-1.133-3.362Zm1.544.183a3.842,3.842,0,0,0,.693,2.4A2.349,2.349,0,0,0,155.489,16a4.2,4.2,0,0,0,.689-2.569,3.836,3.836,0,0,0-.7-2.395,2.23,2.23,0,0,0-1.864-.917,2.205,2.205,0,0,0-1.834.9A4.17,4.17,0,0,0,151.081,13.609Zm13.788,2.009a1.13,1.13,0,0,0-.469-.967,4.514,4.514,0,0,0-1.635-.594,7.731,7.731,0,0,1-1.851-.6,2.633,2.633,0,0,1-1.013-.83,1.986,1.986,0,0,1-.328-1.146,2.33,2.33,0,0,1,.934-1.868,3.647,3.647,0,0,1,2.386-.764,3.753,3.753,0,0,1,2.478.789,2.5,2.5,0,0,1,.95,2.017h-1.544a1.386,1.386,0,0,0-.535-1.087,2.006,2.006,0,0,0-1.349-.457,2.1,2.1,0,0,0-1.312.365,1.15,1.15,0,0,0-.473.955.932.932,0,0,0,.44.838,5.413,5.413,0,0,0,1.59.54,8.283,8.283,0,0,1,1.864.614,2.718,2.718,0,0,1,1.058.859,2.112,2.112,0,0,1,.344,1.224,2.3,2.3,0,0,1-.963,1.93,4.039,4.039,0,0,1-2.5.726,4.523,4.523,0,0,1-1.909-.382,3.105,3.105,0,0,1-1.3-1.067,2.571,2.571,0,0,1-.469-1.482H160.8a1.59,1.59,0,0,0,.618,1.224,2.4,2.4,0,0,0,1.523.452,2.476,2.476,0,0,0,1.4-.353A1.084,1.084,0,0,0,164.869,15.618Z" transform="translate(96 154.42)" fill="#12263f"/>
    <path id="Trazado_608256" data-name="Trazado 608256" d="M68.65,12.663H63.578V18H61.985V5.914h7.487v1.3H63.578v4.142H68.65ZM76.5,17.112a3.262,3.262,0,0,1-2.631,1.054,2.792,2.792,0,0,1-2.187-.834,3.611,3.611,0,0,1-.76-2.469V9.019H72.46v5.8q0,2.042,1.66,2.042a2.3,2.3,0,0,0,2.341-1.312V9.019H78V18H76.536Zm5.279-8.093.05,1.129a3.273,3.273,0,0,1,2.689-1.295q2.847,0,2.872,3.212V18H85.858V12.057a2.068,2.068,0,0,0-.444-1.436,1.78,1.78,0,0,0-1.357-.465,2.216,2.216,0,0,0-1.312.4,2.706,2.706,0,0,0-.88,1.046V18H80.329V9.019Zm11.53,7.894a2.212,2.212,0,0,0,1.436-.5,1.752,1.752,0,0,0,.681-1.245h1.453a2.785,2.785,0,0,1-.531,1.469,3.5,3.5,0,0,1-1.307,1.112,3.772,3.772,0,0,1-1.731.415,3.7,3.7,0,0,1-2.918-1.224,4.877,4.877,0,0,1-1.083-3.349v-.257A5.407,5.407,0,0,1,89.792,11a3.667,3.667,0,0,1,1.382-1.585A3.926,3.926,0,0,1,93.3,8.853a3.6,3.6,0,0,1,2.511.9,3.234,3.234,0,0,1,1.067,2.349H95.428a2.116,2.116,0,0,0-.66-1.432,2.053,2.053,0,0,0-1.465-.56,2.149,2.149,0,0,0-1.814.843,3.957,3.957,0,0,0-.643,2.436v.291a3.878,3.878,0,0,0,.639,2.391A2.16,2.16,0,0,0,93.312,16.913ZM100.276,18H98.74V9.019h1.536ZM98.616,6.636a.917.917,0,0,1,.228-.631.857.857,0,0,1,.677-.257.87.87,0,0,1,.681.257.907.907,0,0,1,.232.631.877.877,0,0,1-.232.623.886.886,0,0,1-.681.249.872.872,0,0,1-.677-.249A.886.886,0,0,1,98.616,6.636Zm3.71,6.79a5.3,5.3,0,0,1,.519-2.374,3.87,3.87,0,0,1,1.444-1.627,3.932,3.932,0,0,1,2.113-.573,3.788,3.788,0,0,1,2.968,1.27A4.886,4.886,0,0,1,110.5,13.5v.108a5.351,5.351,0,0,1-.5,2.353,3.813,3.813,0,0,1-1.436,1.623,3.977,3.977,0,0,1-2.146.581,3.778,3.778,0,0,1-2.959-1.27,4.861,4.861,0,0,1-1.133-3.362Zm1.544.183a3.842,3.842,0,0,0,.693,2.4A2.349,2.349,0,0,0,108.278,16a4.2,4.2,0,0,0,.689-2.569,3.836,3.836,0,0,0-.7-2.395,2.23,2.23,0,0,0-1.864-.917,2.205,2.205,0,0,0-1.834.9A4.17,4.17,0,0,0,103.87,13.609Zm10.011-4.59.05,1.129a3.273,3.273,0,0,1,2.689-1.295q2.847,0,2.872,3.212V18h-1.536V12.057a2.068,2.068,0,0,0-.444-1.436,1.78,1.78,0,0,0-1.357-.465,2.216,2.216,0,0,0-1.312.4,2.706,2.706,0,0,0-.88,1.046V18h-1.536V9.019Zm11.654,9.147a3.924,3.924,0,0,1-2.972-1.2,4.452,4.452,0,0,1-1.146-3.208v-.282a5.39,5.39,0,0,1,.51-2.386,3.982,3.982,0,0,1,1.428-1.644,3.59,3.59,0,0,1,1.988-.594,3.364,3.364,0,0,1,2.723,1.154,5,5,0,0,1,.971,3.3v.639h-6.084a3.193,3.193,0,0,0,.776,2.146,2.44,2.44,0,0,0,1.888.818A2.675,2.675,0,0,0,127,16.581a3.462,3.462,0,0,0,.988-.88l.938.73A3.772,3.772,0,0,1,125.535,18.166Zm-.191-8.052a2.048,2.048,0,0,0-1.561.677,3.288,3.288,0,0,0-.78,1.9h4.5v-.116a2.925,2.925,0,0,0-.631-1.814A1.928,1.928,0,0,0,125.344,10.114Zm10.7,5.5a1.13,1.13,0,0,0-.469-.967,4.514,4.514,0,0,0-1.635-.594,7.731,7.731,0,0,1-1.851-.6,2.633,2.633,0,0,1-1.013-.83,1.986,1.986,0,0,1-.328-1.146,2.33,2.33,0,0,1,.934-1.868,3.647,3.647,0,0,1,2.386-.764,3.753,3.753,0,0,1,2.478.789,2.5,2.5,0,0,1,.95,2.017h-1.544a1.386,1.386,0,0,0-.535-1.087,2.006,2.006,0,0,0-1.349-.457,2.1,2.1,0,0,0-1.312.365,1.15,1.15,0,0,0-.473.955.932.932,0,0,0,.44.838,5.413,5.413,0,0,0,1.59.54,8.283,8.283,0,0,1,1.864.614,2.718,2.718,0,0,1,1.058.859,2.112,2.112,0,0,1,.344,1.224,2.3,2.3,0,0,1-.963,1.93,4.039,4.039,0,0,1-2.5.726,4.523,4.523,0,0,1-1.909-.382,3.105,3.105,0,0,1-1.3-1.067,2.571,2.571,0,0,1-.469-1.482h1.536a1.59,1.59,0,0,0,.618,1.224,2.4,2.4,0,0,0,1.523.452,2.476,2.476,0,0,0,1.4-.353A1.084,1.084,0,0,0,136.044,15.618Z" transform="translate(96 215.42)" fill="#12263f"/>
    <path id="Trazado_608257" data-name="Trazado 608257" d="M44.4,13.269V18H42.806V5.914h4.458a4.478,4.478,0,0,1,3.109,1.013A3.433,3.433,0,0,1,51.5,9.608a3.388,3.388,0,0,1-1.1,2.71,4.678,4.678,0,0,1-3.15.95Zm0-1.3h2.864a2.863,2.863,0,0,0,1.959-.6A2.2,2.2,0,0,0,49.9,9.62a2.277,2.277,0,0,0-.681-1.73,2.682,2.682,0,0,0-1.868-.674H44.4ZM54.958,18H53.422V5.25h1.536Zm8,0a3.226,3.226,0,0,1-.216-.946,3.426,3.426,0,0,1-2.557,1.112,3.17,3.17,0,0,1-2.179-.751,2.43,2.43,0,0,1-.851-1.905,2.539,2.539,0,0,1,1.067-2.179,5.029,5.029,0,0,1,3-.776h1.494v-.706a1.725,1.725,0,0,0-.481-1.282,1.935,1.935,0,0,0-1.419-.477,2.239,2.239,0,0,0-1.378.415,1.223,1.223,0,0,0-.556,1H57.34a2.119,2.119,0,0,1,.477-1.3,3.258,3.258,0,0,1,1.295-.992,4.356,4.356,0,0,1,1.8-.365,3.551,3.551,0,0,1,2.432.776,2.8,2.8,0,0,1,.913,2.137V15.9a5.054,5.054,0,0,0,.315,1.967V18Zm-2.548-1.17a2.7,2.7,0,0,0,1.37-.374,2.259,2.259,0,0,0,.938-.971V13.642h-1.2q-2.822,0-2.822,1.652a1.4,1.4,0,0,0,.481,1.129A1.85,1.85,0,0,0,60.412,16.83Zm7.7-7.811.05,1.129a3.273,3.273,0,0,1,2.689-1.295q2.847,0,2.872,3.212V18H72.19V12.057a2.068,2.068,0,0,0-.444-1.436,1.78,1.78,0,0,0-1.357-.465,2.216,2.216,0,0,0-1.312.4A2.706,2.706,0,0,0,68.2,11.6V18H66.662V9.019Zm11.654,9.147a3.924,3.924,0,0,1-2.972-1.2,4.452,4.452,0,0,1-1.146-3.208v-.282a5.39,5.39,0,0,1,.51-2.386A3.982,3.982,0,0,1,77.59,9.446a3.59,3.59,0,0,1,1.988-.594A3.364,3.364,0,0,1,82.3,10.006a5,5,0,0,1,.971,3.3v.639H77.188a3.193,3.193,0,0,0,.776,2.146,2.44,2.44,0,0,0,1.888.818,2.675,2.675,0,0,0,1.378-.332,3.462,3.462,0,0,0,.988-.88l.938.73A3.772,3.772,0,0,1,79.769,18.166Zm-.191-8.052a2.048,2.048,0,0,0-1.561.677,3.288,3.288,0,0,0-.78,1.9h4.5v-.116a2.925,2.925,0,0,0-.631-1.814A1.928,1.928,0,0,0,79.578,10.114Zm10.7,5.5a1.131,1.131,0,0,0-.469-.967,4.514,4.514,0,0,0-1.635-.594,7.731,7.731,0,0,1-1.851-.6,2.633,2.633,0,0,1-1.013-.83,1.986,1.986,0,0,1-.328-1.146,2.33,2.33,0,0,1,.934-1.868A3.647,3.647,0,0,1,88.3,8.853a3.753,3.753,0,0,1,2.478.789,2.5,2.5,0,0,1,.95,2.017H90.187a1.386,1.386,0,0,0-.535-1.087,2.006,2.006,0,0,0-1.349-.457,2.1,2.1,0,0,0-1.312.365,1.15,1.15,0,0,0-.473.955.932.932,0,0,0,.44.838,5.413,5.413,0,0,0,1.59.54,8.283,8.283,0,0,1,1.864.614,2.718,2.718,0,0,1,1.058.859,2.112,2.112,0,0,1,.344,1.224,2.3,2.3,0,0,1-.963,1.93,4.039,4.039,0,0,1-2.5.726,4.523,4.523,0,0,1-1.909-.382,3.105,3.105,0,0,1-1.3-1.067,2.571,2.571,0,0,1-.469-1.482H86.21a1.59,1.59,0,0,0,.618,1.224,2.4,2.4,0,0,0,1.523.452,2.476,2.476,0,0,0,1.4-.353A1.084,1.084,0,0,0,90.278,15.618Zm9.828-8.774V9.019h1.677v1.187h-1.677v5.577a1.247,1.247,0,0,0,.224.81.943.943,0,0,0,.764.27,3.718,3.718,0,0,0,.73-.1V18a4.478,4.478,0,0,1-1.179.165,1.912,1.912,0,0,1-1.552-.623,2.675,2.675,0,0,1-.523-1.768v-5.57H96.935V9.019H98.57V6.844ZM109.121,18a3.226,3.226,0,0,1-.216-.946,3.426,3.426,0,0,1-2.557,1.112,3.17,3.17,0,0,1-2.179-.751,2.43,2.43,0,0,1-.851-1.905,2.539,2.539,0,0,1,1.067-2.179,5.029,5.029,0,0,1,3-.776h1.494v-.706a1.725,1.725,0,0,0-.481-1.282,1.935,1.935,0,0,0-1.419-.477,2.239,2.239,0,0,0-1.378.415,1.223,1.223,0,0,0-.556,1H103.5a2.119,2.119,0,0,1,.477-1.3,3.258,3.258,0,0,1,1.295-.992,4.356,4.356,0,0,1,1.8-.365,3.551,3.551,0,0,1,2.432.776,2.8,2.8,0,0,1,.913,2.137V15.9a5.054,5.054,0,0,0,.315,1.967V18Zm-2.548-1.17a2.7,2.7,0,0,0,1.37-.374,2.259,2.259,0,0,0,.938-.971V13.642h-1.2q-2.822,0-2.822,1.652a1.4,1.4,0,0,0,.481,1.129A1.85,1.85,0,0,0,106.572,16.83Zm1.419-11.58h1.859l-2.225,2.44-1.237,0Zm8.434,11.663a2.212,2.212,0,0,0,1.436-.5,1.752,1.752,0,0,0,.681-1.245h1.453a2.785,2.785,0,0,1-.531,1.469,3.5,3.5,0,0,1-1.307,1.112,3.772,3.772,0,0,1-1.731.415,3.7,3.7,0,0,1-2.918-1.224,4.877,4.877,0,0,1-1.083-3.349v-.257A5.407,5.407,0,0,1,112.906,11a3.667,3.667,0,0,1,1.382-1.585,3.926,3.926,0,0,1,2.129-.564,3.6,3.6,0,0,1,2.511.9,3.234,3.234,0,0,1,1.067,2.349h-1.453a2.116,2.116,0,0,0-.66-1.432,2.053,2.053,0,0,0-1.465-.56,2.149,2.149,0,0,0-1.814.843,3.957,3.957,0,0,0-.643,2.436v.291a3.878,3.878,0,0,0,.639,2.391A2.16,2.16,0,0,0,116.425,16.913ZM123.8,6.844V9.019h1.677v1.187H123.8v5.577a1.247,1.247,0,0,0,.224.81.943.943,0,0,0,.764.27,3.718,3.718,0,0,0,.73-.1V18a4.478,4.478,0,0,1-1.179.165,1.912,1.912,0,0,1-1.552-.623,2.675,2.675,0,0,1-.523-1.768v-5.57h-1.635V9.019h1.635V6.844ZM128.943,18h-1.536V9.019h1.536Zm-1.66-11.364a.917.917,0,0,1,.228-.631.857.857,0,0,1,.677-.257.87.87,0,0,1,.681.257.907.907,0,0,1,.232.631.877.877,0,0,1-.232.623.886.886,0,0,1-.681.249.872.872,0,0,1-.677-.249A.886.886,0,0,1,127.283,6.636ZM135,16.913a2.212,2.212,0,0,0,1.436-.5,1.752,1.752,0,0,0,.681-1.245h1.453a2.785,2.785,0,0,1-.531,1.469,3.5,3.5,0,0,1-1.307,1.112,3.772,3.772,0,0,1-1.731.415,3.7,3.7,0,0,1-2.918-1.224A4.877,4.877,0,0,1,131,13.592v-.257A5.407,5.407,0,0,1,131.483,11a3.667,3.667,0,0,1,1.382-1.585,3.926,3.926,0,0,1,2.129-.564,3.6,3.6,0,0,1,2.511.9,3.234,3.234,0,0,1,1.067,2.349h-1.453a2.116,2.116,0,0,0-.66-1.432,2.053,2.053,0,0,0-1.465-.56,2.149,2.149,0,0,0-1.814.843,3.957,3.957,0,0,0-.643,2.436v.291a3.878,3.878,0,0,0,.639,2.391A2.16,2.16,0,0,0,135,16.913Zm4.889-3.486a5.3,5.3,0,0,1,.519-2.374,3.87,3.87,0,0,1,1.444-1.627,3.932,3.932,0,0,1,2.113-.573,3.788,3.788,0,0,1,2.968,1.27,4.886,4.886,0,0,1,1.133,3.378v.108a5.351,5.351,0,0,1-.5,2.353,3.813,3.813,0,0,1-1.436,1.623,3.977,3.977,0,0,1-2.146.581,3.778,3.778,0,0,1-2.959-1.27,4.861,4.861,0,0,1-1.133-3.362Zm1.544.183a3.842,3.842,0,0,0,.693,2.4A2.349,2.349,0,0,0,145.843,16a4.2,4.2,0,0,0,.689-2.569,3.836,3.836,0,0,0-.7-2.395,2.23,2.23,0,0,0-1.864-.917,2.205,2.205,0,0,0-1.834.9A4.17,4.17,0,0,0,141.436,13.609Zm13.788,2.009a1.13,1.13,0,0,0-.469-.967,4.514,4.514,0,0,0-1.635-.594,7.731,7.731,0,0,1-1.851-.6,2.633,2.633,0,0,1-1.013-.83,1.986,1.986,0,0,1-.328-1.146,2.33,2.33,0,0,1,.934-1.868,3.647,3.647,0,0,1,2.386-.764,3.753,3.753,0,0,1,2.478.789,2.5,2.5,0,0,1,.95,2.017h-1.544a1.386,1.386,0,0,0-.535-1.087,2.006,2.006,0,0,0-1.349-.457,2.1,2.1,0,0,0-1.312.365,1.15,1.15,0,0,0-.473.955.932.932,0,0,0,.44.838,5.413,5.413,0,0,0,1.59.54,8.283,8.283,0,0,1,1.864.614,2.718,2.718,0,0,1,1.058.859,2.112,2.112,0,0,1,.344,1.224,2.3,2.3,0,0,1-.963,1.93,4.039,4.039,0,0,1-2.5.726,4.523,4.523,0,0,1-1.909-.382,3.105,3.105,0,0,1-1.3-1.067,2.571,2.571,0,0,1-.469-1.482h1.536a1.59,1.59,0,0,0,.618,1.224,2.4,2.4,0,0,0,1.523.452,2.476,2.476,0,0,0,1.4-.353A1.084,1.084,0,0,0,155.223,15.618Z" transform="translate(96 276.42)" fill="#12263f"/>
    <path id="Trazado_608259" data-name="Trazado 608259" d="M69.883,13.269V18H68.289V5.914h4.458a4.478,4.478,0,0,1,3.109,1.013A3.433,3.433,0,0,1,76.98,9.608a3.388,3.388,0,0,1-1.1,2.71,4.678,4.678,0,0,1-3.15.95Zm0-1.3h2.864a2.863,2.863,0,0,0,1.959-.6,2.2,2.2,0,0,0,.681-1.742,2.277,2.277,0,0,0-.681-1.73,2.682,2.682,0,0,0-1.868-.674H69.883Zm8.375,1.461a5.3,5.3,0,0,1,.519-2.374,3.87,3.87,0,0,1,1.444-1.627,3.932,3.932,0,0,1,2.113-.573,3.788,3.788,0,0,1,2.968,1.27A4.886,4.886,0,0,1,86.435,13.5v.108a5.351,5.351,0,0,1-.5,2.353A3.813,3.813,0,0,1,84.5,17.585a3.977,3.977,0,0,1-2.146.581,3.778,3.778,0,0,1-2.959-1.27,4.861,4.861,0,0,1-1.133-3.362Zm1.544.183a3.842,3.842,0,0,0,.693,2.4A2.349,2.349,0,0,0,84.21,16a4.2,4.2,0,0,0,.689-2.569,3.836,3.836,0,0,0-.7-2.395,2.23,2.23,0,0,0-1.864-.917,2.205,2.205,0,0,0-1.834.9A4.17,4.17,0,0,0,79.8,13.609ZM90.029,18H88.493V5.25h1.536Zm4.125,0H92.61V9.019h1.544Zm.017-12.742H96.03L93.806,7.7l-1.237,0Zm4.6,1.585V9.019h1.677v1.187H98.77v5.577a1.247,1.247,0,0,0,.224.81.943.943,0,0,0,.764.27,3.718,3.718,0,0,0,.73-.1V18a4.478,4.478,0,0,1-1.179.165,1.912,1.912,0,0,1-1.552-.623,2.675,2.675,0,0,1-.523-1.768v-5.57H95.6V9.019h1.635V6.844ZM103.908,18h-1.536V9.019h1.536Zm-1.66-11.364a.917.917,0,0,1,.228-.631.857.857,0,0,1,.677-.257.87.87,0,0,1,.681.257.907.907,0,0,1,.232.631.877.877,0,0,1-.232.623.886.886,0,0,1-.681.249.872.872,0,0,1-.677-.249A.886.886,0,0,1,102.248,6.636Zm7.72,10.276a2.212,2.212,0,0,0,1.436-.5,1.752,1.752,0,0,0,.681-1.245h1.453a2.785,2.785,0,0,1-.531,1.469,3.5,3.5,0,0,1-1.307,1.112,3.772,3.772,0,0,1-1.731.415,3.7,3.7,0,0,1-2.918-1.224,4.877,4.877,0,0,1-1.083-3.349v-.257A5.407,5.407,0,0,1,106.448,11a3.667,3.667,0,0,1,1.382-1.585,3.926,3.926,0,0,1,2.129-.564,3.6,3.6,0,0,1,2.511.9,3.234,3.234,0,0,1,1.067,2.349h-1.453a2.116,2.116,0,0,0-.66-1.432,2.053,2.053,0,0,0-1.465-.56,2.149,2.149,0,0,0-1.814.843,3.957,3.957,0,0,0-.643,2.436v.291a3.878,3.878,0,0,0,.639,2.391A2.16,2.16,0,0,0,109.967,16.913ZM120.808,18a3.226,3.226,0,0,1-.216-.946,3.426,3.426,0,0,1-2.557,1.112,3.17,3.17,0,0,1-2.179-.751,2.43,2.43,0,0,1-.851-1.905,2.539,2.539,0,0,1,1.067-2.179,5.029,5.029,0,0,1,3-.776h1.494v-.706a1.725,1.725,0,0,0-.481-1.282,1.935,1.935,0,0,0-1.419-.477,2.239,2.239,0,0,0-1.378.415,1.223,1.223,0,0,0-.556,1h-1.544a2.119,2.119,0,0,1,.477-1.3,3.258,3.258,0,0,1,1.295-.992,4.356,4.356,0,0,1,1.8-.365,3.551,3.551,0,0,1,2.432.776,2.8,2.8,0,0,1,.913,2.137V15.9a5.054,5.054,0,0,0,.315,1.967V18Zm-2.548-1.17a2.7,2.7,0,0,0,1.37-.374,2.259,2.259,0,0,0,.938-.971V13.642h-1.2q-2.822,0-2.822,1.652a1.4,1.4,0,0,0,.481,1.129A1.85,1.85,0,0,0,118.26,16.83Zm11.48-1.212a1.13,1.13,0,0,0-.469-.967,4.514,4.514,0,0,0-1.635-.594,7.731,7.731,0,0,1-1.851-.6,2.633,2.633,0,0,1-1.013-.83,1.986,1.986,0,0,1-.328-1.146,2.33,2.33,0,0,1,.934-1.868,3.647,3.647,0,0,1,2.386-.764,3.753,3.753,0,0,1,2.478.789,2.5,2.5,0,0,1,.95,2.017h-1.544a1.386,1.386,0,0,0-.535-1.087,2.006,2.006,0,0,0-1.349-.457,2.1,2.1,0,0,0-1.312.365,1.15,1.15,0,0,0-.473.955.932.932,0,0,0,.44.838,5.413,5.413,0,0,0,1.59.54,8.283,8.283,0,0,1,1.864.614,2.718,2.718,0,0,1,1.058.859,2.112,2.112,0,0,1,.344,1.224,2.3,2.3,0,0,1-.963,1.93,4.039,4.039,0,0,1-2.5.726,4.523,4.523,0,0,1-1.909-.382,3.105,3.105,0,0,1-1.3-1.067,2.571,2.571,0,0,1-.469-1.482h1.536a1.59,1.59,0,0,0,.618,1.224,2.4,2.4,0,0,0,1.523.452,2.476,2.476,0,0,0,1.4-.353A1.084,1.084,0,0,0,129.74,15.618Z" transform="translate(96 423.42)" fill="#12263f"/>
    <path id="Trazado_608258" data-name="Trazado 608258" d="M66.928,13.269V18H65.334V5.914h4.458A4.478,4.478,0,0,1,72.9,6.927a3.433,3.433,0,0,1,1.125,2.681,3.388,3.388,0,0,1-1.1,2.71,4.678,4.678,0,0,1-3.15.95Zm0-1.3h2.864a2.863,2.863,0,0,0,1.959-.6,2.2,2.2,0,0,0,.681-1.742,2.277,2.277,0,0,0-.681-1.73,2.682,2.682,0,0,0-1.868-.674H66.928ZM80.159,10.4a4.6,4.6,0,0,0-.755-.058,2.024,2.024,0,0,0-2.05,1.287V18H75.818V9.019h1.494l.025,1.038a2.391,2.391,0,0,1,2.142-1.2,1.569,1.569,0,0,1,.681.116ZM81,13.426a5.3,5.3,0,0,1,.519-2.374,3.87,3.87,0,0,1,1.444-1.627,3.932,3.932,0,0,1,2.113-.573,3.788,3.788,0,0,1,2.968,1.27A4.886,4.886,0,0,1,89.174,13.5v.108a5.351,5.351,0,0,1-.5,2.353,3.813,3.813,0,0,1-1.436,1.623,3.977,3.977,0,0,1-2.146.581,3.778,3.778,0,0,1-2.959-1.27A4.861,4.861,0,0,1,81,13.534Zm1.544.183a3.842,3.842,0,0,0,.693,2.4A2.349,2.349,0,0,0,86.949,16a4.2,4.2,0,0,0,.689-2.569,3.836,3.836,0,0,0-.7-2.395,2.23,2.23,0,0,0-1.864-.917,2.205,2.205,0,0,0-1.834.9A4.17,4.17,0,0,0,82.542,13.609Zm12.161,3.3a2.212,2.212,0,0,0,1.436-.5,1.752,1.752,0,0,0,.681-1.245h1.453a2.785,2.785,0,0,1-.531,1.469,3.5,3.5,0,0,1-1.307,1.112,3.772,3.772,0,0,1-1.731.415,3.7,3.7,0,0,1-2.918-1.224A4.877,4.877,0,0,1,90.7,13.592v-.257A5.407,5.407,0,0,1,91.183,11a3.667,3.667,0,0,1,1.382-1.585,3.926,3.926,0,0,1,2.129-.564,3.6,3.6,0,0,1,2.511.9,3.234,3.234,0,0,1,1.067,2.349H96.819a2.116,2.116,0,0,0-.66-1.432,2.053,2.053,0,0,0-1.465-.56,2.149,2.149,0,0,0-1.814.843,3.957,3.957,0,0,0-.643,2.436v.291a3.878,3.878,0,0,0,.639,2.391A2.16,2.16,0,0,0,94.7,16.913Zm9.023,1.253a3.924,3.924,0,0,1-2.972-1.2,4.452,4.452,0,0,1-1.146-3.208v-.282a5.39,5.39,0,0,1,.51-2.386,3.982,3.982,0,0,1,1.428-1.644,3.59,3.59,0,0,1,1.988-.594,3.364,3.364,0,0,1,2.723,1.154,5,5,0,0,1,.971,3.3v.639h-6.084a3.193,3.193,0,0,0,.776,2.146,2.44,2.44,0,0,0,1.888.818,2.675,2.675,0,0,0,1.378-.332,3.462,3.462,0,0,0,.988-.88l.938.73A3.772,3.772,0,0,1,103.725,18.166Zm-.191-8.052a2.048,2.048,0,0,0-1.561.677,3.288,3.288,0,0,0-.78,1.9h4.5v-.116a2.925,2.925,0,0,0-.631-1.814A1.928,1.928,0,0,0,103.534,10.114Zm10.7,5.5a1.131,1.131,0,0,0-.469-.967,4.514,4.514,0,0,0-1.635-.594,7.731,7.731,0,0,1-1.851-.6,2.633,2.633,0,0,1-1.013-.83,1.986,1.986,0,0,1-.328-1.146,2.33,2.33,0,0,1,.934-1.868,3.647,3.647,0,0,1,2.386-.764,3.753,3.753,0,0,1,2.478.789,2.5,2.5,0,0,1,.95,2.017h-1.544a1.386,1.386,0,0,0-.535-1.087,2.006,2.006,0,0,0-1.349-.457,2.1,2.1,0,0,0-1.312.365,1.15,1.15,0,0,0-.473.955.932.932,0,0,0,.44.838,5.413,5.413,0,0,0,1.59.54,8.283,8.283,0,0,1,1.864.614,2.718,2.718,0,0,1,1.058.859,2.112,2.112,0,0,1,.344,1.224,2.3,2.3,0,0,1-.963,1.93,4.039,4.039,0,0,1-2.5.726,4.523,4.523,0,0,1-1.909-.382,3.105,3.105,0,0,1-1.3-1.067,2.571,2.571,0,0,1-.469-1.482h1.536a1.59,1.59,0,0,0,.618,1.224,2.4,2.4,0,0,0,1.523.452,2.476,2.476,0,0,0,1.4-.353A1.084,1.084,0,0,0,114.234,15.618Zm3.129-2.191a5.3,5.3,0,0,1,.519-2.374,3.87,3.87,0,0,1,1.444-1.627,3.932,3.932,0,0,1,2.113-.573,3.788,3.788,0,0,1,2.968,1.27A4.886,4.886,0,0,1,125.54,13.5v.108a5.351,5.351,0,0,1-.5,2.353,3.813,3.813,0,0,1-1.436,1.623,3.977,3.977,0,0,1-2.146.581A3.778,3.778,0,0,1,118.5,16.9a4.861,4.861,0,0,1-1.133-3.362Zm1.544.183a3.842,3.842,0,0,0,.693,2.4A2.349,2.349,0,0,0,123.315,16,4.2,4.2,0,0,0,124,13.426a3.836,3.836,0,0,0-.7-2.395,2.23,2.23,0,0,0-1.864-.917,2.205,2.205,0,0,0-1.834.9A4.17,4.17,0,0,0,118.907,13.609Zm13.788,2.009a1.13,1.13,0,0,0-.469-.967,4.514,4.514,0,0,0-1.635-.594,7.731,7.731,0,0,1-1.851-.6,2.633,2.633,0,0,1-1.013-.83,1.986,1.986,0,0,1-.328-1.146,2.33,2.33,0,0,1,.934-1.868,3.647,3.647,0,0,1,2.386-.764,3.753,3.753,0,0,1,2.478.789,2.5,2.5,0,0,1,.95,2.017H132.6a1.386,1.386,0,0,0-.535-1.087,2.006,2.006,0,0,0-1.349-.457,2.1,2.1,0,0,0-1.312.365,1.15,1.15,0,0,0-.473.955.932.932,0,0,0,.44.838,5.413,5.413,0,0,0,1.59.54,8.283,8.283,0,0,1,1.864.614,2.718,2.718,0,0,1,1.058.859,2.112,2.112,0,0,1,.344,1.224,2.3,2.3,0,0,1-.963,1.93,4.039,4.039,0,0,1-2.5.726,4.523,4.523,0,0,1-1.909-.382,3.105,3.105,0,0,1-1.3-1.067,2.571,2.571,0,0,1-.469-1.482h1.536a1.59,1.59,0,0,0,.618,1.224,2.4,2.4,0,0,0,1.523.452,2.476,2.476,0,0,0,1.4-.353A1.084,1.084,0,0,0,132.695,15.618ZM35.928,37.426a5.3,5.3,0,0,1,.519-2.374,3.87,3.87,0,0,1,1.444-1.627A3.932,3.932,0,0,1,40,32.853a3.788,3.788,0,0,1,2.968,1.27A4.886,4.886,0,0,1,44.1,37.5v.108a5.351,5.351,0,0,1-.5,2.353,3.813,3.813,0,0,1-1.436,1.623,3.977,3.977,0,0,1-2.146.581,3.778,3.778,0,0,1-2.959-1.27,4.861,4.861,0,0,1-1.133-3.362Zm1.544.183a3.842,3.842,0,0,0,.693,2.4A2.349,2.349,0,0,0,41.88,40a4.2,4.2,0,0,0,.689-2.569,3.836,3.836,0,0,0-.7-2.395A2.23,2.23,0,0,0,40,34.114a2.205,2.205,0,0,0-1.834.9A4.17,4.17,0,0,0,37.472,37.609Zm12.9-3.212a4.6,4.6,0,0,0-.755-.058,2.024,2.024,0,0,0-2.05,1.287V42H46.031V33.019h1.494l.025,1.038a2.391,2.391,0,0,1,2.142-1.2,1.569,1.569,0,0,1,.681.116Zm1.046,3.038a5.279,5.279,0,0,1,.971-3.341,3.348,3.348,0,0,1,5.138-.079l.075-1H59v8.766a3.654,3.654,0,0,1-1.033,2.748,3.814,3.814,0,0,1-2.777,1,4.619,4.619,0,0,1-1.9-.415,3.272,3.272,0,0,1-1.419-1.137l.8-.921a3,3,0,0,0,2.416,1.22,2.353,2.353,0,0,0,1.747-.631,2.411,2.411,0,0,0,.627-1.776V41.1a3.156,3.156,0,0,1-2.515,1.063,3.068,3.068,0,0,1-2.552-1.27A5.55,5.55,0,0,1,51.418,37.435Zm1.544.174A4.027,4.027,0,0,0,53.584,40a2.023,2.023,0,0,0,1.743.867,2.249,2.249,0,0,0,2.133-1.32v-4.1a2.276,2.276,0,0,0-2.117-1.287,2.041,2.041,0,0,0-1.751.872A4.386,4.386,0,0,0,52.962,37.609ZM66.865,42a3.226,3.226,0,0,1-.216-.946,3.426,3.426,0,0,1-2.557,1.112,3.17,3.17,0,0,1-2.179-.751,2.43,2.43,0,0,1-.851-1.905,2.539,2.539,0,0,1,1.067-2.179,5.029,5.029,0,0,1,3-.776h1.494v-.706a1.725,1.725,0,0,0-.481-1.282,1.935,1.935,0,0,0-1.419-.477,2.239,2.239,0,0,0-1.378.415,1.223,1.223,0,0,0-.556,1H61.246a2.119,2.119,0,0,1,.477-1.3,3.258,3.258,0,0,1,1.295-.992,4.356,4.356,0,0,1,1.8-.365,3.551,3.551,0,0,1,2.432.776,2.8,2.8,0,0,1,.913,2.137V39.9a5.054,5.054,0,0,0,.315,1.967V42Zm-2.548-1.17a2.7,2.7,0,0,0,1.37-.374,2.259,2.259,0,0,0,.938-.971V37.642h-1.2q-2.822,0-2.822,1.652a1.4,1.4,0,0,0,.481,1.129A1.85,1.85,0,0,0,64.317,40.83Zm7.7-7.811.05,1.129a3.273,3.273,0,0,1,2.689-1.295q2.847,0,2.872,3.212V42H76.1V36.057a2.068,2.068,0,0,0-.444-1.436,1.78,1.78,0,0,0-1.357-.465,2.216,2.216,0,0,0-1.312.4A2.706,2.706,0,0,0,72.1,35.6V42H70.568V33.019ZM81.616,42H80.08V33.019h1.536Zm-1.66-11.364a.917.917,0,0,1,.228-.631.857.857,0,0,1,.677-.257.87.87,0,0,1,.681.257.907.907,0,0,1,.232.631.877.877,0,0,1-.232.623.886.886,0,0,1-.681.249.872.872,0,0,1-.677-.249A.886.886,0,0,1,79.956,30.636Zm5.562,10.11h5.254V42h-7.13V40.871L88.6,34.289H83.716v-1.27h6.807v1.087ZM98.043,42a3.226,3.226,0,0,1-.216-.946,3.426,3.426,0,0,1-2.557,1.112,3.17,3.17,0,0,1-2.179-.751,2.43,2.43,0,0,1-.851-1.905,2.539,2.539,0,0,1,1.067-2.179,5.029,5.029,0,0,1,3-.776H97.8v-.706a1.725,1.725,0,0,0-.481-1.282,1.935,1.935,0,0,0-1.419-.477,2.239,2.239,0,0,0-1.378.415,1.223,1.223,0,0,0-.556,1H92.424a2.119,2.119,0,0,1,.477-1.3,3.258,3.258,0,0,1,1.295-.992,4.356,4.356,0,0,1,1.8-.365,3.551,3.551,0,0,1,2.432.776,2.8,2.8,0,0,1,.913,2.137V39.9a5.054,5.054,0,0,0,.315,1.967V42Zm-2.548-1.17a2.7,2.7,0,0,0,1.37-.374,2.259,2.259,0,0,0,.938-.971V37.642H96.6q-2.822,0-2.822,1.652a1.4,1.4,0,0,0,.481,1.129A1.85,1.85,0,0,0,95.495,40.83Zm9.853.083a2.212,2.212,0,0,0,1.436-.5,1.752,1.752,0,0,0,.681-1.245h1.453a2.785,2.785,0,0,1-.531,1.469,3.5,3.5,0,0,1-1.307,1.112,3.772,3.772,0,0,1-1.731.415,3.7,3.7,0,0,1-2.918-1.224,4.877,4.877,0,0,1-1.083-3.349v-.257A5.407,5.407,0,0,1,101.828,35a3.667,3.667,0,0,1,1.382-1.585,3.926,3.926,0,0,1,2.129-.564,3.6,3.6,0,0,1,2.511.9,3.234,3.234,0,0,1,1.067,2.349h-1.453a2.116,2.116,0,0,0-.66-1.432,2.053,2.053,0,0,0-1.465-.56,2.149,2.149,0,0,0-1.814.843,3.957,3.957,0,0,0-.643,2.436v.291a3.878,3.878,0,0,0,.639,2.391A2.16,2.16,0,0,0,105.348,40.913ZM112.312,42h-1.536V33.019h1.536Zm-1.66-11.364a.917.917,0,0,1,.228-.631.857.857,0,0,1,.677-.257.87.87,0,0,1,.681.257.907.907,0,0,1,.232.631.877.877,0,0,1-.232.623.886.886,0,0,1-.681.249.872.872,0,0,1-.677-.249A.886.886,0,0,1,110.652,30.636Zm3.71,6.79a5.3,5.3,0,0,1,.519-2.374,3.87,3.87,0,0,1,1.444-1.627,3.932,3.932,0,0,1,2.113-.573,3.788,3.788,0,0,1,2.968,1.27,4.886,4.886,0,0,1,1.133,3.378v.108a5.351,5.351,0,0,1-.5,2.353,3.813,3.813,0,0,1-1.436,1.623,3.977,3.977,0,0,1-2.146.581A3.778,3.778,0,0,1,115.5,40.9a4.861,4.861,0,0,1-1.133-3.362Zm1.544.183a3.842,3.842,0,0,0,.693,2.4A2.349,2.349,0,0,0,120.314,40,4.2,4.2,0,0,0,121,37.426a3.836,3.836,0,0,0-.7-2.395,2.23,2.23,0,0,0-1.864-.917,2.205,2.205,0,0,0-1.834.9A4.17,4.17,0,0,0,115.906,37.609Zm10.011-4.59.05,1.129a3.273,3.273,0,0,1,2.689-1.295q2.847,0,2.872,3.212V42h-1.536V36.057a2.068,2.068,0,0,0-.444-1.436,1.78,1.78,0,0,0-1.357-.465,2.216,2.216,0,0,0-1.312.4A2.706,2.706,0,0,0,126,35.6V42h-1.536V33.019ZM139.389,42a3.226,3.226,0,0,1-.216-.946,3.426,3.426,0,0,1-2.557,1.112,3.17,3.17,0,0,1-2.179-.751,2.43,2.43,0,0,1-.851-1.905,2.539,2.539,0,0,1,1.067-2.179,5.029,5.029,0,0,1,3-.776h1.494v-.706a1.725,1.725,0,0,0-.481-1.282,1.935,1.935,0,0,0-1.419-.477,2.239,2.239,0,0,0-1.378.415,1.223,1.223,0,0,0-.556,1H133.77a2.119,2.119,0,0,1,.477-1.3,3.258,3.258,0,0,1,1.295-.992,4.356,4.356,0,0,1,1.8-.365,3.551,3.551,0,0,1,2.432.776,2.8,2.8,0,0,1,.913,2.137V39.9A5.054,5.054,0,0,0,141,41.867V42Zm-2.548-1.17a2.7,2.7,0,0,0,1.37-.374,2.259,2.259,0,0,0,.938-.971V37.642h-1.2q-2.822,0-2.822,1.652a1.4,1.4,0,0,0,.481,1.129A1.85,1.85,0,0,0,136.841,40.83ZM144.76,42h-1.536V29.25h1.536Zm6.184.166a3.924,3.924,0,0,1-2.972-1.2,4.452,4.452,0,0,1-1.146-3.208v-.282a5.39,5.39,0,0,1,.51-2.386,3.982,3.982,0,0,1,1.428-1.644,3.59,3.59,0,0,1,1.988-.594,3.364,3.364,0,0,1,2.723,1.154,5,5,0,0,1,.971,3.3v.639h-6.084a3.193,3.193,0,0,0,.776,2.146,2.44,2.44,0,0,0,1.888.818,2.675,2.675,0,0,0,1.378-.332,3.462,3.462,0,0,0,.988-.88l.938.73A3.772,3.772,0,0,1,150.944,42.166Zm-.191-8.052a2.048,2.048,0,0,0-1.561.677,3.288,3.288,0,0,0-.78,1.9h4.5v-.116a2.925,2.925,0,0,0-.631-1.814A1.928,1.928,0,0,0,150.753,34.114Zm10.7,5.5a1.13,1.13,0,0,0-.469-.967,4.514,4.514,0,0,0-1.635-.594,7.731,7.731,0,0,1-1.851-.6,2.633,2.633,0,0,1-1.013-.83,1.986,1.986,0,0,1-.328-1.146,2.33,2.33,0,0,1,.934-1.868,3.647,3.647,0,0,1,2.386-.764,3.753,3.753,0,0,1,2.478.789,2.5,2.5,0,0,1,.95,2.017h-1.544a1.386,1.386,0,0,0-.535-1.087,2.006,2.006,0,0,0-1.349-.457,2.1,2.1,0,0,0-1.312.365,1.15,1.15,0,0,0-.473.955.932.932,0,0,0,.44.838,5.413,5.413,0,0,0,1.59.54,8.283,8.283,0,0,1,1.864.614,2.718,2.718,0,0,1,1.058.859,2.112,2.112,0,0,1,.344,1.224,2.3,2.3,0,0,1-.963,1.93,4.039,4.039,0,0,1-2.5.726,4.523,4.523,0,0,1-1.909-.382,3.105,3.105,0,0,1-1.3-1.067,2.571,2.571,0,0,1-.469-1.482h1.536A1.59,1.59,0,0,0,158,40.46a2.4,2.4,0,0,0,1.523.452,2.476,2.476,0,0,0,1.4-.353A1.084,1.084,0,0,0,161.453,39.618Z" transform="translate(96 337.42)" fill="#12263f"/>
    <g id="Grupo_881512" data-name="Grupo 881512" transform="translate(44.648 88.871)">
      <g id="Grupo_871212" data-name="Grupo 871212" transform="translate(17.281 0)">
        <path id="Trazado_213857" data-name="Trazado 213857" d="M15.822,0,12.184,3.637,22.9,14.356,12.184,25.074l3.637,3.637L30.177,14.356Z" transform="translate(-3.231 0)" fill="#18b8c4"/>
        <path id="Trazado_213858" data-name="Trazado 213858" d="M0,10.556,5.633,16.19,0,21.823,3.637,25.46l9.272-9.27L3.637,6.92Z" transform="translate(0 -1.835)" fill="#18b8c4"/>
      </g>
      <path id="Trazado_216644" data-name="Trazado 216644" d="M-7790.783,5338.2h-24.977" transform="translate(7815.76 -5323.646)" fill="none" stroke="#18b8c4" stroke-width="2"/>
    </g>
    <g id="Grupo_881514" data-name="Grupo 881514" transform="translate(44.648 149.871)">
      <g id="Grupo_871212-2" data-name="Grupo 871212" transform="translate(17.281 0)">
        <path id="Trazado_213857-2" data-name="Trazado 213857" d="M15.822,0,12.184,3.637,22.9,14.356,12.184,25.074l3.637,3.637L30.177,14.356Z" transform="translate(-3.231 0)" fill="#18b8c4"/>
        <path id="Trazado_213858-2" data-name="Trazado 213858" d="M0,10.556,5.633,16.19,0,21.823,3.637,25.46l9.272-9.27L3.637,6.92Z" transform="translate(0 -1.835)" fill="#18b8c4"/>
      </g>
      <path id="Trazado_216644-2" data-name="Trazado 216644" d="M-7790.783,5338.2h-24.977" transform="translate(7815.76 -5323.646)" fill="none" stroke="#18b8c4" stroke-width="2"/>
    </g>
    <g id="Grupo_881516" data-name="Grupo 881516" transform="translate(44.648 210.871)">
      <g id="Grupo_871212-3" data-name="Grupo 871212" transform="translate(17.281 0)">
        <path id="Trazado_213857-3" data-name="Trazado 213857" d="M15.822,0,12.184,3.637,22.9,14.356,12.184,25.074l3.637,3.637L30.177,14.356Z" transform="translate(-3.231 0)" fill="#18b8c4"/>
        <path id="Trazado_213858-3" data-name="Trazado 213858" d="M0,10.556,5.633,16.19,0,21.823,3.637,25.46l9.272-9.27L3.637,6.92Z" transform="translate(0 -1.835)" fill="#18b8c4"/>
      </g>
      <path id="Trazado_216644-3" data-name="Trazado 216644" d="M-7790.783,5338.2h-24.977" transform="translate(7815.76 -5323.646)" fill="none" stroke="#18b8c4" stroke-width="2"/>
    </g>
    <g id="Grupo_881518" data-name="Grupo 881518" transform="translate(44.648 271.871)">
      <g id="Grupo_871212-4" data-name="Grupo 871212" transform="translate(17.281 0)">
        <path id="Trazado_213857-4" data-name="Trazado 213857" d="M15.822,0,12.184,3.637,22.9,14.356,12.184,25.074l3.637,3.637L30.177,14.356Z" transform="translate(-3.231 0)" fill="#18b8c4"/>
        <path id="Trazado_213858-4" data-name="Trazado 213858" d="M0,10.556,5.633,16.19,0,21.823,3.637,25.46l9.272-9.27L3.637,6.92Z" transform="translate(0 -1.835)" fill="#18b8c4"/>
      </g>
      <path id="Trazado_216644-4" data-name="Trazado 216644" d="M-7790.783,5338.2h-24.977" transform="translate(7815.76 -5323.646)" fill="none" stroke="#18b8c4" stroke-width="2"/>
    </g>
    <g id="Grupo_881521" data-name="Grupo 881521" transform="translate(44.648 418.871)">
      <g id="Grupo_871212-5" data-name="Grupo 871212" transform="translate(17.281 0)">
        <path id="Trazado_213857-5" data-name="Trazado 213857" d="M15.822,0,12.184,3.637,22.9,14.356,12.184,25.074l3.637,3.637L30.177,14.356Z" transform="translate(-3.231 0)" fill="#18b8c4"/>
        <path id="Trazado_213858-5" data-name="Trazado 213858" d="M0,10.556,5.633,16.19,0,21.823,3.637,25.46l9.272-9.27L3.637,6.92Z" transform="translate(0 -1.835)" fill="#18b8c4"/>
      </g>
      <path id="Trazado_216644-5" data-name="Trazado 216644" d="M-7790.783,5338.2h-24.977" transform="translate(7815.76 -5323.646)" fill="none" stroke="#18b8c4" stroke-width="2"/>
    </g>
    <g id="Grupo_881520" data-name="Grupo 881520" transform="translate(44.648 346.311)">
      <g id="Grupo_871212-6" data-name="Grupo 871212" transform="translate(17.281 0)">
        <path id="Trazado_213857-6" data-name="Trazado 213857" d="M15.822,0,12.184,3.637,22.9,14.356,12.184,25.074l3.637,3.637L30.177,14.356Z" transform="translate(-3.231 0)" fill="#18b8c4"/>
        <path id="Trazado_213858-6" data-name="Trazado 213858" d="M0,10.556,5.633,16.19,0,21.823,3.637,25.46l9.272-9.27L3.637,6.92Z" transform="translate(0 -1.835)" fill="#18b8c4"/>
      </g>
      <path id="Trazado_216644-6" data-name="Trazado 216644" d="M-7790.783,5338.2h-24.977" transform="translate(7815.76 -5323.646)" fill="none" stroke="#18b8c4" stroke-width="2"/>
    </g>
  </g>
</svg>
