<svg xmlns="http://www.w3.org/2000/svg" xmlns:xlink="http://www.w3.org/1999/xlink" width="328.486" height="324.119" viewBox="0 0 328.486 324.119">
  <defs>
    <clipPath id="clip-path">
      <rect id="Rect치ngulo_300834" data-name="Rect치ngulo 300834" width="151.551" height="151.55" fill="none"/>
    </clipPath>
  </defs>
  <g id="Grupo_886469" data-name="Grupo 886469" transform="translate(-636.361 -4499.373)">
    <rect id="Rect치ngulo_4912" data-name="Rect치ngulo 4912" width="328.486" height="324.119" rx="21" transform="translate(636.361 4499.373)" fill="#fef5e5"/>
    <path id="Trazado_608247" data-name="Trazado 608247" d="M21.307,14.658V19H18.222V6.2h5.106a5.948,5.948,0,0,1,2.6.541,4.074,4.074,0,0,1,1.749,1.538,4.2,4.2,0,0,1,.62,2.263,3.7,3.7,0,0,1-1.34,2.993,5.561,5.561,0,0,1-3.678,1.121Zm0-2.382h2.021a1.906,1.906,0,0,0,1.367-.448,1.665,1.665,0,0,0,.47-1.266,2.059,2.059,0,0,0-.483-1.433,1.712,1.712,0,0,0-1.318-.545H21.307ZM35.062,19a3.344,3.344,0,0,1-.281-.853A2.754,2.754,0,0,1,32.5,19.176a3.374,3.374,0,0,1-2.285-.813,2.588,2.588,0,0,1-.94-2.043,2.66,2.66,0,0,1,1.143-2.338,5.821,5.821,0,0,1,3.322-.791h.914v-.5q0-1.316-1.134-1.316a.927.927,0,0,0-1.055,1.042H29.5a2.655,2.655,0,0,1,1.173-2.239,4.931,4.931,0,0,1,2.993-.86,4.323,4.323,0,0,1,2.874.888,3.086,3.086,0,0,1,1.081,2.435v4.21a4.311,4.311,0,0,0,.4,2V19Zm-1.854-1.934a1.652,1.652,0,0,0,.918-.237,1.487,1.487,0,0,0,.523-.536V14.772h-.861q-1.547,0-1.547,1.389a.848.848,0,0,0,.272.655A.986.986,0,0,0,33.207,17.066Zm11.03-.738a.684.684,0,0,0-.4-.606,6.016,6.016,0,0,0-1.5-.475,6.853,6.853,0,0,1-1.828-.646,3.062,3.062,0,0,1-1.1-.971,2.319,2.319,0,0,1-.378-1.31,2.628,2.628,0,0,1,1.081-2.158,4.453,4.453,0,0,1,2.83-.848,4.934,4.934,0,0,1,3.023.853,2.666,2.666,0,0,1,1.143,2.241H44.141q0-1.143-1.2-1.143a1.194,1.194,0,0,0-.782.259.8.8,0,0,0-.316.646.737.737,0,0,0,.387.642,3.654,3.654,0,0,0,1.235.4,10.671,10.671,0,0,1,1.49.378,2.706,2.706,0,0,1,2.145,2.646,2.491,2.491,0,0,1-1.156,2.118,5.068,5.068,0,0,1-2.993.817,5.172,5.172,0,0,1-2.18-.439,3.645,3.645,0,0,1-1.494-1.2,2.707,2.707,0,0,1-.536-1.591H41.5a1.145,1.145,0,0,0,.439.962,1.808,1.808,0,0,0,1.081.3,1.422,1.422,0,0,0,.91-.246A.787.787,0,0,0,44.237,16.328ZM48.1,14.157a5.613,5.613,0,0,1,.554-2.536,3.96,3.96,0,0,1,1.591-1.709,4.791,4.791,0,0,1,2.435-.6,4.373,4.373,0,0,1,3.366,1.323,5.076,5.076,0,0,1,1.23,3.6v.105a4.925,4.925,0,0,1-1.235,3.529A4.384,4.384,0,0,1,52.7,19.176a4.434,4.434,0,0,1-3.261-1.217,4.761,4.761,0,0,1-1.327-3.3Zm2.962.185a3.538,3.538,0,0,0,.413,1.934,1.376,1.376,0,0,0,1.222.615q1.582,0,1.617-2.435v-.3q0-2.558-1.635-2.558-1.485,0-1.608,2.206Zm12.5,1.986a.684.684,0,0,0-.4-.606,6.016,6.016,0,0,0-1.5-.475,6.853,6.853,0,0,1-1.828-.646,3.062,3.062,0,0,1-1.1-.971,2.319,2.319,0,0,1-.378-1.31,2.628,2.628,0,0,1,1.081-2.158,4.453,4.453,0,0,1,2.83-.848,4.934,4.934,0,0,1,3.023.853,2.666,2.666,0,0,1,1.143,2.241H63.468q0-1.143-1.2-1.143a1.194,1.194,0,0,0-.782.259.8.8,0,0,0-.316.646.737.737,0,0,0,.387.642,3.654,3.654,0,0,0,1.235.4,10.671,10.671,0,0,1,1.49.378,2.706,2.706,0,0,1,2.145,2.646,2.491,2.491,0,0,1-1.156,2.118,5.068,5.068,0,0,1-2.993.817,5.172,5.172,0,0,1-2.18-.439,3.645,3.645,0,0,1-1.494-1.2,2.707,2.707,0,0,1-.536-1.591h2.769a1.145,1.145,0,0,0,.439.962,1.808,1.808,0,0,0,1.081.3,1.422,1.422,0,0,0,.91-.246A.787.787,0,0,0,63.564,16.328ZM77.645,19a3.344,3.344,0,0,1-.281-.853,2.754,2.754,0,0,1-2.285,1.028,3.374,3.374,0,0,1-2.285-.813,2.588,2.588,0,0,1-.94-2.043A2.66,2.66,0,0,1,73,13.981a5.821,5.821,0,0,1,3.322-.791h.914v-.5q0-1.316-1.134-1.316a.927.927,0,0,0-1.055,1.042H72.081a2.655,2.655,0,0,1,1.173-2.239,4.931,4.931,0,0,1,2.993-.86,4.323,4.323,0,0,1,2.874.888A3.086,3.086,0,0,1,80.2,12.637v4.21a4.311,4.311,0,0,0,.4,2V19ZM75.79,17.066a1.652,1.652,0,0,0,.918-.237,1.487,1.487,0,0,0,.523-.536V14.772H76.37q-1.547,0-1.547,1.389a.848.848,0,0,0,.272.655A.986.986,0,0,0,75.79,17.066ZM91.3,16.328a.684.684,0,0,0-.4-.606,6.016,6.016,0,0,0-1.5-.475,6.853,6.853,0,0,1-1.828-.646,3.062,3.062,0,0,1-1.1-.971,2.319,2.319,0,0,1-.378-1.31,2.628,2.628,0,0,1,1.081-2.158,4.453,4.453,0,0,1,2.83-.848,4.934,4.934,0,0,1,3.023.853,2.666,2.666,0,0,1,1.143,2.241H91.206q0-1.143-1.2-1.143a1.194,1.194,0,0,0-.782.259.8.8,0,0,0-.316.646.737.737,0,0,0,.387.642,3.654,3.654,0,0,0,1.235.4,10.671,10.671,0,0,1,1.49.378,2.706,2.706,0,0,1,2.145,2.646A2.491,2.491,0,0,1,93,18.358a5.068,5.068,0,0,1-2.993.817,5.172,5.172,0,0,1-2.18-.439,3.645,3.645,0,0,1-1.494-1.2A2.707,2.707,0,0,1,85.8,15.95h2.769a1.145,1.145,0,0,0,.439.962,1.808,1.808,0,0,0,1.081.3A1.422,1.422,0,0,0,91,16.97.787.787,0,0,0,91.3,16.328Zm8.842,2.848A4.889,4.889,0,0,1,96.6,17.871a4.507,4.507,0,0,1-1.354-3.4v-.246a5.84,5.84,0,0,1,.541-2.575,3.955,3.955,0,0,1,1.578-1.727,4.763,4.763,0,0,1,2.461-.611,4.117,4.117,0,0,1,3.164,1.244,4.887,4.887,0,0,1,1.16,3.467v1.151H98.264a2.135,2.135,0,0,0,.694,1.257,2.066,2.066,0,0,0,1.389.457,2.662,2.662,0,0,0,2.2-.984l1.354,1.6a3.784,3.784,0,0,1-1.569,1.217A5.3,5.3,0,0,1,100.145,19.176ZM99.811,11.6q-1.3,0-1.547,1.723h2.988v-.229a1.467,1.467,0,0,0-.36-1.1A1.434,1.434,0,0,0,99.811,11.6ZM105,14.175a6.421,6.421,0,0,1,.475-2.549,3.821,3.821,0,0,1,1.362-1.709,3.591,3.591,0,0,1,2.065-.6,2.855,2.855,0,0,1,2.32,1l.105-.826h2.689V18.64a4.009,4.009,0,0,1-.584,2.184,3.75,3.75,0,0,1-1.692,1.424,6.219,6.219,0,0,1-2.566.5,5.365,5.365,0,0,1-2.026-.4,3.657,3.657,0,0,1-1.5-1.028l1.239-1.74a2.716,2.716,0,0,0,2.18.976,1.764,1.764,0,0,0,1.969-2.021v-.3a2.781,2.781,0,0,1-2.153.94,3.437,3.437,0,0,1-2.812-1.332A5.517,5.517,0,0,1,105,14.28Zm2.971.185a3.383,3.383,0,0,0,.439,1.85,1.387,1.387,0,0,0,1.23.681,1.573,1.573,0,0,0,1.4-.642v-4a1.534,1.534,0,0,0-1.38-.65,1.4,1.4,0,0,0-1.239.708A3.858,3.858,0,0,0,107.967,14.359Zm13.395,3.612a3.054,3.054,0,0,1-2.54,1.2,3,3,0,0,1-2.369-.91,3.826,3.826,0,0,1-.8-2.615V9.49h2.962v6.179a1.065,1.065,0,0,0,1.187,1.222,1.548,1.548,0,0,0,1.45-.729V9.49h2.979V19h-2.777ZM128.973,19H126V9.49h2.971ZM125.826,7.038A1.322,1.322,0,0,1,126.283,6a1.943,1.943,0,0,1,2.373,0,1.322,1.322,0,0,1,.457,1.037,1.322,1.322,0,0,1-.457,1.037,1.943,1.943,0,0,1-2.373,0A1.322,1.322,0,0,1,125.826,7.038Zm10.723,5.133-.976-.07a1.752,1.752,0,0,0-1.793.879V19h-2.962V9.49H133.6l.1,1.222a2.294,2.294,0,0,1,2.083-1.4,2.888,2.888,0,0,1,.826.105Zm14.379,2.145a5.735,5.735,0,0,1-1,3.538,3.2,3.2,0,0,1-2.694,1.323,2.742,2.742,0,0,1-2.153-.958v4.438h-2.962V9.49h2.769l.088.879a2.742,2.742,0,0,1,2.241-1.055,3.224,3.224,0,0,1,2.733,1.3,5.805,5.805,0,0,1,.976,3.564Zm-2.962-.185q0-2.531-1.477-2.531a1.394,1.394,0,0,0-1.406.756V16.1a1.439,1.439,0,0,0,1.424.791q1.415,0,1.459-2.443ZM157.59,19a3.344,3.344,0,0,1-.281-.853,2.754,2.754,0,0,1-2.285,1.028,3.374,3.374,0,0,1-2.285-.813,2.588,2.588,0,0,1-.94-2.043,2.66,2.66,0,0,1,1.143-2.338,5.821,5.821,0,0,1,3.322-.791h.914v-.5q0-1.316-1.134-1.316a.927.927,0,0,0-1.055,1.042h-2.962a2.655,2.655,0,0,1,1.173-2.239,4.931,4.931,0,0,1,2.993-.86,4.323,4.323,0,0,1,2.874.888,3.086,3.086,0,0,1,1.081,2.435v4.21a4.311,4.311,0,0,0,.4,2V19Zm-1.854-1.934a1.652,1.652,0,0,0,.918-.237,1.487,1.487,0,0,0,.523-.536V14.772h-.861q-1.547,0-1.547,1.389a.848.848,0,0,0,.272.655A.986.986,0,0,0,155.735,17.066Zm11.8-4.9-.976-.07a1.752,1.752,0,0,0-1.793.879V19h-2.962V9.49h2.777l.1,1.222a2.294,2.294,0,0,1,2.083-1.4,2.888,2.888,0,0,1,.826.105ZM173.7,19a3.344,3.344,0,0,1-.281-.853,2.754,2.754,0,0,1-2.285,1.028,3.374,3.374,0,0,1-2.285-.813,2.588,2.588,0,0,1-.94-2.043,2.66,2.66,0,0,1,1.143-2.338,5.821,5.821,0,0,1,3.322-.791h.914v-.5q0-1.316-1.134-1.316a.927.927,0,0,0-1.055,1.042h-2.962a2.655,2.655,0,0,1,1.173-2.239,4.931,4.931,0,0,1,2.993-.86,4.323,4.323,0,0,1,2.874.888,3.086,3.086,0,0,1,1.081,2.435v4.21a4.311,4.311,0,0,0,.4,2V19Zm-1.854-1.934a1.652,1.652,0,0,0,.918-.237,1.487,1.487,0,0,0,.523-.536V14.772h-.861q-1.547,0-1.547,1.389a.848.848,0,0,0,.272.655A.986.986,0,0,0,171.846,17.066ZM187.736,19a3.344,3.344,0,0,1-.281-.853,2.754,2.754,0,0,1-2.285,1.028,3.374,3.374,0,0,1-2.285-.813,2.588,2.588,0,0,1-.94-2.043,2.66,2.66,0,0,1,1.143-2.338,5.821,5.821,0,0,1,3.322-.791h.914v-.5q0-1.316-1.134-1.316a.927.927,0,0,0-1.055,1.042h-2.962a2.655,2.655,0,0,1,1.173-2.239,4.931,4.931,0,0,1,2.993-.86,4.323,4.323,0,0,1,2.874.888,3.086,3.086,0,0,1,1.081,2.435v4.21a4.311,4.311,0,0,0,.4,2V19Zm-1.854-1.934a1.652,1.652,0,0,0,.918-.237,1.487,1.487,0,0,0,.523-.536V14.772h-.861q-1.547,0-1.547,1.389a.848.848,0,0,0,.272.655A.986.986,0,0,0,185.882,17.066ZM195.058,19h-2.971V5.5h2.971Zm5.845-2.109a1.317,1.317,0,0,0,.967-.338,1.241,1.241,0,0,0,.334-.945h2.777a3.288,3.288,0,0,1-1.121,2.566,4.168,4.168,0,0,1-2.887,1,4.22,4.22,0,0,1-3.27-1.3,5.125,5.125,0,0,1-1.2-3.6v-.123a5.792,5.792,0,0,1,.532-2.544,3.872,3.872,0,0,1,1.534-1.7,4.573,4.573,0,0,1,2.373-.593,4.116,4.116,0,0,1,2.944,1.028,3.647,3.647,0,0,1,1.09,2.786H202.2a1.626,1.626,0,0,0-.36-1.134,1.244,1.244,0,0,0-.967-.4q-1.151,0-1.345,1.468a10.357,10.357,0,0,0-.062,1.283,4.068,4.068,0,0,0,.343,1.986A1.187,1.187,0,0,0,200.9,16.891ZM211.59,19a3.344,3.344,0,0,1-.281-.853,2.754,2.754,0,0,1-2.285,1.028,3.374,3.374,0,0,1-2.285-.813,2.588,2.588,0,0,1-.94-2.043,2.66,2.66,0,0,1,1.143-2.338,5.821,5.821,0,0,1,3.322-.791h.914v-.5q0-1.316-1.134-1.316a.927.927,0,0,0-1.055,1.042h-2.962a2.655,2.655,0,0,1,1.173-2.239,4.931,4.931,0,0,1,2.993-.86,4.323,4.323,0,0,1,2.874.888,3.086,3.086,0,0,1,1.081,2.435v4.21a4.311,4.311,0,0,0,.4,2V19Zm-1.854-1.934a1.652,1.652,0,0,0,.918-.237,1.487,1.487,0,0,0,.523-.536V14.772h-.861q-1.547,0-1.547,1.389a.848.848,0,0,0,.272.655A.986.986,0,0,0,209.735,17.066Zm8.771-7.576.1,1.116a3.225,3.225,0,0,1,2.716-1.292,2.713,2.713,0,0,1,2.219.888,4.226,4.226,0,0,1,.76,2.672V19h-2.971V13a1.6,1.6,0,0,0-.29-1.059,1.342,1.342,0,0,0-1.055-.338,1.413,1.413,0,0,0-1.292.686V19h-2.962V9.49Zm10.925,7.225h4.333V19h-8.077V17.348l4.219-5.572h-4.034V9.49h7.8v1.6ZM240.559,19a3.344,3.344,0,0,1-.281-.853,2.754,2.754,0,0,1-2.285,1.028,3.374,3.374,0,0,1-2.285-.813,2.588,2.588,0,0,1-.94-2.043,2.66,2.66,0,0,1,1.143-2.338,5.821,5.821,0,0,1,3.322-.791h.914v-.5q0-1.316-1.134-1.316a.927.927,0,0,0-1.055,1.042H235a2.655,2.655,0,0,1,1.173-2.239,4.931,4.931,0,0,1,2.993-.86,4.323,4.323,0,0,1,2.874.888,3.086,3.086,0,0,1,1.081,2.435v4.21a4.311,4.311,0,0,0,.4,2V19ZM238.7,17.066a1.652,1.652,0,0,0,.918-.237,1.487,1.487,0,0,0,.523-.536V14.772h-.861q-1.547,0-1.547,1.389a.848.848,0,0,0,.272.655A.986.986,0,0,0,238.7,17.066Zm11.8-4.9-.976-.07a1.752,1.752,0,0,0-1.793.879V19h-2.962V9.49h2.777l.1,1.222a2.294,2.294,0,0,1,2.083-1.4,2.888,2.888,0,0,1,.826.105Zm-169.752,32a4.889,4.889,0,0,1-3.542-1.305,4.507,4.507,0,0,1-1.354-3.4v-.246a5.84,5.84,0,0,1,.541-2.575,3.955,3.955,0,0,1,1.578-1.727,4.763,4.763,0,0,1,2.461-.611A4.117,4.117,0,0,1,83.6,35.558a4.887,4.887,0,0,1,1.16,3.467v1.151H78.875a2.135,2.135,0,0,0,.694,1.257,2.066,2.066,0,0,0,1.389.457,2.662,2.662,0,0,0,2.2-.984l1.354,1.6a3.784,3.784,0,0,1-1.569,1.217A5.3,5.3,0,0,1,80.756,44.176ZM80.422,36.6q-1.3,0-1.547,1.723h2.988v-.229a1.467,1.467,0,0,0-.36-1.1A1.434,1.434,0,0,0,80.422,36.6Zm10.512,4.729a.684.684,0,0,0-.4-.606,6.016,6.016,0,0,0-1.5-.475,6.853,6.853,0,0,1-1.828-.646,3.062,3.062,0,0,1-1.1-.971,2.319,2.319,0,0,1-.378-1.31,2.628,2.628,0,0,1,1.081-2.158,4.453,4.453,0,0,1,2.83-.848,4.934,4.934,0,0,1,3.023.853,2.666,2.666,0,0,1,1.143,2.241H90.837q0-1.143-1.2-1.143a1.194,1.194,0,0,0-.782.259.8.8,0,0,0-.316.646.737.737,0,0,0,.387.642,3.654,3.654,0,0,0,1.235.4,10.671,10.671,0,0,1,1.49.378A2.706,2.706,0,0,1,93.79,41.24a2.491,2.491,0,0,1-1.156,2.118,5.068,5.068,0,0,1-2.993.817,5.172,5.172,0,0,1-2.18-.439,3.645,3.645,0,0,1-1.494-1.2,2.707,2.707,0,0,1-.536-1.591H88.2a1.145,1.145,0,0,0,.439.962,1.808,1.808,0,0,0,1.081.3,1.422,1.422,0,0,0,.91-.246A.787.787,0,0,0,90.934,41.328ZM94.8,39.157a5.613,5.613,0,0,1,.554-2.536,3.96,3.96,0,0,1,1.591-1.709,4.791,4.791,0,0,1,2.435-.6,4.373,4.373,0,0,1,3.366,1.323,5.076,5.076,0,0,1,1.23,3.6v.105a4.925,4.925,0,0,1-1.235,3.529A4.384,4.384,0,0,1,99.4,44.176a4.434,4.434,0,0,1-3.261-1.217,4.761,4.761,0,0,1-1.327-3.3Zm2.962.185a3.538,3.538,0,0,0,.413,1.934,1.376,1.376,0,0,0,1.222.615q1.582,0,1.617-2.435v-.3q0-2.558-1.635-2.558-1.485,0-1.608,2.206Zm12.5,1.986a.684.684,0,0,0-.4-.606,6.016,6.016,0,0,0-1.5-.475,6.853,6.853,0,0,1-1.828-.646,3.062,3.062,0,0,1-1.1-.971,2.319,2.319,0,0,1-.378-1.31,2.628,2.628,0,0,1,1.081-2.158,4.453,4.453,0,0,1,2.83-.848,4.934,4.934,0,0,1,3.023.853,2.666,2.666,0,0,1,1.143,2.241h-2.971q0-1.143-1.2-1.143a1.194,1.194,0,0,0-.782.259.8.8,0,0,0-.316.646.737.737,0,0,0,.387.642,3.654,3.654,0,0,0,1.235.4,10.671,10.671,0,0,1,1.49.378,2.706,2.706,0,0,1,2.145,2.646,2.491,2.491,0,0,1-1.156,2.118,5.068,5.068,0,0,1-2.993.817,5.172,5.172,0,0,1-2.18-.439,3.645,3.645,0,0,1-1.494-1.2,2.707,2.707,0,0,1-.536-1.591h2.769a1.145,1.145,0,0,0,.439.962,1.808,1.808,0,0,0,1.081.3,1.422,1.422,0,0,0,.91-.246A.787.787,0,0,0,110.261,41.328Zm8.35-2.171a5.613,5.613,0,0,1,.554-2.536,3.96,3.96,0,0,1,1.591-1.709,4.791,4.791,0,0,1,2.435-.6,4.373,4.373,0,0,1,3.366,1.323,5.076,5.076,0,0,1,1.23,3.6v.105a4.925,4.925,0,0,1-1.235,3.529,4.384,4.384,0,0,1-3.344,1.305,4.434,4.434,0,0,1-3.261-1.217,4.761,4.761,0,0,1-1.327-3.3Zm2.962.185a3.538,3.538,0,0,0,.413,1.934,1.376,1.376,0,0,0,1.222.615q1.582,0,1.617-2.435v-.3q0-2.558-1.635-2.558-1.485,0-1.608,2.206Zm16.348-.018a5.8,5.8,0,0,1-.967,3.595,3.238,3.238,0,0,1-2.725,1.257,2.81,2.81,0,0,1-2.338-1.151l-.123.976h-2.654V30.5h2.962v4.755a2.711,2.711,0,0,1,2.136-.94,3.239,3.239,0,0,1,2.742,1.274,5.826,5.826,0,0,1,.967,3.586Zm-2.971-.189a3.866,3.866,0,0,0-.365-1.952,1.229,1.229,0,0,0-1.121-.584,1.418,1.418,0,0,0-1.389.763v3.773a1.426,1.426,0,0,0,1.406.755,1.258,1.258,0,0,0,1.327-1.018A7.309,7.309,0,0,0,134.949,39.135Zm7.462-4.645v9.835a3.452,3.452,0,0,1-.967,2.6,3.714,3.714,0,0,1-2.672.914,6.308,6.308,0,0,1-1.4-.149V45.45a5.667,5.667,0,0,0,.835.079,1.084,1.084,0,0,0,1.23-1.222V34.49Zm-3.19-2.452A1.322,1.322,0,0,1,139.678,31a1.943,1.943,0,0,1,2.373,0,1.405,1.405,0,0,1,0,2.074,1.943,1.943,0,0,1-2.373,0A1.322,1.322,0,0,1,139.221,32.038Zm9.466,12.138a4.889,4.889,0,0,1-3.542-1.305,4.507,4.507,0,0,1-1.354-3.4v-.246a5.84,5.84,0,0,1,.541-2.575,3.955,3.955,0,0,1,1.578-1.727,4.763,4.763,0,0,1,2.461-.611,4.117,4.117,0,0,1,3.164,1.244,4.887,4.887,0,0,1,1.16,3.467v1.151h-5.889a2.135,2.135,0,0,0,.694,1.257,2.066,2.066,0,0,0,1.389.457,2.662,2.662,0,0,0,2.2-.984l1.354,1.6a3.784,3.784,0,0,1-1.569,1.217A5.3,5.3,0,0,1,148.687,44.176Zm-.334-7.576q-1.3,0-1.547,1.723h2.988v-.229a1.467,1.467,0,0,0-.36-1.1A1.434,1.434,0,0,0,148.353,36.6Zm8.982-4.474V34.49H158.9v2.057h-1.564V40.9a1.111,1.111,0,0,0,.193.747,1.037,1.037,0,0,0,.765.211,4.345,4.345,0,0,0,.738-.053v2.118a5.466,5.466,0,0,1-1.67.255,3.1,3.1,0,0,1-2.259-.721,2.954,2.954,0,0,1-.729-2.188v-4.72H153.16V34.49h1.213V32.126ZM163.188,44h-2.971V34.49h2.971Zm-3.146-11.962A1.322,1.322,0,0,1,160.5,31a1.943,1.943,0,0,1,2.373,0,1.405,1.405,0,0,1,0,2.074,1.943,1.943,0,0,1-2.373,0A1.322,1.322,0,0,1,160.042,32.038Zm8.763,8.438,1.5-5.985h3.12l-3.1,9.51H167.3l-3.1-9.51h3.129Zm5-1.318a5.613,5.613,0,0,1,.554-2.536,3.96,3.96,0,0,1,1.591-1.709,4.791,4.791,0,0,1,2.435-.6,4.373,4.373,0,0,1,3.366,1.323,5.076,5.076,0,0,1,1.23,3.6v.105a4.925,4.925,0,0,1-1.235,3.529,4.384,4.384,0,0,1-3.344,1.305,4.434,4.434,0,0,1-3.261-1.217,4.761,4.761,0,0,1-1.327-3.3Zm2.962.185a3.538,3.538,0,0,0,.413,1.934,1.376,1.376,0,0,0,1.222.615q1.582,0,1.617-2.435v-.3q0-2.558-1.635-2.558-1.485,0-1.608,2.206Zm12.5,1.986a.684.684,0,0,0-.4-.606,6.016,6.016,0,0,0-1.5-.475,6.853,6.853,0,0,1-1.828-.646,3.062,3.062,0,0,1-1.1-.971,2.319,2.319,0,0,1-.378-1.31,2.628,2.628,0,0,1,1.081-2.158,4.453,4.453,0,0,1,2.83-.848,4.934,4.934,0,0,1,3.023.853,2.666,2.666,0,0,1,1.143,2.241h-2.971q0-1.143-1.2-1.143a1.194,1.194,0,0,0-.782.259.8.8,0,0,0-.316.646.737.737,0,0,0,.387.642,3.654,3.654,0,0,0,1.235.4,10.671,10.671,0,0,1,1.49.378,2.706,2.706,0,0,1,2.145,2.646,2.491,2.491,0,0,1-1.156,2.118,5.068,5.068,0,0,1-2.993.817,5.172,5.172,0,0,1-2.18-.439,3.645,3.645,0,0,1-1.494-1.2,2.707,2.707,0,0,1-.536-1.591h2.769a1.145,1.145,0,0,0,.439.962,1.808,1.808,0,0,0,1.081.3,1.422,1.422,0,0,0,.91-.246A.787.787,0,0,0,189.266,41.328Z" transform="translate(666.361 4726)" fill="#12263f"/>
    <g id="Grupo_886171" data-name="Grupo 886171" transform="translate(724.361 4558.639)">
      <g id="Grupo_886170" data-name="Grupo 886170" clip-path="url(#clip-path)">
        <path id="Trazado_602358" data-name="Trazado 602358" d="M324.651,109.1c.008-.011.015-.025.023-.036l-.046.023.023.012" transform="translate(-196.215 -65.922)" fill="#fefefe"/>
        <path id="Trazado_602359" data-name="Trazado 602359" d="M336.484,97.1c.024-.022.045-.045.069-.066-.007-.012-.012-.023-.018-.035-.018.034-.034.068-.051.1" transform="translate(-203.381 -58.627)" fill="#fefefe"/>
        <path id="Trazado_602360" data-name="Trazado 602360" d="M2.6,164.729a36.839,36.839,0,0,1,5.606.155,6.7,6.7,0,0,1,3.074,12.047c-1.473.98-3.037,1.824-4.565,2.72-1.836,1.076-2.075,1.9-1.025,3.721,1.207,2.089,2.408,4.182,3.65,6.25.886,1.477,1.7,1.7,3.182.887,1.339-.732,2.643-1.526,3.973-2.274,3.513-1.977,6.808-1.308,9.252,1.867.822-.545,1.593.015,2.353.163a51.038,51.038,0,0,0,24.271-.913l0-.011a30.964,30.964,0,0,1-20.145-10.412c-.2-.218-.361-.461-.541-.692A30.337,30.337,0,0,1,24.828,161.6a30.7,30.7,0,0,1,29.989-33.709,30.685,30.685,0,0,1,31.4,31.74,4.642,4.642,0,0,0,.058.584h0a50.871,50.871,0,0,0,4.342-16.549A48.178,48.178,0,0,0,90.28,131.5a1.135,1.135,0,0,1,.286-1.08,6.7,6.7,0,0,1-4.01-1.233A7.14,7.14,0,0,1,84.4,120.08c.769-1.435,1.616-2.826,2.4-4.252s.636-2.091-.7-3c-2.044-1.384-4.224-2.546-6.391-3.718a1.833,1.833,0,0,0-2.681.729c-.837,1.278-1.6,2.607-2.347,3.939a7.014,7.014,0,0,1-7.706,3.639,7.106,7.106,0,0,1-5.784-6.926c-.062-1.527.008-3.058-.025-4.586-.036-1.695-.647-2.371-2.3-2.415-2.267-.059-4.538-.069-6.805,0-1.788.058-2.269.552-2.215,2.376a50.747,50.747,0,0,1-.364,5.9c-.2,2.34-2.48,4.8-4.982,5.523a7.085,7.085,0,0,1-7.553-2.416,31.887,31.887,0,0,1-2.428-4.058c-1.317-2.318-2.022-2.505-4.356-1.142-1.7.995-3.428,1.951-5.135,2.94-1.628.942-1.837,1.74-.851,3.381.737,1.227,1.443,2.47,2.15,3.713a6.927,6.927,0,0,1-.881,8.352,6.973,6.973,0,0,1-8.626,1.591c-1.36-.694-2.655-1.515-3.982-2.273-1.726-.987-2.371-.826-3.383.837-1.2,1.98-2.31,4.019-3.483,6.017-.756,1.287-.568,2.063.689,2.868s2.576,1.456,3.839,2.226a7.208,7.208,0,0,1-3,13.559c-.689.035-1.381.009-2.071.015-1.845.015-3.728-.231-5.426.79v9.767a2.609,2.609,0,0,0,2.6,1.268" transform="translate(0 -62.526)" fill="#f49292"/>
        <path id="Trazado_602361" data-name="Trazado 602361" d="M5.426,152.411c.69-.006,1.382.021,2.071-.014a7.208,7.208,0,0,0,3-13.559c-1.262-.771-2.593-1.43-3.838-2.226s-1.445-1.581-.689-2.867c1.173-2,2.279-4.038,3.483-6.017,1.012-1.663,1.657-1.825,3.383-.837,1.327.759,2.622,1.579,3.982,2.273a6.972,6.972,0,0,0,8.626-1.591,6.925,6.925,0,0,0,.881-8.351c-.707-1.243-1.413-2.487-2.15-3.713-.986-1.641-.777-2.439.851-3.382,1.707-.988,3.432-1.945,5.135-2.94,2.334-1.364,3.04-1.177,4.356,1.142a31.968,31.968,0,0,0,2.429,4.058A7.086,7.086,0,0,0,44.5,116.8c2.5-.724,4.778-3.182,4.982-5.523a50.655,50.655,0,0,0,.363-5.9c-.053-1.824.428-2.318,2.215-2.376,2.267-.074,4.538-.064,6.805,0,1.656.043,2.267.72,2.3,2.414.033,1.528-.038,3.059.025,4.586a7.105,7.105,0,0,0,5.784,6.926,7.013,7.013,0,0,0,7.706-3.639c.752-1.332,1.51-2.661,2.347-3.939a1.833,1.833,0,0,1,2.681-.729c2.168,1.172,4.348,2.334,6.391,3.718,1.339.907,1.478,1.586.7,3s-1.631,2.817-2.4,4.252a7.14,7.14,0,0,0,2.153,9.112,6.705,6.705,0,0,0,4.01,1.233,1.748,1.748,0,0,1,.6-.354,22.172,22.172,0,0,1-2.485-.242,6.731,6.731,0,0,1-3.861-9.706c.787-1.422,1.627-2.814,2.424-4.23.911-1.618.707-2.447-.909-3.417q-3.167-1.9-6.382-3.72c-1.469-.831-2.465-.545-3.336.915-.884,1.48-1.685,3.01-2.612,4.462a6.273,6.273,0,0,1-6.3,3.027,6.384,6.384,0,0,1-5.872-5.038c-.545-2.134-.167-4.317-.249-6.477-.068-1.768-.731-2.483-2.53-2.507-1.873-.025-3.746-.006-5.62-.006-4,0-4.062.07-4.072,4.017a16.966,16.966,0,0,1-.491,5.557A6.391,6.391,0,0,1,43,116.7a6.375,6.375,0,0,1-6.224-3.218c-.844-1.388-1.608-2.825-2.442-4.219-.97-1.619-1.883-1.851-3.555-.9q-3.213,1.821-6.4,3.691c-1.409.828-1.64,1.767-.817,3.213.755,1.327,1.546,2.633,2.306,3.957a6.561,6.561,0,0,1-.949,8.381,6.627,6.627,0,0,1-8.4.968c-1.284-.731-2.548-1.5-3.83-2.229-1.629-.932-2.474-.718-3.411.883-1.2,2.039-2.364,4.094-3.555,6.136-1.11,1.9-.9,2.679,1.046,3.805,1.449.838,2.947,1.6,4.335,2.533a6.57,6.57,0,0,1,2.612,7.417A6.663,6.663,0,0,1,7.393,152c-1.577.034-3.158.07-4.731-.009A2.823,2.823,0,0,0,0,153.2c1.7-1.021,3.581-.775,5.426-.79" transform="translate(0 -62.033)" fill="#f49292"/>
        <path id="Trazado_602362" data-name="Trazado 602362" d="M96.413,243.041a7.84,7.84,0,0,1,1.863-5.314,7.053,7.053,0,0,1,11.306.85c.891,1.361,1.621,2.82,2.455,4.216.865,1.447,1.729,1.7,3.2.871q3.03-1.7,6-3.5c1.589-.965,1.74-1.691.809-3.288-.77-1.32-1.589-2.612-2.286-3.972a7.106,7.106,0,0,1,4.805-10.407,6.068,6.068,0,0,1,4.034.447c1.619.737,3.129,1.668,4.666,2.556,1.655.956,2.449.765,3.431-.832,1.213-1.973,2.336-4,3.472-6.019.808-1.436.588-2.212-.843-3.062-1.4-.831-2.814-1.633-4.192-2.5a6.962,6.962,0,0,1-3.076-7.938,6.89,6.89,0,0,1,6.712-5.026c1.528-.019,3.058.051,4.583-.028,1.812-.094,2.46-.772,2.488-2.594.033-2.218.053-4.437-.008-6.654-.051-1.815-.632-2.314-2.455-2.381-2.061-.074-4.136.219-6.181-.316a7.072,7.072,0,0,1-2.147-12.809c1.324-.858,2.733-1.573,4.088-2.379,1.622-.965,1.852-1.775.93-3.406-1.067-1.887-2.119-3.784-3.245-5.638-1.143-1.881-1.783-2.047-3.718-.917-.979.572-1.964,1.133-2.947,1.7a7.789,7.789,0,0,1-3.736,1.282c-.046,0-.091,0-.136,0a9.66,9.66,0,0,0,.04,4.011,51.708,51.708,0,0,1-3.714,24.423,2.328,2.328,0,0,1-1,1.407c-.032-.008-.059-.018-.087-.028A30.93,30.93,0,0,1,93.96,224.836a29.652,29.652,0,0,1-6.318.076h0l-.024.006a1.254,1.254,0,0,1,.033.141,3.4,3.4,0,0,1-2.121.905,52.686,52.686,0,0,1-22.2.3,19.876,19.876,0,0,0-2.167-.4c-.022,0-.041-.008-.063-.011a6.718,6.718,0,0,1-.143,7.454c-.782,1.25-1.495,2.545-2.209,3.837-.734,1.325-.572,2.28.667,3.032,2.355,1.43,4.754,2.787,7.155,4.138,1.245.7,2.189.184,2.858-.925.889-1.474,1.681-3.009,2.6-4.464a6.413,6.413,0,0,1,6.8-3.156,6.244,6.244,0,0,1,5.407,4.807c.507,1.911.212,3.926.171,5.889a4.037,4.037,0,0,0,1.158,3.178H95.625c1.176-2.091.731-4.38.788-6.6" transform="translate(-35.243 -98.094)" fill="#fa636f"/>
        <path id="Trazado_602363" data-name="Trazado 602363" d="M153.88,246.254c-.068-1.525-.044-3.057-.008-4.584a6.719,6.719,0,0,1,5.167-6.566,6.631,6.631,0,0,1,7.432,3.245c.832,1.4,1.616,2.818,2.451,4.212.817,1.363,1.742,1.663,3.072.919,2.32-1.3,4.624-2.623,6.9-4a1.906,1.906,0,0,0,.8-2.983c-.846-1.557-1.8-3.057-2.629-4.62A6.527,6.527,0,0,1,178.227,224a6.364,6.364,0,0,1,7.849-1.2c1.524.8,2.99,1.712,4.5,2.544s2.411.587,3.3-.919q1.88-3.177,3.706-6.386c.96-1.683.72-2.51-.973-3.51-1.568-.926-3.183-1.781-4.7-2.79a6.6,6.6,0,0,1-2.462-7.331,6.48,6.48,0,0,1,5.978-4.688c1.774-.05,3.55.01,5.324-.036,1.688-.043,2.447-.8,2.465-2.459q.041-3.771,0-7.543c-.021-1.692-.745-2.364-2.477-2.383-1.578-.017-3.156.024-4.733-.013a6.751,6.751,0,0,1-6.6-4.942,6.637,6.637,0,0,1,3.242-7.679c1.4-.831,2.833-1.591,4.217-2.438,1.349-.826,1.6-1.739.836-3.1q-1.909-3.415-3.909-6.779c-.839-1.41-1.662-1.616-3.081-.867-.652.345-1.274.748-1.924,1.1-1.72.924-3.284,2.214-5.36,2.313h0c-.05.114-.091.228-.129.343.046,0,.091,0,.137,0a7.791,7.791,0,0,0,3.736-1.282c.983-.563,1.969-1.124,2.947-1.7,1.935-1.131,2.574-.964,3.718.917,1.126,1.854,2.178,3.75,3.245,5.638.922,1.63.692,2.441-.93,3.406-1.355.806-2.763,1.521-4.088,2.379a7.072,7.072,0,0,0,2.147,12.809c2.046.536,4.12.242,6.182.316,1.824.066,2.4.565,2.455,2.381.062,2.217.042,4.436.008,6.654-.027,1.822-.676,2.5-2.487,2.594-1.526.079-3.055.009-4.583.028a6.891,6.891,0,0,0-6.712,5.026,6.962,6.962,0,0,0,3.076,7.938c1.377.864,2.794,1.666,4.192,2.5,1.432.85,1.651,1.626.843,3.062-1.136,2.018-2.259,4.046-3.472,6.019-.982,1.6-1.776,1.788-3.431.832-1.536-.888-3.046-1.818-4.666-2.556a6.067,6.067,0,0,0-4.034-.447,7.105,7.105,0,0,0-4.8,10.407c.7,1.36,1.517,2.652,2.286,3.972.931,1.6.78,2.322-.809,3.288q-2.969,1.8-6,3.5c-1.468.824-2.332.576-3.2-.871-.834-1.4-1.564-2.855-2.455-4.216a7.053,7.053,0,0,0-11.306-.85,7.84,7.84,0,0,0-1.863,5.314c-.058,2.224.387,4.512-.788,6.6a2.694,2.694,0,0,0,1.235-2.641" transform="translate(-92.263 -97.346)" fill="#fa636f"/>
        <path id="Trazado_602364" data-name="Trazado 602364" d="M222.106,172.711a48.2,48.2,0,0,1,.337,12.163,50.885,50.885,0,0,1-4.342,16.548v.011c.028.01.056.02.087.028a2.326,2.326,0,0,0,1-1.407,51.7,51.7,0,0,0,3.715-24.423,9.66,9.66,0,0,1-.04-4.011c-.159.006-.317.012-.473.011a1.136,1.136,0,0,0-.286,1.079" transform="translate(-131.826 -103.732)" fill="#fa636f"/>
        <path id="Trazado_602365" data-name="Trazado 602365" d="M67.448,321.526c-.76-.147-1.532-.708-2.353-.163.038.062.07.123.106.185.021,0,.04.009.062.011a19.851,19.851,0,0,1,2.167.4,52.689,52.689,0,0,0,22.2-.3,3.4,3.4,0,0,0,2.121-.906,1.323,1.323,0,0,0-.033-.14,51.037,51.037,0,0,1-24.271.913" transform="translate(-39.345 -193.788)" fill="#fa636f"/>
        <path id="Trazado_602366" data-name="Trazado 602366" d="M229.421,171.1c.038-.114.079-.229.128-.343a1.755,1.755,0,0,0-.6.354c.156,0,.315,0,.473-.011" transform="translate(-138.383 -103.209)" fill="#fa636f"/>
        <path id="Trazado_602367" data-name="Trazado 602367" d="M64.965,322.666a1.162,1.162,0,0,0,.158.028c-.036-.062-.068-.124-.106-.186a.944.944,0,0,0-.051.157" transform="translate(-39.267 -194.934)" fill="#fefefe"/>
        <path id="Trazado_602368" data-name="Trazado 602368" d="M237.54,45.623a25.1,25.1,0,0,0,14.567,3.195,25.764,25.764,0,0,0,13.3-4.977,2.5,2.5,0,0,0,.488-.662l-.023-.012c-5.092,2.75-10.188,2.943-15.26-.055-4.794-2.834-7.71-9.02-6.758-14.257,1.183-6.5,5.645-11.214,11.619-12.266a14.52,14.52,0,0,1,17.213,14.731,16.078,16.078,0,0,1-2.072,7.05c.006.011.011.023.018.035a15.935,15.935,0,0,0,3.864-6.735A25.279,25.279,0,0,0,272.47,9.822a5.632,5.632,0,0,1-.348-.962h0c-5.324.155-8.113-1.964-9.321-7.116A2.029,2.029,0,0,0,260.59,0c-1.529,0-3.058-.011-4.587,0-1.651.017-2.346.625-2.466,2.275a6.364,6.364,0,0,1-.841,2.8c-2.144,3.685-8,4.847-11.37,2.26-1.4-1.078-2.13-1.065-3.35.118-1.1,1.064-2.167,2.157-3.246,3.241a2.019,2.019,0,0,0-.07,3.128,6.225,6.225,0,0,1,1.381,2.414c1.277,4.166-2.033,9.3-6.374,9.882-1.687.225-2.222.815-2.244,2.5-.013.986,0,1.973,0,2.959,0,3.338,0,3.335,3.207,3.984a5.986,5.986,0,0,1,.987.308c3.111,1.222,5.267,5.79,4.45,9.417.6-.383,1.041.085,1.475.331" transform="translate(-137.458 0)" fill="#fbdc2e"/>
        <path id="Trazado_602369" data-name="Trazado 602369" d="M298.941,39.776c0-3.2,0-3.194-3.184-3.831a5.115,5.115,0,0,1-.559-.188c-4.64-1.5-6.579-8.085-3.518-11.94,1.027-1.294,1.034-2.083-.073-3.241-1.124-1.176-2.281-2.322-3.455-3.449a1.925,1.925,0,0,0-2.9-.089,8.935,8.935,0,0,1-3.2,1.747,4.522,4.522,0,0,1,1.433,2.021c4.293,9.073,3.917,17.9-1.458,26.446-.33.524-.615,1.155-1.372,1.224a1.523,1.523,0,0,1-.095-.148c-.023.022-.045.045-.069.066a19.04,19.04,0,0,1-4.644,4.672l-.023.036c.025.013.049.025.074.04.059.792-.561,1.111-1.079,1.445-8.056,5.2-16.516,6.139-25.4,2.344-1.173-.5-2.3-1.105-3.425-1.716a7.886,7.886,0,0,1-1.48,2.531,2.03,2.03,0,0,0,.15,3.125c1.09,1.072,2.153,2.171,3.25,3.237,1.223,1.188,2.02,1.245,3.337.12,2.442-2.084,4.99-1.8,7.718-.622,2.622,1.131,4.3,2.853,4.472,5.821a1.974,1.974,0,0,0,2.16,2.1c1.676,0,3.353-.007,5.03,0a1.986,1.986,0,0,0,2.2-2.078c.167-3.214,2.081-4.861,4.858-6.006,2.7-1.114,5.145-1.123,7.419.868a2.062,2.062,0,0,0,3.14-.073c1.161-1.14,2.316-2.287,3.451-3.453a1.991,1.991,0,0,0,.083-3.021c-2.185-2.42-2.008-5.015-.8-7.818,1.15-2.675,2.894-4.373,5.937-4.545a1.964,1.964,0,0,0,2.028-2.229c-.023-1.134,0-2.269,0-3.4" transform="translate(-147.395 -9.926)" fill="#f8c201"/>
        <path id="Trazado_602370" data-name="Trazado 602370" d="M278.1,110.64c.518-.334,1.137-.653,1.079-1.445-.026-.015-.05-.027-.075-.04a2.494,2.494,0,0,1-.488.662,25.763,25.763,0,0,1-13.3,4.977,25.1,25.1,0,0,1-14.567-3.195c-.435-.246-.875-.714-1.475-.331,1.122.611,2.252,1.215,3.425,1.716,8.883,3.8,17.344,2.853,25.4-2.344" transform="translate(-150.671 -65.976)" fill="#f8c201"/>
        <path id="Trazado_602371" data-name="Trazado 602371" d="M340.523,45.206a15.932,15.932,0,0,1-3.864,6.735,1.527,1.527,0,0,0,.095.148c.757-.069,1.042-.7,1.372-1.224,5.374-8.542,5.75-17.373,1.458-26.446A4.517,4.517,0,0,0,338.15,22.4a5.691,5.691,0,0,0,.348.962,25.279,25.279,0,0,1,2.025,21.847" transform="translate(-203.487 -13.537)" fill="#f8c201"/>
        <path id="Trazado_602372" data-name="Trazado 602372" d="M71.853,216.872a29.037,29.037,0,0,0,17.621,4.271c10.8-.852,19.158-5.962,24.738-15.345a29.385,29.385,0,0,0,4.059-13.827,30.728,30.728,0,0,0-4.807-18.3c-.128-.2-.347-.4-.381-.635-.044-.039-.085-.079-.129-.119A29.519,29.519,0,0,0,96.9,166.305,30.38,30.38,0,0,0,63.522,193.7c-.844,8.345,1.692,15.64,6.676,22.216.038.044.078.086.117.13.662-.1,1.076.547,1.539.828m21.9-29.478a8.986,8.986,0,0,1,9.137,9.163,9.193,9.193,0,0,1-9.166,9.218,9.349,9.349,0,0,1-9.215-9.244,9.187,9.187,0,0,1,9.244-9.138" transform="translate(-38.298 -100.437)" fill="#786e79"/>
        <path id="Trazado_602373" data-name="Trazado 602373" d="M69.6,215.347c-4.984-6.575-7.52-13.871-6.676-22.216A30.381,30.381,0,0,1,96.31,165.737a29.522,29.522,0,0,1,16.048,6.613c.044.039.086.08.129.118a.516.516,0,0,1,.1-.381,30.238,30.238,0,0,0-20.072-6.852A30.7,30.7,0,0,0,62.53,198.944a30.332,30.332,0,0,0,6.857,16.635,1.15,1.15,0,0,1,.331-.1c-.038-.044-.078-.086-.116-.13" transform="translate(-37.703 -99.869)" fill="#786e79"/>
        <path id="Trazado_602374" data-name="Trazado 602374" d="M103.99,238.9c9.027.156,16.854-2.8,23.188-9.252a29.71,29.71,0,0,0,8.493-18.268c.051-.493-.146-1.112.517-1.386-.661-.233-.407-.849-.4-1.3a30.542,30.542,0,0,0-3.332-14.242,30.931,30.931,0,0,0-6.771-8.665,29.539,29.539,0,0,1,4.353,11.772A31.157,31.157,0,0,1,102.95,233.2,30.794,30.794,0,0,1,82.6,228.638a30.7,30.7,0,0,0,18.35,9.94c.471.074,1.141-.138,1.347.533l.027,0h0c.5-.511,1.115-.226,1.667-.216" transform="translate(-49.925 -112.296)" fill="#554e57"/>
        <path id="Trazado_602375" data-name="Trazado 602375" d="M99.438,303.085a30.7,30.7,0,0,1-18.35-9.94c-.331-.206-.661-.413-.989-.632.18.231.346.475.541.692a30.965,30.965,0,0,0,20.145,10.412c-.206-.671-.876-.459-1.347-.533" transform="translate(-48.414 -176.804)" fill="#554e57"/>
        <path id="Trazado_602376" data-name="Trazado 602376" d="M196.961,192.507a30.533,30.533,0,0,1,3.331,14.241c-.006.448-.261,1.064.4,1.3l.012-.007h0a4.622,4.622,0,0,1-.058-.583,30.173,30.173,0,0,0-11.328-24.887c.3.419.593.845.871,1.274a30.919,30.919,0,0,1,6.771,8.665" transform="translate(-114.43 -110.35)" fill="#554e57"/>
        <path id="Trazado_602377" data-name="Trazado 602377" d="M165.809,248.361a29.71,29.71,0,0,1-8.493,18.268c-6.333,6.45-14.161,9.408-23.188,9.252-.551-.01-1.171-.295-1.667.216a29.692,29.692,0,0,0,6.319-.076,30.931,30.931,0,0,0,27.557-29.042l-.012,0c-.663.274-.466.892-.517,1.386" transform="translate(-80.063 -149.279)" fill="#554e57"/>
        <path id="Trazado_602378" data-name="Trazado 602378" d="M218.07,246.965l.011,0v-.01l-.012.007" transform="translate(-131.808 -149.269)" fill="#554e57"/>
        <path id="Trazado_602379" data-name="Trazado 602379" d="M124.087,184.166a30.728,30.728,0,0,1,4.807,18.3,29.387,29.387,0,0,1-4.059,13.827c-5.58,9.383-13.936,14.493-24.738,15.345a29.034,29.034,0,0,1-17.621-4.271c-.463-.28-.877-.923-1.539-.828.216.25.436.493.657.735a30.8,30.8,0,0,0,20.351,4.558A31.157,31.157,0,0,0,129.035,196.2a29.538,29.538,0,0,0-4.353-11.772q-.481-.451-.975-.893c.034.24.253.43.381.635" transform="translate(-48.921 -110.932)" fill="#554e57"/>
        <path id="Trazado_602380" data-name="Trazado 602380" d="M80.43,292.255a1.14,1.14,0,0,0-.332.1c.328.218.658.426.989.631-.221-.241-.441-.485-.657-.734" transform="translate(-48.414 -176.648)" fill="#554e57"/>
        <path id="Trazado_602381" data-name="Trazado 602381" d="M189.048,182.949q.493.443.975.893c-.278-.43-.566-.855-.871-1.274a.515.515,0,0,0-.1.381" transform="translate(-114.263 -110.35)" fill="#554e57"/>
        <path id="Trazado_602382" data-name="Trazado 602382" d="M296.573,61.913a14.132,14.132,0,0,0-13.455-19.694,14.087,14.087,0,0,0-2.562,27.824,13.742,13.742,0,0,0,8.949-.954c.574-.254,1.124-.765,1.823-.41l.046-.023h0a55.07,55.07,0,0,1,4.644-4.672c.018-.033.034-.067.051-.1-.4-.76.235-1.352.5-1.97M283.653,60.9a4.548,4.548,0,0,1-4.525-4.626,4.53,4.53,0,0,1,9.059.02,4.52,4.52,0,0,1-4.534,4.606" transform="translate(-162.915 -25.513)" fill="#786e79"/>
        <path id="Trazado_602383" data-name="Trazado 602383" d="M288.887,68.562a13.743,13.743,0,0,1-8.949.954,14.089,14.089,0,1,1,16.016-8.13c-.268.618-.9,1.21-.5,1.97a16.076,16.076,0,0,0,2.072-7.05A14.519,14.519,0,0,0,280.31,41.574c-5.974,1.052-10.436,5.763-11.619,12.266-.952,5.237,1.964,11.422,6.758,14.256,5.073,3,10.168,2.806,15.26.056-.7-.355-1.248.156-1.822.41" transform="translate(-162.296 -24.987)" fill="#786e79"/>
        <path id="Trazado_602384" data-name="Trazado 602384" d="M324.744,101.924h0a19.039,19.039,0,0,0,4.644-4.672,55.06,55.06,0,0,0-4.644,4.672" transform="translate(-196.285 -58.782)" fill="#786e79"/>
        <path id="Trazado_602385" data-name="Trazado 602385" d="M126.032,238.209a9.193,9.193,0,0,0,9.166-9.218,8.986,8.986,0,0,0-9.137-9.163,9.187,9.187,0,0,0-9.244,9.138,9.349,9.349,0,0,0,9.215,9.244" transform="translate(-70.608 -132.871)" fill="#fefefe"/>
        <path id="Trazado_602386" data-name="Trazado 602386" d="M298.251,66.423a4.408,4.408,0,0,0-4.468,4.483,4.531,4.531,0,1,0,9.059.02,4.409,4.409,0,0,0-4.591-4.5" transform="translate(-177.571 -40.148)" fill="#fefefe"/>
      </g>
    </g>
  </g>
</svg>
