<svg xmlns="http://www.w3.org/2000/svg" xmlns:xlink="http://www.w3.org/1999/xlink" width="328.486" height="324.119" viewBox="0 0 328.486 324.119">
  <defs>
    <clipPath id="clip-path">
      <rect id="Rect치ngulo_300836" data-name="Rect치ngulo 300836" width="151.384" height="151.55" fill="none"/>
    </clipPath>
  </defs>
  <g id="Grupo_886474" data-name="Grupo 886474" transform="translate(-811.361 -4844.373)">
    <rect id="Rect치ngulo_4912" data-name="Rect치ngulo 4912" width="328.486" height="324.119" rx="21" transform="translate(811.361 4844.373)" fill="#e1fbff"/>
    <path id="Trazado_608257" data-name="Trazado 608257" d="M95.218,14.667a4.673,4.673,0,0,1-.721,2.36,4.35,4.35,0,0,1-1.85,1.586,6.3,6.3,0,0,1-2.72.563,5.025,5.025,0,0,1-3.973-1.644,6.786,6.786,0,0,1-1.45-4.641v-.633a7.746,7.746,0,0,1,.655-3.292,4.961,4.961,0,0,1,1.885-2.18,5.26,5.26,0,0,1,2.848-.769,5.516,5.516,0,0,1,3.744,1.226,4.844,4.844,0,0,1,1.608,3.379H92.168a2.292,2.292,0,0,0-.589-1.679,2.422,2.422,0,0,0-1.687-.51A1.843,1.843,0,0,0,88.2,9.3a5.536,5.536,0,0,0-.562,2.751v.905a6.126,6.126,0,0,0,.514,2.927,1.882,1.882,0,0,0,1.771.879,2.369,2.369,0,0,0,1.626-.5,2.126,2.126,0,0,0,.6-1.591Zm7.075-2.5-.976-.07a1.752,1.752,0,0,0-1.793.879V19H96.563V9.49H99.34l.1,1.222a2.294,2.294,0,0,1,2.083-1.4,2.888,2.888,0,0,1,.826.105Zm.378,1.986a5.613,5.613,0,0,1,.554-2.536,3.96,3.96,0,0,1,1.591-1.709,4.791,4.791,0,0,1,2.435-.6,4.373,4.373,0,0,1,3.366,1.323,5.076,5.076,0,0,1,1.23,3.6v.105a4.925,4.925,0,0,1-1.235,3.529,4.384,4.384,0,0,1-3.344,1.305,4.434,4.434,0,0,1-3.261-1.217,4.761,4.761,0,0,1-1.327-3.3Zm2.962.185a3.538,3.538,0,0,0,.413,1.934,1.376,1.376,0,0,0,1.222.615q1.582,0,1.617-2.435v-.3q0-2.558-1.635-2.558-1.485,0-1.608,2.206ZM115.873,9.49l.1,1.116a3.225,3.225,0,0,1,2.716-1.292,2.713,2.713,0,0,1,2.219.888,4.226,4.226,0,0,1,.76,2.672V19h-2.971V13a1.6,1.6,0,0,0-.29-1.059,1.342,1.342,0,0,0-1.055-.338,1.413,1.413,0,0,0-1.292.686V19H113.1V9.49Zm7.058,4.667a5.613,5.613,0,0,1,.554-2.536,3.96,3.96,0,0,1,1.591-1.709,4.791,4.791,0,0,1,2.435-.6,4.373,4.373,0,0,1,3.366,1.323,5.076,5.076,0,0,1,1.23,3.6v.105a4.925,4.925,0,0,1-1.235,3.529,4.384,4.384,0,0,1-3.344,1.305,4.434,4.434,0,0,1-3.261-1.217,4.761,4.761,0,0,1-1.327-3.3Zm2.962.185a3.538,3.538,0,0,0,.413,1.934,1.376,1.376,0,0,0,1.222.615q1.582,0,1.617-2.435v-.3q0-2.558-1.635-2.558-1.485,0-1.608,2.206Zm7.172-.167a6.421,6.421,0,0,1,.475-2.549A3.821,3.821,0,0,1,134.9,9.917a3.591,3.591,0,0,1,2.065-.6,2.855,2.855,0,0,1,2.32,1l.105-.826h2.689V18.64a4.009,4.009,0,0,1-.584,2.184,3.75,3.75,0,0,1-1.692,1.424,6.219,6.219,0,0,1-2.566.5,5.365,5.365,0,0,1-2.026-.4,3.657,3.657,0,0,1-1.5-1.028l1.239-1.74a2.716,2.716,0,0,0,2.18.976,1.764,1.764,0,0,0,1.969-2.021v-.3a2.781,2.781,0,0,1-2.153.94,3.437,3.437,0,0,1-2.812-1.332,5.517,5.517,0,0,1-1.072-3.564Zm2.971.185a3.383,3.383,0,0,0,.439,1.85,1.387,1.387,0,0,0,1.23.681,1.573,1.573,0,0,0,1.4-.642v-4a1.534,1.534,0,0,0-1.38-.65,1.4,1.4,0,0,0-1.239.708A3.858,3.858,0,0,0,136.035,14.359Zm13.482-2.188-.976-.07a1.752,1.752,0,0,0-1.793.879V19h-2.962V9.49h2.777l.1,1.222a2.294,2.294,0,0,1,2.083-1.4,2.888,2.888,0,0,1,.826.105ZM155.678,19a3.344,3.344,0,0,1-.281-.853,2.754,2.754,0,0,1-2.285,1.028,3.374,3.374,0,0,1-2.285-.813,2.588,2.588,0,0,1-.94-2.043,2.66,2.66,0,0,1,1.143-2.338,5.821,5.821,0,0,1,3.322-.791h.914v-.5q0-1.316-1.134-1.316a.927.927,0,0,0-1.055,1.042h-2.962a2.655,2.655,0,0,1,1.173-2.239,4.931,4.931,0,0,1,2.993-.86,4.323,4.323,0,0,1,2.874.888,3.086,3.086,0,0,1,1.081,2.435v4.21a4.311,4.311,0,0,0,.4,2V19Zm-1.854-1.934a1.652,1.652,0,0,0,.918-.237,1.487,1.487,0,0,0,.523-.536V14.772H154.4q-1.547,0-1.547,1.389a.848.848,0,0,0,.272.655A.986.986,0,0,0,153.824,17.066Zm8.851-7.576.1,1.116a3.27,3.27,0,0,1,2.716-1.292,2.407,2.407,0,0,1,2.435,1.433,3.165,3.165,0,0,1,2.795-1.433q2.892,0,2.971,3.5V19h-2.971V13a1.813,1.813,0,0,0-.246-1.063,1.048,1.048,0,0,0-.9-.334,1.4,1.4,0,0,0-1.31.782l.009.123V19H165.3V13.015a1.906,1.906,0,0,0-.237-1.081,1.045,1.045,0,0,0-.905-.334,1.42,1.42,0,0,0-1.3.782V19H159.9V9.49ZM180.736,19a3.344,3.344,0,0,1-.281-.853,2.754,2.754,0,0,1-2.285,1.028,3.374,3.374,0,0,1-2.285-.813,2.588,2.588,0,0,1-.94-2.043,2.66,2.66,0,0,1,1.143-2.338,5.821,5.821,0,0,1,3.322-.791h.914v-.5q0-1.316-1.134-1.316a.927.927,0,0,0-1.055,1.042h-2.962a2.655,2.655,0,0,1,1.173-2.239,4.931,4.931,0,0,1,2.993-.86,4.323,4.323,0,0,1,2.874.888,3.086,3.086,0,0,1,1.081,2.435v4.21a4.311,4.311,0,0,0,.4,2V19Zm-1.854-1.934a1.652,1.652,0,0,0,.918-.237,1.487,1.487,0,0,0,.523-.536V14.772h-.861q-1.547,0-1.547,1.389a.848.848,0,0,0,.272.655A.986.986,0,0,0,178.881,17.066Z" transform="translate(841.361 5091.627)" fill="#12263f"/>
    <g id="Grupo_886175" data-name="Grupo 886175" transform="translate(900.361 4903.266)">
      <g id="Grupo_886174" data-name="Grupo 886174" clip-path="url(#clip-path)">
        <path id="Trazado_602480" data-name="Trazado 602480" d="M12.343,221.541q44.254.051,88.508.019,14.185,0,28.37-.01c.431-.585,1.149-.483,1.723-.725,5.095-2.148,8.237-6.235,8.278-11.818.113-15.363.04-30.728.034-46.092,0-.476.141-1-.3-1.389a8.975,8.975,0,0,1-7.655,3.632q-56.3-.062-112.6.025a8.626,8.626,0,0,1-8.718-6.806,8.423,8.423,0,0,1,7.922-9.829c.492-.019.985-.008,1.478-.008q55.71,0,111.421-.026a9.491,9.491,0,0,1,8.391,4.127l.047-.015q.009-6.756.015-13.513c0-.432.1-.9-.3-1.24a9.048,9.048,0,0,1-7.8,3.643c-11.726-.1-23.453-.032-35.179-.051a7.985,7.985,0,0,1-7.65-5.236,8.267,8.267,0,0,1,2.1-9.067,8.519,8.519,0,0,1,5.924-2.27q17.59-.02,35.18-.009A9,9,0,0,1,139.2,129l.041-.019.044-12.742a1.13,1.13,0,0,0-.043-.2h0q-41.388.007-82.776.013-27.272,0-54.544,0c-.639,0-1.279-.035-1.918-.053V211.21c.836,2.08,1.516,4.214,3.071,5.955a12.086,12.086,0,0,0,9.273,4.376m59.74-90.523c2.314-.046,4.629-.047,6.942.007a2.215,2.215,0,0,1,2.225,2.269,2.274,2.274,0,0,1-2.313,2.207c-1.131.042-2.265.009-3.4.009s-2.266.03-3.4-.008a2.245,2.245,0,0,1-2.359-2.293,2.2,2.2,0,0,1,2.3-2.192m-26.139-.009c.1-.008.2-.009.294-.009h3.243v.008c1.13,0,2.262-.043,3.389.011a2.109,2.109,0,0,1,2.219,2.23,2.153,2.153,0,0,1-2.216,2.248c-2.308.045-4.618.049-6.926,0a2.243,2.243,0,0,1,0-4.486m-25.63.008q3.388-.071,6.779,0a2.1,2.1,0,0,1,2.27,2.177,2.178,2.178,0,0,1-2.309,2.308c-1.129.037-2.26.008-3.39.008-1.081,0-2.162.024-3.242-.005A2.2,2.2,0,0,1,18,133.3a2.123,2.123,0,0,1,2.312-2.288m6.661,75.452c-1.129.04-2.26.008-3.39.008-1.081,0-2.163.037-3.243-.009A2.2,2.2,0,0,1,18,204.172a2.13,2.13,0,0,1,2.386-2.212q3.316-.056,6.633,0a2.122,2.122,0,0,1,2.343,2.252,2.23,2.23,0,0,1-2.389,2.254m26.075-.03c-2.4.084-4.816.084-7.221.006a2.151,2.151,0,0,1-2.1-2.364,2.092,2.092,0,0,1,2.184-2.112c1.176-.055,2.358-.012,3.537-.01s2.361-.05,3.537.015a2.079,2.079,0,0,1,2.1,2.186,2.144,2.144,0,0,1-2.04,2.279m71.241-28.125q3.389-.075,6.78,0a2.124,2.124,0,0,1,2.31,2.291,2.226,2.226,0,0,1-2.42,2.212c-1.08.032-2.162.006-3.243.006-1.13,0-2.262.037-3.39-.01a2.2,2.2,0,0,1-2.308-2.325,2.094,2.094,0,0,1,2.271-2.172m-.027,23.65c1.178-.047,2.359-.01,3.538-.008,1.131,0,2.263-.042,3.39.013a2.1,2.1,0,0,1,2.187,2.11,2.155,2.155,0,0,1-2.1,2.366c-2.356.081-4.718.074-7.076.01a2.174,2.174,0,0,1-2.185-2.3,2.1,2.1,0,0,1,2.245-2.2M98.158,178.315c2.312-.049,4.628-.054,6.94.007a2.2,2.2,0,0,1,2.227,2.261,2.276,2.276,0,0,1-2.291,2.226c-1.13.05-2.264.01-3.4.011s-2.265.034-3.4-.007a2.317,2.317,0,0,1-2.386-2.3,2.224,2.224,0,0,1,2.3-2.2M98.1,201.957c.1-.008.2-.008.3-.008h3.249v.005c1.132,0,2.266-.039,3.4.01a2.245,2.245,0,1,1,.064,4.489c-2.361.062-4.727.067-7.088-.006a2.246,2.246,0,0,1,.083-4.49M71.956,178.323c1.178-.066,2.362-.014,3.543-.015s2.365-.049,3.544.012a2.22,2.22,0,0,1,2.209,2.139,2.277,2.277,0,0,1-2.187,2.337q-3.542.1-7.088,0a2.226,2.226,0,0,1-2.193-2.311,2.2,2.2,0,0,1,2.172-2.165m.193,23.639c2.264-.042,4.53-.044,6.793,0a2.226,2.226,0,0,1,2.31,2.191,2.365,2.365,0,0,1-2.383,2.32c-.1.006-.2,0-.3,0h-3.1c-1.083,0-2.167.029-3.249-.008a2.315,2.315,0,0,1-2.441-2.237,2.221,2.221,0,0,1,2.367-2.271M18.032,172.213q18.034-.092,36.069,0a8.359,8.359,0,0,1,8.243,7.593,8.5,8.5,0,0,1-6.078,8.746,8.592,8.592,0,0,1-2.488.222q-8.869.017-17.739,0c-5.962,0-11.928-.111-17.886.04a8.3,8.3,0,0,1-.121-16.6" transform="translate(0 -70.159)" fill="#e0f2fe"/>
        <path id="Trazado_602481" data-name="Trazado 602481" d="M2.977,63.774q66.712,0,133.424,0a5.828,5.828,0,0,1,2.759.325c.03.021.053.048.08.071.009-7.066.1-14.135-.008-21.2a12.6,12.6,0,0,0-8.475-11.614c-.447-.143-1-.162-1.229-.707l-1.185-.009h0c0,3,0,6.006-.014,9.009-.017,3.25-2.221,5.634-5.2,5.641a5.435,5.435,0,0,1-5.382-5.521c-.08-3.05-.057-6.1-.079-9.153H33.714c-.022,3-.012,6-.073,9-.079,3.838-3.194,6.352-6.687,5.449a5.134,5.134,0,0,1-3.887-4.96c-.039-3.149-.024-6.3-.032-9.447-4.171.054-8.366-.4-12.509.226A12.267,12.267,0,0,0,.279,40.6,3.689,3.689,0,0,1,0,41.251V64.316A2.188,2.188,0,0,1,1.5,63.8c.492-.025.985-.021,1.477-.021" transform="translate(0 -18.482)" fill="#fd75a6"/>
        <path id="Trazado_602482" data-name="Trazado 602482" d="M56.462,115.2q41.388,0,82.777-.013c0-.061,0-.123,0-.184a1.065,1.065,0,0,0-.08-.071,5.821,5.821,0,0,0-2.759-.325q-66.712-.009-133.424,0c-.492,0-.985,0-1.477.021a2.187,2.187,0,0,0-1.5.52c.639.019,1.279.054,1.918.054q27.272,0,54.544,0" transform="translate(0 -69.314)" fill="#fd75a6"/>
        <path id="Trazado_602483" data-name="Trazado 602483" d="M11.979,367.458q15.95-.018,31.9,0,42.607-.012,85.214-.013c.236-.04.467-.09.7-.141h-.57q-14.184,0-28.37.01-44.254,0-88.509-.018a12.087,12.087,0,0,1-9.272-4.376C1.516,361.173.836,359.04,0,356.959a17.776,17.776,0,0,0,.822,3.412c2.33,4.566,5.923,7.092,11.158,7.086" transform="translate(0 -215.908)" fill="#fefefe"/>
        <path id="Trazado_602484" data-name="Trazado 602484" d="M324.794,30.222l1.185.009q.359,0,.718,0c-.241-.1-.481-.2-.72-.3a1.415,1.415,0,0,0-1.184.119C324.794,30.107,324.794,30.165,324.794,30.222Z" transform="translate(-196.453 -18.059)" fill="#fefefe"/>
        <path id="Trazado_602485" data-name="Trazado 602485" d="M61.389,1.154a4.954,4.954,0,0,0-2.419,4.563c.032,1.565.024,3.132,0,4.7a2.278,2.278,0,0,1-.365,1.645,3.161,3.161,0,0,1,.376,1.99c.017,2.316-.024,4.632.015,6.947.053,3.135,1.879,5.182,4.639,5.258,2.66.073,4.773-1.98,4.989-5,.172-2.408.018-4.827.068-7.24a2.683,2.683,0,0,1,.409-1.944,2.066,2.066,0,0,1-.4-1.568c-.029-1.368.005-2.738-.017-4.106-.035-2.22-.675-4.136-2.68-5.387C65.647.791,65.219.555,65.307,0H62.35c.057.7-.534.879-.961,1.154" transform="translate(-35.444)" fill="#e0f2fe"/>
        <path id="Trazado_602486" data-name="Trazado 602486" d="M68.5,32.477c-.051,2.413.1,4.833-.068,7.24-.216,3.015-2.329,5.069-4.989,5-2.759-.076-4.585-2.124-4.639-5.258-.039-2.315,0-4.631-.015-6.947a3.16,3.16,0,0,0-.376-1.99,1.275,1.275,0,0,1-.122.123c.008,3.149-.007,6.3.032,9.447a5.135,5.135,0,0,0,3.887,4.96c3.493.9,6.608-1.611,6.687-5.449.062-3,.051-6,.073-9-.024-.021-.041-.044-.062-.065a2.683,2.683,0,0,0-.409,1.944" transform="translate(-35.258 -18.459)" fill="#e0f2fe"/>
        <path id="Trazado_602487" data-name="Trazado 602487" d="M76.251,1.012c2,1.251,2.644,3.167,2.679,5.387.022,1.368-.012,2.738.016,4.106a2.067,2.067,0,0,0,.4,1.568c.017-.018.042-.034.06-.052-.006-1.487-.084-2.979.01-4.46.209-3.309-.7-6-3.859-7.562-.088.554.339.791.694,1.012" transform="translate(-45.694)" fill="#e0f2fe"/>
        <path id="Trazado_602488" data-name="Trazado 602488" d="M85.161,30.476c.021.021.038.044.062.065,0-.039,0-.078,0-.117-.019.018-.043.034-.061.052" transform="translate(-51.51 -18.402)" fill="#e0f2fe"/>
        <path id="Trazado_602489" data-name="Trazado 602489" d="M58.305,5.834c.078,2.045.006,4.1-.007,6.145.039.026.079.048.117.078l0,0a2.279,2.279,0,0,0,.365-1.645c.028-1.566.037-3.132,0-4.7a4.955,4.955,0,0,1,2.419-4.564C61.633.879,62.225.7,62.168,0a3.719,3.719,0,0,1-.585.429,5.248,5.248,0,0,0-3.277,5.4" transform="translate(-35.262)" fill="#e0f2fe"/>
        <path id="Trazado_602490" data-name="Trazado 602490" d="M58.412,30.391c-.038-.03-.078-.052-.118-.078,0,.068,0,.136,0,.2a1.322,1.322,0,0,0,.122-.123l0,0" transform="translate(-35.258 -18.335)" fill="#e0f2fe"/>
        <path id="Trazado_602491" data-name="Trazado 602491" d="M301.043,1.012c-2,1.251-2.644,3.167-2.679,5.387-.022,1.368.012,2.738-.016,4.106a2.068,2.068,0,0,1-.4,1.567,2.376,2.376,0,0,1,.4,1.723c.038,2.261-.011,4.524.025,6.785a6.047,6.047,0,0,0,1.211,3.867A4.664,4.664,0,0,0,304.758,26a4.574,4.574,0,0,0,3.257-4.3c.137-2.5.021-5.014.053-7.522a3.334,3.334,0,0,1,.391-2.122,2.269,2.269,0,0,1-.38-1.668c-.028-1.563-.036-3.127,0-4.689a4.948,4.948,0,0,0-2.422-4.552C305.227.877,304.637.7,304.694,0h-2.957c.088.554-.339.791-.694,1.012" transform="translate(-180.216)" fill="#e0f2fe"/>
        <path id="Trazado_602492" data-name="Trazado 602492" d="M307.972,32.644c-.032,2.507.084,5.018-.053,7.522a4.574,4.574,0,0,1-3.257,4.3,4.665,4.665,0,0,1-5.167-1.555,6.049,6.049,0,0,1-1.212-3.867c-.036-2.262.014-4.524-.025-6.785a2.374,2.374,0,0,0-.405-1.723c-.022.022-.039.045-.063.066.023,3.051,0,6.1.079,9.153a5.436,5.436,0,0,0,5.382,5.521c2.975-.008,5.179-2.39,5.2-5.641.015-3,.01-6.006.014-9.009a1.235,1.235,0,0,1-.1-.1,3.337,3.337,0,0,0-.391,2.122" transform="translate(-180.119 -18.461)" fill="#e0f2fe"/>
        <path id="Trazado_602493" data-name="Trazado 602493" d="M297.8,5.493c-.085,2.168-.029,4.341-.031,6.512.024.021.042.045.064.068a2.069,2.069,0,0,0,.4-1.567c.029-1.368-.006-2.738.016-4.106.035-2.22.675-4.136,2.68-5.387.354-.221.782-.458.694-1.012C299.4,1.178,297.9,2.889,297.8,5.493" transform="translate(-180.094)" fill="#e0f2fe"/>
        <path id="Trazado_602494" data-name="Trazado 602494" d="M297.789,30.382c0,.045,0,.089,0,.134.024-.021.041-.044.063-.066-.021-.023-.04-.046-.064-.068" transform="translate(-180.119 -18.377)" fill="#e0f2fe"/>
        <path id="Trazado_602495" data-name="Trazado 602495" d="M315.971,1.151A4.947,4.947,0,0,1,318.393,5.7c-.032,1.562-.023,3.126,0,4.689a2.269,2.269,0,0,0,.38,1.668l.006-.01c.03-.023.061-.04.091-.06-.006-2.3-.005-4.6-.022-6.906a4.9,4.9,0,0,0-2.6-4.317c-.414-.255-.826-.512-1.239-.768-.057.7.533.877.96,1.151" transform="translate(-190.533)" fill="#e0f2fe"/>
        <path id="Trazado_602496" data-name="Trazado 602496" d="M324.547,30.416a1.312,1.312,0,0,0,.1.1c0-.057,0-.115,0-.172-.03.019-.061.037-.091.06l-.006.01" transform="translate(-196.303 -18.355)" fill="#e0f2fe"/>
        <path id="Trazado_602497" data-name="Trazado 602497" d="M153.781,202.475a9.026,9.026,0,0,0-7.167-2.863q-55.784.012-111.568.012c-4.842,0-8.03,2.552-8.746,6.9a7.694,7.694,0,0,0,6.844,8.584c.787.047,1.576.025,2.364.025q55.193,0,110.387.033c3.143,0,5.985-.4,8.186-2.871a1.113,1.113,0,0,1,.653-.318.947.947,0,0,1,.132.027,9.3,9.3,0,0,0,.234-8.727h0c-.015-.022-.031-.042-.046-.063-.618.157-.947-.381-1.271-.742M43.1,209.722q-3.534.094-7.073,0a2.148,2.148,0,0,1-2.163-2.3,2.111,2.111,0,0,1,2.269-2.176c1.177-.046,2.358-.009,3.537-.009,1.13,0,2.262-.041,3.389.011a2.09,2.09,0,0,1,2.161,2.13,2.152,2.152,0,0,1-2.12,2.342m25.558.021c-.1.006-.2,0-.295,0q-1.548,0-3.095,0c-1.13,0-2.261.035-3.39-.01a2.194,2.194,0,0,1-2.29-2.184,2.109,2.109,0,0,1,2.291-2.3c2.259-.046,4.52-.042,6.779,0a2.1,2.1,0,0,1,2.288,2.153,2.209,2.209,0,0,1-2.288,2.342m26.2,0c-.1.008-.2,0-.3,0h-3.25c-1.132,0-2.267.038-3.4-.011a2.255,2.255,0,0,1-2.277-2.233,2.2,2.2,0,0,1,2.239-2.246q3.47-.076,6.942,0a2.216,2.216,0,0,1,2.289,2.207,2.314,2.314,0,0,1-2.251,2.284m26.046-.011q-3.47.071-6.942,0a2.241,2.241,0,1,1,.037-4.481c1.18-.045,2.363-.01,3.544-.008,1.133,0,2.267-.04,3.4.012a2.213,2.213,0,0,1,2.24,2.248,2.242,2.242,0,0,1-2.277,2.231m26.094,0c-1.177.053-2.358.011-3.537.011-1.13,0-2.262.043-3.39-.011a2.174,2.174,0,0,1-2.193-2.279,2.069,2.069,0,0,1,2.231-2.2c2.308-.046,4.619-.05,6.928,0a2.084,2.084,0,0,1,2.2,2.24A2.177,2.177,0,0,1,147,209.731" transform="translate(-15.856 -120.736)" fill="#cfed7f"/>
        <path id="Trazado_602498" data-name="Trazado 602498" d="M153.97,211.183a1.113,1.113,0,0,0-.653.318c-2.2,2.475-5.044,2.875-8.187,2.871q-55.193-.075-110.386-.033c-.788,0-1.577.022-2.364-.025a7.694,7.694,0,0,1-6.844-8.584c.715-4.351,3.9-6.9,8.746-6.9q55.784-.017,111.568-.012a9.025,9.025,0,0,1,7.167,2.863c.324.361.653.9,1.271.742a9.491,9.491,0,0,0-8.39-4.127q-55.71.063-111.421.026c-.493,0-.986-.011-1.478.008a8.423,8.423,0,0,0-7.922,9.83,8.627,8.627,0,0,0,8.718,6.806q56.3-.142,112.6-.025a8.974,8.974,0,0,0,7.654-3.632c.017-.032.032-.063.049-.095a.968.968,0,0,0-.132-.027" transform="translate(-15.093 -119.938)" fill="#cfed7f"/>
        <path id="Trazado_602499" data-name="Trazado 602499" d="M340.062,153.012a1.23,1.23,0,0,1,.7.7,8.758,8.758,0,0,1-.309,7.594,1.041,1.041,0,0,1-.523.457c.429.156.5.594.581,1.008a6.744,6.744,0,0,1,.071,1.325q0,22.29-.011,44.58a13.3,13.3,0,0,1-4.5,10.367,12,12,0,0,1-4.062,2.408,14.616,14.616,0,0,1,1.661-.1c1.921-.011,3.842.005,5.762-.005a11.887,11.887,0,0,0,12.239-12.24q.031-32.732.008-65.465,0-12.561,0-25.122a10.085,10.085,0,0,1,.062-1.768c0-.082,0-.165,0-.247l-11.378.041a9.423,9.423,0,0,1,.235,3.209q.028,3.768,0,7.538a3.54,3.54,0,0,1-.327,1.867,1.19,1.19,0,0,1-.218.13v.074a9.275,9.275,0,0,1-.234,8.734,1.269,1.269,0,0,1,.148,0,1.873,1.873,0,0,1,.621,1.73c.036,3.84.031,7.68,0,11.52a2.383,2.383,0,0,1-.4,1.543,1.011,1.011,0,0,1-.135.042v.077Z" transform="translate(-200.82 -70.468)" fill="#cbeafe"/>
        <path id="Trazado_602500" data-name="Trazado 602500" d="M328.994,290.74a12,12,0,0,0,4.062-2.408,13.3,13.3,0,0,0,4.5-10.367q.046-22.29.011-44.58a6.745,6.745,0,0,0-.071-1.325c-.083-.414-.152-.852-.581-1.008-.05.024-.1.047-.153.068.437.39.3.913.3,1.388.006,15.364.079,30.729-.034,46.092-.041,5.583-3.183,9.671-8.278,11.818-.574.242-1.292.14-1.723.725a11.447,11.447,0,0,1,1.973-.4" transform="translate(-197.8 -139.752)" fill="#cbeafe"/>
        <path id="Trazado_602501" data-name="Trazado 602501" d="M352.917,127.354q.021-3.769,0-7.538a9.419,9.419,0,0,0-.235-3.208h-.266l-.044,12.742a1.2,1.2,0,0,0,.219-.13,3.541,3.541,0,0,0,.327-1.867" transform="translate(-213.133 -70.531)" fill="#cbeafe"/>
        <path id="Trazado_602502" data-name="Trazado 602502" d="M352.486,184.4q.041-5.76,0-11.52a1.875,1.875,0,0,0-.621-1.73,1.249,1.249,0,0,0-.148,0c-.015.028-.028.057-.043.085.4.341.3.809.3,1.24q0,6.756-.015,13.513a1.062,1.062,0,0,0,.135-.042,2.381,2.381,0,0,0,.4-1.543" transform="translate(-212.709 -103.519)" fill="#cbeafe"/>
        <path id="Trazado_602503" data-name="Trazado 602503" d="M349.6,116.75a10.122,10.122,0,0,0-.062,1.768q0,12.562,0,25.122,0,32.732-.007,65.465a11.887,11.887,0,0,1-12.239,12.24c-1.921.01-3.842-.006-5.763,0a14.71,14.71,0,0,0-1.66.1,12.457,12.457,0,0,1-1.4.4q4.661.006,9.323.009a12.435,12.435,0,0,0,12.27-12.333q0-45.631,0-91.263c0-.59-.032-1.18-.049-1.77H349.6c0,.083,0,.165,0,.247" transform="translate(-198.672 -70.466)" fill="#cbeafe"/>
        <path id="Trazado_602504" data-name="Trazado 602504" d="M327.021,382.51h.57a12.425,12.425,0,0,0,1.4-.4,11.407,11.407,0,0,0-1.973.4" transform="translate(-197.8 -231.119)" fill="#cbeafe"/>
        <path id="Trazado_602505" data-name="Trazado 602505" d="M352.419,217.194a8.757,8.757,0,0,0,.309-7.594,1.231,1.231,0,0,0-.7-.7,9.3,9.3,0,0,1-.234,8.728.964.964,0,0,1,.105.027,1.038,1.038,0,0,0,.523-.457" transform="translate(-212.781 -126.351)" fill="#cbeafe"/>
        <path id="Trazado_602506" data-name="Trazado 602506" d="M351.716,230.983c-.017.032-.031.063-.048.095.052-.021.1-.044.154-.068a.964.964,0,0,0-.105-.027" transform="translate(-212.708 -139.711)" fill="#cbeafe"/>
        <path id="Trazado_602507" data-name="Trazado 602507" d="M33.175,274.8c5.959-.151,11.924-.04,17.886-.04q8.869,0,17.739,0a8.6,8.6,0,0,0,2.489-.222,8.5,8.5,0,0,0,6.078-8.746,8.358,8.358,0,0,0-8.243-7.593q-18.034-.082-36.069,0a8.3,8.3,0,0,0,.12,16.6m27.8-10.5q3.463-.086,6.928,0a2.081,2.081,0,0,1,2.212,2.229,2.183,2.183,0,0,1-2.218,2.261c-1.177.053-2.358.011-3.538.011-1.13,0-2.263.045-3.39-.012a2.188,2.188,0,0,1-2.214-2.263,2.088,2.088,0,0,1,2.221-2.225m-25.757,0q3.534-.087,7.072.008a2.056,2.056,0,0,1,2.1,2.188,2.163,2.163,0,0,1-2.044,2.274c-1.222.085-2.455.019-3.682.019v.01c-1.13,0-2.262.042-3.389-.011a2.187,2.187,0,0,1-2.242-2.234,2.082,2.082,0,0,1,2.188-2.253" transform="translate(-15.023 -156.147)" fill="#cfed7f"/>
        <path id="Trazado_602508" data-name="Trazado 602508" d="M273.17,142.668a8.907,8.907,0,0,0-7.113-2.987q-16.918.015-33.836.01c-3.254,0-6.02,1.043-7.724,4.013a7.635,7.635,0,0,0,6.575,11.538c12.116.054,24.232.006,36.348.027a7.393,7.393,0,0,0,5.187-2.132c.441-.4.785-1,1.468-1.023a2.1,2.1,0,0,1,.227-1.459,9.02,9.02,0,0,0,.1-6.019c-.137-.409-.327-.831-.019-1.253l-.041-.055c-.555.22-.875-.321-1.172-.659m-32.957,7.169c-.1.007-.2,0-.3,0h-3.25c-1.133,0-2.267.036-3.4-.011A2.266,2.266,0,0,1,231,147.58a2.226,2.226,0,0,1,2.268-2.231q3.47-.072,6.942,0a2.2,2.2,0,0,1,2.26,2.23,2.273,2.273,0,0,1-2.256,2.257m26.156-.017q-3.535.084-7.073,0a2.131,2.131,0,0,1-2.131-2.178,2.1,2.1,0,0,1,2.151-2.291c1.225-.062,2.455-.013,3.683-.012,1.13,0,2.263-.052,3.388.015a2.1,2.1,0,0,1,2.136,2.307,2.141,2.141,0,0,1-2.155,2.158" transform="translate(-135.144 -84.486)" fill="#cfed7f"/>
        <path id="Trazado_602509" data-name="Trazado 602509" d="M273.291,151.392c-.683.021-1.027.619-1.468,1.023a7.388,7.388,0,0,1-5.187,2.132c-12.116-.02-24.232.028-36.348-.027a7.635,7.635,0,0,1-6.575-11.538c1.7-2.97,4.469-4.008,7.724-4.012q16.918-.02,33.836-.009a8.908,8.908,0,0,1,7.113,2.986c.3.337.616.88,1.172.659a9,9,0,0,0-7.661-4.116q-17.589.01-35.179.009a8.522,8.522,0,0,0-5.924,2.27,8.267,8.267,0,0,0-2.1,9.067,7.984,7.984,0,0,0,7.65,5.237c11.726.019,23.453-.053,35.179.051a9.046,9.046,0,0,0,7.795-3.643c-.013-.03-.02-.058-.03-.087" transform="translate(-134.36 -83.766)" fill="#cfed7f"/>
        <path id="Trazado_602510" data-name="Trazado 602510" d="M351.815,150.3a9.018,9.018,0,0,1-.1,6.019,2.1,2.1,0,0,0-.226,1.459c.024,0,.049,0,.073,0a9.276,9.276,0,0,0,.234-8.734c-.308.422-.118.844.019,1.253" transform="translate(-212.558 -90.15)" fill="#cfed7f"/>
        <path id="Trazado_602511" data-name="Trazado 602511" d="M351.593,171.142c.011.029.017.058.031.087.015-.028.028-.057.043-.085-.025,0-.05,0-.074,0" transform="translate(-212.662 -103.516)" fill="#cfed7f"/>
        <path id="Trazado_602512" data-name="Trazado 602512" d="M340.45,44.009c.079,6.432.03,12.865.015,19.3a2.221,2.221,0,0,1-.4,1.676,1.168,1.168,0,0,1,.126.161,2.348,2.348,0,0,1,1.338-.322c3.05-.029,6.1-.034,9.149,0a2.575,2.575,0,0,1,.976.166c-.071-6.871-.014-13.743-.031-20.615-.019-7.355-5.182-12.519-12.564-12.553-1.919-.009-3.839,0-5.758,0a13.568,13.568,0,0,1-1.436-.067,13.022,13.022,0,0,1,4.38,2.661,13.447,13.447,0,0,1,4.2,9.595" transform="translate(-200.73 -19.207)" fill="#fd5994"/>
        <path id="Trazado_602513" data-name="Trazado 602513" d="M352.595,116.011a1.163,1.163,0,0,0-.126-.161c-.032.033-.059.068-.1.1a1.12,1.12,0,0,1,.043.2,1.54,1.54,0,0,1,.179-.139" transform="translate(-213.134 -70.072)" fill="#fd5994"/>
        <path id="Trazado_602514" data-name="Trazado 602514" d="M338,62.734c.014-6.433.064-12.866-.015-19.3a13.45,13.45,0,0,0-4.2-9.595,13.013,13.013,0,0,0-4.38-2.661,6.174,6.174,0,0,1-1.609-.375c.23.545.782.564,1.229.707A12.6,12.6,0,0,1,337.5,43.127c.111,7.065.017,14.133.009,21.2a1.086,1.086,0,0,1,.1.085,2.222,2.222,0,0,0,.4-1.677" transform="translate(-198.267 -18.633)" fill="#fd5994"/>
        <path id="Trazado_602515" data-name="Trazado 602515" d="M352.373,115.636c0,.061,0,.122,0,.184h0c.037-.032.064-.066.1-.1a1.2,1.2,0,0,0-.1-.085" transform="translate(-213.133 -69.943)" fill="#fd5994"/>
        <path id="Trazado_602516" data-name="Trazado 602516" d="M331.939,31.076c1.92,0,3.839-.006,5.758,0,7.382.034,12.545,5.2,12.563,12.553.017,6.872-.04,13.744.031,20.615a1.507,1.507,0,0,1,.408.249c.017-7.226.047-14.452.046-21.679A12.4,12.4,0,0,0,340.8,30.9c-3.706-.648-7.457-.271-11.191-.264.3.124.594.247.89.372a13.675,13.675,0,0,0,1.436.066" transform="translate(-199.367 -18.461)" fill="#fd5994"/>
        <path id="Trazado_602517" data-name="Trazado 602517" d="M327.794,30.806a6.174,6.174,0,0,0,1.609.375c-.3-.125-.594-.248-.89-.372q-.359,0-.718,0" transform="translate(-198.267 -18.633)" fill="#fd5994"/>
        <path id="Trazado_602518" data-name="Trazado 602518" d="M354.273,115.406a2.349,2.349,0,0,0-1.339.322,1.109,1.109,0,0,1,.083.125s0,.009,0,.014l11.378-.041c0-.084,0-.167,0-.251a2.577,2.577,0,0,0-.976-.166c-3.05-.037-6.1-.032-9.15,0" transform="translate(-213.474 -69.79)" fill="#fd5994"/>
        <path id="Trazado_602519" data-name="Trazado 602519" d="M352.745,116.382a1.285,1.285,0,0,0-.083-.125,1.55,1.55,0,0,0-.179.139h.266s0-.009,0-.014" transform="translate(-213.2 -70.318)" fill="#fd5994"/>
        <path id="Trazado_602520" data-name="Trazado 602520" d="M381.949,116.12l.407,0a1.519,1.519,0,0,0-.408-.249c0,.084,0,.167,0,.251" transform="translate(-231.022 -70.084)" fill="#fd5994"/>
        <path id="Trazado_602521" data-name="Trazado 602521" d="M244.735,338c2.361.073,4.727.068,7.088.006a2.245,2.245,0,1,0-.064-4.489c-1.13-.049-2.264-.01-3.4-.01v-.005h-3.249c-.1,0-.2,0-.3.008a2.246,2.246,0,0,0-.083,4.49" transform="translate(-146.723 -201.717)" fill="#6b46ce"/>
        <path id="Trazado_602522" data-name="Trazado 602522" d="M179.038,338.015c1.082.037,2.166.007,3.249.008h3.1c.1,0,.2,0,.3,0a2.365,2.365,0,0,0,2.383-2.319,2.225,2.225,0,0,0-2.309-2.191c-2.264-.048-4.53-.045-6.794,0a2.221,2.221,0,0,0-2.367,2.271,2.316,2.316,0,0,0,2.441,2.237" transform="translate(-106.815 -201.704)" fill="#6b46ce"/>
        <path id="Trazado_602523" data-name="Trazado 602523" d="M178.96,158.45c1.131.038,2.265.008,3.4.008s2.267.033,3.4-.009a2.274,2.274,0,0,0,2.313-2.207,2.214,2.214,0,0,0-2.225-2.269c-2.313-.055-4.629-.053-6.942-.007a2.2,2.2,0,0,0-2.3,2.192,2.246,2.246,0,0,0,2.36,2.293" transform="translate(-106.817 -93.105)" fill="#6b46ce"/>
        <path id="Trazado_602524" data-name="Trazado 602524" d="M244.969,278.151c1.131.041,2.264.008,3.4.008s2.266.039,3.4-.011a2.276,2.276,0,0,0,2.291-2.226,2.2,2.2,0,0,0-2.227-2.261c-2.312-.06-4.627-.056-6.94-.007a2.224,2.224,0,0,0-2.3,2.2,2.317,2.317,0,0,0,2.386,2.3" transform="translate(-146.727 -165.498)" fill="#6b46ce"/>
        <path id="Trazado_602525" data-name="Trazado 602525" d="M178.794,278.158q3.542.09,7.088,0a2.276,2.276,0,0,0,2.187-2.337,2.22,2.22,0,0,0-2.209-2.139c-1.179-.06-2.362-.013-3.544-.012s-2.366-.051-3.543.015a2.2,2.2,0,0,0-2.172,2.165,2.226,2.226,0,0,0,2.193,2.312" transform="translate(-106.817 -165.517)" fill="#6b46ce"/>
        <path id="Trazado_602526" data-name="Trazado 602526" d="M310.979,338.014c2.357.064,4.719.07,7.075-.01a2.155,2.155,0,0,0,2.1-2.366,2.1,2.1,0,0,0-2.187-2.11c-1.128-.055-2.26-.011-3.39-.013-1.179,0-2.361-.039-3.538.008a2.1,2.1,0,0,0-2.245,2.2,2.175,2.175,0,0,0,2.185,2.3" transform="translate(-186.775 -201.718)" fill="#6b46ce"/>
        <path id="Trazado_602527" data-name="Trazado 602527" d="M311.1,278.146c1.128.047,2.26.009,3.39.01,1.081,0,2.163.027,3.243-.005a2.226,2.226,0,0,0,2.42-2.212,2.124,2.124,0,0,0-2.31-2.291q-3.389-.075-6.78,0a2.093,2.093,0,0,0-2.271,2.172,2.2,2.2,0,0,0,2.308,2.325" transform="translate(-186.776 -165.494)" fill="#6b46ce"/>
        <path id="Trazado_602528" data-name="Trazado 602528" d="M54.578,333.508q-3.316-.062-6.633,0a2.129,2.129,0,0,0-2.386,2.212,2.2,2.2,0,0,0,2.34,2.295c1.079.046,2.161.009,3.242.01,1.13,0,2.261.032,3.39-.008a2.23,2.23,0,0,0,2.389-2.255,2.122,2.122,0,0,0-2.342-2.252" transform="translate(-27.557 -201.705)" fill="#6b46ce"/>
        <path id="Trazado_602529" data-name="Trazado 602529" d="M119.917,333.535c-1.176-.064-2.357-.013-3.537-.015s-2.361-.045-3.537.01a2.092,2.092,0,0,0-2.184,2.112,2.151,2.151,0,0,0,2.1,2.364c2.4.077,4.816.078,7.221-.006a2.145,2.145,0,0,0,2.04-2.279,2.079,2.079,0,0,0-2.1-2.186" transform="translate(-66.931 -201.72)" fill="#6b46ce"/>
        <path id="Trazado_602530" data-name="Trazado 602530" d="M112.883,158.453c2.308.051,4.618.048,6.926,0a2.153,2.153,0,0,0,2.216-2.249,2.108,2.108,0,0,0-2.219-2.23c-1.127-.053-2.259-.011-3.389-.011v-.008h-3.243c-.1,0-.2,0-.294.009a2.243,2.243,0,0,0,0,4.486" transform="translate(-66.935 -93.117)" fill="#6b46ce"/>
        <path id="Trazado_602531" data-name="Trazado 602531" d="M47.979,158.448c1.08.029,2.161.006,3.242.005,1.13,0,2.261.029,3.39-.008a2.178,2.178,0,0,0,2.309-2.308,2.1,2.1,0,0,0-2.27-2.177q-3.388-.073-6.779,0a2.123,2.123,0,0,0-2.311,2.288,2.2,2.2,0,0,0,2.419,2.2" transform="translate(-27.557 -93.101)" fill="#6b46ce"/>
        <path id="Trazado_602532" data-name="Trazado 602532" d="M185.78,213.828q-3.47-.066-6.942,0a2.2,2.2,0,0,0-2.239,2.246,2.255,2.255,0,0,0,2.277,2.233c1.13.049,2.265.01,3.4.011h3.25c.1,0,.2,0,.3,0a2.314,2.314,0,0,0,2.251-2.284,2.216,2.216,0,0,0-2.289-2.207" transform="translate(-106.816 -129.314)" fill="#6b46ce"/>
        <path id="Trazado_602533" data-name="Trazado 602533" d="M251.811,213.84c-1.13-.051-2.264-.011-3.4-.012-1.181,0-2.365-.037-3.544.008a2.24,2.24,0,1,0-.037,4.48q3.469.079,6.942,0a2.242,2.242,0,0,0,2.277-2.231,2.213,2.213,0,0,0-2.24-2.248" transform="translate(-146.727 -129.326)" fill="#6b46ce"/>
        <path id="Trazado_602534" data-name="Trazado 602534" d="M317.96,213.831c-2.308-.054-4.619-.051-6.928,0a2.069,2.069,0,0,0-2.231,2.2,2.174,2.174,0,0,0,2.193,2.279c1.127.053,2.26.011,3.39.011,1.18,0,2.361.042,3.537-.011a2.177,2.177,0,0,0,2.239-2.236,2.084,2.084,0,0,0-2.2-2.24" transform="translate(-186.779 -129.312)" fill="#6b46ce"/>
        <path id="Trazado_602535" data-name="Trazado 602535" d="M119.732,213.824c-2.259-.041-4.52-.045-6.779,0a2.109,2.109,0,0,0-2.291,2.3,2.193,2.193,0,0,0,2.29,2.184c1.128.045,2.259.009,3.389.011h3.1c.1,0,.2,0,.3,0a2.209,2.209,0,0,0,2.288-2.342,2.1,2.1,0,0,0-2.288-2.154" transform="translate(-66.934 -129.313)" fill="#6b46ce"/>
        <path id="Trazado_602536" data-name="Trazado 602536" d="M54.757,213.839c-1.127-.053-2.259-.011-3.389-.011-1.179,0-2.359-.037-3.537.009a2.11,2.11,0,0,0-2.269,2.176,2.148,2.148,0,0,0,2.163,2.3q3.535.091,7.073,0a2.151,2.151,0,0,0,2.12-2.342,2.09,2.09,0,0,0-2.161-2.13" transform="translate(-27.558 -129.325)" fill="#6b46ce"/>
        <path id="Trazado_602537" data-name="Trazado 602537" d="M112.876,278.145c1.127.057,2.26.012,3.39.012,1.18,0,2.361.042,3.538-.011a2.183,2.183,0,0,0,2.218-2.262,2.08,2.08,0,0,0-2.212-2.228q-3.462-.083-6.928,0a2.088,2.088,0,0,0-2.221,2.225,2.188,2.188,0,0,0,2.214,2.263" transform="translate(-66.934 -165.497)" fill="#6b46ce"/>
        <path id="Trazado_602538" data-name="Trazado 602538" d="M47.8,278.149c1.127.053,2.259.011,3.389.011v-.01c1.227,0,2.46.067,3.682-.019a2.162,2.162,0,0,0,2.044-2.274,2.056,2.056,0,0,0-2.1-2.188q-3.533-.1-7.072-.007a2.082,2.082,0,0,0-2.188,2.253,2.188,2.188,0,0,0,2.243,2.234" transform="translate(-27.557 -165.5)" fill="#6b46ce"/>
        <path id="Trazado_602539" data-name="Trazado 602539" d="M251.791,153.97q-3.47-.076-6.942,0a2.225,2.225,0,0,0-2.268,2.231,2.266,2.266,0,0,0,2.271,2.248c1.131.047,2.265.01,3.4.011h3.25c.1,0,.2,0,.3,0a2.272,2.272,0,0,0,2.256-2.256,2.2,2.2,0,0,0-2.26-2.23" transform="translate(-146.726 -93.106)" fill="#6b46ce"/>
        <path id="Trazado_602540" data-name="Trazado 602540" d="M318.021,153.986c-1.126-.067-2.259-.013-3.388-.015-1.228,0-2.459-.05-3.683.012a2.1,2.1,0,0,0-2.151,2.291,2.131,2.131,0,0,0,2.131,2.178q3.535.079,7.073,0a2.142,2.142,0,0,0,2.155-2.158,2.105,2.105,0,0,0-2.136-2.307" transform="translate(-186.777 -93.118)" fill="#6b46ce"/>
      </g>
    </g>
  </g>
</svg>
