<svg xmlns="http://www.w3.org/2000/svg" xmlns:xlink="http://www.w3.org/1999/xlink" width="85" height="85" viewBox="0 0 85 85">
  <defs>
    <clipPath id="clip-path">
      <rect id="Rectángulo_300832" data-name="Rectángulo 300832" width="50.334" height="50.341" fill="none"/>
    </clipPath>
  </defs>
  <g id="Grupo_886183" data-name="Grupo 886183" transform="translate(-497.5 -23712)">
    <g id="Elipse_6616" data-name="Elipse 6616" transform="translate(497.5 23712)" fill="#fff" stroke="#72e0fa" stroke-width="1">
      <circle cx="42.5" cy="42.5" r="42.5" stroke="none"/>
      <circle cx="42.5" cy="42.5" r="42" fill="none"/>
    </g>
    <g id="Grupo_886159" data-name="Grupo 886159" transform="translate(514.833 23730)">
      <g id="Grupo_886158" data-name="Grupo 886158" clip-path="url(#clip-path)">
        <path id="Trazado_602211" data-name="Trazado 602211" d="M235.652,210.662a11.268,11.268,0,0,0-6.176-.2h0a11.08,11.08,0,0,1-2.459,4.706,11.312,11.312,0,0,1-4.427,3.157h0a23.447,23.447,0,0,0-.02,2.631,12.187,12.187,0,0,0,1.2,4.106,10.443,10.443,0,0,0,2.277,3.042,11.441,11.441,0,0,0,14.177,1.209c.1-.066.191-.278.361-.085a10.867,10.867,0,0,0,2.241-3.533,9.92,9.92,0,0,0,.717-2.935.8.8,0,0,1,.087-.219v-2.064c-.19-.686-.223-1.4-.435-2.088a11.188,11.188,0,0,0-7.542-7.729m-1.04,8.534a5.819,5.819,0,0,1-.933,0c-.435-.044-.586.086-.581.556.027,2.162.012,4.324.012,6.486,0,.115,0,.23,0,.344a.818.818,0,0,1-.8.877.857.857,0,0,1-.855-.888c-.013-1.163,0-2.326,0-3.489,0-1.147-.012-2.293.006-3.44.005-.34-.093-.474-.442-.446a7.907,7.907,0,0,1-.982,0,.861.861,0,0,1-.835-.751.783.783,0,0,1,.673-.838,2.01,2.01,0,0,1,.386-.061c1.343,0,2.686-.012,4.03,0,.694.007,1.075.308,1.086.8a.77.77,0,0,1-.761.844" transform="translate(-193.296 -182.524)" fill="#aeeea4"/>
        <path id="Trazado_602212" data-name="Trazado 602212" d="M243.3,10.91a11.025,11.025,0,0,0-3.16-6.46,10.868,10.868,0,0,0-6.728-3.236,11.115,11.115,0,0,0-8.8,2.822c-.045.042-.087.085-.132.128a10.039,10.039,0,0,1-.682,1.15,12.468,12.468,0,0,0-1.327,4.361,11.109,11.109,0,0,0,.4,4.242,13.351,13.351,0,0,0,.645,1.74c.05.117.221.235.047.385a11.666,11.666,0,0,1,4,3.472c.329.465.612.962.916,1.444h0c.149-.176.267-.006.384.044a12.733,12.733,0,0,0,3.981,1.051,11.388,11.388,0,0,0,7.264-1.866c.112-.072.2-.231.373-.106a11.176,11.176,0,0,0,2.746-5.138,7.861,7.861,0,0,1,.294-1.362V11.323c-.27-.03-.2-.256-.225-.413m-5.851-2.428q-.756,3.849-1.519,7.7c-.149.749-.53,1.1-1.127,1.041a1.054,1.054,0,0,1-.924-.884c-.509-1.673-1.03-3.343-1.547-5.013-.023-.075-.051-.149-.129-.376-.593,1.917-1.137,3.695-1.694,5.469a1.006,1.006,0,0,1-1.08.809q-.719-.038-.917-.93c-.007-.032-.013-.064-.02-.1q-.758-3.849-1.516-7.7c-.118-.6.092-1.019.567-1.119.542-.114.909.185,1.036.836.341,1.743.684,3.485,1.041,5.306a1.755,1.755,0,0,0,.321-.758c.478-1.529.943-3.061,1.412-4.593.132-.429.317-.8.852-.8s.724.35.857.787c.544,1.781,1.1,3.56,1.725,5.351.122-.577.248-1.154.363-1.732.24-1.2.472-2.406.711-3.609.117-.59.475-.869.988-.781.477.082.714.506.6,1.095" transform="translate(-193.189 -0.991)" fill="#e05f78"/>
        <path id="Trazado_602213" data-name="Trazado 602213" d="M254.058,3.62a11.109,11.109,0,0,0-10.431-3.3,10.677,10.677,0,0,0-5.394,2.721h0a1.458,1.458,0,0,1-.063.219c.044-.042.087-.086.132-.128A11.115,11.115,0,0,1,247.1.316a10.867,10.867,0,0,1,6.728,3.236,11.025,11.025,0,0,1,3.16,6.46c.021.157-.045.383.225.413-.093-.089-.078-.21-.091-.321a10.847,10.847,0,0,0-3.066-6.483" transform="translate(-206.882 -0.092)" fill="#e05f78"/>
        <path id="Trazado_602214" data-name="Trazado 602214" d="M13.744,253.763a10.766,10.766,0,0,0,5.282-2.15,12.99,12.99,0,0,0,1.471-1.291,10.092,10.092,0,0,0-1.2.692,11.109,11.109,0,0,1-6.586,1.278,10.972,10.972,0,0,1-6.146-2.651,11.206,11.206,0,0,1-3.263-4.629,10.823,10.823,0,0,1-.7-3.577,11.423,11.423,0,0,1,1.406-5.975,9.821,9.821,0,0,0,.6-1.017,11.066,11.066,0,0,0-3.449,6.941,10.909,10.909,0,0,0,2.308,8.142,11,11,0,0,0,7.438,4.238c.144.02.353-.032.364.221h2.064c.029-.27.253-.2.409-.222" transform="translate(-0.946 -203.644)" fill="#c2aeef"/>
        <path id="Trazado_602215" data-name="Trazado 602215" d="M9.96,252.288a11,11,0,0,1-7.438-4.238,10.909,10.909,0,0,1-2.308-8.142,11.065,11.065,0,0,1,3.449-6.941,1.575,1.575,0,0,0,.073-.223h0a7.806,7.806,0,0,0-1.217,1.271,11.187,11.187,0,0,0-2.387,8.869,10.922,10.922,0,0,0,2.332,5.323,11.382,11.382,0,0,0,5.629,3.821c.732.229,1.494.29,2.23.481-.011-.253-.219-.2-.363-.221" transform="translate(0 -202.168)" fill="#c2aeef"/>
        <path id="Trazado_602216" data-name="Trazado 602216" d="M101.68,354.768a1.936,1.936,0,0,0-.218.072,12.978,12.978,0,0,1-1.471,1.291,10.766,10.766,0,0,1-5.282,2.15c-.156.02-.38-.048-.409.222a3.444,3.444,0,0,1,1.044-.187,11.252,11.252,0,0,0,6.336-3.548" transform="translate(-81.912 -308.162)" fill="#c2aeef"/>
        <path id="Trazado_602217" data-name="Trazado 602217" d="M223.646,287.169c.677-.145,1.367-.223,2.031-.435a11.285,11.285,0,0,0,4.913-3.054,1.281,1.281,0,0,0-.333.178A11.5,11.5,0,0,1,217,283.369a11.31,11.31,0,0,1-4.473-8.1,10.259,10.259,0,0,1,.068-2.537c0-.01.009-.018.013-.027a7.02,7.02,0,0,1-1.288.363h0l0,.016c.167.192.035.418,0,.62a11.279,11.279,0,0,0,9.552,13.284c.174.026.411-.048.462.232H223.4a.2.2,0,0,1,.132-.05c.039,0,.077,0,.116-.006" transform="translate(-183.386 -236.884)" fill="#8be0a3"/>
        <path id="Trazado_602218" data-name="Trazado 602218" d="M239.668,283.444c-.17-.193-.263.019-.361.085a11.441,11.441,0,0,1-14.177-1.208,10.439,10.439,0,0,1-2.277-3.042,12.186,12.186,0,0,1-1.2-4.106,23.444,23.444,0,0,1,.02-2.631h0l-.069.022c0,.009-.009.017-.013.027a10.253,10.253,0,0,0-.068,2.537,11.31,11.31,0,0,0,4.473,8.1,11.5,11.5,0,0,0,13.254.488,1.283,1.283,0,0,1,.333-.178C239.611,283.5,239.64,283.474,239.668,283.444Z" transform="translate(-192.378 -236.738)" fill="#8be0a3"/>
        <path id="Trazado_602219" data-name="Trazado 602219" d="M219.993,289.5a11.279,11.279,0,0,1-9.552-13.284c.035-.2.168-.428,0-.62a11.056,11.056,0,0,0-.22,4.217,11.2,11.2,0,0,0,7.669,9.341,19.439,19.439,0,0,0,2.564.578c-.051-.28-.288-.206-.462-.232" transform="translate(-182.508 -239.388)" fill="#8be0a3"/>
        <path id="Trazado_602220" data-name="Trazado 602220" d="M14.372,4.353a10.607,10.607,0,0,0-1.852,5A11.376,11.376,0,0,0,18.8,20.895a11.849,11.849,0,0,0,4.029,1.115c.858.094,1.69-.045,2.533-.021a11.182,11.182,0,0,1,3.157-4.428h0a11.042,11.042,0,0,1,4.295-2.353.932.932,0,0,0,.415-.185c-.127-.136-.065-.311-.033-.475A10.928,10.928,0,0,0,32.06,6.978a10.912,10.912,0,0,0-8.509-5.8,10.957,10.957,0,0,0-7.08,1.468,13.887,13.887,0,0,0-1.937,1.423l-.009.009c.055.119-.1.2-.152.276m4.766,10.085a.758.758,0,0,1,.976.2,3.187,3.187,0,0,0,1.855.915,1.923,1.923,0,0,0,1.719-.5.977.977,0,0,0-.078-1.54,4.131,4.131,0,0,0-1.136-.567c-.59-.24-1.183-.472-1.774-.71a2.249,2.249,0,0,1-1.527-1.929A2.453,2.453,0,0,1,20.4,7.812a4.158,4.158,0,0,1,4.7.561.825.825,0,0,1,.143,1.064.788.788,0,0,1-1.087.2A4.272,4.272,0,0,0,22.6,8.957a1.693,1.693,0,0,0-1.552.4.789.789,0,0,0,.272,1.372c.887.377,1.789.72,2.663,1.124a2.76,2.76,0,0,1,1.582,1.776,2.872,2.872,0,0,1-2.172,3.429,2.982,2.982,0,0,1-.991.122,4.731,4.731,0,0,1-3.22-1.17,1.183,1.183,0,0,1-.488-.713.807.807,0,0,1,.446-.857" transform="translate(-10.819 -0.938)" fill="#7cc2ed"/>
        <path id="Trazado_602221" data-name="Trazado 602221" d="M27.741,3.138l.009-.009a13.9,13.9,0,0,1,1.937-1.423A11.248,11.248,0,0,1,45.277,6.04a10.927,10.927,0,0,1,1.132,7.569c-.032.164-.094.339.033.475l.019-.018a11.873,11.873,0,0,0,.087-4.9A10.955,10.955,0,0,0,42.7,2.675,11.113,11.113,0,0,0,32.081.51a10.685,10.685,0,0,0-4.409,2.544h0a.258.258,0,0,1,.069.085" transform="translate(-24.037 0)" fill="#7cc2ed"/>
        <path id="Trazado_602222" data-name="Trazado 602222" d="M137.267,112.312c-.217-.055-.287-.249-.382-.416a11.016,11.016,0,0,0-4.207-4.212c-.168-.095-.365-.161-.422-.382l0-.011c-.771-.382-1.609-.6-2.393-.948a.57.57,0,0,1-.046.065.989.989,0,0,1-.626.018,11.077,11.077,0,0,0-4.137,0,1.064,1.064,0,0,1-.627-.008.379.379,0,0,1-.053-.044c-.018.218-.215.236-.368.281a11.778,11.778,0,0,0-4.281,2.307c-.055.048-.105.1-.159.147a10.325,10.325,0,0,1-.612.961,11.358,11.358,0,0,0,16.132,15.187,3.644,3.644,0,0,1,.395-.271c.043-.047.087-.091.13-.138a11.782,11.782,0,0,0,2.3-4.277.933.933,0,0,1,.2-.406.9.9,0,0,1,.016-.517,11.578,11.578,0,0,0,.022-4.263,1.031,1.031,0,0,1,.012-.624.616.616,0,0,1,.07-.047h0l-.957-2.4m-4.693,10.561a.807.807,0,0,1-1.249-.07c-.977-.965-1.947-1.937-2.92-2.906-.21-.112-.336.071-.482.149a4.761,4.761,0,0,1-5.188-.222,4.853,4.853,0,0,1-1.992-5.115,4.958,4.958,0,0,1,3.827-3.654,4.859,4.859,0,0,1,5.781,5.111,4.65,4.65,0,0,1-.663,2.132c-.078.129-.232.252-.123.44.969.973,1.941,1.943,2.906,2.92a.81.81,0,0,1,.1,1.215" transform="translate(-101.948 -92.275)" fill="#ecf3fe"/>
        <path id="Trazado_602223" data-name="Trazado 602223" d="M170.674,105.369a.384.384,0,0,0,.053.044,1.064,1.064,0,0,0,.627.008,11.078,11.078,0,0,1,4.138,0,.989.989,0,0,0,.626-.017.579.579,0,0,0,.046-.065h0c-.21-.007-.417-.032-.626-.055a12.365,12.365,0,0,0-2.79-.175,15.413,15.413,0,0,1-2.068.229c0,.012,0,.021,0,.032" transform="translate(-148.253 -91.271)" fill="#ecf3fe"/>
        <path id="Trazado_602224" data-name="Trazado 602224" d="M257.648,212.684a11.782,11.782,0,0,1-2.3,4.277c-.042.047-.087.092-.13.138a.622.622,0,0,1,.194-.062,11.081,11.081,0,0,0,2.459-4.706.424.424,0,0,1-.025-.054.931.931,0,0,0-.2.406" transform="translate(-221.688 -184.391)" fill="#ecf3fe"/>
        <path id="Trazado_602225" data-name="Trazado 602225" d="M230.682,114.319c.056.221.254.287.422.382a11.016,11.016,0,0,1,4.207,4.212c.1.167.165.361.382.416l-.027-.069c-.3-.482-.587-.979-.916-1.445a11.664,11.664,0,0,0-4-3.472l-.073-.035,0,.011" transform="translate(-200.374 -99.291)" fill="#ecf3fe"/>
        <path id="Trazado_602226" data-name="Trazado 602226" d="M275.032,171.459a11.576,11.576,0,0,1-.022,4.263.9.9,0,0,0-.016.517l.023-.024.02-.009a11.24,11.24,0,0,0,.3-3.236c-.046-.733-.219-1.448-.226-2.181a.6.6,0,0,0-.07.047,1.03,1.03,0,0,0-.012.624" transform="translate(-238.838 -148.352)" fill="#ecf3fe"/>
        <path id="Trazado_602227" data-name="Trazado 602227" d="M275.219,212.058a.43.43,0,0,0,.025.054h0c.007-.029.012-.058.019-.087l-.021.009c-.009.008-.016.016-.023.024" transform="translate(-239.063 -184.171)" fill="#ecf3fe"/>
        <path id="Trazado_602228" data-name="Trazado 602228" d="M134.161,109.749h0a1.7,1.7,0,0,1-.083.21c.053-.049.1-.1.159-.147a11.775,11.775,0,0,1,4.281-2.307c.153-.045.349-.063.368-.281l-.016-.014a.933.933,0,0,1-.415.185,11.042,11.042,0,0,0-4.295,2.353" transform="translate(-116.464 -93.127)" fill="#ecf3fe"/>
        <path id="Trazado_602229" data-name="Trazado 602229" d="M170.555,107.091l.016.014c0-.011,0-.02,0-.032l-.019.018" transform="translate(-148.149 -93.007)" fill="#ecf3fe"/>
        <path id="Trazado_602230" data-name="Trazado 602230" d="M25.092,211.377a11.248,11.248,0,0,0-4.241.063,11.378,11.378,0,0,0-5.234,2.653l-.051.05c.057.222-.119.386-.223.555a11.2,11.2,0,0,0-1.674,4.527,11.061,11.061,0,0,0,2.412,8.688,10.852,10.852,0,0,0,7.393,4.044,11,11,0,0,0,7.165-1.56c.244-.149.464-.432.8-.367.021-.023.044-.044.065-.067a11.242,11.242,0,0,0,2.861-7.216,12.566,12.566,0,0,0-.2-2.531c-.033-.189-.118-.394.029-.573a9.453,9.453,0,0,1-4.067-1.906,11.159,11.159,0,0,1-4-5.6c-.078-.246-.121-.5-.181-.756h0c-.277.2-.572.039-.846-.009m3.131,11.094a5.073,5.073,0,0,1-10.147-.05,5.073,5.073,0,0,1,10.147.05" transform="translate(-11.784 -183.46)" fill="#d5bcee"/>
        <path id="Trazado_602231" data-name="Trazado 602231" d="M28.541,213.212a11.376,11.376,0,0,1,5.234-2.653,11.248,11.248,0,0,1,4.241-.063c.274.048.569.209.846.009-.592-.1-1.181-.242-1.777-.282a11.314,11.314,0,0,0-6.467,1.367,9.19,9.19,0,0,0-2.172,1.564.432.432,0,0,1,.044.108l.051-.05" transform="translate(-24.709 -182.578)" fill="#d5bcee"/>
        <path id="Trazado_602232" data-name="Trazado 602232" d="M152.323,276.015a12.566,12.566,0,0,1,.2,2.531,11.241,11.241,0,0,1-2.861,7.216c-.021.023-.044.044-.065.067a.607.607,0,0,1,.115.034c.266-.13.384-.4.548-.615a11.366,11.366,0,0,0,2.4-6.945,17.341,17.341,0,0,0-.3-2.86l-.009,0c-.147.179-.062.384-.029.573" transform="translate(-129.944 -239.257)" fill="#d5bcee"/>
        <path id="Trazado_602233" data-name="Trazado 602233" d="M29.779,249.822a11.005,11.005,0,0,1-7.165,1.56,10.854,10.854,0,0,1-7.393-4.044,11.062,11.062,0,0,1-2.412-8.688,11.2,11.2,0,0,1,1.674-4.527c.1-.17.28-.333.223-.555-.04.038-.079.077-.118.115a9.8,9.8,0,0,1-.6,1.017,11.423,11.423,0,0,0-1.406,5.975,10.821,10.821,0,0,0,.7,3.577,11.206,11.206,0,0,0,3.263,4.629,10.974,10.974,0,0,0,6.146,2.651,11.11,11.11,0,0,0,6.586-1.278,10.09,10.09,0,0,1,1.2-.692c.034-.035.069-.07.1-.106-.335-.065-.556.217-.8.367" transform="translate(-10.925 -202.883)" fill="#d5bcee"/>
        <path id="Trazado_602234" data-name="Trazado 602234" d="M27.96,232.744h0a1.592,1.592,0,0,1-.074.223c.039-.038.078-.077.118-.115a.437.437,0,0,0-.044-.108" transform="translate(-24.223 -202.168)" fill="#d5bcee"/>
        <path id="Trazado_602235" data-name="Trazado 602235" d="M148.819,354.616a2,2,0,0,1,.218-.072.607.607,0,0,0-.115-.034c-.033.036-.068.07-.1.106" transform="translate(-129.269 -307.938)" fill="#d5bcee"/>
        <path id="Trazado_602236" data-name="Trazado 602236" d="M121.307,148.808a.651.651,0,0,1,.343-.249,11.641,11.641,0,0,0,3.654-2.53,11.443,11.443,0,0,1-15.9-15.932,11.644,11.644,0,0,0-2.521,3.617.71.71,0,0,1-.3.409,7.232,7.232,0,0,0-.366,1.285l0,.013a.483.483,0,0,1,.045.043,11.9,11.9,0,0,1-.214,1.744,11.559,11.559,0,0,0,.176,3.212,1.192,1.192,0,0,1,.036.483c-.012.01-.024.019-.036.027v0a.955.955,0,0,1,.236.527,11.187,11.187,0,0,0,4.708,6.2,9.836,9.836,0,0,0,2.979,1.354.548.548,0,0,1,.332.177c.007-.008.012-.017.02-.025a9.152,9.152,0,0,1,1.84.218,11.17,11.17,0,0,0,2.875-.151,2.229,2.229,0,0,1,.726-.077.467.467,0,0,1,.051.047l.014,0h0a2.2,2.2,0,0,1,1.3-.386" transform="translate(-92.071 -113.006)" fill="#dae9fe"/>
        <path id="Trazado_602237" data-name="Trazado 602237" d="M105.249,175.627a11.559,11.559,0,0,1-.176-3.212,11.9,11.9,0,0,0,.214-1.744.465.465,0,0,0-.045-.043,10.865,10.865,0,0,0-.314,1.952,9.38,9.38,0,0,0,.321,3.557c.012-.009.024-.017.036-.027a1.193,1.193,0,0,0-.036-.483" transform="translate(-91.093 -148.213)" fill="#dae9fe"/>
        <path id="Trazado_602238" data-name="Trazado 602238" d="M222.895,251.418a.651.651,0,0,0-.343.249l.058,0h0a11.309,11.309,0,0,0,4.427-3.157c-.159.131-.323.255-.488.376a11.642,11.642,0,0,1-3.654,2.53" transform="translate(-193.315 -215.865)" fill="#dae9fe"/>
        <path id="Trazado_602239" data-name="Trazado 602239" d="M176.056,275.059a2.229,2.229,0,0,0-.726.077,11.177,11.177,0,0,1-2.875.151,9.128,9.128,0,0,0-1.84-.218c-.008.008-.013.017-.02.025l.005.006a10.3,10.3,0,0,0,5.507.006.452.452,0,0,0-.051-.047" transform="translate(-148.184 -238.913)" fill="#dae9fe"/>
        <path id="Trazado_602240" data-name="Trazado 602240" d="M212.662,272.9a7.021,7.021,0,0,0,1.288-.363c0-.008.007-.016.011-.024a2.2,2.2,0,0,0-1.3.386" transform="translate(-184.725 -236.715)" fill="#dae9fe"/>
        <path id="Trazado_602241" data-name="Trazado 602241" d="M222.475,272.53c0,.007-.008.016-.011.024l.069-.022-.058,0" transform="translate(-193.239 -236.728)" fill="#dae9fe"/>
        <path id="Trazado_602242" data-name="Trazado 602242" d="M110.536,130.962c-.007.022-.014.044-.021.066a.711.711,0,0,0,.3-.409A11.642,11.642,0,0,1,113.331,127c.116-.159.236-.316.362-.468a11.181,11.181,0,0,0-3.157,4.428" transform="translate(-95.997 -109.911)" fill="#dae9fe"/>
        <path id="Trazado_602243" data-name="Trazado 602243" d="M134.242,144.279a11.355,11.355,0,0,1-16.132-15.187,10.3,10.3,0,0,0,.613-.961c-.094.086-.189.17-.279.258a11.443,11.443,0,0,0,15.9,15.932c.1-.1.2-.208.295-.314a3.7,3.7,0,0,0-.395.271" transform="translate(-101.109 -111.299)" fill="#dae9fe"/>
        <path id="Trazado_602244" data-name="Trazado 602244" d="M253.269,248.574c-.1.106-.194.212-.295.314.166-.12.329-.244.488-.375h0a.622.622,0,0,0-.194.062" transform="translate(-219.741 -215.865)" fill="#dae9fe"/>
        <path id="Trazado_602245" data-name="Trazado 602245" d="M132.313,126.534h0c-.126.153-.246.309-.362.468.091-.088.185-.173.279-.258a1.7,1.7,0,0,0,.082-.21" transform="translate(-114.617 -109.911)" fill="#dae9fe"/>
        <path id="Trazado_602246" data-name="Trazado 602246" d="M107.941,213.338a11.159,11.159,0,0,0,4,5.6,9.454,9.454,0,0,0,4.068,1.907l0,0a.548.548,0,0,0-.332-.177A9.835,9.835,0,0,1,112.7,219.3a11.187,11.187,0,0,1-4.708-6.2.955.955,0,0,0-.236-.527c.059.252.1.51.181.756" transform="translate(-93.604 -184.655)" fill="#dae9fe"/>
        <path id="Trazado_602247" data-name="Trazado 602247" d="M170.568,275.412l.009,0-.005-.006,0,0" transform="translate(-148.16 -239.228)" fill="#dae9fe"/>
        <path id="Trazado_602248" data-name="Trazado 602248" d="M15.044,44.827a1.393,1.393,0,0,1,.323-1.273,11.032,11.032,0,0,1-6.946-1.278,10.829,10.829,0,0,1-5.24-5.951A11.106,11.106,0,0,1,4.344,25.816,11.251,11.251,0,0,0,14.4,44.838c.206-.037.431-.165.632-.007l.016,0h0" transform="translate(-0.892 -22.425)" fill="#64abdb"/>
        <path id="Trazado_602249" data-name="Trazado 602249" d="M13.624,42.61a11.353,11.353,0,0,1-5.064-.194A11.254,11.254,0,0,1,3.572,23.588c.036-.053.07-.106.107-.159a.416.416,0,0,0,.076-.178A11.082,11.082,0,0,0,.2,32.764a10.879,10.879,0,0,0,4.611,7.99A11.175,11.175,0,0,0,14.256,42.6c-.2-.157-.427-.03-.632.007" transform="translate(-0.12 -20.197)" fill="#64abdb"/>
        <path id="Trazado_602250" data-name="Trazado 602250" d="M21.809,41.828a11.853,11.853,0,0,1-4.029-1.115A11.376,11.376,0,0,1,11.5,29.169a10.608,10.608,0,0,1,1.852-5c.054-.079.206-.157.152-.276-.086.083-.169.168-.252.252a11.107,11.107,0,0,0-1.163,10.509,10.829,10.829,0,0,0,5.24,5.951,11.032,11.032,0,0,0,6.946,1.278c.021-.026.041-.053.063-.078-.844-.024-1.675.115-2.533.021" transform="translate(-9.803 -20.756)" fill="#64abdb"/>
        <path id="Trazado_602251" data-name="Trazado 602251" d="M26.278,23.587c.083-.085.166-.169.252-.252a.259.259,0,0,0-.069-.085.415.415,0,0,1-.076.178c-.037.053-.071.106-.107.159" transform="translate(-22.826 -20.196)" fill="#64abdb"/>
        <path id="Trazado_602252" data-name="Trazado 602252" d="M107.766,160.757a1.393,1.393,0,0,0-.323,1.273h0a7.206,7.206,0,0,1,.366-1.285l-.018.009-.025,0" transform="translate(-93.29 -139.627)" fill="#64abdb"/>
        <path id="Trazado_602253" data-name="Trazado 602253" d="M110.191,160.322l.025,0,.018-.009.021-.066c-.023.026-.042.052-.063.078" transform="translate(-95.715 -139.193)" fill="#64abdb"/>
        <path id="Trazado_602254" data-name="Trazado 602254" d="M212.735,35.722a11.484,11.484,0,0,1,1.471-8.579c.024-.039.05-.077.077-.114a11.192,11.192,0,0,0-3.128,6.853,10.475,10.475,0,0,0,.122,2.888c.046.251.164.524.008.776a5.4,5.4,0,0,1,2.382.921,22.619,22.619,0,0,1-.932-2.745" transform="translate(-183.373 -23.479)" fill="#da4655"/>
        <path id="Trazado_602255" data-name="Trazado 602255" d="M210.473,32.822a10.475,10.475,0,0,1-.122-2.888,11.191,11.191,0,0,1,3.128-6.853,3.885,3.885,0,0,0,.442-.6,7.75,7.75,0,0,0-1.212,1.27,11.389,11.389,0,0,0-2.231,9.844h0c.156-.253.037-.525-.008-.776" transform="translate(-182.57 -19.53)" fill="#da4655"/>
        <path id="Trazado_602256" data-name="Trazado 602256" d="M223.236,24.53c-.027.037-.053.074-.076.114a11.483,11.483,0,0,0-1.471,8.579,22.617,22.617,0,0,0,.932,2.745l.083.063c.174-.15,0-.268-.047-.385a13.353,13.353,0,0,1-.645-1.74,11.11,11.11,0,0,1-.4-4.242,12.473,12.473,0,0,1,1.326-4.361,10.01,10.01,0,0,0,.682-1.15q-.195.186-.379.378" transform="translate(-192.327 -20.979)" fill="#da4655"/>
        <path id="Trazado_602257" data-name="Trazado 602257" d="M235.664,22.7a1.473,1.473,0,0,0,.063-.219,3.878,3.878,0,0,1-.442.6q.184-.192.379-.378" transform="translate(-204.376 -19.53)" fill="#da4655"/>
        <path id="Trazado_602258" data-name="Trazado 602258" d="M214.846,108.008a5.394,5.394,0,0,0-2.382-.921h0c.784.35,1.621.566,2.393.948l-.01-.028" transform="translate(-184.552 -93.02)" fill="#da4655"/>
        <path id="Trazado_602259" data-name="Trazado 602259" d="M212.444,107.084h0" transform="translate(-184.532 -93.016)" fill="#da4655"/>
        <path id="Trazado_602260" data-name="Trazado 602260" d="M230.61,114.123l.073.035-.083-.063.01.028" transform="translate(-200.306 -99.106)" fill="#da4655"/>
        <path id="Trazado_602261" data-name="Trazado 602261" d="M278.381,266.559c-1.343-.013-2.686-.005-4.03,0a2.009,2.009,0,0,0-.386.061.783.783,0,0,0-.673.838.861.861,0,0,0,.835.751,7.9,7.9,0,0,0,.982,0c.349-.028.447.106.442.446-.018,1.146-.007,2.293-.006,3.44,0,1.163-.008,2.326,0,3.489a.857.857,0,0,0,.855.888.818.818,0,0,0,.8-.877c.006-.114,0-.229,0-.344,0-2.162.015-4.324-.012-6.486-.006-.47.145-.6.581-.556a5.817,5.817,0,0,0,.933,0,.771.771,0,0,0,.761-.845c-.011-.5-.392-.8-1.086-.8" transform="translate(-237.39 -231.535)" fill="#aeeea4" stroke="#aeeea4" stroke-width="1"/>
        <path id="Trazado_602262" data-name="Trazado 602262" d="M266.839,48.5c-.513-.088-.87.19-.988.781-.239,1.2-.471,2.406-.711,3.608-.115.579-.242,1.155-.363,1.732-.63-1.791-1.181-3.57-1.725-5.351-.134-.437-.323-.792-.857-.787s-.72.373-.852.8c-.469,1.532-.935,3.064-1.412,4.593a1.758,1.758,0,0,1-.321.758c-.357-1.821-.7-3.563-1.041-5.306-.127-.651-.494-.95-1.036-.836-.474.1-.685.519-.567,1.119q.759,3.849,1.516,7.7c.006.032.012.064.02.1q.2.893.917.93a1.006,1.006,0,0,0,1.08-.809c.557-1.774,1.1-3.551,1.694-5.469.078.227.106.3.129.376.517,1.671,1.038,3.34,1.547,5.013a1.054,1.054,0,0,0,.923.884c.6.058.978-.291,1.127-1.041q.765-3.847,1.519-7.7c.116-.589-.121-1.013-.6-1.095" transform="translate(-223.179 -42.102)" fill="#e05f78" stroke="#e05f78" stroke-width="1"/>
        <path id="Trazado_602263" data-name="Trazado 602263" d="M270.83,150.62a11.281,11.281,0,0,0,7.273-1.22,12.581,12.581,0,0,0,2.268-1.631c.078-.067.153-.139.23-.208a17.4,17.4,0,0,1-1.611.88,11.4,11.4,0,0,1-9.062.107,6.628,6.628,0,0,0-.84-.326,5.612,5.612,0,0,1,.926,2.389h0c.265-.152.547-.035.814.008" transform="translate(-233.738 -128.176)" fill="#da4655"/>
        <path id="Trazado_602264" data-name="Trazado 602264" d="M269.539,146.3a11.4,11.4,0,0,0,9.062-.107,17.424,17.424,0,0,0,1.611-.88,1.516,1.516,0,0,1,.431-.293c-.17-.125-.261.034-.373.106A11.388,11.388,0,0,1,273.005,147a12.733,12.733,0,0,1-3.981-1.051c-.117-.05-.235-.221-.384-.044h0c.02.026.039.052.059.078a6.645,6.645,0,0,1,.84.325" transform="translate(-233.349 -125.932)" fill="#da4655"/>
        <path id="Trazado_602265" data-name="Trazado 602265" d="M286.507,146.748a12.575,12.575,0,0,1-2.268,1.631,11.282,11.282,0,0,1-7.273,1.22c-.267-.043-.55-.161-.814-.008a11.281,11.281,0,0,0,10.878-3.2q-.148.074-.293.154c-.077.069-.152.141-.23.208" transform="translate(-239.874 -127.155)" fill="#da4655"/>
        <path id="Trazado_602266" data-name="Trazado 602266" d="M357.021,145.471c.046-.046.092-.091.137-.139a1.513,1.513,0,0,0-.43.293q.145-.08.293-.154" transform="translate(-309.865 -126.24)" fill="#da4655"/>
        <path id="Trazado_602267" data-name="Trazado 602267" d="M268.881,152.532l-.029-.008h0l.957,2.4a5.612,5.612,0,0,0-.926-2.389" transform="translate(-233.531 -132.486)" fill="#da4655"/>
        <path id="Trazado_602268" data-name="Trazado 602268" d="M268.67,152.069l.029.008c-.02-.026-.038-.052-.059-.078l.028.069h0" transform="translate(-233.349 -132.031)" fill="#da4655"/>
        <path id="Trazado_602269" data-name="Trazado 602269" d="M60.348,57.284a4.73,4.73,0,0,0,3.22,1.17,2.981,2.981,0,0,0,.991-.122A2.872,2.872,0,0,0,66.731,54.9a2.76,2.76,0,0,0-1.582-1.776c-.874-.4-1.776-.747-2.663-1.124a.789.789,0,0,1-.272-1.372,1.693,1.693,0,0,1,1.552-.4,4.271,4.271,0,0,1,1.562.679.788.788,0,0,0,1.087-.2.825.825,0,0,0-.143-1.064,4.158,4.158,0,0,0-4.7-.561,2.454,2.454,0,0,0-1.224,2.495,2.249,2.249,0,0,0,1.527,1.929c.591.238,1.184.47,1.774.71a4.131,4.131,0,0,1,1.135.567.977.977,0,0,1,.078,1.54,1.924,1.924,0,0,1-1.719.5,3.188,3.188,0,0,1-1.855-.915.758.758,0,0,0-.976-.2.808.808,0,0,0-.446.857,1.183,1.183,0,0,0,.488.713" transform="translate(-51.987 -42.214)" fill="#7cc2ed" stroke="#7cc2ed" stroke-width="1"/>
        <path id="Trazado_602270" data-name="Trazado 602270" d="M151.077,150.094c-.109-.188.045-.31.123-.44a4.651,4.651,0,0,0,.663-2.132,4.859,4.859,0,0,0-5.781-5.111,4.958,4.958,0,0,0-3.827,3.654,4.853,4.853,0,0,0,1.992,5.115,4.761,4.761,0,0,0,5.188.222c.147-.078.272-.262.482-.149a2.974,2.974,0,0,1,1.159-1.159m-.845-2.865A3.231,3.231,0,0,1,147,150.4a3.173,3.173,0,0,1-3.2-3.244,3.242,3.242,0,0,1,3.24-3.216,3.326,3.326,0,0,1,3.193,3.284" transform="translate(-123.461 -123.631)" fill="#b5b0b6"/>
        <path id="Trazado_602271" data-name="Trazado 602271" d="M202.548,201.44q-.56.6-1.159,1.159c.973.969,1.943,1.941,2.92,2.906a.818.818,0,1,0,1.145-1.145c-.965-.977-1.937-1.947-2.906-2.92" transform="translate(-174.933 -174.977)" fill="#5d5360"/>
        <path id="Trazado_602272" data-name="Trazado 602272" d="M202.548,201.44a2.973,2.973,0,0,0-1.159,1.159q.6-.56,1.159-1.159" transform="translate(-174.933 -174.977)" fill="#5d5360"/>
        <path id="Trazado_602273" data-name="Trazado 602273" d="M47.888,263.247a5.073,5.073,0,1,0,5.1-5.038,5.08,5.08,0,0,0-5.1,5.038m8.526-.03a3.331,3.331,0,0,1-3.42,3.453,3.431,3.431,0,1,1,.017-6.862,3.373,3.373,0,0,1,3.4,3.409" transform="translate(-41.597 -224.285)" fill="#d5bcee" stroke="#d5bcee" stroke-width="1"/>
        <path id="Trazado_602274" data-name="Trazado 602274" d="M158,154.631a3.242,3.242,0,0,0-3.24,3.216,3.173,3.173,0,0,0,3.2,3.244,3.231,3.231,0,0,0,3.237-3.175A3.326,3.326,0,0,0,158,154.631" transform="translate(-134.418 -134.317)" fill="#ecf3fe"/>
        <path id="Trazado_602275" data-name="Trazado 602275" d="M60.345,273.863a3.43,3.43,0,0,0,3.469,3.394,3.331,3.331,0,0,0,3.42-3.453,3.373,3.373,0,0,0-3.4-3.409,3.457,3.457,0,0,0-3.486,3.468" transform="translate(-52.418 -234.874)" fill="#d5bcee"/>
        <path id="Trazado_602276" data-name="Trazado 602276" d="M70.291,57.965H67.6v3.552H65.952V53.025H70.8v1.289H67.6v2.368h2.695Z" transform="translate(-57.288 -46.059)" fill="#fff"/>
        <path id="Trazado_602277" data-name="Trazado 602277" d="M282.451,57.651a3.149,3.149,0,0,1-.846,2.339,3.43,3.43,0,0,1-4.5,0,3.161,3.161,0,0,1-.84-2.339V55.283a3.19,3.19,0,0,1,.837-2.342,3.007,3.007,0,0,1,2.243-.849,3.047,3.047,0,0,1,2.254.849,3.164,3.164,0,0,1,.849,2.342Zm-1.639-2.386a2.214,2.214,0,0,0-.376-1.4,1.309,1.309,0,0,0-1.088-.473,1.277,1.277,0,0,0-1.079.47,2.279,2.279,0,0,0-.362,1.4v2.386a2.3,2.3,0,0,0,.365,1.417,1.282,1.282,0,0,0,1.082.473,1.3,1.3,0,0,0,1.088-.473,2.272,2.272,0,0,0,.37-1.417Z" transform="translate(-239.975 -45.249)" fill="#fff"/>
        <path id="Trazado_602278" data-name="Trazado 602278" d="M65.951,279.178v-8.493H68.57a2.8,2.8,0,0,1,2.2.995,3.738,3.738,0,0,1,.869,2.552v1.406a3.724,3.724,0,0,1-.869,2.552,2.8,2.8,0,0,1-2.2.989Zm1.645-7.2v5.92h.974a1.171,1.171,0,0,0,1.027-.63,3.045,3.045,0,0,0,.391-1.627V274.22A3.021,3.021,0,0,0,69.6,272.6a1.171,1.171,0,0,0-1.027-.63Z" transform="translate(-57.287 -235.125)" fill="#fff"/>
        <path id="Trazado_602279" data-name="Trazado 602279" d="M277.608,277.34h-2.123l-.478,1.837h-1.715l2.409-8.493h1.7l2.409,8.493h-1.721Zm-1.785-1.295h1.447l-.706-2.695h-.035Z" transform="translate(-237.39 -235.125)" fill="#fff"/>
      </g>
    </g>
  </g>
</svg>
