<svg xmlns="http://www.w3.org/2000/svg" xmlns:xlink="http://www.w3.org/1999/xlink" width="188" height="188" viewBox="0 0 188 188">
  <defs>
    <clipPath id="clip-path">
      <rect id="Rectángulo_298482" data-name="Rectángulo 298482" width="188" height="188" transform="translate(-9026 2972)" fill="#fff" stroke="#707070" stroke-width="1"/>
    </clipPath>
    <clipPath id="clip-path-2">
      <rect id="Rectángulo_298081" data-name="Rectángulo 298081" width="456.177" height="188" fill="none"/>
    </clipPath>
    <clipPath id="clip-path-3">
      <rect id="Rectángulo_298078" data-name="Rectángulo 298078" width="456.177" height="188.001" fill="none"/>
    </clipPath>
    <clipPath id="clip-path-4">
      <rect id="Rectángulo_298073" data-name="Rectángulo 298073" width="18.281" height="5.555" fill="none"/>
    </clipPath>
    <clipPath id="clip-path-5">
      <rect id="Rectángulo_298074" data-name="Rectángulo 298074" width="2.93" height="8.835" fill="none"/>
    </clipPath>
    <clipPath id="clip-path-6">
      <rect id="Rectángulo_298075" data-name="Rectángulo 298075" width="3.48" height="11.719" fill="none"/>
    </clipPath>
    <clipPath id="clip-path-7">
      <rect id="Rectángulo_298076" data-name="Rectángulo 298076" width="2.782" height="10.542" fill="none"/>
    </clipPath>
    <clipPath id="clip-path-8">
      <rect id="Rectángulo_298077" data-name="Rectángulo 298077" width="2.385" height="9.773" fill="none"/>
    </clipPath>
    <clipPath id="clip-path-9">
      <path id="Trazado_594200" data-name="Trazado 594200" d="M2790.372,652.583c.532,1.177-.731,2.224-1.69,2.982-1.04.823.429.78,1.521.738.625-.024,1.127-.049.964.089,2.649-.236-1.391.945-.524,2.066a21.057,21.057,0,0,1,2.748,5.472c-2.022,7.914,5.2-1.514,7.209-4.158-1.757-1.3-4.153-9.275-4.21-10.059l-6.489-4.468a9.68,9.68,0,0,0,.47,7.339" transform="translate(-2788.327 -645.244)" fill="none"/>
    </clipPath>
    <linearGradient id="linear-gradient" x1="-17.316" y1="3.496" x2="-17.31" y2="3.496" gradientUnits="objectBoundingBox">
      <stop offset="0" stop-color="#f58e4d"/>
      <stop offset="1" stop-color="#ffb988"/>
    </linearGradient>
  </defs>
  <g id="Enmascarar_grupo_744812" data-name="Enmascarar grupo 744812" transform="translate(9026 -2972)" clip-path="url(#clip-path)">
    <g id="Grupo_879974" data-name="Grupo 879974" transform="translate(-9141 2972)">
      <g id="Grupo_879572" data-name="Grupo 879572" clip-path="url(#clip-path-2)">
        <rect id="Rectángulo_298072" data-name="Rectángulo 298072" width="456.18" height="188.123" transform="translate(0 -0.267)" fill="#68c2d4"/>
        <g id="Grupo_879567" data-name="Grupo 879567" transform="translate(0 -0.001)">
          <g id="Grupo_879566" data-name="Grupo 879566" clip-path="url(#clip-path-3)">
            <path id="Trazado_594086" data-name="Trazado 594086" d="M1053.711,392.251s4.659-37.113-1.4-61.711-45.437-31.517-73.708-21.524-35.243,39.265-22.344,57.566c11.11,15.763,39.838,18.6,58.58,14.225,27.573-6.436,38.871,11.444,38.871,11.444" transform="translate(-822.563 -263.737)" fill="#95dbe2"/>
            <path id="Trazado_594087" data-name="Trazado 594087" d="M1117.881,806.926s8.324,2.969.633,8.738-.633-8.738-.633-8.738" transform="translate(-965.334 -698.66)" fill="#144665"/>
            <path id="Trazado_594088" data-name="Trazado 594088" d="M1077.64,865.542s-3.726,10.217-3.738,11.408c-.986,2.115-7.475-5.5-7.475-5.5a5.156,5.156,0,0,0,1.564-3.154c.19-1.964-.559-10.053-.559-10.053Z" transform="translate(-923.345 -743.09)" fill="#e1b39d"/>
            <path id="Trazado_594089" data-name="Trazado 594089" d="M1084.908,836.115s-1.705-1.953-2.815.24,2.641,3.213,2.641,3.213,2.059,3.937,4.295,4.018c1.337.049,3.627.35,3.851.378a.474.474,0,0,0,.507-.373c.028-.224.837-5.432.837-5.432s1.357-.307.7-.917c-3.42-3.168-1.869-6.787-5.645-8.025Z" transform="translate(-936.731 -717.961)" fill="#f0c0a7"/>
            <path id="Trazado_594090" data-name="Trazado 594090" d="M1042.876,810.066a2.415,2.415,0,0,1-2.13-1.05c-.78-1.182-2.07-1.719-2.738-.756s.771,3.682.257,5.117a2.207,2.207,0,0,1-1.409,1.476,8.562,8.562,0,0,0-2.3-1.61c-1.133-.453-5.05-8.587-3.884-9.9s6.739-5.339,10.631-6,4.488,2.256,2.81,5.84a13.577,13.577,0,0,0-1.233,6.889" transform="translate(-892.199 -690.276)" fill="#144665"/>
            <path id="Trazado_594091" data-name="Trazado 594091" d="M1009.843,845.349s-4.81-1.529-4.954,3.363,3.519,12.154,3.359,13.608-1.567,2.758,2.044,1.071-1.525-11.011-1.2-12.747a5.484,5.484,0,0,1,1.18-2.636Z" transform="translate(-870.06 -731.733)" fill="#144665"/>
            <path id="Trazado_594092" data-name="Trazado 594092" d="M1661.229,156.739s6.848-35.424,2.8-62.821c-4.9-33.217-48.763-44.018-76.089-30.594s-30.809,45.967-14.218,67.651,41.772,9.817,52.14,6.868c17.59-5,35.363,18.895,35.363,18.895" transform="translate(-1353.893 -49.963)" fill="#fff"/>
            <path id="Trazado_594093" data-name="Trazado 594093" d="M1053.982,190.491s10.178-15.658,25.836-16.441,31.657-6.523,34.789-26.879-18.348-29.49-49.665-20.878-10.96,64.2-10.96,64.2" transform="translate(-906.939 -106.547)" fill="#fff"/>
            <path id="Trazado_594094" data-name="Trazado 594094" d="M1164.022,264.618a1.61,1.61,0,0,1-1.61,1.61h-40.788a1.61,1.61,0,0,1,0-3.22h40.788a1.61,1.61,0,0,1,1.61,1.61" transform="translate(-969.742 -227.72)" fill="#95dbe2"/>
            <path id="Trazado_594095" data-name="Trazado 594095" d="M1164.022,338.618a1.61,1.61,0,0,1-1.61,1.61h-40.788a1.61,1.61,0,0,1,0-3.22h40.788a1.61,1.61,0,0,1,1.61,1.61" transform="translate(-969.742 -291.791)" fill="#95dbe2"/>
            <path id="Trazado_594096" data-name="Trazado 594096" d="M1144.433,412.618a1.61,1.61,0,0,1-1.61,1.61h-21.2a1.61,1.61,0,0,1,0-3.22h21.2a1.61,1.61,0,0,1,1.61,1.61" transform="translate(-969.742 -355.863)" fill="#95dbe2"/>
            <path id="Trazado_594097" data-name="Trazado 594097" d="M415.426,321.717s3.544-34.567,1.647-49.841c-1.841-14.819-8.069-22.083-28.936-27.766s-57.568-7.069-59.268,11.466-7.066,60.9,32.76,58.546c18.664-1.1,43.3-4.939,43.3-4.939Z" transform="translate(-283.691 -208.1)" fill="#fff"/>
            <path id="Trazado_594098" data-name="Trazado 594098" d="M679.838,1233.2c2.274-10.635-1.221-17.752-.076-22.334s4.371-3.368,4.371-3.368l6.963,25.7Z" transform="translate(-588.353 -1045.36)" fill="#003853"/>
            <path id="Trazado_594099" data-name="Trazado 594099" d="M707.943,1191.266c-1.308-10.812-5.616-30.741-5.616-30.741l-23.367-1.6s-5.286,11.88-1.237,15.93a32.121,32.121,0,0,1,8.987,16.415Z" transform="translate(-585.471 -1003.428)" fill="#144665"/>
            <path id="Trazado_594100" data-name="Trazado 594100" d="M762,1258.426l13,5.141s1.856,1.485,2.146,1.729.076.363-.15.344-2.789-.271-2.789-.271l-12.865-5.164Z" transform="translate(-659.195 -1089.583)" fill="#2b7895"/>
            <path id="Trazado_594101" data-name="Trazado 594101" d="M702.107,796.743s6.256-26.683,3.784-36.716c-1.241-5.036-4.162-9.144-6.245-12.173-.134-.2.477-1.854.326-2.03-4.45-5.188-12.423-7.146-12.423-7.146s-.485,1.052-.809,1.915c-3.746,4.442-11.522,14.209-10.689,22.618,1.653,16.7,3.392,27.085,3.392,27.085l-.657,4.806Z" transform="translate(-585.292 -639.569)" fill="#fff"/>
            <path id="Trazado_594102" data-name="Trazado 594102" d="M784.619,1230.419s2.905,2.445,3.4,4.5,1.236,3.445.015,3.8c.01.235.25.826.367,1.639s-1.534,1.313-1.99.049c-.256-.714-.867.162-1.476-.25s-1.252-.977-1.767-.829-.826-.234-1.029-.7-1.4-.042-1.524-1.756a25.341,25.341,0,0,1,.741-5.33l-.544-1.556,2.9-1.006Z" transform="translate(-675.867 -1064.084)" fill="#f0c0a7"/>
            <path id="Trazado_594103" data-name="Trazado 594103" d="M729.17,889.122l3.4.216s-3.026-11.268-3.212-20.208-2.983-27.576-5.519-21.474c-5.624,13.529,5.333,41.466,5.333,41.466" transform="translate(-625.33 -732.883)" fill="#d2e8f2"/>
            <path id="Trazado_594104" data-name="Trazado 594104" d="M680.015,752.953s6.529,3.5,4,14.186-4.917,20.877-4.917,20.877L687.123,818l-5.057,1.769s-10.013-20.268-12.112-30.832-2.557-21.772-1.059-27.537c.7-2.7,11.121-8.444,11.121-8.444" transform="translate(-578.387 -651.929)" fill="#fff"/>
            <path id="Trazado_594105" data-name="Trazado 594105" d="M773.551,844.678s9.13,16.61,11.005,20.392c7.229-1.511,9.724-.533,19.691-1.922.137,4.229-.472,5.813-.472,5.813s-15.447,5.594-20.882,5.123-17.945-20.992-17.945-20.992Z" transform="translate(-662.315 -731.347)" fill="#fff"/>
            <path id="Trazado_594106" data-name="Trazado 594106" d="M832.056,794.769a2.755,2.755,0,0,1,1.6,2.207,3.436,3.436,0,0,1-.119,1.962,35.357,35.357,0,0,1,5.378,15.615c1.5,14.5,2.427,26.865,2.427,26.865l-4.551,5.13-4.023-5.477a234.338,234.338,0,0,0,2.023-26.835c.142-9.861-2.614-14.793-2.614-14.793s-.972-1.03-2.2-2.119a9.617,9.617,0,0,0,2.079-2.556" transform="translate(-718.619 -688.134)" fill="#e8ac4c"/>
            <path id="Trazado_594107" data-name="Trazado 594107" d="M781.7,654.384c-2.244-.184-4.841,4.527-6.05,8.559A34.574,34.574,0,0,0,766,656.737a10.751,10.751,0,0,0,.66-5.117S777.68,631.3,781.7,654.384" transform="translate(-663.229 -557.035)" fill="#e1b39d"/>
            <path id="Trazado_594108" data-name="Trazado 594108" d="M803.355,595.134s-1.5-2.592-3.237-.345,1.893,4.734,1.893,4.734,1.784,5.582,4.3,6.161a33.189,33.189,0,0,0,5,.678c.261.008.693-.022.774-.271s.465-7.231.465-7.231,1.054-.089.72-1.072a62.539,62.539,0,0,1-2.163-8s-4.287-4.959-6.037-3.142-1.721,8.489-1.721,8.489" transform="translate(-692.358 -507.587)" fill="#f0c0a7"/>
            <path id="Trazado_594109" data-name="Trazado 594109" d="M774.018,590.408s-1.459,1.745-2.085.234a1.615,1.615,0,0,0-2.864-.6c-.97.947-.106,3.788-1,5.3-.587.992-3.234,1.713-3.681,1.771-.023-2.58-2.392-11.838.283-13.74,1.657-1.179,6.4-4,10.964-3.9s6.847.824,4.158,4.527c-10.392-3.133-5.771,6.4-5.771,6.4" transform="translate(-660.971 -501.729)" fill="#144665"/>
            <path id="Trazado_594110" data-name="Trazado 594110" d="M771.541,751.367a9.03,9.03,0,0,1-3.812,2.652c-3.031-7.565-6.516-8.354-6.516-8.354s.072-.378.287-1.223c3.393,1.362,10.041,6.925,10.041,6.925" transform="translate(-659.08 -644.56)" fill="#d2e8f2"/>
            <path id="Trazado_594111" data-name="Trazado 594111" d="M2351.32,346.3s-1.431-33.9,1.371-53.926c2.233-15.963,11.659-24.155,34.958-28.984s45.694-4.124,50.263,16.27c4.364,19.474,10.294,63.534-33.556,60.969-26.647-1.559-40.7-7.207-40.7-7.207Z" transform="translate(-2035.527 -225.908)" fill="#95dbe2"/>
            <path id="Trazado_594112" data-name="Trazado 594112" d="M2563.008,686a1.7,1.7,0,1,1-1.7-1.7,1.7,1.7,0,0,1,1.7,1.7" transform="translate(-2216.18 -592.485)" fill="#fff"/>
            <path id="Trazado_594113" data-name="Trazado 594113" d="M2527.014,686a1.7,1.7,0,1,1-1.7-1.7,1.7,1.7,0,0,1,1.7,1.7" transform="translate(-2185.015 -592.485)" fill="#fff"/>
            <path id="Trazado_594114" data-name="Trazado 594114" d="M2490.418,686a1.7,1.7,0,1,1-1.7-1.7,1.7,1.7,0,0,1,1.7,1.7" transform="translate(-2153.329 -592.485)" fill="#fff"/>
            <path id="Trazado_594115" data-name="Trazado 594115" d="M647.608,546.005a1.7,1.7,0,1,1,1.7,1.7,1.7,1.7,0,0,1-1.7-1.7" transform="translate(-560.719 -471.273)" fill="#4cc5d4"/>
            <path id="Trazado_594116" data-name="Trazado 594116" d="M683.6,546.005a1.7,1.7,0,1,1,1.7,1.7,1.7,1.7,0,0,1-1.7-1.7" transform="translate(-591.883 -471.273)" fill="#4cc5d4"/>
            <path id="Trazado_594117" data-name="Trazado 594117" d="M720.2,546.005a1.7,1.7,0,1,1,1.7,1.7,1.7,1.7,0,0,1-1.7-1.7" transform="translate(-623.569 -471.273)" fill="#4cc5d4"/>
            <path id="Trazado_594118" data-name="Trazado 594118" d="M1653,461.1l-1.208-2.424s-.713-11.129-.557-12.738c-.5-.734-1.407.372-1.563,1.982-1.157.38-.937,1.133-.862,2.46s.54,3.532-.087,4.834c-.236.49-.489.885-1.35-.722s-2.156-2.188-2.742-1.969c.132.669,2.148,4.959,2.515,6.417a1.762,1.762,0,0,0,1.584,1.473l2,3.617Z" transform="translate(-1423.968 -385.906)" fill="#f0c0a7"/>
            <path id="Trazado_594119" data-name="Trazado 594119" d="M1900.8,1103.009s17.022,5.3,20.016-1.369-16.68-4.7-16.68-4.7Z" transform="translate(-1645.771 -949.525)" fill="#305d81"/>
            <path id="Trazado_594120" data-name="Trazado 594120" d="M2068.589,546.933a3.853,3.853,0,0,1,4.839-2.476,10.389,10.389,0,0,1,6.083,6.485,9.62,9.62,0,0,1,.542,3.562c.837,1.032.83,2.908.3,4.9-2.538,9.487-10.152,7.674-10.152,7.674s-4.368.071-6.888-7.8c-1.375-4.29.687-8.25,1.834-10.244.906-1.269,2.932-.44,3.445-2.1" transform="translate(-1786.081 -471.245)" fill="#144665"/>
            <path id="Trazado_594121" data-name="Trazado 594121" d="M1679.335,546.276a167.33,167.33,0,0,0,18.859,24.582c2.734,2.973-1.073,11.573-7.226,6.277s-15.05-27.491-15.05-27.491a8.51,8.51,0,0,1,3.417-3.368" transform="translate(-1451.061 -472.982)" fill="#144665"/>
            <path id="Trazado_594122" data-name="Trazado 594122" d="M2186.65,802.748s1.813-23.385,6.707-11.6,9.064,24.11,8.883,28.642-4.83,10.824-6.824,2.848-8.765-19.888-8.765-19.888" transform="translate(-1893.268 -682.124)" fill="#144665"/>
            <path id="Trazado_594123" data-name="Trazado 594123" d="M1937.038,1074.2c-.1-1.182-.3-23.392-3.618-35.808-5.227-19.579-26.122-18.658-30.259-2.643-3.1,12.009-4.846,34.387-4.846,38.451h17.847c.037-.646.717-9.386.9-10.837s1.934,10.295,1.984,10.837Z" transform="translate(-1643.619 -886.362)" fill="#144665"/>
            <path id="Trazado_594124" data-name="Trazado 594124" d="M1972.866,729.867s-7.614-10.393-12.81-12.447-20.545,1.45-20.545,1.45-1.813,10.151-.483,19.457-4.593,31.664-4.593,31.664,20.787,3.867,29.126,2.417c2.538-21.27,9.305-42.54,9.305-42.54" transform="translate(-1674.892 -620.604)" fill="#fff"/>
            <path id="Trazado_594125" data-name="Trazado 594125" d="M2139.064,806.5s-3.969-10.373.382-23.546,8.271-20.632,8.66-23.993c.09-4.441-12.075-10.465-12.075-10.465s-7.36,28.818-5.165,53.311c.717,8,5.117,5.962,5.963,5.721a14.059,14.059,0,0,0,2.236-1.027" transform="translate(-1844.614 -648.069)" fill="#144665"/>
            <path id="Trazado_594126" data-name="Trazado 594126" d="M1896.194,718.133l3.468-.753s-5.121,7.432-7.116,22.479c-1.353,10.209-8.984,27.394-10.918,30.657a95.643,95.643,0,0,0-4.229,8.58s-4.883-4.22-3.8-6.878,8.732-9.7,9.7-20.213-.837-14.68-1.32-20.843,5.3-12.815,5.3-12.815Z" transform="translate(-1622.086 -621.129)" fill="#144665"/>
            <path id="Trazado_594127" data-name="Trazado 594127" d="M1816.793,721.091c-2.255-1-17.707-.372-25.982-.831-6.165-.342-9.24,7.513-.5,9.591,6.874,1.634,12.016,3.261,17.909,7.99,2.934-3.337,10.83-15.748,8.575-16.75" transform="translate(-1545.414 -623.613)" fill="#144665"/>
            <path id="Trazado_594128" data-name="Trazado 594128" d="M2089.879,667.443l-1.094,6.334s-3.437,4.059-6.61,3.727a23.045,23.045,0,0,1-3.535-5.257l2.176-8.46Z" transform="translate(-1799.749 -574.726)" fill="#e1b39d"/>
            <path id="Trazado_594129" data-name="Trazado 594129" d="M2072.826,591.163l-1.274-.537s-1.416.066-.738,1.878,1.25,3.026,1.25,3.026.621,4.078,2.43,6.375c3.645,1.451,4.577,1.088,4.577,1.088a23.546,23.546,0,0,0,5.052-6.056c1.3-.423,3.354-5.393.091-4.124,1.873-7.72-3.373-8.094-8.974-8.52-1.4,2.175-2.413,6.87-2.413,6.87" transform="translate(-1792.814 -505.898)" fill="#f0c0a7"/>
            <path id="Trazado_594130" data-name="Trazado 594130" d="M2023.358,769.06s-2.448.045-2.673,1.9a15.174,15.174,0,0,1,.589,2.4,47.445,47.445,0,0,0-6.266,17.5c-2.08,15.235-4.194,25.052-4.194,25.052l4.988,7.6,5.205-5.526a247.253,247.253,0,0,1-1.217-28.367c.188-10.4,3.07-15.716,3.07-15.716s1.251-.846,2.582-1.953a9.023,9.023,0,0,1-2.083-2.9" transform="translate(-1741.024 -665.875)" fill="#e8ac4c"/>
            <g id="Grupo_879553" data-name="Grupo 879553" transform="translate(274.67 138.611)" style="mix-blend-mode: multiply;isolation: isolate">
              <g id="Grupo_879552" data-name="Grupo 879552">
                <g id="Grupo_879551" data-name="Grupo 879551" clip-path="url(#clip-path-4)">
                  <path id="Trazado_594131" data-name="Trazado 594131" d="M2051.187,1037.323c-4.545-.832-3.989-4.229-3.989-4.229s18.938,3.739,18.241,5.006-9.708.055-14.252-.776" transform="translate(-2047.177 -1033.094)" fill="#d2e8f2"/>
                </g>
              </g>
            </g>
            <path id="Trazado_594132" data-name="Trazado 594132" d="M1934.365,997.755a72.872,72.872,0,0,0-10.513-1.326c.245,1.931,4.273,1.969,4.273,1.969s-9.265,4.2-9.676,4.451-.1,1.205-.1,1.205-1.092.748-.157.949,5.713-1.236,5.713-1.236-3.114,1.583-3.428,1.673.335,1.2,2.9.442c.977-.289,8.118-1.475,8.905-4.267.3-.048,2.313-.113,2.313-.113Z" transform="translate(-1660.504 -862.738)" fill="#f0c0a7"/>
            <path id="Trazado_594133" data-name="Trazado 594133" d="M2030.58,848.028l26.98.342s-3.515-8.877-5.9-14.425S2061.5,824,2061.5,824s6.79,24.942,6.956,29.775-9.116,5.505-18.712,2.927-18.759-3.971-18.759-3.971Z" transform="translate(-1758.138 -713.439)" fill="#144665"/>
            <path id="Trazado_594134" data-name="Trazado 594134" d="M2110.389,740.784s.408,1.161,2.924,2.707c2.5-2.538,4.963-5.1,4.963-5.1s-.716-2.11-1.23-2.4c-.68,2.673-6.656,4.788-6.656,4.788" transform="translate(-1827.239 -637.247)" fill="#d2e8f2"/>
            <path id="Trazado_594135" data-name="Trazado 594135" d="M2135.461,791.559c3.425-4.946,7.76-15.639,7.76-15.639l-2.2-2.906,1.9-1.968-.152-2.646-2.844-3.109s-4.7,18.391-4.466,26.267" transform="translate(-1848.94 -662.612)" fill="#305d81"/>
            <path id="Trazado_594136" data-name="Trazado 594136" d="M2004.63,756.758c-.906-5.948-.825-16.858-.825-16.858l3.255-1.644-.847-2.6,1.3-2.311,3.883-1.257s-5.12,15.265-6.764,24.674" transform="translate(-1734.953 -633.86)" fill="#305d81"/>
            <path id="Trazado_594137" data-name="Trazado 594137" d="M1293.918,1009.778c8.921,19.828-.008,42.256.749,52.1h-17.916s-16.92-33.419-1.013-52.1a157.954,157.954,0,0,1,18.179,0" transform="translate(-1098.671 -874.066)" fill="#144665"/>
            <path id="Trazado_594138" data-name="Trazado 594138" d="M1249.172,803.237s.234-1.957-3.038-6.514-10.124-13.469-7.612-17.968,7.7-7.555,17.689-7.438,16.273-.01,17.558,7.411-5.492,19.456-6.719,24.247-17.878.263-17.878.263" transform="translate(-1071.881 -667.825)" fill="#fff"/>
            <path id="Trazado_594139" data-name="Trazado 594139" d="M1305.336,621.506c1.87-.857,3.941-1.92,3.006-4.958s-4.589-5.143-4.511-8.416,1.266-7.143-2.863-11.973-8.025-1.315-8.025-1.315-2.675-.921-5.087,4.166c-1.413,2.981-.285,5.951-1.687,8.21s-.33,3.082-2.24,5.609c-2.707,3.581-.5,6.089-.13,6.4a33.752,33.752,0,0,1,14.6-1.646c4.051.623,3.918,3.85,3.879,5.486Z" transform="translate(-1110.513 -513.965)" fill="#144665"/>
            <path id="Trazado_594140" data-name="Trazado 594140" d="M1303.289,892.473s3.038,3.973,6.661,2.454,6.31-2.454,8.53-1.636,6.076-1.4,6.076-1.4l.7,10.868-21.034,2.921-1.986-3.622Z" transform="translate(-1127.516 -772.224)" fill="#d2e8f2"/>
            <path id="Trazado_594141" data-name="Trazado 594141" d="M1236.282,814.432c-.742-4.166,3.608-9.792,6.868-1.4s4.276,12.017,4.168,15.97-4.118,3.227-6.361-.517-3.933-9.891-4.675-14.057" transform="translate(-1070.338 -700.187)" fill="#e1b39d"/>
            <path id="Trazado_594142" data-name="Trazado 594142" d="M1304.787,967.608c5.687-.311,15.736-2.649,20.8-2.259s8.647,4.44,2.259,5.765-24.014-.76-24.014-.76.565-1.655.954-2.746" transform="translate(-1128.898 -835.789)" fill="#f0c0a7"/>
            <path id="Trazado_594143" data-name="Trazado 594143" d="M1455.589,797.927c.234-4.908,5.375-10.828,6.622-.468s1.762,15.717.75,20.157-4.723,2.279-6.047-2.551-1.558-12.231-1.324-17.138" transform="translate(-1260.224 -685.506)" fill="#f0c0a7"/>
            <path id="Trazado_594144" data-name="Trazado 594144" d="M1262.287,977.537a23.967,23.967,0,0,1-5.118,3.111c-1.235.426-1.448-.761-1.329-1.214.242-.924-.982-1.007-.812-1.826.232-1.119-.959-1.626.046-2.135a7.951,7.951,0,0,1,2.522-.643s1.654-1.673,2.907-.959,1.486.954,2.081.981,1.4,1.4-.3,2.686" transform="translate(-1086.326 -843.052)" fill="#f0c0a7"/>
            <path id="Trazado_594145" data-name="Trazado 594145" d="M1343.369,711.961c-.591.613-1.216,1.358-2.156,1.062-1.048-.333-1.093-.3-1.811.058a2.854,2.854,0,0,1-3.116-.545c.907,3.881-.331,7.323-2.142,8.374-.76,1.519.76,5.2,5.843,5.2,3.975,0,4.462-3.575,4.462-5.386-3.1-1.928-.991-7.768-1.079-8.764" transform="translate(-1154.982 -616.437)" fill="#e1b39d"/>
            <path id="Trazado_594146" data-name="Trazado 594146" d="M1339.3,633.5a5.809,5.809,0,0,0-.356,2.035c-.036.363-.244.439-.518.645-.852.592-.013,1.782.615,3.075a8.4,8.4,0,0,0,2.494,5.179c1.254,1.326,4.067,1.384,5.146-.089s2.355-3.995,2.37-5.768c.066-.5.034-2.871-.673-3.568-.671-2.357-1.325-4.756-2.93-4.6-.492.983-.492,1.728-1.72,2.473-1.518.922-3.42.526-4.429.614" transform="translate(-1158.541 -545.825)" fill="#f0c0a7"/>
            <path id="Trazado_594147" data-name="Trazado 594147" d="M1293.616,784.376c-.8,5.639-.127,16.327-1.49,21.219s-6.667,7.76-6.728,1.236,6.115-22.241,6.115-22.241a2.08,2.08,0,0,1,2.1-.214" transform="translate(-1112.935 -678.947)" fill="#f0c0a7"/>
            <path id="Trazado_594148" data-name="Trazado 594148" d="M1326.155,735.958a3.846,3.846,0,0,0,1.5-2.509,10.965,10.965,0,0,1,.547-2.555c.084-.307-.955-.031-1.218.692a13.78,13.78,0,0,1-.925,1.821s-.974-2.123.69-3.1c1.106-.651,2.16-.761,1.853-1.56-.937.235-1.376.34-1.376.34s.7-.964.2-1.207a20.58,20.58,0,0,0-3.52,2.652,4.486,4.486,0,0,0-1.143,4.448,10.325,10.325,0,0,1,.565,2.344l1.928.39a5.015,5.015,0,0,1,.9-1.753" transform="translate(-1145.124 -630.217)" fill="#f0c0a7"/>
            <path id="Trazado_594149" data-name="Trazado 594149" d="M1993.906,1121.024s-4.712-16.869-4.837-17.413a1.313,1.313,0,0,0-1.476-.948c-.952.065-16.888-.034-17.3.047a.7.7,0,0,0-.551.884c.126.4,5.077,17.7,5.077,17.7Z" transform="translate(-1705.436 -954.714)" fill="#003853"/>
            <path id="Trazado_594150" data-name="Trazado 594150" d="M2040.409,1239.76l-13.547-.254-19.079.279s.237,1.614,1.353,1.71c1.923.025,29.564-.028,30.255,0,.911.038,1.018-1.733,1.018-1.733" transform="translate(-1738.399 -1073.201)" fill="#003853"/>
            <path id="Trazado_594151" data-name="Trazado 594151" d="M1999.3,1111.743l-16.124-.054,5.013,17.362,15.863-.042Z" transform="translate(-1717.097 -962.533)" fill="#fff"/>
            <path id="Trazado_594152" data-name="Trazado 594152" d="M2015.317,1203.611h-2.507l.733,2.6h2.507Z" transform="translate(-1742.752 -1042.123)" fill="#aedeeb"/>
            <path id="Trazado_594153" data-name="Trazado 594153" d="M2039.16,1186.275h-2.506l1.391,4.926h2.505Z" transform="translate(-1763.397 -1027.112)" fill="#68c2d4"/>
            <path id="Trazado_594154" data-name="Trazado 594154" d="M2059.627,1160.779h-2.507l2.355,8.346h2.506Z" transform="translate(-1781.117 -1005.037)" fill="#6ba1c4"/>
            <path id="Trazado_594155" data-name="Trazado 594155" d="M2083.576,1143.787h-2.506l3,10.626h2.506Z" transform="translate(-1801.853 -990.325)" fill="#fcce5b"/>
            <path id="Trazado_594156" data-name="Trazado 594156" d="M1146.54,1258.734H1324.2c1.775,0,1.88-4.147,0-4.147H1146.54c-1.875,0-1.621,4.147,0,4.147" transform="translate(-991.572 -1086.259)" fill="#2ea5ba"/>
            <path id="Trazado_594157" data-name="Trazado 594157" d="M1028.007,1211.067s14.2.83,16.742.91a40.675,40.675,0,0,1,7.057.844c.79-.842-1.8-1.682-1.8-1.682s1.847-.1,3.219-.247c.584.229,1.1.446,1.515.644,1.418.685,1.982,1,2.352.362.031-.486-2.514-2.186-3.027-2.53-1.809-1.209-2.68-1.6-3.8-1.254-.649.2-5.126,1.365-5.126,1.365l-16.983-3Z" transform="translate(-890.08 -1044.605)" fill="#f0c0a7"/>
            <path id="Trazado_594158" data-name="Trazado 594158" d="M1401.384,1118.063s4.861-17.4,4.988-17.961a1.355,1.355,0,0,1,1.523-.979c.983.067,17.42-.036,17.846.049a.718.718,0,0,1,.568.911c-.129.412-5.237,18.262-5.237,18.262Z" transform="translate(-1213.361 -951.65)" fill="#003853"/>
            <path id="Trazado_594159" data-name="Trazado 594159" d="M1326.3,1240.548l10.081-.262,19.68.287s-.245,1.664-1.395,1.764c-1.983.023-26.6-.03-27.317,0-.938.04-1.049-1.787-1.049-1.787" transform="translate(-1148.354 -1073.876)" fill="#003853"/>
            <path id="Trazado_594160" data-name="Trazado 594160" d="M1417.9,1108.493l16.631-.055-5.17,17.908L1413,1126.3Z" transform="translate(-1223.418 -959.719)" fill="#b1dee8"/>
            <path id="Trazado_594161" data-name="Trazado 594161" d="M1463.484,1150.476l2.308-5.522c1.984.87,2.877,3.634,2,6.527-.963,3.158-3.669,5.268-6.045,4.712-1.7-.4-2.764-2.049-2.884-4.111Z" transform="translate(-1263.124 -991.335)" fill="#e1f2f7"/>
            <path id="Trazado_594162" data-name="Trazado 594162" d="M1459.991,1144.162c0-.016.008-.034.014-.05.931-3.166,3.622-5.314,6.01-4.8a3.205,3.205,0,0,1,.571.186l-2.242,5.509Z" transform="translate(-1264.104 -986.384)" fill="#fcce5b"/>
            <path id="Trazado_594163" data-name="Trazado 594163" d="M1460.058,1179.223l-.015.035-4.62,1.706a7.429,7.429,0,0,1,.272-2.558Z" transform="translate(-1260.134 -1020.299)" fill="#6ba1c4"/>
            <path id="Trazado_594164" data-name="Trazado 594164" d="M1059.486,952.981s-.475-6.435-9.167-9.093a18.533,18.533,0,0,1-2.845,3.528Z" transform="translate(-906.935 -817.246)" fill="#fff"/>
            <path id="Trazado_594165" data-name="Trazado 594165" d="M927.877,995.024c4.1-6.5,13.972-3.489,8.251,7.044S926.99,1018,926.99,1018l5.182.745-1.06,7.154s-1.456-.088-6.006-.088-8.422-5.042-5.432-12.454,8.2-18.335,8.2-18.335" transform="translate(-795.37 -858.563)" fill="#003853"/>
            <path id="Trazado_594166" data-name="Trazado 594166" d="M995.843,1006.173a79.005,79.005,0,0,1,2.124-18.582c7.347-1.672.386-20.009-3.041-22.764-2.281-1.834-4.592-3.332-8.3-3.332-2.437,2.438-8.788,7.8-8.788,20.863a178.312,178.312,0,0,1-1.419,22.917Z" transform="translate(-845.417 -832.491)" fill="#fff"/>
            <path id="Trazado_594167" data-name="Trazado 594167" d="M952.125,1013.158s7.631-15.5,10.046-25.97c1.259-5.443,1.728-19.607-1.7-22.362-2.281-1.834-4.591-3.332-8.3-3.332-2.519.889-11.372,2.528-10.465,15.564,1.275,18.314-4.477,33.282-5.081,37.106,9.66,3.22,15.5-1.006,15.5-1.006" transform="translate(-810.962 -832.491)" fill="#144665"/>
            <path id="Trazado_594168" data-name="Trazado 594168" d="M976.53,1302.566c-5.512-6.7-3.871-15.1-3.871-15.1l19.707.906s24.393,7.676,27.118,8.457,5.047,1.78,5.618,5.9Z" transform="translate(-841.959 -1114.728)" fill="#144665"/>
            <path id="Trazado_594169" data-name="Trazado 594169" d="M1270.083,1143.457a2.588,2.588,0,0,1,1.29.3c.2.129,1.847,1.484,1.984,1.651s.724.528.536.769a.772.772,0,0,1-1,.1,15.8,15.8,0,0,1-1.827-1.365l-.474.006a5.074,5.074,0,0,1,.733.606,33.683,33.683,0,0,1,1.881,3.267c-.047.173-.5.45-.771.233a2.932,2.932,0,0,1-.726-.817c.128.289.523,1.324.547,1.414s-.287.718-.671.507a13.489,13.489,0,0,1-1.589-2.4l-1.184-.854s1.382,3.108,1.394,3.225-.279.438-.53.324c-.9-.412-1.926-2.894-1.926-2.894a15.609,15.609,0,0,0-1.831-.667c-.931.643-2.193.206-3.463-.436-.986-.343-23.684-3.833-23.684-3.833s-1.565-6.536-1.281-7c6.856,1.424,26.468,7.567,26.468,7.567s5.72.3,6.126.3" transform="translate(-1071.426 -983.227)" fill="#f0c0a7"/>
            <path id="Trazado_594170" data-name="Trazado 594170" d="M1091.215,993.129c7.8,8.451,13.356,13.746,15.11,15.7a16.815,16.815,0,0,1,2.557.993l-2.12,7.684a40.851,40.851,0,0,1-5.962-1.59,83.09,83.09,0,0,1-15.343-12.742c-9.622-10.142-3.887-20.488,5.757-10.041" transform="translate(-935.532 -856.109)" fill="#144665"/>
            <path id="Trazado_594171" data-name="Trazado 594171" d="M430.7,832.5c.8-.5,3.63-1.979,8.715.448-1.371,11.9,7.1,31.113,11.508,39.658,0,0,0,0,.006,0,1.424-.208,6.937,2.439,6.937,2.439s-.282,1.259-1.758.608-1.762-.055-1.762-.055a13.338,13.338,0,0,1,1.133,1.465c.548.828.765,1.712.456,1.867-.608.3-.878.883-1.519.977-.89.13-.76.912-1.867.456a12.511,12.511,0,0,1-2.562-2.505,8.093,8.093,0,0,1-1.321-3.086l-.078-.393C437.557,859.585,432,848.821,430.7,832.5" transform="translate(-372.913 -720.018)" fill="#f0c0a7"/>
            <path id="Trazado_594172" data-name="Trazado 594172" d="M460.427,850.609s-7.129-22.467-6.676-31.145c-2.432-1.187-4.776-2.486-4.776-2.486l-3.713-2.279s-3.257,17.728,10.559,38.62Z" transform="translate(-385.232 -705.39)" fill="#fff"/>
            <path id="Trazado_594173" data-name="Trazado 594173" d="M385.478,766.259c1.281-.217,3.572-.4,3.572-.4s17.1,21.753,5.155,29.8c-5.731,11.17-6.292,17.589-6.292,17.589l-18.935-5.007s5.08-7.92,5.086-14.656c.226-2.9.116-5.524.092-9.146-.662-2.951-2.462-10.447-1.9-11.555.781-1.53,8.315-5.122,13.218-6.631" transform="translate(-319.472 -663.106)" fill="#b1dee8"/>
            <path id="Trazado_594174" data-name="Trazado 594174" d="M375.255,784.626c4.232-2.735,6.666-3.625,11.569-5.133a2.788,2.788,0,0,1,1.65.087s13.047,18.079,2.633,28.785c-4.259,8.685-4.2,15.1-4.2,15.1l-17.255-2.93s4.989-8.472,4.995-15.209c.226-2.9.116-5.524.092-9.146-.662-2.951-.908-10.637.513-11.555" transform="translate(-320.058 -674.843)" fill="#b1dee8"/>
            <path id="Trazado_594175" data-name="Trazado 594175" d="M317.438,1082.812c-14.135,13.89-4.86,31.733-7.6,42.534h26.632c1.083-27.815.561-41.079.561-41.079a114.037,114.037,0,0,1-19.6-1.455" transform="translate(-267.84 -937.531)" fill="#144665"/>
            <path id="Trazado_594176" data-name="Trazado 594176" d="M498.927,774.883c2.623,1.627,9.156,13.983,5.691,13.8a46.38,46.38,0,0,0-7.077-11.207c-.964-1.285.848-2.79,1.387-2.594" transform="translate(-430.545 -670.901)" fill="#f0c0a7"/>
            <path id="Trazado_594177" data-name="Trazado 594177" d="M386,890.849c.89,3.787,1.073,13.149,1.073,13.149s8.05-7.648,7.265-17.15c-.509-6.165-7.221,2.286-8.339,4" transform="translate(-334.211 -765.938)" fill="#8ccad7"/>
            <path id="Trazado_594178" data-name="Trazado 594178" d="M337.734,931.113c-4.3-17.83-3.06-27.386,2.134-42.81.921-.144,2.985-1.613,6.688,2.591-5.905,10.343-6.684,29.986-5.994,39.515l0,0c.424.543,5.822,4.812,5.822,4.812s-.754.848-2.068-.192c-1.266-1-1.8-.551-1.8-.551s.3,2.117.478,3.082-3.625.278-3.7.093a10.281,10.281,0,0,1-1.646-2.814,8.048,8.048,0,0,1,0-3.337Z" transform="translate(-290.164 -768.804)" fill="#f0c0a7"/>
            <path id="Trazado_594179" data-name="Trazado 594179" d="M339.422,860.559s-.135-20.269,10.443-34.528c-1.066-9.68-7.561-9.843-7.935-9.143a68.771,68.771,0,0,0-6.9,44.006Z" transform="translate(-289.158 -707.072)" fill="#fff"/>
            <path id="Trazado_594180" data-name="Trazado 594180" d="M317.565,1220.574l1.664,13.533a175.135,175.135,0,0,0,20.3-2.073c-.174-5.929-.595-8.938-3.559-17.538a49.028,49.028,0,0,1-18.406,6.077" transform="translate(-274.957 -1051.547)" fill="#fff"/>
            <g id="Grupo_879556" data-name="Grupo 879556" transform="translate(56.489 168.549)" style="mix-blend-mode: multiply;isolation: isolate">
              <g id="Grupo_879555" data-name="Grupo 879555">
                <g id="Grupo_879554" data-name="Grupo 879554" clip-path="url(#clip-path-5)">
                  <path id="Trazado_594181" data-name="Trazado 594181" d="M421.957,1256.235a30.277,30.277,0,0,1,2,8.651,2.271,2.271,0,0,1-.918.177,44.362,44.362,0,0,0-2.012-8.6Z" transform="translate(-421.024 -1256.235)" fill="#b1dee8"/>
                </g>
              </g>
            </g>
            <g id="Grupo_879559" data-name="Grupo 879559" transform="translate(51.464 168.431)" style="mix-blend-mode: multiply;isolation: isolate">
              <g id="Grupo_879558" data-name="Grupo 879558">
                <g id="Grupo_879557" data-name="Grupo 879557" clip-path="url(#clip-path-6)">
                  <path id="Trazado_594182" data-name="Trazado 594182" d="M384.5,1255.352a43.368,43.368,0,0,1,2.552,11.523,2.25,2.25,0,0,1-.914.191,51.809,51.809,0,0,0-2.566-11.473Z" transform="translate(-383.574 -1255.352)" fill="#b1dee8"/>
                </g>
              </g>
            </g>
            <g id="Grupo_879562" data-name="Grupo 879562" transform="translate(48.933 170.052)" style="mix-blend-mode: multiply;isolation: isolate">
              <g id="Grupo_879561" data-name="Grupo 879561">
                <g id="Grupo_879560" data-name="Grupo 879560" clip-path="url(#clip-path-7)">
                  <path id="Trazado_594183" data-name="Trazado 594183" d="M365.646,1267.435a33.474,33.474,0,0,1,1.844,10.379,2.246,2.246,0,0,1-.921.153,40.087,40.087,0,0,0-1.861-10.33Z" transform="translate(-364.708 -1267.435)" fill="#b1dee8"/>
                </g>
              </g>
            </g>
            <g id="Grupo_879565" data-name="Grupo 879565" transform="translate(46.217 170.675)" style="mix-blend-mode: multiply;isolation: isolate">
              <g id="Grupo_879564" data-name="Grupo 879564">
                <g id="Grupo_879563" data-name="Grupo 879563" clip-path="url(#clip-path-8)">
                  <path id="Trazado_594184" data-name="Trazado 594184" d="M345.418,1272.074a20.976,20.976,0,0,1,1.34,9.682,2.265,2.265,0,0,1-.931.062,24.448,24.448,0,0,0-1.362-9.635Z" transform="translate(-344.464 -1272.074)" fill="#b1dee8"/>
                </g>
              </g>
            </g>
            <path id="Trazado_594185" data-name="Trazado 594185" d="M358.22,1232.418s.624,3.136.81,3.955a4.148,4.148,0,0,1,.063,2.236,1.972,1.972,0,0,1-1.38.472c-.319-.029-.72-.577-1.383-2,.117.705.837,1.762.016,1.8a26.131,26.131,0,0,1-1.485-2.784,34.945,34.945,0,0,1-1.5-3.423Z" transform="translate(-305.951 -1067.064)" fill="#f0c0a7"/>
            <path id="Trazado_594186" data-name="Trazado 594186" d="M2202.959,1053.562s.286-.324.591-.213.009,1.493.009,1.493Z" transform="translate(-1907.388 -912)" fill="#f5bb90"/>
            <path id="Trazado_594187" data-name="Trazado 594187" d="M2200.2,1030.657l-1.582-.246s-.481.621.7,1.2a14.811,14.811,0,0,0,2.031.83Z" transform="translate(-1903.547 -892.16)" fill="#f5bb90"/>
            <path id="Trazado_594188" data-name="Trazado 594188" d="M2329.667,1318.607c.072-1.839,1.863-8.405,5.188-8.989,7.011-1.232,31.089-1.4,31.089-1.4s15.915-1.641,20.924-2.222c.447,1.968,2.48,9.032-.025,12.612Z" transform="translate(-2017.096 -1130.769)" fill="#003853"/>
            <path id="Trazado_594189" data-name="Trazado 594189" d="M504.355,682.388c-2.121-.553-7.059,3.569-8.894,7.231-1.012,1.378-2.2,3.235-2.444,2.943-3.283-4.47-5.635-6.172-4.7-7.827,3.063-3.421,2.236-5.143,2.236-5.143s13.808-20.012,13.8,2.8" transform="translate(-422.623 -581.38)" fill="#e1b39d"/>
            <path id="Trazado_594190" data-name="Trazado 594190" d="M542.482,635.9s1.512-.574.235,1.878a2.264,2.264,0,0,0,.973,3.388s1.384,5.841,3.846,6.362a20.157,20.157,0,0,0,3.555.537c.254.012.838-.084.872-.336s.7-5.4.7-5.4a.754.754,0,0,0,.505-1.151c-.8-1.452-1.554-3.048-2.186-4.495-.885-2.027-.991-2.3-1.375-3.1-1.423-2.981-5.336-2.364-6.554-.232-.134.235-.57,2.549-.57,2.549" transform="translate(-469.56 -546.815)" fill="#f0c0a7"/>
            <path id="Trazado_594191" data-name="Trazado 594191" d="M424.438,649.86s.22-.9-2.415-.179c-4.07,1.118-4.229,3.748-6,7.469a19.438,19.438,0,0,0-1.91,6.99c-.122,3.012.445,4.729,1.513,5.219,4.115-2.236,5.591-2.37,8.318-3.846.76-3.131-1.141-10.252-.76-12.031a6.474,6.474,0,0,1,.85-2.1Z" transform="translate(-358.538 -562.269)" fill="#144665"/>
            <path id="Trazado_594192" data-name="Trazado 594192" d="M492.137,616.452a9.746,9.746,0,0,1,1.165-2.2c.892-1.335,2.037-2.128,5.05-2.85,12.336-2.953,7.707,4.393,7.707,4.393s-3.025-1.359-3.088,1.685c-.035,1.777-.524,2.432-.917,2.6-1.934-1.658-3.512-.569-3.2,1.615.459,3.244-4.483,5.49-5.14,5.561-2.93-4.614-1.576-10.8-1.576-10.8" transform="translate(-425.837 -528.766)" fill="#144665"/>
            <path id="Trazado_594193" data-name="Trazado 594193" d="M487.893,651.033a.641.641,0,1,1-1.263-.225l.245-1.5a.642.642,0,1,1,1.264.226Z" transform="translate(-421.329 -561.732)" fill="#f8b532"/>
            <path id="Trazado_594194" data-name="Trazado 594194" d="M2813.392,1155c1.714-7.6,8.271-37.939,8.271-37.939l-17.151,1.335s-2.7,32.811-.2,36.6Z" transform="translate(-2427.138 -967.186)" fill="#e1b39d"/>
            <path id="Trazado_594195" data-name="Trazado 594195" d="M2848.026,1159.87c-1.543-6.9,1.8-25.108,1.8-25.108s.84-7.253,0-11.405a31.968,31.968,0,0,0-14.457.322c.973,27.8,1.495,31.5,3.149,36.192Z" transform="translate(-2454.952 -972.054)" fill="#f0c0a7"/>
            <path id="Trazado_594196" data-name="Trazado 594196" d="M2800.93,750.319s-10.567,6.938-4.033,20.652c10.325-5.647,12.907-17.505,12.907-17.505Z" transform="translate(-2419.792 -649.648)" fill="#fff"/>
            <path id="Trazado_594197" data-name="Trazado 594197" d="M2801.7,803.188c1.936,10.528-2.966,13.335-4.58,31h-19.383c-.215-5.748,1.112-33.914,1.266-36.367.72-22-4.917-20.7-3.435-30.017a30.376,30.376,0,0,1,5.914-13.361l1.308-.436s-5.4,9.274-2.244,14.246c2.5-5.164,5.536-9.723,8.708-15.6,3.683,2.286,12.83,6.969,10.344,18.9-9.185,27.788-.29,18.621,2.1,31.631" transform="translate(-2402.951 -651.671)" fill="#144665"/>
            <path id="Trazado_594198" data-name="Trazado 594198" d="M2783.109,792.221l17.107-1.275a56.346,56.346,0,0,1,.6-9.794c.8-5.367,1.61-16.57-.805-20.327a50.751,50.751,0,0,0-6-7.309s-6.884,3.553-9.7,9.188c-4.075,8.15-4.159,9.929-2.817,13.82s1.61,15.7,1.61,15.7" transform="translate(-2407.635 -652.416)" fill="#fff"/>
            <path id="Trazado_594199" data-name="Trazado 594199" d="M2824.146,794.349l11.807-.336s2.482-12.344,3.958-19.32-4.734-12.538-6.392-13.716-3-1.982-3-1.982-7.916,12.075-8.319,19.052,1.946,16.3,1.946,16.3" transform="translate(-2443.506 -657.16)" fill="#144665"/>
          </g>
        </g>
        <g id="Grupo_879569" data-name="Grupo 879569" transform="translate(374.109 86.572)">
          <g id="Grupo_879568" data-name="Grupo 879568" clip-path="url(#clip-path-9)">
            <rect id="Rectángulo_298079" data-name="Rectángulo 298079" width="21.323" height="29.434" transform="translate(-9.282 3.153) rotate(-20.137)" fill="url(#linear-gradient)"/>
          </g>
        </g>
        <g id="Grupo_879571" data-name="Grupo 879571" transform="translate(0 -0.001)">
          <g id="Grupo_879570" data-name="Grupo 879570" clip-path="url(#clip-path-3)">
            <path id="Trazado_594201" data-name="Trazado 594201" d="M2752.988,605.444a5.729,5.729,0,0,0-6.724,3.957c-1.812,4.823,3.656,7.4,3.956,7.514.385-3.85,2.768-11.471,2.768-11.471" transform="translate(-2377.481 -524.104)" fill="#144665"/>
            <path id="Trazado_594202" data-name="Trazado 594202" d="M2780.584,658.952c2.184-.179,4.8,4.554,5.982,8.477-.269,1.476-.957,5.7-.671,5.456,4.472-2.191,5.823-8.863,6.574-9.124-1-2.064-.76-6.932-.76-6.932s-7.208-20.346-11.125,2.122" transform="translate(-2407.514 -561.391)" fill="#e1b39d"/>
            <path id="Trazado_594203" data-name="Trazado 594203" d="M2770.64,615.946s1.458-2.522,3.15-.335-1.842,4.607-1.842,4.607-1.736,5.432-4.189,6a32.315,32.315,0,0,1-4.869.66c-.254.008-.674-.022-.753-.263s-.68-5.379-.68-5.379-1.027-.087-.7-1.043c.534-1.571.989-3.275,1.354-4.811.511-2.152.568-2.435.8-3.3.872-3.187,5.307-2.741,7.01-.973s.716,4.836.716,4.836" transform="translate(-2390.291 -527.924)" fill="#f0c0a7"/>
            <path id="Trazado_594204" data-name="Trazado 594204" d="M2705.5,843.485l2.952-1.99a4.026,4.026,0,0,1,3.22,2.818c.671,2.482-4.7,1.476-4.7,1.476Z" transform="translate(-2342.504 -728.591)" fill="#fff"/>
            <path id="Trazado_594205" data-name="Trazado 594205" d="M2714.751,863.468s2.773,1.185,3.757.738c.587-.267,1.252-1.342.715-1.968s-8.02-19.269-9.392-21.2a3.419,3.419,0,0,0-3.4-1.386s3.413,1.5,2.482,2.281c-1.274,1.073-4.45,0-4.9-.089s-.179,0,.268,1.252,10.465,20.371,10.465,20.371" transform="translate(-2341.021 -726.95)" fill="#144665"/>
            <path id="Trazado_594206" data-name="Trazado 594206" d="M2832.114,806.459c-3.745-6.025-12.685-1.414-9.264,4.87,4.969,9.124,9.236,13.6,9.236,13.6l-16.459-1-.741,2.987s17.671,5.085,21.873,5.111,3.3-5.56.576-12.419-5.22-13.153-5.22-13.153" transform="translate(-2437.213 -695.822)" fill="#f0c0a7"/>
            <path id="Trazado_594207" data-name="Trazado 594207" d="M2878.756,797.086a71.616,71.616,0,0,0-4-8.457c-4.909-8-12.65-4.993-9.151,5.505a25.238,25.238,0,0,0,4.578,7.428Z" transform="translate(-2480.369 -678.88)" fill="#fff"/>
            <path id="Trazado_594208" data-name="Trazado 594208" d="M2739.028,923.081c.128-.636-.837-.658-1.068-1.33a.981.981,0,0,1,.376-1.1l-1.632-.527c-.671-.139-.24-1.352.239-1.341,1.5.032,4.216.525,5.245.576.131-.1.341-.537-.223-1.518-.862-1.5-.544-2.48-.149-2.567a20.276,20.276,0,0,0,3.589,3.545c.966.568,2.038.972,2.27,1.766l1.664.351-.735,2.507-1.71.23s-.549.089-1.768.345-2.323.925-4.383.814c-.472-.064-1.973-.476-1.716-1.747" transform="translate(-2369.222 -792.468)" fill="#f0c0a7"/>
            <path id="Trazado_594209" data-name="Trazado 594209" d="M2799.777,608.185a5.422,5.422,0,0,1-2.635.143,30.14,30.14,0,0,0-5.854-11.152c-4.284-4.932-11.578-3.3-12.142-.3-.016.544-1.443,3.308.031,4.793-.01.026-.02.05-.028.073l.126.02c.7.628,1.553.571,2.178.857a3.274,3.274,0,0,1,1.142,2.394,18.816,18.816,0,0,0,3.014,9.318,7.74,7.74,0,0,0,4.841,3.8c7.188,2.377,13.219-5.241,9.328-9.948" transform="translate(-2405.718 -514.327)" fill="#144665"/>
            <path id="Trazado_594210" data-name="Trazado 594210" d="M2251.145,996.431s-10.41,22.458-12.606,26.889c-8.47-1.77-9.64,2.761-24.167,2.505.143,4.729,1.469,5.556,1.469,5.556s17.992.053,24.359-.5,21.024-24.595,21.024-24.595Z" transform="translate(-1917.27 -862.74)" fill="#d2e8f2"/>
            <path id="Trazado_594211" data-name="Trazado 594211" d="M2484.483,975.817s-11.177-20.139-14.8-29.68c-1.526-4.018-2.957-12.2-1.614-15.576.085-.217-1.227-3.244-1.116-3.444,2.664-4.8,10.734-7.373,10.734-7.373l2.247.2-.477,1.308s11.039,3.311,19.284,18c6.854,12.211,6.347,23.263,8.473,33.214.6,2.823-22.73,3.348-22.73,3.348" transform="translate(-2135.955 -796.342)" fill="#fff"/>
            <path id="Trazado_594212" data-name="Trazado 594212" d="M2417.426,847.125c1.055-.062,7.725,4.273,9.782,7.4,4.441-2.361,7.684-5.9,8.542-6.116a27.506,27.506,0,0,1-3.141-4.905s-9.231-19.174-15.183,3.618" transform="translate(-2093.081 -723.803)" fill="#e1b39d"/>
            <path id="Trazado_594213" data-name="Trazado 594213" d="M2412.281,799.478s1.465-2.43,3.073-.271-1.874,4.452-1.874,4.452-1.639,5.557-4.036,6.063a31.491,31.491,0,0,1-4.751.555c-.247,0-.655-.033-.728-.27s-.732-7.588-.732-7.588-1.337.286-.985-.633c1.518-3.96,2.237-5.851,2.849-7.438,0,0,4.075-4.694,5.7-2.943s1.485,8.072,1.485,8.072" transform="translate(-2079.887 -684.884)" fill="#f0c0a7"/>
            <path id="Trazado_594214" data-name="Trazado 594214" d="M2421.812,787.75s1.965,2,2.584.579a1.53,1.53,0,0,1,2.723-.515c.9.914-.249,2.962.575,4.413.54.95,3.666.565,4.088.628.066-2.443,1.921-11.526.417-12.728a20.624,20.624,0,0,0-10.679-3.485c-4.325.014-6.856,1.7-4.373,5.254,11.139-7.415,4.665,5.853,4.665,5.853" transform="translate(-2091.992 -672.44)" fill="#144665"/>
            <path id="Trazado_594215" data-name="Trazado 594215" d="M2543.285,1069.883c-4.572,4.941-19.052.537-19.052.537L2519,1061.43s6.614-2.688,5.058-7.5c-6.044-18.693,4.6-13.585,8.558-8.395,9.869,12.945,11.426,19.225,10.668,24.348" transform="translate(-2181.026 -901.097)" fill="#d2e8f2"/>
            <path id="Trazado_594216" data-name="Trazado 594216" d="M2455.933,984.069a2.72,2.72,0,0,0-1.358,2.325,3.393,3.393,0,0,0,.306,1.917,34.917,34.917,0,0,0-3.775,15.87c-.074,14.394.215,26.644.215,26.644l4.97,4.6,3.425-5.773a231.54,231.54,0,0,1-4.586-26.183c-1.093-9.68,1.138-14.794,1.138-14.794s.856-1.107,1.957-2.3a9.5,9.5,0,0,1-2.291-2.311" transform="translate(-2122.231 -852.036)" fill="#177e9d"/>
            <path id="Trazado_594217" data-name="Trazado 594217" d="M2489.667,927.972a8.915,8.915,0,0,0,3.443,3.03c3.824-7.083,7.254-8.312,7.254-8.312a17.391,17.391,0,0,1-.769-1.7c-3.831,1.424-9.928,6.977-9.928,6.977" transform="translate(-2155.629 -797.425)" fill="#d2e8f2"/>
            <path id="Trazado_594218" data-name="Trazado 594218" d="M2266.192,1134.552a46.684,46.684,0,0,0-7.347-3.35c-.335,1.793,3.243,2.98,3.243,2.98s-9.461,1.088-9.9,1.193-.432,1.047-.432,1.047-1.188.354-.411.8,5.446.536,5.446.536-3.229.518-3.535.508-.046,1.165,2.46,1.226c.953.024,7.658,1.014,9.16-1.249a17.527,17.527,0,0,0,2.222-.438Z" transform="translate(-1949.055 -979.428)" fill="#f0c0a7"/>
            <path id="Trazado_594219" data-name="Trazado 594219" d="M2360.528,989.262s29.812,2.479,31.6,2.659c.549-1.378-8.273-12.482-7.8-21.607.29-5.647,5.829-9.689,10.234-3.612,4,5.52,7.6,17.471,8.622,25.637.564,4.491.3,8.256-7.3,8.544-10.62.4-34.894-6.607-34.894-6.607Z" transform="translate(-2043.817 -834.378)" fill="#fff"/>
            <path id="Trazado_594220" data-name="Trazado 594220" d="M2137.545,1205.1l-1.525.087s-7.82-5.382-10.42,2.467c.518.435,1.072.246,1.492-.539.4.268,1.142.1,2.2-.837a1.794,1.794,0,0,1,3,.641c.226.532-.4.405-2.171.567-1.928.176-1.842.429-2.077,1.05.627.364,3.54.01,5.063.487a3.186,3.186,0,0,0,2.811-.665l2.064-.133Z" transform="translate(-1840.409 -1041.927)" fill="#f0c0a7"/>
            <path id="Trazado_594221" data-name="Trazado 594221" d="M2406,1325.289c.134-.268.443-3.076,3.3-3.66,6.023-1.232,23.623-5.072,23.623-5.072s17.142-2.263,21.445-2.845c.385,1.968,1.409,9.161.47,11.577Z" transform="translate(-2083.188 -1137.452)" fill="#144665"/>
          </g>
        </g>
      </g>
    </g>
  </g>
</svg>
