<svg xmlns="http://www.w3.org/2000/svg" xmlns:xlink="http://www.w3.org/1999/xlink" width="402" height="402.056" viewBox="0 0 402 402.056">
  <defs>
    <clipPath id="clip-path">
      <rect id="Rectángulo_377638" data-name="Rectángulo 377638" width="81.711" height="87.22" fill="#03386e"/>
    </clipPath>
  </defs>
  <g id="Grupo_1072194" data-name="Grupo 1072194" transform="translate(-3359.066 7757)">
    <path id="Trazado_836471" data-name="Trazado 836471" d="M0,0H402V402H0Z" transform="translate(3359.066 -7757)" fill="#fff"/>
    <g id="Grupo_877272" data-name="Grupo 877272" transform="translate(3359.066 -7756.562)" opacity="0.534">
      <path id="Trazado_263272" data-name="Trazado 263272" d="M0,110.836C0,215.4,84.766,300.167,189.331,300.167V110.836Z" transform="translate(0 101.451)" fill="#03386e"/>
      <path id="Trazado_263273" data-name="Trazado 263273" d="M189.331,0C84.766,0,0,84.766,0,189.331H189.331Z" transform="translate(0 0)" fill="#d2f1dc"/>
      <path id="Trazado_263274" data-name="Trazado 263274" d="M110.836,300.167c104.565,0,189.331-84.766,189.331-189.331H110.836Z" transform="translate(101.45 101.451)" fill="#0c5e46"/>
      <path id="Trazado_263275" data-name="Trazado 263275" d="M110.836,0V189.331H300.167C300.167,84.766,215.4,0,110.836,0" transform="translate(101.45 0)" fill="#6debff"/>
    </g>
    <g id="Grupo_877270" data-name="Grupo 877270" transform="translate(3371.138 -7744.49)">
      <path id="Trazado_263272-2" data-name="Trazado 263272" d="M0,110.836A177.949,177.949,0,0,0,177.949,288.785V110.836Z" transform="translate(0 88.689)" fill="#03386e"/>
      <path id="Trazado_263273-2" data-name="Trazado 263273" d="M177.949,0A177.949,177.949,0,0,0,0,177.949H177.949Z" transform="translate(0 0)" fill="#d2f1dc"/>
      <path id="Trazado_263274-2" data-name="Trazado 263274" d="M110.836,288.785A177.949,177.949,0,0,0,288.785,110.836H110.836Z" transform="translate(88.688 88.689)" fill="#0c5e46"/>
      <path id="Trazado_263275-2" data-name="Trazado 263275" d="M110.836,0V177.949H288.785A177.949,177.949,0,0,0,110.836,0" transform="translate(88.688 0)" fill="#6debff"/>
    </g>
    <path id="Trazado_836472" data-name="Trazado 836472" d="M0,0H355.9V355.9H0Z" transform="translate(3381.926 -7733.703)" fill="none"/>
    <path id="Trazado_836473" data-name="Trazado 836473" d="M32.712,15V3.625h3.664a5.39,5.39,0,0,1,2.711.684,4.805,4.805,0,0,1,1.879,1.93,5.826,5.826,0,0,1,.684,2.793v.523a5.86,5.86,0,0,1-.66,2.8,4.826,4.826,0,0,1-1.859,1.938A5.271,5.271,0,0,1,36.454,15Zm2.742-9.258v7.148h.953a2.133,2.133,0,0,0,1.813-.84,4.116,4.116,0,0,0,.633-2.5V9.063a4.082,4.082,0,0,0-.633-2.484,2.17,2.17,0,0,0-1.844-.836Zm14.656,4.43H45.8v2.719h5.094V15H43.055V3.625h7.852V5.742H45.8v2.4H50.11ZM10.384,40H7.649V28.625h2.734Zm5.508-11.375,2.539,7.914,2.531-7.914h3.609V40h-2.75V37.344l.266-5.437L19.337,40H17.524l-2.758-8.1.266,5.445V40H12.29V28.625Zm13.164,7.516V40H26.313V28.625h4.539a5.287,5.287,0,0,1,2.309.48,3.621,3.621,0,0,1,1.555,1.367,3.734,3.734,0,0,1,.551,2.012,3.291,3.291,0,0,1-1.191,2.66,4.943,4.943,0,0,1-3.27,1Zm0-2.117h1.8a1.7,1.7,0,0,0,1.215-.4,1.48,1.48,0,0,0,.418-1.125,1.83,1.83,0,0,0-.43-1.273,1.522,1.522,0,0,0-1.172-.484H29.055ZM41.8,37.875H38.04L37.384,40h-2.93l4.172-11.375H41.2L45.407,40H42.462Zm-3.1-2.117h2.445l-1.227-3.945Zm16.578.391a4.154,4.154,0,0,1-.641,2.1,3.866,3.866,0,0,1-1.645,1.41,5.6,5.6,0,0,1-2.418.5A4.467,4.467,0,0,1,47.04,38.7a6.032,6.032,0,0,1-1.289-4.125v-.562a6.885,6.885,0,0,1,.582-2.926,4.41,4.41,0,0,1,1.676-1.937,4.676,4.676,0,0,1,2.531-.684,4.9,4.9,0,0,1,3.328,1.09,4.306,4.306,0,0,1,1.43,3H52.563a2.037,2.037,0,0,0-.523-1.492,2.153,2.153,0,0,0-1.5-.453,1.638,1.638,0,0,0-1.5.766,4.921,4.921,0,0,0-.5,2.445v.8a5.445,5.445,0,0,0,.457,2.6,1.672,1.672,0,0,0,1.574.781,2.106,2.106,0,0,0,1.445-.445,1.89,1.89,0,0,0,.531-1.414Zm10-5.406H61.86V40H59.118V30.742H55.766V28.625h9.508Zm10.57,3.8a6.708,6.708,0,0,1-.617,2.945,4.561,4.561,0,0,1-1.754,1.973,4.884,4.884,0,0,1-2.59.691,4.953,4.953,0,0,1-2.578-.668,4.554,4.554,0,0,1-1.754-1.91,6.515,6.515,0,0,1-.66-2.852v-.641a6.738,6.738,0,0,1,.613-2.949,4.55,4.55,0,0,1,1.758-1.973,5.2,5.2,0,0,1,5.184-.008,4.632,4.632,0,0,1,1.762,1.957,6.544,6.544,0,0,1,.637,2.91Zm-2.789-.477a4.783,4.783,0,0,0-.566-2.574,1.817,1.817,0,0,0-1.621-.879q-2.062,0-2.18,3.094l-.008.836a4.92,4.92,0,0,0,.555,2.57,1.814,1.814,0,0,0,1.648.9,1.792,1.792,0,0,0,1.6-.883,4.785,4.785,0,0,0,.57-2.539Z" transform="translate(3419.374 -7666.56)" fill="#12263f"/>
    <path id="Trazado_836474" data-name="Trazado 836474" d="M41.12,15V3.625h3.664a5.39,5.39,0,0,1,2.711.684,4.805,4.805,0,0,1,1.879,1.93,5.826,5.826,0,0,1,.684,2.793v.523a5.86,5.86,0,0,1-.66,2.8,4.826,4.826,0,0,1-1.859,1.938A5.271,5.271,0,0,1,44.862,15Zm2.742-9.258v7.148h.953a2.133,2.133,0,0,0,1.813-.84,4.116,4.116,0,0,0,.633-2.5V9.063a4.082,4.082,0,0,0-.633-2.484,2.17,2.17,0,0,0-1.844-.836Zm14.656,4.43H54.206v2.719H59.3V15H51.464V3.625h7.852V5.742H54.206v2.4h4.313Zm-52.8,25.8H4.229V40H1.487V28.625H5.964a5,5,0,0,1,3.164.9,3.041,3.041,0,0,1,1.141,2.536,3.693,3.693,0,0,1-.48,1.967,3.41,3.41,0,0,1-1.5,1.264l2.375,4.593V40H7.722ZM4.229,33.867H5.964a1.557,1.557,0,0,0,1.176-.411,1.59,1.59,0,0,0,.395-1.147,1.608,1.608,0,0,0-.4-1.155,1.542,1.542,0,0,0-1.172-.419H4.229Zm14.75,1.3H14.667v2.719h5.094V40H11.925V28.625h7.852v2.117H14.667v2.4h4.313Zm7.766,1.8a1.127,1.127,0,0,0-.426-.937,5.292,5.292,0,0,0-1.5-.7,14.353,14.353,0,0,1-1.75-.7,3.314,3.314,0,0,1-2.211-2.984A2.676,2.676,0,0,1,21.413,30a3.562,3.562,0,0,1,1.559-1.125,6.065,6.065,0,0,1,2.266-.4,5.305,5.305,0,0,1,2.2.438,3.482,3.482,0,0,1,1.512,1.246A3.254,3.254,0,0,1,29.487,32H26.753a1.375,1.375,0,0,0-.426-1.078,1.66,1.66,0,0,0-1.152-.383,1.872,1.872,0,0,0-1.16.324.955.955,0,0,0,.043,1.617,5.911,5.911,0,0,0,1.648.734,10.1,10.1,0,0,1,1.938.816,3.256,3.256,0,0,1,1.844,2.93A2.778,2.778,0,0,1,28.362,39.3a5,5,0,0,1-3.086.852,6.122,6.122,0,0,1-2.5-.5A3.775,3.775,0,0,1,21.085,38.3a3.542,3.542,0,0,1-.566-1.988h2.75a1.744,1.744,0,0,0,.473,1.348,2.234,2.234,0,0,0,1.535.434,1.765,1.765,0,0,0,1.074-.293A.967.967,0,0,0,26.745,36.977Zm13.07-8.352V36.07a4.279,4.279,0,0,1-.539,2.191,3.492,3.492,0,0,1-1.547,1.41,5.449,5.449,0,0,1-2.383.484,4.708,4.708,0,0,1-3.273-1.078,3.845,3.845,0,0,1-1.219-2.953v-7.5h2.758V36.18q.047,1.867,1.734,1.867a1.679,1.679,0,0,0,1.289-.469,2.191,2.191,0,0,0,.438-1.523v-7.43Zm4.453,9.266h4.773V40H41.526V28.625h2.742Zm13.258-7.148H54.112V40H51.37V30.742H48.019V28.625h9.508Zm6.68,7.133H60.448L59.792,40h-2.93l4.172-11.375h2.578L67.815,40H64.87Zm-3.1-2.117H63.55l-1.227-3.945ZM68.644,40V28.625h3.664a5.39,5.39,0,0,1,2.711.684,4.805,4.805,0,0,1,1.879,1.93,5.826,5.826,0,0,1,.684,2.793v.523a5.86,5.86,0,0,1-.66,2.8,4.826,4.826,0,0,1-1.859,1.938A5.271,5.271,0,0,1,72.386,40Zm2.742-9.258v7.148h.953a2.133,2.133,0,0,0,1.813-.84,4.116,4.116,0,0,0,.633-2.5v-.492a4.082,4.082,0,0,0-.633-2.484,2.17,2.17,0,0,0-1.844-.836Zm17.234,3.8A6.708,6.708,0,0,1,88,37.492a4.561,4.561,0,0,1-1.754,1.973,4.884,4.884,0,0,1-2.59.691,4.953,4.953,0,0,1-2.578-.668,4.554,4.554,0,0,1-1.754-1.91,6.515,6.515,0,0,1-.66-2.852v-.641a6.738,6.738,0,0,1,.613-2.949,4.55,4.55,0,0,1,1.758-1.973,5.2,5.2,0,0,1,5.184-.008,4.632,4.632,0,0,1,1.762,1.957,6.544,6.544,0,0,1,.637,2.91Zm-2.789-.477a4.783,4.783,0,0,0-.566-2.574,1.817,1.817,0,0,0-1.621-.879q-2.062,0-2.18,3.094l-.008.836a4.92,4.92,0,0,0,.555,2.57,1.814,1.814,0,0,0,1.648.9,1.792,1.792,0,0,0,1.6-.883,4.785,4.785,0,0,0,.57-2.539ZM95.9,36.977a1.127,1.127,0,0,0-.426-.937,5.292,5.292,0,0,0-1.5-.7,14.353,14.353,0,0,1-1.75-.7,3.314,3.314,0,0,1-2.211-2.984A2.676,2.676,0,0,1,90.569,30a3.562,3.562,0,0,1,1.559-1.125,6.065,6.065,0,0,1,2.266-.4,5.305,5.305,0,0,1,2.2.438A3.482,3.482,0,0,1,98.1,30.152,3.254,3.254,0,0,1,98.644,32H95.909a1.375,1.375,0,0,0-.426-1.078,1.66,1.66,0,0,0-1.152-.383,1.872,1.872,0,0,0-1.16.324.955.955,0,0,0,.043,1.617,5.911,5.911,0,0,0,1.648.734,10.1,10.1,0,0,1,1.938.816,3.256,3.256,0,0,1,1.844,2.93A2.778,2.778,0,0,1,97.519,39.3a5,5,0,0,1-3.086.852,6.122,6.122,0,0,1-2.5-.5A3.775,3.775,0,0,1,90.241,38.3a3.542,3.542,0,0,1-.566-1.988h2.75A1.745,1.745,0,0,0,92.9,37.66a2.234,2.234,0,0,0,1.535.434,1.765,1.765,0,0,0,1.074-.293A.967.967,0,0,0,95.9,36.977Z" transform="translate(3410.874 -7478.169)" fill="#fff"/>
    <path id="Trazado_836475" data-name="Trazado 836475" d="M12.945,10.469H8.523V15H5.781V3.625h7.609V5.742H8.523V8.359h4.422Zm11.219-.922a6.708,6.708,0,0,1-.617,2.945,4.561,4.561,0,0,1-1.754,1.973,4.884,4.884,0,0,1-2.59.691,4.953,4.953,0,0,1-2.578-.668,4.554,4.554,0,0,1-1.754-1.91,6.515,6.515,0,0,1-.66-2.852V9.086a6.737,6.737,0,0,1,.613-2.949,4.55,4.55,0,0,1,1.758-1.973,5.2,5.2,0,0,1,5.184-.008,4.632,4.632,0,0,1,1.762,1.957,6.544,6.544,0,0,1,.637,2.91ZM21.375,9.07A4.783,4.783,0,0,0,20.809,6.5a1.817,1.817,0,0,0-1.621-.879q-2.062,0-2.18,3.094L17,9.547a4.92,4.92,0,0,0,.555,2.57,1.814,1.814,0,0,0,1.648.9,1.792,1.792,0,0,0,1.6-.883,4.785,4.785,0,0,0,.57-2.539Zm8.43,1.906H28.32V15H25.578V3.625h4.477a5,5,0,0,1,3.164.9,3.041,3.041,0,0,1,1.141,2.536,3.693,3.693,0,0,1-.48,1.967,3.41,3.41,0,0,1-1.5,1.264l2.375,4.593V15H31.813ZM28.32,8.867h1.734a1.557,1.557,0,0,0,1.176-.411,1.59,1.59,0,0,0,.395-1.147,1.608,1.608,0,0,0-.4-1.155,1.542,1.542,0,0,0-1.172-.419H28.32Zm11.3-5.242,2.539,7.914,2.531-7.914H48.3V15h-2.75V12.344l.266-5.437L43.063,15H41.25L38.492,6.9l.266,5.445V15H36.016V3.625Zm17.023,9.25H52.883L52.227,15H49.3L53.469,3.625h2.578L60.25,15H57.3Zm-3.1-2.117h2.445L54.758,6.813ZM69.07,5.742H65.656V15H62.914V5.742H59.563V3.625H69.07ZM73.148,15H70.414V3.625h2.734Zm6.32-3.094,2.266-8.281H84.8L80.969,15h-3l-3.8-11.375h3.039Zm12.031.969H87.742L87.086,15h-2.93L88.328,3.625h2.578L95.109,15H92.164Zm-3.1-2.117h2.445L89.617,6.813Z" transform="translate(3608.236 -7652.56)" fill="#12263f"/>
    <path id="Trazado_836476" data-name="Trazado 836476" d="M42.211,15V3.625h3.664a5.39,5.39,0,0,1,2.711.684,4.805,4.805,0,0,1,1.879,1.93,5.826,5.826,0,0,1,.684,2.793v.523a5.86,5.86,0,0,1-.66,2.8,4.826,4.826,0,0,1-1.859,1.938A5.271,5.271,0,0,1,45.953,15Zm2.742-9.258v7.148h.953a2.133,2.133,0,0,0,1.813-.84,4.116,4.116,0,0,0,.633-2.5V9.063a4.082,4.082,0,0,0-.633-2.484,2.17,2.17,0,0,0-1.844-.836Zm14.656,4.43H55.3v2.719h5.094V15H52.555V3.625h7.852V5.742H55.3v2.4h4.313ZM13.387,36.141V40H10.645V28.625h4.539a5.287,5.287,0,0,1,2.309.48,3.621,3.621,0,0,1,1.555,1.367,3.734,3.734,0,0,1,.551,2.012,3.291,3.291,0,0,1-1.191,2.66,4.943,4.943,0,0,1-3.27,1Zm0-2.117h1.8a1.7,1.7,0,0,0,1.215-.4,1.48,1.48,0,0,0,.418-1.125,1.83,1.83,0,0,0-.43-1.273,1.522,1.522,0,0,0-1.172-.484H13.387Zm11.9,1.953H23.8V40H21.059V28.625h4.477a5,5,0,0,1,3.164.9,3.041,3.041,0,0,1,1.141,2.536,3.693,3.693,0,0,1-.48,1.967,3.41,3.41,0,0,1-1.5,1.264l2.375,4.593V40H27.293ZM23.8,33.867h1.734a1.557,1.557,0,0,0,1.176-.411,1.59,1.59,0,0,0,.395-1.147,1.608,1.608,0,0,0-.4-1.155,1.542,1.542,0,0,0-1.172-.419H23.8Zm17.328.68a6.708,6.708,0,0,1-.617,2.945,4.561,4.561,0,0,1-1.754,1.973,4.884,4.884,0,0,1-2.59.691,4.953,4.953,0,0,1-2.578-.668,4.554,4.554,0,0,1-1.754-1.91,6.515,6.515,0,0,1-.66-2.852v-.641a6.737,6.737,0,0,1,.613-2.949,4.55,4.55,0,0,1,1.758-1.973,5.2,5.2,0,0,1,5.184-.008,4.632,4.632,0,0,1,1.762,1.957,6.544,6.544,0,0,1,.637,2.91ZM38.34,34.07a4.783,4.783,0,0,0-.566-2.574,1.817,1.817,0,0,0-1.621-.879q-2.062,0-2.18,3.094l-.008.836a4.92,4.92,0,0,0,.555,2.57,1.814,1.814,0,0,0,1.648.9,1.792,1.792,0,0,0,1.6-.883,4.785,4.785,0,0,0,.57-2.539Zm13.406,2.078a4.154,4.154,0,0,1-.641,2.1,3.866,3.866,0,0,1-1.645,1.41,5.6,5.6,0,0,1-2.418.5A4.467,4.467,0,0,1,43.512,38.7a6.032,6.032,0,0,1-1.289-4.125v-.562a6.885,6.885,0,0,1,.582-2.926,4.41,4.41,0,0,1,1.676-1.937,4.676,4.676,0,0,1,2.531-.684,4.9,4.9,0,0,1,3.328,1.09,4.306,4.306,0,0,1,1.43,3H49.035a2.037,2.037,0,0,0-.523-1.492,2.153,2.153,0,0,0-1.5-.453,1.638,1.638,0,0,0-1.5.766,4.921,4.921,0,0,0-.5,2.445v.8a5.445,5.445,0,0,0,.457,2.6,1.672,1.672,0,0,0,1.574.781,2.106,2.106,0,0,0,1.445-.445,1.89,1.89,0,0,0,.531-1.414Zm8.352-.977H55.785v2.719h5.094V40H53.043V28.625h7.852v2.117H55.785v2.4H60.1Zm7.766,1.8a1.127,1.127,0,0,0-.426-.937,5.292,5.292,0,0,0-1.5-.7,14.353,14.353,0,0,1-1.75-.7,3.314,3.314,0,0,1-2.211-2.984A2.676,2.676,0,0,1,62.531,30a3.562,3.562,0,0,1,1.559-1.125,6.065,6.065,0,0,1,2.266-.4,5.305,5.305,0,0,1,2.2.438,3.482,3.482,0,0,1,1.512,1.246A3.254,3.254,0,0,1,70.605,32H67.871a1.375,1.375,0,0,0-.426-1.078,1.66,1.66,0,0,0-1.152-.383,1.872,1.872,0,0,0-1.16.324.955.955,0,0,0,.043,1.617,5.911,5.911,0,0,0,1.648.734,10.1,10.1,0,0,1,1.938.816,3.256,3.256,0,0,1,1.844,2.93A2.778,2.778,0,0,1,69.48,39.3a5,5,0,0,1-3.086.852,6.122,6.122,0,0,1-2.5-.5A3.775,3.775,0,0,1,62.2,38.3a3.542,3.542,0,0,1-.566-1.988h2.75a1.745,1.745,0,0,0,.473,1.348,2.234,2.234,0,0,0,1.535.434,1.765,1.765,0,0,0,1.074-.293A.967.967,0,0,0,67.863,36.977Zm13.781-2.43a6.708,6.708,0,0,1-.617,2.945,4.561,4.561,0,0,1-1.754,1.973,4.884,4.884,0,0,1-2.59.691,4.953,4.953,0,0,1-2.578-.668,4.554,4.554,0,0,1-1.754-1.91,6.515,6.515,0,0,1-.66-2.852v-.641a6.738,6.738,0,0,1,.613-2.949,4.55,4.55,0,0,1,1.758-1.973,5.2,5.2,0,0,1,5.184-.008,4.632,4.632,0,0,1,1.762,1.957,6.544,6.544,0,0,1,.637,2.91Zm-2.789-.477a4.783,4.783,0,0,0-.566-2.574,1.817,1.817,0,0,0-1.621-.879q-2.062,0-2.18,3.094l-.008.836a4.92,4.92,0,0,0,.555,2.57,1.814,1.814,0,0,0,1.648.9,1.792,1.792,0,0,0,1.6-.883,4.785,4.785,0,0,0,.57-2.539Zm10.07,2.906a1.127,1.127,0,0,0-.426-.937,5.292,5.292,0,0,0-1.5-.7,14.353,14.353,0,0,1-1.75-.7,3.314,3.314,0,0,1-2.211-2.984A2.676,2.676,0,0,1,83.594,30a3.562,3.562,0,0,1,1.559-1.125,6.065,6.065,0,0,1,2.266-.4,5.305,5.305,0,0,1,2.2.438,3.482,3.482,0,0,1,1.512,1.246A3.254,3.254,0,0,1,91.668,32H88.934a1.375,1.375,0,0,0-.426-1.078,1.66,1.66,0,0,0-1.152-.383,1.872,1.872,0,0,0-1.16.324.955.955,0,0,0,.043,1.617,5.911,5.911,0,0,0,1.648.734,10.1,10.1,0,0,1,1.938.816,3.256,3.256,0,0,1,1.844,2.93A2.778,2.778,0,0,1,90.543,39.3a5,5,0,0,1-3.086.852,6.122,6.122,0,0,1-2.5-.5A3.775,3.775,0,0,1,83.266,38.3a3.542,3.542,0,0,1-.566-1.988h2.75a1.745,1.745,0,0,0,.473,1.348,2.234,2.234,0,0,0,1.535.434,1.765,1.765,0,0,0,1.074-.293A.967.967,0,0,0,88.926,36.977Z" transform="translate(3608.236 -7478.169)" fill="#fff"/>
    <path id="Trazado_836477" data-name="Trazado 836477" d="M97.276,0A97.276,97.276,0,1,1,0,97.276,97.276,97.276,0,0,1,97.276,0Z" transform="translate(3450.368 -7643.06)" fill="#fff"/>
    <path id="Trazado_836478" data-name="Trazado 836478" d="M11.852,10.172H7.539v2.719h5.094V15H4.8V3.625h7.852V5.742H7.539v2.4h4.313Zm6.313,1.734L20.43,3.625h3.063L19.664,15h-3l-3.8-11.375h3.039Zm12.031.969H26.438L25.781,15h-2.93L27.023,3.625H29.6L33.8,15H30.859Zm-3.1-2.117h2.445L28.313,6.813Zm10.281,2.133h4.773V15H34.633V3.625h2.742ZM52.039,3.625V11.07a4.279,4.279,0,0,1-.539,2.191,3.492,3.492,0,0,1-1.547,1.41,5.449,5.449,0,0,1-2.383.484A4.708,4.708,0,0,1,44.3,14.078a3.845,3.845,0,0,1-1.219-2.953v-7.5h2.758V11.18q.047,1.867,1.734,1.867a1.679,1.679,0,0,0,1.289-.469,2.191,2.191,0,0,0,.438-1.523V3.625Zm8,9.25H56.281L55.625,15H52.7L56.867,3.625h2.578L63.648,15H60.7Zm-3.1-2.117h2.445L58.156,6.813Zm16.578.391a4.154,4.154,0,0,1-.641,2.1,3.866,3.866,0,0,1-1.645,1.41,5.6,5.6,0,0,1-2.418.5A4.467,4.467,0,0,1,65.281,13.7,6.032,6.032,0,0,1,63.992,9.57V9.008a6.885,6.885,0,0,1,.582-2.926A4.41,4.41,0,0,1,66.25,4.145a4.676,4.676,0,0,1,2.531-.684,4.9,4.9,0,0,1,3.328,1.09,4.306,4.306,0,0,1,1.43,3H70.8a2.037,2.037,0,0,0-.523-1.492,2.153,2.153,0,0,0-1.5-.453,1.638,1.638,0,0,0-1.5.766,4.921,4.921,0,0,0-.5,2.445v.8a5.445,5.445,0,0,0,.457,2.6,1.672,1.672,0,0,0,1.574.781,2.106,2.106,0,0,0,1.445-.445,1.89,1.89,0,0,0,.531-1.414ZM77.734,15H75V3.625h2.734ZM89.273,9.547a6.708,6.708,0,0,1-.617,2.945A4.561,4.561,0,0,1,86.9,14.465a4.884,4.884,0,0,1-2.59.691,4.953,4.953,0,0,1-2.578-.668,4.554,4.554,0,0,1-1.754-1.91,6.515,6.515,0,0,1-.66-2.852V9.086a6.738,6.738,0,0,1,.613-2.949,4.55,4.55,0,0,1,1.758-1.973,5.2,5.2,0,0,1,5.184-.008,4.632,4.632,0,0,1,1.762,1.957,6.544,6.544,0,0,1,.637,2.91ZM86.484,9.07A4.783,4.783,0,0,0,85.918,6.5,1.817,1.817,0,0,0,84.3,5.617q-2.062,0-2.18,3.094l-.008.836a4.92,4.92,0,0,0,.555,2.57,1.814,1.814,0,0,0,1.648.9,1.792,1.792,0,0,0,1.6-.883,4.785,4.785,0,0,0,.57-2.539ZM84.617.578H87.4L85.227,3.031l-2.148,0ZM100.188,15H97.461L93.43,7.922V15H90.688V3.625H93.43L97.453,10.7V3.625h2.734Z" transform="translate(3503.236 -7504.468)" fill="#12263f"/>
    <g id="Grupo_1072156" data-name="Grupo 1072156" transform="translate(3514.88 -7605.427)">
      <g id="Grupo_1072154" data-name="Grupo 1072154" clip-path="url(#clip-path)">
        <path id="Trazado_835940" data-name="Trazado 835940" d="M0,35.494Q0,18.649.005,1.8A3.124,3.124,0,0,1,.016,1.4,1.429,1.429,0,0,1,1.562,0c.1,0,.2,0,.306,0H68.961a3.072,3.072,0,0,1,.61.036,1.374,1.374,0,0,1,1.271,1.437c.01.136.005.273.005.409v60.33c0,.471,0,.471-.461.471-.659,0-1.317-.011-1.975.006-.248.007-.325-.077-.292-.308a1.689,1.689,0,0,0,0-.238q0-29.484,0-58.967c0-.449,0-.449-.449-.449q-32.252,0-64.5-.008c-.347,0-.445.076-.444.437q.014,32.277,0,64.554c0,.327.055.433.415.432q7.05-.022,14.1-.009a3.309,3.309,0,0,1,.442.014,1.44,1.44,0,0,1,1.4,1.675q0,7.1,0,14.205c0,.456,0,.456.442.456H67.679c.444,0,.444,0,.444.454,0,.67-.008,1.34,0,2.01,0,.208-.053.3-.266.264a1.141,1.141,0,0,0-.17,0q-24.9,0-49.792.006a1.71,1.71,0,0,1-1.275-.533L3.7,73.747Q2.121,72.169.539,70.6A1.75,1.75,0,0,1,0,69.287q.009-16.9,0-33.793M4.8,70.855,16.348,82.413a.821.821,0,0,0,0-.082q0-5.584.008-11.167c0-.274-.094-.307-.331-.307q-5.5.01-10.994.007c-.1,0-.2-.031-.238-.007" transform="translate(0 0)" fill="#03386e"/>
        <path id="Trazado_835941" data-name="Trazado 835941" d="M53.861,44.919a31.063,31.063,0,0,1,5.51.626,28.447,28.447,0,0,1,13.881,7.286,28.11,28.11,0,0,1,7.237,11.138,29.281,29.281,0,0,1,1.562,7.05,26.848,26.848,0,0,1-.228,6.855,28.516,28.516,0,0,1-4.347,11.272,22.483,22.483,0,0,1-1.382,1.939c-.126.153-.1.236.023.364,1.7,1.753,3.431,3.472,5.159,5.2.172.171.27.146.413,0,.235-.246.478-.485.719-.726a1.41,1.41,0,0,1,2.23-.009c1.175,1.169,2.337,2.35,3.509,3.521q5.552,5.549,11.108,11.094a1.459,1.459,0,0,1-.046,2.381q-2.423,2.417-4.849,4.831c-.522.521-1.036,1.051-1.558,1.573a1.385,1.385,0,0,1-2.174,0q-7.345-7.345-14.688-14.693a1.4,1.4,0,0,1,.014-2.248c.212-.205.408-.43.637-.614s.241-.328.024-.541c-.721-.708-1.424-1.434-2.137-2.149q-1.5-1.507-3.01-3.011c-.087-.088-.142-.186-.3-.059a26.823,26.823,0,0,1-4.592,2.966,27.111,27.111,0,0,1-6.251,2.35,27.5,27.5,0,0,1-9.826.667,28.628,28.628,0,0,1-15.824-7.009A28.3,28.3,0,0,1,26.9,83.793,29.09,29.09,0,0,1,25.2,77.226a26.461,26.461,0,0,1-.069-6.756,28.705,28.705,0,0,1,17.628-23.4,29.716,29.716,0,0,1,7.1-1.907,27.721,27.721,0,0,1,4-.24m-.3,54.5A25.892,25.892,0,1,0,27.674,72.842,25.826,25.826,0,0,0,53.562,99.419m38.175,17.158c.04-.037.092-.079.138-.126q2.272-2.277,4.547-4.55c.169-.168.179-.26.007-.43-1.042-1.028-2.073-2.068-3.107-3.1q-2.768-2.769-5.531-5.542c-.185-.187-.256-.071-.37.044q-2.147,2.162-4.3,4.321c-.406.406-.415.406-.007.816q4.219,4.229,8.442,8.455c.046.046.08.113.177.116m-6.05-15.823c-.036-.043-.075-.1-.122-.143-.632-.636-1.269-1.267-1.894-1.909-.137-.141-.2-.064-.3.032q-2.294,2.3-4.594,4.6c-.138.138-.143.213,0,.35q.938.915,1.854,1.851c.133.137.2.149.347,0q2.263-2.286,4.539-4.558a.44.44,0,0,0,.167-.228m-6.168-2c-.014-.126-.115-.193-.193-.271q-2.426-2.432-4.857-4.86c-.312-.311-.315-.3-.628.027-.117.123-.249.231-.373.346-.106.1-.129.162,0,.293q2.353,2.336,4.687,4.692c.6.6.6.6,1.212-.016.061-.061.159-.1.149-.211" transform="translate(-18.135 -32.649)" fill="#03386e"/>
        <path id="Trazado_835942" data-name="Trazado 835942" d="M26.776,30.855q-2.536,0-5.073,0c-1.186,0-1.737-.544-1.738-1.724q0-3.763,0-7.527a1.474,1.474,0,0,1,1.637-1.65q5.158-.008,10.317,0a1.487,1.487,0,0,1,1.669,1.688q0,3.78,0,7.561a1.486,1.486,0,0,1-1.671,1.652q-2.57.005-5.141,0m-.036-2.728c1.282,0,2.563-.005,3.845,0,.224,0,.283-.064.282-.285q-.013-2.433,0-4.867c0-.23-.048-.308-.294-.308q-3.794.014-7.588,0c-.24,0-.3.065-.3.3.01,1.611.013,3.222,0,4.833,0,.288.1.326.348.324,1.236-.011,2.472,0,3.709,0" transform="translate(-14.51 -14.5)" fill="#03386e"/>
        <path id="Trazado_835943" data-name="Trazado 835943" d="M118.164,19.936q8.99,0,17.981-.008c.319,0,.394.09.384.393-.022.692-.014,1.385,0,2.078,0,.206-.05.3-.264.266a1.1,1.1,0,0,0-.17,0q-17.963,0-35.927.009c-.362,0-.452-.1-.437-.446.028-.657.02-1.317,0-1.975-.007-.252.057-.326.317-.322,1.192.015,2.384.007,3.575.007h14.541" transform="translate(-72.486 -14.484)" fill="#03386e"/>
        <path id="Trazado_835944" data-name="Trazado 835944" d="M92.038,272.082c-3.961,0-7.923,0-11.884.008-.307,0-.378-.081-.368-.375.023-.7.013-1.408,0-2.111,0-.188.047-.278.245-.25a1.217,1.217,0,0,0,.17,0q11.85,0,23.7-.009c.35,0,.435.089.42.427-.029.646-.024,1.294,0,1.941.011.293-.059.377-.367.376-3.973-.012-7.945-.008-11.918-.008" transform="translate(-57.99 -195.771)" fill="#03386e"/>
        <path id="Trazado_835945" data-name="Trazado 835945" d="M112,289.313c3.961,0,7.923,0,11.884-.008.315,0,.4.084.386.391-.024.669-.019,1.34,0,2.009.007.259-.055.343-.332.341-1.952-.013-3.9-.007-5.857-.007q-8.973,0-17.946.008c-.332,0-.418-.083-.4-.409.028-.658.022-1.317,0-1.975-.009-.278.059-.36.349-.359,3,.011,5.993.007,8.99.007H112" transform="translate(-72.486 -210.278)" fill="#03386e"/>
        <path id="Trazado_835946" data-name="Trazado 835946" d="M19.966,75.243q0-1.856,0-3.711a1.5,1.5,0,0,1,1.685-1.705c1.611,0,3.222,0,4.833-.007.241,0,.306.066.3.3-.016.692-.019,1.385,0,2.077.008.275-.053.366-.347.361-1.146-.019-2.292,0-3.438-.014-.263,0-.315.076-.314.324.009,2.508,0,5.016.011,7.524,0,.258-.052.371-.331.34a6.278,6.278,0,0,0-.68,0,1.506,1.506,0,0,1-1.72-1.707q0-1.89,0-3.779" transform="translate(-14.512 -50.748)" fill="#03386e"/>
        <path id="Trazado_835947" data-name="Trazado 835947" d="M79.8,21.31c0-.375.01-.749,0-1.123-.008-.2.066-.247.253-.244.748.009,1.5.008,2.246,0,.172,0,.238.042.236.227q-.014,1.14,0,2.28c0,.184-.063.228-.236.227-.748-.008-1.5-.009-2.246,0-.187,0-.261-.045-.253-.244.015-.374,0-.748,0-1.123" transform="translate(-58 -14.495)" fill="#03386e"/>
        <path id="Trazado_835948" data-name="Trazado 835948" d="M81.159,289.324c.386,0,.771.006,1.157,0,.158,0,.219.043.217.21q-.011,1.157,0,2.314c0,.168-.062.21-.219.208q-1.14-.009-2.28,0c-.173,0-.237-.044-.235-.227q.014-1.14,0-2.28c0-.185.065-.231.237-.226.374.01.748,0,1.123,0" transform="translate(-58.002 -210.29)" fill="#03386e"/>
        <path id="Trazado_835949" data-name="Trazado 835949" d="M71.755,69.857A21.789,21.789,0,1,1,49.972,92.27,21.783,21.783,0,0,1,71.755,69.857m.424,40.864A19.079,19.079,0,1,0,52.674,92.364a19.025,19.025,0,0,0,19.506,18.357" transform="translate(-36.316 -50.775)" fill="#03386e"/>
        <path id="Trazado_835950" data-name="Trazado 835950" d="M109.38,115.264a1.788,1.788,0,0,1-.646,1.233q-1.475,1.462-2.944,2.93-5.8,5.806-11.595,11.615a1.4,1.4,0,0,1-2.246.01l-6.475-6.478a1.41,1.41,0,0,1,.008-2.251q1.871-1.861,3.732-3.731a1.4,1.4,0,0,1,2.2-.029c.5.49,1,.991,1.488,1.5.128.133.2.125.322,0q3.4-3.414,6.806-6.82,1.395-1.4,2.782-2.8a1.413,1.413,0,0,1,2.253-.023q1.9,1.883,3.781,3.778a1.656,1.656,0,0,1,.529,1.072m-3.264-.008c-.038-.044-.079-.1-.126-.145-.632-.636-1.268-1.268-1.895-1.909-.115-.118-.178-.082-.273.014-.349.357-.7.708-1.056,1.062q-4.305,4.315-8.611,8.629a1.381,1.381,0,0,1-2.173,0c-.5-.494-1-.993-1.482-1.5-.132-.139-.2-.117-.321.006-.619.632-1.242,1.261-1.875,1.88-.147.144-.121.219.011.35q2.294,2.28,4.574,4.574c.131.131.2.161.346.014q2.192-2.213,4.4-4.413l8.33-8.331c.063-.063.141-.116.155-.23" transform="translate(-61.721 -79.855)" fill="#03386e"/>
      </g>
    </g>
  </g>
</svg>
