<svg xmlns="http://www.w3.org/2000/svg" xmlns:xlink="http://www.w3.org/1999/xlink" width="610" height="434.874" viewBox="0 0 610 434.874">
  <defs>
    <clipPath id="clip-path">
      <rect id="Rectángulo_299301" data-name="Rectángulo 299301" width="610" height="434.874" fill="none"/>
    </clipPath>
    <clipPath id="clip-path-2">
      <rect id="Rectángulo_299300" data-name="Rectángulo 299300" width="610.001" height="434.873" fill="none"/>
    </clipPath>
    <clipPath id="clip-path-3">
      <rect id="Rectángulo_299254" data-name="Rectángulo 299254" width="75.411" height="75.411" fill="none"/>
    </clipPath>
  </defs>
  <g id="Grupo_881655" data-name="Grupo 881655" clip-path="url(#clip-path)">
    <g id="Grupo_881654" data-name="Grupo 881654" transform="translate(0 0.001)">
      <g id="Grupo_881653" data-name="Grupo 881653" clip-path="url(#clip-path-2)">
        <path id="Trazado_596235" data-name="Trazado 596235" d="M1476.443,744.778c2.622-.633,4.983,1.514,7.241,2.99,2.338,1.528,5.25,2.451,7.946,1.721s4.913-3.5,4.346-6.236c-.49-2.365-2.8-3.97-5.143-4.551s-4.8-.383-7.212-.531-4.965-.736-6.609-2.506-1.842-5,.129-6.4c1.5-1.067,3.64-.7,5.22.253a35.327,35.327,0,0,1,4.208,3.579,16.6,16.6,0,0,0,20.149.465c2.226-1.705,4.094-4.625,2.993-7.2-1.383-3.236-5.7-3.017-8.5-2.128-3.233,1.026-5.938,3.289-9.211,4.205-4.286,1.2-12.884-.569-13.26-6.137-.15-2.23,2.929-3.1,4.642-3.076,2.062.035,4,.868,5.961,1.4,9.334,2.515,18.6-1.862,23.694-9.826,4.389-6.855-3.34-7.355-8.287-6.733a17.032,17.032,0,0,0-9.239,4.126c-1.385,1.245-2.624,2.757-4.358,3.438s-4.181.04-4.575-1.78c-.41-1.9,1.527-3.4,3.207-4.369l9.076-5.239a14.006,14.006,0,0,0,4.6-3.6c1.149-1.592,1.526-3.918.35-5.49-1.322-1.766-4.073-1.863-6.014-.814s-3.26,2.935-4.507,4.754l-6.768,9.874c-.923,1.345-2.173,2.853-3.795,2.682-1.711-.18-2.622-2.131-2.834-3.838-.454-3.642.722-7.276,2.032-10.7s2.79-6.882,2.98-10.547-1.219-7.677-4.427-9.459c-4.653-2.583-10.985,1.122-12.359,6.264s1.146,10.67,4.923,14.42c1.632,1.62,3.686,3.556,3.1,5.779-.61,2.3-3.8,2.919-5.954,1.908s-3.62-3.03-5.355-4.658-4.2-2.952-6.425-2.1c-2.329.892-3.245,4.024-2.224,6.3a7.42,7.42,0,0,0,5.966,3.945c4.261.517,9-1.567,12.663.68a5.689,5.689,0,0,1,2.662,5.648,4.869,4.869,0,0,1-4.626,3.973c-3.54-.045-5.622-4.031-8.815-5.559a6.824,6.824,0,0,0-6.916,11.706c2.029,1.45,4.661,1.68,7.154,1.755s5.085.066,7.329,1.152,4,3.667,3.235,6.04c-1.055,3.278-5.836,3.6-8.786,1.822s-4.937-4.822-7.79-6.752-7.515-2.161-9.074.909c-1.492,2.938,1.152,6.481,4.22,7.685s6.512,1.021,9.667,1.971,6.26,3.852,5.523,7.063c-.649,2.827-4.061,4.27-6.922,3.795s-5.276-2.32-7.584-4.078-4.787-3.546-7.669-3.874-6.209,1.406-6.565,4.285c-.334,2.707,2,5.054,4.489,6.174s5.283,1.5,7.665,2.825,4.319,4.181,3.3,6.713c-1.079,2.693-4.633,3.283-7.519,2.986s-6.026-1.018-8.523.457a5.439,5.439,0,0,0,2.131,10.084c3.581.421,7.33-2.673,10.547-1.045,1.851.936,2.7,3.171,2.743,5.244a40.7,40.7,0,0,1-.835,6.155c-.628,4.658.638,9.823,4.274,12.8s9.816,2.829,12.524-1.014c2.077-2.948,1.666-6.988.5-10.4s-2.99-6.634-3.545-10.2.6-7.78,3.872-9.3c2.259-1.052,4.909-.57,7.32.059s4.92,1.39,7.349.834,4.625-3.026,3.875-5.4a4.769,4.769,0,0,0-2.541-2.659c-4.306-2.143-11.307-.973-13.412-6.461-.825-2.151-.173-5.635,2.372-6.249" transform="translate(-955.723 -447.226)" fill="#ffbd00"/>
        <path id="Trazado_596236" data-name="Trazado 596236" d="M1338.049,683.3a34.478,34.478,0,0,0,2.7,11.979c.09.242.184.484.279.727,1.638,4.275,3.295,8.544,3.289,13.062,0,5.253-2.233,10.708-2.044,15.766.012.337.038.672.072,1.008a11.5,11.5,0,0,0,1.09,3.867c2.067,4.228,6.67,6.428,10.57,9.077.073.047.147.1.22.147.133.091.263.182.392.276a37.1,37.1,0,0,1,14.417,21c1.646,6.512.506,12.115-.045,18.6-.3,3.511.641,5.794,2.293,7.174a5.426,5.426,0,0,0,.581.431c3.311,2.167,8.824,1.425,13.317-.241a32.636,32.636,0,0,0,18.925-17.806c2.58-6.35,2.762-14.275-1.4-19.577-.152-.192-.308-.381-.472-.564-.141-.165-.283-.32-.433-.475-2.1-2.171-5.043-3.817-5.936-6.705-1.1-3.562,1.453-7.206,1.6-10.931.178-4.449-3.158-8.328-7.109-10.474-.214-.117-.427-.23-.643-.333-.034-.019-.068-.035-.1-.051-4.267-2.048-9.07-2.618-13.625-3.908a24.236,24.236,0,0,1-7.241-3.254c-.2-.14-.391-.28-.581-.43a12.3,12.3,0,0,1-3.545-4.134c-2.037-3.969-1.433-8.786-.062-13.03,1.245-3.861,3.08-7.538,4.046-11.467.084-.345.166-.7.233-1.05.013-.042.019-.089.029-.131a23.777,23.777,0,0,0-5.692-20.287,16.33,16.33,0,0,0-4.095-3.292c-.247-.136-.5-.262-.755-.382-3.777-1.77-9.09,3.581-11.462,5.934a30.853,30.853,0,0,0-8.175,14.136,21.221,21.221,0,0,0-.629,5.339" transform="translate(-890.157 -437.438)" fill="#84a9ff"/>
        <path id="Trazado_596237" data-name="Trazado 596237" d="M1357.9,698.893c-.576-7.556,1.239-15.087,2.995-22.378,1-4.139,2.025-8.42,2.612-12.656a22.96,22.96,0,0,0,.175-5.262c.253.119.505.245.752.381a24.269,24.269,0,0,1-.212,4.98c-.591,4.272-1.623,8.57-2.625,12.727-1.779,7.379-3.615,15.013-2.939,22.608.018.236.043.476.069.713.007.056.01.107.021.163a35.02,35.02,0,0,0,.58,3.519,10.257,10.257,0,0,0,4-4.551,36.764,36.764,0,0,0,1.49-3.689c.355-.986.725-2,1.16-2.98a23.735,23.735,0,0,1,8.218-9.782c-.067.351-.149.7-.232,1.05v0a22.823,22.823,0,0,0-7.325,9.02c-.423.954-.789,1.96-1.142,2.935a36.873,36.873,0,0,1-1.522,3.76,10.761,10.761,0,0,1-4.479,4.962,49.618,49.618,0,0,0,4.2,11.044c.108.219.224.439.339.655,1.214,2.336,2.569,4.626,3.988,6.881a28.661,28.661,0,0,1,5.421-10.526l.087-.1c.19.15.386.29.582.43-.039.042-.074.088-.109.13a27.966,27.966,0,0,0-5.451,10.9c1.362,2.134,2.772,4.238,4.174,6.327.157.233.311.466.468.7.136.2.272.406.408.61.232.345.465.694.694,1.04,1.961,2.942,3.865,5.956,5.566,9.037a53.507,53.507,0,0,0,15.218-21.536c.215.1.429.216.643.333a54.266,54.266,0,0,1-15.51,21.852A51.082,51.082,0,0,1,1386,757.973a84.908,84.908,0,0,0,21.582-9.044c.164.183.32.372.472.564a85.965,85.965,0,0,1-21.942,9.2,31.669,31.669,0,0,1,.184,7.833c-.782,7.543-4.271,14.117-9.08,20.593a5.43,5.43,0,0,1-.582-.43c4.742-6.386,8.177-12.855,8.943-20.236a30.861,30.861,0,0,0-.168-7.576c-.035-.242-.072-.48-.112-.719a50.14,50.14,0,0,0-5.671-15.49c-.112-.216-.229-.429-.348-.646-1.706-3.1-3.624-6.145-5.6-9.111-.256-.385-.513-.767-.773-1.153a51.285,51.285,0,0,0-12.937,8.156c-.129-.094-.259-.185-.391-.276-.073-.051-.147-.1-.22-.147a52.071,52.071,0,0,1,13.141-8.343c-.13-.193-.263-.39-.392-.587-1.275-1.9-2.555-3.811-3.8-5.747-.183-.284-.366-.568-.545-.855-1.589-2.5-3.1-5.035-4.453-7.634a34.116,34.116,0,0,0-15.609,10.22c-.034-.336-.06-.671-.072-1.008v0a34.929,34.929,0,0,1,15.344-9.863,49.437,49.437,0,0,1-4.281-11.479l0-.008,0-.011-.062-.158a.083.083,0,0,0,.024-.011,36.96,36.96,0,0,1-.646-3.918c-.013-.115-.023-.226-.033-.34a26.8,26.8,0,0,0-11.588-3.035c-.094-.243-.188-.485-.279-.727a27.587,27.587,0,0,1,11.792,2.911" transform="translate(-895.517 -438.142)" fill="#155bcd"/>
        <path id="Trazado_596238" data-name="Trazado 596238" d="M1496.667,823.123c-.118.717-.17,1.1-.17,1.1q.738-.122,1.47-.252c84.583-14.977,94.986-106.456,94.986-106.456-78.058,7.917-94.537,94.794-96.286,105.606" transform="translate(-995.568 -477.34)" fill="#84a9ff"/>
        <path id="Trazado_596239" data-name="Trazado 596239" d="M1496.667,867.95c-.118.717-.17,1.1-.17,1.1q.738-.122,1.47-.252,18.962-20.239,37.657-40.724,9.673-10.611,19.215-21.343l4.747-5.384,4.7-5.424c1.568-1.809,3.1-3.648,4.646-5.474.78-.906,1.524-1.843,2.284-2.769l2.262-2.783-2.3,2.753c-.769.917-1.526,1.841-2.319,2.738-1.574,1.8-3.127,3.621-4.718,5.407l-4.775,5.358-4.82,5.32q-9.675,10.6-19.494,21.073-19.055,20.333-38.387,40.4" transform="translate(-995.568 -522.166)" fill="#155bcd"/>
        <path id="Trazado_596240" data-name="Trazado 596240" d="M1683.413,783.558a.334.334,0,0,0,.52-.294A37.609,37.609,0,0,1,1686,769.134a.335.335,0,0,0-.631-.222,38.291,38.291,0,0,0-2.1,14.384.333.333,0,0,0,.148.262" transform="translate(-1119.79 -511.382)" fill="#155bcd"/>
        <path id="Trazado_596241" data-name="Trazado 596241" d="M1623.182,841.551a.331.331,0,0,0,.175.056.335.335,0,0,0,.346-.323,97.76,97.76,0,0,0-.763-15.835.334.334,0,1,0-.663.086,97.117,97.117,0,0,1,.757,15.726.334.334,0,0,0,.148.289" transform="translate(-1079.243 -548.95)" fill="#155bcd"/>
        <path id="Trazado_596242" data-name="Trazado 596242" d="M1644.2,896.133a.333.333,0,0,0,.193.07,54.969,54.969,0,0,0,17.807-2.27.334.334,0,1,0-.191-.641,54.3,54.3,0,0,1-17.592,2.243.334.334,0,0,0-.217.6" transform="translate(-1093.74 -594.268)" fill="#155bcd"/>
        <path id="Trazado_596243" data-name="Trazado 596243" d="M1698.539,822.911a.333.333,0,0,0,.322.1l13.906-3.353a.335.335,0,1,0-.157-.65l-13.906,3.353a.334.334,0,0,0-.165.555" transform="translate(-1129.918 -544.849)" fill="#155bcd"/>
        <path id="Trazado_596244" data-name="Trazado 596244" d="M1563.381,907.494a.334.334,0,0,0,.521-.271l.277-14.988a.335.335,0,0,0-.669-.013l-.277,14.988a.334.334,0,0,0,.148.284" transform="translate(-1039.965 -593.347)" fill="#155bcd"/>
        <path id="Trazado_596245" data-name="Trazado 596245" d="M1591.68,956.257a.334.334,0,0,0,.174.056l15.422.534a.335.335,0,0,0,.023-.669l-15.422-.534a.335.335,0,0,0-.2.613" transform="translate(-1058.791 -635.758)" fill="#155bcd"/>
        <path id="Trazado_596246" data-name="Trazado 596246" d="M1463.47,983.164c-.387.448-.586.692-.586.692q.564.229,1.127.45c65.062,25.593,111.2-33.457,111.2-33.457-57.531-27.715-105.925,25.557-111.739,32.315" transform="translate(-973.206 -627.291)" fill="#ff654f"/>
        <path id="Trazado_596247" data-name="Trazado 596247" d="M1463.47,1013.572c-.387.448-.586.692-.586.692q.564.229,1.127.45,21.768-5.975,43.455-12.237,11.226-3.247,22.412-6.635l5.584-1.716,5.572-1.763c1.858-.588,3.7-1.214,5.553-1.821.926-.3,1.842-.63,2.763-.95l2.754-.968-2.768.931c-.923.309-1.843.628-2.774.913-1.858.58-3.71,1.182-5.574,1.745l-5.593,1.686-5.607,1.641q-11.225,3.242-22.492,6.329-21.872,6-43.825,11.7" transform="translate(-973.206 -657.698)" fill="#fff"/>
        <path id="Trazado_596248" data-name="Trazado 596248" d="M1687.745,971.37a.272.272,0,0,0,.486.017,30.62,30.62,0,0,1,7.444-8.927.272.272,0,0,0-.344-.422,31.172,31.172,0,0,0-7.578,9.087.272.272,0,0,0-.008.245" transform="translate(-1122.782 -639.971)" fill="#fff"/>
        <path id="Trazado_596249" data-name="Trazado 596249" d="M1620.983,984.188a.269.269,0,0,0,.1.114.273.273,0,0,0,.377-.077,79.556,79.556,0,0,0,6.208-11.312.272.272,0,1,0-.5-.222A79.042,79.042,0,0,1,1621,983.925a.272.272,0,0,0-.02.264" transform="translate(-1078.367 -646.991)" fill="#fff"/>
        <path id="Trazado_596250" data-name="Trazado 596250" d="M1622.729,1034.113a.273.273,0,0,0,.1.131,44.756,44.756,0,0,0,13.322,6,.272.272,0,1,0,.14-.526,44.2,44.2,0,0,1-13.161-5.928.272.272,0,0,0-.405.323" transform="translate(-1079.534 -687.716)" fill="#fff"/>
        <path id="Trazado_596251" data-name="Trazado 596251" d="M1690.66,1007.939a.272.272,0,0,0,.182.2l11.076,3.589a.272.272,0,1,0,.168-.518l-11.076-3.59a.272.272,0,0,0-.351.315" transform="translate(-1124.734 -670.329)" fill="#fff"/>
        <path id="Trazado_596252" data-name="Trazado 596252" d="M1551.057,1004.738a.272.272,0,0,0,.477.033l6.569-10.281a.273.273,0,0,0-.459-.294l-6.568,10.282a.269.269,0,0,0-.018.26" transform="translate(-1031.848 -661.321)" fill="#fff"/>
        <path id="Trazado_596253" data-name="Trazado 596253" d="M1562.619,1050.38a.271.271,0,0,0,.1.114l10.474,6.931a.272.272,0,0,0,.3-.454l-10.474-6.931a.272.272,0,0,0-.4.341" transform="translate(-1039.54 -698.525)" fill="#fff"/>
        <path id="Trazado_596254" data-name="Trazado 596254" d="M154.878,62.568A62.564,62.564,0,1,0,217.44,0a62.528,62.528,0,0,0-62.562,62.565M170.985,89.39a53.662,53.662,0,1,1,46.454,26.8,53.381,53.381,0,0,1-46.454-26.8" transform="translate(-103.035 -0.003)" fill="#ff654f"/>
        <path id="Trazado_596255" data-name="Trazado 596255" d="M181.578,80.33a53.577,53.577,0,1,0,7.17-26.826,53.383,53.383,0,0,0-7.17,26.826m8.937,0a44.65,44.65,0,1,1,5.975,22.35,44.494,44.494,0,0,1-5.975-22.35" transform="translate(-120.798 -17.765)" fill="#fff"/>
        <path id="Trazado_596256" data-name="Trazado 596256" d="M208.278,98.092a44.65,44.65,0,1,0,5.975-22.354,44.473,44.473,0,0,0-5.975,22.354m8.937,0A35.718,35.718,0,1,1,222,115.974a35.583,35.583,0,0,1-4.78-17.882" transform="translate(-138.56 -35.527)" fill="#ff654f"/>
        <path id="Trazado_596257" data-name="Trazado 596257" d="M234.978,115.855a35.723,35.723,0,1,0,4.78-17.882,35.583,35.583,0,0,0-4.78,17.882m8.937,0a26.791,26.791,0,1,1,3.585,13.409,26.72,26.72,0,0,1-3.585-13.409" transform="translate(-156.323 -53.29)" fill="#fff"/>
        <path id="Trazado_596258" data-name="Trazado 596258" d="M261.678,133.618a26.791,26.791,0,1,0,3.585-13.413,26.707,26.707,0,0,0-3.585,13.413m8.937,0a17.859,17.859,0,1,1,2.39,8.941,17.818,17.818,0,0,1-2.39-8.941" transform="translate(-174.085 -71.052)" fill="#ff654f"/>
        <path id="Trazado_596259" data-name="Trazado 596259" d="M288.378,151.381a17.863,17.863,0,1,0,2.39-8.94,17.811,17.811,0,0,0-2.39,8.94m10.132,4.469a8.941,8.941,0,1,1,7.742,4.469,8.887,8.887,0,0,1-7.742-4.469" transform="translate(-191.848 -88.816)" fill="#fff"/>
        <path id="Trazado_596260" data-name="Trazado 596260" d="M315.078,169.149a8.94,8.94,0,1,0,1.2-4.469,8.889,8.889,0,0,0-1.2,4.469" transform="translate(-209.611 -106.584)" fill="#ff654f"/>
        <path id="Trazado_596261" data-name="Trazado 596261" d="M175.36,41.014,164.287,44.5l-9.815-9.8L164.6,30.261Z" transform="translate(-102.765 -20.132)" fill="#84a9ff"/>
        <path id="Trazado_596262" data-name="Trazado 596262" d="M195.48,20.884l3.475-11.077L189.14,0l-4.424,10.128Z" transform="translate(-122.885 -0.003)" fill="#84a9ff"/>
        <path id="Trazado_596263" data-name="Trazado 596263" d="M183.929,31.861l52.338,51.884,1.97-1.928L185.867,29.9a1.377,1.377,0,1,0-1.938,1.957" transform="translate(-122.09 -19.629)" fill="#155bcd"/>
        <path id="Trazado_596264" data-name="Trazado 596264" d="M220.455,1211.49h0c0,12.51,7.792,22.652,17.4,22.652H672.944c9.612,0,17.4-10.142,17.4-22.652Z" transform="translate(-146.661 -805.963)" fill="#155bcd"/>
        <rect id="Rectángulo_299216" data-name="Rectángulo 299216" width="376.948" height="236.755" transform="translate(120.266 149.859)" fill="#84a9ff"/>
        <path id="Trazado_596265" data-name="Trazado 596265" d="M703.521,373.1H313.386A13.186,13.186,0,0,0,300.2,386.286V636.227a13.186,13.186,0,0,0,13.186,13.187H703.521a13.186,13.186,0,0,0,13.186-13.187V386.286A13.186,13.186,0,0,0,703.521,373.1" transform="translate(-199.713 -248.211)" fill="#050f64"/>
        <rect id="Rectángulo_299217" data-name="Rectángulo 299217" width="376.948" height="236.755" transform="translate(120.266 144.668)" fill="#fff"/>
        <path id="Trazado_596266" data-name="Trazado 596266" d="M571.509,1192.772H476.717l.335-4.192.416-5.227h93.288Z" transform="translate(-317.144 -787.245)" fill="#e5e6eb"/>
        <path id="Trazado_596267" data-name="Trazado 596267" d="M1179.578,1192.772h-94.792l.335-4.192.416-5.227h93.288Z" transform="translate(-721.671 -787.245)" fill="#e5e6eb"/>
        <rect id="Rectángulo_299218" data-name="Rectángulo 299218" width="26.925" height="74.555" transform="translate(120.266 306.868)" fill="#ff654f"/>
        <rect id="Rectángulo_299219" data-name="Rectángulo 299219" width="26.925" height="57.328" transform="translate(147.191 324.095)" fill="#da5544"/>
        <rect id="Rectángulo_299220" data-name="Rectángulo 299220" width="26.925" height="91.303" transform="translate(174.116 290.12)" fill="#ff654f"/>
        <rect id="Rectángulo_299221" data-name="Rectángulo 299221" width="26.925" height="110.382" transform="translate(201.041 271.041)" fill="#da5544"/>
        <rect id="Rectángulo_299222" data-name="Rectángulo 299222" width="26.925" height="68.905" transform="translate(227.966 312.517)" fill="#ff654f"/>
        <rect id="Rectángulo_299223" data-name="Rectángulo 299223" width="26.925" height="91.303" transform="translate(254.891 290.12)" fill="#da5544"/>
        <rect id="Rectángulo_299224" data-name="Rectángulo 299224" width="26.925" height="107.872" transform="translate(281.816 273.551)" fill="#ff654f"/>
        <rect id="Rectángulo_299225" data-name="Rectángulo 299225" width="26.925" height="133.979" transform="translate(308.74 247.443)" fill="#da5544"/>
        <rect id="Rectángulo_299226" data-name="Rectángulo 299226" width="26.925" height="83.772" transform="translate(335.665 297.651)" fill="#ff654f"/>
        <rect id="Rectángulo_299227" data-name="Rectángulo 299227" width="26.925" height="98.834" transform="translate(362.59 282.589)" fill="#da5544"/>
        <rect id="Rectángulo_299228" data-name="Rectángulo 299228" width="26.925" height="120.423" transform="translate(389.515 260.999)" fill="#ff654f"/>
        <rect id="Rectángulo_299229" data-name="Rectángulo 299229" width="26.925" height="166.112" transform="translate(416.44 215.311)" fill="#da5544"/>
        <rect id="Rectángulo_299230" data-name="Rectángulo 299230" width="26.925" height="133.979" transform="translate(443.365 247.443)" fill="#ff654f"/>
        <rect id="Rectángulo_299231" data-name="Rectángulo 299231" width="26.925" height="151.599" transform="translate(470.29 229.824)" fill="#da5544"/>
        <rect id="Rectángulo_299232" data-name="Rectángulo 299232" width="31.129" height="31.129" transform="translate(133.729 158.074)" fill="#e5e6eb"/>
        <rect id="Rectángulo_299233" data-name="Rectángulo 299233" width="128.984" height="10.077" transform="translate(176.521 179.126)" fill="#e5e6eb"/>
        <rect id="Rectángulo_299234" data-name="Rectángulo 299234" width="31.129" height="31.129" transform="translate(133.729 199.746)" fill="#e5e6eb"/>
        <rect id="Rectángulo_299235" data-name="Rectángulo 299235" width="94.73" height="10.077" transform="translate(176.52 220.798)" fill="#e5e6eb"/>
        <rect id="Rectángulo_299236" data-name="Rectángulo 299236" width="164.689" height="10.077" transform="translate(176.52 199.962)" fill="#e5e6eb"/>
        <rect id="Rectángulo_299237" data-name="Rectángulo 299237" width="164.689" height="10.077" transform="translate(176.52 158.29)" fill="#e5e6eb"/>
        <path id="Trazado_596268" data-name="Trazado 596268" d="M1307.629,157.975V293.087a6.7,6.7,0,0,1-6.695,6.695H1117.178a6.7,6.7,0,0,1-6.694-6.695V157.975a6.7,6.7,0,0,1,6.694-6.695h183.756a6.7,6.7,0,0,1,6.695,6.695" transform="translate(-738.767 -100.642)" fill="#e5e6eb"/>
        <rect id="Rectángulo_299238" data-name="Rectángulo 299238" width="195.137" height="146.493" rx="17" transform="translate(372.721 51.642)" fill="#fff"/>
        <path id="Trazado_596269" data-name="Trazado 596269" d="M1307.629,157.975v12.251H1110.484V157.975a6.7,6.7,0,0,1,6.694-6.695h183.756a6.7,6.7,0,0,1,6.695,6.695" transform="translate(-738.767 -100.642)" fill="#155bcd"/>
        <rect id="Rectángulo_299239" data-name="Rectángulo 299239" width="1.57" height="101.389" transform="translate(548.208 82.899)" fill="#e5e6eb"/>
        <rect id="Rectángulo_299240" data-name="Rectángulo 299240" width="1.57" height="101.389" transform="translate(530.718 82.899)" fill="#e5e6eb"/>
        <rect id="Rectángulo_299241" data-name="Rectángulo 299241" width="1.57" height="101.389" transform="translate(513.229 82.899)" fill="#e5e6eb"/>
        <rect id="Rectángulo_299242" data-name="Rectángulo 299242" width="1.57" height="101.389" transform="translate(495.739 82.899)" fill="#e5e6eb"/>
        <rect id="Rectángulo_299243" data-name="Rectángulo 299243" width="1.57" height="101.389" transform="translate(478.25 82.899)" fill="#e5e6eb"/>
        <rect id="Rectángulo_299244" data-name="Rectángulo 299244" width="1.57" height="101.389" transform="translate(460.76 82.899)" fill="#e5e6eb"/>
        <rect id="Rectángulo_299245" data-name="Rectángulo 299245" width="1.57" height="101.389" transform="translate(443.27 82.899)" fill="#e5e6eb"/>
        <rect id="Rectángulo_299246" data-name="Rectángulo 299246" width="1.57" height="101.389" transform="translate(425.781 82.899)" fill="#e5e6eb"/>
        <rect id="Rectángulo_299247" data-name="Rectángulo 299247" width="1.57" height="101.389" transform="translate(408.291 82.899)" fill="#e5e6eb"/>
        <rect id="Rectángulo_299248" data-name="Rectángulo 299248" width="1.57" height="101.389" transform="translate(390.802 82.899)" fill="#e5e6eb"/>
        <path id="Trazado_596270" data-name="Trazado 596270" d="M1328.336,370.1H1170.3a179.186,179.186,0,0,1,13.215-59.922c1.245-3.031,2.646-6.132,5.116-8.283s6.3-3.083,9.058-1.324c2.28,1.454,3.359,4.358,5.7,5.707,4,2.3,9.071-1.308,10.939-5.533s1.984-9.1,4.075-13.214a15.047,15.047,0,0,1,23.538-4.327c5.182,4.708,6.429,12.213,8.347,18.954s5.831,14.084,12.724,15.3c5.446.958,11.451-2.271,16.364.269,5.139,2.655,6.55,10.526,12.167,11.908,6.568,1.618,11.5-7.138,18.249-7.566,3.277-.208,6.415,1.69,8.472,4.25a26.672,26.672,0,0,1,4.2,8.859,127.171,127.171,0,0,1,5.873,34.923" transform="translate(-778.558 -185.811)" fill="#155bcd"/>
        <path id="Trazado_596271" data-name="Trazado 596271" d="M1326.474,471.545H1167.5c.054-.193.1-.39.15-.585,1.236-5.191,3.336-10.665,6.711-14.61,4.06-4.749,11.142-7.053,16.02-3.351,4.694,3.563,6.75,11.826,12.443,12.156,3.83.222,6.869-3.666,8.24-7.616s1.759-8.33,3.673-12,6.261-6.409,9.587-4.3c3.127,1.987,3.411,6.721,4.9,10.348,3.039,7.4,12.949,9.951,18.645,4.791,3.727-3.377,5.25-8.784,7.19-13.655s5.054-9.935,9.815-10.807c5.9-1.078,10.883,4.739,14.059,10.33s6.419,12.107,12.2,13.82c4.741,1.4,9.663-.952,14.555-1.352,8.827-.722,17.771,5.844,20.4,15.162q.232.824.393,1.664" transform="translate(-776.696 -287.257)" fill="#ffbd00"/>
        <path id="Trazado_596272" data-name="Trazado 596272" d="M1148.214,173.223a3.2,3.2,0,1,1-3.2-3.2,3.2,3.2,0,0,1,3.2,3.2" transform="translate(-759.609 -113.111)" fill="#fff"/>
        <path id="Trazado_596273" data-name="Trazado 596273" d="M1187.223,173.223a3.2,3.2,0,1,1-3.2-3.2,3.2,3.2,0,0,1,3.2,3.2" transform="translate(-785.56 -113.111)" fill="#fff"/>
        <path id="Trazado_596274" data-name="Trazado 596274" d="M1226.232,173.223a3.2,3.2,0,1,1-3.2-3.2,3.2,3.2,0,0,1,3.2,3.2" transform="translate(-811.512 -113.111)" fill="#fff"/>
        <path id="Trazado_596275" data-name="Trazado 596275" d="M1247.4,993.47l-2.361-1.724c8.6-11.774,7.18-26.068,7.165-26.211l2.908-.311c.067.63,1.543,15.57-7.711,28.246" transform="translate(-828.284 -642.131)" fill="#dca000"/>
        <path id="Trazado_596276" data-name="Trazado 596276" d="M1333.211,993.47l-2.362-1.724c8.595-11.774,7.18-26.068,7.165-26.211l2.907-.311c.067.63,1.543,15.57-7.711,28.246" transform="translate(-885.369 -642.131)" fill="#dca000"/>
        <path id="Trazado_596277" data-name="Trazado 596277" d="M1208.537,1047.256h-62.62a3.777,3.777,0,1,1,0-7.553h62.62a3.777,3.777,0,1,1,0,7.553" transform="translate(-759.826 -691.679)" fill="#ffbd00"/>
        <path id="Trazado_596278" data-name="Trazado 596278" d="M1333.718,1112.217h6.579l-13.645-49.95h-6.579Z" transform="translate(-878.199 -706.691)" fill="#dca000"/>
        <path id="Trazado_596279" data-name="Trazado 596279" d="M1222.132,1112.217h6.579l-13.645-49.95h-6.578Z" transform="translate(-803.965 -706.691)" fill="#dca000"/>
        <path id="Trazado_596280" data-name="Trazado 596280" d="M1129.065,1112.217h-6.579l13.645-49.95h6.579Z" transform="translate(-746.751 -706.691)" fill="#ffbd00"/>
        <path id="Trazado_596281" data-name="Trazado 596281" d="M1302.008,878.12l-5.991,21.929a7.31,7.31,0,0,1-7.052,5.384H1253.4a7.31,7.31,0,0,1-7.051-9.236l5.991-21.929a7.309,7.309,0,0,1,7.051-5.383h35.564a7.309,7.309,0,0,1,7.051,9.236" transform="translate(-828.979 -578.039)" fill="#ffbd00"/>
        <path id="Trazado_596282" data-name="Trazado 596282" d="M1240.65,1112.217h-6.579l13.645-49.95h6.578Z" transform="translate(-820.985 -706.691)" fill="#ffbd00"/>
        <path id="Trazado_596283" data-name="Trazado 596283" d="M1111.611,1201.121l-17.184-.007a2.647,2.647,0,0,1,.484-1.61,2.72,2.72,0,0,1,1.723-.916,16.527,16.527,0,0,1,1.994-.115,10.553,10.553,0,0,0,4.663-1.349,15.753,15.753,0,0,1,2.24-1.22l4.683.125a5.358,5.358,0,0,1,1.25,2.526,9.463,9.463,0,0,1,.147,2.566" transform="translate(-728.085 -795.594)" fill="#050f64"/>
        <path id="Trazado_596284" data-name="Trazado 596284" d="M1175.744,1002.912a8.369,8.369,0,0,0-10.4-5.654l-.01,0-34.255,8.165c-.126.025-.249.057-.373.089l-.224.054v0a6.392,6.392,0,0,0-4.545,5.491v.01c-.019.2-.027.4-.029.6v.048h0l-1.635,52.624,6-.03,7.559-46.9,29.611-3.767a8.351,8.351,0,0,0,2.641-.336h.009a8.369,8.369,0,0,0,5.654-10.4" transform="translate(-747.941 -663.213)" fill="#050f64"/>
        <path id="Trazado_596285" data-name="Trazado 596285" d="M1168.3,1201.1l-17.184,0a2.644,2.644,0,0,1,.482-1.61,2.722,2.722,0,0,1,1.723-.917,16.488,16.488,0,0,1,1.995-.116,10.554,10.554,0,0,0,4.662-1.351,15.787,15.787,0,0,1,2.239-1.222l4.684.122a5.368,5.368,0,0,1,1.251,2.525,9.45,9.45,0,0,1,.148,2.567" transform="translate(-765.795 -795.582)" fill="#050f64"/>
        <path id="Trazado_596286" data-name="Trazado 596286" d="M1187.978,1058.756h-5.947s2.915-53.1,2.918-53.1v-.048c.006-.2.02-.4.044-.6V1005a6.4,6.4,0,0,1,4.26-5.258l.07-.02q.243-.08.494-.141l33.892-9.661.009,0a8.369,8.369,0,0,1,9.338,13.038c-1.951,2.524-5.039,3.236-8.024,3.718-1.37.222-2.739.45-4.108.675l-6.007.986-6.656,1.093-6.059,1-4.213.691a7.69,7.69,0,0,0-1.2.2Z" transform="translate(-786.365 -658.255)" fill="#050f64"/>
        <path id="Trazado_596287" data-name="Trazado 596287" d="M1189.492,1054.587l.519-.046,5.408-29.117-.5-.061Zm-6.067-14.474.5.043,1.949-35.492h0v-.048c.007-.2.02-.4.045-.6v-.01a6.393,6.393,0,0,1,4.262-5.255v0l.068-.021c.164-.052.328-.1.5-.139l33.893-9.662a.009.009,0,0,1,.007,0,8.366,8.366,0,0,1,8.22,1.605l1.03.3a8.842,8.842,0,0,0-7.308-2.828,8.943,8.943,0,0,0-2.1.448l-33.875,9.658c-.165.04-.344.091-.515.149l-.5.142.011.039a6.924,6.924,0,0,0-4.179,5.51l-.005.028v.01c-.006.043-.01.084-.014.127h0l0,.058c-.011.132-.019.268-.024.412Z" transform="translate(-787.292 -657.259)" fill="#155bcc"/>
        <path id="Trazado_596288" data-name="Trazado 596288" d="M1048.558,837.736a1.879,1.879,0,0,1,2.551-.231c1.017.748,2.069,1.479,3.087,2.185l.745.518c.412.285.829.56,1.246.836q.348.23.7.462l.97.644.984.619c.235.146.469.294.7.442.413.262.839.533,1.268.782l1.988,1.175,2.016,1.108c.426.235.867.456,1.295.669.246.123.492.245.734.37a49.656,49.656,0,0,0,8.293,3.271,33.541,33.541,0,0,0,8.439,1.335c5.059.117,10.387-.995,16.765-3.494,2.492-.974,5.2-2.174,8.271-3.668,2.455-1.206,5.068-2.554,8.224-4.245a6.845,6.845,0,0,1,5.274-.468,5.732,5.732,0,0,1,3.41,2.927,5.621,5.621,0,0,1,.164,4.478,6.886,6.886,0,0,1-3.8,3.86c-3.468,1.392-6.348,2.5-9.064,3.476-3.548,1.264-6.55,2.215-9.445,2.992a65.57,65.57,0,0,1-10.008,1.939q-.466.051-.93.092a43.106,43.106,0,0,1-9.52-.17,40.67,40.67,0,0,1-10-2.727,56.03,56.03,0,0,1-8.864-4.672c-.238-.157-.477-.312-.716-.467-.442-.285-.9-.58-1.334-.888l-2-1.406-1.941-1.457c-.423-.313-.839-.645-1.24-.967-.221-.177-.441-.354-.665-.528l-.946-.753-.924-.771q-.323-.272-.648-.541c-.4-.333-.8-.666-1.192-1.006l-.671-.585c-.965-.841-1.962-1.71-2.917-2.589a1.856,1.856,0,0,1-.3-2.546" transform="translate(-697.318 -556.904)" fill="#ea8096"/>
        <path id="Trazado_596289" data-name="Trazado 596289" d="M1208.441,861.441l14.583-6.379a8.557,8.557,0,0,0,4.753-11.229l-.26-.252a8.718,8.718,0,0,0-11.481-4.493l-14.583,6.379Z" transform="translate(-799.286 -557.729)" fill="#155bcd"/>
        <path id="Trazado_596290" data-name="Trazado 596290" d="M1245.123,833.508h0a16.089,16.089,0,0,0-17.208,16.288l.593,40.108c9.921,7.83,27.666,9.79,36.823,3.916l-1.871-41.525a19.73,19.73,0,0,0-18.336-18.787" transform="translate(-816.888 -554.478)" fill="#155bcd"/>
        <path id="Trazado_596291" data-name="Trazado 596291" d="M1226.613,861.8l.5,0-.191-12.993a16.062,16.062,0,0,1,17.207-16.288,19.651,19.651,0,0,1,2.652.366l.138-.48a19.986,19.986,0,0,0-2.754-.384,16.57,16.57,0,0,0-17.743,16.8Zm.4,27.361.187.147c5.647,4.458,13.963,7.194,22.1,7.424l-.045-.509c-7.755-.247-16.042-2.809-21.746-7.31l-.255-17.2-.5.044Zm35.449-37.856,1.418,31.485.5-.03-1.42-31.477a20.17,20.17,0,0,0-.676-4.357l-.45.254a19.775,19.775,0,0,1,.628,4.125" transform="translate(-815.894 -553.484)" fill="#fff"/>
        <path id="Trazado_596292" data-name="Trazado 596292" d="M1267.7,817.435l-.8,11.421a6.349,6.349,0,0,0,7.442.52l.8-11.421Z" transform="translate(-842.828 -543.812)" fill="#f4bcc7"/>
        <path id="Trazado_596293" data-name="Trazado 596293" d="M1268.57,817.435l-.361,5.166a6.041,6.041,0,0,0,1.64.5q.279.042.561.062a6.71,6.71,0,0,0,5.388-2.142l.214-3.065Z" transform="translate(-843.696 -543.812)" fill="#ea8096"/>
        <path id="Trazado_596294" data-name="Trazado 596294" d="M1260.209,783.7l-.214,6.721a5.315,5.315,0,0,0,4.5,5.422,5.913,5.913,0,0,0,6.038-2.878,45.229,45.229,0,0,0,2.289-4.773,8.091,8.091,0,0,0-1.145-8.309,6.517,6.517,0,0,0-11.47,3.817" transform="translate(-838.23 -517.301)" fill="#f4bcc7"/>
        <path id="Trazado_596295" data-name="Trazado 596295" d="M1252.967,770.89a2.6,2.6,0,0,1-.241-2.159,4.829,4.829,0,0,0,.2-2.236c-.248-.928-1.14-1.52-1.2-2.491a2.606,2.606,0,0,1,1.356-2.119l5.313-3.885a7.05,7.05,0,0,1,2.3-1.28,2.293,2.293,0,0,1,2.382.7c.316.387.518.9.85,1.265.751.829,1.891.683,2.9.6a5.071,5.071,0,0,1,3.612.805,3.675,3.675,0,0,1,1.231,3.9,7.569,7.569,0,0,1-1.074,1.685,2.753,2.753,0,0,0-.587,1.946c.154.949.983,1.451,1.579,2.093a4.942,4.942,0,0,1,1.186,3.667,4.438,4.438,0,0,1-1.752,3.272,1.738,1.738,0,0,1-2.6-.431c-.585-1.149.067-3-.828-3.795-1.076-.959-2.738,1.116-3.8.13-.567-.528-.532-1.61-.994-2.273-.609-.875-1.683-.657-2.493-.519a13.824,13.824,0,0,1-2.576.154,4.215,4.215,0,0,0-2.2.638c-.752.421-1.8,1.158-2.561.329" transform="translate(-832.726 -503.365)" fill="#050f64"/>
        <path id="Trazado_596296" data-name="Trazado 596296" d="M1289.944,802.336a2.814,2.814,0,1,0,2.961-2.287,2.654,2.654,0,0,0-2.961,2.287" transform="translate(-858.152 -532.241)" fill="#f4bcc7"/>
        <path id="Trazado_596297" data-name="Trazado 596297" d="M1259.295,1055.606h-5.839l11.223-78.423h13.234Z" transform="translate(-833.881 -650.087)" fill="#155bcd"/>
        <rect id="Rectángulo_299249" data-name="Rectángulo 299249" width="237.627" height="4.906" transform="translate(260.14 317.284)" fill="#84a9ff"/>
        <rect id="Rectángulo_299250" data-name="Rectángulo 299250" width="216.737" height="4.906" transform="translate(270.584 322.19)" fill="#155bcd"/>
        <path id="Trazado_596298" data-name="Trazado 596298" d="M1384.635,1055.606h5.839l-11.224-78.423h-13.234Z" transform="translate(-908.763 -650.087)" fill="#155bcd"/>
        <rect id="Rectángulo_299251" data-name="Rectángulo 299251" width="32.843" height="78.423" transform="translate(281.617 327.096)" fill="#84a9ff"/>
        <rect id="Rectángulo_299252" data-name="Rectángulo 299252" width="32.843" height="78.423" transform="translate(313.232 327.096)" fill="#155bcd"/>
        <path id="Trazado_596299" data-name="Trazado 596299" d="M935.764,977.182l32.843,41.667V977.182Z" transform="translate(-622.532 -650.086)" fill="#050f64"/>
        <path id="Trazado_596300" data-name="Trazado 596300" d="M1081.5,879.545c1.138.548,2.307,1.071,3.438,1.578l.828.371c.46.2.924.4,1.387.595.254.107.508.214.76.322l1.072.453,1.082.427c.257.1.512.2.768.3.456.182.927.371,1.4.536l2.171.788,2.185.716c.463.153.939.289,1.4.42.264.074.527.149.787.227a49.634,49.634,0,0,0,8.754,1.685,33.564,33.564,0,0,0,8.54-.246c4.994-.82,10.025-2.894,15.832-6.528,2.269-1.417,4.707-3.1,7.452-5.131,2.186-1.635,4.505-3.443,7.3-5.69a6.843,6.843,0,0,1,5.1-1.433,5.734,5.734,0,0,1,3.891,2.248,5.618,5.618,0,0,1,.987,4.37,6.886,6.886,0,0,1-3.021,4.5c-3.165,2.015-5.791,3.632-8.266,5.089-3.253,1.9-6.028,3.385-8.73,4.684a65.624,65.624,0,0,1-9.478,3.753,43.585,43.585,0,0,1-10.284,1.851,40.663,40.663,0,0,1-10.331-.835,55.985,55.985,0,0,1-9.574-2.956c-.261-.11-.524-.217-.787-.325-.488-.2-.993-.405-1.479-.628l-2.225-1.013-2.176-1.073-.032-.016c-.463-.224-.921-.469-1.364-.705-.25-.133-.5-.266-.751-.4l-1.069-.565-1.051-.588q-.368-.208-.737-.413c-.454-.254-.908-.507-1.357-.769l-.765-.449c-1.1-.649-2.246-1.319-3.347-2.008a1.856,1.856,0,0,1-.764-2.447,1.88,1.88,0,0,1,2.465-.7" transform="translate(-717.711 -578.039)" fill="#f4bcc7"/>
        <path id="Trazado_596301" data-name="Trazado 596301" d="M1242.025,888.161l13.3-8.746a8.557,8.557,0,0,0,2.792-11.87l-.3-.2a8.717,8.717,0,0,0-12.074-2.494l-13.3,8.746Z" transform="translate(-819.903 -574.399)" fill="#155bcd"/>
        <path id="Trazado_596302" data-name="Trazado 596302" d="M1240.583,865.758l.3.406,3.489-2.3a8.717,8.717,0,0,1,10.384.6l.394-.323a9.12,9.12,0,0,0-1.956-1.281,9.264,9.264,0,0,0-9.1.588Zm-10.209,6.712,6.1,9.283.41-.288-5.822-8.85,2.785-1.83-.3-.405Zm23.573,5.967-10.546,6.936.354.364,10.468-6.882a9.606,9.606,0,0,0,4.106-5.717,8.563,8.563,0,0,0-.684-6l-.413.289a8.616,8.616,0,0,1-3.285,11.015" transform="translate(-818.525 -573.42)" fill="#fff"/>
        <path id="Trazado_596303" data-name="Trazado 596303" d="M1011.927,756.636H936.641a1.573,1.573,0,0,0-1.573,1.573V809.9a1.573,1.573,0,0,0,1.573,1.573h75.286a1.573,1.573,0,0,0,1.573-1.573V758.209a1.573,1.573,0,0,0-1.573-1.573" transform="translate(-622.068 -503.365)" fill="#155bcd"/>
        <path id="Trazado_596304" data-name="Trazado 596304" d="M1000.831,756.636H925.545a1.573,1.573,0,0,0-1.573,1.573V809.9a1.573,1.573,0,0,0,1.573,1.573h75.286a1.573,1.573,0,0,0,1.573-1.573V758.209a1.573,1.573,0,0,0-1.573-1.573" transform="translate(-614.687 -503.365)" fill="#84a9ff"/>
        <path id="Trazado_596305" data-name="Trazado 596305" d="M1017.772,895.114h-14.01l7.292-26.545H1022.2Z" transform="translate(-667.768 -577.83)" fill="#155bcd"/>
        <path id="Trazado_596306" data-name="Trazado 596306" d="M1050.039,868.57v26.544h-4.424Z" transform="translate(-695.611 -577.83)" fill="#050f64"/>
        <path id="Trazado_596307" data-name="Trazado 596307" d="M1031.1,800.408a10.159,10.159,0,1,1-10.159-10.159,10.159,10.159,0,0,1,10.159,10.159" transform="translate(-672.436 -525.726)" fill="#fff"/>
        <path id="Trazado_596308" data-name="Trazado 596308" d="M519.841,1199.927a2.114,2.114,0,0,0-1.337-.712,12.848,12.848,0,0,0-1.549-.09,8.2,8.2,0,0,1-3.62-1.049,12.209,12.209,0,0,0-1.739-.948l-3.636.1a4.163,4.163,0,0,0-.971,1.961,7.333,7.333,0,0,0-.115,1.993v.758h13.34v-.758h0a2.054,2.054,0,0,0-.375-1.251" transform="translate(-337.193 -796.409)" fill="#050f64"/>
        <path id="Trazado_596309" data-name="Trazado 596309" d="M508.794,1185.349l.457,4.039,3.636-.1.244-3.735Z" transform="translate(-338.483 -788.572)" fill="#f5bdc8"/>
        <path id="Trazado_596310" data-name="Trazado 596310" d="M626.172,1197.488a2.113,2.113,0,0,0-1.409-.557,12.778,12.778,0,0,0-1.549.085,8.2,8.2,0,0,1-3.715-.635,12.225,12.225,0,0,0-1.834-.747l-3.6.5a4.166,4.166,0,0,0-.745,2.058,7.338,7.338,0,0,0,.109,1.993l.085.753,13.255-1.5-.085-.754h0a2.055,2.055,0,0,0-.514-1.2" transform="translate(-408.001 -795.415)" fill="#050f64"/>
        <path id="Trazado_596311" data-name="Trazado 596311" d="M498.51,920.208c-.765-14.071-.632-34.008,3.178-45.237.035-.2,29.492,2.441,29.493,2.445l6.875,28.281a124.222,124.222,0,0,1,3.516,30.4l-.356,42.44-4.971.322-9.207-56.2a218.447,218.447,0,0,1-9.942-21.839l-10.718,78.262-4.976-.239s-2.891-58.59-2.89-58.634Z" transform="translate(-331.395 -582.081)" fill="#155bcd"/>
        <path id="Trazado_596312" data-name="Trazado 596312" d="M612.885,1184.745l.908,3.962,3.6-.5-.177-3.739Z" transform="translate(-407.731 -787.984)" fill="#f5bdc8"/>
        <path id="Trazado_596313" data-name="Trazado 596313" d="M633.073,761.748A1.82,1.82,0,0,0,631.319,760a163.582,163.582,0,0,1-16.367-1.1,122.453,122.453,0,0,1-15.9-2.957,102.836,102.836,0,0,1-15.044-5.157q-3.616-1.583-7.069-3.442c-.572-.317-1.151-.616-1.715-.944l-1.692-.979c-1.112-.68-2.225-1.35-3.307-2.071a5.6,5.6,0,0,0-1.092-.516,5.332,5.332,0,0,0-1.146-.278,6.449,6.449,0,0,0-2.366.162,6.892,6.892,0,0,0-4.049,2.945,6.188,6.188,0,0,0-.807,4.962,5.953,5.953,0,0,0,1.159,2.273,6.571,6.571,0,0,0,.934.941,6.288,6.288,0,0,0,1.159.734c1.33.641,2.687,1.223,4.037,1.809l2.046.833c.68.278,1.374.526,2.059.789q4.132,1.535,8.352,2.724a112.337,112.337,0,0,0,17.047,3.33,129.54,129.54,0,0,0,17.092.8,168.406,168.406,0,0,0,16.846-1.183,1.806,1.806,0,0,0,1.573-1.923" transform="translate(-372.923 -493.966)" fill="#ea8096"/>
        <path id="Trazado_596314" data-name="Trazado 596314" d="M578.295,760.359,565.171,753.9a7.863,7.863,0,0,1-3.9-10.506,8.387,8.387,0,0,1,10.975-3.869l13.123,6.461Z" transform="translate(-372.878 -491.458)" fill="#84a9ff"/>
        <path id="Trazado_596315" data-name="Trazado 596315" d="M519.472,732.95h0a18.2,18.2,0,0,1,18.218,20.722l-2.232,29.268c-12.353,4.478-21.549,2.03-29.492-2.445l-1.337-31.145a15.06,15.06,0,0,1,14.844-16.4" transform="translate(-335.671 -487.606)" fill="#84a9ff"/>
        <path id="Trazado_596316" data-name="Trazado 596316" d="M504.418,744.5l.315.029a14.984,14.984,0,0,1,2.486-5.84l-.222-.245a15.436,15.436,0,0,0-2.579,6.057m6.883,37.954-.1.307a31.752,31.752,0,0,0,8.111,2.038v-.326a31.864,31.864,0,0,1-8.009-2.019m1.691-48.662a15,15,0,0,1,6.381-1.487,18.213,18.213,0,0,1,17.956,14.209l.31-.064a18.527,18.527,0,0,0-18.073-14.468h-.2a15.4,15.4,0,0,0-6.439,1.492Zm22.365,48.5a39.968,39.968,0,0,1-8.051,2.051v.321a40.3,40.3,0,0,0,8.161-2.069l.2-.071.288-3.765c-.1-.055-.209-.11-.312-.166Zm2.224-29.165-1.126,14.755h.325l1.126-14.755Z" transform="translate(-335.572 -486.965)" fill="#fff"/>
        <path id="Trazado_596317" data-name="Trazado 596317" d="M528.858,672.236s-7.694,1.791-5.778,10.341c1.279,5.71,5.418,8.6,11.406,9.582Z" transform="translate(-347.784 -447.216)" fill="#050f64"/>
        <path id="Trazado_596318" data-name="Trazado 596318" d="M549.331,714.445l-.588,8.822a6.192,6.192,0,0,1-7.266-.383l.588-8.821Z" transform="translate(-360.226 -475.042)" fill="#f5bdc8"/>
        <path id="Trazado_596319" data-name="Trazado 596319" d="M550.076,717.464l-.146,2.766a7.935,7.935,0,0,1-3.749.918c-.076,0-.151,0-.227-.007a4.84,4.84,0,0,1-3.279-1.508l.134-2.551Z" transform="translate(-361.023 -477.05)" fill="#ea8096"/>
        <path id="Trazado_596320" data-name="Trazado 596320" d="M548.5,678.727l-.5,6.487-.111,1.439a6.92,6.92,0,0,1-6.928,6.326,3.9,3.9,0,0,1-1.081-.159,4.3,4.3,0,0,1-.406-.142c-.027-.01-.056-.023-.083-.036a3.766,3.766,0,0,1-1.346-.989,11.658,11.658,0,0,1-1.8-3.031,19.964,19.964,0,0,1-1.025-2.762,8.945,8.945,0,0,1-.306-3.419l.49-5.689,11.087-.837Z" transform="translate(-355.834 -449.664)" fill="#f5bdc8"/>
        <path id="Trazado_596321" data-name="Trazado 596321" d="M532.814,668.557s12.685.787,10.186,11.921c0,0,3.991-8.066-.071-13.469-4.474-5.95-10.443-4-12.563-1.153s-3.71,7.561,2.2,10.934a9.736,9.736,0,0,1,.25-8.233" transform="translate(-351.559 -441.157)" fill="#050f64"/>
        <path id="Trazado_596322" data-name="Trazado 596322" d="M531.768,694.109a2.647,2.647,0,1,1-2.5-2.783,2.647,2.647,0,0,1,2.5,2.783" transform="translate(-350.247 -459.914)" fill="#f5bdc8"/>
        <path id="Trazado_596323" data-name="Trazado 596323" d="M626.333,830.324h0a3.016,3.016,0,0,1-1.473-4l21.517-46.549,5.477,2.531-21.517,46.549a3.016,3.016,0,0,1-4,1.473" transform="translate(-415.512 -518.755)" fill="#050f64"/>
        <rect id="Rectángulo_299253" data-name="Rectángulo 299253" width="6.41" height="21.116" transform="translate(221.33 263.67) rotate(-65.191)" fill="#155bcd"/>
        <path id="Trazado_596324" data-name="Trazado 596324" d="M681.3,550.763a42.735,42.735,0,1,0,20.86,56.722,42.782,42.782,0,0,0-20.86-56.722m-33.753,73.018a37.707,37.707,0,1,1,50.049-18.406,37.75,37.75,0,0,1-50.049,18.406" transform="translate(-412.885 -363.782)" fill="#050f64"/>
        <g id="Grupo_881652" data-name="Grupo 881652" transform="translate(212.774 188.067)" opacity="0.5">
          <g id="Grupo_881651" data-name="Grupo 881651">
            <g id="Grupo_881650" data-name="Grupo 881650" clip-path="url(#clip-path-3)">
              <path id="Trazado_596325" data-name="Trazado 596325" d="M707.584,615.368a37.707,37.707,0,1,1-18.406-50.049,37.75,37.75,0,0,1,18.406,50.049" transform="translate(-635.651 -561.841)" fill="#e5e6eb"/>
            </g>
          </g>
        </g>
        <path id="Trazado_596326" data-name="Trazado 596326" d="M562.5,809.556a1.82,1.82,0,0,0-.132-2.473,163.586,163.586,0,0,1-11.421-11.776,122.462,122.462,0,0,1-9.83-12.84,102.812,102.812,0,0,1-7.723-13.9q-1.626-3.6-2.947-7.29c-.213-.618-.442-1.228-.641-1.849l-.6-1.86c-.37-1.25-.749-2.492-1.07-3.752a5.582,5.582,0,0,0-.466-1.115,5.328,5.328,0,0,0-.665-.974,6.454,6.454,0,0,0-1.865-1.464,6.892,6.892,0,0,0-4.979-.523,6.187,6.187,0,0,0-3.921,3.145,5.958,5.958,0,0,0-.661,2.464,6.57,6.57,0,0,0,.064,1.324,6.338,6.338,0,0,0,.37,1.321c.559,1.366,1.177,2.708,1.788,4.047l.961,1.988c.32.662.669,1.311,1,1.965q2.042,3.906,4.38,7.615a112.276,112.276,0,0,0,10.434,13.886,129.626,129.626,0,0,0,12.162,12.036,168.3,168.3,0,0,0,13.306,10.4,1.806,1.806,0,0,0,2.456-.375" transform="translate(-342.992 -498.614)" fill="#f5bdc8"/>
        <path id="Trazado_596327" data-name="Trazado 596327" d="M519.205,773.028l-5.423-13.585a7.863,7.863,0,0,1,4.138-10.414,8.387,8.387,0,0,1,10.743,4.473l5.423,13.585Z" transform="translate(-341.387 -497.923)" fill="#84a9ff"/>
        <path id="Trazado_596328" data-name="Trazado 596328" d="M512.207,755.639l.32.063a7.618,7.618,0,0,1,4.76-7.307,8.475,8.475,0,0,1,7.224.529l.194-.264a9.192,9.192,0,0,0-1-.483,8.777,8.777,0,0,0-6.539-.081,7.845,7.845,0,0,0-2.274,1.388,8.1,8.1,0,0,0-2.687,6.156m2.295,7.429.311-.088-1.63-4.084-.387-.105c.017.047.034.093.053.139Zm2.158,5.41.322-.066-1.528-3.826-.349,0Zm1.732,4.337,11.74-4.686-.146-.291-11.414,4.556-.814-2.041-.322.066Zm10.354-18.152,3.98,9.973.29-.147-3.949-9.893Z" transform="translate(-340.754 -497.289)" fill="#fff"/>
        <path id="Trazado_596329" data-name="Trazado 596329" d="M621.519,1285.855H25.691a3.347,3.347,0,0,1,0-6.695H621.519a3.347,3.347,0,0,1,0,6.695" transform="translate(-14.865 -850.982)" fill="#050f64"/>
        <path id="Trazado_596330" data-name="Trazado 596330" d="M696.283,16.679V151.791a6.7,6.7,0,0,1-6.695,6.695H505.833a6.7,6.7,0,0,1-6.695-6.695V16.679a6.7,6.7,0,0,1,6.695-6.695H689.589a6.7,6.7,0,0,1,6.695,6.695" transform="translate(-332.059 -6.643)" fill="#e5e6eb"/>
        <rect id="Rectángulo_299255" data-name="Rectángulo 299255" width="195.137" height="146.493" rx="17" transform="translate(168.083 4.345)" fill="#fff"/>
        <path id="Trazado_596331" data-name="Trazado 596331" d="M696.283,16.679V28.93H499.138V16.679a6.7,6.7,0,0,1,6.695-6.695H689.589a6.7,6.7,0,0,1,6.695,6.695" transform="translate(-332.059 -6.643)" fill="#155bcd"/>
        <path id="Trazado_596332" data-name="Trazado 596332" d="M536.868,31.927a3.2,3.2,0,1,1-3.2-3.2,3.2,3.2,0,0,1,3.2,3.2" transform="translate(-352.901 -19.112)" fill="#fff"/>
        <path id="Trazado_596333" data-name="Trazado 596333" d="M575.877,31.927a3.2,3.2,0,1,1-3.2-3.2,3.2,3.2,0,0,1,3.2,3.2" transform="translate(-378.853 -19.112)" fill="#fff"/>
        <path id="Trazado_596334" data-name="Trazado 596334" d="M614.886,31.927a3.2,3.2,0,1,1-3.2-3.2,3.2,3.2,0,0,1,3.2,3.2" transform="translate(-404.804 -19.112)" fill="#fff"/>
        <path id="Trazado_596335" data-name="Trazado 596335" d="M731.887,229.766a11.2,11.2,0,0,1,9.422-9.179l-.162-4.432-.4-10.847a26.45,26.45,0,0,0-24.118,23.51l10.832.673Z" transform="translate(-476.745 -136.585)" fill="#ff654f"/>
        <path id="Trazado_596336" data-name="Trazado 596336" d="M765.5,312.409A11.2,11.2,0,0,1,754.721,311l-3.006,3.265-7.356,7.98a26.469,26.469,0,0,0,28.265,3.7l-5.055-9.608Z" transform="translate(-495.197 -206.898)" fill="#ffbd00"/>
        <path id="Trazado_596337" data-name="Trazado 596337" d="M837.627,297.437l-10.7-1.855a15.673,15.673,0,0,1-6.813,9.373l5.055,9.6,2.366,4.5a31.541,31.541,0,0,0,15.1-20.756Z" transform="translate(-545.592 -196.641)" fill="#ffbd00"/>
        <path id="Trazado_596338" data-name="Trazado 596338" d="M716.909,282.831l-10.831-.68-5.08-.316c-.008.251-.008.5-.008.753a31.454,31.454,0,0,0,9.276,22.343l3.451-3.743,7.356-7.972a15.543,15.543,0,0,1-4.164-10.386" transform="translate(-466.344 -187.496)" fill="#ff654f"/>
        <path id="Trazado_596339" data-name="Trazado 596339" d="M815.95,225.428l-2.058,3.929a11.216,11.216,0,0,1,4.958,9.308q0,.353-.024.7l4.366.753,10.71,1.855a27.911,27.911,0,0,0,.2-3.314,26.461,26.461,0,0,0-13.116-22.854Z" transform="translate(-541.454 -143.573)" fill="#155bcd"/>
        <path id="Trazado_596340" data-name="Trazado 596340" d="M795.961,205.777a15.3,15.3,0,0,1,5.517,1.248l5.039-9.624,2.366-4.5a31.39,31.39,0,0,0-13.5-3.054l.186,5.08Z" transform="translate(-529.137 -126.296)" fill="#155bcd"/>
        <rect id="Rectángulo_299256" data-name="Rectángulo 299256" width="116.768" height="9.344" transform="translate(187.033 35.602)" fill="#155bcd"/>
        <rect id="Rectángulo_299257" data-name="Rectángulo 299257" width="79.861" height="4.406" transform="translate(187.033 134.636)" fill="#e5e6eb"/>
        <rect id="Rectángulo_299258" data-name="Rectángulo 299258" width="35.639" height="2.451" transform="translate(187.032 62.259)" fill="#e5e6eb"/>
        <rect id="Rectángulo_299259" data-name="Rectángulo 299259" width="2.451" height="2.452" transform="translate(187.032 84.036)" fill="#e5e6eb"/>
        <rect id="Rectángulo_299260" data-name="Rectángulo 299260" width="30.736" height="2.452" transform="translate(191.935 84.036)" fill="#e5e6eb"/>
        <rect id="Rectángulo_299261" data-name="Rectángulo 299261" width="2.451" height="2.452" transform="translate(187.032 93.337)" fill="#155bcd"/>
        <rect id="Rectángulo_299262" data-name="Rectángulo 299262" width="30.736" height="2.452" transform="translate(191.935 93.337)" fill="#e5e6eb"/>
        <rect id="Rectángulo_299263" data-name="Rectángulo 299263" width="2.451" height="2.451" transform="translate(187.032 102.638)" fill="#6292ff"/>
        <rect id="Rectángulo_299264" data-name="Rectángulo 299264" width="30.736" height="2.451" transform="translate(191.935 102.638)" fill="#e5e6eb"/>
        <rect id="Rectángulo_299265" data-name="Rectángulo 299265" width="2.451" height="2.452" transform="translate(187.032 111.956)" fill="#da5544"/>
        <rect id="Rectángulo_299266" data-name="Rectángulo 299266" width="30.736" height="2.452" transform="translate(191.935 111.956)" fill="#e5e6eb"/>
        <rect id="Rectángulo_299267" data-name="Rectángulo 299267" width="2.451" height="2.451" transform="translate(187.032 121.258)" fill="#ffbd00"/>
        <rect id="Rectángulo_299268" data-name="Rectángulo 299268" width="30.736" height="2.451" transform="translate(191.935 121.257)" fill="#e5e6eb"/>
        <rect id="Rectángulo_299269" data-name="Rectángulo 299269" width="35.639" height="8.258" transform="translate(187.032 68.923)" fill="#e5e6eb"/>
        <rect id="Rectángulo_299270" data-name="Rectángulo 299270" width="35.639" height="2.451" transform="translate(309.246 62.259)" fill="#e5e6eb"/>
        <rect id="Rectángulo_299271" data-name="Rectángulo 299271" width="35.639" height="2.451" transform="translate(309.246 84.035)" fill="#e5e6eb"/>
        <rect id="Rectángulo_299272" data-name="Rectángulo 299272" width="35.639" height="2.451" transform="translate(309.246 93.34)" fill="#e5e6eb"/>
        <rect id="Rectángulo_299273" data-name="Rectángulo 299273" width="35.639" height="2.451" transform="translate(309.246 102.645)" fill="#e5e6eb"/>
        <rect id="Rectángulo_299274" data-name="Rectángulo 299274" width="35.639" height="2.451" transform="translate(309.246 111.95)" fill="#e5e6eb"/>
        <rect id="Rectángulo_299275" data-name="Rectángulo 299275" width="35.639" height="2.451" transform="translate(309.246 121.255)" fill="#e5e6eb"/>
        <rect id="Rectángulo_299276" data-name="Rectángulo 299276" width="35.639" height="8.258" transform="translate(309.246 68.923)" fill="#e5e6eb"/>
        <rect id="Rectángulo_299277" data-name="Rectángulo 299277" width="2.451" height="2.451" transform="translate(187.032 84.035)" fill="#777eeb"/>
        <path id="Trazado_596341" data-name="Trazado 596341" d="M208.794,353.546V614.495a6.7,6.7,0,0,1-6.695,6.695H83.941a6.7,6.7,0,0,1-6.695-6.695V353.546a6.7,6.7,0,0,1,6.695-6.695H202.1a6.7,6.7,0,0,1,6.695,6.695" transform="translate(-51.389 -230.749)" fill="#e5e6eb"/>
        <rect id="Rectángulo_299278" data-name="Rectángulo 299278" width="129.539" height="272.33" rx="17" transform="translate(26.861 117.106)" fill="#fff"/>
        <path id="Trazado_596342" data-name="Trazado 596342" d="M208.794,353.546V365.8H77.246V353.546a6.7,6.7,0,0,1,6.695-6.695H202.1a6.7,6.7,0,0,1,6.695,6.695" transform="translate(-51.389 -230.749)" fill="#155bcd"/>
        <path id="Trazado_596343" data-name="Trazado 596343" d="M114.975,368.794a3.2,3.2,0,1,1-3.2-3.2,3.2,3.2,0,0,1,3.2,3.2" transform="translate(-72.231 -243.218)" fill="#fff"/>
        <path id="Trazado_596344" data-name="Trazado 596344" d="M153.984,368.794a3.2,3.2,0,1,1-3.2-3.2,3.2,3.2,0,0,1,3.2,3.2" transform="translate(-98.182 -243.218)" fill="#fff"/>
        <path id="Trazado_596345" data-name="Trazado 596345" d="M192.993,368.794a3.2,3.2,0,1,1-3.2-3.2,3.2,3.2,0,0,1,3.2,3.2" transform="translate(-124.133 -243.218)" fill="#fff"/>
        <rect id="Rectángulo_299279" data-name="Rectángulo 299279" width="96.848" height="2.451" transform="translate(43.185 295.832)" fill="#e5e6eb"/>
        <rect id="Rectángulo_299280" data-name="Rectángulo 299280" width="2.451" height="2.452" transform="translate(43.185 317.609)" fill="#e5e6eb"/>
        <rect id="Rectángulo_299281" data-name="Rectángulo 299281" width="91.946" height="2.452" transform="translate(48.087 317.609)" fill="#e5e6eb"/>
        <rect id="Rectángulo_299282" data-name="Rectángulo 299282" width="2.451" height="2.452" transform="translate(43.185 326.91)" fill="#155bcd"/>
        <rect id="Rectángulo_299283" data-name="Rectángulo 299283" width="91.946" height="2.452" transform="translate(48.087 326.91)" fill="#e5e6eb"/>
        <rect id="Rectángulo_299284" data-name="Rectángulo 299284" width="2.451" height="2.451" transform="translate(43.185 336.211)" fill="#6292ff"/>
        <rect id="Rectángulo_299285" data-name="Rectángulo 299285" width="91.946" height="2.451" transform="translate(48.087 336.211)" fill="#e5e6eb"/>
        <rect id="Rectángulo_299286" data-name="Rectángulo 299286" width="2.451" height="2.452" transform="translate(43.185 345.529)" fill="#da5544"/>
        <rect id="Rectángulo_299287" data-name="Rectángulo 299287" width="91.946" height="2.452" transform="translate(48.087 345.529)" fill="#e5e6eb"/>
        <rect id="Rectángulo_299288" data-name="Rectángulo 299288" width="2.451" height="2.451" transform="translate(43.185 354.83)" fill="#ffbd00"/>
        <rect id="Rectángulo_299289" data-name="Rectángulo 299289" width="91.946" height="2.451" transform="translate(48.087 354.83)" fill="#e5e6eb"/>
        <rect id="Rectángulo_299290" data-name="Rectángulo 299290" width="96.848" height="8.258" transform="translate(43.185 302.496)" fill="#e5e6eb"/>
        <rect id="Rectángulo_299291" data-name="Rectángulo 299291" width="96.848" height="8.258" transform="translate(43.185 362.065)" fill="#e5e6eb"/>
        <rect id="Rectángulo_299292" data-name="Rectángulo 299292" width="12.991" height="53.519" transform="translate(75.443 191.109)" fill="#84a9ff"/>
        <rect id="Rectángulo_299293" data-name="Rectángulo 299293" width="12.991" height="63.046" transform="translate(91.609 181.583)" fill="#ffbd00"/>
        <rect id="Rectángulo_299294" data-name="Rectángulo 299294" width="12.991" height="31.386" transform="translate(59.276 213.242)" fill="#ff654f"/>
        <rect id="Rectángulo_299295" data-name="Rectángulo 299295" width="12.991" height="57.561" transform="translate(107.775 187.068)" fill="#84a9ff"/>
        <rect id="Rectángulo_299296" data-name="Rectángulo 299296" width="12.991" height="78.634" transform="translate(123.942 165.994)" fill="#ffbd00"/>
        <path id="Trazado_596346" data-name="Trazado 596346" d="M119.273,507.4a19.141,19.141,0,0,1-4.416-.515c-5.78-1.37-9.107-6.41-11.108-10.082l1.837-1c2.875,5.276,5.974,8.151,9.754,9.047,7.641,1.812,15.683-1.852,18.705-8.524a40.5,40.5,0,0,0,2.377-8.24q.154-.72.31-1.437c.824-3.75,2.173-8.549,5.315-12.4,3.779-4.632,9.195-6.913,14.489-6.1a42.287,42.287,0,0,1,5.789,1.461c3.768,1.142,7.327,2.221,11,1.136,5.891-1.74,10.211-6.753,14.389-11.6,3.584-4.159,7.29-8.46,12.045-10.828l.932,1.872c-4.377,2.18-7.785,6.135-11.393,10.321-4.375,5.078-8.9,10.328-15.381,12.242-4.273,1.262-8.3.04-12.2-1.141a40.109,40.109,0,0,0-5.5-1.394c-4.554-.7-9.246,1.3-12.551,5.355-2.863,3.509-4.119,8-4.893,11.527-.1.474-.206.95-.308,1.426a42.052,42.052,0,0,1-2.517,8.666c-2.842,6.274-9.563,10.212-16.677,10.212" transform="translate(-69.02 -298.251)" fill="#ff654f"/>
        <path id="Trazado_596347" data-name="Trazado 596347" d="M388.427,449.426l4.006-4.806-6.166-1.067Z" transform="translate(-256.97 -295.081)" fill="#ff654f"/>
        <path id="Trazado_596348" data-name="Trazado 596348" d="M133.5,782.468a8.723,8.723,0,0,1,8.071-8.071v-4.49a13.192,13.192,0,0,0-12.561,12.561Z" transform="translate(-85.827 -512.193)" fill="#84a9ff"/>
        <path id="Trazado_596349" data-name="Trazado 596349" d="M170.224,774.4a8.723,8.723,0,0,1,8.071,8.071h4.49a13.192,13.192,0,0,0-12.561-12.561Z" transform="translate(-113.244 -512.193)" fill="#84a9ff"/>
        <path id="Trazado_596350" data-name="Trazado 596350" d="M141.573,819.189a8.723,8.723,0,0,1-8.071-8.071h-4.49a13.192,13.192,0,0,0,12.561,12.561Z" transform="translate(-85.827 -539.61)" fill="#84a9ff"/>
        <path id="Trazado_596351" data-name="Trazado 596351" d="M178.3,811.119a8.723,8.723,0,0,1-8.071,8.071v4.49a13.192,13.192,0,0,0,12.561-12.561Z" transform="translate(-113.244 -539.61)" fill="#84a9ff"/>
        <rect id="Rectángulo_299297" data-name="Rectángulo 299297" width="10.238" height="4.701" transform="translate(51.244 268.541)" fill="#e5e6eb"/>
        <path id="Trazado_596352" data-name="Trazado 596352" d="M238.8,782.468a8.723,8.723,0,0,1,8.071-8.071v-4.49a13.192,13.192,0,0,0-12.561,12.561Z" transform="translate(-155.877 -512.193)" fill="#84a9ff"/>
        <path id="Trazado_596353" data-name="Trazado 596353" d="M275.519,774.4a8.723,8.723,0,0,1,8.071,8.071h4.49a13.192,13.192,0,0,0-12.561-12.561Z" transform="translate(-183.293 -512.193)" fill="#84a9ff"/>
        <path id="Trazado_596354" data-name="Trazado 596354" d="M246.868,819.189a8.723,8.723,0,0,1-8.071-8.071h-4.49a13.192,13.192,0,0,0,12.561,12.561Z" transform="translate(-155.876 -539.61)" fill="#84a9ff"/>
        <path id="Trazado_596355" data-name="Trazado 596355" d="M283.59,811.119a8.723,8.723,0,0,1-8.071,8.071v4.49a13.192,13.192,0,0,0,12.561-12.561Z" transform="translate(-183.293 -539.61)" fill="#84a9ff"/>
        <rect id="Rectángulo_299298" data-name="Rectángulo 299298" width="10.238" height="4.701" transform="translate(86.49 268.541)" fill="#e5e6eb"/>
        <path id="Trazado_596356" data-name="Trazado 596356" d="M344.093,782.468a8.723,8.723,0,0,1,8.071-8.071v-4.49A13.192,13.192,0,0,0,339.6,782.468Z" transform="translate(-225.926 -512.193)" fill="#84a9ff"/>
        <path id="Trazado_596357" data-name="Trazado 596357" d="M380.814,774.4a8.723,8.723,0,0,1,8.071,8.071h4.49a13.192,13.192,0,0,0-12.561-12.561Z" transform="translate(-253.342 -512.193)" fill="#84a9ff"/>
        <path id="Trazado_596358" data-name="Trazado 596358" d="M352.164,819.189a8.723,8.723,0,0,1-8.071-8.071H339.6a13.192,13.192,0,0,0,12.561,12.561Z" transform="translate(-225.926 -539.61)" fill="#84a9ff"/>
        <path id="Trazado_596359" data-name="Trazado 596359" d="M388.885,811.119a8.723,8.723,0,0,1-8.071,8.071v4.49a13.192,13.192,0,0,0,12.561-12.561Z" transform="translate(-253.342 -539.61)" fill="#84a9ff"/>
        <rect id="Rectángulo_299299" data-name="Rectángulo 299299" width="10.238" height="4.701" transform="translate(121.736 268.541)" fill="#e5e6eb"/>
        <path id="Trazado_596360" data-name="Trazado 596360" d="M1668.4,1026.373c-1.432-3.63-2.41-7.572-4.95-10.534a5.075,5.075,0,0,0-2.227-1.653,2.372,2.372,0,0,0-2.559.647,3.688,3.688,0,0,0-.448,2.528q.245,3.807.491,7.615a33.115,33.115,0,0,0,.948,6.961c1.063,3.735,3.718,7.226,7.448,8.309,2.412.7,9.275-.438,8.741-4.179-.222-1.558-2.727-2.559-3.724-3.559a17.868,17.868,0,0,1-3.719-6.135" transform="translate(-1103.136 -674.621)" fill="#050f64"/>
        <path id="Trazado_596361" data-name="Trazado 596361" d="M1665.233,1056.99c.377-1.982,1.059-4.051,2.646-5.3,2.635-2.067,6.528-1.052,9.682-2.176,4.689-1.671,6.567-7.5,10.863-10.011a5.735,5.735,0,0,1,3.449-.885,3.356,3.356,0,0,1,2.8,2c.582,1.547-.321,3.219-1.171,4.637s-1.7,3.139-1.025,4.648a4.213,4.213,0,0,0,2.615,2.024,24.653,24.653,0,0,1,3.227,1.066c2.761,1.4,3.864,5,3.13,8.009s-2.915,5.457-5.329,7.394a30.172,30.172,0,0,1-17.353,6.449c-2.873.136-6.1.248-8.834-.769-3.686-1.372-4.432-4.635-4.922-8.166a27.551,27.551,0,0,1,.218-8.919" transform="translate(-1107.502 -690.944)" fill="#155bcd"/>
        <path id="Trazado_596362" data-name="Trazado 596362" d="M1703.249,1037.456a31.835,31.835,0,0,1-3.536,7.551c-.974,1.682-2.545,2.3-4.433,2.764a16.521,16.521,0,0,1-2.43.39c-.167.015-.335.028-.5.041-.952.066-1.909.083-2.864.1-1.884.033-3.824-.035-5.749-.157l-.445-.028c-1.082-.074-2.158-.163-3.213-.262a6.945,6.945,0,0,1-5.341-4.243,16.922,16.922,0,0,1-1.149-7,65.253,65.253,0,0,1,12.324-38.21,11.65,11.65,0,0,1,.945-1.156,6.6,6.6,0,0,1,.973-.862,2.993,2.993,0,0,1,2.3-.615c1.738.323,2.551,2.31,2.938,4.034a36.84,36.84,0,0,1-7.61,31.211,8.253,8.253,0,0,0-1.814,2.783,2.459,2.459,0,0,0,.987,2.913c1.408.687,2.945-.679,3.765-2.013,1-1.632,1.729-3.423,2.766-5.033a7.973,7.973,0,0,1,4.321-3.588,5.641,5.641,0,0,1,3.7.311c.138.058.274.121.408.19a7.181,7.181,0,0,1,2.943,2.761,10.744,10.744,0,0,1,.71,8.116" transform="translate(-1113.38 -662.423)" fill="#84a9ff"/>
        <path id="Trazado_596363" data-name="Trazado 596363" d="M1736.882,1087.517a62.112,62.112,0,0,1-2.747,12.228c-.07.21-.141.42-.213.629a62.119,62.119,0,0,1-3.785,8.726c-.168.016-.336.028-.5.041a61.745,61.745,0,0,0,4.047-9.385c.071-.212.142-.423.212-.637a61.583,61.583,0,0,0,2.581-11.793c.138.058.274.121.407.19" transform="translate(-1150.667 -723.362)" fill="#155bcd"/>
        <path id="Trazado_596364" data-name="Trazado 596364" d="M1738.12,1113.685q-.1.315-.213.629l-.24-.618-2.041-5.262.4-.153,1.855,4.778Z" transform="translate(-1154.652 -737.302)" fill="#155bcd"/>
        <path id="Trazado_596365" data-name="Trazado 596365" d="M1698.39,1044.415c.251,1.693.575,3.376.992,5.037l-.444-.028a53.126,53.126,0,0,1-1.016-5.267c-.043-.3-.084-.595-.121-.894a91.658,91.658,0,0,1-.664-10.052c0-.236-.009-.472-.012-.706-.018-1.319-.021-2.631-.018-3.93,0-1.69.016-3.408.06-5.142.006-.225.011-.45.019-.676v0a85.09,85.09,0,0,1,.749-9.458h0c.03-.224.063-.448.1-.672.211-1.382.471-2.76.79-4.13a40.217,40.217,0,0,1,3.68-9.941,6.623,6.623,0,0,1,.973-.862,39.081,39.081,0,0,0-4.239,10.9q-.413,1.775-.7,3.567-.055.339-.105.677a85.139,85.139,0,0,0-.836,10.458h0c-.005.227-.009.452-.016.679h0c-.032,1.55-.043,3.087-.046,4.6q0,1.668.011,3.358c0,.237.005.471.01.707v0a90.382,90.382,0,0,0,.773,11.351c.02.141.04.28.061.421" transform="translate(-1129.027 -663.73)" fill="#155bcd"/>
        <path id="Trazado_596366" data-name="Trazado 596366" d="M1706.905,1023.423l-6.828,6.323-.5.46c.03-.225.064-.447.1-.672l.5-.466,6.433-5.958Z" transform="translate(-1130.672 -680.641)" fill="#155bcd"/>
        <path id="Trazado_596367" data-name="Trazado 596367" d="M1689.281,1062.887h0c-.005.227-.01.452-.016.679l-.413-.541-4.245-5.56.338-.258,3.925,5.141h0Z" transform="translate(-1120.712 -703.325)" fill="#155bcd"/>
        <path id="Trazado_596368" data-name="Trazado 596368" d="M1702.357,1082.187l-4.763,6.5h0l-.418.568c0-.236-.009-.472-.011-.706l.419-.571,4.429-6.043Z" transform="translate(-1129.065 -719.775)" fill="#155bcd"/>
        <path id="Trazado_596369" data-name="Trazado 596369" d="M1693,1126.571l-.185.134-.282-.392-3.525-4.878.345-.249,3.059,4.233.527.732c.02.141.04.28.061.42" transform="translate(-1123.642 -745.887)" fill="#155bcd"/>
        <path id="Trazado_596370" data-name="Trazado 596370" d="M1697.357,1137.059v39.455a8.112,8.112,0,0,1-8.111,8.111h-22.8a8.109,8.109,0,0,1-8.109-8.111v-39.455Z" transform="translate(-1103.236 -756.447)" fill="#ffbd00"/>
        <path id="Trazado_596371" data-name="Trazado 596371" d="M1694.272,1228.365a8.075,8.075,0,0,1-5.026,1.746h-22.8a8.109,8.109,0,0,1-8.109-8.111v-16.569c4.287,7.229,14.151,18.092,35.933,22.934" transform="translate(-1103.236 -801.932)" fill="#dca000"/>
        <path id="Trazado_596372" data-name="Trazado 596372" d="M77.239,1013.639a278.37,278.37,0,0,0-7.113-38.461c-2.745-10.189-6.311-20.136-9.872-30.069.448,1.25-.114,3.683-.129,5.037q-.029,2.706.028,5.412.109,5.224.537,10.436a174.11,174.11,0,0,0,7.11,36.949c1.593,5.177,3.443,10.274,5.515,15.278a32.311,32.311,0,0,0,1.344,3.918c.588,1.345,2.656,4.421,3.087,1.376.454-3.21-.114-6.689-.507-9.877m-5.664-.615c.3.664.547,1.346.779,2.036Z" transform="translate(-39.993 -628.749)" fill="#050f64"/>
        <path id="Trazado_596373" data-name="Trazado 596373" d="M0,1079.981c7.884-.13,16.383-.078,22.781,4.531,2.74,1.974,14.439,18.777,8.665,19.924-3.139.624-6.423-5.078-8.1-6.871a85.521,85.521,0,0,0-10.2-9.261A84.27,84.27,0,0,0,0,1079.981" transform="translate(0 -718.453)" fill="#84a9ff"/>
        <path id="Trazado_596374" data-name="Trazado 596374" d="M167.859,1001.758l-11.709,36.771c-.881,2.766-3.28,7.341-6.814,5-3.084-2.042-1.656-7.022-.944-9.9,1.706-6.9,6.134-13.8,9.989-19.666q2.161-3.288,4.58-6.4c1.225-1.573,4.309-3.962,4.9-5.806" transform="translate(-98.084 -666.436)" fill="#155bcd"/>
        <path id="Trazado_596375" data-name="Trazado 596375" d="M127.728,956.144c.937-9.262,3.514-18.269,6.081-27.217-7.278,11.051-11.8,23.774-14.21,36.785s-2.768,26.333-2.166,39.552c.093,2.044.3,4.29,1.756,5.723,2.054,2.016,5.708,1.3,7.746-.728,2.41-2.4,3.131-5.945,3.987-9.111.751-2.778,1.569-5.592,1.232-8.5-.386-3.329-1.711-6.555-2.512-9.794a78.851,78.851,0,0,1-2.036-12.406,78.029,78.029,0,0,1,.122-14.307" transform="translate(-77.953 -617.984)" fill="#84a9ff"/>
        <path id="Trazado_596376" data-name="Trazado 596376" d="M102.251,1034.99c2.954-.068,5.4-2.583,6.334-5.386s.677-5.846.377-8.785a407.152,407.152,0,0,0-10.589-59.555q2.279,37.481,2.131,75.056c.38-.87,1.367-.461,1.747-1.33" transform="translate(-65.444 -639.496)" fill="#155bcd"/>
        <path id="Trazado_596377" data-name="Trazado 596377" d="M149.347,1028.773c5.273-8.817,11.9-16.735,18.5-24.61L151.9,1046.509c-1.171,3.108-7.747,19.759-13.055,14.213-1.881-1.965.095-4.8.809-6.887,1.328-3.878,1.876-7.966,3.3-11.843a78.6,78.6,0,0,1,6.4-13.219" transform="translate(-91.842 -668.036)" fill="#050f64"/>
        <path id="Trazado_596378" data-name="Trazado 596378" d="M106.3,1137.059v39.455a8.112,8.112,0,0,1-8.111,8.111H75.39a8.109,8.109,0,0,1-8.109-8.111v-39.455Z" transform="translate(-44.76 -756.447)" fill="#ffbd00"/>
        <path id="Trazado_596379" data-name="Trazado 596379" d="M103.214,1228.365a8.075,8.075,0,0,1-5.027,1.746H75.39A8.109,8.109,0,0,1,67.281,1222v-16.569c4.287,7.229,14.151,18.092,35.933,22.934" transform="translate(-44.76 -801.932)" fill="#dca000"/>
      </g>
    </g>
  </g>
</svg>
