<svg xmlns="http://www.w3.org/2000/svg" xmlns:xlink="http://www.w3.org/1999/xlink" width="188" height="188" viewBox="0 0 188 188">
  <defs>
    <clipPath id="clip-path">
      <rect id="Rectángulo_298284" data-name="Rectángulo 298284" width="188" height="188" transform="translate(0 0)" fill="none"/>
    </clipPath>
    <clipPath id="clip-path-2">
      <rect id="Rectángulo_298283" data-name="Rectángulo 298283" width="312" height="208" transform="translate(-0.023 0.331)" fill="none"/>
    </clipPath>
    <clipPath id="clip-path-3">
      <rect id="Rectángulo_298272" data-name="Rectángulo 298272" width="165.272" height="4.449" fill="none"/>
    </clipPath>
    <clipPath id="clip-path-4">
      <rect id="Rectángulo_298273" data-name="Rectángulo 298273" width="24.055" height="53.656" fill="none"/>
    </clipPath>
    <clipPath id="clip-path-5">
      <rect id="Rectángulo_298274" data-name="Rectángulo 298274" width="3.048" height="3.764" fill="none"/>
    </clipPath>
    <clipPath id="clip-path-6">
      <rect id="Rectángulo_298275" data-name="Rectángulo 298275" width="0.055" height="0.035" fill="none"/>
    </clipPath>
    <clipPath id="clip-path-7">
      <rect id="Rectángulo_298276" data-name="Rectángulo 298276" width="1.469" height="7.392" fill="none"/>
    </clipPath>
    <clipPath id="clip-path-8">
      <rect id="Rectángulo_298277" data-name="Rectángulo 298277" width="8.367" height="5.18" fill="none"/>
    </clipPath>
    <clipPath id="clip-path-9">
      <rect id="Rectángulo_298278" data-name="Rectángulo 298278" width="3.622" height="10.681" fill="none"/>
    </clipPath>
    <clipPath id="clip-path-10">
      <rect id="Rectángulo_298279" data-name="Rectángulo 298279" width="4.427" height="10.986" fill="none"/>
    </clipPath>
    <clipPath id="clip-path-11">
      <rect id="Rectángulo_298280" data-name="Rectángulo 298280" width="3.165" height="5.84" fill="none"/>
    </clipPath>
    <clipPath id="clip-path-12">
      <rect id="Rectángulo_298281" data-name="Rectángulo 298281" width="16.558" height="108.023" fill="none"/>
    </clipPath>
    <clipPath id="clip-path-13">
      <rect id="Rectángulo_298282" data-name="Rectángulo 298282" width="14.974" height="7.283" fill="none"/>
    </clipPath>
  </defs>
  <g id="Grupo_879972" data-name="Grupo 879972" transform="translate(-0.5 -0.001)">
    <g id="Grupo_879971" data-name="Grupo 879971" transform="translate(0.5 0)" clip-path="url(#clip-path)">
      <rect id="Rectángulo_298271" data-name="Rectángulo 298271" width="282" height="188" transform="translate(0 0)" fill="#eddcc3"/>
      <g id="Grupo_879970" data-name="Grupo 879970" transform="translate(-59.977 -16.921)">
        <g id="Grupo_879969" data-name="Grupo 879969" transform="translate(0 -0.409)" clip-path="url(#clip-path-2)">
          <g id="Grupo_879938" data-name="Grupo 879938" transform="translate(68.94 181.318)" opacity="0.23">
            <g id="Grupo_879937" data-name="Grupo 879937">
              <g id="Grupo_879936" data-name="Grupo 879936" clip-path="url(#clip-path-3)">
                <path id="Trazado_594411" data-name="Trazado 594411" d="M830.8,1741.936c0,1.229-38.993,2.655-83.922,2.655s-81.351-1-81.351-2.225,36.422-2.224,81.351-2.224,83.922.565,83.922,1.794" transform="translate(-665.53 -1740.142)" fill="#32323f"/>
              </g>
            </g>
          </g>
          <path id="Trazado_594412" data-name="Trazado 594412" d="M820.745,401.51c-.317,16.505-3.095,67.562-5.317,75.789s-75.814,3.477-74.281-.952c3.11-8.987,5.344-38.331,6.333-57.287h0c.375-7.158.572-12.835.572-15.375,0-2.829,0-9.067-.127-16.628-.3-17.211-1.295-41.275-4.635-47.578-2.125-4.011,9.4-5.717,23.8-6.077,3.6-.09,7.377-.1,11.166-.033,17.507.291,35.257,2.058,36.676,3.825,5.85,7.286,6.13,47.811,5.812,64.318" transform="translate(-664.326 -298.251)" fill="#fff"/>
          <path id="Trazado_594413" data-name="Trazado 594413" d="M883.7,540.882l-9.141-.227-.922-9.377,8.629.347Z" transform="translate(-783.063 -475.626)" fill="none" stroke="#f4ad00" stroke-linecap="round" stroke-linejoin="round" stroke-width="10"/>
          <path id="Trazado_594414" data-name="Trazado 594414" d="M894.549,697.266l-8.943-.756-.164-9.42,8.573,1.04Z" transform="translate(-793.641 -615.241)" fill="none" stroke="#f4ad00" stroke-linecap="round" stroke-linejoin="round" stroke-width="10"/>
          <path id="Trazado_594415" data-name="Trazado 594415" d="M895.322,868.027l-9.094-1.071.023-9.422,8.55,1.21Z" transform="translate(-794.346 -767.966)" fill="none" stroke="#f4ad00" stroke-linecap="round" stroke-linejoin="round" stroke-width="10"/>
          <path id="Trazado_594416" data-name="Trazado 594416" d="M895.322,1040.075l-9.094-.9.023-9.422,8.55,1.21Z" transform="translate(-794.346 -922.284)" fill="none" stroke="#f4ad00" stroke-linecap="round" stroke-linejoin="round" stroke-width="10"/>
          <path id="Trazado_594417" data-name="Trazado 594417" d="M886.157,1204.173l-9.2-1.559.38-9.414,8.673,1.049Z" transform="translate(-786.041 -1068.738)" fill="none" stroke="#f4ad00" stroke-linecap="round" stroke-linejoin="round" stroke-width="10"/>
          <path id="Trazado_594418" data-name="Trazado 594418" d="M1034.094,623.711c4.072-.211,37.19.294,38.412.924" transform="translate(-926.84 -558.406)" fill="none" stroke="#606072" stroke-linecap="round" stroke-linejoin="round" stroke-width="12"/>
          <path id="Trazado_594419" data-name="Trazado 594419" d="M1034.094,785.032c4.072-.211,37.19.294,38.412.924" transform="translate(-926.84 -702.957)" fill="none" stroke="#606072" stroke-linecap="round" stroke-linejoin="round" stroke-width="12"/>
          <path id="Trazado_594420" data-name="Trazado 594420" d="M1034.094,953.848c4.072-.211,37.19.294,38.412.924" transform="translate(-926.84 -854.224)" fill="none" stroke="#606072" stroke-linecap="round" stroke-linejoin="round" stroke-width="12"/>
          <path id="Trazado_594421" data-name="Trazado 594421" d="M1024.384,1129.081c4.072-.211,37.19.294,38.412.924" transform="translate(-918.14 -1011.241)" fill="none" stroke="#606072" stroke-linecap="round" stroke-linejoin="round" stroke-width="12"/>
          <path id="Trazado_594422" data-name="Trazado 594422" d="M1014.656,1298.811c4.072-.211,37.19.294,38.412.924" transform="translate(-909.423 -1163.327)" fill="none" stroke="#606072" stroke-linecap="round" stroke-linejoin="round" stroke-width="12"/>
          <g id="Grupo_879941" data-name="Grupo 879941" transform="translate(78.711 35.149)" opacity="0.05">
            <g id="Grupo_879940" data-name="Grupo 879940">
              <g id="Grupo_879939" data-name="Grupo 879939" clip-path="url(#clip-path-4)">
                <path id="Trazado_594423" data-name="Trazado 594423" d="M783.578,334.045a136.325,136.325,0,0,1-5.228,20.783c-.991,3.055-2.069,6.138-3.2,9.167a165.361,165.361,0,0,1-10.74,23.7c-.3-17.211-1.295-41.275-4.635-47.578-2.125-4.011,9.4-5.717,23.8-6.077" transform="translate(-759.523 -334.045)" fill="#1f1f39"/>
              </g>
            </g>
          </g>
          <path id="Trazado_594424" data-name="Trazado 594424" d="M890.674,522.8c-.841,1.442.393,4.308,1.394,3.664.6-.384,4.823-3.957,8.544-6.256,3.861-2.385,7.972-2.967,3.968-3.575a6.858,6.858,0,0,0-4.814,1.764c-1.645,1.43-6.995,6.114-7.326,5.981-.477-.192-1.266-2.436-1.766-1.578" transform="translate(-798.08 -462.475)" fill="#3b3b4d"/>
          <path id="Trazado_594425" data-name="Trazado 594425" d="M902.619,677.457c-.841,1.442.393,4.308,1.394,3.664.6-.384,4.823-3.957,8.544-6.256,3.861-2.385,7.972-2.967,3.968-3.575a6.858,6.858,0,0,0-4.814,1.764c-1.644,1.43-6.995,6.114-7.326,5.981-.477-.192-1.265-2.436-1.766-1.578" transform="translate(-808.782 -601.058)" fill="#3b3b4d"/>
          <path id="Trazado_594426" data-name="Trazado 594426" d="M902.619,847.818c-.841,1.442.393,4.308,1.394,3.665.6-.384,4.823-3.957,8.544-6.256,3.861-2.386,7.972-2.967,3.968-3.575a6.858,6.858,0,0,0-4.814,1.763c-1.644,1.43-6.995,6.114-7.326,5.981-.477-.192-1.265-2.436-1.766-1.578" transform="translate(-808.782 -753.709)" fill="#3b3b4d"/>
          <path id="Trazado_594427" data-name="Trazado 594427" d="M902.619,1024.118c-.841,1.442.393,4.308,1.394,3.664.6-.384,4.823-3.957,8.544-6.256,3.861-2.385,7.972-2.967,3.968-3.575a6.857,6.857,0,0,0-4.814,1.764c-1.644,1.43-6.995,6.114-7.326,5.981-.477-.192-1.265-2.436-1.766-1.578" transform="translate(-808.782 -911.682)" fill="#3b3b4d"/>
          <path id="Trazado_594428" data-name="Trazado 594428" d="M889.6,1189.967c-.841,1.442.393,4.308,1.394,3.664.6-.384,4.823-3.957,8.544-6.256,3.861-2.385,7.972-2.967,3.968-3.575a6.857,6.857,0,0,0-4.814,1.764c-1.645,1.43-6.995,6.114-7.326,5.981-.477-.192-1.265-2.436-1.766-1.578" transform="translate(-797.117 -1060.291)" fill="#3b3b4d"/>
          <path id="Trazado_594429" data-name="Trazado 594429" d="M1602.426,813.031s-1.557,2.849-2.126,2.689a6.57,6.57,0,0,1-2.673-1.976,1.965,1.965,0,0,0-1.1-.622,12.462,12.462,0,0,0-2.162-.209c-.785-.049-1.363-.163-1.278-.7.118-.757,1.412-1.357-1.614-3.358-.575-.381.675-1.281,1.889-1.52.1-.019.2-.034.293-.045a3.209,3.209,0,0,1,2.036.7,7.2,7.2,0,0,1,1.692,1.648c.608.9,1.419,1.083,2.577,1.7a16.179,16.179,0,0,1,2.467,1.7" transform="translate(-1426.147 -722.937)" fill="#efaea6"/>
          <path id="Trazado_594430" data-name="Trazado 594430" d="M1931.243,746.167l3.66-1.023c.034-1.67-1.752-5.177-2.016-6.673-.29-1.641-2.315-3.152-2.315-3.152l-1.23,3.442.078.289a12.791,12.791,0,0,1-.227,4.191c-.29.75-.116,1.86-.915,3.009-.6.86,2.965-.084,2.965-.084" transform="translate(-1728.01 -658.456)" fill="#efaea6"/>
          <g id="Grupo_879944" data-name="Grupo 879944" transform="translate(201.353 80.634)" opacity="0.14">
            <g id="Grupo_879943" data-name="Grupo 879943">
              <g id="Grupo_879942" data-name="Grupo 879942" clip-path="url(#clip-path-5)">
                <path id="Trazado_594431" data-name="Trazado 594431" d="M1939.383,772.166a13.172,13.172,0,0,1-.083,2.943c2.273,1.037,3.479-1.544,2.906-2.185a16.615,16.615,0,0,0-1.666-1.336Z" transform="translate(-1939.3 -771.588)" fill="#1f1f3b"/>
              </g>
            </g>
          </g>
          <path id="Trazado_594432" data-name="Trazado 594432" d="M1909.294,725.733c-.032,1.36-1.346,4.027-.43,3.977s-.071,2.874.906,2.856c2.368-.044,5-1.675,5.237-2.83a22.347,22.347,0,0,0-.116-4.327Z" transform="translate(-1710.385 -649.576)" fill="#efaea6"/>
          <path id="Trazado_594433" data-name="Trazado 594433" d="M1903.741,699.478c-.74.125-.753.3-1.29.077s.323-.99-.661-1.1-2.056-.116-2.224-1.222c-.243-1.6,1.2-1.424,2.1-1.283.575.091.643-1.149,1.782-1.154.894,0,.82.52,1.618.552.482.019,1.371-.817,2.153-.279,1.451,1,.371,2.369,1.592,3.45,1.425,1.26-1.525,4.257-1.907,3.933-.445-.378.094-1.789-.351-2.09-.672-.454-.72.1-1.23.632-.544.571-1.606.658-.985-.423s.076-1.2-.593-1.091" transform="translate(-1702.32 -622.144)" fill="#1f1f3b"/>
          <path id="Trazado_594434" data-name="Trazado 594434" d="M1862.664,1672.379c-.164-1.625-.042-5.742-.042-5.742l4.49-.157-.242,6.182-2.968,1.966Z" transform="translate(-1669.201 -1492.82)" fill="#fff"/>
          <path id="Trazado_594435" data-name="Trazado 594435" d="M1789.333,1708.776c-.379-.289-1.222.726-1.4,1.409-.4,1.562-5.408,1.761-6.3,1.9a1.34,1.34,0,0,0,1.089,2.359c1.982-.009,8.332-.013,10.5-.036a.99.99,0,0,0,.959-.723c.39-1.509.438-5.048-.167-5.1-.816.182-3.243,1.29-4.686.186" transform="translate(-1596.233 -1530.552)" fill="#1f1f3b"/>
          <path id="Trazado_594436" data-name="Trazado 594436" d="M2028.474,1672.437c-.173-1.624-.076-5.742-.076-5.742l4.489-.181-.205,6.184-2.956,1.982Z" transform="translate(-1817.759 -1492.85)" fill="#fff"/>
          <path id="Trazado_594437" data-name="Trazado 594437" d="M1955.463,1702.995c-.483.031-.4.483-.563,1.167-.384,1.565-6.085,2.58-6.976,2.729a1.34,1.34,0,0,0,1.111,2.35c1.982-.025,8.332-.084,10.5-.125a.99.99,0,0,0,.953-.731c.376-1.512.517-5.663-.089-5.707-.814.19-2.735.176-4.935.318" transform="translate(-1745.242 -1525.254)" fill="#1f1f3b"/>
          <path id="Trazado_594438" data-name="Trazado 594438" d="M1870.837,1075.256c-.057.735-.133,1.535-.236,2.41a197.606,197.606,0,0,0-1,21.393c.2,7-.421,23.376-.421,25.884-2.126.932-3.442.642-6.48,0,0,0-.54-13.511-1.139-25.341-.486-9.6-.626-8.642-2.39-20.872v0c-.02.057-.45,1.248-1.076,3.081a162.409,162.409,0,0,0-4.65,15.7c-1.673,7.723-.8,27.852-1.5,28.547-2.086,1.229-5.616,1.348-6.558-.359,0,0-.4-24.894.343-28.792.5-2.651,4.748-28.63,5.7-35.61,0,0,18.7-4.077,19.274,2.311a22.711,22.711,0,0,1,.091,2.38c-.015.992.04,1.911.094,2.919a44.575,44.575,0,0,1-.042,6.346" transform="translate(-1653.696 -949.401)" fill="#3b3b4d"/>
          <g id="Grupo_879947" data-name="Grupo 879947" transform="translate(207.063 125.793)" opacity="0.46">
            <g id="Grupo_879946" data-name="Grupo 879946">
              <g id="Grupo_879945" data-name="Grupo 879945" clip-path="url(#clip-path-6)">
                <path id="Trazado_594439" data-name="Trazado 594439" d="M1994.289,1206.034a.087.087,0,0,0,0,.01.472.472,0,0,1-.052-.035.48.48,0,0,1,.054.025" transform="translate(-1994.234 -1206.009)" fill="#1f1f3b"/>
              </g>
            </g>
          </g>
          <g id="Grupo_879950" data-name="Grupo 879950" transform="translate(204.003 126.143)" opacity="0.54">
            <g id="Grupo_879949" data-name="Grupo 879949">
              <g id="Grupo_879948" data-name="Grupo 879948" clip-path="url(#clip-path-7)">
                <path id="Trazado_594440" data-name="Trazado 594440" d="M1966.257,1212.565v0c-.02.057-.842,2.371-1.468,4.2l.734-7.392a16.4,16.4,0,0,0,.735,3.186" transform="translate(-1964.788 -1209.379)" fill="#1f1f3b"/>
              </g>
            </g>
          </g>
          <g id="Grupo_879953" data-name="Grupo 879953" transform="translate(208.913 118.756)" opacity="0.35">
            <g id="Grupo_879952" data-name="Grupo 879952">
              <g id="Grupo_879951" data-name="Grupo 879951" clip-path="url(#clip-path-8)">
                <path id="Trazado_594441" data-name="Trazado 594441" d="M2020.354,1143.5c-.155-.034-7.363-1.571-8.337-5.18,0,0,6.266.538,8.271.753.087,1.647.129,3.5.067,4.427" transform="translate(-2012.017 -1138.318)" fill="#1f1f3b"/>
              </g>
            </g>
          </g>
          <path id="Trazado_594442" data-name="Trazado 594442" d="M1907.422,797.865c-1.62-.44-1.778,2.237-3.411,2.367-.862.068-.672-.308-1.079-.7-.251-.245-.486-.519-.882-.112-8.06,8.271.333,29.124-.693,30.579-.839,1.19,5.982,3.788,10.267,2.743,5.875-1.433,5.518-7.814,5.348-9.032s-3.955-21.932-3.955-21.932a32.13,32.13,0,0,1-5.594-3.906" transform="translate(-1701.402 -714.457)" fill="#fff"/>
          <path id="Trazado_594443" data-name="Trazado 594443" d="M1658.652,815.028c.629-.984,13.392,11.327,15.22,10.092,3.219-2.175,6.263-10,12.787-11.932a21.518,21.518,0,0,1-.267,4.994c-.617,4.77,2.069,8.164,1.524,13.937-.7,7.466,1.134,15.09-.7,16.774-1.071.981-2.556,1.169-4.349-.692-2.821-2.929-.967-12.541-.71-14.823.1-.889.321-2.086.509-3.327.234-1.543.68-3.379-.1-3.942-.223-.161-4.79,5.363-8.434,5.3-2.713-.049-15.12-9.96-15.51-10.395-1.11-1.237.03-5.981.03-5.981" transform="translate(-1486.011 -728.23)" fill="#0069a8"/>
          <path id="Trazado_594444" data-name="Trazado 594444" d="M2044.148,1170.787c-.157.292-.64.292-.4.489s3.188,1.5,3.188,1.5.284.309.63-.2a2,2,0,0,0,.346-1.019Z" transform="translate(-1831.479 -1048.656)" fill="#e79e9c"/>
          <path id="Trazado_594445" data-name="Trazado 594445" d="M1993.463,835.433a6.463,6.463,0,0,1-8.247-.726c-1.874-1.974.022-4.53-1.364-9.134a58.414,58.414,0,0,1-2.219-10.317,130.86,130.86,0,0,1,.023-16.975,11.628,11.628,0,0,1,7.433,3.593c1.409,1.468,2.3,5.712,2.446,8.814.048,1.018.076,1.836.09,2.528.028,1.412-.005,2.294-.051,3.26-.019.385-.038.783-.057,1.232h0c-.02.508-.041,1.082-.054,1.777a25.422,25.422,0,0,0,.841,5.072h0c1.046,4.528,2.534,10.011,1.157,10.872" transform="translate(-1775.636 -714.874)" fill="#0069a8"/>
          <path id="Trazado_594446" data-name="Trazado 594446" d="M1998.8,827.438c9.007,14.767,9.5,12.81,9.725,15.226s-5.957,15.494-5.957,15.494,3.711,2.071,4.123,1.436,8.36-15.263,8.044-18.409c-.348-3.465-10.033-16.918-11.173-18.239s-6.063-1.89-6.01.475a7.732,7.732,0,0,0,1.248,4.017" transform="translate(-1790.144 -735.948)" fill="#0069a8"/>
          <g id="Grupo_879956" data-name="Grupo 879956" transform="translate(213.047 99.005)" opacity="0.18">
            <g id="Grupo_879955" data-name="Grupo 879955">
              <g id="Grupo_879954" data-name="Grupo 879954" clip-path="url(#clip-path-9)">
                <path id="Trazado_594447" data-name="Trazado 594447" d="M2055.415,959c-3.384-3.025-3.621-10.681-3.621-10.681l2.834,3.831h0c-.02.507-.041,1.082-.054,1.777a25.44,25.44,0,0,0,.841,5.072" transform="translate(-2051.793 -948.317)" fill="#1f1f3b"/>
              </g>
            </g>
          </g>
          <g id="Grupo_879959" data-name="Grupo 879959" transform="translate(212.783 110.525)" opacity="0.18">
            <g id="Grupo_879958" data-name="Grupo 879958">
              <g id="Grupo_879957" data-name="Grupo 879957" clip-path="url(#clip-path-10)">
                <path id="Trazado_594448" data-name="Trazado 594448" d="M2053.679,1060.616c-.232,1.071-4.427,9.506-4.427,9.506l4.082-10.986Z" transform="translate(-2049.252 -1059.136)" fill="#1f1f3b"/>
              </g>
            </g>
          </g>
          <g id="Grupo_879962" data-name="Grupo 879962" transform="translate(167.214 84.344)" opacity="0.18">
            <g id="Grupo_879961" data-name="Grupo 879961">
              <g id="Grupo_879960" data-name="Grupo 879960" clip-path="url(#clip-path-11)">
                <path id="Trazado_594449" data-name="Trazado 594449" d="M1614.056,813.121a12.46,12.46,0,0,0-2.162-.209l-1-5.577c.1-.019.2-.034.293-.045a3.209,3.209,0,0,1,2.036.7c.291,1.991.629,3.961.837,5.133" transform="translate(-1610.89 -807.281)" fill="#1f1f3b"/>
              </g>
            </g>
          </g>
          <path id="Trazado_594450" data-name="Trazado 594450" d="M1674.234,1638.668l7.131-.991,1.421,10.231a3.2,3.2,0,0,1-2.733,3.614l-.785.109a3.2,3.2,0,0,1-3.614-2.732Z" transform="translate(-1500.436 -1467.011)" fill="#fff"/>
          <path id="Trazado_594451" data-name="Trazado 594451" d="M1559.085,689.421l-.706.1-1.751.243-3.071.427-.144.02-1.46.2L1537,582.754l.033-.2,1.236-7.546a1.337,1.337,0,0,1,2.531-.352l3.332,7.107.046.326Z" transform="translate(-1377.468 -513.806)" fill="#f4ad00"/>
          <path id="Trazado_594452" data-name="Trazado 594452" d="M1537,563.4l1.3-10.305a.924.924,0,0,1,1.767-.245l4.062,9.56.018.126c-1.124.528-1,1.206-1.589,1.231-.747.032-1.27-1.55-2.074-1.438s-.318.909-1.117,1.02-.868-.384-1.36-.316.1.224-1.008.368" transform="translate(-1377.466 -494.449)" fill="#efaea6"/>
          <path id="Trazado_594453" data-name="Trazado 594453" d="M1546.807,545.852l.465-3.679a.531.531,0,0,1,1.016-.141l1.448,3.407a.1.1,0,0,1-.041.128c-.762.486-1.065-.215-1.617-.077a7.035,7.035,0,0,0-1.124.468.1.1,0,0,1-.147-.105" transform="translate(-1386.254 -484.971)" fill="#1f1e39"/>
          <g id="Grupo_879965" data-name="Grupo 879965" transform="translate(159.533 68.582)" opacity="0.09">
            <g id="Grupo_879964" data-name="Grupo 879964">
              <g id="Grupo_879963" data-name="Grupo 879963" clip-path="url(#clip-path-12)">
                <path id="Trazado_594454" data-name="Trazado 594454" d="M1553.558,763.458l-.144.02-1.46.2L1537,656.024l1.008-.367c2.708,11.6,8.139,55.309,10.034,69.047,1.5,10.881,4.073,26.632,5.516,38.754" transform="translate(-1537 -655.657)" fill="#1f1f3b"/>
              </g>
            </g>
          </g>
          <g id="Grupo_879968" data-name="Grupo 879968" transform="translate(202.764 85.699)" opacity="0.18">
            <g id="Grupo_879967" data-name="Grupo 879967">
              <g id="Grupo_879966" data-name="Grupo 879966" clip-path="url(#clip-path-13)">
                <path id="Trazado_594455" data-name="Trazado 594455" d="M1953.244,821.327c.183-.083,1.308,3.45,3.375,4.894a5.349,5.349,0,0,0,1.891.868c2.013.449,6.727.417,9.335.514-.528-1-1.07-1.2-2.028-2.735a27.736,27.736,0,0,1-6.745.208,7.789,7.789,0,0,1-2.12-.971,12.971,12.971,0,0,1-2.886-2.654c-.365-.44-.335-1.015-.843-1.119-.673-.139-.214,1.1.021,1" transform="translate(-1952.871 -820.319)" fill="#1f1f39"/>
              </g>
            </g>
          </g>
          <path id="Trazado_594456" data-name="Trazado 594456" d="M1947.506,813.874a.856.856,0,0,1,1.059-.662c.507.1.515.319.88.76a10.542,10.542,0,0,0,5.006,3.626c2.224.621,7.885-1.5,11.117-.219s3.755,4.456,8.467,6.026,10.253.385,11.639.866,2.2.937,2.071,1.5a2.839,2.839,0,0,1-2.064,1.613c-1.069.235-10-.624-12.283-1.323-3.724-1.141-6.429-5.118-8.847-5.741s-7.812-.07-10.662-.705c-3.178-.708-5.171-4.875-5.406-4.768a.883.883,0,0,1-.847.04c-.271-.118-.2-.691-.13-1.008" transform="translate(-1745.242 -728.23)" fill="#f4ad00"/>
        </g>
      </g>
    </g>
  </g>
</svg>
