<svg xmlns="http://www.w3.org/2000/svg" width="609.672" height="609.673" viewBox="0 0 609.672 609.673">
  <g id="Grupo_886495" data-name="Grupo 886495" transform="translate(-516.672 -4334.239)">
    <g id="Grupo_877272" data-name="Grupo 877272" transform="translate(516.672 4334.239)" opacity="0.534">
      <path id="Trazado_263272" data-name="Trazado 263272" d="M0,110.836C0,269.569,128.679,398.248,287.413,398.248V110.836Z" transform="translate(0 211.425)" fill="#03386e"/>
      <path id="Trazado_263273" data-name="Trazado 263273" d="M287.413,0C128.679,0,0,128.679,0,287.413H287.413Z" transform="translate(0 0)" fill="#fcc15a"/>
      <path id="Trazado_263274" data-name="Trazado 263274" d="M110.836,398.248c158.734,0,287.413-128.679,287.413-287.412H110.836Z" transform="translate(211.423 211.425)" fill="#359547"/>
      <path id="Trazado_263275" data-name="Trazado 263275" d="M110.836,0V287.413H398.249C398.249,128.679,269.57,0,110.836,0" transform="translate(211.423 0)" fill="#3ae3fe"/>
    </g>
    <g id="Grupo_877270" data-name="Grupo 877270" transform="translate(534.997 4352.564)">
      <path id="Trazado_263272-2" data-name="Trazado 263272" d="M0,110.836C0,260.027,120.944,380.971,270.135,380.971V110.836Z" transform="translate(0 192.052)" fill="#03386e"/>
      <path id="Trazado_263273-2" data-name="Trazado 263273" d="M270.135,0C120.944,0,0,120.944,0,270.135H270.135Z" transform="translate(0 0)" fill="#fcc15a"/>
      <path id="Trazado_263274-2" data-name="Trazado 263274" d="M110.836,380.971c149.192,0,270.135-120.944,270.135-270.135H110.836Z" transform="translate(192.051 192.052)" fill="#359547"/>
      <path id="Trazado_263275-2" data-name="Trazado 263275" d="M110.836,0V270.135H380.971C380.971,120.944,260.027,0,110.836,0" transform="translate(192.051 0)" fill="#3ae3fe"/>
    </g>
    <rect id="Rectángulo_296481" data-name="Rectángulo 296481" width="540.27" height="540.27" transform="translate(551.373 4368.94)" fill="none"/>
    <path id="Trazado_608287" data-name="Trazado 608287" d="M11.731,19V6.2h4.122a6.064,6.064,0,0,1,3.05.769,5.406,5.406,0,0,1,2.114,2.171,6.554,6.554,0,0,1,.769,3.142v.589a6.592,6.592,0,0,1-.743,3.151,5.429,5.429,0,0,1-2.092,2.18,5.93,5.93,0,0,1-3.01.8ZM14.816,8.585v8.042h1.072a2.4,2.4,0,0,0,2.039-.945,4.63,4.63,0,0,0,.712-2.808V12.32a4.592,4.592,0,0,0-.712-2.795,2.442,2.442,0,0,0-2.074-.94ZM31.3,13.568H26.453v3.059h5.73V19H23.368V6.2H32.2V8.585H26.453v2.7H31.3ZM41.21,19H38.133V6.2H41.21Zm6.2-12.8,2.856,8.9L53.11,6.2h4.061V19H54.077V16.012l.3-6.117L51.282,19H49.243l-3.1-9.114.3,6.126V19H43.354V6.2Zm14.81,8.455V19H59.13V6.2h5.106a5.948,5.948,0,0,1,2.6.541,4.074,4.074,0,0,1,1.749,1.538,4.2,4.2,0,0,1,.62,2.263,3.7,3.7,0,0,1-1.34,2.993,5.561,5.561,0,0,1-3.678,1.121Zm0-2.382h2.021a1.906,1.906,0,0,0,1.367-.448,1.665,1.665,0,0,0,.47-1.266A2.059,2.059,0,0,0,65.59,9.13a1.712,1.712,0,0,0-1.318-.545H62.215ZM76.55,16.609H72.323L71.585,19h-3.3L72.982,6.2h2.9L80.611,19H77.3Zm-3.489-2.382h2.751l-1.38-4.438Zm18.835.439a4.673,4.673,0,0,1-.721,2.36,4.35,4.35,0,0,1-1.85,1.586,6.3,6.3,0,0,1-2.72.563,5.025,5.025,0,0,1-3.973-1.644,6.786,6.786,0,0,1-1.45-4.641v-.633a7.746,7.746,0,0,1,.655-3.292,4.961,4.961,0,0,1,1.885-2.18,5.26,5.26,0,0,1,2.848-.769,5.516,5.516,0,0,1,3.744,1.226,4.844,4.844,0,0,1,1.608,3.379H88.846a2.292,2.292,0,0,0-.589-1.679,2.422,2.422,0,0,0-1.687-.51,1.843,1.843,0,0,0-1.687.861,5.536,5.536,0,0,0-.562,2.751v.905a6.126,6.126,0,0,0,.514,2.927,1.882,1.882,0,0,0,1.771.879,2.369,2.369,0,0,0,1.626-.5,2.126,2.126,0,0,0,.6-1.591Zm11.25-6.082H99.305V19H96.22V8.585H92.45V6.2h10.7Zm11.892,4.28a7.546,7.546,0,0,1-.694,3.313A5.132,5.132,0,0,1,112.37,18.4a5.494,5.494,0,0,1-2.914.778,5.572,5.572,0,0,1-2.9-.751,5.123,5.123,0,0,1-1.973-2.149,7.329,7.329,0,0,1-.743-3.208v-.721a7.58,7.58,0,0,1,.69-3.318,5.119,5.119,0,0,1,1.978-2.219,5.854,5.854,0,0,1,5.832-.009A5.211,5.211,0,0,1,114.321,9a7.362,7.362,0,0,1,.716,3.274Zm-3.138-.536a5.381,5.381,0,0,0-.637-2.9,2.044,2.044,0,0,0-1.824-.989q-2.32,0-2.452,3.48l-.009.94a5.535,5.535,0,0,0,.624,2.892,2.041,2.041,0,0,0,1.854,1.011,2.016,2.016,0,0,0,1.8-.993,5.383,5.383,0,0,0,.642-2.856Z" transform="translate(612.742 4485.288)" fill="#12263f"/>
    <path id="Trazado_608291" data-name="Trazado 608291" d="M56.434,19V6.2h4.122a6.064,6.064,0,0,1,3.05.769A5.406,5.406,0,0,1,65.72,9.143a6.554,6.554,0,0,1,.769,3.142v.589a6.592,6.592,0,0,1-.743,3.151,5.429,5.429,0,0,1-2.092,2.18,5.93,5.93,0,0,1-3.01.8ZM59.519,8.585v8.042h1.072a2.4,2.4,0,0,0,2.039-.945,4.63,4.63,0,0,0,.712-2.808V12.32a4.592,4.592,0,0,0-.712-2.795,2.442,2.442,0,0,0-2.074-.94Zm16.488,4.983H71.156v3.059h5.73V19H68.071V6.2H76.9V8.585H71.156v2.7h4.852ZM16.6,39.474h-1.67V44H11.847V31.2h5.036a5.621,5.621,0,0,1,3.56,1.01,3.421,3.421,0,0,1,1.283,2.853,4.155,4.155,0,0,1-.541,2.213A3.837,3.837,0,0,1,19.494,38.7l2.672,5.167V44h-3.3ZM14.932,37.1h1.951a1.751,1.751,0,0,0,1.323-.463,1.788,1.788,0,0,0,.444-1.291,1.809,1.809,0,0,0-.448-1.3,1.735,1.735,0,0,0-1.318-.471H14.932Zm16.594,1.468H26.674v3.059H32.4V44H23.589V31.2h8.833v2.382H26.674v2.7h4.852Zm8.736,2.03a1.268,1.268,0,0,0-.479-1.055,5.954,5.954,0,0,0-1.683-.782,16.147,16.147,0,0,1-1.969-.782q-2.487-1.222-2.487-3.357a3.011,3.011,0,0,1,.62-1.876,4.008,4.008,0,0,1,1.753-1.266,6.823,6.823,0,0,1,2.549-.453,5.969,5.969,0,0,1,2.474.492,3.917,3.917,0,0,1,1.7,1.4A3.661,3.661,0,0,1,43.347,35H40.271a1.547,1.547,0,0,0-.479-1.213,1.867,1.867,0,0,0-1.3-.431,2.106,2.106,0,0,0-1.305.365,1.074,1.074,0,0,0,.048,1.819,6.65,6.65,0,0,0,1.854.826,11.36,11.36,0,0,1,2.18.918,3.663,3.663,0,0,1,2.074,3.3,3.125,3.125,0,0,1-1.266,2.637,5.629,5.629,0,0,1-3.472.958,6.888,6.888,0,0,1-2.817-.558,4.247,4.247,0,0,1-1.9-1.529,3.985,3.985,0,0,1-.637-2.237h3.094a1.963,1.963,0,0,0,.532,1.516,2.513,2.513,0,0,0,1.727.488,1.985,1.985,0,0,0,1.208-.33A1.088,1.088,0,0,0,40.262,40.6Zm14.7-9.4v8.376a4.814,4.814,0,0,1-.606,2.465,3.929,3.929,0,0,1-1.74,1.586,6.131,6.131,0,0,1-2.681.545,5.3,5.3,0,0,1-3.683-1.213,4.326,4.326,0,0,1-1.371-3.322V31.2h3.1v8.5q.053,2.1,1.951,2.1a1.889,1.889,0,0,0,1.45-.527,2.465,2.465,0,0,0,.492-1.714V31.2Zm5.01,10.424h5.37V44H56.891V31.2h3.085Zm14.915-8.042H71.05V44H67.965V33.585H64.195V31.2h10.7Zm7.515,8.024H78.178L77.44,44h-3.3l4.693-12.8h2.9L86.466,44H83.153Zm-3.489-2.382h2.751l-1.38-4.438ZM87.4,44V31.2H91.52a6.064,6.064,0,0,1,3.05.769,5.406,5.406,0,0,1,2.114,2.171,6.554,6.554,0,0,1,.769,3.142v.589a6.592,6.592,0,0,1-.743,3.151,5.429,5.429,0,0,1-2.092,2.18,5.93,5.93,0,0,1-3.01.8Zm3.085-10.415v8.042h1.072a2.4,2.4,0,0,0,2.039-.945,4.63,4.63,0,0,0,.712-2.808V37.32a4.592,4.592,0,0,0-.712-2.795,2.442,2.442,0,0,0-2.074-.94Zm19.389,4.28a7.546,7.546,0,0,1-.694,3.313A5.132,5.132,0,0,1,107.2,43.4a5.494,5.494,0,0,1-2.914.778,5.572,5.572,0,0,1-2.9-.751,5.123,5.123,0,0,1-1.973-2.149,7.329,7.329,0,0,1-.743-3.208v-.721a7.58,7.58,0,0,1,.69-3.318,5.119,5.119,0,0,1,1.978-2.219,5.854,5.854,0,0,1,5.832-.009,5.211,5.211,0,0,1,1.982,2.2,7.362,7.362,0,0,1,.716,3.274Zm-3.138-.536a5.381,5.381,0,0,0-.637-2.9,2.044,2.044,0,0,0-1.824-.989q-2.32,0-2.452,3.48l-.009.94a5.535,5.535,0,0,0,.624,2.892,2.041,2.041,0,0,0,1.854,1.011,2.016,2.016,0,0,0,1.8-.993,5.383,5.383,0,0,0,.642-2.856Zm11.329,3.27a1.268,1.268,0,0,0-.479-1.055,5.954,5.954,0,0,0-1.683-.782,16.147,16.147,0,0,1-1.969-.782q-2.487-1.222-2.487-3.357a3.011,3.011,0,0,1,.62-1.876,4.008,4.008,0,0,1,1.753-1.266,6.823,6.823,0,0,1,2.549-.453,5.969,5.969,0,0,1,2.474.492,3.917,3.917,0,0,1,1.7,1.4A3.661,3.661,0,0,1,121.148,35h-3.076a1.547,1.547,0,0,0-.479-1.213,1.867,1.867,0,0,0-1.3-.431,2.106,2.106,0,0,0-1.305.365,1.074,1.074,0,0,0,.048,1.819,6.65,6.65,0,0,0,1.854.826,11.36,11.36,0,0,1,2.18.918,3.663,3.663,0,0,1,2.074,3.3,3.125,3.125,0,0,1-1.266,2.637,5.629,5.629,0,0,1-3.472.958,6.888,6.888,0,0,1-2.817-.558,4.247,4.247,0,0,1-1.9-1.529,3.985,3.985,0,0,1-.637-2.237h3.094a1.963,1.963,0,0,0,.532,1.516,2.513,2.513,0,0,0,1.727.488,1.985,1.985,0,0,0,1.208-.33A1.088,1.088,0,0,0,118.063,40.6Z" transform="translate(582.69 4743.189)" fill="#fff"/>
    <path id="Trazado_608288" data-name="Trazado 608288" d="M20.051,13.9H15.077V19H11.992V6.2h8.561V8.585H15.077v2.944h4.975Zm12.621-1.037a7.546,7.546,0,0,1-.694,3.313A5.132,5.132,0,0,1,30,18.4a5.494,5.494,0,0,1-2.914.778,5.572,5.572,0,0,1-2.9-.751,5.123,5.123,0,0,1-1.973-2.149,7.329,7.329,0,0,1-.743-3.208v-.721a7.58,7.58,0,0,1,.69-3.318A5.119,5.119,0,0,1,24.142,6.81,5.854,5.854,0,0,1,29.974,6.8,5.211,5.211,0,0,1,31.956,9a7.362,7.362,0,0,1,.716,3.274Zm-3.138-.536a5.381,5.381,0,0,0-.637-2.9,2.044,2.044,0,0,0-1.824-.989q-2.32,0-2.452,3.48l-.009.94a5.535,5.535,0,0,0,.624,2.892,2.041,2.041,0,0,0,1.854,1.011,2.016,2.016,0,0,0,1.8-.993,5.383,5.383,0,0,0,.642-2.856Zm9.483,2.145h-1.67V19H34.263V6.2H39.3a5.621,5.621,0,0,1,3.56,1.01,3.421,3.421,0,0,1,1.283,2.853,4.155,4.155,0,0,1-.541,2.213A3.837,3.837,0,0,1,41.91,13.7l2.672,5.167V19h-3.3ZM37.348,12.1H39.3a1.751,1.751,0,0,0,1.323-.463,1.788,1.788,0,0,0,.444-1.291,1.809,1.809,0,0,0-.448-1.3A1.735,1.735,0,0,0,39.3,8.576H37.348ZM50.057,6.2l2.856,8.9,2.848-8.9h4.061V19H56.728V16.012l.3-6.117L53.933,19H51.894l-3.1-9.114.3,6.126V19H46.005V6.2ZM69.05,16.609H64.823L64.084,19h-3.3L65.482,6.2h2.9L73.111,19H69.8Zm-3.489-2.382h2.751l-1.38-4.438ZM83.034,8.585H79.193V19H76.108V8.585H72.337V6.2h10.7ZM87.621,19H84.545V6.2h3.076Zm7.11-3.48L97.281,6.2h3.445L96.419,19H93.044L88.773,6.2h3.419Zm13.535,1.09h-4.228L103.3,19h-3.3L104.7,6.2h2.9L112.328,19h-3.313Zm-3.489-2.382h2.751l-1.38-4.438Z" transform="translate(923.766 4485.288)" fill="#12263f"/>
    <path id="Trazado_608289" data-name="Trazado 608289" d="M51.771,19V6.2h4.122a6.064,6.064,0,0,1,3.05.769,5.406,5.406,0,0,1,2.114,2.171,6.554,6.554,0,0,1,.769,3.142v.589a6.592,6.592,0,0,1-.743,3.151,5.429,5.429,0,0,1-2.092,2.18,5.93,5.93,0,0,1-3.01.8ZM54.856,8.585v8.042h1.072a2.4,2.4,0,0,0,2.039-.945,4.63,4.63,0,0,0,.712-2.808V12.32a4.592,4.592,0,0,0-.712-2.795,2.442,2.442,0,0,0-2.074-.94Zm16.488,4.983H66.493v3.059h5.73V19H63.408V6.2h8.833V8.585H66.493v2.7h4.852Zm-52,26.09V44H16.259V31.2h5.106a5.948,5.948,0,0,1,2.6.541,4.074,4.074,0,0,1,1.749,1.538,4.2,4.2,0,0,1,.62,2.263,3.7,3.7,0,0,1-1.34,2.993,5.561,5.561,0,0,1-3.678,1.121Zm0-2.382h2.021a1.906,1.906,0,0,0,1.367-.448,1.665,1.665,0,0,0,.47-1.266,2.059,2.059,0,0,0-.483-1.433,1.712,1.712,0,0,0-1.318-.545H19.344Zm13.386,2.2h-1.67V44H27.974V31.2h5.036a5.621,5.621,0,0,1,3.56,1.01,3.421,3.421,0,0,1,1.283,2.853,4.155,4.155,0,0,1-.541,2.213A3.837,3.837,0,0,1,35.621,38.7l2.672,5.167V44h-3.3ZM31.059,37.1h1.951a1.751,1.751,0,0,0,1.323-.463,1.788,1.788,0,0,0,.444-1.291,1.809,1.809,0,0,0-.448-1.3,1.735,1.735,0,0,0-1.318-.471H31.059Zm19.494.765a7.546,7.546,0,0,1-.694,3.313A5.132,5.132,0,0,1,47.886,43.4a5.494,5.494,0,0,1-2.914.778,5.572,5.572,0,0,1-2.9-.751A5.123,5.123,0,0,1,40.1,41.275a7.329,7.329,0,0,1-.743-3.208v-.721a7.58,7.58,0,0,1,.69-3.318,5.119,5.119,0,0,1,1.978-2.219,5.854,5.854,0,0,1,5.832-.009A5.211,5.211,0,0,1,49.837,34a7.362,7.362,0,0,1,.716,3.274Zm-3.138-.536a5.381,5.381,0,0,0-.637-2.9,2.044,2.044,0,0,0-1.824-.989q-2.32,0-2.452,3.48l-.009.94a5.535,5.535,0,0,0,.624,2.892,2.041,2.041,0,0,0,1.854,1.011,2.016,2.016,0,0,0,1.8-.993,5.383,5.383,0,0,0,.642-2.856ZM62.5,39.667a4.673,4.673,0,0,1-.721,2.36,4.35,4.35,0,0,1-1.85,1.586,6.3,6.3,0,0,1-2.72.563,5.025,5.025,0,0,1-3.973-1.644,6.786,6.786,0,0,1-1.45-4.641v-.633a7.746,7.746,0,0,1,.655-3.292,4.961,4.961,0,0,1,1.885-2.18,5.26,5.26,0,0,1,2.848-.769,5.516,5.516,0,0,1,3.744,1.226,4.844,4.844,0,0,1,1.608,3.379H59.448a2.292,2.292,0,0,0-.589-1.679,2.422,2.422,0,0,0-1.687-.51,1.843,1.843,0,0,0-1.687.861,5.536,5.536,0,0,0-.562,2.751v.905a6.126,6.126,0,0,0,.514,2.927,1.882,1.882,0,0,0,1.771.879,2.369,2.369,0,0,0,1.626-.5,2.126,2.126,0,0,0,.6-1.591Zm9.4-1.1H67.042v3.059h5.73V44H63.957V31.2H72.79v2.382H67.042v2.7h4.852ZM80.63,40.6a1.268,1.268,0,0,0-.479-1.055,5.954,5.954,0,0,0-1.683-.782,16.147,16.147,0,0,1-1.969-.782q-2.487-1.222-2.487-3.357a3.011,3.011,0,0,1,.62-1.876,4.008,4.008,0,0,1,1.753-1.266,6.823,6.823,0,0,1,2.549-.453,5.969,5.969,0,0,1,2.474.492,3.917,3.917,0,0,1,1.7,1.4A3.661,3.661,0,0,1,83.715,35H80.639a1.547,1.547,0,0,0-.479-1.213,1.867,1.867,0,0,0-1.3-.431,2.106,2.106,0,0,0-1.305.365,1.074,1.074,0,0,0,.048,1.819,6.65,6.65,0,0,0,1.854.826,11.36,11.36,0,0,1,2.18.918,3.663,3.663,0,0,1,2.074,3.3,3.125,3.125,0,0,1-1.266,2.637,5.629,5.629,0,0,1-3.472.958,6.888,6.888,0,0,1-2.817-.558,4.247,4.247,0,0,1-1.9-1.529,3.985,3.985,0,0,1-.637-2.237h3.094a1.963,1.963,0,0,0,.532,1.516,2.513,2.513,0,0,0,1.727.488,1.985,1.985,0,0,0,1.208-.33A1.088,1.088,0,0,0,80.63,40.6Zm15.5-2.733a7.546,7.546,0,0,1-.694,3.313A5.132,5.132,0,0,1,93.466,43.4a5.494,5.494,0,0,1-2.914.778,5.572,5.572,0,0,1-2.9-.751,5.123,5.123,0,0,1-1.973-2.149,7.329,7.329,0,0,1-.743-3.208v-.721a7.58,7.58,0,0,1,.69-3.318A5.119,5.119,0,0,1,87.6,31.81a5.854,5.854,0,0,1,5.832-.009A5.211,5.211,0,0,1,95.417,34a7.362,7.362,0,0,1,.716,3.274ZM93,37.329a5.381,5.381,0,0,0-.637-2.9,2.044,2.044,0,0,0-1.824-.989q-2.32,0-2.452,3.48l-.009.94a5.535,5.535,0,0,0,.624,2.892,2.041,2.041,0,0,0,1.854,1.011,2.016,2.016,0,0,0,1.8-.993A5.383,5.383,0,0,0,93,37.918Zm11.329,3.27a1.268,1.268,0,0,0-.479-1.055,5.954,5.954,0,0,0-1.683-.782,16.147,16.147,0,0,1-1.969-.782q-2.487-1.222-2.487-3.357a3.011,3.011,0,0,1,.62-1.876,4.008,4.008,0,0,1,1.753-1.266,6.823,6.823,0,0,1,2.549-.453,5.969,5.969,0,0,1,2.474.492,3.917,3.917,0,0,1,1.7,1.4A3.661,3.661,0,0,1,107.41,35h-3.076a1.547,1.547,0,0,0-.479-1.213,1.867,1.867,0,0,0-1.3-.431,2.106,2.106,0,0,0-1.305.365,1.074,1.074,0,0,0,.048,1.819,6.65,6.65,0,0,0,1.854.826,11.36,11.36,0,0,1,2.18.918,3.663,3.663,0,0,1,2.074,3.3,3.125,3.125,0,0,1-1.266,2.637,5.629,5.629,0,0,1-3.472.958,6.888,6.888,0,0,1-2.817-.558,4.247,4.247,0,0,1-1.9-1.529,3.985,3.985,0,0,1-.637-2.237h3.094a1.963,1.963,0,0,0,.532,1.516,2.513,2.513,0,0,0,1.727.488,1.985,1.985,0,0,0,1.208-.33A1.088,1.088,0,0,0,104.325,40.6Z" transform="translate(923.766 4743.189)" fill="#fff"/>
    <circle id="Elipse_6593" data-name="Elipse 6593" cx="147.67" cy="147.67" r="147.67" transform="translate(663.127 4507.05)" fill="#fff"/>
    <path id="Trazado_608290" data-name="Trazado 608290" d="M15.837,13.568H10.985v3.059h5.73V19H7.9V6.2h8.833V8.585H10.985v2.7h4.852Zm7.1,1.951L25.487,6.2h3.445L24.626,19H21.251L16.979,6.2H20.4Zm13.535,1.09H32.246L31.508,19h-3.3L32.905,6.2h2.9L40.534,19H37.221Zm-3.489-2.382h2.751l-1.38-4.438Zm11.566,2.4h5.37V19H41.466V6.2h3.085ZM61.048,6.2v8.376a4.814,4.814,0,0,1-.606,2.465,3.929,3.929,0,0,1-1.74,1.586,6.131,6.131,0,0,1-2.681.545,5.3,5.3,0,0,1-3.683-1.213,4.326,4.326,0,0,1-1.371-3.322V6.2h3.1v8.5q.053,2.1,1.951,2.1a1.889,1.889,0,0,0,1.45-.527,2.465,2.465,0,0,0,.492-1.714V6.2Zm9,10.406H65.82L65.082,19h-3.3L66.479,6.2h2.9L74.108,19H70.795Zm-3.489-2.382h2.751L67.93,9.789Zm18.835.439a4.673,4.673,0,0,1-.721,2.36,4.35,4.35,0,0,1-1.85,1.586,6.3,6.3,0,0,1-2.72.563,5.025,5.025,0,0,1-3.973-1.644,6.786,6.786,0,0,1-1.45-4.641v-.633a7.746,7.746,0,0,1,.655-3.292,4.961,4.961,0,0,1,1.885-2.18,5.26,5.26,0,0,1,2.848-.769,5.516,5.516,0,0,1,3.744,1.226,4.844,4.844,0,0,1,1.608,3.379H82.344a2.292,2.292,0,0,0-.589-1.679,2.422,2.422,0,0,0-1.687-.51A1.843,1.843,0,0,0,78.38,9.3a5.536,5.536,0,0,0-.562,2.751v.905a6.126,6.126,0,0,0,.514,2.927,1.882,1.882,0,0,0,1.771.879,2.369,2.369,0,0,0,1.626-.5,2.126,2.126,0,0,0,.6-1.591ZM90.14,19H87.063V6.2H90.14Zm12.981-6.135a7.546,7.546,0,0,1-.694,3.313,5.132,5.132,0,0,1-1.973,2.219,5.494,5.494,0,0,1-2.914.778,5.572,5.572,0,0,1-2.9-.751,5.123,5.123,0,0,1-1.973-2.149,7.329,7.329,0,0,1-.743-3.208v-.721a7.58,7.58,0,0,1,.69-3.318A5.119,5.119,0,0,1,94.591,6.81a5.854,5.854,0,0,1,5.832-.009A5.211,5.211,0,0,1,102.4,9a7.362,7.362,0,0,1,.716,3.274Zm-3.138-.536a5.381,5.381,0,0,0-.637-2.9,2.044,2.044,0,0,0-1.824-.989q-2.32,0-2.452,3.48l-.009.94a5.535,5.535,0,0,0,.624,2.892,2.041,2.041,0,0,0,1.854,1.011,2.016,2.016,0,0,0,1.8-.993,5.383,5.383,0,0,0,.642-2.856Zm-2.1-9.554h3.129l-2.443,2.76-2.417,0ZM115.4,19h-3.067L107.8,11.037V19h-3.085V6.2H107.8l4.526,7.963V6.2H115.4Z" transform="translate(749.138 4632.958)" fill="#12263f"/>
  </g>
</svg>
