<svg xmlns="http://www.w3.org/2000/svg" width="402" height="402.056" viewBox="0 0 402 402.056">
  <g id="Grupo_1017671" data-name="Grupo 1017671" transform="translate(-3387 7293)">
    <path id="Trazado_835972" data-name="Trazado 835972" d="M0,0H402V402H0Z" transform="translate(3387 -7293)" fill="#fff"/>
    <g id="Grupo_877272" data-name="Grupo 877272" transform="translate(3387 -7292.562)" opacity="0.534">
      <path id="Trazado_263272" data-name="Trazado 263272" d="M0,110.836C0,215.4,84.766,300.167,189.331,300.167V110.836Z" transform="translate(0 101.451)" fill="#03386e"/>
      <path id="Trazado_263273" data-name="Trazado 263273" d="M189.331,0C84.766,0,0,84.766,0,189.331H189.331Z" transform="translate(0 0)" fill="#fcc15a"/>
      <path id="Trazado_263274" data-name="Trazado 263274" d="M110.836,300.167c104.565,0,189.331-84.766,189.331-189.331H110.836Z" transform="translate(101.45 101.451)" fill="#359547"/>
      <path id="Trazado_263275" data-name="Trazado 263275" d="M110.836,0V189.331H300.167C300.167,84.766,215.4,0,110.836,0" transform="translate(101.45 0)" fill="#3ae3fe"/>
    </g>
    <g id="Grupo_877270" data-name="Grupo 877270" transform="translate(3399.071 -7280.49)">
      <path id="Trazado_263272-2" data-name="Trazado 263272" d="M0,110.836A177.949,177.949,0,0,0,177.949,288.785V110.836Z" transform="translate(0 88.689)" fill="#03386e"/>
      <path id="Trazado_263273-2" data-name="Trazado 263273" d="M177.949,0A177.949,177.949,0,0,0,0,177.949H177.949Z" transform="translate(0 0)" fill="#fcc15a"/>
      <path id="Trazado_263274-2" data-name="Trazado 263274" d="M110.836,288.785A177.949,177.949,0,0,0,288.785,110.836H110.836Z" transform="translate(88.688 88.689)" fill="#359547"/>
      <path id="Trazado_263275-2" data-name="Trazado 263275" d="M110.836,0V177.949H288.785A177.949,177.949,0,0,0,110.836,0" transform="translate(88.688 0)" fill="#3ae3fe"/>
    </g>
    <path id="Trazado_835973" data-name="Trazado 835973" d="M0,0H355.9V355.9H0Z" transform="translate(3409.859 -7269.703)" fill="none"/>
    <path id="Trazado_835974" data-name="Trazado 835974" d="M32.712,15V3.625h3.664a5.39,5.39,0,0,1,2.711.684,4.805,4.805,0,0,1,1.879,1.93,5.826,5.826,0,0,1,.684,2.793v.523a5.86,5.86,0,0,1-.66,2.8,4.826,4.826,0,0,1-1.859,1.938A5.271,5.271,0,0,1,36.454,15Zm2.742-9.258v7.148h.953a2.133,2.133,0,0,0,1.813-.84,4.116,4.116,0,0,0,.633-2.5V9.063a4.082,4.082,0,0,0-.633-2.484,2.17,2.17,0,0,0-1.844-.836Zm14.656,4.43H45.8v2.719h5.094V15H43.055V3.625h7.852V5.742H45.8v2.4H50.11ZM10.384,40H7.649V28.625h2.734Zm5.508-11.375,2.539,7.914,2.531-7.914h3.609V40h-2.75V37.344l.266-5.437L19.337,40H17.524l-2.758-8.1.266,5.445V40H12.29V28.625Zm13.164,7.516V40H26.313V28.625h4.539a5.287,5.287,0,0,1,2.309.48,3.621,3.621,0,0,1,1.555,1.367,3.734,3.734,0,0,1,.551,2.012,3.291,3.291,0,0,1-1.191,2.66,4.943,4.943,0,0,1-3.27,1Zm0-2.117h1.8a1.7,1.7,0,0,0,1.215-.4,1.48,1.48,0,0,0,.418-1.125,1.83,1.83,0,0,0-.43-1.273,1.522,1.522,0,0,0-1.172-.484H29.055ZM41.8,37.875H38.04L37.384,40h-2.93l4.172-11.375H41.2L45.407,40H42.462Zm-3.1-2.117h2.445l-1.227-3.945Zm16.578.391a4.154,4.154,0,0,1-.641,2.1,3.866,3.866,0,0,1-1.645,1.41,5.6,5.6,0,0,1-2.418.5A4.467,4.467,0,0,1,47.04,38.7a6.032,6.032,0,0,1-1.289-4.125v-.562a6.885,6.885,0,0,1,.582-2.926,4.41,4.41,0,0,1,1.676-1.937,4.676,4.676,0,0,1,2.531-.684,4.9,4.9,0,0,1,3.328,1.09,4.306,4.306,0,0,1,1.43,3H52.563a2.037,2.037,0,0,0-.523-1.492,2.153,2.153,0,0,0-1.5-.453,1.638,1.638,0,0,0-1.5.766,4.921,4.921,0,0,0-.5,2.445v.8a5.445,5.445,0,0,0,.457,2.6,1.672,1.672,0,0,0,1.574.781,2.106,2.106,0,0,0,1.445-.445,1.89,1.89,0,0,0,.531-1.414Zm10-5.406H61.86V40H59.118V30.742H55.766V28.625h9.508Zm10.57,3.8a6.708,6.708,0,0,1-.617,2.945,4.561,4.561,0,0,1-1.754,1.973,4.884,4.884,0,0,1-2.59.691,4.953,4.953,0,0,1-2.578-.668,4.554,4.554,0,0,1-1.754-1.91,6.515,6.515,0,0,1-.66-2.852v-.641a6.738,6.738,0,0,1,.613-2.949,4.55,4.55,0,0,1,1.758-1.973,5.2,5.2,0,0,1,5.184-.008,4.632,4.632,0,0,1,1.762,1.957,6.544,6.544,0,0,1,.637,2.91Zm-2.789-.477a4.783,4.783,0,0,0-.566-2.574,1.817,1.817,0,0,0-1.621-.879q-2.062,0-2.18,3.094l-.008.836a4.92,4.92,0,0,0,.555,2.57,1.814,1.814,0,0,0,1.648.9,1.792,1.792,0,0,0,1.6-.883,4.785,4.785,0,0,0,.57-2.539Z" transform="translate(3447.308 -7202.56)" fill="#12263f"/>
    <path id="Trazado_835975" data-name="Trazado 835975" d="M41.12,15V3.625h3.664a5.39,5.39,0,0,1,2.711.684,4.805,4.805,0,0,1,1.879,1.93,5.826,5.826,0,0,1,.684,2.793v.523a5.86,5.86,0,0,1-.66,2.8,4.826,4.826,0,0,1-1.859,1.938A5.271,5.271,0,0,1,44.862,15Zm2.742-9.258v7.148h.953a2.133,2.133,0,0,0,1.813-.84,4.116,4.116,0,0,0,.633-2.5V9.063a4.082,4.082,0,0,0-.633-2.484,2.17,2.17,0,0,0-1.844-.836Zm14.656,4.43H54.206v2.719H59.3V15H51.464V3.625h7.852V5.742H54.206v2.4h4.313Zm-52.8,25.8H4.229V40H1.487V28.625H5.964a5,5,0,0,1,3.164.9,3.041,3.041,0,0,1,1.141,2.536,3.693,3.693,0,0,1-.48,1.967,3.41,3.41,0,0,1-1.5,1.264l2.375,4.593V40H7.722ZM4.229,33.867H5.964a1.557,1.557,0,0,0,1.176-.411,1.59,1.59,0,0,0,.395-1.147,1.608,1.608,0,0,0-.4-1.155,1.542,1.542,0,0,0-1.172-.419H4.229Zm14.75,1.3H14.667v2.719h5.094V40H11.925V28.625h7.852v2.117H14.667v2.4h4.313Zm7.766,1.8a1.127,1.127,0,0,0-.426-.937,5.292,5.292,0,0,0-1.5-.7,14.353,14.353,0,0,1-1.75-.7,3.314,3.314,0,0,1-2.211-2.984A2.676,2.676,0,0,1,21.413,30a3.562,3.562,0,0,1,1.559-1.125,6.065,6.065,0,0,1,2.266-.4,5.305,5.305,0,0,1,2.2.438,3.482,3.482,0,0,1,1.512,1.246A3.254,3.254,0,0,1,29.487,32H26.753a1.375,1.375,0,0,0-.426-1.078,1.66,1.66,0,0,0-1.152-.383,1.872,1.872,0,0,0-1.16.324.955.955,0,0,0,.043,1.617,5.911,5.911,0,0,0,1.648.734,10.1,10.1,0,0,1,1.938.816,3.256,3.256,0,0,1,1.844,2.93A2.778,2.778,0,0,1,28.362,39.3a5,5,0,0,1-3.086.852,6.122,6.122,0,0,1-2.5-.5A3.775,3.775,0,0,1,21.085,38.3a3.542,3.542,0,0,1-.566-1.988h2.75a1.744,1.744,0,0,0,.473,1.348,2.234,2.234,0,0,0,1.535.434,1.765,1.765,0,0,0,1.074-.293A.967.967,0,0,0,26.745,36.977Zm13.07-8.352V36.07a4.279,4.279,0,0,1-.539,2.191,3.492,3.492,0,0,1-1.547,1.41,5.449,5.449,0,0,1-2.383.484,4.708,4.708,0,0,1-3.273-1.078,3.845,3.845,0,0,1-1.219-2.953v-7.5h2.758V36.18q.047,1.867,1.734,1.867a1.679,1.679,0,0,0,1.289-.469,2.191,2.191,0,0,0,.438-1.523v-7.43Zm4.453,9.266h4.773V40H41.526V28.625h2.742Zm13.258-7.148H54.112V40H51.37V30.742H48.019V28.625h9.508Zm6.68,7.133H60.448L59.792,40h-2.93l4.172-11.375h2.578L67.815,40H64.87Zm-3.1-2.117H63.55l-1.227-3.945ZM68.644,40V28.625h3.664a5.39,5.39,0,0,1,2.711.684,4.805,4.805,0,0,1,1.879,1.93,5.826,5.826,0,0,1,.684,2.793v.523a5.86,5.86,0,0,1-.66,2.8,4.826,4.826,0,0,1-1.859,1.938A5.271,5.271,0,0,1,72.386,40Zm2.742-9.258v7.148h.953a2.133,2.133,0,0,0,1.813-.84,4.116,4.116,0,0,0,.633-2.5v-.492a4.082,4.082,0,0,0-.633-2.484,2.17,2.17,0,0,0-1.844-.836Zm17.234,3.8A6.708,6.708,0,0,1,88,37.492a4.561,4.561,0,0,1-1.754,1.973,4.884,4.884,0,0,1-2.59.691,4.953,4.953,0,0,1-2.578-.668,4.554,4.554,0,0,1-1.754-1.91,6.515,6.515,0,0,1-.66-2.852v-.641a6.738,6.738,0,0,1,.613-2.949,4.55,4.55,0,0,1,1.758-1.973,5.2,5.2,0,0,1,5.184-.008,4.632,4.632,0,0,1,1.762,1.957,6.544,6.544,0,0,1,.637,2.91Zm-2.789-.477a4.783,4.783,0,0,0-.566-2.574,1.817,1.817,0,0,0-1.621-.879q-2.062,0-2.18,3.094l-.008.836a4.92,4.92,0,0,0,.555,2.57,1.814,1.814,0,0,0,1.648.9,1.792,1.792,0,0,0,1.6-.883,4.785,4.785,0,0,0,.57-2.539ZM95.9,36.977a1.127,1.127,0,0,0-.426-.937,5.292,5.292,0,0,0-1.5-.7,14.353,14.353,0,0,1-1.75-.7,3.314,3.314,0,0,1-2.211-2.984A2.676,2.676,0,0,1,90.569,30a3.562,3.562,0,0,1,1.559-1.125,6.065,6.065,0,0,1,2.266-.4,5.305,5.305,0,0,1,2.2.438A3.482,3.482,0,0,1,98.1,30.152,3.254,3.254,0,0,1,98.644,32H95.909a1.375,1.375,0,0,0-.426-1.078,1.66,1.66,0,0,0-1.152-.383,1.872,1.872,0,0,0-1.16.324.955.955,0,0,0,.043,1.617,5.911,5.911,0,0,0,1.648.734,10.1,10.1,0,0,1,1.938.816,3.256,3.256,0,0,1,1.844,2.93A2.778,2.778,0,0,1,97.519,39.3a5,5,0,0,1-3.086.852,6.122,6.122,0,0,1-2.5-.5A3.775,3.775,0,0,1,90.241,38.3a3.542,3.542,0,0,1-.566-1.988h2.75A1.745,1.745,0,0,0,92.9,37.66a2.234,2.234,0,0,0,1.535.434,1.765,1.765,0,0,0,1.074-.293A.967.967,0,0,0,95.9,36.977Z" transform="translate(3438.808 -7014.169)" fill="#fff"/>
    <path id="Trazado_835976" data-name="Trazado 835976" d="M12.945,10.469H8.523V15H5.781V3.625h7.609V5.742H8.523V8.359h4.422Zm11.219-.922a6.708,6.708,0,0,1-.617,2.945,4.561,4.561,0,0,1-1.754,1.973,4.884,4.884,0,0,1-2.59.691,4.953,4.953,0,0,1-2.578-.668,4.554,4.554,0,0,1-1.754-1.91,6.515,6.515,0,0,1-.66-2.852V9.086a6.737,6.737,0,0,1,.613-2.949,4.55,4.55,0,0,1,1.758-1.973,5.2,5.2,0,0,1,5.184-.008,4.632,4.632,0,0,1,1.762,1.957,6.544,6.544,0,0,1,.637,2.91ZM21.375,9.07A4.783,4.783,0,0,0,20.809,6.5a1.817,1.817,0,0,0-1.621-.879q-2.062,0-2.18,3.094L17,9.547a4.92,4.92,0,0,0,.555,2.57,1.814,1.814,0,0,0,1.648.9,1.792,1.792,0,0,0,1.6-.883,4.785,4.785,0,0,0,.57-2.539Zm8.43,1.906H28.32V15H25.578V3.625h4.477a5,5,0,0,1,3.164.9,3.041,3.041,0,0,1,1.141,2.536,3.693,3.693,0,0,1-.48,1.967,3.41,3.41,0,0,1-1.5,1.264l2.375,4.593V15H31.813ZM28.32,8.867h1.734a1.557,1.557,0,0,0,1.176-.411,1.59,1.59,0,0,0,.395-1.147,1.608,1.608,0,0,0-.4-1.155,1.542,1.542,0,0,0-1.172-.419H28.32Zm11.3-5.242,2.539,7.914,2.531-7.914H48.3V15h-2.75V12.344l.266-5.437L43.063,15H41.25L38.492,6.9l.266,5.445V15H36.016V3.625Zm17.023,9.25H52.883L52.227,15H49.3L53.469,3.625h2.578L60.25,15H57.3Zm-3.1-2.117h2.445L54.758,6.813ZM69.07,5.742H65.656V15H62.914V5.742H59.563V3.625H69.07ZM73.148,15H70.414V3.625h2.734Zm6.32-3.094,2.266-8.281H84.8L80.969,15h-3l-3.8-11.375h3.039Zm12.031.969H87.742L87.086,15h-2.93L88.328,3.625h2.578L95.109,15H92.164Zm-3.1-2.117h2.445L89.617,6.813Z" transform="translate(3636.17 -7188.56)" fill="#12263f"/>
    <path id="Trazado_835977" data-name="Trazado 835977" d="M42.211,15V3.625h3.664a5.39,5.39,0,0,1,2.711.684,4.805,4.805,0,0,1,1.879,1.93,5.826,5.826,0,0,1,.684,2.793v.523a5.86,5.86,0,0,1-.66,2.8,4.826,4.826,0,0,1-1.859,1.938A5.271,5.271,0,0,1,45.953,15Zm2.742-9.258v7.148h.953a2.133,2.133,0,0,0,1.813-.84,4.116,4.116,0,0,0,.633-2.5V9.063a4.082,4.082,0,0,0-.633-2.484,2.17,2.17,0,0,0-1.844-.836Zm14.656,4.43H55.3v2.719h5.094V15H52.555V3.625h7.852V5.742H55.3v2.4h4.313ZM13.387,36.141V40H10.645V28.625h4.539a5.287,5.287,0,0,1,2.309.48,3.621,3.621,0,0,1,1.555,1.367,3.734,3.734,0,0,1,.551,2.012,3.291,3.291,0,0,1-1.191,2.66,4.943,4.943,0,0,1-3.27,1Zm0-2.117h1.8a1.7,1.7,0,0,0,1.215-.4,1.48,1.48,0,0,0,.418-1.125,1.83,1.83,0,0,0-.43-1.273,1.522,1.522,0,0,0-1.172-.484H13.387Zm11.9,1.953H23.8V40H21.059V28.625h4.477a5,5,0,0,1,3.164.9,3.041,3.041,0,0,1,1.141,2.536,3.693,3.693,0,0,1-.48,1.967,3.41,3.41,0,0,1-1.5,1.264l2.375,4.593V40H27.293ZM23.8,33.867h1.734a1.557,1.557,0,0,0,1.176-.411,1.59,1.59,0,0,0,.395-1.147,1.608,1.608,0,0,0-.4-1.155,1.542,1.542,0,0,0-1.172-.419H23.8Zm17.328.68a6.708,6.708,0,0,1-.617,2.945,4.561,4.561,0,0,1-1.754,1.973,4.884,4.884,0,0,1-2.59.691,4.953,4.953,0,0,1-2.578-.668,4.554,4.554,0,0,1-1.754-1.91,6.515,6.515,0,0,1-.66-2.852v-.641a6.737,6.737,0,0,1,.613-2.949,4.55,4.55,0,0,1,1.758-1.973,5.2,5.2,0,0,1,5.184-.008,4.632,4.632,0,0,1,1.762,1.957,6.544,6.544,0,0,1,.637,2.91ZM38.34,34.07a4.783,4.783,0,0,0-.566-2.574,1.817,1.817,0,0,0-1.621-.879q-2.062,0-2.18,3.094l-.008.836a4.92,4.92,0,0,0,.555,2.57,1.814,1.814,0,0,0,1.648.9,1.792,1.792,0,0,0,1.6-.883,4.785,4.785,0,0,0,.57-2.539Zm13.406,2.078a4.154,4.154,0,0,1-.641,2.1,3.866,3.866,0,0,1-1.645,1.41,5.6,5.6,0,0,1-2.418.5A4.467,4.467,0,0,1,43.512,38.7a6.032,6.032,0,0,1-1.289-4.125v-.562a6.885,6.885,0,0,1,.582-2.926,4.41,4.41,0,0,1,1.676-1.937,4.676,4.676,0,0,1,2.531-.684,4.9,4.9,0,0,1,3.328,1.09,4.306,4.306,0,0,1,1.43,3H49.035a2.037,2.037,0,0,0-.523-1.492,2.153,2.153,0,0,0-1.5-.453,1.638,1.638,0,0,0-1.5.766,4.921,4.921,0,0,0-.5,2.445v.8a5.445,5.445,0,0,0,.457,2.6,1.672,1.672,0,0,0,1.574.781,2.106,2.106,0,0,0,1.445-.445,1.89,1.89,0,0,0,.531-1.414Zm8.352-.977H55.785v2.719h5.094V40H53.043V28.625h7.852v2.117H55.785v2.4H60.1Zm7.766,1.8a1.127,1.127,0,0,0-.426-.937,5.292,5.292,0,0,0-1.5-.7,14.353,14.353,0,0,1-1.75-.7,3.314,3.314,0,0,1-2.211-2.984A2.676,2.676,0,0,1,62.531,30a3.562,3.562,0,0,1,1.559-1.125,6.065,6.065,0,0,1,2.266-.4,5.305,5.305,0,0,1,2.2.438,3.482,3.482,0,0,1,1.512,1.246A3.254,3.254,0,0,1,70.605,32H67.871a1.375,1.375,0,0,0-.426-1.078,1.66,1.66,0,0,0-1.152-.383,1.872,1.872,0,0,0-1.16.324.955.955,0,0,0,.043,1.617,5.911,5.911,0,0,0,1.648.734,10.1,10.1,0,0,1,1.938.816,3.256,3.256,0,0,1,1.844,2.93A2.778,2.778,0,0,1,69.48,39.3a5,5,0,0,1-3.086.852,6.122,6.122,0,0,1-2.5-.5A3.775,3.775,0,0,1,62.2,38.3a3.542,3.542,0,0,1-.566-1.988h2.75a1.745,1.745,0,0,0,.473,1.348,2.234,2.234,0,0,0,1.535.434,1.765,1.765,0,0,0,1.074-.293A.967.967,0,0,0,67.863,36.977Zm13.781-2.43a6.708,6.708,0,0,1-.617,2.945,4.561,4.561,0,0,1-1.754,1.973,4.884,4.884,0,0,1-2.59.691,4.953,4.953,0,0,1-2.578-.668,4.554,4.554,0,0,1-1.754-1.91,6.515,6.515,0,0,1-.66-2.852v-.641a6.738,6.738,0,0,1,.613-2.949,4.55,4.55,0,0,1,1.758-1.973,5.2,5.2,0,0,1,5.184-.008,4.632,4.632,0,0,1,1.762,1.957,6.544,6.544,0,0,1,.637,2.91Zm-2.789-.477a4.783,4.783,0,0,0-.566-2.574,1.817,1.817,0,0,0-1.621-.879q-2.062,0-2.18,3.094l-.008.836a4.92,4.92,0,0,0,.555,2.57,1.814,1.814,0,0,0,1.648.9,1.792,1.792,0,0,0,1.6-.883,4.785,4.785,0,0,0,.57-2.539Zm10.07,2.906a1.127,1.127,0,0,0-.426-.937,5.292,5.292,0,0,0-1.5-.7,14.353,14.353,0,0,1-1.75-.7,3.314,3.314,0,0,1-2.211-2.984A2.676,2.676,0,0,1,83.594,30a3.562,3.562,0,0,1,1.559-1.125,6.065,6.065,0,0,1,2.266-.4,5.305,5.305,0,0,1,2.2.438,3.482,3.482,0,0,1,1.512,1.246A3.254,3.254,0,0,1,91.668,32H88.934a1.375,1.375,0,0,0-.426-1.078,1.66,1.66,0,0,0-1.152-.383,1.872,1.872,0,0,0-1.16.324.955.955,0,0,0,.043,1.617,5.911,5.911,0,0,0,1.648.734,10.1,10.1,0,0,1,1.938.816,3.256,3.256,0,0,1,1.844,2.93A2.778,2.778,0,0,1,90.543,39.3a5,5,0,0,1-3.086.852,6.122,6.122,0,0,1-2.5-.5A3.775,3.775,0,0,1,83.266,38.3a3.542,3.542,0,0,1-.566-1.988h2.75a1.745,1.745,0,0,0,.473,1.348,2.234,2.234,0,0,0,1.535.434,1.765,1.765,0,0,0,1.074-.293A.967.967,0,0,0,88.926,36.977Z" transform="translate(3636.17 -7014.169)" fill="#fff"/>
    <path id="Trazado_835978" data-name="Trazado 835978" d="M97.276,0A97.276,97.276,0,1,1,0,97.276,97.276,97.276,0,0,1,97.276,0Z" transform="translate(3483.477 -7178.724)" fill="#fff"/>
    <path id="Trazado_835979" data-name="Trazado 835979" d="M16.869,10.172H12.556v2.719H17.65V15H9.814V3.625h7.852V5.742H12.556v2.4h4.313Zm6.313,1.734,2.266-8.281h3.063L24.681,15h-3l-3.8-11.375h3.039Zm12.031.969H31.455L30.8,15h-2.93L32.041,3.625h2.578L38.822,15H35.876Zm-3.1-2.117h2.445L33.33,6.813Zm10.281,2.133h4.773V15H39.65V3.625h2.742ZM57.056,3.625V11.07a4.279,4.279,0,0,1-.539,2.191,3.492,3.492,0,0,1-1.547,1.41,5.449,5.449,0,0,1-2.383.484,4.708,4.708,0,0,1-3.273-1.078A3.845,3.845,0,0,1,48.1,11.125v-7.5h2.758V11.18q.047,1.867,1.734,1.867a1.679,1.679,0,0,0,1.289-.469,2.191,2.191,0,0,0,.438-1.523V3.625Zm8,9.25H61.3L60.642,15h-2.93L61.884,3.625h2.578L68.666,15H65.72Zm-3.1-2.117H64.4L63.173,6.813Zm16.578.391a4.154,4.154,0,0,1-.641,2.1,3.866,3.866,0,0,1-1.645,1.41,5.6,5.6,0,0,1-2.418.5A4.467,4.467,0,0,1,70.3,13.7,6.032,6.032,0,0,1,69.009,9.57V9.008a6.885,6.885,0,0,1,.582-2.926,4.41,4.41,0,0,1,1.676-1.937A4.676,4.676,0,0,1,73.8,3.461a4.9,4.9,0,0,1,3.328,1.09,4.306,4.306,0,0,1,1.43,3H75.822A2.037,2.037,0,0,0,75.3,6.063a2.153,2.153,0,0,0-1.5-.453,1.638,1.638,0,0,0-1.5.766,4.921,4.921,0,0,0-.5,2.445v.8a5.445,5.445,0,0,0,.457,2.6,1.672,1.672,0,0,0,1.574.781,2.106,2.106,0,0,0,1.445-.445,1.89,1.89,0,0,0,.531-1.414ZM82.751,15H80.017V3.625h2.734ZM94.291,9.547a6.708,6.708,0,0,1-.617,2.945,4.561,4.561,0,0,1-1.754,1.973,4.884,4.884,0,0,1-2.59.691,4.953,4.953,0,0,1-2.578-.668A4.554,4.554,0,0,1,85,12.578a6.515,6.515,0,0,1-.66-2.852V9.086a6.738,6.738,0,0,1,.613-2.949,4.55,4.55,0,0,1,1.758-1.973,5.2,5.2,0,0,1,5.184-.008,4.632,4.632,0,0,1,1.762,1.957,6.544,6.544,0,0,1,.637,2.91ZM91.5,9.07A4.783,4.783,0,0,0,90.935,6.5a1.817,1.817,0,0,0-1.621-.879q-2.062,0-2.18,3.094l-.008.836a4.92,4.92,0,0,0,.555,2.57,1.814,1.814,0,0,0,1.648.9,1.792,1.792,0,0,0,1.6-.883,4.785,4.785,0,0,0,.57-2.539ZM89.634.578h2.781L90.244,3.031l-2.148,0ZM105.2,15h-2.727L98.447,7.922V15H95.7V3.625h2.742L102.47,10.7V3.625H105.2Z" transform="translate(3528.253 -7085.948)" fill="#12263f"/>
  </g>
</svg>
