<svg xmlns="http://www.w3.org/2000/svg" xmlns:xlink="http://www.w3.org/1999/xlink" width="295" height="274.808" viewBox="0 0 295 274.808">
  <defs>
    <clipPath id="clip-path">
      <rect id="Rectángulo_300757" data-name="Rectángulo 300757" width="182.622" height="207.796" fill="none"/>
    </clipPath>
    <clipPath id="clip-path-3">
      <rect id="Rectángulo_300753" data-name="Rectángulo 300753" width="57.041" height="50.382" fill="none"/>
    </clipPath>
    <clipPath id="clip-path-4">
      <rect id="Rectángulo_300754" data-name="Rectángulo 300754" width="69.644" height="64.176" fill="none"/>
    </clipPath>
    <clipPath id="clip-path-5">
      <rect id="Rectángulo_300755" data-name="Rectángulo 300755" width="29.637" height="17.928" fill="none"/>
    </clipPath>
  </defs>
  <g id="Grupo_886499" data-name="Grupo 886499" transform="translate(-285 -9843.241)">
    <g id="Grupo_870615" data-name="Grupo 870615" transform="translate(285 10068.026)">
      <path id="Sustracción_7" data-name="Sustracción 7" d="M251.654,50.022H0V6.094H32.22L38.576,0H295V40.927H257.846l-6.192,9.095Z" transform="translate(0 0)" fill="#03386e"/>
      <path id="Trazado_608312" data-name="Trazado 608312" d="M55.552,15.51H51.186L50.356,18H47.708l4.5-12.086h2.308L59.039,18H56.391Zm-3.694-2.017H54.88L53.361,8.969Zm11.887,2.739a1.573,1.573,0,0,0,1.079-.365,1.28,1.28,0,0,0,.432-.971h2.25a3.077,3.077,0,0,1-.5,1.673,3.286,3.286,0,0,1-1.341,1.179,4.2,4.2,0,0,1-1.88.419,3.9,3.9,0,0,1-3.038-1.224,4.845,4.845,0,0,1-1.112-3.383V13.4a4.79,4.79,0,0,1,1.1-3.312,3.854,3.854,0,0,1,3.03-1.237,3.778,3.778,0,0,1,2.7.959,3.4,3.4,0,0,1,1.033,2.552h-2.25a1.648,1.648,0,0,0-.432-1.139,1.6,1.6,0,0,0-2.362.173,3.541,3.541,0,0,0-.427,1.983v.249a3.586,3.586,0,0,0,.423,2A1.463,1.463,0,0,0,63.745,16.232Zm8.865,0a1.573,1.573,0,0,0,1.079-.365,1.28,1.28,0,0,0,.432-.971h2.25a3.077,3.077,0,0,1-.5,1.673,3.286,3.286,0,0,1-1.341,1.179,4.2,4.2,0,0,1-1.88.419,3.9,3.9,0,0,1-3.038-1.224A4.845,4.845,0,0,1,68.5,13.559V13.4a4.79,4.79,0,0,1,1.1-3.312,3.854,3.854,0,0,1,3.03-1.237,3.778,3.778,0,0,1,2.7.959,3.4,3.4,0,0,1,1.033,2.552h-2.25a1.648,1.648,0,0,0-.432-1.139,1.6,1.6,0,0,0-2.362.173A3.541,3.541,0,0,0,70.9,13.38v.249a3.586,3.586,0,0,0,.423,2A1.463,1.463,0,0,0,72.611,16.232ZM80.272,18H77.865V9.019h2.407ZM77.724,6.694a1.181,1.181,0,0,1,.361-.888,1.556,1.556,0,0,1,1.963,0,1.175,1.175,0,0,1,.365.888,1.178,1.178,0,0,1-.369.9,1.539,1.539,0,0,1-1.951,0A1.178,1.178,0,0,1,77.724,6.694Zm4.15,6.732a5.326,5.326,0,0,1,.515-2.382,3.768,3.768,0,0,1,1.482-1.619,4.323,4.323,0,0,1,2.245-.573,4.09,4.09,0,0,1,2.968,1.112,4.464,4.464,0,0,1,1.282,3.021l.017.614a4.694,4.694,0,0,1-1.154,3.316,4.472,4.472,0,0,1-6.2,0,4.777,4.777,0,0,1-1.158-3.387Zm2.4.17a3.357,3.357,0,0,0,.481,1.958,1.73,1.73,0,0,0,2.739.008,3.674,3.674,0,0,0,.49-2.141,3.324,3.324,0,0,0-.49-1.945,1.592,1.592,0,0,0-1.378-.69,1.566,1.566,0,0,0-1.361.686A3.736,3.736,0,0,0,84.273,13.6Zm9.795-4.578.075,1.038a3.136,3.136,0,0,1,2.582-1.2,2.606,2.606,0,0,1,2.125.838,3.912,3.912,0,0,1,.714,2.507V18h-2.4V12.256a1.556,1.556,0,0,0-.332-1.108,1.486,1.486,0,0,0-1.1-.344,1.65,1.65,0,0,0-1.519.863V18h-2.4V9.019Zm11.447,9.147a4.409,4.409,0,0,1-3.217-1.212,4.308,4.308,0,0,1-1.241-3.229v-.232a5.426,5.426,0,0,1,.523-2.42,3.838,3.838,0,0,1,1.482-1.644,4.159,4.159,0,0,1,2.187-.577,3.727,3.727,0,0,1,2.9,1.162,4.722,4.722,0,0,1,1.058,3.3v.979H103.49a2.229,2.229,0,0,0,.7,1.411,2.12,2.12,0,0,0,1.482.531,2.589,2.589,0,0,0,2.167-1l1.179,1.32a3.6,3.6,0,0,1-1.461,1.191A4.793,4.793,0,0,1,105.515,18.166Zm-.274-7.379a1.5,1.5,0,0,0-1.158.484,2.5,2.5,0,0,0-.569,1.384h3.337v-.192a1.786,1.786,0,0,0-.432-1.238A1.547,1.547,0,0,0,105.241,10.787Zm10.193,4.731a.773.773,0,0,0-.436-.693,4.95,4.95,0,0,0-1.4-.452q-3.2-.672-3.2-2.723a2.468,2.468,0,0,1,.992-2,4,4,0,0,1,2.594-.8,4.307,4.307,0,0,1,2.735.805,2.538,2.538,0,0,1,1.025,2.092h-2.4a1.161,1.161,0,0,0-.332-.851,1.405,1.405,0,0,0-1.038-.336,1.436,1.436,0,0,0-.938.274.865.865,0,0,0-.332.7.739.739,0,0,0,.378.643,3.885,3.885,0,0,0,1.274.423,10.407,10.407,0,0,1,1.511.4,2.482,2.482,0,0,1,1.9,2.416,2.343,2.343,0,0,1-1.054,1.988,4.548,4.548,0,0,1-2.723.76,4.75,4.75,0,0,1-2-.4,3.363,3.363,0,0,1-1.374-1.1,2.565,2.565,0,0,1-.5-1.515h2.274a1.252,1.252,0,0,0,.473.979,1.877,1.877,0,0,0,1.179.34,1.737,1.737,0,0,0,1.042-.261A.814.814,0,0,0,115.434,15.518Zm16.195-1.926a5.387,5.387,0,0,1-.942,3.324,3.021,3.021,0,0,1-2.544,1.249,2.8,2.8,0,0,1-2.2-.946v4.233h-2.4V9.019h2.225l.083.88a2.819,2.819,0,0,1,2.274-1.046,3.041,3.041,0,0,1,2.582,1.229,5.532,5.532,0,0,1,.921,3.387Zm-2.4-.174a3.535,3.535,0,0,0-.444-1.934A1.446,1.446,0,0,0,127.5,10.8a1.571,1.571,0,0,0-1.552.863v3.677a1.6,1.6,0,0,0,1.569.888Q129.23,16.232,129.23,13.418Zm8.932-2.15a6.517,6.517,0,0,0-.863-.066,1.757,1.757,0,0,0-1.785.921V18h-2.4V9.019h2.266l.066,1.071a2.223,2.223,0,0,1,2-1.237,2.514,2.514,0,0,1,.747.108Zm5.288,6.9a4.409,4.409,0,0,1-3.217-1.212,4.308,4.308,0,0,1-1.241-3.229v-.232a5.426,5.426,0,0,1,.523-2.42A3.838,3.838,0,0,1,141,9.429a4.159,4.159,0,0,1,2.187-.577,3.727,3.727,0,0,1,2.9,1.162,4.722,4.722,0,0,1,1.058,3.3v.979h-5.719a2.228,2.228,0,0,0,.7,1.411,2.12,2.12,0,0,0,1.482.531,2.589,2.589,0,0,0,2.167-1l1.179,1.32a3.6,3.6,0,0,1-1.461,1.191A4.793,4.793,0,0,1,143.449,18.166Zm-.274-7.379a1.5,1.5,0,0,0-1.158.484,2.5,2.5,0,0,0-.569,1.384h3.337v-.192a1.786,1.786,0,0,0-.432-1.238A1.547,1.547,0,0,0,143.176,10.787Zm8.583,4.283,1.668-6.051h2.507L152.9,18h-2.291l-3.03-8.981h2.507Zm9.363,3.1a4.409,4.409,0,0,1-3.217-1.212,4.308,4.308,0,0,1-1.241-3.229v-.232a5.426,5.426,0,0,1,.523-2.42,3.838,3.838,0,0,1,1.482-1.644,4.159,4.159,0,0,1,2.187-.577,3.727,3.727,0,0,1,2.9,1.162,4.722,4.722,0,0,1,1.058,3.3v.979H159.1a2.228,2.228,0,0,0,.7,1.411,2.12,2.12,0,0,0,1.482.531,2.589,2.589,0,0,0,2.167-1l1.179,1.32a3.6,3.6,0,0,1-1.461,1.191A4.793,4.793,0,0,1,161.122,18.166Zm-.274-7.379a1.5,1.5,0,0,0-1.158.484,2.5,2.5,0,0,0-.569,1.384h3.337v-.192a1.786,1.786,0,0,0-.432-1.238A1.547,1.547,0,0,0,160.848,10.787Zm7.537-1.768.075,1.038a3.136,3.136,0,0,1,2.582-1.2,2.606,2.606,0,0,1,2.125.838,3.912,3.912,0,0,1,.714,2.507V18h-2.4V12.256a1.556,1.556,0,0,0-.332-1.108,1.486,1.486,0,0,0-1.1-.344,1.65,1.65,0,0,0-1.519.863V18h-2.4V9.019ZM178.57,6.811V9.019h1.536v1.76H178.57v4.482a1.07,1.07,0,0,0,.191.714.959.959,0,0,0,.73.216,3.826,3.826,0,0,0,.706-.058V17.95a4.939,4.939,0,0,1-1.453.216,2.29,2.29,0,0,1-2.573-2.548V10.778H174.86V9.019h1.312V6.811ZM183.974,18h-2.407V9.019h2.407ZM181.426,6.694a1.181,1.181,0,0,1,.361-.888,1.556,1.556,0,0,1,1.963,0,1.175,1.175,0,0,1,.365.888,1.178,1.178,0,0,1-.369.9,1.539,1.539,0,0,1-1.951,0A1.178,1.178,0,0,1,181.426,6.694Zm7.886,8.375,1.668-6.051h2.507L190.457,18h-2.291l-3.03-8.981h2.507ZM199.621,18a2.664,2.664,0,0,1-.241-.805,2.9,2.9,0,0,1-2.266.971,3.189,3.189,0,0,1-2.187-.764,2.456,2.456,0,0,1-.867-1.926,2.538,2.538,0,0,1,1.058-2.191,5.222,5.222,0,0,1,3.059-.772h1.1V12a1.48,1.48,0,0,0-.32-1,1.257,1.257,0,0,0-1.009-.374,1.429,1.429,0,0,0-.95.291.987.987,0,0,0-.344.8h-2.4a2.41,2.41,0,0,1,.481-1.444A3.182,3.182,0,0,1,196.1,9.23a4.961,4.961,0,0,1,1.976-.378,3.92,3.92,0,0,1,2.635.834,2.918,2.918,0,0,1,.975,2.345v3.893a4.294,4.294,0,0,0,.357,1.934V18Zm-1.984-1.668a2.066,2.066,0,0,0,.979-.237,1.554,1.554,0,0,0,.664-.635V13.916h-.9q-1.8,0-1.917,1.245l-.008.141a.96.96,0,0,0,.315.739A1.225,1.225,0,0,0,197.637,16.332Zm10.758-.813a.773.773,0,0,0-.436-.693,4.95,4.95,0,0,0-1.4-.452q-3.2-.672-3.2-2.723a2.468,2.468,0,0,1,.992-2,4,4,0,0,1,2.594-.8,4.307,4.307,0,0,1,2.735.805A2.538,2.538,0,0,1,210.7,11.75h-2.4a1.161,1.161,0,0,0-.332-.851,1.405,1.405,0,0,0-1.038-.336,1.436,1.436,0,0,0-.938.274.865.865,0,0,0-.332.7.739.739,0,0,0,.378.643,3.885,3.885,0,0,0,1.274.423,10.407,10.407,0,0,1,1.511.4,2.482,2.482,0,0,1,1.9,2.416,2.343,2.343,0,0,1-1.054,1.988,4.548,4.548,0,0,1-2.723.76,4.75,4.75,0,0,1-2-.4,3.363,3.363,0,0,1-1.374-1.1,2.565,2.565,0,0,1-.5-1.515h2.274a1.252,1.252,0,0,0,.473.979,1.877,1.877,0,0,0,1.179.34,1.737,1.737,0,0,0,1.042-.261A.814.814,0,0,0,208.395,15.518Z" transform="translate(18.999 13.642)" fill="#fff"/>
      <path id="Trazado_214008" data-name="Trazado 214008" d="M-.808,1.311H26.244V7.625H-4Z" transform="translate(268.756 42.396)" fill="#7f8a9c"/>
    </g>
    <g id="Grupo_885964" data-name="Grupo 885964" transform="translate(362.162 9843.241)">
      <g id="Grupo_885963" data-name="Grupo 885963" clip-path="url(#clip-path)">
        <rect id="Rectángulo_300752" data-name="Rectángulo 300752" width="30.431" height="15.432" transform="matrix(0.631, -0.776, 0.776, 0.631, 69.172, 114.633)" fill="#17100d"/>
        <g id="Grupo_885962" data-name="Grupo 885962">
          <g id="Grupo_885961" data-name="Grupo 885961" clip-path="url(#clip-path)">
            <path id="Trazado_600050" data-name="Trazado 600050" d="M211.093,12.371a55.38,55.38,0,1,0,8.068,77.9,55.441,55.441,0,0,0-8.068-77.9M145.915,92.61a48,48,0,1,1,67.515-6.993,48.051,48.051,0,0,1-67.515,6.993" transform="translate(-48.911 0)" fill="#333132"/>
            <path id="Trazado_600051" data-name="Trazado 600051" d="M211.486,23.088A48,48,0,1,0,218.479,90.6a48.05,48.05,0,0,0-6.993-67.516" transform="translate(-53.943 -5.006)" fill="#8ecace"/>
            <g id="Grupo_885954" data-name="Grupo 885954" transform="translate(114.233 10.048)" opacity="0.5">
              <g id="Grupo_885953" data-name="Grupo 885953">
                <g id="Grupo_885952" data-name="Grupo 885952" clip-path="url(#clip-path-3)">
                  <path id="Trazado_600052" data-name="Trazado 600052" d="M246.884,63.542c-5.909,7.275-22.533,3.562-37.13-8.3S188.115,27.88,194.024,20.6s22.533-3.56,37.129,8.3,21.639,27.367,15.73,34.641" transform="translate(-191.933 -16.883)" fill="#fff"/>
                </g>
              </g>
            </g>
            <g id="Grupo_885957" data-name="Grupo 885957" transform="translate(84.01 32.801)" opacity="0.5">
              <g id="Grupo_885956" data-name="Grupo 885956">
                <g id="Grupo_885955" data-name="Grupo 885955" clip-path="url(#clip-path-4)">
                  <path id="Trazado_600053" data-name="Trazado 600053" d="M210.8,103.826a36.781,36.781,0,0,1-11.272,10.234,38.341,38.341,0,0,1-14.621,4.925,38.906,38.906,0,0,1-15.5-1.209,39.164,39.164,0,0,1-23.75-19.287,38.955,38.955,0,0,1-4.361-14.928,38.34,38.34,0,0,1,1.826-15.322,36.776,36.776,0,0,1,7.71-13.129,40.616,40.616,0,0,0-6.381,13.524,39.176,39.176,0,0,0-.964,14.7,38.311,38.311,0,0,0,41.2,33.469,39.159,39.159,0,0,0,14.191-3.956,40.615,40.615,0,0,0,11.927-9.022" transform="translate(-141.152 -55.111)" fill="#fff"/>
                  <path id="Trazado_600054" data-name="Trazado 600054" d="M206.464,106.56a28.7,28.7,0,0,1-8.835,8.212,30.229,30.229,0,0,1-11.6,3.994,30.821,30.821,0,0,1-12.35-.916,31.036,31.036,0,0,1-18.928-15.372,30.83,30.83,0,0,1-3.428-11.9,30.224,30.224,0,0,1,1.533-12.168,28.7,28.7,0,0,1,6.23-10.33,32.537,32.537,0,0,0-4.9,10.725,31.039,31.039,0,0,0-.671,11.546,30.2,30.2,0,0,0,32.291,26.233,31.03,31.03,0,0,0,11.165-3.023,32.5,32.5,0,0,0,9.491-7" transform="translate(-145.232 -60.36)" fill="#fff"/>
                </g>
              </g>
            </g>
            <g id="Grupo_885960" data-name="Grupo 885960" transform="translate(96.135 16.284)" opacity="0.8">
              <g id="Grupo_885959" data-name="Grupo 885959">
                <g id="Grupo_885958" data-name="Grupo 885958" clip-path="url(#clip-path-5)">
                  <path id="Trazado_600055" data-name="Trazado 600055" d="M197.119,41.976a8.964,8.964,0,1,1-1.306-12.609,8.964,8.964,0,0,1,1.306,12.609" transform="translate(-169.488 -27.36)" fill="#fff"/>
                  <path id="Trazado_600056" data-name="Trazado 600056" d="M168.561,47.195a3.962,3.962,0,1,1-.576-5.572,3.958,3.958,0,0,1,.576,5.572" transform="translate(-161.524 -32.775)" fill="#fff"/>
                </g>
              </g>
            </g>
            <path id="Trazado_600057" data-name="Trazado 600057" d="M26.884,275.2c-2.757,3.734-7.617,5.226-10.7,3.125A111.175,111.175,0,0,1,1.763,266.608c-2.689-2.58-2.224-7.646.865-11.11L69.2,180.366c3.094-3.467,6.987-4.747,8.811-3a76.415,76.415,0,0,0,9.894,8.037c2.088,1.428,1.635,5.5-1.126,9.238Q56.832,234.924,26.884,275.2" transform="translate(0 -71.488)" fill="#333132"/>
            <path id="Trazado_600058" data-name="Trazado 600058" d="M13.707,265.427a2.308,2.308,0,1,1-3.474-3.041L75.771,187.5a2.308,2.308,0,1,1,3.475,3.04Z" transform="translate(-3.911 -75.585)" fill="#5f5f64"/>
          </g>
        </g>
      </g>
    </g>
  </g>
</svg>
