<svg xmlns="http://www.w3.org/2000/svg" xmlns:xlink="http://www.w3.org/1999/xlink" width="85" height="85" viewBox="0 0 85 85">
  <defs>
    <clipPath id="clip-path">
      <rect id="Rectángulo_300826" data-name="Rectángulo 300826" width="50.333" height="50.34" fill="none"/>
    </clipPath>
  </defs>
  <g id="Grupo_886490" data-name="Grupo 886490" transform="translate(-845 -14043.487)">
    <g id="Elipse_6611" data-name="Elipse 6611" transform="translate(845 14043.487)" fill="#fff" stroke="#72e0fa" stroke-width="1">
      <circle cx="42.5" cy="42.5" r="42.5" stroke="none"/>
      <circle cx="42.5" cy="42.5" r="42" fill="none"/>
    </g>
    <g id="Grupo_886139" data-name="Grupo 886139" transform="translate(862 14060.487)">
      <g id="Grupo_886138" data-name="Grupo 886138" clip-path="url(#clip-path)">
        <path id="Trazado_601952" data-name="Trazado 601952" d="M38.338,298.616a.874.874,0,0,1-.822-.875.851.851,0,0,1,.841-.79.787.787,0,0,1,.826.833.832.832,0,0,1-.845.832" transform="translate(-32.586 -257.929)" fill="#fefefe"/>
        <path id="Trazado_601953" data-name="Trazado 601953" d="M24.043.218A24.094,24.094,0,0,0,10.1,5.827a24.725,24.725,0,0,0-8.761,15.1,23.848,23.848,0,0,0-.393,4.345,25.041,25.041,0,0,0,2.1,9.877c.248.572.518,1.132.8,1.687a3.348,3.348,0,0,0,.3.507.682.682,0,0,0,.935.268.69.69,0,0,0,.268-.977c-.3-.58-.6-1.165-.866-1.763a23.305,23.305,0,0,1-.126-19.118A23.372,23.372,0,0,1,17.034,3.3a1.431,1.431,0,0,1,.565-.154.511.511,0,0,1,.145.043,19.471,19.471,0,0,1,4.43-1.206,23.071,23.071,0,0,1,10.784.759c.17.053.333.127.5.191h0a16.681,16.681,0,0,1,3.949,1.71A23.27,23.27,0,0,1,48.343,17.989a22.08,22.08,0,0,1,1.112,8.261,23.3,23.3,0,0,1-7.786,16.4A22.934,22.934,0,0,1,33.881,47.3a3.354,3.354,0,0,1-.33.083,21.979,21.979,0,0,1-5.778,1.207,23.191,23.191,0,0,1-8.474-.9,7.643,7.643,0,0,1-1.558-.545l-.012.02a1.006,1.006,0,0,1-.707-.135,24.408,24.408,0,0,1-5.629-3.285A17.788,17.788,0,0,1,9.661,42.22a2.163,2.163,0,0,0-.486-.412.7.7,0,0,0-.935.119.629.629,0,0,0,.071.924A16.919,16.919,0,0,0,10.175,44.6a25.058,25.058,0,0,0,26.852,3.038,24.368,24.368,0,0,0,6.58-4.676,24.829,24.829,0,0,0,6.568-11.352,30.224,30.224,0,0,0,.754-4.154c.019-.157-.048-.382.223-.412V23.6a.62.62,0,0,1-.052-.4c-.076-.576-.149-1.153-.235-1.727A24.646,24.646,0,0,0,45.342,9.1,24.837,24.837,0,0,0,31.227.538a20.325,20.325,0,0,0-3.2-.454A.76.76,0,0,1,27.553,0H24.407c-.013.252-.219.209-.364.219" transform="translate(-0.819 0.001)" fill="#428cfe"/>
        <path id="Trazado_601954" data-name="Trazado 601954" d="M17.543,1.173A25.21,25.21,0,0,0,.009,24.651,24.725,24.725,0,0,0,2.279,35.608c.283.625.6,1.237.939,1.834a.785.785,0,0,0,1.1.32.819.819,0,0,0,.365-1.094c-.1-.225-.23-.433-.342-.651A22.99,22.99,0,0,1,1.989,21.5,23.147,23.147,0,0,1,10.783,6.6,20.953,20.953,0,0,1,16.8,3.244c.041-.018.083-.033.124-.051a.507.507,0,0,0-.145-.043,1.432,1.432,0,0,0-.565.154A23.752,23.752,0,0,0,1.649,27.411a23.13,23.13,0,0,0,2.006,7.463c.27.6.561,1.182.866,1.763a.69.69,0,0,1-.268.977.682.682,0,0,1-.935-.268,3.348,3.348,0,0,1-.3-.507c-.281-.556-.55-1.116-.8-1.687a25.041,25.041,0,0,1-2.1-9.877A23.847,23.847,0,0,1,.518,20.93a24.724,24.724,0,0,1,8.761-15.1A24.094,24.094,0,0,1,23.224.219c.145-.011.351.032.364-.219a.474.474,0,0,1-.326.078,24,24,0,0,0-5.719,1.1" transform="translate(0)" fill="#428cfe"/>
        <path id="Trazado_601955" data-name="Trazado 601955" d="M97.054,206.184a30.246,30.246,0,0,1-.753,4.154,24.833,24.833,0,0,1-6.568,11.352,24.372,24.372,0,0,1-6.58,4.676A25.059,25.059,0,0,1,56.3,223.329a16.932,16.932,0,0,1-1.864-1.745.629.629,0,0,1-.071-.924.7.7,0,0,1,.935-.119,2.16,2.16,0,0,1,.486.412,17.8,17.8,0,0,0,1.733,1.524,24.418,24.418,0,0,0,5.629,3.285,1.006,1.006,0,0,0,.707.135l.012-.02-.048-.025h0a9.2,9.2,0,0,1-1.89-.785,23.087,23.087,0,0,1-6.319-4.441c-.47-.463-.972-.483-1.335-.086s-.3.834.174,1.287.944.911,1.45,1.326a24.739,24.739,0,0,0,20.218,5.589,24.325,24.325,0,0,0,14.339-7.623A24.805,24.805,0,0,0,97,207.591a9.512,9.512,0,0,1,.276-1.819c-.271.03-.2.255-.223.412" transform="translate(-46.944 -178.732)" fill="#428cfe"/>
        <path id="Trazado_601956" data-name="Trazado 601956" d="M48.819,60.45a23.481,23.481,0,0,0,6.638-1.221c.19-.06.378-.125.565-.191.207-.124.415-.246.631-.352a22.972,22.972,0,0,0,7.128-5.593,24.319,24.319,0,0,0,5.523-11.154,23.47,23.47,0,0,0,.393-6.725,23.867,23.867,0,0,0-4.878-12.8A24.7,24.7,0,0,0,58.864,16.8a21.086,21.086,0,0,0-3.034-1.689c-.059-.027-.121-.049-.18-.078-.088-.026-.176-.051-.266-.074a23.1,23.1,0,0,0-8.412-1.195A22.833,22.833,0,0,0,40.761,14.9a5.077,5.077,0,0,1-.957.256c.052.052.046.129-.053.243a1.269,1.269,0,0,1-.413.26A24.284,24.284,0,0,0,28.71,26.6a23.225,23.225,0,0,0-2.235,7.8,22.054,22.054,0,0,0-.184,3.033,25.169,25.169,0,0,0,2.034,9.344,24.46,24.46,0,0,0,5.194,7.569,24.793,24.793,0,0,0,5.943,4.311c.148.079.479.091.306.4a2.549,2.549,0,0,1,.746.171,23.34,23.34,0,0,0,8.306,1.228M36.652,53.728c-.579-.384-.663-.634-.45-1.278-.646-.6-1.311-1.175-1.933-1.8-.565-.563-1.083-1.171-1.622-1.76a.865.865,0,0,1-1.222-.364,19.541,19.541,0,0,1-3.5-9.864,19.681,19.681,0,0,1,6.57-16.493A19.265,19.265,0,0,1,45.4,17.13a19.788,19.788,0,0,1,13.94,3.352c.571.383.664.667.435,1.278h0c.757.69,1.563,1.328,2.25,2.093.348.387.687.783,1.025,1.179.105.124.183.276.377.272a.823.823,0,0,1,1.131.37,19.857,19.857,0,0,1,3.407,9.04A19.594,19.594,0,0,1,64.57,48.5a19.486,19.486,0,0,1-12.81,8.36,19.754,19.754,0,0,1-15.108-3.131" transform="translate(-22.831 -11.931)" fill="#e7ecfb"/>
        <path id="Trazado_601957" data-name="Trazado 601957" d="M38.6,68.055a24.793,24.793,0,0,1-5.943-4.311,24.46,24.46,0,0,1-5.194-7.569,25.172,25.172,0,0,1-2.034-9.344,22.052,22.052,0,0,1,.184-3.033A23.224,23.224,0,0,1,27.846,36,24.284,24.284,0,0,1,38.475,25.063a1.27,1.27,0,0,0,.413-.26c.1-.114.1-.191.053-.243-.057.007-.114.013-.172.016.072.151.076.159-.076.234a23.872,23.872,0,0,0-4.766,3.15,23.357,23.357,0,0,0-3.279,3.352,24.429,24.429,0,0,0-3.769,6.611,25.525,25.525,0,0,0-1.571,7.871,23.047,23.047,0,0,0,.283,4.288,23,23,0,0,0,2.059,6.809A24.393,24.393,0,0,0,38.776,68.248c.091.045.19.088.066.2H38.9c.174-.307-.157-.318-.306-.4" transform="translate(-21.968 -21.333)" fill="#e7ecfb"/>
        <path id="Trazado_601958" data-name="Trazado 601958" d="M128.842,14.257A5.076,5.076,0,0,0,129.8,14a22.833,22.833,0,0,1,6.211-1.143,23.107,23.107,0,0,1,8.412,1.195c.089.023.178.048.266.074a.388.388,0,0,1-.18-.16h0c-.166-.064-.33-.138-.5-.191a23.07,23.07,0,0,0-10.784-.759,19.468,19.468,0,0,0-4.43,1.206.181.181,0,0,1,.048.035" transform="translate(-111.869 -11.029)" fill="#e7ecfb"/>
        <path id="Trazado_601959" data-name="Trazado 601959" d="M144.481,358.669a23.14,23.14,0,0,1-14.943-.007,2.549,2.549,0,0,0-.746-.171l-.014.024a7.644,7.644,0,0,0,1.558.545,23.188,23.188,0,0,0,8.474.9,21.978,21.978,0,0,0,5.778-1.207c.154-.089.307-.182.46-.273-.188.066-.375.131-.565.191" transform="translate(-111.855 -311.371)" fill="#e7ecfb"/>
        <path id="Trazado_601960" data-name="Trazado 601960" d="M127.975,24.3c-.041.017-.083.033-.124.051.058,0,.115-.009.172-.016a.188.188,0,0,0-.048-.035" transform="translate(-111.05 -21.103)" fill="#e7ecfb"/>
        <path id="Trazado_601961" data-name="Trazado 601961" d="M128.473,358.569h-.062l.048.025.014-.024" transform="translate(-111.537 -311.449)" fill="#e7ecfb"/>
        <path id="Trazado_601962" data-name="Trazado 601962" d="M38.357,296.951a.852.852,0,0,0-.841.79.874.874,0,0,0,.822.875.831.831,0,0,0,.845-.832.787.787,0,0,0-.826-.833" transform="translate(-32.586 -257.929)" fill="#438dfe"/>
        <path id="Trazado_601963" data-name="Trazado 601963" d="M266.583,34.98a23.9,23.9,0,0,1,3.487,9.936,24.43,24.43,0,0,1-1.368,11.5,24.019,24.019,0,0,1-4.415,7.443,22.84,22.84,0,0,1-7.252,5.689,23.281,23.281,0,0,0,9.573-7.123,23.085,23.085,0,0,0,4.817-10.94,21.629,21.629,0,0,0,.285-4.648,23.478,23.478,0,0,0-13.638-20.224c-.371-.172-.743-.342-1.121-.5a21,21,0,0,1,4.8,3.2,24.612,24.612,0,0,1,4.835,5.658" transform="translate(-223.186 -22.686)" fill="#c9d8fb"/>
        <path id="Trazado_601964" data-name="Trazado 601964" d="M250.623,23.339a23.478,23.478,0,0,1,13.638,20.224,21.629,21.629,0,0,1-.285,4.648A23.415,23.415,0,0,1,253.74,64.1a22.809,22.809,0,0,1-4.155,2.17c-.091.043-.182.088-.274.131-.281.129-.568.244-.843.387a3.35,3.35,0,0,0,.33-.083,22.936,22.936,0,0,0,7.789-4.646,23.3,23.3,0,0,0,7.785-16.4,22.074,22.074,0,0,0-1.112-8.261,23.27,23.27,0,0,0-10.937-13.343,16.681,16.681,0,0,0-3.948-1.71q.574.23,1.127.5c.379.153.75.324,1.121.5" transform="translate(-215.736 -19.412)" fill="#c9d8fb"/>
        <path id="Trazado_601965" data-name="Trazado 601965" d="M252.958,25.336a24.7,24.7,0,0,1,5.956,5.617,23.865,23.865,0,0,1,4.878,12.8,23.466,23.466,0,0,1-.393,6.725,24.316,24.316,0,0,1-5.523,11.154,22.972,22.972,0,0,1-7.128,5.593c-.216.106-.424.228-.631.352q.332-.116.657-.245a22.838,22.838,0,0,0,7.252-5.689,24.013,24.013,0,0,0,4.415-7.443,24.428,24.428,0,0,0,1.368-11.5,23.9,23.9,0,0,0-3.487-9.936,24.61,24.61,0,0,0-4.835-5.658,21,21,0,0,0-4.8-3.2c-.31-.126-.625-.24-.947-.335.058.029.121.052.18.078a21.085,21.085,0,0,1,3.034,1.689" transform="translate(-216.926 -20.472)" fill="#c9d8fb"/>
        <path id="Trazado_601966" data-name="Trazado 601966" d="M250.2,356.616q-.326.128-.657.245c-.153.092-.305.184-.459.273.274-.143.562-.259.843-.387.092-.042.183-.087.274-.131" transform="translate(-216.354 -309.754)" fill="#c9d8fb"/>
        <path id="Trazado_601967" data-name="Trazado 601967" d="M248.552,22.509c.322.095.637.209.947.335q-.553-.264-1.127-.5h0a.389.389,0,0,0,.18.16" transform="translate(-215.734 -19.412)" fill="#c9d8fb"/>
        <path id="Trazado_601968" data-name="Trazado 601968" d="M58.914,84.783a18.08,18.08,0,0,0,7.767,3.057,17.385,17.385,0,0,0,8.389-.749A31.9,31.9,0,0,0,78,85.332a19.825,19.825,0,0,0,5.729-6.406,18.991,18.991,0,0,0,2.223-6.587,18.251,18.251,0,0,0,.053-5.012,19.9,19.9,0,0,0-1.968-6.52,19.47,19.47,0,0,0-8.692-8.532,2.32,2.32,0,0,1-.279-.191h0a15.8,15.8,0,0,0-4.54-.9,17.519,17.519,0,0,0-9.558,1.977,18.475,18.475,0,0,0-8.218,24.474,16.627,16.627,0,0,0,1.362,2.325c.438.638.414.84-.1,1.419.539.588,1.057,1.2,1.622,1.76.622.621,1.287,1.2,1.933,1.8.548-.488.784-.533,1.338-.153m1.214-27.708a1.676,1.676,0,0,1,1.779-1.742q2.7,0,5.406,0c1.687,0,3.377-.051,5.062.011a8.851,8.851,0,0,1,6.9,14.179,7.2,7.2,0,0,1-2.113,1.951c-.248.153-.271.271-.128.534,1.375,2.53,2.71,5.081,4.1,7.6a1.709,1.709,0,0,1-1.59,2.576c-1.506-.038-3.014-.016-4.521-.005a1.694,1.694,0,0,1-1.645-1.02c-1.28-2.562-2.571-5.118-3.832-7.689a.826.826,0,0,0-.9-.547c-.955.037-.956.011-.956.961q0,3.219,0,6.438a1.7,1.7,0,0,1-1.867,1.854c-1.311,0-2.621,0-3.932,0a1.677,1.677,0,0,1-1.768-1.755q0-11.673,0-23.345" transform="translate(-44.206 -44.418)" fill="#a3c1f6"/>
        <path id="Trazado_601969" data-name="Trazado 601969" d="M42.724,68.283a18.484,18.484,0,0,1-.893-18.243,18.282,18.282,0,0,1,12.609-9.8,15.883,15.883,0,0,1,4.239-.453,17.7,17.7,0,0,1,4.887.757,2.828,2.828,0,0,1,.591.24q.185.1.371.2a13.97,13.97,0,0,1,2.663,1.16,15.606,15.606,0,0,1,1.737,1.079c.5.353.737.3,1.291-.175h0c.229-.611.136-.895-.434-1.278a19.789,19.789,0,0,0-13.941-3.352,19.266,19.266,0,0,0-10.912,5.043,20.112,20.112,0,0,0-3.066,26.357.865.865,0,0,0,1.222.364c.431-.741.031-1.3-.364-1.9" transform="translate(-33.273 -33.219)" fill="#428cfe"/>
        <path id="Trazado_601970" data-name="Trazado 601970" d="M53.255,78.875a16.609,16.609,0,0,1-1.362-2.325,18.476,18.476,0,0,1,8.218-24.474A17.52,17.52,0,0,1,69.669,50.1a15.808,15.808,0,0,1,4.54.9h0c.132.029.262.063.39.1q-.186-.1-.371-.2a2.83,2.83,0,0,0-.591-.24,17.7,17.7,0,0,0-4.887-.757,15.881,15.881,0,0,0-4.239.453,18.282,18.282,0,0,0-12.609,9.8,18.484,18.484,0,0,0,.893,18.243c.395.6.8,1.159.364,1.9.511-.579.534-.782.1-1.419" transform="translate(-43.343 -43.331)" fill="#428cfe"/>
        <path id="Trazado_601971" data-name="Trazado 601971" d="M116.6,132.663a20.112,20.112,0,0,0,16.209-22.144,19.857,19.857,0,0,0-3.407-9.04.823.823,0,0,0-1.131-.37c-.578.465-.644.767-.231,1.371A18.128,18.128,0,0,1,130.616,108a19.761,19.761,0,0,1,.627,4.093,17.789,17.789,0,0,1-.975,6.818,18.439,18.439,0,0,1-3.632,6.22,18.778,18.778,0,0,1-7.673,5.179.983.983,0,0,1-.1.032c-.106.056-.21.114-.311.18a11.344,11.344,0,0,1-3.031.77,18.513,18.513,0,0,1-8.6-.769,17.434,17.434,0,0,1-3.968-1.906c-.6-.391-1.161-.789-1.9-.364-.213.644-.129.895.45,1.278a19.754,19.754,0,0,0,15.108,3.131" transform="translate(-87.673 -87.735)" fill="#428cfe"/>
        <path id="Trazado_601972" data-name="Trazado 601972" d="M103.65,306.019a17.431,17.431,0,0,0,3.968,1.906,18.512,18.512,0,0,0,8.6.769,11.342,11.342,0,0,0,3.031-.77c.1-.065.205-.124.311-.18-.1.027-.215.041-.321.064h0a17.384,17.384,0,0,1-8.389.749,18.078,18.078,0,0,1-7.767-3.058c-.554-.379-.789-.335-1.338.154.74-.425,1.3-.026,1.9.364" transform="translate(-88.378 -265.136)" fill="#428cfe"/>
        <path id="Trazado_601973" data-name="Trazado 601973" d="M246.165,63.637c-.477-.283-.93-.607-1.409-.89a20.9,20.9,0,0,0-2.413-1.176,16.53,16.53,0,0,1,1.534.913A19.176,19.176,0,0,1,252.4,76.338a18.633,18.633,0,0,1-1.774,10.739,19.056,19.056,0,0,1-8.3,8.666,19.419,19.419,0,0,0,6.352-4.212,18.368,18.368,0,0,0,2.182-23.058,3.244,3.244,0,0,1-.272-.466.765.765,0,0,1,.493-1.153c-.194,0-.272-.149-.378-.272-.338-.4-.676-.792-1.025-1.179-.688-.764-1.493-1.4-2.25-2.093a.8.8,0,0,1-1.263.327" transform="translate(-210.482 -53.48)" fill="#7eabf9"/>
        <path id="Trazado_601974" data-name="Trazado 601974" d="M244.152,84.27a18.632,18.632,0,0,0,1.774-10.739A19.176,19.176,0,0,0,237.4,59.678a16.557,16.557,0,0,0-1.534-.913c-.331-.142-.664-.282-.995-.425h0a2.3,2.3,0,0,0,.278.191,19.47,19.47,0,0,1,8.692,8.532,19.9,19.9,0,0,1,1.968,6.52,18.256,18.256,0,0,1-.053,5.012,18.994,18.994,0,0,1-2.223,6.587,19.828,19.828,0,0,1-5.729,6.406,31.944,31.944,0,0,1-2.935,1.759q.494-.2.98-.411a19.055,19.055,0,0,0,8.3-8.666" transform="translate(-204.006 -50.674)" fill="#7eabf9"/>
        <path id="Trazado_601975" data-name="Trazado 601975" d="M242.253,61.333a15.627,15.627,0,0,0-1.737-1.079,13.977,13.977,0,0,0-2.663-1.16l.6.326a20.9,20.9,0,0,1,2.413,1.176c.479.283.932.606,1.409.89a.8.8,0,0,0,1.263-.327c-.554.476-.79.528-1.291.175" transform="translate(-206.597 -51.329)" fill="#7eabf9"/>
        <path id="Trazado_601976" data-name="Trazado 601976" d="M235.272,58.44c-.129-.036-.259-.07-.39-.1.331.142.663.283.995.425l-.6-.326" transform="translate(-204.017 -50.674)" fill="#7eabf9"/>
        <path id="Trazado_601977" data-name="Trazado 601977" d="M246.234,102.923a3.226,3.226,0,0,0,.272.466,18.368,18.368,0,0,1-2.182,23.058,19.419,19.419,0,0,1-6.352,4.212c-.136.073-.271.148-.41.219-.083.042-.166.084-.248.128a1.019,1.019,0,0,0,.1-.033,18.776,18.776,0,0,0,7.673-5.179,18.438,18.438,0,0,0,3.633-6.22,17.791,17.791,0,0,0,.975-6.818,19.77,19.77,0,0,0-.627-4.093,18.128,18.128,0,0,0-2.576-5.521c-.413-.6-.347-.907.231-1.371a.765.765,0,0,0-.493,1.153" transform="translate(-206.128 -88.397)" fill="#7eabf9"/>
        <path id="Trazado_601978" data-name="Trazado 601978" d="M235.848,321.611q-.486.212-.98.411h0c.106-.023.216-.038.321-.064.082-.043.165-.086.248-.128.139-.071.274-.145.411-.219" transform="translate(-204.004 -279.349)" fill="#7eabf9"/>
        <path id="Trazado_601979" data-name="Trazado 601979" d="M122.912,109.767c1.311,0,2.621,0,3.932,0a1.7,1.7,0,0,0,1.867-1.854q0-3.219,0-6.438c0-.95,0-.924.956-.961a.826.826,0,0,1,.9.547c1.261,2.571,2.552,5.127,3.832,7.689a1.694,1.694,0,0,0,1.645,1.02c1.507-.01,3.015-.033,4.521.005a1.709,1.709,0,0,0,1.59-2.576c-1.394-2.519-2.728-5.071-4.1-7.6-.143-.264-.12-.381.128-.534a7.2,7.2,0,0,0,2.113-1.951,8.852,8.852,0,0,0-6.9-14.179c-1.685-.062-3.374-.011-5.062-.011q-2.7,0-5.406,0a1.676,1.676,0,0,0-1.779,1.742q-.006,11.672,0,23.345a1.676,1.676,0,0,0,1.768,1.755m.33-25.177c3.407.009,6.815-.017,10.221.014a7.26,7.26,0,0,1,6.806,5.6,7.1,7.1,0,0,1-3.541,7.784c-.936.5-1.024.781-.526,1.707q2.152,4,4.305,8a.564.564,0,0,1,.127.4c-1.5,0-3,0-4.5,0-.271,0-.3-.216-.383-.38-1.349-2.692-2.7-5.381-4.031-8.084a1.2,1.2,0,0,0-1.261-.789c-.8.041-1.6.006-2.408.011-.709,0-1.017.31-1.018,1.018,0,2.572-.011,5.144.008,7.715,0,.408-.1.527-.514.516-1.1-.029-2.195-.02-3.292,0-.314,0-.423-.076-.422-.407q.013-11.352,0-22.7c0-.339.121-.4.427-.4" transform="translate(-105.223 -72.01)" fill="#428cfe"/>
        <path id="Trazado_601980" data-name="Trazado 601980" d="M133.876,118.826c0,.331.109.412.422.407,1.1-.017,2.2-.026,3.292,0,.412.011.518-.108.515-.516-.019-2.572-.011-5.143-.008-7.715,0-.708.309-1.013,1.018-1.018.8-.005,1.607.03,2.407-.011a1.2,1.2,0,0,1,1.261.789c1.327,2.7,2.682,5.392,4.031,8.084.082.165.112.381.383.38,1.5-.006,3,0,4.5,0a.564.564,0,0,0-.128-.4q-2.15-4-4.305-8c-.5-.926-.41-1.2.526-1.707a7.1,7.1,0,0,0,3.541-7.784,7.26,7.26,0,0,0-6.806-5.6c-3.407-.031-6.814,0-10.221-.014-.306,0-.428.062-.427.4q.014,11.352,0,22.7m4.221-18.763c0-.651.314-.982.952-.984,1.819-.007,3.638-.028,5.456.007a3.773,3.773,0,0,1,.015,7.541c-1.834.042-3.671.017-5.506.009a.839.839,0,0,1-.916-.92c-.008-.95,0-1.9,0-2.851,0-.934,0-1.868,0-2.8" transform="translate(-116.284 -83.141)" fill="#e7ecfb"/>
        <path id="Trazado_601981" data-name="Trazado 601981" d="M165.985,127.841a.839.839,0,0,0,.916.92c1.835.008,3.671.032,5.506-.009a3.773,3.773,0,0,0-.014-7.541c-1.818-.035-3.638-.014-5.457-.008a.859.859,0,0,0-.952.984c-.005.934,0,1.868,0,2.8,0,.95-.006,1.9,0,2.851m1.669-4.609c0-.278.093-.368.369-.366,1.422.01,2.845-.021,4.267.014a2.068,2.068,0,0,1,2.056,2.213,2.089,2.089,0,0,1-2.123,2c-.67.008-1.341,0-2.011,0-.719,0-1.439-.01-2.158.005-.289.006-.406-.073-.4-.384.015-1.161.012-2.321,0-3.482" transform="translate(-144.169 -105.265)" fill="#428cfe"/>
        <path id="Trazado_601982" data-name="Trazado 601982" d="M179.105,138.148c.719-.016,1.439-.005,2.158-.005.67,0,1.341.006,2.011,0a2.106,2.106,0,0,0,.066-4.211c-1.422-.035-2.845,0-4.267-.014-.275,0-.371.089-.369.366.011,1.161.014,2.322,0,3.482,0,.31.113.39.4.384" transform="translate(-155.22 -116.315)" fill="#a3c1f6"/>
      </g>
    </g>
  </g>
</svg>
