<svg xmlns="http://www.w3.org/2000/svg" xmlns:xlink="http://www.w3.org/1999/xlink" width="85" height="85" viewBox="0 0 85 85">
  <defs>
    <clipPath id="clip-path">
      <rect id="Rectángulo_300831" data-name="Rectángulo 300831" width="50.362" height="50.341" fill="none"/>
    </clipPath>
  </defs>
  <g id="Grupo_886184" data-name="Grupo 886184" transform="translate(-285 -23712)">
    <g id="Elipse_6614" data-name="Elipse 6614" transform="translate(285 23712)" fill="#fff" stroke="#72e0fa" stroke-width="1">
      <circle cx="42.5" cy="42.5" r="42.5" stroke="none"/>
      <circle cx="42.5" cy="42.5" r="42" fill="none"/>
    </g>
    <g id="Grupo_886169" data-name="Grupo 886169" transform="translate(302 23730)">
      <g id="Grupo_886156" data-name="Grupo 886156" clip-path="url(#clip-path)">
        <path id="Trazado_602145" data-name="Trazado 602145" d="M.17,56.468a48.551,48.551,0,0,0,3.87,4.067c.168.182.4.324.439.6.95.938,1.92,1.857,2.841,2.823a1.943,1.943,0,0,0,1.949.585c.941-.187,1.889-.34,2.834-.507h0l2.94-.556c-.013-.246-.222-.353-.367-.5Q10,58.291,5.311,53.609c-.138-.138-.263-.289-.394-.434Q2.9,53.913.893,54.651A1.82,1.82,0,0,0,0,55.627v.787a.139.139,0,0,1,.17.054" transform="translate(0 -46.187)" fill="#29376d"/>
        <path id="Trazado_602146" data-name="Trazado 602146" d="M4.442,82.434h0l.038.037c-.036-.273-.271-.416-.439-.6A48.594,48.594,0,0,1,.17,77.806.139.139,0,0,0,0,77.752a4.735,4.735,0,0,0,.952,1.155q1.749,1.76,3.49,3.527" transform="translate(0 -67.525)" fill="#29376d"/>
        <path id="Trazado_602147" data-name="Trazado 602147" d="M54.452,1.39c-.4,1.184-.846,2.352-1.274,3.526.133.119.272.233.4.36q4.7,4.7,9.405,9.4c.145.145.253.353.5.368l.554-2.939h0c.169-.945.322-1.893.51-2.835a1.935,1.935,0,0,0-.58-1.949C63,6.4,62.081,5.434,61.145,4.485c-.226-.018-.361-.2-.51-.348Q59.2,2.709,57.768,1.273A5.743,5.743,0,0,0,56.587.258C56.5.206,56.375.15,56.416,0H55.63a2.1,2.1,0,0,0-1.178,1.39" transform="translate(-46.19)" fill="#29376d"/>
        <path id="Trazado_602148" data-name="Trazado 602148" d="M77.937.258a5.743,5.743,0,0,1,1.181,1.015q1.433,1.433,2.867,2.864c.149.148.284.33.51.348l-.043-.044h0Q80.7,2.709,78.95.977A4.874,4.874,0,0,0,77.767,0c-.041.15.079.206.171.258" transform="translate(-67.54)" fill="#29376d"/>
        <path id="Trazado_602149" data-name="Trazado 602149" d="M201.565,22.617c6.548,1.61,10.822,5.646,12.395,12.185a16.062,16.062,0,0,1-12.341,19.453,11.811,11.811,0,0,1-3.357.319l.009.027q0,4.006,0,8.013A24.174,24.174,0,0,0,222.2,41.787a23.7,23.7,0,0,0-1.635-12.654,24.27,24.27,0,0,0-19.437-14.715c-.954-.122-1.913-.108-2.87-.141q0,3.983.007,7.967a31.189,31.189,0,0,1,3.3.375" transform="translate(-172.206 -12.4)" fill="#e53950"/>
        <path id="Trazado_602150" data-name="Trazado 602150" d="M198.26,13.4c.957.033,1.916.019,2.87.141a24.27,24.27,0,0,1,19.437,14.715A24.163,24.163,0,0,1,215.5,54.517a24.188,24.188,0,0,1-17.227,7.224v.117a20.855,20.855,0,0,0,5.541-.616,24.346,24.346,0,0,0,18.564-20.723,22.661,22.661,0,0,0-.487-8.572c-2.578-9.593-8.72-15.629-18.334-18.106a18.029,18.029,0,0,0-5.294-.553c0,.038,0,.077,0,.115" transform="translate(-172.205 -11.526)" fill="#e53950"/>
        <path id="Trazado_602151" data-name="Trazado 602151" d="M38.367,142a1.028,1.028,0,0,1,.025-.194.505.505,0,0,1,.066-.158l0,0a16.183,16.183,0,0,1-13.974-24.224c-.9.17-1.794.324-2.69.5a2.227,2.227,0,0,1-2.22-.68c-.753-.813-1.562-1.575-2.345-2.36a1.172,1.172,0,0,1-.3-.386,32.108,32.108,0,0,0-1.474,3.658,24.675,24.675,0,0,0,.05,14.839,23.714,23.714,0,0,0,4.552,8.137,24.029,24.029,0,0,0,7.285,5.82,24.69,24.69,0,0,0,11.088,2.715.82.82,0,0,1-.069-.385c-.006-2.425-.015-4.85,0-7.275" transform="translate(-12.456 -99.442)" fill="#fe6c6c"/>
        <path id="Trazado_602152" data-name="Trazado 602152" d="M33.616,148.452a23.478,23.478,0,0,1-7.394-2.411,24.032,24.032,0,0,1-7.285-5.82,23.715,23.715,0,0,1-4.552-8.137,24.675,24.675,0,0,1-.05-14.839,32.091,32.091,0,0,1,1.474-3.658.508.508,0,0,1-.033-.136c-.064.114-.134.226-.191.343a24.344,24.344,0,0,0,9.847,31.948A23.5,23.5,0,0,0,37.4,148.872a.454.454,0,0,1-.087-.117,23.489,23.489,0,0,1-3.694-.3" transform="translate(-11.333 -98.541)" fill="#fe6c6c"/>
        <path id="Trazado_602153" data-name="Trazado 602153" d="M34.048,113.83a1.172,1.172,0,0,0,.3.386c.783.785,1.592,1.547,2.345,2.36a2.227,2.227,0,0,0,2.219.679c.9-.172,1.794-.325,2.69-.5.024-.043.046-.086.07-.129h0c-.945.168-1.893.32-2.834.507a1.942,1.942,0,0,1-1.949-.585c-.92-.966-1.89-1.886-2.841-2.823a.521.521,0,0,1,.007.072l-.012.027" transform="translate(-29.574 -98.785)" fill="#fe6c6c"/>
        <path id="Trazado_602154" data-name="Trazado 602154" d="M33.844,113.559a.522.522,0,0,0-.007-.072l-.038-.037a.508.508,0,0,0,.033.136l.012-.027" transform="translate(-29.357 -98.541)" fill="#fe6c6c"/>
        <path id="Trazado_602155" data-name="Trazado 602155" d="M197.189,321.117l0,0a.5.5,0,0,0-.066.158,1.023,1.023,0,0,0-.025.194c-.019,2.425-.01,4.85,0,7.275a.821.821,0,0,0,.069.385h.087q0-4.006,0-8.013h-.059" transform="translate(-171.183 -278.917)" fill="#fe6c6c"/>
        <path id="Trazado_602156" data-name="Trazado 602156" d="M197.75,382.1h-.087a.454.454,0,0,0,.087.117V382.1" transform="translate(-171.687 -331.888)" fill="#fe6c6c"/>
        <path id="Trazado_602157" data-name="Trazado 602157" d="M114.992,17.167c.789.787,1.555,1.6,2.37,2.356a2.185,2.185,0,0,1,.665,2.187c-.181.9-.318,1.807-.5,2.707a15.884,15.884,0,0,1,8.079-2.113c0-.019,0-.037.006-.056a.516.516,0,0,1-.105-.155,1.785,1.785,0,0,1-.053-.535q0-3.355,0-6.71a1.282,1.282,0,0,1,.081-.589,26.755,26.755,0,0,0-4.193.383,23.453,23.453,0,0,0-6.283,2.038,2.045,2.045,0,0,1-.444.185,1.259,1.259,0,0,1,.373.3" transform="translate(-99.556 -12.386)" fill="#fe6c6c"/>
        <path id="Trazado_602158" data-name="Trazado 602158" d="M114.071,15.891a23.454,23.454,0,0,1,6.283-2.038,26.754,26.754,0,0,1,4.193-.383.6.6,0,0,1,.072-.113,20.735,20.735,0,0,0-4.007.309,23.48,23.48,0,0,0-7.135,2.371h0a.52.52,0,0,1,.15.039,2.045,2.045,0,0,0,.444-.185" transform="translate(-98.564 -11.596)" fill="#fe6c6c"/>
        <path id="Trazado_602159" data-name="Trazado 602159" d="M117.321,38.937a2.185,2.185,0,0,0-.665-2.187c-.815-.759-1.582-1.569-2.37-2.356a1.255,1.255,0,0,0-.373-.3l-.008,0a.488.488,0,0,1-.1,0c.936.949,1.852,1.918,2.818,2.835a1.935,1.935,0,0,1,.58,1.949c-.188.941-.342,1.889-.51,2.835l.131-.071c.178-.9.315-1.808.5-2.707" transform="translate(-98.849 -29.613)" fill="#fe6c6c"/>
        <path id="Trazado_602160" data-name="Trazado 602160" d="M113.62,33.836l.008,0a.52.52,0,0,0-.15-.039l.043.044a.488.488,0,0,0,.1,0" transform="translate(-98.565 -29.353)" fill="#fe6c6c"/>
        <path id="Trazado_602161" data-name="Trazado 602161" d="M197.083,14.848q0,3.355,0,6.71a1.785,1.785,0,0,0,.053.535.513.513,0,0,0,.105.155c0-.007,0-.013,0-.02q0-3.983-.007-7.967l-.069,0h0a1.281,1.281,0,0,0-.081.589" transform="translate(-171.181 -12.385)" fill="#fe6c6c"/>
        <path id="Trazado_602162" data-name="Trazado 602162" d="M197.715,13.514h0l.069,0q0-.058,0-.115a.59.59,0,0,0-.072.113" transform="translate(-171.732 -11.64)" fill="#fe6c6c"/>
        <path id="Trazado_602163" data-name="Trazado 602163" d="M78.085,132.688a15.879,15.879,0,0,0-1.859,6.021,15.654,15.654,0,0,0,1.215,7.922,15.825,15.825,0,0,0,10.675,9.2,14.415,14.415,0,0,0,3.541.521c.179,0,.374-.03.518.116l.019-.017c0-2.476-.01-4.953.016-7.429,0-.411-.106-.625-.5-.685a8.026,8.026,0,0,1-6.15-12.5q-2.038-2.052-4.074-4.106a.458.458,0,0,0-.286-.137.553.553,0,0,1-.071.1,27.511,27.511,0,0,1-2.806.555l-.052.01c.012.165-.109.294-.182.429" transform="translate(-66.138 -114.3)" fill="#eff6fe"/>
        <path id="Trazado_602164" data-name="Trazado 602164" d="M92.17,132.231a27.553,27.553,0,0,0,2.806-.555.567.567,0,0,0,.072-.1l-.016,0-2.94.556h0a.335.335,0,0,1,.025.111l.052-.01" transform="translate(-79.99 -114.283)" fill="#eff6fe"/>
        <path id="Trazado_602165" data-name="Trazado 602165" d="M198.143,320.784l-.019.017a.4.4,0,0,1,.028.029l-.009-.027Z" transform="translate(-172.087 -278.628)" fill="#eff6fe"/>
        <path id="Trazado_602166" data-name="Trazado 602166" d="M75.306,146.776a16.187,16.187,0,0,0,15.98,14.115c.01-.01.021-.018.031-.027-.144-.147-.339-.111-.518-.116a14.41,14.41,0,0,1-3.541-.522,15.825,15.825,0,0,1-10.675-9.2,15.654,15.654,0,0,1-1.215-7.922,15.879,15.879,0,0,1,1.859-6.021c.073-.136.193-.264.182-.429l-.1.018a15.834,15.834,0,0,0-2.006,10.109" transform="translate(-65.281 -118.691)" fill="#eff6fe"/>
        <path id="Trazado_602167" data-name="Trazado 602167" d="M91.652,135.918a.336.336,0,0,0-.025-.11c-.024.043-.046.086-.07.129l.1-.018" transform="translate(-79.524 -117.961)" fill="#eff6fe"/>
        <path id="Trazado_602168" data-name="Trazado 602168" d="M197.888,320.937h.059a.386.386,0,0,0-.028-.029.391.391,0,0,0-.031.027" transform="translate(-171.882 -278.737)" fill="#eff6fe"/>
        <path id="Trazado_602169" data-name="Trazado 602169" d="M48.639,50.547q1.831,1.815,3.648,3.645a.715.715,0,0,1,.26.429c1.778,1.77,3.561,3.534,5.329,5.313a2.08,2.08,0,0,0,1.279.657,1.528,1.528,0,0,0,1.4-1.122A1.559,1.559,0,0,0,60,57.849c-.291-.287-.567-.588-.85-.882h0l-4.509-4.5q-2.053-2.037-4.107-4.073a.453.453,0,0,1-.137-.268c-.12.066-.24-.012-.356-.1a4.054,4.054,0,0,1-.391-.373q-4.585-4.585-9.169-9.171a2.359,2.359,0,0,1-.4-.429,2,2,0,0,1-1.974,1.98,1.529,1.529,0,0,1,.243.219q4.776,4.773,9.545,9.552c.143.144.4.287.268.532.226-.093.35.085.478.211" transform="translate(-33.097 -33.052)" fill="#47568b"/>
        <path id="Trazado_602170" data-name="Trazado 602170" d="M47.559,63.419c.128-.245-.125-.388-.268-.532q-4.765-4.783-9.545-9.552a1.536,1.536,0,0,0-.243-.219c-.03,0-.06.006-.091.008.131.145.256.3.394.434q4.682,4.686,9.365,9.371c.145.145.354.252.367.5l.022-.008" transform="translate(-32.495 -46.136)" fill="#47568b"/>
        <path id="Trazado_602171" data-name="Trazado 602171" d="M53.522,37.923q4.582,4.588,9.169,9.171a4.086,4.086,0,0,0,.391.373c.116.088.236.166.356.1,0-.011,0-.021-.005-.032-.245-.014-.353-.223-.5-.367q-4.706-4.7-9.405-9.4c-.126-.126-.266-.24-.4-.36,0,.029,0,.056-.007.085a2.364,2.364,0,0,0,.4.429" transform="translate(-46.142 -32.494)" fill="#47568b"/>
        <path id="Trazado_602172" data-name="Trazado 602172" d="M39.975,37.949l-.009-.016a2.437,2.437,0,0,1-1.98,1.986l.016.01a2,2,0,0,0,1.974-1.98" transform="translate(-32.994 -32.948)" fill="#47568b"/>
        <path id="Trazado_602173" data-name="Trazado 602173" d="M37.487,53.043l-.075.017c.031,0,.06-.005.091-.008l-.016-.01" transform="translate(-32.495 -46.072)" fill="#47568b"/>
        <path id="Trazado_602174" data-name="Trazado 602174" d="M53.069,37.41c0,.024-.011.046-.016.069l.009.016c0-.028.006-.056.007-.085" transform="translate(-46.081 -32.494)" fill="#47568b"/>
        <path id="Trazado_602175" data-name="Trazado 602175" d="M118.941,135.6h0l.032.031a.715.715,0,0,0-.26-.429q-1.819-1.828-3.648-3.645c-.128-.126-.252-.3-.478-.211l-.006.01a.457.457,0,0,1,.286.137q2.035,2.055,4.074,4.106" transform="translate(-99.523 -114.062)" fill="#47568b"/>
        <path id="Trazado_602176" data-name="Trazado 602176" d="M114.484,131.516l-.022.008.016,0,.006-.01" transform="translate(-99.42 -114.233)" fill="#47568b"/>
        <path id="Trazado_602177" data-name="Trazado 602177" d="M134.8,83.893c.407.4.806.809,1.215,1.208l.041.041a9.615,9.615,0,0,1,4-1.352,2.093,2.093,0,0,1,.42.022l.011-.008-.01-.025q0-4.018,0-8.036a.143.143,0,0,1-.03.028,10.057,10.057,0,0,1-1.841.153,16.883,16.883,0,0,0-5.758,1.794c-.149.078-.289.211-.469.2l-.009.048c-.172.936-.283,1.883-.546,2.8a.338.338,0,0,1-.089.086c1.053.984,2.042,2.032,3.069,3.041" transform="translate(-114.423 -65.79)" fill="#eff6fe"/>
        <path id="Trazado_602178" data-name="Trazado 602178" d="M131.682,94.972c.264-.917.375-1.865.546-2.8,0-.016.006-.032.009-.048a.366.366,0,0,1-.113-.024h0l-.554,2.939.022.021a.342.342,0,0,0,.089-.086" transform="translate(-114.281 -79.996)" fill="#eff6fe"/>
        <path id="Trazado_602179" data-name="Trazado 602179" d="M137.111,77.472a16.881,16.881,0,0,1,5.758-1.794,10.043,10.043,0,0,0,1.841-.153.139.139,0,0,0,.03-.028v-.035a15.884,15.884,0,0,0-8.079,2.113c-.006.032-.012.064-.018.1.181.012.32-.121.469-.2" transform="translate(-118.685 -65.544)" fill="#eff6fe"/>
        <path id="Trazado_602180" data-name="Trazado 602180" d="M135.915,91.555l-.131.071a.361.361,0,0,0,.113.025c.006-.032.012-.064.018-.1" transform="translate(-117.94 -79.523)" fill="#eff6fe"/>
        <path id="Trazado_602181" data-name="Trazado 602181" d="M135.855,118.97h0l.1-.063-.041-.041c-.408-.4-.807-.808-1.215-1.208-1.027-1.009-2.016-2.057-3.069-3.041l-.016.011a.453.453,0,0,0,.137.268q2.055,2.035,4.107,4.074" transform="translate(-114.315 -99.555)" fill="#eff6fe"/>
        <path id="Trazado_602182" data-name="Trazado 602182" d="M131.593,114.481l-.022-.021c0,.011,0,.021.005.032l.016-.011" transform="translate(-114.281 -99.418)" fill="#eff6fe"/>
        <path id="Trazado_602183" data-name="Trazado 602183" d="M197.578,82.906a.971.971,0,0,1-.027.193.5.5,0,0,1-.07.16l-.011.007a8.1,8.1,0,0,1,5.63,2.418,8.016,8.016,0,0,1-4.351,13.525,5.386,5.386,0,0,1-1.316.083l-.134.006c.254.124.287.4.288.693,0,1.617,0,3.233,0,4.85,0,.653,0,1.306,0,1.96a.929.929,0,0,1-.129.609.921.921,0,0,1,.467-.079,16.039,16.039,0,0,0,1.189-31.972c-.359-.044-.721,0-1.08-.034a.937.937,0,0,1-.59-.175.092.092,0,0,1-.006.056.629.629,0,0,1,.145.486c.006,2.4.016,4.81,0,7.215" transform="translate(-171.371 -65.273)" fill="#dee6f3"/>
        <path id="Trazado_602184" data-name="Trazado 602184" d="M198.284,74.929a.937.937,0,0,0,.59.175c.359.034.721-.01,1.08.034a15.734,15.734,0,0,1,10.43,5.51,16.036,16.036,0,0,1-11.619,26.462.922.922,0,0,0-.467.079.5.5,0,0,1-.031.039,11.812,11.812,0,0,0,3.357-.32,16.062,16.062,0,0,0,12.341-19.453c-1.573-6.538-5.847-10.574-12.395-12.185a31.188,31.188,0,0,0-3.3-.375.141.141,0,0,1,.01.033" transform="translate(-172.212 -65.053)" fill="#dee6f3"/>
        <path id="Trazado_602185" data-name="Trazado 602185" d="M198.278,75.061l-.012-.013c0,.019,0,.038-.005.056l.012.013a.093.093,0,0,0,.006-.056" transform="translate(-172.206 -65.186)" fill="#dee6f3"/>
        <path id="Trazado_602186" data-name="Trazado 602186" d="M198.3,74.9h0c0,.007,0,.013,0,.02l.012.013a.139.139,0,0,0-.01-.033" transform="translate(-172.242 -65.054)" fill="#dee6f3"/>
        <path id="Trazado_602187" data-name="Trazado 602187" d="M195.2,266.412c.006-.653,0-1.306,0-1.959,0-1.617,0-3.233,0-4.85,0-.3-.034-.569-.288-.693l-.361.017c.4.06.508.274.5.685-.025,2.476-.015,4.952-.016,7.429.01-.008.021-.014.031-.021a.928.928,0,0,0,.129-.609" transform="translate(-168.987 -224.885)" fill="#dee6f3"/>
        <path id="Trazado_602188" data-name="Trazado 602188" d="M198.3,320.629c-.011.006-.021.013-.031.02v.018c.012-.012.021-.026.031-.039" transform="translate(-172.211 -278.493)" fill="#dee6f3"/>
        <path id="Trazado_602189" data-name="Trazado 602189" d="M198.317,83.628a.5.5,0,0,0,.07-.16.972.972,0,0,0,.027-.193c.021-2.4.011-4.81,0-7.215a.628.628,0,0,0-.145-.486.1.1,0,0,1-.012.022q0,4.018,0,8.036l.042,0,.011-.007" transform="translate(-172.206 -65.642)" fill="#dee6f3"/>
        <path id="Trazado_602190" data-name="Trazado 602190" d="M198.261,75.513a.1.1,0,0,0,.012-.022l-.012-.013v.035" transform="translate(-172.206 -65.559)" fill="#dee6f3"/>
        <path id="Trazado_602191" data-name="Trazado 602191" d="M146.174,176.875q0-3.125,0-6.25a2.1,2.1,0,0,1-1.335-.639q-2.492-2.495-4.986-4.987a1.065,1.065,0,0,1-.295-.383,8.312,8.312,0,0,1-.51,1.065,7.895,7.895,0,0,0,6.292,11.184,3.176,3.176,0,0,1,.444.07.756.756,0,0,1,.345-.061h.05" transform="translate(-120.112 -142.983)" fill="#fe6c6c"/>
        <path id="Trazado_602192" data-name="Trazado 602192" d="M144.872,176.3a3.172,3.172,0,0,0-.444-.07,7.895,7.895,0,0,1-6.292-11.184,8.355,8.355,0,0,0,.51-1.065.481.481,0,0,1-.024-.1h0a8.026,8.026,0,0,0,6.15,12.5h0a.321.321,0,0,1,.1-.09" transform="translate(-119.205 -142.348)" fill="#fe6c6c"/>
        <path id="Trazado_602193" data-name="Trazado 602193" d="M147.937,164.189a1.063,1.063,0,0,0,.295.383q2.493,2.494,4.986,4.987a2.1,2.1,0,0,0,1.335.639v-.1h0a2.08,2.08,0,0,1-1.279-.657c-1.768-1.779-3.552-3.544-5.329-5.313,0,.009,0,.018,0,.027s-.008.025-.011.038" transform="translate(-128.496 -142.556)" fill="#fe6c6c"/>
        <path id="Trazado_602194" data-name="Trazado 602194" d="M147.793,163.944c0-.009,0-.018,0-.027l-.032-.031a.488.488,0,0,0,.024.1c0-.013.008-.025.011-.038" transform="translate(-128.34 -142.349)" fill="#fe6c6c"/>
        <path id="Trazado_602195" data-name="Trazado 602195" d="M195.709,257.9h-.05a.757.757,0,0,0-.345.061l.04.01a.7.7,0,0,1,.221.062l.134-.006q0-.063,0-.126" transform="translate(-169.647 -224.004)" fill="#fe6c6c"/>
        <path id="Trazado_602196" data-name="Trazado 602196" d="M194.694,258.367l-.04-.01a.322.322,0,0,0-.1.09l.361-.017a.7.7,0,0,0-.221-.062" transform="translate(-168.987 -224.405)" fill="#fe6c6c"/>
        <path id="Trazado_602197" data-name="Trazado 602197" d="M198.219,142.764l.109.108c.3.3.613.588.9.9a1.656,1.656,0,0,1,.5,1.735,1.637,1.637,0,0,1-1.427,1.14,1.087,1.087,0,0,1,.085.542q.006,2.591,0,5.183a1.168,1.168,0,0,1-.071.524,7.87,7.87,0,0,0,1.14-15.643,2.74,2.74,0,0,1-1.2-.245l-.014.009,0,.009q-.011,2.867-.022,5.734" transform="translate(-172.17 -119.006)" fill="#e53950"/>
        <path id="Trazado_602198" data-name="Trazado 602198" d="M199.723,183.53a1.656,1.656,0,0,0-.5-1.735c-.284-.315-.6-.6-.9-.9l-.109-.108c0,.052,0,.1,0,.157h0c.283.295.559.6.85.883a1.559,1.559,0,0,1,.559,1.62,1.528,1.528,0,0,1-1.4,1.122h0a.538.538,0,0,1,.074.1,1.637,1.637,0,0,0,1.427-1.14" transform="translate(-172.165 -157.026)" fill="#e53950"/>
        <path id="Trazado_602199" data-name="Trazado 602199" d="M198.286,136.893h0l.01.025.014-.009-.023-.016" transform="translate(-172.228 -118.903)" fill="#e53950"/>
        <path id="Trazado_602200" data-name="Trazado 602200" d="M199.636,152.858a8.016,8.016,0,0,0,4.351-13.525,8.1,8.1,0,0,0-5.63-2.418l-.018.013a2.737,2.737,0,0,0,1.2.245,7.87,7.87,0,0,1-1.14,15.643.529.529,0,0,1-.083.125,5.392,5.392,0,0,0,1.316-.083" transform="translate(-172.258 -118.922)" fill="#e53950"/>
        <path id="Trazado_602201" data-name="Trazado 602201" d="M198.328,136.9l-.042,0,.023.016.019-.013" transform="translate(-172.228 -118.904)" fill="#e53950"/>
        <path id="Trazado_602202" data-name="Trazado 602202" d="M198.371,216.6a1.172,1.172,0,0,0,.071-.524q.006-2.591,0-5.183a1.089,1.089,0,0,0-.085-.542l-.024,0-.051-.006q0,3.125,0,6.25h.083" transform="translate(-172.225 -182.702)" fill="#e53950"/>
        <path id="Trazado_602203" data-name="Trazado 602203" d="M198.333,209.666l.024,0a.533.533,0,0,0-.074-.1v.1l.051.006" transform="translate(-172.225 -182.018)" fill="#e53950"/>
        <path id="Trazado_602204" data-name="Trazado 602204" d="M198.319,258.026a.527.527,0,0,0,.083-.125h-.083q0,.063,0,.126" transform="translate(-172.257 -224.008)" fill="#e53950"/>
        <path id="Trazado_602205" data-name="Trazado 602205" d="M165.547,138.364a1.206,1.206,0,0,1-.378.175q2.118,2.13,4.252,4.246a1.739,1.739,0,0,1-.059-.462c0-1.514,0-3.028,0-4.542a.782.782,0,0,1,.168-.64h-.015a1.716,1.716,0,0,1-.783.183,8.621,8.621,0,0,0-3.189,1.041" transform="translate(-143.463 -119.118)" fill="#fe6c6c"/>
        <path id="Trazado_602206" data-name="Trazado 602206" d="M164.068,147.748a.413.413,0,0,1-.167-.006l4.509,4.5a1.366,1.366,0,0,1-.09-.247q-2.138-2.111-4.252-4.246" transform="translate(-142.363 -128.326)" fill="#fe6c6c"/>
        <path id="Trazado_602207" data-name="Trazado 602207" d="M165.094,138.182a8.621,8.621,0,0,1,3.189-1.041,1.716,1.716,0,0,0,.783-.183,2.086,2.086,0,0,0-.42-.022,9.614,9.614,0,0,0-4,1.352l.069.069a1.206,1.206,0,0,0,.378-.175" transform="translate(-143.01 -118.936)" fill="#fe6c6c"/>
        <path id="Trazado_602208" data-name="Trazado 602208" d="M164.068,147.334l-.068-.069c-.033.021-.066.041-.1.063a.413.413,0,0,0,.167.006" transform="translate(-142.363 -127.912)" fill="#fe6c6c"/>
        <path id="Trazado_602209" data-name="Trazado 602209" d="M197.078,137.789c-.006,1.514,0,3.028,0,4.542a1.744,1.744,0,0,0,.059.462l.091.09q.011-2.867.022-5.734a.782.782,0,0,0-.168.64" transform="translate(-171.175 -119.125)" fill="#fe6c6c"/>
        <path id="Trazado_602210" data-name="Trazado 602210" d="M197.616,180.186l-.091-.091a1.347,1.347,0,0,0,.091.247h0c0-.052,0-.1,0-.157" transform="translate(-171.567 -156.428)" fill="#fe6c6c"/>
      </g>
    </g>
  </g>
</svg>
