<svg xmlns="http://www.w3.org/2000/svg" xmlns:xlink="http://www.w3.org/1999/xlink" width="85" height="85" viewBox="0 0 85 85">
  <defs>
    <clipPath id="clip-path">
      <rect id="Rectángulo_300824" data-name="Rectángulo 300824" width="56.153" height="57.769" fill="none"/>
    </clipPath>
  </defs>
  <g id="Grupo_886493" data-name="Grupo 886493" transform="translate(-671 -14229.487)">
    <g id="Elipse_6609" data-name="Elipse 6609" transform="translate(671 14229.487)" fill="#fff" stroke="#72e0fa" stroke-width="1">
      <circle cx="42.5" cy="42.5" r="42.5" stroke="none"/>
      <circle cx="42.5" cy="42.5" r="42" fill="none"/>
    </g>
    <g id="Grupo_886135" data-name="Grupo 886135" transform="translate(685 14243.487)">
      <g id="Grupo_886134" data-name="Grupo 886134" transform="translate(0)" clip-path="url(#clip-path)">
        <path id="Trazado_601711" data-name="Trazado 601711" d="M264.845,227.15a13.192,13.192,0,0,0,6.588-2.861,13.684,13.684,0,0,0,2.053-19.359,12.853,12.853,0,0,0-3.457-3.032c-.255-.149-.569-.254-.673-.581a16.455,16.455,0,0,0-4.532-1.451,15.074,15.074,0,0,0-4.468.132c-.2.039-.391.085-.586.128l0,.011a6.932,6.932,0,0,0,1.629.64,14.32,14.32,0,0,1,5.011,3.5l1.361.665c.557-.651,1.133-.727,1.532-.2.315.42.117.811-.085,1.2a9.738,9.738,0,0,1,3.616,7.44c.021.652-.309,1.041-.831,1.048s-.829-.37-.86-1.024a8.1,8.1,0,0,0-2.129-5.3c-.089.567.273,1.016.419,1.519a13.673,13.673,0,0,1-.088,8.148,14.227,14.227,0,0,1-.8,1.969,1.728,1.728,0,0,1-1.573,2.491h0a13.7,13.7,0,0,1-6.959,4.618.434.434,0,0,0-.151.074h0c.423.08.843.169,1.271.221.168.021.4-.015.417.261h2.82c.032-.31.294-.237.472-.263" transform="translate(-220.6 -169.645)" fill="#596c76"/>
        <path id="Trazado_601712" data-name="Trazado 601712" d="M300.4,214.718a14.726,14.726,0,0,0-5-4.6l-.089-.042c.1.327.418.432.674.581a12.857,12.857,0,0,1,3.457,3.032,13.7,13.7,0,0,1-8.641,22.22c-.178.026-.44-.047-.472.263.291-.213.648-.145.969-.2a13.84,13.84,0,0,0,9.106-21.247" transform="translate(-246.553 -178.399)" fill="#596c76"/>
        <path id="Trazado_601713" data-name="Trazado 601713" d="M261.094,380.168c-.428-.053-.848-.141-1.271-.221h0a.393.393,0,0,0-.1.125l1.795.359c-.019-.277-.248-.241-.417-.261" transform="translate(-220.558 -322.661)" fill="#596c76"/>
        <path id="Trazado_601714" data-name="Trazado 601714" d="M189.428,211.75a13.348,13.348,0,0,0,.209,8.508c.053.155.1.312.143.469.387.239.483.682.667,1.051A13.611,13.611,0,0,0,196.756,228a12.861,12.861,0,0,0,2.78.978c.058-.156.243-.174.389-.219a14.6,14.6,0,0,0,5.609-3.311A13.589,13.589,0,0,1,206.6,224.3l-3.258-.029h0c-1.595,0-3.189.021-4.784.006a1.682,1.682,0,0,1,0-3.364c1.595-.013,3.189,0,4.784.008,1.031,0,2.063.018,3.092-.022a1.985,1.985,0,0,1,1.789.807,19.944,19.944,0,0,0,1.1-3.381,13.556,13.556,0,0,0-.526-7.266c-.1-.286-.319-.57-.117-.9a.473.473,0,0,1,.056-.007l-.739-.765h0l-3.432,4.973a2.357,2.357,0,0,1-.1,2.642,2.2,2.2,0,0,1-2.7.712h0a2.24,2.24,0,0,1,0-4.115,2.2,2.2,0,0,1,1.432-.159q1.526-2.262,3.051-4.525c.115-.171.224-.346.335-.519h0a8.526,8.526,0,0,0-4.291-.934,8.252,8.252,0,0,0-7.867,8.025c-.019.641-.36,1.036-.876,1.014a.871.871,0,0,1-.81-1.022,9.971,9.971,0,0,1,13.211-9.195,14.641,14.641,0,0,0-6.05-3.73c-.176-.054-.492-.083-.385-.351l-.012-.008a13.611,13.611,0,0,0-10.085,9.553" transform="translate(-160.36 -171.712)" fill="#7a8b97"/>
        <path id="Trazado_601715" data-name="Trazado 601715" d="M204.883,333.353a12.86,12.86,0,0,1-2.78-.978,13.611,13.611,0,0,1-6.309-6.218c-.184-.37-.28-.813-.667-1.051l.019.066c.045.082.1.161.134.246a13.8,13.8,0,0,0,9.585,8.082.331.331,0,0,1,.018-.146" transform="translate(-165.708 -276.089)" fill="#7a8b97"/>
        <path id="Trazado_601716" data-name="Trazado 601716" d="M260.028,202.6a14.64,14.64,0,0,1,6.05,3.73c.068.021.136.04.2.062a14.32,14.32,0,0,0-5.011-3.5,6.935,6.935,0,0,1-1.629-.64c-.107.268.209.3.385.351" transform="translate(-220.478 -171.756)" fill="#7a8b97"/>
        <path id="Trazado_601717" data-name="Trazado 601717" d="M317.953,254.975c-.2.331.019.615.117.9a13.554,13.554,0,0,1,.526,7.267,19.944,19.944,0,0,1-1.1,3.381c.026.034.051.069.076.105a14.245,14.245,0,0,0,.8-1.969,13.673,13.673,0,0,0,.088-8.148c-.146-.5-.508-.951-.419-1.519l-.024-.025a.449.449,0,0,0-.056.007" transform="translate(-269.623 -216.526)" fill="#7a8b97"/>
        <path id="Trazado_601718" data-name="Trazado 601718" d="M265.836,349.958a14.6,14.6,0,0,1-5.609,3.311c-.147.045-.332.063-.389.219l.085.021a.434.434,0,0,1,.151-.074,13.7,13.7,0,0,0,6.959-4.618h-.127a13.54,13.54,0,0,0-1.069,1.142" transform="translate(-220.661 -296.225)" fill="#7a8b97"/>
        <path id="Trazado_601719" data-name="Trazado 601719" d="M259.812,379.828l-.085-.021a.331.331,0,0,0-.018.146.393.393,0,0,1,.1-.125" transform="translate(-220.551 -322.543)" fill="#7a8b97"/>
        <path id="Trazado_601720" data-name="Trazado 601720" d="M44.6,62.418a21.325,21.325,0,0,0,1.641,11.818,1.557,1.557,0,0,1,.133.394A7.679,7.679,0,0,1,49.94,71.6a3.7,3.7,0,0,1,1.177-.342,6.6,6.6,0,0,1,3.83.129h0c.274-.029.407-.255.575-.423Q62.059,64.433,68.59,57.9c.145-.145.3-.277.456-.416a21.585,21.585,0,0,1-.6-2.725,8.658,8.658,0,0,1,1.916-6.217,14.494,14.494,0,0,1,1.292-1.319A21.808,21.808,0,0,0,65.7,44.808c-.506-.12-1.02-.211-1.534-.293a.809.809,0,0,1-.284-.078l-.129.011c-.668.053-1.33.147-1.99.255A1.085,1.085,0,0,1,61.1,44.7a.429.429,0,0,1-.053-.077l-.021,0c-.312.3-.644.576-.931.9a1.017,1.017,0,0,0-.194,1.141c.735,1.843.635,1.7,2.516,1.7a2.289,2.289,0,0,1,1,.1,1.086,1.086,0,0,1,.781,1.043c-.014.977,0,1.954-.006,2.931a1.026,1.026,0,0,1-1.128,1.111c-.545.006-1.09-.008-1.634,0a1.084,1.084,0,0,0-1.094.724.816.816,0,0,1-.074.152c-.73,1.148-.386,2,.592,2.863,1.218,1.07,1.163,1.421,0,2.586-.478.478-.951.962-1.436,1.433a1.151,1.151,0,0,1-1.734.007c-.349-.342-.692-.69-1.038-1.035a1.246,1.246,0,0,0-1.536-.278c-.237.112-.484.2-.726.3a1.116,1.116,0,0,0-.8,1.2c.033.486.016.977,0,1.465A1.237,1.237,0,0,1,52.27,64.25q-1.324.015-2.649,0c-.744-.008-1.1-.348-1.21-1.124,0-.545-.005-1.089-.006-1.634a1.171,1.171,0,0,0-.776-1.184c-.294-.12-.579-.266-.879-.371a1.16,1.16,0,0,0-1.343.261l-.726.78,0,.013a.4.4,0,0,1,.06.04,3.535,3.535,0,0,1-.142,1.385" transform="translate(-37.686 -37.737)" fill="#def5fc"/>
        <path id="Trazado_601721" data-name="Trazado 601721" d="M45.336,167.489A21.324,21.324,0,0,1,43.7,155.67a3.535,3.535,0,0,0,.142-1.385.437.437,0,0,0-.06-.04c-.138.842-.276,1.681-.36,2.533a21.258,21.258,0,0,0,.592,7.449,25.4,25.4,0,0,0,1.365,3.8c.031-.048.064-.1.1-.144a1.562,1.562,0,0,0-.133-.394" transform="translate(-36.784 -130.989)" fill="#def5fc"/>
        <path id="Trazado_601722" data-name="Trazado 601722" d="M155.678,43.86c.66-.109,1.322-.2,1.99-.255l.129-.011a.312.312,0,0,1-.129-.15l-2.7.332a.437.437,0,0,0,.053.077,1.082,1.082,0,0,0,.657.007" transform="translate(-131.603 -36.894)" fill="#def5fc"/>
        <path id="Trazado_601723" data-name="Trazado 601723" d="M147.025,163.351a11.274,11.274,0,0,1,2.974.082l.087.014a26.661,26.661,0,0,0-.246-6.408l-.011-.007a9.091,9.091,0,0,1-5.148,1.265,8.588,8.588,0,0,1-2.823-.667h0q-6.9,6.9-13.791,13.8c-.066.066-.143.12-.215.179h0a13.252,13.252,0,0,1,.346,2.269,7.283,7.283,0,0,1-3.415,6.355c-.048.033-.094.069-.14.106a25.687,25.687,0,0,0,4.357,1.47,19.931,19.931,0,0,0,5.472.479,2.254,2.254,0,0,1,.728.043l.017.011a4.237,4.237,0,0,1-.61-1.666,13.813,13.813,0,0,1,2.908-12.4,13.666,13.666,0,0,1,7.018-4.466c.158-.044.326-.121.471.036l.016,0a.728.728,0,0,1,.079-.133,5.363,5.363,0,0,1,1.928-.355" transform="translate(-105.85 -133.357)" fill="#def5fc"/>
        <path id="Trazado_601724" data-name="Trazado 601724" d="M134.75,313.594a2.255,2.255,0,0,0-.728-.043,19.932,19.932,0,0,1-5.472-.479,25.694,25.694,0,0,1-4.357-1.47l-.08.063c.283.141.558.3.849.421a20.942,20.942,0,0,0,7.152,1.631c.912.041,1.817-.028,2.726-.014-.027-.032-.049-.066-.073-.1l-.017-.011" transform="translate(-105.401 -264.621)" fill="#def5fc"/>
        <path id="Trazado_601725" data-name="Trazado 601725" d="M264.773,198.7a11.274,11.274,0,0,0-2.974-.082,5.36,5.36,0,0,0-1.928.355.724.724,0,0,0-.079.133c.2-.043.39-.089.586-.128a15.078,15.078,0,0,1,4.467-.132c.005-.044.009-.087.014-.131l-.087-.014" transform="translate(-220.624 -168.619)" fill="#def5fc"/>
        <path id="Trazado_601726" data-name="Trazado 601726" d="M188.8,211.22a13.611,13.611,0,0,1,10.085-9.553c-.146-.157-.314-.08-.471-.036a13.666,13.666,0,0,0-7.018,4.466,13.813,13.813,0,0,0-2.908,12.4,4.236,4.236,0,0,0,.61,1.666c.019.01.036.023.054.034-.046-.157-.089-.315-.143-.469a13.348,13.348,0,0,1-.209-8.508" transform="translate(-159.73 -171.181)" fill="#def5fc"/>
        <path id="Trazado_601727" data-name="Trazado 601727" d="M194.823,324.916c-.018-.011-.035-.024-.054-.034.024.033.046.067.073.1l-.019-.066" transform="translate(-165.403 -275.899)" fill="#def5fc"/>
        <path id="Trazado_601728" data-name="Trazado 601728" d="M7.814,29.858a1.681,1.681,0,0,1,2.026-1.212c.054.016.106.038.159.058,1.574.6,1.695.781,1.7,2.477,0,.25,0,.5,0,.749a14.024,14.024,0,0,0,3.851-2.644,12.713,12.713,0,0,0,2.633-3.7l-.006-.009a13.233,13.233,0,0,1-2.284,1.015,6.772,6.772,0,0,1-6.423-1.569A6.528,6.528,0,0,1,7.15,19.636a6.644,6.644,0,0,1,3.87-6,6.73,6.73,0,0,1,6.8.336,1.46,1.46,0,0,0,.258.1,5.948,5.948,0,0,0-1.206-2.128,13.415,13.415,0,0,0-5.01-4.08,1.636,1.636,0,0,0-.175-.067c-.006.493,0,.986,0,1.479a1.416,1.416,0,0,1-.879,1.38c-1.538.738-1.8.7-3-.5-1.158-1.157-1.42-1.156-2.6.024-.412.412-.838.81-1.229,1.242A1.085,1.085,0,0,0,4,13.139c.312.325.635.64.953.96a1.325,1.325,0,0,1,.4,1.182,4.519,4.519,0,0,1-.666,1.662,1.025,1.025,0,0,1-.933.427c-.488.01-.978-.023-1.465.018-.957.081-1.305.453-1.315,1.4-.008.751-.012,1.5,0,2.254A1.107,1.107,0,0,0,2.2,22.261c.47.012.939-.006,1.409.009a1.345,1.345,0,0,1,1.279.855c.129.292.265.582.373.882a1.369,1.369,0,0,1-.294,1.514c-.338.353-.7.685-1.029,1.043A1.059,1.059,0,0,0,3.952,28.2c.573.6,1.159,1.179,1.752,1.754a1.083,1.083,0,0,0,1.646.1c.133-.1.252-.3.452-.194Z" transform="translate(-0.819 -6.615)" fill="#c4d2dc"/>
        <path id="Trazado_601729" data-name="Trazado 601729" d="M6.532,29.794a1.083,1.083,0,0,1-1.646-.1c-.593-.575-1.18-1.158-1.753-1.754A1.059,1.059,0,0,1,3.12,26.3c.332-.359.691-.691,1.029-1.043a1.37,1.37,0,0,0,.294-1.514c-.108-.3-.244-.59-.373-.882a1.345,1.345,0,0,0-1.279-.855c-.47-.016-.939,0-1.409-.009a1.107,1.107,0,0,1-1.228-1.22c-.013-.751-.009-1.5,0-2.254.01-.946.358-1.319,1.315-1.4.487-.041.977-.007,1.465-.018a1.025,1.025,0,0,0,.933-.427,4.516,4.516,0,0,0,.666-1.662,1.325,1.325,0,0,0-.4-1.182c-.318-.319-.641-.634-.953-.96a1.085,1.085,0,0,1-.024-1.725c.39-.432.817-.83,1.229-1.242,1.179-1.179,1.441-1.181,2.6-.024,1.2,1.2,1.464,1.237,3,.5A1.416,1.416,0,0,0,10.867,9c0-.493,0-.986,0-1.479-.047-.016-.094-.03-.141-.047a4.176,4.176,0,0,0-.007.675,1.909,1.909,0,0,1-1.542,2.431c-.686.185-1.016.233-1.534-.259-.4-.375-.766-.775-1.161-1.15a.937.937,0,0,0-1.363-.1,14.313,14.313,0,0,0-2.316,2.287,1.041,1.041,0,0,0,.081,1.431c.293.317.607.614.912.92a1.424,1.424,0,0,1,.375,2c-.084.188-.164.377-.237.57a.947.947,0,0,1-.985.681c-.488-.009-.977-.014-1.465,0C.423,17,0,17.446,0,18.508,0,19.3,0,20.086,0,20.875A1.18,1.18,0,0,0,1.26,22.147c.338,0,.676,0,1.014,0A1.97,1.97,0,0,1,4.406,24.2a1.146,1.146,0,0,1-.361.962c-.382.361-.752.735-1.115,1.116a1.133,1.133,0,0,0-.011,1.659c.653.675,1.33,1.326,1.987,2a1.238,1.238,0,0,0,.913.348c.552.021.787-.441,1.165-.684-.2-.1-.319.1-.452.194" transform="translate(0 -6.35)" fill="#c4d2dc"/>
        <path id="Trazado_601730" data-name="Trazado 601730" d="M50.274,148.33c0-1.7-.122-1.873-1.7-2.477-.052-.02-.1-.042-.159-.058a1.681,1.681,0,0,0-2.026,1.212l.726-.78a1.16,1.16,0,0,1,1.343-.261c.3.105.584.251.879.371a1.171,1.171,0,0,1,.776,1.184c0,.545,0,1.089.006,1.634.052-.024.1-.05.154-.075-.005-.25,0-.5,0-.749" transform="translate(-39.399 -123.765)" fill="#c4d2dc"/>
        <path id="Trazado_601731" data-name="Trazado 601731" d="M84.859,7.217a1,1,0,0,0-.115-1.5q-.9-.933-1.833-1.833a.991.991,0,0,0-1.542-.044,13.264,13.264,0,0,0-1.044,1.027,1.335,1.335,0,0,1-1.628.343c-1.58-.632-1.641-.694-1.642-2.378,0-.15,0-.3,0-.451-.017-1.02-.389-1.394-1.4-1.4-.808,0-1.616-.014-2.423,0a.919.919,0,0,0-1.052.91.715.715,0,0,1,.37.127,13.316,13.316,0,0,1,5.953,5.7c.1.181.238.369.065.567a10.557,10.557,0,0,1,2.075,2.322,6.956,6.956,0,0,1-1.832,9,.938.938,0,0,0-.142.171l-.008.016c.147.218-.047.4-.138.575a12.882,12.882,0,0,1-4.133,4.655,11.183,11.183,0,0,1-1.79,1.048,1.349,1.349,0,0,1-.409.167c.157.681.429.922,1.12.942q1.239.036,2.48,0a1.155,1.155,0,0,0,1.257-1.275c.019-.45,0-.9.007-1.353A1.524,1.524,0,0,1,77.128,24a2.471,2.471,0,0,1,3.113-.851c.4.316.727.706,1.094,1.056a1.055,1.055,0,0,0,1.636.017c.6-.566,1.19-1.149,1.752-1.754.586-.631.562-1.073-.045-1.7-.326-.338-.677-.652-.984-1.008a1.415,1.415,0,0,1-.268-1.567c.645-1.629.758-1.718,2.515-1.718,1.575,0,1.713-.137,1.713-1.695,0-.658.007-1.315,0-1.973a1.091,1.091,0,0,0-1.127-1.2c-.487-.039-.977-.016-1.465-.014a1.312,1.312,0,0,1-1.313-.877c-.109-.26-.216-.52-.316-.784A1.713,1.713,0,0,1,84.64,7.712h0l.013-.016c-.1-.2.112-.332.206-.479" transform="translate(-61.296 -0.828)" fill="#b5c3ce"/>
        <path id="Trazado_601732" data-name="Trazado 601732" d="M71.322,1.067a.919.919,0,0,1,1.052-.91C73.182.139,73.99.15,74.8.153c1.011,0,1.383.378,1.4,1.4,0,.15,0,.3,0,.451,0,1.683.062,1.745,1.642,2.378a1.335,1.335,0,0,0,1.628-.343,13.239,13.239,0,0,1,1.044-1.027.991.991,0,0,1,1.542.044q.935.9,1.833,1.833A1,1,0,0,1,84,6.39c-.095.146-.3.277-.207.478.053-.068.1-.139.162-.2.694-.749.685-1.242-.043-1.973q-.875-.878-1.755-1.753a1.112,1.112,0,0,0-1.769-.031c-.383.36-.751.737-1.118,1.114a.9.9,0,0,1-1.056.329c-.66-.326-1.567-.3-1.854-1.2a1.342,1.342,0,0,1-.022-.392c0-.489.008-.977,0-1.466A1.188,1.188,0,0,0,75.041,0C74.12,0,73.2,0,72.279.005A1.025,1.025,0,0,0,71.17,1.128h0a.305.305,0,0,1,.152-.06" transform="translate(-60.44 0)" fill="#b5c3ce"/>
        <path id="Trazado_601733" data-name="Trazado 601733" d="M82.544,47.877c.1.264.206.525.316.784a1.312,1.312,0,0,0,1.313.877c.488,0,.978-.025,1.465.014a1.091,1.091,0,0,1,1.127,1.2c.01.657,0,1.315,0,1.973,0,1.558-.138,1.695-1.713,1.695-1.758,0-1.87.089-2.516,1.718a1.415,1.415,0,0,0,.268,1.567c.307.356.658.67.984,1.008.608.63.631,1.073.045,1.7-.563.605-1.151,1.188-1.752,1.754a1.055,1.055,0,0,1-1.636-.017c-.367-.35-.7-.74-1.094-1.056a2.471,2.471,0,0,0-3.113.851,1.527,1.527,0,0,0-.076.555c-.006.451.012.9-.007,1.353A1.155,1.155,0,0,1,74.9,65.133q-1.239.035-2.479,0c-.691-.02-.962-.261-1.12-.942a.375.375,0,0,1-.169-.024c.111.776.466,1.115,1.21,1.124q1.324.015,2.649,0A1.237,1.237,0,0,0,76.309,64c.013-.488.029-.979,0-1.465a1.115,1.115,0,0,1,.8-1.2c.243-.1.489-.19.726-.3a1.246,1.246,0,0,1,1.537.278c.346.345.688.693,1.038,1.035a1.151,1.151,0,0,0,1.734-.007c.485-.471.958-.955,1.436-1.433,1.165-1.165,1.22-1.516,0-2.586-.978-.859-1.322-1.715-.592-2.863a.815.815,0,0,0,.074-.152,1.084,1.084,0,0,1,1.094-.724c.544-.013,1.089,0,1.634,0a1.026,1.026,0,0,0,1.128-1.111c.008-.977-.008-1.954.006-2.931a1.086,1.086,0,0,0-.781-1.043,2.287,2.287,0,0,0-1-.1c-1.881,0-1.781.147-2.517-1.7a1.017,1.017,0,0,1,.195-1.141c.286-.32.618-.6.931-.9a1.714,1.714,0,0,0-1.208,2.215" transform="translate(-60.408 -38.777)" fill="#b5c3ce"/>
        <path id="Trazado_601734" data-name="Trazado 601734" d="M78.437,12.891a13.316,13.316,0,0,0-5.953-5.7.716.716,0,0,0-.37-.127c0,.022-.008.042-.011.065s0,.028,0,.043a1.636,1.636,0,0,1,.175.067,13.418,13.418,0,0,1,5.01,4.08,5.952,5.952,0,0,1,1.206,2.128l.008.008c.173-.2.033-.386-.065-.567" transform="translate(-61.232 -6.002)" fill="#b5c3ce"/>
        <path id="Trazado_601735" data-name="Trazado 601735" d="M72.17,132.261a1.349,1.349,0,0,0,.408-.167,11.17,11.17,0,0,0,1.79-1.048,12.883,12.883,0,0,0,4.133-4.655c.09-.171.284-.357.138-.575a12.716,12.716,0,0,1-2.633,3.7,14.019,14.019,0,0,1-3.851,2.643c0,.013,0,.026,0,.039s.009.04.014.06" transform="translate(-61.277 -106.847)" fill="#b5c3ce"/>
        <path id="Trazado_601736" data-name="Trazado 601736" d="M71.312,7.142c0-.022.007-.043.011-.065a.307.307,0,0,0-.152.06c.046.017.094.032.141.047,0-.014,0-.028,0-.043" transform="translate(-60.44 -6.01)" fill="#b5c3ce"/>
        <path id="Trazado_601737" data-name="Trazado 601737" d="M71.3,168c0-.02-.009-.039-.014-.06s0-.026,0-.039c-.052.025-.1.051-.154.075A.373.373,0,0,0,71.3,168" transform="translate(-60.408 -142.587)" fill="#b5c3ce"/>
        <path id="Trazado_601738" data-name="Trazado 601738" d="M207.908,53.4c.011.218-.147.329-.285.456a8.507,8.507,0,0,0-2.777,5.424,8.373,8.373,0,0,0,.4,3.646,1.381,1.381,0,0,1,.126.655.638.638,0,0,1-.031.088h.05c.386.02.558.372.821.566a8.7,8.7,0,0,0,12.454-2.181,7.624,7.624,0,0,0,1.386-4.326c-.286.268-.557.552-.839.824-.144.138-.272.311-.506.3l-.009-.009q-1.411,1.509-2.92,2.919a.219.219,0,0,1-.025.05c-.918,1.043-1.488,1.454-2.716.1-.589-.652-1.243-1.244-1.857-1.873a1.094,1.094,0,0,1,.014-1.793c.382-.384.777-.755,1.166-1.132l2.344-2.344a.38.38,0,0,1,0-.093,6.474,6.474,0,0,1,1.24-1.369c.674-.712.6-1.043-.368-1.285a8.8,8.8,0,0,0-4.728.045,1.766,1.766,0,0,1-.767.152l-.079-.03a13.206,13.206,0,0,0-2.1,1.207l0,.009" transform="translate(-173.915 -43.916)" fill="#fed05b"/>
        <path id="Trazado_601739" data-name="Trazado 601739" d="M297.027,91.768c.234.011.362-.162.506-.3.283-.272.553-.556.839-.824,0-.055,0-.11,0-.166h0l-1.338,1.263-.016.017.009.009" transform="translate(-252.236 -76.837)" fill="#fed05b"/>
        <path id="Trazado_601740" data-name="Trazado 601740" d="M239.412,51.327a1.768,1.768,0,0,0,.767-.152,8.8,8.8,0,0,1,4.728-.045c.967.243,1.041.573.368,1.285a6.478,6.478,0,0,0-1.24,1.369.381.381,0,0,0,0,.093l.034-.034h0c.483-.5.965-.994,1.451-1.487.632-.642.539-1.04-.333-1.3a8.974,8.974,0,0,0-5.729.186l-.126.056.079.03" transform="translate(-203.249 -43.033)" fill="#fed05b"/>
        <path id="Trazado_601741" data-name="Trazado 601741" d="M204.528,73.1a.639.639,0,0,0,.031-.088,1.38,1.38,0,0,0-.126-.655,8.371,8.371,0,0,1-.4-3.646,8.507,8.507,0,0,1,2.777-5.424c.137-.127.3-.238.285-.456l0-.009-.02.014h0a14.491,14.491,0,0,0-1.291,1.319,8.657,8.657,0,0,0-1.916,6.217,21.587,21.587,0,0,0,.6,2.725h.064" transform="translate(-173.104 -53.349)" fill="#fed05b"/>
        <path id="Trazado_601742" data-name="Trazado 601742" d="M62.291,232.527a4.832,4.832,0,0,1-2.381,1.412,4.065,4.065,0,1,1-1.633-7.964,4,4,0,0,1,3.635,1.148c.119.118.254.219.382.327a6.13,6.13,0,0,0-1.992-3.025,9.182,9.182,0,0,0-2.645-1.5l-.1.026a7.013,7.013,0,0,0-4.484,2.968c-.109.152-.169.36-.368.417a2.183,2.183,0,0,1-.24.7,7.054,7.054,0,0,0,1.4,7.924A6.5,6.5,0,0,0,57.549,237l.141.02a9.07,9.07,0,0,0,2.258-1.23,6.472,6.472,0,0,0,2.343-3.261" transform="translate(-44.017 -189.314)" fill="#fed05b"/>
        <path id="Trazado_601743" data-name="Trazado 601743" d="M56.761,256.212a6.5,6.5,0,0,1-3.678-2.037,7.054,7.054,0,0,1-1.4-7.923,2.183,2.183,0,0,0,.24-.7.389.389,0,0,1-.1.016,8.269,8.269,0,0,0-.91,3.274,7.355,7.355,0,0,0,5.755,7.509c.079-.04.158-.079.238-.117l-.141-.02" transform="translate(-43.23 -208.529)" fill="#fed05b"/>
        <path id="Trazado_601744" data-name="Trazado 601744" d="M57.979,225.409a7.013,7.013,0,0,1,4.484-2.968l.1-.026-.21-.09a3.7,3.7,0,0,0-1.177.342A7.679,7.679,0,0,0,57.6,225.7c0,.011,0,.021.006.032a.744.744,0,0,1,0,.1c.2-.057.258-.266.368-.417" transform="translate(-48.92 -188.804)" fill="#fed05b"/>
        <path id="Trazado_601745" data-name="Trazado 601745" d="M57.073,244.731c0-.011,0-.021-.006-.031-.032.048-.064.1-.1.144a.4.4,0,0,0,.1-.016.748.748,0,0,0,0-.1" transform="translate(-48.382 -207.806)" fill="#fed05b"/>
        <path id="Trazado_601746" data-name="Trazado 601746" d="M223.808,88.693a8.835,8.835,0,0,1-7.9,7.831,8.7,8.7,0,0,1-6.737-2.216.642.642,0,0,0-.114-.076,6.3,6.3,0,0,0,1.543,2.317c.156.157.3.328.446.493h0a10.233,10.233,0,0,0,2.435,1.563.568.568,0,0,1,.168-.04,11.408,11.408,0,0,0,3.3.592A9.2,9.2,0,0,0,220.9,98.2c.192-.093.384-.3.615-.162l.009-.005a9.494,9.494,0,0,0,3.428-4.072l-.006-.022a1.509,1.509,0,0,1,.116-.824,8.3,8.3,0,0,0,.156-4.337c-.03-.128-.057-.257-.094-.383-.292-.994-.568-1.072-1.3-.368l-.076.071a.918.918,0,0,1,.059.594" transform="translate(-177.537 -74.362)" fill="#fec244"/>
        <path id="Trazado_601747" data-name="Trazado 601747" d="M306.153,86.7c.734-.7,1.01-.626,1.3.368.037.126.064.255.094.383a8.3,8.3,0,0,1-.156,4.337,1.509,1.509,0,0,0-.116.824l.006.022c.015-.033.031-.066.045-.1h0c.065-.214.127-.428.194-.642a8.508,8.508,0,0,0-.062-5.329c-.215-.645-.638-.738-1.128-.263-.119.116-.22.25-.329.376a.491.491,0,0,1,.075.1l.076-.071" transform="translate(-259.866 -73.034)" fill="#fec244"/>
        <path id="Trazado_601748" data-name="Trazado 601748" d="M245.819,156.943a9.2,9.2,0,0,1-3.951.956,11.41,11.41,0,0,1-3.3-.592.57.57,0,0,0-.168.04l.065.032h0a8.592,8.592,0,0,0,2.823.667,9.089,9.089,0,0,0,5.148-1.265c-.231-.134-.423.069-.615.162" transform="translate(-202.455 -133.106)" fill="#fec244"/>
        <path id="Trazado_601749" data-name="Trazado 601749" d="M214.081,99.382a8.434,8.434,0,0,1-4.5-1.694c-.263-.194-.435-.546-.821-.566.014.041.03.081.045.121a.648.648,0,0,1,.114.076,8.7,8.7,0,0,0,6.737,2.216,8.835,8.835,0,0,0,7.9-7.831.919.919,0,0,0-.059-.594l-.076.071a7.622,7.622,0,0,1-1.386,4.326,8.367,8.367,0,0,1-7.951,3.875" transform="translate(-177.283 -77.373)" fill="#fec244"/>
        <path id="Trazado_601750" data-name="Trazado 601750" d="M306,90.645l.076-.071a.492.492,0,0,0-.075-.1c0,.055,0,.111,0,.166" transform="translate(-259.862 -76.837)" fill="#fec244"/>
        <path id="Trazado_601751" data-name="Trazado 601751" d="M96.51,234.966a7.1,7.1,0,0,0,2.842-7.676,1.392,1.392,0,0,1-.067-.553.654.654,0,0,1,.062-.144,12.011,12.011,0,0,0-1.439-2.415,8.526,8.526,0,0,0-2.353-1.745c-.256-.107-.512-.212-.769-.317a.729.729,0,0,1-.27.04,7.5,7.5,0,0,0-3.4-.166,6.637,6.637,0,0,1,3.254,2.022,6.242,6.242,0,0,1,1.248,1.925c.083.2.215.4.044.617a5.354,5.354,0,0,1,.8,2.583,5.575,5.575,0,0,1-.8,2.48c.186.2.065.4-.027.584a7.232,7.232,0,0,1-4.451,3.924,7.213,7.213,0,0,0,4.191-.532,1.444,1.444,0,0,1,.738-.234c.053-.2.259-.278.409-.393" transform="translate(-77.375 -188.405)" fill="#fec244"/>
        <path id="Trazado_601752" data-name="Trazado 601752" d="M94.4,311.416a1.444,1.444,0,0,0-.738.234,7.214,7.214,0,0,1-4.191.532c-.119.035-.239.069-.362.1.258.044.514.1.774.131a7.8,7.8,0,0,0,4.5-.906.407.407,0,0,1,.013-.09" transform="translate(-75.674 -264.461)" fill="#fec244"/>
        <path id="Trazado_601753" data-name="Trazado 601753" d="M92.788,221.253a.732.732,0,0,0,.27-.04l-.149-.061h0a6.6,6.6,0,0,0-3.83-.129c.1.019.206.041.307.065a7.5,7.5,0,0,1,3.4.166" transform="translate(-75.648 -187.502)" fill="#fec244"/>
        <path id="Trazado_601754" data-name="Trazado 601754" d="M127.822,255.616a13.271,13.271,0,0,0-.346-2.269l-.031-.063a.655.655,0,0,0-.062.144,1.392,1.392,0,0,0,.067.553,7.1,7.1,0,0,1-2.842,7.676c-.15.115-.356.189-.409.393h0l.063.026c.046-.037.092-.073.14-.106a7.283,7.283,0,0,0,3.415-6.355" transform="translate(-105.474 -215.096)" fill="#fec244"/>
        <path id="Trazado_601755" data-name="Trazado 601755" d="M124.13,311.428h0a.41.41,0,0,0-.013.09l.08-.063-.063-.026" transform="translate(-105.401 -264.473)" fill="#fec244"/>
        <path id="Trazado_601756" data-name="Trazado 601756" d="M95.261,287.193c.093-.182.213-.388.027-.584h0a6.47,6.47,0,0,1-2.343,3.26,9.06,9.06,0,0,1-2.258,1.23l.124.018a7.232,7.232,0,0,0,4.451-3.924" transform="translate(-77.013 -243.397)" fill="#fec244"/>
        <path id="Trazado_601757" data-name="Trazado 601757" d="M93.119,224.282a6.133,6.133,0,0,1,1.992,3.025l.006.012c.171-.217.039-.417-.044-.617a6.244,6.244,0,0,0-1.249-1.925,6.64,6.64,0,0,0-3.254-2.022l-.1.025a9.191,9.191,0,0,1,2.645,1.5" transform="translate(-76.833 -189.17)" fill="#fec244"/>
        <path id="Trazado_601758" data-name="Trazado 601758" d="M89.347,316.394c-.08.038-.159.076-.238.117.123-.03.243-.064.362-.1l-.124-.018" transform="translate(-75.674 -268.691)" fill="#fec244"/>
        <path id="Trazado_601759" data-name="Trazado 601759" d="M89.385,222.39c-.1-.024-.2-.046-.307-.065l.21.09.1-.026" transform="translate(-75.648 -188.805)" fill="#fec244"/>
        <path id="Trazado_601760" data-name="Trazado 601760" d="M292.359,134.111a1.013,1.013,0,0,1-.6.283l0,.012a.508.508,0,0,1,.08.061,12.768,12.768,0,0,1,.417,3.1,11.66,11.66,0,0,1-.082,2.856,1.377,1.377,0,0,1-.1.4,13.617,13.617,0,0,1,3.949,1.194,1.859,1.859,0,0,1,.484.3,37.891,37.891,0,0,0,.289-4.063,21.621,21.621,0,0,0-1.329-7.108c-.095-.256-.192-.51-.269-.771a4.612,4.612,0,0,1-.884,1.739,8.038,8.038,0,0,1-1.963,1.991" transform="translate(-247.772 -110.723)" fill="#c7eefd"/>
        <path id="Trazado_601761" data-name="Trazado 601761" d="M314.883,130.26a21.613,21.613,0,0,1,1.329,7.107,37.918,37.918,0,0,1-.29,4.063.848.848,0,0,1,.1.114,19.5,19.5,0,0,0,.335-2.83,20.971,20.971,0,0,0-.441-5.463,16.056,16.056,0,0,0-1.276-3.922h0c-.006.054-.018.106-.028.158.076.261.174.516.269.771" transform="translate(-267.179 -109.831)" fill="#c7eefd"/>
        <path id="Trazado_601762" data-name="Trazado 601762" d="M297.83,201.157a1.856,1.856,0,0,0-.484-.3,13.608,13.608,0,0,0-3.949-1.194.455.455,0,0,1-.088.119,16.455,16.455,0,0,1,4.532,1.451c0-.014-.011-.026-.015-.041l0-.032" transform="translate(-249.087 -169.557)" fill="#c7eefd"/>
        <path id="Trazado_601763" data-name="Trazado 601763" d="M323.275,209.589l0,.032c0,.015.01.027.015.041l.089.042a.827.827,0,0,0-.1-.114" transform="translate(-274.532 -177.989)" fill="#c7eefd"/>
        <path id="Trazado_601764" data-name="Trazado 601764" d="M292.269,160.246a12.766,12.766,0,0,0-.417-3.1.5.5,0,0,0-.08-.061,26.669,26.669,0,0,1,.246,6.408l.074.012a1.377,1.377,0,0,0,.1-.4,11.658,11.658,0,0,0,.082-2.856" transform="translate(-247.781 -133.397)" fill="#c7eefd"/>
        <path id="Trazado_601765" data-name="Trazado 601765" d="M293.324,199.579c0,.044-.009.087-.014.131a.451.451,0,0,0,.088-.119l-.074-.012" transform="translate(-249.087 -169.488)" fill="#c7eefd"/>
        <path id="Trazado_601766" data-name="Trazado 601766" d="M291.761,134.065a1.012,1.012,0,0,0,.6-.283,8.042,8.042,0,0,0,1.963-1.991,4.613,4.613,0,0,0,.884-1.739c-.006-.019-.012-.039-.017-.059a9.494,9.494,0,0,1-3.428,4.072" transform="translate(-247.772 -110.394)" fill="#c7eefd"/>
        <path id="Trazado_601767" data-name="Trazado 601767" d="M314.514,129.488c.01-.053.021-.1.028-.158-.015.034-.03.066-.045.1.005.02.012.039.017.059" transform="translate(-267.08 -109.831)" fill="#c7eefd"/>
        <path id="Trazado_601768" data-name="Trazado 601768" d="M257.519,72.743c-.637.642-1.282,1.277-1.915,1.924a14.779,14.779,0,0,1,2.426,3.02c.313.46.567.96.841,1.446.829-.809,1.638-1.639,2.463-2.452.15-.147.274-.337.5-.378-.771-.852-1.55-1.7-2.37-2.5-.415-.408-.861-.778-1.291-1.167-.114-.1-.263-.19-.311-.343a1.218,1.218,0,0,1-.348.451" transform="translate(-217.066 -61.392)" fill="#c7eefd"/>
        <path id="Trazado_601769" data-name="Trazado 601769" d="M270.921,72.135c.43.389.876.759,1.291,1.167.82.806,1.6,1.65,2.37,2.5l.027-.006c-.114-.17-.215-.352-.344-.509a29.024,29.024,0,0,0-3.632-3.585h0a.565.565,0,0,1-.021.089c.047.153.2.239.311.343" transform="translate(-229.81 -60.892)" fill="#c7eefd"/>
        <path id="Trazado_601770" data-name="Trazado 601770" d="M255.07,74.361c.632-.647,1.277-1.282,1.915-1.924a1.221,1.221,0,0,0,.348-.451.32.32,0,0,1-.013-.054l-2.344,2.345c.033.027.063.057.095.085" transform="translate(-216.532 -61.087)" fill="#c7eefd"/>
        <path id="Trazado_601771" data-name="Trazado 601771" d="M279.737,99.273c-.826.813-1.634,1.643-2.463,2.452l.056.1h0q1.511-1.409,2.92-2.919l-.01-.011c-.229.041-.354.231-.5.378" transform="translate(-235.469 -83.984)" fill="#c7eefd"/>
        <path id="Trazado_601772" data-name="Trazado 601772" d="M270.537,71.793a.565.565,0,0,0,.021-.089l-.034.034a.323.323,0,0,0,.013.054" transform="translate(-229.737 -60.893)" fill="#c7eefd"/>
        <path id="Trazado_601773" data-name="Trazado 601773" d="M296.959,98.874l.016-.017-.027.006.01.011" transform="translate(-252.178 -83.952)" fill="#c7eefd"/>
        <path id="Trazado_601774" data-name="Trazado 601774" d="M183.1,46.319a1.047,1.047,0,0,1,.5.408,3.688,3.688,0,0,1,2.049-1.221,21.436,21.436,0,0,0-9.47-1.577c.382.064.772.086,1.152.174a21.393,21.393,0,0,1,5.765,2.217" transform="translate(-149.623 -37.26)" fill="#c7eefd"/>
        <path id="Trazado_601775" data-name="Trazado 601775" d="M173.376,42.859a21.437,21.437,0,0,1,9.47,1.577c.059-.013.116-.027.176-.037a3.893,3.893,0,0,0-.441-.24,23.275,23.275,0,0,0-7.524-1.537,19.163,19.163,0,0,0-2.18.119h0a3.339,3.339,0,0,0,.5.118" transform="translate(-146.812 -36.191)" fill="#c7eefd"/>
        <path id="Trazado_601776" data-name="Trazado 601776" d="M181.022,46.618a21.393,21.393,0,0,0-5.765-2.217c-.38-.087-.77-.109-1.152-.174q-.185.014-.37.032a.806.806,0,0,0,.284.078c.514.082,1.028.173,1.534.293a21.8,21.8,0,0,1,5.955,2.414h0l.018-.019a1.047,1.047,0,0,0-.5-.408" transform="translate(-147.541 -37.56)" fill="#c7eefd"/>
        <path id="Trazado_601777" data-name="Trazado 601777" d="M173.006,43.594c.124-.012.247-.022.37-.032a3.338,3.338,0,0,1-.5-.118h0a.312.312,0,0,0,.129.15" transform="translate(-146.812 -36.894)" fill="#c7eefd"/>
        <path id="Trazado_601778" data-name="Trazado 601778" d="M225.411,55.907l0,.005a13.213,13.213,0,0,1,2.1-1.207l-.05-.019a3.689,3.689,0,0,0-2.049,1.221" transform="translate(-191.426 -46.441)" fill="#c7eefd"/>
        <path id="Trazado_601779" data-name="Trazado 601779" d="M239.049,54.5l.126-.056c-.06.01-.118.024-.176.037l.05.019" transform="translate(-202.965 -46.235)" fill="#c7eefd"/>
        <path id="Trazado_601780" data-name="Trazado 601780" d="M225.312,62.787l-.018.019.02-.014,0-.005" transform="translate(-191.326 -53.321)" fill="#c7eefd"/>
        <path id="Trazado_601781" data-name="Trazado 601781" d="M228.419,227.2a9.781,9.781,0,0,0-12.455,7.591,11.317,11.317,0,0,0-.17,1.4c-.034.617.223.991.651,1.011s.683-.316.731-.947a8.458,8.458,0,0,1,2.576-5.722,8.081,8.081,0,0,1,5.637-2.329,8.254,8.254,0,0,1,3.868.833.9.9,0,0,1,.23.161.307.307,0,0,1,.029.046l.874-1.3a6.443,6.443,0,0,1-1.4-.636l-.025-.024c-.19.076-.372-.033-.552-.085" transform="translate(-183.256 -192.593)" fill="#c4d2dc"/>
        <path id="Trazado_601782" data-name="Trazado 601782" d="M303.23,229.8a6.449,6.449,0,0,0,1.4.636l.03-.045-1.361-.665a.409.409,0,0,1-.091.05l.025.024" transform="translate(-257.49 -195.093)" fill="#c4d2dc"/>
        <path id="Trazado_601783" data-name="Trazado 601783" d="M228.687,228.3a.3.3,0,0,0-.029-.046.9.9,0,0,0-.23-.161,8.251,8.251,0,0,0-3.868-.833,8.08,8.08,0,0,0-5.637,2.329,8.457,8.457,0,0,0-2.576,5.722c-.048.631-.3.967-.732.947s-.685-.394-.651-1.011a11.314,11.314,0,0,1,.17-1.4,9.781,9.781,0,0,1,12.455-7.591c.18.052.362.161.552.084l-.114-.112a9.971,9.971,0,0,0-13.211,9.195.871.871,0,0,0,.81,1.022c.515.022.857-.373.876-1.014a8.252,8.252,0,0,1,7.867-8.025,8.526,8.526,0,0,1,4.291.934h0Z" transform="translate(-182.425 -191.66)" fill="#c4d2dc"/>
        <path id="Trazado_601784" data-name="Trazado 601784" d="M302.449,229.316l.114.112a.4.4,0,0,0,.091-.05c-.068-.022-.136-.041-.2-.062" transform="translate(-256.848 -194.742)" fill="#c4d2dc"/>
        <path id="Trazado_601785" data-name="Trazado 601785" d="M316.8,243.23c.256-.019.376.192.505.364a8.839,8.839,0,0,1,1.779,4.784c.047.693.276,1.031.712,1.023.461-.008.723-.379.683-1.095a9.558,9.558,0,0,0-2.535-6.11,9.859,9.859,0,0,1-.961-1.023c0-.009-.006-.017-.009-.025l-.925,1.314a.975.975,0,0,1,.752.768" transform="translate(-268.395 -204.79)" fill="#c4d2dc"/>
        <path id="Trazado_601786" data-name="Trazado 601786" d="M321.212,240.868a9.886,9.886,0,0,0,.961,1.023,9.557,9.557,0,0,1,2.535,6.11c.039.716-.222,1.087-.683,1.095-.436.008-.665-.33-.712-1.023a8.839,8.839,0,0,0-1.779-4.784c-.129-.172-.249-.384-.505-.364,0,.009.006.017.008.027a8.1,8.1,0,0,1,2.129,5.3c.031.654.338,1.031.86,1.024s.852-.4.831-1.048a9.738,9.738,0,0,0-3.616-7.44l-.038.054c0,.009,0,.017.009.025" transform="translate(-272.628 -204.485)" fill="#c4d2dc"/>
        <path id="Trazado_601787" data-name="Trazado 601787" d="M316.025,249.861l0,0h0l.738.765.017,0a.976.976,0,0,0-.752-.768" transform="translate(-268.375 -212.189)" fill="#c4d2dc"/>
        <path id="Trazado_601788" data-name="Trazado 601788" d="M320.921,254.958l.024.025c0-.009-.005-.018-.008-.027l-.016,0" transform="translate(-272.535 -216.516)" fill="#c4d2dc"/>
        <path id="Trazado_601789" data-name="Trazado 601789" d="M287.906,233.322a.354.354,0,0,1-.085.35c-1.084,1.588-2.122,3.208-3.285,4.741a3.727,3.727,0,0,1,1.248.842,1.615,1.615,0,0,1,.281-.494c.937-1.338,1.854-2.69,2.77-4.043a.991.991,0,0,1,.386-.4c.022,0,.043.012.064.017A1.984,1.984,0,0,1,290.2,233a.726.726,0,0,1,.074-.434.674.674,0,0,0-.283-.874.663.663,0,0,0-.865.122.611.611,0,0,1-.319.213l-.017-.006a1.948,1.948,0,0,1-.888,1.3" transform="translate(-241.637 -196.663)" fill="#fd646f"/>
        <path id="Trazado_601790" data-name="Trazado 601790" d="M312.79,231.119a.612.612,0,0,0,.319-.213.663.663,0,0,1,.865-.122.674.674,0,0,1,.283.874.725.725,0,0,0-.074.434c.016-.009.03-.02.046-.03.2-.387.4-.778.085-1.2-.4-.531-.975-.455-1.532.2,0,.018-.007.034-.009.052l.017.006" transform="translate(-265.616 -195.759)" fill="#fd646f"/>
        <path id="Trazado_601791" data-name="Trazado 601791" d="M296.252,249.742a.991.991,0,0,0-.386.4c-.916,1.353-1.833,2.7-2.77,4.043a1.619,1.619,0,0,0-.281.495l.066.059,3.433-4.973h0v-.005c-.022-.006-.041-.013-.064-.017" transform="translate(-248.667 -212.088)" fill="#fd646f"/>
        <path id="Trazado_601792" data-name="Trazado 601792" d="M287.523,243.493a.354.354,0,0,0,.085-.35l-.036.028c-.112.173-.22.348-.335.519q-1.524,2.263-3.051,4.525c.018.005.035.013.053.019,1.163-1.533,2.2-3.153,3.285-4.741" transform="translate(-241.338 -206.484)" fill="#fd646f"/>
        <path id="Trazado_601793" data-name="Trazado 601793" d="M306.841,235.752a1.948,1.948,0,0,0,.888-1.3l-.021-.007-.874,1.3.008.014" transform="translate(-260.572 -199.093)" fill="#fd646f"/>
        <path id="Trazado_601794" data-name="Trazado 601794" d="M312.654,234.2c0-.018.007-.034.009-.052l-.03.045.021.007" transform="translate(-265.497 -198.841)" fill="#fd646f"/>
        <path id="Trazado_601795" data-name="Trazado 601795" d="M306.673,243.046l-.029.042.036-.028-.008-.014" transform="translate(-260.411 -206.402)" fill="#fd646f"/>
        <path id="Trazado_601796" data-name="Trazado 601796" d="M316.032,242.324h0l.925-1.314c0-.008-.006-.016-.008-.024a1.984,1.984,0,0,0-.919,1.338" transform="translate(-268.384 -204.652)" fill="#fd646f"/>
        <path id="Trazado_601797" data-name="Trazado 601797" d="M322.133,240.843l.038-.054c-.016.009-.03.02-.046.03,0,.008.005.016.008.024" transform="translate(-273.558 -204.485)" fill="#fd646f"/>
        <path id="Trazado_601798" data-name="Trazado 601798" d="M316.023,249.858l0,.005,0,0h0" transform="translate(-268.375 -212.187)" fill="#fd646f"/>
        <path id="Trazado_601799" data-name="Trazado 601799" d="M289.139,327.316c-.785.024-1.571,0-2.356.006.043.025.085.05.127.076a1.656,1.656,0,0,1,0,2.9c-.042.027-.084.052-.127.077.8-.014,1.6-.021,2.4-.01a1,1,0,0,1,.682.14c.024-.015.045-.033.069-.047a4.957,4.957,0,0,0,.738-.252,1.484,1.484,0,0,0,.786-1.488,5.039,5.039,0,0,1-.063-.654.172.172,0,0,1-.11-.056,2.435,2.435,0,0,0-2.141-.693" transform="translate(-243.542 -277.962)" fill="#00f1a5"/>
        <path id="Trazado_601800" data-name="Trazado 601800" d="M308.729,332.3a5.04,5.04,0,0,0,.064.654,1.484,1.484,0,0,1-.786,1.488,4.959,4.959,0,0,1-.738.252c-.025.014-.046.031-.07.047a.54.54,0,0,1,.055.05,1.728,1.728,0,0,0,1.573-2.491.318.318,0,0,1-.1,0" transform="translate(-260.882 -282.202)" fill="#00f1a5"/>
        <path id="Trazado_601801" data-name="Trazado 601801" d="M287.759,347.53c-.8-.011-1.6,0-2.4.01l-.251.15,3.258.029c.023-.017.048-.033.072-.049a1,1,0,0,0-.682-.14" transform="translate(-242.125 -295.128)" fill="#00f1a5"/>
        <path id="Trazado_601802" data-name="Trazado 601802" d="M287.731,326.405a2.435,2.435,0,0,1,2.14.693.172.172,0,0,0,.11.055c0-.022,0-.045.006-.067l.015-.038a1.984,1.984,0,0,0-1.789-.807c-1.029.04-2.061.017-3.092.022l.253.149c.786,0,1.571.018,2.356-.006" transform="translate(-242.134 -277.051)" fill="#00f1a5"/>
        <path id="Trazado_601803" data-name="Trazado 601803" d="M317.354,331.645c0,.023,0,.045-.006.067a.318.318,0,0,0,.1,0h0c-.025-.036-.05-.071-.076-.105l-.015.038" transform="translate(-269.501 -281.61)" fill="#00f1a5"/>
        <path id="Trazado_601804" data-name="Trazado 601804" d="M306.718,348.541h.127a.54.54,0,0,0-.055-.05c-.024.016-.049.032-.072.049" transform="translate(-260.474 -295.95)" fill="#00f1a5"/>
        <path id="Trazado_601805" data-name="Trazado 601805" d="M250.188,330.168a1.461,1.461,0,0,0,0-2.564c-.1-.081-.251-.126-.316-.244h-.046c-1.54,0-3.079-.019-4.618.009a1.5,1.5,0,0,0-1.626,1.663,1.52,1.52,0,0,0,1.641,1.371c1.408.023,2.816.007,4.224.006.141,0,.282-.009.424,0,.065-.118.214-.163.316-.245" transform="translate(-206.853 -277.999)" fill="#6cf1c0"/>
        <path id="Trazado_601806" data-name="Trazado 601806" d="M248.86,329.529c-.141-.012-.283,0-.424,0-1.408,0-2.816.017-4.224-.006a1.52,1.52,0,0,1-1.641-1.371,1.5,1.5,0,0,1,1.626-1.663c1.539-.028,3.079-.007,4.618-.009h.046a.279.279,0,0,1-.032-.149c-1.595,0-3.189-.021-4.784-.008a1.682,1.682,0,0,0,0,3.364c1.594.015,3.189,0,4.784-.006h0a.28.28,0,0,1,.033-.149" transform="translate(-205.841 -277.116)" fill="#6cf1c0"/>
        <path id="Trazado_601807" data-name="Trazado 601807" d="M285.675,327.461c-.042-.026-.084-.051-.127-.077h-.22c.065.118.214.163.315.244a1.461,1.461,0,0,1,0,2.564c-.1.081-.251.126-.316.245l.027,0,.192,0c.042-.025.085-.051.127-.077a1.656,1.656,0,0,0,0-2.9" transform="translate(-242.308 -278.024)" fill="#6cf1c0"/>
        <path id="Trazado_601808" data-name="Trazado 601808" d="M285.372,326.547l-.253-.149a.279.279,0,0,0,.032.149h.22" transform="translate(-242.132 -277.187)" fill="#6cf1c0"/>
        <path id="Trazado_601809" data-name="Trazado 601809" d="M285.169,347.632l-.027,0a.28.28,0,0,0-.033.149h0l.251-.15-.192,0" transform="translate(-242.122 -295.217)" fill="#6cf1c0"/>
        <path id="Trazado_601810" data-name="Trazado 601810" d="M276.7,277.053a4.146,4.146,0,0,0-1.324.19,2.741,2.741,0,0,1,.889,1.06,2.2,2.2,0,0,1-.857,2.789.386.386,0,0,0-.052.05,1.966,1.966,0,0,0,2.289-.5,1.99,1.99,0,0,0,.412-2.323.881.881,0,0,1-.088-.379.684.684,0,0,1,.013-.074,4.425,4.425,0,0,1-1.253-.854l-.028.037" transform="translate(-233.84 -235.25)" fill="#fc4755"/>
        <path id="Trazado_601811" data-name="Trazado 601811" d="M276.13,276.556l.028-.037-.041-.036a2.2,2.2,0,0,0-1.432.159l.121.1a4.147,4.147,0,0,1,1.324-.19" transform="translate(-233.271 -234.753)" fill="#fc4755"/>
        <path id="Trazado_601812" data-name="Trazado 601812" d="M277.417,282.68a.635.635,0,0,0-.013.074.881.881,0,0,0,.088.379,1.99,1.99,0,0,1-.412,2.323,1.966,1.966,0,0,1-2.289.5c-.034.036-.066.075-.1.111a2.2,2.2,0,0,0,2.7-.712,2.356,2.356,0,0,0,.1-2.642c-.025-.009-.049-.02-.073-.03" transform="translate(-233.276 -240.06)" fill="#fc4755"/>
        <path id="Trazado_601813" data-name="Trazado 601813" d="M284.455,276.923a4.43,4.43,0,0,0,1.253.854l.007-.028a3.73,3.73,0,0,0-1.248-.842l-.012.016" transform="translate(-241.567 -235.157)" fill="#fc4755"/>
        <path id="Trazado_601814" data-name="Trazado 601814" d="M292.768,282.521c.025.01.048.021.073.03l-.066-.058c0,.009,0,.019-.007.028" transform="translate(-248.627 -239.901)" fill="#fc4755"/>
        <path id="Trazado_601815" data-name="Trazado 601815" d="M284.239,276.8c-.018-.006-.035-.014-.053-.019l.041.036.012-.016" transform="translate(-241.339 -235.05)" fill="#fc4755"/>
        <path id="Trazado_601816" data-name="Trazado 601816" d="M268.182,282.345a2.1,2.1,0,0,0,0-3.171c-.107-.1-.266-.174-.321-.318a2.087,2.087,0,0,0,0,3.809c.055-.145.215-.216.322-.32" transform="translate(-226.426 -236.813)" fill="#fd646f"/>
        <path id="Trazado_601817" data-name="Trazado 601817" d="M267.075,281.8a2.087,2.087,0,0,1,0-3.809.318.318,0,0,1-.018-.154,2.24,2.24,0,0,0,0,4.115h0a.319.319,0,0,1,.018-.152" transform="translate(-225.641 -235.943)" fill="#fd646f"/>
        <path id="Trazado_601818" data-name="Trazado 601818" d="M275.8,279.587a2.742,2.742,0,0,0-.889-1.06l-.037.015-.067.035c.055.144.214.215.321.318a2.1,2.1,0,0,1,0,3.171c-.108.1-.267.175-.322.32l.069.036.013,0a.386.386,0,0,1,.052-.05,2.2,2.2,0,0,0,.857-2.789" transform="translate(-233.371 -236.533)" fill="#fd646f"/>
        <path id="Trazado_601819" data-name="Trazado 601819" d="M274.755,277.952l.037-.015-.122-.1a.314.314,0,0,0,.018.154l.067-.035" transform="translate(-233.256 -235.943)" fill="#fd646f"/>
        <path id="Trazado_601820" data-name="Trazado 601820" d="M274.78,304.16l-.013,0-.069-.036a.319.319,0,0,0-.018.152h0c.034-.036.066-.075.1-.111" transform="translate(-233.264 -258.267)" fill="#fd646f"/>
        <path id="Trazado_601821" data-name="Trazado 601821" d="M119.1,147.165l0,.006c.129-.111.261-.22.381-.34q6.055-6.051,12.1-12.107c.14-.14.325-.254.389-.452-.016-.017-.034-.033-.05-.05a7.978,7.978,0,0,1-1.877-2.434c-.07-.16-.2-.317-.122-.5a.424.424,0,0,1-.033-.028,1.93,1.93,0,0,1-.39.44q-6.491,6.5-12.986,12.988a2.129,2.129,0,0,1-.54.46,5.211,5.211,0,0,1,2.484,1.4c.227.191.426.416.637.625" transform="translate(-98.491 -111.467)" fill="#fee077"/>
        <path id="Trazado_601822" data-name="Trazado 601822" d="M115.249,144.441q6.5-6.492,12.986-12.988a1.934,1.934,0,0,0,.39-.44.411.411,0,0,1-.043-.043c-.152.138-.31.27-.456.416q-6.534,6.532-13.069,13.064c-.168.168-.3.395-.575.423h0c.077.006.151.016.225.028a2.129,2.129,0,0,0,.54-.46" transform="translate(-97.223 -111.224)" fill="#fee077"/>
        <path id="Trazado_601823" data-name="Trazado 601823" d="M208.314,131.048a.357.357,0,0,1,.038-.069h-.05c-.006.015-.014.028-.022.042a.368.368,0,0,0,.033.028" transform="translate(-176.878 -111.23)" fill="#fee077"/>
        <path id="Trazado_601824" data-name="Trazado 601824" d="M208.063,130.97H208a.411.411,0,0,0,.043.043c.007-.014.015-.027.022-.042" transform="translate(-176.639 -111.223)" fill="#fee077"/>
        <path id="Trazado_601825" data-name="Trazado 601825" d="M208.36,131.443c-.081.186.052.343.122.5a7.979,7.979,0,0,0,1.877,2.434l.05.05a.461.461,0,0,0,.024-.126h0c-.148-.165-.29-.336-.446-.493a6.306,6.306,0,0,1-1.543-2.317l-.027-.016a.387.387,0,0,1-.056-.036" transform="translate(-176.924 -111.625)" fill="#fee077"/>
        <path id="Trazado_601826" data-name="Trazado 601826" d="M208.5,131.053a.39.39,0,0,0,.056.036l.027.016c-.015-.041-.032-.08-.045-.121a.358.358,0,0,0-.038.069" transform="translate(-177.067 -111.235)" fill="#fee077"/>
        <path id="Trazado_601827" data-name="Trazado 601827" d="M118.669,225.387c-.211-.21-.41-.435-.637-.625a5.211,5.211,0,0,0-2.484-1.4.726.726,0,0,1-.076.034c.256.105.513.21.769.317a8.528,8.528,0,0,1,2.353,1.745l.08-.069,0-.006" transform="translate(-98.062 -189.689)" fill="#fee077"/>
        <path id="Trazado_601828" data-name="Trazado 601828" d="M114.71,223.211c-.074-.012-.148-.021-.225-.028l.149.061a.767.767,0,0,0,.076-.034" transform="translate(-97.224 -189.533)" fill="#fee077"/>
        <path id="Trazado_601829" data-name="Trazado 601829" d="M149.97,151.752a.586.586,0,0,1-.115.2,3.723,3.723,0,0,1-.347.368q-5.945,5.947-11.895,11.889c-.16.16-.286.4-.535.433a7.777,7.777,0,0,1,1.19,1.894,1.365,1.365,0,0,1,.148.467,2.719,2.719,0,0,1,.349-.368q6.541-6.546,13.087-13.086a1.973,1.973,0,0,1,.448-.413,4.1,4.1,0,0,1-1.556-.773,3.915,3.915,0,0,1-.775-.612" transform="translate(-116.411 -128.872)" fill="#fed05b"/>
        <path id="Trazado_601830" data-name="Trazado 601830" d="M159.367,161.352q-6.547,6.539-13.087,13.086a2.719,2.719,0,0,0-.349.368.619.619,0,0,1,0,.119c.072-.06.149-.114.215-.179q6.9-6.9,13.792-13.8c-.04,0-.08,0-.119-.009a1.979,1.979,0,0,0-.448.413" transform="translate(-123.926 -136.674)" fill="#fed05b"/>
        <path id="Trazado_601831" data-name="Trazado 601831" d="M222.3,150.623a3.914,3.914,0,0,0,.775.612,4.1,4.1,0,0,0,1.556.773c.017-.009.036-.015.054-.023a10.235,10.235,0,0,1-2.435-1.563.224.224,0,0,1,.05.2" transform="translate(-188.742 -127.743)" fill="#fed05b"/>
        <path id="Trazado_601832" data-name="Trazado 601832" d="M238.094,160.79c-.018.007-.037.014-.054.022.039,0,.078.008.119.009h0l-.065-.031" transform="translate(-202.15 -136.548)" fill="#fed05b"/>
        <path id="Trazado_601833" data-name="Trazado 601833" d="M137.5,239.147a7.776,7.776,0,0,0-1.19-1.894.479.479,0,0,1-.136,0,12,12,0,0,1,1.439,2.415q.016-.029.034-.056a1.367,1.367,0,0,0-.148-.467" transform="translate(-115.645 -201.482)" fill="#fed05b"/>
        <path id="Trazado_601834" data-name="Trazado 601834" d="M145.757,252.915c-.012.018-.023.037-.034.056l.031.063a.6.6,0,0,0,0-.119" transform="translate(-123.752 -214.783)" fill="#fed05b"/>
        <path id="Trazado_601835" data-name="Trazado 601835" d="M137.3,163.789q5.953-5.939,11.895-11.889a3.741,3.741,0,0,0,.347-.368.587.587,0,0,0,.115-.2l-.074-.075c-.064.2-.249.312-.389.452q-6.048,6.057-12.1,12.107c-.12.12-.251.229-.381.34l.056.067c.249-.037.375-.273.535-.433" transform="translate(-116.096 -128.451)" fill="#fed05b"/>
        <path id="Trazado_601836" data-name="Trazado 601836" d="M222.091,150.547l.074.075a.224.224,0,0,0-.05-.2.468.468,0,0,1-.024.126" transform="translate(-188.606 -127.742)" fill="#fed05b"/>
        <path id="Trazado_601837" data-name="Trazado 601837" d="M136.312,236.877l-.056-.067-.08.069a.485.485,0,0,0,.136,0" transform="translate(-115.645 -201.106)" fill="#fed05b"/>
        <path id="Trazado_601838" data-name="Trazado 601838" d="M53.735,55.155c-.04-.287.211-.376.368-.516A6.787,6.787,0,0,0,56.5,49.6a6.477,6.477,0,0,0-1.755-4.677c-.267-.289-.55-.564-.843-.828-.127-.115-.319-.2-.277-.425-.009.009-.017.019-.027.028-.23.068-.4-.077-.572-.178a6.843,6.843,0,0,0-8.132,1.035,6.744,6.744,0,0,0-.342,9.373,6.636,6.636,0,0,0,7.221,1.989,8.59,8.59,0,0,0,1.381-.632c.166-.082.314-.214.52-.179a.476.476,0,0,1,.048.058l.014-.006h0m-4.194-.439a5.338,5.338,0,0,1-5.171-5.363,5.258,5.258,0,0,1,5.287-5.139,5.169,5.169,0,0,1,5.261,5.259,5.272,5.272,0,0,1-5.376,5.242" transform="translate(-36.364 -36.201)" fill="#d8e6eb"/>
        <path id="Trazado_601839" data-name="Trazado 601839" d="M52.4,54.293a8.58,8.58,0,0,1-1.381.632A6.636,6.636,0,0,1,43.8,52.937a6.744,6.744,0,0,1,.342-9.373,6.843,6.843,0,0,1,8.132-1.035c.174.1.342.246.572.178.01-.009.018-.019.027-.028s0-.012,0-.019a1.449,1.449,0,0,1-.258-.1,6.73,6.73,0,0,0-6.8-.336,6.644,6.644,0,0,0-3.87,6,6.528,6.528,0,0,0,2.319,5.385,6.771,6.771,0,0,0,6.423,1.568,13.237,13.237,0,0,0,2.284-1.014.462.462,0,0,0-.048-.058c-.206-.035-.354.1-.52.179" transform="translate(-35.611 -35.212)" fill="#d8e6eb"/>
        <path id="Trazado_601840" data-name="Trazado 601840" d="M114.718,49.891c.292.265.576.539.842.828a6.477,6.477,0,0,1,1.756,4.677,6.787,6.787,0,0,1-2.4,5.04c-.157.14-.408.229-.368.516h0a.932.932,0,0,1,.142-.171,6.955,6.955,0,0,0,1.832-9,10.557,10.557,0,0,0-2.074-2.322l-.011.011c-.043.225.149.31.277.425" transform="translate(-97.182 -41.999)" fill="#d8e6eb"/>
        <path id="Trazado_601841" data-name="Trazado 601841" d="M114.486,49.412l-.008-.008c0,.007,0,.012,0,.019l.011-.011" transform="translate(-97.216 -41.955)" fill="#d8e6eb"/>
        <path id="Trazado_601842" data-name="Trazado 601842" d="M249.458,92.265a21.2,21.2,0,0,0-2.776-3.769.825.825,0,0,1-.117-.156c-.389.381-.777.763-1.154,1.155-.5.516-.537.914-.069,1.425.8.87,1.637,1.7,2.5,2.5a.958.958,0,0,0,1.412-.039c.2-.181.387-.383.579-.577a1.414,1.414,0,0,1-.372-.543" transform="translate(-208.072 -75.021)" fill="#def5fc"/>
        <path id="Trazado_601843" data-name="Trazado 601843" d="M248.477,92.657a.958.958,0,0,1-1.412.039c-.862-.805-1.7-1.634-2.5-2.5-.468-.511-.427-.909.069-1.425.377-.392.765-.775,1.154-1.155a.434.434,0,0,1-.05-.129c-.389.377-.784.748-1.166,1.132a1.094,1.094,0,0,0-.014,1.793c.614.629,1.268,1.221,1.857,1.873,1.227,1.358,1.8.946,2.716-.1a.217.217,0,0,0,.025-.05.532.532,0,0,1-.1-.054c-.191.194-.376.4-.579.577" transform="translate(-207.298 -74.292)" fill="#def5fc"/>
        <path id="Trazado_601844" data-name="Trazado 601844" d="M255.3,88.089a.824.824,0,0,0,.117.156,21.2,21.2,0,0,1,2.776,3.77,1.416,1.416,0,0,0,.372.543l.018-.018.029-.029c-.275-.486-.528-.986-.841-1.446a14.778,14.778,0,0,0-2.426-3.02l-.008.008-.037.036" transform="translate(-216.812 -74.77)" fill="#def5fc"/>
        <path id="Trazado_601845" data-name="Trazado 601845" d="M277.011,117.662l-.029.029-.017.018a.53.53,0,0,0,.1.054l-.056-.1" transform="translate(-235.206 -99.922)" fill="#def5fc"/>
        <path id="Trazado_601846" data-name="Trazado 601846" d="M255.062,87.575l.008-.008c-.032-.028-.062-.058-.095-.085a.434.434,0,0,0,.05.129l.037-.036" transform="translate(-216.532 -74.292)" fill="#def5fc"/>
        <path id="Trazado_601847" data-name="Trazado 601847" d="M80.108,244.678a3.884,3.884,0,0,0-4.443-.639,3.968,3.968,0,0,0-2.119,3.917,3.844,3.844,0,0,0,3.07,3.4,3.931,3.931,0,0,0,3.47-.906c.18-.155.32-.38.6-.383.01.009.015.018.024.026-.091-.266.076-.469.181-.679a3.926,3.926,0,0,0,0-3.717c-.1-.2-.263-.4-.183-.657-.285.024-.424-.2-.6-.362m-2.7,5.2a2.3,2.3,0,0,1-2.341-2.354,2.369,2.369,0,1,1,4.738.006,2.284,2.284,0,0,1-2.4,2.348" transform="translate(-62.433 -206.88)" fill="#fee077"/>
        <path id="Trazado_601848" data-name="Trazado 601848" d="M79.882,249.361c-.008-.009-.014-.018-.024-.027-.279,0-.419.228-.6.383a3.932,3.932,0,0,1-3.47.906,3.844,3.844,0,0,1-3.07-3.4,3.968,3.968,0,0,1,2.119-3.917,3.885,3.885,0,0,1,4.443.639c.172.159.312.385.6.362,0-.008,0-.015.006-.023-.128-.109-.263-.21-.382-.327a4,4,0,0,0-3.635-1.148,4.065,4.065,0,1,0,1.633,7.964,4.832,4.832,0,0,0,2.381-1.412h0" transform="translate(-61.608 -206.149)" fill="#fee077"/>
        <path id="Trazado_601849" data-name="Trazado 601849" d="M121.056,253.037c-.08.256.081.453.183.657a3.927,3.927,0,0,1,0,3.717c-.105.21-.273.413-.182.679h0a5.576,5.576,0,0,0,.8-2.481,5.357,5.357,0,0,0-.8-2.583l-.007.01h-.005" transform="translate(-102.785 -214.878)" fill="#fee077"/>
        <path id="Trazado_601850" data-name="Trazado 601850" d="M121.187,252.969h.005l.007-.01-.006-.012c0,.008,0,.015-.006.023" transform="translate(-102.916 -214.809)" fill="#fee077"/>
        <path id="Trazado_601851" data-name="Trazado 601851" d="M121.208,286.607h0" transform="translate(-102.933 -243.394)" fill="#fee077"/>
        <path id="Trazado_601852" data-name="Trazado 601852" d="M58.379,53.071a5.258,5.258,0,0,0-5.287,5.139,5.338,5.338,0,0,0,5.172,5.363A5.272,5.272,0,0,0,63.64,58.33a5.169,5.169,0,0,0-5.261-5.259m-.985,7.886a2.837,2.837,0,0,1-1.238-4.412,4.036,4.036,0,0,1,1.35-.972h0a2.9,2.9,0,0,1,3.7,2.5,2.837,2.837,0,0,1-3.816,2.881" transform="translate(-45.087 -45.058)" fill="#f4f7f8"/>
        <path id="Trazado_601853" data-name="Trazado 601853" d="M86.215,253.778a2.4,2.4,0,0,0-2.4,2.386,2.369,2.369,0,0,0,4.739.006,2.38,2.38,0,0,0-2.334-2.392" transform="translate(-71.175 -215.515)" fill="#fefefe"/>
        <path id="Trazado_601854" data-name="Trazado 601854" d="M72.492,73.963a2.832,2.832,0,0,0-.8-3.827c-.141-.112-.352-.16-.342-.4A4.034,4.034,0,0,0,70,70.709a2.837,2.837,0,0,0,1.238,4.412c.417-.387.958-.631,1.255-1.158" transform="translate(-58.93 -59.223)" fill="#c4d2dc"/>
        <path id="Trazado_601855" data-name="Trazado 601855" d="M81.734,69.015h0A3.691,3.691,0,0,1,83.2,70.606,2.806,2.806,0,0,1,81.623,74.4a2.837,2.837,0,0,0,3.816-2.881,2.9,2.9,0,0,0-3.7-2.5" transform="translate(-69.317 -58.501)" fill="#b5c3ce"/>
        <path id="Trazado_601856" data-name="Trazado 601856" d="M83.2,71.328a3.691,3.691,0,0,0-1.464-1.591c-.01.24.2.287.342.4a2.832,2.832,0,0,1,.8,3.827c-.3.527-.838.771-1.255,1.158A2.805,2.805,0,0,0,83.2,71.328" transform="translate(-69.317 -59.223)" fill="#b5c3ce"/>
      </g>
    </g>
  </g>
</svg>
