<svg xmlns="http://www.w3.org/2000/svg" xmlns:xlink="http://www.w3.org/1999/xlink" width="85" height="85" viewBox="0 0 85 85">
  <defs>
    <clipPath id="clip-path">
      <rect id="Rectángulo_300827" data-name="Rectángulo 300827" width="42.278" height="57.769" fill="none"/>
    </clipPath>
  </defs>
  <g id="Grupo_886494" data-name="Grupo 886494" transform="translate(-845 -14229.487)">
    <g id="Elipse_6613" data-name="Elipse 6613" transform="translate(845 14229.487)" fill="#fff" stroke="#72e0fa" stroke-width="1">
      <circle cx="42.5" cy="42.5" r="42.5" stroke="none"/>
      <circle cx="42.5" cy="42.5" r="42" fill="none"/>
    </g>
    <g id="Grupo_886141" data-name="Grupo 886141" transform="translate(866 14243.487)">
      <g id="Grupo_886140" data-name="Grupo 886140" clip-path="url(#clip-path)">
        <path id="Trazado_601983" data-name="Trazado 601983" d="M5.9,116.687c-.02-1.181-.006-1.18-1.161-1.19-.182,0-.375.049-.539-.08a.455.455,0,0,1-.325-.472c0-.169,0-.338,0-.507V75.261c0-.934.006-.938.95-.94.356,0,.713-.012,1.07-.018.031-.92-.052-1.846.06-2.827-1.244-.06-2.486-.006-3.728-.039a1.215,1.215,0,0,0-.863.15.916.916,0,0,0-.347.739C1,72.589,1,72.852,1,73.115Q1,94.938.993,116.761c0,.567.114,1.112.165,1.668H6.12a2.923,2.923,0,0,1-.22-1.741" transform="translate(-0.843 -60.66)" fill="#e99a58"/>
        <path id="Trazado_601984" data-name="Trazado 601984" d="M.159,72.9c0-.263,0-.526.011-.789a.916.916,0,0,1,.347-.739,1.215,1.215,0,0,1,.863-.151c1.243.034,2.484-.02,3.728.039,0-.03.005-.059.009-.089H.427c-.457.175-.42.574-.42.947Q0,94.669,0,117.224a1.46,1.46,0,0,0,.314.985c-.05-.556-.165-1.1-.165-1.668Q.166,94.718.159,72.9" transform="translate(0 -60.44)" fill="#e99a58"/>
        <path id="Trazado_601985" data-name="Trazado 601985" d="M63.766,277.024c.014-4.189,0-8.379.009-12.568,0-.329-.076-.684.2-.962a.621.621,0,0,1,.069-.012,9.17,9.17,0,0,1-.84-.67c-.418-.414-.82-.517-1.268-.067l-1.023.883q.007,6.738.018,13.475c0,.39-.15.538-.535.53-.732-.016-1.465,0-2.2,0l-23.785,0-1.7.013c.228.084.286.268.286.694,0,.778.037,1.553.061,2.33H63.614a16.713,16.713,0,0,0,.152-3.639" transform="translate(-27.776 -222.894)" fill="#f5a86c"/>
        <path id="Trazado_601986" data-name="Trazado 601986" d="M238.112,269.944c0-.214-.088-.453.1-.643l-.016-.013a.681.681,0,0,0-.069.012c-.273.278-.2.633-.2.962-.006,4.189,0,8.379-.009,12.568a16.711,16.711,0,0,1-.152,3.638,1.151,1.151,0,0,0,.346-.959q-.016-7.783,0-15.566" transform="translate(-201.931 -228.7)" fill="#f5a86c"/>
        <path id="Trazado_601987" data-name="Trazado 601987" d="M23.84,363.213l-1.573.012h0c.164.13.358.079.539.08,1.155.011,1.141.009,1.161,1.19a2.923,2.923,0,0,0,.22,1.741c-.024-.777-.061-1.552-.061-2.33,0-.426-.058-.61-.286-.694" transform="translate(-18.911 -308.468)" fill="#f5a86c"/>
        <path id="Trazado_601988" data-name="Trazado 601988" d="M211.253,118.625a7.532,7.532,0,0,0-4.7,5.3,2.789,2.789,0,0,0-.157,1.024l.014.005c.591-.539.961-.537,1.524.017.481.474.97.943,1.43,1.437.225.242.359.214.577-.01.917-.941,1.851-1.866,2.783-2.793.488-.486,1-.54,1.373-.155s.312.854-.163,1.332q-1.767,1.777-3.544,3.545a.893.893,0,0,1-1.492-.008q-1.246-1.239-2.484-2.487l-.022.009a7.5,7.5,0,0,0,5.1,7.009,5.341,5.341,0,0,0,.547.1,5.725,5.725,0,0,0,1.467-.522c.135-.284.425-.4.663-.574a7.423,7.423,0,0,0-1.736-13.16,7.46,7.46,0,0,1-.843-.3c.013.2-.216.167-.341.219" transform="translate(-175.281 -100.559)" fill="#4fc023"/>
        <path id="Trazado_601989" data-name="Trazado 601989" d="M241.65,118.153a7.423,7.423,0,0,1,1.736,13.16c-.237.173-.528.29-.663.574l.078-.032c.173-.111.348-.22.52-.334a7.225,7.225,0,0,0,3.427-5.66,7.474,7.474,0,0,0-5.961-8.1.415.415,0,0,1,.02.1,7.422,7.422,0,0,0,.843.3" transform="translate(-204.495 -100.01)" fill="#4fc023"/>
        <path id="Trazado_601990" data-name="Trazado 601990" d="M65.932,65.746a2.563,2.563,0,0,0,.132.536H63.45l0,0a11.514,11.514,0,0,0,2.148.046c4.871-.1,9.742-.013,14.613-.042.336,0,.694.048.845-.373.042-.483-.137-.982.1-1.451h0q-.008-1.424-.017-2.848c-.224-.122-.241-.345-.268-.566-.09-.739-.154-.807-.906-.811-1.762-.01-3.523,0-5.285-.006A1.482,1.482,0,0,1,73.8,60.1c-.011-.014-.018-.028-.028-.043-1.025,0-2.05-.011-3.074.015-.291.008-.426-.07-.476-.254-.063.342-.254.412-.788.42-1.184.018-2.368,0-3.552-.008.055.053.076.152.07.339-.054,1.725-.031,3.452-.025,5.178m2.053-3.419c.637-.034,1.276-.009,1.915-.009q2.9,0,5.8,0a2.266,2.266,0,0,1,.665.075.823.823,0,0,1-.239,1.618c-1.389,0-2.778,0-4.168,0-1.314,0-2.628,0-3.942,0-.655,0-.933-.2-.963-.679a.858.858,0,0,1,.931-1" transform="translate(-53.883 -50.801)" fill="#f9c500"/>
        <path id="Trazado_601991" data-name="Trazado 601991" d="M132.013,61.443a1.482,1.482,0,0,0,.874.138c1.762.005,3.523,0,5.285.006.752,0,.816.072.906.811.027.22.044.444.268.566v-.088h0c-.122-.1-.094-.234-.1-.362-.04-1.082-.04-1.078-1.149-1.083q-3.025-.012-6.05-.031h-.062c.009.014.017.029.028.043" transform="translate(-112.092 -52.146)" fill="#f9c500"/>
        <path id="Trazado_601992" data-name="Trazado 601992" d="M64.342,45.05c.146,0,.241,0,.3.058,1.184.011,2.368.026,3.552.008.534-.008.725-.078.788-.42a.926.926,0,0,1-.024-.267c.023-.8.007-1.6.007-2.4a.21.21,0,0,0-.066-.019c0,.808-.031,1.616,0,2.423.014.412-.092.548-.526.541-1.934-.03-3.869-.026-5.8-.026-.2,0-.417-.078-.586.1.788,0,1.576,0,2.364,0" transform="translate(-52.636 -35.68)" fill="#f9c500"/>
        <path id="Trazado_601993" data-name="Trazado 601993" d="M186.112,116.882h0a8.118,8.118,0,0,0-3.971,2.32c-.187.208-.373.418-.559.627l-.894,1.579-.365,1.165q-.108.845-.216,1.69a9.053,9.053,0,0,0,.843,3.493h0l.877,1.363a9.081,9.081,0,0,0,2.343,1.9,9.2,9.2,0,0,0,2.937.879,7.983,7.983,0,0,0,2.359-.236,5.337,5.337,0,0,1-2.548-1.225,7.707,7.707,0,0,1-2.943-4.836,2.12,2.12,0,0,1,.018-1.11.478.478,0,0,1,.08-.044c0-.01,0-.021,0-.031a1.457,1.457,0,0,1,.007-.845c0-.006,0-.011,0-.017a.212.212,0,0,1-.054-.029.741.741,0,0,1-.017-.6,7.623,7.623,0,0,1,4.747-5.774,2.121,2.121,0,0,0,.438-.191c-.023-.014-.047-.027-.071-.042a.458.458,0,0,1-.049-.066,10.415,10.415,0,0,0-2.959.023" transform="translate(-152.96 -99.165)" fill="#47a820"/>
        <path id="Trazado_601994" data-name="Trazado 601994" d="M239.63,117.463c.023.015.047.028.071.042a.5.5,0,0,0,.062-.053l-.114-.045-.068-.009a.468.468,0,0,0,.049.066" transform="translate(-203.47 -99.702)" fill="#47a820"/>
        <path id="Trazado_601995" data-name="Trazado 601995" d="M205.662,124.076a.741.741,0,0,0,.018.6.21.21,0,0,0,.054.029,2.792,2.792,0,0,1,.157-1.024,7.531,7.531,0,0,1,4.7-5.3c.125-.053.354-.017.341-.219-.028-.014-.055-.029-.082-.044a2.128,2.128,0,0,1-.438.191,7.622,7.622,0,0,0-4.747,5.774" transform="translate(-174.616 -100.309)" fill="#47a820"/>
        <path id="Trazado_601996" data-name="Trazado 601996" d="M210.6,174.782a7.5,7.5,0,0,1-5.1-7.009.5.5,0,0,0-.08.044,2.122,2.122,0,0,0-.018,1.11,7.708,7.708,0,0,0,2.943,4.836,5.336,5.336,0,0,0,2.548,1.224c.086-.03.172-.063.257-.1a5.338,5.338,0,0,1-.547-.1" transform="translate(-174.385 -142.486)" fill="#47a820"/>
        <path id="Trazado_601997" data-name="Trazado 601997" d="M240.459,117.857a.414.414,0,0,0-.02-.1.524.524,0,0,1-.062.053c.027.016.054.031.082.044" transform="translate(-204.146 -100.01)" fill="#47a820"/>
        <path id="Trazado_601998" data-name="Trazado 601998" d="M181.507,74.656a1.285,1.285,0,0,1-.03.159l4.786.007c.977,0,.976,0,.977,1q0,1.457.005,2.913l.1-.025a8.717,8.717,0,0,1,2.321-.1.908.908,0,0,1,.5.161c0-.011-.011-.021-.015-.032a5.552,5.552,0,0,1-.059-1.29c-.006-1.388,0-2.776,0-4.164,0-1.229,0-1.229-1.257-1.23q-3.319,0-6.637,0a2.651,2.651,0,0,1-.755-.053.88.88,0,0,1,.087.441c0,.738.033,1.477-.022,2.214" transform="translate(-154.094 -61.149)" fill="#f5a86c"/>
        <path id="Trazado_601999" data-name="Trazado 601999" d="M181.665,71.215q3.319,0,6.637,0c1.256,0,1.257,0,1.257,1.23,0,1.388,0,2.776,0,4.164a5.561,5.561,0,0,0,.059,1.29c0,.011.01.021.015.032a.9.9,0,0,1,.106.082c0-2.082-.006-4.164,0-6.245,0-.432-.1-.756-.6-.755q-4.161.008-8.322.026h0a.535.535,0,0,1,.094.123,2.656,2.656,0,0,0,.755.053" transform="translate(-153.563 -60.31)" fill="#f5a86c"/>
        <path id="Trazado_602000" data-name="Trazado 602000" d="M180.836,74.619h0l0,0v0h.11a1.3,1.3,0,0,0,.03-.159c.054-.738.02-1.476.022-2.214a.88.88,0,0,0-.087-.441c-.027-.008-.054-.016-.08-.026l-.014-.009q.009,1.424.017,2.848h0" transform="translate(-153.565 -60.953)" fill="#f5a86c"/>
        <path id="Trazado_602001" data-name="Trazado 602001" d="M180.829,71.284c.026.01.053.018.08.026a.535.535,0,0,0-.094-.123c0,.029,0,.059,0,.088l.014.009" transform="translate(-153.562 -60.458)" fill="#f5a86c"/>
        <path id="Trazado_602002" data-name="Trazado 602002" d="M220.047,115.8l-.1.025c0,.043,0,.085,0,.128h0a10.421,10.421,0,0,1,2.959-.022.48.48,0,0,1-.038-.073.908.908,0,0,0-.5-.161,8.711,8.711,0,0,0-2.321.1" transform="translate(-186.795 -98.233)" fill="#f5a86c"/>
        <path id="Trazado_602003" data-name="Trazado 602003" d="M239.365,116.986l.068.009a.888.888,0,0,0-.106-.082.479.479,0,0,0,.038.073" transform="translate(-203.255 -99.291)" fill="#f5a86c"/>
        <path id="Trazado_602004" data-name="Trazado 602004" d="M229.109,212.632c-.114.176-.331.19-.522.234a7.158,7.158,0,0,1-1.957.122l-.08-.01q0,3.419.008,6.838c.624-.431.73-.417,1.361.126.268.231.665.345.76.752.345-.033.538.266.8.415.3.17.55.647.884.479.361-.182.182-.683.184-1.043.012-2.554.006-5.108.007-7.662a3.568,3.568,0,0,1,.044-.813,2.734,2.734,0,0,1-1.458.563l-.033,0" transform="translate(-192.403 -180.108)" fill="#fa2b3a"/>
        <path id="Trazado_602005" data-name="Trazado 602005" d="M242.593,211.405a3.586,3.586,0,0,0-.044.813c0,2.554,0,5.108-.007,7.662,0,.36.177.861-.184,1.043-.335.169-.584-.309-.884-.479-.263-.149-.456-.449-.8-.415,0,0,0,.009,0,.014h0c.428.334.854.67,1.284,1,.16.123.315.288.549.169s.205-.332.205-.539q-.006-4.692-.011-9.385a1.428,1.428,0,0,1-.11.118" transform="translate(-204.397 -179.441)" fill="#fa2b3a"/>
        <path id="Trazado_602006" data-name="Trazado 602006" d="M227.966,261.864c-.63-.544-.736-.557-1.361-.126,0,.048,0,.1,0,.143h0c.448-.45.85-.347,1.268.067a9.173,9.173,0,0,0,.84.67h.012c-.094-.407-.492-.521-.76-.752" transform="translate(-192.45 -222.029)" fill="#fa2b3a"/>
        <path id="Trazado_602007" data-name="Trazado 602007" d="M240.592,269.282l.016.012s0-.009,0-.014h-.012" transform="translate(-204.329 -228.694)" fill="#fa2b3a"/>
        <path id="Trazado_602008" data-name="Trazado 602008" d="M243.585,212.02h0a.429.429,0,0,1-.056.124l.033,0a2.735,2.735,0,0,0,1.458-.563c0-.009,0-.019,0-.028s.018-.039.027-.059A5.72,5.72,0,0,1,243.585,212.02Z" transform="translate(-206.823 -179.62)" fill="#fa2b3a"/>
        <path id="Trazado_602009" data-name="Trazado 602009" d="M253.45,211.319c-.009.019-.02.037-.028.058s0,.019,0,.028a1.436,1.436,0,0,0,.11-.118l-.078.032" transform="translate(-215.221 -179.441)" fill="#fa2b3a"/>
        <path id="Trazado_602010" data-name="Trazado 602010" d="M226.63,216.022a7.158,7.158,0,0,0,1.957-.122c.191-.044.408-.058.522-.234q-.1-.008-.2-.022a7.978,7.978,0,0,1-2.359.236c0,.044,0,.088,0,.131l.08.01" transform="translate(-192.403 -183.141)" fill="#fa2b3a"/>
        <path id="Trazado_602011" data-name="Trazado 602011" d="M242.456,214.963h0c-.085.039-.171.072-.257.1q.1.013.2.021a.426.426,0,0,0,.056-.124" transform="translate(-205.694 -182.563)" fill="#fa2b3a"/>
        <path id="Trazado_602012" data-name="Trazado 602012" d="M102.862,7.6a.865.865,0,0,0,.54-.265,3.376,3.376,0,0,1-1.925-2.566,3.448,3.448,0,0,1,1.49-3.307.522.522,0,0,0,.17-.177l-.045-.023a3.212,3.212,0,0,0-4.018,1.456,3.318,3.318,0,0,0,.7,4.051,1.063,1.063,0,0,1,.352.464,3.627,3.627,0,0,0,2.731.366" transform="translate(-83.803 -0.889)" fill="#e7b700"/>
        <path id="Trazado_602013" data-name="Trazado 602013" d="M99.249,6.34a1.064,1.064,0,0,0-.352-.464,3.318,3.318,0,0,1-.7-4.051A3.212,3.212,0,0,1,102.21.369l.045.023a.317.317,0,0,0,.039-.134A3.38,3.38,0,0,0,97.656,3.03a3.6,3.6,0,0,0,1.526,3.3.482.482,0,0,1,.066.008h0" transform="translate(-82.921 0)" fill="#e7b700"/>
        <path id="Trazado_602014" data-name="Trazado 602014" d="M59.539,67.17c.006.39.018.779.017,1.169,0,.367.133.609.533.632h.037c.158-.217.407-.177.63-.184.488-.015.977-.009,1.465,0,.167,0,.271,0,.256-.241-.106-1.633-.046-3.269-.034-4.9,0-.479-.153-.638-.613-.61-.43.027-.864.013-1.3,0a1.373,1.373,0,0,1-.448-.05l-.015.006c-.3.132-.344.392-.359.678-.011.214.011.447-.18.6q0,1.45.006,2.9" transform="translate(-50.56 -53.49)" fill="#e7b700"/>
        <path id="Trazado_602015" data-name="Trazado 602015" d="M59.711,62.993c.014-.287.061-.547.359-.678l.015-.006a.49.49,0,0,1-.186-.12.482.482,0,0,0-.344.5c0,.274-.016.549-.025.823,0,.028,0,.056,0,.084.191-.155.169-.388.18-.6" transform="translate(-50.558 -52.815)" fill="#e7b700"/>
        <path id="Trazado_602016" data-name="Trazado 602016" d="M64.953,62.6c.459-.028.616.131.613.61-.012,1.634-.072,3.27.034,4.9.015.237-.089.243-.256.241-.488-.007-.977-.014-1.465,0-.223.007-.472-.032-.63.184h2.614a2.566,2.566,0,0,1-.132-.536c-.006-1.726-.028-3.453.025-5.178.006-.187-.014-.286-.07-.339-.592-.005-1.184-.01-1.776-.007a1.637,1.637,0,0,0-.7.072,1.372,1.372,0,0,0,.448.05c.432.011.866.025,1.3,0" transform="translate(-53.682 -53.062)" fill="#e7b700"/>
        <path id="Trazado_602017" data-name="Trazado 602017" d="M62.864,62.218c.592,0,1.184,0,1.776.007-.057-.055-.153-.059-.3-.058-.788.008-1.576,0-2.364,0a.488.488,0,0,0,.186.12,1.637,1.637,0,0,1,.7-.072" transform="translate(-52.636 -52.797)" fill="#e7b700"/>
        <path id="Trazado_602018" data-name="Trazado 602018" d="M119.406,3.25a3.3,3.3,0,0,0,.169,5.286c.132.1.306.164.383.327l.21-.071a1.07,1.07,0,0,1,.32-.429,3.225,3.225,0,0,0-.727-5.51c-.01.2-.223.282-.355.4" transform="translate(-100.352 -2.424)" fill="#f9c500"/>
        <path id="Trazado_602019" data-name="Trazado 602019" d="M128.57,1.883a3.225,3.225,0,0,1,.727,5.51,1.069,1.069,0,0,0-.32.429l.125-.042c.082-.077.161-.158.246-.229a3.384,3.384,0,0,0-.814-5.84.385.385,0,0,1,.036.172" transform="translate(-109.161 -1.453)" fill="#f9c500"/>
        <path id="Trazado_602020" data-name="Trazado 602020" d="M118.673,2.778a3.448,3.448,0,0,0-1.49,3.307,3.375,3.375,0,0,0,1.925,2.565l.006,0c-.077-.164-.251-.224-.383-.327a3.3,3.3,0,0,1-.169-5.286c.132-.115.345-.2.355-.4l-.075-.038a.521.521,0,0,1-.17.177" transform="translate(-99.509 -2.209)" fill="#f9c500"/>
        <path id="Trazado_602021" data-name="Trazado 602021" d="M128.349,1.883a.384.384,0,0,0-.036-.172.313.313,0,0,1-.039.134l.075.038" transform="translate(-108.94 -1.453)" fill="#f9c500"/>
        <path id="Trazado_602022" data-name="Trazado 602022" d="M33.93,74.507a.247.247,0,0,1-.05.1l1.627.045,2.1-.008c0-.022,0-.043,0-.065-.033-.76-.01-1.52-.013-2.28a1.251,1.251,0,0,1,.086-.516,10.38,10.38,0,0,1-2.937.057c-.225-.022-.45-.038-.675-.051a.22.22,0,0,1,0,.035c-.145.892.039,1.8-.136,2.687" transform="translate(-28.773 -60.96)" fill="#f5a86c"/>
        <path id="Trazado_602023" data-name="Trazado 602023" d="M5.969,70.556c.468-.012.937-.006,1.4,0,.13,0,.332-.032.326.15.225.013.45.029.675.051a10.386,10.386,0,0,0,2.937-.057.807.807,0,0,1,.066-.123c-1.122,0-2.246.043-3.364-.019-1.663-.092-3.325-.023-4.986-.041-.065,0-.13.06-.2.091,1.043-.125,2.091-.024,3.136-.052" transform="translate(-2.406 -59.882)" fill="#f5a86c"/>
        <path id="Trazado_602024" data-name="Trazado 602024" d="M33.6,74.488c.175-.889-.008-1.8.136-2.687a.22.22,0,0,0,0-.035l-.186-.009c-.112.981-.029,1.907-.06,2.827l.058,0a.247.247,0,0,0,.05-.1" transform="translate(-28.439 -60.941)" fill="#f5a86c"/>
        <path id="Trazado_602025" data-name="Trazado 602025" d="M7.514,70.894,7.7,70.9c.006-.182-.2-.148-.326-.15-.468-.006-.937-.013-1.4,0-1.045.028-2.092-.073-3.136.052h4.69c0,.03-.006.059-.009.089" transform="translate(-2.406 -60.078)" fill="#f5a86c"/>
        <path id="Trazado_602026" data-name="Trazado 602026" d="M58.505,74.358c0,.022,0,.043,0,.065h.147l-.006-2.9a.428.428,0,0,1-.044.035l-.022,0a1.251,1.251,0,0,0-.086.516c0,.76-.02,1.52.013,2.28" transform="translate(-49.672 -60.742)" fill="#f5a86c"/>
        <path id="Trazado_602027" data-name="Trazado 602027" d="M59.112,71.083a.427.427,0,0,0,.044-.035c0-.028,0-.056,0-.084a.773.773,0,0,0-.066.123l.022,0" transform="translate(-50.184 -60.268)" fill="#f5a86c"/>
        <path id="Trazado_602028" data-name="Trazado 602028" d="M111.979,42.522a.351.351,0,0,1,.018.043.276.276,0,0,1-.082.144,2.976,2.976,0,0,1-3.151-.229.228.228,0,0,1,.027.043,8.67,8.67,0,0,1,.074,2.014c0,.455.17.643.63.631.693-.018,1.387-.007,2.08,0a1.357,1.357,0,0,1,.649.1,1.565,1.565,0,0,1-.088-.747c0-.649-.031-1.3.022-1.945,0-.017.006-.033.01-.05a.193.193,0,0,1-.187,0" transform="translate(-92.371 -36.076)" fill="#d6a902"/>
        <path id="Trazado_602029" data-name="Trazado 602029" d="M108.331,42.074l0,.013a.17.17,0,0,1,.021.011c-.008-.008-.018-.016-.026-.024" transform="translate(-92.003 -35.732)" fill="#d6a902"/>
        <path id="Trazado_602030" data-name="Trazado 602030" d="M131.1,42.144c-.053.647-.02,1.3-.022,1.945a1.567,1.567,0,0,0,.088.747.673.673,0,0,1,.1.067q-.007-1.464-.015-2.928a.788.788,0,0,1-.145.118c0,.017-.008.033-.01.05" transform="translate(-111.314 -35.648)" fill="#d6a902"/>
        <path id="Trazado_602031" data-name="Trazado 602031" d="M108.321,42.065l0,0v.011l.006,0,0-.013" transform="translate(-91.993 -35.723)" fill="#d6a902"/>
        <path id="Trazado_602032" data-name="Trazado 602032" d="M108.845,45.074c1.024-.026,2.05-.013,3.074-.015a.706.706,0,0,1-.041-.067,1.359,1.359,0,0,0-.649-.1c-.693,0-1.387-.015-2.08,0-.459.012-.626-.176-.63-.631a8.662,8.662,0,0,0-.074-2.014.228.228,0,0,0-.027-.043c-.013-.012-.027-.024-.039-.037a.184.184,0,0,0-.022-.011.7.7,0,0,1,.027.123c.03.712.016,1.422.012,2.133a2.418,2.418,0,0,1-.028.406c.05.183.184.261.476.254" transform="translate(-92.027 -35.805)" fill="#d6a902"/>
        <path id="Trazado_602033" data-name="Trazado 602033" d="M131.752,61.024h.062a.673.673,0,0,0-.1-.067.678.678,0,0,0,.041.067" transform="translate(-111.859 -51.769)" fill="#d6a902"/>
        <path id="Trazado_602034" data-name="Trazado 602034" d="M108.266,44.535a.925.925,0,0,0,.024.267,2.415,2.415,0,0,0,.028-.406c0-.711.018-1.421-.012-2.133a.7.7,0,0,0-.027-.123l-.006,0c0,.8.016,1.6-.007,2.4" transform="translate(-91.947 -35.787)" fill="#d6a902"/>
        <path id="Trazado_602035" data-name="Trazado 602035" d="M108.395,42.128a2.977,2.977,0,0,0,3.151.229.276.276,0,0,0,.082-.144.361.361,0,0,0-.018-.043l-.009,0a.864.864,0,0,1-.54.265,3.627,3.627,0,0,1-2.731-.366h0c.008.008.017.016.026.024a.18.18,0,0,1,.039.037" transform="translate(-92.001 -35.726)" fill="#d6a902"/>
        <path id="Trazado_602036" data-name="Trazado 602036" d="M108.321,42.062h0l0,0h0" transform="translate(-91.993 -35.721)" fill="#d6a902"/>
        <path id="Trazado_602037" data-name="Trazado 602037" d="M108.5,42.233c.012.013.026.025.039.037a.184.184,0,0,0-.039-.037" transform="translate(-92.148 -35.867)" fill="#d6a902"/>
        <path id="Trazado_602038" data-name="Trazado 602038" d="M130.078,42.332a.193.193,0,0,0,.187,0,.645.645,0,0,1,.021-.076l-.21.071,0,.006" transform="translate(-110.47 -35.886)" fill="#d6a902"/>
        <path id="Trazado_602039" data-name="Trazado 602039" d="M131.336,42.094a.793.793,0,0,0,.145-.118l-.125.042a.638.638,0,0,0-.02.076" transform="translate(-111.54 -35.649)" fill="#d6a902"/>
        <path id="Trazado_602040" data-name="Trazado 602040" d="M130.034,42.729l.009,0,0-.006-.006,0" transform="translate(-110.435 -36.287)" fill="#d6a902"/>
        <path id="Trazado_602041" data-name="Trazado 602041" d="M24.521,91.6a1.313,1.313,0,0,1,.1-.7c-.335,0-.671.022-1.006,0a.751.751,0,0,1-.533-.154l-.01.014a2.229,2.229,0,0,1-1.212.15c-.447.012-.657.209-.651.654,0,.15-.006.3-.006.451q0,19.261,0,38.521c0,.364-.092.762.229,1.062a.71.71,0,0,0,.114.072,1.2,1.2,0,0,1,.464-.054c.857-.007,1.714-.02,2.571.008a3.519,3.519,0,0,1-.073-.764q.006-19.632,0-39.263" transform="translate(-18.004 -77.07)" fill="#c7eefd"/>
        <path id="Trazado_602042" data-name="Trazado 602042" d="M20.616,131.472a.706.706,0,0,1-.114-.072c-.321-.3-.229-.7-.229-1.062q-.008-19.261,0-38.521c0-.15.008-.3.006-.451-.006-.444.2-.641.651-.654a2.23,2.23,0,0,0,1.212-.15l.01-.014a.479.479,0,0,1-.034-.035c-.356.006-.713.017-1.07.018-.944,0-.95.007-.95.94v39.177c0,.169,0,.338,0,.507a.455.455,0,0,0,.325.472h0a.456.456,0,0,1,.195-.156" transform="translate(-17.064 -76.871)" fill="#c7eefd"/>
        <path id="Trazado_602043" data-name="Trazado 602043" d="M24.025,361.848a1.2,1.2,0,0,0-.465.054,2.143,2.143,0,0,0,.911.075,1.649,1.649,0,0,1,.467.069l1.7-.013c-.018-.059-.031-.118-.044-.177-.857-.028-1.714-.015-2.571-.008" transform="translate(-20.009 -307.301)" fill="#c7eefd"/>
        <path id="Trazado_602044" data-name="Trazado 602044" d="M22.463,362.258a.456.456,0,0,0-.195.156l1.573-.012a1.651,1.651,0,0,0-.467-.069,2.143,2.143,0,0,1-.911-.075" transform="translate(-18.912 -307.657)" fill="#c7eefd"/>
        <path id="Trazado_602045" data-name="Trazado 602045" d="M34.252,90.713c.335.02.67,0,1.006,0a.627.627,0,0,1,.113-.142l-1.627-.045-.024.034a.751.751,0,0,0,.533.154" transform="translate(-28.637 -76.881)" fill="#c7eefd"/>
        <path id="Trazado_602046" data-name="Trazado 602046" d="M33.551,90.516l-.058,0a.423.423,0,0,0,.034.035l.024-.034" transform="translate(-28.445 -76.871)" fill="#c7eefd"/>
        <path id="Trazado_602047" data-name="Trazado 602047" d="M69.142,119.213c-.243-.1-.232-.314-.232-.52q.006-4.649.014-9.3h0a7.054,7.054,0,0,1-2.41-1.963,1.174,1.174,0,0,1-.893.29q-5.944,0-11.888,0a1.682,1.682,0,0,1-.607-.09.821.821,0,0,1,.188-1.584,4.7,4.7,0,0,1,.563-.014q5.578,0,11.155,0c.182,0,.364-.014.546-.025-.018-.033-.038-.066-.055-.1a7.948,7.948,0,0,1-.805-3.4l-10.85-.008a4.265,4.265,0,0,1-.563-.016.821.821,0,0,1-.168-1.587,1.741,1.741,0,0,1,.609-.085q5.6,0,11.2,0v0a7.1,7.1,0,0,1,.373-1.162L53.9,99.634c-.15,0-.3.008-.45,0a.867.867,0,0,1-.867-.855.84.84,0,0,1,.884-.829c.863-.015,1.727-.005,2.59-.005h9.516a1.565,1.565,0,0,1,.668.07l.022-.03a7.9,7.9,0,0,1,4.516-2.97,1.12,1.12,0,0,1-.108-.629c-.009-.824.007-1.649-.008-2.473-.01-.56-.1-.654-.662-.663-1.4-.021-2.809,0-4.214-.011a1.306,1.306,0,0,1-.707-.1c-.143.489.042,1.01-.138,1.5-.217.4-.6.41-.98.411-1.484.006-2.968,0-4.453,0-2.518,0-5.035.018-7.552-.007-1.316-.013-2.623.2-3.939.117-.271-.016-.576.052-.762-.241.007-.011.015-.019.022-.029l-.033,0h0c-.469.15-.614-.158-.67-.515a6.6,6.6,0,0,1-.028-1.207,3.294,3.294,0,0,1-1.148.073,8.38,8.38,0,0,1-.939,0c.019.4-.048.8-.048,1.2q.009,19.183,0,38.365a4.471,4.471,0,0,1,0,1.152c.223-.02.446-.011.669-.011H69.515c1.147,0,1.147,0,1.147-1.144q0-5.773,0-11.547a6.253,6.253,0,0,1,.029-.9.989.989,0,0,1,.034-.124c-.361.273-.722.548-1.086.816-.145.107-.281.259-.5.169M45.155,99.261a.849.849,0,0,1,1.251.043l.041.039c.325.309.705.91.961.861.4-.076.716-.591,1.062-.926.31-.3.6-.617.918-.91a.841.841,0,1,1,1.177,1.2c-.824.846-1.664,1.675-2.5,2.509a.789.789,0,0,1-.626.274.821.821,0,0,1-.666-.292c-.516-.518-1.041-1.026-1.549-1.552a.831.831,0,0,1-.07-1.244m5.362,24.58c-.8.794-1.59,1.6-2.394,2.388a.85.85,0,0,1-1.371.019q-.77-.744-1.514-1.515a.838.838,0,0,1-.094-1.247.857.857,0,0,1,1.291.058c.345.306.621.92,1.023.861.377-.055.685-.592,1.02-.919s.661-.668,1.007-.985a.763.763,0,0,1,.892-.112.846.846,0,0,1,.49.749,1.1,1.1,0,0,1-.35.7m-5.53-8.184a.862.862,0,0,1,.868-.5c.346-.021.585.322.862.595.716.707.714.709,1.434-.011.385-.385.766-.775,1.157-1.155.458-.444.914-.481,1.29-.119a.837.837,0,0,1-.076,1.289q-1.205,1.226-2.431,2.43a.836.836,0,0,1-1.293.036c-.559-.529-1.1-1.08-1.632-1.635a.782.782,0,0,1-.178-.932m5.528-7.953c-.8.795-1.588,1.6-2.393,2.387a.851.851,0,0,1-1.373.014q-.771-.743-1.513-1.514a.839.839,0,0,1-.092-1.247.87.87,0,0,1,1.293.06c.345.3.609.906,1.026.857.355-.042.654-.569.976-.883.35-.34.691-.69,1.05-1.02a.765.765,0,0,1,.892-.108.843.843,0,0,1,.486.754,1.12,1.12,0,0,1-.353.7m2.084,1.889a.892.892,0,0,1,1-.708c2.027.008,4.055,0,6.082,0q2.985,0,5.97,0c.693,0,1.1.322,1.1.852s-.4.839-1.107.839q-6,0-12,0c-.725,0-1.182-.422-1.052-.986m1.054,4.485q6.026,0,12.051,0c.646,0,1.048.332,1.049.845s-.394.843-1.045.844q-3.041,0-6.082,0-2.985,0-5.969,0c-.69,0-1.092-.331-1.075-.868.017-.509.414-.822,1.07-.822m12.159,12.635c-2.064.008-4.129,0-6.193,0-2.027,0-4.054,0-6.081,0a.854.854,0,0,1-.954-.816.883.883,0,0,1,.964-.871c.094,0,.188,0,.282,0H65.484c.113,0,.225,0,.338,0a.882.882,0,0,1,.931.854.857.857,0,0,1-.941.831m-.015-2.862c-1.221.021-2.443.008-3.665.009H53.956a3.863,3.863,0,0,1-.562-.021.832.832,0,0,1-.805-.855.818.818,0,0,1,.892-.811q6.174-.01,12.349,0a.837.837,0,0,1,.924.842.889.889,0,0,1-.956.837m.076-5.19a5.3,5.3,0,0,1-.562.01q-5.122,0-10.244,0a9.036,9.036,0,0,1-1.8-.049.767.767,0,0,1-.673-.891.783.783,0,0,1,.836-.746c.15,0,.3,0,.45,0h5.8c2.045,0,4.09,0,6.135,0a.85.85,0,0,1,.938.769.9.9,0,0,1-.882.91" transform="translate(-37.715 -77.402)" fill="#def5fc"/>
        <path id="Trazado_602048" data-name="Trazado 602048" d="M70.34,270.477a6.273,6.273,0,0,0-.029.9q0,5.773,0,11.547c0,1.143,0,1.144-1.147,1.144H44.725c-.223,0-.446-.009-.669.011a1.11,1.11,0,0,1-.063.181l23.785,0c.733,0,1.466-.012,2.2,0,.385.008.536-.14.535-.53q-.017-6.737-.018-13.475l-.12.091a1.014,1.014,0,0,0-.034.125" transform="translate(-37.362 -229.527)" fill="#def5fc"/>
        <path id="Trazado_602049" data-name="Trazado 602049" d="M64.061,92.766c1.316.079,2.623-.13,3.939-.117,2.517.025,5.035.008,7.552.007,1.484,0,2.968,0,4.453,0,.381,0,.763-.013.98-.411.18-.486-.005-1.007.138-1.5a.624.624,0,0,1-.093-.07c-.068.481.1.979-.1,1.45-.151.421-.509.371-.845.373-4.871.028-9.742-.053-14.613.042a11.5,11.5,0,0,1-2.148-.046.339.339,0,0,0-.022.029c.185.294.49.225.762.241" transform="translate(-53.758 -77.009)" fill="#def5fc"/>
        <path id="Trazado_602050" data-name="Trazado 602050" d="M180.687,148.736v0h.129l.365-1.165h-.12a7.1,7.1,0,0,0-.374,1.162" transform="translate(-153.452 -125.331)" fill="#def5fc"/>
        <path id="Trazado_602051" data-name="Trazado 602051" d="M189.28,119.816l-.022.03a.661.661,0,0,1,.1.053c.186-.209.372-.419.559-.627a8.117,8.117,0,0,1,3.971-2.32h0a.549.549,0,0,1-.088-.106,7.9,7.9,0,0,0-4.516,2.97" transform="translate(-160.732 -99.234)" fill="#def5fc"/>
        <path id="Trazado_602052" data-name="Trazado 602052" d="M193.473,200.777h0q0-.067,0-.133a9.081,9.081,0,0,1-2.343-1.9.912.912,0,0,1-.069.074,7.057,7.057,0,0,0,2.41,1.963" transform="translate(-162.265 -168.785)" fill="#def5fc"/>
        <path id="Trazado_602053" data-name="Trazado 602053" d="M179.95,169.919c.018.034.037.066.055.1l.127-.008h0a9.057,9.057,0,0,1-.843-3.493h-.145a7.948,7.948,0,0,0,.805,3.4" transform="translate(-152.144 -141.42)" fill="#def5fc"/>
        <path id="Trazado_602054" data-name="Trazado 602054" d="M181.558,90.74a1.308,1.308,0,0,0,.707.1c1.4.009,2.809-.01,4.214.011.565.008.652.1.662.663.015.824,0,1.649.008,2.473a1.12,1.12,0,0,0,.108.629l.088-.022q0-1.456-.005-2.913c0-1,0-1-.977-1l-4.786-.007c0,.015-.007.029-.01.044s0,.018-.007.027" transform="translate(-154.193 -77.003)" fill="#def5fc"/>
        <path id="Trazado_602055" data-name="Trazado 602055" d="M180.933,90.645h0l0,0,0,0" transform="translate(-153.662 -76.979)" fill="#def5fc"/>
        <path id="Trazado_602056" data-name="Trazado 602056" d="M181.037,90.739c0-.009,0-.018.007-.027s.007-.029.01-.044h-.11a.6.6,0,0,0,.093.07" transform="translate(-153.671 -77.002)" fill="#def5fc"/>
        <path id="Trazado_602057" data-name="Trazado 602057" d="M219.452,116.828c0-.043,0-.085,0-.128l-.088.022a.555.555,0,0,0,.088.106" transform="translate(-186.301 -99.11)" fill="#def5fc"/>
        <path id="Trazado_602058" data-name="Trazado 602058" d="M58.512,90.842a6.626,6.626,0,0,0,.028,1.207c.057.356.2.665.67.515h0c-.4-.023-.534-.265-.533-.632,0-.39-.011-.779-.017-1.169a.943.943,0,0,1-.148.079" transform="translate(-49.682 -77.083)" fill="#def5fc"/>
        <path id="Trazado_602059" data-name="Trazado 602059" d="M44.685,90.918a8.383,8.383,0,0,0,.939,0,3.294,3.294,0,0,0,1.147-.073c0-.026,0-.052,0-.078l-2.1.008c0,.047.008.095.01.142" transform="translate(-37.941 -77.086)" fill="#def5fc"/>
        <path id="Trazado_602060" data-name="Trazado 602060" d="M58.735,90.763h-.147c0,.026,0,.052,0,.078a.936.936,0,0,0,.148-.079" transform="translate(-49.757 -77.083)" fill="#def5fc"/>
        <path id="Trazado_602061" data-name="Trazado 602061" d="M43.395,131.33q.013-19.183,0-38.365c0-.4.068-.8.048-1.2h0c-.04,0-.08,0-.121,0a1.313,1.313,0,0,0-.1.7q0,19.631,0,39.263a3.53,3.53,0,0,0,.073.764h.045l.062,0a4.478,4.478,0,0,0,0-1.152" transform="translate(-36.701 -77.931)" fill="#def5fc"/>
        <path id="Trazado_602062" data-name="Trazado 602062" d="M43.746,361.932H43.7c.013.059.026.118.044.177a1.111,1.111,0,0,0,.063-.181l-.062,0" transform="translate(-37.114 -307.376)" fill="#def5fc"/>
        <path id="Trazado_602063" data-name="Trazado 602063" d="M44.047,90.963h0c0-.047-.005-.095-.01-.142a.624.624,0,0,0-.113.142h.121" transform="translate(-37.305 -77.132)" fill="#def5fc"/>
        <path id="Trazado_602064" data-name="Trazado 602064" d="M210.447,219.712q-.01-2.815,0-5.63a1.243,1.243,0,0,1,.094-.625,7.639,7.639,0,0,1-2.739-.807,1.842,1.842,0,0,1,.06.67c0,2.664,0,5.328.005,7.992,0,.271-.118.645.154.782.307.155.52-.207.763-.362s.429-.41.745-.4c.2-.444.7-.621,1.017-.96l.012-.009a1.093,1.093,0,0,1-.113-.649" transform="translate(-176.481 -180.599)" fill="#e31f2d"/>
        <path id="Trazado_602065" data-name="Trazado 602065" d="M220.286,263.812c-.318.34-.813.517-1.017.96a.531.531,0,0,1,.082,0l1.023-.883a.557.557,0,0,1-.076-.09l-.013.009" transform="translate(-186.22 -224.042)" fill="#e31f2d"/>
        <path id="Trazado_602066" data-name="Trazado 602066" d="M207.175,211.568a7.641,7.641,0,0,0,2.739.807.59.59,0,0,1,.087-.12,9.2,9.2,0,0,1-2.937-.879.7.7,0,0,1,.111.192" transform="translate(-175.854 -179.517)" fill="#e31f2d"/>
        <path id="Trazado_602067" data-name="Trazado 602067" d="M225.418,218.007a1.241,1.241,0,0,0-.094.625q-.008,2.815,0,5.63a1.093,1.093,0,0,0,.113.649l.076-.053q0-3.419-.008-6.838l-.087-.011" transform="translate(-191.358 -185.148)" fill="#e31f2d"/>
        <path id="Trazado_602068" data-name="Trazado 602068" d="M226.174,263.452l-.076.053a.553.553,0,0,0,.077.09c0-.048,0-.1,0-.143" transform="translate(-192.02 -223.743)" fill="#e31f2d"/>
        <path id="Trazado_602069" data-name="Trazado 602069" d="M225.973,217.331l.087.011c0-.044,0-.088,0-.131a.59.59,0,0,0-.087.12" transform="translate(-191.913 -184.472)" fill="#e31f2d"/>
        <path id="Trazado_602070" data-name="Trazado 602070" d="M208.076,221.4c-.243.156-.456.517-.763.362-.271-.137-.153-.511-.154-.782-.007-2.664,0-5.328-.005-7.992a1.842,1.842,0,0,0-.06-.67c-.037-.02-.075-.038-.112-.059q-.007,4.649-.014,9.3c0,.206-.011.419.232.52.217.09.353-.062.5-.169.365-.269.725-.543,1.086-.816a.914.914,0,0,1,.037-.1c-.317-.007-.505.25-.745.4" transform="translate(-175.772 -180.267)" fill="#e31f2d"/>
        <path id="Trazado_602071" data-name="Trazado 602071" d="M219.021,270.328l.12-.091a.559.559,0,0,0-.082,0,.993.993,0,0,0-.037.1" transform="translate(-186.009 -229.502)" fill="#e31f2d"/>
        <path id="Trazado_602072" data-name="Trazado 602072" d="M207.174,211.568a.7.7,0,0,0-.111-.192c0,.044,0,.089,0,.133.037.021.074.039.112.059" transform="translate(-175.853 -179.517)" fill="#e31f2d"/>
        <path id="Trazado_602073" data-name="Trazado 602073" d="M206.927,154.158c.69.666,1.356,1.355,2.04,2.027.568.557.857.556,1.423-.006q1.7-1.689,3.39-3.389c.066-.066.133-.133.193-.205a.668.668,0,0,0,.045-.964.755.755,0,0,0-1.024-.011,6.715,6.715,0,0,0-.566.549c-.718.717-1.434,1.437-2.154,2.153-.561.557-.633.557-1.18.017-.374-.37-.75-.738-1.115-1.117a.971.971,0,0,0-1.35-.26.239.239,0,0,1-.193.042l-.013.011a1.039,1.039,0,0,1-.007.845l.021.022c.237-.089.355.156.49.286" transform="translate(-175.304 -128.594)" fill="#fefefe"/>
        <path id="Trazado_602074" data-name="Trazado 602074" d="M206.741,151.943a.971.971,0,0,1,1.35.26c.365.379.741.748,1.115,1.117.546.539.619.54,1.18-.017.72-.715,1.435-1.436,2.154-2.152a6.692,6.692,0,0,1,.566-.549.755.755,0,0,1,1.024.011.669.669,0,0,1-.045.964c-.061.072-.127.139-.193.205q-1.694,1.7-3.39,3.389c-.566.563-.856.563-1.423.006-.684-.671-1.35-1.361-2.04-2.027-.135-.13-.253-.374-.49-.286.828.829,1.653,1.661,2.484,2.487a.893.893,0,0,0,1.492.008q1.778-1.766,3.544-3.545c.475-.478.527-.952.164-1.332s-.885-.331-1.373.155c-.931.927-1.865,1.852-2.783,2.793-.218.224-.352.251-.577.009-.46-.495-.948-.963-1.43-1.437-.562-.554-.933-.556-1.524-.017a.239.239,0,0,0,.193-.042" transform="translate(-175.416 -127.585)" fill="#fefefe"/>
        <path id="Trazado_602075" data-name="Trazado 602075" d="M206.089,161.961h0a1.457,1.457,0,0,0-.007.845,1.04,1.04,0,0,0,.007-.845" transform="translate(-174.971 -137.55)" fill="#fefefe"/>
        <path id="Trazado_602076" data-name="Trazado 602076" d="M88.327,78.054c1.314,0,2.628,0,3.942,0,1.389,0,2.778,0,4.168,0a.823.823,0,0,0,.239-1.618,2.267,2.267,0,0,0-.665-.075q-2.9,0-5.8,0c-.638,0-1.278-.025-1.914.009a.857.857,0,0,0-.931,1c.03.477.308.678.963.679" transform="translate(-74.194 -64.845)" fill="#e7b700"/>
        <path id="Trazado_602077" data-name="Trazado 602077" d="M180.218,90.67h0c-.239.469-.06.968-.1,1.451h0c.128-.477-.052-.975.1-1.45" transform="translate(-152.946 -77.003)" fill="#f5a86c"/>
        <path id="Trazado_602078" data-name="Trazado 602078" d="M180.936,90.668h0" transform="translate(-153.664 -77.002)" fill="#f5a86c"/>
        <path id="Trazado_602079" data-name="Trazado 602079" d="M180.942,90.645v0Z" transform="translate(-153.67 -76.979)" fill="#f5a86c"/>
        <path id="Trazado_602080" data-name="Trazado 602080" d="M180.361,90.673h0c-.154.475.025.974-.1,1.45h0c.207-.471.036-.969.1-1.45" transform="translate(-153.089 -77.006)" fill="#f5a86c"/>
        <path id="Trazado_602081" data-name="Trazado 602081" d="M180.938,90.641l0,0h0v0" transform="translate(-153.665 -76.979)" fill="#f5a86c"/>
        <path id="Trazado_602082" data-name="Trazado 602082" d="M180.94,90.669h0" transform="translate(-153.668 -77.002)" fill="#f5a86c"/>
        <path id="Trazado_602083" data-name="Trazado 602083" d="M112.24,190.475c-3.547.01-7.094.006-10.64.006a5.013,5.013,0,0,0-.731.029.595.595,0,0,0-.173,1.157,1.566,1.566,0,0,0,.766.15c3.791.007,7.582,0,11.372.008a8.276,8.276,0,0,0,1.09-.217,10.619,10.619,0,0,1-.838-1.279c-.234.235-.561.146-.846.147" transform="translate(-85.175 -161.641)" fill="#02cffa"/>
        <path id="Trazado_602084" data-name="Trazado 602084" d="M186.018,191.07c.039,0,.078-.01.117-.012l-.877-1.363a.618.618,0,0,1-.078.1,10.612,10.612,0,0,0,.838,1.28" transform="translate(-157.269 -161.103)" fill="#02cffa"/>
        <path id="Trazado_602085" data-name="Trazado 602085" d="M112.555,191.112a8.276,8.276,0,0,1-1.09.217c-3.791-.007-7.582,0-11.372-.008a1.565,1.565,0,0,1-.766-.15.595.595,0,0,1,.173-1.157,5.034,5.034,0,0,1,.73-.029c3.547,0,7.094,0,10.641-.006.285,0,.612.088.846-.147l-.049-.088c-.182.012-.364.025-.546.025q-5.578,0-11.155,0a4.7,4.7,0,0,0-.563.014.821.821,0,0,0-.188,1.584,1.678,1.678,0,0,0,.607.09q5.944.007,11.888,0a1.174,1.174,0,0,0,.893-.29c-.016-.021-.033-.04-.048-.062h0" transform="translate(-83.806 -161.145)" fill="#02cffa"/>
        <path id="Trazado_602086" data-name="Trazado 602086" d="M190.74,198.753c.015.021.032.04.048.061a.93.93,0,0,0,.069-.074c-.04,0-.079.007-.118.012h0" transform="translate(-161.99 -168.785)" fill="#02cffa"/>
        <path id="Trazado_602087" data-name="Trazado 602087" d="M184.854,189.7l.049.088a.615.615,0,0,0,.078-.1h0l-.127.008" transform="translate(-156.992 -161.102)" fill="#02cffa"/>
        <path id="Trazado_602088" data-name="Trazado 602088" d="M101.5,137.352a2.578,2.578,0,0,0-.837.07.611.611,0,0,0-.006,1.19,2.5,2.5,0,0,0,.837.074q5.206,0,10.412,0a1.354,1.354,0,0,1,.824.117,13.555,13.555,0,0,1,.818-1.477,2.836,2.836,0,0,1-.453.025c-3.865-.009-7.729,0-11.594,0" transform="translate(-85.086 -116.631)" fill="#01cffa"/>
        <path id="Trazado_602089" data-name="Trazado 602089" d="M183.407,138.611a.646.646,0,0,1,.083.067l.894-1.579a1.323,1.323,0,0,1-.16.035,13.557,13.557,0,0,0-.818,1.477" transform="translate(-155.763 -116.435)" fill="#01cffa"/>
        <path id="Trazado_602090" data-name="Trazado 602090" d="M111.415,137.893a1.354,1.354,0,0,0-.824-.117q-5.206-.009-10.412,0a2.5,2.5,0,0,1-.837-.074.611.611,0,0,1,.006-1.19,2.578,2.578,0,0,1,.837-.07c3.865,0,7.729-.005,11.594,0a2.834,2.834,0,0,0,.453-.025c.021-.029.042-.059.064-.088a1.565,1.565,0,0,0-.668-.07h-9.516c-.863,0-1.727-.01-2.59.005a.84.84,0,0,0-.884.829.867.867,0,0,0,.867.855c.149.011.3,0,.45,0l11.423.011h0l.036-.066" transform="translate(-83.771 -115.717)" fill="#01cffa"/>
        <path id="Trazado_602091" data-name="Trazado 602091" d="M183.2,147.131l-.036.066h.119a.647.647,0,0,0-.084-.067" transform="translate(-155.56 -124.955)" fill="#01cffa"/>
        <path id="Trazado_602092" data-name="Trazado 602092" d="M188.832,136.836a1.326,1.326,0,0,0,.16-.035.662.662,0,0,0-.1-.053c-.022.029-.043.058-.064.088" transform="translate(-160.37 -116.137)" fill="#01cffa"/>
        <path id="Trazado_602093" data-name="Trazado 602093" d="M111.7,155.838q-4.951.006-9.9,0a2.359,2.359,0,0,0-1,.123.635.635,0,0,0-.462.637.611.611,0,0,0,.613.553,6.325,6.325,0,0,0,.731.022q4.895,0,9.79,0a1.319,1.319,0,0,1,.747.088,10.264,10.264,0,0,1,.213-1.489,2.015,2.015,0,0,1-.732.057" transform="translate(-85.208 -132.301)" fill="#01cffa"/>
        <path id="Trazado_602094" data-name="Trazado 602094" d="M179.385,155.378a10.263,10.263,0,0,0-.213,1.489.584.584,0,0,1,.141.13l.216-1.69h0a.735.735,0,0,1-.143.071" transform="translate(-152.166 -131.898)" fill="#01cffa"/>
        <path id="Trazado_602095" data-name="Trazado 602095" d="M110.815,156.834a1.32,1.32,0,0,0-.747-.088q-4.895-.011-9.79,0a6.355,6.355,0,0,1-.731-.022.612.612,0,0,1-.613-.553.635.635,0,0,1,.462-.636,2.36,2.36,0,0,1,1-.124q4.951,0,9.9,0a2.018,2.018,0,0,0,.732-.057c.005-.024.009-.048.015-.072q-5.6,0-11.2-.005a1.742,1.742,0,0,0-.609.085.821.821,0,0,0,.168,1.587,4.27,4.27,0,0,0,.563.016l10.85.007c0-.017,0-.034,0-.051s0-.052.006-.078" transform="translate(-83.809 -131.865)" fill="#01cffa"/>
        <path id="Trazado_602096" data-name="Trazado 602096" d="M180.588,155.377a.737.737,0,0,0,.143-.071H180.6c-.005.024-.009.048-.015.072" transform="translate(-153.369 -131.897)" fill="#01cffa"/>
        <path id="Trazado_602097" data-name="Trazado 602097" d="M179.135,165.658c0,.026,0,.052-.007.078s0,.034,0,.051h.145a.581.581,0,0,0-.141-.13" transform="translate(-152.13 -140.689)" fill="#01cffa"/>
        <path id="Trazado_602098" data-name="Trazado 602098" d="M99.715,245.01q2.985,0,5.969,0,3.041,0,6.082,0c.651,0,1.046-.328,1.045-.844s-.4-.845-1.049-.845q-6.026,0-12.051,0c-.656,0-1.053.313-1.07.822-.017.537.385.867,1.075.868" transform="translate(-83.772 -206.644)" fill="#01cffa"/>
        <path id="Trazado_602099" data-name="Trazado 602099" d="M99.677,210.566q6,0,12,0c.7,0,1.1-.308,1.107-.839s-.406-.851-1.1-.852q-2.985,0-5.97,0c-2.027,0-4.055,0-6.082,0a.892.892,0,0,0-1,.708c-.13.564.328.986,1.052.986" transform="translate(-83.741 -177.39)" fill="#01cffa"/>
        <path id="Trazado_602100" data-name="Trazado 602100" d="M111.884,315.957c-.112-.006-.225,0-.338,0H99.892c-.094,0-.188,0-.282,0a.883.883,0,0,0-.964.871.854.854,0,0,0,.954.816c2.027.008,4.054,0,6.081,0,2.064,0,4.129,0,6.193,0a.857.857,0,0,0,.941-.831.883.883,0,0,0-.931-.855" transform="translate(-83.777 -268.332)" fill="#01cffa"/>
        <path id="Trazado_602101" data-name="Trazado 602101" d="M111.922,262.575c-2.045-.007-4.09,0-6.135,0h-5.8c-.15,0-.3,0-.45,0a.783.783,0,0,0-.836.746.767.767,0,0,0,.673.891,9.039,9.039,0,0,0,1.8.049q5.122.01,10.244,0a5.3,5.3,0,0,0,.563-.01.9.9,0,0,0,.882-.91.85.85,0,0,0-.938-.769" transform="translate(-83.82 -222.995)" fill="#02cffa"/>
        <path id="Trazado_602102" data-name="Trazado 602102" d="M111.919,297.005q-6.174-.009-12.349,0a.818.818,0,0,0-.892.811.832.832,0,0,0,.805.855,3.862,3.862,0,0,0,.562.021h8.176c1.222,0,2.444.011,3.665-.009a.889.889,0,0,0,.956-.837.837.837,0,0,0-.924-.842" transform="translate(-83.804 -252.236)" fill="#02cffa"/>
        <path id="Trazado_602103" data-name="Trazado 602103" d="M53.193,190.866a.765.765,0,0,0-.892.108c-.359.33-.7.68-1.05,1.02-.323.314-.621.84-.976.883-.416.049-.681-.554-1.026-.857a.87.87,0,0,0-1.293-.06.839.839,0,0,0,.092,1.247q.744.769,1.513,1.514a.851.851,0,0,0,1.373-.014c.805-.788,1.595-1.592,2.393-2.387a1.12,1.12,0,0,0,.353-.7.843.843,0,0,0-.486-.754" transform="translate(-40.526 -162.018)" fill="#47a820"/>
        <path id="Trazado_602104" data-name="Trazado 602104" d="M49.588,248.285a.836.836,0,0,0,1.293-.036q1.228-1.2,2.431-2.43a.838.838,0,0,0,.076-1.289c-.376-.362-.833-.325-1.29.119-.391.379-.772.769-1.157,1.155-.72.721-.718.719-1.434.012-.277-.273-.516-.616-.862-.595a.862.862,0,0,0-.867.5.782.782,0,0,0,.178.932c.534.554,1.074,1.105,1.633,1.635" transform="translate(-40.506 -207.465)" fill="#47a820"/>
        <path id="Trazado_602105" data-name="Trazado 602105" d="M53.19,297.944a.762.762,0,0,0-.892.112c-.346.317-.671.657-1.007.985s-.644.863-1.021.919c-.4.059-.679-.555-1.023-.861a.857.857,0,0,0-1.291-.058.838.838,0,0,0,.094,1.247q.745.769,1.514,1.515a.85.85,0,0,0,1.371-.018c.8-.79,1.594-1.594,2.394-2.388a1.1,1.1,0,0,0,.35-.7.846.846,0,0,0-.49-.749" transform="translate(-40.528 -252.957)" fill="#47a820"/>
        <path id="Trazado_602106" data-name="Trazado 602106" d="M49.585,141.166a.821.821,0,0,0,.666.292.789.789,0,0,0,.626-.274c.836-.834,1.676-1.663,2.5-2.509a.841.841,0,1,0-1.177-1.2c-.316.292-.609.61-.918.91-.346.335-.664.849-1.062.926-.256.049-.637-.552-.961-.861l-.041-.039a.85.85,0,0,0-1.251-.043.831.831,0,0,0,.07,1.244c.507.526,1.032,1.035,1.549,1.552" transform="translate(-40.526 -116.511)" fill="#47a820"/>
      </g>
    </g>
  </g>
</svg>
