<svg xmlns="http://www.w3.org/2000/svg" xmlns:xlink="http://www.w3.org/1999/xlink" width="85" height="85" viewBox="0 0 85 85">
  <defs>
    <clipPath id="clip-path">
      <rect id="Rectángulo_300822" data-name="Rectángulo 300822" width="55.448" height="50.34" fill="none"/>
    </clipPath>
  </defs>
  <g id="Grupo_886489" data-name="Grupo 886489" transform="translate(-671 -14043.487)">
    <g id="Elipse_6607" data-name="Elipse 6607" transform="translate(671 14043.487)" fill="#fff" stroke="#72e0fa" stroke-width="1">
      <circle cx="42.5" cy="42.5" r="42.5" stroke="none"/>
      <circle cx="42.5" cy="42.5" r="42" fill="none"/>
    </g>
    <g id="Grupo_886131" data-name="Grupo 886131" transform="translate(685.705 14060.851)">
      <g id="Grupo_886130" data-name="Grupo 886130" clip-path="url(#clip-path)">
        <path id="Trazado_601622" data-name="Trazado 601622" d="M.237,30.284a4.031,4.031,0,0,0,1.036,1.564Q9.765,40.341,18.26,48.83l0,0a22.018,22.018,0,0,0,3.28-3.053h0a.944.944,0,0,1-.485-.325Q13.426,37.819,5.794,30.18c-.517-.518-.5-.8.056-1.359L23.417,11.254c.344-.344.683-.694,1.029-1.038.571-.567.869-.563,1.454.016.192.19.383.382.574.574q7.176,7.176,14.355,14.35a3.036,3.036,0,0,1,.617.809c1.035-1.173,2.165-2.255,3.3-3.33a3.121,3.121,0,0,0,1.074-2.559c-.063-1.735-.288-3.462-.231-5.2a3.73,3.73,0,0,0-1.84-1.263,4.612,4.612,0,0,1-5.96,1.821c-.762-.119-1.134-.747-1.589-1.25a2.735,2.735,0,0,1-.555-1.025h0a4.693,4.693,0,0,1,3.53-6.318,4.323,4.323,0,0,1,5.212,3.732,3.317,3.317,0,0,0,.827.43l.041-.022c-.009-1.958-.193-3.906-.308-5.859a16.542,16.542,0,0,0-.307-3.172c-2.457-.106-4.911-.286-7.368-.416-1.528-.081-3.054-.193-4.584-.249-1.313-.049-2.623-.155-3.936-.221a2.674,2.674,0,0,0-2.152.905Q17.887,10.708,9.152,19.423q-3.884,3.884-7.77,7.767A4,4,0,0,0,.257,28.754c-.036.111-.083.251-.257.22v1.083c.187-.038.2.119.237.227" transform="translate(0 -0.904)" fill="#c7e973"/>
        <path id="Trazado_601623" data-name="Trazado 601623" d="M17.831,219.964c.114.114.239.216.358.324h0l.075-.048,0,0q-8.5-8.482-16.987-16.982a4.031,4.031,0,0,1-1.036-1.564c-.036-.108-.05-.265-.237-.227a4.993,4.993,0,0,0,1.429,2.11q8.209,8.188,16.4,16.393" transform="translate(0 -172.308)" fill="#c7e973"/>
        <path id="Trazado_601624" data-name="Trazado 601624" d="M.257,27.85a4,4,0,0,1,1.125-1.564q3.889-3.879,7.77-7.767Q17.877,9.794,26.6,1.063A2.674,2.674,0,0,1,28.748.157c1.312.066,2.623.172,3.935.221,1.53.057,3.056.169,4.584.25,2.456.13,4.91.31,7.368.416C44.624,1,44.616.96,44.6.918,43.419.843,42.233.76,41.047.7c-2.859-.157-5.719-.3-8.578-.46C31.606.187,30.741.144,29.884.044A4.27,4.27,0,0,0,26.021,1.39c-8.112,8.218-16.3,16.36-24.47,24.52A5.445,5.445,0,0,0,0,28.07c.174.031.221-.109.257-.22" transform="translate(0 0)" fill="#c7e973"/>
        <path id="Trazado_601625" data-name="Trazado 601625" d="M147.468,117.074h0q2.246-2.262,4.492-4.523c1.793-1.8,3.567-3.619,5.4-5.376a3.157,3.157,0,0,0,1.159-2.756,18.57,18.57,0,0,0-4.651-7.181c.061,1.892.271,3.777.256,5.674a2.028,2.028,0,0,1-.512,1.442c-1.258,1.314-2.526,2.619-3.867,3.85a.261.261,0,0,1-.123.033,1.423,1.423,0,0,1-.459.822q-9.282,9.27-18.553,18.552a1.2,1.2,0,0,1-.864.434c.014.187-.123.3-.237.416-.706.714-1.407,1.433-2.134,2.125a1.75,1.75,0,0,1-.9.548q.642.659,1.3,1.3a2.756,2.756,0,0,0,4.129-.02q6.317-6.312,12.632-12.625c.2-.2.362-.477.7-.485a31.073,31.073,0,0,1,2.235-2.232" transform="translate(-108.177 -83.169)" fill="#a9d780"/>
        <path id="Trazado_601626" data-name="Trazado 601626" d="M143.89,250.255q-6.32,6.309-12.632,12.625a2.756,2.756,0,0,1-4.129.021q-.656-.644-1.3-1.3a1.044,1.044,0,0,1-.109.014h0c.411.428.815.863,1.235,1.283a2.858,2.858,0,0,0,4.453.023q6.336-6.328,12.666-12.662c.152-.152.315-.3.473-.442h0l.04-.043c-.334.007-.5.285-.7.485" transform="translate(-107.531 -213.633)" fill="#a9d780"/>
        <path id="Trazado_601627" data-name="Trazado 601627" d="M127.176,312.716c.727-.692,1.428-1.412,2.133-2.125.115-.116.251-.229.237-.416h-.026a22.009,22.009,0,0,1-3.28,3.054l.034.034a1.748,1.748,0,0,0,.9-.548" transform="translate(-107.977 -265.299)" fill="#a9d780"/>
        <path id="Trazado_601628" data-name="Trazado 601628" d="M286.582,107.615c1.34-1.231,2.608-2.537,3.867-3.85a2.029,2.029,0,0,0,.513-1.442c.015-1.9-.2-3.782-.256-5.674-.035-.033-.07-.067-.105-.1-.058,1.739.168,3.467.231,5.2a3.12,3.12,0,0,1-1.074,2.559c-1.131,1.076-2.26,2.158-3.3,3.331v.007a.258.258,0,0,0,.122-.033" transform="translate(-245.015 -82.58)" fill="#a9d780"/>
        <path id="Trazado_601629" data-name="Trazado 601629" d="M125.8,331.289l-.075.048a1.087,1.087,0,0,0,.109-.014l-.034-.034" transform="translate(-107.532 -283.358)" fill="#a9d780"/>
        <path id="Trazado_601630" data-name="Trazado 601630" d="M255.7,62.953c-.008-.021-.014-.042-.022-.063a8.6,8.6,0,0,0-3.235-.626A6.514,6.514,0,0,0,247.7,64.69a5.43,5.43,0,0,1-.588.723,3.733,3.733,0,0,0,2.067,2.258,4.089,4.089,0,0,1,1.689-2,3.827,3.827,0,0,1,4.072.077.409.409,0,0,1,.129.155.415.415,0,0,1,.4,0,3.476,3.476,0,0,1,1.567,1.358,3.622,3.622,0,0,1,1.292,1.181A21.391,21.391,0,0,1,261.6,73.8a4.09,4.09,0,0,1,.2.671c.013.09.021.179.026.266A13.81,13.81,0,0,1,262.653,77a28.394,28.394,0,0,1,1.078,4.875,19.428,19.428,0,0,1-.711,9.138,7,7,0,0,1-1.944,3,3.763,3.763,0,0,1-4.2.365,10.686,10.686,0,0,1-3.6-2.942,18.8,18.8,0,0,1-2.451-3.732,1.581,1.581,0,0,1-.165-.418c-.6.579-1.179,1.177-1.771,1.763a1.476,1.476,0,0,1-.409.333c.251.1.348.328.472.539a19.146,19.146,0,0,0,4.772,5.672,8.122,8.122,0,0,0,5.705,1.915,6.049,6.049,0,0,0,4.086-2.091,12.566,12.566,0,0,0,2.9-6.987,28.86,28.86,0,0,0-1.7-13.758,26.406,26.406,0,0,0-3.374-6.57,1.016,1.016,0,0,1-.208-.493c0-.04-.006-.079-.01-.119-.268-.309-.538-.615-.8-.932a16.023,16.023,0,0,0-3.712-3.211h0l-.041-.013c-.389.2-.61-.167-.873-.389" transform="translate(-211.36 -53.246)" fill="#eee6e3"/>
        <path id="Trazado_601631" data-name="Trazado 601631" d="M268.6,98.628a1.015,1.015,0,0,0,.208.493,26.4,26.4,0,0,1,3.374,6.57,28.858,28.858,0,0,1,1.7,13.758,12.568,12.568,0,0,1-2.9,6.987,6.049,6.049,0,0,1-4.086,2.091,8.122,8.122,0,0,1-5.705-1.915,19.146,19.146,0,0,1-4.772-5.672c-.125-.211-.222-.443-.472-.539a.6.6,0,0,1-.1.037h0a.746.746,0,0,1,.336.34,20.424,20.424,0,0,0,2.233,3.295,13.063,13.063,0,0,0,5.185,4.09,6.6,6.6,0,0,0,8.135-2.409,15.912,15.912,0,0,0,2.513-8.5,28.118,28.118,0,0,0-.765-7.687,31.221,31.221,0,0,0-3.277-8.526c-.459-.814-1.055-1.536-1.478-2.368l-.137-.159c0,.04.006.079.01.119" transform="translate(-218.829 -84.257)" fill="#eee6e3"/>
        <path id="Trazado_601632" data-name="Trazado 601632" d="M304.076,88.488a3.475,3.475,0,0,0-1.567-1.358.415.415,0,0,0-.4,0c.012.019.024.037.036.054h0a3.731,3.731,0,0,1,1.84,1.263h0c.033.011.063.027.094.04" transform="translate(-258.397 -74.48)" fill="#eee6e3"/>
        <path id="Trazado_601633" data-name="Trazado 601633" d="M306.314,66.723c.264.222.484.59.873.389a3.315,3.315,0,0,1-.827-.43l-.068-.022c.007.021.014.042.022.063" transform="translate(-261.978 -57.016)" fill="#eee6e3"/>
        <path id="Trazado_601634" data-name="Trazado 601634" d="M246.45,84.094a1.155,1.155,0,0,1-.112.085,2.735,2.735,0,0,0,.556,1.025c.455.5.827,1.131,1.589,1.25.011-.035.023-.068.034-.1a3.733,3.733,0,0,1-2.067-2.258" transform="translate(-210.698 -71.927)" fill="#eee6e3"/>
        <path id="Trazado_601635" data-name="Trazado 601635" d="M256.6,236.25c.592-.586,1.173-1.184,1.771-1.763a.615.615,0,0,1-.008-.142,31.117,31.117,0,0,0-2.235,2.232c.014,0,.027,0,.043,0l.02.009a1.475,1.475,0,0,0,.409-.333" transform="translate(-219.068 -200.44)" fill="#eee6e3"/>
        <path id="Trazado_601636" data-name="Trazado 601636" d="M320.385,104.064c.045.079.087.159.128.24-.006-.088-.013-.176-.026-.266a4.068,4.068,0,0,0-.2-.671A21.394,21.394,0,0,0,317.015,98a3.62,3.62,0,0,0-1.292-1.181l.01.019c0,.014,0,.027,0,.041a18.573,18.573,0,0,1,4.651,7.182" transform="translate(-270.044 -82.814)" fill="#eee6e3"/>
        <path id="Trazado_601637" data-name="Trazado 601637" d="M255.929,249.753c-.015,0-.028,0-.043,0l-.04.043a.6.6,0,0,0,.1-.037l-.02-.009" transform="translate(-218.83 -213.619)" fill="#eee6e3"/>
        <path id="Trazado_601638" data-name="Trazado 601638" d="M315.178,96.606l-.01-.019c-.032-.013-.061-.029-.094-.04h0c.036.033.07.067.105.1,0-.014,0-.027,0-.041" transform="translate(-269.489 -82.579)" fill="#eee6e3"/>
        <path id="Trazado_601639" data-name="Trazado 601639" d="M309.687,16.3a5.5,5.5,0,0,1,1.794,1.134,15.491,15.491,0,0,1,2.464,2.532,2.517,2.517,0,0,1,.24.356c-.186-2.2-.253-4.4-.4-6.6-.064-.932-.134-1.867-.148-2.8a3.448,3.448,0,0,0-2.825-3.52,13.945,13.945,0,0,0-1.643-.155,1.805,1.805,0,0,1,.25.9c.135.909.135,1.828.185,2.741.083,1.523.2,3.046.251,4.571a1.871,1.871,0,0,1-.07.747.925.925,0,0,1-.1.066c0,.011,0,.023,0,.034h0" transform="translate(-264.436 -6.194)" fill="#a9d780"/>
        <path id="Trazado_601640" data-name="Trazado 601640" d="M308.424,6.47a13.914,13.914,0,0,1,1.643.155,3.448,3.448,0,0,1,2.825,3.52c.014.938.084,1.873.148,2.8.15,2.2.217,4.405.4,6.6.052.092.1.185.147.281a10.1,10.1,0,0,0-.084-1.29q-.241-4.282-.455-8.565A3.585,3.585,0,0,0,310.642,6.6,7.351,7.351,0,0,0,308.3,6.34a.8.8,0,0,1,.126.13" transform="translate(-263.693 -5.422)" fill="#a9d780"/>
        <path id="Trazado_601641" data-name="Trazado 601641" d="M309.291,15.429c-.053-1.525-.167-3.048-.251-4.572-.05-.913-.05-1.832-.185-2.741a1.8,1.8,0,0,0-.25-.9h-.024l-.071,0a16.542,16.542,0,0,1,.307,3.172c.114,1.952.3,3.9.308,5.859a.927.927,0,0,0,.1-.066,1.87,1.87,0,0,0,.07-.747" transform="translate(-263.875 -6.168)" fill="#a9d780"/>
        <path id="Trazado_601642" data-name="Trazado 601642" d="M308.4,6.471h.024a.8.8,0,0,0-.126-.13c.012.042.02.084.031.126l.071,0" transform="translate(-263.693 -5.424)" fill="#a9d780"/>
        <path id="Trazado_601643" data-name="Trazado 601643" d="M314.558,71a5.5,5.5,0,0,0-1.794-1.134,16.022,16.022,0,0,1,3.712,3.212c.258.317.528.623.8.932,0-.041-.007-.081-.01-.122a2.524,2.524,0,0,0-.24-.356A15.494,15.494,0,0,0,314.558,71" transform="translate(-267.513 -59.759)" fill="#a9d780"/>
        <path id="Trazado_601644" data-name="Trazado 601644" d="M343.864,97.787l.137.159c-.047-.1-.1-.189-.147-.281,0,.041.007.081.01.122" transform="translate(-294.105 -83.535)" fill="#a9d780"/>
        <path id="Trazado_601645" data-name="Trazado 601645" d="M56.149,97.015Q64.475,88.692,72.8,80.366a9.778,9.778,0,0,0,1.57-1.758.311.311,0,0,1-.232-.171,9.236,9.236,0,0,0-1.215-1.3q-6.88-6.889-13.767-13.771c-.127-.127-.253-.257-.383-.382-.534-.509-.811-.511-1.333-.016-.078.075-.154.152-.23.229L39.116,81.286c-.827.827-.827.9-.006,1.725q7.382,7.382,14.762,14.765c.2.2.43.384.621.6,0,.01,0,.018,0,.027a6.251,6.251,0,0,0,1.654-1.391m-1.809-9.03A4.4,4.4,0,0,1,52,87.252a.371.371,0,0,0-.584.067,9.478,9.478,0,0,1-.843.84,1.374,1.374,0,0,1-1.949-.047,1.3,1.3,0,0,1,.037-1.932c.813-.677,1.126-1.277.452-2.286a3.476,3.476,0,0,1-.254-2.431,1.394,1.394,0,1,1,2.747.446,1.991,1.991,0,0,0,.039.854A4.233,4.233,0,0,0,54.4,85.186a1.909,1.909,0,0,0,1.5-3.2c-.4-.437-.844-.84-1.239-1.285a4.687,4.687,0,0,1,5.886-7.155c.377.227.583.205.842-.118a6.421,6.421,0,0,1,.686-.69,1.37,1.37,0,0,1,1.946-.011,1.388,1.388,0,0,1,.034,1.951,8.22,8.22,0,0,1-.764.765.464.464,0,0,0-.1.718,4.4,4.4,0,0,1,.622,3.211,1.386,1.386,0,1,1-2.748-.341c0-.054.006-.108.013-.226a1.91,1.91,0,0,0-.658-1.686c-.327-.31-.628-.649-.963-.95a1.913,1.913,0,0,0-2.691,2.712c.352.386.74.739,1.1,1.118a4.707,4.707,0,0,1-3.528,7.989" transform="translate(-32.926 -53.541)" fill="#fefefe"/>
        <path id="Trazado_601646" data-name="Trazado 601646" d="M53.6,97.391c-.191-.217-.417-.4-.621-.6Q45.6,89.406,38.215,82.025c-.821-.821-.821-.9.006-1.725L56.311,62.208c.077-.076.152-.154.23-.229.522-.5.8-.492,1.333.016.131.124.256.254.383.382q6.885,6.885,13.767,13.771a9.244,9.244,0,0,1,1.215,1.3.31.31,0,0,0,.232.171l0-.007a3.036,3.036,0,0,0-.617-.809Q65.679,69.634,58.5,62.455c-.191-.191-.382-.384-.575-.574-.586-.579-.883-.583-1.454-.016-.346.343-.685.693-1.029,1.038L37.881,80.472c-.559.559-.574.84-.056,1.359q7.631,7.64,15.266,15.276a.944.944,0,0,0,.485.325h0l.025-.013c0-.009,0-.018,0-.027" transform="translate(-32.03 -52.554)" fill="#fefefe"/>
        <path id="Trazado_601647" data-name="Trazado 601647" d="M168.5,174.084a1.423,1.423,0,0,0,.459-.822h0a9.779,9.779,0,0,1-1.57,1.758q-8.323,8.326-16.648,16.649a6.25,6.25,0,0,1-1.654,1.391s0,.008,0,.012a1.2,1.2,0,0,0,.864-.434q9.27-9.282,18.553-18.552" transform="translate(-127.513 -148.194)" fill="#fefefe"/>
        <path id="Trazado_601648" data-name="Trazado 601648" d="M148.937,310.094l-.025.013h.025s0-.008,0-.012" transform="translate(-127.367 -265.229)" fill="#fefefe"/>
        <path id="Trazado_601649" data-name="Trazado 601649" d="M286.44,173.219v-.007l0,.007h0" transform="translate(-244.995 -148.152)" fill="#fefefe"/>
        <path id="Trazado_601650" data-name="Trazado 601650" d="M306.13,66.194l.023.067.068.022a.93.93,0,0,0-.092-.089" transform="translate(-261.839 -56.617)" fill="#fefefe"/>
        <path id="Trazado_601651" data-name="Trazado 601651" d="M246.445,83.467c-.01-.03-.019-.059-.028-.088a1.938,1.938,0,0,0-.077.189,1.217,1.217,0,0,0,.112-.085l-.006-.015" transform="translate(-210.699 -71.316)" fill="#fefefe"/>
        <path id="Trazado_601652" data-name="Trazado 601652" d="M261.194,99.7c-.012.034-.024.068-.034.1l.063-.09-.029-.012" transform="translate(-223.375 -85.275)" fill="#fefefe"/>
        <path id="Trazado_601653" data-name="Trazado 601653" d="M348.084,147.319c0-.068,0-.136-.007-.206-.041-.08-.083-.161-.128-.24a2.317,2.317,0,0,1,.135.445" transform="translate(-297.608 -125.624)" fill="#fefefe"/>
        <path id="Trazado_601654" data-name="Trazado 601654" d="M116.242,142.705a4.68,4.68,0,0,0-.925-5.208c-.361-.378-.749-.731-1.1-1.118a1.913,1.913,0,0,1,2.692-2.712c.335.3.635.64.962.95a1.91,1.91,0,0,1,.659,1.686c-.007.118-.01.172-.013.226a1.386,1.386,0,1,0,2.748.341,4.4,4.4,0,0,0-.622-3.211.464.464,0,0,1,.1-.718,8.263,8.263,0,0,0,.764-.765,1.388,1.388,0,0,0-.034-1.951,1.37,1.37,0,0,0-1.946.011,6.421,6.421,0,0,0-.686.69c-.259.324-.465.345-.842.118a4.687,4.687,0,0,0-5.886,7.155c.395.444.835.848,1.239,1.285a1.909,1.909,0,0,1-1.5,3.2,4.233,4.233,0,0,1-2.758-2.423,1.994,1.994,0,0,1-.039-.854,1.394,1.394,0,1,0-2.747-.446,3.477,3.477,0,0,0,.254,2.431c.673,1.009.361,1.609-.452,2.286a1.3,1.3,0,0,0-.037,1.932,1.374,1.374,0,0,0,1.949.047,9.459,9.459,0,0,0,.843-.84.371.371,0,0,1,.584-.067,4.4,4.4,0,0,0,2.342.732,4.706,4.706,0,0,0,4.453-2.78" transform="translate(-90.375 -111.042)" fill="#756e78"/>
      </g>
    </g>
  </g>
</svg>
