<svg xmlns="http://www.w3.org/2000/svg" xmlns:xlink="http://www.w3.org/1999/xlink" width="85" height="85" viewBox="0 0 85 85">
  <defs>
    <clipPath id="clip-path">
      <rect id="Rectángulo_300837" data-name="Rectángulo 300837" width="44.3" height="51.341" fill="none"/>
    </clipPath>
  </defs>
  <g id="Grupo_886179" data-name="Grupo 886179" transform="translate(-1107 -23712)">
    <g id="Elipse_6630" data-name="Elipse 6630" transform="translate(1107 23712)" fill="#fff" stroke="#72e0fa" stroke-width="1">
      <circle cx="42.5" cy="42.5" r="42.5" stroke="none"/>
      <circle cx="42.5" cy="42.5" r="42" fill="none"/>
    </g>
    <g id="Grupo_886177" data-name="Grupo 886177" transform="translate(1127 23729)">
      <g id="Grupo_886176" data-name="Grupo 886176" clip-path="url(#clip-path)">
        <path id="Trazado_602541" data-name="Trazado 602541" d="M120.211.254a21.342,21.342,0,0,0-3.827.9c-.3.11-.555.169-.176.525.268.253,0,.439-.177.613l-.012.012c.069.172-.109.3-.175.426a6.17,6.17,0,0,0-.678,2.829c-.009.669.114.74.71.452a5.234,5.234,0,0,1,3.784-.276c.943.259,1.86.613,2.826.787.231.042.156.159.1.284a9.825,9.825,0,0,0,3.307-.582.826.826,0,0,1,.4-.2,2.831,2.831,0,0,0,.97-3.877l-.076-.024a.923.923,0,0,1-.325-.224A5.71,5.71,0,0,0,123.545.235c-.142-.027-.358.02-.363-.235h-2.507c-.044.282-.292.225-.464.254" transform="translate(-99.733)" fill="#694b4b"/>
        <path id="Trazado_602542" data-name="Trazado 602542" d="M123.439.1c-.787.133-1.58.238-2.358.41a8.527,8.527,0,0,0-2.489.849l.684.51-.352.332a.325.325,0,0,1,.062.1L119,2.288c.174-.174.445-.361.177-.613-.378-.356-.124-.415.176-.525a21.345,21.345,0,0,1,3.827-.9c.172-.029.419.029.464-.254-.034.1-.123.089-.2.1" transform="translate(-102.699)" fill="#694b4b"/>
        <path id="Trazado_602543" data-name="Trazado 602543" d="M175.349.235a5.71,5.71,0,0,1,3.312,1.658.921.921,0,0,0,.325.224l.076.024c-.02-.038-.04-.075-.062-.113A5.9,5.9,0,0,0,175.88.208,2.632,2.632,0,0,1,174.986,0c.005.255.221.208.363.235" transform="translate(-151.537)" fill="#694b4b"/>
        <path id="Trazado_602544" data-name="Trazado 602544" d="M151.854,50.375c-.561.112-.587-.246-.605-.632a8.514,8.514,0,0,0-.513-2.528,3.952,3.952,0,0,0-1.221-1.77l-.016.012c-.17.077-.328.176-.5.248-.046.019-.092.035-.138.052a4.8,4.8,0,0,1-2.46,1.114,13.213,13.213,0,0,1-2.862.316,1.6,1.6,0,0,0-1.626,1.71c0,2.168-.063,4.339.019,6.5a4.957,4.957,0,0,0,2.476,4.148c.5.317,1.078.1,1.617.163h0a3.831,3.831,0,0,0,2.707-1.167l.6-.442.286-.214v0a.931.931,0,0,1,.405-.488,2.892,2.892,0,0,0,1.18-2.367c0-.351.067-.62.477-.691.3-.052.429-.294.5-.566.164-.646.321-1.293.487-1.938a1.606,1.606,0,0,0-.38-1.344c0-.008,0-.016,0-.024a1,1,0,0,0-.43-.092" transform="translate(-122.874 -39.354)" fill="#efbf86"/>
        <path id="Trazado_602545" data-name="Trazado 602545" d="M202.224,82.944a1.606,1.606,0,0,1,.38,1.344c-.166.645-.323,1.293-.487,1.938-.069.272-.2.514-.5.566-.41.071-.48.34-.477.691a2.892,2.892,0,0,1-1.18,2.367.93.93,0,0,0-.405.488v0l.108-.081a3.325,3.325,0,0,0,1.629-3c-.007-.159.012-.31.229-.3.47.018.628-.3.724-.678.168-.659.333-1.319.491-1.98a1.185,1.185,0,0,0-.465-1.364l-.048-.013c0,.008,0,.016,0,.024" transform="translate(-172.814 -71.808)" fill="#efbf86"/>
        <path id="Trazado_602546" data-name="Trazado 602546" d="M193.91,45.295c.046-.018.092-.034.138-.052.173-.071.332-.17.5-.248l.016-.012c-.029-.024-.056-.049-.087-.071a.825.825,0,0,0-.4.2c-.055.064-.113.124-.171.181" transform="translate(-167.925 -38.893)" fill="#efbf86"/>
        <path id="Trazado_602547" data-name="Trazado 602547" d="M44.855,226.734a1.268,1.268,0,0,1,.107.683q0,2.678,0,5.357c0,.837-.082.921-.913.922-4.155,0-8.311-.01-12.466.007a4.145,4.145,0,0,0-3.934,2.527,3.345,3.345,0,0,0-.335,1.5q.006,1.953,0,3.905a1.348,1.348,0,0,1-.1.713h1.6a1.135,1.135,0,0,1-.1-.614c0-1.169-.008-2.338,0-3.508a3.086,3.086,0,0,1,1.061-2.445,3.028,3.028,0,0,1,2.048-.685c4.142-.024,8.285-.014,12.427-.006.587,0,.713.127.717.71.013,2.021.009,4.042,0,6.063a.888.888,0,0,1-.1.484l0,0h1.705a1.121,1.121,0,0,1-.107-.615q-.005-2.906,0-5.813c0-.733.1-.834.849-.835q6.063-.007,12.127,0a3.27,3.27,0,0,1,2.084.584,2.868,2.868,0,0,1,1.177,2.23c.055,1.352.023,2.705.013,4.058a.715.715,0,0,1-.1.384l0,0h1.606a1.274,1.274,0,0,1-.105-.695c0-1.27,0-2.54,0-3.81a4.158,4.158,0,0,0-4.155-4.144c-3.894-.014-7.787,0-11.681,0-.418,0-.835.009-1.253-.01-.335-.015-.541-.169-.544-.52-.019-2.055-.03-4.11.006-6.165a.566.566,0,0,1,.069-.239.422.422,0,0,1,.032-.039H44.844l.012.011" transform="translate(-23.565 -196.341)" fill="#e3e9f5"/>
        <path id="Trazado_602548" data-name="Trazado 602548" d="M186.951,296.385a.717.717,0,0,0,.1-.384c.01-1.353.042-2.706-.013-4.058a2.869,2.869,0,0,0-1.177-2.23,3.271,3.271,0,0,0-2.084-.584q-6.063-.018-12.127,0c-.745,0-.847.1-.849.835q-.01,2.906,0,5.813a1.122,1.122,0,0,0,.107.615h.052c0-2.205.006-4.411-.008-6.616,0-.355.073-.5.467-.5,4.194.013,8.387-.006,12.581.015a2.764,2.764,0,0,1,2.9,2.937q0,2.08,0,4.16h.053l0,0" transform="translate(-147.907 -250.377)" fill="#e3e9f5"/>
        <path id="Trazado_602549" data-name="Trazado 602549" d="M170.893,226.767a.565.565,0,0,0-.069.239c-.036,2.055-.025,4.11-.006,6.165,0,.35.209.5.544.52.418.018.835.01,1.253.01,3.894,0,7.787-.01,11.681,0a4.158,4.158,0,0,1,4.155,4.144c0,1.27,0,2.54,0,3.81a1.274,1.274,0,0,0,.105.695h.051c0-1.519-.03-3.039,0-4.558a4.369,4.369,0,0,0-4.239-4.252c-4.275,0-8.549-.007-12.824.012-.491,0-.609-.143-.6-.617.025-2.07.011-4.141.011-6.211h-.034a.423.423,0,0,0-.032.039" transform="translate(-147.912 -196.345)" fill="#e3e9f5"/>
        <path id="Trazado_602550" data-name="Trazado 602550" d="M26.873,241.636q.006-1.953,0-3.905a3.344,3.344,0,0,1,.335-1.5,4.145,4.145,0,0,1,3.934-2.527c4.155-.016,8.311,0,12.466-.007.831,0,.911-.085.913-.922q0-2.678,0-5.357a1.268,1.268,0,0,0-.107-.683l-.011-.011h-.036c0,2.07-.014,4.14.011,6.21.006.472-.109.621-.6.619-4.257-.019-8.514-.009-12.771-.015a4.1,4.1,0,0,0-.938.111,4.416,4.416,0,0,0-3.362,4.294c.065,1.466.012,2.938.011,4.407h.053a1.348,1.348,0,0,0,.1-.713" transform="translate(-23.124 -196.341)" fill="#e3e9f5"/>
        <path id="Trazado_602551" data-name="Trazado 602551" d="M54.5,296.376a.889.889,0,0,0,.1-.483c.007-2.021.011-4.042,0-6.063,0-.583-.129-.709-.717-.711-4.142-.009-8.285-.018-12.427.006a3.028,3.028,0,0,0-2.047.684,3.086,3.086,0,0,0-1.061,2.445c-.009,1.169,0,2.338,0,3.508a1.134,1.134,0,0,0,.1.613h.054c0-1.37.005-2.74,0-4.11a2.791,2.791,0,0,1,2.955-2.989c4.16-.01,8.32,0,12.48-.013.438,0,.521.153.518.549-.017,2.189-.009,4.377-.009,6.566h.05l0,0" transform="translate(-33.206 -250.367)" fill="#e3e9f5"/>
        <path id="Trazado_602552" data-name="Trazado 602552" d="M79.951,166.831l-.208-.5h0c-.566,0-.834.522-1.281.733-.043.02-.07.07-.108.1-.8.7-1.153.639-1.6-.318-.652-1.39-1.276-2.794-1.911-4.193,0,.008-.005.016-.008.023a7.92,7.92,0,0,1-1.953.552c-1.277.307-2.553.622-3.837.9a2.079,2.079,0,0,0-1.14.767c1.035.8,1.955,1.737,2.944,2.592a3,3,0,0,1,1.109,1.6,8.363,8.363,0,0,1,.057,1.838.267.267,0,0,1-.025.126l.1-.006c.2-.014.394-.06.594-.061q3.2-.007,6.392,0a2.5,2.5,0,0,1,.5.039l.074.017Z" transform="translate(-58.804 -140.862)" fill="#707486"/>
        <path id="Trazado_602553" data-name="Trazado 602553" d="M81.535,224.834l-.074-.017a2.5,2.5,0,0,0-.5-.039q-3.2,0-6.392,0c-.2,0-.4.047-.594.061l-.1.006c-.068.131-.261.082-.4.083-1.132.01-2.265.013-3.4.018.18.132.388.076.582.075q4.2-.021,8.406-.051,1.226-.008,2.452-.011l.009-.125" transform="translate(-60.694 -194.653)" fill="#707486"/>
        <path id="Trazado_602554" data-name="Trazado 602554" d="M68.247,163.741c1.284-.277,2.56-.592,3.837-.9a7.92,7.92,0,0,0,1.953-.553c0-.008.005-.016.008-.023l-.028-.061a1.209,1.209,0,0,1-.225.1c-1.763.413-3.526.827-5.292,1.228a2.389,2.389,0,0,0-1.516.875c.042.032.082.065.123.1a2.079,2.079,0,0,1,1.14-.767" transform="translate(-58.008 -140.468)" fill="#707486"/>
        <path id="Trazado_602555" data-name="Trazado 602555" d="M174.546,167.243c-.406-.285-.788-.6-1.195-.887-.118-.083-.241-.262-.435-.123l-.208.5.306,4.215.027-.008a4.607,4.607,0,0,1,1.28-.005.914.914,0,0,1,1.056-.891c.865,0,1.731,0,2.6,0,.751,0,1,.2,1.056.887h0a9.641,9.641,0,0,1,1.593.027l.092.006a.394.394,0,0,1-.089-.336c.024-.4.019-.8,0-1.2a2.032,2.032,0,0,1,.733-1.634c1.141-.985,2.2-2.069,3.392-2.991a2.324,2.324,0,0,0-1.383-.835c-1.5-.334-2.988-.7-4.483-1.047a2.757,2.757,0,0,1-1.04-.332.418.418,0,0,1-.025-.044c-.667,1.463-1.326,2.93-2.007,4.386-.334.714-.615.775-1.272.315" transform="translate(-149.564 -140.76)" fill="#707486"/>
        <path id="Trazado_602556" data-name="Trazado 602556" d="M221.922,225.076a.5.5,0,0,1-.347-.084l-.091-.006a9.654,9.654,0,0,0-1.593-.027h0c0,.044.007.09.009.139q2.471.032,4.942.063a.673.673,0,0,0,.481-.076c-1.133,0-2.266-.019-3.4-.009" transform="translate(-190.422 -194.792)" fill="#707486"/>
        <path id="Trazado_602557" data-name="Trazado 602557" d="M175.021,224.877l-.027.008.009.122h1.284c0-.046.009-.091.015-.134a4.609,4.609,0,0,0-1.28.005" transform="translate(-151.544 -194.701)" fill="#707486"/>
        <path id="Trazado_602558" data-name="Trazado 602558" d="M210.916,162.288a2.756,2.756,0,0,0,1.04.332c1.495.347,2.985.713,4.483,1.047a2.324,2.324,0,0,1,1.383.835c.041-.031.08-.064.121-.095a2.061,2.061,0,0,0-1.273-.809c-.536-.114-1.067-.25-1.6-.38q-2.08-.508-4.159-1.02l-.021.046a.43.43,0,0,0,.025.044" transform="translate(-182.63 -140.462)" fill="#707486"/>
        <path id="Trazado_602559" data-name="Trazado 602559" d="M114.484,62.34c.423.033.848.069,1.272.067a1.691,1.691,0,0,1-.7-.206,4.249,4.249,0,0,1-1.217-1.1,5.385,5.385,0,0,1-1.252-3.463c.021-1.921.049-3.844-.008-5.764a2.014,2.014,0,0,1,2.249-2.283,8.635,8.635,0,0,0,4.618-1.169,12.663,12.663,0,0,1-2.19.45,1.114,1.114,0,0,1-.684-.066.719.719,0,0,0-.065-.067,9.273,9.273,0,0,1-1.969-.1h-1.5c-2.215.276-3.317,1.491-3.488,3.884-.024.332-.08.516-.444.42-.23-.06-.44.153-.666.088-.59,1.193.047,2.291.275,3.419a.507.507,0,0,0,.325.418c.551.144.573.588.611,1.02a2.962,2.962,0,0,0,1.069,2.019c.075.066.157.123.232.19a.873.873,0,0,1,.288.435,6.482,6.482,0,0,1,1.284.913,3.7,3.7,0,0,0,1.957.9" transform="translate(-93.699 -41.929)" fill="#e5ae78"/>
        <path id="Trazado_602560" data-name="Trazado 602560" d="M109.677,89.561c-.074-.067-.157-.124-.232-.19a2.962,2.962,0,0,1-1.069-2.019c-.037-.431-.06-.876-.611-1.02a.507.507,0,0,1-.326-.418c-.228-1.128-.865-2.226-.275-3.419a.344.344,0,0,1-.1-.045h0c-.066.435-.45.785-.319,1.275.2.77.39,1.545.589,2.317a.571.571,0,0,0,.547.5c.273,0,.28.162.288.356a3.443,3.443,0,0,0,1.545,2.866.807.807,0,0,1,.151.192h0c.033.013.063.028.1.042a.874.874,0,0,0-.288-.435" transform="translate(-92.422 -71.401)" fill="#e5ae78"/>
        <path id="Trazado_602561" data-name="Trazado 602561" d="M170.2,47a.717.717,0,0,1,.065.067,1.114,1.114,0,0,0,.684.066,12.663,12.663,0,0,0,2.19-.45c.138-.085.275-.173.41-.268a9.825,9.825,0,0,1-3.307.582l-.042,0" transform="translate(-147.388 -40.198)" fill="#e5ae78"/>
        <path id="Trazado_602562" data-name="Trazado 602562" d="M140.877,51.308c.057,1.92.029,3.843.008,5.764a5.386,5.386,0,0,0,1.252,3.463,4.251,4.251,0,0,0,1.217,1.1,1.69,1.69,0,0,0,.7.206,4.674,4.674,0,0,0,1.093-.12c-.539-.062-1.115.153-1.617-.164a4.956,4.956,0,0,1-2.476-4.148c-.083-2.165-.021-4.336-.019-6.5a1.6,1.6,0,0,1,1.626-1.71,13.207,13.207,0,0,0,2.862-.316,4.8,4.8,0,0,0,2.46-1.114c-.079.03-.159.06-.239.087a8.634,8.634,0,0,1-4.618,1.169,2.014,2.014,0,0,0-2.249,2.283" transform="translate(-121.997 -41.368)" fill="#e5ae78"/>
        <path id="Trazado_602563" data-name="Trazado 602563" d="M192.369,46.6c.058-.058.116-.117.171-.181-.135.1-.272.183-.41.268.08-.027.159-.056.239-.087" transform="translate(-166.383 -40.197)" fill="#e5ae78"/>
        <path id="Trazado_602564" data-name="Trazado 602564" d="M268.591,343.451a.868.868,0,0,1-.637.15c-.617.01-1.235-.014-1.852.011-.679.028-.975.315-.992,1-.025,1-.027,2,0,3,.02.706.325.994,1.035,1q3.279.014,6.557,0c.713,0,.993-.285,1.009-1.015q.033-1.476,0-2.953c-.017-.738-.318-1.02-1.053-1.034-.6-.011-1.2,0-1.8-.005a.954.954,0,0,1-.624-.132l-.009-.016a1.878,1.878,0,0,1-1.633,0m2.638,1.807a.826.826,0,0,1,.838.912.791.791,0,0,1-.849.788q-1.8.012-3.6,0a.851.851,0,1,1,.012-1.7c.6-.006,1.2,0,1.8,0s1.2-.008,1.8,0" transform="translate(-229.567 -297.426)" fill="#c3e579"/>
        <path id="Trazado_602565" data-name="Trazado 602565" d="M269.379,343.372a.954.954,0,0,0,.624.132c.6.007,1.2-.006,1.8.005.735.013,1.036.3,1.053,1.034q.034,1.476,0,2.953c-.016.73-.3,1.011-1.009,1.015q-3.279.017-6.557,0c-.71,0-1.015-.291-1.035-1-.029-1-.026-2,0-3,.017-.682.313-.969.992-1,.617-.025,1.234,0,1.852-.011a.868.868,0,0,0,.637-.15l-.035-.015c-.851.005-1.7,0-2.554.017a.923.923,0,0,0-1.03.973q-.028,1.678,0,3.356a.917.917,0,0,0,1.017.982q3.431.006,6.862,0a.908.908,0,0,0,1-.99c.016-1.1.014-2.2,0-3.306a.934.934,0,0,0-1.036-1.016c-.851-.008-1.7-.011-2.554-.016h0l-.041.017.009.016" transform="translate(-228.712 -297.329)" fill="#c3e579"/>
        <path id="Trazado_602566" data-name="Trazado 602566" d="M291.213,343.354a1.878,1.878,0,0,0,1.633,0l-.01-.017H291.23l-.017.015" transform="translate(-252.188 -297.329)" fill="#c3e579"/>
        <path id="Trazado_602567" data-name="Trazado 602567" d="M291,343.341h-.053l.036.015.017-.015" transform="translate(-251.958 -297.331)" fill="#c3e579"/>
        <path id="Trazado_602568" data-name="Trazado 602568" d="M303.334,343.356l.041-.017h-.051l.01.017" transform="translate(-262.677 -297.329)" fill="#c3e579"/>
        <path id="Trazado_602569" data-name="Trazado 602569" d="M4.445,343.465a.929.929,0,0,1-.665.148c-.617.008-1.235-.01-1.852.008-.643.018-.944.279-.966.9-.037,1.067-.04,2.136,0,3.2a.808.808,0,0,0,.918.893q3.378.027,6.756,0a.764.764,0,0,0,.877-.77,20.265,20.265,0,0,0,0-3.447c-.044-.525-.33-.739-.883-.771-.633-.036-1.268,0-1.9-.016a.939.939,0,0,1-.666-.148,1.861,1.861,0,0,1-1.622,0m2.561,1.8a.853.853,0,1,1,.02,1.7c-.6.006-1.2,0-1.8,0-.567,0-1.134,0-1.7,0-.595,0-.927-.3-.926-.807a.826.826,0,0,1,.906-.9q1.75-.008,3.5,0" transform="translate(-0.809 -297.438)" fill="#fe6464"/>
        <path id="Trazado_602570" data-name="Trazado 602570" d="M5.924,343.5c.634.011,1.269-.021,1.9.015.553.032.839.246.882.771a20.252,20.252,0,0,1,0,3.447.764.764,0,0,1-.877.77q-3.378.027-6.756,0a.808.808,0,0,1-.918-.893c-.041-1.067-.039-2.135,0-3.2.022-.622.323-.882.966-.9.617-.017,1.234,0,1.852-.008a.93.93,0,0,0,.665-.148l-.043-.018q-1.251.009-2.5.018c-.74.006-1.079.329-1.085,1.062q-.013,1.6,0,3.2a.923.923,0,0,0,1.049,1.046q3.379.006,6.758,0a.924.924,0,0,0,1.063-1.032q.026-1.626,0-3.253c-.012-.7-.362-1.019-1.073-1.026-.834-.008-1.668-.012-2.5-.018l-.043.018a.939.939,0,0,0,.666.148" transform="translate(0 -297.321)" fill="#fe6464"/>
        <path id="Trazado_602571" data-name="Trazado 602571" d="M27.136,343.347h0a1.861,1.861,0,0,0,1.622,0h0l-.01-.018h-1.6c0,.006-.006.012-.009.018" transform="translate(-23.499 -297.321)" fill="#fe6464"/>
        <path id="Trazado_602572" data-name="Trazado 602572" d="M39.17,343.348h0c.014-.007.029-.011.044-.018H39.16c0,.006.006.012.01.018" transform="translate(-33.912 -297.321)" fill="#fe6464"/>
        <path id="Trazado_602573" data-name="Trazado 602573" d="M26.857,343.347c0-.006.006-.012.009-.018h-.053l.043.018h0" transform="translate(-23.22 -297.321)" fill="#fe6464"/>
        <path id="Trazado_602574" data-name="Trazado 602574" d="M136.812,343.452a.873.873,0,0,1-.64.15c-.6.01-1.2-.012-1.8.01-.636.023-.926.3-.938.928-.02,1.052-.023,2.106,0,3.158a.808.808,0,0,0,.906.905q3.334.034,6.668,0c.631-.005.916-.3.928-.935q.03-1.554,0-3.108c-.012-.655-.3-.93-.968-.952-.584-.019-1.17,0-1.755-.008a.944.944,0,0,1-.668-.147,2.124,2.124,0,0,1-1.73,0m2.59,1.807a.791.791,0,0,1,.887.9c0,.522-.309.8-.91.807-.567.005-1.134,0-1.7,0s-1.134,0-1.7,0c-.614-.006-.906-.29-.9-.863a.772.772,0,0,1,.877-.839q1.725-.01,3.451,0" transform="translate(-115.535 -297.427)" fill="#fed681"/>
        <path id="Trazado_602575" data-name="Trazado 602575" d="M138.25,343.516c.585.008,1.17-.011,1.755.008.667.021.956.3.968.952q.029,1.554,0,3.108c-.012.634-.3.93-.928.935q-3.334.026-6.668,0a.808.808,0,0,1-.906-.905c-.025-1.052-.022-2.106,0-3.158.012-.626.3-.905.938-.928.6-.022,1.2,0,1.8-.01a.873.873,0,0,0,.64-.15l-.034-.013q-1.227.007-2.453.014c-.72.005-1.053.325-1.056,1.029q-.008,1.628,0,3.255a.9.9,0,0,0,1.007,1.027q3.405.007,6.811,0a.9.9,0,0,0,1.007-1.026q.008-1.628,0-3.255c0-.7-.336-1.024-1.055-1.03q-1.227-.009-2.453-.014h0l-.042.016a.944.944,0,0,0,.668.147" transform="translate(-114.574 -297.34)" fill="#fed681"/>
        <path id="Trazado_602576" data-name="Trazado 602576" d="M158.774,343.365a2.123,2.123,0,0,0,1.73,0h0l-.009-.016H158.79l-.016.013" transform="translate(-137.497 -297.34)" fill="#fed681"/>
        <path id="Trazado_602577" data-name="Trazado 602577" d="M158.569,343.353h-.05l.034.013.016-.013" transform="translate(-137.276 -297.341)" fill="#fed681"/>
        <path id="Trazado_602578" data-name="Trazado 602578" d="M171.624,343.368h0l.042-.016h-.052c0,.005.005.011.009.016" transform="translate(-148.617 -297.34)" fill="#fed681"/>
        <path id="Trazado_602579" data-name="Trazado 602579" d="M105.308,25.982a3.674,3.674,0,0,1,3.634-3.405c.474,0,.947.009,1.421-.011a11.526,11.526,0,0,1,1.934.211.863.863,0,0,0-.369-.179c-.8-.195-1.575-.449-2.359-.682a5.234,5.234,0,0,0-3.859.218c-.637.3-.892.132-.894-.593a6.1,6.1,0,0,1,.748-2.982c.016-.029.034-.057.052-.084a7.569,7.569,0,0,0-2.244,6,1.208,1.208,0,0,0,.212.6,4.122,4.122,0,0,1,.681,1.917.917.917,0,0,1,.175-.05c.762-.153.762-.153.868-.956" transform="translate(-89.515 -15.997)" fill="#5a4146"/>
        <path id="Trazado_602580" data-name="Trazado 602580" d="M102.733,23.313a1.208,1.208,0,0,1-.212-.6,7.569,7.569,0,0,1,2.244-6,.609.609,0,0,0,.123-.272,7.616,7.616,0,0,0-2.493,6.512.526.526,0,0,0,.142.31,4.1,4.1,0,0,1,.775,2.024h0a.436.436,0,0,1,.1-.058,4.122,4.122,0,0,0-.681-1.917" transform="translate(-88.664 -14.239)" fill="#5a4146"/>
        <path id="Trazado_602581" data-name="Trazado 602581" d="M114.93,17.422a6.1,6.1,0,0,0-.748,2.982c0,.725.257.892.894.593a5.234,5.234,0,0,1,3.859-.218c.785.234,1.564.488,2.359.682a.861.861,0,0,1,.369.179l.068.023c.06-.125.135-.243-.1-.284-.966-.174-1.883-.529-2.826-.787a5.234,5.234,0,0,0-3.784.276c-.6.288-.719.217-.71-.452a6.168,6.168,0,0,1,.677-2.829c.066-.126.244-.254.175-.426-.064.058-.124.117-.185.176-.018.028-.036.055-.052.084" transform="translate(-98.881 -14.862)" fill="#5a4146"/>
        <path id="Trazado_602582" data-name="Trazado 602582" d="M120.335,16.539a.323.323,0,0,0-.062-.1.609.609,0,0,1-.123.272c.061-.059.121-.118.185-.176" transform="translate(-104.049 -14.239)" fill="#5a4146"/>
        <path id="Trazado_602583" data-name="Trazado 602583" d="M110.685,53.453c.364.1.42-.088.444-.42.171-2.393,1.274-3.608,3.488-3.884a2.687,2.687,0,0,1,1.5,0h0a9.273,9.273,0,0,0,1.969.1c-.009-.008-.016-.018-.025-.026a11.54,11.54,0,0,0-1.934-.211c-.473.02-.947.006-1.421.011a3.674,3.674,0,0,0-3.634,3.405c-.106.8-.106.8-.868.956a.906.906,0,0,0-.174.05c0,.013,0,.026,0,.039-.011.066.025-.009,0,.049l-.006.014c.226.065.437-.148.666-.088" transform="translate(-95.276 -42.447)" fill="#5a4146"/>
        <path id="Trazado_602584" data-name="Trazado 602584" d="M109.41,82.108c.029-.058-.007.017,0-.049,0-.013,0-.026,0-.039a.434.434,0,0,0-.1.058.346.346,0,0,0,.1.045l.006-.014" transform="translate(-94.66 -71.029)" fill="#5a4146"/>
        <path id="Trazado_602585" data-name="Trazado 602585" d="M170.03,50.616l.042,0-.068-.023c.009.008.017.018.025.026" transform="translate(-147.223 -43.811)" fill="#5a4146"/>
        <path id="Trazado_602586" data-name="Trazado 602586" d="M65.89,185.925c.849-.007,1.7-.017,2.546,0,.418.01.554-.155.546-.559a3.582,3.582,0,0,0-.362-2.031,8.407,8.407,0,0,0-1.485-1.469c-.689-.627-1.372-1.26-2.084-1.86a.563.563,0,0,1-.113-.128,1.963,1.963,0,0,0-.385,1.18c-.02,1.249-.016,2.5,0,3.749a1.071,1.071,0,0,0,.841,1.148l.043,0a1.216,1.216,0,0,1,.456-.037" transform="translate(-55.89 -155.777)" fill="#5b5d6e"/>
        <path id="Trazado_602587" data-name="Trazado 602587" d="M64.532,184.911a1.071,1.071,0,0,1-.841-1.148c-.013-1.25-.017-2.5,0-3.749a1.964,1.964,0,0,1,.385-1.18.566.566,0,0,1-.071-.162,1.757,1.757,0,0,0-.446,1.188c-.02,1.368-.018,2.736,0,4.1a1.024,1.024,0,0,0,.865,1.059.406.406,0,0,1,.151-.107l-.042,0" transform="translate(-55.031 -154.728)" fill="#5b5d6e"/>
        <path id="Trazado_602588" data-name="Trazado 602588" d="M71.619,183.581a3,3,0,0,0-1.109-1.6c-.989-.855-1.909-1.788-2.944-2.592l-.03.034c-.008.01-.015.021-.023.031a.572.572,0,0,0,.113.128c.713.6,1.4,1.233,2.085,1.859a8.4,8.4,0,0,1,1.485,1.469,3.58,3.58,0,0,1,.362,2.031c.008.4-.128.569-.546.559-.848-.021-1.7-.01-2.546,0a1.214,1.214,0,0,0-.457.037,25.023,25.023,0,0,0,3.642.006.265.265,0,0,0,.025-.126,8.355,8.355,0,0,0-.057-1.838" transform="translate(-58.467 -155.353)" fill="#5b5d6e"/>
        <path id="Trazado_602589" data-name="Trazado 602589" d="M73.483,225.344c.135,0,.328.047.4-.083a25.006,25.006,0,0,1-3.642-.006.406.406,0,0,0-.151.107c1.132-.005,2.265-.008,3.4-.018" transform="translate(-60.694 -195.069)" fill="#5b5d6e"/>
        <path id="Trazado_602590" data-name="Trazado 602590" d="M67.078,178.8l.03-.034c-.041-.032-.081-.065-.123-.1a.566.566,0,0,0,.071.162l.023-.031" transform="translate(-58.009 -154.728)" fill="#5b5d6e"/>
        <path id="Trazado_602591" data-name="Trazado 602591" d="M235.6,180.81c-.683.633-1.39,1.241-2.075,1.872a2.423,2.423,0,0,0-.737,1.99c.041,1.16-.11,1.05,1.044,1.055.683,0,1.365,0,2.048,0a1.254,1.254,0,0,1,.454.036l.061,0a1.048,1.048,0,0,0,.824-1.106c.018-1.28.023-2.561,0-3.841a1.9,1.9,0,0,0-.4-1.158,8.482,8.482,0,0,1-1.212,1.154" transform="translate(-201.594 -155.581)" fill="#5b5d6e"/>
        <path id="Trazado_602592" data-name="Trazado 602592" d="M260.149,179.968c.026,1.28.022,2.561,0,3.841a1.048,1.048,0,0,1-.824,1.105l-.061,0a.407.407,0,0,1,.155.108,1.051,1.051,0,0,0,.869-1.158c.008-1.3.01-2.6,0-3.9a1.873,1.873,0,0,0-.452-1.287c-.028.046-.06.088-.091.131a1.9,1.9,0,0,1,.4,1.158" transform="translate(-224.523 -154.735)" fill="#5b5d6e"/>
        <path id="Trazado_602593" data-name="Trazado 602593" d="M231.8,184.012c.016.4.021.8,0,1.2a.394.394,0,0,0,.09.336,23,23,0,0,0,3.59-.015,1.253,1.253,0,0,0-.454-.036c-.682-.007-1.365,0-2.048,0-1.154-.005-1,.105-1.044-1.055a2.423,2.423,0,0,1,.737-1.99c.685-.631,1.392-1.238,2.075-1.872a8.481,8.481,0,0,0,1.212-1.154h0c-.01-.013-.02-.024-.03-.036-1.2.922-2.251,2.006-3.392,2.991a2.032,2.032,0,0,0-.733,1.634" transform="translate(-200.731 -155.348)" fill="#5b5d6e"/>
        <path id="Trazado_602594" data-name="Trazado 602594" d="M262.611,178.774c.01.012.02.023.03.036h0c.031-.043.063-.085.091-.131-.041.031-.08.064-.121.095" transform="translate(-227.419 -154.735)" fill="#5b5d6e"/>
        <path id="Trazado_602595" data-name="Trazado 602595" d="M232.475,225.261a.5.5,0,0,0,.347.084c1.133-.01,2.266,0,3.4.009a.409.409,0,0,0-.155-.108,22.986,22.986,0,0,1-3.59.015" transform="translate(-201.322 -195.062)" fill="#5b5d6e"/>
        <path id="Trazado_602596" data-name="Trazado 602596" d="M119.925,151.95a3.618,3.618,0,0,0-.181.662,3.571,3.571,0,0,1,.675,1.246c.474,1.006.906,2.033,1.4,3.032.331.676.6.736,1.195.276.369-.285.745-.557,1.124-.826.16-.113.332-.228.517-.091.066-.262.333-.319.522-.449a2.279,2.279,0,0,0,.585-.425h0l-2.436-2.26h0l-2.259-2c-.018-.012-.035-.02-.053-.03a1.5,1.5,0,0,0-1.085.864" transform="translate(-103.697 -130.839)" fill="#5b5d6e"/>
        <path id="Trazado_602597" data-name="Trazado 602597" d="M119.112,151.319a1.5,1.5,0,0,1,1.085-.864.528.528,0,0,0-.786.211c-.164.246-.32.5-.5.736a.423.423,0,0,0-.02.543c.013.011.024.024.037.036a3.618,3.618,0,0,1,.181-.662" transform="translate(-102.885 -130.209)" fill="#5b5d6e"/>
        <path id="Trazado_602598" data-name="Trazado 602598" d="M123.19,167.008c.038-.033.066-.082.108-.1.446-.211.714-.733,1.281-.733h0a.447.447,0,0,1,.014-.064c-.185-.137-.357-.022-.517.091-.379.269-.756.541-1.124.826-.6.46-.864.4-1.195-.276-.49-1-.922-2.026-1.4-3.032a3.57,3.57,0,0,0-.675-1.246l-.009.025c.635,1.4,1.258,2.8,1.911,4.193.449.958.8,1.014,1.6.318" transform="translate(-103.639 -140.7)" fill="#5b5d6e"/>
        <path id="Trazado_602599" data-name="Trazado 602599" d="M119.508,162.241c-.013-.012-.023-.025-.037-.036l.028.061.009-.025" transform="translate(-103.461 -140.468)" fill="#5b5d6e"/>
        <path id="Trazado_602600" data-name="Trazado 602600" d="M165.9,155.365h0c.212.286.565.371.833.579.112.087.246.145.279.288.175-.122.342-.013.506.089.4.248.752.549,1.122.831.6.459.869.4,1.2-.268.63-1.284,1.176-2.607,1.8-3.9.072-.149.1-.332.274-.408-.082-.182-.043-.4-.15-.585a1.5,1.5,0,0,0-1.124-.922l-.048.028-4.69,4.262" transform="translate(-143.668 -130.83)" fill="#5b5d6e"/>
        <path id="Trazado_602601" data-name="Trazado 602601" d="M202.38,151.372c.107.188.068.4.15.585a.33.33,0,0,1,.038-.016.422.422,0,0,0-.02-.543c-.168-.223-.32-.459-.47-.7a.553.553,0,0,0-.823-.252,1.5,1.5,0,0,1,1.124.922" transform="translate(-174.286 -130.205)" fill="#5b5d6e"/>
        <path id="Trazado_602602" data-name="Trazado 602602" d="M174.21,166.04h0c.194-.139.317.04.435.123.407.283.789.6,1.195.887.656.461.938.4,1.272-.315.681-1.457,1.34-2.924,2.007-4.386-.005-.01-.012-.02-.017-.03-.174.075-.2.259-.274.408-.621,1.288-1.167,2.612-1.8,3.9-.33.673-.6.727-1.2.268-.37-.282-.727-.583-1.122-.831-.164-.1-.331-.211-.506-.089A.317.317,0,0,1,174.21,166.04Z" transform="translate(-150.858 -140.566)" fill="#5b5d6e"/>
        <path id="Trazado_602603" data-name="Trazado 602603" d="M210.781,162.243l.021-.046a.32.32,0,0,0-.038.016c0,.01.012.02.017.03" transform="translate(-182.52 -140.462)" fill="#5b5d6e"/>
        <path id="Trazado_602604" data-name="Trazado 602604" d="M199.205,20.085a1.436,1.436,0,0,1,.718.667A7.2,7.2,0,0,1,201,24.137c.061.64.045.644.7.818a.408.408,0,0,1,.218.129,2.361,2.361,0,0,1,.451-1.466,2.788,2.788,0,0,0,.469-2.03,11.394,11.394,0,0,0-.65-3.264,3.337,3.337,0,0,0-2.058-2.119,2.081,2.081,0,0,1,.413,1.534,2.782,2.782,0,0,1-1.339,2.346" transform="translate(-172.51 -14.033)" fill="#785550"/>
        <path id="Trazado_602605" data-name="Trazado 602605" d="M205.093,15.279a3.337,3.337,0,0,1,2.058,2.119,11.4,11.4,0,0,1,.65,3.264,2.788,2.788,0,0,1-.469,2.03,2.36,2.36,0,0,0-.451,1.466.4.4,0,0,1,.049.074,4.69,4.69,0,0,1,.9-2.09.47.47,0,0,0,.114-.265,10.017,10.017,0,0,0-1.089-5.359,2.652,2.652,0,0,0-1.916-1.382,1.391,1.391,0,0,1,.158.143" transform="translate(-177.472 -13.108)" fill="#785550"/>
        <path id="Trazado_602606" data-name="Trazado 602606" d="M199.635,17.543a2.081,2.081,0,0,0-.413-1.534l-.1-.03a2.831,2.831,0,0,1-.97,3.877.919.919,0,0,1,.141.033,2.782,2.782,0,0,0,1.339-2.346" transform="translate(-171.601 -13.837)" fill="#785550"/>
        <path id="Trazado_602607" data-name="Trazado 602607" d="M205.093,15.279a1.391,1.391,0,0,0-.158-.143c.022.038.042.075.062.113l.1.03" transform="translate(-177.472 -13.108)" fill="#785550"/>
        <path id="Trazado_602608" data-name="Trazado 602608" d="M200.651,49.209a7.2,7.2,0,0,0-1.077-3.386,1.436,1.436,0,0,0-.718-.667l-.054.039a3.954,3.954,0,0,1,1.221,1.77,8.509,8.509,0,0,1,.513,2.528c.019.386.044.744.605.632a1,1,0,0,1,.43.091c0-.02,0-.041,0-.061a.408.408,0,0,0-.217-.129c-.657-.174-.641-.178-.7-.818" transform="translate(-172.161 -39.106)" fill="#785550"/>
        <path id="Trazado_602609" data-name="Trazado 602609" d="M219.464,82.465c0,.02,0,.041,0,.061l.048.013a.4.4,0,0,0-.049-.074" transform="translate(-190.054 -71.414)" fill="#785550"/>
        <path id="Trazado_602610" data-name="Trazado 602610" d="M198.3,44.945a.917.917,0,0,0-.141-.033c.03.023.057.048.087.071l.054-.038" transform="translate(-171.602 -38.893)" fill="#785550"/>
        <path id="Trazado_602611" data-name="Trazado 602611" d="M154.079,138.982a1.613,1.613,0,0,1-.25.229c.012.135-.114.219-.2.308a8.586,8.586,0,0,1-4.732,2.837,6.5,6.5,0,0,1-1.425.165.72.72,0,0,0-.43.04h0c.554.53,1.133,1.032,1.705,1.543.259.231.574.422.675.788h.114a.793.793,0,0,1,.339-.474q2.01-1.779,3.991-3.591a.669.669,0,0,1,.392-.2c0-.011,0-.022-.006-.033-.029,0-.059,0-.09,0a3.8,3.8,0,0,1-.088-1.612" transform="translate(-127.341 -120.357)" fill="#e5ae78"/>
        <path id="Trazado_602612" data-name="Trazado 602612" d="M199.341,139.493c.031,0,.06,0,.09,0a13.365,13.365,0,0,1-.066-1.787h0a.722.722,0,0,1-.112.17,3.806,3.806,0,0,0,.088,1.612" transform="translate(-172.515 -119.256)" fill="#e5ae78"/>
        <path id="Trazado_602613" data-name="Trazado 602613" d="M197.457,138.632a1.6,1.6,0,0,0,.25-.229q0-.045,0-.09l-.286.214a.258.258,0,0,1,.032.1" transform="translate(-170.969 -119.779)" fill="#e5ae78"/>
        <path id="Trazado_602614" data-name="Trazado 602614" d="M199.529,137.88a.727.727,0,0,0,.112-.17l-.108.081c0,.03,0,.06,0,.09" transform="translate(-172.791 -119.256)" fill="#e5ae78"/>
        <path id="Trazado_602615" data-name="Trazado 602615" d="M146.441,165.765h0l2.436,2.26h.026c-.1-.366-.416-.557-.675-.788-.572-.511-1.151-1.013-1.705-1.543h0a.32.32,0,0,0-.081.072" transform="translate(-126.817 -143.489)" fill="#e5ae78"/>
        <path id="Trazado_602616" data-name="Trazado 602616" d="M165.691,155.548l4.69-4.262a.668.668,0,0,0-.392.2Q168,153.289,166,155.074a.793.793,0,0,0-.339.474h.032" transform="translate(-143.46 -131.013)" fill="#e5ae78"/>
        <path id="Trazado_602617" data-name="Trazado 602617" d="M129.582,140.865c.5.113.757.561,1.122.851.4.321.774.692,1.168,1.032.079-.164.275-.12.421-.122a8.456,8.456,0,0,0,6.185-3.01c-.306.232-.621.454-.917.7a3.175,3.175,0,0,1-2.237.766c-.063.083-.185.083-.284.085a13.414,13.414,0,0,1-2.1-.035,3.452,3.452,0,0,1-1.723-.743,15.7,15.7,0,0,1-1.452-1.138,3.874,3.874,0,0,1-.078,1.567c-.035,0-.067.008-.1.012,0,.012,0,.025-.008.037h0" transform="translate(-112.217 -120.589)" fill="#d19a6e"/>
        <path id="Trazado_602618" data-name="Trazado 602618" d="M129.822,138.552c-.035-.036-.07-.07-.1-.108a13.328,13.328,0,0,1-.075,1.687c.034,0,.065-.01.1-.012a3.874,3.874,0,0,0,.078-1.567" transform="translate(-112.27 -119.892)" fill="#d19a6e"/>
        <path id="Trazado_602619" data-name="Trazado 602619" d="M175.782,139.908l-.6.442a3.833,3.833,0,0,1-2.707,1.167h0a.231.231,0,0,1-.043.134,3.174,3.174,0,0,0,2.237-.766c.3-.244.611-.465.918-.7.033-.035.067-.069.1-.1a.484.484,0,0,0,.094-.174" transform="translate(-149.326 -121.159)" fill="#d19a6e"/>
        <path id="Trazado_602620" data-name="Trazado 602620" d="M135.429,140.642c-.424,0-.849-.034-1.272-.067a3.7,3.7,0,0,1-1.957-.9,6.49,6.49,0,0,0-1.284-.913c0,.006,0,.012.006.018s0,.032,0,.047a15.724,15.724,0,0,0,1.452,1.138,3.455,3.455,0,0,0,1.723.743,13.431,13.431,0,0,0,2.1.035c.1,0,.221,0,.284-.085h-.032c-.339-.016-.681.018-1.018-.014" transform="translate(-113.371 -120.164)" fill="#d19a6e"/>
        <path id="Trazado_602621" data-name="Trazado 602621" d="M130.306,138.5c0-.006,0-.012-.006-.018-.032-.014-.062-.029-.1-.042.033.038.069.072.1.108,0-.016,0-.032,0-.047" transform="translate(-112.757 -119.892)" fill="#d19a6e"/>
        <path id="Trazado_602622" data-name="Trazado 602622" d="M165.69,151.916a4.674,4.674,0,0,1-1.093.12c.336.031.679,0,1.018.014h.032a.229.229,0,0,0,.043-.134Z" transform="translate(-142.54 -131.558)" fill="#d19a6e"/>
        <path id="Trazado_602623" data-name="Trazado 602623" d="M130.7,152.161c-.366-.291-.622-.739-1.122-.851h0l2.259,2a.354.354,0,0,1,.031-.116c-.394-.34-.764-.711-1.168-1.032" transform="translate(-112.217 -131.033)" fill="#d19a6e"/>
        <path id="Trazado_602624" data-name="Trazado 602624" d="M153.282,140.864a8.455,8.455,0,0,1-6.185,3.01c-.146,0-.343-.042-.421.122l.05.044a.721.721,0,0,1,.43-.04,6.5,6.5,0,0,0,1.425-.165A8.587,8.587,0,0,0,153.312,141c.082-.089.208-.173.2-.308l-.028.022c-.066.052-.132.1-.2.153" transform="translate(-127.02 -121.837)" fill="#d19a6e"/>
        <path id="Trazado_602625" data-name="Trazado 602625" d="M196.076,140.082c-.033.036-.067.07-.1.1.067-.05.133-.1.2-.153l.028-.022a.258.258,0,0,0-.032-.1.482.482,0,0,1-.094.174" transform="translate(-169.714 -121.159)" fill="#d19a6e"/>
        <path id="Trazado_602626" data-name="Trazado 602626" d="M146.441,165.482h0a.322.322,0,0,1,.081-.072l-.05-.044a.354.354,0,0,0-.031.116" transform="translate(-126.817 -143.206)" fill="#d19a6e"/>
        <path id="Trazado_602627" data-name="Trazado 602627" d="M158.215,194.176c0-.022,0-.043.007-.064a2.518,2.518,0,0,1-1.751,0c0,.019.006.039.007.058-.081,1.261-.137,2.524-.274,3.78a.872.872,0,0,1-.081.349.737.737,0,0,1,.348.173,2.292,2.292,0,0,1,1.752,0,.684.684,0,0,1,.35-.169.856.856,0,0,1-.083-.352c-.137-1.255-.192-2.516-.276-3.774" transform="translate(-135.202 -168.099)" fill="#5b5d6e"/>
        <path id="Trazado_602628" data-name="Trazado 602628" d="M155.547,225.362a.373.373,0,0,1-.089.105l.411.077.026-.009a.739.739,0,0,0-.348-.173" transform="translate(-134.626 -195.162)" fill="#5b5d6e"/>
        <path id="Trazado_602629" data-name="Trazado 602629" d="M172.146,225.393a.683.683,0,0,0-.35.169l.027.01.411-.078a.371.371,0,0,1-.087-.1" transform="translate(-148.774 -195.189)" fill="#5b5d6e"/>
        <path id="Trazado_602630" data-name="Trazado 602630" d="M158.719,225.53l.01.009h1.735l.008-.01a2.292,2.292,0,0,0-1.752,0" transform="translate(-137.45 -195.157)" fill="#5b5d6e"/>
        <path id="Trazado_602631" data-name="Trazado 602631" d="M171.737,226.667h.034l-.027-.01-.008.01" transform="translate(-148.723 -196.283)" fill="#5b5d6e"/>
        <path id="Trazado_602632" data-name="Trazado 602632" d="M158.549,226.653l-.026.009h.036l-.01-.009" transform="translate(-137.28 -196.28)" fill="#5b5d6e"/>
        <path id="Trazado_602633" data-name="Trazado 602633" d="M155.96,193.887c0-.02,0-.039-.007-.058-.041-.015-.081-.027-.122-.044q-.153,2.106-.306,4.212l.08.02a.872.872,0,0,0,.081-.349c.136-1.257.192-2.519.274-3.78" transform="translate(-134.684 -167.816)" fill="#5b5d6e"/>
        <path id="Trazado_602634" data-name="Trazado 602634" d="M155.546,225.235l-.08-.02c0,.042-.006.083-.009.125h0a.373.373,0,0,0,.089-.105" transform="translate(-134.625 -195.035)" fill="#5b5d6e"/>
        <path id="Trazado_602635" data-name="Trazado 602635" d="M171.737,193.829c0,.021-.006.043-.007.064.084,1.259.139,2.52.276,3.774a.861.861,0,0,0,.083.352l.078-.021q-.153-2.108-.306-4.215c-.041.017-.083.029-.124.044" transform="translate(-148.717 -167.816)" fill="#5b5d6e"/>
        <path id="Trazado_602636" data-name="Trazado 602636" d="M174.487,225.238l-.078.021a.374.374,0,0,0,.087.1l-.009-.122" transform="translate(-151.037 -195.055)" fill="#5b5d6e"/>
        <path id="Trazado_602637" data-name="Trazado 602637" d="M188.153,219.4a8.512,8.512,0,0,1-1.49,0,1.414,1.414,0,0,0-1.614.759,40.636,40.636,0,0,0,4.633,0c-.257-.7-.825-.818-1.529-.754" transform="translate(-160.251 -189.989)" fill="#5c5e6f"/>
        <path id="Trazado_602638" data-name="Trazado 602638" d="M184.7,225.134c-.019.042-.038.085-.055.131a5.724,5.724,0,0,0,1.489.049,30.952,30.952,0,0,0,3.243-.049c-.014-.048-.029-.093-.045-.137a40.61,40.61,0,0,1-4.633,0" transform="translate(-159.898 -194.96)" fill="#5c5e6f"/>
        <path id="Trazado_602639" data-name="Trazado 602639" d="M188.4,218.484c-.865,0-1.731,0-2.6,0a.914.914,0,0,0-1.056.891l.018,0h.022a1.414,1.414,0,0,1,1.614-.759,8.512,8.512,0,0,0,1.49,0c.7-.064,1.272.059,1.529.754l.036,0c-.057-.691-.3-.887-1.056-.887" transform="translate(-159.994 -189.205)" fill="#5c5e6f"/>
        <path id="Trazado_602640" data-name="Trazado 602640" d="M219.622,225.116c.016.043.031.089.045.137,0-.049-.005-.094-.009-.139l-.036,0" transform="translate(-190.191 -194.947)" fill="#5c5e6f"/>
        <path id="Trazado_602641" data-name="Trazado 602641" d="M184.673,225.146l-.017,0c-.006.043-.011.088-.015.134.017-.046.036-.09.055-.131h-.022" transform="translate(-159.898 -194.973)" fill="#5c5e6f"/>
        <path id="Trazado_602642" data-name="Trazado 602642" d="M156.585,184.275c.01.009.02.018.03.028a1.151,1.151,0,0,1,.238.453.417.417,0,0,1,.229.015,2.278,2.278,0,0,0,1.331,0,.421.421,0,0,1,.227-.015,1.159,1.159,0,0,1,.233-.448.489.489,0,0,1,.035-.034c-.349-.31-.852-.421-1.113-.848h0a.064.064,0,0,1-.1,0c-.255.433-.761.543-1.112.853" transform="translate(-135.602 -158.842)" fill="#515262"/>
        <path id="Trazado_602643" data-name="Trazado 602643" d="M156.566,190.271a1.151,1.151,0,0,0-.238-.453c-.01-.01-.02-.019-.03-.028l-.044.04.208.5h0a.269.269,0,0,1,.1-.054" transform="translate(-135.315 -164.357)" fill="#515262"/>
        <path id="Trazado_602644" data-name="Trazado 602644" d="M171.919,190.261a.272.272,0,0,1,.106.054l.208-.5c-.015-.014-.03-.028-.045-.041-.012.01-.023.021-.035.034a1.158,1.158,0,0,0-.233.448" transform="translate(-148.881 -164.347)" fill="#515262"/>
        <path id="Trazado_602645" data-name="Trazado 602645" d="M157.5,183.136a.22.22,0,0,1-.035-.044h0a2.28,2.28,0,0,1-.585.425c-.188.13-.456.187-.522.449l.03.024c.351-.311.857-.42,1.112-.853" transform="translate(-135.408 -158.556)" fill="#515262"/>
        <path id="Trazado_602646" data-name="Trazado 602646" d="M156.254,189.674l.044-.04-.03-.024a.436.436,0,0,0-.014.064" transform="translate(-135.315 -164.201)" fill="#515262"/>
        <path id="Trazado_602647" data-name="Trazado 602647" d="M165.62,183.139c.26.427.763.537,1.113.848a.421.421,0,0,1,.038-.03c-.033-.143-.167-.2-.279-.288-.268-.208-.621-.292-.833-.579h0a.216.216,0,0,1-.037.047h0" transform="translate(-143.426 -158.555)" fill="#515262"/>
        <path id="Trazado_602648" data-name="Trazado 602648" d="M173.967,189.629h0a.317.317,0,0,0-.008-.071.424.424,0,0,0-.038.03c.015.014.031.027.045.041" transform="translate(-150.615 -164.156)" fill="#515262"/>
        <path id="Trazado_602649" data-name="Trazado 602649" d="M164.821,183.135a.064.064,0,0,0,.1,0,.44.44,0,0,1,.005-.047h-.114c0,.013.009.025.012.039l0,.005" transform="translate(-142.726 -158.556)" fill="#515262"/>
        <path id="Trazado_602650" data-name="Trazado 602650" d="M164.654,183.136l0-.005c0-.014-.009-.026-.012-.039h-.026a.22.22,0,0,0,.035.044" transform="translate(-142.559 -158.556)" fill="#515262"/>
        <path id="Trazado_602651" data-name="Trazado 602651" d="M165.658,183.09h-.032a.439.439,0,0,0-.005.047.216.216,0,0,0,.037-.047" transform="translate(-143.427 -158.555)" fill="#515262"/>
        <path id="Trazado_602652" data-name="Trazado 602652" d="M160.144,193.332a2.278,2.278,0,0,1-1.331,0,.418.418,0,0,0-.229-.015.956.956,0,0,1,.018.1,2.518,2.518,0,0,0,1.751,0,.943.943,0,0,1,.018-.1.421.421,0,0,0-.227.015" transform="translate(-137.333 -167.402)" fill="#515262"/>
        <path id="Trazado_602653" data-name="Trazado 602653" d="M157.809,193.437h0c.041.017.081.029.122.044a.919.919,0,0,0-.018-.1.271.271,0,0,0-.1.054" transform="translate(-136.662 -167.468)" fill="#515262"/>
        <path id="Trazado_602654" data-name="Trazado 602654" d="M171.783,193.478c.041-.015.083-.027.124-.044a.27.27,0,0,0-.106-.054.948.948,0,0,0-.018.1" transform="translate(-148.763 -167.465)" fill="#515262"/>
        <path id="Trazado_602655" data-name="Trazado 602655" d="M144.332,49.733h1.5a6.407,6.407,0,0,0-1.5,0" transform="translate(-124.991 -43.031)" fill="#694b4b"/>
        <path id="Trazado_602656" data-name="Trazado 602656" d="M144.332,49.329a6.407,6.407,0,0,1,1.5,0,2.689,2.689,0,0,0-1.5,0" transform="translate(-124.991 -42.628)" fill="#694b4b"/>
        <path id="Trazado_602657" data-name="Trazado 602657" d="M278.385,356.9a.851.851,0,1,0-.012,1.7q1.8.009,3.6,0a.791.791,0,0,0,.849-.788.826.826,0,0,0-.838-.912c-.6-.011-1.2,0-1.8,0s-1.2,0-1.8,0" transform="translate(-240.321 -309.069)" fill="#a5d66e"/>
        <path id="Trazado_602658" data-name="Trazado 602658" d="M14.272,356.9a.826.826,0,0,0-.906.9c0,.509.332.8.926.807.567,0,1.134,0,1.7,0,.6,0,1.2,0,1.8,0a.852.852,0,1,0-.021-1.7q-1.75-.006-3.5,0" transform="translate(-11.575 -309.073)" fill="#d1555a"/>
        <path id="Trazado_602659" data-name="Trazado 602659" d="M146.678,356.9a.772.772,0,0,0-.877.839c0,.573.29.856.9.863.567.006,1.134,0,1.7,0s1.134,0,1.7,0c.6-.006.91-.285.91-.807a.791.791,0,0,0-.887-.9q-1.725-.01-3.451,0" transform="translate(-126.263 -309.069)" fill="#fec36e"/>
      </g>
    </g>
  </g>
</svg>
