<svg xmlns="http://www.w3.org/2000/svg" xmlns:xlink="http://www.w3.org/1999/xlink" width="112" height="112" viewBox="0 0 112 112">
  <defs>
    <clipPath id="clip-path">
      <rect id="Rectángulo_297837" data-name="Rectángulo 297837" width="74.125" height="74.71" fill="none"/>
    </clipPath>
  </defs>
  <g id="Grupo_886472" data-name="Grupo 886472" transform="translate(-1099 -9566)">
    <circle id="Elipse_4781" data-name="Elipse 4781" cx="56" cy="56" r="56" transform="translate(1099 9566)" fill="#e1fbff"/>
    <g id="Grupo_878992" data-name="Grupo 878992" transform="translate(1118.951 9584.736)">
      <g id="Grupo_878992-2" data-name="Grupo 878992" clip-path="url(#clip-path)">
        <path id="Trazado_591858" data-name="Trazado 591858" d="M180.165,33.013q4.63,0,9.26,0c.6,0,.855-.32.844-.9-.009-.477-.013-.954,0-1.43a4,4,0,0,1,3.53-3.867,3.955,3.955,0,0,1,4.336,3.212,9.982,9.982,0,0,1,.083,1.875c.018.944.164,1.112,1.085,1.113q4.367.006,8.733,0c.922,0,1.124-.188,1.125-1.086q.006-13.815,0-27.629c0-.889-.226-1.1-1.12-1.106-1.681,0-3.363.012-5.044-.008-.693-.008-1.588.3-2.025-.133-.4-.4-.1-1.288-.114-1.961-.011-.474-.03-.943-.6-1.067s-.8.282-.957.735c.014,1.729.065,3.458.025,5.186A1.44,1.44,0,0,0,200.373,7.6a17.707,17.707,0,0,1,2.105.983,1.066,1.066,0,0,1,.635,1.467,1.1,1.1,0,0,1-1.533.465c-.322-.136-.632-.3-.953-.44-.806-.346-1.262-.063-1.271.827-.018,1.755,0,3.511-.01,5.266a2.5,2.5,0,0,1-1.743,2.6c-.514.16-.76.113-.739-.545.049-1.528.01-3.059.019-4.588,0-.577.013-1.215-.741-1.233s-.778.605-.773,1.193c.013,1.555-.019,3.11.017,4.664.012.514-.162.612-.634.61-1.635-.006-1.635.011-1.635-1.628,0-1.254-.012-2.508.005-3.762.008-.558-.091-1.07-.741-1.081s-.78.486-.775,1.052c.013,1.6-.023,3.211.019,4.814.016.621-.241.648-.705.514a2.415,2.415,0,0,1-1.747-2.127c-.041-.6-.033-1.2-.02-1.8.012-.557-.146-.974-.75-1.1a.8.8,0,0,0-.75.937c.021.677-.012,1.356.018,2.033a3.84,3.84,0,0,0,3.726,3.629q2.823.046,5.648,0a3.823,3.823,0,0,0,3.778-3.731c.039-1.355.023-2.711.01-4.066,0-.447,0-.681.6-.5a2.5,2.5,0,0,0,3.119-1.521,2.552,2.552,0,0,0-1.294-3.24,17.06,17.06,0,0,0-1.907-.888c-.771-.285-.51-.9-.48-1.394s.5-.3.787-.3c1.782-.025,3.564-.01,5.346-.039.486-.008.712.081.711.647q-.025,12.84-.014,25.681c0,.164.066.359-.133.472-2.481.015-4.963.025-7.444.048-.578.005-.38-.417-.388-.691a5.543,5.543,0,0,0-3.564-5.185,5.462,5.462,0,0,0-7.385,5.009c-.013.744-.216.9-.921.883-2.005-.051-4.013-.012-6.019-.02-1.136,0-1.014.159-1.017-.98-.006-2.408,0-4.816,0-7.223,0-1.071-.138-1.2-1.226-1.2a10.1,10.1,0,0,1-1.8-.1,3.96,3.96,0,0,1,.5-7.839c.5-.023,1-.024,1.5-.009a.985.985,0,0,0,.966-.445c0-2.753.029-5.505,0-8.258-.006-.626.169-.81.8-.793,1.8.047,3.6.045,5.4.025.521-.006.709.148.69.68-.035.975,0,1.952-.014,2.928-.01.573.213.907.805.948.643-.134.7-.616.694-1.147q-.008-3.257,0-6.513c0-.273.024-.547.036-.82-.162-.452-.388-.859-.96-.733s-.6.594-.587,1.069c.01.452-.033.907.01,1.354.055.569-.1.774-.724.761-2.107-.043-4.216-.017-6.324-.016-1.1,0-1.271.168-1.272,1.255,0,2.509-.014,5.019.01,7.528,0,.5-.093.731-.648.678a4.423,4.423,0,0,0-1.776.246,5.465,5.465,0,0,0,1.693,10.68c.6.017.74.179.733.757-.031,2.534-.01,5.069-.015,7.6,0,.586.108,1.073.835,1.074" transform="translate(-138.236 0)"/>
        <path id="Trazado_591859" data-name="Trazado 591859" d="M3.195,44.446c0,1.134.105,1.237,1.263,1.238,2.51,0,5.019.013,7.529-.01.483,0,.661.109.645.622a5.456,5.456,0,1,0,10.909.222c0-.7.2-.86.872-.849,2.509.04,5.019.02,7.528.013.83,0,1.074-.219,1.076-.989.009-2.986,0-5.973.006-8.959,0-.7-.324-.995-1.019-.977a9.834,9.834,0,0,1-1.877-.069,3.957,3.957,0,0,1-.4-7.742,8.838,8.838,0,0,1,2.17-.13c.88-.022,1.117-.236,1.118-1.111q.007-4.367,0-8.733c0-.874-.243-1.119-1.114-1.119q-13.815,0-27.631,0c-.847,0-1.075.228-1.078,1.059-.006,1.706,0,3.413,0,5.119,0,.673.217,1.545-.117,1.964-.356.446-1.266.1-1.932.149-.075.006-.151,0-.226,0-.4.013-.763.108-.881.549a.735.735,0,0,0,.511.95c1.907,0,3.813-.015,5.719.015a1.122,1.122,0,0,0,1.21-.775c.322-.786.7-1.551,1.074-2.314a1.087,1.087,0,0,1,1.463-.673c.6.256.772.863.454,1.6-.138.321-.306.63-.44.953-.3.729-.02,1.186.77,1.194,1.781.017,3.563,0,5.344.01a2.512,2.512,0,0,1,2.639,1.9c.124.465.048.617-.461.608-1.58-.028-3.161-.008-4.741-.011-.568,0-1.2-.038-1.18.772.017.74.606.737,1.154.736,1.58,0,3.161.017,4.741-.012.469-.008.583.133.584.592,0,1.669.023,1.669-1.613,1.669-1.279,0-2.559.007-3.838,0-.553,0-1.051.075-1.031.772.018.632.49.738,1.011.737,1.606,0,3.212.031,4.817-.015.666-.019.691.221.521.741a2.424,2.424,0,0,1-2.154,1.715c-.6.033-1.2.026-1.806.012-.544-.013-.93.163-1.049.738.072.589.428.8.992.775s1.155,0,1.732-.009a3.941,3.941,0,0,0,3.9-3.885q.058-2.71,0-5.422a3.978,3.978,0,0,0-4.045-3.917c-1.2-.033-2.41,0-3.615-.012a1.371,1.371,0,0,1-.74-.079,9.281,9.281,0,0,0,.174-1.1A2.524,2.524,0,0,0,10.316,20.4,2.549,2.549,0,0,0,7.35,21.615a15.845,15.845,0,0,0-.957,2.039c-.291.781-.913.471-1.4.463-.529-.009-.236-.5-.283-.768a3.64,3.64,0,0,1,.019-.749c-.01-1.581,0-3.162-.041-4.742-.015-.568.314-.5.672-.5q6.439,0,12.877,0c4.192,0,8.384.011,12.576-.013.561,0,.722.138.713.708-.035,2.133-.039,4.267,0,6.4.012.656-.123.885-.841.88a5.421,5.421,0,0,0-5.3,4.279A5.5,5.5,0,0,0,30.9,36.256c.5-.01.633.146.628.637q-.037,3.313,0,6.627c.007.529-.146.674-.671.669-2.51-.026-5.02-.013-7.53-.011-1.083,0-1.256.187-1.273,1.265a7.938,7.938,0,0,1-.107,1.947,4,4,0,0,1-4.055,3.037,3.949,3.949,0,0,1-3.716-3.517,15.482,15.482,0,0,1-.056-1.578c-.016-.962-.194-1.152-1.144-1.153-2.51,0-5.02-.018-7.53.011-.568.007-.781-.111-.758-.729.057-1.529.036-3.06.047-4.591-.1-1.489-.1-1.489,1.353-1.489.7,0,1.4-.022,2.095.006.583.024.969-.169,1.077-.776-.148-.6-.561-.744-1.128-.743-2.449,0-4.9-.017-7.348-.029h0c-.479.123-.857.347-.764.924.1.593.55.63,1.031.62.527-.011,1.057.031,1.58-.012.487-.04.58.154.576.6-.022,2.158-.011,4.316-.009,6.475" transform="translate(0 -12.659)"/>
        <path id="Trazado_591860" data-name="Trazado 591860" d="M46.33,216.576c-.522-.019-.662-.139-.656-.664.029-2.534.015-5.069.012-7.6,0-.959-.193-1.155-1.13-1.156q-3.84,0-7.68,0c-2.183,0-2.193-.247-2.155,2.163,0,.025,0,.05,0,.075a3.957,3.957,0,0,1-7.9.31c-.047-.5-.022-1-.032-1.5-.018-.875-.185-1.041-1.08-1.042q-4.367,0-8.734,0c-.982,0-1.113.136-1.113,1.151q0,13.741,0,27.481c0,1,.188,1.188,1.177,1.189,2.184,0,4.367.015,6.55-.01.47-.006.614.124.577.588-.042.524,0,1.054-.014,1.58-.016.467.068.887.58,1,.559.124.82-.243.957-.725-.009-1.832-.037-3.663-.017-5.495a1.151,1.151,0,0,0-.764-1.228c-.783-.333-1.548-.707-2.314-1.079-.738-.358-.981-.9-.693-1.5s.865-.751,1.6-.428c.3.131.588.281.888.407.806.34,1.263.05,1.269-.835.013-1.832-.006-3.665.01-5.5a2.424,2.424,0,0,1,1.749-2.364c.47-.142.734-.124.718.507-.039,1.605-.012,3.212-.014,4.819a.974.974,0,0,0,.363.932.672.672,0,0,0,.71.056.787.787,0,0,0,.433-.805c0-1.632.024-3.263-.013-4.894-.012-.554.122-.73.7-.718,1.557.03,1.558,0,1.558,1.564,0,1.28.007,2.56,0,3.84,0,.556.113,1.068.762,1.074s.757-.508.752-1.066c-.014-1.606.02-3.213-.018-4.819-.013-.566.2-.638.663-.517a2.516,2.516,0,0,1,1.847,2.385c.026.551.023,1.1,0,1.656a.885.885,0,0,0,.75,1.037h0a.979.979,0,0,0,.771-1.123A15.3,15.3,0,0,0,37.29,223a3.887,3.887,0,0,0-3.751-3.186c-1.854-.023-3.71-.026-5.564,0a3.881,3.881,0,0,0-3.812,3.861q-.028,1.992,0,3.985c.005.43-.014.629-.558.459a2.557,2.557,0,0,0-1.9,4.732c.575.3,1.175.558,1.765.834a1.244,1.244,0,0,1,.67,1.571.307.307,0,0,1-.341.216q-3.156-.009-6.313-.024c-.03,0-.059-.071-.089-.109-.011-.25-.032-.5-.032-.75q0-12.536-.016-25.071c0-.666.139-.9.853-.88,2.082.051,4.166.037,6.248.006.58-.009.8.093.842.753a5.463,5.463,0,0,0,10.92.285c.029-1.026.029-1.026,1.061-1.026,2.083,0,4.166.017,6.249-.012.536-.007.672.163.667.682-.025,2.534-.013,5.069-.01,7.6,0,.994.134,1.123,1.141,1.125a7.21,7.21,0,0,1,2.454.268A3.953,3.953,0,0,1,46.541,226c-.452.01-.9.02-1.355,0a.923.923,0,0,0-1.014.6c.007,2.779.006,5.557.029,8.336,0,.439-.161.55-.571.546-1.878-.019-3.756-.032-5.633,0-.533.008-.619-.213-.608-.667.025-.951,0-1.9.009-2.854.005-.578-.2-.971-.824-1.04h0c-.615.094-.7.524-.7,1.045.007,2.517,0,5.034,0,7.55a.727.727,0,0,0,.884.617c.509-.1.636-.5.63-.973-.007-.527.032-1.057-.011-1.58-.04-.493.121-.627.615-.621,2.158.028,4.316.014,6.475.011,1.009,0,1.217-.215,1.218-1.245,0-2.535.014-5.07-.011-7.6,0-.491.124-.642.62-.62a5.176,5.176,0,0,0,3.555-1.188,5.47,5.47,0,0,0-3.52-9.741" transform="translate(-12.665 -165.445)"/>
        <path id="Trazado_591861" data-name="Trazado 591861" d="M236.593,202.488c-1.882,0-3.763.025-5.644-.01a1.164,1.164,0,0,0-1.257.819c-.32.787-.7,1.552-1.073,2.315a1.074,1.074,0,1,1-1.922-.926c.128-.3.282-.586.414-.884.38-.857.106-1.3-.826-1.309-1.781-.011-3.562.007-5.344-.008a2.516,2.516,0,0,1-2.49-1.705c-.157-.5-.177-.838.561-.813,1.579.053,3.161.007,4.741.021.561,0,1.063-.1,1.048-.765s-.536-.75-1.083-.748c-1.555.007-3.111-.017-4.666.013-.521.01-.745-.072-.733-.678.033-1.569,0-1.57,1.583-1.57,1.3,0,2.609-.007,3.914,0,.541,0,.994-.146.988-.759s-.467-.753-1-.751c-1.606.007-3.212-.032-4.816.018-.688.021-.681-.291-.544-.766a2.478,2.478,0,0,1,2.17-1.705c.6-.031,1.2-.031,1.806-.011a.882.882,0,0,0,1.037-.747.853.853,0,0,0-1.012-.768,21.324,21.324,0,0,0-2.329.071,3.865,3.865,0,0,0-3.26,3.777c-.043,1.806-.04,3.614,0,5.421a3.93,3.93,0,0,0,4.045,3.971c1.452.023,2.906,0,4.406,0a3.221,3.221,0,0,0-.2,1.9,2.564,2.564,0,0,0,2.1,1.907,2.5,2.5,0,0,0,2.651-1.314,14.828,14.828,0,0,0,.922-1.973c.279-.777.891-.51,1.388-.5.588.009.33.522.335.81.03,1.757,0,3.514.042,5.271.012.55-.122.723-.7.721q-12.764-.03-25.529,0c-.539,0-.672-.165-.665-.68.026-2.133.011-4.267.011-6.4,0-.949,0-.949,1-.891a5.47,5.47,0,0,0,1.052-10.792,7.16,7.16,0,0,0-1.491-.155c-.371-.009-.536-.1-.533-.507.016-2.308.021-4.616,0-6.924-.005-.493.237-.5.6-.5q3.8.013,7.6,0c1.051,0,1.219-.177,1.234-1.214a9.194,9.194,0,0,1,.085-1.8,3.966,3.966,0,0,1,7.864.663c.014.426,0,.853.006,1.279.011.831.238,1.067,1.074,1.069,2.483.006,4.967,0,7.451,0,.273,0,.547.033.82.051h0c.247.363.1.77.107,1.152.014,1.6-.03,3.2,0,4.792.013.6-.12.846-.773.8-.895-.058-1.8.012-2.695-.024a.958.958,0,0,0-1.144.808h0a1.038,1.038,0,0,0,1.156.716c2.47-.014,4.941.007,7.411.016.45-.135.8-.384.705-.9-.1-.552-.54-.653-1.038-.633a13.054,13.054,0,0,0-1.353.016c-.71.1-.81-.209-.8-.831.037-2.107.017-4.215.012-6.323,0-.963-.188-1.147-1.138-1.148-2.559,0-5.119-.013-7.678.01-.478,0-.675-.1-.627-.613a4.54,4.54,0,0,0-.227-1.7,5.463,5.463,0,0,0-10.705,1.45c-.007.749-.217.887-.917.874-2.508-.046-5.018-.01-7.527-.024-.595,0-1,.178-1,.828q-.013,4.629,0,9.259c0,.6.339.846.912.849.6,0,1.208-.013,1.8.051a3.949,3.949,0,0,1,.565,7.748,8.7,8.7,0,0,1-2.169.126c-.9.026-1.112.213-1.114,1.112q-.009,4.366,0,8.732c0,.943.2,1.13,1.167,1.13q13.738,0,27.475,0c.981,0,1.181-.2,1.183-1.2,0-2.083.025-4.166-.013-6.248-.012-.646.1-.968.832-.867a11.529,11.529,0,0,0,1.428.014.812.812,0,0,0,.921-.6c.111-.468-.151-.757-.583-.906" transform="translate(-163.077 -140.76)"/>
        <path id="Trazado_591862" data-name="Trazado 591862" d="M215.149,308.412a1.468,1.468,0,0,0-.337.04c.1-.014.208-.026.337-.04" transform="translate(-171.57 -246.329)"/>
        <path id="Trazado_591863" data-name="Trazado 591863" d="M293.011,253.142c-2.182.008-4.364.021-6.546-.006-.639-.008-1.2-.178-1.364-.919,0-.01,0-.018,0-.028l-1.325-.031h0c-.1.419-.313.731-.777.732s-.656-.351-.793-.735l-1.337,0c-.029.632-.447.877-1.012.944a15.4,15.4,0,0,1-1.73.033,2.241,2.241,0,0,0-1.884,1.069q-.609.867.449.888c1.279.025,2.559,0,3.839.009a3.614,3.614,0,0,1,.9.064c.477.122.858.388.853.913a.941.941,0,0,1-.908.937,5.638,5.638,0,0,1-.9.034c-1.255,0-2.51.016-3.764,0-.667-.011-.787.342-.781.9.006.538.073.933.76.923,1.3-.018,2.61-.008,3.914,0a2.739,2.739,0,0,1,.968.107.9.9,0,0,1,.705.946.934.934,0,0,1-.83.85,5.133,5.133,0,0,1-.976.043c-1.23,0-2.459-.006-3.689.006-.264,0-.6-.076-.734.237a.822.822,0,0,0,.2.772,2.519,2.519,0,0,0,2.2,1.1c1.505.023,3.011,0,4.517.008a7.684,7.684,0,0,1,.828.018.966.966,0,0,1,.893,1.383c-.092.287-.251.547-.362.827-.292.739-.224,1.173.218,1.4.481.244.942.014,1.309-.661a8.686,8.686,0,0,0,.622-1.369,2.1,2.1,0,0,1,2.426-1.62c1.321.109,2.658.023,3.988.024a1.809,1.809,0,0,1,1.02.191h0a1.562,1.562,0,0,1-.117-.806q0-4.7,0-9.393h0a1.1,1.1,0,0,1-.779.218" transform="translate(-220.387 -201.396)" fill="#feb59e"/>
        <path id="Trazado_591864" data-name="Trazado 591864" d="M291.681,262.939c-1.33,0-2.667.085-3.988-.024a2.1,2.1,0,0,0-2.427,1.62,8.657,8.657,0,0,1-.622,1.369c-.367.675-.829.905-1.309.661-.442-.225-.51-.659-.218-1.4.111-.28.27-.54.362-.827a.966.966,0,0,0-.893-1.383,7.648,7.648,0,0,0-.827-.018c-1.506,0-3.012.014-4.517-.008a2.518,2.518,0,0,1-2.2-1.1.823.823,0,0,1-.2-.772c.134-.313.47-.235.734-.237,1.229-.011,2.459,0,3.689-.006a5.12,5.12,0,0,0,.976-.043.934.934,0,0,0,.83-.85.9.9,0,0,0-.7-.946,2.738,2.738,0,0,0-.968-.107c-1.3-.005-2.61-.015-3.914,0-.687.009-.753-.385-.76-.923-.007-.56.114-.914.781-.9,1.254.021,2.509.007,3.764,0a5.666,5.666,0,0,0,.9-.034.941.941,0,0,0,.908-.937c.006-.525-.376-.791-.852-.913a3.613,3.613,0,0,0-.9-.064c-1.28,0-2.56.016-3.839-.009q-1.057-.021-.449-.888a2.241,2.241,0,0,1,1.884-1.069,15.348,15.348,0,0,0,1.73-.033c.565-.067.983-.312,1.012-.944h-.109a.882.882,0,0,1-1.037.748c-.6-.02-1.2-.02-1.806.01a2.478,2.478,0,0,0-2.17,1.705c-.137.475-.144.787.544.766,1.6-.05,3.211-.011,4.816-.018.535,0,1,.141,1,.751s-.447.763-.988.759c-1.3-.009-2.609,0-3.914,0-1.584,0-1.55,0-1.583,1.57-.013.607.211.689.733.678,1.555-.03,3.111-.006,4.666-.013.547,0,1.068.088,1.083.748s-.487.77-1.048.766c-1.58-.013-3.162.032-4.741-.021-.738-.025-.718.31-.561.813a2.516,2.516,0,0,0,2.49,1.7c1.781.015,3.562,0,5.344.008.932.006,1.206.452.826,1.309-.132.3-.285.585-.414.884a1.074,1.074,0,1,0,1.922.926c.375-.763.752-1.528,1.073-2.315a1.163,1.163,0,0,1,1.257-.819c1.881.035,3.762.011,5.644.01h0a1.808,1.808,0,0,0-1.02-.191" transform="translate(-219.185 -201.403)" fill="#feb59e"/>
        <path id="Trazado_591865" data-name="Trazado 591865" d="M322.76,253.043a1.038,1.038,0,0,1-1.156-.716h0l-.117,0c0,.01,0,.018,0,.027.161.741.725.911,1.364.919,2.182.027,4.364.015,6.546.006a1.105,1.105,0,0,0,.779-.217c-2.47-.009-4.941-.03-7.411-.016" transform="translate(-256.768 -201.531)" fill="#feb59e"/>
        <path id="Trazado_591866" data-name="Trazado 591866" d="M60.323,295.736c0-2.146-.007-4.292,0-6.438,0-.594.056-1.174.793-1.341l.106.017q.024-.682.046-1.364c-.424-.1-.728-.318-.732-.794a.7.7,0,0,1,.673-.745,5.028,5.028,0,0,0,.061-1.336,1.036,1.036,0,0,1-.914-1.094c-.047-.525.013-1.054-.041-1.578a2.4,2.4,0,0,0-1.164-2.07c-.672-.367-.915-.244-.927.51-.019,1.2,0,2.407-.006,3.611,0,.276.008.552-.012.827-.055.74-.386,1.153-.924,1.164-.511.01-.939-.43-.979-1.133-.082-1.452-.015-2.908-.034-4.362-.011-.829-.1-.907-.905-.9s-.9.083-.908.909c-.012,1.4.009,2.808-.009,4.212-.01.838-.3,1.24-.873,1.257s-1.021-.465-1.05-1.232c-.053-1.4-.006-2.808-.025-4.212,0-.284.11-.667-.24-.8-.3-.113-.572.119-.812.3a2.327,2.327,0,0,0-.91,1.97q0,2.219,0,4.438c0,.276.009.552-.013.827-.084,1.017-.71,1.4-1.673,1.015-.3-.12-.586-.286-.9-.389a.837.837,0,0,0-1.157.38c-.235.485.068.818.426,1.081a6.687,6.687,0,0,0,1.686.82,2.2,2.2,0,0,1,1.649,2.507c-.1,1.245-.019,2.505-.025,3.759a1.478,1.478,0,0,1-.2,1.009l9.383,0a1.544,1.544,0,0,1,.806.115h0a1.884,1.884,0,0,1-.2-.94" transform="translate(-37.314 -222.604)" fill="#feb59e"/>
        <path id="Trazado_591867" data-name="Trazado 591867" d="M114.5,325.829c0-.522.082-.951.7-1.045,0-.036,0-.071,0-.107l-.106-.017c-.737.167-.79.747-.793,1.34-.012,2.146-.005,4.292,0,6.438a1.886,1.886,0,0,0,.2.94h0c0-2.516.01-5.033,0-7.55" transform="translate(-91.285 -259.306)" fill="#feb59e"/>
        <path id="Trazado_591868" data-name="Trazado 591868" d="M49.394,294.506c.006-1.254-.08-2.514.025-3.759a2.2,2.2,0,0,0-1.649-2.507,6.708,6.708,0,0,1-1.686-.82c-.359-.263-.661-.6-.426-1.081a.837.837,0,0,1,1.157-.38c.311.1.594.269.9.389.963.382,1.588,0,1.672-1.016.023-.275.013-.551.014-.827q0-2.219,0-4.438a2.327,2.327,0,0,1,.91-1.969c.24-.184.513-.416.812-.3.35.132.236.515.24.8.02,1.4-.028,2.809.025,4.212.029.767.474,1.249,1.05,1.232s.862-.419.873-1.257c.018-1.4,0-2.808.009-4.212.007-.826.1-.906.908-.909s.894.075.905.9c.02,1.454-.048,2.909.034,4.362.039.7.467,1.143.979,1.133.538-.011.869-.424.924-1.164.021-.275.012-.551.012-.827,0-1.2-.013-2.407.006-3.611.012-.754.255-.877.927-.51a2.4,2.4,0,0,1,1.164,2.07c.054.524-.005,1.054.041,1.578a1.036,1.036,0,0,0,.914,1.093c0-.046,0-.091,0-.137h0a.885.885,0,0,1-.75-1.037c.021-.551.023-1.105,0-1.656a2.516,2.516,0,0,0-1.848-2.385c-.465-.121-.676-.049-.663.517.037,1.605,0,3.212.018,4.819,0,.558-.091,1.072-.753,1.066s-.766-.518-.761-1.074c.01-1.28,0-2.56,0-3.84,0-1.563,0-1.534-1.558-1.564-.579-.011-.713.164-.7.718.037,1.631.011,3.263.013,4.894a.788.788,0,0,1-.433.805.674.674,0,0,1-.711-.056.974.974,0,0,1-.363-.932c0-1.606-.025-3.213.014-4.819.015-.631-.248-.649-.718-.507a2.424,2.424,0,0,0-1.749,2.365c-.016,1.832,0,3.664-.01,5.5-.006.885-.463,1.175-1.269.835-.3-.126-.589-.276-.887-.407-.735-.323-1.313-.167-1.6.428s-.045,1.141.693,1.5c.766.372,1.531.746,2.314,1.079a1.152,1.152,0,0,1,.764,1.228c-.02,1.831.007,3.663.017,5.495a1.479,1.479,0,0,0,.2-1.009" transform="translate(-36.17 -221.554)" fill="#feb59e"/>
        <path id="Trazado_591869" data-name="Trazado 591869" d="M10.187,60.471c.646,0,1.2.173,1.373.9,0,.031,0,.057-.006.087h1.335a.772.772,0,0,1,.734-.718c.47-.023.7.3.816.719h1.324c0-.015,0-.027,0-.042a1.143,1.143,0,0,1,1.207-.921c.577-.029,1.156.019,1.731-.03a2.085,2.085,0,0,0,1.84-1.238c.24-.517.141-.687-.441-.7-1.255-.028-2.51-.007-3.765-.01a7.1,7.1,0,0,1-.9-.026c-.654-.085-1.02-.444-1.025-.994s.357-.889,1.058-.913c1.179-.041,2.359-.01,3.538-.015.276,0,.552,0,.828,0,.945-.01,1.006-.1,1-1.042,0-.6-.268-.785-.826-.779q-2.033.023-4.066,0c-1.055-.009-1.542-.345-1.535-1.032.006-.646.438-.908,1.526-.913,1.355-.005,2.711.007,4.066-.005.718-.007.855-.247.5-.866a2.622,2.622,0,0,0-2.429-1.238c-1.355-.03-2.71-.007-4.065-.01-.3,0-.6.009-.9-.009-1.1-.066-1.433-.58-1.025-1.587a7.176,7.176,0,0,0,.394-1.057.768.768,0,0,0-.345-.977.779.779,0,0,0-1.05.317,8.433,8.433,0,0,0-.993,1.939A1.9,1.9,0,0,1,7.96,50.7c-1.327-.063-2.66-.021-3.99-.011a3.458,3.458,0,0,1-1.255-.193h0c.262.221.239.52.239.821q-.006,4.686,0,9.372a1.334,1.334,0,0,1,.856-.218c2.127,0,4.254-.011,6.381,0" transform="translate(-2.168 -37.507)" fill="#feb59e"/>
        <path id="Trazado_591870" data-name="Trazado 591870" d="M11.227,114.29c.568,0,.981.147,1.128.743h.128c0-.03.007-.056.007-.087-.178-.727-.727-.9-1.374-.9-2.127-.014-4.254-.008-6.381,0a1.334,1.334,0,0,0-.856.218h0c2.449.012,4.9.034,7.348.029" transform="translate(-3.098 -91.081)" fill="#feb59e"/>
        <path id="Trazado_591871" data-name="Trazado 591871" d="M3.972,49.458c1.33-.01,2.663-.052,3.99.011a1.9,1.9,0,0,0,2.119-1.389,8.431,8.431,0,0,1,.993-1.939.779.779,0,0,1,1.05-.317.768.768,0,0,1,.345.977,7.175,7.175,0,0,1-.393,1.057C11.667,48.865,12,49.38,13.1,49.445c.3.018.6.008.9.009,1.355,0,2.711-.02,4.066.01A2.622,2.622,0,0,1,20.5,50.7c.358.619.22.859-.5.866-1.355.013-2.711,0-4.066.005-1.088,0-1.52.267-1.526.913-.007.687.48,1.023,1.535,1.032,1.355.012,2.711.014,4.066,0,.559-.006.825.179.826.779,0,.939-.059,1.032-1,1.042-.276,0-.552,0-.828,0-1.179.005-2.36-.026-3.538.015-.7.025-1.063.364-1.058.914s.37.909,1.025.994a7.145,7.145,0,0,0,.9.026c1.255,0,2.51-.018,3.764.01.582.013.681.184.441.7a2.085,2.085,0,0,1-1.84,1.238c-.575.049-1.154,0-1.731.03a1.143,1.143,0,0,0-1.207.921c0,.015,0,.027,0,.042H15.9c.119-.575.5-.751,1.049-.738.6.015,1.205.021,1.806-.012a2.424,2.424,0,0,0,2.153-1.715c.169-.52.145-.76-.521-.741-1.6.046-3.211.013-4.817.015-.521,0-.993-.1-1.011-.737-.02-.7.478-.776,1.031-.772,1.279.009,2.559,0,3.839,0,1.636,0,1.617,0,1.613-1.669,0-.459-.114-.6-.584-.592-1.58.028-3.161.008-4.741.012-.549,0-1.137,0-1.154-.736-.018-.81.611-.773,1.179-.772,1.581,0,3.161-.017,4.742.011.509.009.586-.143.461-.608a2.512,2.512,0,0,0-2.639-1.9c-1.781-.013-3.563.007-5.344-.01-.79-.007-1.072-.465-.77-1.194.134-.323.3-.632.44-.954.317-.737.142-1.343-.454-1.6a1.087,1.087,0,0,0-1.463.673c-.374.764-.751,1.528-1.074,2.314a1.123,1.123,0,0,1-1.21.775c-1.906-.03-3.812-.014-5.719-.015h0a3.462,3.462,0,0,0,1.255.193" transform="translate(-2.17 -36.279)" fill="#feb59e"/>
        <path id="Trazado_591872" data-name="Trazado 591872" d="M250.245,10.846c-.007.682-.142,1.315-.948,1.512l-.027,0q-.025.688-.05,1.376c.378.129.745.29.726.77a.744.744,0,0,1-.676.75q-.023.669-.045,1.338c.7.105.913.611.982,1.222.064.575.016,1.154.037,1.731a1.983,1.983,0,0,0,1.153,1.805c.579.3.783.194.8-.455.028-1.28.007-2.56.01-3.84a5.994,5.994,0,0,1,.027-.827,1.062,1.062,0,0,1,.935-1.016c.492-.01.892.426.966,1.061a6.614,6.614,0,0,1,.02.752c0,1.255-.011,2.51.005,3.765.009.744.113.823.915.818s.885-.082.893-.846c.015-1.356-.005-2.711.008-4.067.009-.926.358-1.457.943-1.479.613-.024.99.528,1,1.494.011,1.356-.008,2.711.008,4.067.009.782.218.9.9.532a2.016,2.016,0,0,0,1.058-1.939c.008-1.531,0-3.063,0-4.594a6.787,6.787,0,0,1,.025-.828,1.114,1.114,0,0,1,1.7-1.016c.35.137.689.306,1.051.412a.776.776,0,0,0,1-.437.734.734,0,0,0-.31-.984,10.434,10.434,0,0,0-2.084-1.042,1.923,1.923,0,0,1-1.394-2.062c.04-1.38.006-2.761.012-4.142a1.156,1.156,0,0,1,.235-.919h-10.12a1.139,1.139,0,0,1,.245.844c.007,2.081.017,4.163-.005,6.244" transform="translate(-199.053 -3.002)" fill="#feb59e"/>
        <path id="Trazado_591873" data-name="Trazado 591873" d="M259.891,4.684c-.007,1.381.028,2.762-.012,4.142a1.923,1.923,0,0,0,1.394,2.063,10.429,10.429,0,0,1,2.084,1.042.734.734,0,0,1,.31.984.776.776,0,0,1-1,.437c-.362-.106-.7-.275-1.051-.412a1.114,1.114,0,0,0-1.7,1.016,6.713,6.713,0,0,0-.025.827c0,1.531,0,3.063,0,4.594a2.016,2.016,0,0,1-1.058,1.939c-.684.366-.893.25-.9-.532-.015-1.355,0-2.711-.008-4.066-.008-.967-.385-1.518-1-1.495-.585.023-.933.553-.943,1.479-.014,1.355.007,2.711-.008,4.067-.009.764-.1.841-.893.846s-.906-.074-.915-.818c-.016-1.255,0-2.51-.005-3.765a6.562,6.562,0,0,0-.019-.752c-.074-.635-.474-1.071-.966-1.061a1.062,1.062,0,0,0-.934,1.016,5.968,5.968,0,0,0-.028.827c0,1.28.018,2.561-.01,3.841-.014.648-.218.751-.8.455a1.983,1.983,0,0,1-1.153-1.805c-.021-.577.027-1.156-.037-1.731-.068-.611-.284-1.117-.982-1.222l-.005.156c.6.125.762.542.75,1.1-.013.6-.022,1.205.02,1.8a2.415,2.415,0,0,0,1.747,2.127c.465.134.721.107.705-.514-.042-1.6-.005-3.21-.018-4.814,0-.566.128-1.063.775-1.052s.749.523.741,1.081c-.018,1.253-.005,2.508-.005,3.761,0,1.64,0,1.622,1.635,1.629.472,0,.646-.1.634-.61-.036-1.554,0-3.109-.017-4.664-.005-.587.011-1.211.772-1.193s.745.657.741,1.233c-.009,1.53.031,3.061-.019,4.589-.021.658.224.7.739.545a2.5,2.5,0,0,0,1.743-2.6c.01-1.755-.008-3.511.01-5.266.009-.89.465-1.173,1.271-.827.321.138.631.3.953.44a1.1,1.1,0,0,0,1.533-.466,1.066,1.066,0,0,0-.635-1.467,17.728,17.728,0,0,0-2.106-.983,1.44,1.44,0,0,1-1.039-1.657c.04-1.728-.011-3.457-.025-5.186a1.157,1.157,0,0,0-.235.919" transform="translate(-199.053 -3.007)" fill="#feb59e"/>
        <path id="Trazado_591874" data-name="Trazado 591874" d="M250.167,11.091c0,.531-.051,1.013-.694,1.147l0,.119.027,0c.806-.2.94-.83.947-1.512.023-2.081.012-4.162.005-6.244a1.14,1.14,0,0,0-.245-.844c-.013.273-.036.547-.036.819q0,3.257,0,6.513" transform="translate(-199.251 -3.002)" fill="#feb59e"/>
        <path id="Trazado_591875" data-name="Trazado 591875" d="M209.793,24.8c.31.161.648.268.96.426a4.019,4.019,0,0,1,2.364,4,4.067,4.067,0,0,1-3.244,3.663c-.509.077-.669.331-.678.863a11.543,11.543,0,0,1-.208,3.655,5.323,5.323,0,0,1-5.22,3.758c-1.781,0-3.563-.027-5.343.007a5.428,5.428,0,0,1-5.349-5.349c.056-3.612,0-7.225.025-10.837,0-.4-.047-.653-.261-.774-1.38-.019-2.76.013-4.14-.014-.63-.013-.832.245-.827.849.019,2.33.009,4.661.007,6.991a5.483,5.483,0,0,1-.035.9,1.077,1.077,0,0,1-1.1.744c-.5.042-1,0-1.505.031a3.751,3.751,0,0,0-3.509,3.511,3.826,3.826,0,0,0,2.942,3.862,8.118,8.118,0,0,0,1.793.169c1.148.008,1.409.27,1.415,1.438.012,2.309,0,4.618.005,6.927,0,.934.037.967.982.969q2.748.005,5.5,0c.985,0,.985,0,1.1-.965A5.7,5.7,0,0,1,206.4,47.9a6.045,6.045,0,0,1,.462,2.046c.024.372.142.637.568.638,2.183,0,4.366.038,6.549-.018a.527.527,0,0,0,.274-.114c.234-.225.168-.516.168-.784q0-12.267,0-24.535c0-.878-.047-.925-.947-.923-1.386,0-2.772-.019-4.157.01a.315.315,0,0,0-.052.141c-.044.31.322.333.529.44m-19.8.752c.674,0,.764.528.719,1.048.021.557.011,1.113-.683,1.145s-.807-.512-.805-1.038.045-1.152.769-1.155m3.384,23.77c-.979-.005-1.957,0-2.936,0-1,0-1.217-.21-1.229-1.242-.014-1.229,0-2.459,0-3.689,0-1.179-.057-2.362.02-3.537.053-.8-.241-.982-.975-.935a24.607,24.607,0,0,1-2.784,0A2.527,2.527,0,0,1,183,37.4a2.478,2.478,0,0,1,2.633-2.408c.878-.008,1.76-.054,2.634.012.752.057,1.017-.156.962-.94-.073-1.049-.02-2.107-.017-3.16,0-.225.007-.452.028-.676.047-.509.177-.992.821-.939.588.048.661.5.659,1-.008,1.455,0,2.911,0,4.366,0,1.844,0,1.844-1.871,1.844-1.054,0-2.108.009-3.162,0-.638-.007-1.091.224-1.164.9-.061.566.437,1.018,1.141,1.028,1.33.02,2.66,0,3.99.009.912,0,1.061.146,1.063,1.045.006,2.534.021,5.069-.011,7.6-.008.607.182.792.768.748.624-.046,1.254-.012,1.881-.009.513,0,.907.2.927.76.022.595-.386.748-.9.745" transform="translate(-145.139 -19.332)" fill="#fb5d3d"/>
        <path id="Trazado_591876" data-name="Trazado 591876" d="M213.609,24.755c0-.717-.168-.957-.906-.92-1.226.062-2.458.009-3.687.024-.183,0-.458-.1-.576.064,1.386-.029,2.772-.007,4.157-.01.9,0,.947.045.947.923q0,12.267,0,24.535c0,.269.066.56-.168.784a.526.526,0,0,1-.274.114c-2.182.056-4.366.023-6.548.018-.426,0-.544-.266-.568-.638a6.052,6.052,0,0,0-.462-2.046,5.7,5.7,0,0,0-10.938,1.728c-.112.961-.112.963-1.1.965q-2.748,0-5.5,0c-.944,0-.979-.035-.982-.969-.005-2.309.006-4.618-.005-6.927-.006-1.167-.267-1.43-1.415-1.438a8.119,8.119,0,0,1-1.793-.169,3.827,3.827,0,0,1-2.942-3.862,3.752,3.752,0,0,1,3.509-3.511c.5-.034,1,.011,1.5-.031a1.078,1.078,0,0,0,1.1-.744,5.481,5.481,0,0,0,.035-.9c0-2.33.012-4.661-.007-6.991,0-.6.2-.862.827-.849,1.379.028,2.76,0,4.14.014a1.036,1.036,0,0,0-.559-.084,35.287,35.287,0,0,1-3.536,0c-.708-.035-.947.144-.931.9.051,2.407.022,4.816.015,7.225,0,.265.092.558-.148.782a.985.985,0,0,1-.966.445c-.5-.015-1-.014-1.5.009a3.96,3.96,0,0,0-.5,7.839,10.1,10.1,0,0,0,1.8.1c1.088,0,1.225.134,1.226,1.2,0,2.408,0,4.816,0,7.223,0,1.138-.12.975,1.017.98,2.006.008,4.014-.031,6.019.02.7.018.908-.139.921-.883a5.462,5.462,0,0,1,7.385-5.009,5.543,5.543,0,0,1,3.564,5.185c.008.274-.189.7.388.691,2.481-.022,4.963-.033,7.444-.048,0-8.58-.012-17.159.012-25.739" transform="translate(-144.264 -19.033)" fill="#fb5d3d"/>
        <path id="Trazado_591877" data-name="Trazado 591877" d="M240.443,31.781a.785.785,0,0,1,.061-.143.692.692,0,0,1-.684-.681.715.715,0,0,1,.672-.81,1,1,0,0,1-.062-.184,1.905,1.905,0,0,1,.1-1.211c-.632-.031-.865-.455-.9-1.044-.046-.725-.014-1.453-.019-2.179-.009-1.178-.024-1.213-1.227-1.236h-.01a.715.715,0,0,1,.178.5c.016.276.017.552.017.828,0,3.387-.005,6.774,0,10.161a5.1,5.1,0,0,0,5.234,5.235q2.6.015,5.194,0a5.089,5.089,0,0,0,5.231-5.234c0-.552-.005-1.1,0-1.656.014-1.031.08-1.128,1.068-1.424a3.852,3.852,0,0,0,.9-7.028c-.474-.289-1.011-.445-1.482-.735-.2-.121-.377-.279-.321-.543a.419.419,0,0,1,.033-.1c-.123,0-.246,0-.368.007-.339.011-.739-.044-.833.442a.8.8,0,0,0,.513.9c.679.381,1.438.6,2.088,1.035a2.777,2.777,0,0,1,1.2,2.878,2.85,2.85,0,0,1-2.31,2.2,2.509,2.509,0,0,1-.449.037c-1.087-.015-1.087-.015-1.087,1.1,0,1.029.011,2.057,0,3.086a3.937,3.937,0,0,1-3.754,3.957c-2,.08-4.015.077-6.019,0A3.943,3.943,0,0,1,239.623,36c-.012-.677-.023-1.355.011-2.032.029-.553.267-.925.849-.973a2.168,2.168,0,0,1-.041-1.215" transform="translate(-190.388 -19.402)" fill="#b24f33"/>
        <path id="Trazado_591878" data-name="Trazado 591878" d="M244.554,33.06c-.035.677-.023,1.355-.012,2.032a3.943,3.943,0,0,0,3.775,3.938c2,.076,4.015.079,6.019,0a3.937,3.937,0,0,0,3.754-3.957c.015-1.028,0-2.057,0-3.086,0-1.118,0-1.118,1.088-1.1a2.528,2.528,0,0,0,.449-.037,2.85,2.85,0,0,0,2.31-2.2,2.777,2.777,0,0,0-1.2-2.879c-.649-.436-1.409-.654-2.088-1.035a.8.8,0,0,1-.513-.9c.094-.486.495-.431.833-.442.123,0,.246,0,.368-.007.1-.2.333-.143.519-.143,1.43-.005,2.861.015,4.29-.013.491-.009.576.192.575.625q-.015,12.871-.008,25.742a.508.508,0,0,1-.08.357c.2-.113.132-.308.133-.472q0-12.84.014-25.681c0-.566-.225-.655-.712-.647-1.782.029-3.564.014-5.346.039-.283,0-.757-.2-.788.3s-.291,1.109.48,1.394a17.13,17.13,0,0,1,1.907.888,2.552,2.552,0,0,1,1.294,3.24,2.5,2.5,0,0,1-3.119,1.521c-.6-.178-.6.056-.6.5.012,1.355.029,2.712-.01,4.066a3.824,3.824,0,0,1-3.778,3.731q-2.824.045-5.648,0a3.84,3.84,0,0,1-3.725-3.629c-.03-.677,0-1.356-.019-2.033a.8.8,0,0,1,.75-.937,1.352,1.352,0,0,1-.072-.152c-.581.048-.82.42-.848.973" transform="translate(-195.306 -18.493)" fill="#b24f33"/>
        <path id="Trazado_591879" data-name="Trazado 591879" d="M211.389,29.554c.018-1.882.029-3.764-.009-5.645-.012-.58.169-.721.722-.706,1.379.038,2.76.031,4.139,0a.712.712,0,0,1,.531.153h.01c1.2.023,1.218.058,1.227,1.236.006.726-.027,1.454.02,2.179.037.589.27,1.013.9,1.044a.914.914,0,0,1,.079-.114h0c-.592-.041-.815-.375-.805-.948.017-.976-.021-1.953.014-2.928.019-.532-.169-.686-.69-.68-1.8.02-3.6.022-5.4-.025-.626-.017-.8.167-.8.793.028,2.752,0,5.5,0,8.258a16.527,16.527,0,0,0,.06-2.622" transform="translate(-168.788 -18.469)" fill="#b24f33"/>
        <path id="Trazado_591880" data-name="Trazado 591880" d="M248.4,47.66a1.024,1.024,0,0,0,.062.184c.022,0,.042-.01.064-.014h0q.025-.688.05-1.376c-.027,0-.05,0-.076,0a1.905,1.905,0,0,0-.1,1.211" transform="translate(-198.36 -37.099)" fill="#b24f33"/>
        <path id="Trazado_591881" data-name="Trazado 591881" d="M248.4,60.929a2.168,2.168,0,0,0,.041,1.215c.021,0,.039-.006.061-.007l.016,0q.023-.669.045-1.338c-.035,0-.069-.009-.1-.015a.786.786,0,0,0-.061.143" transform="translate(-198.34 -48.55)" fill="#b24f33"/>
        <path id="Trazado_591882" data-name="Trazado 591882" d="M248.922,67.493c-.022,0-.04.005-.061.007a1.376,1.376,0,0,0,.072.152c0-.052,0-.1.005-.156l-.016,0" transform="translate(-198.765 -53.907)" fill="#b24f33"/>
        <path id="Trazado_591883" data-name="Trazado 591883" d="M249.094,46c.026,0,.049,0,.075,0l0-.119h0a.917.917,0,0,0-.08.114" transform="translate(-198.951 -36.648)" fill="#b24f33"/>
        <path id="Trazado_591884" data-name="Trazado 591884" d="M253.58,24.926c.471.289,1.008.446,1.482.735a3.851,3.851,0,0,1-.9,7.028c-.988.3-1.054.393-1.068,1.424-.007.552,0,1.1,0,1.656A5.089,5.089,0,0,1,247.865,41q-2.6.017-5.194,0a5.1,5.1,0,0,1-5.235-5.235c-.007-3.387,0-6.774,0-10.161,0-.276,0-.552-.017-.828a.715.715,0,0,0-.178-.5l-.285,0c.214.121.264.372.261.774-.028,3.612.03,7.225-.026,10.837a5.428,5.428,0,0,0,5.349,5.349c1.781-.034,3.562-.005,5.343-.007a5.322,5.322,0,0,0,5.22-3.758,11.543,11.543,0,0,0,.208-3.655c.01-.532.169-.786.678-.863a4.067,4.067,0,0,0,3.244-3.663,4.019,4.019,0,0,0-2.364-4c-.312-.158-.65-.265-.96-.426-.207-.107-.574-.13-.529-.44a.312.312,0,0,1,.052-.141l-.14,0a.419.419,0,0,0-.033.1c-.057.264.124.422.321.543" transform="translate(-189.256 -19.392)" fill="#b24f33"/>
        <path id="Trazado_591885" data-name="Trazado 591885" d="M323.5,24.157c0-.433-.085-.634-.575-.625-1.43.028-2.86.007-4.29.013-.186,0-.419-.058-.519.143l.14,0c.118-.165.393-.062.576-.064,1.229-.015,2.461.038,3.687-.024.738-.037.908.2.906.92-.024,8.58-.013,17.159-.012,25.739a.508.508,0,0,0,.08-.357q0-12.871.008-25.742" transform="translate(-254.077 -18.795)" fill="#b24f33"/>
        <path id="Trazado_591886" data-name="Trazado 591886" d="M211.477,31.706c.007-2.408.036-4.817-.015-7.225-.016-.752.222-.931.931-.9a35.287,35.287,0,0,0,3.536,0,1.038,1.038,0,0,1,.559.084c.1,0,.19,0,.285,0a.712.712,0,0,0-.531-.153c-1.379.028-2.76.035-4.139,0-.553-.015-.734.126-.722.706.038,1.881.026,3.763.009,5.645a16.523,16.523,0,0,1-.06,2.622h0c.24-.224.147-.518.148-.783" transform="translate(-168.788 -18.782)" fill="#b24f33"/>
        <path id="Trazado_591887" data-name="Trazado 591887" d="M25.1,28.717a4.823,4.823,0,0,1,2.47-2.8,3.98,3.98,0,0,1,5.466,2.622c.153.651.413.891,1.1.842a9.041,9.041,0,0,1,3.487.333,5.483,5.483,0,0,1,3.836,5.2c.066,1.7.051,3.415,0,5.12a5.551,5.551,0,0,1-5.7,5.6c-3.746-.055-7.493-.015-11.24-.013.02,1.377,0,2.754.01,4.131.007.837.07.907.9.911,2.158.009,4.316,0,6.474,0a6.957,6.957,0,0,1,.9.027,1.016,1.016,0,0,1,1.047,1.131,14.309,14.309,0,0,0,.159,2.022,3.845,3.845,0,0,0,3.807,3.11,3.786,3.786,0,0,0,3.568-3.543c.025-.426,0-.853.015-1.279.035-1.005.417-1.419,1.423-1.454,1.254-.044,2.509-.011,3.764-.014,1.154,0,2.309-.018,3.463.006.61.013.85-.217.843-.836-.022-1.907-.018-3.814,0-5.721,0-.557-.2-.814-.767-.874a5.867,5.867,0,0,1-3.715-1.624A5.662,5.662,0,0,1,49.75,31.9c1.1-.119,1.147-.031,1.144-1.326,0-1.782.005-3.563,0-5.345,0-.828-.074-.9-.909-.9q-12.271-.009-24.541,0c-.831,0-.895.075-.9.906-.014,1.355.016,2.71-.013,4.064,0,.019,0,.039,0,.058.312-.057.455-.3.581-.633m1.835,20.7c-.578.014-1.12-.005-1.117-.713,0-.648.475-.8,1.031-.793s1.1.04,1.091.787c-.008.711-.528.74-1.005.718m20.244-1.488c.7.012,1.01-.138.927-.9a17.083,17.083,0,0,1-.012-1.805c0-.469.189-.775.69-.808.551-.037.793.3.8.78.026,1.129.022,2.259,0,3.388-.009.576-.325.844-.92.836-1.33-.019-2.66-.006-3.99-.005-1.305,0-2.61.019-3.915-.008-.48-.01-.668.12-.651.63.035,1.053.017,2.108.006,3.162a2.437,2.437,0,0,1-4.841.459,18.01,18.01,0,0,1-.087-3.528c0-.56-.156-.742-.724-.726-1.329.038-2.66.007-3.99.013-.51,0-.909-.12-.92-.726s.382-.775.888-.777q2.673-.011,5.346,0c.614,0,.9.3.9.938-.019,1.38,0,2.761,0,4.141a1.072,1.072,0,0,0,.849,1.173c.584.136,1.068-.333,1.078-1.041.018-1.3.006-2.61.007-3.915,0-1.087.215-1.3,1.332-1.3,2.409,0,4.819-.027,7.228.016" transform="translate(-19.586 -19.423)" fill="#f1be22"/>
        <path id="Trazado_591888" data-name="Trazado 591888" d="M23.521,28.452c.03-1.354,0-2.709.014-4.064.009-.832.072-.906.9-.906q12.27-.008,24.541,0c.835,0,.9.074.909.9.009,1.782,0,3.563,0,5.345,0,1.294-.044,1.207-1.144,1.326a5.661,5.661,0,0,0-3.334,9.733,5.867,5.867,0,0,0,3.715,1.624c.566.06.771.317.767.874-.016,1.907-.02,3.814,0,5.721.007.619-.232.849-.843.836-1.154-.024-2.308-.009-3.463-.006-1.255,0-2.51-.03-3.764.014-1.006.035-1.388.449-1.423,1.455-.015.426.01.854-.015,1.279a3.786,3.786,0,0,1-3.568,3.543,3.845,3.845,0,0,1-3.808-3.11A14.312,14.312,0,0,1,32.857,51a1.016,1.016,0,0,0-1.047-1.131,6.921,6.921,0,0,0-.9-.027c-2.158,0-4.316.006-6.474,0-.829,0-.892-.074-.9-.911-.012-1.377.009-2.754-.01-4.13h-.207c-.011,1.53.01,3.062-.047,4.59-.023.618.19.736.758.73,2.51-.029,5.02-.015,7.53-.011.951,0,1.128.191,1.144,1.153a15.479,15.479,0,0,0,.056,1.578,3.949,3.949,0,0,0,3.716,3.517,4,4,0,0,0,4.055-3.037,7.938,7.938,0,0,0,.107-1.947c.017-1.078.191-1.264,1.273-1.265,2.51,0,5.02-.015,7.53.011.525.005.678-.14.671-.669q-.043-3.313,0-6.627c.006-.491-.129-.647-.628-.636a5.5,5.5,0,0,1-5.514-6.647,5.421,5.421,0,0,1,5.3-4.278c.718,0,.853-.224.841-.88-.039-2.133-.035-4.267,0-6.4.009-.569-.152-.711-.713-.708-4.192.024-8.384.013-12.576.013q-6.439,0-12.877,0c-.358,0-.687-.064-.672.5.041,1.58.031,3.161.041,4.742a.839.839,0,0,0,.205-.013c0-.02,0-.039,0-.058" transform="translate(-18.585 -18.582)" fill="#f1be22"/>
        <path id="Trazado_591889" data-name="Trazado 591889" d="M31.99,49.457a.753.753,0,0,1-.149-.077c-.1.412-.314.715-.8.694a.72.72,0,0,1-.716-.687.827.827,0,0,1-.134.068,1.779,1.779,0,0,1-1.22-.065c-.061.576-.464.821-1.03.873-.7.065-1.4.024-2.106.027-1.227.005-1.268.006-1.3,1.15a2.131,2.131,0,0,1,.869-.079q5.082-.008,10.164,0a5.308,5.308,0,0,0,5.694-5.481c.048-1.63.039-3.263,0-4.893a5.346,5.346,0,0,0-4.9-5.36c-.724-.036-1.448-.1-2.176-.11-.994-.007-1.038-.043-1.322-.966a3.8,3.8,0,0,0-3.907-2.79A3.928,3.928,0,0,0,25.706,33.9c-.2.32-.312.687-.5,1.011-.163.28-.346.559-.683.478,0,.174,0,.348.005.521.009.247-.024.532.291.625a.769.769,0,0,0,.888-.229,5.1,5.1,0,0,0,.568-1.142,3.811,3.811,0,0,1,1.405-1.9,2.707,2.707,0,0,1,2.864-.074A2.459,2.459,0,0,1,31.9,35.609c-.053.861-.226.979.957.993a20.763,20.763,0,0,1,3.755.116A4.192,4.192,0,0,1,40.166,40.8c.072,1.8.075,3.615,0,5.419a4.152,4.152,0,0,1-4.2,4.061c-.6.01-1.205.027-1.806-.014-.566-.039-.935-.29-.971-.864a1.8,1.8,0,0,1-1.2.06" transform="translate(-19.586 -25.362)" fill="#e7a51e"/>
        <path id="Trazado_591890" data-name="Trazado 591890" d="M24.874,119.959c.7,0,1.406.038,2.106-.027.566-.053.969-.3,1.03-.873a1.066,1.066,0,0,1-.123-.077c-.108.608-.493.8-1.077.776-.7-.028-1.4-.006-2.095-.006-1.453,0-1.453,0-1.353,1.489a.8.8,0,0,1,.21-.132c.032-1.144.074-1.145,1.3-1.15" transform="translate(-18.63 -95.031)" fill="#e7a51e"/>
        <path id="Trazado_591891" data-name="Trazado 591891" d="M32.139,53.591c.035.574.4.825.971.864.6.041,1.2.024,1.806.014a4.152,4.152,0,0,0,4.2-4.061c.075-1.8.072-3.615,0-5.419a4.192,4.192,0,0,0-3.558-4.077,20.747,20.747,0,0,0-3.755-.115c-1.184-.015-1.01-.133-.957-.994A2.459,2.459,0,0,0,29.5,37.379a2.708,2.708,0,0,0-2.864.074,3.81,3.81,0,0,0-1.405,1.9A5.1,5.1,0,0,1,24.66,40.5a.769.769,0,0,1-.887.229c-.315-.093-.282-.378-.291-.625-.006-.174,0-.347,0-.521a.778.778,0,0,1-.206-.084,3.64,3.64,0,0,0-.019.749c.047.272-.246.759.283.768.486.009,1.107.318,1.4-.463a15.863,15.863,0,0,1,.957-2.039A2.549,2.549,0,0,1,28.856,37.3a2.523,2.523,0,0,1,1.818,2.557,9.249,9.249,0,0,1-.174,1.1,1.373,1.373,0,0,0,.74.078c1.2.008,2.411-.021,3.615.012A3.978,3.978,0,0,1,38.9,44.964q.062,2.71,0,5.422A3.941,3.941,0,0,1,35,54.271c-.577.013-1.155-.012-1.732.009s-.92-.186-.992-.775a1.045,1.045,0,0,1-.135.086" transform="translate(-18.54 -29.556)" fill="#e7a51e"/>
        <path id="Trazado_591892" data-name="Trazado 591892" d="M47.815,119.117a.832.832,0,0,0,.134-.068c0-.025-.01-.049-.014-.075H46.6c0,.026,0,.052-.006.077a1.78,1.78,0,0,0,1.22.065" transform="translate(-37.215 -95.024)" fill="#e7a51e"/>
        <path id="Trazado_591893" data-name="Trazado 591893" d="M61.024,119.12a1.8,1.8,0,0,0,1.2-.06c0-.028,0-.056,0-.086H60.892c0,.023-.011.044-.017.067a.753.753,0,0,0,.149.078" transform="translate(-48.621 -95.024)" fill="#e7a51e"/>
        <path id="Trazado_591894" data-name="Trazado 591894" d="M67.535,118.973c0,.03,0,.058,0,.086a1.035,1.035,0,0,0,.135-.086h-.139" transform="translate(-53.94 -95.024)" fill="#e7a51e"/>
        <path id="Trazado_591895" data-name="Trazado 591895" d="M46.109,119.058c0-.025,0-.051.006-.077h-.129a1.067,1.067,0,0,0,.123.077" transform="translate(-36.729 -95.03)" fill="#e7a51e"/>
        <path id="Trazado_591896" data-name="Trazado 591896" d="M25.2,33.933c.189-.325.3-.691.5-1.011a3.928,3.928,0,0,1,3.247-2.139,3.8,3.8,0,0,1,3.906,2.79c.284.923.328.959,1.322.966.727.005,1.451.074,2.176.11a5.346,5.346,0,0,1,4.9,5.36c.037,1.631.047,3.263,0,4.893a5.309,5.309,0,0,1-5.694,5.481q-5.082,0-10.164,0a2.131,2.131,0,0,0-.869.079c0,.04,0,.079,0,.122,0,0,0,.006,0,.009,3.747,0,7.494-.042,11.24.013a5.55,5.55,0,0,0,5.7-5.6c.047-1.706.062-3.416,0-5.12a5.482,5.482,0,0,0-3.836-5.2,9.045,9.045,0,0,0-3.487-.334c-.69.049-.95-.191-1.1-.842a3.98,3.98,0,0,0-5.466-2.622,4.824,4.824,0,0,0-2.47,2.8c-.127.329-.269.576-.581.633,0,.032,0,.065,0,.1.337.08.52-.2.683-.478" transform="translate(-19.586 -24.386)" fill="#e7a51e"/>
        <path id="Trazado_591897" data-name="Trazado 591897" d="M23.718,129.673c0-.043,0-.081,0-.122a.791.791,0,0,0-.21.132h.207v-.01" transform="translate(-18.778 -103.472)" fill="#e7a51e"/>
        <path id="Trazado_591898" data-name="Trazado 591898" d="M23.708,49.318a.828.828,0,0,1-.205.013.777.777,0,0,0,.205.084c0-.032,0-.065,0-.1" transform="translate(-18.772 -39.39)" fill="#e7a51e"/>
        <path id="Trazado_591899" data-name="Trazado 591899" d="M29.534,242.111c.106-.314-.214-.352-.394-.443a6.829,6.829,0,0,1-2.625-1.784,4.055,4.055,0,0,1,2.429-6.346c.5-.092.651-.306.663-.8a14.484,14.484,0,0,1,.113-3.143,5.36,5.36,0,0,1,5.51-4.354c1.681,0,3.363.049,5.042-.011a5.482,5.482,0,0,1,5.47,4.832c.207,2.381.053,4.756.113,7.132.036,1.454.032,2.91-.006,4.364-.009.343.06.534.232.631,1.328.031,2.657,0,3.986.008.764,0,.852-.092.854-.876.006-2.23,0-4.459,0-6.689a8.135,8.135,0,0,1,.03-1.051,1.108,1.108,0,0,1,1.164-.869c.4-.024.8-.01,1.2-.015a3.792,3.792,0,0,0,3.75-3.327,3.638,3.638,0,0,0-3.173-4.066,9.9,9.9,0,0,0-1.571-.146c-1.143-.016-1.406-.281-1.413-1.446-.012-2.258,0-4.516,0-6.775,0-1.088-.023-1.11-1.077-1.112-1.857,0-3.714.016-5.57-.01-.642-.009-.868.218-.9.867A5.691,5.691,0,0,1,38.068,222a5.617,5.617,0,0,1-5.979-4.886c-.032-.224-.069-.446-.1-.669a.637.637,0,0,0-.707-.615c-2.032,0-4.065,0-6.1,0-.447,0-.629.233-.629.657,0,.226-.005.452-.005.677q0,11.893,0,23.786a2.657,2.657,0,0,0,.091,1.04c.166.264.434.216.679.215,1.386,0,2.773.012,4.159,0a.241.241,0,0,0,.057-.093m20.084-2.4c.012.665-.184,1.176-.8,1.146-.688-.033-.708-.626-.714-1.188s.128-1,.738-1c.586,0,.793.438.778.986,0,.05,0,.1,0,.053M45.544,217.1c1,.015,2.008,0,3.012.006.832.006,1.058.232,1.06,1.082.006,2.51.017,5.021-.009,7.531-.006.57.121.809.745.776.976-.052,1.958-.041,2.936-.005a2.483,2.483,0,0,1,2.519,2.222,2.4,2.4,0,0,1-1.993,2.676c-1.017.112-2.056.03-3.085.042-1.262.015-1.1-.172-1.109,1.128q-.013,1.77,0,3.539c0,.538-.154,1-.741,1.026-.666.03-.78-.459-.774-1.03.018-1.682,0-3.364.008-5.046,0-.927.209-1.122,1.171-1.125,1.28,0,2.561,0,3.841,0,.8,0,1.181-.312,1.175-.934-.006-.593-.437-.982-1.178-.992-1.33-.019-2.661,0-3.991-.009-.864,0-1.012-.153-1.017-1.013-.007-1.28,0-2.561,0-3.841,0-1.305-.016-2.611.008-3.916.008-.449-.12-.636-.593-.612-.651.033-1.3.007-1.958.007-.573,0-1.04-.213-1.017-.839.021-.564.486-.677.991-.67" transform="translate(-19.601 -172.375)" fill="#13be6d"/>
        <path id="Trazado_591900" data-name="Trazado 591900" d="M28,241.242c.155,0,.363.061.475-.057-1.386.016-2.773,0-4.159,0-.245,0-.513.049-.679-.215a2.657,2.657,0,0,1-.091-1.04q0-11.893,0-23.786c0-.226.005-.452.005-.677,0-.424.181-.655.629-.656,2.032-.007,4.065,0,6.1,0a.637.637,0,0,1,.707.615c.035.223.071.446.1.669a5.617,5.617,0,0,0,5.978,4.886,5.691,5.691,0,0,0,5.291-5.314c.036-.649.262-.877.9-.868,1.856.027,3.713.007,5.57.01,1.054,0,1.075.024,1.077,1.112,0,2.258-.007,4.516.005,6.775.006,1.165.269,1.43,1.413,1.446a9.923,9.923,0,0,1,1.571.146,3.637,3.637,0,0,1,3.173,4.066,3.792,3.792,0,0,1-3.75,3.327c-.4.006-.8-.008-1.2.016a1.108,1.108,0,0,0-1.164.869,8.133,8.133,0,0,0-.03,1.051c0,2.229,0,4.459,0,6.688,0,.784-.09.878-.854.876-1.328,0-2.657.023-3.986-.008a.971.971,0,0,0,.5.083q1.842-.054,3.687,0c.563.018.731-.159.725-.723-.028-2.408-.015-4.816-.008-7.224,0-.266-.091-.556.12-.794a.924.924,0,0,1,1.014-.6c.451.016.9.006,1.355,0a3.953,3.953,0,0,0,1.238-7.679,7.2,7.2,0,0,0-2.454-.268c-1.007,0-1.14-.131-1.141-1.125,0-2.535-.015-5.07.01-7.6.005-.519-.132-.689-.667-.682-2.083.029-4.166.012-6.249.012-1.031,0-1.031,0-1.061,1.026a5.463,5.463,0,0,1-10.92-.285c-.041-.66-.262-.762-.842-.753-2.082.032-4.167.046-6.248-.006-.714-.018-.855.214-.853.88q.033,12.535.016,25.071c0,.25.021.5.032.75,1.555,0,3.11,0,4.666,0" transform="translate(-18.598 -171.356)" fill="#13be6d"/>
        <path id="Trazado_591901" data-name="Trazado 591901" d="M49.218,272.973l-.046.046a.715.715,0,0,1,.7.637c.062.5-.268.729-.679.87l.1.12c.078.445.206.9-.124,1.28a1.061,1.061,0,0,1,.972,1.157c.055.775.008,1.553.023,2.329.016.846.06.9.889.93.11,0,.221,0,.331.008a.721.721,0,0,1-.15-.422c-.027-.275-.022-.551-.022-.827,0-3.085.006-6.17,0-9.255a6.487,6.487,0,0,0-1.073-4.069,4.985,4.985,0,0,0-3.966-2.13c-1.9-.064-3.813-.054-5.718-.006a5.225,5.225,0,0,0-5.063,5.151c-.014.652-.016,1.3,0,1.956a1.063,1.063,0,0,1-.9,1.182,3.82,3.82,0,0,0-.724,7.194,7.8,7.8,0,0,1,1.259.671.451.451,0,0,1,.2.521.3.3,0,0,1-.022.049c.141,0,.282,0,.423-.005.314-.006.693.062.789-.383a.8.8,0,0,0-.5-.976c-.635-.3-1.271-.6-1.88-.947a2.679,2.679,0,0,1-1.355-3.118,2.789,2.789,0,0,1,3.038-2.039c.593.083.756-.07.741-.641-.029-1.1-.014-2.206-.007-3.309a4.141,4.141,0,0,1,4.216-4.246c1.68-.01,3.362.062,5.038-.018a4.233,4.233,0,0,1,4.375,3.807,9.859,9.859,0,0,1,.029,2.027,1.1,1.1,0,0,1-.89,1.137,1.332,1.332,0,0,1-.011,1.318" transform="translate(-25.175 -210.539)" fill="#139c6d"/>
        <path id="Trazado_591902" data-name="Trazado 591902" d="M126.322,310.217c-.008.627-.017,1.255,0,1.881.012.369-.079.546-.5.541q-2.144-.028-4.289,0a.571.571,0,0,1-.463-.159c-.111,0-.221,0-.331-.008-.828-.032-.873-.084-.889-.93-.015-.776.032-1.554-.023-2.329a1.061,1.061,0,0,0-.972-1.157,1.029,1.029,0,0,1-.088.091h0c.625.068.829.462.824,1.04-.009.951.015,1.9-.009,2.854-.012.453.074.675.608.667,1.877-.028,3.755-.015,5.633,0,.41,0,.575-.106.572-.546-.023-2.778-.022-5.557-.029-8.336-.115,2.129-.022,4.259-.05,6.388" transform="translate(-94.866 -242.668)" fill="#139c6d"/>
        <path id="Trazado_591903" data-name="Trazado 591903" d="M43.73,274.79a9.844,9.844,0,0,0-.029-2.027,4.233,4.233,0,0,0-4.375-3.807c-1.676.081-3.359.009-5.038.018a4.141,4.141,0,0,0-4.216,4.246c-.007,1.1-.023,2.207.007,3.309.015.571-.148.724-.741.641a2.79,2.79,0,0,0-3.038,2.039,2.679,2.679,0,0,0,1.355,3.118c.609.349,1.245.648,1.881.947a.8.8,0,0,1,.5.976c-.1.446-.476.377-.79.383-.141,0-.282,0-.423.005-.07.13-.21.139-.348.135-1.649-.041-3.3.091-4.949-.072.03.038.059.109.089.109q3.156.018,6.313.024a.307.307,0,0,0,.341-.216,1.244,1.244,0,0,0-.67-1.572c-.59-.275-1.19-.53-1.765-.834a2.557,2.557,0,0,1,1.9-4.732c.545.17.563-.028.558-.459q-.024-1.992,0-3.985a3.881,3.881,0,0,1,3.812-3.861c1.854-.027,3.71-.025,5.564,0a3.887,3.887,0,0,1,3.751,3.186,15.3,15.3,0,0,1,.109,2.321.979.979,0,0,1-.771,1.123,1.183,1.183,0,0,1,.092.12,1.1,1.1,0,0,0,.89-1.137" transform="translate(-18.786 -214.811)" fill="#139c6d"/>
        <path id="Trazado_591904" data-name="Trazado 591904" d="M118.87,304.922a1.332,1.332,0,0,0,.011-1.318c-.028.006-.053.015-.083.019l-.011,0a5.028,5.028,0,0,1-.061,1.336c.033,0,.065.007.1.011l.046-.046" transform="translate(-94.827 -242.488)" fill="#139c6d"/>
        <path id="Trazado_591905" data-name="Trazado 591905" d="M119,317.986l-.1-.121-.058.021h0q-.023.682-.046,1.364l.085.016c.33-.382.2-.835.124-1.28" transform="translate(-94.88 -253.879)" fill="#139c6d"/>
        <path id="Trazado_591906" data-name="Trazado 591906" d="M118.863,324.761l-.085-.016,0,.107h0a1.053,1.053,0,0,0,.088-.091" transform="translate(-94.866 -259.374)" fill="#139c6d"/>
        <path id="Trazado_591907" data-name="Trazado 591907" d="M119.039,303.146c.03,0,.055-.013.083-.019a1.185,1.185,0,0,0-.092-.12c0,.046,0,.091,0,.137l.011,0" transform="translate(-95.068 -242.012)" fill="#139c6d"/>
        <path id="Trazado_591908" data-name="Trazado 591908" d="M34.186,278.972a7.783,7.783,0,0,0-1.259-.671,3.82,3.82,0,0,1,.724-7.194,1.063,1.063,0,0,0,.9-1.182c-.015-.652-.013-1.3,0-1.956a5.225,5.225,0,0,1,5.063-5.151c1.905-.048,3.814-.059,5.718.005a4.986,4.986,0,0,1,3.966,2.13,6.488,6.488,0,0,1,1.073,4.069c.009,3.085,0,6.17,0,9.255,0,.276,0,.552.022.827a.72.72,0,0,0,.15.422l.267.007c-.171-.1-.24-.288-.231-.631.038-1.454.042-2.91.006-4.364-.059-2.377.094-4.751-.113-7.132A5.482,5.482,0,0,0,45,262.573c-1.679.06-3.361.011-5.042.011a5.36,5.36,0,0,0-5.51,4.354,14.485,14.485,0,0,0-.113,3.143c-.012.491-.166.7-.663.8a4.055,4.055,0,0,0-2.429,6.346,6.827,6.827,0,0,0,2.625,1.784c.18.091.5.128.394.443a.244.244,0,0,1-.057.093l.157,0a.278.278,0,0,0,.022-.049.451.451,0,0,0-.2-.521" transform="translate(-24.334 -209.715)" fill="#139c6d"/>
        <path id="Trazado_591909" data-name="Trazado 591909" d="M135.391,304.623c-.007,2.408-.02,4.817.008,7.224.007.564-.161.741-.725.723q-1.842-.057-3.687,0a.972.972,0,0,1-.5-.083l-.267-.006a.572.572,0,0,0,.463.159q2.144-.029,4.289,0c.417.006.508-.171.5-.541-.021-.626-.013-1.254,0-1.881.028-2.129-.066-4.259.05-6.388-.211.238-.119.528-.12.794" transform="translate(-104.005 -242.668)" fill="#139c6d"/>
        <path id="Trazado_591910" data-name="Trazado 591910" d="M28.47,347.014c.138,0,.279-.005.348-.135l-.157,0c-.113.119-.32.057-.475.057-1.555.007-3.11,0-4.666,0,1.648.163,3.3.031,4.949.072" transform="translate(-18.786 -277.052)" fill="#139c6d"/>
        <path id="Trazado_591911" data-name="Trazado 591911" d="M238.711,212.3c-.286-.094-.368.172-.483.364-.322.536-.46,1.158-.832,1.678a3.831,3.831,0,0,1-4.006,1.641,3.71,3.71,0,0,1-3.227-2.952c-.133-.588-.354-.828-.993-.8a9.87,9.87,0,0,1-3.853-.407,5.307,5.307,0,0,1-3.454-4.82c-.007-1.908.047-3.817-.014-5.722a5.472,5.472,0,0,1,5.33-5.3c3.614.007,7.229-.019,10.843.019.458,0,.691-.086.794-.328.018-1.4,0-2.8,0-4.207a.526.526,0,0,0-.173-.4,1.625,1.625,0,0,0-.954-.137c-2.232,0-4.463,0-6.695,0-1.324,0-1.652-.334-1.668-1.64,0-.226,0-.452,0-.677a3.846,3.846,0,0,0-3.716-3.955,3.89,3.89,0,0,0-3.822,3.785c-.019.3-.006.6-.012.9-.022,1.221-.366,1.578-1.575,1.584-2.232.011-4.463,0-6.695,0-1.037,0-1.064.027-1.066,1.043q-.006,2.67,0,5.341c0,.974.074,1.037,1.053,1.159a5.4,5.4,0,0,1,4.826,3.931,5.657,5.657,0,0,1-5.235,7.353c-.655-.083-.816.26-.81.848.019,1.907.005,3.815.008,5.722,0,.941.044.985.97.986q6.324,0,12.649,0,5.948,0,11.9,0c.988,0,1.029-.037,1.026-1.011,0-1.313.017-2.627-.009-3.94a.24.24,0,0,0-.1-.065m-2.339-20.081c.518-.029,1.013.02,1.014.73,0,.758-.557.761-1.1.774-.572.014-1.005-.2-1.008-.821,0-.723.559-.695,1.089-.683m-20.4,1.491c-.6-.007-.789.164-.764.762a7.591,7.591,0,0,1-.071,1.947c-.1.479-.263.826-.812.769-.571-.06-.615-.486-.611-.944.008-1.029.02-2.058,0-3.086-.016-.667.249-.962.933-.949,1.3.025,2.609.007,3.914.007s2.609-.016,3.914.008c.455.008.622-.136.61-.6-.027-1.028-.015-2.057-.005-3.086a2.484,2.484,0,1,1,4.962-.024c.01.953.053,1.91-.014,2.859-.051.73.231.881.894.857,1.252-.047,2.509,0,3.763-.02.547-.009,1.019.155,1.044.716.028.643-.517.79-1.056.793q-2.559.014-5.118,0c-.739,0-1.011-.3-1.015-1.071-.006-1.3,0-2.609,0-3.914,0-.745-.427-1.3-.969-1.307s-.976.556-.981,1.295c-.009,1.3,0,2.609,0,3.914,0,.807-.273,1.082-1.078,1.084-2.509.006-5.018.02-7.526-.011" transform="translate(-169.543 -147.484)" fill="#72c1e8"/>
        <path id="Trazado_591912" data-name="Trazado 591912" d="M211.718,210c.042,1.957.027,3.915.006,5.873-.005.478.122.655.63.654q12.688-.02,25.376,0c.5,0,.652-.154.641-.645-.028-1.3-.006-2.61-.014-3.915,0-.151.059-.35-.051-.464.027,1.313.006,2.627.009,3.94,0,.973-.038,1.011-1.026,1.011q-5.948,0-11.9,0-6.324,0-12.649,0c-.926,0-.969-.044-.97-.986,0-1.907.011-3.815-.008-5.722-.006-.588.156-.931.81-.849a5.657,5.657,0,0,0,5.235-7.354,5.4,5.4,0,0,0-4.826-3.931c-.979-.122-1.051-.185-1.053-1.159q-.005-2.67,0-5.341c0-1.016.03-1.042,1.067-1.043,2.232,0,4.463.007,6.695,0,1.208-.006,1.552-.363,1.575-1.584.006-.3-.007-.6.012-.9A3.89,3.89,0,0,1,225.1,183.8a3.846,3.846,0,0,1,3.716,3.955c0,.226,0,.451,0,.677.016,1.306.344,1.636,1.668,1.64,2.231.007,4.463,0,6.695,0a1.623,1.623,0,0,1,.954.137.526.526,0,0,1,.173.4c0,1.4.015,2.805,0,4.208a1.363,1.363,0,0,0,.068-.56c-.045-1.454-.008-2.911,0-4.366-.273-.018-.547-.051-.82-.051-2.483,0-4.967,0-7.451,0-.835,0-1.063-.237-1.074-1.069-.005-.426.008-.853-.006-1.279a3.966,3.966,0,0,0-7.864-.663,9.207,9.207,0,0,0-.085,1.8c-.015,1.037-.183,1.213-1.234,1.214q-3.8,0-7.6,0c-.363,0-.6.006-.6.5.024,2.307.019,4.616,0,6.923,0,.41.162.5.533.508a7.144,7.144,0,0,1,1.491.155,5.47,5.47,0,0,1-1.052,10.792c-.129.014-.24.027-.337.04-.57.142-.573.649-.56,1.253" transform="translate(-169.036 -146.623)" fill="#72c1e8"/>
        <line id="Línea_491" data-name="Línea 491" transform="translate(69.336 43.264)" fill="#72c1e8"/>
        <path id="Trazado_591913" data-name="Trazado 591913" d="M270.161,243.315c.081.057-.01-.035.069.027l.087.067c.134-.369.294-.708.78-.705s.66.3.757.693l.1-.087a1.6,1.6,0,0,1,1.252.1,1.04,1.04,0,0,1,1.134-.916c.874-.042,1.75-.009,2.625-.019.472-.005.754-.167.767-.692,0-.173.005-.345.008-.518a.641.641,0,0,1-.252.107,4.444,4.444,0,0,1-.975.055c-3.414,0-6.827-.015-10.241.007a5.291,5.291,0,0,0-5.064,3.687,4.138,4.138,0,0,0-.187,1.26c0,1.908-.012,3.815,0,5.723a5.1,5.1,0,0,0,4.3,4.977,14.988,14.988,0,0,0,2.776.159,1.09,1.09,0,0,1,1.2.888,3.841,3.841,0,0,0,7.325.359,3,3,0,0,1,.526-.907.5.5,0,0,1,.542-.169.344.344,0,0,1,.052.024c0-.145,0-.289-.009-.434-.01-.313.048-.691-.408-.773a.835.835,0,0,0-.951.438c-.286.5-.518,1.031-.77,1.55a2.81,2.81,0,0,1-3.413,1.635,2.73,2.73,0,0,1-1.93-3.023c.046-.541-.154-.65-.617-.646-1.079.009-2.159.034-3.237-.008a4.343,4.343,0,0,1-4.193-2.968,11.328,11.328,0,0,1-.266-2.537,26.883,26.883,0,0,1,.156-4.733,4.156,4.156,0,0,1,3.683-3.437,17.738,17.738,0,0,1,2.107-.007c.583.024,1,.257,1.068.894a1.747,1.747,0,0,1,1.2-.072" transform="translate(-208.476 -192.696)" fill="#48a5c7"/>
        <path id="Trazado_591914" data-name="Trazado 591914" d="M229.38,248.157c-.065-.637-.485-.87-1.068-.894a17.729,17.729,0,0,0-2.107.006,4.156,4.156,0,0,0-3.683,3.437,26.88,26.88,0,0,0-.156,4.733,11.322,11.322,0,0,0,.266,2.537,4.343,4.343,0,0,0,4.193,2.968c1.078.042,2.158.017,3.237.008.463,0,.663.1.617.646a2.731,2.731,0,0,0,1.93,3.023,2.81,2.81,0,0,0,3.413-1.635c.253-.519.485-1.047.771-1.55a.835.835,0,0,1,.951-.438c.456.081.4.459.408.773,0,.145.006.289.009.434.162.087.143.26.143.416,0,1.456,0,2.912,0,4.367,0,.317-.116.469-.442.444-.125-.009-.251,0-.376,0H212.34c-.84,0-.84,0-.841-.863q0-2.937,0-5.874c0-.9,0-1.017.636-1.1a1.473,1.473,0,0,1,.337-.041c-1-.058-1-.058-1,.891,0,2.134.015,4.268-.011,6.4-.006.515.126.681.665.68q12.764-.025,25.529,0c.581,0,.715-.172.7-.721-.038-1.756-.012-3.514-.042-5.271,0-.288.253-.8-.335-.81-.5-.008-1.109-.275-1.388.5a14.8,14.8,0,0,1-.922,1.973,2.5,2.5,0,0,1-2.651,1.314,2.564,2.564,0,0,1-2.1-1.907,3.22,3.22,0,0,1,.2-1.9c-1.5,0-2.953.019-4.406,0a3.93,3.93,0,0,1-4.045-3.971c-.037-1.806-.04-3.615,0-5.421a3.865,3.865,0,0,1,3.26-3.777,21.3,21.3,0,0,1,2.329-.071.853.853,0,0,1,1.012.768h0a1,1,0,0,1,.109-.07" transform="translate(-168.893 -197.466)" fill="#48a5c7"/>
        <line id="Línea_492" data-name="Línea 492" transform="translate(69.336 43.264)" fill="#48a5c7"/>
        <path id="Trazado_591915" data-name="Trazado 591915" d="M326.248,219.876a.394.394,0,0,1-.147.35c0,.173,0,.345-.008.518-.013.524-.3.687-.767.692-.875.01-1.751-.023-2.625.019a1.04,1.04,0,0,0-1.134.915,1.015,1.015,0,0,1,.1.085h0a.958.958,0,0,1,1.144-.808c.9.036,1.8-.035,2.695.023.653.043.785-.2.773-.8-.034-1.6.011-3.195,0-4.792,0-.382.14-.789-.107-1.152.171,1.648.031,3.3.077,4.951" transform="translate(-256.835 -171.661)" fill="#48a5c7"/>
        <path id="Trazado_591916" data-name="Trazado 591916" d="M314.944,251.12l-.1.087c.005.021.011.041.016.062l1.325.031c0-.029.009-.055.013-.083a1.6,1.6,0,0,0-1.252-.1" transform="translate(-251.464 -200.506)" fill="#48a5c7"/>
        <path id="Trazado_591917" data-name="Trazado 591917" d="M301.746,251.209c-.079-.061.012.03-.069-.027a1.747,1.747,0,0,0-1.2.072c0,.01,0,.017,0,.027s0,.028,0,.043l1.337,0,.017-.046-.087-.067" transform="translate(-239.992 -200.563)" fill="#48a5c7"/>
        <path id="Trazado_591918" data-name="Trazado 591918" d="M300.047,251.887c0-.015,0-.027,0-.043s0-.018,0-.027a1,1,0,0,0-.109.07h.109" transform="translate(-239.56 -201.126)" fill="#48a5c7"/>
        <path id="Trazado_591919" data-name="Trazado 591919" d="M321.5,252l.117,0a1,1,0,0,0-.1-.085c0,.028-.01.053-.013.083" transform="translate(-256.784 -201.204)" fill="#48a5c7"/>
        <path id="Trazado_591920" data-name="Trazado 591920" d="M276.2,256.089a3,3,0,0,0-.526.907,3.841,3.841,0,0,1-7.325-.359,1.09,1.09,0,0,0-1.2-.888,14.974,14.974,0,0,1-2.776-.159,5.1,5.1,0,0,1-4.3-4.977c-.015-1.908,0-3.815,0-5.723a4.145,4.145,0,0,1,.187-1.26,5.29,5.29,0,0,1,5.063-3.687c3.414-.022,6.827,0,10.241-.007a4.444,4.444,0,0,0,.975-.055.643.643,0,0,0,.252-.107q0-.188.006-.375c-.1.242-.336.333-.794.328-3.614-.038-7.229-.012-10.843-.019a5.472,5.472,0,0,0-5.33,5.3c.061,1.906.007,3.815.014,5.722a5.307,5.307,0,0,0,3.454,4.82,9.87,9.87,0,0,0,3.853.407c.639-.029.859.21.993.8a3.709,3.709,0,0,0,3.227,2.952,3.83,3.83,0,0,0,4.006-1.641c.371-.52.509-1.142.832-1.678.115-.192.2-.457.483-.364a.243.243,0,0,1,.1.065q0-.072,0-.143a.344.344,0,0,0-.052-.024.5.5,0,0,0-.542.169" transform="translate(-207.523 -191.208)" fill="#48a5c7"/>
        <path id="Trazado_591921" data-name="Trazado 591921" d="M344.167,219.291a1.36,1.36,0,0,1-.068.56c0,.125,0,.25-.006.375a.393.393,0,0,0,.147-.35c-.046-1.65.094-3.3-.077-4.951,0,1.456-.041,2.912,0,4.366" transform="translate(-274.827 -171.661)" fill="#48a5c7"/>
        <path id="Trazado_591922" data-name="Trazado 591922" d="M238.37,311.833c.008,1.3-.015,2.611.013,3.915.01.491-.145.645-.641.645q-12.688-.019-25.376,0c-.508,0-.635-.177-.63-.655.021-1.957.036-3.916-.006-5.873-.013-.6-.01-1.112.56-1.253-.634.087-.635.206-.635,1.1q0,2.937,0,5.874c0,.861,0,.863.841.863h25.15c.125,0,.252-.009.376,0,.326.025.443-.127.442-.444-.006-1.456,0-2.911,0-4.367,0-.155.019-.329-.143-.416,0,.048,0,.1,0,.143.11.114.05.313.051.464" transform="translate(-169.049 -246.489)" fill="#48a5c7"/>
        <path id="Trazado_591923" data-name="Trazado 591923" d="M308.67,249.93c-.312-.514-.662-.534-1.052-.088a.68.68,0,0,1-.242.192c.7.54.8.557,1.424.028-.059-.018-.1-.077-.129-.132" transform="translate(-245.5 -199.296)" fill="#040404"/>
        <path id="Trazado_591924" data-name="Trazado 591924" d="M308.6,252.082c-.628.529-.721.512-1.424-.028a.422.422,0,0,1-.051.02c.136.384.323.736.793.735s.682-.313.777-.732a.151.151,0,0,1-.095,0" transform="translate(-245.297 -201.315)" fill="#040404"/>
        <path id="Trazado_591925" data-name="Trazado 591925" d="M307.986,248.421c-.486,0-.646.337-.78.705l.034.026a.681.681,0,0,0,.242-.192c.391-.445.741-.426,1.052.088.034.056.07.115.13.132l.079-.067c-.1-.39-.281-.69-.757-.693" transform="translate(-245.365 -198.414)" fill="#040404"/>
        <path id="Trazado_591926" data-name="Trazado 591926" d="M307.139,251.925l-.017.046a.412.412,0,0,0,.051-.02l-.034-.026" transform="translate(-245.298 -201.212)" fill="#040404"/>
        <path id="Trazado_591927" data-name="Trazado 591927" d="M314.449,251.93a.15.15,0,0,0,.095,0c0-.021-.011-.041-.016-.062l-.079.067" transform="translate(-251.15 -201.163)" fill="#040404"/>
        <path id="Trazado_591928" data-name="Trazado 591928" d="M117.423,311.873c.436-.391.437-.741-.1-1.041a.412.412,0,0,1-.156-.14c-.586.58-.587.659.055,1.408a.868.868,0,0,1,.2-.227" transform="translate(-93.237 -248.15)" fill="#010302"/>
        <path id="Trazado_591929" data-name="Trazado 591929" d="M116.145,311.807c-.641-.749-.641-.828-.055-1.408a.287.287,0,0,1-.033-.074.7.7,0,0,0-.673.745c0,.477.309.694.732.794h0a.41.41,0,0,1,.028-.057" transform="translate(-92.158 -247.856)" fill="#010302"/>
        <path id="Trazado_591930" data-name="Trazado 591930" d="M119.653,311.015a.715.715,0,0,0-.7-.637l-.064.063a.411.411,0,0,0,.156.139c.534.3.534.651.1,1.042a.868.868,0,0,0-.2.227l.031.036c.411-.141.741-.374.679-.87" transform="translate(-94.956 -247.899)" fill="#010302"/>
        <path id="Trazado_591931" data-name="Trazado 591931" d="M118.823,310.336c-.032,0-.064-.009-.1-.011a.287.287,0,0,0,.033.074l.064-.063" transform="translate(-94.826 -247.856)" fill="#010302"/>
        <path id="Trazado_591932" data-name="Trazado 591932" d="M119.082,317.722l-.031-.036a.4.4,0,0,0-.028.057h0l.058-.021" transform="translate(-95.064 -253.736)" fill="#010302"/>
        <path id="Trazado_591933" data-name="Trazado 591933" d="M54.949,117.119a.7.7,0,0,1-.072-.056c-.65-.622-.65-.622-1.3-.006a.751.751,0,0,1-.085.066c.639.658.727.656,1.455,0" transform="translate(-42.726 -93.125)" fill="#060402"/>
        <path id="Trazado_591934" data-name="Trazado 591934" d="M53.39,116.1c.647-.616.648-.616,1.3.006a.7.7,0,0,0,.072.056l.048-.043c-.114-.42-.346-.742-.816-.719a.772.772,0,0,0-.734.718l.048.049a.753.753,0,0,0,.085-.066" transform="translate(-42.536 -92.172)" fill="#060402"/>
        <path id="Trazado_591935" data-name="Trazado 591935" d="M54.041,119.912c.49.02.7-.283.8-.695-.011-.007-.02-.016-.03-.024-.729.661-.816.662-1.455,0-.011.008-.022.019-.034.026a.721.721,0,0,0,.716.687" transform="translate(-42.591 -95.2)" fill="#060402"/>
        <path id="Trazado_591936" data-name="Trazado 591936" d="M53.3,119.023l-.048-.049c0,.026.009.05.014.075.012-.008.022-.018.034-.026" transform="translate(-42.536 -95.024)" fill="#060402"/>
        <path id="Trazado_591937" data-name="Trazado 591937" d="M60.753,119.048c.005-.022.012-.044.017-.067l-.048.043c.01.007.02.016.031.024" transform="translate(-48.499 -95.03)" fill="#060402"/>
        <path id="Trazado_591938" data-name="Trazado 591938" d="M247.179,54.938a.527.527,0,0,1,.1-.113c.51-.41.553-.8-.033-1.183a.312.312,0,0,1-.1-.108c-.624.633-.627.733.027,1.4" transform="translate(-197.028 -42.757)" fill="#050302"/>
        <path id="Trazado_591939" data-name="Trazado 591939" d="M249,53.352a.314.314,0,0,0,.1.109c.585.383.542.773.033,1.183a.532.532,0,0,0-.1.113l.068.07a.744.744,0,0,0,.676-.751c.019-.48-.348-.641-.726-.77l-.044.045" transform="translate(-198.876 -42.576)" fill="#050302"/>
        <path id="Trazado_591940" data-name="Trazado 591940" d="M245.556,54.187a.692.692,0,0,0,.684.681.644.644,0,0,1,.034-.055c-.654-.672-.651-.772-.027-1.405-.006-.011-.014-.02-.019-.031a.715.715,0,0,0-.672.81" transform="translate(-196.123 -42.632)" fill="#050302"/>
        <path id="Trazado_591941" data-name="Trazado 591941" d="M248.9,53.321c.005.011.013.021.019.031l.044-.045c-.022,0-.042.01-.064.014" transform="translate(-198.8 -42.576)" fill="#050302"/>
        <path id="Trazado_591942" data-name="Trazado 591942" d="M248.963,60.567c.034.006.067.011.1.015l-.068-.07a.6.6,0,0,0-.034.055" transform="translate(-198.847 -48.331)" fill="#050302"/>
        <path id="Trazado_591943" data-name="Trazado 591943" d="M198.449,67.984c-.627,0-1.257-.037-1.881.009-.586.043-.776-.142-.768-.749.033-2.534.017-5.069.011-7.6,0-.9-.151-1.042-1.063-1.045-1.33-.006-2.66.011-3.99-.009-.7-.011-1.2-.463-1.141-1.028.072-.676.526-.908,1.164-.9,1.054.011,2.108,0,3.162,0,1.871,0,1.871,0,1.871-1.844,0-1.455-.006-2.911,0-4.366,0-.492-.071-.948-.659-1-.643-.053-.774.43-.821.939-.021.224-.028.451-.028.676,0,1.054-.057,2.112.017,3.161.055.784-.21,1-.962.94-.873-.067-1.756-.021-2.634-.012a2.478,2.478,0,0,0-2.633,2.408,2.528,2.528,0,0,0,2.471,2.524,24.653,24.653,0,0,0,2.784,0c.734-.047,1.027.13.975.935-.077,1.174-.02,2.357-.02,3.537,0,1.23-.011,2.459,0,3.689.012,1.032.228,1.239,1.229,1.242.979,0,1.957,0,2.936,0,.516,0,.923-.151.9-.745-.021-.561-.414-.757-.927-.76" transform="translate(-150.232 -39.495)" fill="#fecac2"/>
        <path id="Trazado_591944" data-name="Trazado 591944" d="M219.826,33.115c.694-.032.7-.589.683-1.145.044-.52-.046-1.051-.719-1.048-.724,0-.767.624-.769,1.155s.126,1.069.805,1.038" transform="translate(-174.932 -24.697)" fill="#fec9c0"/>
        <path id="Trazado_591945" data-name="Trazado 591945" d="M58.617,128.948c0,1.305.01,2.61-.007,3.915-.009.708-.494,1.177-1.078,1.041a1.072,1.072,0,0,1-.849-1.173c0-1.38-.015-2.761,0-4.141.009-.636-.282-.936-.9-.938q-2.673-.008-5.346,0c-.506,0-.9.178-.888.777s.41.729.92.726c1.33-.007,2.661.024,3.99-.013.568-.016.723.165.724.726a17.992,17.992,0,0,0,.088,3.528,2.437,2.437,0,0,0,4.841-.459c.011-1.054.028-2.109-.006-3.162-.017-.51.172-.64.651-.63,1.3.027,2.61.009,3.915.008,1.33,0,2.661-.013,3.99,0,.6.008.91-.26.92-.836.018-1.129.023-2.259,0-3.388-.011-.479-.253-.817-.8-.78-.5.033-.691.339-.689.808a17.075,17.075,0,0,0,.012,1.805c.083.759-.224.909-.927.9-2.409-.043-4.818-.018-7.228-.016-1.117,0-1.331.211-1.332,1.3" transform="translate(-39.58 -99.161)" fill="#f7e4af"/>
        <path id="Trazado_591946" data-name="Trazado 591946" d="M32.006,141.513c-.556-.005-1.028.145-1.031.793,0,.708.539.726,1.117.712.477.021,1-.007,1.005-.718.009-.747-.538-.781-1.091-.787" transform="translate(-24.74 -113.027)" fill="#f7e4ae"/>
        <path id="Trazado_591947" data-name="Trazado 591947" d="M124.965,223.675c.652,0,1.306.026,1.957-.007.473-.024.6.163.593.612-.024,1.3-.008,2.61-.008,3.916,0,1.28,0,2.561,0,3.841,0,.86.153,1.008,1.017,1.013,1.33.008,2.661-.01,3.991.009.741.011,1.172.4,1.178.992.007.621-.374.93-1.175.934-1.28.005-2.561,0-3.841,0-.962,0-1.168.2-1.171,1.125-.005,1.682.01,3.364-.007,5.046-.006.571.107,1.06.774,1.03.587-.026.745-.488.741-1.026q-.016-1.77,0-3.54c.01-1.3-.153-1.113,1.109-1.128,1.029-.012,2.068.07,3.085-.042a2.4,2.4,0,0,0,1.992-2.676,2.482,2.482,0,0,0-2.518-2.222c-.978-.036-1.96-.047-2.936.005-.624.033-.751-.206-.745-.776.026-2.51.015-5.021.009-7.531,0-.85-.228-1.076-1.06-1.082-1-.007-2.008.009-3.012-.006-.5-.008-.97.105-.991.67-.024.627.444.839,1.017.839" transform="translate(-98.996 -177.443)" fill="#75feba"/>
        <path id="Trazado_591948" data-name="Trazado 591948" d="M142.322,329.357c-.61,0-.744.447-.738,1s.027,1.154.714,1.188c.618.03.814-.481.8-1.146,0,.048,0,0,0-.053.015-.547-.193-.983-.778-.986" transform="translate(-113.083 -263.057)" fill="#74fdb9"/>
        <path id="Trazado_591949" data-name="Trazado 591949" d="M230.264,197.637c.006-1.3,0-2.609,0-3.914,0-.739.441-1.3.981-1.295s.964.562.969,1.307c.007,1.3,0,2.609,0,3.914,0,.771.275,1.067,1.015,1.071q2.559.015,5.118,0c.539,0,1.084-.15,1.056-.793-.025-.562-.5-.726-1.044-.716-1.254.021-2.51-.027-3.763.02-.662.025-.945-.127-.894-.857.067-.949.024-1.906.014-2.859a2.484,2.484,0,1,0-4.962.024c-.01,1.029-.021,2.058.006,3.086.012.465-.155.608-.61.6-1.3-.024-2.609-.008-3.914-.008s-2.61.018-3.914-.007c-.683-.013-.948.282-.933.949.024,1.028.012,2.057,0,3.086,0,.458.04.885.611.944.549.057.709-.291.812-.769a7.592,7.592,0,0,0,.071-1.947c-.025-.6.168-.77.764-.762,2.509.031,5.018.017,7.527.011.8,0,1.074-.277,1.078-1.084" transform="translate(-175.233 -152.484)" fill="#c4e4fd"/>
        <path id="Trazado_591950" data-name="Trazado 591950" d="M327.576,223.711c.539-.013,1.1-.016,1.1-.774,0-.711-.5-.759-1.014-.73-.53-.011-1.092-.04-1.089.683,0,.622.436.835,1.008.821" transform="translate(-260.83 -177.472)" fill="#c3e4fd"/>
      </g>
    </g>
  </g>
</svg>
