<svg xmlns="http://www.w3.org/2000/svg" xmlns:xlink="http://www.w3.org/1999/xlink" width="112" height="112" viewBox="0 0 112 112">
  <defs>
    <clipPath id="clip-path">
      <rect id="Rectángulo_300845" data-name="Rectángulo 300845" width="76.27" height="78.233" fill="none"/>
    </clipPath>
  </defs>
  <g id="Grupo_886477" data-name="Grupo 886477" transform="translate(-1355 11159)">
    <circle id="Elipse_6632" data-name="Elipse 6632" cx="56" cy="56" r="56" transform="translate(1355 -11159)" fill="#e1fbff"/>
    <g id="Grupo_886212" data-name="Grupo 886212" transform="translate(1373 -11142)">
      <g id="Grupo_886212-2" data-name="Grupo 886212" clip-path="url(#clip-path)">
        <path id="Trazado_603080" data-name="Trazado 603080" d="M129.32.7c0-.572-.129-.7-.7-.7Q101.594.026,74.568.014c-.163.219-.4.131-.614.154a10.986,10.986,0,0,0-3.767,1.644,8.31,8.31,0,0,0-3.4,5.585,48.07,48.07,0,0,0-.135,6.017l.025.007a2.417,2.417,0,0,1,2.775-1.115,2.269,2.269,0,0,1,1.683,2.115A6.069,6.069,0,0,1,70.084,18a6.185,6.185,0,0,1-3.442,2.478q.007,4.533.014,9.066a.456.456,0,0,0,.048.029c1.121-1.246,2.091-1.5,3.264-.852a2.4,2.4,0,0,1,1.16,2.3,6.294,6.294,0,0,1-4.494,5.719h0q0,4.094.009,8.189c0,.269-.087.559.116.8a2.335,2.335,0,0,1,2.7-1.03,2.244,2.244,0,0,1,1.655,1.985,5.459,5.459,0,0,1-.4,2.52,6.365,6.365,0,0,1-4.075,3.718q0,4.57.007,9.14h0c.9-1.147,1.806-1.51,2.877-1.149a2.424,2.424,0,0,1,1.634,2.107,6.144,6.144,0,0,1-2.43,5.008A6.406,6.406,0,0,1,66.641,69.1a8.676,8.676,0,0,0,5.819,8.67c.489.177,1,.3,1.5.45q27.331,0,54.662.014c.572,0,.7-.129.7-.7Q129.3,39.117,129.32.7M102.168,19.615a1.163,1.163,0,1,1,2.314.013c.013,1.6.02,3.2,0,4.8a1.445,1.445,0,0,0,.771,1.448,1.581,1.581,0,0,0,1.66-.1,1.188,1.188,0,0,0,.6-1.138c-.02-1.6-.011-3.2,0-4.8,0-.921.445-1.481,1.161-1.505.693-.023,1.229.566,1.22,1.452a48.664,48.664,0,0,1-.086,5.555,3.87,3.87,0,0,1-7.641-.469c-.009-.863,0-1.727,0-2.59,0-.889-.011-1.778,0-2.666m13.571,17.9c1.036,0,1.545.377,1.545,1.153a1.053,1.053,0,0,1-.973,1.155,5.548,5.548,0,0,1-.836.027H77.687c-.279,0-.56.011-.838-.007a1.173,1.173,0,0,1-1.19-1.136,1.2,1.2,0,0,1,1.225-1.191c.127-.008.254,0,.381,0H115.74M93,19.456a1.047,1.047,0,0,1,.843-1.042,1.116,1.116,0,0,1,1.311.52c.877,1.243,1.736,2.5,2.6,3.751.154.222.318.438.572.788,0-1.377-.006-2.569,0-3.762.005-.817.446-1.353,1.1-1.374.707-.022,1.2.513,1.212,1.353q.061,3.386.105,6.773a3.962,3.962,0,0,1-.012.532,1.338,1.338,0,0,1-.994,1.292,1.258,1.258,0,0,1-1.42-.64c-.819-1.16-1.619-2.334-2.433-3.5a1.38,1.38,0,0,0-.584-.617c0,1.23-.011,2.405,0,3.58a1.165,1.165,0,0,1-.816,1.234A1.106,1.106,0,0,1,93.006,27.3c-.027-2.614-.016-5.228,0-7.842m-8.8,6.2c.767-2.066,1.575-4.116,2.349-6.179a1.388,1.388,0,0,1,2.727-.012c.894,2.4,1.81,4.785,2.707,7.181a1.207,1.207,0,0,1-.575,1.672,1.144,1.144,0,0,1-1.594-.846,1.15,1.15,0,0,0-1.487-.947,2.09,2.09,0,0,1-.683,0,1.284,1.284,0,0,0-1.694,1.086,1.053,1.053,0,0,1-1.391.741,1.082,1.082,0,0,1-.863-1.05,4.911,4.911,0,0,1,.506-1.648m-9.317,1.007c-.039.2-.068.4-.116.6-.191.785-.75,1.215-1.392,1.079a1.226,1.226,0,0,1-.919-1.523c.428-2.395.888-4.784,1.314-7.18a1.4,1.4,0,0,1,1.284-1.29c.633-.079,1.17.359,1.411,1.136.346,1.113.666,2.235,1,3.351a4.368,4.368,0,0,0,.224.483c.359-1.271.688-2.439,1.017-3.607.26-.921.793-1.413,1.485-1.374.676.038,1.157.537,1.332,1.436q.689,3.545,1.351,7.095a1.2,1.2,0,0,1-.894,1.459,1.173,1.173,0,0,1-1.407-.965c-.219-.988-.382-1.988-.709-3.018-.285.974-.581,1.945-.852,2.923a1.37,1.37,0,0,1-1.034,1.1,1.3,1.3,0,0,1-1.6-.935c-.333-1.009-.618-2.033-1.05-3.065l-.446,2.3m2.6,16.767H96.535q9.638,0,19.276,0c.968,0,1.421.336,1.474,1.058a1.13,1.13,0,0,1-1.044,1.256,6.618,6.618,0,0,1-.685.012H77.462c-1.22,0-1.787-.36-1.8-1.141-.019-.8.57-1.187,1.831-1.187m38.828,20a4.255,4.255,0,0,1-.76.019H77.544c-.229,0-.458.009-.686,0a1.159,1.159,0,1,1,.022-2.316c.177-.011.355-.006.533-.006h38.165a3.738,3.738,0,0,1,.76.026,1.158,1.158,0,0,1-.021,2.281m.047-5.914a5.013,5.013,0,0,1-.984.071q-9.449.006-18.9,0H77.508c-1.234,0-1.857-.409-1.849-1.207.008-.813.584-1.181,1.855-1.181h38.024a3.651,3.651,0,0,1,.76.025,1.1,1.1,0,0,1,.987,1.086,1.063,1.063,0,0,1-.921,1.2m-.262-5.839c-.227.018-.457.007-.686.007H77.546a5.472,5.472,0,0,1-.761-.015,1.151,1.151,0,0,1-1.112-1.147,1.126,1.126,0,0,1,1.053-1.193,4.42,4.42,0,0,1,.759-.033h38.023a6.009,6.009,0,0,1,.609.009,1.186,1.186,0,0,1-.015,2.373M117.98,28.34a1.129,1.129,0,0,1-1.3-.4c-.031-.04-.051-.088-.08-.13-.273-.388-.189-1.141-.64-1.216a13.119,13.119,0,0,0-2.732-.039c-.375.017-.346.452-.454.715-.208.5-.415,1-1.036,1.1-1,.168-1.63-.678-1.242-1.734.743-2.022,1.525-4.029,2.291-6.042.18-.474.339-.957.55-1.417a1.324,1.324,0,0,1,1.252-.844,1.237,1.237,0,0,1,1.2.792c1,2.6,1.976,5.212,2.956,7.822a1.221,1.221,0,0,1,.038.29,1.13,1.13,0,0,1-.81,1.1m5.432.026a28.028,28.028,0,0,1-2.969,0,1.063,1.063,0,0,1-1.04-1.183q-.024-3.808,0-7.617a1.186,1.186,0,0,1,1.182-1.235,1.169,1.169,0,0,1,1.134,1.264c.018.99,0,1.98,0,2.97h0c0,.939.026,1.88-.01,2.818-.02.517.118.755.672.693a3.89,3.89,0,0,1,1.064.013,1.06,1.06,0,0,1,.974,1.157,1.03,1.03,0,0,1-1.014,1.114" transform="translate(-53.05 0)" fill="#f8f5f8"/>
        <path id="Trazado_603081" data-name="Trazado 603081" d="M36.986,41.27l-.127.056a.287.287,0,0,0,.127-.056" transform="translate(-29.35 -32.862)" fill="#fefefe"/>
        <path id="Trazado_603082" data-name="Trazado 603082" d="M35,280.071h.02c.072-.017.143-.035.217-.05a1.562,1.562,0,0,0-.237.049" transform="translate(-27.868 -222.972)" fill="#fefefe"/>
        <path id="Trazado_603083" data-name="Trazado 603083" d="M100.454.193c-.153.013-.306.024-.459.039.177,0,.354,0,.531-.006.212-.023.452.065.614-.154-.208.162-.469.018-.687.122" transform="translate(-79.623 -0.057)" fill="#fefefe"/>
        <path id="Trazado_603084" data-name="Trazado 603084" d="M50.037,340.649a2.946,2.946,0,0,1,.062-1.387,20.657,20.657,0,0,1-4.125.252,1.132,1.132,0,0,1,.163.655,8.356,8.356,0,0,0,6.564,7.8c.218.061.544.014.546.392h4.269c-3.74-.158-7.159-3.838-7.479-7.713" transform="translate(-36.608 -270.143)" fill="#dcd9eb"/>
        <path id="Trazado_603085" data-name="Trazado 603085" d="M65.875,339.163c-.033.008-.067.013-.1.02a2.952,2.952,0,0,0-.062,1.387c.32,3.875,3.739,7.556,7.479,7.713-.5-.149-1.008-.273-1.5-.45a8.675,8.675,0,0,1-5.819-8.67" transform="translate(-52.283 -270.064)" fill="#dcd9eb"/>
        <path id="Trazado_603086" data-name="Trazado 603086" d="M52.469,348.957a8.356,8.356,0,0,1-6.564-7.8,1.131,1.131,0,0,0-.163-.654H45.7a6.582,6.582,0,0,0,.16,1.875,8.412,8.412,0,0,0,4.547,6.057,18.723,18.723,0,0,0,2.61.915c0-.378-.328-.331-.546-.392" transform="translate(-36.376 -271.131)" fill="#dcd9eb"/>
        <path id="Trazado_603087" data-name="Trazado 603087" d="M22.218,207.738c-.835.008-1.67-.005-2.5-.009-.989.005-1.978.02-2.968.013a1.446,1.446,0,0,1-1.591-1.375,1.55,1.55,0,0,1,1.511-1.507c1.013-.044,2.029-.013,3.044-.014q-.007-2.341-.014-4.682a1.642,1.642,0,0,1-.973.183c-.458.017-.917-.014-1.375-.027-2.766,1.16-4.38,3.214-4.3,6.241.065,2.339,1.113,4.365,4.124,5.687a3.049,3.049,0,0,0,.349.046,1.015,1.015,0,0,1-.208.015l.2.081a10.989,10.989,0,0,0,1.145-.107,1.227,1.227,0,0,1,1.136.189c0,.011,0,.023.007.034.871-.013,1.743-.015,2.614-.049.488-.019.975-.086,1.462-.136a1.441,1.441,0,0,1,.724-.494,5.789,5.789,0,0,0,3.636-5.166,2.181,2.181,0,0,0-1.206-2.255,2.007,2.007,0,0,0-2.32.368c-.182.149-.345.449-.623.375a3.587,3.587,0,0,0-.288,1.13,1.426,1.426,0,0,1-1.582,1.46" transform="translate(-10.391 -159.384)" fill="#fedf7d"/>
        <path id="Trazado_603088" data-name="Trazado 603088" d="M66.405,219.988c.277.074.44-.225.623-.374a2.007,2.007,0,0,1,2.32-.369,2.181,2.181,0,0,1,1.206,2.255,5.789,5.789,0,0,1-3.636,5.167,1.441,1.441,0,0,0-.724.493l.1-.011h0a6.365,6.365,0,0,0,4.075-3.718,5.456,5.456,0,0,0,.4-2.52,2.244,2.244,0,0,0-1.655-1.985,2.335,2.335,0,0,0-2.7,1.03h0c0,.01-.008.021-.012.031" transform="translate(-52.708 -174.224)" fill="#fedf7d"/>
        <path id="Trazado_603089" data-name="Trazado 603089" d="M32.633,259.671c0-.011,0-.023-.007-.034a1.227,1.227,0,0,0-1.136-.189,10.985,10.985,0,0,1-1.145.107l.187.075H29.164a1.222,1.222,0,0,0,.808.113c.855-.013,1.709-.045,2.563-.07h.1" transform="translate(-23.222 -206.549)" fill="#fedf7d"/>
        <path id="Trazado_603090" data-name="Trazado 603090" d="M28.373,200.028c.458.013.917.044,1.375.027a1.642,1.642,0,0,0,.973-.183v-.019h0a18.858,18.858,0,0,0-3.825.091h1.671c-.066.026-.129.056-.194.083" transform="translate(-21.416 -159.093)" fill="#fedf7d"/>
        <path id="Trazado_603091" data-name="Trazado 603091" d="M34.44,280.259H34.4l-.1.04.143-.039" transform="translate(-27.31 -223.16)" fill="#fedf7d"/>
        <path id="Trazado_603092" data-name="Trazado 603092" d="M23.8,286.141a1.54,1.54,0,0,1-1.587,1.519c-.835.025-1.672-.019-2.508-.032h0c-.987.012-1.975.053-2.961.029a1.56,1.56,0,0,1-1.591-1.5,1.469,1.469,0,0,1,1.657-1.387c.963-.011,1.925-.013,2.888-.019l.011-4.65a1.63,1.63,0,0,1-1.328.127,7.8,7.8,0,0,0-.84-.093l-.177.044c-2.754,1.111-4.377,3.13-4.313,6.153.061,2.837,1.647,4.774,4.3,5.865.37-.011.741-.033,1.111-.025a3.383,3.383,0,0,1,1.124.1.542.542,0,0,1,.151.113.372.372,0,0,1,.227-.137c1.277-.086,2.555-.157,3.833-.23a.188.188,0,0,1,.137.071c.54-.443,1.231-.617,1.8-1.026a5.789,5.789,0,0,0,2.523-4.944,1.984,1.984,0,0,0-1.26-1.851,2.04,2.04,0,0,0-2.159.235c-.2.152-.364.354-.563.512a.3.3,0,0,1-.284.087h0a6.24,6.24,0,0,0-.187,1.04" transform="translate(-10.39 -223.034)" fill="#fedf7d"/>
        <path id="Trazado_603093" data-name="Trazado 603093" d="M66.808,299.541c.2-.158.358-.36.563-.512a2.039,2.039,0,0,1,2.159-.235,1.984,1.984,0,0,1,1.26,1.851,5.789,5.789,0,0,1-2.523,4.944c-.569.409-1.259.583-1.8,1.025.017.016.033.032.05.046a6.4,6.4,0,0,0,2.086-1.068,6.143,6.143,0,0,0,2.43-5.008,2.423,2.423,0,0,0-1.634-2.107c-1.071-.361-1.98,0-2.877,1.149a.3.3,0,0,0,.284-.087" transform="translate(-52.926 -237.562)" fill="#fedf7d"/>
        <path id="Trazado_603094" data-name="Trazado 603094" d="M31.491,279.458h.041a1.559,1.559,0,0,1,.237-.049c-.074.015-.145.033-.217.05a7.805,7.805,0,0,1,.84.093,1.631,1.631,0,0,0,1.328-.127c0-.017,0-.034,0-.051h0c-1.025.1-2.05-.315-3.075,0h1.062c-.074.027-.144.058-.217.086" transform="translate(-24.402 -222.36)" fill="#fedf7d"/>
        <path id="Trazado_603095" data-name="Trazado 603095" d="M30.745,339.553a.543.543,0,0,0-.151-.113,3.384,3.384,0,0,0-1.124-.1c-.37-.008-.74.014-1.111.025.067.028.132.057.2.084H26.876c.245.193.535.123.807.125,1.013.009,2.027,0,3.04,0l.022-.023" transform="translate(-21.4 -270.204)" fill="#fedf7d"/>
        <path id="Trazado_603096" data-name="Trazado 603096" d="M50.062,338.66a.188.188,0,0,0-.137-.07c-1.278.074-2.556.144-3.833.23a.372.372,0,0,0-.227.137c.007.008.015.015.022.023a20.662,20.662,0,0,0,4.125-.253c.005-.013.008-.025.014-.038s.025-.018.037-.028" transform="translate(-36.521 -269.607)" fill="#fedf7d"/>
        <path id="Trazado_603097" data-name="Trazado 603097" d="M66.233,338.964c-.006.013-.009.025-.014.038.033-.008.067-.012.1-.02-.017-.014-.033-.03-.05-.046-.012.01-.025.018-.037.028" transform="translate(-52.728 -269.884)" fill="#fedf7d"/>
        <path id="Trazado_603098" data-name="Trazado 603098" d="M45.756,340.413H45.8c-.007-.008-.014-.015-.022-.023l-.022.023" transform="translate(-36.434 -271.041)" fill="#fedf7d"/>
        <path id="Trazado_603099" data-name="Trazado 603099" d="M23.989,46.515a5.965,5.965,0,0,0-.192,1.038,1.564,1.564,0,0,1-1.658,1.524c-.811.008-1.623-.012-2.434-.02-.99.007-1.98.032-2.97.017a1.484,1.484,0,0,1-1.585-1.493,1.46,1.46,0,0,1,1.58-1.4c.99-.012,1.981-.007,2.971-.009q0-2.325,0-4.65c-.011.011-.019.022-.031.032a3.9,3.9,0,0,1-1.531.142c-.187-.014-.374-.024-.559-.032a8.38,8.38,0,0,0-2.47,1.369,6.1,6.1,0,0,0-.574,8.575A5.875,5.875,0,0,0,17.5,53.516a.293.293,0,0,1,.132.075c.081,0,.162-.007.244-.012.64.031,1.308-.174,1.9.226l0,.011a18.783,18.783,0,0,0,4.082-.242,1.387,1.387,0,0,1,.725-.473,5.748,5.748,0,0,0,3.642-5.237,2.066,2.066,0,0,0-1.137-2.139,2.124,2.124,0,0,0-2.469.357c-.183.151-.3.475-.607.4l-.025.031h0" transform="translate(-10.387 -33.062)" fill="#fedf7d"/>
        <path id="Trazado_603100" data-name="Trazado 603100" d="M66.891,60.672a2.124,2.124,0,0,1,2.469-.357A2.066,2.066,0,0,1,70.5,62.454a5.748,5.748,0,0,1-3.642,5.238,1.386,1.386,0,0,0-.725.473c.04-.011.08-.021.119-.033h0a6.185,6.185,0,0,0,3.442-2.478,6.069,6.069,0,0,0,1.052-3.581,2.269,2.269,0,0,0-1.683-2.115,2.417,2.417,0,0,0-2.775,1.115c.306.074.424-.25.607-.4" transform="translate(-52.657 -47.652)" fill="#fedf7d"/>
        <path id="Trazado_603101" data-name="Trazado 603101" d="M35.319,41.42c.185.007.372.018.559.032a3.9,3.9,0,0,0,1.531-.142c.012-.01.02-.022.031-.032v-.062l-1.681.011a.286.286,0,0,1-.127.056c-.1.046-.209.092-.314.137" transform="translate(-28.123 -32.819)" fill="#fedf7d"/>
        <path id="Trazado_603102" data-name="Trazado 603102" d="M37.688,100.842l0-.011c-.6-.4-1.263-.2-1.9-.227-.082.006-.163.009-.244.013a.331.331,0,0,1,.091.193l1.988.035.071,0" transform="translate(-28.298 -80.088)" fill="#fedf7d"/>
        <path id="Trazado_603103" data-name="Trazado 603103" d="M23.93,125.765c-.068.394-.167.778-.2,1.182a1.45,1.45,0,0,1-1.519,1.369c-.855.014-1.711-.008-2.566-.015h0c-1.016.007-2.032.025-3.047.016a1.444,1.444,0,0,1-1.508-1.393,1.467,1.467,0,0,1,1.429-1.489c1.04-.04,2.083-.012,3.124-.014q0-2.342,0-4.685c-.512.348-1.108.15-1.666.2l-.4-.016a11.8,11.8,0,0,1-1.11.43,6.128,6.128,0,0,0,.445,11.257c.185.072.369.146.553.22.215-.008.429-.017.643-.023.545.04,1.123-.144,1.615.244,0,0,0,.009,0,.014a31.42,31.42,0,0,0,4.054-.163,1.206,1.206,0,0,1,.645-.477,5.887,5.887,0,0,0,3.758-5.283,2.125,2.125,0,0,0-3.493-1.854c-.2.156-.394.581-.707.425l-.047.052h0" transform="translate(-10.324 -96.139)" fill="#fedf7d"/>
        <path id="Trazado_603104" data-name="Trazado 603104" d="M66.931,140.061a2.125,2.125,0,0,1,3.493,1.854,5.886,5.886,0,0,1-3.758,5.283,1.207,1.207,0,0,0-.645.477c.045-.008.09-.013.134-.022a6.3,6.3,0,0,0,4.494-5.72,2.4,2.4,0,0,0-1.16-2.3c-1.173-.647-2.143-.394-3.265.852.313.156.5-.27.707-.425" transform="translate(-52.57 -110.912)" fill="#fedf7d"/>
        <path id="Trazado_603105" data-name="Trazado 603105" d="M37.285,180.191c-.492-.387-1.07-.2-1.615-.244-.214.006-.428.014-.643.023l.5.2h0l1.686.041.08,0,0-.014" transform="translate(-27.891 -143.278)" fill="#fedf7d"/>
        <path id="Trazado_603106" data-name="Trazado 603106" d="M35.976,120.8c.557-.052,1.153.146,1.666-.2v-.035h0l-1.837.019a1.007,1.007,0,0,1-.231.2l.4.016" transform="translate(-28.326 -96.004)" fill="#fedf7d"/>
        <path id="Trazado_603107" data-name="Trazado 603107" d="M151.61,270.951a3.651,3.651,0,0,0-.76-.025H112.826c-1.271,0-1.847.367-1.855,1.181-.008.8.615,1.206,1.849,1.206h18.974q9.449,0,18.9,0a5.034,5.034,0,0,0,.984-.071,1.063,1.063,0,0,0,.921-1.2,1.1,1.1,0,0,0-.987-1.086" transform="translate(-88.362 -215.724)" fill="#6b61b1"/>
        <path id="Trazado_603108" data-name="Trazado 603108" d="M151.48,241.954a6,6,0,0,0-.609-.009q-19.011,0-38.023,0a4.4,4.4,0,0,0-.759.033,1.126,1.126,0,0,0-1.053,1.193,1.15,1.15,0,0,0,1.112,1.146,5.444,5.444,0,0,0,.761.015h37.87c.229,0,.458.011.686-.006a1.187,1.187,0,0,0,.015-2.373" transform="translate(-88.414 -192.65)" fill="#6b61b1"/>
        <path id="Trazado_603109" data-name="Trazado 603109" d="M112.77,215.5h38.094a6.555,6.555,0,0,0,.685-.012,1.13,1.13,0,0,0,1.044-1.255c-.053-.722-.506-1.058-1.474-1.058q-9.638,0-19.275,0H112.8c-1.26,0-1.849.383-1.831,1.187.018.781.585,1.141,1.8,1.141" transform="translate(-88.358 -169.741)" fill="#6b61b0"/>
        <path id="Trazado_603110" data-name="Trazado 603110" d="M112.2,184.137a1.2,1.2,0,0,0-1.225,1.191,1.173,1.173,0,0,0,1.19,1.136c.278.018.559.007.838.007H150.79a5.55,5.55,0,0,0,.836-.027,1.053,1.053,0,0,0,.973-1.156c0-.776-.509-1.153-1.546-1.153H112.579c-.127,0-.254-.005-.381,0" transform="translate(-88.364 -146.619)" fill="#6b61b0"/>
        <path id="Trazado_603111" data-name="Trazado 603111" d="M151.646,300.014a3.708,3.708,0,0,0-.76-.026H112.721c-.178,0-.356-.005-.533.006a1.159,1.159,0,1,0-.022,2.316c.228.013.457,0,.686,0h38.012a4.258,4.258,0,0,0,.76-.019,1.158,1.158,0,0,0,.021-2.281" transform="translate(-88.359 -238.865)" fill="#6b61b0"/>
        <path id="Trazado_603112" data-name="Trazado 603112" d="M100.675,100.012a1.369,1.369,0,0,0,1.035-1.1c.271-.978.567-1.949.852-2.923.327,1.03.49,2.03.709,3.018a1.173,1.173,0,0,0,1.407.965,1.2,1.2,0,0,0,.894-1.459q-.666-3.549-1.351-7.095c-.175-.9-.657-1.4-1.332-1.436-.693-.039-1.225.453-1.485,1.374-.33,1.167-.659,2.335-1.017,3.607a4.361,4.361,0,0,1-.223-.483c-.337-1.116-.658-2.237-1-3.351-.242-.778-.778-1.215-1.412-1.136a1.4,1.4,0,0,0-1.284,1.29c-.426,2.4-.886,4.785-1.314,7.18a1.226,1.226,0,0,0,.919,1.523c.642.136,1.2-.294,1.392-1.079.048-.2.077-.4.116-.6l.446-2.3c.432,1.032.717,2.056,1.05,3.065a1.3,1.3,0,0,0,1.6.935" transform="translate(-75.742 -71.649)" fill="#e17a66"/>
        <path id="Trazado_603113" data-name="Trazado 603113" d="M49.822,14.483c-.031-2.275-.32-4.572.308-6.807a8.645,8.645,0,0,1,5.826-6.029c-.525.039-1.052.054-1.581.054a8.222,8.222,0,0,0-8.315,7.133,1.615,1.615,0,0,1-.312.9.521.521,0,0,1,.177.363,20.565,20.565,0,0,1-.076,4.235.657.657,0,0,1-.135.151q0,1.312,0,2.624c.771-.017,1.542.015,2.313-.013a1.456,1.456,0,0,0,1.553-1.339c.072-.36.019-.773.419-1h0c0-.012,0-.025,0-.038a.59.59,0,0,1-.091-.035.452.452,0,0,1-.09-.208" transform="translate(-36.401 -1.311)" fill="#dcd9eb"/>
        <path id="Trazado_603114" data-name="Trazado 603114" d="M71.648.995a8.644,8.644,0,0,0-5.825,6.029c-.628,2.234-.339,4.531-.309,6.807a.449.449,0,0,0,.09.208.564.564,0,0,0,.091.036,48.037,48.037,0,0,1,.135-6.017,8.311,8.311,0,0,1,3.4-5.585A10.989,10.989,0,0,1,73,.828a13.131,13.131,0,0,1-1.349.167" transform="translate(-52.092 -0.659)" fill="#dcd9eb"/>
        <path id="Trazado_603115" data-name="Trazado 603115" d="M46.073,8.094A8.222,8.222,0,0,1,54.388.96c.529,0,1.056-.014,1.581-.054h0a3.4,3.4,0,0,1,.814-.159,18.5,18.5,0,0,0-4.462.215,8.532,8.532,0,0,0-6.594,8.007c.011.009.02.02.031.03a1.614,1.614,0,0,0,.312-.9" transform="translate(-36.414 -0.571)" fill="#dcd9eb"/>
        <path id="Trazado_603116" data-name="Trazado 603116" d="M96.8.834a3.414,3.414,0,0,0-.814.159h0A13.126,13.126,0,0,0,97.332.828h0c-.177,0-.354.007-.531.006" transform="translate(-76.429 -0.659)" fill="#dcd9eb"/>
        <path id="Trazado_603117" data-name="Trazado 603117" d="M45.714,46.046v.067a.65.65,0,0,0,.135-.152,20.563,20.563,0,0,0,.076-4.235.521.521,0,0,0-.177-.363l-.031.032q0,2.325,0,4.65" transform="translate(-36.401 -32.937)" fill="#dcd9eb"/>
        <path id="Trazado_603118" data-name="Trazado 603118" d="M45.733,68.575c.811.008,1.623.028,2.434.02a1.563,1.563,0,0,0,1.657-1.524,5.984,5.984,0,0,1,.192-1.038c-.4.222-.347.636-.419,1a1.456,1.456,0,0,1-1.553,1.339c-.771.027-1.542,0-2.313.013C45.733,68.445,45.733,68.51,45.733,68.575Z" transform="translate(-36.416 -52.58)" fill="#dcd9eb"/>
        <path id="Trazado_603119" data-name="Trazado 603119" d="M45.731,41.279l.031-.032c-.011-.01-.019-.021-.031-.03v.062" transform="translate(-36.414 -32.82)" fill="#dcd9eb"/>
        <path id="Trazado_603120" data-name="Trazado 603120" d="M197.549,100.008a1.165,1.165,0,0,0,.816-1.234c-.015-1.175,0-2.349,0-3.58a1.381,1.381,0,0,1,.584.617c.814,1.164,1.614,2.338,2.433,3.5a1.257,1.257,0,0,0,1.42.64,1.338,1.338,0,0,0,.994-1.293,3.925,3.925,0,0,0,.012-.532q-.05-3.387-.105-6.773c-.015-.839-.506-1.375-1.212-1.353-.658.021-1.1.558-1.1,1.374-.008,1.192,0,2.385,0,3.762-.254-.35-.418-.566-.572-.788-.868-1.25-1.726-2.507-2.6-3.751a1.116,1.116,0,0,0-1.311-.52,1.047,1.047,0,0,0-.842,1.042c-.012,2.614-.024,5.228,0,7.842a1.107,1.107,0,0,0,1.495,1.048" transform="translate(-156.099 -71.663)" fill="#e17a66"/>
        <path id="Trazado_603121" data-name="Trazado 603121" d="M49.8,269.269a7.426,7.426,0,0,1-.083-1.883c.025-2.267-.083-4.534.056-6.8a.744.744,0,0,1,.029-.086.53.53,0,0,1-.277.133,10.3,10.3,0,0,1-3.73-.055A9.75,9.75,0,0,1,45.8,264.4c-.024.024-.049.047-.075.068a.526.526,0,0,1,.178.365,20.966,20.966,0,0,1-.074,4.24.641.641,0,0,1-.144.162l.007,2.619c.722-.017,1.444.013,2.166-.012a1.524,1.524,0,0,0,1.726-1.5c.055-.319.055-.662.391-.851v0a.349.349,0,0,1-.175-.225" transform="translate(-36.378 -207.428)" fill="#dcd9eb"/>
        <path id="Trazado_603122" data-name="Trazado 603122" d="M65.455,260.01c-.139,2.264-.031,4.532-.056,6.8a7.426,7.426,0,0,0,.083,1.883.349.349,0,0,0,.175.225q0-4.57-.006-9.14c-.055.048-.11.1-.167.147a.752.752,0,0,0-.029.086" transform="translate(-52.06 -206.852)" fill="#dcd9eb"/>
        <path id="Trazado_603123" data-name="Trazado 603123" d="M45.819,264.6a9.75,9.75,0,0,0-.006-3.826l-.1-.027q0,1.945.006,3.892c.011.009.019.019.029.029.025-.021.05-.043.075-.068" transform="translate(-36.397 -207.626)" fill="#dcd9eb"/>
        <path id="Trazado_603124" data-name="Trazado 603124" d="M46.191,260.017c0,.009,0,.019.006.029a10.306,10.306,0,0,0,3.73.055.532.532,0,0,0,.277-.133.735.735,0,0,1,.063-.136c-.487.05-.973.117-1.462.136-.871.034-1.742.036-2.614.049" transform="translate(-36.78 -206.896)" fill="#dcd9eb"/>
        <path id="Trazado_603125" data-name="Trazado 603125" d="M65.948,259.788a.741.741,0,0,0-.063.136c.058-.047.112-.1.167-.147l-.1.011" transform="translate(-52.462 -206.852)" fill="#dcd9eb"/>
        <path id="Trazado_603126" data-name="Trazado 603126" d="M45.808,260.741h-.1l.1.027c0-.01,0-.019-.005-.029" transform="translate(-36.397 -207.62)" fill="#dcd9eb"/>
        <path id="Trazado_603127" data-name="Trazado 603127" d="M45.685,284.663c0,.032,0,.064,0,.1a.642.642,0,0,0,.144-.162,20.966,20.966,0,0,0,.074-4.241.525.525,0,0,0-.178-.365l-.029.022q-.005,2.325-.011,4.65" transform="translate(-36.377 -222.948)" fill="#dcd9eb"/>
        <path id="Trazado_603128" data-name="Trazado 603128" d="M45.719,307.175c.836.013,1.673.058,2.508.032a1.54,1.54,0,0,0,1.587-1.519,6.245,6.245,0,0,1,.187-1.04c-.336.189-.336.532-.391.851a1.525,1.525,0,0,1-1.726,1.5c-.721.025-1.444,0-2.165.012,0,.054,0,.109,0,.163" transform="translate(-36.405 -242.581)" fill="#dcd9eb"/>
        <path id="Trazado_603129" data-name="Trazado 603129" d="M45.738,279.9l.029-.022c-.01-.009-.018-.02-.029-.029h0c0,.017,0,.034,0,.051" transform="translate(-36.42 -222.835)" fill="#dcd9eb"/>
        <path id="Trazado_603130" data-name="Trazado 603130" d="M241.062,96.529A3.87,3.87,0,0,0,248.7,97a48.616,48.616,0,0,0,.086-5.555c.009-.886-.528-1.475-1.22-1.452-.716.024-1.157.584-1.161,1.5-.007,1.6-.015,3.2,0,4.8a1.188,1.188,0,0,1-.605,1.138,1.581,1.581,0,0,1-1.66.1,1.445,1.445,0,0,1-.771-1.448c.021-1.6.014-3.2,0-4.8a1.163,1.163,0,1,0-2.314-.013c-.015.888,0,1.778,0,2.666,0,.863-.008,1.727,0,2.59" transform="translate(-191.945 -71.657)" fill="#e17a66"/>
        <path id="Trazado_603131" data-name="Trazado 603131" d="M49.834,110.18a7.355,7.355,0,0,1-.084-1.887c.03-2.27-.095-4.541.065-6.808a.161.161,0,0,1-.025.014,6.811,6.811,0,0,1-3.983.088,8.375,8.375,0,0,1,.009,3.754c-.023.019-.046.035-.069.051a.52.52,0,0,1,.189.372,20.409,20.409,0,0,1-.077,4.231.653.653,0,0,1-.131.147q0,1.313,0,2.626c.773-.018,1.546.016,2.319-.014a1.393,1.393,0,0,0,1.57-1.383c.06-.343.057-.713.4-.936h0v-.08a.836.836,0,0,1-.184-.175" transform="translate(-36.412 -80.809)" fill="#dcd9eb"/>
        <path id="Trazado_603132" data-name="Trazado 603132" d="M65.461,100.721c-.16,2.267-.035,4.538-.065,6.808a7.353,7.353,0,0,0,.084,1.887.83.83,0,0,0,.184.175q-.007-4.533-.014-9.065c-.061.066-.114.157-.188.2" transform="translate(-52.057 -80.045)" fill="#dcd9eb"/>
        <path id="Trazado_603133" data-name="Trazado 603133" d="M45.813,105.661a8.376,8.376,0,0,0-.009-3.754l-.076-.02,0,3.806h0c.007.006.013.013.02.02.023-.017.046-.032.069-.051" transform="translate(-36.409 -81.129)" fill="#dcd9eb"/>
        <path id="Trazado_603134" data-name="Trazado 603134" d="M50.081,100.861a.145.145,0,0,0,.025-.014v0a.68.68,0,0,1,.069-.16,18.769,18.769,0,0,1-4.082.242l0,.023a6.811,6.811,0,0,0,3.983-.088" transform="translate(-36.702 -80.171)" fill="#dcd9eb"/>
        <path id="Trazado_603135" data-name="Trazado 603135" d="M65.861,100.556a.68.68,0,0,0-.069.16v0c.074-.039.127-.129.188-.2h0c-.04.012-.08.022-.119.033" transform="translate(-52.388 -80.043)" fill="#dcd9eb"/>
        <path id="Trazado_603136" data-name="Trazado 603136" d="M45.818,101.893l0-.023-.072,0c.025.008.051.012.076.02" transform="translate(-36.423 -81.116)" fill="#dcd9eb"/>
        <path id="Trazado_603137" data-name="Trazado 603137" d="M45.737,147.954c.855.006,1.711.029,2.566.014a1.449,1.449,0,0,0,1.519-1.369c.037-.4.135-.788.2-1.182-.342.222-.339.593-.4.936a1.393,1.393,0,0,1-1.57,1.383c-.772.03-1.546,0-2.319.014,0,.068,0,.135,0,.2" transform="translate(-36.419 -115.792)" fill="#dcd9eb"/>
        <path id="Trazado_603138" data-name="Trazado 603138" d="M45.725,125.363v.05a.65.65,0,0,0,.131-.148,20.392,20.392,0,0,0,.077-4.231.52.52,0,0,0-.189-.372l-.02.015q0,2.342,0,4.685" transform="translate(-36.409 -96.08)" fill="#dcd9eb"/>
        <path id="Trazado_603139" data-name="Trazado 603139" d="M45.744,120.587c-.007-.006-.013-.014-.02-.02v.035l.02-.015" transform="translate(-36.409 -96.004)" fill="#dcd9eb"/>
        <path id="Trazado_603140" data-name="Trazado 603140" d="M45.811,181.2a8.37,8.37,0,0,1,0,3.752.808.808,0,0,1-.084.069.5.5,0,0,1,.2.374,19.84,19.84,0,0,1-.075,4.2.618.618,0,0,1-.126.143q0,1.313,0,2.626c.795-.017,1.59.01,2.385-.011a1.3,1.3,0,0,0,1.481-1.268c.078-.4.081-.836.487-1.083a.587.587,0,0,1-.174-.1,1.215,1.215,0,0,1-.155-.656c0-2.672-.063-5.345.032-8.015a.781.781,0,0,1,.02-.081.2.2,0,0,1-.049.022,7.656,7.656,0,0,1-3.946.021" transform="translate(-36.409 -144.249)" fill="#dcd9eb"/>
        <path id="Trazado_603141" data-name="Trazado 603141" d="M65.479,180.508a.78.78,0,0,0-.02.081c-.095,2.67-.028,5.343-.032,8.015a1.213,1.213,0,0,0,.155.656.584.584,0,0,0,.174.1c.013-.008.022-.017.035-.024-.2-.243-.115-.534-.116-.8q-.012-4.094-.009-8.189h0a1.061,1.061,0,0,1-.188.166" transform="translate(-52.083 -143.6)" fill="#dcd9eb"/>
        <path id="Trazado_603142" data-name="Trazado 603142" d="M45.765,185.037a8.37,8.37,0,0,0,0-3.752c-.028-.008-.057-.013-.085-.021q-.006,1.916-.013,3.832h0l.011.01a.807.807,0,0,0,.084-.069" transform="translate(-36.366 -144.335)" fill="#dcd9eb"/>
        <path id="Trazado_603143" data-name="Trazado 603143" d="M45.686,204.841a.618.618,0,0,0,.126-.143,19.841,19.841,0,0,0,.075-4.2.5.5,0,0,0-.2-.374l-.011.009q.007,2.341.014,4.682v.031" transform="translate(-36.367 -159.349)" fill="#dcd9eb"/>
        <path id="Trazado_603144" data-name="Trazado 603144" d="M49.62,225.675a1.3,1.3,0,0,1-1.481,1.268c-.795.02-1.59-.006-2.385.011,0,.075,0,.151,0,.226.835,0,1.67.017,2.5.009a1.426,1.426,0,0,0,1.582-1.46,3.583,3.583,0,0,1,.288-1.13l-.023-.008c-.406.246-.409.679-.487,1.083" transform="translate(-36.432 -178.835)" fill="#dcd9eb"/>
        <path id="Trazado_603145" data-name="Trazado 603145" d="M67.118,224.5l.023.008.012-.032h0c-.013.007-.022.016-.035.024" transform="translate(-53.444 -178.742)" fill="#dcd9eb"/>
        <path id="Trazado_603146" data-name="Trazado 603146" d="M45.682,200.083l-.011-.01v.019l.011-.009" transform="translate(-36.366 -159.312)" fill="#dcd9eb"/>
        <path id="Trazado_603147" data-name="Trazado 603147" d="M50.075,180.616a.2.2,0,0,0,.049-.022.688.688,0,0,1,.054-.144,31.423,31.423,0,0,1-4.054.163c0,.008,0,.016.005.024a7.656,7.656,0,0,0,3.946-.021" transform="translate(-36.727 -143.687)" fill="#dcd9eb"/>
        <path id="Trazado_603148" data-name="Trazado 603148" d="M65.757,180.508a1.061,1.061,0,0,0,.188-.166c-.045.009-.09.014-.134.022a.7.7,0,0,0-.054.144" transform="translate(-52.36 -143.6)" fill="#dcd9eb"/>
        <path id="Trazado_603149" data-name="Trazado 603149" d="M45.813,181.249l-.08,0c.028.008.056.013.085.021,0-.008,0-.016,0-.024" transform="translate(-36.416 -144.323)" fill="#dcd9eb"/>
        <path id="Trazado_603150" data-name="Trazado 603150" d="M286.829,90.805a1.236,1.236,0,0,0-1.2-.792,1.325,1.325,0,0,0-1.252.844c-.21.46-.369.944-.55,1.417-.766,2.013-1.548,4.02-2.291,6.042-.388,1.056.241,1.9,1.242,1.734.621-.1.828-.6,1.036-1.1.109-.263.079-.7.454-.715a13.134,13.134,0,0,1,2.732.039c.451.075.366.828.64,1.216.029.041.049.089.08.129a1.178,1.178,0,0,0,2.107-.7,1.232,1.232,0,0,0-.038-.29c-.979-2.609-1.951-5.222-2.956-7.822m-.793,4.945a.841.841,0,0,1-.8.019c-.34-.171-.033-.436.025-.647a8.216,8.216,0,0,1,.357-.877,7.168,7.168,0,0,1,.352.9c.046.2.311.433.065.6" transform="translate(-224.082 -71.674)" fill="#e17a66"/>
        <path id="Trazado_603151" data-name="Trazado 603151" d="M151.28,100.047a1.053,1.053,0,0,0,1.391-.741,1.284,1.284,0,0,1,1.694-1.086,2.09,2.09,0,0,0,.683,0,1.15,1.15,0,0,1,1.487.947,1.144,1.144,0,0,0,1.594.846,1.207,1.207,0,0,0,.575-1.672c-.9-2.4-1.813-4.785-2.707-7.181a1.388,1.388,0,0,0-2.727.012c-.774,2.063-1.582,4.114-2.349,6.179A4.911,4.911,0,0,0,150.417,99a1.082,1.082,0,0,0,.863,1.05m2.915-4.663c.142-.318.246-.654.429-1.153.168.419.258.706.394.97.321.625-.038.653-.514.636-.34-.012-.464-.107-.309-.453" transform="translate(-119.772 -71.693)" fill="#e17a66"/>
        <path id="Trazado_603152" data-name="Trazado 603152" d="M329.687,97.758a3.913,3.913,0,0,0-1.064-.013c-.555.061-.692-.176-.672-.693.036-.938.01-1.878.01-2.818h0c0-.99.013-1.981,0-2.97A1.168,1.168,0,0,0,326.82,90a1.186,1.186,0,0,0-1.182,1.235q-.022,3.808,0,7.617a1.063,1.063,0,0,0,1.04,1.183,28.083,28.083,0,0,0,2.969,0,1.03,1.03,0,0,0,1.014-1.114,1.06,1.06,0,0,0-.974-1.158" transform="translate(-259.286 -71.663)" fill="#e17a66"/>
        <path id="Trazado_603153" data-name="Trazado 603153" d="M3.357,127.9a6.3,6.3,0,0,1,4.386-6.314,7.168,7.168,0,0,0-2.27.257,6.085,6.085,0,0,0-4.314,5.9,6.011,6.011,0,0,0,4.8,5.665,7.331,7.331,0,0,0,1.649.112A6.374,6.374,0,0,1,3.357,127.9" transform="translate(-0.92 -96.809)" fill="#fecf64"/>
        <path id="Trazado_603154" data-name="Trazado 603154" d="M5.156,132.545a6.011,6.011,0,0,1-4.8-5.665,6.085,6.085,0,0,1,4.314-5.9,7.176,7.176,0,0,1,2.27-.257c.147-.039.3-.073.446-.1a.778.778,0,0,0,.208-.091,8.857,8.857,0,0,0-2.644.138,6.021,6.021,0,0,0-4.624,4.645,5.932,5.932,0,0,0,2.248,6.272,6.9,6.9,0,0,0,5.173,1.252h0a4.79,4.79,0,0,1-.94-.184,7.328,7.328,0,0,1-1.649-.112" transform="translate(-0.114 -95.952)" fill="#fecf64"/>
        <path id="Trazado_603155" data-name="Trazado 603155" d="M11.93,127.9a6.374,6.374,0,0,0,4.254,5.619q.222-.005.445-.014c-.184-.074-.368-.148-.553-.22a6.128,6.128,0,0,1-.445-11.257,11.792,11.792,0,0,0,1.11-.43q-.212-.008-.424-.011A6.3,6.3,0,0,0,11.93,127.9" transform="translate(-9.493 -96.818)" fill="#fecf64"/>
        <path id="Trazado_603156" data-name="Trazado 603156" d="M32.845,180.11a4.794,4.794,0,0,0,.94.184l-.5-.2q-.222.009-.445.014" transform="translate(-26.153 -143.405)" fill="#fecf64"/>
        <path id="Trazado_603157" data-name="Trazado 603157" d="M33.494,120.849q.212,0,.424.011a1,1,0,0,0,.231-.2.779.779,0,0,1-.208.091c-.151.025-.3.059-.446.1" transform="translate(-26.67 -96.077)" fill="#fecf64"/>
        <path id="Trazado_603158" data-name="Trazado 603158" d="M3.586,48.846a6.3,6.3,0,0,1,4.226-6.68,6.563,6.563,0,0,0-4.3,1.344,5.963,5.963,0,0,0-.612,8.6,6.358,6.358,0,0,0,4.952,2.01,6.258,6.258,0,0,1-4.27-5.271" transform="translate(-1.082 -33.575)" fill="#fecf64"/>
        <path id="Trazado_603159" data-name="Trazado 603159" d="M1.889,51.347a5.963,5.963,0,0,1,.612-8.6,6.564,6.564,0,0,1,4.3-1.344,3.8,3.8,0,0,1,.619-.109,1.417,1.417,0,0,0,.16-.017l.127-.056c-.558,0-1.115-.019-1.673-.009a6.151,6.151,0,0,0-5.2,9.021,6.357,6.357,0,0,0,6.572,3.3h0c-.192-.055-.377-.116-.558-.181a6.359,6.359,0,0,1-4.951-2.01" transform="translate(-0.066 -32.815)" fill="#fecf64"/>
        <path id="Trazado_603160" data-name="Trazado 603160" d="M12.04,48.846a6.258,6.258,0,0,0,4.27,5.271c.154,0,.31,0,.467-.012a.293.293,0,0,0-.132-.075,5.874,5.874,0,0,1-2.957-1.909,6.1,6.1,0,0,1,.574-8.575,8.388,8.388,0,0,1,2.47-1.369c-.156-.006-.311-.01-.466-.011a6.3,6.3,0,0,0-4.226,6.68" transform="translate(-9.536 -33.575)" fill="#fecf64"/>
        <path id="Trazado_603161" data-name="Trazado 603161" d="M33.653,41.562a3.783,3.783,0,0,0-.619.109c.154,0,.309,0,.465.011.1-.045.209-.091.314-.137a1.417,1.417,0,0,1-.16.017" transform="translate(-26.304 -33.081)" fill="#fecf64"/>
        <path id="Trazado_603162" data-name="Trazado 603162" d="M33.715,100.766c-.157.008-.313.012-.467.012.181.065.366.126.558.181a.333.333,0,0,0-.091-.194" transform="translate(-26.474 -80.237)" fill="#fecf64"/>
        <path id="Trazado_603163" data-name="Trazado 603163" d="M7.876,212.93l-.14-.061c-1.862-.351-4.068-2.454-4.364-5.526a6.268,6.268,0,0,1,4.508-6.4c-.308.021-.76.271-1.222.058H6.647a6.089,6.089,0,0,0-5.35,4.873,5.972,5.972,0,0,0,5.152,6.985,4.65,4.65,0,0,1,.6.079l.015,0c.237-.119.515-.019.808-.013" transform="translate(-0.949 -160.006)" fill="#fecf64"/>
        <path id="Trazado_603164" data-name="Trazado 603164" d="M6.227,212.6l-.015,0a4.657,4.657,0,0,0-.6-.079,5.972,5.972,0,0,1-5.152-6.985,6.088,6.088,0,0,1,5.35-4.873h.011a1.027,1.027,0,0,1-.228-.144,6.135,6.135,0,0,0,.462,12.228.553.553,0,0,1,.177-.143" transform="translate(-0.108 -159.667)" fill="#fecf64"/>
        <path id="Trazado_603165" data-name="Trazado 603165" d="M16.3,200.909a6.267,6.267,0,0,0-4.508,6.4c.3,3.071,2.5,5.175,4.364,5.526-3.011-1.323-4.059-3.349-4.124-5.687-.084-3.027,1.529-5.081,4.3-6.241a6.415,6.415,0,0,0-1.249.062c.462.213.914-.036,1.222-.058" transform="translate(-9.371 -159.97)" fill="#fecf64"/>
        <path id="Trazado_603166" data-name="Trazado 603166" d="M30.032,259.608a4.739,4.739,0,0,0,1,.068l-.2-.081c-.293-.006-.571-.107-.808.013" transform="translate(-23.913 -206.671)" fill="#fecf64"/>
        <path id="Trazado_603167" data-name="Trazado 603167" d="M28.373,200.6c.065-.027.127-.057.194-.083H26.9a1.021,1.021,0,0,0,.228.145,6.4,6.4,0,0,1,1.249-.062" transform="translate(-21.416 -159.667)" fill="#fecf64"/>
        <path id="Trazado_603168" data-name="Trazado 603168" d="M30.532,259.978c-.064-.024-.125-.05-.188-.075a4.737,4.737,0,0,1-1-.068.553.553,0,0,0-.177.143h1.368" transform="translate(-23.222 -206.898)" fill="#fecf64"/>
        <path id="Trazado_603169" data-name="Trazado 603169" d="M7.422,280.468l-.04.008a6.633,6.633,0,0,0-3.331.922,5.952,5.952,0,0,0,2.272,10.957c.1.017.2.032.3.055l.057.008a1.844,1.844,0,0,1,1.223.061h0c-2.882-1.041-4.682-3.384-4.522-6.18a6.171,6.171,0,0,1,4.557-5.838l.014-.006a.823.823,0,0,1-.535.013" transform="translate(-0.969 -223.317)" fill="#fecf64"/>
        <path id="Trazado_603170" data-name="Trazado 603170" d="M34.042,339.476l0,0h0l.009,0" transform="translate(-27.099 -270.312)" fill="#fecf64"/>
        <path id="Trazado_603171" data-name="Trazado 603171" d="M5.653,291.91c-.1-.023-.2-.038-.3-.055A5.952,5.952,0,0,1,3.08,280.9a6.633,6.633,0,0,1,3.331-.922l.04-.008a.642.642,0,0,1-.209-.14,5.731,5.731,0,0,0-5.1,2.645,5.772,5.772,0,0,0-.53,6.048,5.852,5.852,0,0,0,4.857,3.541,1.129,1.129,0,0,1,.235-.144l-.057-.008" transform="translate(0 -222.817)" fill="#fecf64"/>
        <path id="Trazado_603172" data-name="Trazado 603172" d="M32.205,280.294l.1-.04a2.764,2.764,0,0,0-.637.054.822.822,0,0,0,.535-.013" transform="translate(-25.218 -223.156)" fill="#fecf64"/>
        <path id="Trazado_603173" data-name="Trazado 603173" d="M28.029,338.815a6.153,6.153,0,0,0,1.223.061,1.844,1.844,0,0,0-1.223-.061" transform="translate(-22.319 -269.714)" fill="#fecf64"/>
        <path id="Trazado_603174" data-name="Trazado 603174" d="M11.818,286.321c-.16,2.8,1.64,5.14,4.522,6.18h.021c-2.652-1.091-4.238-3.028-4.3-5.865-.065-3.023,1.559-5.041,4.313-6.153a6.171,6.171,0,0,0-4.558,5.838" transform="translate(-9.402 -223.339)" fill="#fecf64"/>
        <path id="Trazado_603175" data-name="Trazado 603175" d="M28.559,339.321c-.068-.026-.133-.056-.2-.084h-.021l0,0-.009,0a6.155,6.155,0,0,1-1.223-.061,1.135,1.135,0,0,0-.235.144h1.683" transform="translate(-21.4 -270.076)" fill="#fecf64"/>
        <path id="Trazado_603176" data-name="Trazado 603176" d="M31.491,279.922c.073-.028.143-.059.217-.086H30.645a.648.648,0,0,0,.209.14,2.754,2.754,0,0,1,.637-.054" transform="translate(-24.402 -222.824)" fill="#fecf64"/>
        <path id="Trazado_603177" data-name="Trazado 603177" d="M26.543,223.531a2.208,2.208,0,0,0-.963.163,1.192,1.192,0,0,0-.811,1.235,1.137,1.137,0,0,0,1.143,1.012c1.013.068,2.029,0,3.044.032a3.578,3.578,0,0,1,.064-2.612,1.2,1.2,0,0,1-.736.16c-.58.021-1.161,0-1.741.01" transform="translate(-19.717 -177.854)" fill="#fefefe"/>
        <path id="Trazado_603178" data-name="Trazado 603178" d="M24.808,225.731a1.137,1.137,0,0,1-1.143-1.012,1.192,1.192,0,0,1,.811-1.235,2.206,2.206,0,0,1,.963-.163c.58-.008,1.161.011,1.741-.01a1.2,1.2,0,0,0,.736-.16c.006-.015.01-.029.016-.044-1.015,0-2.031-.03-3.044.014a1.549,1.549,0,0,0-1.511,1.507A1.446,1.446,0,0,0,24.968,226c.989.008,1.978-.008,2.968-.013-.032-.076-.056-.152-.083-.227-1.015-.029-2.031.036-3.044-.032" transform="translate(-18.613 -177.645)" fill="#fefefe"/>
        <path id="Trazado_603179" data-name="Trazado 603179" d="M44.5,225.919h.083q0-1.313,0-2.626l-.016.013a3.579,3.579,0,0,0-.064,2.612" transform="translate(-35.265 -177.802)" fill="#fefefe"/>
        <path id="Trazado_603180" data-name="Trazado 603180" d="M45.663,223.188l.016-.013v-.031c-.006.015-.01.029-.016.044" transform="translate(-36.36 -177.682)" fill="#fefefe"/>
        <path id="Trazado_603181" data-name="Trazado 603181" d="M45.348,236.18c.027.076.051.152.083.227,0-.075,0-.151,0-.226h-.083" transform="translate(-36.109 -188.062)" fill="#fefefe"/>
        <path id="Trazado_603182" data-name="Trazado 603182" d="M26.087,303.722c-.821.036-1.325.48-1.341,1.148a1.3,1.3,0,0,0,1.225,1.228c.991.127,1.992.018,2.987.059a3.714,3.714,0,0,1,.009-2.581,1.4,1.4,0,0,1-.759.13c-.707.021-1.415-.015-2.121.016" transform="translate(-19.704 -241.728)" fill="#fefefd"/>
        <path id="Trazado_603183" data-name="Trazado 603183" d="M24.88,305.579a1.3,1.3,0,0,1-1.225-1.228c.016-.668.52-1.111,1.341-1.148.706-.031,1.414,0,2.121-.016a1.4,1.4,0,0,0,.759-.13c.015-.044.028-.088.044-.133-.963.006-1.925.008-2.888.019a1.469,1.469,0,0,0-1.657,1.387,1.559,1.559,0,0,0,1.591,1.5c.986.024,1.974-.017,2.961-.029h0c-.023-.055-.04-.109-.06-.164-1-.041-2,.067-2.987-.059" transform="translate(-18.613 -241.208)" fill="#fefefd"/>
        <path id="Trazado_603184" data-name="Trazado 603184" d="M44.536,306.013h.06q0-1.309-.007-2.619c-.015.012-.029.026-.044.037a3.714,3.714,0,0,0-.009,2.581" transform="translate(-35.282 -241.583)" fill="#fefefd"/>
        <path id="Trazado_603185" data-name="Trazado 603185" d="M45.467,303.057c.015-.01.03-.025.045-.037,0-.032,0-.064,0-.1-.017.044-.029.089-.044.133" transform="translate(-36.204 -241.208)" fill="#fefefd"/>
        <path id="Trazado_603186" data-name="Trazado 603186" d="M45.425,316.246c.02.055.037.11.061.164v-.163h-.06" transform="translate(-36.17 -251.816)" fill="#fefefd"/>
        <path id="Trazado_603187" data-name="Trazado 603187" d="M26.069,64.969a1.2,1.2,0,1,0-.039,2.4c.969.074,1.943,0,2.914.034a3.661,3.661,0,0,1,.035-2.6,1.353,1.353,0,0,1-.786.146c-.708.021-1.417-.017-2.125.017" transform="translate(-19.699 -51.602)" fill="#fefefc"/>
        <path id="Trazado_603188" data-name="Trazado 603188" d="M24.941,67a1.2,1.2,0,1,1,.039-2.4c.708-.034,1.417,0,2.125-.017a1.353,1.353,0,0,0,.786-.146c.012-.031.02-.062.033-.093-.99,0-1.981,0-2.971.009a1.46,1.46,0,0,0-1.58,1.4,1.484,1.484,0,0,0,1.585,1.493c.99.016,1.98-.009,2.97-.017h0c-.028-.065-.048-.131-.072-.2-.971-.032-1.945.039-2.914-.035" transform="translate(-18.61 -51.237)" fill="#fefefc"/>
        <path id="Trazado_603189" data-name="Trazado 603189" d="M44.518,67.3h.072l0-2.624c-.011.009-.021.018-.033.026a3.661,3.661,0,0,0-.035,2.6" transform="translate(-35.272 -51.499)" fill="#fefefc"/>
        <path id="Trazado_603190" data-name="Trazado 603190" d="M45.554,64.44l.033-.026v-.067c-.012.031-.021.062-.033.093" transform="translate(-36.273 -51.237)" fill="#fefefc"/>
        <path id="Trazado_603191" data-name="Trazado 603191" d="M45.381,77.549c.024.065.044.131.072.2,0-.065,0-.13,0-.2h-.072" transform="translate(-36.135 -61.75)" fill="#fefefc"/>
        <path id="Trazado_603192" data-name="Trazado 603192" d="M26.131,144.255c-.852.054-1.4.536-1.407,1.2-.007.711.552,1.188,1.448,1.212.919.025,1.839-.01,2.759.015a3.623,3.623,0,0,1,.047-2.605,1.332,1.332,0,0,1-.8.155c-.683.022-1.367-.022-2.049.022" transform="translate(-19.687 -114.725)" fill="#fefefd"/>
        <path id="Trazado_603193" data-name="Trazado 603193" d="M25.1,146.363c-.9-.024-1.455-.5-1.448-1.212.006-.665.555-1.147,1.407-1.2.682-.044,1.366,0,2.049-.022a1.331,1.331,0,0,0,.8-.155c.009-.023.016-.047.025-.071-1.042,0-2.084-.026-3.124.014a1.467,1.467,0,0,0-1.429,1.489,1.444,1.444,0,0,0,1.508,1.393c1.016.009,2.032-.01,3.047-.016h0c-.029-.068-.05-.136-.074-.2-.919-.024-1.84.01-2.759-.015" transform="translate(-18.612 -114.419)" fill="#fefefd"/>
        <path id="Trazado_603194" data-name="Trazado 603194" d="M44.515,146.605h.074q0-1.313,0-2.626l-.025.02a3.622,3.622,0,0,0-.047,2.605" transform="translate(-35.271 -114.647)" fill="#fefefd"/>
        <path id="Trazado_603195" data-name="Trazado 603195" d="M45.374,156.866c.024.068.046.136.074.2q0-.1,0-.2h-.074" transform="translate(-36.13 -124.907)" fill="#fefefd"/>
        <path id="Trazado_603196" data-name="Trazado 603196" d="M45.6,143.8l.025-.02v-.05c-.01.023-.016.047-.025.07" transform="translate(-36.314 -114.449)" fill="#fefefd"/>
        <path id="Trazado_603197" data-name="Trazado 603197" d="M299.935,110.788a8.191,8.191,0,0,0-.357.877c-.057.21-.365.476-.025.647a.841.841,0,0,0,.8-.019c.246-.168-.02-.4-.065-.6a7.135,7.135,0,0,0-.352-.9" transform="translate(-238.399 -88.217)" fill="#f7eff1"/>
        <path id="Trazado_603198" data-name="Trazado 603198" d="M169.01,112.233c.477.018.835-.011.514-.636-.135-.264-.226-.551-.394-.97-.184.5-.287.834-.429,1.153-.155.347-.032.441.309.453" transform="translate(-134.279 -88.089)" fill="#f7f0f2"/>
      </g>
    </g>
  </g>
</svg>
