<svg xmlns="http://www.w3.org/2000/svg" xmlns:xlink="http://www.w3.org/1999/xlink" width="112" height="112" viewBox="0 0 112 112">
  <defs>
    <clipPath id="clip-path">
      <rect id="Rectángulo_297835" data-name="Rectángulo 297835" width="73.837" height="73.888" fill="none"/>
    </clipPath>
  </defs>
  <g id="Grupo_886471" data-name="Grupo 886471" transform="translate(-1095 -3433.475)">
    <circle id="Elipse_6596" data-name="Elipse 6596" cx="56" cy="56" r="56" transform="translate(1095 3433.475)" fill="#e1fbff"/>
    <g id="Grupo_886032" data-name="Grupo 886032" transform="translate(1114 3448.588)">
      <g id="Grupo_878990" data-name="Grupo 878990" clip-path="url(#clip-path)">
        <path id="Trazado_591705" data-name="Trazado 591705" d="M121.721.322a26.991,26.991,0,0,0-17.146,8.495,26.623,26.623,0,0,0-7.255,15.471,27.294,27.294,0,0,0,2.893,16.063,26.574,26.574,0,0,0,2.745,4.23,2.933,2.933,0,0,1,.583.9.383.383,0,0,1-.011.143c.5.287.714.836,1.12,1.21.716.66,1.418,1.336,2.126,2.005a.625.625,0,0,1,.159,0,1.653,1.653,0,0,1,.68.39,27.146,27.146,0,0,0,14.314,5.731,29.659,29.659,0,0,0,5.648-.022.846.846,0,0,0-.322-.1,26.251,26.251,0,0,1-12.287-5.474,7.461,7.461,0,0,1-1.662-1.451l-.865-.579a20.337,20.337,0,0,1-5.3-4.381,22.431,22.431,0,0,1-4.613-7.971,22.1,22.1,0,0,1-1.182-8.263,23.092,23.092,0,0,1,11.1-18.746l.716-.467a20.946,20.946,0,0,1,4.257-3.344,27.843,27.843,0,0,1,9.339-3.68c.269-.055.613.062.842-.147-.273-.042-.631.106-.727-.334h-4.618c-.018.371-.321.3-.534.322" transform="translate(-78.381)" fill="#73c2f8"/>
        <path id="Trazado_591706" data-name="Trazado 591706" d="M168.027,259.3a29.656,29.656,0,0,1-5.648.022,27.147,27.147,0,0,1-14.314-5.731,1.654,1.654,0,0,0-.68-.39.625.625,0,0,0-.159,0l.038.036h0c.194.141.393.276.58.425a27.129,27.129,0,0,0,7.88,4.384,27.438,27.438,0,0,0,12.448,1.418.394.394,0,0,0-.146-.17" transform="translate(-118.83 -204.362)" fill="#73c2f8"/>
        <path id="Trazado_591707" data-name="Trazado 591707" d="M252.147.334a.544.544,0,0,0,.123-.168c-.281-.068-.6.068-.85-.166.1.441.454.292.727.334" transform="translate(-202.927)" fill="#73c2f8"/>
        <path id="Trazado_591708" data-name="Trazado 591708" d="M100.982,12.063A26.769,26.769,0,0,0,96.208,28.9a28.1,28.1,0,0,0,1.271,7.189A28.92,28.92,0,0,0,102.74,45.6c.013.007.024.016.036.024a.38.38,0,0,0,.011-.144,2.938,2.938,0,0,0-.584-.9,26.587,26.587,0,0,1-2.745-4.23,27.3,27.3,0,0,1-2.893-16.063A26.623,26.623,0,0,1,103.82,8.817,26.989,26.989,0,0,1,120.966.322c.213-.024.517.048.534-.322-.842.141-1.686.27-2.526.425a27.076,27.076,0,0,0-17.993,11.638" transform="translate(-77.626)" fill="#73c2f8"/>
        <path id="Trazado_591709" data-name="Trazado 591709" d="M.478,268.954a3.908,3.908,0,0,0,4.864,2.381,5.1,5.1,0,0,1-2.121-2.567,3.594,3.594,0,0,1,.868-3.793c4.448-4.5,8.934-8.953,13.406-13.424.051-.051.1-.1.155-.151.811-.7.815-.7,1.575.069q1.691,1.71,3.373,3.429a.779.779,0,0,1,.114.02,2.813,2.813,0,0,0,1.935.743,1.764,1.764,0,0,0,1.218-.482l.008-.009a15.057,15.057,0,0,1-1.564-1.514c-1.45-1.425-2.88-2.871-4.318-4.309-1.337-1.337-1.451-2.253-.446-3.773l-.022-.019a2.141,2.141,0,0,0-3.4,1.247,2.188,2.188,0,0,0,.3,1.587c.531.919.532.921-.237,1.69Q9.041,257.221,1.9,264.358a5.548,5.548,0,0,0-1.533,2.235c-.051.163-.084.4-.363.358v1.3c.416.057.364.452.478.7" transform="translate(0 -197.823)" fill="#2b4d66"/>
        <path id="Trazado_591710" data-name="Trazado 591710" d="M120.43,296.195a1.764,1.764,0,0,1-1.218.482,2.814,2.814,0,0,1-1.935-.743.79.79,0,0,0-.114-.02l.063.064a2.226,2.226,0,0,0,3.361.314c-.051-.034-.1-.071-.149-.107l-.008.009" transform="translate(-94.565 -238.84)" fill="#2b4d66"/>
        <path id="Trazado_591711" data-name="Trazado 591711" d="M.175,365.578A4.092,4.092,0,0,0,5.5,368.339l-.155-.112a3.908,3.908,0,0,1-4.864-2.381c-.114-.252-.062-.648-.478-.7.208.085.129.288.175.437" transform="translate(0 -294.714)" fill="#2b4d66"/>
        <path id="Trazado_591712" data-name="Trazado 591712" d="M.362,265.828A5.551,5.551,0,0,1,1.9,263.593q7.152-7.132,14.287-14.28c.769-.769.767-.772.237-1.69a2.188,2.188,0,0,1-.3-1.587,2.141,2.141,0,0,1,3.4-1.247l.022.019c.027-.041.052-.081.081-.123a2.291,2.291,0,0,0-3.238,3.2c.386.458.344.67-.063,1.075-4.658,4.624-9.287,9.277-13.938,13.908A7.937,7.937,0,0,0,0,266.186c.279.043.311-.195.362-.357" transform="translate(0 -197.058)" fill="#2b4d66"/>
        <path id="Trazado_591713" data-name="Trazado 591713" d="M195.817,2.079a27.173,27.173,0,0,0-6.976,2.227A25.5,25.5,0,0,0,183.106,8a11.223,11.223,0,0,0-.978.822c.865-.4,1.724-.81,2.608-1.157a22.866,22.866,0,0,1,6.27-1.445,21.94,21.94,0,0,1,12.829,2.611,22.353,22.353,0,0,1,11.716,15.645A22.222,22.222,0,0,1,212.195,41.9,22.242,22.242,0,0,1,197.6,51.691a22.508,22.508,0,0,1-15.142-2.1,1.636,1.636,0,0,0-.162-.071,25.021,25.021,0,0,0,4.749,3.456,27.144,27.144,0,0,0,8.7,3.153c.221.041.486.039.569.273a27.47,27.47,0,0,0,.007-54.575c-.071.206-.305.223-.5.256" transform="translate(-147 -1.471)" fill="#9ad7f8"/>
        <path id="Trazado_591714" data-name="Trazado 591714" d="M279.991,28.324a27.429,27.429,0,0,1-24.31,27.3.5.5,0,0,1,.029.181h0c.683-.1,1.374-.166,2.049-.306a27.307,27.307,0,0,0,17.793-11.843,26.789,26.789,0,0,0,4.244-19.89,26.911,26.911,0,0,0-10.122-17.12A27.62,27.62,0,0,0,255.709.862h0a.447.447,0,0,1-.022.185,27.417,27.417,0,0,1,24.3,27.276" transform="translate(-206.367 -0.696)" fill="#9ad7f8"/>
        <path id="Trazado_591715" data-name="Trazado 591715" d="M181.659,7.924a25.486,25.486,0,0,1,5.735-3.689,27.169,27.169,0,0,1,6.976-2.227c.2-.034.433-.05.5-.256l-.048-.007a.463.463,0,0,0-.053-.011c-.229.209-.573.092-.842.147a27.846,27.846,0,0,0-9.339,3.679A20.935,20.935,0,0,0,180.335,8.9l.346-.158a11.225,11.225,0,0,1,.978-.822" transform="translate(-145.553 -1.4)" fill="#9ad7f8"/>
        <path id="Trazado_591716" data-name="Trazado 591716" d="M195.472,255.426c-.083-.234-.348-.233-.569-.273a27.144,27.144,0,0,1-8.7-3.153,25.021,25.021,0,0,1-4.749-3.456c-.122-.047-.249-.086-.372-.132a7.467,7.467,0,0,0,1.662,1.451,26.253,26.253,0,0,0,12.287,5.473.845.845,0,0,1,.322.1l.1-.009.018,0" transform="translate(-146.158 -200.5)" fill="#9ad7f8"/>
        <path id="Trazado_591717" data-name="Trazado 591717" d="M255.191,1.03l.053.011.048.007a.447.447,0,0,0,.022-.186.544.544,0,0,1-.123.168" transform="translate(-205.971 -0.696)" fill="#9ad7f8"/>
        <path id="Trazado_591718" data-name="Trazado 591718" d="M255.174,284.778l-.1.009a.392.392,0,0,1,.145.17.5.5,0,0,0-.029-.181l-.018,0" transform="translate(-205.877 -229.85)" fill="#9ad7f8"/>
        <path id="Trazado_591719" data-name="Trazado 591719" d="M35.184,279.538c-.885-.881-1.787-1.745-2.639-2.656a.689.689,0,0,0-1.145-.051c-.228.213-.458.423-.679.644-4.193,4.192-8.35,8.419-12.594,12.559a3.9,3.9,0,0,0,.421,6.257c.153.118.41.164.463.38a3.932,3.932,0,0,0,1.372-.971q7.413-7.427,14.842-14.838c.236-.235.434-.575.81-.582a3.856,3.856,0,0,1-.85-.743" transform="translate(-13.519 -223.211)" fill="#365e7d"/>
        <path id="Trazado_591720" data-name="Trazado 591720" d="M44.684,296.476q-7.429,7.411-14.842,14.838a3.929,3.929,0,0,1-1.372.971.384.384,0,0,1,.005.164,3.885,3.885,0,0,0,1.7-1.159q7.4-7.4,14.808-14.8c.2-.2.344-.471.659-.526a1.437,1.437,0,0,1-.146-.068c-.376.007-.575.347-.811.582" transform="translate(-22.98 -238.823)" fill="#365e7d"/>
        <path id="Trazado_591721" data-name="Trazado 591721" d="M18.123,295.508c-.052-.216-.31-.262-.463-.38a3.9,3.9,0,0,1-.42-6.257c4.243-4.14,8.4-8.368,12.594-12.559.221-.22.451-.431.679-.644a.689.689,0,0,1,1.145.051c.853.911,1.755,1.775,2.639,2.655a3.857,3.857,0,0,0,.85.743.671.671,0,0,1,.083,0q-1.686-1.715-3.373-3.429c-.761-.769-.765-.766-1.575-.069-.055.047-.1.1-.155.151-4.472,4.471-8.958,8.929-13.406,13.424a3.594,3.594,0,0,0-.868,3.793,5.1,5.1,0,0,0,2.121,2.567l.051-.014c.034-.011.066-.025.1-.038" transform="translate(-12.632 -222.046)" fill="#365e7d"/>
        <path id="Trazado_591722" data-name="Trazado 591722" d="M27.846,380.876c-.033.013-.065.026-.1.038l-.051.014.155.112a.387.387,0,0,0-.005-.164" transform="translate(-22.354 -307.415)" fill="#365e7d"/>
        <path id="Trazado_591723" data-name="Trazado 591723" d="M116.734,295.894a1.448,1.448,0,0,0,.146.068l-.063-.064a.677.677,0,0,0-.083,0" transform="translate(-94.219 -238.823)" fill="#365e7d"/>
        <path id="Trazado_591724" data-name="Trazado 591724" d="M101.228,249.453l-.015,0c-.577-.125-.835-.652-1.239-.993-.176-.148-.329-.321-.5-.473a1.333,1.333,0,0,1-.16.325,2.215,2.215,0,0,0,.39,2.989c1.269,1.3,2.567,2.575,3.852,3.861.676.677,1.355,1.351,2.028,2.031a1.322,1.322,0,0,1,.192.234,2.1,2.1,0,0,0,.012-3.143c-.45-.514-1.1-.861-1.33-1.562.007-.015.016-.028.023-.042-1.132-1.028-2.2-2.12-3.25-3.231" transform="translate(-79.829 -200.16)" fill="#365e7d"/>
        <path id="Trazado_591725" data-name="Trazado 591725" d="M127.677,272.368c.231.7.88,1.048,1.33,1.561a2.1,2.1,0,0,1-.013,3.143.592.592,0,0,1,.078.181,2.232,2.232,0,0,0,.179-3.308c-.5-.55-1.025-1.073-1.538-1.608l-.013-.013c-.007.015-.016.028-.023.042" transform="translate(-103.051 -219.801)" fill="#365e7d"/>
        <path id="Trazado_591726" data-name="Trazado 591726" d="M101.775,247.137c.173.152.327.324.5.472.4.341.662.868,1.239.993l.015,0-.054-.056-1.719-1.61a.344.344,0,0,1,.016.2" transform="translate(-82.132 -199.306)" fill="#365e7d"/>
        <path id="Trazado_591727" data-name="Trazado 591727" d="M104.748,256.859c-.673-.68-1.352-1.354-2.028-2.031-1.284-1.287-2.583-2.559-3.852-3.861a2.215,2.215,0,0,1-.39-2.99,1.328,1.328,0,0,0,.161-.325c-.032-.028-.063-.055-.1-.081-1.006,1.52-.892,2.436.446,3.773,1.438,1.438,2.867,2.883,4.317,4.309a15.1,15.1,0,0,0,1.564,1.514c.025-.025.047-.05.07-.074a1.32,1.32,0,0,0-.192-.234" transform="translate(-78.997 -199.821)" fill="#365e7d"/>
        <path id="Trazado_591728" data-name="Trazado 591728" d="M134.146,297.012c.049.036.1.073.149.107a.6.6,0,0,0-.078-.181c-.024.025-.045.05-.07.074" transform="translate(-108.273 -239.666)" fill="#365e7d"/>
        <path id="Trazado_591729" data-name="Trazado 591729" d="M101.421,246.933c-.029.042-.054.082-.081.123.033.026.065.053.1.081a.344.344,0,0,0-.016-.2" transform="translate(-81.794 -199.306)" fill="#365e7d"/>
        <path id="Trazado_591730" data-name="Trazado 591730" d="M115.655,237.637a2.725,2.725,0,0,1-.646-.848.775.775,0,0,1-.182.25q-1.554,1.585-3.139,3.139a.817.817,0,0,1-.339.215,1.391,1.391,0,0,1,.459.347q1.193,1.192,2.384,2.387a.915.915,0,0,1,.338.5,6.069,6.069,0,0,1,1.2-1.316c.623-.657,1.273-1.289,1.919-1.923a1.237,1.237,0,0,1,.607-.423,10.344,10.344,0,0,1-2.6-2.327" transform="translate(-89.873 -191.118)" fill="#9ad7f8"/>
        <path id="Trazado_591731" data-name="Trazado 591731" d="M130.957,253.678c-.646.634-1.3,1.266-1.919,1.923a6.069,6.069,0,0,0-1.2,1.316c0,.01,0,.019,0,.029l3.773-3.657h0l-.055-.033a1.235,1.235,0,0,0-.607.423" transform="translate(-103.184 -204.408)" fill="#9ad7f8"/>
        <path id="Trazado_591732" data-name="Trazado 591732" d="M110.8,240.116a.817.817,0,0,0,.339-.215q1.585-1.554,3.139-3.139a.783.783,0,0,0,.182-.25c-.008-.022-.017-.043-.023-.066-.212.192-.431.377-.636.576q-1.569,1.526-3.132,3.057a.69.69,0,0,1,.131.038" transform="translate(-89.325 -190.841)" fill="#9ad7f8"/>
        <path id="Trazado_591733" data-name="Trazado 591733" d="M130.972,237.458a10.344,10.344,0,0,0,2.6,2.327l.017,0c-.707-.669-1.409-1.345-2.126-2.005-.406-.374-.624-.923-1.12-1.21a.411.411,0,0,1-.014.043,2.725,2.725,0,0,0,.646.848" transform="translate(-105.189 -190.939)" fill="#9ad7f8"/>
        <path id="Trazado_591734" data-name="Trazado 591734" d="M147.14,253.241l.055.033-.038-.036-.017,0" transform="translate(-118.76 -204.395)" fill="#9ad7f8"/>
        <path id="Trazado_591735" data-name="Trazado 591735" d="M130.244,236.469c-.013-.007-.024-.017-.036-.024.006.023.015.044.023.066a.409.409,0,0,0,.013-.043" transform="translate(-105.094 -190.841)" fill="#9ad7f8"/>
        <path id="Trazado_591736" data-name="Trazado 591736" d="M113.866,258.212q-1.187-1.2-2.384-2.387a1.394,1.394,0,0,0-.459-.347.549.549,0,0,1-.078.018c1.049,1.112,2.118,2.2,3.25,3.231l.009-.016a.914.914,0,0,0-.338-.5" transform="translate(-89.547 -206.203)" fill="#9ad7f8"/>
        <path id="Trazado_591737" data-name="Trazado 591737" d="M127.8,272.258l.014.013c0-.01,0-.019,0-.029l-.009.016" transform="translate(-103.148 -219.733)" fill="#9ad7f8"/>
        <path id="Trazado_591738" data-name="Trazado 591738" d="M110.723,255.337a.567.567,0,0,0,.078-.018.687.687,0,0,0-.131-.038h0l.054.056" transform="translate(-89.324 -206.044)" fill="#9ad7f8"/>
        <path id="Trazado_591739" data-name="Trazado 591739" d="M252.686,151.048c0-.01-.006-.021-.008-.03l-.026.022.033.008" transform="translate(-203.923 -121.89)" fill="#e9f5fe"/>
        <path id="Trazado_591740" data-name="Trazado 591740" d="M225.249,150.943c0,.008,0,.015,0,.023l.021-.005-.018-.018" transform="translate(-181.802 -121.83)" fill="#e9f5fe"/>
        <path id="Trazado_591741" data-name="Trazado 591741" d="M144.476,68.2a21.551,21.551,0,0,0,8.271,2.355,22.8,22.8,0,0,0,21.592-11.091,22.979,22.979,0,0,0,.811-21.823,22.426,22.426,0,0,0-16.9-12.382,21.913,21.913,0,0,0-13.661,2.1c-.3.149-.587.436-.961.346l-.012.015a3.345,3.345,0,0,1-.811.544c-.076.047-.149.1-.224.143A18.184,18.184,0,0,1,141.136,30a27.971,27.971,0,0,0-6.464,18.642,28.045,28.045,0,0,0,2.26,10.089,26.966,26.966,0,0,0,5.539,8.241,1.122,1.122,0,0,1,.229.288l.076.049a6.326,6.326,0,0,1,.982.652l.009.009c.264-.071.489.109.708.223m-3.317-18.723c-.052-.439-.221-.544-.635-.549-1.388-.015-2.778.093-4.163-.058-.726-.127-1.146-.551-1.121-1.132a1.248,1.248,0,0,1,1.247-1.046c1.508-.012,3.016,0,4.524,0a27.932,27.932,0,0,1,.66-3.082,13.711,13.711,0,0,1,11.53-9.589c.488-.077.561-.246.567-.67a38.794,38.794,0,0,1,.067-4.169,1,1,0,0,1,1.123-.962,1.083,1.083,0,0,1,1.052,1.15c.016,1.489-.005,2.979-.011,4.469a6.262,6.262,0,0,0,1.727.354,13.881,13.881,0,0,1,11,12.48c1.512,0,3.025,0,4.537.014a1.138,1.138,0,0,1,1.219.985c.072.579-.284,1.012-.974,1.188a26,26,0,0,1-3.954.051c-.694-.017-.882.222-.967.858a13.5,13.5,0,0,1-4.238,8.142,1.53,1.53,0,0,1-.236.155,9.717,9.717,0,0,1-2.979,2.071,12.352,12.352,0,0,1-5.075,1.418h0a.419.419,0,0,1-.045.128h0q0,2.195.009,4.39a1.112,1.112,0,0,1-.843,1.254,1.052,1.052,0,0,1-1.35-.757,9.933,9.933,0,0,1-.109-2.483c-.03-.621-.029-1.246,0-1.867.023-.465-.094-.626-.613-.7a13.435,13.435,0,0,1-7.74-3.687h0a13.6,13.6,0,0,1-4.208-8.365" transform="translate(-108.684 -20.129)" fill="#e9f5fe"/>
        <path id="Trazado_591742" data-name="Trazado 591742" d="M175.976,39.53a3.345,3.345,0,0,0,.811-.544l.012-.015a.723.723,0,0,1-.162-.061l-.716.467a2.752,2.752,0,0,1-.168.3c.075-.047.148-.1.224-.143" transform="translate(-141.854 -31.405)" fill="#e9f5fe"/>
        <path id="Trazado_591743" data-name="Trazado 591743" d="M177.426,245.078a6.324,6.324,0,0,0-.982-.652l-.076-.049a.445.445,0,0,1,.045.2l.865.579a.536.536,0,0,1,.157-.069l-.009-.009" transform="translate(-142.351 -197.243)" fill="#e9f5fe"/>
        <path id="Trazado_591744" data-name="Trazado 591744" d="M196.833,69.633a22.243,22.243,0,0,0,14.592-9.793,22.222,22.222,0,0,0,3.356-17.425,22.354,22.354,0,0,0-11.716-15.645,21.939,21.939,0,0,0-12.829-2.611,22.863,22.863,0,0,0-6.27,1.445c-.885.347-1.743.761-2.608,1.157a2.267,2.267,0,0,0-.184.219c.374.09.66-.2.961-.346a21.911,21.911,0,0,1,13.661-2.1,22.426,22.426,0,0,1,16.9,12.382,22.98,22.98,0,0,1-.811,21.823,22.8,22.8,0,0,1-21.592,11.091,21.551,21.551,0,0,1-8.271-2.355c-.219-.114-.444-.294-.708-.223.07.068.143.133.214.2a1.663,1.663,0,0,1,.162.071,22.508,22.508,0,0,0,15.142,2.1" transform="translate(-146.231 -19.413)" fill="#e9f5fe"/>
        <path id="Trazado_591745" data-name="Trazado 591745" d="M180.681,38.091c-.115.053-.23.106-.346.158a.724.724,0,0,0,.162.061,2.244,2.244,0,0,1,.184-.219" transform="translate(-145.553 -30.744)" fill="#e9f5fe"/>
        <path id="Trazado_591746" data-name="Trazado 591746" d="M181.242,248.057a.54.54,0,0,0-.157.068c.123.046.25.084.372.132-.071-.067-.144-.132-.214-.2" transform="translate(-146.158 -200.213)" fill="#e9f5fe"/>
        <path id="Trazado_591747" data-name="Trazado 591747" d="M126.27,77.11a27.011,27.011,0,0,1-3.222-9.28,27.555,27.555,0,0,1,2.625-16.884,28.063,28.063,0,0,1,4.141-6.055,4.235,4.235,0,0,1,.527-.481,22.734,22.734,0,0,0-10.176,17.1A22.827,22.827,0,0,0,130.446,82.67a25.728,25.728,0,0,1-4.176-5.56" transform="translate(-96.909 -35.845)" fill="#d7ebfd"/>
        <path id="Trazado_591748" data-name="Trazado 591748" d="M121.993,72.089a22.428,22.428,0,0,1-2.753-13.058,22.734,22.734,0,0,1,10.176-17.1,3.978,3.978,0,0,0,.634-.594,23.094,23.094,0,0,0-11.1,18.746,22.1,22.1,0,0,0,1.182,8.263,22.431,22.431,0,0,0,4.613,7.971,20.337,20.337,0,0,0,5.3,4.381c-.179-.166-.352-.337-.524-.508a22.593,22.593,0,0,1-7.528-8.1" transform="translate(-95.984 -33.361)" fill="#d7ebfd"/>
        <path id="Trazado_591749" data-name="Trazado 591749" d="M136.146,73.2a28.045,28.045,0,0,1-2.26-10.089,27.971,27.971,0,0,1,6.464-18.642,18.254,18.254,0,0,0,1.446-1.607c-.156.1-.313.2-.466.3a4.245,4.245,0,0,0-.527.481,28.071,28.071,0,0,0-4.141,6.055,27.558,27.558,0,0,0-2.625,16.884,27.008,27.008,0,0,0,3.222,9.28,25.728,25.728,0,0,0,4.176,5.56q.238.157.48.309a1.115,1.115,0,0,0-.229-.288,26.966,26.966,0,0,1-5.539-8.241" transform="translate(-107.897 -34.599)" fill="#d7ebfd"/>
        <path id="Trazado_591750" data-name="Trazado 591750" d="M173.88,242.775c.173.171.345.342.524.508a.445.445,0,0,0-.045-.2q-.242-.152-.48-.309" transform="translate(-140.343 -195.95)" fill="#d7ebfd"/>
        <path id="Trazado_591751" data-name="Trazado 591751" d="M173.335,41.927c.153-.1.31-.2.466-.3a2.785,2.785,0,0,0,.168-.3,3.969,3.969,0,0,1-.634.594" transform="translate(-139.903 -33.361)" fill="#d7ebfd"/>
        <path id="Trazado_591752" data-name="Trazado 591752" d="M152.506,75.6h0c.2-.226.114-.5.116-.756.009-1.412,0-2.825.005-4.237a2.145,2.145,0,0,1,1.692-2.271c1.642-.463,3.3-.874,4.949-1.307,0-.008,0-.015,0-.023a6.5,6.5,0,0,1-1.023-8.325,4.552,4.552,0,0,1,5.059-1.576,4.461,4.461,0,0,1,3.247,3.835,10.452,10.452,0,0,1,0,2.8,5,5,0,0,1-1.974,3.277c0,.01.005.02.008.031,1.5.383,2.994.771,4.493,1.149,1.638.413,2.163,1.069,2.165,2.727q0,2.452.006,4.9a1.537,1.537,0,0,0,.237-.155,13.5,13.5,0,0,0,4.238-8.143c.085-.636.273-.875.968-.858a26,26,0,0,0,3.954-.051c-1.315-.008-2.631-.058-3.944-.007-.713.028-.931-.214-.851-.89a11.193,11.193,0,0,0,.012-1.29,13.881,13.881,0,0,0-11-12.48,6.269,6.269,0,0,1-1.727-.354,4.109,4.109,0,0,1-1.84.122c-.4,0-.285-.375-.288-.612-.02-1.389-.025-2.778-.036-4.167a38.794,38.794,0,0,0-.067,4.169c-.006.424-.08.593-.567.67a13.711,13.711,0,0,0-11.53,9.589,27.983,27.983,0,0,0-.66,3.082c0,.525-.021,1.052.008,1.576.024.439-.141.58-.577.576-1.36-.013-2.721.012-4.081.022,1.386.151,2.775.043,4.163.058.413,0,.582.11.634.549A13.6,13.6,0,0,0,152.506,75.6Z" transform="translate(-115.822 -37.89)" fill="#365e7d"/>
        <path id="Trazado_591753" data-name="Trazado 591753" d="M221.889,158.971c-.01-1.365.006-2.731-.008-4.1a2.082,2.082,0,0,0-1.737-2.3c-1.242-.361-2.509-.631-3.761-.956a1.7,1.7,0,0,1-.914-.377.6.6,0,0,1-.034-.1l-.033-.008-1.261.549h0a4.952,4.952,0,0,1-3.021-.092h0a12.1,12.1,0,0,1-2.465.694c-1.606.413-2.151,1.08-2.151,2.724,0,1.439.006,2.878,0,4.317a.994.994,0,0,0,.394.842,14.1,14.1,0,0,0,7.15,3.242h0a12.352,12.352,0,0,0,5.075-1.418,9.716,9.716,0,0,0,2.979-2.071c-.277-.27-.207-.623-.209-.95" transform="translate(-166.671 -121.982)" fill="#9ad7f8"/>
        <path id="Trazado_591754" data-name="Trazado 591754" d="M257.319,152.325c-1.5-.378-3-.765-4.493-1.149a.6.6,0,0,0,.034.1,1.7,1.7,0,0,0,.914.377c1.252.325,2.519.594,3.761.956a2.082,2.082,0,0,1,1.737,2.3c.014,1.365,0,2.731.008,4.1,0,.327-.067.679.21.95q0-2.452-.006-4.9c0-1.659-.527-2.315-2.165-2.728" transform="translate(-204.062 -122.018)" fill="#9ad7f8"/>
        <path id="Trazado_591755" data-name="Trazado 591755" d="M200.045,163.345a13.445,13.445,0,0,1-6.366-3.041,1.437,1.437,0,0,1-.54-1.191c.007-1.49,0-2.981.005-4.471a2.364,2.364,0,0,1,1.812-2.468c.929-.309,1.888-.515,2.841-.74l-.823-.4-.021.005a.768.768,0,0,1-.023.092,2.024,2.024,0,0,1-.978.42c-1.136.293-2.28.557-3.414.857a2.226,2.226,0,0,0-2.02,2.6c-.005,1.245.011,2.491-.009,3.736-.005.312.1.694-.316.871a13.436,13.436,0,0,0,7.74,3.686c.519.07.636.231.613.7-.03.621-.031,1.246,0,1.867a9.932,9.932,0,0,0,.109,2.483c0-1.436.017-2.872-.009-4.308-.009-.476.144-.631.615-.594.523.041,1.052.013,1.578.015h0a.425.425,0,0,0,.045-.128c-.275.194-.567.065-.837.014" transform="translate(-153.509 -121.905)" fill="#73c2f8"/>
        <path id="Trazado_591756" data-name="Trazado 591756" d="M190.507,158.765c.02-1.245,0-2.49.009-3.736a2.226,2.226,0,0,1,2.02-2.6c1.134-.3,2.278-.564,3.414-.857a2.022,2.022,0,0,0,.978-.42.774.774,0,0,0,.023-.092c-1.65.433-3.307.844-4.948,1.307a2.144,2.144,0,0,0-1.692,2.271c0,1.412,0,2.825-.005,4.237,0,.254.086.53-.116.756h0c.413-.177.312-.559.317-.871" transform="translate(-153.507 -121.928)" fill="#73c2f8"/>
        <path id="Trazado_591757" data-name="Trazado 591757" d="M206.063,161.754a.994.994,0,0,1-.394-.842c.01-1.439,0-2.878,0-4.317,0-1.644.545-2.311,2.151-2.724a12.087,12.087,0,0,0,2.465-.694h0l-.16-.078c-.953.225-1.912.431-2.841.74a2.364,2.364,0,0,0-1.812,2.469c-.01,1.49,0,2.98-.005,4.471a1.438,1.438,0,0,0,.54,1.191,13.445,13.445,0,0,0,6.366,3.041c.27.051.562.18.837-.014h0a14.1,14.1,0,0,1-7.15-3.242" transform="translate(-165.84 -123.571)" fill="#73c2f8"/>
        <path id="Trazado_591758" data-name="Trazado 591758" d="M234.337,43.853c.014.952.022,1.905,0,2.857-.014.582.215.822.8.8a2.491,2.491,0,0,1,1.129.069c.006-1.49.027-2.979.011-4.469a1.083,1.083,0,0,0-1.052-1.15,1,1,0,0,0-1.123.962c.291.257.232.609.236.934" transform="translate(-188.949 -33.865)" fill="#2c4d66"/>
        <path id="Trazado_591759" data-name="Trazado 591759" d="M234.425,51.723a4.106,4.106,0,0,0,1.84-.122,2.49,2.49,0,0,0-1.129-.069c-.584.024-.813-.215-.8-.8.023-.952.015-1.9,0-2.857,0-.325.054-.677-.237-.934.01,1.389.016,2.778.036,4.167,0,.238-.116.611.288.612" transform="translate(-188.949 -37.89)" fill="#2c4d66"/>
        <path id="Trazado_591760" data-name="Trazado 591760" d="M312.48,139.574c.91.007,1.82-.007,2.729.007a1.067,1.067,0,0,1,.872.232c.69-.175,1.046-.609.974-1.188a1.138,1.138,0,0,0-1.219-.985c-1.512-.015-3.024-.01-4.537-.014a1.528,1.528,0,0,1,.221,1.029c.025.877.057.912.96.919" transform="translate(-251.257 -111.081)" fill="#2b4d66"/>
        <path id="Trazado_591761" data-name="Trazado 591761" d="M311.17,138.916c-.08.676.138.918.851.89,1.313-.052,2.629,0,3.944.007a1.066,1.066,0,0,0-.872-.232c-.91-.013-1.82,0-2.729-.007s-.934-.042-.96-.919a1.528,1.528,0,0,0-.221-1.029,11.19,11.19,0,0,1-.012,1.29" transform="translate(-251.14 -111.081)" fill="#2b4d66"/>
        <path id="Trazado_591762" data-name="Trazado 591762" d="M139.742,139.623c.909-.014,1.819-.017,2.727,0,.548.009.78-.214.766-.765a1.576,1.576,0,0,1,.217-1.169c-1.508,0-3.016-.017-4.524,0a1.248,1.248,0,0,0-1.247,1.045c-.024.581.4,1.005,1.121,1.132.26-.288.612-.233.939-.238" transform="translate(-111.125 -111.123)" fill="#2b4d66"/>
        <path id="Trazado_591763" data-name="Trazado 591763" d="M147.581,139.878c.436,0,.6-.136.577-.576-.029-.524-.008-1.05-.008-1.576a1.575,1.575,0,0,0-.217,1.169c.014.551-.218.774-.766.765-.909-.015-1.819-.013-2.728,0-.327.005-.68-.05-.939.238,1.36-.01,2.721-.035,4.081-.022" transform="translate(-115.822 -111.163)" fill="#2b4d66"/>
        <path id="Trazado_591764" data-name="Trazado 591764" d="M235,215.674c-.49,0-.691.212-.689.695,0,1.009.011,2.018,0,3.027-.005.327.055.683-.248.937a1.052,1.052,0,0,0,1.35.757,1.112,1.112,0,0,0,.843-1.253q-.008-2.195-.009-4.39h0c-.368.323-.82.227-1.242.228" transform="translate(-188.913 -173.892)" fill="#2c4e67"/>
        <path id="Trazado_591765" data-name="Trazado 591765" d="M234.623,215.346c-.47-.037-.623.118-.615.594.026,1.436.009,2.872.009,4.308.3-.253.243-.609.248-.937.016-1.009.009-2.018.005-3.027,0-.483.2-.694.689-.695.422,0,.874.095,1.242-.228-.526,0-1.055.026-1.578-.015" transform="translate(-188.874 -173.807)" fill="#2c4e67"/>
        <path id="Trazado_591766" data-name="Trazado 591766" d="M235.137,109.317a6.3,6.3,0,0,0,.662-7.334,4.411,4.411,0,0,0-2.373-1.772c-.041-.015-.082-.028-.123-.042a5.662,5.662,0,0,0-2.069,1.73,4.573,4.573,0,0,0-.776,2.568,7.937,7.937,0,0,0,.391,3.459,4.545,4.545,0,0,0,2.239,2.315,1.144,1.144,0,0,1,.25.145c.487-.044.842-.577,1.394-.387l.025-.022c-.06-.3.2-.47.379-.659" transform="translate(-186.002 -80.849)" fill="#fecdbe"/>
        <path id="Trazado_591767" data-name="Trazado 591767" d="M245.367,99.757a4.411,4.411,0,0,1,2.373,1.772,6.3,6.3,0,0,1-.662,7.334c-.175.189-.439.359-.379.659a5,5,0,0,0,1.974-3.277,10.452,10.452,0,0,0,0-2.8,4.461,4.461,0,0,0-3.247-3.835l-.181.108c.041.014.083.027.123.042" transform="translate(-197.943 -80.395)" fill="#fecdbe"/>
        <path id="Trazado_591768" data-name="Trazado 591768" d="M245.428,151.346a.463.463,0,0,1,.133.162h0l1.261-.549c-.552-.191-.907.342-1.394.387" transform="translate(-198.091 -121.81)" fill="#fecdbe"/>
        <path id="Trazado_591769" data-name="Trazado 591769" d="M217.48,109.177a.772.772,0,0,1,.923.374l.059-.014a7.336,7.336,0,0,0,2.7.082,4.624,4.624,0,0,1-2.883-4.357,8.5,8.5,0,0,1,.231-3.07,4.227,4.227,0,0,1,2.706-2.86,4.494,4.494,0,0,0-5.568,4.11,9.12,9.12,0,0,0,.091,2.649,4.161,4.161,0,0,0,1.185,2.249c.231.225.591.415.533.817l.018.018Z" transform="translate(-174.016 -80.046)" fill="#feaf9d"/>
        <path id="Trazado_591770" data-name="Trazado 591770" d="M215.947,107.582a4.161,4.161,0,0,1-1.185-2.249,9.122,9.122,0,0,1-.091-2.649,4.494,4.494,0,0,1,5.568-4.11c.09-.028.182-.053.277-.076a4.551,4.551,0,0,0-5.059,1.576,6.5,6.5,0,0,0,1.023,8.325c.058-.4-.3-.592-.533-.817" transform="translate(-173.033 -79.286)" fill="#feaf9d"/>
        <path id="Trazado_591771" data-name="Trazado 591771" d="M230.2,152.906l-.059.014c.021.033.041.065.06.1a4.952,4.952,0,0,0,3.021.092h0c-.109-.038-.214-.081-.318-.125a7.333,7.333,0,0,1-2.7-.082" transform="translate(-185.752 -123.414)" fill="#feaf9d"/>
        <path id="Trazado_591772" data-name="Trazado 591772" d="M225.352,150.893h0l.823.4.1-.024a.772.772,0,0,0-.923-.374" transform="translate(-181.887 -121.762)" fill="#feaf9d"/>
        <path id="Trazado_591773" data-name="Trazado 591773" d="M229.619,153l.16.078c-.019-.036-.039-.068-.06-.1l-.1.024" transform="translate(-185.331 -123.472)" fill="#feaf9d"/>
        <path id="Trazado_591774" data-name="Trazado 591774" d="M232.471,110.249a1.144,1.144,0,0,0-.25-.145,4.547,4.547,0,0,1-2.239-2.315,7.939,7.939,0,0,1-.391-3.459,4.568,4.568,0,0,1,.777-2.567,5.658,5.658,0,0,1,2.068-1.73c-.032-.011-.063-.023-.1-.033a4.228,4.228,0,0,0-2.706,2.86,8.505,8.505,0,0,0-.231,3.07,4.623,4.623,0,0,0,2.883,4.357c.052-.012.1-.02.156-.034l.03,0" transform="translate(-185.134 -80.713)" fill="#feaf9d"/>
        <path id="Trazado_591775" data-name="Trazado 591775" d="M244.844,99.715l.181-.108q-.142.034-.277.076c.032.01.064.022.1.032" transform="translate(-197.542 -80.395)" fill="#feaf9d"/>
        <path id="Trazado_591776" data-name="Trazado 591776" d="M244.65,153.136l-.03,0c-.052.014-.1.022-.156.034.1.044.21.087.318.125a.463.463,0,0,0-.133-.162" transform="translate(-197.313 -123.6)" fill="#feaf9d"/>
      </g>
    </g>
  </g>
</svg>
