<svg xmlns="http://www.w3.org/2000/svg" xmlns:xlink="http://www.w3.org/1999/xlink" width="112" height="112" viewBox="0 0 112 112">
  <defs>
    <clipPath id="clip-path">
      <rect id="Rectángulo_297841" data-name="Rectángulo 297841" width="65.885" height="70.72" fill="none"/>
    </clipPath>
  </defs>
  <g id="Grupo_886475" data-name="Grupo 886475" transform="translate(5504 2126)">
    <circle id="Elipse_6577" data-name="Elipse 6577" cx="56" cy="56" r="56" transform="translate(-5504 -2126)" fill="#e1fbff"/>
    <g id="Grupo_878999" data-name="Grupo 878999" transform="translate(-5481.7 -2107.209)">
      <g id="Grupo_878999-2" data-name="Grupo 878999" clip-path="url(#clip-path)">
        <path id="Trazado_592180" data-name="Trazado 592180" d="M210.6.428A4.14,4.14,0,0,0,210.85,8.3c.216.074.513.053.586.36l1.206.01h0l.009,0c-.037-.214.175-.235.312-.286A6.8,6.8,0,0,0,213.909,8c-.254-.275-.505-.553-.769-.82a4.271,4.271,0,0,1,.528-6.244,1.814,1.814,0,0,0,.278-.284c-.3-.278-.865-.148-1.012-.656h-1.8c-.007.355-.325.342-.535.428" transform="translate(-179.093)" fill="#efa379"/>
        <path id="Trazado_592181" data-name="Trazado 592181" d="M242.748,58.2c-.138.051-.349.073-.312.286a6.47,6.47,0,0,0,1.379-.536l-.122-.132a6.8,6.8,0,0,1-.945.382" transform="translate(-208.877 -49.816)" fill="#efa379"/>
        <path id="Trazado_592182" data-name="Trazado 592182" d="M245.512.655c.032-.037.063-.073.1-.108-.3-.332-.793-.256-1.109-.548.148.508.714.378,1.012.656" transform="translate(-210.659 0.001)" fill="#efa379"/>
        <path id="Trazado_592183" data-name="Trazado 592183" d="M209.422.245a4.307,4.307,0,0,0-2.691,5.423,4.451,4.451,0,0,0,3.53,3h.01c-.074-.308-.37-.286-.587-.36a4.14,4.14,0,0,1-.247-7.876c.211-.086.528-.073.536-.428-.135.188-.365.179-.551.245" transform="translate(-177.927)" fill="#efa379"/>
        <path id="Trazado_592184" data-name="Trazado 592184" d="M317.6,97.3a3.324,3.324,0,0,0-5.12-2.273,11,11,0,0,0-.97.873,7.022,7.022,0,0,0-.555,3.484c.022,2.875-.021,5.75.027,8.624a2.518,2.518,0,0,1-1.1,2.225,21.546,21.546,0,0,1-2.316,2.773c-.3.346-.46.868-1.011.955a3.9,3.9,0,0,1-1.075,1.391c-1.465,1.639-3.013,3.2-4.5,4.825-.495.54-.963,1.1-1.492,1.613a.99.99,0,0,1-1.408.069,1.113,1.113,0,0,1,.012-1.432c.888-.985,1.776-1.972,2.675-2.948q2.606-2.828,5.227-5.643a4.348,4.348,0,0,1,.418-.352,3.34,3.34,0,0,0-1.39-1.778c-.524.589-1.025,1.2-1.574,1.763-2.437,2.5-4.942,4.94-7.31,7.505a15.986,15.986,0,0,0-3.009,3.556,8.013,8.013,0,0,0-.793,3.515c-.042,3.2-.017,6.393-.019,9.59h0l11.571.006a19.488,19.488,0,0,1,3.367-9.85c2.571-3.721,5.27-7.355,7.938-11.009a11.71,11.71,0,0,0,2.438-6.251c.126-1.932.07-3.861.069-5.791a42.006,42.006,0,0,0-.1-5.442" transform="translate(-251.855 -81.384)" fill="#f6b493"/>
        <path id="Trazado_592185" data-name="Trazado 592185" d="M30.936,102.377c0,3.474-.027,6.949.013,10.422a9.356,9.356,0,0,0,1.553,5.13c2.227,3.359,4.654,6.58,7.067,9.806a24.5,24.5,0,0,1,4.684,9.4,18.77,18.77,0,0,1,.488,3.038h0l11.464.017c0-3.308-.008-6.617.014-9.925A6.737,6.737,0,0,0,54.3,125.4c-3.4-3.549-6.842-7.058-10.264-10.585a3.705,3.705,0,0,0-6.156,1.221,47.781,47.781,0,0,1,3.634,3.834c.692.763,1.433,1.48,2.111,2.258.782.9,1.638,1.729,2.444,2.606.639.7.647,1.217.067,1.706a.755.755,0,0,1-1.109,0c-1.324-1.268-2.542-2.638-3.773-4-.985-1.086-2.007-2.138-3.018-3.2-.208-.219-.435-.416-.4-.758h0c-.285.052-.406-.177-.55-.34-.8-.909-1.576-1.838-2.388-2.736a1.3,1.3,0,0,1-.384-1.048c-.13.165-.188.51-.48.107a3.553,3.553,0,0,1-.745-2.154c.009-3.219-.013-6.438.015-9.657a4.005,4.005,0,0,0-.565-2.229,2.335,2.335,0,0,0-.688-.709c0,.234-.169.364-.305.518a3.117,3.117,0,0,0-.8,2.134" transform="translate(-26.648 -85.922)" fill="#f6b493"/>
        <path id="Trazado_592186" data-name="Trazado 592186" d="M397.12,432.842h0Z" transform="translate(-342.155 -372.932)" fill="#00a9ef"/>
        <path id="Trazado_592187" data-name="Trazado 592187" d="M268.916,432.825c-.182,0-.365.023-.547.036,0,2.825.021,5.65-.009,8.474a2.364,2.364,0,0,0,.974,2.261q7.625.011,15.25.017c.92,0,1.362-.412,1.627-1.379q-.015-4.7-.03-9.407-8.633,0-17.265,0" transform="translate(-231.216 -372.918)" fill="#00a9ef"/>
        <path id="Trazado_592188" data-name="Trazado 592188" d="M126.581,432.84c-1.353-.011-2.705-.029-4.058-.03q-6.469-.006-12.939,0c-.274,0-.548.024-.822.036,0,2.822.016,5.643-.007,8.465a2.5,2.5,0,0,0,.971,2.27c4.842.008,9.684-.008,14.526.041A2.321,2.321,0,0,0,126.7,442.4h0a2.333,2.333,0,0,1-.124-.81q.009-4.377.007-8.754" transform="translate(-93.702 -372.902)" fill="#00a9ef"/>
        <path id="Trazado_592189" data-name="Trazado 592189" d="M18.045,135.485a1.52,1.52,0,0,1-.228-.85,24.148,24.148,0,0,0-1.5-5.584,27.441,27.441,0,0,0-3.6-5.94c-2.267-3.129-4.6-6.208-6.786-9.4a10.452,10.452,0,0,1-1.83-6.048q.006-4.934,0-9.869A3.272,3.272,0,0,1,5.4,95.038a3.07,3.07,0,0,0-3.476-.39,3.13,3.13,0,0,0-1.9,2.959c-.027,3.287.017,6.574-.018,9.86A10.9,10.9,0,0,0,2.1,114.1c2.261,3.151,4.5,6.316,6.854,9.4a23.057,23.057,0,0,1,4.873,12l2.2.026,2.018-.04" transform="translate(0 -81.235)" fill="#efa379"/>
        <path id="Trazado_592190" data-name="Trazado 592190" d="M29.637,102.484q0,4.935,0,9.869a10.454,10.454,0,0,0,1.83,6.048c2.182,3.19,4.519,6.269,6.786,9.4a27.435,27.435,0,0,1,3.6,5.94,24.145,24.145,0,0,1,1.5,5.584,1.52,1.52,0,0,0,.228.85h.049a18.772,18.772,0,0,0-.488-3.038,24.506,24.506,0,0,0-4.684-9.4c-2.413-3.226-4.839-6.446-7.066-9.806a9.355,9.355,0,0,1-1.554-5.13c-.04-3.474-.01-6.948-.013-10.422a3.117,3.117,0,0,1,.8-2.134c.136-.155.308-.284.305-.518a3.273,3.273,0,0,0-1.294,2.76" transform="translate(-25.533 -85.921)" fill="#efa379"/>
        <path id="Trazado_592191" data-name="Trazado 592191" d="M220.115,65.556a7.35,7.35,0,0,0-4.55,5.526,3.081,3.081,0,0,0-.036.684q0,3.684,0,7.367a1.811,1.811,0,0,0,.21,1.135l.378-.025c.525-.037,1.049-.1,1.577-.1q2.962,0,5.925,0a7.852,7.852,0,0,1,1.507.119l.479.013a1.848,1.848,0,0,0,.434-1.319q-.047-3.054-.005-6.109a9.033,9.033,0,0,0-.52-3.188c-.6-.425-.755-1.163-1.211-1.7a7.446,7.446,0,0,0-3.9-2.572c-.03.107-.185.131-.289.173" transform="translate(-185.692 -56.333)" fill="#d565d2"/>
        <path id="Trazado_592192" data-name="Trazado 592192" d="M203.251,172.139l-.479-.014a7.852,7.852,0,0,0-1.507-.119q-2.962,0-5.925,0c-.528,0-1.052.065-1.577.1l-.378.025a1.315,1.315,0,0,0,.083.111H189.58a20.081,20.081,0,0,0,4.169.086c3.023-.1,6.043-.111,9.065,0l.354-.1c.03-.03.056-.062.083-.093" transform="translate(-163.34 -148.199)" fill="#d565d2"/>
        <path id="Trazado_592193" data-name="Trazado 592193" d="M250.527,64.2a7.447,7.447,0,0,1,3.9,2.572c.456.539.614,1.277,1.211,1.7,0-.012-.008-.024-.012-.036h0a7.617,7.617,0,0,0-5.138-4.428.257.257,0,0,1,.043.189" transform="translate(-215.815 -55.155)" fill="#d565d2"/>
        <path id="Trazado_592194" data-name="Trazado 592194" d="M263.42,226.816h0l2.291-.039a.94.94,0,0,1-.12-.577c-.009-3.1-.05-6.205.014-9.306a7.706,7.706,0,0,1,2.4-5.4c2.961-3.015,5.854-6.1,8.833-9.094a7,7,0,0,1,1.635-1.558,3.752,3.752,0,0,0-4.785.6c-.721.709-1.4,1.462-2.1,2.189q-4.051,4.192-8.106,8.38a6.456,6.456,0,0,0-1.95,4.424c-.066,3.449-.016,6.9-.014,10.35l1.907.029Z" transform="translate(-225.299 -172.526)" fill="#efa379"/>
        <path id="Trazado_592195" data-name="Trazado 592195" d="M302.218,206.181c-2.979,3-5.873,6.079-8.833,9.093a7.707,7.707,0,0,0-2.4,5.4c-.064,3.1-.022,6.2-.014,9.306a.938.938,0,0,0,.12.577h.053c0-3.2-.023-6.394.019-9.59a8.017,8.017,0,0,1,.793-3.515,15.992,15.992,0,0,1,3.009-3.555c2.368-2.565,4.873-5,7.31-7.505.55-.564,1.051-1.175,1.574-1.764a7,7,0,0,0-1.634,1.558" transform="translate(-250.683 -176.301)" fill="#efa379"/>
        <path id="Trazado_592196" data-name="Trazado 592196" d="M272.379,392.232a1.828,1.828,0,0,1-.544-.068.517.517,0,0,1-.22-.142c-.425.342-.934.169-1.407.2a6.6,6.6,0,0,1-.887,0,1.921,1.921,0,0,0-.247-.019,2.363,2.363,0,0,0-.745,2.091,22.39,22.39,0,0,1,0,2.48c-.027.427.06.636.326.722a3.059,3.059,0,0,1,.5-.017q8.106-.005,16.212,0a1.159,1.159,0,0,1,.794.157c.019.042.055.083.055.125,0,3.1.058,6.2-.029,9.3.183-.193.109-.434.112-.656.068-4.3-.062-8.608-.14-12.911a1.472,1.472,0,0,0-1.488-1.476c-.48-.026-.963-.012-1.444-.017h0a.928.928,0,0,1-.767.228q-5.036.016-10.072,0" transform="translate(-231.182 -337.745)" fill="#e3e9f7"/>
        <path id="Trazado_592197" data-name="Trazado 592197" d="M292.154,391.958l-.032.025a.518.518,0,0,0,.22.142,1.833,1.833,0,0,0,.544.068q5.036.013,10.072,0a.927.927,0,0,0,.767-.228l-11.571-.006Z" transform="translate(-251.689 -337.707)" fill="#e3e9f7"/>
        <path id="Trazado_592198" data-name="Trazado 592198" d="M288.265,431.863c0-.042-.036-.083-.055-.125a1.159,1.159,0,0,0-.794-.157q-8.106-.006-16.212,0a3.027,3.027,0,0,0-.5.017,1.443,1.443,0,0,0,.44.05c5.421-.024,10.843-.016,16.264-.009.265,0,.554-.1.793.115h0q.015,4.7.03,9.407h0c.088-3.1.026-6.2.029-9.3" transform="translate(-233.24 -371.844)" fill="#e3e9f7"/>
        <path id="Trazado_592199" data-name="Trazado 592199" d="M273.993,392h0a2.34,2.34,0,0,0-.229.17,1.909,1.909,0,0,1,.247.019,6.606,6.606,0,0,0,.887,0c.473-.035.982.138,1.407-.2l-.021-.024-2.291.038" transform="translate(-235.872 -337.713)" fill="#e3e9f7"/>
        <path id="Trazado_592200" data-name="Trazado 592200" d="M291.994,391.983l.032-.025h-.053l.021.024" transform="translate(-251.561 -337.707)" fill="#e3e9f7"/>
        <path id="Trazado_592201" data-name="Trazado 592201" d="M112.39,392.08a1.527,1.527,0,0,1-.473-.07.682.682,0,0,1-.207-.145c-.64.407-1.354.142-2.031.21-.074,0-.148,0-.222,0a2.812,2.812,0,0,0-.755,2.371c.041.778.026,1.561,0,2.341-.01.32.049.5.277.576a2.854,2.854,0,0,1,.609-.026q8.038-.005,16.075,0a2.844,2.844,0,0,1,.583.024c.215-.065.3-.228.285-.555-.028-.894,0-1.791-.013-2.686a3.958,3.958,0,0,1,.138-1.152,2.523,2.523,0,0,0-2.7-1.1,6.683,6.683,0,0,1-.749,0,.879.879,0,0,1-.7.218q-5.058.019-10.115,0" transform="translate(-93.648 -337.596)" fill="#e3e9f7"/>
        <path id="Trazado_592202" data-name="Trazado 592202" d="M130.524,391.948l-.032.02a.683.683,0,0,0,.207.145,1.532,1.532,0,0,0,.473.07q5.058.022,10.115,0a.879.879,0,0,0,.7-.218l-11.464-.017Z" transform="translate(-112.431 -337.699)" fill="#e3e9f7"/>
        <path id="Trazado_592203" data-name="Trazado 592203" d="M127.729,431.637a1.053,1.053,0,0,0,.306-.037,2.841,2.841,0,0,0-.583-.024q-8.038-.006-16.075,0a2.852,2.852,0,0,0-.609.026.981.981,0,0,0,.293.036q8.334-.02,16.668,0" transform="translate(-95.437 -371.839)" fill="#e3e9f7"/>
        <path id="Trazado_592204" data-name="Trazado 592204" d="M114.433,392.183c.677-.068,1.391.2,2.031-.209l-.016-.019-2.018.04a2.582,2.582,0,0,0-.219.185c.074,0,.148,0,.222,0" transform="translate(-98.403 -337.704)" fill="#e3e9f7"/>
        <path id="Trazado_592205" data-name="Trazado 592205" d="M130.423,391.948h-.049l.016.019.032-.02" transform="translate(-112.329 -337.699)" fill="#e3e9f7"/>
        <path id="Trazado_592206" data-name="Trazado 592206" d="M191.863,62.666a.872.872,0,0,1-1.2,0s0,.008,0,.013c-.185.222-.46.178-.7.23a7.314,7.314,0,0,0-5.177,3.852c-.117.22-.2.472-.474.562l-.04,0c-.768,2.348-.45,4.776-.511,7.175-.018.71.01,1.421-.007,2.132a1.7,1.7,0,0,0,.383,1.2h.087a1.557,1.557,0,0,1,.392.047l.136.014a1.6,1.6,0,0,1,.638-.063c.873-.016,1.747.006,2.59-.01-.056-2.688-.022-5.364-.025-8.039a7.372,7.372,0,0,1,4.609-6.7c.078-.03.16-.053.236-.087a2.6,2.6,0,0,1-.91-.256.423.423,0,0,1-.017-.063l-.01,0Z" transform="translate(-158.313 -53.992)" fill="#c54ac5"/>
        <path id="Trazado_592207" data-name="Trazado 592207" d="M243.4,63a.469.469,0,0,0,.183-.135l-1.109-.184a.426.426,0,0,0,.017.063,2.6,2.6,0,0,0,.91.256" transform="translate(-208.91 -54.009)" fill="#c54ac5"/>
        <path id="Trazado_592208" data-name="Trazado 592208" d="M187.585,67.265c.274-.09.357-.342.474-.562a7.315,7.315,0,0,1,5.177-3.852c.24-.052.515-.008.7-.23,0,0,0-.008,0-.013l-.012-.009h0a7.061,7.061,0,0,0-3.245,1.038,8.282,8.282,0,0,0-3.117,3.581c0,.015-.008.029-.013.044l.04,0" transform="translate(-161.587 -53.934)" fill="#c54ac5"/>
        <path id="Trazado_592209" data-name="Trazado 592209" d="M187.19,172.274l-.136-.014a1.564,1.564,0,0,0-.392-.047h-.087a1.655,1.655,0,0,0,.2.2h0l.218.012h0a.568.568,0,0,1,.2-.148" transform="translate(-160.751 -148.377)" fill="#c54ac5"/>
        <path id="Trazado_592210" data-name="Trazado 592210" d="M234.886,62.608l-1.206-.01,0,.009a.872.872,0,0,0,1.2,0" transform="translate(-201.336 -53.934)" fill="#c54ac5"/>
        <path id="Trazado_592211" data-name="Trazado 592211" d="M233.621,62.6h-.01l.012.009,0-.009" transform="translate(-201.277 -53.933)" fill="#c54ac5"/>
        <path id="Trazado_592212" data-name="Trazado 592212" d="M194.623,79.929a1.811,1.811,0,0,1-.21-1.135q0-3.683,0-7.367a3.074,3.074,0,0,1,.036-.684A7.35,7.35,0,0,1,199,65.217c.1-.042.259-.066.289-.173-.043-.011-.086-.023-.13-.034l-.1-.021c-.076.034-.158.057-.236.088a7.371,7.371,0,0,0-4.609,6.7c0,2.675-.031,5.351.025,8.039-.843.015-1.717-.006-2.59.01a1.6,1.6,0,0,0-.638.063,20.565,20.565,0,0,0,3.6.037" transform="translate(-164.579 -55.995)" fill="#c54ac5"/>
        <path id="Trazado_592213" data-name="Trazado 592213" d="M193.385,172.694a20.564,20.564,0,0,1-3.6-.037.567.567,0,0,0-.2.148h3.887a1.314,1.314,0,0,1-.083-.111" transform="translate(-163.341 -148.76)" fill="#c54ac5"/>
        <path id="Trazado_592214" data-name="Trazado 592214" d="M249.164,64.15l.1.021c.044.01.087.022.13.033a.256.256,0,0,0-.043-.189.469.469,0,0,1-.183.135" transform="translate(-214.677 -55.155)" fill="#c54ac5"/>
        <path id="Trazado_592215" data-name="Trazado 592215" d="M317.327,86.922c1.183,3.693.519,7.5.691,11.255a.668.668,0,0,1-.209.612c.155-.012.31-.024.464-.04,1.166-.12,2.344-.027,3.516-.04,1.055-.012,1.278-.194,1.266-1.24a43.3,43.3,0,0,0-.113-5.167,5.613,5.613,0,0,0-4.1-4.94,1.921,1.921,0,0,1-.825-.32.457.457,0,0,1-.037-.121l-.047-.01-.6.009" transform="translate(-273.406 -74.883)" fill="#00a9ef"/>
        <path id="Trazado_592216" data-name="Trazado 592216" d="M291.151,87.423a5.613,5.613,0,0,1,4.1,4.94,43.3,43.3,0,0,1,.113,5.167c.012,1.046-.211,1.228-1.266,1.24-1.172.013-2.35-.08-3.516.04-.155.016-.31.027-.465.04a.929.929,0,0,1-.584.132c-1.308-.03-2.618-.008-3.927-.006-.136.046-.281.06-.418.1q4.586-.028,9.172-.058c.933-.007,1.165-.242,1.17-1.2.007-1.518.02-3.036,0-4.553a6.669,6.669,0,0,0-.619-2.937,6.111,6.111,0,0,0-4.623-3.35.457.457,0,0,0,.037.121,1.922,1.922,0,0,0,.825.32" transform="translate(-245.719 -74.944)" fill="#00a9ef"/>
        <path id="Trazado_592217" data-name="Trazado 592217" d="M285.546,173.636h0l-.354.1c.137-.044.282-.058.418-.1h-.064" transform="translate(-245.719 -149.603)" fill="#00a9ef"/>
        <path id="Trazado_592218" data-name="Trazado 592218" d="M151.613,100.424a65.182,65.182,0,0,1,.147-7.85,2.71,2.71,0,0,1,.557-1.608c-.515-.049-.864-.479-1.347-.607a5.462,5.462,0,0,0-.763-.246c-.171.269-.514.331-.759.5a5.876,5.876,0,0,0-2.756,5.16q0,2.173,0,4.347a2.675,2.675,0,0,0,.216,1.459c1.715-.169,3.422-.1,5.133-.1a1.267,1.267,0,0,1-.43-1.051" transform="translate(-126.384 -77.64)" fill="#fec750"/>
        <path id="Trazado_592219" data-name="Trazado 592219" d="M124.4,172.215c.02.036.042.073.066.109h-3.906c.223.178.486.1.731.1q4.165-.034,8.331-.085c.091,0,.182-.018.273-.027h0a1.252,1.252,0,0,1-.361-.2c-1.711,0-3.419-.07-5.133.1" transform="translate(-103.87 -148.281)" fill="#fec750"/>
        <path id="Trazado_592220" data-name="Trazado 592220" d="M172.882,89.358c.483.128.832.559,1.347.607.013-.014.025-.028.039-.042a6.341,6.341,0,0,0-2.075-.972.621.621,0,0,1-.073.161,5.469,5.469,0,0,1,.763.246" transform="translate(-148.296 -76.639)" fill="#fec750"/>
        <path id="Trazado_592221" data-name="Trazado 592221" d="M182.137,97.885a65.128,65.128,0,0,0-.147,7.85,1.266,1.266,0,0,0,.43,1.051h.164a1.706,1.706,0,0,1-.383-1.2c.016-.71-.011-1.421.007-2.132.061-2.4-.257-4.827.511-7.175l-.025,0a2.711,2.711,0,0,0-.557,1.609" transform="translate(-156.761 -82.95)" fill="#fec750"/>
        <path id="Trazado_592222" data-name="Trazado 592222" d="M185.551,172.212h-.164a1.253,1.253,0,0,0,.361.2,1.66,1.66,0,0,1-.2-.2" transform="translate(-159.728 -148.376)" fill="#fec750"/>
        <path id="Trazado_592223" data-name="Trazado 592223" d="M187.387,96.018c0-.015.008-.029.013-.044l-.039.042.026,0" transform="translate(-161.428 -82.69)" fill="#fec750"/>
        <path id="Trazado_592224" data-name="Trazado 592224" d="M236.966,396.937c-.007.329-.106.519-.333.607a.748.748,0,0,1,.133.07.71.71,0,0,1,.044.058l4.174.005a.743.743,0,0,1,.056-.074.726.726,0,0,1,.1-.056c-.284-.08-.317-.3-.324-.888-.011-.988-.042-1.977.017-2.963a1.713,1.713,0,0,1,.737-1.5,2.2,2.2,0,0,1-1.48-.2h0c-.589,0-1.18-.023-1.768.015a1.367,1.367,0,0,0-1.437,1.093.384.384,0,0,1,.105.249c-.033,1.195,0,2.39-.029,3.584" transform="translate(-203.881 -337.735)" fill="#d7dbe4"/>
        <path id="Trazado_592225" data-name="Trazado 592225" d="M82.013,397.659a.771.771,0,0,1,.126-.063c-.236-.093-.34-.293-.343-.641-.009-1.057-.049-2.115.02-3.17a1.8,1.8,0,0,1,.757-1.52c-.368,0-.736.026-1.1.005a.913.913,0,0,1-.7-.215c-.435,0-.869,0-1.3,0a1.412,1.412,0,0,0-1.629,1.3,28.179,28.179,0,0,0-.1,4.374h4.215a.834.834,0,0,1,.059-.075" transform="translate(-66.946 -337.791)" fill="#d7dbe4"/>
        <path id="Trazado_592226" data-name="Trazado 592226" d="M285.183,432.2q-8.167,0-16.335,0a2.51,2.51,0,0,1-.616-.046.248.248,0,0,0-.16.13h.05c.182-.012.365-.036.547-.036q8.632,0,17.265,0h0a2.023,2.023,0,0,0-.75-.048" transform="translate(-230.968 -372.334)" fill="#d7dbe4"/>
        <path id="Trazado_592227" data-name="Trazado 592227" d="M126.307,432.164a.742.742,0,0,0-.133-.07,1.057,1.057,0,0,1-.388.06q-8.377-.025-16.754,0a1.128,1.128,0,0,1-.419-.065.764.764,0,0,0-.126.063.8.8,0,0,0-.059.075h.052c.274-.013.548-.036.823-.036q6.469,0,12.939,0c1.353,0,2.705.02,4.058.03h.051c-.014-.019-.028-.039-.044-.058" transform="translate(-93.421 -372.284)" fill="#d7dbe4"/>
        <path id="Trazado_592228" data-name="Trazado 592228" d="M101.689,392.264a1.765,1.765,0,0,1,.4-.184l-2.2-.026a.913.913,0,0,0,.7.215c.368.02.735,0,1.1-.005" transform="translate(-86.063 -337.79)" fill="#d7dbe4"/>
        <path id="Trazado_592229" data-name="Trazado 592229" d="M263.119,392.235a1.655,1.655,0,0,1,.427-.173h0l-1.907-.029a2.2,2.2,0,0,0,1.48.2" transform="translate(-225.426 -337.772)" fill="#d7dbe4"/>
        <path id="Trazado_592230" data-name="Trazado 592230" d="M266.8,394.971c-.059.986-.027,1.975-.017,2.963.006.59.04.808.324.888a.84.84,0,0,1,.205-.06c-.266-.086-.353-.3-.326-.722a22.383,22.383,0,0,0,0-2.48,2.363,2.363,0,0,1,.745-2.091c-.066,0-.132,0-.2,0a1.713,1.713,0,0,0-.736,1.5" transform="translate(-229.838 -339.009)" fill="#d7dbe4"/>
        <path id="Trazado_592231" data-name="Trazado 592231" d="M269.844,431.822q8.167,0,16.335,0a2.025,2.025,0,0,1,.751.048c-.238-.211-.528-.114-.793-.115-5.421-.006-10.843-.015-16.264.009a1.437,1.437,0,0,1-.439-.05.849.849,0,0,0-.2.06,2.516,2.516,0,0,0,.616.046" transform="translate(-231.964 -371.963)" fill="#d7dbe4"/>
        <path id="Trazado_592232" data-name="Trazado 592232" d="M397.121,432.842h0Z" transform="translate(-342.156 -372.932)" fill="#d7dbe4"/>
        <path id="Trazado_592233" data-name="Trazado 592233" d="M272.333,392.417c.066,0,.132,0,.2,0a2.337,2.337,0,0,1,.229-.17,1.656,1.656,0,0,0-.427.173" transform="translate(-234.639 -337.954)" fill="#d7dbe4"/>
        <path id="Trazado_592234" data-name="Trazado 592234" d="M235.8,403.877c.01.327-.07.489-.285.554a.843.843,0,0,1,.154.048c.227-.088.326-.278.333-.607.025-1.195,0-2.39.029-3.584a.384.384,0,0,0-.105-.249,3.954,3.954,0,0,0-.138,1.152c.014.9-.015,1.791.013,2.686" transform="translate(-202.92 -344.67)" fill="#d7dbe4"/>
        <path id="Trazado_592235" data-name="Trazado 592235" d="M107.368,398.283c.025-.78.04-1.563,0-2.341a2.813,2.813,0,0,1,.755-2.371c-.06,0-.121,0-.181,0a1.8,1.8,0,0,0-.757,1.52c-.069,1.055-.029,2.113-.02,3.17,0,.348.107.548.343.641a.863.863,0,0,1,.139-.042c-.228-.072-.287-.255-.277-.576" transform="translate(-92.314 -339.096)" fill="#d7dbe4"/>
        <path id="Trazado_592236" data-name="Trazado 592236" d="M126.936,431.88a1.063,1.063,0,0,0,.388-.06.842.842,0,0,0-.154-.048,1.046,1.046,0,0,1-.306.037q-8.334-.018-16.668,0a.98.98,0,0,1-.293-.036.873.873,0,0,0-.139.042,1.129,1.129,0,0,0,.419.065q8.377-.027,16.754,0" transform="translate(-94.571 -372.011)" fill="#d7dbe4"/>
        <path id="Trazado_592237" data-name="Trazado 592237" d="M113.3,392.245a1.76,1.76,0,0,0-.4.184c.06,0,.121,0,.181,0a2.623,2.623,0,0,1,.219-.185" transform="translate(-97.275 -337.954)" fill="#d7dbe4"/>
        <path id="Trazado_592238" data-name="Trazado 592238" d="M122.04,86.812a1.54,1.54,0,0,1-.374.189,6.287,6.287,0,0,0-3.155,1.872,5.473,5.473,0,0,0-1.422,3.438c-.071,1.767-.015,3.54-.021,5.31,0,.492.148.855.666.983a1.6,1.6,0,0,1,.638-.065c.711-.012,1.422-.014,2.133,0,.355.007.522-.043.5-.491a50.347,50.347,0,0,1-.012-5.776,5.9,5.9,0,0,1,3.511-5.136c-.323-.062-.674-.047-.908-.35a.554.554,0,0,1,0-.058l-.009,0a6.8,6.8,0,0,0-1.549.086" transform="translate(-100.851 -74.706)" fill="#fdb544"/>
        <path id="Trazado_592239" data-name="Trazado 592239" d="M165.238,87.273c.081-.04.16-.081.243-.119l-1.149-.289a.56.56,0,0,0,0,.058c.234.3.585.289.908.35" transform="translate(-141.585 -74.842)" fill="#fdb544"/>
        <path id="Trazado_592240" data-name="Trazado 592240" d="M116.6,99.262h0c-.518-.127-.668-.491-.666-.983.006-1.77-.05-3.542.021-5.31a5.473,5.473,0,0,1,1.422-3.438,6.285,6.285,0,0,1,3.155-1.872,1.545,1.545,0,0,0,.374-.19c-.109.012-.218.024-.327.032h0a5.9,5.9,0,0,0-4.826,5.508c-.037,1.837-.005,3.675-.011,5.513,0,.47.148.807.66.883a.573.573,0,0,1,.2-.146" transform="translate(-99.715 -75.364)" fill="#fdb544"/>
        <path id="Trazado_592241" data-name="Trazado 592241" d="M125.405,99.859q-.007-2.174,0-4.347a5.876,5.876,0,0,1,2.756-5.16c.245-.165.587-.227.759-.5h-.009a1.334,1.334,0,0,0-.161-.04,5.9,5.9,0,0,0-3.511,5.136,50.411,50.411,0,0,0,.012,5.776c.022.447-.145.5-.5.491-.711-.014-1.422-.012-2.133,0a1.6,1.6,0,0,0-.638.064,15.64,15.64,0,0,0,3.623.038l.021,0a2.676,2.676,0,0,1-.216-1.459" transform="translate(-105.095 -77.384)" fill="#fdb544"/>
        <path id="Trazado_592242" data-name="Trazado 592242" d="M171.052,89.11h.009a.621.621,0,0,0,.073-.161c-.083.038-.162.079-.243.12a1.328,1.328,0,0,1,.161.04" transform="translate(-147.238 -76.639)" fill="#fdb544"/>
        <path id="Trazado_592243" data-name="Trazado 592243" d="M124.462,172.807c-.024-.037-.046-.073-.066-.109l-.021,0a15.643,15.643,0,0,1-3.623-.038.572.572,0,0,0-.2.146h3.906" transform="translate(-103.87 -148.763)" fill="#fdb544"/>
        <path id="Trazado_592244" data-name="Trazado 592244" d="M395.27,112.288q-.016-4.9,0-9.8a2.84,2.84,0,0,1,.75-2.279,3.612,3.612,0,0,0-.746-.478,3.518,3.518,0,0,0-3.782.659,3.173,3.173,0,0,0-.831,3.7q1.733,4.7,3.467,9.4a3.168,3.168,0,0,1,.262,1.059,3.237,3.237,0,0,1,.38-.654,2.292,2.292,0,0,0,.5-1.6" transform="translate(-336.363 -85.697)" fill="#e4956e"/>
        <path id="Trazado_592245" data-name="Trazado 592245" d="M420.34,116.973c-.048-2.874-.005-5.75-.027-8.624a7.024,7.024,0,0,1,.555-3.484,2.84,2.84,0,0,0-.75,2.279q-.016,4.9,0,9.8a2.292,2.292,0,0,1-.5,1.6,3.237,3.237,0,0,0-.38.654,2.518,2.518,0,0,0,1.1-2.225" transform="translate(-361.211 -90.351)" fill="#e4956e"/>
        <path id="Trazado_592246" data-name="Trazado 592246" d="M288.459,88.606a7.207,7.207,0,0,1,.318,1.831q.016,3.486,0,6.973a1.4,1.4,0,0,1-.434,1.207,2.5,2.5,0,0,1,.784-.1c.917,0,1.834,0,2.75,0,.462,0,.759-.16.75-.668-.049-2.885.158-5.774-.125-8.656a10.681,10.681,0,0,0-.355-1.61,1.28,1.28,0,0,1-.065-.807c.011-.014.023-.024.034-.036l-.769-.036c0,.009,0,.017,0,.027a15.985,15.985,0,0,1-2.115.771c-.366.182-.676.516-1.12.534a.942.942,0,0,1,.34.566" transform="translate(-248.24 -74.707)" fill="#0599da"/>
        <path id="Trazado_592247" data-name="Trazado 592247" d="M287.674,88.04c.444-.019.754-.352,1.12-.534a15.985,15.985,0,0,0,2.115-.771c0-.01,0-.018,0-.027h0a8.09,8.09,0,0,0-3.3,1.287.667.667,0,0,1,.072.045" transform="translate(-247.795 -74.707)" fill="#0599da"/>
        <path id="Trazado_592248" data-name="Trazado 592248" d="M288.214,105.561a1.847,1.847,0,0,1-.434,1.319l.106,0c.029-.012.059-.023.089-.033a1.4,1.4,0,0,0,.434-1.207q.009-3.486,0-6.973a7.208,7.208,0,0,0-.318-1.831.943.943,0,0,0-.34-.566l-.045,0-.014-.011a9.036,9.036,0,0,1,.52,3.188q-.038,3.054,0,6.109" transform="translate(-247.87 -82.94)" fill="#0599da"/>
        <path id="Trazado_592249" data-name="Trazado 592249" d="M287.94,172.97l-.106,0c-.027.031-.053.063-.083.093h0a1.385,1.385,0,0,1,.189-.09" transform="translate(-247.923 -149.027)" fill="#0599da"/>
        <path id="Trazado_592250" data-name="Trazado 592250" d="M287.614,96.04l.014.011.045,0A.689.689,0,0,0,287.6,96l.012.036" transform="translate(-247.795 -82.716)" fill="#0599da"/>
        <path id="Trazado_592251" data-name="Trazado 592251" d="M293.21,87a1.28,1.28,0,0,0,.065.807,10.658,10.658,0,0,1,.355,1.61c.283,2.882.075,5.77.125,8.656.009.508-.288.669-.75.668-.917,0-1.834,0-2.75,0a2.5,2.5,0,0,0-.784.1l-.046.034a40.377,40.377,0,0,0,4.343-.038.668.668,0,0,0,.209-.612c-.171-3.755.492-7.561-.691-11.255l-.043,0c-.011.012-.023.022-.034.036" transform="translate(-249.366 -74.929)" fill="#0599da"/>
        <path id="Trazado_592252" data-name="Trazado 592252" d="M288.382,172.757a1.213,1.213,0,0,1-.107.068c-.02.009-.04.014-.06.021,1.309,0,2.619-.024,3.927.005a.929.929,0,0,0,.584-.132,40.35,40.35,0,0,1-4.343.039" transform="translate(-248.322 -148.812)" fill="#0599da"/>
        <path id="Trazado_592253" data-name="Trazado 592253" d="M289.2,172.751c-.03.01-.059.021-.089.033h.043l.046-.034" transform="translate(-249.098 -148.841)" fill="#0599da"/>
        <path id="Trazado_592254" data-name="Trazado 592254" d="M287.983,172.988h-.043a1.374,1.374,0,0,0-.189.09h.064c.02-.007.041-.012.06-.021a1.205,1.205,0,0,0,.107-.068" transform="translate(-247.923 -149.044)" fill="#0599da"/>
        <path id="Trazado_592255" data-name="Trazado 592255" d="M82.1,442.532a4.551,4.551,0,0,1-.089-1.028q0-3.722,0-7.443a1.8,1.8,0,0,1,.115-.906.912.912,0,0,1-.472.125q-1.566.034-3.133,0a.8.8,0,0,1-.566-.2c0,2.968-.006,5.936,0,8.9,0,1.277.588,1.855,1.85,1.853,1.127,0,2.254-.014,3.381-.022a1.5,1.5,0,0,1-1.089-1.288" transform="translate(-67.167 -373.142)" fill="#0599da"/>
        <path id="Trazado_592256" data-name="Trazado 592256" d="M107.369,433.156a1.8,1.8,0,0,0-.115.906q-.01,3.722,0,7.443a4.535,4.535,0,0,0,.089,1.028,1.5,1.5,0,0,0,1.089,1.288,2.5,2.5,0,0,1-.971-2.271c.023-2.821.007-5.643.007-8.465a.711.711,0,0,1-.1.07" transform="translate(-92.405 -373.143)" fill="#0599da"/>
        <path id="Trazado_592257" data-name="Trazado 592257" d="M81.675,433.281a.912.912,0,0,0,.472-.125.778.778,0,0,1,.044-.07H77.976a.8.8,0,0,0,.566.2q1.566.033,3.133,0" transform="translate(-67.183 -373.143)" fill="#0599da"/>
        <path id="Trazado_592258" data-name="Trazado 592258" d="M108.156,433.086a.761.761,0,0,0-.044.07.732.732,0,0,0,.1-.07Z" transform="translate(-93.148 -373.143)" fill="#0599da"/>
        <path id="Trazado_592259" data-name="Trazado 592259" d="M242.227,442.427c-.039-1.219-.011-2.439-.013-3.658,0-1.45-.006-2.9,0-4.349a1.684,1.684,0,0,1,.116-.841.912.912,0,0,1-.475.126q-1.569.033-3.139,0a.893.893,0,0,1-.469-.127,1.33,1.33,0,0,1,.116.647c.02,2.8-.012,5.592.018,8.388a.641.641,0,0,1-.114.455,1.336,1.336,0,0,0,1.353,1.19c1.256.018,2.513-.007,3.769-.014-.934-.255-1.139-1-1.166-1.817" transform="translate(-205.275 -373.566)" fill="#0599da"/>
        <path id="Trazado_592260" data-name="Trazado 592260" d="M267.04,441.559c.03-2.824.01-5.649.009-8.474h0a.725.725,0,0,1-.094.07,1.684,1.684,0,0,0-.116.841c-.009,1.45,0,2.9,0,4.349,0,1.22-.026,2.44.013,3.658.026.821.231,1.562,1.166,1.817a2.364,2.364,0,0,1-.974-2.261" transform="translate(-229.896 -373.142)" fill="#0599da"/>
        <path id="Trazado_592261" data-name="Trazado 592261" d="M237.736,442.153c-.03-2.8,0-5.592-.018-8.388a1.328,1.328,0,0,0-.116-.647.7.7,0,0,1-.1-.074q0,4.377-.007,8.754a2.327,2.327,0,0,0,.124.81.642.642,0,0,0,.114-.455" transform="translate(-204.626 -373.106)" fill="#0599da"/>
        <path id="Trazado_592262" data-name="Trazado 592262" d="M237.913,433.045a.713.713,0,0,1,.047.074.893.893,0,0,0,.469.127q1.569.037,3.139,0a.911.911,0,0,0,.475-.126.767.767,0,0,1,.045-.07l-4.174-.005" transform="translate(-204.983 -373.107)" fill="#0599da"/>
        <path id="Trazado_592263" data-name="Trazado 592263" d="M267.793,433.084a.07.07,0,1,0,.05,0h-.05" transform="translate(-230.689 -373.141)" fill="#0599da"/>
        <path id="Trazado_592264" data-name="Trazado 592264" d="M237.546,433.044a.69.69,0,0,0,.1.074.72.72,0,0,0-.047-.074h-.051" transform="translate(-204.667 -373.106)" fill="#0599da"/>
        <path id="Trazado_592265" data-name="Trazado 592265" d="M44.721,102.119c.015,2.958,0,5.915.007,8.873a6.244,6.244,0,0,0,.143,1.981c.154.469.267,1,.873,1.127.073-.239.14-.481.22-.718.429-1.275,1.015-2.5,1.332-3.81q-.007-3.463-.013-6.927a3.772,3.772,0,0,0-.131-1.354,1.308,1.308,0,0,1,.4-1.531,3.378,3.378,0,0,0-3.581.407,2.074,2.074,0,0,1,.751,1.952" transform="translate(-37.884 -85.654)" fill="#e4956e"/>
        <path id="Trazado_592266" data-name="Trazado 592266" d="M44.519,116.736a3.554,3.554,0,0,0,.745,2.154c.293.4.351.058.48-.107-.606-.13-.718-.658-.873-1.127a6.244,6.244,0,0,1-.143-1.981c0-2.958.007-5.915-.008-8.873a2.074,2.074,0,0,0-.751-1.952,4.005,4.005,0,0,1,.564,2.229c-.028,3.219-.006,6.438-.015,9.657" transform="translate(-37.884 -90.338)" fill="#e4956e"/>
        <path id="Trazado_592267" data-name="Trazado 592267" d="M139.709,44.03a5.7,5.7,0,0,0,.651-.373l.054-.05c-.081-.2-.276-.316-.405-.48a3.563,3.563,0,0,1,.123-4.465,2.4,2.4,0,0,0,.269-.329l-.063-.054A3.312,3.312,0,1,0,137,43.974c.083.039.171.067.255.1.166.073.411.118.419.31a.239.239,0,0,1-.021.108,1.57,1.57,0,0,1,.8-.22c.248.029.511-.011.7.2l.009,0c.029-.314.342-.329.549-.447" transform="translate(-116.412 -32.461)" fill="#efa379"/>
        <path id="Trazado_592268" data-name="Trazado 592268" d="M136.4,43.462a.238.238,0,0,0,.021-.108c-.008-.193-.253-.237-.419-.31-.084-.037-.172-.065-.256-.1a3.312,3.312,0,1,1,3.341-5.695l.063.054a.364.364,0,0,0,.039-.18,3.472,3.472,0,0,0-5.08,1.149,3.346,3.346,0,0,0-.254,2.783,3.5,3.5,0,0,0,2.514,2.312l-.344.2h0a1.215,1.215,0,0,0,.374-.1" transform="translate(-115.166 -31.426)" fill="#efa379"/>
        <path id="Trazado_592269" data-name="Trazado 592269" d="M165.546,80.577a5.71,5.71,0,0,1-.651.373c-.207.118-.52.133-.549.447.412-.264.94-.312,1.292-.688a.482.482,0,0,0-.038-.182l-.054.05" transform="translate(-141.599 -69.381)" fill="#efa379"/>
        <path id="Trazado_592270" data-name="Trazado 592270" d="M154.642,85.543c-.192-.216-.454-.176-.7-.2a1.569,1.569,0,0,0-.8.22.225.225,0,0,1-.048.071,6.794,6.794,0,0,1,1.549-.086" transform="translate(-131.903 -73.522)" fill="#efa379"/>
        <path id="Trazado_592271" data-name="Trazado 592271" d="M151.06,87.029a.225.225,0,0,0,.048-.071,1.214,1.214,0,0,1-.374.1h0c.109-.008.218-.02.326-.032" transform="translate(-129.871 -74.922)" fill="#efa379"/>
        <path id="Trazado_592272" data-name="Trazado 592272" d="M297.168,44.115a6.57,6.57,0,0,0,.838-.457l.051-.038c-.182-.406-.591-.662-.757-1.079a3.741,3.741,0,0,1,.493-3.884,2.118,2.118,0,0,0,.273-.336c-.021-.015-.041-.031-.062-.045a3.314,3.314,0,1,0-3.235,5.745c.227.1.548.095.6.436a.556.556,0,0,1,.788.017.41.41,0,0,1,.626.012h0l.042-.023c-.008-.192.189-.263.347-.347" transform="translate(-252.255 -32.455)" fill="#efa379"/>
        <path id="Trazado_592273" data-name="Trazado 592273" d="M323.166,80.7a6.549,6.549,0,0,1-.838.457c-.158.084-.355.154-.347.347.421-.245.938-.307,1.294-.675a1.026,1.026,0,0,0-.059-.167l-.05.038" transform="translate(-277.416 -69.498)" fill="#efa379"/>
        <path id="Trazado_592274" data-name="Trazado 592274" d="M294.159,43.374c-.048-.341-.369-.337-.6-.436a3.313,3.313,0,1,1,3.235-5.745c.021.014.041.03.062.045a.372.372,0,0,0,.037-.179h0a3.491,3.491,0,0,0-4.156.074,3.453,3.453,0,0,0-1.092,4.077,3.779,3.779,0,0,0,2.51,2.163h0" transform="translate(-251.049 -31.373)" fill="#efa379"/>
        <path id="Trazado_592275" data-name="Trazado 592275" d="M317.775,85.97h0a.41.41,0,0,0-.626-.012l.025.021.6-.009" transform="translate(-273.252 -73.941)" fill="#efa379"/>
        <path id="Trazado_592276" data-name="Trazado 592276" d="M312.247,85.76a.557.557,0,0,0-.788-.017h0l.769.036.018-.019" transform="translate(-268.35 -73.742)" fill="#efa379"/>
        <path id="Trazado_592277" data-name="Trazado 592277" d="M311.457,86.708h0Z" transform="translate(-268.348 -74.706)" fill="#efa379"/>
        <path id="Trazado_592278" data-name="Trazado 592278" d="M317.061,86.849c-.008-.008-.016-.014-.025-.021l-.018.019.043,0" transform="translate(-273.14 -74.81)" fill="#efa379"/>
        <path id="Trazado_592279" data-name="Trazado 592279" d="M334.872,225.152c-.418.427-.774.907-1.179,1.347a.861.861,0,0,0-.006,1.237.809.809,0,0,0,1.169-.141c.976-1,1.9-2.05,2.863-3.069,1.428-1.519,2.8-3.087,4.26-4.579a3.852,3.852,0,0,0-.14-2.477,4.29,4.29,0,0,1-.965,1.237c-2.034,2.118-3.947,4.348-6,6.445" transform="translate(-287.279 -187.37)" fill="#efa379"/>
        <path id="Trazado_592280" data-name="Trazado 592280" d="M335.09,223.464c-.9.976-1.787,1.962-2.675,2.948a1.113,1.113,0,0,0-.012,1.432.99.99,0,0,0,1.407-.069c.529-.508,1-1.073,1.492-1.612,1.485-1.621,3.033-3.186,4.5-4.825a3.9,3.9,0,0,0,1.075-1.391c-1.456,1.493-2.832,3.061-4.26,4.579-.958,1.019-1.888,2.066-2.863,3.069a.809.809,0,0,1-1.169.141.861.861,0,0,1,.006-1.237c.4-.44.76-.92,1.179-1.347,2.056-2.1,3.969-4.327,6-6.445a4.29,4.29,0,0,0,.965-1.237,4.328,4.328,0,0,0-.418.352q-2.618,2.817-5.227,5.643" transform="translate(-286.176 -187.369)" fill="#efa379"/>
        <path id="Trazado_592281" data-name="Trazado 592281" d="M86.818,227.625c.507.465.826.531,1.2.21.392-.34.4-.76-.016-1.277-.536-.66-1.138-1.265-1.722-1.88-2.024-2.133-3.95-4.359-6.012-6.456a1.664,1.664,0,0,1-.431-.615,4.168,4.168,0,0,0-.046,2.45c1.334,1.547,2.761,3.01,4.14,4.515.946,1.033,1.856,2.1,2.892,3.053" transform="translate(-68.604 -187.488)" fill="#efa379"/>
        <path id="Trazado_592282" data-name="Trazado 592282" d="M81.172,220.815c1.012,1.061,2.034,2.113,3.018,3.2,1.231,1.358,2.449,2.727,3.773,4a.755.755,0,0,0,1.109,0c.58-.489.572-1.011-.067-1.706-.806-.877-1.662-1.709-2.444-2.606-.679-.779-1.42-1.5-2.111-2.258a47.8,47.8,0,0,0-3.634-3.834,1.664,1.664,0,0,0,.431.615c2.062,2.1,3.988,4.323,6.012,6.456.584.615,1.186,1.22,1.722,1.88.42.517.408.937.016,1.277-.369.321-.688.255-1.2-.21-1.036-.95-1.945-2.021-2.892-3.053-1.38-1.505-2.806-2.968-4.14-4.515-.033.342.193.539.4.758" transform="translate(-69.588 -187.488)" fill="#efa379"/>
        <path id="Trazado_592283" data-name="Trazado 592283" d="M240.694,5.615a4.1,4.1,0,0,0-.223,6.2c.188.193.461.346.52.63a4.149,4.149,0,0,0,.025-7.211c-.035.168-.2.266-.322.38" transform="translate(-206.06 -4.51)" fill="#f6b493"/>
        <path id="Trazado_592284" data-name="Trazado 592284" d="M252.407,4.132a4.149,4.149,0,0,1-.024,7.211.593.593,0,0,1,.006.2,4.3,4.3,0,0,0,.011-7.587.379.379,0,0,1,.007.177" transform="translate(-217.451 -3.408)" fill="#f6b493"/>
        <path id="Trazado_592285" data-name="Trazado 592285" d="M239.907,12.016c-.059-.284-.333-.437-.52-.63a4.1,4.1,0,0,1,.223-6.2c.127-.114.287-.212.322-.38-.027-.016-.053-.033-.081-.049-.007-.007-.015-.013-.023-.02a1.818,1.818,0,0,1-.278.284,4.271,4.271,0,0,0-.528,6.244c.263.266.515.544.769.82l.008,0c.037-.02.071-.042.107-.063" transform="translate(-204.975 -4.08)" fill="#f6b493"/>
        <path id="Trazado_592286" data-name="Trazado 592286" d="M251.662,57.332c-.036.021-.07.043-.107.063l-.008,0,.122.132a.593.593,0,0,0-.006-.2" transform="translate(-216.73 -49.397)" fill="#f6b493"/>
        <path id="Trazado_592287" data-name="Trazado 592287" d="M251.815,4.063l.022.02c.028.016.053.033.081.049a.38.38,0,0,0-.007-.177c-.033.035-.064.071-.1.108" transform="translate(-216.961 -3.408)" fill="#f6b493"/>
        <path id="Trazado_592288" data-name="Trazado 592288" d="M68.192,104.4c.035,2.015.011,4.03.012,6.046a7.373,7.373,0,0,1-.2,1.282c.831-1.989,1.59-4.007,2.238-6.062a3.117,3.117,0,0,0-1.983-3.75,5.514,5.514,0,0,0-.069,2.484" transform="translate(-58.593 -87.806)" fill="#efa379"/>
        <path id="Trazado_592289" data-name="Trazado 592289" d="M66.335,103.442a3.776,3.776,0,0,1,.132,1.354q0,3.463.013,6.927a7.372,7.372,0,0,0,.2-1.282c0-2.015.023-4.031-.012-6.046a5.514,5.514,0,0,1,.069-2.484,1.308,1.308,0,0,0-.4,1.531" transform="translate(-57.067 -87.806)" fill="#efa379"/>
        <path id="Trazado_592290" data-name="Trazado 592290" d="M167.394,47.835a1.131,1.131,0,0,1,.211.336,3.321,3.321,0,0,0-.006-5.094c-.033.148-.173.264-.256.389a3.355,3.355,0,0,0,.05,4.368" transform="translate(-143.507 -37.116)" fill="#f6b493"/>
        <path id="Trazado_592291" data-name="Trazado 592291" d="M173.659,41.394a3.321,3.321,0,0,1,.006,5.094.323.323,0,0,1-.059.272,3.477,3.477,0,0,0-.012-5.636h0a.333.333,0,0,1,.065.27" transform="translate(-149.567 -35.432)" fill="#f6b493"/>
        <path id="Trazado_592292" data-name="Trazado 592292" d="M165.948,47.222c.129.164.325.283.405.479.033-.03.066-.059.1-.09a1.129,1.129,0,0,0-.211-.336,3.355,3.355,0,0,1-.05-4.368c.083-.125.223-.242.256-.389-.034-.031-.069-.06-.1-.09a2.387,2.387,0,0,1-.269.329,3.563,3.563,0,0,0-.123,4.465" transform="translate(-142.352 -36.556)" fill="#f6b493"/>
        <path id="Trazado_592293" data-name="Trazado 592293" d="M173.415,41.4a.333.333,0,0,0-.065-.27.364.364,0,0,1-.039.18c.035.03.071.06.1.09" transform="translate(-149.322 -35.433)" fill="#f6b493"/>
        <path id="Trazado_592294" data-name="Trazado 592294" d="M173.5,79.879c-.031.03-.064.06-.1.09a.479.479,0,0,1,.038.182.323.323,0,0,0,.059-.272" transform="translate(-149.406 -68.823)" fill="#f6b493"/>
        <path id="Trazado_592295" data-name="Trazado 592295" d="M325.281,47.739a.709.709,0,0,1,.217.348,3.4,3.4,0,0,0-.007-5.125.889.889,0,0,1-.257.4,3.485,3.485,0,0,0,.047,4.376" transform="translate(-279.573 -37.016)" fill="#f6b493"/>
        <path id="Trazado_592296" data-name="Trazado 592296" d="M331.31,41.347a3.4,3.4,0,0,1,.007,5.125.364.364,0,0,1-.065.26,3.475,3.475,0,0,0-.013-5.644h0a.365.365,0,0,1,.071.259" transform="translate(-285.392 -35.401)" fill="#f6b493"/>
        <path id="Trazado_592297" data-name="Trazado 592297" d="M323.4,46.6c.166.418.576.674.757,1.079.042-.031.084-.061.124-.093a.709.709,0,0,0-.217-.348,3.485,3.485,0,0,1-.047-4.376.891.891,0,0,0,.257-.4c-.035-.028-.071-.055-.108-.081a2.1,2.1,0,0,1-.273.336A3.741,3.741,0,0,0,323.4,46.6" transform="translate(-278.356 -36.513)" fill="#f6b493"/>
        <path id="Trazado_592298" data-name="Trazado 592298" d="M331.08,41.348a.365.365,0,0,0-.071-.259.371.371,0,0,1-.037.179c.037.026.073.053.108.081" transform="translate(-285.162 -35.402)" fill="#f6b493"/>
        <path id="Trazado_592299" data-name="Trazado 592299" d="M331.032,79.989c-.04.032-.082.063-.124.093a1.011,1.011,0,0,1,.059.167.364.364,0,0,0,.065-.26" transform="translate(-285.107 -68.918)" fill="#f6b493"/>
      </g>
    </g>
  </g>
</svg>
