<svg xmlns="http://www.w3.org/2000/svg" xmlns:xlink="http://www.w3.org/1999/xlink" width="112" height="112" viewBox="0 0 112 112">
  <defs>
    <clipPath id="clip-path">
      <rect id="Rectángulo_300786" data-name="Rectángulo 300786" width="70.735" height="73.888" fill="none"/>
    </clipPath>
  </defs>
  <g id="Grupo_886474" data-name="Grupo 886474" transform="translate(8971 8254.252)">
    <circle id="Elipse_6597" data-name="Elipse 6597" cx="56" cy="56" r="56" transform="translate(-8971 -8254.252)" fill="#e1fbff"/>
    <g id="Grupo_886051" data-name="Grupo 886051" transform="translate(-8950 -8239.139)">
      <g id="Grupo_886051-2" data-name="Grupo 886051" clip-path="url(#clip-path)">
        <path id="Trazado_600423" data-name="Trazado 600423" d="M120.4,2.588c.052,1.386.009,2.775.007,4.163a6.726,6.726,0,0,1,3.323-2.137c.036-.03.068-.078.11-.089,1.97-.5,1.97-.5,1.971,1.523,0,1.488.017,2.977-.009,4.464-.01.56.179.754.75.744,1.848-.03,3.7.005,5.544-.02.589-.008.744.182.663.765a7.01,7.01,0,0,1-11.884,4.179c-.148-.148-.3-.292-.45-.438l-.01.006c0,1.022.06,2.048-.017,3.064a3.643,3.643,0,0,0,.739,2.522c.5,0,1.008.008,1.512.008q19.965,0,39.931,0c.284,0,.568.018.853.028a.612.612,0,0,1,.08-.113,3.791,3.791,0,0,1,1.427-.119c1.321-.028,1.848-.525,1.862-1.834.02-1.875.005-3.75.006-5.625,0-3.678-.012-7.356.009-11.034A2.6,2.6,0,0,0,165.917.2c-.065-.046-.046-.131-.048-.2H121.277a2.917,2.917,0,0,0-.88,2.588m42.662-.422a1.121,1.121,0,0,1,1.075,1.048,1.08,1.08,0,1,1-2.159.064,1.117,1.117,0,0,1,1.083-1.112m-3.11,0a1.121,1.121,0,0,1,1.01,1.112,1.08,1.08,0,1,1-2.158-.067,1.116,1.116,0,0,1,1.149-1.045M137.115,15.144c.624-.029,1.248-.027,1.873-.038,0-1.272-.005-2.544,0-3.816.006-.794.4-1.279,1.031-1.3.654-.024,1.118.491,1.127,1.3.014,1.272,0,2.544,0,3.815h1.774q0-4.794,0-9.588a3.54,3.54,0,0,1,.02-.647,1.033,1.033,0,0,1,1.1-.931,1.013,1.013,0,0,1,1.031,1,6.053,6.053,0,0,1,.009.648q0,4.758,0,9.516a6.062,6.062,0,0,0,1.83-.054h0c0-2.494-.012-4.989-.008-7.483,0-.806.389-1.278,1.026-1.3.663-.027,1.125.472,1.129,1.291.014,2.519.008,5.037.009,7.556l1.779-.006c0-1.272-.006-2.545,0-3.817.006-.809.459-1.323,1.12-1.3.634.023,1.037.514,1.041,1.3.007,1.272,0,2.545,0,3.817l1.787,0q.02-3.6.041-7.21a4.837,4.837,0,0,1,.035-.791,1.045,1.045,0,0,1,2.045,0,4.772,4.772,0,0,1,.035.791q.023,3.6.04,7.21l1.787,0c0-.841-.01-1.682,0-2.523a1.083,1.083,0,1,1,2.157,0c.018.841,0,1.682,0,2.523.6.011,1.2.012,1.8.035a1.042,1.042,0,0,1,1.09,1.008,1.072,1.072,0,0,1-.981,1.134,4.471,4.471,0,0,1-.648.018q-12.26,0-24.519,0a3.314,3.314,0,0,1-.718-.034,1.015,1.015,0,0,1-.894-1.127.976.976,0,0,1,1.021-1M127.366,3.189c0-.379.194-.607.586-.536a5.051,5.051,0,0,1,1.858.465,6.989,6.989,0,0,1,4.572,5.928c.028.437-.134.616-.569.611-1.295-.016-2.59-.016-3.885-.022-.646.011-1.293.009-1.939.038-.429.019-.624-.167-.624-.585q0-2.949,0-5.9" transform="translate(-97.163)" fill="#0592fb"/>
        <path id="Trazado_600424" data-name="Trazado 600424" d="M346.049.2a2.6,2.6,0,0,1,.892,2.444c-.021,3.678-.008,7.356-.009,11.034,0,1.875.014,3.75-.006,5.625-.014,1.31-.541,1.807-1.862,1.834a3.8,3.8,0,0,0-1.426.119.61.61,0,0,0-.08.113h.01c.527-.01,1.054-.026,1.581-.028,1.45-.008,2-.554,2.005-1.991,0-5.78-.013-11.56.014-17.341A1.932,1.932,0,0,0,346,0c0,.071-.017.155.048.2" transform="translate(-277.295 0.001)" fill="#0592fb"/>
        <path id="Trazado_600425" data-name="Trazado 600425" d="M90.7.268a2.608,2.608,0,0,0-.738,2.3c.029,1.56.01,3.121.007,4.681a2.636,2.636,0,0,1-.082.855.664.664,0,0,1-.157.228q.012,5.548.024,11.1c0,1.4.542,1.934,1.965,1.931,1.525,0,3.051-.014,4.576-.022a2.317,2.317,0,0,1-.834-1.884,24.954,24.954,0,0,1,.087-3.588.7.7,0,0,1,.123-.114v-.016c-2.161-3.185-2.164-5.8-.011-8.975a.6.6,0,0,1-.122-.134,39.064,39.064,0,0,1-.032-5.257A1.541,1.541,0,0,1,96.54,0H90.768A.272.272,0,0,1,90.7.268" transform="translate(-72.426)" fill="#0181fb"/>
        <path id="Trazado_600426" data-name="Trazado 600426" d="M89.735,2.025c.059,2.059.005,4.121,0,6.182h0q0,.061,0,.123A.668.668,0,0,0,89.89,8.1a2.647,2.647,0,0,0,.082-.855c0-1.561.022-3.122-.007-4.681A2.608,2.608,0,0,1,90.7.268.271.271,0,0,0,90.766,0a2.079,2.079,0,0,0-1.031,2.025" transform="translate(-72.425)" fill="#0181fb"/>
        <path id="Trazado_600427" data-name="Trazado 600427" d="M119.543,84.715c.077-1.016.018-2.042.017-3.064a.7.7,0,0,0-.123.114,24.956,24.956,0,0,0-.086,3.588,2.316,2.316,0,0,0,.834,1.884h.1a3.643,3.643,0,0,1-.739-2.522" transform="translate(-96.312 -65.902)" fill="#0181fb"/>
        <path id="Trazado_600428" data-name="Trazado 600428" d="M119.376,1.366a39.063,39.063,0,0,0,.032,5.257.592.592,0,0,0,.122.134l0-.006h0c0-1.388.045-2.777-.007-4.163A2.916,2.916,0,0,1,120.407,0a1.541,1.541,0,0,0-1.031,1.366" transform="translate(-96.293)" fill="#0181fb"/>
        <path id="Trazado_600429" data-name="Trazado 600429" d="M125.292,171.524h0c-.407.023-.814.067-1.221.067q-24.163,0-48.326,0c-.312,0-.625.01-.937.015l-.007,5.054.715.046h0c.48-.007.961.008,1.439-.026.661-.048.888.241.882.89-.023,2.545-.009,5.09-.009,7.634l1.492,0h0c0-1.313-.006-2.626,0-3.94,0-.906.085-.987.973-.989.334,0,.667.017,1,.026h0c.527-.005,1.055,0,1.582-.019s.72.248.717.748c-.009,1.392,0,2.784,0,4.176h1.477c0-1.85,0-3.7.005-5.549,0-.318-.092-.7.366-.825a15.214,15.214,0,0,1,3.482,0c.457,0,.417.447.417.778q.006,2.8,0,5.6c.572.007,1.144.023,1.716.02a1.174,1.174,0,0,1,1.284.913c.151.637-.228,1.028-.8,1.257-.254.207-.554.115-.833.115-5.04.006-10.08.016-15.119-.01-.631,0-.876.156-.8.8a12.275,12.275,0,0,1,.011,1.367h0c.541.183,1.012.449,1,1.11a1.111,1.111,0,0,1-.854,1.082,4.878,4.878,0,0,0-.144,1.84h0a1.086,1.086,0,0,1,.993,1.059c.021.653-.4.988-.994,1.135a4.877,4.877,0,0,0,.146,1.844h0a1.085,1.085,0,0,1,.86,1.067c.009.687-.517.883-1.014,1.105q0,2.685.005,5.369l.057.044a23.953,23.953,0,0,0,2.991,1.97,1.373,1.373,0,0,1,.575-.019q17.3-.009,34.607,0a1.334,1.334,0,0,1,.581.022l.188-.1a3.34,3.34,0,0,1,1.21-.137c1.873-.017,3.746.034,5.618-.031a.736.736,0,0,1,.122,0c-1.184-1.2-2.358-2.418-3.561-3.6a.988.988,0,0,1-.231-1.333l-2.9-2.9a13.133,13.133,0,0,1-5.642,2.148,12.272,12.272,0,0,1-3.86-24.226,10,10,0,0,1,3.859-.115,12.1,12.1,0,0,1,8.848,5.588c.131.2.26.4.389.6l1.435-1.308h0c-.151-.182-.29-.375-.454-.545-.584-.61-.537-.79.3-1q1.664-.424,3.334-.825c.648-.156.81,0,.652.635q-.432,1.738-.891,3.47c-.183.695-.354.732-.885.234-.189-.178-.394-.34-.592-.509l-2,2.1a11.988,11.988,0,0,1-1.257,10.264c-.123.2-.242.411-.363.616l2.9,2.9a.987.987,0,0,1,1.392.293c.2.239.424.456.636.682l3.29,3.228c-.009-.037-.021-.072-.027-.111-.044-2.332-.1-4.663.028-6.992.051-.108.106-.214.162-.319q0-11.767,0-23.534c0-.312-.01-.624-.016-.936M78.084,189.689q6.48-.008,12.961,0c.8,0,1.333.463,1.337,1.112,0,.634-.521,1.038-1.364,1.048-.168,0-.336,0-.5,0H84.538c-2.16,0-4.32,0-6.48,0-.839,0-1.341-.414-1.34-1.074a1.246,1.246,0,0,1,1.367-1.086m-1.264,4.682a1.088,1.088,0,0,1,1.162-.659c2.211.006,4.422,0,6.633,0q3.172,0,6.345,0c.9,0,1.446.409,1.429,1.057-.019.709-.511,1.106-1.4,1.107q-6.417,0-12.834,0c-1.042,0-1.663-.711-1.34-1.507m14.42,5.513a4.326,4.326,0,0,1-.647.021q-5.98,0-11.96,0a4.826,4.826,0,0,1-1-.1.972.972,0,0,1-.826-1.214.9.9,0,0,1,1.036-.854q3.351.007,6.7,0,3.278,0,6.557,0c.736,0,1.244.391,1.286.967a1.24,1.24,0,0,1-1.149,1.174" transform="translate(-60.354 -138.441)" fill="#e9f5fe"/>
        <path id="Trazado_600430" data-name="Trazado 600430" d="M283.123,355.588c-1.871.065-3.745.014-5.618.031a3.337,3.337,0,0,0-1.21.137l-.188.1a.423.423,0,0,1,.157.128,1.491,1.491,0,0,1,.839-.145q2.668,0,5.336,0a1.636,1.636,0,0,0,.91-.15l-.1-.106a.756.756,0,0,0-.121,0" transform="translate(-222.853 -287.001)" fill="#e9f5fe"/>
        <path id="Trazado_600431" data-name="Trazado 600431" d="M335.6,298.716c-.129,2.329-.072,4.66-.028,6.992.006.039.018.074.027.111l.147.145q.008-3.7.015-7.392V298.4c-.056.105-.11.212-.162.319" transform="translate(-270.807 -240.843)" fill="#e9f5fe"/>
        <path id="Trazado_600432" data-name="Trazado 600432" d="M77.939,348.549a23.95,23.95,0,0,1-2.991-1.97l-.057-.044c0,.042,0,.085,0,.127a15.984,15.984,0,0,0,2.885,2.019.427.427,0,0,1,.162-.132" transform="translate(-60.447 -279.697)" fill="#e9f5fe"/>
        <path id="Trazado_600433" data-name="Trazado 600433" d="M65.711,56.873q-16.856.011-33.713.006-3.025,0-6.051,0a2.9,2.9,0,0,1-1.068-.109c-.046-.034-.087-.071-.131-.107a1.078,1.078,0,0,1-.823.206c-1.3.012-2.6.025-3.894,0a1.886,1.886,0,0,1-2.1-2.166c-.013-3.413-.006-6.827,0-10.24a2.094,2.094,0,0,1,.084-.745c-.115.081-.246.145-.365.221A35.114,35.114,0,0,0,1.3,69.54a33.906,33.906,0,0,0-.28,4.45A35.083,35.083,0,0,0,7.906,94.7q0-12.708,0-25.417c0-.312.008-.625.013-.937h0c0-1.922-.017-3.845-.009-5.767a1.388,1.388,0,0,1,1.446-1.455c2.21-.008,4.421.011,6.631.019.48,0,.961-.014,1.441-.014h46.3c1.627,0,2.05.422,2.048,2.046q0,2.558-.015,5.117l.036.009a1.392,1.392,0,0,1,.212.963q.009,11.317,0,22.634a2.968,2.968,0,0,1-.058.619c.31-.539.656-1.058.956-1.6a35.414,35.414,0,0,0,.419-33.479c-.117-.232-.4-.466-.25-.768a2.029,2.029,0,0,1-1.37.208" transform="translate(-0.824 -35.283)" fill="#fdd1a3"/>
        <path id="Trazado_600434" data-name="Trazado 600434" d="M338.322,111.585a35.414,35.414,0,0,1-.419,33.479c-.3.546-.646,1.064-.956,1.6a1.848,1.848,0,0,1-.178.5c.175-.063.239-.223.329-.364a33.115,33.115,0,0,0,2.5-4.7,35.642,35.642,0,0,0,2.945-13.379,35.694,35.694,0,0,0-4.45-17.918l-.017.011c-.155.3.133.536.25.768" transform="translate(-271.815 -89.433)" fill="#fdd1a3"/>
        <path id="Trazado_600435" data-name="Trazado 600435" d="M3.095,86.849a35.746,35.746,0,0,1-2.9-13.8,33.9,33.9,0,0,1,.28-4.45A35.114,35.114,0,0,1,16.822,43c.119-.075.249-.139.365-.221a.936.936,0,0,1,.121-.224,27.834,27.834,0,0,0-6,4.416A35.435,35.435,0,0,0,.333,77.7,34.275,34.275,0,0,0,4.776,90.589a17.024,17.024,0,0,0,2.306,3.364v-.192a35.6,35.6,0,0,1-3.987-6.912" transform="translate(0 -34.345)" fill="#fdd1a3"/>
        <path id="Trazado_600436" data-name="Trazado 600436" d="M124.174,110.763a2.9,2.9,0,0,0,1.068.109q3.026,0,6.051,0,16.856,0,33.713-.006a2.027,2.027,0,0,0,1.37-.208l.007-.012c-.284-.01-.569-.028-.853-.028q-19.965,0-39.931,0c-.5,0-1.008-.005-1.512-.008-.014.017-.03.029-.044.044.043.036.084.073.131.107" transform="translate(-100.118 -89.278)" fill="#fdd1a3"/>
        <path id="Trazado_600437" data-name="Trazado 600437" d="M343.53,110.8l-.007.012.017-.011h-.01" transform="translate(-277.266 -89.431)" fill="#fdd1a3"/>
        <path id="Trazado_600438" data-name="Trazado 600438" d="M88.65,44.034c0,3.414-.01,6.827,0,10.24a1.886,1.886,0,0,0,2.1,2.166c1.3.027,2.6.014,3.894,0a1.078,1.078,0,0,0,.823-.206l-.053-.043c-1.525.008-3.051.019-4.576.022-1.423,0-1.962-.533-1.965-1.931q-.011-5.548-.024-11.1a1,1,0,0,1-.121.1,2.094,2.094,0,0,0-.084.745" transform="translate(-71.548 -34.857)" fill="#fdd1a3"/>
        <path id="Trazado_600439" data-name="Trazado 600439" d="M89.227,42.675c0-.041,0-.082,0-.123h0a.943.943,0,0,0-.121.224,1,1,0,0,0,.121-.1" transform="translate(-71.92 -34.345)" fill="#fdd1a3"/>
        <path id="Trazado_600440" data-name="Trazado 600440" d="M123.866,110.612h-.1l.053.043c.015-.015.03-.027.044-.044" transform="translate(-99.897 -89.278)" fill="#fdd1a3"/>
        <path id="Trazado_600441" data-name="Trazado 600441" d="M336.931,172.106a1.392,1.392,0,0,0-.212-.963l-.036-.01c0,.025,0,.05,0,.075h0c.005.312.015.624.015.936q0,11.767,0,23.534.086-.162.178-.32a2.965,2.965,0,0,0,.058-.619q0-11.317,0-22.635" transform="translate(-271.744 -138.126)" fill="#fdd1a3"/>
        <path id="Trazado_600442" data-name="Trazado 600442" d="M336.771,297.058v.176a1.857,1.857,0,0,0,.178-.5c-.061.106-.12.212-.178.32" transform="translate(-271.816 -239.504)" fill="#fdd1a3"/>
        <path id="Trazado_600443" data-name="Trazado 600443" d="M44.177,200.063a.661.661,0,0,1,.091-.244,12.678,12.678,0,0,1-2.4-.1.935.935,0,0,1-.818-1.132.908.908,0,0,1,1.032-.931c.761.018,1.524,0,2.286,0a2.589,2.589,0,0,1-.129-1.738.466.466,0,0,1,.059-.108c-.668,0-1.336,0-2-.015-.813-.016-1.27-.441-1.249-1.141.022-.721.38-1.014,1.25-1.021l2-.015a.465.465,0,0,1-.049-.089,2.607,2.607,0,0,1,.113-1.742l.01-.01c-.739,0-1.478,0-2.217-.015s-1.1-.36-1.115-1.021a1.059,1.059,0,0,1,1.113-1.132c.714-.03,1.43-.019,2.146-.024a.606.606,0,0,1-.1-.243c-.145-1.407-.161-1.881.506-2.039H42.384c-.911,0-1.29-.273-1.346-.943a1.054,1.054,0,0,1,1.048-1.2,10.792,10.792,0,0,1,1.079-.033h0q0-3.636.009-7.273c0-1.183,0-1.207,1.124-1.268a1.334,1.334,0,0,1-.158-.743q-.015-1.755,0-3.51a1.245,1.245,0,0,1,.2-.819c.011-.007.022-.011.032-.018a.575.575,0,0,0-.009-.073H37.223c0,.014,0,.028,0,.041.049.72.021,1.44.021,2.159q0,11.518,0,23.037a2,2,0,0,1-.165,1.214,31.42,31.42,0,0,0,4.953,5.419c.707.631,1.444,1.219,2.195,1.793a1.154,1.154,0,0,1-.072-.427c0-1.53-.051-3.06.026-4.588" transform="translate(-29.924 -138.353)" fill="#d7ebfd"/>
        <path id="Trazado_600444" data-name="Trazado 600444" d="M41.738,313.974a31.423,31.423,0,0,1-4.953-5.419.908.908,0,0,1-.069.095.9.9,0,0,0,.085.269,35.86,35.86,0,0,0,5.668,5.941,5.736,5.736,0,0,0,1.61,1.147.8.8,0,0,1-.147-.24c-.75-.574-1.487-1.162-2.195-1.793" transform="translate(-29.634 -249.042)" fill="#d7ebfd"/>
        <path id="Trazado_600445" data-name="Trazado 600445" d="M73.634,255.8a.609.609,0,0,0,.1.243h.076a12.275,12.275,0,0,0-.011-1.367c-.073-.645.171-.8.8-.8,5.04.025,10.079.016,15.119.01.279,0,.579.092.833-.115l-16.415-.008c-.668.158-.652.632-.506,2.039" transform="translate(-59.366 -204.817)" fill="#d7ebfd"/>
        <path id="Trazado_600446" data-name="Trazado 600446" d="M73.883,171.816a1.245,1.245,0,0,0-.2.819q-.015,1.755,0,3.51a1.334,1.334,0,0,0,.158.743l.071,0,.007-5.054c0-.011,0-.021,0-.032-.011.007-.022.011-.032.018" transform="translate(-59.466 -138.662)" fill="#d7ebfd"/>
        <path id="Trazado_600447" data-name="Trazado 600447" d="M73.855,297.978a2.591,2.591,0,0,0,.129,1.738h.151a4.882,4.882,0,0,1-.146-1.844h-.075a.47.47,0,0,0-.059.108" transform="translate(-59.541 -240.418)" fill="#d7ebfd"/>
        <path id="Trazado_600448" data-name="Trazado 600448" d="M73.974,276.965a2.607,2.607,0,0,0-.113,1.742.5.5,0,0,0,.049.089h.078a4.879,4.879,0,0,1,.144-1.84h-.148l-.01.01" transform="translate(-59.539 -223.537)" fill="#d7ebfd"/>
        <path id="Trazado_600449" data-name="Trazado 600449" d="M73.81,318.68a.667.667,0,0,0-.091.244c-.077,1.528-.025,3.058-.026,4.589a1.15,1.15,0,0,0,.072.427l.146.113q0-2.685-.005-5.369l-.1,0" transform="translate(-59.466 -257.214)" fill="#d7ebfd"/>
        <path id="Trazado_600450" data-name="Trazado 600450" d="M74.279,346.064l-.146-.113a.8.8,0,0,0,.147.24c0-.042,0-.085,0-.127" transform="translate(-59.835 -279.225)" fill="#d7ebfd"/>
        <path id="Trazado_600451" data-name="Trazado 600451" d="M36.951,196.651q.011-11.518,0-23.037c0-.72.028-1.44-.021-2.159,0-.014,0-.028,0-.041h-.2c0,.312-.013.625-.013.937q0,12.709,0,25.417l.042.059.027.037a2,2,0,0,0,.165-1.214" transform="translate(-29.635 -138.352)" fill="#d7ebfd"/>
        <path id="Trazado_600452" data-name="Trazado 600452" d="M36.759,308.113l-.042-.059v.192a.937.937,0,0,0,.069-.095l-.027-.038" transform="translate(-29.635 -248.638)" fill="#d7ebfd"/>
        <path id="Trazado_600453" data-name="Trazado 600453" d="M124.03,357.948q-14.123.007-28.246,0c-1.13,0-2.262.047-3.391-.042a36.754,36.754,0,0,0,8.073,3.346,37.354,37.354,0,0,0,6.8,1.194,35.176,35.176,0,0,0,16.021-2.5,40.881,40.881,0,0,0,4.2-2.042c-1.154.091-2.31.041-3.466.042" transform="translate(-74.573 -288.875)" fill="#fdd1a3"/>
        <path id="Trazado_600454" data-name="Trazado 600454" d="M121.238,359.75a35.176,35.176,0,0,1-16.021,2.5,37.354,37.354,0,0,1-6.8-1.194,36.74,36.74,0,0,1-8.073-3.346q-.246-.019-.491-.048a38.189,38.189,0,0,0,6.19,2.862,35.148,35.148,0,0,0,14.47,1.929,37.418,37.418,0,0,0,8.212-1.587,39.137,39.137,0,0,0,7.21-3.2h0c-.163.019-.325.035-.488.047a40.874,40.874,0,0,1-4.2,2.042" transform="translate(-72.519 -288.677)" fill="#fdd1a3"/>
        <path id="Trazado_600455" data-name="Trazado 600455" d="M125.874,356.784q-17.3-.009-34.607,0a1.371,1.371,0,0,0-.575.019l.041.022c.1.054.192.1.287.157,1.129.089,2.261.041,3.391.042q14.123.007,28.246,0c1.155,0,2.312.049,3.466-.042l.331-.176a1.331,1.331,0,0,0-.581-.022" transform="translate(-73.2 -287.951)" fill="#fdd1a3"/>
        <path id="Trazado_600456" data-name="Trazado 600456" d="M90.052,357l-.041-.022a.427.427,0,0,0-.163.132c.164.019.327.035.491.048-.1-.053-.192-.1-.287-.157" transform="translate(-72.519 -288.125)" fill="#fdd1a3"/>
        <path id="Trazado_600457" data-name="Trazado 600457" d="M274.721,356.995l-.331.176q.244-.019.488-.047a.427.427,0,0,0-.157-.128" transform="translate(-221.467 -288.139)" fill="#fdd1a3"/>
        <path id="Trazado_600458" data-name="Trazado 600458" d="M297.245,317.629c.4-.422.936-.735,1.175-1.3l-.046-.046a5.034,5.034,0,0,1-.446-.459,1.351,1.351,0,0,0-1.5-.541c-.011-.006-.021-.014-.032-.02q-1.317,1.446-2.762,2.764l.021.029a1.471,1.471,0,0,0,.553,1.518c.973.924,1.909,1.885,2.85,2.841.175.177.417.329.42.615a1.362,1.362,0,0,1,.63.418c.36.347.7.717,1.067,1.054a2.608,2.608,0,0,0,3.2.358q-2.554-2.587-5.109-5.173c-.887-.9-.874-1.157-.02-2.062" transform="translate(-236.977 -254.433)" fill="#314dc8"/>
        <path id="Trazado_600459" data-name="Trazado 600459" d="M315.353,357.142c-.369-.338-.707-.707-1.068-1.054a1.361,1.361,0,0,0-.63-.418.522.522,0,0,1,0,.091c.534.515,1.063,1.035,1.6,1.543a2.719,2.719,0,0,0,3.427.328l-.13-.131a2.609,2.609,0,0,1-3.2-.358" transform="translate(-253.155 -287.07)" fill="#314dc8"/>
        <path id="Trazado_600460" data-name="Trazado 600460" d="M296.244,334.119c-.941-.956-1.877-1.918-2.85-2.841a1.471,1.471,0,0,1-.553-1.518l-.021-.029-.056.052a.988.988,0,0,0,.231,1.333c1.2,1.184,2.377,2.4,3.561,3.6a.713.713,0,0,1,.108.015c0-.286-.246-.437-.42-.614" transform="translate(-236.165 -266.134)" fill="#314dc8"/>
        <path id="Trazado_600461" data-name="Trazado 600461" d="M308.1,314.449a1.351,1.351,0,0,1,1.5.541,5.023,5.023,0,0,0,.446.459l.046.046a1.447,1.447,0,0,0,.059-.15c-.213-.227-.438-.443-.636-.682a.987.987,0,0,0-1.392-.293l-.055.06.032.019" transform="translate(-248.646 -253.596)" fill="#314dc8"/>
        <path id="Trazado_600462" data-name="Trazado 600462" d="M313.112,355.592l.1.106a.509.509,0,0,0,0-.091.691.691,0,0,0-.108-.015" transform="translate(-252.72 -287.007)" fill="#314dc8"/>
        <path id="Trazado_600463" data-name="Trazado 600463" d="M314.6,324.188c-.9-.885-1.784-1.783-2.683-2.669a.89.89,0,0,1-.28.419c-.307.334-.642.643-.958.97-.649.674-.662.966-.01,1.627,1.58,1.6,3.18,3.179,4.762,4.777.16.161.383.3.445.528a2.6,2.6,0,0,0,.24-4.11,3.716,3.716,0,0,1-.926-1.107c-.267-.034-.416-.263-.591-.435" transform="translate(-250.36 -259.506)" fill="#4f66cf"/>
        <path id="Trazado_600464" data-name="Trazado 600464" d="M336.132,337.61a3.719,3.719,0,0,0,.926,1.107,2.6,2.6,0,0,1-.24,4.11.508.508,0,0,1,.009.228,2.759,2.759,0,0,0,.4-4.4c-.332-.345-.661-.694-.991-1.042a.551.551,0,0,1-.108,0" transform="translate(-271.3 -272.493)" fill="#4f66cf"/>
        <path id="Trazado_600465" data-name="Trazado 600465" d="M318.924,320.411c.9.885,1.783,1.784,2.683,2.669.175.172.324.4.591.435a1.287,1.287,0,0,1-.04-.141l-3.29-3.228a.4.4,0,0,1,.056.265" transform="translate(-257.366 -258.398)" fill="#4f66cf"/>
        <path id="Trazado_600466" data-name="Trazado 600466" d="M335.966,337.021a.551.551,0,0,0,.108,0l-.148-.145a1.229,1.229,0,0,0,.04.141" transform="translate(-271.134 -271.904)" fill="#4f66cf"/>
        <path id="Trazado_600467" data-name="Trazado 600467" d="M314.582,328.832c-1.582-1.6-3.182-3.177-4.762-4.777-.652-.661-.639-.953.01-1.627.315-.327.65-.635.958-.97a.889.889,0,0,0,.279-.419l-.115-.115c-.239.562-.776.875-1.175,1.3-.855.9-.867,1.166.02,2.062q2.558,2.584,5.11,5.173l.021-.011c.035-.028.066-.057.1-.086-.062-.23-.285-.366-.445-.528" transform="translate(-249.51 -259.025)" fill="#4f66cf"/>
        <path id="Trazado_600468" data-name="Trazado 600468" d="M339.183,364.659c-.034.028-.064.057-.1.085l-.021.011.13.131a.509.509,0,0,0-.009-.228" transform="translate(-273.665 -294.325)" fill="#4f66cf"/>
        <path id="Trazado_600469" data-name="Trazado 600469" d="M318.675,320.411a.4.4,0,0,0-.056-.265,1.447,1.447,0,0,1-.059.15l.115.115" transform="translate(-257.117 -258.398)" fill="#4f66cf"/>
        <path id="Trazado_600470" data-name="Trazado 600470" d="M134.493,35.347a8.673,8.673,0,0,0,2.675.078c.073-.072.145-.146.214-.223a6.485,6.485,0,0,0,2-3.812c.108-.74.035-.833-.734-.84-1.631-.015-3.262,0-4.893-.007-1.087-.005-1.293-.208-1.3-1.314-.015-1.487,0-2.974,0-4.461,0-1.184-.071-1.241-1.237-1.042-.142.024-.284.046-.425.074-.065.018-.128.04-.192.06a9.215,9.215,0,0,1-.928,1.586,7.006,7.006,0,0,0,4.823,9.9" transform="translate(-104.073 -19.078)" fill="#fed05b"/>
        <path id="Trazado_600471" data-name="Trazado 600471" d="M137.712,22.492c.14-.028.283-.05.425-.074,1.166-.2,1.235-.142,1.237,1.042,0,1.487-.01,2.974,0,4.461.011,1.107.217,1.309,1.3,1.314,1.631.008,3.262-.008,4.893.007.769.007.842.1.734.84a6.485,6.485,0,0,1-2,3.812c-.069.077-.141.151-.214.223l.3-.022a6.875,6.875,0,0,0,2.193-4.324c.081-.582-.073-.773-.663-.765-1.848.026-3.7-.01-5.544.02-.571.009-.76-.184-.75-.744.026-1.488.009-2.976.009-4.465,0-2.026,0-2.026-1.971-1.522-.041.011-.073.058-.11.089a1.488,1.488,0,0,1-.04.166c.064-.02.126-.042.192-.06" transform="translate(-110.996 -17.771)" fill="#fed05b"/>
        <path id="Trazado_600472" data-name="Trazado 600472" d="M202.721,80.254a3.326,3.326,0,0,0,.718.034q12.26,0,24.519,0a4.473,4.473,0,0,0,.648-.018,1.072,1.072,0,0,0,.981-1.134,1.042,1.042,0,0,0-1.09-1.008c-.6-.023-1.2-.024-1.8-.035h-2.165l-1.787,0h-2.2l-1.787,0H216.6l-1.779.006a8.04,8.04,0,0,1-2.156-.06h0a6.069,6.069,0,0,1-1.83.054h-6.108c-.624.011-1.249.009-1.873.038a.976.976,0,0,0-1.021,1,1.015,1.015,0,0,0,.894,1.126" transform="translate(-162.897 -62.988)" fill="#fefefe"/>
        <path id="Trazado_600473" data-name="Trazado 600473" d="M115.24,36.233a7.3,7.3,0,0,0,1.722,1.29,6.815,6.815,0,0,0,7.411-.9,6.471,6.471,0,0,1-5.808-1.612,6.77,6.77,0,0,1-2.516-5.215,6.918,6.918,0,0,1,1.7-4.777,7.658,7.658,0,0,0-2.669,1.683c-.132.119-.263.4-.467.254.134.3-.121.478-.247.682a6.723,6.723,0,0,0-.035,7.512c.143.236.378.448.285.775l.01.009c.275-.182.455.139.617.3" transform="translate(-91.366 -20.195)" fill="#fec244"/>
        <path id="Trazado_600474" data-name="Trazado 600474" d="M120.5,26.074c.2.148.335-.135.467-.254a7.657,7.657,0,0,1,2.669-1.683c.06-.071.12-.142.182-.211a6.727,6.727,0,0,0-3.323,2.136s0,.008,0,.012" transform="translate(-97.257 -19.311)" fill="#fec244"/>
        <path id="Trazado_600475" data-name="Trazado 600475" d="M122.922,82.976a7.3,7.3,0,0,1-1.722-1.29c-.161-.156-.342-.478-.617-.3.15.146.3.29.45.438a6.934,6.934,0,0,0,9.691.145c-.132.04-.262.073-.391.1a6.816,6.816,0,0,1-7.411.9" transform="translate(-97.325 -65.649)" fill="#fec244"/>
        <path id="Trazado_600476" data-name="Trazado 600476" d="M113.454,43.234a6.723,6.723,0,0,1,.036-7.512c.126-.2.381-.38.247-.682l-.008-.006c-2.154,3.171-2.151,5.79.01,8.975.093-.327-.142-.539-.285-.775" transform="translate(-90.491 -28.277)" fill="#fec244"/>
        <path id="Trazado_600477" data-name="Trazado 600477" d="M120.483,35h0l0,.006.008.006s0-.008,0-.012" transform="translate(-97.241 -28.253)" fill="#fec244"/>
        <path id="Trazado_600478" data-name="Trazado 600478" d="M133.694,36.278a7.006,7.006,0,0,1-4.823-9.9,9.215,9.215,0,0,0,.928-1.586c-.048.015-.1.029-.142.044a6.92,6.92,0,0,0-1.7,4.777,6.77,6.77,0,0,0,2.516,5.214,6.471,6.471,0,0,0,5.809,1.612c.029-.027.058-.054.087-.082a8.673,8.673,0,0,1-2.675-.078" transform="translate(-103.274 -20.009)" fill="#fec244"/>
        <path id="Trazado_600479" data-name="Trazado 600479" d="M171.222,84.665c-.028.028-.058.055-.087.082.129-.031.26-.064.391-.1l-.3.022" transform="translate(-138.127 -68.317)" fill="#fec244"/>
        <path id="Trazado_600480" data-name="Trazado 600480" d="M136.924,24.093a1.485,1.485,0,0,0,.04-.167c-.062.07-.122.14-.182.211.047-.016.095-.03.143-.045" transform="translate(-110.399 -19.311)" fill="#fec244"/>
        <path id="Trazado_600481" data-name="Trazado 600481" d="M239.437,31.59q0-4.758,0-9.516a6.049,6.049,0,0,0-.009-.648,1.013,1.013,0,0,0-1.031-1,1.033,1.033,0,0,0-1.1.931,3.54,3.54,0,0,0-.02.647q0,4.794,0,9.588a3.019,3.019,0,0,1,2.168,0" transform="translate(-191.505 -16.484)" fill="#7fd161"/>
        <path id="Trazado_600482" data-name="Trazado 600482" d="M239.444,77.478a3.019,3.019,0,0,0-2.168,0h2.168" transform="translate(-191.511 -62.372)" fill="#7fd161"/>
        <path id="Trazado_600483" data-name="Trazado 600483" d="M169.3,22.684h0c1.3.006,2.59.006,3.885.022.435.005.6-.174.569-.611a6.988,6.988,0,0,0-4.572-5.928q-.009,2.948-.02,5.9a1.07,1.07,0,0,0,.137.62" transform="translate(-136.532 -13.049)" fill="#7fd161"/>
        <path id="Trazado_600484" data-name="Trazado 600484" d="M260.124,41.325c0-2.519,0-5.037-.009-7.556,0-.819-.467-1.318-1.13-1.291-.637.026-1.025.5-1.026,1.3,0,2.494,0,4.989.008,7.483h0a3.65,3.65,0,0,1,2.156.06" transform="translate(-208.204 -26.214)" fill="#fdd05b"/>
        <path id="Trazado_600485" data-name="Trazado 600485" d="M260.165,77.542a3.65,3.65,0,0,0-2.156-.06,8.041,8.041,0,0,0,2.156.06" transform="translate(-208.245 -62.43)" fill="#fdd05b"/>
        <path id="Trazado_600486" data-name="Trazado 600486" d="M301.1,41.373q-.02-3.6-.04-7.21a4.774,4.774,0,0,0-.035-.791,1.045,1.045,0,0,0-2.045,0,4.838,4.838,0,0,0-.035.791q-.023,3.6-.041,7.21h0a3.217,3.217,0,0,1,2.2,0" transform="translate(-241.249 -26.265)" fill="#7fd162"/>
        <path id="Trazado_600487" data-name="Trazado 600487" d="M301.1,77.522a3.217,3.217,0,0,0-2.2,0h2.2" transform="translate(-241.249 -62.414)" fill="#7fd162"/>
        <path id="Trazado_600488" data-name="Trazado 600488" d="M157.2,20.724c.646-.029,1.293-.027,1.939-.038h0c-.338-.168-.353-.489-.357-.8q-.03-2.5,0-5a.854.854,0,0,1,.241-.719,5.049,5.049,0,0,0-1.858-.465c-.392-.071-.585.157-.586.536q-.006,2.949,0,5.9c0,.418.2.6.624.585" transform="translate(-126.378 -11.051)" fill="#67c944"/>
        <path id="Trazado_600489" data-name="Trazado 600489" d="M167.958,16.886q-.026,2.5,0,5c0,.309.019.631.357.8a1.072,1.072,0,0,1-.137-.62q.014-2.948.02-5.9a.853.853,0,0,0-.241.719" transform="translate(-135.552 -13.049)" fill="#67c944"/>
        <path id="Trazado_600490" data-name="Trazado 600490" d="M280.567,56.906c0-1.272,0-2.545,0-3.817,0-.784-.406-1.276-1.041-1.3-.66-.024-1.114.49-1.12,1.3-.009,1.272,0,2.545,0,3.817a3.023,3.023,0,0,1,2.165,0" transform="translate(-224.703 -41.801)" fill="#fd9801"/>
        <path id="Trazado_600491" data-name="Trazado 600491" d="M280.576,77.479a3.023,3.023,0,0,0-2.165,0h2.165" transform="translate(-224.712 -62.374)" fill="#fd9801"/>
        <path id="Trazado_600492" data-name="Trazado 600492" d="M219.009,56.9c0-1.272.009-2.544,0-3.816-.009-.81-.473-1.325-1.127-1.3-.631.023-1.026.507-1.031,1.3-.009,1.272,0,2.544,0,3.816a3,3,0,0,1,2.166,0" transform="translate(-175.018 -41.797)" fill="#fc9802"/>
        <path id="Trazado_600493" data-name="Trazado 600493" d="M219.014,77.471a3,3,0,0,0-2.166,0h2.166" transform="translate(-175.023 -62.366)" fill="#fc9802"/>
        <path id="Trazado_600494" data-name="Trazado 600494" d="M321.7,62.819c0-.841.013-1.682,0-2.523a1.083,1.083,0,1,0-2.157,0c-.013.841,0,1.682,0,2.523a3.017,3.017,0,0,1,2.165,0" transform="translate(-257.904 -47.713)" fill="#fd646f"/>
        <path id="Trazado_600495" data-name="Trazado 600495" d="M321.716,77.479a3.017,3.017,0,0,0-2.165,0h2.165" transform="translate(-257.917 -62.373)" fill="#fd646f"/>
        <path id="Trazado_600496" data-name="Trazado 600496" d="M320.581,13.391a1.081,1.081,0,1,0-1.01-1.112,1.116,1.116,0,0,0,1.01,1.112" transform="translate(-257.933 -9.066)" fill="#0172fa"/>
        <path id="Trazado_600497" data-name="Trazado 600497" d="M337.106,13.395a1.08,1.08,0,1,0-1.076-1.048,1.116,1.116,0,0,0,1.076,1.048" transform="translate(-271.218 -9.067)" fill="#0172fa"/>
        <path id="Trazado_600498" data-name="Trazado 600498" d="M74.821,138.166c-.01,1.3-.005,2.594-.007,3.891a.224.224,0,0,1,.013.076,2.49,2.49,0,0,1,1.368-.172q23.684-.008,47.367,0a6.278,6.278,0,0,1,1.692.026,1.82,1.82,0,0,1-.158-.947c-.005-1.442.011-2.884-.007-4.325-.014-1.123-.506-1.608-1.635-1.648-.312-.011-.625,0-.937,0H76.531a7.806,7.806,0,0,1-.936-.019l-.227,0c-.745.917-.539,2.042-.548,3.118m45.65-.878a1.081,1.081,0,1,1-1.058,1.067,1.1,1.1,0,0,1,1.058-1.067m-4.231,1.021a1.08,1.08,0,1,1,1.057,1.14,1.1,1.1,0,0,1-1.057-1.14m-2.078-1.021a1.081,1.081,0,1,1-1.1,1.1,1.095,1.095,0,0,1,1.1-1.1" transform="translate(-60.374 -109)" fill="#0592fb"/>
        <path id="Trazado_600499" data-name="Trazado 600499" d="M123.669,170.709q-23.684-.015-47.367,0a2.493,2.493,0,0,0-1.368.172.283.283,0,0,1,0,.034c.312-.005.625-.015.937-.015q24.163,0,48.326,0c.407,0,.814-.043,1.221-.067a.942.942,0,0,1-.058-.091,6.276,6.276,0,0,0-1.692-.026" transform="translate(-60.481 -137.744)" fill="#0592fb"/>
        <path id="Trazado_600500" data-name="Trazado 600500" d="M77.97,134.2a7.806,7.806,0,0,0,.936.019h45.986c.312,0,.625-.006.937,0,1.129.04,1.622.525,1.635,1.648.017,1.442,0,2.883.007,4.325a1.82,1.82,0,0,0,.158.947l.058.015q.008-2.559.015-5.117c0-1.624-.422-2.046-2.048-2.046h-46.3c-.48,0-.961.009-1.441.014a2.473,2.473,0,0,0-.171.191l.227,0" transform="translate(-62.748 -108.149)" fill="#0592fb"/>
        <path id="Trazado_600501" data-name="Trazado 600501" d="M336.44,171.144h0c0-.025,0-.05,0-.075l-.058-.015a.919.919,0,0,0,.058.091" transform="translate(-271.502 -138.061)" fill="#0592fb"/>
        <path id="Trazado_600502" data-name="Trazado 600502" d="M74.87,171.4v.005a.515.515,0,0,1,.009.073l0,0a.224.224,0,0,0-.012-.076" transform="translate(-60.429 -138.337)" fill="#0592fb"/>
        <path id="Trazado_600503" data-name="Trazado 600503" d="M74.916,171.791c0,.011,0,.021,0,.032a.28.28,0,0,0,0-.034l0,0" transform="translate(-60.467 -138.655)" fill="#0592fb"/>
        <path id="Trazado_600504" data-name="Trazado 600504" d="M183.668,218.325a1.288,1.288,0,0,1-.084-.414,9.163,9.163,0,0,1,0-11.115,2.2,2.2,0,0,1,.579-1.2,12.5,12.5,0,0,1,7.711-5.272,12.1,12.1,0,0,0-3.256,23.951,9.55,9.55,0,0,0,3.27.133,21.027,21.027,0,0,1-3.265-1.218,12.974,12.974,0,0,1-4.952-4.86" transform="translate(-144.172 -161.628)" fill="#fc4755"/>
        <path id="Trazado_600505" data-name="Trazado 600505" d="M187.769,223.4a12.1,12.1,0,0,1,3.256-23.951l.035-.009a2.37,2.37,0,0,0,.323-.125,10,10,0,0,0-3.859.115,12.272,12.272,0,0,0,3.86,24.226c-.114-.043-.23-.083-.345-.124a9.55,9.55,0,0,1-3.27-.133" transform="translate(-143.326 -160.76)" fill="#fc4755"/>
        <path id="Trazado_600506" data-name="Trazado 600506" d="M222.5,254.971a.833.833,0,0,1-.017-.2,15.338,15.338,0,0,1,.89-1.727,12.416,12.416,0,0,0,.716-8.855.6.6,0,0,1,0-.081c-.911.866-1.818,1.736-2.652,2.679h0a8.236,8.236,0,0,1-2.083,6.792,8.892,8.892,0,0,1-13.7-.034,10.554,10.554,0,0,0,2.994,3.619,11.17,11.17,0,0,0,4.6,2.3c.248.061.57.04.729.288l.03-.006a12.585,12.585,0,0,0,5.08-1.825,1.375,1.375,0,0,1,.522-.224.478.478,0,0,1,.17.009,17.582,17.582,0,0,0,2.728-2.733" transform="translate(-165.989 -197.027)" fill="#fd646f"/>
        <path id="Trazado_600507" data-name="Trazado 600507" d="M254.421,314.531a1.376,1.376,0,0,0-.522.224,12.584,12.584,0,0,1-5.08,1.825l-.03.006a.551.551,0,0,1,.073.176,13.134,13.134,0,0,0,5.642-2.149c.03-.023.057-.049.086-.073a.473.473,0,0,0-.17-.009" transform="translate(-200.804 -253.863)" fill="#fd646f"/>
        <path id="Trazado_600508" data-name="Trazado 600508" d="M294.525,243.73a.641.641,0,0,0,0,.081,12.417,12.417,0,0,1-.715,8.855,15.327,15.327,0,0,0-.89,1.727.833.833,0,0,0,.017.2c.019-.024.04-.047.06-.071.121-.206.24-.412.363-.616a11.989,11.989,0,0,0,1.257-10.264h0l-.1.091" transform="translate(-236.426 -196.647)" fill="#fd646f"/>
        <path id="Trazado_600509" data-name="Trazado 600509" d="M212.183,297.962a11.17,11.17,0,0,1-4.6-2.3,10.553,10.553,0,0,1-2.994-3.619c-.03-.034-.062-.066-.091-.1a.231.231,0,1,0-.079.278,12.972,12.972,0,0,0,4.952,4.86,21.008,21.008,0,0,0,3.265,1.218c.091-.016.182-.031.273-.052-.159-.247-.481-.227-.729-.288" transform="translate(-164.926 -235.527)" fill="#fd646f"/>
        <path id="Trazado_600510" data-name="Trazado 600510" d="M247.375,325.25c.116.04.231.08.345.123a.559.559,0,0,0-.073-.175c-.091.021-.182.036-.273.052" transform="translate(-199.662 -262.475)" fill="#fd646f"/>
        <path id="Trazado_600511" data-name="Trazado 600511" d="M213.209,201.033a12.27,12.27,0,0,0-7.4,5.553,2.651,2.651,0,0,0-.179.344,9.207,9.207,0,0,1,5.454-3.046,9.033,9.033,0,0,1,9.434,4.774c.1.192.2.381.3.571a31.107,31.107,0,0,0,2.4-2.4,10.683,10.683,0,0,1-1.425-1.819,12.09,12.09,0,0,0-7.816-4.246l-.027,0c-.167.245-.5.2-.743.268" transform="translate(-165.969 -162.042)" fill="#fd646f"/>
        <path id="Trazado_600512" data-name="Trazado 600512" d="M248.806,200.077a12.092,12.092,0,0,1,7.816,4.246,10.681,10.681,0,0,0,1.425,1.819l.043-.047c-.13-.2-.259-.4-.389-.6a12.1,12.1,0,0,0-8.848-5.588.533.533,0,0,1-.074.165l.028,0" transform="translate(-200.795 -161.351)" fill="#fd646f"/>
        <path id="Trazado_600513" data-name="Trazado 600513" d="M204.9,205.875a2.2,2.2,0,0,0-.579,1.2c.083-.1.167-.189.252-.281a2.68,2.68,0,0,1,.179-.344,12.27,12.27,0,0,1,7.4-5.553c.246-.068.576-.022.743-.268-.095-.013-.189-.021-.284-.031a12.5,12.5,0,0,0-7.711,5.272" transform="translate(-164.916 -161.911)" fill="#fd646f"/>
        <path id="Trazado_600514" data-name="Trazado 600514" d="M247.306,200.044c.095.01.189.019.284.031a.539.539,0,0,0,.074-.165,2.372,2.372,0,0,1-.323.125l-.035.009" transform="translate(-199.607 -161.352)" fill="#fd646f"/>
        <path id="Trazado_600515" data-name="Trazado 600515" d="M234.738,226.921a25.649,25.649,0,0,1-2.059,2.062.355.355,0,0,1-.366.088c-.979,1-1.966,1.992-2.93,3.007-.286.3-.43.124-.627-.075q-1.626-1.637-3.263-3.262c-.732-.726-1.154-.727-1.882,0-1.239,1.241-2.467,2.492-3.7,3.739h0a2.291,2.291,0,0,1,1.333,1.626c.956-.942,1.93-1.868,2.859-2.835.359-.374.571-.341.911.014,1,1.038,2.026,2.044,3.045,3.061.831.828,1.255.819,2.108-.02q1.335-1.313,2.678-2.619V231.7a.777.777,0,0,1,.275-.561q1.022-1.05,2.072-2.071a.623.623,0,0,1,.408-.231.491.491,0,0,1,.134-.279,11.157,11.157,0,0,1,1.936-1.835,7.5,7.5,0,0,0-1.419-1.414,2.926,2.926,0,0,1-1.443,1.34.281.281,0,0,1-.071.274" transform="translate(-177.495 -181.851)" fill="#89c8fd"/>
        <path id="Trazado_600516" data-name="Trazado 600516" d="M298.517,225.221l-.026-.021h0l-1.435,1.308a.253.253,0,0,1,.018.053,2.925,2.925,0,0,0,1.443-1.34" transform="translate(-239.761 -181.764)" fill="#89c8fd"/>
        <path id="Trazado_600517" data-name="Trazado 600517" d="M301.392,234.471a.491.491,0,0,0-.134.279.417.417,0,0,1,.089.008l2-2.1-.019-.023a11.166,11.166,0,0,0-1.936,1.834" transform="translate(-243.153 -187.767)" fill="#89c8fd"/>
        <path id="Trazado_600518" data-name="Trazado 600518" d="M287.245,245.9a.778.778,0,0,0-.275.561s0,.006,0,.009l.1-.1h0c.834-.943,1.741-1.813,2.652-2.679a.556.556,0,0,1,.006-.1.622.622,0,0,0-.408.231q-1.051,1.021-2.072,2.071" transform="translate(-231.62 -196.614)" fill="#89c8fd"/>
        <path id="Trazado_600519" data-name="Trazado 600519" d="M301.232,243.6a.557.557,0,0,0-.006.1l.1-.091h0a.4.4,0,0,0-.089-.008" transform="translate(-243.127 -196.613)" fill="#89c8fd"/>
        <path id="Trazado_600520" data-name="Trazado 600520" d="M284.246,234.618l-.034.035a.354.354,0,0,0,.366-.088,25.616,25.616,0,0,0,2.059-2.062.281.281,0,0,0,.071-.274l-.037.015-.025-.021a31.031,31.031,0,0,1-2.4,2.4" transform="translate(-229.394 -187.433)" fill="#89c8fd"/>
        <path id="Trazado_600521" data-name="Trazado 600521" d="M296.856,232.046c.013,0,.024-.011.037-.015a.264.264,0,0,0-.018-.053l-.043.047c.009.007.016.015.025.021" transform="translate(-239.579 -187.235)" fill="#89c8fd"/>
        <path id="Trazado_600522" data-name="Trazado 600522" d="M62.75,242.455H61.073l-.008.014c-.305.248-.686.178-1.034.245-.635.122-.947.436-.893.927.064.584.482.717.977.74.288.013.576.009.864.009q8.356,0,16.712.006a2.124,2.124,0,0,1,1.015.088c.468-.165.852-.415.793-.993-.046-.458-.552-.8-1.18-.841-.332-.021-.666,0-1-.015a.839.839,0,0,1-.616-.181,13.207,13.207,0,0,1-2.266,0,10.629,10.629,0,0,1-1.973,0c-.007.01-.012.02-.019.03a1.606,1.606,0,0,1-1.47.025c-.017-.019-.03-.039-.045-.058l-2.409,0a9.359,9.359,0,0,1-1.827,0c-.012.016-.022.033-.035.048a1.607,1.607,0,0,1-1.476,0c-.011-.014-.019-.029-.029-.043l-2.4,0" transform="translate(-47.727 -195.688)" fill="#60b6fe"/>
        <path id="Trazado_600523" data-name="Trazado 600523" d="M90.386,242.5a1.607,1.607,0,0,0,1.476,0c.014-.016.024-.032.035-.048h0l-1.492,0h-.045c.01.014.018.029.029.043" transform="translate(-72.929 -195.687)" fill="#60b6fe"/>
        <path id="Trazado_600524" data-name="Trazado 600524" d="M120.353,242.52a1.606,1.606,0,0,0,1.47-.025c.008-.01.012-.02.019-.03l-.027,0h-1.507a.71.71,0,0,0,.044.058" transform="translate(-97.104 -195.697)" fill="#60b6fe"/>
        <path id="Trazado_600525" data-name="Trazado 600525" d="M150.855,242.633c.332.02.666-.005,1,.015.629.04,1.134.382,1.18.841.059.577-.325.828-.793.993a.826.826,0,0,1,.21.159c.567-.229.947-.62.8-1.257a1.174,1.174,0,0,0-1.284-.913c-.572,0-1.144-.013-1.716-.02h-.008a.839.839,0,0,0,.616.181" transform="translate(-121.262 -195.689)" fill="#60b6fe"/>
        <path id="Trazado_600526" data-name="Trazado 600526" d="M76.437,244.562a3.409,3.409,0,0,0,1-.059l.028-.011a2.121,2.121,0,0,0-1.015-.088Q68.1,244.39,59.74,244.4c-.288,0-.576,0-.864-.009-.5-.023-.913-.156-.977-.74-.054-.49.258-.8.893-.927.348-.067.729,0,1.034-.245l.008-.014h-.1c-.36.009-.724-.012-1.079.033a1.054,1.054,0,0,0-1.048,1.2c.056.67.435.942,1.346.943h2.314a6.9,6.9,0,0,1,1.393-.079q6.891,0,13.781,0" transform="translate(-46.488 -195.699)" fill="#60b6fe"/>
        <path id="Trazado_600527" data-name="Trazado 600527" d="M92.778,252.988a3.409,3.409,0,0,1-1,.059q-6.891,0-13.781,0a6.919,6.919,0,0,0-1.394.079l16.415.008a.819.819,0,0,0-.21-.16l-.028.011" transform="translate(-61.827 -204.184)" fill="#60b6fe"/>
        <path id="Trazado_600528" data-name="Trazado 600528" d="M86.348,288.729q6.417.006,12.834,0c.885,0,1.377-.4,1.4-1.107.017-.648-.53-1.056-1.429-1.057q-3.172,0-6.345,0c-2.211,0-4.422,0-6.633,0a1.088,1.088,0,0,0-1.162.659c-.323.8.3,1.506,1.34,1.507" transform="translate(-68.543 -231.292)" fill="#8bc9fd"/>
        <path id="Trazado_600529" data-name="Trazado 600529" d="M86.18,267.845c2.16.005,4.32,0,6.48,0h5.976c.168,0,.336,0,.5,0,.842-.01,1.367-.414,1.364-1.048,0-.649-.532-1.11-1.337-1.112q-6.48-.011-12.961,0a1.246,1.246,0,0,0-1.366,1.086c0,.66.5,1.072,1.34,1.074" transform="translate(-68.476 -214.438)" fill="#60b6fe"/>
        <path id="Trazado_600530" data-name="Trazado 600530" d="M99.552,307.449q-3.278-.006-6.557,0-3.35,0-6.7,0a.9.9,0,0,0-1.036.854.972.972,0,0,0,.826,1.214,4.826,4.826,0,0,0,1,.1q5.98,0,11.96,0a4.308,4.308,0,0,0,.647-.021,1.24,1.24,0,0,0,1.149-1.174c-.042-.576-.55-.966-1.286-.967" transform="translate(-68.805 -248.148)" fill="#8ac8fd"/>
        <path id="Trazado_600531" data-name="Trazado 600531" d="M77.867,207.458a5.763,5.763,0,0,1,2.381.183,1.708,1.708,0,0,1-.15-.957c-.007-1.991,0-3.983,0-5.974,0-1.271-.06-1.324-1.348-1.329a6.683,6.683,0,0,1-.719-.017h-.068a3.663,3.663,0,0,0-.1.869c.009,2.409.006,4.818.006,7.227" transform="translate(-62.843 -160.91)" fill="#80d161"/>
        <path id="Trazado_600532" data-name="Trazado 600532" d="M78.431,198.459a6.68,6.68,0,0,0,.72.017c1.288.005,1.345.058,1.347,1.329,0,1.991,0,3.983,0,5.974a1.709,1.709,0,0,0,.15.957c.023.012.046.022.068.035,0-2.545-.013-5.09.009-7.634.006-.649-.221-.937-.882-.89-.478.034-.959.019-1.439.026-.019.061-.033.123-.047.185h.068" transform="translate(-63.249 -160.006)" fill="#80d161"/>
        <path id="Trazado_600533" data-name="Trazado 600533" d="M77.892,241.19v.219h0l2.4,0-.023-.035a5.763,5.763,0,0,0-2.381-.183" transform="translate(-62.869 -194.642)" fill="#80d161"/>
        <path id="Trazado_600534" data-name="Trazado 600534" d="M90.259,242.318H90.3c-.023-.013-.046-.023-.068-.035l.023.035" transform="translate(-72.832 -195.552)" fill="#80d161"/>
        <path id="Trazado_600535" data-name="Trazado 600535" d="M284.581,303.4a12.466,12.466,0,0,1-2.216-2.043c-.257-.235-.581-.449-.667-.814a6.363,6.363,0,0,1-2.713,2.721.1.1,0,0,1,.015.008,14.757,14.757,0,0,1,2.823,2.889,13.027,13.027,0,0,1,2.758-2.761" transform="translate(-225.175 -242.578)" fill="#6c7ed7"/>
        <path id="Trazado_600536" data-name="Trazado 600536" d="M293.717,300.961A12.465,12.465,0,0,0,295.933,303l.068-.052-2.9-2.9c-.017.033-.036.063-.053.1.086.366.41.58.667.814" transform="translate(-236.528 -242.178)" fill="#6c7ed7"/>
        <path id="Trazado_600537" data-name="Trazado 600537" d="M278.544,314.661a.1.1,0,0,0-.015-.008c-.037.02-.072.042-.109.061l2.9,2.9.048-.063a14.77,14.77,0,0,0-2.824-2.889" transform="translate(-224.719 -253.964)" fill="#6c7ed7"/>
        <path id="Trazado_600538" data-name="Trazado 600538" d="M293.7,318.121l.008.011q1.444-1.32,2.762-2.764l-.013-.008a13.018,13.018,0,0,0-2.758,2.761" transform="translate(-237.053 -254.535)" fill="#6c7ed7"/>
        <path id="Trazado_600539" data-name="Trazado 600539" d="M293.5,329.673l-.048.063.056-.052-.008-.011" transform="translate(-236.854 -266.087)" fill="#6c7ed7"/>
        <path id="Trazado_600540" data-name="Trazado 600540" d="M308.011,315.151l.055-.059-.068.052.013.008" transform="translate(-248.593 -254.318)" fill="#6c7ed7"/>
        <path id="Trazado_600541" data-name="Trazado 600541" d="M281.6,300.444c0-.008-.005-.016-.007-.024a17.588,17.588,0,0,1-2.728,2.733.118.118,0,0,1,.023.012,6.364,6.364,0,0,0,2.713-2.721" transform="translate(-225.081 -242.476)" fill="#6c7ed7"/>
        <path id="Trazado_600542" data-name="Trazado 600542" d="M278.506,314.592c-.029.024-.057.049-.086.073.037-.019.072-.041.109-.061a.113.113,0,0,0-.023-.012" transform="translate(-224.719 -253.915)" fill="#6c7ed7"/>
        <path id="Trazado_600543" data-name="Trazado 600543" d="M293.021,300.146c.017-.032.036-.063.053-.1-.019.024-.04.047-.06.071,0,.008.005.016.007.024" transform="translate(-236.499 -242.178)" fill="#6c7ed7"/>
        <path id="Trazado_600544" data-name="Trazado 600544" d="M138.083,211.513q0,2.22,0,4.44c.752.06,1.536-.206,2.255.2a.528.528,0,0,1-.062-.088,17.534,17.534,0,0,1-.1-3.071c-.025-.74.012-1.481-.016-2.222-.012-.318-.048-.677-.456-.7-.575-.031-1.145-.14-1.719-.191a.391.391,0,0,1,.042.042c.265.329.055,1.042.055,1.585" transform="translate(-111.372 -169.403)" fill="#fd9802"/>
        <path id="Trazado_600545" data-name="Trazado 600545" d="M131.579,209.015c.574.051,1.144.16,1.719.191.408.022.444.381.456.7.027.74-.009,1.482.016,2.222a17.532,17.532,0,0,0,.1,3.071.539.539,0,0,0,.062.088l.019.01q0-2.8,0-5.6c0-.332.04-.776-.417-.778a15.216,15.216,0,0,0-3.482,0c.517.071,1.22-.194,1.531.09" transform="translate(-104.965 -168.533)" fill="#fd9802"/>
        <path id="Trazado_600546" data-name="Trazado 600546" d="M138.491,241.216v.219a13.21,13.21,0,0,0,2.266,0l-.011-.011c-.719-.41-1.5-.144-2.255-.2" transform="translate(-111.779 -194.667)" fill="#fd9802"/>
        <path id="Trazado_600547" data-name="Trazado 600547" d="M150.194,242.41h.008l-.019-.01.011.011" transform="translate(-121.216 -195.646)" fill="#fd9802"/>
        <path id="Trazado_600548" data-name="Trazado 600548" d="M69.566,200.033c.041,1.91.017,3.822.011,5.733a2.034,2.034,0,0,1-.117.939,3.165,3.165,0,0,1,1.49-.127,1.66,1.66,0,0,1-.093-.661q-.008-3.292,0-6.584a1.421,1.421,0,0,1,.191-.854.833.833,0,0,1-.6-.208c-.866.285-.9.972-.883,1.762" transform="translate(-56.062 -160.029)" fill="#68c944"/>
        <path id="Trazado_600549" data-name="Trazado 600549" d="M75.19,198.393a.833.833,0,0,1,.176-.182l-.715-.046c-.021.006-.04.014-.06.021a.834.834,0,0,0,.6.207" transform="translate(-60.203 -159.944)" fill="#68c944"/>
        <path id="Trazado_600550" data-name="Trazado 600550" d="M68.927,205.7c.006-1.911.031-3.823-.011-5.733-.017-.79.017-1.476.883-1.762l0,0-.009-.015c-1.121.06-1.123.085-1.124,1.267q0,3.636-.009,7.273a1.28,1.28,0,0,1,.155-.09,2.03,2.03,0,0,0,.117-.939" transform="translate(-55.413 -159.961)" fill="#68c944"/>
        <path id="Trazado_600551" data-name="Trazado 600551" d="M74.541,198.184l0,0,.06-.021-.071,0,.009.015" transform="translate(-60.157 -159.944)" fill="#68c944"/>
        <path id="Trazado_600552" data-name="Trazado 600552" d="M70.734,241.235a3.167,3.167,0,0,0-1.49.126.911.911,0,0,1-.051.09h1.678a.812.812,0,0,1-.137-.217" transform="translate(-55.847 -194.686)" fill="#68c944"/>
        <path id="Trazado_600553" data-name="Trazado 600553" d="M68.759,242.089a.912.912,0,0,0,.051-.09,1.247,1.247,0,0,0-.155.09h.1" transform="translate(-55.413 -195.323)" fill="#68c944"/>
        <path id="Trazado_600554" data-name="Trazado 600554" d="M76.681,206.786a1.659,1.659,0,0,0,.093.661c.042,0,.084,0,.127,0h.01c0-2.409,0-4.818-.006-7.227a3.673,3.673,0,0,1,.1-.869l-.128,0a1.421,1.421,0,0,0-.191.855q-.015,3.292,0,6.584" transform="translate(-61.887 -160.898)" fill="#68c944"/>
        <path id="Trazado_600555" data-name="Trazado 600555" d="M77.7,198.585l.128,0c.015-.062.029-.123.047-.185a.833.833,0,0,0-.176.182" transform="translate(-62.713 -160.136)" fill="#68c944"/>
        <path id="Trazado_600556" data-name="Trazado 600556" d="M77.32,241.552v-.219h-.01c-.042,0-.084,0-.127,0A.812.812,0,0,0,77.32,241.552Z" transform="translate(-62.296 -194.786)" fill="#68c944"/>
        <path id="Trazado_600557" data-name="Trazado 600557" d="M130.178,216.338a2.049,2.049,0,0,1-.091-.819c0-1.419-.03-2.838.012-4.256.017-.587-.079-.936-.763-.863a.865.865,0,0,1-.409-.045c-.033.018-.066.037-.1.058-.362.274-.311.677-.314,1.052-.01,1.36,0,2.72-.007,4.08a1.755,1.755,0,0,1-.154.977,3.439,3.439,0,0,1,1.824-.185" transform="translate(-103.598 -169.783)" fill="#fa8802"/>
        <path id="Trazado_600558" data-name="Trazado 600558" d="M128.312,214.787c.008-1.36,0-2.72.007-4.08,0-.375-.048-.777.314-1.052.032-.021.065-.04.1-.058a.584.584,0,0,1-.247-.181c-.459.125-.365.507-.366.825-.008,1.85,0,3.7-.005,5.549h0l.045-.026a1.753,1.753,0,0,0,.154-.977" transform="translate(-103.402 -169.025)" fill="#fa8802"/>
        <path id="Trazado_600559" data-name="Trazado 600559" d="M130.235,241.456a.837.837,0,0,1-.131-.213,3.439,3.439,0,0,0-1.824.185l-.018.028a10.618,10.618,0,0,0,1.973,0" transform="translate(-103.523 -194.687)" fill="#fa8802"/>
        <path id="Trazado_600560" data-name="Trazado 600560" d="M128.166,242.33c-.015.009-.03.016-.045.026l.027,0,.018-.028" transform="translate(-103.41 -195.59)" fill="#fa8802"/>
        <path id="Trazado_600561" data-name="Trazado 600561" d="M131.734,209.907c.684-.073.78.276.763.863-.041,1.418-.016,2.837-.012,4.256a2.048,2.048,0,0,0,.091.819q.065,0,.13-.006h0q0-2.22,0-4.44c0-.544.21-1.256-.055-1.585a.4.4,0,0,0-.042-.042,5.189,5.189,0,0,0-.988-.006.783.783,0,0,0-.3.1.864.864,0,0,0,.409.045" transform="translate(-105.996 -169.289)" fill="#fa8802"/>
        <path id="Trazado_600562" data-name="Trazado 600562" d="M130.3,209.411a.787.787,0,0,1,.3-.1,5.16,5.16,0,0,1,.989.006c-.311-.285-1.015-.02-1.531-.091a.582.582,0,0,0,.246.181" transform="translate(-104.966 -168.839)" fill="#fa8802"/>
        <path id="Trazado_600563" data-name="Trazado 600563" d="M137.943,241.342q-.065,0-.13.006a.835.835,0,0,0,.131.214v-.22h0" transform="translate(-111.232 -194.793)" fill="#fa8802"/>
        <path id="Trazado_600564" data-name="Trazado 600564" d="M303.743,217.43c.018-.011.035-.024.053-.035a1.138,1.138,0,0,1,.65.416c.291.269.5.257.611-.156.287-1.112.564-2.226.868-3.333.117-.426-.07-.592-.493-.49q-1.64.394-3.273.818c-.476.124-.51.365-.175.7a1.046,1.046,0,0,1,.379.593l-.041.066a2.062,2.062,0,0,1,1.422,1.418" transform="translate(-243.56 -172.565)" fill="#60b6fe"/>
        <path id="Trazado_600565" data-name="Trazado 600565" d="M301.037,214.978a1.045,1.045,0,0,0-.379-.593c-.335-.338-.3-.58.175-.7q1.632-.424,3.272-.818c.424-.1.61.064.494.49-.3,1.107-.582,2.221-.868,3.333-.106.413-.32.425-.611.156a1.139,1.139,0,0,0-.65-.416c-.018.011-.035.024-.053.035,0,.01.007.018.01.028.2.169.4.331.592.509.531.5.7.46.885-.234q.457-1.732.891-3.469c.158-.636,0-.792-.652-.635q-1.669.4-3.334.825c-.836.213-.883.393-.3,1,.163.17.3.363.454.545l.032.011c.014-.022.028-.043.041-.065" transform="translate(-242.234 -171.597)" fill="#60b6fe"/>
        <path id="Trazado_600566" data-name="Trazado 600566" d="M306.051,226.682l.008-.005a2.062,2.062,0,0,0-1.422-1.418l-.006.009a7.5,7.5,0,0,1,1.419,1.414" transform="translate(-245.876 -181.812)" fill="#60b6fe"/>
        <path id="Trazado_600567" data-name="Trazado 600567" d="M304.531,225.212l-.032-.011.026.021.006-.009" transform="translate(-245.768 -181.765)" fill="#60b6fe"/>
        <path id="Trazado_600568" data-name="Trazado 600568" d="M311.991,232.614l.018.023c0-.01-.007-.018-.01-.028l-.008.005" transform="translate(-251.815 -187.744)" fill="#60b6fe"/>
        <path id="Trazado_600569" data-name="Trazado 600569" d="M107.752,219.31c-.015,1.1-.006,2.191,0,3.286h.02c.79.061,1.61-.212,2.37.191a1.472,1.472,0,0,1-.154-.867c-.013-.978.015-1.956-.013-2.934-.019-.7-.16-.831-.849-.862-.405-.018-.811.009-1.216-.009H107.8a4.024,4.024,0,0,0-.048,1.195" transform="translate(-86.952 -176.046)" fill="#fd646f"/>
        <path id="Trazado_600570" data-name="Trazado 600570" d="M108.2,217.157c.405.018.811-.01,1.216.008.689.031.83.159.849.862.027.978,0,1.956.012,2.934a1.476,1.476,0,0,0,.154.867l.048.025c0-1.392-.008-2.784,0-4.176,0-.5-.18-.77-.717-.748s-1.054.014-1.582.019a1.146,1.146,0,0,0-.088.209h.106" transform="translate(-87.242 -175.087)" fill="#fd646f"/>
        <path id="Trazado_600571" data-name="Trazado 600571" d="M107.837,241.2h-.02c0,.072,0,.145,0,.217l2.409,0-.019-.025c-.76-.4-1.58-.13-2.37-.191" transform="translate(-87.022 -194.651)" fill="#fd646f"/>
        <path id="Trazado_600572" data-name="Trazado 600572" d="M120.229,242.359h.029l-.048-.025.019.025" transform="translate(-97.024 -195.594)" fill="#fd646f"/>
        <path id="Trazado_600573" data-name="Trazado 600573" d="M100.049,222.606a.46.46,0,0,1-.048-.17,39.383,39.383,0,0,1-.006-4.007.6.6,0,0,1,.1-.31c-1.561.006-1.564.089-1.565,1.786,0,.714.007,1.428,0,2.142a1.278,1.278,0,0,1-.161.761c.529-.357,1.117-.193,1.686-.2" transform="translate(-79.391 -176.049)" fill="#fc4856"/>
        <path id="Trazado_600574" data-name="Trazado 600574" d="M98.477,221.061c.012-.714,0-1.428,0-2.142,0-1.7,0-1.78,1.565-1.786a.642.642,0,0,1,.234-.209c-.334-.009-.668-.027-1-.026-.888,0-.97.082-.973.988,0,1.313,0,2.627,0,3.94h0l.007,0a1.277,1.277,0,0,0,.161-.761" transform="translate(-79.344 -175.064)" fill="#fc4856"/>
        <path id="Trazado_600575" data-name="Trazado 600575" d="M100.173,241.466a1.06,1.06,0,0,1-.138-.211c-.569.009-1.157-.156-1.686.2l0,0a9.359,9.359,0,0,0,1.827,0" transform="translate(-79.377 -194.699)" fill="#fc4856"/>
        <path id="Trazado_600576" data-name="Trazado 600576" d="M98.333,242.427l-.007,0h0l0,0" transform="translate(-79.361 -195.669)" fill="#fc4856"/>
        <path id="Trazado_600577" data-name="Trazado 600577" d="M106.629,222.434a.46.46,0,0,0,.048.17c.046,0,.092,0,.138-.006,0-1.1-.01-2.191,0-3.286a4.024,4.024,0,0,1,.048-1.195h-.145a.6.6,0,0,0-.1.31,39.267,39.267,0,0,0,.006,4.007" transform="translate(-86.019 -176.047)" fill="#fc4856"/>
        <path id="Trazado_600578" data-name="Trazado 600578" d="M107.336,217.242h.146a1.143,1.143,0,0,1,.088-.209.641.641,0,0,0-.233.209" transform="translate(-86.633 -175.173)" fill="#fc4856"/>
        <path id="Trazado_600579" data-name="Trazado 600579" d="M107.24,241.351c-.046,0-.092.005-.138.006a1.063,1.063,0,0,0,.138.211c0-.073,0-.145,0-.217" transform="translate(-86.445 -194.8)" fill="#fc4856"/>
        <path id="Trazado_600580" data-name="Trazado 600580" d="M60.986,265.965a5.392,5.392,0,0,0-1.427.091.82.82,0,0,0-.626.926.761.761,0,0,0,.771.712c.525.053,1.053.009,1.58.029a1.229,1.229,0,0,1,.793.148c.125-.122.276-.214.4-.341a.838.838,0,0,0-.1-1.394,2.3,2.3,0,0,1-.414-.344c-.287.239-.642.154-.973.173" transform="translate(-47.56 -214.527)" fill="#60b6fe"/>
        <path id="Trazado_600581" data-name="Trazado 600581" d="M75.065,265.973a.838.838,0,0,1,.1,1.394c-.121.127-.272.22-.4.341a.625.625,0,0,1,.078.074A1.111,1.111,0,0,0,75.7,266.7c.012-.661-.459-.927-1-1.11-.015.015-.032.026-.048.039a2.3,2.3,0,0,0,.414.344" transform="translate(-60.253 -214.364)" fill="#60b6fe"/>
        <path id="Trazado_600582" data-name="Trazado 600582" d="M60.221,267.562c-.526-.02-1.054.024-1.58-.029a.761.761,0,0,1-.771-.712.82.82,0,0,1,.626-.926,5.391,5.391,0,0,1,1.427-.091c.331-.019.686.066.973-.173-.01-.012-.019-.026-.027-.039-.716,0-1.432-.006-2.146.024a1.058,1.058,0,0,0-1.113,1.132c.019.661.383,1.005,1.115,1.021s1.478.012,2.217.015a.977.977,0,0,1,.07-.074,1.229,1.229,0,0,0-.792-.148" transform="translate(-46.499 -214.366)" fill="#60b6fe"/>
        <path id="Trazado_600583" data-name="Trazado 600583" d="M74.537,265.629c.016-.013.033-.023.048-.039h-.076c.009.013.018.026.028.039" transform="translate(-60.138 -214.364)" fill="#60b6fe"/>
        <path id="Trazado_600584" data-name="Trazado 600584" d="M74.89,276.647h.148a.606.606,0,0,0-.078-.074.906.906,0,0,0-.07.074" transform="translate(-60.446 -223.229)" fill="#60b6fe"/>
        <path id="Trazado_600585" data-name="Trazado 600585" d="M60.626,286.878c-.31.025-.623-.009-.934.028a.765.765,0,0,0-.769.715.823.823,0,0,0,.63.926,5.505,5.505,0,0,0,1.429.091c.331.019.688-.069.973.177a2.416,2.416,0,0,1,.37-.286A.86.86,0,0,0,62.341,287a2.394,2.394,0,0,1-.388-.3c-.4.306-.882.143-1.327.179" transform="translate(-47.554 -231.402)" fill="#8ac8fd"/>
        <path id="Trazado_600586" data-name="Trazado 600586" d="M75.044,286.839a.86.86,0,0,1-.016,1.528,2.428,2.428,0,0,0-.37.286c.016.013.032.023.047.039.6-.147,1.015-.482.994-1.135a1.086,1.086,0,0,0-.993-1.059h0c-.016.014-.033.026-.05.039a2.414,2.414,0,0,0,.388.3" transform="translate(-60.257 -231.239)" fill="#8ac8fd"/>
        <path id="Trazado_600587" data-name="Trazado 600587" d="M59.962,288.478a5.5,5.5,0,0,1-1.429-.091.823.823,0,0,1-.63-.925.766.766,0,0,1,.769-.715c.31-.037.624,0,.934-.028.445-.036.924.127,1.327-.179-.01-.012-.02-.025-.029-.038q-1,.008-2,.015c-.87.008-1.228.3-1.25,1.021-.021.7.436,1.125,1.249,1.141.668.013,1.336.011,2,.015.009-.013.018-.026.029-.039-.285-.246-.642-.158-.973-.177" transform="translate(-46.533 -231.242)" fill="#8ac8fd"/>
        <path id="Trazado_600588" data-name="Trazado 600588" d="M74.536,286.537c.017-.013.033-.025.05-.039h-.079c.009.013.019.026.029.038" transform="translate(-60.136 -231.239)" fill="#8ac8fd"/>
        <path id="Trazado_600589" data-name="Trazado 600589" d="M74.521,297.709H74.6c-.015-.015-.031-.025-.046-.039-.01.012-.019.025-.029.039" transform="translate(-60.148 -240.257)" fill="#8ac8fd"/>
        <path id="Trazado_600590" data-name="Trazado 600590" d="M60.777,307.936c-.356.027-.716-.006-1.074.019a.753.753,0,0,0-.777.7.781.781,0,0,0,.621.911,5.015,5.015,0,0,0,1.419.136,1.635,1.635,0,0,1,.958.141,1.109,1.109,0,0,1,.278-.266c.8-.561.809-.977.062-1.613-.068-.058-.138-.115-.2-.177-.392.273-.854.121-1.284.154" transform="translate(-47.553 -248.418)" fill="#8ac8fd"/>
        <path id="Trazado_600591" data-name="Trazado 600591" d="M74.853,307.679c.747.636.737,1.052-.062,1.613a1.112,1.112,0,0,0-.278.266.7.7,0,0,1,.068.05c.5-.223,1.023-.419,1.014-1.105a1.085,1.085,0,0,0-.86-1.067.9.9,0,0,1-.085.067c.065.062.135.119.2.177" transform="translate(-60.141 -248.138)" fill="#8ac8fd"/>
        <path id="Trazado_600592" data-name="Trazado 600592" d="M59.932,309.421a5.015,5.015,0,0,1-1.419-.136.78.78,0,0,1-.62-.911.752.752,0,0,1,.777-.7c.358-.026.718.008,1.074-.019.43-.033.892.119,1.284-.154a.848.848,0,0,1-.063-.061l0,0c-.762,0-1.524.021-2.286,0a.909.909,0,0,0-1.032.931.935.935,0,0,0,.818,1.132,12.677,12.677,0,0,0,2.4.1c.009-.015.017-.032.028-.047a1.635,1.635,0,0,0-.958-.141" transform="translate(-46.518 -248.143)" fill="#8ac8fd"/>
        <path id="Trazado_600593" data-name="Trazado 600593" d="M74.369,318.485l.1,0a.664.664,0,0,0-.068-.05c-.01.015-.019.031-.028.047" transform="translate(-60.025 -257.019)" fill="#8ac8fd"/>
        <path id="Trazado_600594" data-name="Trazado 600594" d="M74.887,307.44a.851.851,0,0,0,.063.061.9.9,0,0,0,.085-.067h-.15l0,.005" transform="translate(-60.441 -248.137)" fill="#8ac8fd"/>
        <path id="Trazado_600595" data-name="Trazado 600595" d="M44.323,141.836a1.25,1.25,0,0,1,.558.11.281.281,0,0,1,.038.026,1.46,1.46,0,0,1-.144-.786c0-1.505.008-3.011-.005-4.516a1.933,1.933,0,0,1,.677-1.613c-1.928.018-3.856,0-5.785.011-1.416.01-1.794.393-1.8,1.795-.01,1.688.013,3.377-.01,5.066a1.239,1.239,0,0,1,.528-.094q2.973-.019,5.945,0" transform="translate(-30.55 -109.009)" fill="#0181fb"/>
        <path id="Trazado_600596" data-name="Trazado 600596" d="M36.967,135.978c.008-1.4.387-1.784,1.8-1.794,1.928-.014,3.857.007,5.785-.011a2.164,2.164,0,0,1,.269-.191c-2.21-.008-4.421-.027-6.631-.019a1.388,1.388,0,0,0-1.446,1.455c-.008,1.922.005,3.845.009,5.767h0a.712.712,0,0,1,.2-.141c.023-1.689,0-3.377.01-5.066" transform="translate(-29.656 -108.122)" fill="#0181fb"/>
        <path id="Trazado_600597" data-name="Trazado 600597" d="M44.875,170.267a1.246,1.246,0,0,0-.558-.11q-2.973-.021-5.945,0a1.237,1.237,0,0,0-.528.094c0,.047,0,.094,0,.141h7.142a.819.819,0,0,1-.071-.1.271.271,0,0,0-.038-.026" transform="translate(-30.544 -137.33)" fill="#0181fb"/>
        <path id="Trazado_600598" data-name="Trazado 600598" d="M37.007,170.686a.7.7,0,0,0-.2.141h.2c0-.047,0-.094,0-.141" transform="translate(-29.706 -137.765)" fill="#0181fb"/>
        <path id="Trazado_600599" data-name="Trazado 600599" d="M73.728,136.667c.014,1.505,0,3.011.005,4.516a1.462,1.462,0,0,0,.144.786.2.2,0,0,1,.071.094c0-1.3,0-2.594.007-3.891.009-1.075-.2-2.2.547-3.118h-.1a1.933,1.933,0,0,0-.677,1.613" transform="translate(-59.508 -109.005)" fill="#0181fb"/>
        <path id="Trazado_600600" data-name="Trazado 600600" d="M77.334,134.257a2.468,2.468,0,0,1,.171-.191,2.166,2.166,0,0,0-.269.191h.1" transform="translate(-62.34 -108.208)" fill="#0181fb"/>
        <path id="Trazado_600601" data-name="Trazado 600601" d="M74.5,170.908a.818.818,0,0,0,.071.1V171a.2.2,0,0,0-.071-.094" transform="translate(-60.132 -137.944)" fill="#0181fb"/>
        <path id="Trazado_600602" data-name="Trazado 600602" d="M307.2,148.829a1.081,1.081,0,1,0-1.1-1.094,1.1,1.1,0,0,0,1.1,1.094" transform="translate(-247.061 -118.379)" fill="#7ed063"/>
        <path id="Trazado_600603" data-name="Trazado 600603" d="M290.7,148.829a1.081,1.081,0,1,0-1.057-1.14,1.095,1.095,0,0,0,1.057,1.14" transform="translate(-233.775 -118.379)" fill="#fbcf5d"/>
        <path id="Trazado_600604" data-name="Trazado 600604" d="M274.242,148.829a1.081,1.081,0,1,0-1.064-1.062,1.094,1.094,0,0,0,1.064,1.062" transform="translate(-220.488 -118.379)" fill="#fa6471"/>
        <path id="Trazado_600605" data-name="Trazado 600605" d="M212.837,225.762q-1.013,1.022-2.034,2.036c-1.119,1.115-1.588,1.12-2.689.024-.9-.9-1.814-1.782-2.69-2.7-.395-.415-.673-.4-1.057.009-.67.719-1.379,1.4-2.082,2.09-.2.192-.364.451-.7.428a1.88,1.88,0,0,1-1.246,2.016,1.789,1.789,0,0,1-2.035-.452,1.825,1.825,0,0,1-.414-2.046A1.758,1.758,0,0,1,199.612,226c.209,0,.418,0,.627,0-.006-.285.208-.447.382-.622,1.079-1.089,2.157-2.179,3.253-3.251.787-.77,1.276-.762,2.082.027,1.01.988,2.015,1.983,2.994,3,.369.384.625.4.993,0,.686-.735,1.413-1.432,2.129-2.139a1.481,1.481,0,0,1,.554-.444c-.6-.713-1.006-1.558-1.617-2.273a8.843,8.843,0,0,0-10.23-2.259,9.524,9.524,0,0,0-2.915,2.075c-.14.147-.242.372-.463.417-.011.034-.023.068-.032.1a13.742,13.742,0,0,0-1.437,2.974,8.773,8.773,0,0,0,1.031,7.259,5.536,5.536,0,0,1,.4.682c.014.035.029.068.043.1.221.038.322.26.467.408a8.814,8.814,0,0,0,15.194-4.479,8.807,8.807,0,0,0,.136-2.223,2.242,2.242,0,0,1-.365.406" transform="translate(-157.841 -175.368)" fill="#fefefe"/>
        <path id="Trazado_600606" data-name="Trazado 600606" d="M196.627,245.277c-.014-.034-.029-.068-.043-.1a5.515,5.515,0,0,0-.4-.682,8.774,8.774,0,0,1-1.031-7.259,13.754,13.754,0,0,1,1.437-2.973c.01-.035.021-.068.032-.1a.422.422,0,0,1-.15,0,9.163,9.163,0,0,0,0,11.115.419.419,0,0,1,.152,0" transform="translate(-157.063 -188.994)" fill="#fefefe"/>
        <path id="Trazado_600607" data-name="Trazado 600607" d="M220.788,260.451a8.814,8.814,0,0,1-15.194,4.479c-.145-.147-.246-.37-.467-.408.033.08.066.159.1.237a8.892,8.892,0,0,0,13.7.034A8.235,8.235,0,0,0,221.011,258a.659.659,0,0,1-.086.226,8.817,8.817,0,0,1-.137,2.223" transform="translate(-165.564 -208.239)" fill="#fefefe"/>
        <path id="Trazado_600608" data-name="Trazado 600608" d="M204.339,291.781h0a1.275,1.275,0,0,1,.162.136c.03.035.061.067.091.1-.035-.078-.069-.157-.1-.237a.42.42,0,0,0-.152,0" transform="translate(-164.927 -235.498)" fill="#fefefe"/>
        <path id="Trazado_600609" data-name="Trazado 600609" d="M205.565,219.371a9.521,9.521,0,0,1,2.915-2.075,8.842,8.842,0,0,1,10.229,2.259c.611.716,1.017,1.56,1.617,2.273a.62.62,0,0,1,.068-.019c-.1-.19-.205-.379-.3-.571a9.033,9.033,0,0,0-9.434-4.774,9.21,9.21,0,0,0-5.454,3.046c-.039.09-.072.182-.1.276.221-.045.323-.27.463-.417" transform="translate(-165.543 -174.624)" fill="#fefefe"/>
        <path id="Trazado_600610" data-name="Trazado 600610" d="M204.474,233a2.856,2.856,0,0,1,.1-.276c-.085.092-.169.186-.252.281a.426.426,0,0,0,.15-.005" transform="translate(-164.915 -187.838)" fill="#fefefe"/>
        <path id="Trazado_600611" data-name="Trazado 600611" d="M227.521,257.551c.7-.688,1.412-1.371,2.082-2.09.383-.411.662-.424,1.057-.009.876.921,1.789,1.806,2.69,2.7,1.1,1.1,1.57,1.091,2.689-.024q1.019-1.016,2.034-2.036a2.243,2.243,0,0,0,.365-.406c0-.044-.006-.088-.011-.132q-1.339,1.309-2.678,2.619c-.853.839-1.277.847-2.108.02-1.019-1.016-2.049-2.022-3.045-3.06-.34-.355-.552-.388-.911-.014-.93.968-1.9,1.893-2.859,2.835,0,.007,0,.014,0,.022.332.023.5-.236.7-.428" transform="translate(-183.076 -205.7)" fill="#fefefe"/>
        <path id="Trazado_600612" data-name="Trazado 600612" d="M232.205,240.479a1.483,1.483,0,0,0-.554.444c-.716.707-1.443,1.4-2.129,2.139-.368.394-.623.383-.993,0-.979-1.019-1.984-2.013-2.994-3-.806-.789-1.295-.8-2.082-.027-1.1,1.072-2.173,2.162-3.253,3.251-.174.176-.387.338-.382.623h.018c1.233-1.247,2.462-2.5,3.7-3.739.728-.729,1.15-.728,1.882,0q1.638,1.624,3.263,3.262c.2.2.341.376.627.075.963-1.015,1.951-2.007,2.93-3.007l-.03-.011,0,0" transform="translate(-177.422 -193.274)" fill="#fefefe"/>
        <path id="Trazado_600613" data-name="Trazado 600613" d="M286.974,258.1c0,.044.007.088.011.132a.664.664,0,0,0,.087-.226h0l-.1.1" transform="translate(-231.624 -208.238)" fill="#fefefe"/>
        <path id="Trazado_600614" data-name="Trazado 600614" d="M284.038,244.666c.01,0,.02.008.03.011l.034-.035a.619.619,0,0,0-.068.019l0,0" transform="translate(-229.251 -197.456)" fill="#fefefe"/>
        <path id="Trazado_600615" data-name="Trazado 600615" d="M209.61,262.8a1.587,1.587,0,0,0-1.557,1.584,1.715,1.715,0,0,0,3.337.628c.1-.258.04-.57.265-.782a7.76,7.76,0,0,0-1.336-1.609c0-.005,0-.009,0-.014-.188.23-.464.167-.71.193" transform="translate(-167.922 -211.958)" fill="#60b6fe"/>
        <path id="Trazado_600616" data-name="Trazado 600616" d="M219.817,262.542a7.756,7.756,0,0,1,1.335,1.609c.006-.006.01-.012.016-.017a2.291,2.291,0,0,0-1.333-1.626c-.006.008-.012.012-.018.019s0,.009,0,.014" transform="translate(-177.42 -211.877)" fill="#60b6fe"/>
        <path id="Trazado_600617" data-name="Trazado 600617" d="M208.782,262.483a1.758,1.758,0,0,0-1.717,1.17,1.825,1.825,0,0,0,.414,2.046,1.789,1.789,0,0,0,2.035.452,1.88,1.88,0,0,0,1.246-2.016h-.013l0-.005c-.225.212-.17.523-.265.781a1.715,1.715,0,0,1-3.337-.627A1.587,1.587,0,0,1,208.7,262.7c.246-.026.522.036.71-.193,0-.007,0-.013,0-.02-.209,0-.418-.008-.627,0" transform="translate(-167.011 -211.855)" fill="#60b6fe"/>
        <path id="Trazado_600618" data-name="Trazado 600618" d="M219.819,262.527c.006-.007.012-.012.018-.019h-.017c0,.007,0,.013,0,.02" transform="translate(-177.421 -211.876)" fill="#60b6fe"/>
        <path id="Trazado_600619" data-name="Trazado 600619" d="M226.746,270.959h.013c0-.007,0-.014,0-.022s-.01.012-.016.017l0,.005" transform="translate(-183.01 -218.68)" fill="#60b6fe"/>
      </g>
    </g>
  </g>
</svg>
