<svg xmlns="http://www.w3.org/2000/svg" xmlns:xlink="http://www.w3.org/1999/xlink" width="112" height="112" viewBox="0 0 112 112">
  <defs>
    <clipPath id="clip-path">
      <rect id="Rectángulo_297840" data-name="Rectángulo 297840" width="64.819" height="72.029" fill="none"/>
    </clipPath>
  </defs>
  <g id="Grupo_886474" data-name="Grupo 886474" transform="translate(5855 2126)">
    <circle id="Elipse_6576" data-name="Elipse 6576" cx="56" cy="56" r="56" transform="translate(-5855 -2126)" fill="#e1fbff"/>
    <g id="Grupo_878995" data-name="Grupo 878995" transform="translate(-5831.491 -2107.209)">
      <g id="Grupo_878997" data-name="Grupo 878997" clip-path="url(#clip-path)">
        <path id="Trazado_592058" data-name="Trazado 592058" d="M23.779,145.073l.018.032c0-.01,0-.021,0-.031h-.018" transform="translate(-19.012 -115.993)" fill="#fefefe"/>
        <path id="Trazado_592059" data-name="Trazado 592059" d="M151.358,82.192h-.013c0,.018,0,.034-.006.052l.019-.052" transform="translate(-121.003 -65.716)" fill="#fefefe"/>
        <path id="Trazado_592060" data-name="Trazado 592060" d="M137.636,161.727l-.007-.011,0,.011Z" transform="translate(-110.037 -129.299)" fill="#fefefe"/>
        <path id="Trazado_592061" data-name="Trazado 592061" d="M11.938,15.77a44.185,44.185,0,0,0,2.221,13.083,1.391,1.391,0,0,0,.114.228h.018c.008-1.505.028-3.011.017-4.516,0-.392.063-.568.518-.563,2.435.03,4.872.026,7.308.034,1.364-1.345,2.74-2.678,4.083-4.043.338-.343.526-.366.88-.012,1.272,1.275,1.283,1.258.039,2.51-1.086,1.094-2.163,2.2-3.244,3.3.008,2.439,0,4.878.035,7.317.006.463-.182.513-.569.512-2.464-.006-4.928.009-7.392.018a44.149,44.149,0,0,0,3.61,6.814,2.41,2.41,0,0,1,.14.336l2.416.049c1.364-1.344,2.738-2.678,4.082-4.041.335-.34.523-.374.88-.016,1.272,1.276,1.283,1.257.041,2.509-1.086,1.094-2.163,2.2-3.244,3.3q.025,1.814.05,3.629c1.023,1.055,2.036,2.119,3.07,3.162,1,1.013.983.977,1.55-.324a11.4,11.4,0,0,1,5.864-6c3.036-1.384,6.215-2.418,9.305-3.672a.932.932,0,0,0,.364-1.538,12.871,12.871,0,0,1-2.131-2.776.414.414,0,0,0-.343-.251,6.573,6.573,0,0,1-4.48-2.255c-.008.574-.033,1.149-.019,1.722.009.354-.047.542-.477.538-2.1-.02-4.2-.014-6.3,0-.317,0-.417-.095-.441-.423-.147-1.982-.157-1.983,1.8-1.981q2.693,0,5.385.015l0-.011a5.955,5.955,0,0,1-.164-6.926,1.479,1.479,0,0,0,.179-.856q0-3.3,0-6.6c-2.168-.008-4.336-.034-6.5-.011-.54.006-.723-.107-.714-.688.028-1.724,0-1.728,1.757-1.724q2.953.006,5.906.022l.155-.05a11.513,11.513,0,0,1,9.75-8.212c2.671-.417,5.378-.11,8.068-.133a8.858,8.858,0,0,1,1.954.423c.008-2.274-.013-4.548.042-6.821C57.549.152,57.349,0,56.677,0Q34.67.031,12.663.017c-.249,0-.5.016-.748.024,0,5.243-.07,10.487.023,15.729M31.685,27.613c.848,0,1.7.032,2.544-.01.663-.033.559.454.464.74-.184.55.578,1.417-.442,1.644a9.152,9.152,0,0,1-1.94.025c-.6,0-1.2-.035-1.8.011-.515.039-.61-.168-.61-.636,0-1.774-.017-1.774,1.78-1.774m.045-16.8c1.6,0,3.2.013,4.792-.009.431-.006.6.074.608.564.019,1.844.04,1.844-1.791,1.844h-1.8c-1.023,0-2.047-.015-3.07.008-.4.009-.557-.079-.568-.526-.047-1.882-.063-1.881,1.826-1.881M14.31,7.732c0-.363.057-.531.481-.526,2.449.027,4.9.026,7.347.034C23.5,5.9,24.877,4.562,26.22,3.2c.339-.344.527-.363.879-.01,1.269,1.273,1.28,1.255.035,2.509-1.086,1.094-2.162,2.2-3.243,3.3.008,2.449.006,4.9.034,7.347,0,.425-.167.481-.528.48-2.849-.011-5.7-.015-8.549,0-.427,0-.545-.118-.542-.543q.027-4.274,0-8.548" transform="translate(-9.506 -0.001)" fill="#006bda"/>
        <path id="Trazado_592062" data-name="Trazado 592062" d="M155.4,237.45q-.235-3.642-.461-7.286c-.151-2.379-.21-4.764-.471-7.134a9.344,9.344,0,0,0-5.095-7.6,58.553,58.553,0,0,0-6.921-2.777c-1.135,2.839-2.281,5.674-3.395,8.521-.171.437-.266.4-.6.147a6.183,6.183,0,0,0-1.344-1.037h0l-3.054,3.753q1.177,7,2.361,14a.668.668,0,0,1-.219.66c-1,.983-1.989,1.967-2.965,2.969-.274.281-.452.281-.726,0-.975-1-1.969-1.987-2.964-2.97a.667.667,0,0,1-.223-.658q1.193-7,2.363-14l-3.054-3.753h0c-.454.343-.931.659-1.354,1.037-.328.293-.429.266-.593-.152-.968-2.47-1.969-4.927-2.961-7.387a1.68,1.68,0,0,0-.151-.246c-1.941.751-4,1.25-5.723,2.481a9.538,9.538,0,0,0-4.191,7.825,17,17,0,0,0,2.113,9.176,7.306,7.306,0,0,0,1.495,2.112h0c0-2.243.018-4.486,0-6.728-.006-.551.1-.793.73-.783,1.68.026,1.68-.006,1.681,1.691q0,4.261,0,8.522h0a17.338,17.338,0,0,0,9.255,4.072c.064.008.12.079.18.121l16.972,0c0-4.574,0-9.147-.023-13.721,0-.531.169-.675.686-.677,1.725,0,1.726-.023,1.725,1.727q0,6.336-.012,12.671c2.2,0,4.4,0,6.593.022.508.006.674-.183.62-.657-.149-1.307-.188-2.624-.273-3.935" transform="translate(-90.866 -170.025)" fill="#d6dfee"/>
        <path id="Trazado_592063" data-name="Trazado 592063" d="M25.853,45.27a61.5,61.5,0,0,1,6.4-2.5c1.6-.771,3.294-1.308,4.942-1.961,0-1.121,0-2.242.017-3.363a.9.9,0,0,0-.375-.824,7.747,7.747,0,0,1-2.685-3.689.689.689,0,0,0-.837-.513,4.222,4.222,0,0,1-3.23-.853c-1.679-1.465-1.7-3.551-.066-5.477q0-4.029,0-8.057L27.755,18l-.1.033a1.211,1.211,0,0,1,.165.8c.01,1.921.005,3.842,0,5.763a2.536,2.536,0,0,1-.363,1.278,5.633,5.633,0,0,0-.074,5.78c.125.234.348.468.2.773l.007.011a.5.5,0,0,0,.03.114c.156-.082.331.06.46.192a6.451,6.451,0,0,0,3.972,1.906.939.939,0,0,1,.678.535,13.454,13.454,0,0,0,1.821,2.368,1.175,1.175,0,0,1-.464,2.105c-2.655,1.026-5.315,2.041-7.969,3.071a12.008,12.008,0,0,0-7.136,6.939c-.3.744-.493.829-1.068.3a20.106,20.106,0,0,1-3.49-3.634c-.009,1.184-.034,2.368-.014,3.551.007.429-.12.542-.544.539q-4.268-.027-8.536,0c-.428,0-.542-.12-.539-.543q.027-4.268,0-8.536c0-.428.12-.544.543-.54,1.582.016,3.164-.005,4.746-.014a1.354,1.354,0,0,1-.184-.247A46.847,46.847,0,0,1,6.51,34.289c-.09-.216-.222-.452-.091-.643a.783.783,0,0,0-.109-.014c-1.5-.042-1.5-.042-1.5-1.585,0-.972-.015-1.945-.024-2.917L4.767,29.1c-.437-.05-.436-.478-.528-.77A43.11,43.11,0,0,1,2.653,21.17a49.247,49.247,0,0,1-.482-6.937c.023-4.319,0-8.639.011-12.958,0-.415-.091-.858.227-1.218C1.784.048,1.158.064.536.023.1-.005-.009.154,0,.57.027,1.694.009,2.819.009,3.943q0,30.061,0,60.122c0,.427-.086.781.607.777,6.347-.034,12.695-.025,19.042-.028.253-3.96.394-7.932.792-11.878a9.2,9.2,0,0,1,5.4-7.666" transform="translate(0 -0.016)" fill="#0059bd"/>
        <path id="Trazado_592064" data-name="Trazado 592064" d="M132.9,89.914q0,3.3,0,6.6a1.478,1.478,0,0,1-.179.855,5.955,5.955,0,0,0,.163,6.927c.148-.3-.075-.539-.2-.773a5.633,5.633,0,0,1,.074-5.78,2.539,2.539,0,0,0,.363-1.278c0-1.921.005-3.842,0-5.763a1.211,1.211,0,0,0-.165-.8Z" transform="translate(-105.288 -71.877)" fill="#0059bd"/>
        <path id="Trazado_592065" data-name="Trazado 592065" d="M35.455,174.588a44.166,44.166,0,0,1-3.61-6.814l-.039-.007c-.131.19,0,.427.091.643a46.814,46.814,0,0,0,3.394,6.268,1.355,1.355,0,0,0,.184.247h.12a2.378,2.378,0,0,0-.14-.336" transform="translate(-25.386 -134.138)" fill="#0059bd"/>
        <path id="Trazado_592066" data-name="Trazado 592066" d="M10.835,1.419c-.007,4.319.012,8.639-.011,12.958a49.217,49.217,0,0,0,.482,6.937,43.151,43.151,0,0,0,1.586,7.157c.092.292.091.719.528.77a1.385,1.385,0,0,1-.114-.228A44.189,44.189,0,0,1,11.085,15.93C10.993,10.688,11.063,5.444,11.062.2c-.318.36-.226.8-.227,1.218" transform="translate(-8.654 -0.161)" fill="#0059bd"/>
        <path id="Trazado_592067" data-name="Trazado 592067" d="M89.684,164.518a.414.414,0,0,1,.343.251,12.858,12.858,0,0,0,2.131,2.776.932.932,0,0,1-.364,1.538c-3.09,1.254-6.269,2.288-9.305,3.672a11.4,11.4,0,0,0-5.864,6c-.567,1.3-.545,1.337-1.549.324-1.034-1.043-2.048-2.107-3.07-3.162,0,.039,0,.078,0,.116a20.114,20.114,0,0,0,3.49,3.634c.575.525.768.44,1.068-.3a12.008,12.008,0,0,1,7.136-6.939c2.654-1.03,5.314-2.045,7.969-3.071a1.175,1.175,0,0,0,.464-2.105,13.456,13.456,0,0,1-1.821-2.368.938.938,0,0,0-.678-.535,6.451,6.451,0,0,1-3.972-1.906c-.129-.131-.3-.274-.46-.192,0,.006,0,.012,0,.018a6.573,6.573,0,0,0,4.48,2.255" transform="translate(-57.57 -129.702)" fill="#0059bd"/>
        <path id="Trazado_592068" data-name="Trazado 592068" d="M172.837,47.919c-1.018,0-2.037.014-3.055.021h0a11.057,11.057,0,0,0-4.643,2.078A9.185,9.185,0,0,0,161.7,55.87c-.377,2.528-.075,5.082-.166,7.623.225.008.45.006.674.025.365.032.6-.076.528-.49-.109-.637.213-.762.764-.719s1.1.023,1.648.03a16.825,16.825,0,0,0,10.785-3.76c.116-.095.237-.184.344-.289.518-.51,1-1.068,1.852-.586a2.41,2.41,0,0,1,1.406,2.127c.022,1.222.014,2.445.018,3.667a4.89,4.89,0,0,1,3.564.892h0q.011-3.894.022-7.787a5.151,5.151,0,0,0-3.122-4.928c-.218-.108-.457-.159-.558-.435a5.688,5.688,0,0,0-2.335-2.73,8.558,8.558,0,0,0-4.289-.593" transform="translate(-129.134 -38.304)" fill="#4c4c4c"/>
        <path id="Trazado_592069" data-name="Trazado 592069" d="M193.939,102.944c-.011-.007-.023-.014-.035-.022a1.414,1.414,0,0,1-.178-.934c-.009-.9-.008-1.8,0-2.693a2.2,2.2,0,0,0-1.11-1.916,1.083,1.083,0,0,0-1.488.113,16.737,16.737,0,0,1-11.589,4.394c-.007,2.057-.081,4.116.01,6.169a8.264,8.264,0,0,0,6.685,7.826c1.51.317,2.834-.545,4.1-1.3l1.18-.9h0a9.741,9.741,0,0,0,2.115-3.592c.522-2.361.211-4.758.309-7.138" transform="translate(-143.52 -77.664)" fill="#f1b8a0"/>
        <path id="Trazado_592070" data-name="Trazado 592070" d="M191.265,96.476a1.083,1.083,0,0,1,1.488-.113,2.2,2.2,0,0,1,1.11,1.916c-.005.9-.006,1.8,0,2.693a1.412,1.412,0,0,0,.178.934c.011.008.023.015.035.022,0-.028,0-.056,0-.084,0-1.222,0-2.445-.018-3.667a2.41,2.41,0,0,0-1.406-2.127c-.852-.483-1.334.076-1.852.586-.106.1-.227.194-.343.289a16.825,16.825,0,0,1-10.785,3.76c0,.062,0,.124,0,.185a16.736,16.736,0,0,0,11.589-4.393" transform="translate(-143.659 -76.649)" fill="#f1b8a0"/>
        <path id="Trazado_592071" data-name="Trazado 592071" d="M102.515,235.79a5.765,5.765,0,0,1-.734-1.036,16.349,16.349,0,0,1-2.358-11.9,9.341,9.341,0,0,1,5.962-7.163,20.913,20.913,0,0,1,3.856-1.4c.013,0,.023.01.036.014-.049-.2-.061-.428-.231-.557-.068.027-.136.053-.2.082-1.9.774-3.849,1.418-5.725,2.242A9.392,9.392,0,0,0,97.2,224.4c-.239,2.71-.295,5.431-.56,8.139-.083.843-.01,1.7-.173,2.539-.042.218-.021.454-.213.619-.145,2.1-.28,4.2-.44,6.3-.046.6-.014.959.784.934,2.137-.066,4.277-.032,6.416-.037q-.007-3.439-.014-6.879c-.18.121-.346-.082-.486-.224" transform="translate(-76.598 -170.902)" fill="#c0cee7"/>
        <path id="Trazado_592072" data-name="Trazado 592072" d="M122.568,216.46a20.949,20.949,0,0,0-3.855,1.4,9.341,9.341,0,0,0-5.962,7.163,16.35,16.35,0,0,0,2.358,11.9,5.77,5.77,0,0,0,.734,1.036c.14.141.306.345.486.224v-.008h0a7.3,7.3,0,0,1-1.495-2.112,17,17,0,0,1-2.113-9.176,9.538,9.538,0,0,1,4.191-7.825c1.728-1.231,3.782-1.731,5.724-2.481a.937.937,0,0,1-.031-.106c-.013,0-.022-.01-.036-.014" transform="translate(-89.926 -173.07)" fill="#c0cee7"/>
        <path id="Trazado_592073" data-name="Trazado 592073" d="M98.45,232.19c.266-2.708.321-5.429.56-8.139a9.391,9.391,0,0,1,5.917-8.331c1.875-.824,3.826-1.469,5.725-2.242.067-.028.136-.054.2-.082a.469.469,0,0,0-.192-.088,61.485,61.485,0,0,0-6.4,2.5,9.2,9.2,0,0,0-5.4,7.666c-.4,3.946-.539,7.917-.792,11.878.192-.165.171-.4.213-.619.163-.84.091-1.7.173-2.539" transform="translate(-78.407 -170.55)" fill="#c0cee7"/>
        <path id="Trazado_592074" data-name="Trazado 592074" d="M176.759,203.537h0c-1.2,1.462-2.269,3.029-3.6,4.382-.279.378-.569.748-.833,1.136-.285.419-.5.343-.784-.02-1.448-1.828-2.915-3.64-4.376-5.457a12.439,12.439,0,0,1-2.779,1.2c-.615.273-1.25.5-1.878.753.252.09.25.335.161.631.354.15.405.528.529.832.852,2.1,1.69,4.212,2.533,6.319.285.713.287.7.9.245.332-.248.6-.623,1.074-.625l.036.028c1.315-1.072,2.633-2.141,3.943-3.219a.343.343,0,0,1,.516,0q1.958,1.61,3.926,3.207l.033-.031c.536-.056.765.416,1.118.665.588.416.595.436.867-.248q1.4-3.517,2.816-7.03c.136-.339.19-.738.561-.942h0l-3.611-1.374Z" transform="translate(-129.934 -162.737)" fill="#a4b9da"/>
        <path id="Trazado_592075" data-name="Trazado 592075" d="M168.241,223.412c-.478,0-.742.377-1.074.625-.613.457-.615.468-.9-.245-.842-2.107-1.68-4.216-2.533-6.319-.123-.3-.175-.682-.528-.832-.008.027-.017.055-.027.083a1.681,1.681,0,0,1,.151.246c.992,2.46,1.993,4.917,2.961,7.387.164.419.265.445.593.152.423-.377.9-.694,1.354-1.037l.04-.032c-.013-.009-.024-.019-.036-.028" transform="translate(-130.469 -173.215)" fill="#a4b9da"/>
        <path id="Trazado_592076" data-name="Trazado 592076" d="M235.28,213.593q-1.409,3.514-2.815,7.03c-.273.684-.279.665-.867.248-.353-.25-.582-.722-1.118-.666l-.033.031.056.045h0a6.182,6.182,0,0,1,1.344,1.037c.334.25.429.29.6-.147,1.114-2.847,2.259-5.682,3.395-8.521-.371.2-.426.6-.561.942" transform="translate(-184.253 -170.024)" fill="#a4b9da"/>
        <path id="Trazado_592077" data-name="Trazado 592077" d="M161.233,205.524c.627-.25,1.263-.479,1.878-.753a12.428,12.428,0,0,0,2.779-1.2l-.034-.043c-1.648.652-3.341,1.19-4.942,1.961a.849.849,0,0,1,.32.037" transform="translate(-128.657 -162.729)" fill="#a4b9da"/>
        <path id="Trazado_592078" data-name="Trazado 592078" d="M162,213.492l-.128.051c.17.13.181.355.231.557.02.007.039.014.058.022.089-.3.091-.541-.161-.631" transform="translate(-129.424 -170.697)" fill="#a4b9da"/>
        <path id="Trazado_592079" data-name="Trazado 592079" d="M163.022,216.529a.975.975,0,0,0,.031.106c.01-.028.018-.056.027-.083-.019-.008-.038-.016-.058-.022" transform="translate(-130.344 -173.125)" fill="#a4b9da"/>
        <path id="Trazado_592080" data-name="Trazado 592080" d="M160.913,213.3a.469.469,0,0,1,.192.088l.128-.051a.853.853,0,0,0-.32-.037" transform="translate(-128.657 -170.545)" fill="#a4b9da"/>
        <path id="Trazado_592081" data-name="Trazado 592081" d="M160.546,37.27c-2.067-.549-4.178-.253-6.27-.325a14.575,14.575,0,0,0-5.834.744,11.671,11.671,0,0,0-6.85,6.629,2.7,2.7,0,0,1-.372.8,5.876,5.876,0,0,0,1.021.012c.721-.1,1.114.1,1.014.872h.013a10.284,10.284,0,0,1,3.244-4.754,9.7,9.7,0,0,1,6.443-2.113l.134-.03c.2-.04.387-.094.583-.134,1.788-.115,3.577-.08,5.364-.024a2.407,2.407,0,0,1,1.87.787q0-1.271-.009-2.543a.37.37,0,0,1-.35.081" transform="translate(-112.913 -29.524)" fill="#0059bd"/>
        <path id="Trazado_592082" data-name="Trazado 592082" d="M150.484,35.913a11.513,11.513,0,0,0-9.75,8.212l.1,0a2.7,2.7,0,0,0,.372-.8,11.671,11.671,0,0,1,6.85-6.629,14.576,14.576,0,0,1,5.834-.744c2.092.072,4.2-.224,6.27.325a.37.37,0,0,0,.35-.081,8.879,8.879,0,0,0-1.954-.423c-2.69.024-5.4-.284-8.068.133" transform="translate(-112.523 -28.538)" fill="#0059bd"/>
        <path id="Trazado_592083" data-name="Trazado 592083" d="M205.84,46.791c-1.787-.056-3.576-.091-5.364.024-.2.04-.387.094-.583.134l-.134.03c.2,0,.4.013.606.027h0c1.018-.007,2.037-.018,3.055-.021a8.558,8.558,0,0,1,4.289.593,2.407,2.407,0,0,0-1.87-.787" transform="translate(-159.717 -37.37)" fill="#0059bd"/>
        <path id="Trazado_592084" data-name="Trazado 592084" d="M277.629,301.512c-.007-3.97,0-7.941-.007-11.911,0-.946-.1-1.028-1.032-1.011-.8.015-.881.094-.882,1.011-.006,3.97,0,7.941-.006,11.911a1.733,1.733,0,0,1-.224,1.222h2.376a1.732,1.732,0,0,1-.224-1.222" transform="translate(-220.257 -230.74)" fill="#a4b9da"/>
        <path id="Trazado_592085" data-name="Trazado 592085" d="M276.05,287.333c-.516,0-.688.146-.685.676.022,4.574.019,9.147.023,13.721a1.733,1.733,0,0,0,.224-1.222c.007-3.97,0-7.941.006-11.911,0-.917.082-1,.882-1.011.935-.017,1.03.064,1.032,1.011.007,3.97,0,7.941.007,11.911a1.732,1.732,0,0,0,.224,1.222q.006-6.335.012-12.671c0-1.75,0-1.73-1.725-1.726" transform="translate(-220.167 -229.736)" fill="#a4b9da"/>
        <path id="Trazado_592086" data-name="Trazado 592086" d="M133.971,298.345a32.661,32.661,0,0,1-.062-3.513c-.017-1.82.009-3.641-.012-5.462-.009-.732-.128-.807-1.007-.8-.812,0-.9.069-.91.812-.016,1.721,0,3.442-.007,5.162a3.467,3.467,0,0,1-.088,1.112.528.528,0,0,1-.147.177,1.043,1.043,0,0,1,.238.827q.019,2.608,0,5.215a1.121,1.121,0,0,1-.23.84h2.385q.006-2.009.012-4.018a1.253,1.253,0,0,1-.173-.35" transform="translate(-105.331 -230.723)" fill="#a4b9da"/>
        <path id="Trazado_592087" data-name="Trazado 592087" d="M131.85,294.649a3.467,3.467,0,0,0,.088-1.112c0-1.721-.009-3.442.007-5.163.007-.743.1-.808.91-.812.88,0,1,.071,1.007.8.021,1.82-.006,3.641.012,5.462a32.66,32.66,0,0,0,.062,3.513,1.253,1.253,0,0,0,.173.35q0-.084,0-.167h0q0-4.261,0-8.522c0-1.7,0-1.665-1.68-1.691-.633-.01-.735.232-.73.783.022,2.242.006,4.485,0,6.728l0,.005a.529.529,0,0,0,.147-.177" transform="translate(-105.295 -229.717)" fill="#a4b9da"/>
        <path id="Trazado_592088" data-name="Trazado 592088" d="M131.957,325.634a1.044,1.044,0,0,0-.238-.827l0,0q.007,3.439.014,6.879a1.12,1.12,0,0,0,.23-.839q.015-2.608,0-5.215" transform="translate(-105.312 -259.698)" fill="#a4b9da"/>
        <path id="Trazado_592089" data-name="Trazado 592089" d="M131.72,324.787l0-.005v.008l0,0" transform="translate(-105.312 -259.678)" fill="#a4b9da"/>
        <path id="Trazado_592090" data-name="Trazado 592090" d="M253.441,127.049a4.3,4.3,0,0,0-2.475-.6,1.234,1.234,0,0,1-.582-.081.822.822,0,0,1,.113.415,42.7,42.7,0,0,1-.12,5.729,1.5,1.5,0,0,1-.395.943c.5,0,1,0,1.493-.007a3.542,3.542,0,0,0,2.325-.86,3.6,3.6,0,0,0,.058-5.463.44.44,0,0,1-.418-.073" transform="translate(-199.872 -101.035)" fill="#cf8c78"/>
        <path id="Trazado_592091" data-name="Trazado 592091" d="M251.54,125.676h0a1.121,1.121,0,0,1,.089.135,1.239,1.239,0,0,0,.582.081,4.3,4.3,0,0,1,2.475.6.44.44,0,0,0,.418.073,4.892,4.892,0,0,0-3.565-.892" transform="translate(-201.118 -100.481)" fill="#cf8c78"/>
        <path id="Trazado_592092" data-name="Trazado 592092" d="M250.5,126.578a.824.824,0,0,0-.113-.415.746.746,0,0,1-.092-.051c-.1,2.38.213,4.777-.309,7.138a1.5,1.5,0,0,0,.395-.943,42.763,42.763,0,0,0,.12-5.729" transform="translate(-199.872 -100.832)" fill="#cf8c78"/>
        <path id="Trazado_592093" data-name="Trazado 592093" d="M251.526,125.776a.743.743,0,0,0,.092.051,1.093,1.093,0,0,0-.089-.135c0,.028,0,.056,0,.084" transform="translate(-201.107 -100.497)" fill="#cf8c78"/>
        <path id="Trazado_592094" data-name="Trazado 592094" d="M144.394,340.042a3.363,3.363,0,0,1-.647-.569,7.6,7.6,0,0,1-.067,3.942l9.448.008h0a16.194,16.194,0,0,1-8.733-3.38" transform="translate(-114.879 -271.424)" fill="#c0cee7"/>
        <path id="Trazado_592095" data-name="Trazado 592095" d="M143.742,338.261c.02.081.036.162.055.243a3.365,3.365,0,0,0,.647.57,16.194,16.194,0,0,0,8.733,3.38c-.06-.042-.116-.113-.18-.121a17.339,17.339,0,0,1-9.255-4.072" transform="translate(-114.928 -270.455)" fill="#c0cee7"/>
        <path id="Trazado_592096" data-name="Trazado 592096" d="M143.747,339.17c-.019-.024-.038-.05-.055-.076q-.006,2.009-.012,4.018a7.6,7.6,0,0,0,.068-3.942" transform="translate(-114.878 -271.121)" fill="#c0cee7"/>
        <path id="Trazado_592097" data-name="Trazado 592097" d="M143.739,338.428c.018.026.036.051.055.076-.018-.081-.034-.162-.055-.243h0q0,.084,0,.167" transform="translate(-114.926 -270.455)" fill="#c0cee7"/>
        <path id="Trazado_592098" data-name="Trazado 592098" d="M233.416,180.767l-.025.984q.02,1.306.04,2.611l.006,0a1.117,1.117,0,0,1,1.148.525q.009-2.621.017-5.242h0c-.236.543-.76.782-1.186,1.125" transform="translate(-186.607 -143.632)" fill="#0059bd"/>
        <path id="Trazado_592099" data-name="Trazado 592099" d="M233.514,180.767c.426-.343.95-.582,1.186-1.125l-1.18.905q0,.11-.006.219" transform="translate(-186.705 -143.632)" fill="#0059bd"/>
        <path id="Trazado_592100" data-name="Trazado 592100" d="M233.6,203.17l-.006,0c0,.023,0,.047,0,.07h0l1.152.453a1.117,1.117,0,0,0-1.148-.525" transform="translate(-186.766 -162.443)" fill="#0059bd"/>
        <path id="Trazado_592101" data-name="Trazado 592101" d="M24.488,45.562q4.274-.027,8.549,0c.361,0,.532-.055.528-.48-.027-2.449-.026-4.9-.034-7.346-1.557,1.538-3.125,3.064-4.661,4.622-.362.368-.561.384-.932.006-1.232-1.255-1.244-1.236.017-2.506q1.918-1.932,3.823-3.877c-2.449-.008-4.9-.006-7.347-.034-.424,0-.483.164-.481.526q.017,4.274,0,8.548c0,.425.115.546.542.543" transform="translate(-19.146 -28.739)" fill="#fefefe"/>
        <path id="Trazado_592102" data-name="Trazado 592102" d="M24.118,128.96c-.017.595.144.964.824.927a.664.664,0,0,1,.577.211.556.556,0,0,1,.214-.153c1.439-.174,2.883-.046,4.323-.079.8-.018,1.593-.025,2.388,0,.619.022.825-.238.819-.84-.018-2.015-.015-4.031,0-6.046a3.1,3.1,0,0,1,.025-.37,1.072,1.072,0,0,1,.026-.182c-1.505,1.486-3.02,2.962-4.5,4.468-.361.367-.56.387-.932.008-1.235-1.258-1.247-1.238.012-2.507q1.841-1.855,3.671-3.722a1.059,1.059,0,0,1-.156.023c-2.075.076-4.148.015-6.221.035-1.017.01-1.047.036-1.053,1.054-.005.949,0,1.9,0,2.848a1.456,1.456,0,0,1-.19.936c-.024,0-.045,0-.067,0,0,.01,0,.021,0,.031.288.242.244.582.25.9.015.82.023,1.641,0,2.461" transform="translate(-19.084 -96.488)" fill="#fefefe"/>
        <path id="Trazado_592103" data-name="Trazado 592103" d="M24.126,123.887c.009-.949,0-1.9,0-2.848.005-1.018.036-1.044,1.053-1.054,2.073-.02,4.147.042,6.221-.035a1.06,1.06,0,0,0,.156-.023l.151-.154c-2.436-.008-4.872,0-7.308-.034-.454-.006-.52.17-.517.563.011,1.505-.008,3.011-.017,4.516.022,0,.043,0,.067,0a1.457,1.457,0,0,0,.19-.936" transform="translate(-19.085 -95.738)" fill="#fefefe"/>
        <path id="Trazado_592104" data-name="Trazado 592104" d="M39.874,128.994a3.1,3.1,0,0,0-.025.37c-.012,2.015-.015,4.031,0,6.046.005.6-.2.862-.819.84-.8-.028-1.593-.021-2.389,0-1.441.033-2.884-.1-4.323.079a.558.558,0,0,0-.214.153c.007.009.015.016.022.026,2.464-.008,4.928-.024,7.392-.018.386,0,.575-.049.569-.512-.03-2.439-.027-4.878-.035-7.317l-.155.153a1.052,1.052,0,0,0-.026.182" transform="translate(-25.671 -102.869)" fill="#fefefe"/>
        <path id="Trazado_592105" data-name="Trazado 592105" d="M24.943,149.52c-.681.037-.841-.332-.824-.927.023-.82.016-1.641,0-2.461-.006-.316.038-.656-.25-.9.008.972.021,1.945.024,2.917,0,1.544,0,1.543,1.5,1.585a.79.79,0,0,1,.109.014c0-.007.011-.013.016-.019a.663.663,0,0,0-.577-.211" transform="translate(-19.084 -116.121)" fill="#fefefe"/>
        <path id="Trazado_592106" data-name="Trazado 592106" d="M32.041,167.671c-.005.007-.012.013-.016.02l.039.007c-.007-.01-.015-.017-.023-.026" transform="translate(-25.605 -134.061)" fill="#fefefe"/>
        <path id="Trazado_592107" data-name="Trazado 592107" d="M34.324,205.76a1,1,0,0,1,.021-.129c-1.508,1.488-3.024,2.966-4.511,4.474-.359.364-.556.394-.932.012-1.235-1.259-1.248-1.239.011-2.507q1.845-1.858,3.678-3.729c-.022,0-.043.011-.067.014a8.225,8.225,0,0,1-2.089-.051.6.6,0,0,1-.174-.1,1.258,1.258,0,0,1-.919.2c-1.1.015-2.2,0-3.3.009-.8.01-.882.081-.885.843-.011,2.5,0,4.992-.01,7.489,0,.574.216.8.792.794,2.5-.014,4.993,0,7.489-.011.769,0,.831-.081.845-.882.013-.724-.008-1.448.009-2.172a1.144,1.144,0,0,1,.21-.854c-.045-.07-.094-.137-.137-.208a22.708,22.708,0,0,1-.038-3.192" transform="translate(-20.111 -162.9)" fill="#fefefe"/>
        <path id="Trazado_592108" data-name="Trazado 592108" d="M50.813,203.627a8.226,8.226,0,0,0,2.089.051c.023,0,.044-.009.067-.014l.145-.147-2.416-.049a.7.7,0,0,1-.058.055.615.615,0,0,0,.174.1" transform="translate(-40.488 -162.682)" fill="#fefefe"/>
        <path id="Trazado_592109" data-name="Trazado 592109" d="M70.756,212.713a22.709,22.709,0,0,0,.038,3.192c.043.072.092.138.137.208.015-.016.029-.032.047-.047l-.05-3.629-.15.148a1,1,0,0,0-.021.129" transform="translate(-56.542 -169.853)" fill="#fefefe"/>
        <path id="Trazado_592110" data-name="Trazado 592110" d="M33.322,209.8c-.017.724,0,1.448-.009,2.172-.014.8-.076.878-.845.882-2.5.012-4.993,0-7.489.011-.576,0-.8-.22-.792-.794.012-2.5,0-4.993.01-7.489,0-.762.085-.833.885-.843,1.1-.014,2.2.005,3.3-.009a1.259,1.259,0,0,0,.919-.2.784.784,0,0,1-.062-.054c-1.582.009-3.164.03-4.746.014-.423,0-.546.111-.543.54q.028,4.268,0,8.536c0,.423.111.546.539.543q4.268-.028,8.536,0c.423,0,.551-.111.544-.54-.02-1.183,0-2.367.014-3.55l-.046-.069a1.144,1.144,0,0,0-.21.854" transform="translate(-19.145 -162.685)" fill="#fefefe"/>
        <path id="Trazado_592111" data-name="Trazado 592111" d="M71.777,230.586l.046.069c0-.039,0-.078,0-.116-.018.015-.031.032-.047.048" transform="translate(-57.389 -184.327)" fill="#fefefe"/>
        <path id="Trazado_592112" data-name="Trazado 592112" d="M50.449,203.468h-.12a.76.76,0,0,0,.062.054.7.7,0,0,0,.058-.055" transform="translate(-40.24 -162.682)" fill="#fefefe"/>
        <path id="Trazado_592113" data-name="Trazado 592113" d="M43.807,19.711c-1.246,1.26-2.506,2.507-3.755,3.765-.564.567-.558.632,0,1.207.1.107.221.2.316.319.371.451.7.426,1.111.006,1.254-1.287,2.532-2.552,3.81-3.815.222-.219.4-.531.783-.51,1.081-1.1,2.157-2.2,3.243-3.3,1.244-1.254,1.234-1.236-.035-2.509-.352-.353-.54-.334-.879.01-1.343,1.365-2.719,2.7-4.082,4.042.019.384-.292.561-.512.783" transform="translate(-31.687 -11.689)" fill="#8cbe00"/>
        <path id="Trazado_592114" data-name="Trazado 592114" d="M40.183,39.99c-1.261,1.27-1.248,1.251-.017,2.506.371.378.569.362.932-.006,1.535-1.559,3.1-3.084,4.661-4.622-.385-.021-.561.291-.783.51-1.278,1.264-2.556,2.528-3.81,3.815-.409.42-.739.444-1.111-.006-.095-.115-.212-.212-.316-.319-.558-.575-.564-.64,0-1.207,1.249-1.258,2.509-2.5,3.755-3.765.219-.222.531-.4.511-.783q-1.911,1.939-3.822,3.877" transform="translate(-31.374 -28.874)" fill="#8cbe00"/>
        <path id="Trazado_592115" data-name="Trazado 592115" d="M43.807,104.835c-1.246,1.26-2.506,2.507-3.755,3.765-.563.567-.557.632,0,1.207.1.107.221.2.316.319.371.451.7.425,1.111.005,1.254-1.287,2.532-2.551,3.81-3.815.2-.2.363-.466.672-.505a2.239,2.239,0,0,1,.56-.735c1.075-1.076,2.141-2.162,3.233-3.222.39-.379.4-.651.009-1.048-.957-.961-.94-.978-1.89-.028l-2.857,2.857a2.091,2.091,0,0,1-.707.527c-.035.311-.306.475-.5.674" transform="translate(-31.687 -80.015)" fill="#8cbe00"/>
        <path id="Trazado_592116" data-name="Trazado 592116" d="M62.967,102.828a2.09,2.09,0,0,0,.707-.527l2.857-2.857c.95-.95.933-.933,1.89.028.395.4.381.669-.009,1.048-1.092,1.06-2.158,2.146-3.233,3.222a2.241,2.241,0,0,0-.56.735.6.6,0,0,1,.111-.006c1.081-1.1,2.158-2.2,3.244-3.3,1.243-1.253,1.233-1.235-.039-2.51-.353-.354-.542-.332-.88.012-1.344,1.365-2.72,2.7-4.083,4.043a.6.6,0,0,1,0,.11" transform="translate(-50.345 -78.682)" fill="#8cbe00"/>
        <path id="Trazado_592117" data-name="Trazado 592117" d="M44.966,122.616c-1.278,1.264-2.556,2.528-3.81,3.815-.408.419-.739.446-1.111-.005-.095-.115-.212-.212-.316-.319-.558-.576-.564-.64,0-1.207,1.249-1.258,2.509-2.5,3.755-3.765.2-.2.468-.363.5-.674a1.082,1.082,0,0,1-.147.044q-1.834,1.862-3.671,3.722c-1.26,1.269-1.247,1.249-.012,2.507.372.379.571.359.932-.008,1.484-1.506,3-2.983,4.5-4.468a1.06,1.06,0,0,1,.045-.147c-.309.04-.473.308-.672.505" transform="translate(-31.364 -96.314)" fill="#8cbe00"/>
        <path id="Trazado_592118" data-name="Trazado 592118" d="M62.382,120.023a.6.6,0,0,0,0-.11l-.151.154a1.081,1.081,0,0,0,.147-.044" transform="translate(-49.76 -95.876)" fill="#8cbe00"/>
        <path id="Trazado_592119" data-name="Trazado 592119" d="M70.986,128.81l.155-.153a.622.622,0,0,0-.111.006,1.083,1.083,0,0,0-.045.147" transform="translate(-56.757 -102.867)" fill="#8cbe00"/>
        <path id="Trazado_592120" data-name="Trazado 592120" d="M43.807,188.645c-1.246,1.261-2.506,2.507-3.755,3.765-.563.566-.557.632,0,1.207.1.107.221.2.316.319.372.452.7.423,1.111,0,1.254-1.287,2.532-2.551,3.81-3.815.2-.2.365-.465.674-.508a2.157,2.157,0,0,1,.552-.724c1.057-1.059,2.1-2.131,3.181-3.167.431-.414.488-.71.026-1.156-.931-.9-.909-.923-1.836,0Q46.458,186,45.029,187.43a2.041,2.041,0,0,1-.72.54c-.033.312-.3.476-.5.675" transform="translate(-31.688 -147.027)" fill="#8cbe00"/>
        <path id="Trazado_592121" data-name="Trazado 592121" d="M62.962,186.624a2.038,2.038,0,0,0,.72-.54q1.431-1.426,2.857-2.856c.927-.926.9-.9,1.836,0,.462.446.4.742-.027,1.156-1.079,1.036-2.124,2.108-3.181,3.167a2.159,2.159,0,0,0-.551.724.608.608,0,0,1,.108-.007c1.081-1.1,2.157-2.2,3.243-3.3,1.242-1.252,1.231-1.233-.041-2.509-.357-.358-.545-.324-.88.016-1.344,1.364-2.719,2.7-4.082,4.041a.6.6,0,0,1,0,.109" transform="translate(-50.341 -145.681)" fill="#8cbe00"/>
        <path id="Trazado_592122" data-name="Trazado 592122" d="M40.15,210.528c.375.382.573.352.932-.012,1.487-1.508,3-2.987,4.511-4.474a1.014,1.014,0,0,1,.042-.14c-.309.042-.474.31-.674.508-1.278,1.264-2.556,2.528-3.81,3.815-.408.419-.739.447-1.111,0-.095-.115-.212-.212-.316-.319-.558-.575-.564-.641,0-1.207,1.249-1.258,2.509-2.5,3.755-3.765.2-.2.469-.363.5-.675a.98.98,0,0,1-.141.038q-1.838,1.866-3.678,3.729c-1.259,1.268-1.246,1.248-.011,2.507" transform="translate(-31.359 -163.311)" fill="#8cbe00"/>
        <path id="Trazado_592123" data-name="Trazado 592123" d="M62.259,203.859a1.009,1.009,0,0,0,.141-.038.6.6,0,0,0,0-.109l-.145.147" transform="translate(-49.779 -162.877)" fill="#8cbe00"/>
        <path id="Trazado_592124" data-name="Trazado 592124" d="M71.012,212.584l.15-.148a.6.6,0,0,0-.108.007.988.988,0,0,0-.042.14" transform="translate(-56.777 -169.852)" fill="#8cbe00"/>
        <path id="Trazado_592125" data-name="Trazado 592125" d="M110.384,78.668a.935.935,0,0,1-.1.031c-2.092.105-4.185.02-6.277.048-.971.013-1.032.071-1.021,1.006.009.839.081.918.961.923,1.645.009,3.289,0,4.934,0a2.093,2.093,0,0,1,1.025.143.683.683,0,0,1,.079.079.492.492,0,0,1,.109-.092,14.32,14.32,0,0,1,.294-2.142" transform="translate(-82.338 -62.899)" fill="#d6dfee"/>
        <path id="Trazado_592126" data-name="Trazado 592126" d="M108.9,80.2a2.09,2.09,0,0,0-1.025-.143c-1.645-.005-3.289,0-4.934-.005-.881,0-.952-.084-.962-.923-.01-.935.051-.993,1.021-1.006,2.092-.027,4.185.057,6.277-.048a.885.885,0,0,0,.1-.031c0-.044.009-.088.01-.132q-2.953-.012-5.906-.023c-1.757,0-1.729,0-1.757,1.724-.01.581.173.694.714.688,2.168-.023,4.336,0,6.5.011a.461.461,0,0,1,.032-.033.669.669,0,0,0-.079-.08" transform="translate(-81.34 -62.279)" fill="#d6dfee"/>
        <path id="Trazado_592127" data-name="Trazado 592127" d="M137.9,89.445c0,.006.011.011.016.017l.1-.033c0-.025,0-.05,0-.076a.483.483,0,0,0-.109.093" transform="translate(-110.26 -71.441)" fill="#d6dfee"/>
        <path id="Trazado_592128" data-name="Trazado 592128" d="M137.741,89.847l.048-.017c0-.006-.011-.011-.016-.017a.463.463,0,0,0-.032.033" transform="translate(-110.13 -71.81)" fill="#d6dfee"/>
        <path id="Trazado_592129" data-name="Trazado 592129" d="M102.272,56.321c1.023-.023,2.046-.008,3.07-.008h1.8c1.83,0,1.809,0,1.791-1.844-.005-.49-.177-.57-.608-.564-1.6.022-3.195.009-4.792.009-1.889,0-1.873,0-1.826,1.882.011.446.169.535.568.526" transform="translate(-81.307 -43.099)" fill="#d6dfee"/>
        <path id="Trazado_592130" data-name="Trazado 592130" d="M109.774,161.805a1.577,1.577,0,0,1-1.01.176c-1.669.008-3.338,0-5.007.01-.3,0-.718-.1-.834.306a1.989,1.989,0,0,0,.056,1.458c.093.186.351.162.549.163,1.769.009,3.537,0,5.306.006.541,0,.767-.237.75-.769a3.36,3.36,0,0,1,.07-1.039.456.456,0,0,1,.168-.225c-.03-.018-.047-.04-.043-.067s.013-.054.024-.054h-.012c-.006.012-.009.023-.016.036" transform="translate(-82.203 -129.343)" fill="#d6dfee"/>
        <path id="Trazado_592131" data-name="Trazado 592131" d="M108.589,162.055a3.359,3.359,0,0,0-.07,1.039c.017.532-.209.77-.75.769-1.769,0-3.537,0-5.306-.005-.2,0-.456.023-.549-.163a1.989,1.989,0,0,1-.056-1.458c.116-.408.53-.3.834-.306,1.669-.014,3.338,0,5.007-.01a1.577,1.577,0,0,0,1.01-.176c.007-.012.01-.023.016-.035q-2.693-.008-5.385-.015c-1.959,0-1.949,0-1.8,1.981.024.328.124.424.441.423,2.1-.01,4.2-.016,6.3,0,.431,0,.486-.184.477-.538-.014-.574.011-1.148.019-1.722a.133.133,0,0,1-.016-.012.455.455,0,0,0-.168.225" transform="translate(-81.139 -129.282)" fill="#d6dfee"/>
        <path id="Trazado_592132" data-name="Trazado 592132" d="M137.559,161.824c0,.027.014.049.043.067l.011-.006a.507.507,0,0,1-.03-.115c-.012,0-.02.018-.024.054" transform="translate(-109.985 -129.343)" fill="#d6dfee"/>
        <path id="Trazado_592133" data-name="Trazado 592133" d="M137.793,162.36c0-.006,0-.012,0-.018l-.011.006a.137.137,0,0,0,.016.012" transform="translate(-110.159 -129.8)" fill="#d6dfee"/>
        <path id="Trazado_592134" data-name="Trazado 592134" d="M102.371,140.114c.6-.045,1.2-.01,1.8-.011a9.153,9.153,0,0,0,1.94-.025c1.02-.227.258-1.094.442-1.644.1-.285.2-.772-.464-.74-.846.042-1.7.01-2.544.01-1.8,0-1.781,0-1.78,1.774,0,.467.095.675.61.636" transform="translate(-81.362 -110.091)" fill="#d6dfee"/>
        <path id="Trazado_592135" data-name="Trazado 592135" d="M140.081,78.188a1.217,1.217,0,0,1-.975-.178.358.358,0,0,1-.173.114,3.41,3.41,0,0,1-.3,2.139.479.479,0,0,1,.047-.026,3.709,3.709,0,0,1,2.195.131l.306-1.468h0c0-.018,0-.034.006-.052a.741.741,0,0,1-.111-.013.852.852,0,0,0-.992-.647" transform="translate(-110.842 -62.373)" fill="#c0cee7"/>
        <path id="Trazado_592136" data-name="Trazado 592136" d="M140.1,77.878a.8.8,0,0,0,.074-.068.686.686,0,0,1-.054-.05l-.155.05c.014.038.025.076.036.114a.814.814,0,0,0,.1-.047" transform="translate(-111.905 -62.174)" fill="#c0cee7"/>
        <path id="Trazado_592137" data-name="Trazado 592137" d="M138.542,88.715a.475.475,0,0,0-.046.026l-.034.1,2.27.034.005-.026a3.709,3.709,0,0,0-2.195-.132" transform="translate(-110.707 -70.851)" fill="#c0cee7"/>
        <path id="Trazado_592138" data-name="Trazado 592138" d="M141,77.786a1.217,1.217,0,0,0,.975.178.853.853,0,0,1,.992.647.741.741,0,0,0,.111.013c.1-.767-.293-.969-1.014-.872a5.9,5.9,0,0,1-1.021-.012c-.014.016-.029.03-.044.045" transform="translate(-112.738 -62.149)" fill="#c0cee7"/>
        <path id="Trazado_592139" data-name="Trazado 592139" d="M140.832,77.766l-.1,0a.689.689,0,0,0,.054.05c.015-.015.03-.03.044-.045" transform="translate(-112.523 -62.174)" fill="#c0cee7"/>
        <path id="Trazado_592140" data-name="Trazado 592140" d="M138.758,78.58l-.046.018a14.3,14.3,0,0,0-.294,2.142l.037-.021a3.408,3.408,0,0,0,.3-2.139" transform="translate(-110.666 -62.828)" fill="#c0cee7"/>
        <path id="Trazado_592141" data-name="Trazado 592141" d="M139.956,78.123c-.011-.038-.022-.076-.036-.115,0,.044-.007.088-.01.132l.046-.018" transform="translate(-111.865 -62.371)" fill="#c0cee7"/>
        <path id="Trazado_592142" data-name="Trazado 592142" d="M138.445,89.269c0,.025,0,.05,0,.076l.034-.1-.037.021" transform="translate(-110.693 -71.358)" fill="#c0cee7"/>
        <path id="Trazado_592143" data-name="Trazado 592143" d="M195.426,269.539c-.43,3.139-1.021,6.251-1.521,9.378-.217,1.355-.438,2.709-.68,4.059a1.293,1.293,0,0,0,.417,1.273c.793.759,1.567,1.539,2.33,2.327.351.362.635.391,1,.014.8-.826,1.606-1.64,2.435-2.434a1.369,1.369,0,0,0,.289-1.385q-1.007-5.978-2-11.958a8.287,8.287,0,0,1-.173-1.258.827.827,0,0,1,.02-.112h-2.159c.013.032.029.062.04.095" transform="translate(-154.469 -215.433)" fill="#e63844"/>
        <path id="Trazado_592144" data-name="Trazado 592144" d="M196.4,269.556a8.29,8.29,0,0,0,.173,1.258q1,5.979,2,11.958a1.368,1.368,0,0,1-.289,1.384c-.829.794-1.638,1.608-2.435,2.434-.364.377-.648.349-1-.014-.763-.789-1.537-1.569-2.33-2.327a1.294,1.294,0,0,1-.417-1.273c.242-1.35.464-2.7.681-4.06.5-3.127,1.091-6.24,1.521-9.378-.012-.033-.027-.063-.04-.095h-.095q-1.178,7-2.363,14a.668.668,0,0,0,.223.658c.995.983,1.989,1.967,2.964,2.97.274.282.452.282.726,0,.975-1,1.969-1.986,2.965-2.969a.669.669,0,0,0,.219-.66q-1.192-7-2.362-14h-.119a.805.805,0,0,0-.02.112" transform="translate(-153.348 -215.433)" fill="#e63844"/>
        <path id="Trazado_592145" data-name="Trazado 592145" d="M193.356,235.613a.6.6,0,0,0-.9,0c-.942.772-1.9,1.531-2.851,2.286a2.3,2.3,0,0,1-.876.564,11.137,11.137,0,0,1,1.757,2.014A7.175,7.175,0,0,1,191.8,242.2a2.712,2.712,0,0,1,2.185-.01,1.859,1.859,0,0,1,.451-.656,35.545,35.545,0,0,1,2.635-3.081,5.986,5.986,0,0,1-1.56-1.112c-.736-.55-1.449-1.134-2.155-1.723" transform="translate(-150.896 -188.218)" fill="#fe4d55"/>
        <path id="Trazado_592146" data-name="Trazado 592146" d="M190.237,252.664a11.131,11.131,0,0,0-1.757-2.014c-.021,0-.041.011-.062.014h0l3.054,3.753c.027-.012.054-.021.081-.032a7.175,7.175,0,0,0-1.315-1.721" transform="translate(-150.648 -200.406)" fill="#fe4d55"/>
        <path id="Trazado_592147" data-name="Trazado 592147" d="M215.408,253.666a1.859,1.859,0,0,0-.451.656c.035.015.071.026.107.043l3.054-3.753h0c-.026-.008-.049-.019-.075-.027a35.565,35.565,0,0,0-2.635,3.081" transform="translate(-171.868 -200.354)" fill="#fe4d55"/>
        <path id="Trazado_592148" data-name="Trazado 592148" d="M189.512,236.707c.956-.755,1.909-1.514,2.851-2.286a.6.6,0,0,1,.9,0c.706.589,1.419,1.173,2.155,1.724a5.987,5.987,0,0,0,1.56,1.112l.019-.018q-1.964-1.6-3.926-3.207a.343.343,0,0,0-.516,0c-1.31,1.078-2.628,2.147-3.943,3.219l.023.018a2.3,2.3,0,0,0,.876-.564" transform="translate(-150.806 -187.027)" fill="#fe4d55"/>
        <path id="Trazado_592149" data-name="Trazado 592149" d="M188.457,250.562l-.04.032c.021,0,.041-.01.062-.015l-.022-.018" transform="translate(-150.648 -200.336)" fill="#fe4d55"/>
        <path id="Trazado_592150" data-name="Trazado 592150" d="M230.352,250.512c.025.009.049.02.075.027l-.056-.046-.019.018" transform="translate(-184.177 -200.282)" fill="#fe4d55"/>
        <path id="Trazado_592151" data-name="Trazado 592151" d="M204.055,268.346l.014.032h2.159c0-.014.008-.028.012-.043a2.713,2.713,0,0,0-2.185.01" transform="translate(-163.152 -214.367)" fill="#fe4d55"/>
        <path id="Trazado_592152" data-name="Trazado 592152" d="M214.895,269.274h.119c-.035-.016-.071-.028-.107-.043,0,.014-.009.028-.012.043" transform="translate(-171.819 -215.263)" fill="#fe4d55"/>
        <path id="Trazado_592153" data-name="Trazado 592153" d="M203.732,269.283c-.027.011-.054.02-.081.032h.095l-.014-.032" transform="translate(-162.828 -215.304)" fill="#fe4d55"/>
        <path id="Trazado_592154" data-name="Trazado 592154" d="M153.717,138.164c1.157,1.426,2.293,2.869,3.45,4.295.5.621.508.612,1.026.005.21-.246.4-.507.6-.761-.88-.814-1.5-1.849-2.288-2.739-.329-.371-.613-.781-.932-1.162a1.033,1.033,0,0,1-.293-.582c-.124-1.2-.012-1.326,1.159-1.114a7.987,7.987,0,0,0,5.824-1.241c0-.031,0-.063,0-.094a2.488,2.488,0,0,1,.069-.911,8.92,8.92,0,0,1-2.6,1.122,3.284,3.284,0,0,1-1.777-.017,8.62,8.62,0,0,1-6.48-8.517c0-1.6,0-3.2,0-4.8a1.825,1.825,0,0,1,.084-.806,10,10,0,0,1-1.074.006c-.537-.025-.9.052-1.072.7-.176.679-.778.516-1.291.366a.522.522,0,0,1-.11-.106,4.2,4.2,0,0,0-2.144.767,2.076,2.076,0,0,1-.491.861,3.11,3.11,0,0,0-.36,3.386,3.055,3.055,0,0,0,2.877,1.949,2.274,2.274,0,0,1,2.609,1.727,5.141,5.141,0,0,0,1.791,2.263,1.82,1.82,0,0,1,.794,1.673,16.806,16.806,0,0,1-.125,2.976l-.022.016c.4.078.555.455.777.729" transform="translate(-115.671 -96.623)" fill="#cf8c78"/>
        <path id="Trazado_592155" data-name="Trazado 592155" d="M152.186,144.361l.022-.016a16.808,16.808,0,0,0,.124-2.976,1.82,1.82,0,0,0-.794-1.673,5.142,5.142,0,0,1-1.791-2.263,2.273,2.273,0,0,0-2.609-1.727,3.056,3.056,0,0,1-2.877-1.949,3.11,3.11,0,0,1,.36-3.386,2.076,2.076,0,0,0,.491-.861c-.058.039-.117.077-.174.117-1.638,1.926-1.613,4.012.066,5.476a4.222,4.222,0,0,0,3.23.853.689.689,0,0,1,.837.513,7.746,7.746,0,0,0,2.685,3.689.9.9,0,0,1,.375.824c-.02,1.121-.013,2.242-.017,3.363h0c.026,0,.047.01.071.015" transform="translate(-114.917 -103.549)" fill="#cf8c78"/>
        <path id="Trazado_592156" data-name="Trazado 592156" d="M161.447,121.019c.513.15,1.115.312,1.291-.366.169-.652.535-.729,1.072-.7a9.951,9.951,0,0,0,1.074-.006.707.707,0,0,1,.13-.189c-.55-.008-1.1.012-1.648-.03s-.873.082-.764.719c.071.414-.163.522-.528.49-.223-.02-.449-.018-.674-.025-.021,0-.042,0-.063,0a.518.518,0,0,0,.11.106" transform="translate(-128.996 -95.719)" fill="#cf8c78"/>
        <path id="Trazado_592157" data-name="Trazado 592157" d="M178.677,120.833a1.824,1.824,0,0,0-.084.806c-.007,1.6,0,3.2,0,4.8a8.619,8.619,0,0,0,6.48,8.517,3.284,3.284,0,0,0,1.777.017,8.915,8.915,0,0,0,2.6-1.123,1.238,1.238,0,0,1,.158-.323c-1.269.756-2.592,1.618-4.1,1.3A8.263,8.263,0,0,1,178.816,127c-.091-2.052-.017-4.112-.01-6.169l-.095,0h-.034" transform="translate(-142.789 -96.609)" fill="#cf8c78"/>
        <path id="Trazado_592158" data-name="Trazado 592158" d="M179.067,120.093l.094,0c0-.062,0-.124,0-.185a.715.715,0,0,0-.13.189h.034" transform="translate(-143.145 -95.87)" fill="#cf8c78"/>
        <path id="Trazado_592159" data-name="Trazado 592159" d="M191.029,208.628c-.518.607-.521.616-1.026-.005-1.158-1.426-2.294-2.868-3.451-4.295-.222-.274-.373-.651-.777-.729l-.037.028c1.461,1.817,2.928,3.629,4.376,5.457.288.364.5.439.784.02.264-.388.554-.758.833-1.136-.037-.033-.071-.068-.107-.1-.2.254-.386.515-.6.761" transform="translate(-148.507 -162.787)" fill="#cf8c78"/>
        <path id="Trazado_592160" data-name="Trazado 592160" d="M185.6,203.57l.037-.028a.691.691,0,0,0-.071-.014h0l.035.043" transform="translate(-148.369 -162.729)" fill="#cf8c78"/>
        <path id="Trazado_592161" data-name="Trazado 592161" d="M232.437,185.354a2.488,2.488,0,0,0-.069.911c0,.031,0,.063,0,.094.066-.041.132-.081.2-.124h0l.025-.984-.023.018c-.042.03-.086.057-.129.085" transform="translate(-185.78 -148.117)" fill="#cf8c78"/>
        <path id="Trazado_592162" data-name="Trazado 592162" d="M232.884,184.393l.023-.018q0-.11.006-.219a1.232,1.232,0,0,0-.158.323c.043-.029.087-.055.129-.085" transform="translate(-186.098 -147.241)" fill="#cf8c78"/>
        <path id="Trazado_592163" data-name="Trazado 592163" d="M150.18,55.558a1.215,1.215,0,0,1-.29,1.476l.027.014a1.1,1.1,0,0,1,.165.643c-.005,2.4.062,4.8-.032,7.2a2.2,2.2,0,0,1,2.117-.7.689.689,0,0,1-.1-.394,50.055,50.055,0,0,1,.113-7.013,9.588,9.588,0,0,1,7.006-7.975c-.38.037-.76.076-1.137.141a9.339,9.339,0,0,0-7.385,5.893c-.1.237-.055.666-.461.656l-.019.052h0" transform="translate(-119.844 -39.03)" fill="#383838"/>
        <path id="Trazado_592164" data-name="Trazado 592164" d="M149.955,97.673c.094-2.4.027-4.8.032-7.2a1.1,1.1,0,0,0-.165-.643l-.028-.014-.021.018q0,4.029,0,8.057h0a2.568,2.568,0,0,1,.183-.215" transform="translate(-119.75 -71.81)" fill="#383838"/>
        <path id="Trazado_592165" data-name="Trazado 592165" d="M160.566,56.2a50.052,50.052,0,0,0-.113,7.013.688.688,0,0,0,.1.394c.027.007.054.013.081.022.092-2.541-.211-5.095.167-7.623a9.184,9.184,0,0,1,3.434-5.852,11.055,11.055,0,0,1,4.644-2.077c-.434.067-.872.106-1.309.149a9.588,9.588,0,0,0-7.006,7.975" transform="translate(-128.233 -38.437)" fill="#383838"/>
        <path id="Trazado_592166" data-name="Trazado 592166" d="M151.9,54.134a9.339,9.339,0,0,1,7.385-5.893c.377-.065.757-.1,1.137-.141q.346-.1.7-.176a9.7,9.7,0,0,0-6.443,2.113,10.284,10.284,0,0,0-3.244,4.754c.406.01.359-.419.461-.656" transform="translate(-121.079 -38.315)" fill="#383838"/>
        <path id="Trazado_592167" data-name="Trazado 592167" d="M197.558,47.962h0c-.2-.015-.405-.023-.606-.027q-.358.078-.7.176c.437-.042.875-.082,1.309-.149" transform="translate(-156.91 -38.326)" fill="#383838"/>
        <path id="Trazado_592168" data-name="Trazado 592168" d="M150.117,82.452h0l-.306,1.468.016.008a1.215,1.215,0,0,0,.29-1.476" transform="translate(-119.781 -65.924)" fill="#383838"/>
        <path id="Trazado_592169" data-name="Trazado 592169" d="M149.806,89.782l-.016-.008-.005.026.021-.018" transform="translate(-119.76 -71.779)" fill="#383838"/>
        <path id="Trazado_592170" data-name="Trazado 592170" d="M152.766,125.313a2.2,2.2,0,0,0-2.117.7c0,.019,0,.038,0,.057s-.005.027-.008.041a4.2,4.2,0,0,1,2.144-.767c-.007-.009-.012-.018-.018-.027" transform="translate(-120.444 -100.146)" fill="#383838"/>
        <path id="Trazado_592171" data-name="Trazado 592171" d="M149.953,129.079c0-.019,0-.038,0-.057a2.64,2.64,0,0,0-.183.215h0c.057-.041.116-.079.174-.117,0-.014.006-.027.008-.041" transform="translate(-119.749 -103.159)" fill="#383838"/>
        <path id="Trazado_592172" data-name="Trazado 592172" d="M161.265,125.579c.021,0,.042,0,.063,0-.027-.009-.054-.015-.081-.022.006.009.011.018.018.027" transform="translate(-128.924 -100.385)" fill="#383838"/>
        <path id="Trazado_592173" data-name="Trazado 592173" d="M203.8,192.425a8.069,8.069,0,0,1-4.408.5c-.277-.049-.636-.243-.836.057a1.153,1.153,0,0,0,.009,1.014,2,2,0,0,0,.377.555c.835,1.058,1.685,2.1,2.519,3.163a2.32,2.32,0,0,1,.38.522c1.079-1.164,2-2.46,3.011-3.677a1.956,1.956,0,0,1,.6-.587c-.347-.455-.166-1-.207-1.5a7.484,7.484,0,0,1,.007-.835,3.366,3.366,0,0,1-1.448.786" transform="translate(-158.662 -153.224)" fill="#f1b8a0"/>
        <path id="Trazado_592174" data-name="Trazado 592174" d="M218.416,203.871c-1.014,1.217-1.932,2.514-3.012,3.677a.672.672,0,0,1,.047.169c1.33-1.353,2.4-2.92,3.6-4.382-.014-.017-.026-.034-.039-.051a1.953,1.953,0,0,0-.6.587" transform="translate(-172.226 -162.535)" fill="#f1b8a0"/>
        <path id="Trazado_592175" data-name="Trazado 592175" d="M232.32,191.294c.041.5-.14,1.044.207,1.5.013-.006.025-.014.038-.019q-.02-1.306-.04-2.611a1.478,1.478,0,0,1-.2.3,7.44,7.44,0,0,0-.007.835" transform="translate(-185.741 -152.044)" fill="#f1b8a0"/>
        <path id="Trazado_592176" data-name="Trazado 592176" d="M233.439,203.258h0c0-.023,0-.047,0-.07l-.038.019c.013.017.025.034.04.051" transform="translate(-186.613 -162.458)" fill="#f1b8a0"/>
        <path id="Trazado_592177" data-name="Trazado 592177" d="M198.572,192.021c-1.171-.212-1.283-.091-1.159,1.114a1.034,1.034,0,0,0,.293.582c.319.38.6.791.932,1.161.79.89,1.408,1.925,2.288,2.739h0l.06-.066a2.311,2.311,0,0,0-.38-.522c-.834-1.059-1.684-2.105-2.519-3.163a1.992,1.992,0,0,1-.376-.555,1.152,1.152,0,0,1-.009-1.013c.2-.3.559-.106.835-.057a8.07,8.07,0,0,0,4.408-.5,3.365,3.365,0,0,0,1.448-.786c0-.057,0-.115,0-.172a7.987,7.987,0,0,1-5.824,1.241" transform="translate(-157.81 -152.538)" fill="#f1b8a0"/>
        <path id="Trazado_592178" data-name="Trazado 592178" d="M215.1,224.623h0c.036.034.07.069.107.1a.671.671,0,0,0-.047-.169l-.06.066" transform="translate(-171.985 -179.544)" fill="#f1b8a0"/>
        <path id="Trazado_592179" data-name="Trazado 592179" d="M232.4,190.459a1.484,1.484,0,0,0,.2-.3c-.065.043-.132.083-.2.124,0,.057,0,.115,0,.172" transform="translate(-185.814 -152.044)" fill="#f1b8a0"/>
      </g>
    </g>
  </g>
</svg>
