<svg xmlns="http://www.w3.org/2000/svg" xmlns:xlink="http://www.w3.org/1999/xlink" width="112" height="112" viewBox="0 0 112 112">
  <defs>
    <clipPath id="clip-path">
      <rect id="Rectángulo_300785" data-name="Rectángulo 300785" width="74.855" height="74.822" fill="none"/>
    </clipPath>
  </defs>
  <g id="Grupo_886470" data-name="Grupo 886470" transform="translate(-744 -3433.475)">
    <circle id="Elipse_6595" data-name="Elipse 6595" cx="56" cy="56" r="56" transform="translate(744 3433.475)" fill="#e1fbff"/>
    <g id="Grupo_886050" data-name="Grupo 886050" transform="translate(763 3452.48)">
      <g id="Grupo_886050-2" data-name="Grupo 886050" clip-path="url(#clip-path)">
        <path id="Trazado_600363" data-name="Trazado 600363" d="M53.825,232.008a.384.384,0,0,1-.308,0l.194.125.114-.12" transform="translate(-41.939 -181.812)" fill="#fefefe"/>
        <path id="Trazado_600364" data-name="Trazado 600364" d="M129.42,172.683c-.03.035-.059.071-.09.106h.146a.42.42,0,0,1-.034-.046.408.408,0,0,1-.021-.06" transform="translate(-101.351 -135.325)" fill="#fefefe"/>
        <path id="Trazado_600365" data-name="Trazado 600365" d="M173.113,96.389l-.029-.013c-.014-.008-.026-.017-.038-.025v.092l.068-.055" transform="translate(-135.609 -75.506)" fill="#fefefe"/>
        <path id="Trazado_600366" data-name="Trazado 600366" d="M292.777,113.9l-.023.012.023.015Z" transform="translate(-229.42 -89.256)" fill="#fefefe"/>
        <path id="Trazado_600367" data-name="Trazado 600367" d="M216.252,172.979h-.038a.179.179,0,0,1,.019.028l.019-.028" transform="translate(-169.438 -135.557)" fill="#fefefe"/>
        <path id="Trazado_600368" data-name="Trazado 600368" d="M249.411,173.061h-.1l.059.072c.006-.012.01-.025.016-.037s.016-.024.023-.035" transform="translate(-195.377 -135.621)" fill="#fefefe"/>
        <path id="Trazado_600369" data-name="Trazado 600369" d="M113.538,53.327a.247.247,0,0,1,.038-.108h-.143l.1.108" transform="translate(-88.893 -41.706)" fill="#fefefe"/>
        <path id="Trazado_600370" data-name="Trazado 600370" d="M156.777,173.032c-.007.012-.011.025-.016.037a5.612,5.612,0,0,1,1.563,4.161,5.059,5.059,0,0,1-2.188,3.87,5.151,5.151,0,0,1-6.71-.6c-1.951-2.023-1.937-4.6.135-7.492a.229.229,0,0,0-.019-.028h-9.3l-.059.042v9.407a5.4,5.4,0,0,0-4.7-1.594,5.021,5.021,0,0,0-3.253,1.931,5.16,5.16,0,0,0,.478,6.906c2.046,1.976,4.848,1.936,7.486-.21v9.411l7.755.048,5.173-.032-3.1-3.156a2.717,2.717,0,1,1,3.838-3.838c1.758,1.745,3.517,3.49,5.248,5.262.387.4.6.4,1.027.027a6.642,6.642,0,0,1,4.263-1.681c.564-.022,1.13,0,1.7,0q0-4.719,0-9.437-.009-6.533-.026-13.065H156.8c-.008.012-.016.023-.023.035" transform="translate(-102.766 -135.557)" fill="#ee5249"/>
        <path id="Trazado_600371" data-name="Trazado 600371" d="M198.943,66.448c-.766.348-1.091,1.031-1.636,1.452a8.669,8.669,0,0,0-1.259,1.247,2.949,2.949,0,0,1-3.389,1h0a9.311,9.311,0,0,1-1.671.156,2.759,2.759,0,0,1-1.636-4.608c1.676-1.784,3.435-3.479,5.146-5.225.491-.5.644-.786.1-1.429a6.1,6.1,0,0,1-1.483-4.152c.011-.511,0-1.022,0-1.533-1.451-.009-2.9-.027-4.352-.025q-7.86.007-15.719.026V62.64c.013.008.024.017.038.025l.029.013a5.692,5.692,0,0,1,4.093-1.571,4.959,4.959,0,0,1,3.8,2.005,5.134,5.134,0,0,1-.355,6.794c-1.986,2.052-4.472,2.072-7.563.022V79.14l.008-.007a2.108,2.108,0,0,1,.952-.127q3.637-.006,7.275,0a4.256,4.256,0,0,1,.485.015c.312.036.5.092.576.2h.038l-.019.027c.065.123.008.307-.151.59-.132.235-.3.448-.441.677a4.929,4.929,0,0,0,7.49,6.272,4.859,4.859,0,0,0,.892-6.262c-.238-.389-.785-.784-.59-1.215l-.059-.072h.1c.276-.427.926-.221,1.408-.224,2.263-.015,4.526-.01,6.79,0a1.426,1.426,0,0,1,1.076.228q.024-3.879.048-7.758V66.463l-.023-.015" transform="translate(-135.609 -41.795)" fill="#fec019"/>
        <path id="Trazado_600372" data-name="Trazado 600372" d="M173.245,172.2h9.3c-.079-.106-.265-.162-.576-.2a4.161,4.161,0,0,0-.485-.015q-3.637,0-7.275,0a2.111,2.111,0,0,0-.952.127l-.008.007v.077" transform="translate(-135.765 -134.782)" fill="#fec019"/>
        <path id="Trazado_600373" data-name="Trazado 600373" d="M210.455,180.6a5.152,5.152,0,0,0,6.71.6,5.06,5.06,0,0,0,2.188-3.87,5.613,5.613,0,0,0-1.563-4.161c-.194.431.352.826.59,1.215a4.948,4.948,0,0,1-7.532,6.264,4.921,4.921,0,0,1-.85-6.274c.141-.229.309-.442.441-.677.159-.284.216-.468.151-.59-2.072,2.893-2.086,5.469-.135,7.492" transform="translate(-163.796 -135.657)" fill="#fec019"/>
        <path id="Trazado_600374" data-name="Trazado 600374" d="M257.966,171.85c-2.263-.007-4.526-.012-6.79,0-.483,0-1.132-.2-1.409.224h9.274a1.426,1.426,0,0,0-1.076-.228" transform="translate(-195.733 -134.638)" fill="#fec019"/>
        <path id="Trazado_600375" data-name="Trazado 600375" d="M63.029,71.293a5.182,5.182,0,0,1,6.986.282c1.628,1.629,2.426,4.583-.06,7.488a.391.391,0,0,0,.022.06.4.4,0,0,0,.034.047h9.233a.468.468,0,0,1,.076-.08.888.888,0,0,1-.22-.765q-.018-3.882,0-7.764a2.18,2.18,0,0,1,.038-.4c.073-.381.274-.5.632-.312.286.153.543.35.817.522a4.848,4.848,0,0,0,6.32-.907,4.932,4.932,0,0,0-6.357-7.426c-.369.229-.746.739-1.156.551l-.068.055V62.55c-.408-.262-.222-.873-.225-1.329-.013-2.291-.01-4.583,0-6.875a1.429,1.429,0,0,1,.228-1.077l-7.761-.05H66.569a.247.247,0,0,0-.038.108c.411.425.708.734,1.007,1.039.621.633,1.239,1.268,1.867,1.893a2.893,2.893,0,0,1,.655,3.594h0c.661,1.136.343,2.327-.877,3.277a2.639,2.639,0,0,1-3.2-.153c-1.913-1.655-3.637-3.5-5.42-5.289-.5-.5-.785-.636-1.428-.1a6.226,6.226,0,0,1-4.15,1.482c-.511-.007-1.022,0-1.533,0q0,10.038,0,20.077h9.313c-2.115-3.255-2-6,.267-7.852" transform="translate(-41.886 -41.706)" fill="#87be40"/>
        <path id="Trazado_600376" data-name="Trazado 600376" d="M172.68,172.882h.063l.059-.042c-.018-.012-.031-.026-.047-.039a.476.476,0,0,0-.076.08" transform="translate(-135.323 -135.418)" fill="#87be40"/>
        <path id="Trazado_600377" data-name="Trazado 600377" d="M173.425,90.23a4.932,4.932,0,0,1,6.357,7.426,4.848,4.848,0,0,1-6.32.907c-.274-.172-.531-.37-.817-.523-.358-.191-.559-.069-.632.312a2.163,2.163,0,0,0-.038.4q-.014,3.882,0,7.764a.887.887,0,0,0,.22.765.472.472,0,0,1,.046-.039V98.031c3.09,2.05,5.576,2.03,7.563-.022a5.134,5.134,0,0,0,.355-6.794,4.958,4.958,0,0,0-3.8-2.005,5.691,5.691,0,0,0-4.093,1.571c.41.187.788-.322,1.156-.551" transform="translate(-134.765 -69.899)" fill="#87be40"/>
        <path id="Trazado_600378" data-name="Trazado 600378" d="M171.858,54.529c-.007,2.291-.011,4.583,0,6.875,0,.456-.183,1.067.225,1.329V53.452a1.43,1.43,0,0,0-.228,1.077" transform="translate(-134.649 -41.888)" fill="#87be40"/>
        <path id="Trazado_600379" data-name="Trazado 600379" d="M173.077,172.7v-.077a.472.472,0,0,0-.046.039.56.56,0,0,0,.046.039" transform="translate(-135.598 -135.277)" fill="#87be40"/>
        <path id="Trazado_600380" data-name="Trazado 600380" d="M78.9,165.854c-.007-2.264,0-4.529-.006-6.793a1.709,1.709,0,0,0-.1-.859c-2.929,1.834-5.693,1.782-7.915-1.073a5.107,5.107,0,0,1,.215-6.581,5.254,5.254,0,0,1,3.7-1.935,5.637,5.637,0,0,1,3.972,1.256,1.632,1.632,0,0,0,.128-.958c.008-2.237,0-4.475.006-6.712a2.873,2.873,0,0,1,.1-1.038,1.421,1.421,0,0,1-.729.122q-3.8.009-7.6,0c-.3,0-.675.05-.856-.2H69.67c.031-.035.06-.071.09-.106-.1-.294.177-.557.344-.8a4.8,4.8,0,0,0,.293-5.54,4.927,4.927,0,0,0-8.5,4.993c.189.327.423.624.608.954.224.4.076.6-.344.667a1.084,1.084,0,0,1-.16.02c-2.747.025-5.494.031-8.241,0a.715.715,0,0,1-.511-.209q-.027,3.884-.054,7.769c.009.832.021,1.664.026,2.5s0,1.64,0,2.46l.042.027a.385.385,0,0,0,.308,0c.858-.9,1.726-1.8,2.565-2.722a2.91,2.91,0,0,1,3.7-.771,2.164,2.164,0,0,1,2.581.18c1.57,1.335,1.586,2.954,0,4.583s-3.217,3.252-4.855,4.847c-.463.451-.484.724-.041,1.247a6.417,6.417,0,0,1,1.53,4.139c.008.538,0,1.076,0,1.615a2.316,2.316,0,0,0,.24.024l19.834-.024a1.432,1.432,0,0,1-.226-1.077" transform="translate(-41.691 -103.616)" fill="#0092b9"/>
        <path id="Trazado_600381" data-name="Trazado 600381" d="M131.7,189.825a5.16,5.16,0,0,1-.478-6.906,5.02,5.02,0,0,1,3.253-1.931,5.4,5.4,0,0,1,4.695,1.594v-9.407a.724.724,0,0,1-.114.08,2.879,2.879,0,0,0-.1,1.038c0,2.237,0,4.475-.006,6.712a1.632,1.632,0,0,1-.127.958,5.638,5.638,0,0,0-3.972-1.256,5.254,5.254,0,0,0-3.7,1.935,5.107,5.107,0,0,0-.215,6.581c2.222,2.855,4.986,2.907,7.915,1.073a1.706,1.706,0,0,1,.1.859c0,2.264,0,4.529.006,6.793a1.431,1.431,0,0,0,.227,1.077c0-3.1,0-6.206,0-9.411-2.638,2.146-5.439,2.186-7.486.21" transform="translate(-101.752 -135.71)" fill="#0092b9"/>
        <path id="Trazado_600382" data-name="Trazado 600382" d="M62.2,140.419a1.086,1.086,0,0,0,.16-.02c.42-.066.567-.268.344-.668-.185-.329-.419-.627-.608-.954a4.927,4.927,0,0,1,8.5-4.993,4.8,4.8,0,0,1-.293,5.54c-.167.241-.448.5-.344.8,2.486-2.9,1.689-5.859.06-7.489a5.182,5.182,0,0,0-6.986-.282c-2.268,1.85-2.382,4.6-.267,7.852H53.448a.716.716,0,0,0,.511.21c2.747.036,5.494.029,8.241,0" transform="translate(-41.885 -102.765)" fill="#0092b9"/>
        <path id="Trazado_600383" data-name="Trazado 600383" d="M139.236,173.174H130c.181.251.556.2.856.2q3.8.012,7.6,0a1.421,1.421,0,0,0,.73-.122v0a.489.489,0,0,1,.051-.078" transform="translate(-101.878 -135.71)" fill="#0092b9"/>
        <path id="Trazado_600384" data-name="Trazado 600384" d="M172.493,173.174a.488.488,0,0,0-.051.078v0a.738.738,0,0,0,.114-.08h-.063Z" transform="translate(-135.136 -135.71)" fill="#0092b9"/>
        <path id="Trazado_600385" data-name="Trazado 600385" d="M269.852,7.012c-.736-1.208-.722-.917-1.5-.144-1.376,1.368-2.735,2.752-4.119,4.112-1.582,1.553-3.074,3.159-3.582,5.419a8.457,8.457,0,0,0,1.217,5.4c.265.4.95.656.739,1.205-.159.415-.643.706-.986,1.049-1.428,1.429-2.792,2.931-4.3,4.266a2.806,2.806,0,0,0,.192,4.712,1.741,1.741,0,0,1,.31-.01,2.944,2.944,0,0,0,3.241-1.073c.682-.8,1.528-1.442,2.24-2.216a.654.654,0,0,1,.636-.279.386.386,0,0,1,.116.05l.023-.012v.028a.559.559,0,0,1,.172.447c.045,1.4.06,2.8-.008,4.2a.728.728,0,0,1-.164.365l5.011-.014a3.9,3.9,0,0,0,4.031-4.014c0-2.883.161-5.778-.051-8.646a5.132,5.132,0,0,1,2.181-5.046c.446-.315.378-.578.125-.978-1.855-2.933-3.716-5.864-5.521-8.829m-5.015,22.656a1.19,1.19,0,0,1-1.108-1.31,2.312,2.312,0,0,1,2.13-1.928,1.192,1.192,0,0,1,1.108,1.31,2.311,2.311,0,0,1-2.13,1.928" transform="translate(-200.718 -4.856)" fill="#f4bd99"/>
        <path id="Trazado_600386" data-name="Trazado 600386" d="M262.772,117.419a2.949,2.949,0,0,0,3.389-1,8.692,8.692,0,0,1,1.259-1.247c.546-.42.87-1.1,1.636-1.452a.378.378,0,0,0-.115-.05.653.653,0,0,0-.636.278c-.713.775-1.559,1.417-2.241,2.216a2.944,2.944,0,0,1-3.24,1.073,1.764,1.764,0,0,0-.31.01c.082.059.167.118.257.174h0" transform="translate(-205.722 -89.065)" fill="#f4bd99"/>
        <path id="Trazado_600387" data-name="Trazado 600387" d="M293.034,114.471a.558.558,0,0,0-.172-.447v5.014a.727.727,0,0,0,.164-.365c.068-1.4.052-2.8.008-4.2" transform="translate(-229.504 -89.356)" fill="#f4bd99"/>
        <path id="Trazado_600388" data-name="Trazado 600388" d="M225.956,261.583a6.745,6.745,0,0,0-4.824,1.708c-.537.48-.906.235-1.305-.165-1.751-1.753-3.493-3.514-5.257-5.252a2.365,2.365,0,0,0-3.678.123,2.31,2.31,0,0,0,.01,3.217c.882.945,1.829,1.827,2.727,2.756.217.224.539.418.459.808a1.315,1.315,0,0,1,1.7-.082c.627.482,1.351.985,1.2,1.954a1.133,1.133,0,0,1-1.124,1.052c-.969.069-1.449-.643-1.913-1.282a1.266,1.266,0,0,1,.058-1.536.73.73,0,0,1-.184.086c-1.419.138-2.84.049-4.26.056a1.062,1.062,0,0,1-.677-.217q.007,2.507.015,5.015a3.9,3.9,0,0,0,4.024,4.029c2.885,0,5.778.133,8.651-.043,2.079-.127,3.732.316,4.936,2.066.335.487.678.495,1.191.169q4.6-2.923,9.247-5.775c.475-.293.318-.485.02-.78-1.534-1.516-3.075-3.027-4.574-4.577a10.921,10.921,0,0,0-5.366-3.523c-.317.293-.714.2-1.079.2" transform="translate(-163.7 -201.444)" fill="#f4bd99"/>
        <path id="Trazado_600389" data-name="Trazado 600389" d="M232.888,292.742v0l0,.007,0,0" transform="translate(-182.502 -229.407)" fill="#f4bd99"/>
        <path id="Trazado_600390" data-name="Trazado 600390" d="M232.824,292.738H232.8l.011.011.011-.011" transform="translate(-182.437 -229.407)" fill="#f4bd99"/>
        <path id="Trazado_600391" data-name="Trazado 600391" d="M232.852,292.774h0l0,0-.007,0" transform="translate(-182.477 -229.432)" fill="#f4bd99"/>
        <path id="Trazado_600392" data-name="Trazado 600392" d="M229.454,260.628a6.64,6.64,0,0,0-4.263,1.681c-.425.377-.641.369-1.027-.027-1.731-1.772-3.49-3.517-5.248-5.262a2.717,2.717,0,1,0-3.838,3.838l3.1,3.156h.023v0h0c.079-.39-.243-.584-.46-.808-.9-.929-1.845-1.811-2.727-2.756a2.31,2.31,0,0,1-.01-3.217,2.365,2.365,0,0,1,3.678-.123c1.765,1.738,3.507,3.5,5.258,5.252.4.4.768.645,1.3.165a6.746,6.746,0,0,1,4.824-1.708c.366.008.762.1,1.079-.2-.565,0-1.131-.018-1.695,0" transform="translate(-167.813 -200.682)" fill="#f4bd99"/>
        <path id="Trazado_600393" data-name="Trazado 600393" d="M213.827,292.933a.721.721,0,0,0,.184-.086c.022-.032.043-.065.067-.1h0l-.011-.011-5.173.032a1.063,1.063,0,0,0,.677.217c1.42-.007,2.841.083,4.26-.056" transform="translate(-163.699 -229.408)" fill="#f4bd99"/>
        <path id="Trazado_600394" data-name="Trazado 600394" d="M21.977,13.7c.367-.263.792-.806,1.077-.739.431.1.773.615,1.133.973,1.435,1.426,2.861,2.86,4.293,4.289,1.693,1.69,3.025,1.685,4.667-.014a1.164,1.164,0,0,1-.025-.129,2.2,2.2,0,0,1,.124-.713,2.448,2.448,0,0,0-.479-2.2,29.348,29.348,0,0,0-2.429-2.59,3.492,3.492,0,0,1-.576-.672.5.5,0,0,1-.078-.287l-.1-.108h.143a.308.308,0,0,1,.273-.13,17.17,17.17,0,0,1,4.721.13q0-2.507-.01-5.013a3.893,3.893,0,0,0-4.017-4.028c-2.776,0-5.56-.137-8.324.042-2.209.143-4.008-.275-5.291-2.182-.269-.4-.555-.426-1-.145Q11.437,3.13,6.758,6c-.546.335-.317.539-.018.837,1.548,1.539,3.126,3.051,4.622,4.639a10.432,10.432,0,0,0,5.215,3.458,8,8,0,0,0,5.4-1.23m5.895-5.082a2.294,2.294,0,0,1,1.976,2.083,1.187,1.187,0,0,1-1.262,1.155,2.293,2.293,0,0,1-1.976-2.083,1.188,1.188,0,0,1,1.262-1.155" transform="translate(-5.037 0)" fill="#f4bd99"/>
        <path id="Trazado_600395" data-name="Trazado 600395" d="M114.366,52.257a.308.308,0,0,0-.273.13h4.993a17.17,17.17,0,0,0-4.721-.13" transform="translate(-89.41 -40.874)" fill="#f4bd99"/>
        <path id="Trazado_600396" data-name="Trazado 600396" d="M114.568,54.679A29.378,29.378,0,0,1,117,57.269a2.448,2.448,0,0,1,.48,2.2,2.2,2.2,0,0,0-.124.713,1.175,1.175,0,0,0,.025.129c.022-.023.043-.042.065-.065h0a2.893,2.893,0,0,0-.655-3.594c-.629-.625-1.246-1.26-1.867-1.893-.3-.3-.6-.614-1.007-1.039a.5.5,0,0,0,.078.287,3.492,3.492,0,0,0,.576.672" transform="translate(-89.268 -42.098)" fill="#f4bd99"/>
        <path id="Trazado_600397" data-name="Trazado 600397" d="M13.056,220.884c-.348-.374.043-.522.221-.7,1.649-1.665,3.311-3.317,4.966-4.976s1.653-3.136-.035-4.688c-.04.01-.079.023-.119.03a2.483,2.483,0,0,1-.792-.137,2.387,2.387,0,0,0-2.178.554c-.967.817-1.874,1.7-2.77,2.59a1.7,1.7,0,0,1-.464.4l-.114.12-.194-.125c-.01,0-.02-.005-.031-.011-.289-.145-.223-.523-.226-.814-.011-1.13-.008-2.261,0-3.391a1.159,1.159,0,0,1,.191-.768q-2.506,0-5.011,0a3.9,3.9,0,0,0-4.026,4.022c0,2.775-.141,5.56.043,8.323.147,2.213-.284,4-2.182,5.29-.4.268-.43.553-.147,1Q3.128,232.24,6,236.918c.333.542.535.325.837.022,1.615-1.624,3.2-3.281,4.867-4.849A9.842,9.842,0,0,0,14.92,227.1a7.638,7.638,0,0,0-1.864-6.215m-3.235-3.818a1.184,1.184,0,0,1-1.2-1.219,2.579,2.579,0,0,1,1.488-1.941,1.234,1.234,0,0,1,1.459.342,1.131,1.131,0,0,1,.3.8,2.311,2.311,0,0,1-2.044,2.02" transform="translate(0 -163.762)" fill="#f4bd99"/>
        <path id="Trazado_600398" data-name="Trazado 600398" d="M52.3,213.13c0,.291-.063.668.226.813.011.005.021.006.031.011l-.042-.027c0-.82,0-1.64,0-2.46s-.017-1.664-.026-2.5a1.159,1.159,0,0,0-.191.767c-.006,1.131-.009,2.261,0,3.392" transform="translate(-40.982 -163.762)" fill="#f4bd99"/>
        <path id="Trazado_600399" data-name="Trazado 600399" d="M55.406,217.689c.9-.893,1.8-1.773,2.77-2.59a2.387,2.387,0,0,1,2.178-.554,2.48,2.48,0,0,0,.791.137c.041-.008.08-.02.119-.03-.019-.018-.036-.035-.056-.053a2.91,2.91,0,0,0-3.7.771c-.839.922-1.708,1.817-2.565,2.722a1.7,1.7,0,0,0,.464-.4" transform="translate(-43.056 -167.895)" fill="#f4bd99"/>
        <path id="Trazado_600400" data-name="Trazado 600400" d="M250.34,54.454a6.571,6.571,0,0,0,1.555,4.631c.483.582.3,1.006-.158,1.462-1.372,1.366-2.736,2.741-4.111,4.105a15.251,15.251,0,0,0-1.223,1.393,2.282,2.282,0,0,0-.267,2.71,2.517,2.517,0,0,0,2.556,1.348c.185-.016.368-.056.552-.086a2.771,2.771,0,0,1-.6-4.369c1.57-1.589,3.157-3.161,4.735-4.742.152-.152.295-.316.458-.455.446-.377.5-.7.092-1.21a7.346,7.346,0,0,1-1.559-5.368.8.8,0,0,1,.192-.518l-2.425.021a1.346,1.346,0,0,1,.2,1.078" transform="translate(-192.63 -41.813)" fill="#f9ab2b"/>
        <path id="Trazado_600401" data-name="Trazado 600401" d="M249.5,54.984a6.1,6.1,0,0,0,1.483,4.152c.544.643.392.927-.1,1.429-1.71,1.746-3.47,3.442-5.146,5.225A2.759,2.759,0,0,0,247.37,70.4a9.311,9.311,0,0,0,1.671-.156h0a1.793,1.793,0,0,1-.436-.15c-.184.03-.367.069-.552.086A2.517,2.517,0,0,1,245.5,68.83a2.283,2.283,0,0,1,.267-2.71,15.314,15.314,0,0,1,1.223-1.393c1.374-1.364,2.738-2.739,4.111-4.1.458-.456.64-.881.158-1.462a6.571,6.571,0,0,1-1.555-4.631,1.344,1.344,0,0,0-.2-1.078c0,.511.01,1.022,0,1.533" transform="translate(-191.991 -41.887)" fill="#f9ab2b"/>
        <path id="Trazado_600402" data-name="Trazado 600402" d="M261.258,59.241c.413.509.354.833-.092,1.21-.164.139-.306.3-.458.455-1.578,1.581-3.165,3.153-4.735,4.742a2.772,2.772,0,0,0,.6,4.369c.059-.01.119-.018.178-.024a2.806,2.806,0,0,1-.192-4.711c1.511-1.336,2.875-2.837,4.3-4.267.343-.343.826-.634.986-1.049.211-.55-.473-.81-.739-1.205a8.457,8.457,0,0,1-1.217-5.4.8.8,0,0,0-.192.518,7.346,7.346,0,0,0,1.559,5.368" transform="translate(-199.958 -41.813)" fill="#f9ab2b"/>
        <path id="Trazado_600403" data-name="Trazado 600403" d="M262.126,130.432c-.09-.057-.175-.115-.257-.174q-.09.01-.178.024a1.787,1.787,0,0,0,.435.15" transform="translate(-205.077 -102.078)" fill="#f9ab2b"/>
        <path id="Trazado_600404" data-name="Trazado 600404" d="M65.236,231.009a6.9,6.9,0,0,0-1.5-4.581c-.523-.673-.514-.87.118-1.512,1.454-1.477,2.927-2.936,4.394-4.4a8.7,8.7,0,0,0,.948-1.1,2.4,2.4,0,0,0,.108-2.928A2.478,2.478,0,0,0,66.4,215.5l-.064.016a2.7,2.7,0,0,1,.608,4.29q-2.195,2.209-4.4,4.406c-.228.229-.459.456-.686.687-.67.679-.659.671-.093,1.442a7.592,7.592,0,0,1,1.442,5.262.677.677,0,0,1-.21.507l2.442-.023a1.383,1.383,0,0,1-.2-1.08" transform="translate(-48.073 -168.775)" fill="#047fa6"/>
        <path id="Trazado_600405" data-name="Trazado 600405" d="M72.737,229.625a6.416,6.416,0,0,0-1.53-4.139c-.442-.523-.421-.8.041-1.247q2.457-2.393,4.855-4.848c1.59-1.629,1.575-3.247,0-4.583a2.164,2.164,0,0,0-2.58-.18h0c.036.012.072.026.108.04l.064-.016a2.478,2.478,0,0,1,2.905.987,2.4,2.4,0,0,1-.108,2.928,8.734,8.734,0,0,1-.948,1.1c-1.467,1.464-2.94,2.923-4.394,4.4-.632.642-.641.839-.118,1.512a6.9,6.9,0,0,1,1.5,4.581,1.382,1.382,0,0,0,.2,1.08c0-.538.008-1.076,0-1.614" transform="translate(-55.374 -167.924)" fill="#047fa6"/>
        <path id="Trazado_600406" data-name="Trazado 600406" d="M60.476,226.891c-.565-.771-.577-.763.093-1.442.227-.23.458-.458.686-.687q2.2-2.2,4.4-4.406a2.7,2.7,0,0,0-.608-4.29l-.052.013c1.688,1.551,1.7,3.018.035,4.687s-3.317,3.312-4.966,4.976c-.178.18-.569.328-.221.7a7.639,7.639,0,0,1,1.864,6.215.677.677,0,0,0,.21-.507,7.592,7.592,0,0,0-1.442-5.262" transform="translate(-46.787 -169.322)" fill="#047fa6"/>
        <path id="Trazado_600407" data-name="Trazado 600407" d="M84.017,215.922c-.035-.014-.071-.028-.108-.04.02.018.036.035.056.053l.052-.013" transform="translate(-65.756 -169.178)" fill="#047fa6"/>
        <path id="Trazado_600408" data-name="Trazado 600408" d="M54.449,65.714a6.7,6.7,0,0,0,4.636-1.561.908.908,0,0,1,1.4.117c1.161,1.161,2.331,2.313,3.479,3.487.623.636,1.3,1.206,1.968,1.793a2.365,2.365,0,0,0,2.9.323,2.47,2.47,0,0,0,1.146-2.845c-.017-.064-.036-.127-.053-.191a2.7,2.7,0,0,1-4.277.588c-1.551-1.538-3.09-3.087-4.636-4.631-1.07-1.068-1.071-1.072-2.293-.275a7.6,7.6,0,0,1-4.863,1.164.756.756,0,0,1-.515-.2q.011,1.215.023,2.429a1.375,1.375,0,0,1,1.08-.2" transform="translate(-41.805 -48.549)" fill="#7ca440"/>
        <path id="Trazado_600409" data-name="Trazado 600409" d="M54.983,72.875a6.225,6.225,0,0,0,4.15-1.483c.644-.537.931-.4,1.428.1,1.783,1.787,3.507,3.634,5.42,5.289a2.639,2.639,0,0,0,3.2.153c1.22-.951,1.538-2.141.877-3.278h0c-.015.047-.032.093-.05.138.017.064.036.128.053.192a2.471,2.471,0,0,1-1.146,2.845,2.365,2.365,0,0,1-2.9-.323c-.666-.587-1.345-1.157-1.968-1.793-1.148-1.174-2.318-2.325-3.479-3.487a.908.908,0,0,0-1.4-.117,6.7,6.7,0,0,1-4.636,1.561,1.374,1.374,0,0,0-1.08.2c.511,0,1.022,0,1.533,0" transform="translate(-41.887 -55.509)" fill="#7ca440"/>
        <path id="Trazado_600410" data-name="Trazado 600410" d="M58.724,60.913c1.222-.8,1.224-.793,2.293.276,1.546,1.543,3.085,3.093,4.636,4.631a2.7,2.7,0,0,0,4.277-.588c-.006-.024-.009-.049-.015-.073-1.642,1.7-2.974,1.7-4.667.014-1.432-1.429-2.858-2.863-4.293-4.289-.36-.358-.7-.871-1.133-.973-.285-.067-.71.475-1.077.739a7.994,7.994,0,0,1-5.4,1.23.754.754,0,0,0,.515.2,7.6,7.6,0,0,0,4.863-1.164" transform="translate(-41.805 -46.945)" fill="#7ca440"/>
        <path id="Trazado_600411" data-name="Trazado 600411" d="M129.947,84.025c.019-.045.035-.091.05-.138-.022.023-.043.043-.065.065.005.024.008.049.015.073" transform="translate(-101.823 -65.739)" fill="#7ca440"/>
        <path id="Trazado_600412" data-name="Trazado 600412" d="M293.388,99.716a2.312,2.312,0,0,0-2.13,1.928,1.19,1.19,0,0,0,1.108,1.31,2.311,2.311,0,0,0,2.13-1.928,1.192,1.192,0,0,0-1.108-1.31" transform="translate(-228.246 -78.142)" fill="#eb917f"/>
        <path id="Trazado_600413" data-name="Trazado 600413" d="M232.577,292.529a2.046,2.046,0,0,0,.832,2.322,1.163,1.163,0,0,0,1.605-.013,1.178,1.178,0,0,0-.045-1.548,2.059,2.059,0,0,0-2.378-.82.575.575,0,0,1-.011.057l0,0" transform="translate(-182.204 -229.131)" fill="#eb917f"/>
        <path id="Trazado_600414" data-name="Trazado 600414" d="M232.845,292.837a.575.575,0,0,0,.01-.057h0c0,.02-.008.039-.012.059l0,0" transform="translate(-182.469 -229.44)" fill="#eb917f"/>
        <path id="Trazado_600415" data-name="Trazado 600415" d="M233.957,292.285a1.178,1.178,0,0,1,.045,1.548,1.163,1.163,0,0,1-1.605.013,2.045,2.045,0,0,1-.832-2.322.69.69,0,0,1-.061.04,1.266,1.266,0,0,0-.058,1.536c.464.639.944,1.351,1.913,1.282a1.133,1.133,0,0,0,1.124-1.052c.148-.969-.576-1.472-1.2-1.954a1.315,1.315,0,0,0-1.7.082v.006a2.06,2.06,0,0,1,2.379.82" transform="translate(-181.192 -228.125)" fill="#eb917f"/>
        <path id="Trazado_600416" data-name="Trazado 600416" d="M232.872,292.763h.005v-.005l0,0,0,0" transform="translate(-182.493 -229.422)" fill="#eb917f"/>
        <path id="Trazado_600417" data-name="Trazado 600417" d="M232.9,292.757v-.006h0v.006h0" transform="translate(-182.512 -229.417)" fill="#eb917f"/>
        <path id="Trazado_600418" data-name="Trazado 600418" d="M232.632,292.782h-.005c-.025.032-.045.065-.068.1a.637.637,0,0,0,.061-.039c0-.02.007-.039.012-.059" transform="translate(-182.247 -229.442)" fill="#eb917f"/>
        <path id="Trazado_600419" data-name="Trazado 600419" d="M232.9,292.738" transform="translate(-182.518 -229.407)" fill="#eb917f"/>
        <path id="Trazado_600420" data-name="Trazado 600420" d="M232.859,292.745l0-.007-.011.011.007,0" transform="translate(-182.477 -229.407)" fill="#eb917f"/>
        <path id="Trazado_600421" data-name="Trazado 600421" d="M101.686,43.094a1.187,1.187,0,0,0,1.262-1.155,2.294,2.294,0,0,0-1.976-2.083,1.188,1.188,0,0,0-1.262,1.155,2.294,2.294,0,0,0,1.976,2.083" transform="translate(-78.138 -31.233)" fill="#eb917f"/>
        <path id="Trazado_600422" data-name="Trazado 600422" d="M41.339,231.43a2.579,2.579,0,0,0-1.488,1.941,1.184,1.184,0,0,0,1.2,1.219,2.311,2.311,0,0,0,2.044-2.02,1.132,1.132,0,0,0-.3-.8,1.234,1.234,0,0,0-1.459-.342" transform="translate(-31.23 -181.285)" fill="#eb917f"/>
      </g>
    </g>
  </g>
</svg>
