<svg xmlns="http://www.w3.org/2000/svg" xmlns:xlink="http://www.w3.org/1999/xlink" width="112" height="112" viewBox="0 0 112 112">
  <defs>
    <clipPath id="clip-path">
      <rect id="Rectángulo_300798" data-name="Rectángulo 300798" width="79.325" height="75.832" fill="none"/>
    </clipPath>
  </defs>
  <g id="Grupo_886480" data-name="Grupo 886480" transform="translate(9353.505 6217.361)">
    <circle id="Elipse_6603" data-name="Elipse 6603" cx="56" cy="56" r="56" transform="translate(-9353.505 -6217.361)" fill="#e1fbff"/>
    <g id="Grupo_886072" data-name="Grupo 886072" transform="translate(-9337.505 -6198.361)">
      <g id="Grupo_886072-2" data-name="Grupo 886072" clip-path="url(#clip-path)">
        <path id="Trazado_600867" data-name="Trazado 600867" d="M275.909,199.76h0c-2.813.007-5.626.027-8.438.011-.574,0-.793.135-.849.761a10.62,10.62,0,0,1-6.932,9.313,11.1,11.1,0,0,1-4.069.788c0,1.312.008,2.624,0,3.936a6.226,6.226,0,0,0,6.1,6.1c1.031-.006,1.031,0,1.034,1.024a9.023,9.023,0,0,0,.38,3.58c1.218-1.312,2.387-2.667,3.543-4.031a2.038,2.038,0,0,1,1.727-.8c2.447.025,4.895.012,7.342.009a5.992,5.992,0,0,0,5.918-4.415c.086-.285,0-.7.455-.786V205.2a8.5,8.5,0,0,0-1.292-2.925,6.361,6.361,0,0,0-4.917-2.516" transform="translate(-202.793 -158.477)" fill="#fedf7d"/>
        <path id="Trazado_600868" data-name="Trazado 600868" d="M310.5,275.508a5.992,5.992,0,0,1-5.918,4.415c-2.447,0-4.895.016-7.342-.009a2.039,2.039,0,0,0-1.727.8c-1.156,1.364-2.325,2.719-3.543,4.031.028.066.057.132.088.2,1.229-1.382,2.479-2.747,3.675-4.157a1.521,1.521,0,0,1,1.3-.637q3.829.042,7.659,0a6.079,6.079,0,0,0,5.245-2.878,10.06,10.06,0,0,0,1.02-2.548c-.458.083-.369.5-.455.786" transform="translate(-231.631 -217.947)" fill="#fedf7d"/>
        <path id="Trazado_600869" data-name="Trazado 600869" d="M320,198.872c-2.758,0-5.516-.005-8.274.007a3.407,3.407,0,0,0-.435.025,1.564,1.564,0,0,0,.387.033c2.527-.017,5.054-.011,7.581,0,.273,0,.571-.095.815.122h0a6.362,6.362,0,0,1,4.917,2.516,8.5,8.5,0,0,1,1.292,2.925,5.94,5.94,0,0,0-.724-2.461,6.519,6.519,0,0,0-5.56-3.163" transform="translate(-246.957 -157.773)" fill="#fefefe"/>
        <path id="Trazado_600870" data-name="Trazado 600870" d="M.409,194.938A9.881,9.881,0,0,0,10.2,202.6c1.04,0,1.154.122,1.163,1.153.01,1.106,0,2.213,0,3.319a5.808,5.808,0,0,0,.06,1,2.854,2.854,0,0,0,4.728,1.867l.091-.1c-.1-.495-.531-.857-.617-1.386a35.039,35.039,0,0,1-.128-4.618c-.031-1.014-.007-1.005-.986-1.027a10.278,10.278,0,0,1-7.305-2.976,9.3,9.3,0,0,1-2.866-6.689c-.017-4.3.074-8.6-.026-12.9a10.036,10.036,0,0,1,6.97-9.668,1.994,1.994,0,0,0,.678-.331,25.043,25.043,0,0,0-2.634.055,9.56,9.56,0,0,0-5.692,2.3,9.659,9.659,0,0,0-3.2,5.145c-.069.284.033.7-.435.785V194.3c.411.035.354.4.409.638" transform="translate(0 -135.051)" fill="#dc636e"/>
        <path id="Trazado_600871" data-name="Trazado 600871" d="M78.719,363Z" transform="translate(-62.451 -287.98)" fill="#dc636e"/>
        <path id="Trazado_600872" data-name="Trazado 600872" d="M10.306,295.168c.707,0,.922.178.892.889-.058,1.336-.038,2.676-.009,4.014A2.966,2.966,0,0,0,13.06,303a2.8,2.8,0,0,0,3.208-.54,1.046,1.046,0,0,0-.023-.236l-.091.1a2.854,2.854,0,0,1-4.728-1.867,5.807,5.807,0,0,1-.06-1c0-1.106.007-2.213,0-3.319-.009-1.031-.123-1.152-1.163-1.153a9.881,9.881,0,0,1-9.792-7.66c-.055-.242,0-.6-.408-.638.231.752.4,1.527.7,2.252a9.961,9.961,0,0,0,9.6,6.222" transform="translate(0 -227.445)" fill="#dc636e"/>
        <path id="Trazado_600873" data-name="Trazado 600873" d="M.435,177.487a9.66,9.66,0,0,1,3.2-5.144,9.559,9.559,0,0,1,5.692-2.3,25.1,25.1,0,0,1,2.634-.055c.032-.025.064-.046.1-.074H9.118a9.541,9.541,0,0,0-7.269,4.042A11.863,11.863,0,0,0,0,178.273c.468-.08.366-.5.435-.786" transform="translate(0 -134.797)" fill="#dc636e"/>
        <path id="Trazado_600874" data-name="Trazado 600874" d="M122.7,82.643c.043-1.321.013-1.345,1.321-1.279.006-.009.01-.018.016-.027a3.47,3.47,0,0,1,1.569-.321,10.753,10.753,0,0,0,9.185-8.782,7.966,7.966,0,0,0,.09-.843c.041-.6.139-.873.476-.992a.583.583,0,0,1-.331-.551c-.019-.205-.026-.41-.026-.616,0-3.213-.006-6.426.005-9.639,0-.421-.094-.891.335-1.2a.638.638,0,0,1,.136-.025c-.374-.473-.231-1.048-.239-1.587a11.639,11.639,0,0,0-2.151-7.1,10.7,10.7,0,0,0-8.623-4.511c-2.087-.052-4.176-.024-6.265-.032-1.027.008-2.055-.008-3.08.033-.517.021-.649-.17-.647-.662.014-2.563,0-5.126-.01-7.688-.218.243-.123.54-.124.812-.008,2.286-.015,4.573,0,6.859,0,.484-.12.682-.645.68-3.989-.018-7.979-.009-11.968-.011-.2,0-.418.037-.567-.158h0a6.42,6.42,0,0,1-3.471,3.913A6.284,6.284,0,0,1,95,49.475c-.519-.014-.669.177-.65.671.032.822.018,1.646,0,2.469A1.758,1.758,0,0,1,93.1,54.369a1.92,1.92,0,0,1-2.091-.608,2.791,2.791,0,0,0-.688-.718h0a7.712,7.712,0,0,0-.466,2.629c0,5.016-.08,10.034.023,15.048a10.455,10.455,0,0,0,5.138,8.948,11.807,11.807,0,0,0,4.9,1.651h0c3.122.007,6.245.024,9.367.011a1.341,1.341,0,0,1,1.133.5c1.94,2.239,3.9,4.458,5.853,6.689a1.159,1.159,0,0,1,.4.66c.306-.1.523.116.755.27a3.169,3.169,0,0,0,4.234-.3c.222-.194.414-.445.749-.446.555-1.993.231-4.034.3-6.053M97.944,58.475c-1.109.013-2.218.026-3.326-.006-.481-.014-.623.146-.608.614.031.977.022,1.956,0,2.934-.007.368.122.494.49.488.98-.018,1.96-.014,2.94,0,.9.011,1.409.44,1.423,1.173.015.774-.5,1.229-1.437,1.244-.9.014-1.808.043-2.707-.01-.607-.036-.73.191-.715.746.037,1.389.013,2.78.012,4.169,0,1.12-.418,1.73-1.19,1.748-.794.018-1.234-.614-1.235-1.786q0-2.973,0-5.946c0-2.033,0-4.067,0-6.1,0-1.242.379-1.619,1.609-1.623,1.573,0,3.146-.007,4.719,0,.878.005,1.395.469,1.378,1.2-.016.7-.516,1.141-1.357,1.151M111.426,71.4a1.2,1.2,0,0,1-1.6-.784c-.267-.64-.516-1.288-.738-1.945a.558.558,0,0,0-.619-.436c-1.779.011-3.559.014-5.338,0a.62.62,0,0,0-.688.463c-.221.63-.454,1.257-.706,1.875a1.232,1.232,0,0,1-1.59.843,1.19,1.19,0,0,1-.662-1.654q2.434-6.412,4.895-12.813a1.409,1.409,0,0,1,1.338-.993,1.528,1.528,0,0,1,1.543,1.146q2.072,5.519,4.169,11.028c.209.552.426,1.1.617,1.661a1.207,1.207,0,0,1-.619,1.611m3.66-1.851a7.31,7.31,0,0,1-2.241-7.8,7.563,7.563,0,0,1,6.035-5.56,8.381,8.381,0,0,1,1.23-.125c.2-.015.411,0,.616,0a7.757,7.757,0,0,1,6.263,11.779c-.24.41-.27.658.107.963a4.537,4.537,0,0,1,.811.825,1.185,1.185,0,0,1-1.615,1.7c-.514-.332-.8-1.157-1.379-1.121-.546.034-1.046.6-1.63.819a7.511,7.511,0,0,1-8.2-1.479" transform="translate(-71.26 -29.212)" fill="#f8f5f8"/>
        <path id="Trazado_600875" data-name="Trazado 600875" d="M224.7,288.273a3.169,3.169,0,0,1-4.234.3c-.231-.154-.449-.37-.755-.269a.6.6,0,0,1,0,.062h0c.232,0,.362.167.523.294a3.331,3.331,0,0,0,3.473.518,8.355,8.355,0,0,0,1.718-1.276c.007-.025.013-.051.02-.076-.335,0-.527.251-.748.446" transform="translate(-174.302 -228.344)" fill="#f8f5f8"/>
        <path id="Trazado_600876" data-name="Trazado 600876" d="M269.166,199.337c-.721-.01-1.443-.025-2.163.007a.876.876,0,0,1-.376-.054c-.337.119-.435.4-.476.992a7.972,7.972,0,0,1-.09.843,10.753,10.753,0,0,1-9.185,8.782,3.472,3.472,0,0,0-1.569.321c-.006.009-.01.018-.016.027l.068,0h0a11.1,11.1,0,0,0,4.069-.788,10.62,10.62,0,0,0,6.932-9.313c.056-.625.275-.764.849-.761,2.813.016,5.626,0,8.438-.011h0c-2.16-.118-4.322-.021-6.483-.05" transform="translate(-202.533 -158.104)" fill="#f8f5f8"/>
        <path id="Trazado_600877" data-name="Trazado 600877" d="M308.741,141.094c-.43.31-.334.78-.335,1.2-.012,3.213-.007,6.426-.005,9.639,0,.206.007.411.026.616a.583.583,0,0,0,.331.551,1.2,1.2,0,0,1,.237-.055c-.237-.061-.359-.223-.357-.629.024-3.552.011-7.1.014-10.656,0-.245-.073-.543.309-.6a1.208,1.208,0,0,1-.084-.1.624.624,0,0,0-.137.025" transform="translate(-244.663 -111.915)" fill="#f8f5f8"/>
        <path id="Trazado_600878" data-name="Trazado 600878" d="M310.517,199.134c.72-.031,1.442-.016,2.163-.007,2.161.029,4.323-.068,6.483.05-.244-.217-.542-.121-.815-.122-2.527-.007-5.054-.013-7.581,0a1.577,1.577,0,0,1-.387-.033,1.193,1.193,0,0,0-.237.055.88.88,0,0,0,.375.054" transform="translate(-246.047 -157.894)" fill="#f8f5f8"/>
        <path id="Trazado_600879" data-name="Trazado 600879" d="M60.34,191.678c-1.224-1.385-2.463-2.758-3.645-4.18a1.771,1.771,0,0,0-1.488-.648c-2.624.018-5.248.009-7.871.007a5.792,5.792,0,0,1-1.231-.069q-.6-.055-1.188-.165a19.5,19.5,0,0,1-6.279-.44,10.969,10.969,0,0,1-7.817-10.567q0-3.033-.012-6.066a1.842,1.842,0,0,1-1.063.151,1.636,1.636,0,0,1-.95.554,9.636,9.636,0,0,0-6.674,7.984,7.576,7.576,0,0,0-.065,1.233q0,6.377,0,12.753a9.655,9.655,0,0,0,7.8,9.558,16.892,16.892,0,0,0,2.228.256c1.026.072,1.12.155,1.129,1.211q.012,1.507,0,3.014a4.886,4.886,0,0,0,.529,2.54.957.957,0,0,1,.129.346c1.813-2.067,3.636-4.126,5.419-6.218a2.29,2.29,0,0,1,1.928-.89q5.69.039,11.381,0a11.342,11.342,0,0,0,4.094-.713,9.7,9.7,0,0,0,5.737-6.01c.105-.286.13-.611.4-.82.013-.006.025-.008.038-.014-.914-.87-1.685-1.868-2.518-2.81" transform="translate(-17.496 -134.511)" fill="#e17a66"/>
        <path id="Trazado_600880" data-name="Trazado 600880" d="M78.719,363Z" transform="translate(-62.451 -287.98)" fill="#e17a66"/>
        <path id="Trazado_600881" data-name="Trazado 600881" d="M107.775,290.233c-.266.209-.29.534-.4.82a9.7,9.7,0,0,1-5.737,6.01,11.342,11.342,0,0,1-4.094.713q-5.69.042-11.38,0a2.291,2.291,0,0,0-1.928.89c-1.784,2.092-3.606,4.151-5.419,6.218a.51.51,0,0,1-.1.378c1.942-2.2,3.9-4.39,5.818-6.608a1.782,1.782,0,0,1,1.506-.711c3.949.035,7.9.03,11.848.013a10.023,10.023,0,0,0,7.042-2.7,10.737,10.737,0,0,0,2.927-4.985h0l-.047-.046c-.013.005-.025.007-.038.014" transform="translate(-62.451 -230.242)" fill="#e17a66"/>
        <path id="Trazado_600882" data-name="Trazado 600882" d="M47.35,169.313a1.379,1.379,0,0,1-.094.145,1.843,1.843,0,0,0,1.063-.151c0-.01,0-.02,0-.03a26.441,26.441,0,0,0-4.192.1c1.039-.131,2.075-.037,3.223-.068" transform="translate(-35.008 -134.267)" fill="#e17a66"/>
        <path id="Trazado_600883" data-name="Trazado 600883" d="M32.8,209.37a4.889,4.889,0,0,1-.529-2.54q.012-1.507,0-3.014c-.009-1.056-.1-1.139-1.129-1.211a16.822,16.822,0,0,1-2.228-.256,9.654,9.654,0,0,1-7.8-9.558q0-6.376,0-12.753a7.551,7.551,0,0,1,.065-1.233,9.636,9.636,0,0,1,6.674-7.984,1.637,1.637,0,0,0,.95-.554c-.083,0-.165-.005-.248,0h-.036a2,2,0,0,1-.678.331,10.036,10.036,0,0,0-6.97,9.668c.1,4.3.009,8.6.026,12.9a9.3,9.3,0,0,0,2.866,6.689,10.278,10.278,0,0,0,7.305,2.976c.979.021.955.013.986,1.027a35.109,35.109,0,0,0,.128,4.618c.086.528.513.891.618,1.386l.125-.142a.956.956,0,0,0-.129-.346" transform="translate(-16.56 -135.076)" fill="#e17a66"/>
        <path id="Trazado_600884" data-name="Trazado 600884" d="M78.729,361.167l-.125.143a1.032,1.032,0,0,1,.024.236.51.51,0,0,0,.1-.378" transform="translate(-62.359 -286.527)" fill="#e17a66"/>
        <path id="Trazado_600885" data-name="Trazado 600885" d="M47.252,169.712a1.461,1.461,0,0,0,.094-.145c-1.148.031-2.184-.063-3.223.068h2.941c-.032.028-.064.05-.1.074H47c.082,0,.165,0,.248,0" transform="translate(-35.004 -134.521)" fill="#e17a66"/>
        <path id="Trazado_600886" data-name="Trazado 600886" d="M144.412,252.623a1.341,1.341,0,0,0-1.133-.5c-3.122.013-6.245,0-9.367-.011h0c-.411-.007-.822,0-1.234.007q.584.109,1.188.165a5.807,5.807,0,0,0,1.231.069c2.624,0,5.248.011,7.871-.007a1.77,1.77,0,0,1,1.488.648c1.182,1.422,2.421,2.8,3.646,4.18.833.942,1.6,1.941,2.518,2.81l.043-.016a1.159,1.159,0,0,0-.4-.66c-1.949-2.231-3.913-4.45-5.853-6.689" transform="translate(-105.258 -200.011)" fill="#e17a66"/>
        <path id="Trazado_600887" data-name="Trazado 600887" d="M219.5,290.158l.047.046a.6.6,0,0,0,0-.062l-.043.016" transform="translate(-174.135 -230.18)" fill="#e17a66"/>
        <path id="Trazado_600888" data-name="Trazado 600888" d="M256.228,263.511c.017-.579-.208-.836-.809-.845a6.47,6.47,0,0,1-6.331-6.687c.058-.9,0-1.8.011-2.7a1.641,1.641,0,0,1,.136-.852c-1.081.172-1.14.934-1.092,1.855.064,1.248.03,2.5.009,3.755a2.485,2.485,0,0,1-.483,1.709c.4.159.611.527.9.809a6.792,6.792,0,0,0,4.308,1.818c.925.094.972.189.988,1.106.013.693-.027,1.387.016,2.077a1.777,1.777,0,0,0,2.878,1.544,2.6,2.6,0,0,1-.517-1.667,17.2,17.2,0,0,1-.012-1.926" transform="translate(-196.486 -200.263)" fill="#fecf64"/>
        <path id="Trazado_600889" data-name="Trazado 600889" d="M256.519,295.2a1.777,1.777,0,0,1-2.878-1.544c-.043-.691,0-1.385-.016-2.077-.017-.917-.064-1.012-.988-1.106a6.793,6.793,0,0,1-4.308-1.818c-.285-.282-.5-.651-.9-.809-.021.024-.039.049-.062.073a6.7,6.7,0,0,0,5.427,2.738c.524.009.659.19.641.673-.03.82-.028,1.643,0,2.464a1.907,1.907,0,0,0,1.163,1.841,1.817,1.817,0,0,0,2.075-.285,1.548,1.548,0,0,1-.157-.149" transform="translate(-196.248 -228.358)" fill="#fecf64"/>
        <path id="Trazado_600890" data-name="Trazado 600890" d="M254.639,252.381a1.639,1.639,0,0,0-.136.852c-.007.9.047,1.8-.011,2.7a6.47,6.47,0,0,0,6.331,6.687c.6.008.826.266.809.845a17.2,17.2,0,0,0,.012,1.926,2.6,2.6,0,0,0,.517,1.667l.048-.026.021-.023a9.025,9.025,0,0,1-.38-3.58c0-1.023,0-1.03-1.034-1.025a6.226,6.226,0,0,1-6.1-6.1c0-1.312,0-2.624,0-3.936-.027,0-.051.009-.077.013" transform="translate(-201.889 -200.213)" fill="#fecf64"/>
        <path id="Trazado_600891" data-name="Trazado 600891" d="M291.707,323.2l-.021.023-.048.026a1.572,1.572,0,0,0,.157.149c-.032-.065-.061-.131-.088-.2" transform="translate(-231.367 -256.405)" fill="#fecf64"/>
        <path id="Trazado_600892" data-name="Trazado 600892" d="M247.981,254.146c-.048-.921.011-1.683,1.092-1.855l.01-.017c-1.308-.066-1.278-.042-1.321,1.279-.065,2.019.258,4.059-.3,6.053l.031,0,.011,0a2.486,2.486,0,0,0,.483-1.709c.02-1.252.055-2.506-.009-3.755" transform="translate(-196.324 -200.123)" fill="#fecf64"/>
        <path id="Trazado_600893" data-name="Trazado 600893" d="M247.422,287.82l-.031,0c-.007.025-.013.051-.02.076.023-.023.04-.049.062-.073l-.011,0" transform="translate(-196.249 -228.338)" fill="#fecf64"/>
        <path id="Trazado_600894" data-name="Trazado 600894" d="M255.256,252.352l-.009.017c.026,0,.05-.01.077-.013l-.068,0" transform="translate(-202.497 -200.2)" fill="#fecf64"/>
        <path id="Trazado_600895" data-name="Trazado 600895" d="M251.967.034,234.6.049c-.334,0-.668.013-1,.021a10.047,10.047,0,0,0-3.345,1.484,7.416,7.416,0,0,0-3.148,5.978c-.038,2.739-.015,5.479-.016,8.218,2.045.023,4.091.006,6.136.01a11.158,11.158,0,0,1,11,10.139c.1,1.095.1,2.193.217,3.285a.907.907,0,0,1,.572.389c.358.406.736.793,1.081,1.211a2.283,2.283,0,0,0,2.629.8,2.159,2.159,0,0,0,1.38-2.133c.064-.95.011-1.905.02-2.858.01-1.134.105-1.246,1.238-1.237a7.267,7.267,0,0,0,6.235-3.277,7.926,7.926,0,0,0,1.347-4.68c.035-3.064.048-6.13,0-9.194-.062-3.992-2.311-6.947-6.1-7.793A.857.857,0,0,1,252.2.042h-.01a.843.843,0,0,1-.122.053.5.5,0,0,1-.1-.06" transform="translate(-180.157 -0.027)" fill="#9cc5fa"/>
        <path id="Trazado_600896" data-name="Trazado 600896" d="M347.471.033a.5.5,0,0,0,.1.06A.843.843,0,0,0,347.7.041L347.55.033h-.079" transform="translate(-275.662 -0.026)" fill="#9cc5fa"/>
        <path id="Trazado_600897" data-name="Trazado 600897" d="M319.483.442c3.787.845,6.036,3.8,6.1,7.792.048,3.064.035,6.13,0,9.194a7.924,7.924,0,0,1-1.346,4.68A7.267,7.267,0,0,1,318,25.386c-1.133-.009-1.228.1-1.238,1.237-.008.953.044,1.908-.02,2.858a2.158,2.158,0,0,1-1.38,2.133,2.283,2.283,0,0,1-2.628-.8c-.346-.418-.724-.8-1.082-1.211a.907.907,0,0,0-.572-.389c0,.031.006.062.009.093.464.514.952,1.008,1.387,1.546a2.494,2.494,0,0,0,2.926,1,2.444,2.444,0,0,0,1.567-2.5c.006-1.03.025-2.062-.008-3.091-.017-.513.166-.671.667-.66a7.988,7.988,0,0,0,1.849-.089,7.837,7.837,0,0,0,6.31-7.882c.029-3.194.033-6.389,0-9.583a7.959,7.959,0,0,0-2.418-5.824,8.458,8.458,0,0,0-4.53-2.15.856.856,0,0,0,.649.369" transform="translate(-246.791 -0.058)" fill="#9cc5fa"/>
        <path id="Trazado_600898" data-name="Trazado 600898" d="M233.38,76.316A10.705,10.705,0,0,1,242,80.827a11.64,11.64,0,0,1,2.151,7.1c.008.539-.135,1.115.239,1.588a.491.491,0,0,1,.074,0c-.118-1.091-.121-2.19-.217-3.285a11.158,11.158,0,0,0-11-10.139c-2.046,0-4.091.013-6.137-.01,0,.068,0,.136,0,.2,2.088.008,4.178-.02,6.265.032" transform="translate(-180.179 -60.357)" fill="#9cc5fa"/>
        <path id="Trazado_600899" data-name="Trazado 600899" d="M310.719,141.066a1.222,1.222,0,0,0,.084.1c0-.031-.006-.062-.009-.093a.522.522,0,0,0-.074,0" transform="translate(-246.505 -111.913)" fill="#9cc5fa"/>
        <path id="Trazado_600900" data-name="Trazado 600900" d="M34.654,21.491c.905,1.09,1.825,2.167,2.739,3.249.357-.084.528.22.731.435a1.764,1.764,0,0,0,2.058.645,1.692,1.692,0,0,0,1.038-1.809c-.006-.7.011-1.392,0-2.087-.012-.65.276-.914.928-.938a6.217,6.217,0,0,0,4.546-2.009,5.941,5.941,0,0,0,1.093-1.765c.1-.243.192-.5.465-.57l.174-1.48h0q0-4.167,0-8.334a6.435,6.435,0,0,0-1.6-3.918c-.055,0-.11,0-.165,0A1.535,1.535,0,0,1,46,2.521a5.7,5.7,0,0,0-3.859-1.342q-6.967,0-13.933,0l-.655-.018A7.373,7.373,0,0,0,25.359,2.3a5.485,5.485,0,0,0-2.2,4.289c-.041,2.853.059,5.708-.033,8.559a6.142,6.142,0,0,0,4.312,5.729,1.621,1.621,0,0,1,.308.1c.111,0,.222-.009.333-.017,1.544-.011,3.086-.007,4.629,0a2.118,2.118,0,0,1,1.056.15.636.636,0,0,1,.069.1h0a.843.843,0,0,1,.821.281" transform="translate(-18.343 -0.921)" fill="#b2e49e"/>
        <path id="Trazado_600901" data-name="Trazado 600901" d="M50.45,96.95c-1.543,0-3.085-.007-4.629,0-.111.008-.222.012-.333.017a.418.418,0,0,1,.194.2l5.892.031a.654.654,0,0,0-.069-.1,2.119,2.119,0,0,0-1.056-.15" transform="translate(-36.088 -76.911)" fill="#b2e49e"/>
        <path id="Trazado_600902" data-name="Trazado 600902" d="M45.206.348q6.966.012,13.933,0A5.7,5.7,0,0,1,63,1.69a1.533,1.533,0,0,0,.658.39q.082,0,.165,0c-.034-.041-.067-.082-.1-.122h0A5.957,5.957,0,0,0,59.754.13c-4.887-.035-9.774,0-14.661,0l-.542.2.655.018" transform="translate(-35.344 -0.09)" fill="#b2e49e"/>
        <path id="Trazado_600903" data-name="Trazado 600903" d="M92.19,84.18a2.794,2.794,0,0,1,.688.718,1.92,1.92,0,0,0,2.091.608,1.757,1.757,0,0,0,1.25-1.754c.015-.823.029-1.647,0-2.469-.019-.495.131-.686.65-.672a6.28,6.28,0,0,0,2.692-.558,6.42,6.42,0,0,0,3.471-3.913h0l.008-.071c-.272.068-.363.327-.465.57a5.948,5.948,0,0,1-1.093,1.765,6.218,6.218,0,0,1-4.546,2.009c-.652.025-.94.288-.928.938.013.7,0,1.392,0,2.087a1.692,1.692,0,0,1-1.038,1.809,1.764,1.764,0,0,1-2.058-.645c-.2-.215-.374-.519-.731-.435l.01.012h0" transform="translate(-73.13 -60.349)" fill="#b2e49e"/>
        <path id="Trazado_600904" data-name="Trazado 600904" d="M66.451,98.965a11.71,11.71,0,0,0-1.733,6.752c.029,2.026.01,4.053,0,6.079a1.645,1.645,0,0,1-.209,1.11l-.013.007c.279.285.207.655.209,1,.01,1.723,0,3.446,0,5.169a10.741,10.741,0,0,0,10.721,10.713c.855,0,1.706.029,2.557.075a11.091,11.091,0,0,1-8.436-10.5c-.074-4.991-.031-9.983-.009-14.975a4.509,4.509,0,0,1,.581-2.663.678.678,0,0,1,.087-.027,9.009,9.009,0,0,1-1.686-1.732,7.893,7.893,0,0,0-1.869-1.8h0c.17.3-.056.562-.206.793" transform="translate(-51.169 -77.882)" fill="#cfcde6"/>
        <path id="Trazado_600905" data-name="Trazado 600905" d="M64.364,112.911a1.645,1.645,0,0,0,.209-1.11c.007-2.026.026-4.053,0-6.079A11.711,11.711,0,0,1,66.3,98.97c.15-.231.377-.49.206-.793a13.305,13.305,0,0,0-2.179,8.548c.081,2.054.007,4.115,0,6.172h0c.007.007.012.014.018.021l.013-.007" transform="translate(-51.022 -77.887)" fill="#cfcde6"/>
        <path id="Trazado_600906" data-name="Trazado 600906" d="M94.177,141.895a10.455,10.455,0,0,1-5.138-8.948c-.1-5.014-.027-10.032-.023-15.048a7.712,7.712,0,0,1,.466-2.629h0l-.015-.01a.676.676,0,0,0-.087.027,4.51,4.51,0,0,0-.581,2.663c-.022,4.992-.065,9.984.009,14.975a11.09,11.09,0,0,0,8.436,10.5q.916.05,1.831.122a11.807,11.807,0,0,1-4.9-1.651" transform="translate(-70.422 -91.44)" fill="#cfcde6"/>
        <path id="Trazado_600907" data-name="Trazado 600907" d="M72.24,186.147a19.5,19.5,0,0,0,6.279.44q-.3-.057-.6-.129c-.851-.046-1.7-.076-2.557-.075A10.741,10.741,0,0,1,64.643,175.67c0-1.723.005-3.446,0-5.169,0-.342.07-.711-.209-1l-.018.01q.007,3.033.012,6.066a10.969,10.969,0,0,0,7.817,10.567" transform="translate(-51.1 -134.475)" fill="#cfcde6"/>
        <path id="Trazado_600908" data-name="Trazado 600908" d="M64.428,169.424c-.007-.007-.011-.014-.018-.021v.031l.018-.009" transform="translate(-51.099 -134.394)" fill="#cfcde6"/>
        <path id="Trazado_600909" data-name="Trazado 600909" d="M131.617,251.661h0q-.915-.072-1.831-.122.3.072.6.129c.411-.009.823-.013,1.234-.007" transform="translate(-102.964 -199.555)" fill="#cfcde6"/>
        <path id="Trazado_600910" data-name="Trazado 600910" d="M75.77,98.412a.843.843,0,0,0-.821-.281,7.888,7.888,0,0,1,1.869,1.8,9.015,9.015,0,0,0,1.686,1.732h.006c-.914-1.082-1.834-2.16-2.739-3.249" transform="translate(-59.46 -77.842)" fill="#cfcde6"/>
        <path id="Trazado_600911" data-name="Trazado 600911" d="M92.158,115.255h-.006l.016.01-.01-.012" transform="translate(-73.108 -91.436)" fill="#cfcde6"/>
        <path id="Trazado_600912" data-name="Trazado 600912" d="M12.644,16.811a4.543,4.543,0,0,1-.215-1.52c0-2.781,0-5.562,0-8.342A5.821,5.821,0,0,1,16.717,1.11a6.993,6.993,0,0,0-3.759.723,5.465,5.465,0,0,0-3.03,4.936c-.025,2.727.1,5.459-.036,8.18a6.015,6.015,0,0,0,5.751,5.982c.36.011.72.02,1.081.019a6.114,6.114,0,0,1-4.082-4.138" transform="translate(-7.844 -0.878)" fill="#94d5a3"/>
        <path id="Trazado_600913" data-name="Trazado 600913" d="M14.762,20.142A6.015,6.015,0,0,1,9.01,14.161c.136-2.72.011-5.453.035-8.179a5.465,5.465,0,0,1,3.03-4.936A6.994,6.994,0,0,1,15.835.322,7,7,0,0,1,16.71.132C16.065.126,15.42.111,14.775.114A5.979,5.979,0,0,0,8.81,5.888c-.05,2.859-.042,5.72,0,8.579a6,6,0,0,0,4.082,5.543,9.723,9.723,0,0,0,3.668.337h0a7.361,7.361,0,0,1-.714-.185c-.36,0-.721-.008-1.081-.019" transform="translate(-6.961 -0.09)" fill="#94d5a3"/>
        <path id="Trazado_600914" data-name="Trazado 600914" d="M22.187,6.964c0,2.781,0,5.562,0,8.342a4.543,4.543,0,0,0,.215,1.52,6.115,6.115,0,0,0,4.082,4.138c.173,0,.346,0,.519-.012a1.631,1.631,0,0,0-.308-.1,6.142,6.142,0,0,1-4.313-5.729c.092-2.85-.008-5.706.033-8.559a5.485,5.485,0,0,1,2.2-4.289,7.372,7.372,0,0,1,2.191-1.143l-.334-.007a5.821,5.821,0,0,0-4.286,5.838" transform="translate(-17.6 -0.893)" fill="#94d5a3"/>
        <path id="Trazado_600915" data-name="Trazado 600915" d="M43.27.4l.542-.2a7.013,7.013,0,0,0-.876.191L43.27.4" transform="translate(-34.063 -0.161)" fill="#94d5a3"/>
        <path id="Trazado_600916" data-name="Trazado 600916" d="M43.5,97.066q-.26.011-.519.012c.229.071.466.134.714.185a.419.419,0,0,0-.194-.2" transform="translate(-34.094 -77.006)" fill="#94d5a3"/>
        <path id="Trazado_600917" data-name="Trazado 600917" d="M209.053,7.585l.008,0c.319.308.251.714.253,1.091.011,2.007,0,4.013.008,6.02,0,.946.075,1.008,1.008,1.021.773.011,1.546-.017,2.319.015h.007a2,2,0,0,1-.081-.824c-.006-2.467-.017-4.934,0-7.4A7.89,7.89,0,0,1,218.418.115l.28-.074L216.153.008a.415.415,0,0,1-.272.111c-.054-.034-.107-.064-.159-.092a9.317,9.317,0,0,0-4.287,2.086c-.008.051-.017.1-.025.16a.473.473,0,0,1-.293.167,8.255,8.255,0,0,0-1.957,3.736c-.088.473-.032.943-.107,1.408" transform="translate(-165.85 -0.006)" fill="#80b3fa"/>
        <path id="Trazado_600918" data-name="Trazado 600918" d="M241.48.114A.414.414,0,0,0,241.752,0h-.106l-.31.017-.016,0c.052.027.105.058.16.092" transform="translate(-191.448 -0.001)" fill="#80b3fa"/>
        <path id="Trazado_600919" data-name="Trazado 600919" d="M219.332,10.356c.008-.056.016-.108.025-.16l-.048.039h0l-.184.184-.086.1a.473.473,0,0,0,.293-.167" transform="translate(-173.772 -8.089)" fill="#80b3fa"/>
        <path id="Trazado_600920" data-name="Trazado 600920" d="M212.639,44.8h-.007c-.772-.032-1.546,0-2.319-.015-.933-.014-1-.076-1.008-1.021-.01-2.007,0-4.014-.008-6.02,0-.377.066-.782-.253-1.09l-.008,0c0,.01,0,.021,0,.031h0c.007,2.563.024,5.126.011,7.688,0,.492.129.682.647.662,1.025-.041,2.053-.025,3.08-.033h0a.766.766,0,0,1-.13-.2" transform="translate(-165.833 -29.077)" fill="#80b3fa"/>
        <path id="Trazado_600921" data-name="Trazado 600921" d="M231.9.243a7.89,7.89,0,0,0-5.843,7.388c-.017,2.467-.006,4.934,0,7.4a2.006,2.006,0,0,0,.081.824h.13c0-2.739-.021-5.479.016-8.218a7.415,7.415,0,0,1,3.147-5.977A10.043,10.043,0,0,1,232.781.177l-.6-.008c-.093.025-.186.05-.28.074" transform="translate(-179.336 -0.134)" fill="#80b3fa"/>
        <path id="Trazado_600922" data-name="Trazado 600922" d="M226.616,76.28h0c0-.068,0-.136,0-.2h-.13a.765.765,0,0,0,.13.2" transform="translate(-179.68 -60.353)" fill="#80b3fa"/>
        <path id="Trazado_600923" data-name="Trazado 600923" d="M157.964,36.708c-.469.228-.353.681-.357,1.058-.02,1.957-.006,3.914-.01,5.871,0,1.177-.012,1.187-1.223,1.187q-5.766,0-11.534,0a.641.641,0,0,0-.107.009c-.02.027-.037.054-.06.081.149.2.365.158.568.158,3.989,0,7.978-.007,11.968.011.525,0,.649-.2.645-.68-.019-2.286-.012-4.572,0-6.859,0-.272-.094-.569.124-.812,0-.008-.006-.016-.009-.024" transform="translate(-114.774 -29.122)" fill="#fefefe"/>
        <path id="Trazado_600924" data-name="Trazado 600924" d="M137.4,9.154l.1,0c-.064-.044-.13-.087-.2-.127h0c.035.04.068.081.1.122" transform="translate(-108.925 -7.165)" fill="#fefefe"/>
        <path id="Trazado_600925" data-name="Trazado 600925" d="M144.732,76.024l-.051.01-.008.071c.023-.026.039-.054.06-.08" transform="translate(-114.774 -60.313)" fill="#fefefe"/>
        <path id="Trazado_600926" data-name="Trazado 600926" d="M209,36.673l-.014.007.01.024c0-.01,0-.021,0-.031" transform="translate(-165.796 -29.094)" fill="#fefefe"/>
        <path id="Trazado_600927" data-name="Trazado 600927" d="M220.395,10.11l0-.022c-.017.021-.035.04-.051.062h0l.048-.039" transform="translate(-174.809 -8.003)" fill="#fefefe"/>
        <path id="Trazado_600928" data-name="Trazado 600928" d="M241.3.088l.016,0h-.02l0,0" transform="translate(-191.433 -0.067)" fill="#fefefe"/>
        <path id="Trazado_600929" data-name="Trazado 600929" d="M212.033,144.046c.578-.036.865.789,1.379,1.121a1.185,1.185,0,0,0,1.615-1.7,4.53,4.53,0,0,0-.811-.825c-.378-.306-.347-.553-.107-.963a7.757,7.757,0,0,0-6.263-11.779c-.205,0-.412-.013-.616,0a8.4,8.4,0,0,0-1.23.125,7.563,7.563,0,0,0-6.035,5.56,7.31,7.31,0,0,0,2.241,7.8,7.511,7.511,0,0,0,8.2,1.479c.584-.219,1.085-.785,1.63-.819m-2.2-1.539a5.4,5.4,0,1,1,2.831-6.182,5.256,5.256,0,0,1-.7,4.278c-.439-.515-.792-1-1.213-1.406a1.144,1.144,0,0,0-1.718-.033,1.207,1.207,0,0,0,.054,1.73,10.839,10.839,0,0,0,.931.928c.45.387.141.516-.186.685" transform="translate(-158.379 -103.051)" fill="#f8f5f8"/>
        <path id="Trazado_600930" data-name="Trazado 600930" d="M148.094,141.561q-2.086-5.514-4.169-11.028a1.528,1.528,0,0,0-1.543-1.146,1.408,1.408,0,0,0-1.338.993q-2.449,6.406-4.895,12.813a1.19,1.19,0,0,0,.662,1.654A1.231,1.231,0,0,0,138.4,144c.253-.618.486-1.245.706-1.875a.62.62,0,0,1,.688-.464c1.779.017,3.559.013,5.338,0a.557.557,0,0,1,.619.436c.222.656.471,1.3.738,1.945a1.2,1.2,0,0,0,1.6.785,1.207,1.207,0,0,0,.619-1.611c-.191-.559-.408-1.109-.617-1.662m-3.783-2.251c-1.236-.006-2.473,0-3.709,0-.391,0-.324-.228-.235-.462.671-1.762,1.344-3.523,2.081-5.455.737,1.953,1.41,3.747,2.092,5.537.1.251.084.383-.23.382" transform="translate(-107.925 -102.648)" fill="#f8f5f8"/>
        <path id="Trazado_600931" data-name="Trazado 600931" d="M104.715,130.18c-1.573-.009-3.146-.007-4.719,0-1.23,0-1.606.381-1.609,1.623-.005,2.034,0,4.067,0,6.1q0,2.973,0,5.946c0,1.172.441,1.8,1.235,1.786.772-.018,1.189-.628,1.19-1.748,0-1.39.025-2.781-.012-4.17-.015-.554.108-.782.715-.746.9.054,1.8.025,2.707.01.939-.015,1.451-.47,1.437-1.243-.014-.734-.521-1.162-1.423-1.173-.98-.012-1.96-.016-2.94,0-.367.007-.5-.12-.49-.488.019-.978.027-1.957,0-2.934-.015-.467.127-.628.608-.614,1.108.032,2.218.019,3.326.006.841-.01,1.342-.449,1.357-1.152.016-.734-.5-1.2-1.378-1.2" transform="translate(-78.052 -103.272)" fill="#f8f5f8"/>
        <path id="Trazado_600932" data-name="Trazado 600932" d="M145.593,30.181a6.509,6.509,0,0,0-.054-1.6q0,4.167,0,8.334h0c.127-2.244.029-4.49.051-6.734" transform="translate(-115.462 -22.674)" fill="#f8f5f8"/>
        <path id="Trazado_600933" data-name="Trazado 600933" d="M219.3,150.918a10.807,10.807,0,0,1-.931-.928,1.207,1.207,0,0,1-.054-1.73,1.144,1.144,0,0,1,1.718.033c.421.411.774.891,1.212,1.406a5.257,5.257,0,0,0,.7-4.278,5.4,5.4,0,1,0-2.831,6.182c.327-.169.636-.3.186-.685" transform="translate(-167.652 -112.147)" fill="#f8f5f8"/>
        <path id="Trazado_600934" data-name="Trazado 600934" d="M158.8,148.761c-.738,1.932-1.41,3.693-2.081,5.455-.089.234-.156.463.235.462,1.236,0,2.473,0,3.709,0,.314,0,.325-.131.23-.382-.682-1.79-1.355-3.584-2.092-5.537" transform="translate(-124.274 -118.018)" fill="#f8f5f8"/>
        <path id="Trazado_600935" data-name="Trazado 600935" d="M114.5,142.657v3.463h-2.345v-10.1h3.858a4.2,4.2,0,0,1,2.852.916,3.271,3.271,0,0,1,0,4.812,4.21,4.21,0,0,1-2.852.912Zm0-1.8h1.513a1.54,1.54,0,0,0,1.166-.42,1.5,1.5,0,0,0,.4-1.079,1.56,1.56,0,0,0-.4-1.1,1.518,1.518,0,0,0-1.17-.43H114.5Z" transform="translate(-88.979 -107.907)" fill="#5e54ad"/>
        <path id="Trazado_600936" data-name="Trazado 600936" d="M163.685,141.417a4.748,4.748,0,0,1-.2,1.4,4.207,4.207,0,0,1-.576,1.19l1.513,1.54-1.506,1.159-1.457-1.457a4.1,4.1,0,0,1-.964.343,4.965,4.965,0,0,1-1.082.115,4.119,4.119,0,0,1-4.309-4.288V139.6a4.212,4.212,0,0,1,1.19-3.074,4.564,4.564,0,0,1,6.2,0,4.205,4.205,0,0,1,1.193,3.074Zm-2.338-1.832a2.921,2.921,0,0,0-.51-1.776,1.858,1.858,0,0,0-2.893,0,2.948,2.948,0,0,0-.5,1.78v1.832a2.947,2.947,0,0,0,.51,1.79,1.7,1.7,0,0,0,1.461.694,1.666,1.666,0,0,0,1.429-.694,2.961,2.961,0,0,0,.507-1.79Z" transform="translate(-123.048 -107.347)" fill="#5e54ad"/>
        <path id="Trazado_600937" data-name="Trazado 600937" d="M206.937,142.248v3.872h-2.345v-10.1h3.518a4.369,4.369,0,0,1,2.783.812,2.678,2.678,0,0,1,1.027,2.22,2.211,2.211,0,0,1-.413,1.346,2.927,2.927,0,0,1-1.218.916,2.261,2.261,0,0,1,1.336.878,2.718,2.718,0,0,1,.406,1.53v.638a4.021,4.021,0,0,0,.118.9,1.192,1.192,0,0,0,.409.722v.139h-2.421a1.135,1.135,0,0,1-.361-.756,6.737,6.737,0,0,1-.083-1.02v-.611a1.494,1.494,0,0,0-.382-1.1,1.515,1.515,0,0,0-1.117-.382Zm0-1.8h1.186a1.614,1.614,0,0,0,1.082-.323,1.156,1.156,0,0,0,.375-.926,1.333,1.333,0,0,0-.385-1,1.484,1.484,0,0,0-1.086-.378h-1.173Z" transform="translate(-162.31 -107.907)" fill="#5e54ad"/>
        <path id="Trazado_600938" data-name="Trazado 600938" d="M252.477,142.882a1.008,1.008,0,0,0-.354-.829,4.594,4.594,0,0,0-1.284-.614,9.739,9.739,0,0,1-2.793-1.3,2.342,2.342,0,0,1-.913-1.988A2.437,2.437,0,0,1,248.2,136.1a5.116,5.116,0,0,1,5.482.024,2.622,2.622,0,0,1,1.02,2.279l-.014.042h-2.276a1.274,1.274,0,0,0-.389-1.037,1.8,1.8,0,0,0-1.173-.323,1.505,1.505,0,0,0-1.006.312.973.973,0,0,0-.368.77.83.83,0,0,0,.378.711,7.373,7.373,0,0,0,1.412.67,7.527,7.527,0,0,1,2.657,1.27,2.528,2.528,0,0,1,.9,2.054,2.431,2.431,0,0,1-1.041,2.085,4.611,4.611,0,0,1-2.762.753,5.046,5.046,0,0,1-2.9-.808,2.783,2.783,0,0,1-1.155-2.543l.014-.042h2.283a1.572,1.572,0,0,0,.434,1.252,2.006,2.006,0,0,0,1.329.371,1.725,1.725,0,0,0,1.1-.292.935.935,0,0,0,.361-.763" transform="translate(-195.922 -107.348)" fill="#5e54ad"/>
      </g>
    </g>
  </g>
</svg>
