<svg xmlns="http://www.w3.org/2000/svg" xmlns:xlink="http://www.w3.org/1999/xlink" width="112" height="112" viewBox="0 0 112 112">
  <defs>
    <clipPath id="clip-path">
      <rect id="Rectángulo_300788" data-name="Rectángulo 300788" width="71.445" height="71.459" fill="none"/>
    </clipPath>
  </defs>
  <g id="Grupo_886469" data-name="Grupo 886469" transform="translate(-393 -3433)">
    <circle id="Elipse_6594" data-name="Elipse 6594" cx="56" cy="56" r="56" transform="translate(393 3433)" fill="#e1fbff"/>
    <g id="Grupo_886053" data-name="Grupo 886053" transform="translate(413 3454)">
      <g id="Grupo_886053-2" data-name="Grupo 886053" clip-path="url(#clip-path)">
        <path id="Trazado_600728" data-name="Trazado 600728" d="M370.068,9.1a9.382,9.382,0,0,0-8.258-7.627,8.88,8.88,0,0,0-8.094,3.33,9.238,9.238,0,0,0,.443,12.455,8.735,8.735,0,0,0,6.96,2.806,9.127,9.127,0,0,0,8.43-5.833,8.542,8.542,0,0,0,.508-1.807c.045-.218-.039-.545.34-.58V9.614c-.356-.01-.3-.311-.33-.511m-9.016,7.616c-.347.02-.7,0-1.045,0-1.5.006-1.5.006-1.494-1.468,0-.9,0-.9.881-.905.441,0,.883.009,1.324,0a1.187,1.187,0,0,0,1.32-1.132c.03-.746-.4-1.169-1.265-1.245a3.646,3.646,0,0,1-3.47-3.3,3.567,3.567,0,0,1,2.569-3.695,12.574,12.574,0,0,1,3.118-.129.24.24,0,0,1,.271.249c.005.093.006.186.009.278.07,1.841.07,1.84-1.758,1.842-.232,0-.465,0-.7.007a1.119,1.119,0,0,0-1.121,1.036,1.151,1.151,0,0,0,.874,1.256,2.534,2.534,0,0,0,.546.083,3.5,3.5,0,0,1,3.306,3.547,3.536,3.536,0,0,1-3.368,3.573" transform="translate(-298.952 -1.214)" fill="#fee25b"/>
        <path id="Trazado_600729" data-name="Trazado 600729" d="M358.566.312a9.52,9.52,0,0,0,2.151,18.905,9.643,9.643,0,0,0,8.478-7.066c.105-.446.2-.894.3-1.341-.379.035-.3.362-.34.581a8.544,8.544,0,0,1-.508,1.807,9.128,9.128,0,0,1-8.43,5.833,8.735,8.735,0,0,1-6.96-2.806,9.238,9.238,0,0,1-.443-12.455,8.88,8.88,0,0,1,8.094-3.33,9.381,9.381,0,0,1,8.258,7.627c.034.2-.026.5.33.511-.232-.246-.146-.575-.207-.861a9.6,9.6,0,0,0-10.725-7.4" transform="translate(-298.054 -0.177)" fill="#fee25b"/>
        <path id="Trazado_600730" data-name="Trazado 600730" d="M12.207,370.39a9.333,9.333,0,0,0-.109-18.4A9.3,9.3,0,0,0,1.288,361.9a9.422,9.422,0,0,0,7.453,8.441c.258.056.638-.059.719.368h2.232c.013-.359.312-.283.515-.32m1.467-13.959c1.679.03,1.679,0,1.679,1.66v3.061c0,1.391-.016,2.783.009,4.174.008.461-.1.645-.606.646-1.782,0-1.782.025-1.782-1.753,0-2.342.015-4.684-.012-7.026-.006-.548.1-.772.712-.761m-5.455,7.832c0,1.83-.182,1.974-2.042,1.7-.285-.042-.338-.169-.337-.408,0-.93.008-1.859,0-2.789,0-.294.1-.439.4-.409a.454.454,0,0,0,.07,0c1.908-.111,1.908-.111,1.908,1.834Zm3.092,1.706c-1.871.06-1.871.072-1.871-1.8,0-1.6.013-3.2-.008-4.8-.006-.423.125-.549.551-.559,1.836-.041,1.836-.055,1.836,1.769v1.877c0,1-.015,1.993.007,2.989.009.394-.124.506-.515.518" transform="translate(-1.074 -299.251)" fill="#fee25b"/>
        <path id="Trazado_600731" data-name="Trazado 600731" d="M18.97,358.568a9.581,9.581,0,0,0-11.544-7.877,9.53,9.53,0,0,0-2.738,17.488,13.221,13.221,0,0,0,3.7,1.33c-.081-.427-.46-.312-.719-.368A9.422,9.422,0,0,1,.214,360.7a9.3,9.3,0,0,1,10.81-9.914,9.333,9.333,0,0,1,.109,18.4c-.2.037-.5-.038-.515.32a1,1,0,0,1,.246-.111,9.53,9.53,0,0,0,8.106-10.829" transform="translate(0 -298.049)" fill="#fee25b"/>
        <path id="Trazado_600732" data-name="Trazado 600732" d="M356.9,347.867a1.578,1.578,0,0,1,.121-.31v-2.372c-.359-.013-.283-.312-.32-.515a10.524,10.524,0,0,0-20.867.64,10.57,10.57,0,0,0,8.813,11.414c.2.03.5-.04.515.319h2.372a18.385,18.385,0,0,0,3.164-.946,10.627,10.627,0,0,0,6.2-8.231m-9.371,6.115a.632.632,0,0,0,0-.07c-.033-1.718-.236-1.873-2.006-1.618-.318.046-.372.2-.369.464.005.442-.009.884,0,1.325.01.38-.138.491-.511.4a8.238,8.238,0,0,1-6.023-4.979,6.7,6.7,0,0,1-.469-1.553c-.1-.41.116-.4.3-.4a8.118,8.118,0,0,0,1.392-.017c1.145-.217.35-1.132.542-1.7.137-.4-.026-.728-.568-.665a7.277,7.277,0,0,1-.836.005c-.989,0-1.007-.006-.737-.931a8.3,8.3,0,0,1,5.957-5.969c.943-.277.948-.261.949.711,0,1.443,0,1.443,1.414,1.441.959,0,.959,0,.96-.957,0-1.485.015-1.523,1.417-1.031a8.2,8.2,0,0,1,5.51,6.209c.085.353.025.548-.377.526-.046,0-.093,0-.139,0-1.781.052-1.772.052-1.671,1.886.019.351.117.517.486.491.278-.019.558,0,.837,0,1.024,0,1.058.012.744,1a8.34,8.34,0,0,1-6.194,5.9c-.487.126-.657.01-.613-.471" transform="translate(-285.576 -285.584)" fill="#398dcb"/>
        <path id="Trazado_600733" data-name="Trazado 600733" d="M343.437,355.588a10.525,10.525,0,1,1,3.413-20.771,10.459,10.459,0,0,1,8.64,8.717c.037.2-.039.5.32.515a1.656,1.656,0,0,1-.114-.32A10.714,10.714,0,1,0,342.537,355.6c.468.116.943.2,1.415.3-.013-.359-.312-.289-.515-.319" transform="translate(-284.365 -284.448)" fill="#398dcb"/>
        <path id="Trazado_600734" data-name="Trazado 600734" d="M151.251,146.86c-.425-.851-.827-1.714-1.228-2.576a5.388,5.388,0,0,1,1.153-3.081,5.378,5.378,0,0,1,.527-.18c.86-.281,1.716-.574,2.581-.837a.6.6,0,0,0,.508-.681c-.027-1.65-.024-3.3,0-4.95a.592.592,0,0,0-.489-.694c-.692-.2-1.36-.482-2.058-.642a2.008,2.008,0,0,1-1.783-1.646,3.289,3.289,0,0,0-.42-.952.884.884,0,0,1-.006-.916c.4-.787.72-1.614,1.155-2.378a.949.949,0,0,0-.151-1.231,20.974,20.974,0,0,0-2.4-2.523c-1.284-1.145-1.325-1.215-2.828-.383-1.3.723-2.525,1.03-3.841.129a.913.913,0,0,0-.324-.121.821.821,0,0,1-.636-.652c-.281-.908-.613-1.8-.868-2.717a.768.768,0,0,0-.906-.682c-1.113.048-2.231,0-3.346.02-.646.011-1.442-.262-1.894.115a2.861,2.861,0,0,0-.653,1.713,3.327,3.327,0,0,1-2.826,2.95,1.231,1.231,0,0,1-.923-.047c-.833-.409-1.686-.78-2.506-1.213a.755.755,0,0,0-.936.1,19.779,19.779,0,0,0-2.643,2.472c-1.19,1.322-1.29,1.382-.41,2.876a3.641,3.641,0,0,1,.066,4.126,1.37,1.37,0,0,1-.787.694c-.885.278-1.753.616-2.65.847-.569.146-.7.429-.679.975.044,1.091,0,2.184.019,3.276.012.645-.266,1.441.12,1.892a2.914,2.914,0,0,0,1.718.643,3.3,3.3,0,0,1,2.921,2.774,1.374,1.374,0,0,1-.055,1.053c-.406.809-.763,1.642-1.186,2.442a.752.752,0,0,0,.108.934,20.108,20.108,0,0,0,2.473,2.643c1.319,1.19,1.37,1.278,2.882.407a3.609,3.609,0,0,1,4.062-.1,1.429,1.429,0,0,1,.749.823c.289.954.627,1.894.914,2.848a.55.55,0,0,0,.635.468c.836-.026,1.673-.008,2.51-.008s1.674-.017,2.51.008a.548.548,0,0,0,.638-.463c.291-.978.62-1.944.942-2.913a4.812,4.812,0,0,1,3.074-1.441c.108.041.209.1.314.15.818.387,1.642.761,2.451,1.165a.617.617,0,0,0,.751-.067,19.542,19.542,0,0,0,3.592-3.582.71.71,0,0,0,.058-.875m-14.35-.345a9.5,9.5,0,1,1,9.536-9.473,9.5,9.5,0,0,1-9.536,9.473" transform="translate(-101.194 -101.275)" fill="#fe6b6b"/>
        <path id="Trazado_600735" data-name="Trazado 600735" d="M19.08,7.971A9.168,9.168,0,0,0,12.434.462,9.094,9.094,0,0,0,2.708,3.1C-1.4,7.37-.35,14.833,4.733,17.648q.006-1.709.012-3.417a2.228,2.228,0,0,1,2-2.56,3.742,3.742,0,0,1-.655-3.409,3.576,3.576,0,0,1,5.884-1.472c1.3,1.238,1.405,2.978.257,4.884a2.751,2.751,0,0,1,1.386.656,2.193,2.193,0,0,1,.64,1.569c0,1.325,0,2.65.007,3.975a9.452,9.452,0,0,0,4.816-9.9" transform="translate(-0.15 -0.001)" fill="#398dcb"/>
        <path id="Trazado_600736" data-name="Trazado 600736" d="M39.985,51.1c-.01-.93-.013-1.86,0-2.789A2.041,2.041,0,0,0,38.5,46.062c-.612-.185-.432-.527-.236-.9a3.353,3.353,0,0,0-4.218-4.819,3.325,3.325,0,0,0-1.879,3.913,6.046,6.046,0,0,0,.454,1.092c.157.311.086.545-.253.659a2.133,2.133,0,0,0-1.5,2.442c.049.834.018,1.673,0,2.51,0,.269.054.569-.222.764a9.285,9.285,0,0,0,9.531.227c-.256-.24-.193-.558-.2-.852" transform="translate(-26.067 -34.074)" fill="#fe6b6b"/>
        <path id="Trazado_600737" data-name="Trazado 600737" d="M39.533,45.227a2.752,2.752,0,0,0-1.387-.656c1.148-1.906,1.043-3.646-.257-4.884A3.576,3.576,0,0,0,32,41.159a3.742,3.742,0,0,0,.655,3.409,2.228,2.228,0,0,0-2,2.56q-.005,1.709-.012,3.417c.276-.2.217-.5.222-.764.014-.837.044-1.676,0-2.51a2.133,2.133,0,0,1,1.5-2.442c.339-.114.41-.348.253-.659a6.035,6.035,0,0,1-.454-1.092,3.325,3.325,0,0,1,1.879-3.913,3.353,3.353,0,0,1,4.218,4.819c-.2.375-.377.717.235.9a2.041,2.041,0,0,1,1.484,2.245c-.012.93-.009,1.859,0,2.789,0,.294-.06.612.2.852,0-1.325-.012-2.65-.007-3.975a2.193,2.193,0,0,0-.64-1.569" transform="translate(-26.066 -32.897)" fill="#fe6b6b"/>
        <path id="Trazado_600738" data-name="Trazado 600738" d="M163.938,382.32c-.651-.017-.764.21-.752.793a7.356,7.356,0,0,1-7.738,7.507c.138-.161.195-.226.249-.292.358-.439,1.135-.762,1.054-1.262-.076-.469-.759-.826-1.137-1.265-.289-.334-.477-.3-.772.007-1,1.037-2.038,2.039-3.049,3.066a1.2,1.2,0,0,0-.012,1.939c1.027,1.044,2.075,2.068,3.1,3.112.233.236.4.337.66.028a10.706,10.706,0,0,1,1.084-1.084c.278-.243.211-.4-.025-.6-.4-.342-.778-.7-1.166-1.054l.112-.17c.293-.013.585-.024.878-.039a9.752,9.752,0,0,0,9.116-8.94c.121-1.733.12-1.7-1.605-1.743" transform="translate(-128.671 -325.15)" fill="#636363"/>
        <path id="Trazado_600739" data-name="Trazado 600739" d="M232.784,17.165c.5,0,.631-.169.615-.64a7.093,7.093,0,0,1,1.538-4.806,6.862,6.862,0,0,1,6.16-2.736c-.387.5-1.172.864-1.241,1.329-.085.57.79.911,1.181,1.41.227.29.407.27.664.007,1.039-1.065,2.107-2.1,3.147-3.166a1.166,1.166,0,0,0,.006-1.838c-1.037-1.066-2.11-2.1-3.142-3.17-.3-.309-.47-.239-.713.035a7.921,7.921,0,0,1-.889.885c-.364.3-.431.534-.018.849.379.289.719.629,1.076.946l-.121.219c-.316,0-.632-.014-.947,0a9.758,9.758,0,0,0-9.049,8.857c-.134,1.838-.134,1.819,1.734,1.816" transform="translate(-196.458 -2.851)" fill="#636363"/>
        <path id="Trazado_600740" data-name="Trazado 600740" d="M16.1,163.272a7.339,7.339,0,0,1-7.374-7.73c.153.129.217.184.282.238.438.361.765,1.136,1.258,1.061.467-.071.827-.756,1.264-1.137.319-.278.331-.462.012-.769-1.039-1-2.039-2.038-3.067-3.048a1.2,1.2,0,0,0-1.94-.017c-1.045,1.026-2.069,2.074-3.114,3.1-.234.231-.344.393-.032.661a10.737,10.737,0,0,1,1.084,1.084c.239.274.394.221.6-.02.341-.4.7-.781,1.055-1.17l.2.152c0,.138,0,.276,0,.414a9.724,9.724,0,0,0,9.084,9.552c1.6.117,1.552.115,1.616-1.465.031-.756-.218-.915-.925-.907" transform="translate(-2.714 -128.75)" fill="#636363"/>
        <path id="Trazado_600741" data-name="Trazado 600741" d="M383.124,233.452a7.3,7.3,0,0,1,7.18,5.5,4.7,4.7,0,0,1,.162,2.178c-.1-.078-.136-.106-.172-.136-.454-.38-.807-1.179-1.309-1.11-.481.066-.86.782-1.314,1.178-.322.281-.236.458.028.716,1.031,1.007,2.038,2.039,3.064,3.051a1.217,1.217,0,0,0,1.988-.016c.714-.7,1.416-1.412,2.123-2.118,1.413-1.413,1.408-1.407-.146-2.729-.207-.176-.324-.2-.5.007-.359.419-.731.826-1.1,1.238l-.214-.156c0-.136,0-.272,0-.408a9.714,9.714,0,0,0-9.137-9.57c-1.544-.113-1.505-.112-1.56,1.454-.025.72.167.917.905.928" transform="translate(-325.062 -196.482)" fill="#636363"/>
        <path id="Trazado_600742" data-name="Trazado 600742" d="M393.934,28.856a2.531,2.531,0,0,1-.546-.083,1.151,1.151,0,0,1-.874-1.256,1.119,1.119,0,0,1,1.121-1.036c.232-.01.464-.006.7-.007,1.828,0,1.828,0,1.758-1.842,0-.093,0-.186-.009-.278a.24.24,0,0,0-.271-.249,12.567,12.567,0,0,0-3.118.129,3.567,3.567,0,0,0-2.569,3.695,3.646,3.646,0,0,0,3.47,3.3c.865.076,1.3.5,1.265,1.245a1.187,1.187,0,0,1-1.32,1.132c-.441.012-.882,0-1.324,0-.88,0-.88,0-.881.905,0,1.475,0,1.475,1.494,1.468.348,0,.7.017,1.045,0A3.536,3.536,0,0,0,397.24,32.4a3.5,3.5,0,0,0-3.306-3.547" transform="translate(-331.773 -20.471)" fill="#646363"/>
        <path id="Trazado_600743" data-name="Trazado 600743" d="M79.508,390.179c0,1.778,0,1.758,1.782,1.753.511,0,.614-.186.606-.646-.025-1.391-.009-2.783-.009-4.174v-3.061c0-1.659,0-1.629-1.679-1.66-.613-.011-.718.214-.712.761.027,2.342.012,4.684.012,7.026" transform="translate(-67.609 -325.211)" fill="#636363"/>
        <path id="Trazado_600744" data-name="Trazado 600744" d="M58.271,401.92v-1.877c0-1.824,0-1.81-1.836-1.769-.425.009-.556.135-.551.559.021,1.6.008,3.2.008,4.8,0,1.87,0,1.859,1.871,1.8.391-.013.524-.124.515-.518-.023-1-.007-1.993-.007-2.989" transform="translate(-47.528 -338.71)" fill="#636363"/>
        <path id="Trazado_600745" data-name="Trazado 600745" d="M32.325,421.819a.454.454,0,0,1-.07,0c-.3-.03-.407.115-.4.409.01.929.007,1.859,0,2.789,0,.239.052.366.337.408,1.86.271,2.042.128,2.042-1.7v-.07c0-1.945,0-1.945-1.908-1.834" transform="translate(-27.089 -358.71)" fill="#636363"/>
        <path id="Trazado_600746" data-name="Trazado 600746" d="M367.489,361.779c.315-.987.28-1-.744-1-.279,0-.559-.016-.837,0-.368.025-.466-.14-.486-.491-.1-1.834-.11-1.833,1.671-1.886.047,0,.093,0,.14,0,.4.021.462-.173.377-.526a8.2,8.2,0,0,0-5.51-6.209c-1.4-.491-1.415-.454-1.417,1.031,0,.956,0,.956-.96.957-1.414,0-1.414,0-1.414-1.441,0-.973-.005-.988-.948-.711a8.3,8.3,0,0,0-5.957,5.969c-.271.925-.252.93.736.931a7.326,7.326,0,0,0,.836-.005c.542-.062.705.262.569.665-.192.568.6,1.482-.542,1.7a8.137,8.137,0,0,1-1.392.017c-.186,0-.4-.011-.3.4a6.688,6.688,0,0,0,.469,1.552,8.238,8.238,0,0,0,6.023,4.979c.374.09.522-.021.511-.4-.012-.441,0-.883,0-1.325,0-.261.051-.418.369-.464,1.77-.255,1.972-.1,2.005,1.618a.62.62,0,0,1,0,.07c-.044.481.126.6.613.471a8.34,8.34,0,0,0,6.194-5.9m-3.681-4.881c-.361.361-.708.739-1.088,1.08a2.344,2.344,0,0,0-.956,1.946,2.142,2.142,0,0,1-2.34,1.98,2.24,2.24,0,0,1-2.323-2.115,2.237,2.237,0,0,0-.84-1.712c-1.238-1.207-1.208-1.2,0-2.451.419-.435.678-.415,1.035.026.262.323.641.559.868.9.447.674,1.145.595,1.787.691.237.035.353-.2.5-.339.858-.85,1.728-1.69,2.556-2.568.324-.344.5-.3.813.012,1.269,1.273,1.28,1.262-.008,2.55" transform="translate(-298.73 -298.813)" fill="#7ebae5"/>
        <path id="Trazado_600747" data-name="Trazado 600747" d="M184.859,175.424a9.5,9.5,0,1,0,9.49,9.536,9.569,9.569,0,0,0-9.49-9.536m0,15.485c-1.424,0-1.239.211-1.24-1.257,0-1.324-.18-1.1,1.225-1.124,1.21,0,1.215,0,1.208,1.214-.007,1.353.149,1.17-1.193,1.168m.617-4.745c-1.858.043-1.858.059-1.858-1.781,0-1.6.011-3.207-.007-4.811,0-.433.106-.612.582-.622,1.858-.038,1.858-.055,1.858,1.78q0,.941,0,1.882c0,.976-.016,1.953.007,2.928.01.435-.108.612-.582.623" transform="translate(-149.106 -149.192)" fill="#fee25b"/>
        <path id="Trazado_600748" data-name="Trazado 600748" d="M386.265,369.938c-.828.878-1.7,1.718-2.556,2.568-.143.142-.259.374-.5.339-.642-.1-1.34-.017-1.787-.691-.227-.342-.606-.578-.868-.9-.357-.441-.616-.46-1.035-.026-1.207,1.254-1.237,1.245,0,2.452a2.236,2.236,0,0,1,.84,1.712,2.241,2.241,0,0,0,2.323,2.115,2.142,2.142,0,0,0,2.341-1.98,2.343,2.343,0,0,1,.956-1.946c.38-.341.726-.719,1.088-1.08,1.288-1.288,1.277-1.277.008-2.55-.312-.313-.489-.356-.813-.012" transform="translate(-321.991 -314.415)" fill="#398dcb"/>
        <path id="Trazado_600749" data-name="Trazado 600749" d="M233.2,202.615v-1.882c0-1.835,0-1.818-1.858-1.78-.477.01-.587.189-.582.622.017,1.6.007,3.207.007,4.811,0,1.84,0,1.824,1.858,1.781.475-.011.593-.188.582-.623-.023-.976-.007-1.952-.007-2.928" transform="translate(-196.255 -169.195)" fill="#656562"/>
        <path id="Trazado_600750" data-name="Trazado 600750" d="M233.206,264.264c.007-1.214,0-1.214-1.208-1.214-1.405.023-1.225-.2-1.225,1.124,0,1.468-.185,1.254,1.24,1.257,1.343,0,1.186.186,1.193-1.168" transform="translate(-196.258 -223.714)" fill="#696862"/>
      </g>
    </g>
  </g>
</svg>
