<svg xmlns="http://www.w3.org/2000/svg" xmlns:xlink="http://www.w3.org/1999/xlink" width="112" height="112" viewBox="0 0 112 112">
  <defs>
    <clipPath id="clip-path">
      <rect id="Rectángulo_297836" data-name="Rectángulo 297836" width="71.447" height="71.46" fill="none"/>
    </clipPath>
  </defs>
  <g id="Grupo_886470" data-name="Grupo 886470" transform="translate(-397 -9566)">
    <circle id="Elipse_4779" data-name="Elipse 4779" cx="56" cy="56" r="56" transform="translate(397 9566)" fill="#e1fbff"/>
    <g id="Grupo_878991" data-name="Grupo 878991" transform="translate(417 9587)">
      <g id="Grupo_878991-2" data-name="Grupo 878991" clip-path="url(#clip-path)">
        <path id="Trazado_591777" data-name="Trazado 591777" d="M214.14,151.1l.031-.031-.025-.013c0,.015,0,.029-.006.044" transform="translate(-170.1 -119.993)" fill="#fefefe"/>
        <path id="Trazado_591778" data-name="Trazado 591778" d="M16.068,47.431a.638.638,0,0,0,.8-.2c.26-.313.556-.6.837-.891A20.909,20.909,0,0,1,46.337,17.7a1.891,1.891,0,0,0,.871-2.521,10.438,10.438,0,0,1-.143-5.432h0c-1.129-.408-2.258-.819-3.389-1.224a2.437,2.437,0,0,1-1.782-2.49c-.01-1.179.012-2.359-.006-3.539A2.444,2.444,0,0,0,39.4.012q-3.654-.025-7.308,0a2.444,2.444,0,0,0-2.53,2.518c-.013,1.128,0,2.257,0,3.385A2.448,2.448,0,0,1,27.668,8.56a34.137,34.137,0,0,0-5.452,2.258,2.411,2.411,0,0,1-3.147-.479C18.28,9.568,17.511,8.778,16.725,8A2.472,2.472,0,0,0,12.93,8q-2.493,2.457-4.95,4.95a2.459,2.459,0,0,0,0,3.739c.808.824,1.641,1.623,2.441,2.455a2.366,2.366,0,0,1,.454,2.961,35.431,35.431,0,0,0-2.353,5.662,2.387,2.387,0,0,1-2.484,1.784c-1.179.012-2.359-.011-3.539.007A2.438,2.438,0,0,0,.013,32.048q-.026,3.731,0,7.462a2.411,2.411,0,0,0,2.4,2.383c1.179.011,2.359-.008,3.539.005A2.472,2.472,0,0,1,8.521,43.77c.393,1.1.8,2.2,1.205,3.3a12.221,12.221,0,0,1,6.342.362" transform="translate(0 0)" fill="#5264b0"/>
        <path id="Trazado_591779" data-name="Trazado 591779" d="M148.214,116.769a.668.668,0,0,0-.812.231c-.263.312-.563.593-.846.888a17.968,17.968,0,0,1,2.719,7.753,20.679,20.679,0,0,1-6.522,18.16,7.609,7.609,0,0,1-.661.515h0l-.157.135a18.885,18.885,0,0,1-7.992,4.2,20.641,20.641,0,0,1-15.452-1.853c-.179-.1-.343-.218-.514-.328l-.54.431h0a1.35,1.35,0,0,0-.437,1.765,11.454,11.454,0,0,1,.407,1.919h0a13.8,13.8,0,0,1-.167,3.834c1.085.513,2.235.851,3.362,1.251a2.452,2.452,0,0,1,1.783,2.407c.013.281.018.562.027.843a3.589,3.589,0,0,0,3.564,1.557,44.976,44.976,0,0,1,5.14,0,3.517,3.517,0,0,0,3.557-1.556,9.03,9.03,0,0,1,.151-1.7,9.9,9.9,0,0,1-.014-3.563,2.14,2.14,0,0,1,1.606-1.691,34.818,34.818,0,0,0,5.663-2.346,2.487,2.487,0,0,1,3.135.5c.765.758,1.522,1.523,2.285,2.283,1.135,1.131,2.452,1.322,3.61.269a71.346,71.346,0,0,0,5.147-5.17q-1.153-1.179-2.307-2.359a2.4,2.4,0,0,1-.5-3.2,32.059,32.059,0,0,0,2.278-5.422,2.461,2.461,0,0,1,2.621-1.913c1.179-.01,2.358.008,3.537-.005a2.4,2.4,0,0,0,2.367-2.333q.022-3.729,0-7.459a2.451,2.451,0,0,0-2.531-2.519c-1.051-.013-2.1,0-3.153,0a2.6,2.6,0,0,1-2.945-2.116c-.344-1.016-.742-2.014-1.115-3.021a12.542,12.542,0,0,1-6.283-.375" transform="translate(-92.816 -92.712)" fill="#3449a2"/>
        <path id="Trazado_591780" data-name="Trazado 591780" d="M18.061,201.9a12.274,12.274,0,0,0,6.329-8.258.521.521,0,0,1,.07-.22,8.493,8.493,0,0,0-.416-1.875,1.459,1.459,0,0,1,.519-1.869c.029-.023.056-.048.084-.073a16.666,16.666,0,0,0-.541-2.293c-.127-.009-.254-.025-.382-.027-1.484-.023-1.442-.024-1.495-1.547a5.506,5.506,0,0,1,1.462-4.363,4.391,4.391,0,0,1,3.046-1.44,6.41,6.41,0,0,0,3.951-1.423h0a5.851,5.851,0,0,0,1.421-3.84q-.015-.77-.031-1.54h0a8.536,8.536,0,0,1-2.374-2.15c-.3-.436-.535-.439-.929-.041q-5.25,5.3-10.541,10.558a4.234,4.234,0,0,1-.374.315.773.773,0,0,1,.009.129c-.588,1.189-1.055,1.412-2.294,1.09a11.249,11.249,0,0,0-4.85-.322c-.3.053-.652.2-.939-.089h0A12.313,12.313,0,0,0,.538,197.955c.252.882.26.89.892.265l5.736-5.67a.8.8,0,0,1,.788-.345c2.1.012,4.193.026,6.289-.006.532-.008.623.184.618.657-.022,2.071-.015,4.142,0,6.213,0,.357-.032.661-.387.834h0l-3.312,3.39a12.783,12.783,0,0,0,6.9-1.391" transform="translate(-0.06 -135.555)" fill="#fed35a"/>
        <path id="Trazado_591781" data-name="Trazado 591781" d="M48.232,225.839a11.253,11.253,0,0,1,4.85.322c1.238.322,1.706.1,2.294-1.09a.772.772,0,0,0-.009-.128c-.031.025-.063.049-.094.074-.281.3-.577.578-.837.891a.638.638,0,0,1-.8.2,12.221,12.221,0,0,0-6.342-.362c.287.288.636.142.939.089" transform="translate(-37.567 -178.682)" fill="#fed35a"/>
        <path id="Trazado_591782" data-name="Trazado 591782" d="M116.615,262.9a1.459,1.459,0,0,0-.519,1.869,8.491,8.491,0,0,1,.416,1.875c.033-.034.086-.042.188,0h0a11.48,11.48,0,0,0-.407-1.919,1.35,1.35,0,0,1,.437-1.765c-.012-.043-.021-.087-.032-.131-.028.025-.055.05-.084.073" transform="translate(-92.112 -208.775)" fill="#fed35a"/>
        <path id="Trazado_591783" data-name="Trazado 591783" d="M214.421,10.772a11.169,11.169,0,0,0,.319,4.8c.326,1.261.121,1.706-1.067,2.319a.749.749,0,0,1-.15-.009c-.916,1.061-1.948,2.007-2.947,2.985a7.736,7.736,0,0,1,1.011,4.78q0,1.44,0,2.881a10.046,10.046,0,0,1-.269,2.622l.025.013q3.8-3.778,7.605-7.559c1.015-1.013,2.022-2.036,3-3.088.279-.3.512-.152.755-.072a11.347,11.347,0,0,0,6.861.157,12.188,12.188,0,0,0,8.819-9.14c.074-.277.067-.388.294-.118a9.2,9.2,0,0,0-.432-2.163c-.223-.948-.29-.959-.985-.27q-2.86,2.834-5.713,5.674c-.155.314-.44.3-.727.3-2.1,0-4.2-.016-6.3.009-.477.006-.6-.13-.6-.6.025-2.1.012-4.2.009-6.3,0-.285-.028-.574.3-.724h0c.945-1.149,2.067-2.125,3.1-3.187.928-.953,1.879-1.884,2.827-2.818.323-.318.275-.474-.166-.6a12.227,12.227,0,0,0-15.647,9.177c.286.289.141.639.087.943" transform="translate(-167.269 -0.079)" fill="#fed35a"/>
        <path id="Trazado_591784" data-name="Trazado 591784" d="M225.86,52.84a1.89,1.89,0,0,1-.871,2.521c-.027.032-.055.063-.083.095a.748.748,0,0,0,.15.009c1.188-.613,1.393-1.058,1.067-2.319a11.165,11.165,0,0,1-.319-4.8c.054-.3.2-.654-.087-.943a10.439,10.439,0,0,0,.143,5.432" transform="translate(-178.653 -37.658)" fill="#fed35a"/>
        <path id="Trazado_591785" data-name="Trazado 591785" d="M223.692,54.748a18.589,18.589,0,0,1-1.579,3.809,12.408,12.408,0,0,1-14.166,5.562.99.99,0,0,0-1.14.316c-3.216,3.276-6.476,6.508-9.73,9.745-.187.186-.368.553-.714.388l-.031.031a11.054,11.054,0,0,1-4.61,6.467q0,.9,0,1.8h0c.19-.167.389-.324.568-.5q6.592-6.587,13.181-13.177c.16-.16.332-.31.5-.463,0-.02-.006-.039-.007-.059.6-1.2,1.129-1.457,2.392-1.131a12.136,12.136,0,0,0,4.726.282,1.182,1.182,0,0,1,.892.108h0a12.4,12.4,0,0,0,9.721-13.172" transform="translate(-152.291 -43.489)" fill="#fdbd07"/>
        <path id="Trazado_591786" data-name="Trazado 591786" d="M268.086,116.682a12.137,12.137,0,0,1-4.726-.282c-1.263-.326-1.789-.066-2.392,1.131,0,.02,0,.039.007.059l.062-.056c.284-.295.583-.576.846-.888a.668.668,0,0,1,.812-.231,12.542,12.542,0,0,0,6.283.375h0a1.181,1.181,0,0,0-.892-.108" transform="translate(-207.297 -92.359)" fill="#fdbd07"/>
        <path id="Trazado_591787" data-name="Trazado 591787" d="M241.327,54.269a12.188,12.188,0,0,1-8.819,9.14,11.347,11.347,0,0,1-6.861-.157c-.243-.08-.476-.229-.755.072-.974,1.053-1.982,2.075-3,3.088q-3.794,3.789-7.605,7.559c.347.165.528-.2.714-.388,3.255-3.237,6.515-6.469,9.731-9.745a.99.99,0,0,1,1.14-.316,12.408,12.408,0,0,0,14.167-5.562,18.584,18.584,0,0,0,1.579-3.809c-.227-.269-.22-.159-.294.118" transform="translate(-170.22 -42.891)" fill="#fdbd07"/>
        <path id="Trazado_591788" data-name="Trazado 591788" d="M225.279,267.146c-1.389,1.4-2.774,2.812-4.19,4.189-1.491,1.449-2.951,1.419-4.439-.053-.693-.685-1.371-1.386-2.071-2.064a2.313,2.313,0,0,0-3.008-.532,40.732,40.732,0,0,1-5.678,2.356,2.161,2.161,0,0,0-1.564,2.15c-.027.968.014,1.938-.078,2.9a2.412,2.412,0,0,1,1.609-1.551,37.014,37.014,0,0,0,5.541-2.294,2.662,2.662,0,0,1,3.267.506c.824.808,1.623,1.642,2.456,2.441a2.393,2.393,0,0,0,3.453.039c1.805-1.749,3.588-3.523,5.327-5.336a2.337,2.337,0,0,0-.22-3.519c.1.378-.2.559-.4.766" transform="translate(-162.245 -211.596)" fill="#2e4190"/>
        <path id="Trazado_591789" data-name="Trazado 591789" d="M219.885,271.549c-1.158,1.054-2.474.863-3.61-.269-.763-.76-1.52-1.525-2.285-2.283a2.487,2.487,0,0,0-3.135-.5,34.8,34.8,0,0,1-5.663,2.347,2.139,2.139,0,0,0-1.606,1.69,9.893,9.893,0,0,0,.014,3.564c.092-.966.052-1.936.078-2.9a2.161,2.161,0,0,1,1.564-2.15,40.731,40.731,0,0,0,5.678-2.356,2.313,2.313,0,0,1,3.008.532c.7.678,1.378,1.379,2.071,2.064,1.489,1.472,2.948,1.5,4.44.053,1.416-1.376,2.8-2.785,4.19-4.189.205-.207.5-.388.4-.766a71.427,71.427,0,0,1-5.147,5.17" transform="translate(-161.593 -211.596)" fill="#2e4190"/>
        <path id="Trazado_591790" data-name="Trazado 591790" d="M56.016,287.136a13.563,13.563,0,0,0,.115-2.315,12.5,12.5,0,0,1-6.663,8.118,11.743,11.743,0,0,1-5.94,1.242c-.252-.01-.518.018-.714-.2l-2.89,2.985a11.963,11.963,0,0,0,8.725-.178,12.31,12.31,0,0,0,7.486-8.843h0a1.046,1.046,0,0,1-.12-.81" transform="translate(-31.714 -226.245)" fill="#fdbd07"/>
        <path id="Trazado_591791" data-name="Trazado 591791" d="M118.341,281.378h0c-.052.24-.109.476-.172.708a13.541,13.541,0,0,1-.115,2.315,1.048,1.048,0,0,0,.12.81h0a13.779,13.779,0,0,0,.167-3.834" transform="translate(-93.752 -223.51)" fill="#fdbd07"/>
        <path id="Trazado_591792" data-name="Trazado 591792" d="M60.629,290.209a12.5,12.5,0,0,0,6.663-8.118c0-.168,0-.336.008-.5-.006-.068-.017-.136-.024-.2a.523.523,0,0,0-.07.22,12.273,12.273,0,0,1-6.329,8.258,12.782,12.782,0,0,1-6.9,1.391c.2.216.462.188.714.2a11.743,11.743,0,0,0,5.94-1.242" transform="translate(-42.875 -223.515)" fill="#fdbd07"/>
        <path id="Trazado_591793" data-name="Trazado 591793" d="M118.646,281.273c.008.068.018.136.024.2-.005.168-.007.335-.008.5q.093-.349.172-.708c-.1-.041-.156-.033-.188,0" transform="translate(-94.245 -223.403)" fill="#fdbd07"/>
        <path id="Trazado_591794" data-name="Trazado 591794" d="M153.612,323.652c-2.456.041-4.913.046-7.368,0a2.456,2.456,0,0,1-2.451-1.741c-.008,1-.043,2-.018,2.994a2.386,2.386,0,0,0,2.23,2.225q3.917.038,7.835,0a2.383,2.383,0,0,0,2.231-2.225c.026-1-.009-2-.017-2.994a2.421,2.421,0,0,1-2.443,1.742" transform="translate(-114.199 -255.705)" fill="#2e4190"/>
        <path id="Trazado_591795" data-name="Trazado 591795" d="M152.6,323.466a45.025,45.025,0,0,0-5.14,0,3.59,3.59,0,0,1-3.564-1.557,2.455,2.455,0,0,0,2.451,1.741c2.455.048,4.912.043,7.368,0a2.421,2.421,0,0,0,2.443-1.742,3.517,3.517,0,0,1-3.557,1.556" transform="translate(-114.303 -255.705)" fill="#2e4190"/>
        <path id="Trazado_591796" data-name="Trazado 591796" d="M42,277.3c.015-.547-.274-.711-.766-.7-2.227.047-4.457-.107-6.681.1a4.021,4.021,0,0,0,1.183,1.843q2.147,2.094,4.242,4.242a4.534,4.534,0,0,0,1.879,1.268h0A65.44,65.44,0,0,0,42,277.3" transform="translate(-27.45 -219.704)" fill="#2e4191"/>
        <path id="Trazado_591797" data-name="Trazado 591797" d="M42.249,282.3c-.013-2.071-.02-4.142,0-6.213.005-.473-.085-.665-.618-.657-2.1.032-4.193.018-6.289.006a.8.8,0,0,0-.788.345c2.224-.209,4.454-.054,6.681-.1.492-.01.782.153.766.7a65.44,65.44,0,0,1-.142,6.754c.356-.173.39-.477.387-.834" transform="translate(-27.45 -218.785)" fill="#2e4191"/>
        <path id="Trazado_591798" data-name="Trazado 591798" d="M276.621,41.344c0,.844.079.925.924.923,2.149-.006,4.3.053,6.447-.049a2.566,2.566,0,0,0-.8-1.531q-2.5-2.492-4.991-4.991a2.576,2.576,0,0,0-1.53-.8h0c-.109,2.149-.038,4.3-.049,6.448" transform="translate(-219.721 -27.719)" fill="#3449a2"/>
        <path id="Trazado_591799" data-name="Trazado 591799" d="M275.437,35.621c0,2.1.016,4.2-.009,6.3-.006.472.121.608.6.6,2.1-.026,4.2-.013,6.3-.009.287,0,.572.019.727-.3-2.148.1-4.3.043-6.447.049-.846,0-.928-.079-.924-.923.01-2.149-.06-4.3.049-6.448-.323.15-.3.439-.295.724" transform="translate(-218.783 -27.72)" fill="#3449a2"/>
        <path id="Trazado_591800" data-name="Trazado 591800" d="M101.844,88.892c-.077-.865.282-1.7.191-2.561a6.118,6.118,0,0,1-5.463-4.264c-.168-.551-.268-1.123-.421-1.778-.128.577-.213,1.078-.352,1.563a6.033,6.033,0,0,1-5.712,4.4,35.759,35.759,0,0,0-4.214.14c-.6.086-.957-.023-.864-.782a19.373,19.373,0,0,0,.039-2.149,7.414,7.414,0,0,1,1.844-5.847,6.618,6.618,0,0,1,4.513-2.384,15.786,15.786,0,0,1,5.471.227,7.552,7.552,0,0,1,3.965,2.757c.1.135.213.267.319.4a.23.23,0,0,1,.017-.028,23.581,23.581,0,0,1,2.955-2.892,2.531,2.531,0,0,1-.663-.315,20.638,20.638,0,0,0-10.81-2.457,20.752,20.752,0,0,0-17.279,30.525,3.163,3.163,0,0,1,.312.633,3.016,3.016,0,0,1,.537-.616q5.014-5.016,10.031-10.031c.837-.836.955-.831,1.7.128a7.234,7.234,0,0,0,1.4,1.3,1.8,1.8,0,0,1,.7.7A17.621,17.621,0,0,0,92.1,96.58a5.238,5.238,0,0,0,4.64-.764c.151-.088.3-.174.457-.26a2.207,2.207,0,0,1,.783-.758,11.33,11.33,0,0,0,3.571-5.175c.086-.234.1-.516.4-.612,0-.015,0-.029.006-.044a.757.757,0,0,1-.113-.074" transform="translate(-57.911 -57.899)" fill="#fee4ce"/>
        <path id="Trazado_591801" data-name="Trazado 591801" d="M74.907,103.311a3.173,3.173,0,0,0-.312-.633,20.574,20.574,0,0,1-2.23-12.871A20.763,20.763,0,0,1,91.874,72.153a20.638,20.638,0,0,1,10.81,2.458,2.531,2.531,0,0,0,.663.315c.039-.029.076-.06.115-.088a20.909,20.909,0,0,0-28.631,28.632h0a1.118,1.118,0,0,1,.076-.159" transform="translate(-57.125 -57.133)" fill="#fee4ce"/>
        <path id="Trazado_591802" data-name="Trazado 591802" d="M100.836,172.526a1.8,1.8,0,0,0-.7-.7,7.229,7.229,0,0,1-1.4-1.3c-.748-.959-.866-.964-1.7-.128Q92.013,175.421,87,180.438a3.011,3.011,0,0,0-.537.616.812.812,0,0,1,.018.084,4.263,4.263,0,0,0,.374-.315q5.278-5.272,10.542-10.558c.394-.4.625-.395.929.04a8.534,8.534,0,0,0,2.374,2.15l.136.07" transform="translate(-68.681 -134.877)" fill="#fee4ce"/>
        <path id="Trazado_591803" data-name="Trazado 591803" d="M86.094,224.693h0l.094-.074a.8.8,0,0,0-.018-.084,1.161,1.161,0,0,0-.076.159" transform="translate(-68.388 -178.356)" fill="#fee4ce"/>
        <path id="Trazado_591804" data-name="Trazado 591804" d="M210.316,89.407a.168.168,0,0,0-.017.028l.057.071c1-.978,2.032-1.924,2.947-2.985l-.032-.006a23.581,23.581,0,0,0-2.955,2.893" transform="translate(-167.049 -68.722)" fill="#fee4ce"/>
        <path id="Trazado_591805" data-name="Trazado 591805" d="M213.578,140.807a.757.757,0,0,0,.113.074,10.028,10.028,0,0,0,.269-2.622c-.064,0-.128-.009-.191-.013.091.865-.268,1.7-.191,2.561" transform="translate(-169.645 -109.814)" fill="#fee4ce"/>
        <path id="Trazado_591806" data-name="Trazado 591806" d="M224.751,86.172l.032.006c.027-.032.056-.063.083-.095-.039.029-.076.06-.115.089" transform="translate(-178.529 -68.379)" fill="#fee4ce"/>
        <path id="Trazado_591807" data-name="Trazado 591807" d="M195.4,151.886a11.33,11.33,0,0,1-3.571,5.175,2.208,2.208,0,0,0-.783.758l.138-.079a11.055,11.055,0,0,0,4.61-6.467c-.3.1-.309.378-.395.612" transform="translate(-151.758 -120.163)" fill="#fee4ce"/>
        <path id="Trazado_591808" data-name="Trazado 591808" d="M196.936,142.373a4.971,4.971,0,0,1,4.623,4.854c.005.722.005,1.444.007,2.166a20.727,20.727,0,0,0,7.165-16.48,20.637,20.637,0,0,0-2.434-8.967,3.515,3.515,0,0,1-.3-.566,1.554,1.554,0,0,1-.459.544q-6.5,6.507-13.01,12.993c-.205.2-.379.722-.81.466a5.2,5.2,0,0,0,1.51,3.586,5.544,5.544,0,0,0,3.7,1.4" transform="translate(-152.292 -98.006)" fill="#fefefe"/>
        <path id="Trazado_591809" data-name="Trazado 591809" d="M244.319,123.179a20.638,20.638,0,0,1,2.434,8.967,20.727,20.727,0,0,1-7.165,16.48c0,.072,0,.144,0,.216h0a7.6,7.6,0,0,0,.661-.515,20.678,20.678,0,0,0,6.523-18.16,17.968,17.968,0,0,0-2.718-7.753.572.572,0,0,1-.031.2,3.506,3.506,0,0,0,.3.566" transform="translate(-190.315 -97.238)" fill="#fefefe"/>
        <path id="Trazado_591810" data-name="Trazado 591810" d="M192.53,136.367q6.524-6.478,13.01-12.993a1.552,1.552,0,0,0,.459-.544.848.848,0,0,1-.031-.143c-.168.153-.339.3-.5.463q-6.591,6.588-13.182,13.177c-.178.178-.378.335-.567.5v0c.431.256.6-.262.81-.466" transform="translate(-152.291 -97.455)" fill="#fefefe"/>
        <path id="Trazado_591811" data-name="Trazado 591811" d="M261.065,122.414h0l-.062.056a.849.849,0,0,0,.031.142.571.571,0,0,0,.031-.2" transform="translate(-207.325 -97.238)" fill="#fefefe"/>
        <path id="Trazado_591812" data-name="Trazado 591812" d="M135.512,216.759a8.956,8.956,0,0,0-.2-2.509,4.8,4.8,0,0,0-4.581-3.444,5.125,5.125,0,0,1-3.447-1.458c-.018-.018-.035-.037-.053-.056l-2.9,1.43h0c-2.052,1.148-2.059,1.161-4.134.116a32.988,32.988,0,0,1-2.98-1.541l-.019.023a6.123,6.123,0,0,1-3.767,1.5,4.776,4.776,0,0,0-4.592,4.82c0,.46.02.921-.005,1.38-.031.562.2.8.764.759a1.653,1.653,0,0,1,.9.124c.026.035.047.072.071.107l2.945,0q6.838-.012,13.676-.024,4.065,0,8.13.005l.08-.063c.07-.072.146-.136.222-.2a1.918,1.918,0,0,1-.112-.964" transform="translate(-86.449 -166.249)" fill="#8bbdfe"/>
        <path id="Trazado_591813" data-name="Trazado 591813" d="M237.714,250.489l-.08.063h.246l.157-.135h0a.73.73,0,0,1-.1-.129c-.076.064-.152.129-.222.2" transform="translate(-188.762 -198.815)" fill="#8bbdfe"/>
        <path id="Trazado_591814" data-name="Trazado 591814" d="M109.653,217.581a1.654,1.654,0,0,0-.9-.124c-.564.04-.8-.2-.764-.76.025-.459,0-.92.005-1.38a4.776,4.776,0,0,1,4.592-4.82,6.122,6.122,0,0,0,3.767-1.5l.019-.023c-.046-.029-.094-.057-.139-.088h0a6.407,6.407,0,0,1-3.951,1.423,4.392,4.392,0,0,0-3.046,1.44,5.506,5.506,0,0,0-1.462,4.363c.053,1.524.011,1.525,1.495,1.547.128,0,.255.018.382.027h.075c-.024-.036-.045-.072-.071-.107" transform="translate(-85.602 -165.928)" fill="#8bbdfe"/>
        <path id="Trazado_591815" data-name="Trazado 591815" d="M202.152,210.314a5.544,5.544,0,0,1-3.7-1.4l-.159.079c.018.018.034.038.053.056a5.126,5.126,0,0,0,3.447,1.458,4.8,4.8,0,0,1,4.581,3.444,8.965,8.965,0,0,1,.2,2.509,1.918,1.918,0,0,0,.111.964c.017-.014.033-.031.05-.045l.05-.043c0-.722,0-1.444-.007-2.166a4.971,4.971,0,0,0-4.623-4.854" transform="translate(-157.508 -165.946)" fill="#8bbdfe"/>
        <path id="Trazado_591816" data-name="Trazado 591816" d="M239.157,249.908c-.017.014-.032.03-.05.045a.73.73,0,0,0,.1.129c0-.072,0-.144,0-.216l-.05.043" transform="translate(-189.932 -198.478)" fill="#8bbdfe"/>
        <path id="Trazado_591817" data-name="Trazado 591817" d="M124.587,252.543c-.1,0-.2-.005-.294-.007l-1.636,1.713a.613.613,0,0,1,.114.008,21.673,21.673,0,0,0,7.224,2.507,20.546,20.546,0,0,0,16.067-4.272,2.943,2.943,0,0,1-.623.056c-6.95,0-13.9.008-20.851,0" transform="translate(-97.431 -200.565)" fill="#fefefe"/>
        <path id="Trazado_591818" data-name="Trazado 591818" d="M129.739,256.033a21.674,21.674,0,0,1-7.224-2.507.6.6,0,0,0-.114-.008l-.066.069h0c.171.11.335.233.514.328a20.642,20.642,0,0,0,15.452,1.853,18.885,18.885,0,0,0,7.992-4.2,1.558,1.558,0,0,1-.488.189,20.546,20.546,0,0,1-16.067,4.272" transform="translate(-97.176 -199.833)" fill="#fefefe"/>
        <path id="Trazado_591819" data-name="Trazado 591819" d="M130.816,251.565l-.205.215c.1,0,.2,0,.294.007,6.95.013,13.9,0,20.851,0a2.928,2.928,0,0,0,.623-.056l.242-.19q-4.065,0-8.13-.005-6.838.007-13.676.024" transform="translate(-103.75 -199.809)" fill="#fefefe"/>
        <path id="Trazado_591820" data-name="Trazado 591820" d="M236.7,251.569l-.242.19a1.558,1.558,0,0,0,.488-.189H236.7" transform="translate(-187.827 -199.831)" fill="#fefefe"/>
        <path id="Trazado_591821" data-name="Trazado 591821" d="M120.1,252.112c-.591-.009-1.182.018-1.773.007a2.109,2.109,0,0,1-.848-.158,3.252,3.252,0,0,1,.479,2.187.907.907,0,0,1,.559-.323,5.1,5.1,0,0,1,1.583-1.714" transform="translate(-93.315 -200.143)" fill="#fdbe09"/>
        <path id="Trazado_591822" data-name="Trazado 591822" d="M120.286,261.027a.906.906,0,0,0-.559.323c-.006.059-.011.118-.02.178l.54-.431h0c.012-.024.026-.046.038-.07" transform="translate(-95.088 -207.344)" fill="#fdbe09"/>
        <path id="Trazado_591823" data-name="Trazado 591823" d="M117.037,251.736c-.038-.017-.076-.036-.114-.058a16.665,16.665,0,0,1,.541,2.293l.051-.047a3.251,3.251,0,0,0-.479-2.187" transform="translate(-92.877 -199.918)" fill="#fdbe09"/>
        <path id="Trazado_591824" data-name="Trazado 591824" d="M119.552,262.645c.011.044.02.087.032.131.009-.06.013-.119.02-.178l-.051.048" transform="translate(-94.965 -208.591)" fill="#fdbe09"/>
        <path id="Trazado_591825" data-name="Trazado 591825" d="M119.948,251.873c.095-.072.19-.142.286-.213l-2.945,0,.038.058a2.108,2.108,0,0,0,.848.158c.591.011,1.182-.016,1.773-.007" transform="translate(-93.167 -199.904)" fill="#fdbe09"/>
        <path id="Trazado_591826" data-name="Trazado 591826" d="M117.037,251.736l-.038-.058h-.075c.037.022.075.04.114.058" transform="translate(-92.877 -199.918)" fill="#fdbe09"/>
        <path id="Trazado_591827" data-name="Trazado 591827" d="M124.1,252.694a5.1,5.1,0,0,0-1.583,1.714c.009,0,.019,0,.028,0l1.636-1.713-.08,0" transform="translate(-97.323 -200.725)" fill="#fdbe09"/>
        <path id="Trazado_591828" data-name="Trazado 591828" d="M122.4,261.028h-.028c-.012.024-.027.046-.038.071h0l.066-.069" transform="translate(-97.176 -207.344)" fill="#fdbe09"/>
        <path id="Trazado_591829" data-name="Trazado 591829" d="M130.3,251.874l.205-.215q-.143.106-.286.213l.08,0" transform="translate(-103.439 -199.903)" fill="#fdbe09"/>
        <path id="Trazado_591830" data-name="Trazado 591830" d="M159.365,184.823a4.778,4.778,0,0,1-2.851-1.326,7.7,7.7,0,0,1,.059,1.309c0,.078,0,.155,0,.231q2.765,2.446,5.526,4.9a.243.243,0,0,1,.061.114c.758-.362,1.5-.754,2.255-1.122a1.9,1.9,0,0,1,.591-.247,4.976,4.976,0,0,1-1.368-2.776c-.038-.274-.133-.555.114-.786a.925.925,0,0,1-.138-.1,3.7,3.7,0,0,1-.023-1.542,5.006,5.006,0,0,1-4.226,1.348" transform="translate(-124.325 -145.742)" fill="#e7cfbb"/>
        <path id="Trazado_591831" data-name="Trazado 591831" d="M155.916,184.213a7.716,7.716,0,0,0-.059-1.309c-.057-.058-.116-.113-.17-.176l.031,1.54.2.176c0-.077,0-.154,0-.231" transform="translate(-123.668 -145.148)" fill="#e7cfbb"/>
        <path id="Trazado_591832" data-name="Trazado 591832" d="M190.653,182.876a3.7,3.7,0,0,0,.023,1.542.928.928,0,0,0,.139.1l0,0q0-.9,0-1.8c-.054.054-.109.1-.164.155" transform="translate(-151.388 -145.143)" fill="#e7cfbb"/>
        <path id="Trazado_591833" data-name="Trazado 591833" d="M156.382,183.173a4.78,4.78,0,0,0,2.851,1.326,5.007,5.007,0,0,0,4.226-1.348c0-.011,0-.022.005-.033s.014-.029.021-.043c-.153.086-.306.172-.457.26a5.238,5.238,0,0,1-4.64.764,17.62,17.62,0,0,1-2.04-1.031c.009.022.02.044.027.068s0,.025.007.038" transform="translate(-124.194 -145.418)" fill="#e7cfbb"/>
        <path id="Trazado_591834" data-name="Trazado 591834" d="M155.851,182.865c-.007-.024-.018-.045-.027-.068l-.136-.07c.054.063.113.118.17.176,0-.013,0-.025-.007-.038" transform="translate(-123.669 -145.147)" fill="#e7cfbb"/>
        <path id="Trazado_591835" data-name="Trazado 591835" d="M190.948,182.8c-.007.015-.015.028-.021.043s0,.022-.005.033c.055-.051.11-.1.164-.155l-.138.079" transform="translate(-151.657 -145.143)" fill="#e7cfbb"/>
        <path id="Trazado_591836" data-name="Trazado 591836" d="M190.961,192.25a4.976,4.976,0,0,0,1.369,2.776.588.588,0,0,1,.258.026,5.2,5.2,0,0,1-1.51-3.586l0,0c-.247.231-.152.512-.114.786" transform="translate(-151.649 -152.088)" fill="#e7cfbb"/>
        <path id="Trazado_591837" data-name="Trazado 591837" d="M191.711,191.454v0l0,0h0" transform="translate(-152.282 -152.076)" fill="#e7cfbb"/>
        <path id="Trazado_591838" data-name="Trazado 591838" d="M184.017,210.316l2.9-1.43c-.034-.034-.066-.07-.1-.1a1.9,1.9,0,0,0-.591.247c-.755.368-1.5.759-2.255,1.121.016.054.028.114.046.166h0" transform="translate(-146.136 -165.844)" fill="#e7cfbb"/>
        <path id="Trazado_591839" data-name="Trazado 591839" d="M198.067,208.793a.591.591,0,0,0-.258-.027c.033.035.065.071.1.105Z" transform="translate(-157.128 -165.828)" fill="#e7cfbb"/>
        <path id="Trazado_591840" data-name="Trazado 591840" d="M154.032,197.416a1.383,1.383,0,0,0,1.51-.02c.39-.234.81-.419,1.219-.621a19.157,19.157,0,0,1-1.971-1.735c-1.11-.933-2.139-1.962-3.253-2.894a1.29,1.29,0,0,1-.245-.279,5.757,5.757,0,0,1-1.421,3.523,5.393,5.393,0,0,1,1.351.614c.946.452,1.89.912,2.81,1.412" transform="translate(-119.049 -152.408)" fill="#fee4ce"/>
        <path id="Trazado_591841" data-name="Trazado 591841" d="M150.544,190.555a3.549,3.549,0,0,1-.194-.34,5.851,5.851,0,0,1-1.421,3.84,1.522,1.522,0,0,1,.194.023,5.758,5.758,0,0,0,1.421-3.523" transform="translate(-118.3 -151.095)" fill="#fee4ce"/>
        <path id="Trazado_591842" data-name="Trazado 591842" d="M156.721,210.488h0c-.059-.033-.114-.07-.17-.105-.409.2-.829.388-1.219.622a1.383,1.383,0,0,1-1.51.02c-.921-.5-1.864-.96-2.81-1.412a5.4,5.4,0,0,0-1.351-.614l-.054.065a33.013,33.013,0,0,0,2.98,1.541c2.075,1.045,2.082,1.032,4.134-.116" transform="translate(-118.839 -166.016)" fill="#fee4ce"/>
        <path id="Trazado_591843" data-name="Trazado 591843" d="M149.123,208.911a1.556,1.556,0,0,0-.194-.023c.046.03.093.058.14.088l.054-.065" transform="translate(-118.3 -165.928)" fill="#fee4ce"/>
        <path id="Trazado_591844" data-name="Trazado 591844" d="M157.025,191.514c1.114.931,2.143,1.961,3.253,2.893a19.108,19.108,0,0,0,1.971,1.735l.08-.039.043-.021a.242.242,0,0,0-.061-.114q-2.758-2.455-5.526-4.9c0,.055,0,.109,0,.164a1.3,1.3,0,0,0,.245.279" transform="translate(-124.537 -151.775)" fill="#fee4ce"/>
        <path id="Trazado_591845" data-name="Trazado 591845" d="M156.037,190.392l-.2-.176a3.51,3.51,0,0,0,.194.34c0-.055,0-.109,0-.164" transform="translate(-123.788 -151.096)" fill="#fee4ce"/>
        <path id="Trazado_591846" data-name="Trazado 591846" d="M183.372,215.5c.056.035.111.073.17.105-.019-.051-.03-.111-.046-.165l-.044.021-.08.039" transform="translate(-145.66 -171.132)" fill="#fee4ce"/>
        <path id="Trazado_591847" data-name="Trazado 591847" d="M142.859,94.946a14.686,14.686,0,0,0-4.5.188,7.3,7.3,0,0,0-5.382,4.858c-.058.161-.119.321-.182.481,0,.152,0,.3.009.456-.005.692,0,1.385,0,2.077,0,.466.222.67.671.6a28.38,28.38,0,0,1,4.147-.117,5.859,5.859,0,0,0,5.643-4.586,2.052,2.052,0,0,1,.464-1.227c.3.143.325.441.368.7a6.029,6.029,0,0,0,5.061,5.2,2.874,2.874,0,0,1,.452.113c-.026-.88-.01-1.76-.01-2.639.018-.191.029-.381.035-.57a9.391,9.391,0,0,0-1.777-3.161,7.281,7.281,0,0,0-4.993-2.37" transform="translate(-105.483 -75.355)" fill="#633f0e"/>
        <path id="Trazado_591848" data-name="Trazado 591848" d="M214.47,122.727c0,.879-.015,1.759.01,2.639a.7.7,0,0,1,.194.114q0-1.441,0-2.881l-.172-.441c-.006.189-.017.379-.035.57" transform="translate(-170.359 -97.034)" fill="#633f0e"/>
        <path id="Trazado_591849" data-name="Trazado 591849" d="M148.732,114.536a2.92,2.92,0,0,0-.452-.113,6.029,6.029,0,0,1-5.061-5.2c-.043-.255-.064-.553-.368-.7a2.053,2.053,0,0,0-.464,1.227,5.859,5.859,0,0,1-5.642,4.586,28.413,28.413,0,0,0-4.147.117c-.449.073-.674-.13-.671-.6,0-.692,0-1.385,0-2.077,0-.152-.007-.3-.009-.456-.057.147-.115.294-.172.441a19.381,19.381,0,0,1-.039,2.149c-.093.758.264.868.864.782a35.76,35.76,0,0,1,4.214-.14,6.033,6.033,0,0,0,5.712-4.4c.139-.485.224-.986.352-1.563.153.654.253,1.226.421,1.778a6.118,6.118,0,0,0,5.463,4.264s0-.007,0-.01c0-.03,0-.06,0-.09" transform="translate(-104.611 -86.205)" fill="#633f0e"/>
        <path id="Trazado_591850" data-name="Trazado 591850" d="M214.539,137.847s0,.007,0,.01c.064,0,.127.011.191.013a.7.7,0,0,0-.194-.114c0,.03,0,.06,0,.09" transform="translate(-170.415 -109.426)" fill="#633f0e"/>
        <path id="Trazado_591851" data-name="Trazado 591851" d="M148.148,87.685a7.322,7.322,0,0,0-6.265-2.827,25.1,25.1,0,0,0-3.07.08,7.15,7.15,0,0,0-6.017,7.085,7.561,7.561,0,0,1,7-5.246,19.387,19.387,0,0,1,3.751.1,7.554,7.554,0,0,1,5.571,3.908,4.908,4.908,0,0,1,.516,1.308,8.168,8.168,0,0,0-.93-3.72.472.472,0,0,1,0-.206c-.269-.055-.4-.293-.559-.485" transform="translate(-105.485 -67.398)" fill="#754b11"/>
        <path id="Trazado_591852" data-name="Trazado 591852" d="M210.1,101.2a8.166,8.166,0,0,1,.93,3.72c.071.284.125.573.171.866a7.738,7.738,0,0,0-1.011-4.78.552.552,0,0,1-.086-.013.472.472,0,0,0,0,.206" transform="translate(-166.886 -80.226)" fill="#754b11"/>
        <path id="Trazado_591853" data-name="Trazado 591853" d="M131.984,91.068A7.15,7.15,0,0,1,138,83.983a24.974,24.974,0,0,1,3.07-.08,7.321,7.321,0,0,1,6.265,2.827c.159.192.29.43.559.484a.22.22,0,0,1,.028-.058c-.107-.133-.215-.265-.319-.4A7.554,7.554,0,0,0,143.638,84a15.785,15.785,0,0,0-5.471-.226,6.617,6.617,0,0,0-4.513,2.384A7.414,7.414,0,0,0,131.811,92a5.42,5.42,0,0,1,.173-.935" transform="translate(-104.673 -66.443)" fill="#754b11"/>
        <path id="Trazado_591854" data-name="Trazado 591854" d="M210.16,100.771a.553.553,0,0,0,.086.013l-.057-.071a.214.214,0,0,0-.029.058" transform="translate(-166.939 -80)" fill="#754b11"/>
        <path id="Trazado_591855" data-name="Trazado 591855" d="M143.539,94.171a19.37,19.37,0,0,0-3.751-.1,7.561,7.561,0,0,0-7,5.246c0,.009,0,.018,0,.028,0,.156,0,.311,0,.467.062-.16.124-.32.182-.481a7.3,7.3,0,0,1,5.382-4.859,14.692,14.692,0,0,1,4.5-.188,7.281,7.281,0,0,1,4.993,2.37,9.388,9.388,0,0,1,1.777,3.161c0-.143,0-.284,0-.426a4.915,4.915,0,0,0-.516-1.308,7.554,7.554,0,0,0-5.571-3.908" transform="translate(-105.479 -74.689)" fill="#754b11"/>
        <path id="Trazado_591856" data-name="Trazado 591856" d="M214.656,120.514l.172.441c-.046-.293-.1-.582-.171-.866,0,.141,0,.283,0,.426" transform="translate(-170.51 -95.391)" fill="#754b11"/>
        <path id="Trazado_591857" data-name="Trazado 591857" d="M132.129,120.228q0-.233,0-.467c0-.009,0-.018,0-.028a5.415,5.415,0,0,0-.173.935c.057-.147.115-.294.172-.441" transform="translate(-104.819 -95.11)" fill="#754b11"/>
      </g>
    </g>
  </g>
</svg>
