<svg xmlns="http://www.w3.org/2000/svg" xmlns:xlink="http://www.w3.org/1999/xlink" width="112" height="112" viewBox="0 0 112 112">
  <defs>
    <clipPath id="clip-path">
      <rect id="Rectángulo_300793" data-name="Rectángulo 300793" width="67.307" height="74.822" fill="none"/>
    </clipPath>
  </defs>
  <g id="Grupo_886479" data-name="Grupo 886479" transform="translate(9704.505 6216.887)">
    <circle id="Elipse_6604" data-name="Elipse 6604" cx="56" cy="56" r="56" transform="translate(-9704.505 -6216.887)" fill="#e1fbff"/>
    <g id="Grupo_886069" data-name="Grupo 886069" transform="translate(-9682.505 -6197.881)">
      <g id="Grupo_886064" data-name="Grupo 886064" clip-path="url(#clip-path)">
        <path id="Trazado_600817" data-name="Trazado 600817" d="M31.2,47.885c.1-.211.167-.434.25-.652a17.187,17.187,0,0,1-8.94-1.737c-5.486-2.833-8.806-7.33-9.484-13.454A16.989,16.989,0,0,1,26.957,13.251a16.644,16.644,0,0,1,15.52,5.007A16.384,16.384,0,0,1,47.13,28.363,16.523,16.523,0,0,1,45.7,37.1a23.689,23.689,0,0,1,7.267.318c.171-.605.338-1.211.513-1.815.082-.281.167-.511.557-.541,1.778-.137,3.552-.34,5.331-.459.549-.037.709-.2.7-.744-.026-2.4-.011-4.791-.011-7.186,0-1.008-.034-1.012-1.054-1.094-1.7-.137-3.4-.318-5.093-.468-.327-.029-.426-.2-.5-.494a22.843,22.843,0,0,0-2.983-7.084.715.715,0,0,1,.092-.983c1.111-1.3,2.181-2.629,3.3-3.922.376-.436.433-.718-.029-1.166-1.736-1.688-3.455-3.4-5.112-5.162-.432-.461-.659-.417-1.063-.075-1.343,1.138-2.7,2.255-4.052,3.388-.229.192-.4.385-.742.163a24.007,24.007,0,0,0-7.364-3.132c-.245-.062-.353-.162-.371-.415-.035-.5-.1-.991-.152-1.487-.149-1.408-.313-2.815-.438-4.225C34.461.1,34.279,0,33.9,0q-3.87.017-7.74,0c-.344,0-.519.085-.55.477-.141,1.752-.342,3.5-.458,5.252a.99.99,0,0,1-.9,1.056,20.024,20.024,0,0,0-6.5,2.739.987.987,0,0,1-1.41-.092c-1.294-1.114-2.624-2.187-3.923-3.3-.283-.242-.466-.338-.777-.022Q8.895,8.9,6.113,11.647a.493.493,0,0,0-.025.8c1.142,1.34,2.25,2.709,3.4,4.04a.782.782,0,0,1,.092,1.1,23.592,23.592,0,0,0-2.906,6.95A.63.63,0,0,1,6,25.123c-1.752.137-3.5.327-5.252.468-.557.045-.755.259-.749.835.029,2.474.033,4.949,0,7.423-.009.616.221.72.774.757,1.78.119,3.554.313,5.331.466.351.03.479.2.554.536a22.137,22.137,0,0,0,2.934,7.017.735.735,0,0,1-.066,1.037c-1.117,1.292-2.188,2.624-3.3,3.924-.34.4-.426.677.017,1.106,1.777,1.722,3.522,3.477,5.253,5.246.377.386.6.394,1.017.037,1.353-1.166,2.757-2.271,4.126-3.419a.534.534,0,0,1,.751-.074,23.68,23.68,0,0,0,7.151,3.032.68.68,0,0,1,.576.712c.161,1.75.366,3.5.467,5.251.036.629.263.732.807.716,1.157-.033,2.316-.01,3.475-.01a38.065,38.065,0,0,1-.44-3.872A19.391,19.391,0,0,1,31.2,47.885" transform="translate(0 0)" fill="#f7eb7c"/>
        <path id="Trazado_600818" data-name="Trazado 600818" d="M170.824,179.589a20.266,20.266,0,0,0-7.151-3.56.714.714,0,0,1-.733.152,20.245,20.245,0,0,0-6.1-.27.742.742,0,0,1-.307-.053.59.59,0,0,1-.148-.143,18.734,18.734,0,0,0-13.628,9.111c-.2.327-.389.663-.583,1a.65.65,0,0,1,.061.06,1.234,1.234,0,0,1-.2.9,20.514,20.514,0,0,0-1.675,7.27,19.749,19.749,0,0,0,.32,3.768c.045.329.191.675-.1.973a3.451,3.451,0,0,1,.14.368,18.941,18.941,0,0,0,37.168-6.888,18.5,18.5,0,0,0-7.061-12.683m1.155,16.243c-.6-1.84-1.77-2.725-3.541-2.538a3.214,3.214,0,0,0-2.847,2.677,3.3,3.3,0,0,0-3.162-2.695,2.829,2.829,0,0,0-2.589,1.208h0c.28.253.176.589.177.892q.01,4.461,0,8.922a3.785,3.785,0,1,1-7.564.265,6.02,6.02,0,0,1,.014-1.261.906.906,0,0,1,1.032-.862.859.859,0,0,1,.84.948,5.121,5.121,0,0,0,.156,1.717,1.858,1.858,0,0,0,3.622-.574c.011-3.053,0-6.106.009-9.159,0-.3-.1-.641.188-.889-1.6-2.131-4.431-1.483-5.774,1.4a3.154,3.154,0,0,0-2.98-2.6,3.2,3.2,0,0,0-3.4,2.379,12.94,12.94,0,0,1,19.616-10.594,12.55,12.55,0,0,1,6.2,10.762" transform="translate(-110.706 -138.609)" fill="#e38d66"/>
        <path id="Trazado_600819" data-name="Trazado 600819" d="M139.9,235.57a19.75,19.75,0,0,1-.32-3.768,20.513,20.513,0,0,1,1.675-7.27,1.234,1.234,0,0,0,.2-.9.621.621,0,0,0-.061-.06l-.013.022c-.083.217-.154.44-.25.652a19.388,19.388,0,0,0-1.773,8.426,38,38,0,0,0,.44,3.872c.289-.3.143-.645.1-.973" transform="translate(-109.934 -176.36)" fill="#e38d66"/>
        <path id="Trazado_600820" data-name="Trazado 600820" d="M216.334,175.11l-.022,0a.6.6,0,0,0,.148.143.743.743,0,0,0,.307.053,20.247,20.247,0,0,1,6.1.27.714.714,0,0,0,.732-.152,23.683,23.683,0,0,0-7.267-.318" transform="translate(-170.633 -138.008)" fill="#e38d66"/>
        <path id="Trazado_600821" data-name="Trazado 600821" d="M94.964,85.508a16.964,16.964,0,0,0-16.837-23.16A16.957,16.957,0,0,0,62.419,77.1a16.412,16.412,0,0,0,4.438,13.72,16.825,16.825,0,0,0,10.565,5.305c.762.092,1.525.03,2.287.061a1.332,1.332,0,0,1,.86.156.647.647,0,0,1,.134-.536,19.039,19.039,0,0,1,13.385-9.63.817.817,0,0,1,.7.052c-.13-.243.09-.493.177-.719M87.048,75.316a4.347,4.347,0,0,1-.483.518q-4.231,4.139-8.466,8.273c-.789.77-1.156.773-1.918.026q-2.283-2.236-4.56-4.48c-.242-.239-.515-.463-.507-.852a.834.834,0,0,1,.486-.837.968.968,0,0,1,1.161.194c1.261,1.231,2.551,2.434,3.781,3.695.453.464.7.474,1.169.006,2.5-2.489,5.029-4.94,7.551-7.4a1.972,1.972,0,0,1,.679-.525.883.883,0,0,1,1.054.3.8.8,0,0,1,.053,1.083" transform="translate(-49.134 -49.162)" fill="#fefefe"/>
        <path id="Trazado_600822" data-name="Trazado 600822" d="M78.828,95.363c-.762-.031-1.525.031-2.287-.061A16.824,16.824,0,0,1,65.976,90a16.412,16.412,0,0,1-4.438-13.72,16.957,16.957,0,0,1,15.708-14.75,16.919,16.919,0,0,1,16.837,23.16c-.087.227-.307.476-.177.719a.517.517,0,0,1,.048.037A17.113,17.113,0,0,0,75.21,61.591,16.989,16.989,0,0,0,61.283,80.383c.678,6.123,4,10.621,9.484,13.453a17.184,17.184,0,0,0,8.94,1.737.429.429,0,0,1-.02-.055,1.333,1.333,0,0,0-.86-.156" transform="translate(-48.253 -48.34)" fill="#fefefe"/>
        <path id="Trazado_600823" data-name="Trazado 600823" d="M162.3,175.08a19.039,19.039,0,0,0-13.385,9.63.647.647,0,0,0-.134.536c.011.009.022.022.033.033.194-.332.382-.668.583-1a18.734,18.734,0,0,1,13.628-9.111.388.388,0,0,1-.026-.04.817.817,0,0,0-.7-.052" transform="translate(-117.347 -138.067)" fill="#fefefe"/>
        <path id="Trazado_600824" data-name="Trazado 600824" d="M148.878,223.472h0l.013-.022c-.011-.011-.022-.023-.033-.033a.447.447,0,0,0,.02.055" transform="translate(-117.424 -176.238)" fill="#fefefe"/>
        <path id="Trazado_600825" data-name="Trazado 600825" d="M216.191,175.524a.388.388,0,0,0,.026.04l.022,0a.557.557,0,0,0-.048-.037" transform="translate(-170.538 -138.459)" fill="#fefefe"/>
        <path id="Trazado_600826" data-name="Trazado 600826" d="M187.526,212.779a12.941,12.941,0,0,0-19.616,10.594,3.2,3.2,0,0,1,3.4-2.379,3.154,3.154,0,0,1,2.98,2.6c1.343-2.884,4.168-3.532,5.773-1.4.405.316.478.826.742,1.315.3-.453.357-1,.781-1.315h0a2.829,2.829,0,0,1,2.589-1.208,3.3,3.3,0,0,1,3.162,2.695A3.214,3.214,0,0,1,190.185,221c1.771-.187,2.938.7,3.541,2.538a12.549,12.549,0,0,0-6.2-10.762" transform="translate(-132.452 -166.318)" fill="#6fe2fe"/>
        <path id="Trazado_600827" data-name="Trazado 600827" d="M203.937,265.752a2.555,2.555,0,0,1-.458-1.155c-.288.248-.187.585-.188.889-.007,3.053,0,6.106-.009,9.159a1.945,1.945,0,0,1-1.647,1.835,1.925,1.925,0,0,1-1.975-1.261,5.11,5.11,0,0,1-.156-1.717.859.859,0,0,0-.84-.948.905.905,0,0,0-1.032.862,6.035,6.035,0,0,0-.014,1.261,3.785,3.785,0,1,0,7.564-.265q0-4.461,0-8.922c0-.3.1-.64-.177-.892a2.735,2.735,0,0,1-.467,1.153c-.17.311-.428.315-.6,0" transform="translate(-155.868 -208.722)" fill="#f7eb7d"/>
        <path id="Trazado_600828" data-name="Trazado 600828" d="M226.208,265.913c-.264-.489-.336-1-.742-1.315a2.554,2.554,0,0,0,.458,1.155c.17.313.429.31.6,0a2.741,2.741,0,0,0,.467-1.153h0c-.424.311-.478.861-.781,1.315" transform="translate(-177.854 -208.723)" fill="#f7eb7d"/>
        <path id="Trazado_600829" data-name="Trazado 600829" d="M118.915,117.05a1.97,1.97,0,0,0-.679.525c-2.522,2.462-5.056,4.913-7.551,7.4-.469.468-.716.458-1.169-.007-1.23-1.261-2.52-2.464-3.781-3.695a.968.968,0,0,0-1.161-.194.835.835,0,0,0-.486.837c-.008.39.264.614.507.852q2.278,2.242,4.56,4.48c.763.747,1.13.744,1.919-.026q4.236-4.133,8.465-8.273a4.331,4.331,0,0,0,.483-.518.8.8,0,0,0-.053-1.083.883.883,0,0,0-1.054-.3" transform="translate(-82.108 -92.279)" fill="#e38e66"/>
      </g>
    </g>
  </g>
</svg>
