<svg xmlns="http://www.w3.org/2000/svg" xmlns:xlink="http://www.w3.org/1999/xlink" width="112" height="112" viewBox="0 0 112 112">
  <defs>
    <clipPath id="clip-path">
      <rect id="Rectángulo_300843" data-name="Rectángulo 300843" width="72.613" height="72.889" fill="none"/>
    </clipPath>
  </defs>
  <g id="Grupo_886473" data-name="Grupo 886473" transform="translate(-393 -541)">
    <circle id="Elipse_6594" data-name="Elipse 6594" cx="56" cy="56" r="56" transform="translate(393 541)" fill="#e1fbff"/>
    <g id="Grupo_886210" data-name="Grupo 886210" transform="translate(413 561)">
      <g id="Grupo_886210-2" data-name="Grupo 886210" clip-path="url(#clip-path)">
        <path id="Trazado_603002" data-name="Trazado 603002" d="M125.649,199.139c.979-.535,1.951-1.087,2.9-1.673a2.769,2.769,0,0,0,1.018-3.836q-.652-1.2-1.372-2.371a2.766,2.766,0,0,0-3.833-1.034,21.258,21.258,0,0,0-2.23,1.309,1.971,1.971,0,0,1-2.35.029c-1.661-.805-2.432-1.815-1.959-3.64,0-.559.007-1.118,0-1.677a2.8,2.8,0,0,0-2.932-2.918c-.813-.013-1.626-.01-2.439,0a2.848,2.848,0,0,0-3,3.025c-.012,1.169-.023,2.338.007,3.506a.849.849,0,0,1-.593.92,11.131,11.131,0,0,0-1.725.958.818.818,0,0,1-1.026.022c-1.106-.671-2.23-1.313-3.36-1.942a2.794,2.794,0,0,0-3.991,1.09q-.642,1.079-1.251,2.177a2.769,2.769,0,0,0,1.081,3.986q1.534.919,3.1,1.789a.747.747,0,0,1,.447.851,8.15,8.15,0,0,0-.093,2.127.858.858,0,0,1-.526.974c-1.065.591-2.116,1.205-3.165,1.825a2.784,2.784,0,0,0-1.089,4.043q.592,1.063,1.215,2.11a2.813,2.813,0,0,0,4.051,1.089c.93-.521,1.86-1.041,2.767-1.6a.746.746,0,0,1,1.017.082,8.787,8.787,0,0,0,2.1,1.363.834.834,0,0,1,.536.892c-.028,1.117-.019,2.236-.005,3.354a2.787,2.787,0,0,0,2.892,2.872c.813.011,1.626.006,2.439,0a2.853,2.853,0,0,0,3.042-3.057c.009-.915.02-1.83-.005-2.744a.747.747,0,0,1,.544-.862,9.325,9.325,0,0,0,2.536-1.366.713.713,0,0,1,.9-.029c.914.548,1.83,1.093,2.763,1.605a2.8,2.8,0,0,0,3.9-1.038c.449-.736.877-1.486,1.294-2.241a2.788,2.788,0,0,0-1.121-4.034c-.829-.492-1.653-.994-2.5-1.449a.752.752,0,0,1-.441-.922,7.8,7.8,0,0,0,.007-2.655.761.761,0,0,1,.461-.913m-1.509-1.925a2.777,2.777,0,0,0-1.367,2.96,6.99,6.99,0,0,1-.015,2.349A2.751,2.751,0,0,0,124,205.476c.857.542,1.736,1.052,2.628,1.535.539.292.8.563.35,1.165a11.344,11.344,0,0,0-.9,1.585c-.276.538-.585.678-1.147.324-.9-.568-1.837-1.08-2.778-1.58a2.659,2.659,0,0,0-3.059.264,7.772,7.772,0,0,1-2.071,1.111,2.9,2.9,0,0,0-2.131,3.127c.049.836.015,1.677,0,2.515,0,.242.092.515-.146.714a8.884,8.884,0,0,1-3.052.127c-.313,0-.305-.349-.306-.605,0-.835-.061-1.675.011-2.5a3.491,3.491,0,0,0-2.137-3.864,4,4,0,0,1-1.337-.854,2.984,2.984,0,0,0-4.014-.279c-.231.149-.49.255-.736.38-.605.367-1.21.737-1.817,1.1-.355.213-.61.12-.81-.244-.342-.622-.685-1.246-1.07-1.842-.3-.468-.241-.751.259-1.023,1.068-.583,2.108-1.218,3.167-1.818a3.031,3.031,0,0,0,1.587-3.116,13.529,13.529,0,0,1,.075-2.043,2.812,2.812,0,0,0-1.6-2.866c-.992-.564-1.968-1.156-2.968-1.706-.452-.248-.565-.512-.279-.967.392-.622.756-1.262,1.109-1.907a.5.5,0,0,1,.809-.216c.606.366,1.218.723,1.828,1.083.622.34,1.239.689,1.867,1.018a2.59,2.59,0,0,0,2.868-.162,11.942,11.942,0,0,1,2.136-1.153,2.911,2.911,0,0,0,1.544-2.89c-.046-1.109.005-2.221-.015-3.331-.011-.586.237-.848.816-.8a9.429,9.429,0,0,1,2.532.139c.242.2.15.469.152.711.01,1.144,0,2.287.006,3.43a2.869,2.869,0,0,0,1.69,2.75,17.727,17.727,0,0,1,2.163,1.264,2.779,2.779,0,0,0,3.217.1c.935-.562,1.9-1.076,2.829-1.644.44-.269.723-.256.979.232.329.629.69,1.242,1.07,1.842.288.455.175.713-.282.962-.98.533-1.938,1.107-2.9,1.672" transform="translate(-77.077 -145.959)" fill="#5f266d"/>
        <path id="Trazado_603003" data-name="Trazado 603003" d="M13.1,110.254a7.727,7.727,0,0,0,3.352-5.777,7.5,7.5,0,0,0-2.355-6.19A7.679,7.679,0,0,0,3.318,98.4a7.4,7.4,0,0,0-2.251,5.251,7.741,7.741,0,0,0,3.326,6.589,2.682,2.682,0,0,1-.208.176A8.779,8.779,0,0,0,0,118.232c.017,3.683,0,7.367.005,11.05,0,1.156.4,1.544,1.559,1.545q7.2,0,14.4,0c1.148,0,1.569-.413,1.57-1.548q.006-5.677,0-11.355a8.735,8.735,0,0,0-.384-2.549,8.927,8.927,0,0,0-4.054-5.12m-9.538-7.331a5.22,5.22,0,0,1,5.755-4.275,5.185,5.185,0,0,1,4.7,4.623,5.311,5.311,0,0,1-3.581,5.573,2.468,2.468,0,0,1-1.116.187,2.621,2.621,0,0,1-1.983-.125,5.266,5.266,0,0,1-3.777-5.983m11.548,24.9c0,.423-.113.57-.553.567-2.916-.025-5.833-.026-8.749-.034-.965.009-1.93,0-2.895.032-.373.011-.473-.135-.472-.488.013-3.532-.074-7.067.044-10.594a6.168,6.168,0,0,1,6.523-5.689,6.215,6.215,0,0,1,6.068,6.011c.074,3.4.015,6.8.033,10.2" transform="translate(0 -76.543)" fill="#5f266d"/>
        <path id="Trazado_603004" data-name="Trazado 603004" d="M283.822,110.632c-.435-.3-.422-.39-.031-.71A7.514,7.514,0,0,0,286.7,103.6a7.708,7.708,0,0,0-15.4-.126,7.776,7.776,0,0,0,3.351,6.813c-.143.107-.218.17-.3.223a8.737,8.737,0,0,0-4.122,7.7q-.01,5.563,0,11.126c0,1.107.421,1.534,1.506,1.535q7.278.006,14.556,0c1.053,0,1.468-.418,1.47-1.481,0-3.785.012-7.57,0-11.355a8.576,8.576,0,0,0-3.939-7.4m-10.084-7.187a5.3,5.3,0,0,1,10.3-1.131,5.287,5.287,0,0,1-1.922,5.822,4.705,4.705,0,0,1-3.709.949h0a5.225,5.225,0,0,1-4.672-5.639m11.593,24.427c0,.423-.113.57-.553.566-2.922-.026-5.843-.026-8.765-.035-.937.009-1.875.006-2.812.031-.37.01-.544-.073-.541-.5.018-3.448-.059-6.9.04-10.342a6.315,6.315,0,0,1,12.6-.09c.061,3.455.013,6.911.03,10.367" transform="translate(-215.156 -76.588)" fill="#5f266d"/>
        <path id="Trazado_603005" data-name="Trazado 603005" d="M136.577,34.708q7.316.015,14.631,0c.97,0,1.423-.441,1.425-1.393.009-3.963.046-7.926-.027-11.887a8.42,8.42,0,0,0-3.816-6.93c-.173-.123-.421-.172-.485-.422a7.726,7.726,0,1,0-8.8.05l-.5.351a8.428,8.428,0,0,0-3.863,7.057c-.06,3.911-.026,7.823-.018,11.735,0,1.005.438,1.438,1.453,1.44m2.028-26.936a5.22,5.22,0,0,1,5.583-5.309,5.256,5.256,0,1,1-5.583,5.309m-1.094,23.9q0-4.771,0-9.543a1.226,1.226,0,0,1,.039-.273.571.571,0,0,1,.055-.238,6.156,6.156,0,0,1,5.48-6.085A5.777,5.777,0,0,1,148,16.985a6.022,6.022,0,0,1,2.181,4.82c-.009,3.322.02,6.644.047,9.966,0,.353-.091.52-.459.52q-5.973-.008-11.946-.011c-.062,0-.123-.073-.185-.112h0l0-.006h0c-.16-.136-.118-.322-.118-.494" transform="translate(-107.573 0)" fill="#5f266d"/>
        <path id="Trazado_603006" data-name="Trazado 603006" d="M149.949,204.659c-.379-.6-.741-1.214-1.07-1.842-.256-.488-.539-.5-.979-.231-.93.569-1.894,1.082-2.829,1.644a2.779,2.779,0,0,1-3.217-.1,17.74,17.74,0,0,0-2.163-1.264,2.868,2.868,0,0,1-1.691-2.75c-.006-1.143,0-2.287-.006-3.43,0-.242.09-.515-.152-.71,0,1.363-.036,2.727.01,4.088a1.8,1.8,0,0,1-1.11,1.8,21.834,21.834,0,0,0-2.173,1.218,1.087,1.087,0,0,1-1.6-.229,11.933,11.933,0,0,0-2.136,1.153,2.589,2.589,0,0,1-2.867.162c-.628-.329-1.245-.678-1.868-1.018-.334.739-.942,1.419-.369,2.321a3.088,3.088,0,0,0,1.248.936q1.409.809,2.817,1.621a13.148,13.148,0,0,1,1.862-2.175,7.253,7.253,0,1,1-2.2,7.914,1.354,1.354,0,0,0-.147-.257c.034.354-.156.536-.455.7-.819.439-1.632.893-2.425,1.376-1.339.816-1.5,1.409-.795,2.794l.171.337c.246-.126.505-.232.736-.38a2.984,2.984,0,0,1,4.014.279,4,4,0,0,0,1.336.854c.674-.652,1.239-.766,1.941-.267a27.694,27.694,0,0,0,2.676,1.724,1.668,1.668,0,0,1,.871,1.577c0,1.27,0,2.541,0,3.811.238-.2.142-.471.146-.714.011-.838.045-1.679,0-2.515a2.9,2.9,0,0,1,2.131-3.127,7.763,7.763,0,0,0,2.071-1.111,2.659,2.659,0,0,1,3.059-.264c.94.5,1.877,1.013,2.778,1.58.562.354.871.214,1.147-.324a11.336,11.336,0,0,1,.9-1.585c.445-.6.189-.873-.35-1.165-.892-.483-1.771-.993-2.628-1.535a2.751,2.751,0,0,1-1.243-2.953,6.983,6.983,0,0,0,.015-2.349,2.777,2.777,0,0,1,1.367-2.96c.963-.565,1.921-1.139,2.9-1.672.457-.249.57-.506.282-.962" transform="translate(-99.702 -156.038)" fill="#86818d"/>
        <path id="Trazado_603007" data-name="Trazado 603007" d="M112.83,239.182a19.542,19.542,0,0,1,2.332-1.4,4.444,4.444,0,0,0,1.243-.969h0a7.694,7.694,0,0,1,.452-5.371,2.142,2.142,0,0,1-.988-.44q-1.3-.7-2.549-1.489a1.785,1.785,0,0,1-.12-3.038c-.61-.361-1.221-.718-1.828-1.083a.5.5,0,0,0-.809.216c-.354.645-.718,1.285-1.109,1.907-.286.455-.173.719.279.967,1,.549,1.976,1.142,2.968,1.706a2.812,2.812,0,0,1,1.6,2.866,13.535,13.535,0,0,0-.075,2.044,3.031,3.031,0,0,1-1.587,3.116c-1.059.6-2.1,1.235-3.167,1.818-.5.273-.562.556-.259,1.023.386.6.728,1.22,1.07,1.842.2.363.454.457.81.244.607-.364,1.211-.734,1.817-1.1a1.759,1.759,0,0,1-.081-2.855" transform="translate(-86.811 -179.358)" fill="#a3a3a4"/>
        <path id="Trazado_603008" data-name="Trazado 603008" d="M126.546,234.229q1.244.791,2.549,1.489a2.139,2.139,0,0,0,.988.44c.013-.03.025-.06.038-.089h0q-1.408-.811-2.817-1.621a3.09,3.09,0,0,1-1.248-.936c-.573-.9.035-1.582.369-2.321a1.785,1.785,0,0,0,.12,3.038" transform="translate(-100.033 -184.075)" fill="#a3a3a4"/>
        <path id="Trazado_603009" data-name="Trazado 603009" d="M124.877,286.807c-.7-1.385-.544-1.978.795-2.794.793-.484,1.607-.937,2.426-1.376.3-.16.489-.342.454-.7l-.006-.022h0a4.435,4.435,0,0,1-1.243.969,19.54,19.54,0,0,0-2.332,1.4,1.759,1.759,0,0,0,.08,2.855l-.171-.337" transform="translate(-98.948 -224.465)" fill="#a3a3a4"/>
        <path id="Trazado_603010" data-name="Trazado 603010" d="M163.23,316.072q-.016-1.369,0-2.737a1.812,1.812,0,0,0-.992-1.751,13.89,13.89,0,0,1-2.292-1.486c-.679-.554-1.337-.228-2.006-.008a3.492,3.492,0,0,1,2.137,3.864c-.071.829-.012,1.668-.011,2.5,0,.256-.007.605.306.605a8.883,8.883,0,0,0,3.052-.127h0c-.242-.248-.189-.566-.193-.863" transform="translate(-125.751 -246.658)" fill="#a3a3a4"/>
        <path id="Trazado_603011" data-name="Trazado 603011" d="M162.555,310.453a27.716,27.716,0,0,1-2.676-1.723c-.7-.5-1.267-.385-1.94.266.669-.219,1.327-.545,2.006.008a13.892,13.892,0,0,0,2.292,1.486,1.813,1.813,0,0,1,.992,1.751q-.014,1.368,0,2.737c0,.3-.05.616.193.863,0-1.27.006-2.541,0-3.812a1.667,1.667,0,0,0-.87-1.577" transform="translate(-125.751 -245.565)" fill="#a3a3a4"/>
        <path id="Trazado_603012" data-name="Trazado 603012" d="M165.279,201.935a9.861,9.861,0,0,1,1.538-.831,1.789,1.789,0,0,0,1.073-1.769c-.029-1.014-.014-2.03,0-3.045,0-.321-.064-.668.209-.933a9.413,9.413,0,0,0-2.532-.139c-.579-.051-.827.212-.816.8.02,1.11-.032,2.223.015,3.331a2.912,2.912,0,0,1-1.544,2.89h0a1.889,1.889,0,0,0,2.059-.3" transform="translate(-129.957 -155.419)" fill="#a3a3a4"/>
        <path id="Trazado_603013" data-name="Trazado 603013" d="M164.825,203.085A21.809,21.809,0,0,1,167,201.867a1.8,1.8,0,0,0,1.11-1.8c-.047-1.361-.011-2.725-.01-4.088-.273.265-.206.612-.209.933-.011,1.015-.026,2.031,0,3.045a1.789,1.789,0,0,1-1.073,1.769,9.861,9.861,0,0,0-1.538.831,1.889,1.889,0,0,1-2.059.3,1.087,1.087,0,0,0,1.6.229" transform="translate(-129.957 -156.038)" fill="#a3a3a4"/>
        <path id="Trazado_603014" data-name="Trazado 603014" d="M37.745,178.127a6.215,6.215,0,0,0-6.068-6.011,10.2,10.2,0,0,0-2.222,2.548,7.145,7.145,0,0,0-.969,3.457c-.024,3.578-.009,7.156-.009,10.734,2.917.009,5.833.009,8.749.034.44,0,.555-.144.553-.567-.017-3.4.041-6.8-.033-10.2" transform="translate(-22.669 -137.039)" fill="#5fccfe"/>
        <path id="Trazado_603015" data-name="Trazado 603015" d="M35.388,118.066c.248.249.47.523.7.786a2.47,2.47,0,0,0,1.116-.187,5.311,5.311,0,0,0,3.581-5.573,5.185,5.185,0,0,0-4.7-4.623,11.788,11.788,0,0,0-1.891,2.526,6.422,6.422,0,0,0,1.193,7.071" transform="translate(-26.772 -86.363)" fill="#feba97"/>
        <path id="Trazado_603016" data-name="Trazado 603016" d="M15.047,187.884c0-3.272-.035-6.544.01-9.816a7.591,7.591,0,0,1,2.272-5.25,3.6,3.6,0,0,1,1.14-.738,6.168,6.168,0,0,0-6.524,5.689c-.117,3.528-.031,7.063-.044,10.594,0,.353.1.5.472.488.964-.027,1.93-.023,2.895-.032a1.231,1.231,0,0,1-.222-.936" transform="translate(-9.461 -137.003)" fill="#73d6f8"/>
        <path id="Trazado_603017" data-name="Trazado 603017" d="M27.582,178.124a7.145,7.145,0,0,1,.969-3.457,10.209,10.209,0,0,1,2.222-2.548,3.6,3.6,0,0,0-1.14.738,7.592,7.592,0,0,0-2.272,5.25c-.045,3.272-.014,6.544-.01,9.816a1.232,1.232,0,0,0,.222.935c0-3.578-.015-7.156.009-10.734" transform="translate(-21.766 -137.042)" fill="#73d6f8"/>
        <path id="Trazado_603018" data-name="Trazado 603018" d="M20.907,118.605a2.621,2.621,0,0,0,1.983.125,5.236,5.236,0,0,1-2.389-3.311,6.472,6.472,0,0,1,1.537-6.435,3.04,3.04,0,0,1,.847-.637,5.239,5.239,0,0,0-1.978,10.258" transform="translate(-13.57 -86.241)" fill="#fec9a5"/>
        <path id="Trazado_603019" data-name="Trazado 603019" d="M32.892,115.541a5.237,5.237,0,0,0,2.389,3.311c-.234-.263-.456-.537-.7-.786a6.422,6.422,0,0,1-1.193-7.071,11.789,11.789,0,0,1,1.891-2.526,3.041,3.041,0,0,0-.847.637,6.472,6.472,0,0,0-1.537,6.435" transform="translate(-25.961 -86.363)" fill="#fec9a5"/>
        <path id="Trazado_603020" data-name="Trazado 603020" d="M307.9,177.956a6.207,6.207,0,0,0-6.088-5.841,9.468,9.468,0,0,0-2.51,3.171,7.709,7.709,0,0,0-.685,3c-.015,3.522-.006,7.044-.006,10.567,2.922.009,5.843.009,8.765.034.441,0,.555-.142.553-.566-.017-3.456.031-6.912-.03-10.367" transform="translate(-237.752 -137.038)" fill="#5fccfe"/>
        <path id="Trazado_603021" data-name="Trazado 603021" d="M305.864,118.3c.121.125.235.256.439.479l-1.1.073h0a4.706,4.706,0,0,0,3.71-.949,5.287,5.287,0,0,0,1.922-5.822,5.171,5.171,0,0,0-4.521-3.624,9.046,9.046,0,0,0-2.03,2.966,6.336,6.336,0,0,0,1.576,6.877" transform="translate(-241.953 -86.352)" fill="#feba97"/>
        <path id="Trazado_603022" data-name="Trazado 603022" d="M285.249,187.885c0-3.216-.033-6.433.009-9.648a7.973,7.973,0,0,1,2.174-5.3,3.7,3.7,0,0,1,1.239-.861,6.2,6.2,0,0,0-6.514,5.931c-.1,3.445-.022,6.895-.04,10.343,0,.424.171.507.541.5.937-.025,1.875-.022,2.812-.031a1.228,1.228,0,0,1-.222-.934" transform="translate(-224.614 -137.003)" fill="#73d6f8"/>
        <path id="Trazado_603023" data-name="Trazado 603023" d="M297.706,178.292a7.708,7.708,0,0,1,.685-3,9.472,9.472,0,0,1,2.51-3.171,3.7,3.7,0,0,0-1.239.861,7.973,7.973,0,0,0-2.174,5.3c-.042,3.216-.014,6.432-.009,9.648a1.229,1.229,0,0,0,.222.934c0-3.522-.009-7.044.006-10.567" transform="translate(-236.842 -137.042)" fill="#73d6f8"/>
        <path id="Trazado_603024" data-name="Trazado 603024" d="M292.053,118.74a.743.743,0,0,1,.945-.078,6.611,6.611,0,0,1-.974-9.332,3.353,3.353,0,0,1,1.139-.984,5.227,5.227,0,1,0-1.111,10.395" transform="translate(-228.798 -86.243)" fill="#fec9a5"/>
        <path id="Trazado_603025" data-name="Trazado 603025" d="M304.444,109.438a6.611,6.611,0,0,0,.974,9.332.744.744,0,0,0-.946.078l1.1-.073c-.2-.223-.318-.354-.439-.479a6.336,6.336,0,0,1-1.576-6.877,9.049,9.049,0,0,1,2.03-2.966,3.355,3.355,0,0,0-1.139.984" transform="translate(-241.218 -86.352)" fill="#fec9a5"/>
        <path id="Trazado_603026" data-name="Trazado 603026" d="M151.931,78.072a7.6,7.6,0,0,0-1.09,3.422c-.282,3.413-.072,6.828-.12,10.242-.009.613-.191.792-.781.76-.808-.044-1.621-.009-2.431-.009.062.039.123.112.185.112q5.973.01,11.946.011c.369,0,.462-.167.459-.52-.027-3.322-.055-6.644-.047-9.966a6.022,6.022,0,0,0-2.181-4.82,5.777,5.777,0,0,0-4.909-1.456l.995.058a7.354,7.354,0,0,0-2.026,2.165" transform="translate(-117.447 -60.32)" fill="#3192f2"/>
        <path id="Trazado_603027" data-name="Trazado 603027" d="M170.446,12.853a6.2,6.2,0,0,0-1.811,4.582,6.04,6.04,0,0,0,2.195,4.72,3.094,3.094,0,0,1,.346.4,5.252,5.252,0,0,0-.293-10.465c.2.449-.239.565-.437.766" transform="translate(-134.267 -9.624)" fill="#feba97"/>
        <path id="Trazado_603028" data-name="Trazado 603028" d="M147.4,92.832l0,.006c.6-.4,1.278-.185,1.92-.212,1.031-.042,1.051-.031,1.052-1.08,0-2.506.016-5.013-.007-7.52a19.4,19.4,0,0,1,.218-2.874,7.26,7.26,0,0,1,2.288-4.353c.292-.275.276-.407-.017-.6a6.155,6.155,0,0,0-5.48,6.085q.01,5.274.021,10.547" transform="translate(-117.346 -60.671)" fill="#35b0fb"/>
        <path id="Trazado_603029" data-name="Trazado 603029" d="M147.112,106.3c.019-.079.04-.158.055-.238a.571.571,0,0,0-.055.238" transform="translate(-117.131 -84.445)" fill="#35b0fb"/>
        <path id="Trazado_603030" data-name="Trazado 603030" d="M152.98,76.8a7.259,7.259,0,0,0-2.288,4.353,19.425,19.425,0,0,0-.218,2.874c.023,2.506.009,5.013.007,7.52,0,1.049-.02,1.038-1.052,1.08-.641.026-1.318-.193-1.92.211.81,0,1.623-.035,2.431.009.59.032.773-.147.781-.76.048-3.413-.162-6.829.12-10.242a7.6,7.6,0,0,1,1.09-3.422,7.354,7.354,0,0,1,2.026-2.165l-.995-.058c.292.193.31.325.017.6" transform="translate(-117.447 -60.671)" fill="#35b0fb"/>
        <path id="Trazado_603031" data-name="Trazado 603031" d="M158.15,22.539a5.58,5.58,0,0,1-2.605-4.1,6.489,6.489,0,0,1,1.862-5.852,5.262,5.262,0,0,0,.45-.516,5.256,5.256,0,1,0,.293,10.465" transform="translate(-121.241 -9.611)" fill="#fec9a5"/>
        <path id="Trazado_603032" data-name="Trazado 603032" d="M167.918,18.456a5.58,5.58,0,0,0,2.605,4.1,3.111,3.111,0,0,0-.346-.4,6.04,6.04,0,0,1-2.194-4.72,6.2,6.2,0,0,1,1.811-4.582c.2-.2.639-.317.437-.766a5.234,5.234,0,0,1-.45.516,6.49,6.49,0,0,0-1.862,5.852" transform="translate(-133.614 -9.624)" fill="#fec9a5"/>
        <path id="Trazado_603033" data-name="Trazado 603033" d="M147,117.535a.815.815,0,0,1-.075-.516q0-4.791,0-9.583c0-.07,0-.141,0-.21a1.215,1.215,0,0,0-.039.273q-.009,4.771,0,9.543C146.886,117.213,146.844,117.4,147,117.535Z" transform="translate(-116.947 -85.374)" fill="#3192f2"/>
        <path id="Trazado_603034" data-name="Trazado 603034" d="M147.091,106.508q0,4.791,0,9.583a.816.816,0,0,0,.075.516q-.01-5.274-.021-10.547c-.015.079-.036.158-.055.238,0,.07,0,.14,0,.21" transform="translate(-117.11 -84.446)" fill="#3192f2"/>
        <path id="Trazado_603035" data-name="Trazado 603035" d="M145.323,241.676a6.613,6.613,0,0,0-.342,3.956.743.743,0,0,1-.062.706c.312.035.336.321.428.535a6.787,6.787,0,0,0,6.046,4.433,6.993,6.993,0,0,0,7.5-6.738,7.032,7.032,0,0,0-12.878-4.228c-.164.238-.283.521-.592.613a1,1,0,0,1-.1.723m6.533-2.2a4.755,4.755,0,0,1,4.807,4.766,4.8,4.8,0,1,1-4.807-4.766" transform="translate(-115.302 -188.88)" fill="#5f266d"/>
        <path id="Trazado_603036" data-name="Trazado 603036" d="M145.783,240.135c.309-.092.429-.375.592-.613a7.032,7.032,0,0,1,12.878,4.228,6.993,6.993,0,0,1-7.5,6.738,6.787,6.787,0,0,1-6.046-4.433c-.092-.214-.115-.5-.428-.535,0,.006-.008.012-.013.018a1.321,1.321,0,0,1,.147.257,7.224,7.224,0,1,0,2.2-7.914,13.158,13.158,0,0,0-1.862,2.175h0a.564.564,0,0,1,.035.078" transform="translate(-115.659 -188.062)" fill="#5f266d"/>
        <path id="Trazado_603037" data-name="Trazado 603037" d="M144.17,260.193a6.612,6.612,0,0,1,.342-3.956,1,1,0,0,0,.1-.723c-.012,0-.023.009-.036.012s-.025,0-.037,0a7.694,7.694,0,0,0-.452,5.371l.019,0a.743.743,0,0,0,.062-.706" transform="translate(-114.49 -203.441)" fill="#5f266d"/>
        <path id="Trazado_603038" data-name="Trazado 603038" d="M145.235,281.921c0,.007,0,.014.006.022s.008-.012.013-.018l-.019,0" transform="translate(-115.637 -224.467)" fill="#5f266d"/>
        <path id="Trazado_603039" data-name="Trazado 603039" d="M147.453,255.216c.013,0,.024,0,.037,0s.024-.009.036-.012a.563.563,0,0,0-.035-.078h0c-.013.03-.025.059-.038.089" transform="translate(-117.403 -203.133)" fill="#5f266d"/>
        <path id="Trazado_603040" data-name="Trazado 603040" d="M160.684,257.886a4.805,4.805,0,0,0,4.738-4.853,4.8,4.8,0,0,0-9.608.028,4.852,4.852,0,0,0,4.87,4.825" transform="translate(-124.059 -197.672)" fill="#fefefe"/>
      </g>
    </g>
  </g>
</svg>
