<svg xmlns="http://www.w3.org/2000/svg" xmlns:xlink="http://www.w3.org/1999/xlink" width="112" height="112" viewBox="0 0 112 112">
  <defs>
    <clipPath id="clip-path">
      <rect id="Rectángulo_300802" data-name="Rectángulo 300802" width="75.833" height="75.832" fill="none"/>
    </clipPath>
  </defs>
  <g id="Grupo_886481" data-name="Grupo 886481" transform="translate(8996.505 6217.361)">
    <circle id="Elipse_6606" data-name="Elipse 6606" cx="56" cy="56" r="56" transform="translate(-8996.505 -6217.361)" fill="#e1fbff"/>
    <g id="Grupo_886076" data-name="Grupo 886076" transform="translate(-8978.505 -6198.361)">
      <g id="Grupo_886077" data-name="Grupo 886077" clip-path="url(#clip-path)">
        <path id="Trazado_601118" data-name="Trazado 601118" d="M131.5,62.814l-.067.054a.21.21,0,0,1,.067.021Z" transform="translate(-104.588 -49.984)" fill="#fefefe"/>
        <path id="Trazado_601119" data-name="Trazado 601119" d="M168.318,104.084h0c0-.013.01-.024.015-.037l-.019.022s0,.01,0,.015" transform="translate(-133.937 -82.796)" fill="#fefefe"/>
        <path id="Trazado_601120" data-name="Trazado 601120" d="M249.857,326.349h0v0h0Z" transform="translate(-198.824 -259.689)" fill="#fefefe"/>
        <path id="Trazado_601121" data-name="Trazado 601121" d="M86.766,131.363l-.075.093h.086a.285.285,0,0,1-.012-.093" transform="translate(-68.985 -104.532)" fill="#fefefe"/>
        <path id="Trazado_601122" data-name="Trazado 601122" d="M137.079,317.292l-.008.017h.008c0-.006,0-.011,0-.017" transform="translate(-109.075 -252.486)" fill="#fefefe"/>
        <path id="Trazado_601123" data-name="Trazado 601123" d="M75.814,74.66a1.155,1.155,0,0,1-1.166,1.165c-.228.015-.458,0-.687,0H2.055c-1.844,0-2.064-.221-2.041-2.056,0-.127.015-.254.022-.381C-.1,71.406.049,70.9,2.357,70.919c6.923.052,13.848.021,20.771.012.289,0,.614.126.868-.135h0c-.838-.295-.739-1.015-.762-1.68-1.751-1.941-3.528-3.861-5.238-5.838a1.926,1.926,0,0,1-.423-2q.956-2.527,1.9-5.058l.386-1.186h0a28.128,28.128,0,0,1-3.4-52.454,27.727,27.727,0,0,1,22.8-.26c.184.076.356.185.533.278a72.464,72.464,0,0,1,7.3-.1,26.77,26.77,0,0,0,9.172-1.381L58.674.022v8.72l.016,12.519c.056,2.066-.382,2.677-2.334,3.222-.184.051-.227.17-.274.313A29.072,29.072,0,0,1,55,36.519c2.162.467,4.332.9,6.484,1.408a10.183,10.183,0,0,1,7.51,6.331c1.591,3.956,3.006,7.982,4.5,11.978h0c.625,1.662,1.26,3.32,1.872,4.986a2.112,2.112,0,0,1-.506,2.19c-1.7,1.951-3.444,3.868-5.174,5.795-.389.433-.792.853-1.189,1.279h0l-.3.447,3.813.026c.866-.007,1.732-.032,2.6-.015a1.146,1.146,0,0,1,1.21,1.2c.023.84.026,1.681,0,2.521" transform="translate(0 0)" fill="#fefefe"/>
        <path id="Trazado_601124" data-name="Trazado 601124" d="M143.58,323.387l.037.029c0-.009,0-.019,0-.028h-.038" transform="translate(-114.254 -257.336)" fill="#fefefe"/>
        <path id="Trazado_601125" data-name="Trazado 601125" d="M143.836,63.128l.018-.006-.018-.012Z" transform="translate(-114.458 -50.219)" fill="#fefefe"/>
        <path id="Trazado_601126" data-name="Trazado 601126" d="M20.78,52.734h0a22.815,22.815,0,0,1-5.648-2.788A24.682,24.682,0,0,1,5.364,39.362a24.33,24.33,0,0,1-2.437-8.27A25.336,25.336,0,0,1,15.273,6.241a24.4,24.4,0,0,1,9.261-3.266,28.216,28.216,0,0,1,9.085.293,10.635,10.635,0,0,1,3.264.893A12.046,12.046,0,0,1,39.82,2.6c-.177-.094-.349-.2-.533-.278a27.726,27.726,0,0,0-22.8.26,28.127,28.127,0,0,0,3.4,52.454h0Z" transform="translate(-0.027 -0.001)" fill="#e42c55"/>
        <path id="Trazado_601127" data-name="Trazado 601127" d="M232.48,175.171h0a4.927,4.927,0,0,1-4.923,4.619q0,.586,0,1.172,7.021.013,14.043.026c.356,0,.711.019,1.067.029.661-.01,1.322-.039,1.982-.024a1.16,1.16,0,0,1,1.24,1.242c.019.864,0,1.729,0,2.594q0,9.193.007,18.386c0,.284-.145.613.148.853q4.1-4.114,8.209-8.227a2.08,2.08,0,0,1,.306-.214c-1.491-4-2.906-8.022-4.5-11.978a10.183,10.183,0,0,0-7.51-6.331c-2.153-.507-4.322-.941-6.485-1.408l-3.595-.74h0" transform="translate(-181.079 -139.393)" fill="#235084"/>
        <path id="Trazado_601128" data-name="Trazado 601128" d="M74.652,347.319c-.865-.017-1.731.008-2.6.015a2.66,2.66,0,0,1-2.933,2.44q-33.985-.036-67.971-.016c-.356,0-.713.005-1.069.008-.008.127-.021.254-.022.381-.022,1.835.2,2.056,2.041,2.056H74.007c.229,0,.459.012.688,0a1.154,1.154,0,0,0,1.166-1.164c.027-.84.025-1.681,0-2.521a1.146,1.146,0,0,0-1.21-1.2" transform="translate(-0.047 -276.375)" fill="#fe9c5a"/>
        <path id="Trazado_601129" data-name="Trazado 601129" d="M103.858,204.145c.323-.8.023-1.637.167-2.447q-.014-4.7-.028-9.4-.007-4.814,0-9.628c0-1.2.4-1.586,1.61-1.586l15.819,0c.288,0,.575-.014.863-.022a1.221,1.221,0,0,1-.092-1.059.48.48,0,0,1,.077-.123c-2.788-.266-4.351-1.747-4.836-4.586h0c-3.49.758-7,1.44-10.464,2.295a10.182,10.182,0,0,0-7.265,6.531c-.775,1.944-1.4,3.947-2.261,5.858h0l-.814,2.193.036.021a3.4,3.4,0,0,1-.951,2.337h0l-.386,1.186a2.429,2.429,0,0,1,.367.255q4.082,4.084,8.158,8.174" transform="translate(-75.861 -139.492)" fill="#2f6bb1"/>
        <path id="Trazado_601130" data-name="Trazado 601130" d="M98.14,257.923l-.02.053-.9,2.3a3.4,3.4,0,0,0,.951-2.337l-.036-.021" transform="translate(-77.367 -205.243)" fill="#2f6bb1"/>
        <path id="Trazado_601131" data-name="Trazado 601131" d="M226.712,197.759h0l-.066-.008a.473.473,0,0,0-.077.123,1.221,1.221,0,0,0,.091,1.059l.053,0q0-.586,0-1.173" transform="translate(-180.234 -157.361)" fill="#2f6bb1"/>
        <path id="Trazado_601132" data-name="Trazado 601132" d="M4.711,348.957H68.359a11.233,11.233,0,0,0,1.222-.021,2.221,2.221,0,0,0,1.917-1.316,2.07,2.07,0,0,1,.51-.839l-3.813-.026-7.063-.006-9.751-.006H41.57l-12.952-.008h0c-1.32.008-2.64.022-3.96.017a3.36,3.36,0,0,1-.662-.135c-.254.261-.579.135-.868.136-6.924.008-13.848.04-20.771-.013-2.307-.017-2.456.487-2.321,2.473a1.307,1.307,0,0,1,1.008-.251c1.222-.01,2.445,0,3.667,0" transform="translate(0 -275.821)" fill="#fbb883"/>
        <path id="Trazado_601133" data-name="Trazado 601133" d="M69.214,349.854a2.66,2.66,0,0,0,2.933-2.44,2.071,2.071,0,0,0-.51.839,2.221,2.221,0,0,1-1.917,1.316,11.18,11.18,0,0,1-1.222.021H4.849c-1.223,0-2.445-.006-3.668,0a1.307,1.307,0,0,0-1.008.251c.356,0,.713-.008,1.069-.008q33.985,0,67.971.016" transform="translate(-0.138 -276.455)" fill="#fbb883"/>
        <path id="Trazado_601134" data-name="Trazado 601134" d="M179.728,9.645a13.436,13.436,0,0,1-2.256.255,9.664,9.664,0,0,0-8.768,5.181,12.561,12.561,0,0,0-1.069,3.223,12.652,12.652,0,0,0,.1,3.055l.019-.022a2.368,2.368,0,0,1,2.406-1.662c1.114,0,1.111,0,1.115-1.131,0-.891.016-1.782.024-2.673-.129-.64.009-.813.734-.657,2.159.462,3.9-.495,5.468-1.85a18.239,18.239,0,0,0,2.332-2.269v3.287c0,1.625,0,1.635,1.624,1.622a14.8,14.8,0,0,0,5.2-.46c.591-.221,1.159-.5,1.737-.76a14.367,14.367,0,0,0,2.147-2.112,10.064,10.064,0,0,0,1.491-3.845V.107L189.624,1.2a9.048,9.048,0,0,1-2.049,3.766,12.663,12.663,0,0,1-7.847,4.678" transform="translate(-133.362 -0.085)" fill="#73352a"/>
        <path id="Trazado_601135" data-name="Trazado 601135" d="M173.36,12.186a5.3,5.3,0,0,1-4.136-.748,6.437,6.437,0,0,1-.642-.634,6.236,6.236,0,0,0-.9,3.314c-.058,2.581-.018,5.165,0,7.747.059-.272.122-.545.2-.812a10.028,10.028,0,0,1,9.542-7.113A12.687,12.687,0,0,0,189.28,6.116a2.009,2.009,0,0,1,.394-.647A26.765,26.765,0,0,1,180.5,6.85c-1.34,3.171-3.885,4.715-7.142,5.337" transform="translate(-133.412 -4.352)" fill="#994738"/>
        <path id="Trazado_601136" data-name="Trazado 601136" d="M177.526,13.939a10.027,10.027,0,0,0-9.542,7.113c-.081.268-.143.54-.2.812,0,.235,0,.47,0,.705a12.558,12.558,0,0,1,1.069-3.223,9.663,9.663,0,0,1,8.768-5.181,13.457,13.457,0,0,0,2.256-.255,12.664,12.664,0,0,0,7.847-4.678,9.049,9.049,0,0,0,2.049-3.766,2.016,2.016,0,0,0-.394.647,12.686,12.686,0,0,1-11.854,7.824" transform="translate(-133.513 -4.351)" fill="#994738"/>
        <path id="Trazado_601137" data-name="Trazado 601137" d="M322.177,275.7c-2.569,2.556-5.122,5.128-7.7,7.675-.152.15-.31.468-.56.414a2.726,2.726,0,0,1-1.066,1.35,11.509,11.509,0,0,1,2.8.15,2.413,2.413,0,0,1,1.781,2.382c.018.636.007,1.272.009,1.908.4-.426.8-.846,1.189-1.279,1.73-1.927,3.472-3.843,5.174-5.795a2.112,2.112,0,0,0,.505-2.19c-.612-1.666-1.246-3.324-1.871-4.986h0a1.271,1.271,0,0,1-.262.369" transform="translate(-248.952 -219.096)" fill="#fbbea8"/>
        <path id="Trazado_601138" data-name="Trazado 601138" d="M318.077,283.772h0l-.008.018c.25.054.408-.264.56-.414,2.578-2.547,5.131-5.119,7.7-7.675a1.271,1.271,0,0,0,.262-.369,2.087,2.087,0,0,0-.306.214q-4.107,4.111-8.209,8.226" transform="translate(-253.104 -219.096)" fill="#fbbea8"/>
        <path id="Trazado_601139" data-name="Trazado 601139" d="M92.715,283.877c1.089-.014,2.178,0,3.266,0a.142.142,0,0,0,.008-.017c0-.036,0-.072-.005-.108-.249.055-.4-.247-.55-.4-.971-.934-1.914-1.9-2.867-2.85q-2.293-2.292-4.585-4.586a1.756,1.756,0,0,1-.525-.643c-.633,1.686-1.262,3.374-1.9,5.058a1.926,1.926,0,0,0,.423,2c1.71,1.977,3.486,3.9,5.238,5.838,0-.939,0-1.878.014-2.817a1.379,1.379,0,0,1,1.483-1.47" transform="translate(-67.985 -219.049)" fill="#fbbea8"/>
        <path id="Trazado_601140" data-name="Trazado 601140" d="M95.859,275.917q2.29,2.295,4.585,4.586c.953.953,1.9,1.916,2.867,2.85.154.148.3.45.55.4,0-.015,0-.03,0-.046q-4.078-4.089-8.158-8.174a2.443,2.443,0,0,0-.367-.255,1.757,1.757,0,0,0,.525.643" transform="translate(-75.862 -219.05)" fill="#fbbea8"/>
        <path id="Trazado_601141" data-name="Trazado 601141" d="M176.739,12.381c-1.012.4-1.917,1.02-2.917,1.45l-.038-.014-1.616,1.763h0q0,.191,0,.383c.193-.009.333.171.483.3a4.734,4.734,0,0,0,3.855,1.021,9.89,9.89,0,0,0,5.3-2.317,7.984,7.984,0,0,0,1.793-2.249c.132-.24.186-.537.492-.645a72.465,72.465,0,0,0-7.3.1h0c.011.078.01.179-.057.205" transform="translate(-137.002 -9.574)" fill="#ad6c60"/>
        <path id="Trazado_601142" data-name="Trazado 601142" d="M180.082,14.38l.038.014c1-.429,1.9-1.047,2.917-1.45.067-.027.068-.127.057-.2h0a12.043,12.043,0,0,0-2.937,1.558l-.075.082" transform="translate(-143.301 -10.138)" fill="#ad6c60"/>
        <path id="Trazado_601143" data-name="Trazado 601143" d="M183.617,12.873a7.977,7.977,0,0,1-1.793,2.249,9.887,9.887,0,0,1-5.3,2.317,4.733,4.733,0,0,1-3.855-1.021c-.151-.128-.29-.308-.483-.3,0,.021,0,.042,0,.063a6.438,6.438,0,0,0,.642.634,5.3,5.3,0,0,0,4.136.748c3.257-.622,5.8-2.166,7.142-5.337-.305.107-.36.4-.492.645" transform="translate(-137.019 -9.73)" fill="#ad6c60"/>
        <path id="Trazado_601144" data-name="Trazado 601144" d="M116.673,323.259c.826-.025,1.654-.028,2.481,0h.242a1.592,1.592,0,0,0,.492-1.323c-.045-1.1-.01-2.2-.007-3.305l-.037-.029c-.8-.011-1.05-.632-1.321-1.228h-.008a.225.225,0,0,1-.057.072,4.13,4.13,0,0,1-1.72.153c-.48.023-.963-.018-1.443.018a1.241,1.241,0,0,0-1.291,1.3c-.04.606,0,1.215-.018,1.822-.009.323.044.667-.234.924.023.665-.076,1.385.762,1.68a7.517,7.517,0,0,1,2.16-.089" transform="translate(-90.518 -252.552)" fill="#ec8f7a"/>
        <path id="Trazado_601145" data-name="Trazado 601145" d="M122.1,346.25h0a1.9,1.9,0,0,0,.261-.205h-.242c-.827-.031-1.655-.028-2.481,0a7.516,7.516,0,0,0-2.16.089,3.357,3.357,0,0,0,.662.135c1.32.005,2.64-.009,3.96-.017" transform="translate(-93.487 -275.336)" fill="#ec8f7a"/>
        <path id="Trazado_601146" data-name="Trazado 601146" d="M114,318.91a1.241,1.241,0,0,1,1.291-1.3c.48-.036.962.005,1.443-.017a4.13,4.13,0,0,0,1.72-.154.228.228,0,0,0,.057-.071c-1.089,0-2.178-.009-3.267,0a1.379,1.379,0,0,0-1.483,1.47c-.017.939-.01,1.878-.014,2.817.278-.257.225-.6.234-.924.017-.607-.022-1.216.018-1.822" transform="translate(-90.517 -252.541)" fill="#ec8f7a"/>
        <path id="Trazado_601147" data-name="Trazado 601147" d="M306.452,326.8c-.034-2.526-.724-3.207-3.273-3.222a2.673,2.673,0,0,1-.974-.09.384.384,0,0,1-.138-.124l-1.056.146h0a2.4,2.4,0,0,0-1.683,2.368c-.009.716-.012,1.433-.016,2.15h.008c2.068-.043,4.137-.016,6.205-.013a1.068,1.068,0,0,1,.849.236l.3-.447c-.289-.287-.212-.659-.216-1" transform="translate(-238.177 -257.316)" fill="#ec8f7a"/>
        <path id="Trazado_601148" data-name="Trazado 601148" d="M299.313,346.1h-.008c0,.072,0,.144,0,.217l7.063.006a1.07,1.07,0,0,0-.849-.236c-2.068,0-4.137-.03-6.205.013" transform="translate(-238.172 -275.394)" fill="#ec8f7a"/>
        <path id="Trazado_601149" data-name="Trazado 601149" d="M317.394,325.84a2.412,2.412,0,0,0-1.781-2.382,11.508,11.508,0,0,0-2.8-.15h-.01a.385.385,0,0,0,.138.124,2.674,2.674,0,0,0,.974.09c2.548.014,3.239.7,3.273,3.222,0,.344-.073.716.216,1,0-.636.009-1.272-.009-1.908" transform="translate(-248.912 -257.263)" fill="#ec8f7a"/>
        <path id="Trazado_601150" data-name="Trazado 601150" d="M255.041,119.815h0a9.2,9.2,0,0,1-1.348,5.877,7.075,7.075,0,0,1-1.716,1.9l-.637.608h0q.032,1.427.065,2.853a8.128,8.128,0,0,1,3.6.8,29.071,29.071,0,0,0,1.086-11.724c-.231-.5-.68-.264-1.046-.311" transform="translate(-200.004 -95.331)" fill="#e42c55"/>
        <path id="Trazado_601151" data-name="Trazado 601151" d="M251.657,174.952h0l3.595.74a8.125,8.125,0,0,0-3.6-.8v.056" transform="translate(-200.256 -139.174)" fill="#e42c55"/>
        <path id="Trazado_601152" data-name="Trazado 601152" d="M269.466,48.935l-.011.007q0,2.35,0,4.7a4.931,4.931,0,0,0,.679,0,2.751,2.751,0,0,1,2.973,1.676q-.008-6.259-.016-12.519a7.514,7.514,0,0,1-3.627,6.133" transform="translate(-214.419 -34.06)" fill="#994738"/>
        <path id="Trazado_601153" data-name="Trazado 601153" d="M269.455,48.759v.183l.011-.007a7.513,7.513,0,0,0,3.627-6.133,10.06,10.06,0,0,1-1.491,3.845,14.357,14.357,0,0,1-2.147,2.112" transform="translate(-214.419 -34.06)" fill="#994738"/>
        <path id="Trazado_601154" data-name="Trazado 601154" d="M272.65,97.418a2.477,2.477,0,0,0-2.4-1.154,1.012,1.012,0,0,1-.792-.153V100.9l.012-.018c.46-.176.869-.22,1.033.389h0c.047-.143.09-.261.274-.313,1.952-.545,2.39-1.156,2.334-3.222h0c-.255.037-.356-.164-.464-.324" transform="translate(-214.423 -76.481)" fill="#fbbea8"/>
        <path id="Trazado_601155" data-name="Trazado 601155" d="M269.472,119.048l-.012.018v.06c.365.047.815-.188,1.046.311-.164-.608-.574-.565-1.033-.389" transform="translate(-214.423 -94.641)" fill="#fbbea8"/>
        <path id="Trazado_601156" data-name="Trazado 601156" d="M270.142,95.77a4.965,4.965,0,0,1-.679,0v.048a1.011,1.011,0,0,0,.792.153,2.478,2.478,0,0,1,2.4,1.154c.108.16.209.36.464.324h0a2.751,2.751,0,0,0-2.973-1.676" transform="translate(-214.426 -76.185)" fill="#fbbea8"/>
        <path id="Trazado_601157" data-name="Trazado 601157" d="M24.257,57.02h0a22.131,22.131,0,0,1-7.327-12.192A23.183,23.183,0,0,1,34.778,16.873a10.469,10.469,0,0,1,2.941-.358,15.175,15.175,0,0,1,4.772.053,21.78,21.78,0,0,1,4.008.864,5.073,5.073,0,0,1,1.645-1.758,23.051,23.051,0,0,0-6.411-1.192,25.043,25.043,0,0,0-19.8,7.049A24.6,24.6,0,0,0,14.51,36.563a24.968,24.968,0,0,0,6.369,19.943,27.51,27.51,0,0,0,8.7,6.326,27.209,27.209,0,0,1,2.574,1.283,8.328,8.328,0,0,1,.687-2.235,26.8,26.8,0,0,1-6.076-2.9,16.155,16.155,0,0,1-2.509-1.959" transform="translate(-11.402 -11.446)" fill="#cb0033"/>
        <path id="Trazado_601158" data-name="Trazado 601158" d="M28.835,62.038a27.507,27.507,0,0,1-8.7-6.326A24.966,24.966,0,0,1,13.763,35.77a24.6,24.6,0,0,1,7.426-15.032,25.042,25.042,0,0,1,19.8-7.049A23.051,23.051,0,0,1,47.4,14.88c.039-.022.075-.047.116-.067a10.63,10.63,0,0,0-3.264-.893,28.211,28.211,0,0,0-9.085-.293A24.4,24.4,0,0,0,25.9,16.893,25.336,25.336,0,0,0,13.555,41.745a24.328,24.328,0,0,0,2.437,8.27A24.682,24.682,0,0,0,25.76,60.6a22.813,22.813,0,0,0,5.648,2.787h0c0-.022,0-.043,0-.065a27.333,27.333,0,0,0-2.574-1.283" transform="translate(-10.655 -10.653)" fill="#cb0033"/>
        <path id="Trazado_601159" data-name="Trazado 601159" d="M101.608,249.157l.02.012.814-2.193h0l-.147-.054a8.336,8.336,0,0,0-.687,2.235" transform="translate(-80.855 -196.489)" fill="#cb0033"/>
        <path id="Trazado_601160" data-name="Trazado 601160" d="M101.606,257.931l.02-.054-.02-.012c0,.022,0,.043,0,.065" transform="translate(-80.853 -205.197)" fill="#cb0033"/>
        <path id="Trazado_601161" data-name="Trazado 601161" d="M171.832,22.456l.069.02h0l1.616-1.764-.04-.015a5.073,5.073,0,0,0-1.645,1.758" transform="translate(-136.736 -16.47)" fill="#cb0033"/>
        <path id="Trazado_601162" data-name="Trazado 601162" d="M179.925,20.451l.075-.082c-.04.02-.077.045-.116.067l.04.015" transform="translate(-143.144 -16.209)" fill="#cb0033"/>
        <path id="Trazado_601163" data-name="Trazado 601163" d="M152.83,224.277a21.252,21.252,0,0,0,.294-2.628,5.429,5.429,0,0,0,.112-1.2c-.025-.825.357-.925,1.053-.908,1.855.043,3.712.027,5.569.007.5-.006.725.054.8.669.175,1.352.122,2.726.426,4.061a53.037,53.037,0,0,0,5.329-.125,6.644,6.644,0,0,0,5.537-5.517,20.845,20.845,0,0,0,.124-2.734q0-6.006,0-12.012h-.007c-4.767.046-9.534.014-14.3.016a1.537,1.537,0,0,1-.74-.14.946.946,0,0,1-.092-.1c-.369.346-.839.237-1.272.238q-7.142.015-14.284.006c-.255,0-.509,0-.764,0-1.483.01-1.746.263-1.747,1.728q-.006,8.784,0,17.567a8.526,8.526,0,0,1-.021.991c0,.026,0,.052,0,.078l13.989.006m-.76-9.58c-.02-.769.5-1.251,1.388-1.254q3.505-.011,7.01,0c.854,0,1.361.453,1.38,1.186.02.768-.5,1.248-1.389,1.254-1.194.008-2.387,0-3.581,0-1.143,0-2.286.007-3.429,0-.854-.007-1.361-.452-1.38-1.186" transform="translate(-110.483 -162.064)" fill="#dfd9df"/>
        <path id="Trazado_601164" data-name="Trazado 601164" d="M227.514,203.658a1.534,1.534,0,0,0,.74.14c4.767,0,9.534.03,14.3-.016h.007c0-.066,0-.131,0-.2-.356-.01-.711-.028-1.067-.029q-7.022-.015-14.043-.026l-.029.027a.943.943,0,0,0,.092.1" transform="translate(-180.972 -161.959)" fill="#dfd9df"/>
        <path id="Trazado_601165" data-name="Trazado 601165" d="M137.966,224.173c0-.026,0-.052,0-.078a8.529,8.529,0,0,0,.021-.991q0-8.784,0-17.567c0-1.465.265-1.718,1.747-1.728.255,0,.509,0,.764,0q7.142,0,14.284-.006c.432,0,.9.107,1.272-.238-.007-.009-.017-.017-.023-.025-.288.009-.575.022-.863.022q-7.909,0-15.819,0c-1.213,0-1.609.39-1.61,1.586q0,4.814,0,9.628.007,4.7.028,9.4h.194" transform="translate(-109.608 -161.967)" fill="#dfd9df"/>
        <path id="Trazado_601166" data-name="Trazado 601166" d="M227.362,203.53l-.053,0c.007.009.016.017.023.026l.029-.027" transform="translate(-180.882 -161.959)" fill="#dfd9df"/>
        <path id="Trazado_601167" data-name="Trazado 601167" d="M259.036,205.514c0,4.245.042,8.49-.009,12.735a6.985,6.985,0,0,1-7.155,7.163c-1.067.022-2.135.008-3.2,0a1.871,1.871,0,0,1-.851-.128l.416,4.329h0c-.008-.352.016-.619.513-.617,3.653.018,7.307.011,10.96.012a.92.92,0,0,1,.1,0c.051-.016.1-.033.154-.045.375-.036.757-.257,1.122.022a.118.118,0,0,1,.028-.149c.385-.366.585-.894,1.044-1.192a.565.565,0,0,1-.263-.183,3.509,3.509,0,0,1-.113-1.285q0-9.574,0-19.147c0-.305.008-.61-.008-.915-.051-.956-.362-1.272-1.305-1.315-.507-.023-1.015,0-1.523-.018a1.614,1.614,0,0,1,.1.726" transform="translate(-197.202 -162.961)" fill="#a7a2a7"/>
        <path id="Trazado_601168" data-name="Trazado 601168" d="M303.217,203.908c.944.043,1.254.359,1.305,1.315.016.3.008.61.008.915q0,9.574,0,19.147a3.505,3.505,0,0,0,.114,1.285.564.564,0,0,0,.263.183l.02-.014c-.293-.24-.148-.57-.148-.853q-.015-9.193-.008-18.386c0-.865.014-1.73,0-2.594a1.161,1.161,0,0,0-1.24-1.242c-.66-.014-1.321.015-1.982.024a.723.723,0,0,1,.149.2c.508.02,1.016-.005,1.523.018" transform="translate(-239.956 -162.063)" fill="#a7a2a7"/>
        <path id="Trazado_601169" data-name="Trazado 601169" d="M312.732,317.918a.118.118,0,0,0-.028.149l.018.013a2.728,2.728,0,0,0,1.066-1.35l-.012,0c-.46.3-.659.826-1.044,1.192" transform="translate(-248.823 -252.035)" fill="#a7a2a7"/>
        <path id="Trazado_601170" data-name="Trazado 601170" d="M318.023,316.675l.008-.018-.02.014.012,0" transform="translate(-253.058 -251.981)" fill="#a7a2a7"/>
        <path id="Trazado_601171" data-name="Trazado 601171" d="M306.667,322.729c-.053.012-.1.029-.154.045a.27.27,0,0,1,.229.138l1.056-.146-.008-.014c-.366-.279-.747-.058-1.122-.022" transform="translate(-243.908 -256.72)" fill="#a7a2a7"/>
        <path id="Trazado_601172" data-name="Trazado 601172" d="M312.764,323.292l.008.014h.01l-.018-.013" transform="translate(-248.883 -257.26)" fill="#a7a2a7"/>
        <path id="Trazado_601173" data-name="Trazado 601173" d="M258.629,219.51a6.644,6.644,0,0,1-5.537,5.517,53.037,53.037,0,0,1-5.329.125h0l.011.115a1.869,1.869,0,0,0,.851.128c1.068.006,2.136.02,3.2,0a6.985,6.985,0,0,0,7.155-7.163c.051-4.244.014-8.49.009-12.735a1.616,1.616,0,0,0-.1-.726c-.049,0-.1,0-.148,0q0,6.006,0,12.012a20.819,20.819,0,0,1-.124,2.734" transform="translate(-197.159 -162.941)" fill="#a7a2a7"/>
        <path id="Trazado_601174" data-name="Trazado 601174" d="M301.694,204a.721.721,0,0,0-.149-.2c0,.066,0,.132,0,.2.049,0,.1,0,.148.005" transform="translate(-239.955 -162.173)" fill="#a7a2a7"/>
        <path id="Trazado_601175" data-name="Trazado 601175" d="M208.95,167.784a4.634,4.634,0,0,0,4.121-3.773,1.2,1.2,0,0,1,.28-.665c-.368-.413-.2-.929-.225-1.4a6.327,6.327,0,0,1,.033-1.289,1.117,1.117,0,0,1,.027-.112,10.913,10.913,0,0,1-3.024,1.18,8.426,8.426,0,0,1-6.577-1.364q-.011,1.49-.023,2.981a1.44,1.44,0,0,1,.349.81,4.587,4.587,0,0,0,3.652,3.526c.294.067.628.047.861.289a.912.912,0,0,1,.525-.182" transform="translate(-161.986 -127.607)" fill="#ec8f7a"/>
        <path id="Trazado_601176" data-name="Trazado 601176" d="M232.015,175.641a4.634,4.634,0,0,1-4.121,3.773.912.912,0,0,0-.525.182c.013.013.027.024.039.039a4.927,4.927,0,0,0,4.923-4.619h0c-.013-.013-.024-.027-.036-.04a1.2,1.2,0,0,0-.28.665" transform="translate(-180.929 -139.238)" fill="#ec8f7a"/>
        <path id="Trazado_601177" data-name="Trazado 601177" d="M207.562,179.289a4.587,4.587,0,0,1-3.652-3.526,1.44,1.44,0,0,0-.349-.81v.07c.485,2.84,2.048,4.321,4.836,4.586.009-.011.018-.022.027-.031-.233-.243-.567-.222-.861-.289" transform="translate(-161.983 -139.219)" fill="#ec8f7a"/>
        <path id="Trazado_601178" data-name="Trazado 601178" d="M227.263,197.6a.4.4,0,0,0-.027.031l.066.008c-.012-.015-.026-.026-.039-.039" transform="translate(-180.824 -157.24)" fill="#ec8f7a"/>
        <path id="Trazado_601179" data-name="Trazado 601179" d="M250.351,161.106a6.326,6.326,0,0,0-.033,1.289c.027.473-.142.988.225,1.4.006-.006.01-.012.017-.017h.017q-.032-1.426-.064-2.853l-.135.068a1.109,1.109,0,0,0-.027.112" transform="translate(-199.177 -128.057)" fill="#ec8f7a"/>
        <path id="Trazado_601180" data-name="Trazado 601180" d="M251.488,174.91c.012.013.022.027.036.04v-.056H251.5l-.017.017" transform="translate(-200.122 -139.172)" fill="#ec8f7a"/>
        <path id="Trazado_601181" data-name="Trazado 601181" d="M84.562,40.619a15.48,15.48,0,0,1,.034-2.192c.029-.112.055-.224.081-.336a1.374,1.374,0,0,1-.127-.772c-.009-2.44-.044-4.882.013-7.321a6.454,6.454,0,0,1,.909-3.5.465.465,0,0,1,.183-.087.41.41,0,0,1-.061-.351,2.147,2.147,0,0,1-1.225-.165,22.474,22.474,0,0,0-7.4-.657l-.075.007,1.041,3.538a1.484,1.484,0,0,1,1.9.454c.585.636,1.218,1.227,1.829,1.84.75.753.873,1.411.375,1.992s-1.142.557-2.112-.15l-.018.006v3.8h0a26.234,26.234,0,0,1,1.041,7.761c1,.1,1.377.483,1.382,1.435q.011,2.251,0,4.5a1.238,1.238,0,0,1-1.4,1.41c-.762.013-1.525.02-2.287.03A47.356,47.356,0,0,1,71,59.044a86.233,86.233,0,0,0-7.5,6.436A23.321,23.321,0,0,0,71.318,70a1.386,1.386,0,0,1,.7.332c.719-1.836,1.391-3.69,2.088-5.534a10.6,10.6,0,0,1,7.707-6.953c3.159-.783,6.363-1.376,9.542-2.073a1.248,1.248,0,0,1,.721-.032,5.813,5.813,0,0,1-.092-2.843.5.5,0,0,1,.128-.139,8.562,8.562,0,0,1-3.653-7.584c.019-.545-.17-.725-.7-.679a2.579,2.579,0,0,1-2.24-.684,2.29,2.29,0,0,1-.609-2.5s0-.01,0-.014l-.025.03c-.325-.135-.317-.437-.322-.706" transform="translate(-50.531 -20.02)" fill="#a7a2a7"/>
        <path id="Trazado_601182" data-name="Trazado 601182" d="M124.531,174.744c-3.18.7-6.383,1.29-9.542,2.073a10.6,10.6,0,0,0-7.707,6.953c-.7,1.844-1.37,3.7-2.088,5.534a.583.583,0,0,1,.1.177c.864-1.91,1.486-3.914,2.261-5.858a10.183,10.183,0,0,1,7.265-6.531c3.466-.855,6.974-1.537,10.464-2.295-.012-.028-.022-.056-.033-.085a1.248,1.248,0,0,0-.721.032" transform="translate(-83.708 -138.993)" fill="#a7a2a7"/>
        <path id="Trazado_601183" data-name="Trazado 601183" d="M166.563,88.809A15.516,15.516,0,0,0,166.529,91c.006.268,0,.57.322.705l.025-.03a12.654,12.654,0,0,1-.1-3.055.657.657,0,0,1-.128-.148c-.026.113-.052.225-.081.337" transform="translate(-132.498 -70.402)" fill="#a7a2a7"/>
        <path id="Trazado_601184" data-name="Trazado 601184" d="M167.4,31.4a6.459,6.459,0,0,0-.909,3.5c-.057,2.44-.022,4.881-.013,7.321a1.373,1.373,0,0,0,.127.771c.042-.185.083-.371.124-.557-.013-2.583-.053-5.166,0-7.747a6.237,6.237,0,0,1,.9-3.314.373.373,0,0,1-.047-.057.462.462,0,0,0-.183.087" transform="translate(-132.461 -24.915)" fill="#a7a2a7"/>
        <path id="Trazado_601185" data-name="Trazado 601185" d="M167.3,86.449c0-.235,0-.47,0-.705-.041.186-.081.372-.124.557a.658.658,0,0,0,.128.148" transform="translate(-133.031 -68.231)" fill="#a7a2a7"/>
        <path id="Trazado_601186" data-name="Trazado 601186" d="M171.671,29.795a.311.311,0,0,1,.046-.006q0-.191,0-.383a.9.9,0,0,1-.1.038.41.41,0,0,0,.061.351" transform="translate(-136.548 -23.4)" fill="#a7a2a7"/>
        <path id="Trazado_601187" data-name="Trazado 601187" d="M172.009,31.343h0V31.28a.311.311,0,0,0-.046.006.351.351,0,0,0,.047.057" transform="translate(-136.839 -24.891)" fill="#a7a2a7"/>
        <path id="Trazado_601188" data-name="Trazado 601188" d="M70.87,227.091a23.32,23.32,0,0,1-7.817-4.519c-.038.038-.077.075-.115.114a16.142,16.142,0,0,0,2.509,1.959,26.8,26.8,0,0,0,6.076,2.9l.006-.019.04-.1a1.383,1.383,0,0,0-.7-.331" transform="translate(-50.083 -177.112)" fill="#a7a2a7"/>
        <path id="Trazado_601189" data-name="Trazado 601189" d="M128.845,24.134l.047.159.075-.007a22.474,22.474,0,0,1,7.4.657,2.144,2.144,0,0,0,1.225.165s0-.006,0-.008l.033-.05a21.777,21.777,0,0,0-4.008-.864,15.175,15.175,0,0,0-4.772-.053" transform="translate(-102.529 -19.065)" fill="#a7a2a7"/>
        <path id="Trazado_601190" data-name="Trazado 601190" d="M104.976,246.424l-.006.019.147.054a.587.587,0,0,0-.1-.177l-.04.1" transform="translate(-83.53 -196.01)" fill="#a7a2a7"/>
        <path id="Trazado_601191" data-name="Trazado 601191" d="M171.7,29.306l-.033.05s0,.006,0,.008a.861.861,0,0,0,.1-.038h0l-.069-.02" transform="translate(-136.602 -23.32)" fill="#a7a2a7"/>
        <path id="Trazado_601192" data-name="Trazado 601192" d="M202.562,160.279a.506.506,0,0,0-.128.139,5.811,5.811,0,0,0,.093,2.843l.028.01,0,0q.012-1.49.023-2.98l-.021-.017" transform="translate(-160.983 -127.542)" fill="#a7a2a7"/>
        <path id="Trazado_601193" data-name="Trazado 601193" d="M203.431,174.9l0,0-.029-.01c.011.028.021.056.033.085v-.07" transform="translate(-161.854 -139.163)" fill="#a7a2a7"/>
        <path id="Trazado_601194" data-name="Trazado 601194" d="M138.468,308.856q5.984,0,11.969,0c.228,0,.455.028.683.043q.161-1.885.322-3.771c-.012.008-.022.018-.035.026a1.946,1.946,0,0,1-.821.124q-6.16.01-12.32,0a1.648,1.648,0,0,1-.806-.121,7.679,7.679,0,0,1-.116,2.2.536.536,0,0,1-.23.142.177.177,0,0,1-.005.11c0,.006,0,.011,0,.017h0a11.706,11.706,0,0,0,1.321,1.228Z" transform="translate(-109.104 -242.804)" fill="#a7a2a7"/>
        <path id="Trazado_601195" data-name="Trazado 601195" d="M137.084,307.052a.536.536,0,0,0,.23-.142,7.679,7.679,0,0,0,.116-2.2.774.774,0,0,1-.191-.144c-.145.809.156,1.65-.167,2.447a.247.247,0,0,1,.012.043" transform="translate(-109.075 -242.356)" fill="#a7a2a7"/>
        <path id="Trazado_601196" data-name="Trazado 601196" d="M137.092,316.753l-.01,0c0,.036,0,.072.005.107a.177.177,0,0,0,.005-.11" transform="translate(-109.083 -252.057)" fill="#a7a2a7"/>
        <path id="Trazado_601197" data-name="Trazado 601197" d="M137.072,316.542h0c0,.015,0,.03,0,.046l.01,0a.242.242,0,0,0-.012-.043" transform="translate(-109.075 -251.889)" fill="#a7a2a7"/>
        <path id="Trazado_601198" data-name="Trazado 601198" d="M137.112,317.375h0c.271.6.52,1.217,1.321,1.228a11.692,11.692,0,0,1-1.321-1.228" transform="translate(-109.107 -252.552)" fill="#a7a2a7"/>
        <path id="Trazado_601199" data-name="Trazado 601199" d="M152.818,304.568h0l-13.989-.006q0,.072,0,.144a1.646,1.646,0,0,0,.806.121q6.16.009,12.32,0a1.947,1.947,0,0,0,.821-.124c.013-.008.022-.018.035-.026q0-.055.009-.109" transform="translate(-110.471 -242.356)" fill="#a7a2a7"/>
        <path id="Trazado_601200" data-name="Trazado 601200" d="M138.083,304.706q0-.072,0-.144h-.194a.773.773,0,0,0,.191.144" transform="translate(-109.728 -242.356)" fill="#a7a2a7"/>
        <path id="Trazado_601201" data-name="Trazado 601201" d="M213.065,291.517v0c-.271-.01-.3-.248-.318-.443-.1-1.175-.209-2.348-.288-3.524a.575.575,0,0,1,.12-.409,1.287,1.287,0,0,1-.327-1.012c-.063-.937-.16-1.87-.249-2.8a.712.712,0,0,0-.834-.745c-1.778.014-3.555.019-5.333,0-.555-.007-.773.231-.821.751-.087.934-.184,1.868-.249,2.8a1.251,1.251,0,0,1-.339,1.009c.327.5.048,1.044.018,1.554a4.793,4.793,0,0,1-.392,2.292l-.006,0q-.212,2.29-.423,4.58,4.885-.047,9.77,0h.006q-.165-2.025-.331-4.05" transform="translate(-162.032 -224.858)" fill="#b1a5b1"/>
        <path id="Trazado_601202" data-name="Trazado 601202" d="M213.313,346.1q-4.885-.053-9.77,0l-.02.212h9.812l-.017-.211h-.006" transform="translate(-161.955 -275.39)" fill="#b1a5b1"/>
        <path id="Trazado_601203" data-name="Trazado 601203" d="M215.164,282.066c-.08-.615-.306-.674-.8-.669-1.856.02-3.713.037-5.569-.007-.7-.016-1.078.083-1.053.909a5.416,5.416,0,0,1-.112,1.2,21.251,21.251,0,0,1-.293,2.628c.017.022.032.045.046.068a1.25,1.25,0,0,0,.339-1.009c.065-.936.162-1.87.249-2.8.049-.52.267-.758.821-.751,1.777.022,3.555.017,5.333,0a.712.712,0,0,1,.834.745c.089.934.187,1.868.249,2.8a1.287,1.287,0,0,0,.327,1.012.507.507,0,0,1,.059-.068c-.3-1.335-.251-2.71-.426-4.061" transform="translate(-164.985 -223.915)" fill="#b1a5b1"/>
        <path id="Trazado_601204" data-name="Trazado 601204" d="M247.029,304.947c-.011-.009-.019-.018-.029-.027a.575.575,0,0,0-.12.409c.08,1.176.193,2.349.288,3.524.016.195.047.433.318.443l-.416-4.329-.041-.02" transform="translate(-196.454 -242.641)" fill="#b1a5b1"/>
        <path id="Trazado_601205" data-name="Trazado 601205" d="M247.544,304.7l-.011-.115a.529.529,0,0,0-.059.068c.01.009.018.018.029.027s.028.013.041.02" transform="translate(-196.928 -242.376)" fill="#b1a5b1"/>
        <path id="Trazado_601206" data-name="Trazado 601206" d="M205.7,308.771a4.793,4.793,0,0,0,.393-2.292c.03-.51.309-1.052-.018-1.554-.018.014-.036.028-.056.041q-.161,1.885-.322,3.771l0,.038.006,0" transform="translate(-163.68 -242.644)" fill="#b1a5b1"/>
        <path id="Trazado_601207" data-name="Trazado 601207" d="M207.294,304.591h0c0,.036-.006.073-.009.109.02-.013.038-.027.056-.041-.015-.023-.029-.046-.046-.068" transform="translate(-164.948 -242.379)" fill="#b1a5b1"/>
        <path id="Trazado_601208" data-name="Trazado 601208" d="M142.928,327.136a1.1,1.1,0,0,1-.45.912c4.113-.026,8.225-.033,12.337,0a1.42,1.42,0,0,1-.044-.724c.123-1.026.2-2.056.28-3.087a1.105,1.105,0,0,1,.249-.723,2.186,2.186,0,0,1-.944.117q-5.263.006-10.525,0a1.5,1.5,0,0,1-1.089-.24c0,.009,0,.019,0,.028.045.034.087.07.133.1a20.735,20.735,0,0,1,.055,3.612" transform="translate(-113.377 -257.341)" fill="#2f6bb1"/>
        <path id="Trazado_601209" data-name="Trazado 601209" d="M140.594,346.1a1.307,1.307,0,0,1-.483.207h0l12.952.008a.782.782,0,0,1-.132-.212c-4.112-.035-8.224-.028-12.337,0" transform="translate(-111.494 -275.39)" fill="#2f6bb1"/>
        <path id="Trazado_601210" data-name="Trazado 601210" d="M142.062,327.244a20.734,20.734,0,0,0-.055-3.612c-.046-.033-.088-.069-.133-.1,0,1.1-.038,2.205.007,3.305a1.592,1.592,0,0,1-.492,1.323h.222a1.1,1.1,0,0,0,.45-.912" transform="translate(-112.511 -257.449)" fill="#2f6bb1"/>
        <path id="Trazado_601211" data-name="Trazado 601211" d="M140.373,346.183a1.9,1.9,0,0,1-.261.205,1.305,1.305,0,0,0,.483-.207h-.222" transform="translate(-111.494 -275.475)" fill="#2f6bb1"/>
        <path id="Trazado_601212" data-name="Trazado 601212" d="M156.417,323.421c-.228-.015-.455-.043-.683-.043q-5.985,0-11.969,0a1.5,1.5,0,0,0,1.089.24q5.263.009,10.526,0a2.182,2.182,0,0,0,.944-.117.791.791,0,0,1,.093-.084" transform="translate(-114.401 -257.329)" fill="#2f6bb1"/>
        <path id="Trazado_601213" data-name="Trazado 601213" d="M203.1,323.82a1.105,1.105,0,0,0-.249.723c-.075,1.03-.157,2.06-.28,3.087a1.418,1.418,0,0,0,.044.724h.151q.211-2.29.423-4.58a1,1,0,0,1-.09.046" transform="translate(-161.173 -257.644)" fill="#2f6bb1"/>
        <path id="Trazado_601214" data-name="Trazado 601214" d="M203.017,346.194h-.137a.78.78,0,0,0,.132.212l.02-.212h-.014" transform="translate(-161.442 -275.484)" fill="#2f6bb1"/>
        <path id="Trazado_601215" data-name="Trazado 601215" d="M205.346,323.588a.792.792,0,0,0-.093.084.958.958,0,0,0,.09-.046l0-.038" transform="translate(-163.331 -257.496)" fill="#2f6bb1"/>
        <path id="Trazado_601216" data-name="Trazado 601216" d="M260.142,325.157a2.079,2.079,0,0,1,.893-.942c-3.356.152-6.715.022-10.072.065a1.563,1.563,0,0,0-1.045.372.492.492,0,0,1-.058,0v0c.211.15.218.385.257.608.161.924.163,1.864.288,2.792a1.2,1.2,0,0,1-.06.649q4.779-.045,9.559,0a5.184,5.184,0,0,1,.239-3.548" transform="translate(-198.826 -257.995)" fill="#235084"/>
        <path id="Trazado_601217" data-name="Trazado 601217" d="M251.7,346.1a.791.791,0,0,1-.137.212l9.751.006q-.029-.109-.055-.217-4.78-.051-9.559,0" transform="translate(-200.183 -275.391)" fill="#235084"/>
        <path id="Trazado_601218" data-name="Trazado 601218" d="M298.5,325.048a5.184,5.184,0,0,0-.239,3.548h.056c0-.716.007-1.433.016-2.15a2.4,2.4,0,0,1,1.683-2.368c-.208.012-.416.019-.624.028a2.079,2.079,0,0,0-.893.942" transform="translate(-237.18 -257.886)" fill="#235084"/>
        <path id="Trazado_601219" data-name="Trazado 601219" d="M299.035,346.2q.026.109.055.217V346.2h-.056" transform="translate(-237.958 -275.486)" fill="#235084"/>
        <path id="Trazado_601220" data-name="Trazado 601220" d="M250.368,323.325c-.5,0-.521.265-.513.617a.448.448,0,0,0,.058,0,1.562,1.562,0,0,1,1.045-.372c3.357-.042,6.716.087,10.072-.065a2.183,2.183,0,0,1,.4-.165.912.912,0,0,0-.1,0c-3.653,0-7.307.007-10.96-.012" transform="translate(-198.822 -257.286)" fill="#235084"/>
        <path id="Trazado_601221" data-name="Trazado 601221" d="M304.972,323.4a2.172,2.172,0,0,0-.4.166c.208-.01.416-.016.624-.028a.27.27,0,0,0-.228-.138" transform="translate(-242.367 -257.35)" fill="#235084"/>
        <path id="Trazado_601222" data-name="Trazado 601222" d="M250.4,329.768c-.125-.928-.127-1.868-.288-2.792-.039-.223-.046-.458-.257-.608l.331,4.05h.154a1.2,1.2,0,0,0,.06-.649" transform="translate(-198.826 -259.708)" fill="#235084"/>
        <path id="Trazado_601223" data-name="Trazado 601223" d="M251.481,346.192q.009.106.017.211a.8.8,0,0,0,.137-.212h-.154" transform="translate(-200.117 -275.482)" fill="#235084"/>
        <path id="Trazado_601224" data-name="Trazado 601224" d="M168.331,84.486a1.169,1.169,0,0,1,.076.67,2.242,2.242,0,0,0,2.232,2.314c.1,0-.026,0,.076,0,1.345.04,1.335.046,1.358,1.393a8.2,8.2,0,0,0,2.993,6.427,1.1,1.1,0,0,1,.478.632c.2-.124.4.059.575.159a8.331,8.331,0,0,0,8.455.1c.194-.1.388-.236.615-.161a1.71,1.71,0,0,1,.618-.715c.04-.033.077-.068.116-.1q0-3.027,0-6.054c0-.244.079-.512-.138-.719h0c-1.28.08-1.678-.3-1.695-1.569-.01-.819-.073-1.647.921-2,.327-.108.512-.194.224-.606a4.188,4.188,0,0,0-3.522-1.925c-1.882-.032-3.764-.007-5.646-.008a4.147,4.147,0,0,1-3.985-2.91c0,.91.026,1.818,0,2.727-.013.409-.114.848-.6.811a3.507,3.507,0,0,0-3.138,1.492c0,.012-.01.024-.015.037h0m5.981,1.8a1.336,1.336,0,0,1,1.141-1.462,1.278,1.278,0,0,1,1.3,1.151,6.352,6.352,0,0,1,0,.686c0,1.331-.419,1.887-1.368,1.8-.833-.078-1.1-.62-1.073-2.174" transform="translate(-133.95 -63.198)" fill="#fbbea8"/>
        <path id="Trazado_601225" data-name="Trazado 601225" d="M171.543,81.259c.482.037.584-.4.6-.811.028-.908,0-1.817,0-2.727-.027-.081-.054-.162-.077-.245a.819.819,0,0,0-.114-.191c-.008.891-.02,1.782-.024,2.673,0,1.126,0,1.126-1.115,1.131a2.368,2.368,0,0,0-2.406,1.662,3.508,3.508,0,0,1,3.138-1.492" transform="translate(-134.009 -61.501)" fill="#fbbea8"/>
        <path id="Trazado_601226" data-name="Trazado 601226" d="M251.485,156.812a1.712,1.712,0,0,0-.618.715.494.494,0,0,1,.1.044h0l.637-.608q0-.126,0-.253c-.039.034-.076.069-.116.1" transform="translate(-199.628 -124.702)" fill="#fbbea8"/>
        <path id="Trazado_601227" data-name="Trazado 601227" d="M210.23,161.456a10.922,10.922,0,0,0,3.024-1.18,1.145,1.145,0,0,1,.038-.112c-.227-.075-.42.058-.615.161a8.331,8.331,0,0,1-8.455-.1c-.177-.1-.378-.282-.575-.159,0,.009,0,.018.006.027a8.427,8.427,0,0,0,6.577,1.364" transform="translate(-162.053 -127.339)" fill="#fbbea8"/>
        <path id="Trazado_601228" data-name="Trazado 601228" d="M250.719,160.71a1.124,1.124,0,0,0-.038.112l.134-.068a.507.507,0,0,0-.1-.044" transform="translate(-199.48 -127.885)" fill="#fbbea8"/>
        <path id="Trazado_601229" data-name="Trazado 601229" d="M174.508,115.034a8.2,8.2,0,0,1-2.993-6.427c-.022-1.347-.013-1.353-1.358-1.393-.1,0,.026,0-.076,0a2.242,2.242,0,0,1-2.232-2.315,1.169,1.169,0,0,0-.076-.67,2.289,2.289,0,0,0,.609,2.5,2.58,2.58,0,0,0,2.24.684c.526-.046.715.134.7.679a8.561,8.561,0,0,0,3.653,7.584l.016-.011a1.1,1.1,0,0,0-.478-.632" transform="translate(-133.391 -82.94)" fill="#fbbea8"/>
        <path id="Trazado_601230" data-name="Trazado 601230" d="M203.586,160.227l-.016.011.021.017c0-.01,0-.018-.006-.027" transform="translate(-161.991 -127.501)" fill="#fbbea8"/>
        <path id="Trazado_601231" data-name="Trazado 601231" d="M186.922,61.6a4.126,4.126,0,0,0,4.121,2.664c1.725-.045,3.452-.021,5.178-.005a4.434,4.434,0,0,1,3.715,1.9c.24.328.325.625.078.859a1.169,1.169,0,0,1,1.106.885,2.52,2.52,0,0,1-.636,2.6.6.6,0,0,1,.126.1,1.821,1.821,0,0,1,.184,1.033c.006,1.622,0,3.243,0,4.865a2.794,2.794,0,0,1-.059.67,8.045,8.045,0,0,0,2.675-5.89c.018-.5-.144-1.038.182-1.5a11.708,11.708,0,0,1,0-4.831.657.657,0,0,1-.128-.17,28.246,28.246,0,0,1-.075-4.184.737.737,0,0,1,.069-.294,8.218,8.218,0,0,1-3.887,1.144c-1.27.07-2.546.035-3.819.011-.744-.014-.89-.168-.911-.913-.032-1.163.007-2.326-.02-3.573a26.162,26.162,0,0,1-2.819,2.442,5.842,5.842,0,0,1-4.567,1.29c-.372-.054-.744-.1-.733.462,0,.006,0,.011,0,.017.126.094.148.278.213.417" transform="translate(-148.574 -45.336)" fill="#ec8f7a"/>
        <path id="Trazado_601232" data-name="Trazado 601232" d="M185.789,58.738v-.017c-.011-.56.361-.516.733-.462a5.842,5.842,0,0,0,4.567-1.29,26.2,26.2,0,0,0,2.819-2.442c.027,1.247-.012,2.411.02,3.573.021.745.167.9.911.913,1.273.025,2.548.06,3.818-.01a8.219,8.219,0,0,0,3.887-1.144,2.445,2.445,0,0,1,.147-.27c-.578.255-1.146.539-1.737.76a14.8,14.8,0,0,1-5.2.46c-1.624.013-1.624,0-1.624-1.622V53.9a18.253,18.253,0,0,1-2.332,2.269c-1.571,1.356-3.308,2.312-5.468,1.85-.725-.155-.864.017-.734.657a.327.327,0,0,1,.193.062" transform="translate(-147.654 -42.891)" fill="#ec8f7a"/>
        <path id="Trazado_601233" data-name="Trazado 601233" d="M257.326,121.2a8.043,8.043,0,0,1-2.675,5.889,1.189,1.189,0,0,1-.191.421h0a7.079,7.079,0,0,0,1.716-1.9,9.207,9.207,0,0,0,1.348-5.877c-.006-.011-.011-.025-.016-.037-.326.465-.164,1-.182,1.5" transform="translate(-202.487 -95.247)" fill="#ec8f7a"/>
        <path id="Trazado_601234" data-name="Trazado 601234" d="M268.238,73.241a28.262,28.262,0,0,0,.074,4.184.653.653,0,0,0,.128.17c.005-.011.01-.024.015-.035q0-2.35,0-4.7c-.048.031-.1.057-.147.087a.735.735,0,0,0-.069.294" transform="translate(-213.419 -57.979)" fill="#ec8f7a"/>
        <path id="Trazado_601235" data-name="Trazado 601235" d="M268.884,72.149v-.183a2.429,2.429,0,0,0-.147.27c.049-.03.1-.056.147-.087" transform="translate(-213.848 -57.267)" fill="#ec8f7a"/>
        <path id="Trazado_601236" data-name="Trazado 601236" d="M268.4,100.874l.016-.023q0-2.4,0-4.794l-.015-.014a11.705,11.705,0,0,0,0,4.831" transform="translate(-213.383 -76.426)" fill="#ec8f7a"/>
        <path id="Trazado_601237" data-name="Trazado 601237" d="M269.4,119.641v-.06l-.016.023c.005.012.01.026.016.037" transform="translate(-214.361 -95.157)" fill="#ec8f7a"/>
        <path id="Trazado_601238" data-name="Trazado 601238" d="M269.4,95.922v-.049c-.005.01-.01.023-.015.035l.015.014" transform="translate(-214.368 -76.291)" fill="#ec8f7a"/>
        <path id="Trazado_601239" data-name="Trazado 601239" d="M254.175,129.237c0-1.622,0-3.243,0-4.865a1.823,1.823,0,0,0-.184-1.033.6.6,0,0,0-.126-.1c-.025.021-.049.044-.074.064h0c.218.206.138.475.138.719q.006,3.027,0,6.054c.064-.056.129-.111.191-.168a2.782,2.782,0,0,0,.059-.67" transform="translate(-201.952 -98.067)" fill="#ec8f7a"/>
        <path id="Trazado_601240" data-name="Trazado 601240" d="M200.007,83.423c.247-.233.162-.531-.078-.859a4.434,4.434,0,0,0-3.715-1.9c-1.726-.016-3.453-.04-5.178.005A4.125,4.125,0,0,1,186.915,78c-.065-.139-.087-.323-.214-.417,0,.125,0,.249,0,.374a4.147,4.147,0,0,0,3.985,2.91c1.882,0,3.764-.023,5.646.008a4.188,4.188,0,0,1,3.522,1.925c.287.412.1.5-.224.606a2.841,2.841,0,0,1,.379.013" transform="translate(-148.566 -61.74)" fill="#ec8f7a"/>
        <path id="Trazado_601241" data-name="Trazado 601241" d="M185.954,77.722c0-.125,0-.249,0-.374a.326.326,0,0,0-.193-.061.82.82,0,0,1,.114.191c.023.084.05.164.077.245" transform="translate(-147.821 -61.501)" fill="#ec8f7a"/>
        <path id="Trazado_601242" data-name="Trazado 601242" d="M254.46,156.056c0,.084,0,.169,0,.253a1.193,1.193,0,0,0,.191-.421c-.062.057-.127.112-.191.168" transform="translate(-202.487 -124.048)" fill="#ec8f7a"/>
        <path id="Trazado_601243" data-name="Trazado 601243" d="M25.238,46.465a22.963,22.963,0,0,0,2.107,11.952,21.3,21.3,0,0,0,3.795,5.606c.547.588,1.126,1.147,1.706,1.7a.8.8,0,0,1,.238-.282c1.583-1.467,3.2-2.893,4.877-4.253a85.851,85.851,0,0,0,8.748-7.575,8.307,8.307,0,0,1,1.256-1.392c-.686-.009-1.372-.016-2.058-.028-.993-.017-1.422-.454-1.438-1.459-.016-.986-.016-.986-1.031-.986H37.861c-.076.3.209.389.308.574a1.17,1.17,0,0,1-.211,1.53,1.066,1.066,0,0,1-1.526.092c-.941-.853-1.847-1.752-2.7-2.694a1.12,1.12,0,0,1,.147-1.645Q35,46.465,36.146,45.343a1.228,1.228,0,1,1,1.821,1.636c-.044.059-.093.119-.185.233a.286.286,0,0,0,.012.093c2.172,0,4.219,0,6.266,0,.283,0,.43-.086.41-.39-.013-.2,0-.407,0-.61.017-1,.45-1.429,1.449-1.447s1-.018,1-1.021q0-4.962,0-9.924v-.631a.215.215,0,0,0-.067-.021c-.13.1-.194.157-.257.2a1.228,1.228,0,1,1-1.641-1.817c.81-.838,1.632-1.664,2.449-2.5l-.057.006a8.864,8.864,0,0,1-1.014-3.549,22.038,22.038,0,0,0-13.136,5.446,22.491,22.491,0,0,0-7.952,15.405" transform="translate(-20.001 -20.382)" fill="#dfd9df"/>
        <path id="Trazado_601244" data-name="Trazado 601244" d="M32.092,65.044c-.58-.557-1.159-1.115-1.706-1.7a21.307,21.307,0,0,1-3.795-5.606,22.963,22.963,0,0,1-2.107-11.952,22.49,22.49,0,0,1,7.952-15.405,22.037,22.037,0,0,1,13.136-5.446c0-.055-.008-.108-.008-.163a10.476,10.476,0,0,0-2.941.358A23.183,23.183,0,0,0,24.776,53.082,22.132,22.132,0,0,0,32.1,65.273h0a.315.315,0,0,1-.01-.229" transform="translate(-19.247 -19.7)" fill="#dfd9df"/>
        <path id="Trazado_601245" data-name="Trazado 601245" d="M129.9,29.149l.057-.006.008-.008h0L128.924,25.6l-.039,0a8.87,8.87,0,0,0,1.014,3.549" transform="translate(-102.561 -20.369)" fill="#dfd9df"/>
        <path id="Trazado_601246" data-name="Trazado 601246" d="M76.749,157.291A85.825,85.825,0,0,1,68,164.866c-1.679,1.359-3.295,2.786-4.877,4.253a.8.8,0,0,0-.237.282l.078.075.047.04a86.163,86.163,0,0,1,7.5-6.436A47.357,47.357,0,0,0,78.16,155.9l-.155,0a8.307,8.307,0,0,0-1.256,1.392" transform="translate(-50.042 -124.057)" fill="#dfd9df"/>
        <path id="Trazado_601247" data-name="Trazado 601247" d="M128.853,24.981l.039,0-.047-.159c0,.055.006.108.008.163" transform="translate(-102.529 -19.749)" fill="#dfd9df"/>
        <path id="Trazado_601248" data-name="Trazado 601248" d="M62.821,222.007a.315.315,0,0,0,.01.229c.038-.039.077-.075.115-.114l-.047-.04-.078-.075" transform="translate(-49.977 -176.663)" fill="#dfd9df"/>
        <path id="Trazado_601249" data-name="Trazado 601249" d="M208.416,253.973c1.194,0,2.387.007,3.581,0,.888-.007,1.409-.486,1.389-1.254-.019-.733-.527-1.183-1.38-1.186q-3.5-.011-7.01,0c-.889,0-1.409.485-1.389,1.254.019.734.527,1.18,1.38,1.186,1.143.009,2.286,0,3.429,0" transform="translate(-162.02 -200.151)" fill="#b1a5b1"/>
        <path id="Trazado_601250" data-name="Trazado 601250" d="M83.251,47.117c.749.366,1.253.284,1.547-.2.356-.591.091-1.066-.329-1.5s-.845-.81-1.233-1.246a2.8,2.8,0,0,0-2.447-1.27c.007.376-.279.578-.5.809-.565.587-1.164,1.141-1.718,1.738-.513.553-.61,1.085-.274,1.5a1.063,1.063,0,0,0,1.443.2,1.014,1.014,0,0,1,.492-.141l.067-.054v.074c.118.06.166.239.2.566a2.92,2.92,0,0,1,.011.305q0,4.888,0,9.777c0,.978-.112,1.075-1.093,1.143-1.02.07-1.282.335-1.348,1.358-.061.954-.161,1.071-1.074,1.08-1.681.016-3.361.019-5.042,0-.486-.006-.72-.042-.774-.208h-.086l.075-.093a1.862,1.862,0,0,1,.187-.6.98.98,0,0,0-.214-1.25.95.95,0,0,0-1.326.031,24.814,24.814,0,0,0-2.429,2.427,1.019,1.019,0,0,0,.021,1.458,30.868,30.868,0,0,0,2.378,2.372.957.957,0,0,0,1.325.08,1,1,0,0,0,.229-1.311c-.318-.744-.249-.86.585-.872q2.6-.035,5.194,0c.781.009.9.151.947.959.076,1.245.317,1.441,1.6,1.489.586.022,1.215-.2,1.76.177a1.712,1.712,0,0,1,.28-.136,19.119,19.119,0,0,1,2.055-.066c.808-.047,1.166-.37,1.19-1.182.044-1.5,0-3,.018-4.5.01-.847-.613-1.089-1.2-1.394-.007-.015-.013-.03-.02-.045-1.005.023-1.009.006-1.007-1.007q.007-3,.018-6.01c-.047-.218-.09-.436-.141-.653a23.153,23.153,0,0,1-.058-3.423c0-.257.068-.413.2-.469v-.019l.018.012a.648.648,0,0,1,.47.089M82.74,62.524c-.01,1.146.17.95-1.281.971-1.162,0-1.162,0-1.162-1.4,0-1.048,0-1.048,1.436-1.047,1.01,0,1.019,0,1.006,1.474" transform="translate(-53.385 -34.125)" fill="#606060"/>
        <path id="Trazado_601251" data-name="Trazado 601251" d="M134.167,42.247a2.8,2.8,0,0,1,2.447,1.27c.388.436.825.828,1.233,1.246s.686.906.33,1.5c-.294.488-.8.57-1.547.2a.65.65,0,0,0-.47-.089c.97.707,1.616.73,2.112.15s.374-1.239-.375-1.992c-.61-.613-1.244-1.2-1.829-1.84a1.484,1.484,0,0,0-1.9-.454s0,0,0,.008" transform="translate(-106.764 -33.473)" fill="#606060"/>
        <path id="Trazado_601252" data-name="Trazado 601252" d="M139.63,119.841c.584.305,1.207.547,1.2,1.394-.017,1.5.026,3-.018,4.5-.023.811-.381,1.135-1.19,1.182a19.178,19.178,0,0,0-2.055.066,1.731,1.731,0,0,0-.28.136c.026.018.052.035.077.056.762-.01,1.525-.017,2.287-.03a1.238,1.238,0,0,0,1.4-1.41q.013-2.251,0-4.5c0-.952-.382-1.334-1.382-1.435h-.054c.007.015.012.03.019.045" transform="translate(-109.245 -95.327)" fill="#606060"/>
        <path id="Trazado_601253" data-name="Trazado 601253" d="M142.719,63.669a23.125,23.125,0,0,0,.058,3.423c.05.217.094.435.14.653q0-.373,0-.746V63.2c-.132.056-.2.212-.2.469" transform="translate(-113.541 -50.292)" fill="#606060"/>
        <path id="Trazado_601254" data-name="Trazado 601254" d="M120.082,47.223a1.225,1.225,0,0,0,1.826.048c.063-.047.128-.1.257-.2a1.011,1.011,0,0,0-.492.141,1.063,1.063,0,0,1-1.443-.2c-.336-.418-.239-.95.274-1.5.554-.6,1.153-1.152,1.718-1.739.223-.231.509-.433.5-.809h-.008c-.817.831-1.639,1.657-2.449,2.5a1.231,1.231,0,0,0-.185,1.768" transform="translate(-95.32 -34.184)" fill="#606060"/>
        <path id="Trazado_601255" data-name="Trazado 601255" d="M96.233,73.732c0,1,0,1-1,1.021S93.8,75.2,93.788,76.2c0,.2-.012.408,0,.61.02.3-.127.391-.41.39-2.047-.007-4.094,0-6.266,0,.054.167.288.2.774.208,1.68.02,3.361.017,5.042,0,.913-.009,1.013-.127,1.074-1.08.065-1.023.328-1.288,1.347-1.358.981-.068,1.09-.165,1.093-1.143q.015-4.888,0-9.777a2.879,2.879,0,0,0-.011-.305c-.036-.327-.084-.506-.2-.566v.631q0,4.962,0,9.924" transform="translate(-69.32 -50.274)" fill="#606060"/>
        <path id="Trazado_601256" data-name="Trazado 601256" d="M70.252,120.138a1.23,1.23,0,0,0-1.769.189q-1.148,1.119-2.267,2.267a1.121,1.121,0,0,0-.147,1.645c.852.942,1.758,1.841,2.7,2.694a1.067,1.067,0,0,0,1.526-.092,1.17,1.17,0,0,0,.211-1.53c-.1-.185-.384-.27-.308-.574h5.576c1.015,0,1.015,0,1.031.986.017,1,.445,1.441,1.438,1.459.686.012,1.372.019,2.058.028.026-.018.05-.038.077-.054-.546-.375-1.174-.155-1.76-.177-1.284-.048-1.525-.244-1.6-1.489-.049-.808-.166-.95-.947-.959q-2.6-.031-5.195,0c-.835.011-.9.127-.585.872a1,1,0,0,1-.229,1.311.957.957,0,0,1-1.325-.08,30.726,30.726,0,0,1-2.378-2.372,1.019,1.019,0,0,1-.021-1.458,24.837,24.837,0,0,1,2.429-2.427.95.95,0,0,1,1.326-.031.98.98,0,0,1,.214,1.25,1.87,1.87,0,0,0-.187.6c.092-.114.141-.174.185-.233a1.223,1.223,0,0,0-.053-1.825" transform="translate(-52.338 -95.366)" fill="#606060"/>
        <path id="Trazado_601257" data-name="Trazado 601257" d="M136.908,155.691l.155,0c-.026-.02-.051-.038-.077-.056-.027.016-.051.036-.077.054" transform="translate(-108.945 -123.848)" fill="#606060"/>
        <path id="Trazado_601258" data-name="Trazado 601258" d="M134.129,42.929h.008s0,0,0-.008h0l-.008.008" transform="translate(-106.733 -34.154)" fill="#606060"/>
        <path id="Trazado_601259" data-name="Trazado 601259" d="M144.74,94.4c0,.673.085,1.213.773,1.452a7.534,7.534,0,0,1-.2-2.255c-.157-1.3-.353-2.584-.6-3.863.1,1.552.024,3.111.024,4.666" transform="translate(-115.158 -71.405)" fill="#dfd9df"/>
        <path id="Trazado_601260" data-name="Trazado 601260" d="M144.618,87.28a7.534,7.534,0,0,0,.2,2.255c.021.007.042.016.064.022a26.228,26.228,0,0,0-1.041-7.761c.089.539.145,1.08.18,1.621.248,1.279.444,2.567.6,3.863" transform="translate(-114.459 -65.089)" fill="#dfd9df"/>
        <path id="Trazado_601261" data-name="Trazado 601261" d="M143.961,90.99c0-1.555.077-3.113-.024-4.666-.057-.292-.119-.584-.182-.875q-.009,3-.018,6.01c0,1.012,0,1.03,1.007,1.007l-.01-.023c-.688-.239-.773-.779-.773-1.452" transform="translate(-114.379 -67.996)" fill="#dfd9df"/>
        <path id="Trazado_601262" data-name="Trazado 601262" d="M143.825,82.541c.063.291.125.583.182.875-.035-.541-.091-1.082-.18-1.621q0,.373,0,.746" transform="translate(-114.449 -65.089)" fill="#dfd9df"/>
        <path id="Trazado_601263" data-name="Trazado 601263" d="M148.63,119.709h.054c-.023-.007-.043-.015-.064-.022l.01.023" transform="translate(-118.265 -95.24)" fill="#dfd9df"/>
        <path id="Trazado_601264" data-name="Trazado 601264" d="M198.68,109.508c.949.089,1.373-.467,1.368-1.8a6.352,6.352,0,0,0,0-.686,1.278,1.278,0,0,0-1.3-1.151,1.336,1.336,0,0,0-1.141,1.462c-.028,1.554.24,2.1,1.073,2.174" transform="translate(-157.245 -84.246)" fill="#606060"/>
        <path id="Trazado_601265" data-name="Trazado 601265" d="M248.39,108.438c-.088-.961-.159-1.145-1.067-1.471a1.083,1.083,0,0,1-.131-.056l-.045.022a2.215,2.215,0,0,0-.64,2.682.973.973,0,0,0,.734.483,1.874,1.874,0,0,1,.618.126,3.433,3.433,0,0,0,.531-1.787" transform="translate(-195.984 -85.075)" fill="#606060"/>
        <path id="Trazado_601266" data-name="Trazado 601266" d="M246.589,109.45a.973.973,0,0,1-.734-.483,2.215,2.215,0,0,1,.64-2.682l.045-.022a.26.26,0,0,1-.146-.166c-.994.349-.931,1.177-.921,2,.016,1.271.414,1.649,1.694,1.569h0c.012-.029.026-.057.039-.085a1.879,1.879,0,0,0-.618-.126" transform="translate(-195.333 -84.426)" fill="#606060"/>
        <path id="Trazado_601267" data-name="Trazado 601267" d="M252.051,107.043a1.169,1.169,0,0,0-1.106-.885.922.922,0,0,1-.233.154,1.084,1.084,0,0,0,.131.055c.908.326.979.51,1.067,1.471a3.432,3.432,0,0,1-.531,1.787l.036.022a2.521,2.521,0,0,0,.636-2.6" transform="translate(-199.505 -84.475)" fill="#606060"/>
        <path id="Trazado_601268" data-name="Trazado 601268" d="M253.828,123.132c-.013.029-.027.057-.039.086.026-.02.05-.042.075-.064l-.036-.022" transform="translate(-201.953 -97.983)" fill="#606060"/>
        <path id="Trazado_601269" data-name="Trazado 601269" d="M250.145,106.258a.927.927,0,0,0,.233-.154,2.774,2.774,0,0,0-.379-.013.26.26,0,0,0,.146.166" transform="translate(-198.937 -84.421)" fill="#606060"/>
        <path id="Trazado_601270" data-name="Trazado 601270" d="M131.763,132.87c0,1.4,0,1.4,1.162,1.4,1.451-.021,1.271.176,1.281-.971.013-1.474,0-1.474-1.006-1.474-1.436,0-1.436,0-1.436,1.047" transform="translate(-104.851 -104.898)" fill="#b1a5b1"/>
      </g>
    </g>
  </g>
</svg>
