<svg xmlns="http://www.w3.org/2000/svg" xmlns:xlink="http://www.w3.org/1999/xlink" width="112" height="112" viewBox="0 0 112 112">
  <defs>
    <clipPath id="clip-path">
      <rect id="Rectángulo_300834" data-name="Rectángulo 300834" width="74.822" height="74.821" fill="none"/>
    </clipPath>
  </defs>
  <g id="Grupo_886483" data-name="Grupo 886483" transform="translate(-1095 -4377.825)">
    <circle id="Elipse_6636" data-name="Elipse 6636" cx="56" cy="56" r="56" transform="translate(1095 4377.825)" fill="#e1fbff"/>
    <g id="Grupo_886171" data-name="Grupo 886171" transform="translate(1114 4396.824)">
      <g id="Grupo_886170" data-name="Grupo 886170" clip-path="url(#clip-path)">
        <path id="Trazado_602358" data-name="Trazado 602358" d="M324.639,109.082l.011-.018-.023.012.011.006" transform="translate(-261.229 -87.764)" fill="#fefefe"/>
        <path id="Trazado_602359" data-name="Trazado 602359" d="M336.484,97.045l.034-.033L336.509,97l-.025.05" transform="translate(-270.77 -78.052)" fill="#fefefe"/>
        <path id="Trazado_602360" data-name="Trazado 602360" d="M1.285,133.7a18.189,18.189,0,0,1,2.768.077,3.308,3.308,0,0,1,1.518,5.948c-.727.484-1.5.9-2.254,1.343-.907.531-1.024.94-.506,1.837.6,1.031,1.189,2.064,1.8,3.085.438.729.839.838,1.571.438.661-.361,1.3-.753,1.962-1.123a3.273,3.273,0,0,1,4.568.922c.406-.269.787.008,1.162.08a25.2,25.2,0,0,0,11.983-.451l0-.005a15.287,15.287,0,0,1-9.946-5.141c-.1-.107-.178-.228-.267-.342a14.977,14.977,0,0,1-3.385-8.213,15.156,15.156,0,0,1,14.806-16.642,15.149,15.149,0,0,1,15.5,15.67,2.293,2.293,0,0,0,.029.288h0a25.115,25.115,0,0,0,2.144-8.17,23.786,23.786,0,0,0-.166-6,.56.56,0,0,1,.141-.533,3.308,3.308,0,0,1-1.98-.609,3.525,3.525,0,0,1-1.063-4.5c.379-.708.8-1.4,1.185-2.1s.314-1.032-.347-1.48c-1.009-.683-2.085-1.257-3.155-1.835a.9.9,0,0,0-1.324.36c-.413.631-.788,1.287-1.159,1.945a3.463,3.463,0,0,1-3.8,1.8,3.508,3.508,0,0,1-2.856-3.419c-.031-.754,0-1.51-.012-2.264-.018-.837-.32-1.171-1.137-1.192-1.119-.029-2.24-.034-3.36,0-.883.029-1.12.272-1.094,1.173a25.054,25.054,0,0,1-.179,2.912,3.5,3.5,0,0,1-6.189,1.534,15.744,15.744,0,0,1-1.2-2c-.65-1.145-1-1.237-2.151-.564-.841.491-1.693.963-2.535,1.451-.8.465-.907.859-.42,1.669.364.606.712,1.22,1.061,1.833a3.42,3.42,0,0,1-.435,4.123,3.442,3.442,0,0,1-4.259.785c-.672-.343-1.311-.748-1.966-1.122-.852-.487-1.171-.408-1.67.413-.595.978-1.141,1.984-1.72,2.971a.883.883,0,0,0,.34,1.416c.615.393,1.272.719,1.9,1.1A3.559,3.559,0,0,1,3.7,127.856c-.34.017-.682,0-1.023.007a4.964,4.964,0,0,0-2.679.39v4.822a1.288,1.288,0,0,0,1.285.626" transform="translate(0 -83.243)" fill="#f49292"/>
        <path id="Trazado_602361" data-name="Trazado 602361" d="M2.679,127.208c.341,0,.682.01,1.023-.007a3.559,3.559,0,0,0,1.479-6.694c-.623-.38-1.28-.706-1.895-1.1a.883.883,0,0,1-.34-1.416C3.525,117,4.07,116,4.665,115.021c.5-.821.818-.9,1.67-.413.655.375,1.294.78,1.966,1.122a3.442,3.442,0,0,0,4.259-.785A3.419,3.419,0,0,0,13,110.822c-.349-.614-.7-1.228-1.061-1.833-.487-.81-.384-1.2.42-1.67.843-.488,1.695-.96,2.535-1.451,1.152-.673,1.5-.581,2.151.564a15.781,15.781,0,0,0,1.2,2,3.5,3.5,0,0,0,6.189-1.534,25.008,25.008,0,0,0,.179-2.912c-.026-.9.211-1.144,1.094-1.173,1.119-.037,2.24-.031,3.36,0,.818.021,1.119.355,1.137,1.192.016.755-.019,1.51.012,2.264a3.508,3.508,0,0,0,2.856,3.419,3.463,3.463,0,0,0,3.8-1.8c.371-.658.745-1.314,1.159-1.945a.9.9,0,0,1,1.324-.36c1.07.579,2.146,1.152,3.155,1.836.661.448.73.783.347,1.48s-.805,1.391-1.185,2.1a3.525,3.525,0,0,0,1.063,4.5,3.31,3.31,0,0,0,1.98.609.863.863,0,0,1,.3-.175,10.949,10.949,0,0,1-1.227-.12,3.323,3.323,0,0,1-1.906-4.792c.389-.7.8-1.389,1.2-2.088.45-.8.349-1.208-.449-1.687q-1.563-.939-3.151-1.837a1.051,1.051,0,0,0-1.647.452c-.436.731-.832,1.486-1.29,2.2a3.1,3.1,0,0,1-3.111,1.494,3.152,3.152,0,0,1-2.9-2.487,14.962,14.962,0,0,1-.123-3.2c-.034-.873-.361-1.226-1.249-1.238-.925-.012-1.85,0-2.775,0-1.974,0-2.005.035-2.01,1.983a8.376,8.376,0,0,1-.242,2.744,3.155,3.155,0,0,1-2.9,2.217,3.147,3.147,0,0,1-3.073-1.589c-.417-.685-.794-1.395-1.206-2.083-.479-.8-.93-.914-1.755-.446q-1.586.9-3.159,1.822a1,1,0,0,0-.4,1.586c.373.655.763,1.3,1.138,1.954a3.239,3.239,0,0,1-.469,4.138,3.272,3.272,0,0,1-4.149.478c-.634-.361-1.258-.738-1.891-1.1-.8-.46-1.221-.354-1.684.436-.59,1.007-1.167,2.021-1.755,3.029-.548.94-.445,1.323.516,1.879.715.414,1.455.792,2.14,1.251a3.243,3.243,0,0,1,1.289,3.662A3.29,3.29,0,0,1,3.65,127c-.778.017-1.559.035-2.336,0A1.394,1.394,0,0,0,0,127.6a4.966,4.966,0,0,1,2.679-.39" transform="translate(0 -82.588)" fill="#f49292"/>
        <path id="Trazado_602362" data-name="Trazado 602362" d="M77.121,202.158a3.871,3.871,0,0,1,.92-2.623,3.482,3.482,0,0,1,5.582.42c.44.672.8,1.392,1.212,2.081a.987.987,0,0,0,1.578.43q1.5-.839,2.963-1.729c.785-.477.859-.835.4-1.623-.38-.652-.785-1.29-1.129-1.961a3.508,3.508,0,0,1,2.372-5.138,3,3,0,0,1,1.992.22c.8.364,1.545.824,2.3,1.262.817.472,1.209.378,1.694-.411.6-.974,1.153-1.975,1.714-2.972.4-.709.29-1.092-.416-1.512-.69-.41-1.39-.806-2.07-1.233a3.437,3.437,0,0,1-1.518-3.919,3.4,3.4,0,0,1,3.314-2.481c.754-.01,1.51.025,2.263-.014.894-.047,1.215-.381,1.228-1.281.016-1.095.026-2.19,0-3.285-.025-.9-.312-1.143-1.212-1.175a13.7,13.7,0,0,1-3.052-.156,3.491,3.491,0,0,1-1.06-6.324c.654-.424,1.349-.777,2.018-1.175.8-.477.914-.876.459-1.681-.527-.932-1.046-1.868-1.6-2.784s-.88-1.011-1.835-.453c-.483.282-.97.559-1.455.837a3.845,3.845,0,0,1-1.845.633l-.067,0a4.769,4.769,0,0,0,.02,1.98,25.528,25.528,0,0,1-1.834,12.058,1.149,1.149,0,0,1-.5.694l-.043-.014A15.27,15.27,0,0,1,75.91,193.171a14.642,14.642,0,0,1-3.119.038h0l-.012,0a.616.616,0,0,1,.016.07,1.677,1.677,0,0,1-1.047.447,26.011,26.011,0,0,1-10.96.146,9.816,9.816,0,0,0-1.07-.2l-.031-.005a3.317,3.317,0,0,1-.071,3.68c-.386.617-.738,1.257-1.091,1.894-.362.654-.282,1.126.329,1.5,1.163.706,2.347,1.376,3.533,2.043a.958.958,0,0,0,1.411-.457c.439-.728.83-1.485,1.283-2.2a3.166,3.166,0,0,1,3.357-1.558,3.083,3.083,0,0,1,2.67,2.373,10.453,10.453,0,0,1,.084,2.908,1.993,1.993,0,0,0,.572,1.569h4.969c.581-1.033.361-2.163.389-3.26" transform="translate(-46.921 -130.597)" fill="#fa636f"/>
        <path id="Trazado_602363" data-name="Trazado 602363" d="M153.255,203.118c-.034-.753-.022-1.509,0-2.263a3.317,3.317,0,0,1,2.551-3.242,3.274,3.274,0,0,1,3.669,1.6c.411.689.8,1.391,1.21,2.079.4.673.86.821,1.517.454q1.718-.961,3.406-1.973a.941.941,0,0,0,.4-1.473c-.418-.768-.887-1.509-1.3-2.281a3.223,3.223,0,0,1,.571-3.89,3.142,3.142,0,0,1,3.875-.593c.752.4,1.476.845,2.221,1.256a1.023,1.023,0,0,0,1.631-.454q.928-1.568,1.83-3.153c.474-.831.355-1.239-.48-1.733-.774-.457-1.572-.879-2.318-1.377a3.26,3.26,0,0,1-1.216-3.619,3.2,3.2,0,0,1,2.952-2.314c.876-.025,1.753.005,2.628-.018.834-.021,1.208-.4,1.217-1.214q.02-1.862,0-3.724c-.011-.835-.368-1.167-1.223-1.176-.779-.008-1.558.012-2.337-.006a3.333,3.333,0,0,1-3.258-2.44,3.277,3.277,0,0,1,1.6-3.791c.689-.41,1.4-.785,2.082-1.2a.982.982,0,0,0,.413-1.532q-.942-1.686-1.93-3.347a.961.961,0,0,0-1.521-.428c-.322.17-.629.369-.95.542a6.322,6.322,0,0,1-2.646,1.142h0c-.025.056-.045.113-.063.169l.068,0a3.846,3.846,0,0,0,1.845-.633c.486-.278.972-.555,1.455-.837.955-.558,1.271-.476,1.835.453s1.075,1.852,1.6,2.784c.455.8.342,1.2-.459,1.682-.669.4-1.364.751-2.018,1.175a3.492,3.492,0,0,0,1.06,6.324,13.706,13.706,0,0,0,3.052.156c.9.033,1.187.279,1.212,1.175.03,1.095.021,2.19,0,3.285-.013.9-.334,1.234-1.228,1.281-.753.039-1.508,0-2.263.014a3.4,3.4,0,0,0-3.314,2.481,3.437,3.437,0,0,0,1.519,3.919c.68.426,1.379.822,2.07,1.233.707.419.815.8.416,1.512-.561,1-1.115,2-1.714,2.972-.485.788-.877.883-1.694.411-.759-.438-1.5-.9-2.3-1.262a3,3,0,0,0-1.992-.22,3.508,3.508,0,0,0-2.372,5.138c.344.671.749,1.309,1.129,1.961.46.788.385,1.146-.4,1.623q-1.466.891-2.963,1.729a.986.986,0,0,1-1.578-.43c-.412-.689-.772-1.41-1.212-2.081a3.482,3.482,0,0,0-5.582-.419,3.871,3.871,0,0,0-.92,2.623c-.029,1.1.191,2.228-.389,3.26a1.33,1.33,0,0,0,.61-1.3" transform="translate(-122.834 -129.601)" fill="#fa636f"/>
        <path id="Trazado_602364" data-name="Trazado 602364" d="M220.078,172.158a23.8,23.8,0,0,1,.166,6,25.122,25.122,0,0,1-2.144,8.17v.005l.043.014a1.148,1.148,0,0,0,.495-.694,25.526,25.526,0,0,0,1.834-12.058,4.769,4.769,0,0,1-.02-1.98c-.078,0-.156.006-.234.006a.561.561,0,0,0-.141.533" transform="translate(-175.506 -138.103)" fill="#fa636f"/>
        <path id="Trazado_602365" data-name="Trazado 602365" d="M66.257,321.064c-.375-.073-.756-.349-1.162-.08.019.03.035.061.053.092.011,0,.02,0,.031.005a9.811,9.811,0,0,1,1.07.2,26.013,26.013,0,0,0,10.961-.146,1.677,1.677,0,0,0,1.047-.447.65.65,0,0,0-.016-.069,25.2,25.2,0,0,1-11.983.451" transform="translate(-52.382 -257.999)" fill="#fa636f"/>
        <path id="Trazado_602366" data-name="Trazado 602366" d="M229.182,170.923c.019-.056.039-.113.063-.169a.867.867,0,0,0-.3.175c.077,0,.155,0,.234-.006" transform="translate(-184.235 -137.406)" fill="#fa636f"/>
        <path id="Trazado_602367" data-name="Trazado 602367" d="M64.965,322.587a.572.572,0,0,0,.078.014c-.018-.03-.034-.061-.053-.092a.466.466,0,0,0-.025.078" transform="translate(-52.278 -259.524)" fill="#fefefe"/>
        <path id="Trazado_602368" data-name="Trazado 602368" d="M232.415,22.525a12.392,12.392,0,0,0,7.192,1.577,12.72,12.72,0,0,0,6.566-2.457,1.236,1.236,0,0,0,.241-.327l-.011-.006a7.169,7.169,0,1,1,3.364-5.849,7.938,7.938,0,0,1-1.023,3.481l.009.017a7.867,7.867,0,0,0,1.908-3.325,12.48,12.48,0,0,0-1-10.786,2.78,2.78,0,0,1-.172-.475h0c-2.628.077-4.005-.97-4.6-3.513A1,1,0,0,0,243.8,0c-.755,0-1.51-.006-2.264,0-.815.008-1.158.308-1.217,1.123a3.142,3.142,0,0,1-.415,1.382,4.052,4.052,0,0,1-5.613,1.116c-.692-.532-1.051-.526-1.654.058-.542.525-1.07,1.065-1.6,1.6a1,1,0,0,0-.035,1.544,3.074,3.074,0,0,1,.682,1.192,4.032,4.032,0,0,1-3.147,4.879c-.833.111-1.1.4-1.108,1.235-.006.487,0,.974,0,1.461,0,1.648,0,1.646,1.583,1.967a2.955,2.955,0,0,1,.487.152,4.319,4.319,0,0,1,2.2,4.649c.3-.189.514.042.728.163" transform="translate(-183.004 -0.001)" fill="#fbdc2e"/>
        <path id="Trazado_602369" data-name="Trazado 602369" d="M271.053,27.952c0-1.578,0-1.577-1.572-1.891a2.529,2.529,0,0,1-.276-.093,3.912,3.912,0,0,1-1.737-5.895c.507-.639.51-1.028-.036-1.6s-1.126-1.146-1.706-1.7a.95.95,0,0,0-1.431-.044,4.412,4.412,0,0,1-1.577.862,2.233,2.233,0,0,1,.707,1,12.821,12.821,0,0,1-.72,13.057c-.163.259-.3.57-.677.6a.752.752,0,0,1-.047-.073l-.034.033a9.4,9.4,0,0,1-2.293,2.307l-.011.018.037.02c.029.391-.277.548-.533.714a12.693,12.693,0,0,1-12.54,1.157c-.579-.247-1.137-.546-1.691-.847a3.893,3.893,0,0,1-.731,1.25,1,1,0,0,0,.074,1.543c.538.529,1.063,1.072,1.6,1.6.6.586,1,.615,1.648.059a3.317,3.317,0,0,1,3.81-.307,3.181,3.181,0,0,1,2.208,2.874A.975.975,0,0,0,254.6,43.63c.828,0,1.656,0,2.483,0a.981.981,0,0,0,1.084-1.026,3.257,3.257,0,0,1,2.4-2.965,3.22,3.22,0,0,1,3.663.428,1.018,1.018,0,0,0,1.55-.036c.573-.563,1.143-1.129,1.7-1.7a.983.983,0,0,0,.041-1.492,3.3,3.3,0,0,1-.4-3.86,3.222,3.222,0,0,1,2.931-2.244.97.97,0,0,0,1-1.1c-.012-.56,0-1.12,0-1.68" transform="translate(-196.233 -13.215)" fill="#f8c201"/>
        <path id="Trazado_602370" data-name="Trazado 602370" d="M263.509,109.888c.256-.165.562-.322.533-.714l-.037-.02a1.23,1.23,0,0,1-.241.327,12.719,12.719,0,0,1-6.566,2.457,12.391,12.391,0,0,1-7.192-1.577c-.215-.121-.432-.353-.728-.163.554.3,1.112.6,1.691.847a12.693,12.693,0,0,0,12.54-1.157" transform="translate(-200.595 -87.837)" fill="#f8c201"/>
        <path id="Trazado_602371" data-name="Trazado 602371" d="M338.567,33.658a7.866,7.866,0,0,1-1.908,3.325.755.755,0,0,0,.047.073c.374-.034.514-.346.677-.6a12.821,12.821,0,0,0,.72-13.057,2.231,2.231,0,0,0-.708-1,2.815,2.815,0,0,0,.172.475,12.48,12.48,0,0,1,1,10.786" transform="translate(-270.911 -18.023)" fill="#f8c201"/>
        <path id="Trazado_602372" data-name="Trazado 602372" d="M67.554,191.2a14.336,14.336,0,0,0,8.7,2.108,14.869,14.869,0,0,0,12.213-7.576,14.507,14.507,0,0,0,2-6.827,15.17,15.17,0,0,0-2.373-9.034c-.063-.1-.171-.2-.188-.314l-.064-.059a14.574,14.574,0,0,0-7.923-3.265A15,15,0,0,0,63.441,179.76a15.1,15.1,0,0,0,3.3,10.968l.058.064c.327-.047.531.27.76.409m10.811-14.553a4.436,4.436,0,0,1,4.511,4.524,4.539,4.539,0,0,1-4.525,4.551,4.616,4.616,0,0,1-4.55-4.564,4.536,4.536,0,0,1,4.564-4.511" transform="translate(-50.987 -133.716)" fill="#786e79"/>
        <path id="Trazado_602373" data-name="Trazado 602373" d="M65.945,189.973A15.1,15.1,0,0,1,62.648,179a15.024,15.024,0,0,1,24.4-10.259l.064.058a.255.255,0,0,1,.052-.188,14.929,14.929,0,0,0-9.91-3.383,15.156,15.156,0,0,0-14.806,16.642,14.975,14.975,0,0,0,3.385,8.213.569.569,0,0,1,.164-.051l-.057-.064" transform="translate(-50.195 -132.96)" fill="#786e79"/>
        <path id="Trazado_602374" data-name="Trazado 602374" d="M93.16,212.009a15.04,15.04,0,0,0,11.448-4.568,14.668,14.668,0,0,0,4.193-9.019c.025-.244-.072-.549.255-.684-.326-.115-.2-.419-.2-.64a15.079,15.079,0,0,0-1.645-7.031,15.271,15.271,0,0,0-3.343-4.278,14.584,14.584,0,0,1,2.149,5.812,15.382,15.382,0,0,1-13.374,17.593,15.2,15.2,0,0,1-10.048-2.25,15.159,15.159,0,0,0,9.059,4.907c.232.036.563-.068.665.263l.013,0h0c.245-.252.551-.112.823-.107" transform="translate(-66.468 -149.505)" fill="#554e57"/>
        <path id="Trazado_602375" data-name="Trazado 602375" d="M89.647,297.733a15.159,15.159,0,0,1-9.059-4.907c-.163-.1-.327-.2-.488-.312.089.114.171.234.267.342A15.288,15.288,0,0,0,90.312,298c-.1-.331-.433-.227-.665-.263" transform="translate(-64.456 -235.387)" fill="#554e57"/>
        <path id="Trazado_602376" data-name="Trazado 602376" d="M193.092,187.475a15.074,15.074,0,0,1,1.645,7.031c0,.221-.129.526.2.641l.006,0h0a2.287,2.287,0,0,1-.029-.288,14.9,14.9,0,0,0-5.592-12.287c.151.207.293.417.43.629a15.266,15.266,0,0,1,3.343,4.278" transform="translate(-152.346 -146.913)" fill="#554e57"/>
        <path id="Trazado_602377" data-name="Trazado 602377" d="M148.925,247.659a14.668,14.668,0,0,1-4.193,9.019,15.04,15.04,0,0,1-11.448,4.568c-.272,0-.578-.146-.823.107a14.66,14.66,0,0,0,3.12-.038,15.271,15.271,0,0,0,13.605-14.338l-.006,0c-.327.135-.23.441-.255.684" transform="translate(-106.592 -198.742)" fill="#554e57"/>
        <path id="Trazado_602378" data-name="Trazado 602378" d="M218.07,246.961l.006,0v-.005l-.006,0" transform="translate(-175.482 -198.728)" fill="#554e57"/>
        <path id="Trazado_602379" data-name="Trazado 602379" d="M102.241,183.845a15.171,15.171,0,0,1,2.373,9.034,14.508,14.508,0,0,1-2,6.827A14.87,14.87,0,0,1,90.4,207.281a14.334,14.334,0,0,1-8.7-2.108c-.229-.138-.433-.456-.76-.409.107.123.215.244.324.363a15.2,15.2,0,0,0,10.048,2.25,15.383,15.383,0,0,0,13.374-17.593,14.583,14.583,0,0,0-2.149-5.812q-.238-.223-.482-.441c.017.118.125.212.188.314" transform="translate(-65.131 -147.688)" fill="#554e57"/>
        <path id="Trazado_602380" data-name="Trazado 602380" d="M80.262,292.255a.563.563,0,0,0-.164.051c.162.108.325.21.488.312-.109-.119-.218-.239-.324-.362" transform="translate(-64.455 -235.179)" fill="#554e57"/>
        <path id="Trazado_602381" data-name="Trazado 602381" d="M189.045,182.756q.243.219.482.441c-.137-.212-.28-.422-.43-.629a.254.254,0,0,0-.052.188" transform="translate(-152.123 -146.913)" fill="#554e57"/>
        <path id="Trazado_602382" data-name="Trazado 602382" d="M282.884,51.938a6.977,6.977,0,0,0-6.643-9.723,6.955,6.955,0,0,0-1.265,13.737,6.785,6.785,0,0,0,4.418-.471c.283-.125.555-.378.9-.2l.023-.012h0a27.185,27.185,0,0,1,2.293-2.307c.009-.016.017-.033.025-.05-.2-.375.116-.667.248-.972m-6.379-.5a2.245,2.245,0,0,1-2.234-2.284,2.236,2.236,0,0,1,4.473.01,2.232,2.232,0,0,1-2.238,2.274" transform="translate(-216.896 -33.967)" fill="#786e79"/>
        <path id="Trazado_602383" data-name="Trazado 602383" d="M278.571,54.78a6.785,6.785,0,0,1-4.418.471,6.956,6.956,0,1,1,7.907-4.014c-.132.305-.446.6-.248.972a7.937,7.937,0,0,0,1.023-3.481,7.111,7.111,0,1,0-3.364,5.849c-.345-.175-.616.077-.9.2" transform="translate(-216.072 -33.266)" fill="#786e79"/>
        <path id="Trazado_602384" data-name="Trazado 602384" d="M324.744,99.559h0a9.4,9.4,0,0,0,2.293-2.307,27.187,27.187,0,0,0-2.293,2.307" transform="translate(-261.323 -78.259)" fill="#786e79"/>
        <path id="Trazado_602385" data-name="Trazado 602385" d="M121.367,228.9a4.539,4.539,0,0,0,4.525-4.551,4.437,4.437,0,0,0-4.511-4.524,4.536,4.536,0,0,0-4.564,4.511,4.616,4.616,0,0,0,4.55,4.564" transform="translate(-94.003 -176.896)" fill="#fefefe"/>
        <path id="Trazado_602386" data-name="Trazado 602386" d="M295.989,66.423a2.176,2.176,0,0,0-2.206,2.213,2.237,2.237,0,1,0,4.473.01,2.177,2.177,0,0,0-2.267-2.223" transform="translate(-236.408 -53.451)" fill="#fefefe"/>
      </g>
    </g>
  </g>
</svg>
