<svg xmlns="http://www.w3.org/2000/svg" xmlns:xlink="http://www.w3.org/1999/xlink" width="112" height="112" viewBox="0 0 112 112">
  <defs>
    <clipPath id="clip-path">
      <rect id="Rectángulo_300792" data-name="Rectángulo 300792" width="71.445" height="65.795" fill="none"/>
    </clipPath>
  </defs>
  <g id="Grupo_886475" data-name="Grupo 886475" transform="translate(-393 -5491)">
    <circle id="Elipse_6602" data-name="Elipse 6602" cx="56" cy="56" r="56" transform="translate(393 5491)" fill="#e1fbff"/>
    <g id="Grupo_886062" data-name="Grupo 886062" transform="translate(413 5514)">
      <g id="Grupo_886063" data-name="Grupo 886063" clip-path="url(#clip-path)">
        <path id="Trazado_600751" data-name="Trazado 600751" d="M123.427,195.486a2.86,2.86,0,0,0-1.025-.914,5.833,5.833,0,0,1-1.948,1.722q-5.446,3.783-10.9,7.552c-3.233,2.242-6.417,4.558-9.7,6.718a25.961,25.961,0,0,1-10.262,3.853,29.714,29.714,0,0,1-6.31.226,50.3,50.3,0,0,1-5.059-.741,20.7,20.7,0,0,0-3.912-.465,12.581,12.581,0,0,0-6.49,1.965c-1.129.729-2.248,1.471-3.372,2.208h0q0,1.858,0,3.715c2.678-1.834,5.167-4,8.463-4.739a13.67,13.67,0,0,1,4.847-.164c1.842.247,3.663.631,5.5.883a26.682,26.682,0,0,0,10.821-.817,28.1,28.1,0,0,0,8.652-4.241q6.766-4.736,13.56-9.431c1.891-1.309,3.768-2.638,5.671-3.93a5.458,5.458,0,0,0,1.526-1.412c.087-.129.176-.286.382-.237v-1.4c-.283.051-.324-.209-.444-.357" transform="translate(-52.426 -158.288)" fill="#fecabd"/>
        <path id="Trazado_600752" data-name="Trazado 600752" d="M123.489,209.064a5.46,5.46,0,0,1-1.526,1.412c-1.9,1.292-3.78,2.622-5.671,3.93q-6.792,4.7-13.56,9.431a28.1,28.1,0,0,1-8.652,4.241,26.682,26.682,0,0,1-10.821.817c-1.842-.252-3.663-.636-5.5-.883a13.675,13.675,0,0,0-4.847.164c-3.3.739-5.786,2.905-8.463,4.739v.06h0c1.563-.862,2.98-1.95,4.478-2.912a12.352,12.352,0,0,1,6.274-2,30.994,30.994,0,0,1,6.527.8,27.206,27.206,0,0,0,20.733-4.589q9.716-6.779,19.449-13.534a5.893,5.893,0,0,0,1.967-1.911c-.206-.049-.295.108-.382.237" transform="translate(-52.426 -169.878)" fill="#fecabd"/>
        <path id="Trazado_600753" data-name="Trazado 600753" d="M375.318,193.906c-.022.044-.049.082-.073.124a2.858,2.858,0,0,1,1.025.914c.12.148.161.407.444.357-.4-.525-.677-1.183-1.4-1.395" transform="translate(-305.269 -157.746)" fill="#fecabd"/>
        <path id="Trazado_600754" data-name="Trazado 600754" d="M64.585,216.659a35.95,35.95,0,0,1,4.6-2.89,12.5,12.5,0,0,1,7.477-1c1.97.334,3.932.73,5.923.921a27.689,27.689,0,0,0,10.149-.83,31.517,31.517,0,0,0,9.877-5.047c3.629-2.6,7.32-5.1,10.981-7.654q3.862-2.689,7.732-5.367c.382-.263.553-.738.959-.954a2.491,2.491,0,0,0-1.575.039q-7.82,2.38-15.643,4.75c-1.575.481-3.158.933-4.727,1.43a.888.888,0,0,1-.731.031c.083.893-.188,1.2-1.179,1.478-2.606.733-5.2,1.519-7.811,2.223a7.134,7.134,0,0,0-4.177,3.014,1.236,1.236,0,0,1-1.373.6.969.969,0,0,1-.713-.855.9.9,0,0,1,.151-.727,8.97,8.97,0,0,1,4.368-3.7c1.469-.495,2.962-.922,4.451-1.357,1.554-.455,3.119-.874,4.674-1.328a1.277,1.277,0,0,1,1.488.334,2.482,2.482,0,0,1,.206-.611A1.8,1.8,0,0,0,97.9,196.6c-1.955-.074-3.9.151-5.852.157a55.079,55.079,0,0,1-8.123-.621,15.178,15.178,0,0,0-12.936,3.95c-1.986,1.788-4,3.54-6.007,5.31-.149.131-.3.316-.533.228q0,5.579,0,11.159a.75.75,0,0,1,.139-.122" transform="translate(-52.428 -157.6)" fill="#fedccd"/>
        <path id="Trazado_600755" data-name="Trazado 600755" d="M253.694,199.117c1.57-.5,3.153-.95,4.728-1.43q7.818-2.387,15.643-4.75a2.491,2.491,0,0,1,1.575-.039.917.917,0,0,1,.2-.077,2.063,2.063,0,0,0-1.852-.056q-8.882,2.705-17.768,5.4c-1.081.327-2.171.619-3.258.927,0,.021,0,.039.005.059a.888.888,0,0,0,.731-.031" transform="translate(-205.786 -156.661)" fill="#fedccd"/>
        <path id="Trazado_600756" data-name="Trazado 600756" d="M64.979,214.194c2-1.77,4.021-3.522,6.007-5.31a15.178,15.178,0,0,1,12.936-3.95,55.082,55.082,0,0,0,8.123.62c1.953-.005,3.9-.231,5.852-.156a1.8,1.8,0,0,1,1.794,2.558,2.491,2.491,0,0,0-.206.611,1.588,1.588,0,0,1,.1.132,2.154,2.154,0,0,1,.125-.318,2.031,2.031,0,0,0-1.823-3.19c-1.384.094-2.778.083-4.167.133a45.8,45.8,0,0,1-5.145-.081c-1.545-.119-3.089-.253-4.612-.5a15.982,15.982,0,0,0-5.78.14,17.055,17.055,0,0,0-8.189,4.588c-1.821,1.679-3.7,3.3-5.548,4.943h0v.008c.233.087.385-.1.533-.228" transform="translate(-52.428 -166.4)" fill="#fedccd"/>
        <path id="Trazado_600757" data-name="Trazado 600757" d="M122.284,194.32c-.405.215-.577.69-.959.954q-3.874,2.672-7.732,5.367c-3.662,2.55-7.353,5.057-10.981,7.654a31.52,31.52,0,0,1-9.877,5.047,27.685,27.685,0,0,1-10.149.83c-1.991-.191-3.953-.587-5.923-.921a12.5,12.5,0,0,0-7.477,1,35.945,35.945,0,0,0-4.6,2.89.751.751,0,0,0-.139.122v.141h0c1.124-.736,2.244-1.479,3.372-2.208a12.581,12.581,0,0,1,6.49-1.965,20.7,20.7,0,0,1,3.912.465,50.315,50.315,0,0,0,5.059.741,29.726,29.726,0,0,0,6.31-.226,25.962,25.962,0,0,0,10.262-3.853c3.287-2.16,6.471-4.476,9.7-6.718q5.448-3.779,10.9-7.552a5.835,5.835,0,0,0,1.948-1.722c-.021-.009-.04-.02-.061-.028s-.041-.012-.061-.019" transform="translate(-52.43 -158.083)" fill="#fedccd"/>
        <path id="Trazado_600758" data-name="Trazado 600758" d="M374.653,194c.021.008.04.019.061.028.024-.042.051-.08.073-.124a.921.921,0,0,0-.2.077c.021.007.041.012.061.019" transform="translate(-304.738 -157.746)" fill="#fedccd"/>
        <path id="Trazado_600759" data-name="Trazado 600759" d="M42.43,50.6c.8-.28,1.63-.509,2.407-.849a12.19,12.19,0,0,0,7.577-9.668,12.183,12.183,0,0,0-4.2-11.469,11.512,11.512,0,0,0-5.123-2.673c-.206-.048-.419-.049-.521-.277A12.249,12.249,0,0,0,35.437,29.1a12.4,12.4,0,0,0-2.874,13.88A12.2,12.2,0,0,0,42.43,50.6m-2.087-8.377a1,1,0,0,1,1.328-.391c.4.154.805.7,1.154.459.388-.273.1-.9.153-1.375a6.106,6.106,0,0,0,0-.627,1.239,1.239,0,0,1,0-.139,2.353,2.353,0,0,0-1.214-2.6c-2.2-1.372-1.466-4.522.623-5.6a.919.919,0,0,0,.629-.843.976.976,0,0,1,1.155-1,.991.991,0,0,1,1.02,1.08c.021.441.281.517.6.625.764.255,1.049.636.938,1.311a1.011,1.011,0,0,1-1.211.869c-.266-.019-.319.057-.317.289.007.766.01,1.533,0,2.3,0,.337.232.41.477.5a3.545,3.545,0,0,1,2.479,3.051,4.041,4.041,0,0,1-2.42,4.181c-.38.156-.546.319-.549.743a1.292,1.292,0,0,1-1.035,1.225,1.156,1.156,0,0,1-1.12-1.04c-.07-.515-.316-.685-.777-.773a4.733,4.733,0,0,1-1.625-.759,1.088,1.088,0,0,1-.3-1.486" transform="translate(-25.674 -20.881)" fill="#fedf7d"/>
        <path id="Trazado_600760" data-name="Trazado 600760" d="M9.471,252.736l0,0c-.779.438-1.283.415-1.679-.077a2.827,2.827,0,0,1-.008-2.458c.392-.483.929-.511,1.676-.087l.011-.006c0-4.772-.006-9.545.022-14.318a1.683,1.683,0,0,0-.522-1.114c-1.85.012-3.7,0-5.55.012-.186,0-.372,0-.558.006-1.357.061-1.676.383-1.677,1.731q-.005,9.135,0,18.27c0,.046,0,.093,0,.139.019,1.175.282,1.447,1.438,1.456,1.325.01,2.651.028,3.975,0a24.3,24.3,0,0,1,2.473.134c.727-1.188.279-2.466.4-3.683" transform="translate(-0.961 -190.912)" fill="#bdd7fa"/>
        <path id="Trazado_600761" data-name="Trazado 600761" d="M8.108,255.438a24.3,24.3,0,0,0-2.473-.134c-1.324.032-2.65.014-3.975,0C.5,255.3.241,255.028.222,253.853c0-.046,0-.093,0-.139q0-9.135,0-18.27c0-1.348.32-1.67,1.677-1.731.186-.008.372-.005.558-.006,1.85-.011,3.7,0,5.55-.012l-.058-.071h3.218c-.234-.23-.529-.132-.8-.133-2.743,0-5.485,0-8.228,0a4.958,4.958,0,0,0-1.1.109A1.125,1.125,0,0,0,0,234.839Q0,244.565,0,254.291a1.1,1.1,0,0,0,1.246,1.242c.93.012,1.86-.015,2.789.009,1.3.032,2.591-.021,3.893.09a8.376,8.376,0,0,0,3.1-.1H8.051c.021-.032.038-.063.057-.1" transform="translate(0 -189.932)" fill="#bdd7fa"/>
        <path id="Trazado_600762" data-name="Trazado 600762" d="M293.97,83.163c.6.023,1.21-.02,1.813.014a8.171,8.171,0,0,1,2.267.105l3.871,0c.24-.208.528-.094.793-.1a23.464,23.464,0,0,0,3.568-.023h-1.849a2.524,2.524,0,0,0,.851-2.206c-.018-1.992-.051-3.986.013-5.977a2.36,2.36,0,0,0-1.129-2.278c-.394-.007-.789-.019-1.184-.019-2.953,0-5.906-.006-8.859,0a1.552,1.552,0,0,0-1.7,1.615q-.028,3.662,0,7.323a1.5,1.5,0,0,0,1.546,1.548m4.5-4.491c.121-.542.743-.848,1.65-.835.939.014,1.4.28,1.522.882a1.088,1.088,0,0,1-.948,1.339,5.544,5.544,0,0,1-.691,0,1.427,1.427,0,0,1-1.281-.356,1.128,1.128,0,0,1-.252-1.036" transform="translate(-237.88 -59.119)" fill="#5e6b75"/>
        <path id="Trazado_600763" data-name="Trazado 600763" d="M94.747,27.15a12.466,12.466,0,0,1,5.3,8.666,12.8,12.8,0,0,1-9.369,14.118c-.273.073-.554.01-.82.1a9.653,9.653,0,0,0,3.937-.021A12.6,12.6,0,0,0,90,25.1h0a11.709,11.709,0,0,1,4.752,2.05" transform="translate(-73.1 -20.313)" fill="#fecf64"/>
        <path id="Trazado_600764" data-name="Trazado 600764" d="M90.517,25.946a11.512,11.512,0,0,1,5.123,2.672,12.183,12.183,0,0,1,4.2,11.469,12.19,12.19,0,0,1-7.577,9.668c-.777.341-1.6.569-2.407.849.265-.091.546-.028.819-.1a12.8,12.8,0,0,0,9.369-14.119,12.465,12.465,0,0,0-5.3-8.665A11.706,11.706,0,0,0,90,25.669c.1.228.315.23.521.277" transform="translate(-73.1 -20.882)" fill="#fecf64"/>
        <path id="Trazado_600765" data-name="Trazado 600765" d="M48.425,253.753a24.473,24.473,0,0,1,.043-3.034.763.763,0,0,1,.114-.25,1.216,1.216,0,0,1-.178-.844q-.012-4.742,0-9.484a1.107,1.107,0,0,1,.235-.906.416.416,0,0,1-.065-.028,9.951,9.951,0,0,1-.142-2.815,1.275,1.275,0,0,0-.784-1.329c-.026-.006-.053-.01-.079-.015a3.211,3.211,0,0,1-1.045.079,7.72,7.72,0,0,0-1.357.061,7,7,0,0,1,.189,2.35q.007,5.789,0,11.577a3.711,3.711,0,0,1-.077,1.107.355.355,0,0,1-.145.188v.012a3.032,3.032,0,0,1,0,2.613v.005a.361.361,0,0,1,.1.094,6.712,6.712,0,0,1-.216,3.461c.593.03,1.156,0,1.717.017a1.839,1.839,0,0,1,.729.078h0c.82-.318.944-.495.968-1.358a2.429,2.429,0,0,1,.109-1.012l.059-.041a.69.69,0,0,1-.181-.525" transform="translate(-36.625 -191.216)" fill="#9cc5fa"/>
        <path id="Trazado_600766" data-name="Trazado 600766" d="M59.218,338.212a2.429,2.429,0,0,0-.109,1.012c-.024.864-.148,1.041-.968,1.358h0a.639.639,0,0,1,.186.128,1.132,1.132,0,0,0,.974-1.274c0-.41.01-.821.015-1.231a.5.5,0,0,1-.037-.034l-.059.04" transform="translate(-47.296 -275.11)" fill="#9cc5fa"/>
        <path id="Trazado_600767" data-name="Trazado 600767" d="M58.762,234.447a1.275,1.275,0,0,1,.784,1.329,9.953,9.953,0,0,0,.142,2.815.429.429,0,0,0,.065.028l.005-.006c-.006-1.039-.01-2.079-.018-3.118a1.138,1.138,0,0,0-.832-1.205.849.849,0,0,1-.225.141c.026.006.053.009.079.015" transform="translate(-47.74 -190.6)" fill="#9cc5fa"/>
        <path id="Trazado_600768" data-name="Trazado 600768" d="M63.2,318a24.545,24.545,0,0,0-.043,3.034.69.69,0,0,0,.181.525l.037-.026q0-1.858,0-3.715a.7.7,0,0,1-.062-.068.761.761,0,0,0-.114.25" transform="translate(-51.36 -258.493)" fill="#9cc5fa"/>
        <path id="Trazado_600769" data-name="Trazado 600769" d="M64.281,338.034l-.037.026c.012.011.023.023.037.034v-.06" transform="translate(-52.264 -274.997)" fill="#9cc5fa"/>
        <path id="Trazado_600770" data-name="Trazado 600770" d="M63.133,258.411q-.012,4.742,0,9.484a1.216,1.216,0,0,0,.178.844.72.72,0,0,1,.062-.073q0-5.579,0-11.159l-.005,0a1.106,1.106,0,0,0-.235.906" transform="translate(-51.355 -209.485)" fill="#9cc5fa"/>
        <path id="Trazado_600771" data-name="Trazado 600771" d="M64.423,257.482v-.008l-.005.006.005,0" transform="translate(-52.405 -209.46)" fill="#9cc5fa"/>
        <path id="Trazado_600772" data-name="Trazado 600772" d="M64.115,317.428a.69.69,0,0,0,.062.068v-.141a.717.717,0,0,0-.062.073" transform="translate(-52.159 -258.174)" fill="#9cc5fa"/>
        <path id="Trazado_600773" data-name="Trazado 600773" d="M45.483,335.1c-.561-.018-1.125.013-1.718-.017a6.71,6.71,0,0,0,.216-3.461.358.358,0,0,0-.1-.094c-.124,1.217.324,2.5-.4,3.683a12.733,12.733,0,0,0,1.908.038,3.032,3.032,0,0,0,.826-.07,1.839,1.839,0,0,0-.729-.078" transform="translate(-35.37 -269.706)" fill="#9cc5fa"/>
        <path id="Trazado_600774" data-name="Trazado 600774" d="M43.441,249.935a.354.354,0,0,0,.145-.188,3.717,3.717,0,0,0,.077-1.107q0-5.789,0-11.577a7.008,7.008,0,0,0-.189-2.35,7.722,7.722,0,0,1,1.357-.061,3.211,3.211,0,0,0,1.045-.079,11.953,11.953,0,0,0-2.629-.071h-.307a1.684,1.684,0,0,1,.521,1.114c-.028,4.772-.02,9.545-.021,14.318" transform="translate(-34.933 -190.742)" fill="#9cc5fa"/>
        <path id="Trazado_600775" data-name="Trazado 600775" d="M45.136,351.172a12.7,12.7,0,0,1-1.908-.037c-.019.032-.036.064-.057.1h2.977a.645.645,0,0,0-.186-.128,3.03,3.03,0,0,1-.826.07" transform="translate(-35.12 -285.628)" fill="#9cc5fa"/>
        <path id="Trazado_600776" data-name="Trazado 600776" d="M42.69,234.362H43a11.953,11.953,0,0,1,2.628.071.843.843,0,0,0,.225-.141H42.632l.058.071" transform="translate(-34.682 -190.6)" fill="#9cc5fa"/>
        <path id="Trazado_600777" data-name="Trazado 600777" d="M259.789,51.071h0c0,1.465-.007,2.93,0,4.395.01,1.358-.19,1.164,1.184,1.176.995.009,1.188-.188,1.188-1.172q0-10.672,0-21.345c0-.422.056-.862-.441-1.069a3.374,3.374,0,0,0-1.782-.075c-.211.028-.149.311-.15.488-.007.79,0,1.581-.006,2.372a2.2,2.2,0,0,1,0,2.677h0c-.058.462.146.949-.135,1.389a2.116,2.116,0,0,1,.137,2.793h0c-.06.462.145.951-.137,1.391a2.117,2.117,0,0,1,.137,2.793c-.06.462.145.95-.136,1.39a2.1,2.1,0,0,1,.137,2.795" transform="translate(-211.232 -26.764)" fill="#dcd9eb"/>
        <path id="Trazado_600778" data-name="Trazado 600778" d="M193.189,86.419h0c0,1.67.012,3.341,0,5.011,0,.417.124.592.556.565a8.572,8.572,0,0,1,1.391,0c.6.061.73-.189.728-.75-.021-4.315-.012-8.63-.012-12.945,0-1.961,0-1.936-1.949-1.957-.611-.007-.718.216-.724.764a6.287,6.287,0,0,1-.121,2.324,2.06,2.06,0,0,1,0,2.921,1.293,1.293,0,0,1,0,1.265,2.09,2.09,0,0,1,.136,2.8" transform="translate(-157.052 -62.109)" fill="#dcd9eb"/>
        <path id="Trazado_600779" data-name="Trazado 600779" d="M184.885,225.4c-2.441.749-4.9,1.434-7.361,2.119a9.082,9.082,0,0,0-5.075,3.792.918.918,0,0,0,.092,1.313.944.944,0,0,0,1.255-.194,5.466,5.466,0,0,0,.581-.694,7.093,7.093,0,0,1,4.137-2.641c2.375-.645,4.728-1.367,7.1-2.022.829-.229,1.493-.521,1.654-1.437a.386.386,0,0,1-.1-.192c0-.015,0-.029,0-.044a2.722,2.722,0,0,0-2.277,0" transform="translate(-140.105 -183.163)" fill="#fecabd"/>
        <path id="Trazado_600780" data-name="Trazado 600780" d="M252.347,226.514c0,.015,0,.029,0,.044a.388.388,0,0,0,.1.192c0-.016.007-.031.009-.048,0-.043-.009-.087-.015-.13h0c-.033-.021-.066-.039-.1-.058" transform="translate(-205.289 -184.274)" fill="#fecabd"/>
        <path id="Trazado_600781" data-name="Trazado 600781" d="M184.739,223.907c-1.555.453-3.12.873-4.674,1.328-1.489.435-2.981.862-4.451,1.357a8.971,8.971,0,0,0-4.368,3.7.9.9,0,0,0-.151.727.97.97,0,0,0,.713.855,1.236,1.236,0,0,0,1.373-.6,7.133,7.133,0,0,1,4.177-3.014c2.614-.7,5.205-1.489,7.811-2.223.991-.279,1.262-.585,1.179-1.478l-.009,0-.005-.007c-.161.916-.825,1.208-1.654,1.437-2.371.656-4.725,1.377-7.1,2.022a7.093,7.093,0,0,0-4.137,2.641,5.479,5.479,0,0,1-.581.694.944.944,0,0,1-1.255.194.918.918,0,0,1-.092-1.313,9.082,9.082,0,0,1,5.075-3.792c2.459-.685,4.92-1.37,7.361-2.119a2.722,2.722,0,0,1,2.277,0,.622.622,0,0,1,0-.074,1.277,1.277,0,0,0-1.488-.334" transform="translate(-139.17 -182.075)" fill="#fecabd"/>
        <path id="Trazado_600782" data-name="Trazado 600782" d="M252.913,227.576l.009,0c0-.02,0-.039-.005-.059,0,.017-.007.032-.009.048l.005.007" transform="translate(-205.746 -185.093)" fill="#fecabd"/>
        <path id="Trazado_600783" data-name="Trazado 600783" d="M252.341,226.189c.033.019.066.037.1.058a1.647,1.647,0,0,0-.1-.132.667.667,0,0,0,0,.074" transform="translate(-205.283 -183.949)" fill="#fecabd"/>
        <path id="Trazado_600784" data-name="Trazado 600784" d="M315.773,129.763a.663.663,0,0,1-.5-.2c-.537,1.5-1.083,3-1.606,4.514-.256.738.055,1.187.836,1.194q2.715.024,5.43,0c.775-.007,1.1-.467.841-1.208-.525-1.507-1.084-3-1.629-4.5a.642.642,0,0,1-.495.2q-1.44.053-2.88,0" transform="translate(-255.107 -105.401)" fill="#4d5961"/>
        <path id="Trazado_600785" data-name="Trazado 600785" d="M323.161,129.763q1.44.05,2.88,0a.642.642,0,0,0,.495-.2l-3.871,0a.663.663,0,0,0,.5.2" transform="translate(-262.494 -105.401)" fill="#4d5961"/>
        <path id="Trazado_600786" data-name="Trazado 600786" d="M356.765,74.362c.048,2.366.041,4.732,0,7.1a2.224,2.224,0,0,1-.564,1.4c.493.166,1-.092,1.383.282a1.458,1.458,0,0,0,1.437-1.493c.054-2.476.06-4.954.007-7.429a1.557,1.557,0,0,0-1.753-1.563c-.6-.006-1.2.015-1.8.023a1.635,1.635,0,0,1,1.292,1.685" transform="translate(-289.184 -59.105)" fill="#4d5961"/>
        <path id="Trazado_600787" data-name="Trazado 600787" d="M356.6,75.062c-.065,1.99-.031,3.984-.013,5.977a2.523,2.523,0,0,1-.851,2.206h1.849c-.38-.374-.889-.116-1.383-.282a2.224,2.224,0,0,0,.564-1.4c.038-2.366.045-4.732,0-7.1a1.635,1.635,0,0,0-1.292-1.685,2.36,2.36,0,0,1,1.129,2.278" transform="translate(-289.184 -59.211)" fill="#4d5961"/>
        <path id="Trazado_600788" data-name="Trazado 600788" d="M236.573,6.186c.45-.008.543-.173.529-.573-.025-.719-.007-1.439-.008-2.159,0-.743.01-1.486,0-2.229C237.077.41,236.686-.015,236,0c-.644.015-1.033.458-1.039,1.219-.009,1.138,0,2.276,0,3.414,0,1.6,0,1.58,1.619,1.553" transform="translate(-191.138 -0.001)" fill="#5e6b75"/>
        <path id="Trazado_600789" data-name="Trazado 600789" d="M168.838,142.567c1.722.075,1.721.088,1.721-1.7a5.015,5.015,0,0,0-.111-1.513c-.215-.546-.558-.936-1.2-.823a1.048,1.048,0,0,0-.921,1.131c0,.79.012,1.581-.007,2.371-.01.382.114.521.514.538" transform="translate(-136.934 -112.678)" fill="#bed7fa"/>
        <path id="Trazado_600790" data-name="Trazado 600790" d="M237.009,139.531a1.033,1.033,0,0,0-1.028-.993,1,1,0,0,0-1.061.983c-.053.878-.014,1.761-.016,2.642,0,.232.046.422.336.415,1.813-.044,1.9.395,1.891-1.629a5.715,5.715,0,0,0-.121-1.417" transform="translate(-191.089 -112.702)" fill="#bed7fa"/>
        <path id="Trazado_600791" data-name="Trazado 600791" d="M186.056,93.979a5.146,5.146,0,0,0-.395-1.706,1.034,1.034,0,0,0-1.4.354,2.315,2.315,0,0,0-.09,2.1,1.1,1.1,0,0,0,1.485.467h0c-.035-.455.359-.758.4-1.215" transform="translate(-149.66 -74.948)" fill="#bed7fa"/>
        <path id="Trazado_600792" data-name="Trazado 600792" d="M193.044,92.9a5.143,5.143,0,0,1,.395,1.706c-.037.457-.43.76-.4,1.215h0a2.06,2.06,0,0,0,0-2.921" transform="translate(-157.043 -75.58)" fill="#bed7fa"/>
        <path id="Trazado_600793" data-name="Trazado 600793" d="M252.627,93.96c.087-.636-.3-1.118-.394-1.687a1.045,1.045,0,0,0-1.444.411,2.221,2.221,0,0,0,.054,2.167,1.03,1.03,0,0,0,1.526.215c-.081-.4.2-.723.258-1.106" transform="translate(-203.813 -74.945)" fill="#bed7fa"/>
        <path id="Trazado_600794" data-name="Trazado 600794" d="M259.652,92.923c.092.568.482,1.051.394,1.687-.053.384-.339.7-.258,1.106h0a2.117,2.117,0,0,0-.137-2.793" transform="translate(-211.232 -75.595)" fill="#bed7fa"/>
        <path id="Trazado_600795" data-name="Trazado 600795" d="M252.392,47.631a1.034,1.034,0,0,0-1.53.224,2.214,2.214,0,0,0,0,2.23,1.034,1.034,0,0,0,1.53.224c-.032-.488.278-.9.26-1.409-.016-.451-.314-.82-.26-1.268" transform="translate(-203.836 -38.553)" fill="#bed7fa"/>
        <path id="Trazado_600796" data-name="Trazado 600796" d="M260.349,48.678c-.054.448.244.817.26,1.268.018.506-.292.921-.26,1.409a2.2,2.2,0,0,0,0-2.677" transform="translate(-211.794 -39.601)" fill="#bed7fa"/>
        <path id="Trazado_600797" data-name="Trazado 600797" d="M252.713,71.792c.087-.636-.3-1.119-.394-1.687a1.154,1.154,0,0,0-1.555.592,2.226,2.226,0,0,0-.112,1.089c.014,1.124.784,1.594,1.8,1.113-.083-.4.2-.722.258-1.106" transform="translate(-203.899 -56.961)" fill="#bed7fa"/>
        <path id="Trazado_600798" data-name="Trazado 600798" d="M259.651,70.482c.093.568.481,1.051.394,1.687-.053.384-.34.7-.258,1.106a2.116,2.116,0,0,0-.137-2.793" transform="translate(-211.231 -57.338)" fill="#bed7fa"/>
        <path id="Trazado_600799" data-name="Trazado 600799" d="M234.923,49.368a1.092,1.092,0,0,0,1.073,1.2c.546.021.975-.454,1.032-1.138.012-.137.05-.271.062-.408.1-1.209-.671-1.938-1.592-1.5-.622.3-.594.87-.576,1.342,0,.229,0,.368,0,.506" transform="translate(-191.109 -38.553)" fill="#bed7fa"/>
        <path id="Trazado_600800" data-name="Trazado 600800" d="M235.629,72.822a1.024,1.024,0,0,0,1.125-.285c.4-.349.152-.838.292-1.187-.019-.211-.036-.371-.046-.531a1.051,1.051,0,1,0-2.1-.01,7.694,7.694,0,0,0,.006,1.107.993.993,0,0,0,.724.907" transform="translate(-191.081 -56.715)" fill="#bed7fa"/>
        <path id="Trazado_600801" data-name="Trazado 600801" d="M186.031,116.54a3.721,3.721,0,0,0-.374-1.828,1.05,1.05,0,0,0-1.444.416,2.292,2.292,0,0,0,.014,2.115c.437.569.992.479,1.566.268-.1-.365.2-.632.238-.972" transform="translate(-149.656 -93.201)" fill="#bed7fa"/>
        <path id="Trazado_600802" data-name="Trazado 600802" d="M193.056,115.349a3.719,3.719,0,0,1,.374,1.828c-.041.34-.336.607-.238.972h0a2.09,2.09,0,0,0-.136-2.8" transform="translate(-157.055 -93.839)" fill="#bed7fa"/>
        <path id="Trazado_600803" data-name="Trazado 600803" d="M252.542,116.4a4.636,4.636,0,0,0-.387-1.732,1,1,0,0,0-.935-.072,1.967,1.967,0,0,0-.663,2.294c.263.7.811.879,1.735.573-.081-.39.206-.691.25-1.063" transform="translate(-203.735 -93.157)" fill="#bed7fa"/>
        <path id="Trazado_600804" data-name="Trazado 600804" d="M259.652,115.358a4.635,4.635,0,0,1,.387,1.732c-.044.371-.331.673-.25,1.063a2.1,2.1,0,0,0-.137-2.795" transform="translate(-211.232 -93.846)" fill="#bed7fa"/>
        <path id="Trazado_600805" data-name="Trazado 600805" d="M220.236,50.5a1.077,1.077,0,0,0,1.063-1,5.509,5.509,0,0,0,0-.557c0-.209.016-.42,0-.627a1.047,1.047,0,0,0-2.094.054q-.014.523,0,1.046a1.068,1.068,0,0,0,1.031,1.081" transform="translate(-178.322 -38.481)" fill="#bed7fa"/>
        <path id="Trazado_600806" data-name="Trazado 600806" d="M220.538,69.753a1.046,1.046,0,0,0-1.071.321c-.38.336-.212.776-.255,1.117,0,.245-.009.431,0,.616a1.05,1.05,0,1,0,2.1-.041c.013-.347.018-.7,0-1.043a1.035,1.035,0,0,0-.768-.97" transform="translate(-178.33 -56.706)" fill="#bed7fa"/>
        <path id="Trazado_600807" data-name="Trazado 600807" d="M237.016,93.247a1.052,1.052,0,1,0-2.1.02,10.21,10.21,0,0,0,.005,1.113,1.081,1.081,0,0,0,1.98.432c.226-.327.044-.732.161-1.027-.018-.216-.035-.377-.045-.538" transform="translate(-191.097 -74.967)" fill="#bed7fa"/>
        <path id="Trazado_600808" data-name="Trazado 600808" d="M219.216,94.2a1.06,1.06,0,0,0,1.057,1.133,1.128,1.128,0,0,0,1.041-1.166c.009-.324.012-.648,0-.971a1.051,1.051,0,0,0-1.86-.66c-.369.341-.186.781-.237,1.12,0,.221-.006.383,0,.545" transform="translate(-178.334 -74.958)" fill="#bdd7fa"/>
        <path id="Trazado_600809" data-name="Trazado 600809" d="M234.942,116.676a1.214,1.214,0,0,0,1.141,1.081,1.009,1.009,0,0,0,.958-1.051c.017-.342.017-.687,0-1.029a1.051,1.051,0,1,0-2.1.03c-.009.161,0,.323,0,.485s-.008.324,0,.485" transform="translate(-191.126 -93.225)" fill="#bdd7fa"/>
        <path id="Trazado_600810" data-name="Trazado 600810" d="M220.576,114.644a1.038,1.038,0,0,0-1.079.281c-.395.323-.257.759-.285,1.1,0,.273-.012.482,0,.69a.88.88,0,0,0,1.015.952c.7-.005,1.047-.308,1.079-.981a9.027,9.027,0,0,0,0-1.112,1.031,1.031,0,0,0-.727-.928" transform="translate(-178.329 -93.217)" fill="#bdd7fa"/>
        <path id="Trazado_600811" data-name="Trazado 600811" d="M78.205,63.083a4.729,4.729,0,0,0,1.625.759c.461.088.707.258.777.773a1.155,1.155,0,0,0,1.12,1.04,1.292,1.292,0,0,0,1.035-1.225c0-.423.169-.586.549-.743a4.041,4.041,0,0,0,2.42-4.181,3.545,3.545,0,0,0-2.479-3.051c-.245-.093-.481-.167-.477-.5.009-.766.006-1.533,0-2.3,0-.232.051-.308.317-.289a1.011,1.011,0,0,0,1.211-.869c.111-.675-.174-1.055-.938-1.311-.322-.108-.581-.184-.6-.625a.991.991,0,0,0-1.019-1.08.976.976,0,0,0-1.155,1,.919.919,0,0,1-.629.843c-2.089,1.074-2.821,4.223-.623,5.6a2.353,2.353,0,0,1,1.213,2.6,1.24,1.24,0,0,0,0,.139,6.106,6.106,0,0,1,0,.627c-.049.471.236,1.1-.153,1.375-.349.245-.754-.3-1.154-.459a1,1,0,0,0-1.328.391,1.088,1.088,0,0,0,.3,1.486M82.9,58.761c.13-.042.2.071.292.137a1.608,1.608,0,0,1-.415,2.493c0-.8,0-1.569,0-2.339,0-.11-.018-.245.122-.291" transform="translate(-63.239 -40.251)" fill="#fec150"/>
        <path id="Trazado_600812" data-name="Trazado 600812" d="M37.411,317.145c-.825-.122-1.213.193-1.258,1.031a5.726,5.726,0,0,0,0,.691c.054.8.438,1.1,1.23.978.174-.027.36-.141.526-.039l0,0h0a14.039,14.039,0,0,0,0-2.613l-.011-.006c-.142.072-.324-.014-.489-.038" transform="translate(-29.403 -257.983)" fill="#707dd2"/>
        <path id="Trazado_600813" data-name="Trazado 600813" d="M36.524,318.818c-.792.123-1.175-.175-1.23-.978a5.687,5.687,0,0,1,0-.691c.045-.837.433-1.152,1.258-1.031.165.025.347.11.489.038-.747-.424-1.285-.4-1.676.086a2.828,2.828,0,0,0,.008,2.458c.4.491.9.515,1.679.077-.166-.1-.352.012-.526.039" transform="translate(-28.544 -256.957)" fill="#707dd2"/>
        <path id="Trazado_600814" data-name="Trazado 600814" d="M45.626,320.1h0a3.032,3.032,0,0,0,0-2.613,14.038,14.038,0,0,1,0,2.613" transform="translate(-37.114 -258.286)" fill="#707dd2"/>
        <path id="Trazado_600815" data-name="Trazado 600815" d="M326.278,102.6a5.474,5.474,0,0,0,.691,0,1.088,1.088,0,0,0,.948-1.339c-.125-.6-.583-.869-1.521-.883-.907-.013-1.529.293-1.65.835a1.129,1.129,0,0,0,.252,1.036,1.427,1.427,0,0,0,1.281.356" transform="translate(-264.159 -81.658)" fill="#4d5961"/>
        <path id="Trazado_600816" data-name="Trazado 600816" d="M104.767,101.847a1.608,1.608,0,0,0,.415-2.493c-.089-.067-.162-.179-.292-.137s-.121.181-.122.29c0,.77,0,1.54,0,2.339" transform="translate(-85.23 -80.707)" fill="#fedf7c"/>
      </g>
    </g>
  </g>
</svg>
