<svg xmlns="http://www.w3.org/2000/svg" xmlns:xlink="http://www.w3.org/1999/xlink" width="112" height="112" viewBox="0 0 112 112">
  <defs>
    <clipPath id="clip-path">
      <rect id="Rectángulo_300794" data-name="Rectángulo 300794" width="77.278" height="75.832" fill="none"/>
    </clipPath>
  </defs>
  <g id="Grupo_886477" data-name="Grupo 886477" transform="translate(-1095 -5491)">
    <circle id="Elipse_6600" data-name="Elipse 6600" cx="56" cy="56" r="56" transform="translate(1095 5491)" fill="#e1fbff"/>
    <g id="Grupo_886065" data-name="Grupo 886065" transform="translate(1112 5510)">
      <g id="Grupo_886065-2" data-name="Grupo 886065" clip-path="url(#clip-path)">
        <path id="Trazado_600830" data-name="Trazado 600830" d="M173.539,48.229a.255.255,0,0,1,.075,0l-.038-.058-.037.057" transform="translate(-135.587 -37.637)" fill="#fefefe"/>
        <path id="Trazado_600831" data-name="Trazado 600831" d="M127.141,311.381l-.007,0,0,0h.009" transform="translate(-99.329 -243.281)" fill="#fefefe"/>
        <path id="Trazado_600832" data-name="Trazado 600832" d="M27.814,90.429l0,0c-1.5-.8-1.57-1.984-1.33-3.57,1.021-6.755,1.879-13.534,2.791-20.306q1.345-10,2.679-19.992.38-2.832.761-5.663h0c-1.188,1.458-2.105,3.1-3.182,4.634-.563.8-1.116,1.614-1.626,2.451-.309.507-.513.414-.821.012q-4.116-5.38-8.249-10.747c-1.343-1.748-2.667-3.509-4.045-5.229a.933.933,0,0,1-.125-1.095,9.8,9.8,0,0,0,.907-2.342,7.5,7.5,0,0,0-1,2.033,1.861,1.861,0,0,1-1.394,1.21c-4.06,1.1-8.108,2.24-12.172,3.325-.767.2-.994.554-.992,1.349Q.052,63.022.034,89.55c0,.3.014.6.021.9l24.909-.014q1.424,0,2.849-.006" transform="translate(-0.011 -22.329)" fill="#9ac8fe"/>
        <path id="Trazado_600833" data-name="Trazado 600833" d="M144.608,103.842c-.252-1.469-.381-2.96-.56-4.442-.326-2.259-.666-4.516-.975-6.778q-1.045-7.639-2.066-15.282-1.1-8.127-2.191-16.254c-.21-1.563-.411-3.127-.616-4.69h0l-5.239-7.972a.255.255,0,0,0-.075,0l-5.213,7.922a.306.306,0,0,1,.142.217c-.193,2.419-.594,4.81-.915,7.211q-1.607,11.986-3.236,23.969c-.7,5.155-1.37,10.314-2.11,15.463a1.784,1.784,0,0,0,.747,2.043c.206.131.622.3.438.679l.007,0q3.425,2.52,6.712,5.218c1.009.767,2.033,1.517,3.02,2.311a.59.59,0,0,0,.891,0c.99-.792,2.011-1.544,3.02-2.311h0c2.564-2.011,5.119-4.031,7.7-6.023a1.149,1.149,0,0,0,.522-1.284" transform="translate(-94.933 -37.831)" fill="#ea1b24"/>
        <path id="Trazado_600834" data-name="Trazado 600834" d="M126.915,84.708h0q-.381,2.832-.761,5.663-1.34,10-2.679,19.992c-.912,6.771-1.769,13.551-2.791,20.306-.24,1.586-.171,2.771,1.33,3.57.184-.383-.232-.548-.438-.679a1.784,1.784,0,0,1-.747-2.043c.74-5.149,1.413-10.308,2.11-15.464q1.621-11.984,3.235-23.969c.322-2.4.723-4.792.915-7.211a.307.307,0,0,0-.142-.217l-.034.051" transform="translate(-94.209 -66.143)" fill="#ea1b24"/>
        <path id="Trazado_600835" data-name="Trazado 600835" d="M203.2,58.351c-1.345-2.078-2.73-4.13-4.111-6.184a3.861,3.861,0,0,0-.411-.617c.466,2.268.674,4.573.987,6.862,1.3,9.532,2.573,19.069,3.875,28.6.328,2.4.675,4.8.958,7.213,0,.027.006.053.009.08a34.411,34.411,0,0,0,7.4-6.351c.285-.325.606-.618.91-.926l.011-4.4c-2.562-.051-2.606-.092-2.6-2.7,0-.811-.272-1.888.137-2.361.472-.545,1.58-.161,2.41-.175,1.982-.032,3.965-.023,5.948-.03a38.061,38.061,0,0,0,2.978-10.955,45.574,45.574,0,0,0,.311-4.956q-.011-9.04.009-18.08l-5.243-1.336q-6.292,8.171-12.572,16.351c-.447.585-.634.545-1.011-.038" transform="translate(-155.229 -32.844)" fill="#9ac8fe"/>
        <path id="Trazado_600836" data-name="Trazado 600836" d="M203.851,127.787c0-.027-.006-.053-.009-.08-.283-2.408-.63-4.809-.958-7.212-1.3-9.533-2.571-19.07-3.875-28.6-.313-2.289-.521-4.593-.987-6.862a.818.818,0,0,0-.184-.141h0c.205,1.563.406,3.127.616,4.69q1.093,8.127,2.191,16.254,1.031,7.641,2.066,15.282c.309,2.262.649,4.519.975,6.778.056-.035.109-.072.164-.108" transform="translate(-154.572 -66.326)" fill="#9ac8fe"/>
        <path id="Trazado_600837" data-name="Trazado 600837" d="M68.154,7.517c-.867,2.221-1.04,1.5.386,3.366,3.6,4.714,7.24,9.4,10.842,14.115.836,1.094.851,1.084,1.622-.075q1.832-2.754,3.671-5.5a2.155,2.155,0,0,1,.512-.629.336.336,0,0,1,.233-.078c-.065-.335.166-.571.329-.819q2.138-3.236,4.3-6.457c.268-.4.452-.608.631-.633l.037-.057.038.058c.176.027.357.233.618.622q2.186,3.253,4.35,6.521a3.018,3.018,0,0,1,.417.833c.341.049.44.395.6.634q1.961,2.92,3.908,5.849c.52.781.557.793,1.133.051,2.494-3.206,4.955-6.437,7.436-9.653,1.465-1.9,2.911-3.813,4.4-5.7.183-.233.336-.505.669-.561L109.18.437c-.577-.093-.968.313-1.4.559q-8.337,4.735-16.655,9.5a.872.872,0,0,1-.981.065C84,7.005,77.651,3.815,71.416.419a1.593,1.593,0,0,1-.193-.146c-.274.044-.3.293-.38.482q-1.28,2.852-2.55,5.709c.311.4-.007.718-.138,1.053" transform="translate(-52.727 -0.213)" fill="#2487fe"/>
        <path id="Trazado_600838" data-name="Trazado 600838" d="M66.724,32.016c1.378,1.719,2.7,3.481,4.045,5.229q4.127,5.372,8.248,10.747c.307.4.512.495.821-.012.51-.836,1.063-1.648,1.626-2.451,1.076-1.534,1.994-3.177,3.182-4.634a.6.6,0,0,1-.012-.065.336.336,0,0,0-.233.078,2.155,2.155,0,0,0-.512.629q-1.835,2.752-3.671,5.5c-.771,1.158-.786,1.169-1.622.074-3.6-4.714-7.239-9.4-10.842-14.115-1.426-1.866-1.252-1.145-.386-3.366.131-.335.449-.656.138-1.053a9.814,9.814,0,0,1-.907,2.342.933.933,0,0,0,.125,1.095" transform="translate(-51.941 -22.329)" fill="#2487fe"/>
        <path id="Trazado_600839" data-name="Trazado 600839" d="M178.85,55.579q-2.172-3.263-4.35-6.521c-.261-.389-.442-.595-.618-.622l5.239,7.972h0a.633.633,0,0,1,.146,0,3.025,3.025,0,0,0-.417-.833" transform="translate(-135.856 -37.843)" fill="#2487fe"/>
        <path id="Trazado_600840" data-name="Trazado 600840" d="M154.082,49.066q-2.163,3.219-4.3,6.457c-.163.247-.393.483-.329.819a.159.159,0,0,1,.046.014l5.213-7.922c-.179.024-.363.234-.631.633" transform="translate(-116.761 -37.841)" fill="#2487fe"/>
        <path id="Trazado_600841" data-name="Trazado 600841" d="M149.505,84.659h0l.034-.051a.162.162,0,0,0-.046-.014.608.608,0,0,0,.012.065" transform="translate(-116.8 -66.094)" fill="#2487fe"/>
        <path id="Trazado_600842" data-name="Trazado 600842" d="M215.979,42.6c-1.485,1.884-2.931,3.8-4.4,5.7-2.481,3.216-4.943,6.447-7.436,9.653-.576.741-.614.729-1.133-.051q-1.949-2.928-3.908-5.849c-.161-.24-.259-.586-.6-.634.012.04.026.079.035.121l0,.016a3.854,3.854,0,0,1,.411.618c1.381,2.054,2.766,4.106,4.111,6.184.377.582.564.623,1.012.038q6.26-8.2,12.572-16.352c-.333.056-.486.328-.669.561" transform="translate(-155.093 -32.843)" fill="#2487fe"/>
        <path id="Trazado_600843" data-name="Trazado 600843" d="M198.02,85.007c-.009-.042-.023-.081-.035-.121a.621.621,0,0,0-.146,0,.818.818,0,0,1,.184.141l0-.016" transform="translate(-154.573 -66.317)" fill="#2487fe"/>
        <path id="Trazado_600844" data-name="Trazado 600844" d="M304.739,51.18a.487.487,0,0,0-.421-.586q-5.021-1.22-10.04-2.45a1.482,1.482,0,0,1,.234,1.089c.005,6.207.086,12.416-.024,18.622A36.827,36.827,0,0,1,291.516,81.5a1.9,1.9,0,0,1-.364.635c3.779.008,7.558.032,11.337.006.728-.005,1.019.158.955.934-.071.865-.015,1.74-.017,2.611,0,1.283-.424,1.7-1.706,1.708-.3,0-.6.006-.9.009,0,6.241-.019,12.482,0,18.723a1.232,1.232,0,0,1-.79,1.315c-2.325,1.126-4.617,2.321-6.922,3.49,3.542.009,7.084-.012,10.625.047.831.014,1.022-.2,1.02-1.025q-.038-29.142-.02-58.283c0-.164-.012-.328,0-.49" transform="translate(-227.479 -37.615)" fill="#57a3fe"/>
        <path id="Trazado_600845" data-name="Trazado 600845" d="M293.658,66.224a45.566,45.566,0,0,1-.311,4.956,38.056,38.056,0,0,1-2.978,10.955h.171a1.9,1.9,0,0,0,.365-.635,36.832,36.832,0,0,0,2.972-13.646c.11-6.205.029-12.414.024-18.622a1.482,1.482,0,0,0-.234-1.089q-.007,9.04-.009,18.08" transform="translate(-226.867 -37.615)" fill="#57a3fe"/>
        <path id="Trazado_600846" data-name="Trazado 600846" d="M272.209,250.472c1.871-.952,3.739-1.91,5.636-2.808a1.583,1.583,0,0,0,1.02-1.648c-.027-5.7-.017-11.395-.01-17.093a2.081,2.081,0,0,1,.185-1.258H263.452a3.084,3.084,0,0,1,.18,1.612,19.794,19.794,0,0,1-.043,2.5,1.846,1.846,0,0,1-.231.51c.01,4.681.037,9.361.007,14.042a1.338,1.338,0,0,0,.889,1.417c2.294,1.112,4.555,2.292,6.829,3.447h.313c.072-.463.488-.556.813-.721" transform="translate(-205.764 -177.876)" fill="#006def"/>
        <path id="Trazado_600847" data-name="Trazado 600847" d="M263.367,227.667q-.006,2.2-.011,4.4c0,.075,0,.151,0,.227a1.849,1.849,0,0,0,.231-.51,19.761,19.761,0,0,0,.043-2.5,3.084,3.084,0,0,0-.18-1.612Z" transform="translate(-205.762 -177.878)" fill="#006def"/>
        <path id="Trazado_600848" data-name="Trazado 600848" d="M307.827,246.387c-.019-6.241,0-12.482,0-18.723h-.068a2.08,2.08,0,0,0-.185,1.258c-.007,5.7-.017,11.395.01,17.093a1.582,1.582,0,0,1-1.02,1.648c-1.9.9-3.765,1.857-5.636,2.808-.325.165-.741.258-.813.721,2.3-1.169,4.6-2.364,6.922-3.49a1.232,1.232,0,0,0,.79-1.315" transform="translate(-234.482 -177.876)" fill="#006def"/>
        <path id="Trazado_600849" data-name="Trazado 600849" d="M97.186,6.6c1.972,1.051,3.944,2.106,5.862,3.253a1.485,1.485,0,0,0,1.722.023c5.427-3.142,10.9-6.2,16.338-9.325.432-.248.868-.57,1.423-.331-.2-.354-.54-.182-.811-.182Q103.6.027,85.471.034c-.3,0-.6.016-.9.025h0a15.242,15.242,0,0,1,3.375,1.62c3.086,1.627,6.158,3.283,9.236,4.924" transform="translate(-66.078 0)" fill="#9ac8fe"/>
        <path id="Trazado_600850" data-name="Trazado 600850" d="M103.5,10.565a.872.872,0,0,0,.981-.065Q112.8,5.74,121.131,1c.433-.246.824-.653,1.4-.559-.555-.239-.992.083-1.423.331C115.673,3.9,110.2,6.951,104.771,10.093a1.484,1.484,0,0,1-1.722-.023c-1.918-1.147-3.89-2.2-5.862-3.253-3.079-1.642-6.15-3.3-9.236-4.924A15.233,15.233,0,0,0,84.575.273a1.576,1.576,0,0,0,.193.146C91,3.815,97.35,7.005,103.5,10.565" transform="translate(-66.079 -0.213)" fill="#9ac8fe"/>
        <path id="Trazado_600851" data-name="Trazado 600851" d="M206.4,265.186a1.482,1.482,0,0,1-.924-1.481q.013-6.707,0-13.413a2.184,2.184,0,0,1,.06-.507c-.25.316-.562.586-.827.88a36.4,36.4,0,0,1-6.757,5.842,1.029,1.029,0,0,1-.562.255q.241,2.2.59,4.383a1.366,1.366,0,0,1-.55,1.426c-2.408,1.864-4.8,3.746-7.215,5.607a2.868,2.868,0,0,1-.664.3h0c3.378.008,6.756.024,10.135.023q6.865,0,13.73-.024a7.436,7.436,0,0,1-1.826-.692q-2.586-1.321-5.194-2.6" transform="translate(-148.104 -195.159)" fill="#57a3fe"/>
        <path id="Trazado_600852" data-name="Trazado 600852" d="M197.439,287.376a1.366,1.366,0,0,0,.55-1.426q-.35-2.183-.59-4.383a.507.507,0,0,1-.18-.035c.179,1.482.308,2.972.56,4.441a1.149,1.149,0,0,1-.522,1.284c-2.578,1.992-5.134,4.012-7.7,6.023a2.868,2.868,0,0,0,.664-.3c2.411-1.861,4.807-3.742,7.215-5.607" transform="translate(-148.105 -219.964)" fill="#57a3fe"/>
        <path id="Trazado_600853" data-name="Trazado 600853" d="M232.739,248.691a34.416,34.416,0,0,1-7.4,6.351c.005.047.011.095.016.142a1.028,1.028,0,0,0,.562-.255,36.379,36.379,0,0,0,6.757-5.842c.265-.294.577-.564.827-.88a2.388,2.388,0,0,1,.152-.442c-.3.308-.625.6-.91.926" transform="translate(-176.055 -193.581)" fill="#57a3fe"/>
        <path id="Trazado_600854" data-name="Trazado 600854" d="M224.583,281.148h0a.505.505,0,0,0,.18.035c-.005-.047-.011-.095-.016-.142-.055.035-.109.073-.164.108" transform="translate(-175.468 -219.579)" fill="#57a3fe"/>
        <path id="Trazado_600855" data-name="Trazado 600855" d="M262.587,262.845c.03-4.68,0-9.361-.007-14.042a2.51,2.51,0,0,1-.153.215,2.184,2.184,0,0,0-.06.507q0,6.707,0,13.413a1.482,1.482,0,0,0,.924,1.481q2.61,1.273,5.194,2.6a7.435,7.435,0,0,0,1.826.692c-2.274-1.154-4.535-2.334-6.829-3.447a1.338,1.338,0,0,1-.889-1.417" transform="translate(-204.985 -194.392)" fill="#57a3fe"/>
        <path id="Trazado_600856" data-name="Trazado 600856" d="M262.659,248.208a2.6,2.6,0,0,0,.153-.215v-.227a2.362,2.362,0,0,0-.152.441" transform="translate(-205.217 -193.582)" fill="#57a3fe"/>
        <path id="Trazado_600857" data-name="Trazado 600857" d="M32.587,315.288c-1.443-1.107-2.884-2.218-4.3-3.357-.189-.151-.415-.268-.472-.535H27.8a.768.768,0,0,1-.074.122,2.69,2.69,0,0,1-1.2.148q-12.575,0-25.149,0a1.843,1.843,0,0,1-1.33-.249c-.007,1.388.031,2.778-.039,4.163-.042.819.154,1.087,1.041,1.083,8.41-.038,16.821-.021,25.231-.024,2.749,0,5.5-.015,8.246-.023a7.433,7.433,0,0,1-1.937-1.325" transform="translate(0 -243.296)" fill="#57a3fe"/>
        <path id="Trazado_600858" data-name="Trazado 600858" d="M1.534,311.665q12.575.009,25.149,0a2.69,2.69,0,0,0,1.2-.148.759.759,0,0,0,.074-.123q-1.425,0-2.849.006L.2,311.415a1.844,1.844,0,0,0,1.33.249" transform="translate(-0.159 -243.296)" fill="#57a3fe"/>
        <path id="Trazado_600859" data-name="Trazado 600859" d="M127.175,311.4c.057.267.284.384.472.536,1.418,1.139,2.859,2.25,4.3,3.356a7.428,7.428,0,0,0,1.937,1.325q-3.291-2.692-6.712-5.218" transform="translate(-99.363 -243.296)" fill="#57a3fe"/>
        <path id="Trazado_600860" data-name="Trazado 600860" d="M259.712,204.112c-2.017.006-4.033-.005-6.05.006-.956.005-1.035.087-1.044,1.017-.008.817-.034,1.636.014,2.452.049.842.381,1.163,1.212,1.25a2.18,2.18,0,0,1,1.178.226,1.422,1.422,0,0,1,1.015-.225q6.8-.013,13.6,0a1.405,1.405,0,0,1,1.027.235c.01-.013.017-.027.028-.04a1.827,1.827,0,0,1,.945-.189c1.066-.074,1.377-.393,1.413-1.473.022-.652.008-1.3.006-1.957,0-1.26-.032-1.294-1.262-1.3-3.234,0-6.468,0-9.7-.007a1.678,1.678,0,0,1-1.142-.2c-.013.01-.024.021-.038.03a2.446,2.446,0,0,1-1.2.165" transform="translate(-197.362 -159.322)" fill="#005ecd"/>
        <path id="Trazado_600861" data-name="Trazado 600861" d="M252.686,208.254c-.831-.088-1.163-.409-1.211-1.25-.047-.816-.021-1.635-.014-2.452.009-.93.088-1.012,1.044-1.017,2.016-.011,4.033,0,6.049-.006a2.449,2.449,0,0,0,1.2-.165c.014-.009.025-.02.038-.03a.86.86,0,0,1-.087-.075c-1.983.007-3.966,0-5.948.03-.83.013-1.938-.37-2.41.175-.41.473-.135,1.551-.137,2.361-.007,2.611.037,2.652,2.6,2.7.018-.018.037-.032.055-.048a2.182,2.182,0,0,0-1.178-.226" transform="translate(-196.204 -158.738)" fill="#005ecd"/>
        <path id="Trazado_600862" data-name="Trazado 600862" d="M290.767,203.651a1.678,1.678,0,0,0,1.142.2c3.234.011,6.468,0,9.7.007,1.23,0,1.259.035,1.262,1.295,0,.652.016,1.3-.006,1.957-.036,1.08-.348,1.4-1.413,1.473a1.827,1.827,0,0,0-.945.189c-.011.013-.018.027-.028.04.014.013.029.023.043.037.3,0,.6-.008.9-.009,1.282-.005,1.7-.425,1.706-1.708,0-.871-.054-1.746.017-2.611.064-.777-.227-.94-.955-.934-3.779.027-7.558,0-11.337-.006a.892.892,0,0,1-.084.075" transform="translate(-227.178 -159.055)" fill="#005ecd"/>
        <path id="Trazado_600863" data-name="Trazado 600863" d="M290.456,203.649a.892.892,0,0,0,.084-.075h-.171a.828.828,0,0,0,.087.075" transform="translate(-226.867 -159.054)" fill="#005ecd"/>
        <path id="Trazado_600864" data-name="Trazado 600864" d="M278.272,226.4q-6.8-.013-13.6,0a1.424,1.424,0,0,0-1.015.225l.005,0c.009.015.014.03.023.045h15.588c.009-.012.016-.025.025-.037a1.4,1.4,0,0,0-1.027-.235" transform="translate(-205.998 -176.881)" fill="#005ecd"/>
        <path id="Trazado_600865" data-name="Trazado 600865" d="M263.461,227.448c-.018.016-.037.029-.055.048h.083c-.008-.015-.014-.03-.023-.044l-.005,0" transform="translate(-205.801 -177.707)" fill="#005ecd"/>
        <path id="Trazado_600866" data-name="Trazado 600866" d="M335.067,227.532h.068c-.014-.014-.028-.024-.043-.037-.009.012-.017.025-.025.037" transform="translate(-261.79 -177.744)" fill="#005ecd"/>
      </g>
    </g>
  </g>
</svg>
