<svg xmlns="http://www.w3.org/2000/svg" xmlns:xlink="http://www.w3.org/1999/xlink" width="112" height="112" viewBox="0 0 112 112">
  <defs>
    <clipPath id="clip-path">
      <rect id="Rectángulo_297838" data-name="Rectángulo 297838" width="75.399" height="76.747" fill="none"/>
    </clipPath>
  </defs>
  <g id="Grupo_886473" data-name="Grupo 886473" transform="translate(6206 2126)">
    <circle id="Elipse_6575" data-name="Elipse 6575" cx="56" cy="56" r="56" transform="translate(-6206 -2126)" fill="#e1fbff"/>
    <g id="Grupo_878998" data-name="Grupo 878998" transform="translate(-6187.976 -2111.001)">
      <g id="Grupo_878993" data-name="Grupo 878993" clip-path="url(#clip-path)">
        <path id="Trazado_591951" data-name="Trazado 591951" d="M164.423,344.506a13.158,13.158,0,0,0,1.809-.436,3.83,3.83,0,0,0,2.453-1.907c-.159-2.072-.31-4.145-.484-6.215-.027-.321,0-.716-.435-.845a25.265,25.265,0,0,0-5.183,1.576c-.2.081-.414.33-.671.089a41.57,41.57,0,0,0-4.937-1.58c-.192-.042-.39-.057-.585-.085h0c-.415.1-.43.487-.426.771.02,1.56-.323,3.091-.328,4.648a15.9,15.9,0,0,1-.164,1.653c.924,1.653,2.583,2.011,4.267,2.329.217.041.53-.031.544.346h3.591c.015-.381.332-.309.55-.344" transform="translate(-124.387 -268.103)" fill="#bf3a2b"/>
        <path id="Trazado_591952" data-name="Trazado 591952" d="M201.257,371.9a1.793,1.793,0,0,0,1.052-1.433h0l0-.049a3.83,3.83,0,0,1-2.453,1.907,13.125,13.125,0,0,1-1.809.436c-.218.036-.535-.037-.55.344.151-.171.361-.123.553-.154a8.406,8.406,0,0,0,3.211-1.051" transform="translate(-158.007 -296.358)" fill="#bf3a2b"/>
        <path id="Trazado_591953" data-name="Trazado 591953" d="M159.72,372.805c-1.685-.318-3.343-.676-4.267-2.329,0,.012,0,.025,0,.037h0a1.336,1.336,0,0,0,.465.978,4.434,4.434,0,0,0,1.931,1.061c.8.227,1.613.4,2.42.6-.014-.377-.327-.305-.544-.346" transform="translate(-124.368 -296.404)" fill="#bf3a2b"/>
        <path id="Trazado_591954" data-name="Trazado 591954" d="M182.656,2.553a1.194,1.194,0,0,0,.779,1.084A1.055,1.055,0,0,0,184.9,2.7,2.487,2.487,0,0,0,184.31.272.244.244,0,0,1,184.243,0h-.9a3.408,3.408,0,0,0-.69,2.553" transform="translate(-146.103)" fill="#efc31a"/>
        <path id="Trazado_591955" data-name="Trazado 591955" d="M181.71,3.154a1.232,1.232,0,0,0,1.242.785,1.212,1.212,0,0,0,1.165-.784A2.865,2.865,0,0,0,183.362,0a.244.244,0,0,0,.068.272,2.487,2.487,0,0,1,.587,2.428,1.055,1.055,0,0,1-1.462.938,1.194,1.194,0,0,1-.779-1.084A3.408,3.408,0,0,1,182.465,0a2.861,2.861,0,0,0-.755,3.154" transform="translate(-145.223)" fill="#efc31a"/>
        <path id="Trazado_591956" data-name="Trazado 591956" d="M78.168,90.017a9.626,9.626,0,0,0,2.377.068,5.981,5.981,0,0,0-2.123-2.55,4.536,4.536,0,0,1-2.246-3.889,1.442,1.442,0,0,1,1.288-1.458,1.343,1.343,0,0,1,1.283,1.3,2.1,2.1,0,0,0,1.21,1.829c.423.2.693.161.885-.3a8.184,8.184,0,0,1,.6-1.2,1.283,1.283,0,0,1,1.687-.516,1.158,1.158,0,0,1,.65,1.56,8.527,8.527,0,0,0-.843,4.761c.341.571.64,1.173,1.031,1.707a6.915,6.915,0,0,0,9.946,1.482c.08-.058.163-.11.245-.165h0a1.145,1.145,0,0,1,1.607-.522,7.569,7.569,0,0,0,2.838.5c.409,0,.474.254.62.489h0c0-.581.462-.579.834-.608a8.7,8.7,0,0,0,1.742-.337,1.319,1.319,0,1,1,.906,2.477,12.252,12.252,0,0,1-2.442.565s0,.006,0,.009a8.277,8.277,0,0,0,3.885,2.371,8.779,8.779,0,0,1,4.025,2.435,2.67,2.67,0,0,0,3.436.646,2.792,2.792,0,0,0,1.248-3.35,2.971,2.971,0,0,0-.455-1.083,10.08,10.08,0,0,1-3.274.9,1.214,1.214,0,0,1-1.348-1.114,1.44,1.44,0,0,1,.909-1.41c.831-.237,1.678-.419,2.518-.625a21.335,21.335,0,0,0,2.473-2.082,8.5,8.5,0,0,0,.94-1.226,11.079,11.079,0,0,1-4.059-.069,7.614,7.614,0,0,1-2.737-1.3,1.373,1.373,0,0,0-1.3-.241,4.463,4.463,0,0,1-4.966-2.268,1.33,1.33,0,0,1,.419-1.891,1.256,1.256,0,0,1,1.828.556,2.032,2.032,0,0,0,3.54.013,2.233,2.233,0,0,0,.064-1.652,1.349,1.349,0,0,1,.2-1.462,1.208,1.208,0,0,1,2.09.243,4.127,4.127,0,0,1-.053,4.074c-.324.585-.013.72.327.882a5.753,5.753,0,0,0,5.429-.112c.171-.09.363-.582.6-.044a17.283,17.283,0,0,1,1.331-2.228.432.432,0,0,1-.057-.453,7.569,7.569,0,0,0-.065-5.163,3.637,3.637,0,0,1-2.5,1.534,1.106,1.106,0,0,1-1.173-.742,1.2,1.2,0,0,1,.32-1.417c.464-.44,1.084-.676,1.441-1.265a2.726,2.726,0,0,0-.287-3.478,2.6,2.6,0,0,0-3.507-.382,1.377,1.377,0,0,1-1.592.172,1.336,1.336,0,0,1-.654-1.332c.057-.6.517-.88.945-1.163a4.742,4.742,0,0,1,2.612-.763,1.322,1.322,0,0,1-.444-.716,9.551,9.551,0,0,0-4.692-5.727,9.707,9.707,0,0,0-2.877-.974,11.316,11.316,0,0,1-1.358-.258,9.48,9.48,0,0,1,.227,1.584,1.443,1.443,0,0,1-1.3,1.313,1.4,1.4,0,0,1-1.338-1.42,2.772,2.772,0,0,0-5.455-.671,3.707,3.707,0,0,0-.079.588,1.468,1.468,0,0,1-1.432,1.5,1.533,1.533,0,0,1-1.252-1.82,7.012,7.012,0,0,1,.85-2.452,1.718,1.718,0,0,1-.806-.267,7.745,7.745,0,0,0-3.854-.671,7.279,7.279,0,0,0-5.391,2.96,1.177,1.177,0,0,1-1.437.537,5.074,5.074,0,0,0-6.537,3.714,1.6,1.6,0,0,1-.092.24,5.921,5.921,0,0,1,3.978,1.222A5.347,5.347,0,0,1,80.6,70.654a1.327,1.327,0,0,1-.482,1.652,1.116,1.116,0,0,1-1.6-.2,3.187,3.187,0,0,0-2.454-1.194,2.644,2.644,0,0,0-2.578,1.977,2.752,2.752,0,0,0,.943,2.994c.444.342.941.653.885,1.358a1.3,1.3,0,0,1-1.923,1.112A6.459,6.459,0,0,1,71.5,76.562a12.738,12.738,0,0,0-.913,3.617,9.922,9.922,0,0,0,.582,3.727,2.429,2.429,0,0,1,.222.859.787.787,0,0,1-.032.108,9.622,9.622,0,0,0,6.806,5.144m18.619-9.781a5.051,5.051,0,0,0,3.952-3.926c.279-1.05.973-1.5,1.833-1.168a1.355,1.355,0,0,1,.825,1.505,8.043,8.043,0,0,1-6.047,6.237.878.878,0,0,0-.66.489,6.751,6.751,0,0,1-5.466,3.874,1.5,1.5,0,0,1-1.846-1.286c-.081-.758.592-1.339,1.569-1.407a3.666,3.666,0,0,0,2.867-1.6,10.205,10.205,0,0,1-3.072-1.534,12.392,12.392,0,0,1-.934-.854,1.205,1.205,0,0,1-.078-1.842,1.23,1.23,0,0,1,1.958,0,5.145,5.145,0,0,0,5.1,1.514m-12.943-4.67a6.129,6.129,0,0,1,4.946-5.687,2.382,2.382,0,0,1,1.6-.035,1.112,1.112,0,0,1,.779,1.165,1.208,1.208,0,0,1-1.244,1.4c-2.2.234-3.174,1.2-3.4,3.4a1.539,1.539,0,0,1-1.4,1.393,1.444,1.444,0,0,1-1.282-1.638" transform="translate(-56.466 -48.583)" fill="#fa7a75"/>
        <path id="Trazado_591957" data-name="Trazado 591957" d="M95.022,67.073a5.073,5.073,0,0,1,6.537-3.714A1.177,1.177,0,0,0,103,62.822a7.279,7.279,0,0,1,5.391-2.96,7.745,7.745,0,0,1,3.854.671,1.719,1.719,0,0,0,.806.267l.036-.067c-3.991-2.075-7.864-1.234-10.492,2.311-.272.367-.472.282-.8.17a5.278,5.278,0,0,0-6.993,4.1h.134a1.618,1.618,0,0,0,.092-.24" transform="translate(-75.843 -47.696)" fill="#fa7a75"/>
        <path id="Trazado_591958" data-name="Trazado 591958" d="M236.3,72.291a9.708,9.708,0,0,1,2.877.974,9.551,9.551,0,0,1,4.692,5.727,1.323,1.323,0,0,0,.444.716c.121,0,.242,0,.364,0h0c-.506-.076-.526-.512-.644-.874a9.857,9.857,0,0,0-9.108-6.906c.005.033.011.067.017.1a11.317,11.317,0,0,0,1.358.258" transform="translate(-187.956 -57.551)" fill="#fa7a75"/>
        <path id="Trazado_591959" data-name="Trazado 591959" d="M303.928,159.72a.433.433,0,0,0,.057.453l.025-.041a7.3,7.3,0,0,0-.039-5.691l-.108.115a7.569,7.569,0,0,1,.065,5.163" transform="translate(-243.109 -123.563)" fill="#fa7a75"/>
        <path id="Trazado_591960" data-name="Trazado 591960" d="M70.573,147.869a.785.785,0,0,0,.032-.108,2.432,2.432,0,0,0-.222-.859,9.926,9.926,0,0,1-.582-3.727,12.745,12.745,0,0,1,.913-3.617l-.077-.095a1.752,1.752,0,0,0-.162.243,9.466,9.466,0,0,0,.007,8c.029.055.061.106.091.16" transform="translate(-55.678 -111.579)" fill="#fa7a75"/>
        <path id="Trazado_591961" data-name="Trazado 591961" d="M36.1,186.407c-.8,4.718-1.573,9.441-2.353,14.162-.638,3.861-1.283,7.721-1.91,11.584a1.306,1.306,0,0,0,1.756,1.578,50.581,50.581,0,0,1,8.593-1.87,45,45,0,0,1,10.584-.014,32.393,32.393,0,0,1,4.445.763c.023-.017.042-.035.067-.05a1.845,1.845,0,0,1,1.1.063,43.926,43.926,0,0,1,4.6,1.5.77.77,0,0,0,.132.023,1.661,1.661,0,0,0,.023-.658q.009-11.78,0-23.561a7.156,7.156,0,0,1-11.3-3.155l0-.032a6.446,6.446,0,0,1-2.272.43c-.006.015-.01.031-.017.046A5.865,5.865,0,0,1,45.9,187a10.076,10.076,0,0,1-5.162-3.98,2.572,2.572,0,0,1-.445-.944.9.9,0,0,1-.761.368c-.52.058-1.037.141-1.555.213a1.324,1.324,0,0,0-1.236,1.2c-.059.37-.118.74-.193,1.106-.118.58-.243.806-.627.889.194.053.235.2.175.554" transform="translate(-25.446 -145.671)" fill="#f4eec9"/>
        <path id="Trazado_591962" data-name="Trazado 591962" d="M37.657,184.731a1.136,1.136,0,0,1,.314.026c.384-.083.509-.309.627-.889.075-.367.134-.737.192-1.106a1.325,1.325,0,0,1,1.236-1.2c.518-.072,1.035-.154,1.555-.212a.9.9,0,0,0,.761-.369,1.855,1.855,0,0,1-.04-.274c-.053.353-.335.4-.607.437-.54.065-1.083.1-1.623.163a1.53,1.53,0,0,0-1.492,1.229,6.964,6.964,0,0,0-.164,1.176c-.021.69-.316.916-1.02.909a10.406,10.406,0,0,0-3.028.1c1.1.006,2.194.031,3.289.008" transform="translate(-27.497 -144.575)" fill="#f4eec9"/>
        <path id="Trazado_591963" data-name="Trazado 591963" d="M164.641,335.859a43.966,43.966,0,0,0-4.6-1.5,1.845,1.845,0,0,0-1.1-.063c-.025.016-.044.034-.067.05.079.021.159.04.237.061.2.028.393.043.586.085a41.548,41.548,0,0,1,4.937,1.58.5.5,0,0,0,.138-.187.748.748,0,0,1-.131-.023" transform="translate(-127.109 -267.404)" fill="#f4eec9"/>
        <path id="Trazado_591964" data-name="Trazado 591964" d="M143.279,208.325c-.082.055-.165.108-.245.165a6.914,6.914,0,0,1-9.946-1.482c-.391-.534-.69-1.136-1.031-1.707l-.081.025,0,.032a7.156,7.156,0,0,0,11.3,3.155Z" transform="translate(-105.589 -164.254)" fill="#f4eec9"/>
        <path id="Trazado_591965" data-name="Trazado 591965" d="M79.859,186.544a5.865,5.865,0,0,0,3.645.22c.007-.015.011-.031.017-.046h-.036a9.1,9.1,0,0,1-9.183-5.212.674.674,0,0,1-.05.114,2.566,2.566,0,0,0,.445.944,10.075,10.075,0,0,0,5.162,3.98" transform="translate(-59.406 -145.216)" fill="#f4eec9"/>
        <path id="Trazado_591966" data-name="Trazado 591966" d="M74.089,180.979a.69.69,0,0,0,.05-.114c-.03-.054-.061-.106-.091-.16a1.88,1.88,0,0,0,.041.274" transform="translate(-59.243 -144.575)" fill="#f4eec9"/>
        <path id="Trazado_591967" data-name="Trazado 591967" d="M210.727,185.427a7.7,7.7,0,0,1-1.37,3.216c.172.3-.111.492-.256.682a10.644,10.644,0,0,1-3.109,2.711A6.679,6.679,0,0,1,207.1,194.1c.016,0,.032,0,.048,0a3.139,3.139,0,0,1,.045,4.086,2.916,2.916,0,0,1-3.976.347,4.715,4.715,0,0,1-.545-.51,7.761,7.761,0,0,0-3.52-2.161,10.784,10.784,0,0,1-3.388-1.694c-.337-.252-.746-.481-.769-.985l-.008-.008a3.191,3.191,0,0,1-1.033-2.095h0l0-.006c-1.108-.488-2.362-.331-3.474-.778a1.135,1.135,0,0,0-1.485.413l-.013.011a1.5,1.5,0,0,1,.148.874q.009,11.306-.005,22.611c0,.267.064.585-.11.8a2.966,2.966,0,0,0,.7-.253,39.109,39.109,0,0,1,3.941-1.266,1.786,1.786,0,0,1,1.09-.067.844.844,0,0,1,.076.051,34.33,34.33,0,0,1,4.879-.812,47.1,47.1,0,0,1,6.787-.2,45.542,45.542,0,0,1,11.079,1.886c.071.021.142.049.211.077,1.887.774,2.658-.271,2.339-2.071-.988-5.594-1.881-11.2-2.809-16.809-.46-2.778-.9-5.558-1.387-8.331-.06-.343-.007-.464.217-.5-.5-.1-.575-.38-.737-1.314-.038-.221-.07-.442-.116-.661a1.332,1.332,0,0,0-1.287-1.231,10.878,10.878,0,0,1-1.9-.327c-.007-.007-.013-.015-.019-.022a5.923,5.923,0,0,1-1.345,2.264h-.005" transform="translate(-151.192 -146.542)" fill="#f8e9af"/>
        <path id="Trazado_591968" data-name="Trazado 591968" d="M304.538,182.962a10.858,10.858,0,0,0,1.9.327,1.332,1.332,0,0,1,1.287,1.231c.047.219.078.441.117.661.162.933.236,1.216.737,1.314a1.263,1.263,0,0,1,.2-.012c1.121.011,2.242-.007,3.363-.014h0a5.119,5.119,0,0,0-1.98-.113c-1.936-.027-1.932-.01-2.21-1.918a1.353,1.353,0,0,0-1.136-1.3,10.61,10.61,0,0,0-2.278-.254c0,.018-.011.034-.016.051s.012.015.019.022" transform="translate(-243.634 -146.319)" fill="#f8e9af"/>
        <path id="Trazado_591969" data-name="Trazado 591969" d="M193.707,334.3a1.787,1.787,0,0,0-1.09.067,39.1,39.1,0,0,0-3.941,1.266,2.967,2.967,0,0,1-.7.253.6.6,0,0,1-.292.19c.257.242.467-.008.671-.089a25.274,25.274,0,0,1,5.183-1.576c.082-.021.164-.04.246-.061a.891.891,0,0,0-.076-.05" transform="translate(-150.158 -267.409)" fill="#f8e9af"/>
        <path id="Trazado_591970" data-name="Trazado 591970" d="M188.616,217.879a1.134,1.134,0,0,1,1.485-.413c1.112.446,2.366.29,3.474.778-.146-.235-.21-.489-.62-.489a7.57,7.57,0,0,1-2.838-.5,1.145,1.145,0,0,0-1.608.522.784.784,0,0,1,.093.114l.013-.011" transform="translate(-150.82 -173.704)" fill="#f8e9af"/>
        <path id="Trazado_591971" data-name="Trazado 591971" d="M276.973,211.253c.145-.19.428-.384.256-.682l-.007.01h0a8.482,8.482,0,0,1-.94,1.226,21.276,21.276,0,0,1-2.473,2.082l.055.074a10.644,10.644,0,0,0,3.109-2.711" transform="translate(-219.064 -168.47)" fill="#f8e9af"/>
        <path id="Trazado_591972" data-name="Trazado 591972" d="M297.767,185.384h.005a5.924,5.924,0,0,0,1.345-2.264l-.009-.011a17.3,17.3,0,0,0-1.331,2.228c0,.016-.007.031-.009.047" transform="translate(-238.232 -146.499)" fill="#f8e9af"/>
        <path id="Trazado_591973" data-name="Trazado 591973" d="M219.837,234.3a10.782,10.782,0,0,0,3.388,1.694,7.762,7.762,0,0,1,3.521,2.161,4.71,4.71,0,0,0,.545.51,2.917,2.917,0,0,0,3.977-.348,3.139,3.139,0,0,0-.045-4.085c-.016,0-.032,0-.048,0,.011.035.023.07.033.105a2.97,2.97,0,0,1,.455,1.083,2.792,2.792,0,0,1-1.248,3.35,2.67,2.67,0,0,1-3.436-.646,8.779,8.779,0,0,0-4.025-2.435,8.278,8.278,0,0,1-3.885-2.371c.024.5.432.733.769.985" transform="translate(-175.268 -186.666)" fill="#f8e9af"/>
        <path id="Trazado_591974" data-name="Trazado 591974" d="M304.472,182.946l.009.011c0-.018.011-.034.016-.052l-.025.041" transform="translate(-243.597 -146.335)" fill="#f8e9af"/>
        <path id="Trazado_591975" data-name="Trazado 591975" d="M188.637,244.482q.021-11.306.005-22.611a1.5,1.5,0,0,0-.148-.874c-.031.026-.062.049-.093.074q0,11.78,0,23.561a1.661,1.661,0,0,1-.023.658.77.77,0,0,0,.154,0c.173-.219.109-.537.11-.8" transform="translate(-150.711 -176.811)" fill="#f8e9af"/>
        <path id="Trazado_591976" data-name="Trazado 591976" d="M187.975,342.481a.772.772,0,0,1-.153,0,.5.5,0,0,1-.138.187.6.6,0,0,0,.292-.19" transform="translate(-150.158 -274.006)" fill="#f8e9af"/>
        <path id="Trazado_591977" data-name="Trazado 591977" d="M188.51,220.425v.188c.031-.025.062-.048.093-.074a.784.784,0,0,0-.093-.114" transform="translate(-150.82 -176.354)" fill="#f8e9af"/>
        <path id="Trazado_591978" data-name="Trazado 591978" d="M240.873,201.719c-1.114,0-1.121.01-.945,1.079q.583,3.545,1.178,7.088c.955,5.709,1.875,11.423,2.824,17.132.033.2.063.394.082.593.15,1.591-.769,2.392-2.291,1.909a44.6,44.6,0,0,0-10.1-1.976,43.1,43.1,0,0,0-11.879.686,6.672,6.672,0,0,1-1.213.086,1.134,1.134,0,0,1,.334.852c.105,1.832.294,3.656.445,5.484a1.325,1.325,0,0,1-.077.6,3.506,3.506,0,0,1,1.224-.1q13.161,0,26.321,0c.324,0,.648.011.972-.009a2.289,2.289,0,0,0,2.251-2.4,4.937,4.937,0,0,0-.107-.966c-1.632-8.357-3.24-16.719-4.886-25.073-.241-1.225-.439-2.458-.706-3.678a1.61,1.61,0,0,0-.972-1.32c-.069-.023-.139-.039-.208-.057a1.628,1.628,0,0,1-.607.071c-.548.014-1.1,0-1.643,0" transform="translate(-174.841 -161.327)" fill="#e54c3c"/>
        <path id="Trazado_591979" data-name="Trazado 591979" d="M245.768,201.038a1.61,1.61,0,0,1,.972,1.32c.266,1.22.464,2.454.706,3.678,1.646,8.354,3.254,16.716,4.886,25.073a4.907,4.907,0,0,1,.107.966,2.289,2.289,0,0,1-2.251,2.4c-.323.02-.648.009-.972.009q-13.161,0-26.321,0a3.513,3.513,0,0,0-1.225.1,1.172,1.172,0,0,1-.092.186c.324-.009.647-.025.971-.025q13.608,0,27.216,0a2.661,2.661,0,0,0,2.825-3.486q-1.4-7.116-2.77-14.238-1.438-7.413-2.871-14.827a1.479,1.479,0,0,0-1.168-1.379h0a.577.577,0,0,1-.222.166c.069.018.139.033.208.057" transform="translate(-177.277 -160.665)" fill="#e54c3c"/>
        <path id="Trazado_591980" data-name="Trazado 591980" d="M217.979,341.984a1.328,1.328,0,0,0,.077-.6c-.151-1.828-.34-3.652-.445-5.484a1.133,1.133,0,0,0-.333-.852c-.1,0-.209,0-.314.011.436.13.408.524.435.845.174,2.071.325,4.143.484,6.215.021-.042.042-.083.062-.126l.034-.011" transform="translate(-173.585 -268.061)" fill="#e54c3c"/>
        <path id="Trazado_591981" data-name="Trazado 591981" d="M221.623,369.742c-.02.043-.041.084-.062.126,0,.016,0,.033,0,.049a1.175,1.175,0,0,0,.092-.186l-.034.011" transform="translate(-177.263 -295.808)" fill="#e54c3c"/>
        <path id="Trazado_591982" data-name="Trazado 591982" d="M239.293,201.442c.483,2.773.927,5.554,1.387,8.331.928,5.6,1.82,11.215,2.809,16.809.318,1.8-.453,2.845-2.34,2.071a2.184,2.184,0,0,0-.211-.077,45.531,45.531,0,0,0-11.079-1.886,47.109,47.109,0,0,0-6.787.2,34.3,34.3,0,0,0-4.879.812c.024.016.047.032.068.05a6.668,6.668,0,0,0,1.213-.086,43.089,43.089,0,0,1,11.879-.686,44.588,44.588,0,0,1,10.1,1.976c1.522.483,2.441-.318,2.291-1.909-.019-.2-.05-.4-.082-.593-.949-5.709-1.869-11.424-2.824-17.132q-.593-3.543-1.178-7.088c-.176-1.069-.168-1.077.945-1.079.548,0,1.1.009,1.643,0a1.626,1.626,0,0,0,.607-.071A10.82,10.82,0,0,0,240.4,201a5.944,5.944,0,0,1-.892-.061c-.224.034-.277.155-.217.5" transform="translate(-174.568 -160.768)" fill="#e54c3c"/>
        <path id="Trazado_591983" data-name="Trazado 591983" d="M324.809,200.842a5.994,5.994,0,0,0,.892.061,10.808,10.808,0,0,1,2.45.079.577.577,0,0,0,.222-.166c-1.121.007-2.242.025-3.363.014a1.261,1.261,0,0,0-.2.012" transform="translate(-259.868 -160.665)" fill="#e54c3c"/>
        <path id="Trazado_591984" data-name="Trazado 591984" d="M217.21,334.8c-.082.02-.164.039-.246.061.1-.006.21-.008.314-.01-.021-.018-.045-.034-.068-.05" transform="translate(-173.585 -267.861)" fill="#e54c3c"/>
        <path id="Trazado_591985" data-name="Trazado 591985" d="M31.813,234.364c.124-1.656.312-3.306.4-4.964a1.5,1.5,0,0,1,.353-1.142,41.311,41.311,0,0,1-4.168-.58A45.26,45.26,0,0,0,9.94,229.291c-.239.071-.474.154-.716.216a1.63,1.63,0,0,1-2.158-1.961c.564-3.221,1.048-6.454,1.589-9.678q1.27-7.568,2.519-15.14c.174-1.05.157-1.069-.879-1.073-.573,0-1.146.009-1.719-.005a1.434,1.434,0,0,1-.644-.087.974.974,0,0,0-.168.073,1.7,1.7,0,0,0-1,1.472c-.513,2.646-1.038,5.291-1.55,7.937q-1.585,8.2-3.184,16.392c-.3,1.543-.63,3.082-.881,4.634a2.367,2.367,0,0,0,2.561,3.017c.249,0,.5,0,.747,0q13.08,0,26.16,0a3.756,3.756,0,0,1,1.247.092,1.92,1.92,0,0,1-.055-.817" transform="translate(-0.88 -161.261)" fill="#e54c3c"/>
        <path id="Trazado_591986" data-name="Trazado 591986" d="M29.741,234.478q-13.08,0-26.16,0c-.249,0-.5,0-.748,0a2.367,2.367,0,0,1-2.56-3.017c.251-1.552.58-3.091.881-4.634q1.595-8.2,3.184-16.392c.512-2.647,1.036-5.291,1.55-7.937a1.7,1.7,0,0,1,1-1.472.977.977,0,0,1,.168-.073.579.579,0,0,1-.183-.152c-.791.165-1.042.755-1.178,1.46-1.855,9.591-3.673,19.19-5.608,28.765a2.9,2.9,0,0,0,3.108,3.746c8.971-.087,17.944-.034,26.916-.033.324,0,.647.016.971.025a.976.976,0,0,1-.092-.19,3.754,3.754,0,0,0-1.247-.092" transform="translate(0 -160.651)" fill="#e54c3c"/>
        <path id="Trazado_591987" data-name="Trazado 591987" d="M155.049,336.227c-.09,1.659-.278,3.309-.4,4.964a1.919,1.919,0,0,0,.055.817l.012,0c.027.052.056.1.084.149a15.956,15.956,0,0,0,.164-1.653c0-1.557.348-3.089.328-4.648,0-.283.011-.668.426-.77-.105,0-.209,0-.314,0a1.5,1.5,0,0,0-.353,1.142" transform="translate(-123.713 -268.089)" fill="#e54c3c"/>
        <path id="Trazado_591988" data-name="Trazado 591988" d="M155.086,369.865c-.028-.05-.057-.1-.084-.149l-.012,0a.97.97,0,0,0,.092.19c0-.012,0-.025,0-.037" transform="translate(-124.002 -295.793)" fill="#e54c3c"/>
        <path id="Trazado_591989" data-name="Trazado 591989" d="M34.028,201.181c1.035,0,1.052.023.878,1.073q-1.254,7.571-2.519,15.14c-.541,3.224-1.025,6.458-1.589,9.678a1.63,1.63,0,0,0,2.158,1.961c.242-.062.477-.145.716-.216a45.264,45.264,0,0,1,18.46-1.613,41.311,41.311,0,0,0,4.168.58c.023-.02.05-.038.076-.057a32.4,32.4,0,0,0-4.446-.763,45,45,0,0,0-10.584.014,50.579,50.579,0,0,0-8.593,1.87A1.306,1.306,0,0,1,31,227.271c.627-3.863,1.273-7.723,1.91-11.584.78-4.722,1.55-9.445,2.353-14.162.06-.354.019-.5-.175-.554a2.513,2.513,0,0,1-.472.043c-.747.014-1.495,0-2.242,0a2.193,2.193,0,0,0-.705.071,1.435,1.435,0,0,0,.644.087c.572.015,1.146,0,1.719.005" transform="translate(-24.611 -160.789)" fill="#e54c3c"/>
        <path id="Trazado_591990" data-name="Trazado 591990" d="M34.552,200.951a2.187,2.187,0,0,1,.705-.071c.747,0,1.495.01,2.242,0a2.548,2.548,0,0,0,.472-.043,1.131,1.131,0,0,0-.314-.026c-1.1.023-2.193,0-3.289-.008a.58.58,0,0,0,.183.153" transform="translate(-27.497 -160.651)" fill="#e54c3c"/>
        <path id="Trazado_591991" data-name="Trazado 591991" d="M158.492,334.855c.1,0,.209.006.314,0-.079-.022-.158-.041-.237-.061-.026.019-.054.037-.076.057" transform="translate(-126.804 -267.859)" fill="#e54c3c"/>
        <path id="Trazado_591992" data-name="Trazado 591992" d="M73.445,107.239a5.741,5.741,0,0,0,1.157,1.053,1.1,1.1,0,1,0,1.4-1.705c-.124-.123-.267-.224-.4-.339a2.976,2.976,0,1,1,3.821-4.561c.233.188.425.423.667.6a.957.957,0,0,0,1.352,0,1.083,1.083,0,0,0,.2-1.426,4.715,4.715,0,0,0-2.94-2.026,15.473,15.473,0,0,0-1.7-.211.314.314,0,0,1-.163-.076,1.188,1.188,0,0,1-.674.307,5.229,5.229,0,0,0-3.509,7.066,1.6,1.6,0,0,1,.211.814c.293.037.414.315.576.509" transform="translate(-57.81 -78.841)" fill="#fe5364"/>
        <path id="Trazado_591993" data-name="Trazado 591993" d="M71.782,105.576a5.229,5.229,0,0,1,3.509-7.066,1.187,1.187,0,0,0,.674-.307.443.443,0,0,1-.078-.085c-.164.056-.324.123-.491.165a5.344,5.344,0,0,0-3.953,3.616,5.687,5.687,0,0,0,.449,4.485.525.525,0,0,1,.1.006,1.6,1.6,0,0,0-.211-.814" transform="translate(-56.935 -78.501)" fill="#fe5364"/>
        <path id="Trazado_591994" data-name="Trazado 591994" d="M77.1,108.262a1.3,1.3,0,0,0,1.923-1.112c.055-.706-.441-1.016-.885-1.358a2.752,2.752,0,0,1-.944-2.994,2.644,2.644,0,0,1,2.578-1.977,3.187,3.187,0,0,1,2.455,1.194,1.116,1.116,0,0,0,1.6.2,1.327,1.327,0,0,0,.482-1.652,5.339,5.339,0,0,0-1.066-1.233,5.919,5.919,0,0,0-3.978-1.222c-.006.013-.011.026-.017.038a.543.543,0,0,1-.039.048.314.314,0,0,0,.163.076,15.377,15.377,0,0,1,1.7.211,4.713,4.713,0,0,1,2.94,2.026,1.083,1.083,0,0,1-.2,1.426.957.957,0,0,1-1.352,0c-.243-.176-.434-.411-.667-.6a2.976,2.976,0,1,0-3.821,4.561c.132.114.274.216.4.339a1.1,1.1,0,1,1-1.4,1.705,5.745,5.745,0,0,1-1.157-1.053c-.162-.194-.283-.471-.576-.509,0,.014,0,.028,0,.042l-.017.047a6.459,6.459,0,0,0,1.888,1.788" transform="translate(-60.172 -78.496)" fill="#fe5364"/>
        <path id="Trazado_591995" data-name="Trazado 591995" d="M94.875,98.2c.013-.015.027-.03.039-.047s.011-.026.017-.038H94.8a.429.429,0,0,0,.078.084" transform="translate(-75.844 -78.497)" fill="#fe5364"/>
        <path id="Trazado_591996" data-name="Trazado 591996" d="M74.915,139.508c0-.014,0-.028,0-.042a.525.525,0,0,0-.1-.006l.077.095.017-.047" transform="translate(-59.861 -111.576)" fill="#fe5364"/>
        <path id="Trazado_591997" data-name="Trazado 591997" d="M265.667,112.454a1.108,1.108,0,1,0,1.231,1.839,3,3,0,0,1,2.98-.3,2.955,2.955,0,0,1,.567,5.063,7.826,7.826,0,0,0-.762.6,1.042,1.042,0,0,0,.836,1.822,2.837,2.837,0,0,0,1.386-.678c.345-.213.552-.612.954-.739a1.5,1.5,0,0,1,.252-.638,5.216,5.216,0,0,0-4.058-7.914,1.6,1.6,0,0,1-.219-.041,1.063,1.063,0,0,1-.135-.039,1.472,1.472,0,0,1-.7.1,4.334,4.334,0,0,0-2.331.923" transform="translate(-212.108 -89.149)" fill="#fe5364"/>
        <path id="Trazado_591998" data-name="Trazado 591998" d="M283.041,110.961a1.036,1.036,0,0,0,.134.039,1.584,1.584,0,0,0,.219.041,5.217,5.217,0,0,1,4.058,7.914,1.5,1.5,0,0,0-.252.638.831.831,0,0,1,.111-.031c.131-.21.269-.417.392-.631a5.4,5.4,0,0,0-4.531-8.085.522.522,0,0,1-.132.116" transform="translate(-226.451 -88.683)" fill="#fe5364"/>
        <path id="Trazado_591999" data-name="Trazado 591999" d="M265,111.588c-.428.283-.889.563-.945,1.163a1.336,1.336,0,0,0,.654,1.332,1.377,1.377,0,0,0,1.592-.172,2.6,2.6,0,0,1,3.508.382,2.726,2.726,0,0,1,.287,3.478c-.356.589-.977.824-1.441,1.265a1.2,1.2,0,0,0-.32,1.417,1.106,1.106,0,0,0,1.173.742,3.636,3.636,0,0,0,2.5-1.534c0-.011-.007-.022-.01-.033s.005-.034.007-.051c-.4.127-.609.527-.954.739a2.837,2.837,0,0,1-1.386.678,1.042,1.042,0,0,1-.836-1.822,7.845,7.845,0,0,1,.762-.6,2.955,2.955,0,0,0-.566-5.063,3,3,0,0,0-2.98.3,1.108,1.108,0,1,1-1.23-1.839,4.329,4.329,0,0,1,2.331-.923,1.474,1.474,0,0,0,.7-.1.887.887,0,0,1-.233-.12,4.744,4.744,0,0,0-2.612.763" transform="translate(-211.254 -88.667)" fill="#fe5364"/>
        <path id="Trazado_592000" data-name="Trazado 592000" d="M303.811,154.524l.01.033.108-.115a.807.807,0,0,0-.111.031c0,.017-.006.033-.007.051" transform="translate(-243.068 -123.563)" fill="#fe5364"/>
        <path id="Trazado_592001" data-name="Trazado 592001" d="M282.112,110.941a.523.523,0,0,0,.132-.116c-.122,0-.244-.006-.365,0a.881.881,0,0,0,.232.12" transform="translate(-225.522 -88.663)" fill="#fe5364"/>
        <path id="Trazado_592002" data-name="Trazado 592002" d="M183.365,57.033a5.507,5.507,0,0,0-.49,1.72c-.122.867.282,1.494.989,1.583.646.082,1.17-.412,1.262-1.271A2.964,2.964,0,0,1,191,58.748c.044.2.046.4.086.592a1.108,1.108,0,1,0,2.2-.272c-.006-.461-.214-.92-.047-1.383a1.291,1.291,0,0,1-.387-.6,5.2,5.2,0,0,0-8.471-1.48,2.364,2.364,0,0,1-.827.709.954.954,0,0,1-.188.715" transform="translate(-146.294 -43.224)" fill="#fe5364"/>
        <path id="Trazado_592003" data-name="Trazado 592003" d="M187.107,54.813a5.2,5.2,0,0,1,8.471,1.48,1.291,1.291,0,0,0,.387.6c.01-.026.015-.053.027-.079a5.684,5.684,0,0,0-2.164-2.864,5.454,5.454,0,0,0-7.565,1.518c.008.02.012.038.018.057a2.364,2.364,0,0,0,.827-.709" transform="translate(-149.021 -42.428)" fill="#fe5364"/>
        <path id="Trazado_592004" data-name="Trazado 592004" d="M183.007,69.587a1.468,1.468,0,0,0,1.432-1.5,3.7,3.7,0,0,1,.079-.588,2.772,2.772,0,0,1,5.455.671,1.4,1.4,0,0,0,1.338,1.42,1.443,1.443,0,0,0,1.3-1.313,9.486,9.486,0,0,0-.227-1.584l-.027-.008-.017-.013c-.167.463.042.922.047,1.383a1.108,1.108,0,1,1-2.2.272c-.04-.2-.042-.4-.086-.592a2.964,2.964,0,0,0-5.874.316c-.091.859-.616,1.353-1.262,1.271-.707-.09-1.111-.717-.989-1.583a5.508,5.508,0,0,1,.49-1.72.953.953,0,0,0,.188-.715l-.018.008h-.036a7.007,7.007,0,0,0-.85,2.452,1.533,1.533,0,0,0,1.252,1.82" transform="translate(-145.401 -52.212)" fill="#fe5364"/>
        <path id="Trazado_592005" data-name="Trazado 592005" d="M234.805,72.026l.027.008c-.006-.033-.012-.067-.017-.1-.012.026-.018.053-.028.079l.017.013" transform="translate(-187.845 -57.552)" fill="#fe5364"/>
        <path id="Trazado_592006" data-name="Trazado 592006" d="M186.116,65.267l.018-.008a.511.511,0,0,0-.018-.058c-.013.022-.024.045-.036.067h.036" transform="translate(-148.876 -52.165)" fill="#fe5364"/>
        <path id="Trazado_592007" data-name="Trazado 592007" d="M121.326,6.751a1.247,1.247,0,0,0-1.217-.821,1.3,1.3,0,0,0-1.174,1.9c.454,1.182.935,2.353,1.435,3.516a1.323,1.323,0,1,0,2.435-1.018c-.469-1.2-.973-2.391-1.48-3.578" transform="translate(-95.057 -4.744)" fill="#efc319"/>
        <path id="Trazado_592008" data-name="Trazado 592008" d="M240.881,5.924a1.24,1.24,0,0,0-1.59.6c-.582,1.288-1.145,2.589-1.619,3.92a1.263,1.263,0,0,0,1.2,1.721,1.13,1.13,0,0,0,1.115-.612c.6-1.336,1.173-2.684,1.679-4.056a1.245,1.245,0,0,0-.788-1.574" transform="translate(-190.085 -4.669)" fill="#efc319"/>
        <path id="Trazado_592009" data-name="Trazado 592009" d="M34.936,97.208c-1.274-.557-2.554-1.1-3.854-1.595a1.3,1.3,0,0,0-.986,2.4c1.245.562,2.5,1.1,3.782,1.578a1.27,1.27,0,0,0,1.747-1.24,1.138,1.138,0,0,0-.69-1.146" transform="translate(-23.482 -76.425)" fill="#efc319"/>
        <path id="Trazado_592010" data-name="Trazado 592010" d="M320.616,95.7c-1.23.468-2.445.981-3.649,1.514a1.315,1.315,0,0,0,1.008,2.43c1.227-.477,2.437-1,3.65-1.511a1.36,1.36,0,0,0,.845-1.18,1.328,1.328,0,0,0-1.855-1.252" transform="translate(-252.95 -76.484)" fill="#efc319"/>
        <path id="Trazado_592011" data-name="Trazado 592011" d="M291.767,45.706a1.2,1.2,0,0,0-1.588,0,14.993,14.993,0,0,0-1.585,1.587,1.178,1.178,0,0,0-.118,1.4,1.265,1.265,0,0,0,1.231.686.85.85,0,0,0,.365-.066,5.868,5.868,0,0,0,2.12-2.155,1.124,1.124,0,0,0-.426-1.458" transform="translate(-230.659 -36.329)" fill="#efc319"/>
        <path id="Trazado_592012" data-name="Trazado 592012" d="M70.932,45.914a1.093,1.093,0,0,0-.836-.329,1.248,1.248,0,0,0-1.236.748,1.2,1.2,0,0,0,.191,1.394,16.074,16.074,0,0,0,1.479,1.479,1.277,1.277,0,0,0,1.814-.088,1.334,1.334,0,0,0-.039-1.827c-.44-.475-.911-.922-1.372-1.377" transform="translate(-54.979 -36.47)" fill="#efc319"/>
        <path id="Trazado_592013" data-name="Trazado 592013" d="M164.8,135.989a1.205,1.205,0,0,0,.078,1.842,12.434,12.434,0,0,0,.934.854,10.2,10.2,0,0,0,3.072,1.534,3.666,3.666,0,0,1-2.867,1.6c-.977.068-1.65.649-1.569,1.407a1.5,1.5,0,0,0,1.846,1.286,6.752,6.752,0,0,0,5.466-3.874.878.878,0,0,1,.66-.488,8.043,8.043,0,0,0,6.047-6.237,1.355,1.355,0,0,0-.825-1.506c-.861-.331-1.555.119-1.833,1.168a5.051,5.051,0,0,1-3.952,3.926,5.145,5.145,0,0,1-5.1-1.514,1.23,1.23,0,0,0-1.959,0" transform="translate(-131.538 -105.847)" fill="#fe5364"/>
        <path id="Trazado_592014" data-name="Trazado 592014" d="M238.928,175.7c.529-.783.628-1.753,1.12-2.549a2.388,2.388,0,0,0-.8.331,5.932,5.932,0,0,1-5.131.022c-.76-.352-.832-.585-.492-1.337a4.39,4.39,0,0,0,.163-3.353,1.316,1.316,0,0,0-1.025-.985,1.06,1.06,0,0,0-1.154,1.012,3.829,3.829,0,0,0,.153,1.033,2.074,2.074,0,0,1-1.127,2.3,2.193,2.193,0,0,1-2.6-.511c-.147-.17-.258-.368-.408-.536a1.077,1.077,0,0,0-1.462-.308,1.109,1.109,0,0,0-.379,1.509,4.21,4.21,0,0,0,4.476,2.285,2.507,2.507,0,0,1,2.082.451,7.572,7.572,0,0,0,5.42,1.2,1.528,1.528,0,0,1,.88.026.608.608,0,0,1,.041.059.923.923,0,0,1,.241-.647" transform="translate(-180.532 -134.264)" fill="#fe5364"/>
        <path id="Trazado_592015" data-name="Trazado 592015" d="M237.771,175.348a.647.647,0,0,0-.041-.059,1.53,1.53,0,0,0-.88-.026,7.572,7.572,0,0,1-5.42-1.2,2.507,2.507,0,0,0-2.082-.451,4.21,4.21,0,0,1-4.476-2.285,1.109,1.109,0,0,1,.379-1.509,1.077,1.077,0,0,1,1.462.308c.15.167.261.366.408.536a2.193,2.193,0,0,0,2.6.511,2.074,2.074,0,0,0,1.127-2.3,3.828,3.828,0,0,1-.153-1.033,1.06,1.06,0,0,1,1.154-1.012,1.316,1.316,0,0,1,1.025.985,4.39,4.39,0,0,1-.163,3.353c-.34.752-.267.985.492,1.337a5.932,5.932,0,0,0,5.131-.022,2.384,2.384,0,0,1,.8-.33c.01-.016.018-.033.028-.049-.234-.538-.426-.046-.6.044a5.754,5.754,0,0,1-5.429.112c-.341-.163-.651-.3-.328-.883a4.127,4.127,0,0,0,.053-4.074,1.208,1.208,0,0,0-2.09-.243,1.35,1.35,0,0,0-.2,1.462,2.232,2.232,0,0,1-.064,1.652,2.032,2.032,0,0,1-3.54-.012,1.256,1.256,0,0,0-1.828-.556,1.33,1.33,0,0,0-.419,1.891,4.463,4.463,0,0,0,4.966,2.268,1.372,1.372,0,0,1,1.3.241,7.613,7.613,0,0,0,2.737,1.3,11.074,11.074,0,0,0,4.058.069c0-.009,0-.018,0-.027" transform="translate(-179.616 -133.264)" fill="#fe5364"/>
        <path id="Trazado_592016" data-name="Trazado 592016" d="M291.084,197.039a.923.923,0,0,0-.241.647l.01.017a7.7,7.7,0,0,0,1.37-3.216l-.018,0c-.492.8-.591,1.767-1.12,2.549" transform="translate(-232.688 -155.603)" fill="#fe5364"/>
        <path id="Trazado_592017" data-name="Trazado 592017" d="M297.693,194.3c0-.016.007-.031.009-.047-.01.016-.018.033-.028.049l.018,0" transform="translate(-238.159 -155.415)" fill="#fe5364"/>
        <path id="Trazado_592018" data-name="Trazado 592018" d="M290.877,210.5l-.01-.017c0,.009,0,.018,0,.027l.007-.01" transform="translate(-232.712 -168.402)" fill="#fe5364"/>
        <path id="Trazado_592019" data-name="Trazado 592019" d="M106.676,172.222a1.7,1.7,0,0,0,.218-.633,1.012,1.012,0,0,0-.585-1.174,1.089,1.089,0,0,0-1.3.283,5,5,0,0,0-.646,1.174c-.363.69-.7.789-1.384.418a2.237,2.237,0,0,1-1.048-1.4c-.06-.191-.071-.392-.119-.586a1.107,1.107,0,0,0-1.146-.961,1.132,1.132,0,0,0-.971,1.142,3.936,3.936,0,0,0,2.616,3.958c1.384.375,1.531,1.268,1.594,2.369a.391.391,0,0,1-.029.154,5.787,5.787,0,0,1,2.262-.442,6.561,6.561,0,0,1,.533-4.306" transform="translate(-79.76 -135.483)" fill="#fe5364"/>
        <path id="Trazado_592020" data-name="Trazado 592020" d="M102.987,175.948a.384.384,0,0,0,.029-.154c-.063-1.1-.21-1.994-1.594-2.369a3.936,3.936,0,0,1-2.615-3.958,1.131,1.131,0,0,1,.971-1.142,1.107,1.107,0,0,1,1.146.961c.048.193.059.4.119.586a2.238,2.238,0,0,0,1.048,1.4c.685.371,1.02.272,1.384-.418a5,5,0,0,1,.646-1.174,1.089,1.089,0,0,1,1.3-.283,1.011,1.011,0,0,1,.585,1.174,1.7,1.7,0,0,1-.218.633,6.561,6.561,0,0,0-.533,4.306c.028,0,.057,0,.085,0a8.527,8.527,0,0,1,.843-4.761,1.158,1.158,0,0,0-.65-1.56,1.283,1.283,0,0,0-1.687.516,8.166,8.166,0,0,0-.6,1.2c-.192.46-.462.5-.885.3a2.094,2.094,0,0,1-1.21-1.829,1.343,1.343,0,0,0-1.283-1.3,1.442,1.442,0,0,0-1.288,1.458,4.536,4.536,0,0,0,2.246,3.889,5.982,5.982,0,0,1,2.123,2.55l.042-.015" transform="translate(-78.866 -134.462)" fill="#fe5364"/>
        <path id="Trazado_592021" data-name="Trazado 592021" d="M120.619,205.706l-.006.016a6.451,6.451,0,0,0,2.272-.43l0-.028a5.788,5.788,0,0,0-2.262.442" transform="translate(-96.498 -164.22)" fill="#fe5364"/>
        <path id="Trazado_592022" data-name="Trazado 592022" d="M120.431,207.513h.036l.006-.016-.042.015" transform="translate(-96.352 -166.011)" fill="#fe5364"/>
        <path id="Trazado_592023" data-name="Trazado 592023" d="M131.956,205.286l0,.028.081-.025c-.029,0-.057,0-.085,0" transform="translate(-105.573 -164.242)" fill="#fe5364"/>
        <path id="Trazado_592024" data-name="Trazado 592024" d="M138.181,113.171a1.54,1.54,0,0,0,1.4-1.393c.225-2.194,1.194-3.162,3.4-3.4a1.208,1.208,0,0,0,1.244-1.4,1.111,1.111,0,0,0-.779-1.165,2.382,2.382,0,0,0-1.6.035,6.129,6.129,0,0,0-4.946,5.687,1.445,1.445,0,0,0,1.282,1.638" transform="translate(-109.523 -84.551)" fill="#fe5364"/>
        <path id="Trazado_592025" data-name="Trazado 592025" d="M260.982,227.641a11.029,11.029,0,0,1-1.927.576,1.567,1.567,0,0,0-.921.453.987.987,0,0,0-.255,1.095,1.013,1.013,0,0,0,.959.7,5.988,5.988,0,0,0,2.242-.488,2.977,2.977,0,0,1,1.041-.318,8.421,8.421,0,0,1-1.083-2.053l-.057.035" transform="translate(-206.262 -182.099)" fill="#fe5364"/>
        <path id="Trazado_592026" data-name="Trazado 592026" d="M261.171,229.308a2.981,2.981,0,0,0-1.041.318,5.989,5.989,0,0,1-2.243.488,1.012,1.012,0,0,1-.959-.7.987.987,0,0,1,.255-1.095,1.567,1.567,0,0,1,.92-.454,11.026,11.026,0,0,0,1.927-.576l.057-.035c-.011-.029-.023-.058-.033-.087-.84.206-1.687.388-2.518.625a1.44,1.44,0,0,0-.909,1.41,1.214,1.214,0,0,0,1.348,1.114,10.079,10.079,0,0,0,3.274-.9c-.027-.035-.052-.072-.078-.108" transform="translate(-205.311 -181.749)" fill="#fe5364"/>
        <path id="Trazado_592027" data-name="Trazado 592027" d="M275.058,229.606l.046,0A6.678,6.678,0,0,0,274,227.54l-.022.013a8.421,8.421,0,0,0,1.083,2.053" transform="translate(-219.197 -182.046)" fill="#fe5364"/>
        <path id="Trazado_592028" data-name="Trazado 592028" d="M273.864,227.242l-.055-.074c.011.029.022.058.033.088l.022-.013" transform="translate(-219.064 -181.749)" fill="#fe5364"/>
        <path id="Trazado_592029" data-name="Trazado 592029" d="M279.437,237.875l-.046,0c.026.036.051.073.078.108-.01-.036-.022-.07-.033-.105" transform="translate(-223.53 -190.313)" fill="#fe5364"/>
        <path id="Trazado_592030" data-name="Trazado 592030" d="M213.861,219.528c.327.707.7,1.389,1.033,2.095h.007c0-.01,0-.019,0-.03a1.565,1.565,0,0,1,.962-.345,4.533,4.533,0,0,0,1.5-.445,1.112,1.112,0,0,0,.561-1.394,1.127,1.127,0,0,0-1.35-.659,11.731,11.731,0,0,1-1.9.37,1.553,1.553,0,0,0-.778.413l-.024-.01v0h0" transform="translate(-171.102 -174.982)" fill="#fe5364"/>
        <path id="Trazado_592031" data-name="Trazado 592031" d="M214.664,218.317a11.689,11.689,0,0,0,1.9-.37,1.127,1.127,0,0,1,1.35.659,1.112,1.112,0,0,1-.561,1.394,4.538,4.538,0,0,1-1.5.445,1.565,1.565,0,0,0-.962.345c0,.011,0,.019,0,.03a12.224,12.224,0,0,0,2.442-.565,1.319,1.319,0,1,0-.906-2.477,8.694,8.694,0,0,1-1.742.337c-.372.029-.836.027-.834.608l.024.01a1.554,1.554,0,0,1,.778-.414" transform="translate(-171.103 -174.18)" fill="#fe5364"/>
        <path id="Trazado_592032" data-name="Trazado 592032" d="M214.894,224.893c-.329-.706-.707-1.388-1.033-2.095a3.19,3.19,0,0,0,1.033,2.095" transform="translate(-171.102 -178.252)" fill="#fe5364"/>
      </g>
    </g>
  </g>
</svg>
