<svg xmlns="http://www.w3.org/2000/svg" xmlns:xlink="http://www.w3.org/1999/xlink" width="112" height="112" viewBox="0 0 112 112">
  <defs>
    <clipPath id="clip-path">
      <rect id="Rectángulo_300799" data-name="Rectángulo 300799" width="65.194" height="74.822" fill="none"/>
    </clipPath>
  </defs>
  <g id="Grupo_886478" data-name="Grupo 886478" transform="translate(10055.505 6217.361)">
    <circle id="Elipse_6605" data-name="Elipse 6605" cx="56" cy="56" r="56" transform="translate(-10055.505 -6217.361)" fill="#e1fbff"/>
    <g id="Grupo_886073" data-name="Grupo 886073" transform="translate(-10032.505 -6197.881)">
      <g id="Grupo_886073-2" data-name="Grupo 886073" clip-path="url(#clip-path)">
        <path id="Trazado_600939" data-name="Trazado 600939" d="M104.875,176.35q-.02-22.072-.014-44.143a8.123,8.123,0,0,0-.1-2.672c0,.437-.016.874,0,1.31.015.386-.1.583-.531.58-1.894-.013-3.789,0-5.683-.013a1.649,1.649,0,0,1-.414-.113,4.141,4.141,0,0,1-1.583.1c-1.576.015-3.153,0-4.729,0-.243.007-.485.021-.728.021l-41.692.012q-.006,11.679-.012,23.358c0,7.153.025,14.307-.024,21.46a2.785,2.785,0,0,0,1.484,2.822h52.435c1.283-.468,1.591-1.469,1.59-2.722m-6.086-5.232c0,1.153-.409,1.572-1.562,1.635-.145.008-.292,0-.438,0q-11.274.011-22.548.018a1.6,1.6,0,0,1-.926-.107h0a1.144,1.144,0,0,1-.992-1.243q-.008-9.421,0-18.841a1.193,1.193,0,0,1,1.223-1.262c1.873-.01,3.747.01,5.621.017l15.614-.024h2.262c1.406,0,1.743.341,1.744,1.776q0,4.817,0,9.634,0,4.2,0,8.394" transform="translate(-39.73 -104.251)" fill="#fecf85"/>
        <path id="Trazado_600940" data-name="Trazado 600940" d="M10.419,183.131q-.013-22.076,0-44.152a1.432,1.432,0,0,1,.248-1.108c.015-.011.031-.018.046-.028,0-.011-.009-.02-.012-.031h0l-2.891-.029c-1.936,0-3.873-.013-5.809.024-.34.007-.557-.055-.675-.213.022.405.073.811.073,1.216q0,5.872,0,11.745,0,15.831-.006,31.661c0,1.117-.021,2.209,1.039,2.943a.363.363,0,0,1,.115.4h9.64c-1.416-.447-1.768-.906-1.769-2.426" transform="translate(-1.068 -110.736)" fill="#fec265"/>
        <path id="Trazado_600941" data-name="Trazado 600941" d="M48.169,183.768c.049-7.153.022-14.307.024-21.46q0-11.679.012-23.358a.581.581,0,0,1-.027-.074c-.015.01-.031.017-.046.028a1.432,1.432,0,0,0-.248,1.108q-.011,22.076,0,44.152c0,1.52.353,1.979,1.769,2.426a2.785,2.785,0,0,1-1.484-2.822" transform="translate(-38.533 -111.768)" fill="#fec265"/>
        <path id="Trazado_600942" data-name="Trazado 600942" d="M1.366,178.625c-1.06-.734-1.04-1.825-1.039-2.943q.015-15.831.006-31.661,0-5.873,0-11.745c0-.4-.051-.81-.073-1.216a.8.8,0,0,1-.1-.571,7.889,7.889,0,0,0-.018-1.013,8.377,8.377,0,0,0-.1,2.462q-.011,22.2-.021,44.406a2.647,2.647,0,0,0,1.461,2.681.363.363,0,0,0-.115-.4" transform="translate(0 -104.202)" fill="#fec265"/>
        <path id="Trazado_600943" data-name="Trazado 600943" d="M49.592,138.723l.017-.01h-.018a.086.086,0,0,1,0,.01" transform="translate(-39.911 -111.637)" fill="#daecfe"/>
        <path id="Trazado_600944" data-name="Trazado 600944" d="M110.688,45.468c0-.315-.019-.629-.029-.944l-3.513-.02c-1.143,0-2.285.02-3.428.01a2.314,2.314,0,0,1-2.406-2.381c-.017-2.018-.036-4.037.008-6.055a.9.9,0,0,0-.232-.774,2.015,2.015,0,0,0-.507-.161c-.071-.005-.147-.008-.229-.008q-12.435.035-24.871.019h0a2.513,2.513,0,0,0-1.905,2.6c-.005,2.592,0,5.184.007,7.776h0l23.831.013c.243,0,.486-.006.729,0,.75.024,1.229.4,1.242,1.054a1.039,1.039,0,0,1-.971,1.15,1.43,1.43,0,0,1-.919.127q-11.368.006-22.737,0c-1.184,0-1.184,0-1.184,1.171v.583l28.764.016a5.813,5.813,0,0,1,.874.03,1.071,1.071,0,0,1,1.043,1.239,1.116,1.116,0,0,1-1.178,1.047c-.242.014-.486,0-.73,0l-28.764.013q0,1.168-.009,2.336c0,.525,0,.776-.148.9,11.983-.122,23.968-.018,35.951-.061.468,0,.938.078,1.406.048a1.078,1.078,0,0,1-.1-.564c.011-3.056.007-6.113,0-9.169" transform="translate(-59.093 -28.277)" fill="#daecfe"/>
        <path id="Trazado_600945" data-name="Trazado 600945" d="M91.567,137.731c-.468.03-.937-.049-1.406-.048-11.984.042-23.968-.061-35.951.061-.136.114-.4.116-.9.118-1.244,0-2.487.014-3.73.021l-.017.01a.248.248,0,0,1-.009.1l41.692-.012c.243,0,.486-.014.728-.021a.512.512,0,0,1-.4-.225" transform="translate(-39.878 -110.808)" fill="#daecfe"/>
        <path id="Trazado_600946" data-name="Trazado 600946" d="M49.4,138.713h-.046c0,.011.008.021.011.032l.036-.022v-.01" transform="translate(-39.721 -111.637)" fill="#daecfe"/>
        <path id="Trazado_600947" data-name="Trazado 600947" d="M49.45,138.765l-.036.022a.58.58,0,0,0,.027.074.252.252,0,0,0,.009-.1" transform="translate(-39.769 -111.679)" fill="#daecfe"/>
        <path id="Trazado_600948" data-name="Trazado 600948" d="M108.6,4.472c.017,1.092-.012,2.185-.022,3.278q10.044-.008,20.087,0a1.365,1.365,0,0,1,1,.245,1.52,1.52,0,0,1,.327.261c1.227,1.277,2.475,2.533,3.716,3.8,1.729,1.65,3.438,3.319,5.06,5.074a1.227,1.227,0,0,1,.229.1c.327.305.273.712.275,1.095q.016,3.8,0,7.593a9.232,9.232,0,0,0,.137,2.037c.025-.005.05-.008.075-.014,2.094.027,4.189.048,6.283-.02h.023q.018-3.648.036-7.3a.684.684,0,0,1-.2-.228,2.538,2.538,0,0,1-.11-1.08c-.007-2.481,0-4.962,0-7.443a4.774,4.774,0,0,0-.056-1.016.99.99,0,0,0-.146-.339,34.107,34.107,0,0,1-3.438.049c-1.017.007-2.035.035-3.052.016a2.5,2.5,0,0,1-2.49-2.571q-.005-3.017,0-6.034a2.153,2.153,0,0,1,0-.506,1.317,1.317,0,0,0-.256-.047c-4.373-.041-8.743-.012-13.113-.015-4.128,0-8.255-.018-12.382.012a1.954,1.954,0,0,0-.566-.09A3.206,3.206,0,0,0,108.6,4.472" transform="translate(-87.385 -1.076)" fill="#62dcfb"/>
        <path id="Trazado_600949" data-name="Trazado 600949" d="M272.883,137.536c-2.094.068-4.189.046-6.283.02-.025.006-.05.009-.075.014.02.09.042.18.068.269,1.576,0,3.153.015,4.729,0a4.141,4.141,0,0,0,1.583-.1q0-.1,0-.2h-.023" transform="translate(-214.501 -110.69)" fill="#62dcfb"/>
        <path id="Trazado_600950" data-name="Trazado 600950" d="M296.922,48.514a4.789,4.789,0,0,1,.056,1.016c0,2.481,0,4.962,0,7.443a2.539,2.539,0,0,0,.111,1.08.687.687,0,0,0,.2.228v-.1q-.014-4.615-.033-9.23c0-.278.105-.585-.129-.831-.117.022-.234.038-.352.053a.985.985,0,0,1,.146.339" transform="translate(-238.847 -38.729)" fill="#62dcfb"/>
        <path id="Trazado_600951" data-name="Trazado 600951" d="M116.552.35c4.127-.03,8.254-.015,12.382-.012,4.37,0,8.74-.027,13.113.015A1.314,1.314,0,0,1,142.3.4a.455.455,0,0,1,.15-.244c-.214-.248-.5-.127-.75-.127q-5.1-.014-10.2-.006-7.538.006-15.076.018a3.525,3.525,0,0,0-.443.22,1.96,1.96,0,0,1,.566.09" transform="translate(-93.346 0)" fill="#62dcfb"/>
        <path id="Trazado_600952" data-name="Trazado 600952" d="M263.737,91.021q.007-3.8,0-7.593c0-.383.053-.79-.274-1.095a1.24,1.24,0,0,0-.229-.1c.061.066.124.13.184.2h0c.01.315.029.629.029.944,0,3.056.006,6.113,0,9.169a1.078,1.078,0,0,0,.1.564,2.551,2.551,0,0,0,.335-.044,9.23,9.23,0,0,1-.137-2.037" transform="translate(-211.85 -66.178)" fill="#62dcfb"/>
        <path id="Trazado_600953" data-name="Trazado 600953" d="M213.057,35.337a.894.894,0,0,0-.507-.161,2.018,2.018,0,0,1,.507.161" transform="translate(-171.062 -28.31)" fill="#62dcfb"/>
        <path id="Trazado_600954" data-name="Trazado 600954" d="M108.575,34.25q10.16,0,20.321-.012a1.445,1.445,0,0,1,.764.186,1.364,1.364,0,0,0-1-.245q-10.044,0-20.087,0C108.576,34.2,108.575,34.227,108.575,34.25Z" transform="translate(-87.382 -27.507)" fill="#62dcfb"/>
        <path id="Trazado_600955" data-name="Trazado 600955" d="M264.811,137.751a.512.512,0,0,0,.4.225c-.026-.089-.049-.179-.069-.269a2.554,2.554,0,0,1-.335.044" transform="translate(-213.122 -110.828)" fill="#62dcfb"/>
        <path id="Trazado_600956" data-name="Trazado 600956" d="M195.8,241.115q-1.131,0-2.262,0l-15.614.024a1.741,1.741,0,0,0-.868,1.788c.049.507.015,1.022.019,1.533h0l14.449.013c.219,0,.438-.005.657,0a1.15,1.15,0,0,1,1.234.993c.059.575-.314,1.022-1.007,1.205a1.367,1.367,0,0,1-.915.132q-6.658.007-13.317,0c-1.11,0-1.11,0-1.11,1.1,0,.218,0,.437,0,.655h0l14.6.016c1.229,0,1.755.349,1.755,1.157s-.526,1.159-1.752,1.16l-14.6.015q0,.937.006,1.874h0q7.446.007,14.892.017a1.371,1.371,0,0,1,.917.146,1.077,1.077,0,0,1,.5,1.2,1.038,1.038,0,0,1-1.048.847c-1.071,0-2.141,0-3.212,0l-12.045.014q0,.935,0,1.871h0l14.591.015a2.954,2.954,0,0,1,1.009.106,1.043,1.043,0,0,1,.742.98,1.028,1.028,0,0,1-.616,1.062,2.228,2.228,0,0,1-1.067.174q-7.332.006-14.664.014c0,.557,0,1.115,0,1.672a1.827,1.827,0,0,0,.711,1.563h-5.7a1.6,1.6,0,0,0,.926.107q11.274,0,22.548-.018c.146,0,.292,0,.438,0,1.152-.063,1.56-.482,1.562-1.635q.007-4.2,0-8.393,0-4.817,0-9.634c0-1.434-.338-1.775-1.744-1.776" transform="translate(-138.48 -194.051)" fill="#daecfe"/>
        <path id="Trazado_600957" data-name="Trazado 600957" d="M168.933,262.162c1.3-.014,2.606-.005,3.937,0a4.436,4.436,0,0,1,0-2.907,3.353,3.353,0,0,1-.844-.085,1.052,1.052,0,0,1-.834-1.238,1.076,1.076,0,0,1,.977-.991,3.107,3.107,0,0,1,.679-.034,2.091,2.091,0,0,1-.009-1.875c-.174,0-.349-.008-.523-.015-.782-.031-1.121-.364-1.121-1.1s.339-1.064,1.121-1.1c.177-.007.354-.01.531-.015a2.089,2.089,0,0,1,0-1.878c-.178,0-.357,0-.534-.014a1.162,1.162,0,0,1,0-2.322c.177-.016.356-.012.534-.012a1.878,1.878,0,0,1-.164-1.288.666.666,0,0,1,.417-.608h-.165a7.341,7.341,0,0,1-.8-.01.917.917,0,0,1-.936-1.056c.029-.709.312-1.064.971-1.119.237-.02.475-.016.714-.02a3.66,3.66,0,0,1-.034-2.668c.124-.447.576-.539.971-.654-1.874-.008-3.747-.028-5.621-.017a1.194,1.194,0,0,0-1.223,1.262q-.011,9.421,0,18.841a1.144,1.144,0,0,0,.992,1.243c.233-.38.62-.323.973-.327" transform="translate(-134.374 -194.071)" fill="#b4dbfe"/>
        <path id="Trazado_600958" data-name="Trazado 600958" d="M177.057,335.6c.009-.557,0-1.114,0-1.672l-.083,0a4.436,4.436,0,0,0,0,2.907c-1.331,0-2.634-.01-3.937,0-.353,0-.74-.054-.973.327h5.7a1.827,1.827,0,0,1-.711-1.563" transform="translate(-138.48 -268.748)" fill="#b4dbfe"/>
        <path id="Trazado_600959" data-name="Trazado 600959" d="M196.184,314.168h.111q0-.936,0-1.871l-.125,0a2.091,2.091,0,0,0,.009,1.875" transform="translate(-157.708 -251.336)" fill="#b4dbfe"/>
        <path id="Trazado_600960" data-name="Trazado 600960" d="M196.182,293.176l.117,0h0q0-.937-.007-1.874h-.115a2.089,2.089,0,0,0,0,1.878" transform="translate(-157.707 -234.439)" fill="#b4dbfe"/>
        <path id="Trazado_600961" data-name="Trazado 600961" d="M196.08,270.166a1.878,1.878,0,0,0,.164,1.288h.115c0-.218,0-.437,0-.655,0-1.1,0-1.1,1.11-1.1q6.658,0,13.317,0a1.367,1.367,0,0,0,.915-.132l-15.2-.008a.666.666,0,0,0-.417.608" transform="translate(-157.777 -216.942)" fill="#b4dbfe"/>
        <path id="Trazado_600962" data-name="Trazado 600962" d="M196.1,241.9a3.66,3.66,0,0,0,.034,2.668h.087c0-.511.03-1.026-.019-1.533a1.742,1.742,0,0,1,.868-1.788c-.394.116-.847.207-.971.654" transform="translate(-157.636 -194.154)" fill="#b4dbfe"/>
        <path id="Trazado_600963" data-name="Trazado 600963" d="M300.381,107.208a1.134,1.134,0,0,1-.126.632c1.776.07,3.554.012,5.331.03.509.005.757-.209.76-.73,0-.322-.016-.669.317-.873-.276-.132-.328-.406-.4-.658a6.479,6.479,0,0,0-5.435-4.855,3,3,0,0,1-.587-.129,1.253,1.253,0,0,1,.145.672c.01,1.97.015,3.94,0,5.909" transform="translate(-241.635 -80.984)" fill="#fea80f"/>
        <path id="Trazado_600964" data-name="Trazado 600964" d="M305.518,130.4c0,.521-.25.735-.76.73-1.777-.018-3.555.04-5.331-.03a.586.586,0,0,1-.216.194,1.649,1.649,0,0,0,.414.113c1.895.008,3.789,0,5.684.013.429,0,.546-.194.531-.58-.017-.436,0-.873,0-1.31l0,0c-.333.2-.315.551-.317.873" transform="translate(-240.807 -104.244)" fill="#fea80f"/>
        <path id="Trazado_600965" data-name="Trazado 600965" d="M299.567,99.851a2.99,2.99,0,0,0,.587.129,6.48,6.48,0,0,1,5.435,4.855c.074.252.126.526.4.658l0,0a6.677,6.677,0,0,0-6.588-5.827.794.794,0,0,1,.163.188" transform="translate(-240.962 -80.209)" fill="#fea80f"/>
        <path id="Trazado_600966" data-name="Trazado 600966" d="M333.149,129.522v0l0,0,0,0" transform="translate(-268.118 -104.238)" fill="#fea80f"/>
        <path id="Trazado_600967" data-name="Trazado 600967" d="M299.431,107.469a1.133,1.133,0,0,0,.125-.632c.019-1.97.014-3.94,0-5.909a1.254,1.254,0,0,0-.145-.672.735.735,0,0,1-.164-.09q-.018,3.648-.036,7.3l.215.008" transform="translate(-240.811 -80.614)" fill="#fea80f"/>
        <path id="Trazado_600968" data-name="Trazado 600968" d="M299.427,137.548l-.216-.008q0,.1,0,.2a.586.586,0,0,0,.216-.194" transform="translate(-240.807 -110.693)" fill="#fea80f"/>
        <path id="Trazado_600969" data-name="Trazado 600969" d="M299.565,99.851a.791.791,0,0,0-.163-.188v.1a.746.746,0,0,0,.164.09" transform="translate(-240.96 -80.209)" fill="#fea80f"/>
        <path id="Trazado_600970" data-name="Trazado 600970" d="M37.345,53.745a.237.237,0,0,1,.071.1c.214-.3.553-.276.872-.283.923-.018,1.847.007,2.771-.012.738-.015.832-.116.854-.857.015-.51,0-1.021.014-1.532a1.147,1.147,0,0,1,.178-.644c-.414,0-.829.015-1.24-.023a1.078,1.078,0,0,1-1.123-1,1.048,1.048,0,0,1,.9-1.256,7.13,7.13,0,0,1,1.476-.065,1.875,1.875,0,0,1-.162-1.349.636.636,0,0,1,.407-.553h-.118c-.462,0-.925.012-1.387,0-.79-.023-1.118-.33-1.12-1.022a1.078,1.078,0,0,1,1.183-1.167c.394-.01.787-.011,1.181-.014a1.3,1.3,0,0,1-.181-.78c-.008-2.377-.031-4.755.01-7.132a2.517,2.517,0,0,1,1.883-2.571c-.649-.01-1.3-.027-1.947-.011-.291.007-.442-.067-.5-.253-.1.466-.379.536-1.2.546-.923.011-1.846-.011-2.768.008A2.39,2.39,0,0,0,34.8,36.465c-.025,2.842,0,5.683-.011,8.525a2.762,2.762,0,0,1-.109,1.15.679.679,0,0,1-.205.234q.006,3.611.012,7.222a7.557,7.557,0,0,1,2.855.15" transform="translate(-27.748 -26.813)" fill="#b4dbfe"/>
        <path id="Trazado_600971" data-name="Trazado 600971" d="M34.682,27.85a2.761,2.761,0,0,0,.109-1.15c.008-2.842-.013-5.684.011-8.525A2.39,2.39,0,0,1,37.4,15.581c.922-.019,1.846,0,2.768-.008.823-.01,1.1-.08,1.2-.546a.874.874,0,0,1-.037-.292c.018-1.381.006-2.762.005-4.143a1.134,1.134,0,0,0-.136.773c0,1.1-.019,2.19.005,3.285.011.476-.159.645-.633.634-1.045-.025-2.092-.009-3.138-.007a2.646,2.646,0,0,0-2.94,2.927q-.011,4.89-.014,9.781v.1a.678.678,0,0,0,.205-.234" transform="translate(-27.747 -8.524)" fill="#b4dbfe"/>
        <path id="Trazado_600972" data-name="Trazado 600972" d="M37.4,137.1a7.556,7.556,0,0,0-2.855-.15c0,.088,0,.176,0,.264l2.891.029h0c.011-.018.023-.031.035-.047a.237.237,0,0,0-.071-.1" transform="translate(-27.8 -110.168)" fill="#b4dbfe"/>
        <path id="Trazado_600973" data-name="Trazado 600973" d="M54.343,123.76q0-1.168.009-2.336H54.22a1.146,1.146,0,0,0-.178.644c-.015.51,0,1.021-.014,1.531-.022.741-.116.841-.854.857-.923.019-1.847-.006-2.771.012-.319.006-.657-.022-.872.283a.191.191,0,0,1,.012.047h.018a1.9,1.9,0,0,1,.89-.1q1.872-.027,3.744-.043c.145-.122.147-.374.148-.9" transform="translate(-39.863 -97.723)" fill="#b4dbfe"/>
        <path id="Trazado_600974" data-name="Trazado 600974" d="M72.878,101.563h0v-.583c0-1.171,0-1.171,1.184-1.171q11.368,0,22.737,0a1.433,1.433,0,0,0,.919-.127l-24.7-.014a.635.635,0,0,0-.406.553,1.875,1.875,0,0,0,.162,1.349Z" transform="translate(-58.398 -80.211)" fill="#b4dbfe"/>
        <path id="Trazado_600975" data-name="Trazado 600975" d="M72.884,45.148c0-2.592-.013-5.184-.007-7.776a2.512,2.512,0,0,1,1.905-2.6q-.009-.053-.013-.106l-.305,0a2.517,2.517,0,0,0-1.884,2.571c-.041,2.377-.017,4.754-.01,7.131a1.3,1.3,0,0,0,.181.78h.133" transform="translate(-58.395 -27.9)" fill="#b4dbfe"/>
        <path id="Trazado_600976" data-name="Trazado 600976" d="M49.684,138.138c1.243-.007,2.487-.017,3.73-.021.507,0,.768,0,.9-.118q-1.872.019-3.744.043a1.9,1.9,0,0,0-.89.1" transform="translate(-39.986 -111.063)" fill="#b4dbfe"/>
        <path id="Trazado_600977" data-name="Trazado 600977" d="M49.39,138.473c-.011.016-.024.029-.035.047H49.4a.2.2,0,0,0-.012-.047" transform="translate(-39.721 -111.444)" fill="#b4dbfe"/>
        <path id="Trazado_600978" data-name="Trazado 600978" d="M70.954,6.7c.016.735.109.8.859.846.521.031,1.071-.135,1.554.2a.252.252,0,0,1,.038.045l.022-.006q2.342,0,4.684,0a.739.739,0,0,1-.166-.517,34.75,34.75,0,0,1,.092-3.829,2.362,2.362,0,0,1,1.283-2.06c-.292.02-.585.061-.877.061-1.721,0-3.442-.012-5.163,0a2.2,2.2,0,0,0-2.357,1.835c-.02.061-.037.123-.053.184a1.693,1.693,0,0,1,.072.625c.016.872-.008,1.744.011,2.615" transform="translate(-57.037 -1.107)" fill="#00d1fb"/>
        <path id="Trazado_600979" data-name="Trazado 600979" d="M69.851,2.451c.017-.061.034-.123.053-.184A2.2,2.2,0,0,1,72.261.432c1.721-.016,3.442-.005,5.163,0,.292,0,.585-.041.877-.061A2.864,2.864,0,0,1,79.1.14Q75.689.131,72.277.123A2.465,2.465,0,0,0,69.6,2.166a.6.6,0,0,1,.247.284" transform="translate(-56.018 -0.099)" fill="#00d1fb"/>
        <path id="Trazado_600980" data-name="Trazado 600980" d="M88.64,34.262a.623.623,0,0,1-.073-.069q-2.342,0-4.684,0l-.022.006a.19.19,0,0,1,.032.088l4.747-.027" transform="translate(-67.491 -27.519)" fill="#00d1fb"/>
        <path id="Trazado_600981" data-name="Trazado 600981" d="M107.182,3.4a34.748,34.748,0,0,0-.092,3.829.739.739,0,0,0,.166.517h.119c.01-1.093.039-2.186.022-3.278a3.206,3.206,0,0,1,1.424-3.135q-.178,0-.356.008a2.362,2.362,0,0,0-1.283,2.06" transform="translate(-86.182 -1.071)" fill="#00d1fb"/>
        <path id="Trazado_600982" data-name="Trazado 600982" d="M114.519.431a3.471,3.471,0,0,1,.443-.22,2.861,2.861,0,0,0-.8.227q.178-.012.356-.007" transform="translate(-91.879 -0.17)" fill="#00d1fb"/>
        <path id="Trazado_600983" data-name="Trazado 600983" d="M108.044,34.262h.044c0-.023,0-.046,0-.069h-.119a.624.624,0,0,0,.073.069" transform="translate(-86.896 -27.519)" fill="#00d1fb"/>
        <path id="Trazado_600984" data-name="Trazado 600984" d="M70.271,16.452c.648-.016,1.3,0,1.947.011.1-.031.2-.059.3-.083a.254.254,0,0,0-.038-.045c-.483-.336-1.033-.17-1.554-.2-.751-.045-.844-.11-.859-.846-.019-.872,0-1.744-.011-2.615a1.689,1.689,0,0,0-.072-.625,14.6,14.6,0,0,0-.152,3.436,4.113,4.113,0,0,1-.064.715c.063.186.214.26.5.253" transform="translate(-56.148 -9.696)" fill="#00d1fb"/>
        <path id="Trazado_600985" data-name="Trazado 600985" d="M69.575,14.734a.875.875,0,0,0,.037.292,4.112,4.112,0,0,0,.064-.715,14.6,14.6,0,0,1,.152-3.436.605.605,0,0,0-.247-.284c0,1.381.012,2.762-.005,4.143" transform="translate(-55.995 -8.524)" fill="#00d1fb"/>
        <path id="Trazado_600986" data-name="Trazado 600986" d="M82.66,34.327a.188.188,0,0,0-.032-.088c-.1.025-.2.053-.3.084l.305,0h.026" transform="translate(-66.259 -27.556)" fill="#00d1fb"/>
        <path id="Trazado_600987" data-name="Trazado 600987" d="M2.951,107.751c1.653,0,3.305-.017,4.958.006.077,0,.153.009.229.017a1.57,1.57,0,0,1-.1-.645q-.013-2.865,0-5.73a1.4,1.4,0,0,1,.14-.744,2.787,2.787,0,0,1-.573.122,6.444,6.444,0,0,0-4.446,2.6A6.484,6.484,0,0,0,2,106.544H2a.96.96,0,0,1,.073.424c-.012.615.323.783.878.781" transform="translate(-1.61 -81.008)" fill="#fea80f"/>
        <path id="Trazado_600988" data-name="Trazado 600988" d="M.98,105.772h0A6.484,6.484,0,0,1,2.14,102.6,6.444,6.444,0,0,1,6.586,100a2.814,2.814,0,0,0,.573-.122.758.758,0,0,1,.16-.188,6.535,6.535,0,0,0-6.587,5.813.57.57,0,0,1,.248.265" transform="translate(-0.589 -80.234)" fill="#fea80f"/>
        <path id="Trazado_600989" data-name="Trazado 600989" d="M7.552,132.061c-.076-.008-.152-.016-.229-.017-1.653-.023-3.305-.011-4.958-.006-.554,0-.889-.166-.878-.781a.962.962,0,0,0-.073-.424,3.477,3.477,0,0,0-.131,1.319c.118.158.336.22.675.214,1.936-.037,3.872-.02,5.809-.024a.758.758,0,0,1-.215-.281" transform="translate(-1.025 -105.295)" fill="#fea80f"/>
        <path id="Trazado_600990" data-name="Trazado 600990" d="M.75,130.488a.8.8,0,0,0,.1.571,3.477,3.477,0,0,1,.131-1.319.57.57,0,0,0-.248-.265,7.889,7.889,0,0,1,.019,1.013" transform="translate(-0.588 -104.202)" fill="#fea80f"/>
        <path id="Trazado_600991" data-name="Trazado 600991" d="M32.916,106.773a1.571,1.571,0,0,0,.1.645c.069.007.138.015.207.017h.007q-.006-3.611-.012-7.222a.753.753,0,0,1-.16.086,1.4,1.4,0,0,0-.14.744q-.012,2.865,0,5.73" transform="translate(-26.486 -80.651)" fill="#fea80f"/>
        <path id="Trazado_600992" data-name="Trazado 600992" d="M33.816,99.8v-.1a.77.77,0,0,0-.16.187.749.749,0,0,0,.16-.086" transform="translate(-27.087 -80.235)" fill="#fea80f"/>
        <path id="Trazado_600993" data-name="Trazado 600993" d="M33.649,137.142c-.069,0-.139-.009-.208-.017a.758.758,0,0,0,.215.281q0-.132,0-.264h-.007" transform="translate(-26.914 -110.359)" fill="#fea80f"/>
        <path id="Trazado_600994" data-name="Trazado 600994" d="M252.082,9.007a2.271,2.271,0,0,0,2.5,2.49c.829,0,1.659.065,2.488.026-.178-.2-.357-.394-.549-.578a2.11,2.11,0,0,1-.655-1.561c-.008-.85.005-1.7.013-2.55-.057-.06-.114-.118-.171-.178-1.138-1.359-2.488-2.514-3.695-3.807a5.845,5.845,0,0,1,.067.971q-.012,2.593,0,5.186" transform="translate(-202.824 -2.295)" fill="#00c1fa"/>
        <path id="Trazado_600995" data-name="Trazado 600995" d="M255.361,5.009c.056.06.114.118.171.178q0-.177,0-.353h0C254.305,3.4,252.9,2.143,251.581.8a3.77,3.77,0,0,1,.085.4c1.206,1.293,2.556,2.447,3.695,3.807" transform="translate(-202.474 -0.645)" fill="#00c1fa"/>
        <path id="Trazado_600996" data-name="Trazado 600996" d="M250.731,2.557q-.011,3.017,0,6.034a2.5,2.5,0,0,0,2.49,2.571c1.017.019,2.034-.009,3.052-.016-.082-.088-.163-.178-.244-.267-.83.04-1.659-.025-2.488-.026a2.271,2.271,0,0,1-2.5-2.49q-.015-2.593,0-5.186a5.865,5.865,0,0,0-.067-.97l-.028-.029a.468.468,0,0,0-.207-.127,2.149,2.149,0,0,0,0,.506" transform="translate(-201.779 -1.651)" fill="#00c1fa"/>
        <path id="Trazado_600997" data-name="Trazado 600997" d="M251.021,1.174l.027.029a3.7,3.7,0,0,0-.085-.4.456.456,0,0,0-.15.244.473.473,0,0,1,.207.127" transform="translate(-201.857 -0.646)" fill="#00c1fa"/>
        <path id="Trazado_600998" data-name="Trazado 600998" d="M272.976,25.951a2.823,2.823,0,0,0,.867,2.422.869.869,0,0,1,.313.48h.013a26.627,26.627,0,0,1,3.274.077c-1.536-1.482-3.051-2.985-4.528-4.527a5.871,5.871,0,0,1,.06,1.548" transform="translate(-219.645 -19.64)" fill="#00d1fb"/>
        <path id="Trazado_600999" data-name="Trazado 600999" d="M276.576,26.557c.161.027.321.06.481.1l-5.219-5.205a2.3,2.3,0,0,1,.21.575c1.476,1.542,2.992,3.044,4.528,4.527" transform="translate(-218.777 -17.267)" fill="#00d1fb"/>
        <path id="Trazado_601000" data-name="Trazado 601000" d="M279.2,47.136h-.013a.574.574,0,0,1-.021.283,34.1,34.1,0,0,0,3.437-.049.959.959,0,0,0-.128-.155h0a26.668,26.668,0,0,0-3.274-.077" transform="translate(-224.675 -37.924)" fill="#00d1fb"/>
        <path id="Trazado_601001" data-name="Trazado 601001" d="M296.113,47.593a.98.98,0,0,1,.128.156c.117-.016.234-.031.351-.054-.16-.043-.32-.077-.481-.1h0" transform="translate(-238.313 -38.302)" fill="#00d1fb"/>
        <path id="Trazado_601002" data-name="Trazado 601002" d="M272.4,27.374c.191.184.37.381.549.578.088,0,.176-.009.264-.016a.869.869,0,0,0-.313-.48,2.823,2.823,0,0,1-.867-2.422,5.869,5.869,0,0,0-.06-1.548l-.214-.222c-.008.85-.022,1.7-.013,2.55a2.11,2.11,0,0,0,.655,1.561" transform="translate(-218.696 -18.723)" fill="#00d1fb"/>
        <path id="Trazado_601003" data-name="Trazado 601003" d="M271.819,21.808l.214.222a2.3,2.3,0,0,0-.21-.575h0c0,.118,0,.235,0,.353" transform="translate(-218.762 -17.267)" fill="#00d1fb"/>
        <path id="Trazado_601004" data-name="Trazado 601004" d="M278.181,47.2c-.088.007-.176.012-.264.016.081.089.162.179.244.267a.574.574,0,0,0,.021-.283" transform="translate(-223.67 -37.986)" fill="#00d1fb"/>
        <path id="Trazado_601005" data-name="Trazado 601005" d="M66.628,111.709q13.462-.012,26.925-.006a8.517,8.517,0,0,0,1.166-.033c.481-.066.841-.287.842-.829,0-.517-.375-.7-.8-.792a5.876,5.876,0,0,0-1.237-.056q-13.426,0-26.852-.007c-.493,0-1.021.123-1.46-.237a.964.964,0,0,1-.716.222,3.113,3.113,0,0,0-.574.048c-.441.116-.836.282-.816.844.021.576.406.767.9.845.4.063.866-.1,1.2.241l.014-.017a2.09,2.09,0,0,1,1.409-.223" transform="translate(-50.785 -88.326)" fill="#8bcafe"/>
        <path id="Trazado_601006" data-name="Trazado 601006" d="M75.337,109.7q13.426.013,26.852.007a5.875,5.875,0,0,1,1.237.056c.429.092.805.275.8.792,0,.542-.361.763-.842.829a8.576,8.576,0,0,1-1.166.033q-13.463,0-26.925.006a2.091,2.091,0,0,0-1.409.223l-.014.017a.8.8,0,0,1,.069.079l28.764-.013c.243,0,.487.01.73,0a1.116,1.116,0,0,0,1.178-1.047,1.071,1.071,0,0,0-1.043-1.239,5.789,5.789,0,0,0-.874-.031l-28.764-.016a.594.594,0,0,1-.057.07c.44.36.968.236,1.46.237" transform="translate(-59.454 -88.036)" fill="#8bcafe"/>
        <path id="Trazado_601007" data-name="Trazado 601007" d="M62.627,111.409c-.494-.078-.879-.269-.9-.845-.021-.561.375-.728.816-.844a3.1,3.1,0,0,1,.574-.048.965.965,0,0,0,.716-.222l-.013-.01c-.014-.018-.023-.037-.036-.056a7.13,7.13,0,0,0-1.476.065,1.048,1.048,0,0,0-.9,1.256,1.078,1.078,0,0,0,1.123,1c.41.038.826.023,1.239.023a.845.845,0,0,1,.063-.079c-.335-.34-.8-.177-1.2-.241" transform="translate(-49.408 -88.028)" fill="#8bcafe"/>
        <path id="Trazado_601008" data-name="Trazado 601008" d="M73.614,121.018a.84.84,0,0,0-.063.079h.132a.827.827,0,0,0-.069-.079" transform="translate(-59.194 -97.396)" fill="#8bcafe"/>
        <path id="Trazado_601009" data-name="Trazado 601009" d="M73.687,109.458a.58.58,0,0,0,.057-.07c-.035,0-.071,0-.106,0,.013.019.022.038.036.056l.013.01" transform="translate(-59.264 -88.036)" fill="#8bcafe"/>
        <path id="Trazado_601010" data-name="Trazado 601010" d="M90.886,89.765c-.063-.54-.469-.689-.946-.715-.34-.019-.68-.013-1.02-.013q-11.073,0-22.146-.005a1.987,1.987,0,0,1-1.337-.218l-.014-.016a.912.912,0,0,1-.707.233,2.826,2.826,0,0,0-.8.083.754.754,0,0,0-.556.77.663.663,0,0,0,.632.68,6.271,6.271,0,0,0,1.093.043q11.936,0,23.873.009a2.528,2.528,0,0,1,1.031.056c.061-.016.122-.032.183-.051.452-.106.769-.35.709-.854" transform="translate(-50.996 -71.464)" fill="#8ac9fe"/>
        <path id="Trazado_601011" data-name="Trazado 601011" d="M73.923,88.465a1.986,1.986,0,0,0,1.337.218q11.073.011,22.146.005c.34,0,.68-.006,1.02.013.476.026.882.175.946.715.059.5-.257.748-.709.854-.061.019-.122.035-.183.051a.814.814,0,0,1,.322.262,1.039,1.039,0,0,0,.971-1.151c-.013-.657-.492-1.03-1.242-1.054-.243-.008-.486,0-.729,0l-23.83-.013a.627.627,0,0,1-.063.085l.014.016" transform="translate(-59.482 -71.116)" fill="#8ac9fe"/>
        <path id="Trazado_601012" data-name="Trazado 601012" d="M65.238,90.5q10.761,0,21.522,0a6.572,6.572,0,0,0,1.688-.18,2.532,2.532,0,0,0-1.031-.056q-11.937-.018-23.873-.009a6.267,6.267,0,0,1-1.093-.043.663.663,0,0,1-.632-.68.754.754,0,0,1,.556-.77,2.819,2.819,0,0,1,.8-.083.912.912,0,0,0,.707-.233.828.828,0,0,1-.069-.083c-.394,0-.787,0-1.181.014a1.078,1.078,0,0,0-1.182,1.167c0,.692.331,1,1.12,1.022.462.013.924,0,1.387,0h.117a.924.924,0,0,1,.294-.061c.291-.015.583-.012.875-.012" transform="translate(-49.451 -71.121)" fill="#8ac9fe"/>
        <path id="Trazado_601013" data-name="Trazado 601013" d="M73.687,88.364h-.133a.83.83,0,0,0,.069.084.644.644,0,0,0,.063-.085" transform="translate(-59.197 -71.116)" fill="#8ac9fe"/>
        <path id="Trazado_601014" data-name="Trazado 601014" d="M99.269,98.394a6.579,6.579,0,0,1-1.688.18q-10.761-.012-21.523,0c-.292,0-.583,0-.875.012a.921.921,0,0,0-.294.061l24.7.014a.809.809,0,0,0-.322-.262" transform="translate(-60.272 -79.188)" fill="#8ac9fe"/>
        <path id="Trazado_601015" data-name="Trazado 601015" d="M217.712,43.849c.01,1.684.767,2.462,2.469,2.437.841-.013,1.682.108,2.522.053a2.974,2.974,0,0,1-1.351-2.843,8.354,8.354,0,0,1,.053-1.893c-.085-.082-.168-.165-.254-.246A22.733,22.733,0,0,1,218,38.14a2.685,2.685,0,0,0-.344-.4,3.223,3.223,0,0,1,.048.562c.029,1.849,0,3.7.012,5.549" transform="translate(-175.168 -30.373)" fill="#8ac9fe"/>
        <path id="Trazado_601016" data-name="Trazado 601016" d="M218.165,44.886c-1.7.025-2.459-.753-2.469-2.437-.011-1.849.017-3.7-.012-5.549a3.239,3.239,0,0,0-.049-.562,1.876,1.876,0,0,0-.489-.34.9.9,0,0,1,.232.774c-.044,2.018-.025,4.037-.008,6.055a2.314,2.314,0,0,0,2.406,2.381c1.142.01,2.285-.006,3.428-.01a3.55,3.55,0,0,1-.517-.26c-.84.055-1.681-.065-2.522-.053" transform="translate(-173.152 -28.972)" fill="#8ac9fe"/>
        <path id="Trazado_601017" data-name="Trazado 601017" d="M89.569,34.631a3.611,3.611,0,0,1-.8-.03.6.6,0,0,1-.05-.038,40.184,40.184,0,0,1-4.751.026.227.227,0,0,1-.013.1h0q12.436,0,24.871-.019c.083,0,.158,0,.229.008a5.485,5.485,0,0,0-.986-.058q-9.25.022-18.5.006" transform="translate(-67.568 -27.817)" fill="#8ac9fe"/>
        <path id="Trazado_601018" data-name="Trazado 601018" d="M217.146,36.291a22.73,22.73,0,0,0,3.156,3.217c.086.081.169.164.254.246a2.086,2.086,0,0,1,.082-.254c-1.24-1.264-2.489-2.52-3.716-3.8a1.52,1.52,0,0,0-.327-.261.842.842,0,0,1,.206.448,2.675,2.675,0,0,1,.344.4" transform="translate(-174.318 -28.524)" fill="#8ac9fe"/>
        <path id="Trazado_601019" data-name="Trazado 601019" d="M108.406,34.5h0l-.041,0a.6.6,0,0,0,.05.038,3.62,3.62,0,0,0,.8.03q9.25,0,18.5-.006a5.466,5.466,0,0,1,.986.058.894.894,0,0,1,.507.161,1.88,1.88,0,0,1,.489.34.843.843,0,0,0-.206-.448,1.445,1.445,0,0,0-.764-.186q-10.16.018-20.321.012" transform="translate(-87.213 -27.756)" fill="#8ac9fe"/>
        <path id="Trazado_601020" data-name="Trazado 601020" d="M83.918,34.69h-.026c0,.035.007.071.013.106a.225.225,0,0,0,.013-.1" transform="translate(-67.517 -27.918)" fill="#8ac9fe"/>
        <path id="Trazado_601021" data-name="Trazado 601021" d="M88.776,34.552l0,0-4.747.027h0a40.189,40.189,0,0,0,4.751-.026" transform="translate(-67.624 -27.805)" fill="#8ac9fe"/>
        <path id="Trazado_601022" data-name="Trazado 601022" d="M108.391,34.548h-.044l0,0,.041,0" transform="translate(-87.198 -27.804)" fill="#8ac9fe"/>
        <path id="Trazado_601023" data-name="Trazado 601023" d="M83.918,34.689h0" transform="translate(-67.517 -27.918)" fill="#8ac9fe"/>
        <path id="Trazado_601024" data-name="Trazado 601024" d="M237.947,59.872a3.1,3.1,0,0,0,1.379,3.049.61.61,0,0,1,.137.106c.027,0,.055-.006.082-.011.906.045,1.815-.012,2.72.039a2.878,2.878,0,0,1,.336.038,5.524,5.524,0,0,1-.759-.648c-1.307-1.3-2.591-2.629-3.92-3.911a7.992,7.992,0,0,1,.025,1.336" transform="translate(-191.481 -47.11)" fill="#b4dbfe"/>
        <path id="Trazado_601025" data-name="Trazado 601025" d="M248.622,81.535c-.906-.051-1.814.006-2.72-.039-.027,0-.055.006-.082.011a.293.293,0,0,1,.071.308l3.512.02a3.067,3.067,0,0,1-.445-.262,2.915,2.915,0,0,0-.336-.038" transform="translate(-197.837 -65.589)" fill="#b4dbfe"/>
        <path id="Trazado_601026" data-name="Trazado 601026" d="M241.346,60.593a5.537,5.537,0,0,0,.76.648,1.627,1.627,0,0,1,.261.066c-1.623-1.755-3.332-3.425-5.06-5.074a2.181,2.181,0,0,1,.12.45c1.329,1.282,2.613,2.608,3.92,3.911" transform="translate(-190.986 -45.257)" fill="#b4dbfe"/>
        <path id="Trazado_601027" data-name="Trazado 601027" d="M262.342,82.154h0c-.061-.066-.124-.13-.184-.2a1.647,1.647,0,0,0-.26-.066,3.06,3.06,0,0,0,.445.262" transform="translate(-210.777 -65.907)" fill="#b4dbfe"/>
        <path id="Trazado_601028" data-name="Trazado 601028" d="M236.489,59.426a2.973,2.973,0,0,0,1.351,2.843c.149-.01.3-.025.446-.048a.605.605,0,0,0-.137-.106,3.1,3.1,0,0,1-1.379-3.05,7.993,7.993,0,0,0-.025-1.336l-.2-.2a8.356,8.356,0,0,0-.053,1.894" transform="translate(-190.304 -46.302)" fill="#b4dbfe"/>
        <path id="Trazado_601029" data-name="Trazado 601029" d="M243.978,81.551c-.149.023-.3.038-.446.048a3.543,3.543,0,0,0,.517.26.293.293,0,0,0-.07-.308" transform="translate(-195.996 -65.633)" fill="#b4dbfe"/>
        <path id="Trazado_601030" data-name="Trazado 601030" d="M236.886,56.487l.2.2a2.192,2.192,0,0,0-.12-.45,2.081,2.081,0,0,0-.082.254" transform="translate(-190.648 -45.257)" fill="#b4dbfe"/>
        <path id="Trazado_601031" data-name="Trazado 601031" d="M190.908,279.906a.849.849,0,0,0,.005,1.665c.243.08.532.054.715.27a1.6,1.6,0,0,1,1.19-.24c4.348-.009,8.7,0,13.045-.007a3.682,3.682,0,0,0,1.157-.1.772.772,0,0,0,.02-1.513,3.522,3.522,0,0,0-1.156-.1c-4.348,0-8.7,0-13.045-.007a1.661,1.661,0,0,1-1.214-.238c-.184.214-.474.188-.717.269" transform="translate(-153.098 -225.054)" fill="#8bc9fe"/>
        <path id="Trazado_601032" data-name="Trazado 601032" d="M198.594,279.58c4.348.009,8.7,0,13.045.007a3.517,3.517,0,0,1,1.156.1.772.772,0,0,1-.02,1.513,3.68,3.68,0,0,1-1.157.1c-4.348,0-8.7,0-13.045.007a1.6,1.6,0,0,0-1.19.241.5.5,0,0,1,.055.073l14.6-.016c1.226,0,1.752-.351,1.752-1.16s-.526-1.156-1.755-1.157l-14.6-.016a.508.508,0,0,1-.055.071,1.662,1.662,0,0,0,1.214.238" transform="translate(-158.854 -224.758)" fill="#8bc9fe"/>
        <path id="Trazado_601033" data-name="Trazado 601033" d="M190.353,281.543c-.183-.216-.472-.189-.715-.27a.849.849,0,0,1-.005-1.665c.243-.082.533-.055.718-.269-.011-.01-.022-.016-.033-.026s-.018-.03-.028-.045c-.178,0-.357,0-.534.012a1.162,1.162,0,0,0,0,2.322c.177.016.356.013.534.014,0-.011.008-.022.013-.032s.031-.026.047-.04" transform="translate(-151.823 -224.757)" fill="#8bc9fe"/>
        <path id="Trazado_601034" data-name="Trazado 601034" d="M197.1,290.965c-.005.011-.009.022-.013.033h.115a.523.523,0,0,0-.055-.073c-.015.014-.032.025-.047.04" transform="translate(-158.617 -234.138)" fill="#8bc9fe"/>
        <path id="Trazado_601035" data-name="Trazado 601035" d="M197.07,279.27c.01.015.017.03.028.045s.022.017.033.026a.511.511,0,0,0,.055-.072h-.115" transform="translate(-158.603 -224.758)" fill="#8bc9fe"/>
        <path id="Trazado_601036" data-name="Trazado 601036" d="M191.139,322.536c-.486.1-.887.283-.9.872-.013.613.438.748.9.875a.9.9,0,0,1,.5.233l.012-.025a1.9,1.9,0,0,1,1.267-.212c4.327-.008,8.654,0,12.982-.007a3.047,3.047,0,0,0,1.154-.115.791.791,0,0,0,.6-.74.776.776,0,0,0-.653-.768,3.909,3.909,0,0,0-1.159-.088c-4.327,0-8.654,0-12.982-.006a1.707,1.707,0,0,1-1.225-.234.8.8,0,0,1-.5.215" transform="translate(-153.106 -259.406)" fill="#8bc9fe"/>
        <path id="Trazado_601037" data-name="Trazado 601037" d="M198.625,322.214c4.327.009,8.654,0,12.982.007a3.9,3.9,0,0,1,1.159.088.776.776,0,0,1,.653.769.792.792,0,0,1-.6.74,3.045,3.045,0,0,1-1.154.115c-4.327,0-8.654,0-12.982.007a1.9,1.9,0,0,0-1.267.212l-.012.025a.467.467,0,0,1,.049.073q7.332-.008,14.664-.014a2.23,2.23,0,0,0,1.067-.174A1.029,1.029,0,0,0,213.8,323a1.043,1.043,0,0,0-.742-.979,2.954,2.954,0,0,0-1.009-.106l-14.591-.014a.463.463,0,0,1-.056.083,1.707,1.707,0,0,0,1.225.234" transform="translate(-158.869 -259.065)" fill="#8bc9fe"/>
        <path id="Trazado_601038" data-name="Trazado 601038" d="M189.815,323.935c-.457-.128-.909-.262-.9-.875.013-.589.414-.772.9-.872a.805.805,0,0,0,.5-.215c-.009-.008-.018-.012-.027-.021s-.018-.041-.028-.062a3.112,3.112,0,0,0-.679.034,1.076,1.076,0,0,0-.977.991,1.052,1.052,0,0,0,.834,1.237,3.352,3.352,0,0,0,.844.085c.011-.023.022-.047.034-.07a.9.9,0,0,0-.5-.233" transform="translate(-151.786 -259.058)" fill="#8bc9fe"/>
        <path id="Trazado_601039" data-name="Trazado 601039" d="M197.118,321.9c.01.021.017.041.028.062s.018.013.027.021a.474.474,0,0,0,.056-.083h0c-.037,0-.074,0-.111,0" transform="translate(-158.642 -259.065)" fill="#8bc9fe"/>
        <path id="Trazado_601040" data-name="Trazado 601040" d="M197.236,333.637l.083,0a.478.478,0,0,0-.049-.073c-.012.023-.023.047-.034.07" transform="translate(-158.737 -268.457)" fill="#8bc9fe"/>
        <path id="Trazado_601041" data-name="Trazado 601041" d="M191.144,258.912a.741.741,0,0,0-.643.836c.021.449.315.628.718.678a7.705,7.705,0,0,0,.947.028c4.62,0,9.239,0,13.859.007a2.328,2.328,0,0,1,.895.056c.053-.015.107-.029.159-.046.487-.1.828-.362.757-.894s-.508-.669-.977-.683c-1.045-.031-2.091-.012-3.137-.013-3.55,0-7.1,0-10.65,0a1.83,1.83,0,0,1-1.2-.2c-.007-.014-.013-.028-.021-.042-.176.225-.455.225-.71.281" transform="translate(-153.315 -208.148)" fill="#8ac9fe"/>
        <path id="Trazado_601042" data-name="Trazado 601042" d="M197.459,258.372a1.828,1.828,0,0,0,1.2.2c3.55.007,7.1,0,10.65,0,1.045,0,2.091-.019,3.137.013.468.014.905.146.977.683s-.27.794-.757.894c-.053.017-.106.031-.159.046a.742.742,0,0,1,.316.255c.693-.183,1.066-.63,1.007-1.205a1.149,1.149,0,0,0-1.233-.993c-.219-.007-.438,0-.657,0l-14.448-.013a.585.585,0,0,1-.051.073c.007.014.013.027.021.041" transform="translate(-158.899 -207.848)" fill="#8ac9fe"/>
        <path id="Trazado_601043" data-name="Trazado 601043" d="M191.622,260.4q6.073,0,12.146,0a6.113,6.113,0,0,0,1.633-.179,2.327,2.327,0,0,0-.895-.056c-4.62-.011-9.239-.006-13.859-.007a7.746,7.746,0,0,1-.947-.028c-.4-.05-.7-.229-.718-.678a.741.741,0,0,1,.643-.836c.254-.056.534-.057.71-.281-.012-.024-.024-.048-.036-.072-.238,0-.477,0-.714.02-.659.056-.942.411-.971,1.119a.917.917,0,0,0,.936,1.056,7.338,7.338,0,0,0,.8.01h.165a.946.946,0,0,1,.306-.062c.267-.012.533-.01.8-.01" transform="translate(-151.797 -207.853)" fill="#8ac9fe"/>
        <path id="Trazado_601044" data-name="Trazado 601044" d="M213.25,268.293a6.113,6.113,0,0,1-1.633.179q-6.073-.014-12.146,0c-.267,0-.533,0-.8.01a.946.946,0,0,0-.306.062l15.2.008a.742.742,0,0,0-.316-.255" transform="translate(-159.646 -215.924)" fill="#8ac9fe"/>
        <path id="Trazado_601045" data-name="Trazado 601045" d="M197.29,258.33a.565.565,0,0,0,.051-.073h-.087c.012.024.023.048.036.072" transform="translate(-158.751 -207.847)" fill="#8ac9fe"/>
        <path id="Trazado_601046" data-name="Trazado 601046" d="M190.97,301.594a.794.794,0,0,0,0,1.574c.249.042.524.03.7.241a1.61,1.61,0,0,1,1.191-.239q6.237-.014,12.474-.005c.292,0,.583,0,.875,0,1.051-.008,1.473-.24,1.458-.8-.014-.537-.419-.755-1.421-.765-.34,0-.681,0-1.021,0q-6.164,0-12.328,0a1.708,1.708,0,0,1-1.231-.236c-.178.208-.451.2-.7.238" transform="translate(-153.14 -242.533)" fill="#8ac9fe"/>
        <path id="Trazado_601047" data-name="Trazado 601047" d="M198.617,301.226q6.164.013,12.328,0c.34,0,.681,0,1.021,0,1,.009,1.407.228,1.421.765.015.561-.407.794-1.458.8-.292,0-.584,0-.875,0q-6.237,0-12.474.005a1.61,1.61,0,0,0-1.191.239.548.548,0,0,1,.06.085l12.045-.014c1.071,0,2.141-.006,3.212,0a1.038,1.038,0,0,0,1.048-.847,1.077,1.077,0,0,0-.5-1.2,1.371,1.371,0,0,0-.917-.146q-7.446-.013-14.892-.017a.546.546,0,0,1-.063.089,1.708,1.708,0,0,0,1.231.236" transform="translate(-158.858 -242.168)" fill="#8ac9fe"/>
        <path id="Trazado_601048" data-name="Trazado 601048" d="M190.357,303.058c-.178-.212-.452-.2-.7-.241a.794.794,0,0,1,0-1.574c.248-.042.521-.03.7-.238-.007-.006-.015-.01-.022-.017-.012-.023-.02-.046-.031-.069-.177,0-.354.008-.531.015-.781.031-1.121.364-1.121,1.1s.339,1.064,1.121,1.1c.174.007.349.01.523.015.006-.014.011-.027.017-.041s.032-.026.047-.04" transform="translate(-151.826 -242.182)" fill="#8ac9fe"/>
        <path id="Trazado_601049" data-name="Trazado 601049" d="M197.141,300.974c.007.007.015.011.022.017a.548.548,0,0,0,.063-.089l-.117,0c.011.023.019.046.031.068" transform="translate(-158.635 -242.168)" fill="#8ac9fe"/>
        <path id="Trazado_601050" data-name="Trazado 601050" d="M197.088,311.917c-.006.014-.011.027-.017.041l.125,0a.563.563,0,0,0-.06-.085c-.016.014-.032.024-.047.04" transform="translate(-158.604 -251.001)" fill="#8ac9fe"/>
      </g>
    </g>
  </g>
</svg>
