<svg xmlns="http://www.w3.org/2000/svg" xmlns:xlink="http://www.w3.org/1999/xlink" width="112" height="112" viewBox="0 0 112 112">
  <defs>
    <clipPath id="clip-path">
      <rect id="Rectángulo_300831" data-name="Rectángulo 300831" width="74.852" height="74.821" fill="none"/>
    </clipPath>
  </defs>
  <g id="Grupo_886481" data-name="Grupo 886481" transform="translate(-393 -4377.825)">
    <circle id="Elipse_6634" data-name="Elipse 6634" cx="56" cy="56" r="56" transform="translate(393 4377.825)" fill="#e1fbff"/>
    <g id="Grupo_886169" data-name="Grupo 886169" transform="translate(412 4396.824)">
      <g id="Grupo_886156" data-name="Grupo 886156" clip-path="url(#clip-path)">
        <path id="Trazado_602145" data-name="Trazado 602145" d="M.253,58.069c1.656,2.264,3.863,4,5.752,6.045.25.271.6.482.653.888,1.412,1.394,2.854,2.76,4.222,4.2a2.888,2.888,0,0,0,2.9.869c1.4-.279,2.807-.505,4.212-.754h0l4.369-.827c-.019-.365-.33-.525-.545-.74Q14.857,60.779,7.893,53.82c-.2-.205-.391-.429-.586-.645q-2.99,1.1-5.98,2.194A2.7,2.7,0,0,0,0,56.819v1.169a.206.206,0,0,1,.253.081" transform="translate(0 -42.789)" fill="#29376d"/>
        <path id="Trazado_602146" data-name="Trazado 602146" d="M6.6,84.716h0l.056.055c-.054-.406-.4-.618-.653-.888C4.116,81.841,1.909,80.1.253,77.837A.206.206,0,0,0,0,77.757a7.038,7.038,0,0,0,1.415,1.717q2.6,2.615,5.187,5.242" transform="translate(0 -62.557)" fill="#29376d"/>
        <path id="Trazado_602147" data-name="Trazado 602147" d="M55.071,2.066c-.593,1.76-1.258,3.5-1.893,5.241.2.178.4.346.593.534Q60.76,14.825,67.75,21.81c.216.215.376.525.74.546l.823-4.368h0c.251-1.4.479-2.814.759-4.213a2.876,2.876,0,0,0-.863-2.9c-1.436-1.363-2.8-2.8-4.189-4.213-.336-.027-.537-.3-.758-.517Q62.125,4.026,60,1.892A8.535,8.535,0,0,0,58.245.383C58.108.305,57.93.223,57.991,0H56.822a3.116,3.116,0,0,0-1.751,2.066" transform="translate(-42.791)" fill="#29376d"/>
        <path id="Trazado_602148" data-name="Trazado 602148" d="M78.025.383a8.535,8.535,0,0,1,1.755,1.509q2.13,2.13,4.262,4.257c.221.22.422.491.758.517L84.735,6.6h0q-2.6-2.574-5.205-5.149A7.244,7.244,0,0,0,77.771,0c-.061.223.117.305.254.383" transform="translate(-62.571)" fill="#29376d"/>
        <path id="Trazado_602149" data-name="Trazado 602149" d="M203.172,26.674c9.732,2.394,16.084,8.392,18.422,18.11A23.872,23.872,0,0,1,203.251,73.7a17.554,17.554,0,0,1-4.989.475l.014.04q0,5.955,0,11.909a35.93,35.93,0,0,0,35.571-30.956,35.22,35.22,0,0,0-2.43-18.808,36.072,36.072,0,0,0-28.889-21.87c-1.418-.181-2.843-.161-4.266-.21q.006,5.92.011,11.841a46.355,46.355,0,0,1,4.9.557" transform="translate(-159.537 -11.488)" fill="#e53950"/>
        <path id="Trazado_602150" data-name="Trazado 602150" d="M198.26,13.466c1.423.049,2.847.029,4.266.21a36.072,36.072,0,0,1,28.888,21.87,35.913,35.913,0,0,1-7.537,39.027,35.95,35.95,0,0,1-25.6,10.736v.174a31,31,0,0,0,8.236-.916,36.185,36.185,0,0,0,27.592-30.8,33.68,33.68,0,0,0-.724-12.74c-3.831-14.259-12.96-23.229-27.249-26.91a26.8,26.8,0,0,0-7.868-.822c0,.057,0,.114,0,.171" transform="translate(-159.536 -10.678)" fill="#e53950"/>
        <path id="Trazado_602151" data-name="Trazado 602151" d="M50.051,155.374a1.527,1.527,0,0,1,.038-.288.751.751,0,0,1,.1-.235l0,0a24.053,24.053,0,0,1-20.769-36c-1.331.253-2.667.481-4,.736a3.31,3.31,0,0,1-3.3-1.01c-1.12-1.208-2.321-2.34-3.486-3.508a1.741,1.741,0,0,1-.45-.573A47.721,47.721,0,0,0,16,119.925a36.675,36.675,0,0,0,.075,22.054,35.245,35.245,0,0,0,6.765,12.094,35.714,35.714,0,0,0,10.828,8.65,36.7,36.7,0,0,0,16.48,4.035,1.219,1.219,0,0,1-.1-.572c-.008-3.6-.022-7.209.006-10.813" transform="translate(-11.539 -92.126)" fill="#fe6c6c"/>
        <path id="Trazado_602152" data-name="Trazado 602152" d="M43.617,165.472a34.894,34.894,0,0,1-10.99-3.584A35.718,35.718,0,0,1,21.8,153.238a35.247,35.247,0,0,1-6.765-12.094,36.674,36.674,0,0,1-.075-22.054,47.694,47.694,0,0,1,2.19-5.437.755.755,0,0,1-.048-.2c-.095.17-.2.335-.283.51a36.182,36.182,0,0,0,14.636,47.483A34.922,34.922,0,0,0,49.237,166.1a.675.675,0,0,1-.13-.173,34.912,34.912,0,0,1-5.49-.451" transform="translate(-10.5 -91.291)" fill="#fe6c6c"/>
        <path id="Trazado_602153" data-name="Trazado 602153" d="M34.048,113.879a1.741,1.741,0,0,0,.45.574c1.164,1.167,2.366,2.3,3.486,3.508a3.31,3.31,0,0,0,3.3,1.01c1.331-.255,2.667-.483,4-.736.036-.064.069-.128.1-.191h0c-1.4.249-2.813.476-4.212.754a2.887,2.887,0,0,1-2.9-.869c-1.368-1.436-2.81-2.8-4.222-4.2a.775.775,0,0,1,.011.107l-.018.041" transform="translate(-27.398 -91.517)" fill="#fe6c6c"/>
        <path id="Trazado_602154" data-name="Trazado 602154" d="M33.866,113.612a.775.775,0,0,0-.011-.107l-.056-.055a.755.755,0,0,0,.048.2l.018-.041" transform="translate(-27.197 -91.291)" fill="#fe6c6c"/>
        <path id="Trazado_602155" data-name="Trazado 602155" d="M197.24,321.117l0,0a.748.748,0,0,0-.1.235,1.519,1.519,0,0,0-.038.288c-.029,3.6-.015,7.208-.006,10.813a1.22,1.22,0,0,0,.1.572h.13q0-5.955,0-11.909l-.088,0" transform="translate(-158.589 -258.396)" fill="#fe6c6c"/>
        <path id="Trazado_602156" data-name="Trazado 602156" d="M197.793,382.1h-.13a.675.675,0,0,0,.13.174V382.1" transform="translate(-159.055 -307.47)" fill="#fe6c6c"/>
        <path id="Trazado_602157" data-name="Trazado 602157" d="M115.174,18.581c1.172,1.17,2.312,2.374,3.523,3.5a3.247,3.247,0,0,1,.989,3.25c-.27,1.337-.473,2.686-.738,4.024a23.608,23.608,0,0,1,12.008-3.14c0-.028.006-.056.008-.084a.766.766,0,0,1-.157-.231,2.653,2.653,0,0,1-.079-.795q-.006-4.987,0-9.973a1.9,1.9,0,0,1,.121-.875,39.766,39.766,0,0,0-6.232.57,34.858,34.858,0,0,0-9.338,3.029,3.039,3.039,0,0,1-.66.276,1.872,1.872,0,0,1,.555.447" transform="translate(-92.232 -11.475)" fill="#fe6c6c"/>
        <path id="Trazado_602158" data-name="Trazado 602158" d="M114.36,17.126A34.86,34.86,0,0,1,123.7,14.1a39.764,39.764,0,0,1,6.232-.57.892.892,0,0,1,.107-.168,30.818,30.818,0,0,0-5.955.46,34.9,34.9,0,0,0-10.6,3.523h0a.773.773,0,0,1,.223.058,3.039,3.039,0,0,0,.66-.276" transform="translate(-91.313 -10.743)" fill="#fe6c6c"/>
        <path id="Trazado_602159" data-name="Trazado 602159" d="M119.03,41.293a3.247,3.247,0,0,0-.989-3.25c-1.211-1.128-2.351-2.332-3.523-3.5a1.866,1.866,0,0,0-.555-.447l-.011,0a.725.725,0,0,1-.147,0c1.391,1.41,2.753,2.851,4.189,4.213a2.876,2.876,0,0,1,.863,2.9c-.28,1.4-.508,2.808-.759,4.213.065-.037.13-.07.195-.106.265-1.338.468-2.687.738-4.024" transform="translate(-91.577 -27.434)" fill="#fe6c6c"/>
        <path id="Trazado_602160" data-name="Trazado 602160" d="M113.689,33.856l.011,0a.773.773,0,0,0-.223-.058l.064.065a.725.725,0,0,0,.147,0" transform="translate(-91.313 -27.193)" fill="#fe6c6c"/>
        <path id="Trazado_602161" data-name="Trazado 602161" d="M197.084,15.134q-.006,4.986,0,9.973a2.654,2.654,0,0,0,.079.795.763.763,0,0,0,.157.231c0-.01,0-.02,0-.03q-.005-5.92-.011-11.841l-.1,0h0a1.9,1.9,0,0,0-.121.875" transform="translate(-158.587 -11.474)" fill="#fe6c6c"/>
        <path id="Trazado_602162" data-name="Trazado 602162" d="M197.715,13.569h0l.1,0q0-.086,0-.171a.879.879,0,0,0-.107.168" transform="translate(-159.097 -10.784)" fill="#fe6c6c"/>
        <path id="Trazado_602163" data-name="Trazado 602163" d="M79.028,133.219a23.6,23.6,0,0,0-2.762,8.949,23.266,23.266,0,0,0,1.807,11.774,23.52,23.52,0,0,0,15.866,13.68,21.424,21.424,0,0,0,5.263.775c.266.007.555-.045.77.173.009-.008.018-.017.028-.025,0-3.681-.014-7.361.023-11.042.006-.611-.157-.929-.749-1.018a11.929,11.929,0,0,1-9.14-18.586q-3.029-3.051-6.055-6.1a.68.68,0,0,0-.425-.2.823.823,0,0,1-.106.148,40.892,40.892,0,0,1-4.171.825l-.078.014c.017.245-.162.437-.27.638" transform="translate(-61.272 -105.891)" fill="#eff6fe"/>
        <path id="Trazado_602164" data-name="Trazado 602164" d="M92.208,132.551a40.952,40.952,0,0,0,4.17-.824.842.842,0,0,0,.106-.148l-.023,0-4.369.827h0a.5.5,0,0,1,.038.164l.078-.015" transform="translate(-74.105 -105.875)" fill="#eff6fe"/>
        <path id="Trazado_602165" data-name="Trazado 602165" d="M198.152,320.784c-.01.007-.019.017-.028.025a.579.579,0,0,1,.042.043l-.014-.04Z" transform="translate(-159.426 -258.128)" fill="#eff6fe"/>
        <path id="Trazado_602166" data-name="Trazado 602166" d="M75.378,151.7a24.058,24.058,0,0,0,23.751,20.979c.015-.015.03-.027.046-.04-.214-.218-.5-.165-.77-.173a21.417,21.417,0,0,1-5.263-.775,23.52,23.52,0,0,1-15.866-13.68,23.266,23.266,0,0,1-1.807-11.774,23.6,23.6,0,0,1,2.762-8.949c.108-.2.287-.393.27-.638l-.142.027A23.533,23.533,0,0,0,75.378,151.7" transform="translate(-60.478 -109.959)" fill="#eff6fe"/>
        <path id="Trazado_602167" data-name="Trazado 602167" d="M91.7,135.972a.5.5,0,0,0-.038-.164c-.036.063-.069.128-.1.191l.142-.027" transform="translate(-73.673 -109.282)" fill="#eff6fe"/>
        <path id="Trazado_602168" data-name="Trazado 602168" d="M197.888,320.95l.088,0a.557.557,0,0,0-.042-.043.577.577,0,0,0-.046.04" transform="translate(-159.236 -258.23)" fill="#eff6fe"/>
        <path id="Trazado_602169" data-name="Trazado 602169" d="M53.762,56.622q2.721,2.7,5.421,5.417a1.063,1.063,0,0,1,.386.638c2.643,2.63,5.293,5.253,7.921,7.9a3.092,3.092,0,0,0,1.9.977,2.271,2.271,0,0,0,2.08-1.667,2.317,2.317,0,0,0-.83-2.408c-.432-.426-.843-.874-1.263-1.312h0l-6.7-6.687q-3.051-3.028-6.1-6.054a.673.673,0,0,1-.2-.4c-.178.1-.356-.018-.529-.149a6.025,6.025,0,0,1-.581-.554Q48.444,45.507,41.632,38.69a3.507,3.507,0,0,1-.593-.637A2.967,2.967,0,0,1,38.1,41a2.272,2.272,0,0,1,.361.326q7.1,7.094,14.187,14.2c.213.214.589.426.4.79.335-.138.52.126.71.314" transform="translate(-30.662 -30.62)" fill="#47568b"/>
        <path id="Trazado_602170" data-name="Trazado 602170" d="M52.493,68.429c.19-.364-.186-.576-.4-.79q-7.083-7.109-14.187-14.2a2.283,2.283,0,0,0-.361-.326c-.045,0-.089.009-.135.012.195.215.381.44.586.645Q44.956,60.736,51.916,67.7c.215.216.526.375.545.74.012-.005.021-.007.033-.011" transform="translate(-30.104 -42.741)" fill="#47568b"/>
        <path id="Trazado_602171" data-name="Trazado 602171" d="M53.716,38.173q6.81,6.819,13.628,13.631a6.073,6.073,0,0,0,.581.554c.172.131.351.246.529.149,0-.016-.006-.031-.008-.047-.364-.021-.525-.331-.74-.546q-6.994-6.98-13.979-13.969c-.188-.188-.395-.357-.593-.534,0,.043-.007.084-.011.126a3.513,3.513,0,0,0,.593.637" transform="translate(-42.747 -30.103)" fill="#47568b"/>
        <path id="Trazado_602172" data-name="Trazado 602172" d="M40.943,37.956l-.014-.023a3.623,3.623,0,0,1-2.943,2.951l.023.014a2.967,2.967,0,0,0,2.933-2.942" transform="translate(-30.567 -30.524)" fill="#47568b"/>
        <path id="Trazado_602173" data-name="Trazado 602173" d="M37.524,53.043c-.038.008-.074.018-.112.026.046,0,.09-.008.135-.012l-.023-.014" transform="translate(-30.105 -42.683)" fill="#47568b"/>
        <path id="Trazado_602174" data-name="Trazado 602174" d="M53.077,37.41c-.007.035-.017.068-.024.1l.014.024c0-.042.009-.083.011-.126" transform="translate(-42.691 -30.103)" fill="#47568b"/>
        <path id="Trazado_602175" data-name="Trazado 602175" d="M121.061,137.681h0l.047.047a1.063,1.063,0,0,0-.386-.638q-2.7-2.716-5.421-5.417c-.19-.188-.375-.452-.71-.314l-.009.015a.68.68,0,0,1,.425.2q3.024,3.055,6.055,6.1" transform="translate(-92.201 -105.67)" fill="#47568b"/>
        <path id="Trazado_602176" data-name="Trazado 602176" d="M114.495,131.516c-.011,0-.021.006-.033.011l.023,0,.009-.015" transform="translate(-92.105 -105.828)" fill="#47568b"/>
        <path id="Trazado_602177" data-name="Trazado 602177" d="M136.3,87.856c.605.595,1.2,1.2,1.805,1.8l.061.062a14.29,14.29,0,0,1,5.943-2.01,3.11,3.11,0,0,1,.625.032l.017-.011-.014-.037q0-5.972,0-11.944a.212.212,0,0,1-.044.042,14.947,14.947,0,0,1-2.736.227,25.093,25.093,0,0,0-8.557,2.666c-.222.116-.429.314-.7.3,0,.024-.009.048-.014.071-.255,1.391-.42,2.8-.812,4.162a.5.5,0,0,1-.132.128c1.565,1.462,3.035,3.02,4.562,4.52" transform="translate(-106.004 -60.95)" fill="#eff6fe"/>
        <path id="Trazado_602178" data-name="Trazado 602178" d="M131.735,96.369c.392-1.363.557-2.771.812-4.162,0-.024.009-.048.014-.071a.544.544,0,0,1-.167-.036h0l-.823,4.368.032.031a.509.509,0,0,0,.132-.128" transform="translate(-105.872 -74.11)" fill="#eff6fe"/>
        <path id="Trazado_602179" data-name="Trazado 602179" d="M137.339,78.451a25.09,25.09,0,0,1,8.557-2.666,14.926,14.926,0,0,0,2.736-.228.207.207,0,0,0,.044-.042v-.052a23.608,23.608,0,0,0-12.008,3.14c-.009.047-.018.1-.027.143.269.018.475-.18.7-.3" transform="translate(-109.953 -60.721)" fill="#eff6fe"/>
        <path id="Trazado_602180" data-name="Trazado 602180" d="M135.979,91.555c-.065.036-.13.07-.195.106a.537.537,0,0,0,.167.037c.01-.047.018-.1.027-.143" transform="translate(-109.263 -73.672)" fill="#eff6fe"/>
        <path id="Trazado_602181" data-name="Trazado 602181" d="M137.918,121.087h0c.048-.032.1-.062.146-.093l-.062-.062c-.607-.594-1.2-1.2-1.805-1.8-1.527-1.5-3-3.058-4.562-4.52-.008.005-.016.012-.024.016a.674.674,0,0,0,.2.4q3.055,3.024,6.1,6.054" transform="translate(-105.905 -92.23)" fill="#eff6fe"/>
        <path id="Trazado_602182" data-name="Trazado 602182" d="M131.6,114.491l-.032-.031c0,.016.005.031.008.047.008,0,.016-.011.024-.016" transform="translate(-105.872 -92.104)" fill="#eff6fe"/>
        <path id="Trazado_602183" data-name="Trazado 602183" d="M197.713,86.678a1.442,1.442,0,0,1-.04.287.741.741,0,0,1-.1.237l-.016.011a12.038,12.038,0,0,1,8.367,3.593,11.914,11.914,0,0,1-6.466,20.1,8.006,8.006,0,0,1-1.956.123l-.2.01c.378.185.426.589.427,1.03.006,2.4,0,4.805,0,7.208,0,.971.006,1.942,0,2.912a1.381,1.381,0,0,1-.191.9,1.369,1.369,0,0,1,.694-.117A23.8,23.8,0,0,0,215.5,83.65,23.384,23.384,0,0,0,200,75.46c-.534-.065-1.072,0-1.6-.05a1.392,1.392,0,0,1-.877-.261.138.138,0,0,1-.008.083.935.935,0,0,1,.215.723c.009,3.574.024,7.149-.006,10.723" transform="translate(-158.762 -60.471)" fill="#dee6f3"/>
        <path id="Trazado_602184" data-name="Trazado 602184" d="M198.292,74.945a1.393,1.393,0,0,0,.878.261c.533.05,1.071-.015,1.6.05a23.385,23.385,0,0,1,15.5,8.19,23.834,23.834,0,0,1-17.27,39.33,1.37,1.37,0,0,0-.694.117.736.736,0,0,1-.046.058,17.556,17.556,0,0,0,4.989-.475A23.872,23.872,0,0,0,221.6,93.563c-2.338-9.718-8.69-15.716-18.422-18.11a46.353,46.353,0,0,0-4.9-.557.206.206,0,0,1,.015.049" transform="translate(-159.541 -60.267)" fill="#dee6f3"/>
        <path id="Trazado_602185" data-name="Trazado 602185" d="M198.287,75.068l-.018-.02c0,.028,0,.056-.008.084.007.006.011.013.018.019a.138.138,0,0,0,.008-.083" transform="translate(-159.537 -60.39)" fill="#dee6f3"/>
        <path id="Trazado_602186" data-name="Trazado 602186" d="M198.3,74.9h0c0,.01,0,.02,0,.03l.018.02a.206.206,0,0,0-.015-.049" transform="translate(-159.57 -60.268)" fill="#dee6f3"/>
        <path id="Trazado_602187" data-name="Trazado 602187" d="M195.517,270.06c.009-.971,0-1.941,0-2.912,0-2.4,0-4.806,0-7.208,0-.44-.05-.845-.427-1.03l-.536.025c.592.089.755.407.749,1.019-.038,3.68-.022,7.361-.023,11.041.015-.011.031-.021.046-.03a1.379,1.379,0,0,0,.191-.9" transform="translate(-156.554 -208.34)" fill="#dee6f3"/>
        <path id="Trazado_602188" data-name="Trazado 602188" d="M198.312,320.629c-.016.01-.031.019-.046.03v.027c.018-.019.031-.038.046-.057" transform="translate(-159.541 -258.004)" fill="#dee6f3"/>
        <path id="Trazado_602189" data-name="Trazado 602189" d="M198.344,87.544a.743.743,0,0,0,.1-.238,1.444,1.444,0,0,0,.04-.287c.031-3.574.016-7.149.006-10.723a.934.934,0,0,0-.215-.723.146.146,0,0,1-.018.033q0,5.972,0,11.944l.062,0,.016-.011" transform="translate(-159.537 -60.813)" fill="#dee6f3"/>
        <path id="Trazado_602190" data-name="Trazado 602190" d="M198.261,75.53a.146.146,0,0,0,.018-.033c-.006-.006-.011-.013-.018-.019v.052" transform="translate(-159.537 -60.736)" fill="#dee6f3"/>
        <path id="Trazado_602191" data-name="Trazado 602191" d="M150.011,182.836q0-4.644-.007-9.289a3.113,3.113,0,0,1-1.985-.95q-3.7-3.708-7.411-7.412a1.583,1.583,0,0,1-.438-.569,12.353,12.353,0,0,1-.758,1.583c-1.878,4.459-1.45,8.636,1.6,12.445a11.4,11.4,0,0,0,7.753,4.177,4.718,4.718,0,0,1,.66.1,1.123,1.123,0,0,1,.513-.09h.074" transform="translate(-111.275 -132.463)" fill="#fe6c6c"/>
        <path id="Trazado_602192" data-name="Trazado 602192" d="M148.583,182.337a4.709,4.709,0,0,0-.66-.1,11.4,11.4,0,0,1-7.753-4.177c-3.049-3.809-3.477-7.986-1.6-12.445a12.415,12.415,0,0,0,.759-1.583.715.715,0,0,1-.035-.143h0a11.929,11.929,0,0,0,9.14,18.586h0a.478.478,0,0,1,.148-.133" transform="translate(-110.434 -131.875)" fill="#fe6c6c"/>
        <path id="Trazado_602193" data-name="Trazado 602193" d="M147.937,164.22a1.58,1.58,0,0,0,.438.569q3.705,3.707,7.41,7.413a3.114,3.114,0,0,0,1.985.95V173h0a3.091,3.091,0,0,1-1.9-.977c-2.628-2.644-5.279-5.267-7.921-7.9,0,.013,0,.026,0,.04s-.011.037-.016.056" transform="translate(-119.042 -132.067)" fill="#fe6c6c"/>
        <path id="Trazado_602194" data-name="Trazado 602194" d="M147.809,163.973c0-.014,0-.027,0-.04l-.047-.046a.725.725,0,0,0,.035.143c.005-.019.012-.037.016-.056" transform="translate(-118.898 -131.876)" fill="#fe6c6c"/>
        <path id="Trazado_602195" data-name="Trazado 602195" d="M195.9,257.9h-.074a1.124,1.124,0,0,0-.513.09c.02.005.04.009.059.015a1.038,1.038,0,0,1,.328.092l.2-.009q0-.094,0-.188" transform="translate(-157.165 -207.523)" fill="#fe6c6c"/>
        <path id="Trazado_602196" data-name="Trazado 602196" d="M194.762,258.372c-.02-.006-.04-.01-.059-.015a.478.478,0,0,0-.148.133l.536-.026a1.036,1.036,0,0,0-.328-.092" transform="translate(-156.554 -207.895)" fill="#fe6c6c"/>
        <path id="Trazado_602197" data-name="Trazado 602197" d="M198.219,145.562l.162.161c.445.447.911.874,1.333,1.342a2.461,2.461,0,0,1,.749,2.579,2.434,2.434,0,0,1-2.121,1.694,1.616,1.616,0,0,1,.126.806q.009,3.852,0,7.7a1.736,1.736,0,0,1-.106.779,11.7,11.7,0,0,0,1.694-23.25,4.073,4.073,0,0,1-1.79-.364l-.02.014.005.013-.033,8.523" transform="translate(-159.503 -110.251)" fill="#e53950"/>
        <path id="Trazado_602198" data-name="Trazado 602198" d="M200.458,184.866a2.461,2.461,0,0,0-.749-2.579c-.422-.468-.888-.9-1.333-1.342l-.162-.161c0,.078,0,.155,0,.233h0c.42.438.831.885,1.263,1.312a2.317,2.317,0,0,1,.83,2.408,2.271,2.271,0,0,1-2.08,1.667h0a.8.8,0,0,1,.111.156,2.433,2.433,0,0,0,2.121-1.694" transform="translate(-159.498 -145.473)" fill="#e53950"/>
        <path id="Trazado_602199" data-name="Trazado 602199" d="M198.286,136.893h0l.014.037.02-.013-.034-.023" transform="translate(-159.557 -110.155)" fill="#e53950"/>
        <path id="Trazado_602200" data-name="Trazado 602200" d="M200.276,160.611a11.914,11.914,0,0,0,6.466-20.1,12.039,12.039,0,0,0-8.367-3.594l-.027.019a4.067,4.067,0,0,0,1.789.364,11.7,11.7,0,0,1-1.694,23.25.787.787,0,0,1-.123.185,8.015,8.015,0,0,0,1.956-.123" transform="translate(-159.584 -110.173)" fill="#e53950"/>
        <path id="Trazado_602201" data-name="Trazado 602201" d="M198.348,136.9l-.062,0,.034.023.028-.019" transform="translate(-159.557 -110.156)" fill="#e53950"/>
        <path id="Trazado_602202" data-name="Trazado 602202" d="M198.414,219.635a1.742,1.742,0,0,0,.106-.779q.009-3.852,0-7.7a1.618,1.618,0,0,0-.126-.806l-.035.006c-.026,0-.05-.006-.075-.008q0,4.644.007,9.289l.124,0" transform="translate(-159.554 -169.259)" fill="#e53950"/>
        <path id="Trazado_602203" data-name="Trazado 602203" d="M198.357,209.719l.035-.006a.79.79,0,0,0-.111-.156v.154c.025,0,.05.007.075.008" transform="translate(-159.553 -168.626)" fill="#e53950"/>
        <path id="Trazado_602204" data-name="Trazado 602204" d="M198.319,258.087a.782.782,0,0,0,.123-.185c-.041,0-.082,0-.124,0q0,.094,0,.187" transform="translate(-159.583 -207.527)" fill="#e53950"/>
        <path id="Trazado_602205" data-name="Trazado 602205" d="M165.731,138.959a1.793,1.793,0,0,1-.562.261q3.148,3.166,6.32,6.31a2.585,2.585,0,0,1-.088-.687c0-2.25,0-4.5.006-6.751a1.162,1.162,0,0,1,.25-.951l-.022,0a2.55,2.55,0,0,1-1.164.271,12.814,12.814,0,0,0-4.74,1.548" transform="translate(-132.908 -110.354)" fill="#fe6c6c"/>
        <path id="Trazado_602206" data-name="Trazado 602206" d="M164.149,147.751a.614.614,0,0,1-.247-.009l6.7,6.687a2.03,2.03,0,0,1-.134-.367q-3.178-3.138-6.32-6.31" transform="translate(-131.889 -118.885)" fill="#fe6c6c"/>
        <path id="Trazado_602207" data-name="Trazado 602207" d="M165.311,138.791a12.814,12.814,0,0,1,4.74-1.548,2.551,2.551,0,0,0,1.164-.271,3.1,3.1,0,0,0-.625-.032,14.29,14.29,0,0,0-5.943,2.01l.1.1a1.792,1.792,0,0,0,.562-.261" transform="translate(-132.488 -110.185)" fill="#fe6c6c"/>
        <path id="Trazado_602208" data-name="Trazado 602208" d="M164.149,147.367l-.1-.1c-.049.031-.1.061-.146.093a.613.613,0,0,0,.247.009" transform="translate(-131.889 -118.501)" fill="#fe6c6c"/>
        <path id="Trazado_602209" data-name="Trazado 602209" d="M197.08,138.1c-.009,2.25,0,4.5-.006,6.751a2.592,2.592,0,0,0,.088.687l.136.134q.016-4.261.033-8.523a1.163,1.163,0,0,0-.25.951" transform="translate(-158.581 -110.361)" fill="#fe6c6c"/>
        <path id="Trazado_602210" data-name="Trazado 602210" d="M197.661,180.23l-.136-.135a2,2,0,0,0,.135.367h0q0-.116,0-.233" transform="translate(-158.944 -144.919)" fill="#fe6c6c"/>
      </g>
    </g>
  </g>
</svg>
