<svg xmlns="http://www.w3.org/2000/svg" xmlns:xlink="http://www.w3.org/1999/xlink" width="112" height="112" viewBox="0 0 112 112">
  <defs>
    <clipPath id="clip-path">
      <rect id="Rectángulo_300784" data-name="Rectángulo 300784" width="71.299" height="71.459" fill="none"/>
    </clipPath>
  </defs>
  <g id="Grupo_886472" data-name="Grupo 886472" transform="translate(9673 8254.727)">
    <circle id="Elipse_6599" data-name="Elipse 6599" cx="56" cy="56" r="56" transform="translate(-9673 -8254.727)" fill="#e1fbff"/>
    <g id="Grupo_886049" data-name="Grupo 886049" transform="translate(-9653 -8233.727)">
      <g id="Grupo_886049-2" data-name="Grupo 886049" clip-path="url(#clip-path)">
        <path id="Trazado_600145" data-name="Trazado 600145" d="M231.018,314.868a35.741,35.741,0,0,1,.691-5.959h0c-.151-.529-.234-.032-.264.034a17.089,17.089,0,0,1-1.821,3.344c-.407.53-.81,1.068-1.262,1.558a3.208,3.208,0,0,1-3.751.747c-3.26-1.182-6.5-2.424-9.773-3.562-4.21-1.463-7.929-3.871-11.8-5.983-.268-.146-.261-.159-.285-1.084a29.724,29.724,0,0,0-1.661,6.995.9.9,0,0,1,.089.154,5.882,5.882,0,0,1-.127,1.785c-.226,2.018-.382,4.04-.5,6.067-.051.921-.167,1.838-.141,2.763a.885.885,0,0,1-.205.644h30.785c.01-2.5.035-5,.027-7.5" transform="translate(-165.265 -250.912)" fill="#344a5e"/>
        <path id="Trazado_600146" data-name="Trazado 600146" d="M200.508,352.047c.113-2.027.269-4.049.5-6.067a5.883,5.883,0,0,0,.127-1.785.9.9,0,0,0-.089-.154l-.018.127c-.178,1.565-.408,3.126-.519,4.7-.156,2.194-.4,4.385-.342,6.59a.885.885,0,0,0,.205-.644c-.026-.925.09-1.842.141-2.763" transform="translate(-165.219 -283.995)" fill="#344a5e"/>
        <path id="Trazado_600147" data-name="Trazado 600147" d="M266.3,154.73a15.343,15.343,0,0,0-2.826-6.419,23.114,23.114,0,0,0-3.679-3.557c-.922-.733-1.868-1.438-2.84-2.106a.98.98,0,0,1-.539.671,10.768,10.768,0,0,0-2.646,2.224c-.076.078-.191.248-.174.265.561.579-.136.69-.368.893-1.389,1.216-2.82,2.384-4.211,3.6-2.019,1.762-4.055,3.507-6.01,5.337a39.838,39.838,0,0,0-6.12,6.506c-.252.373-.164.561.2.76a51.56,51.56,0,0,0,8.821,4.2c1.529.5,2.976,1.265,4.553,1.666.225.057.477.205.661.051.245-.205-.046-.415-.115-.609a2.236,2.236,0,0,1,.032-1.488c.587-1.736.233-3.463.033-5.2a20.519,20.519,0,0,1-.011-4.086,13.706,13.706,0,0,1,.776-3.643c1-2.7,2.348-5.2,5.108-6.465,2.288-1.046,4.336-.76,5.96,1.389a18.7,18.7,0,0,1,3.189,6.735,10.243,10.243,0,0,1-.117,3.791c-.077.6-.4,1.185-.125,1.806l.01,0,.865-2.762v-2.647c-.478-.144-.35-.593-.422-.911" transform="translate(-195.423 -117.752)" fill="#344a5e"/>
        <path id="Trazado_600148" data-name="Trazado 600148" d="M362.18,154.62a15.5,15.5,0,0,0-2.688-6.706,26.53,26.53,0,0,0-6.911-6.077,1.386,1.386,0,0,1-.027.142c.972.668,1.918,1.373,2.84,2.106a23.111,23.111,0,0,1,3.679,3.557,15.343,15.343,0,0,1,2.826,6.419c.072.318-.056.767.422.911-.181-.063-.118-.225-.141-.351" transform="translate(-291.022 -117.082)" fill="#344a5e"/>
        <path id="Trazado_600149" data-name="Trazado 600149" d="M247.663.377a11.642,11.642,0,0,0-2.515.758,3.979,3.979,0,0,0-2.307,4.375c.034.2.06.4.107.6.143-.32.282-.642.447-.949a.787.787,0,0,1,1.033-.447,4.448,4.448,0,0,0,2.594-.135,8.584,8.584,0,0,1,5.455.216,1.512,1.512,0,0,1,1.086,1.4,32.657,32.657,0,0,0,1.051,5.376A7.194,7.194,0,0,1,254.867,13c0,.239.052.406.344.4s.318-.213.318-.431a5.956,5.956,0,0,1,.291-2.465,2.09,2.09,0,0,1,.577-.853.947.947,0,0,1,1.47.364,4.029,4.029,0,0,1,.532,2.739A3.735,3.735,0,0,0,258.5,14.5a31.8,31.8,0,0,0,1.02-7.253,6.5,6.5,0,0,0-2.379-5.136A10.165,10.165,0,0,0,252.964.485,6.159,6.159,0,0,1,251.679.2a.162.162,0,0,1-.055-.083A3.008,3.008,0,0,1,250.113,0H248.3c-.057.386-.4.326-.639.377" transform="translate(-200.405)" fill="#415a6b"/>
        <path id="Trazado_600150" data-name="Trazado 600150" d="M242.005,6.348c.036-.078.071-.157.106-.235-.048-.2-.073-.4-.107-.6a3.979,3.979,0,0,1,2.307-4.375,11.645,11.645,0,0,1,2.515-.758c.238-.051.582.009.639-.377a6.746,6.746,0,0,1-1.71.416c-3.111.7-4.614,3.07-3.751,5.932" transform="translate(-199.569)" fill="#415a6b"/>
        <path id="Trazado_600151" data-name="Trazado 600151" d="M300.923,13.057a20.073,20.073,0,0,0,.631-5.5c-.257-2.9-1.514-5.069-4.392-6.07a13.95,13.95,0,0,0-3.648-.814l-.05,0a.161.161,0,0,0,.055.083,6.17,6.17,0,0,0,1.285.284,10.165,10.165,0,0,1,4.181,1.629A6.5,6.5,0,0,1,301.363,7.8a31.789,31.789,0,0,1-1.02,7.253c.03.092.063.184.1.276a8.921,8.921,0,0,0,.477-2.273" transform="translate(-242.244 -0.551)" fill="#415a6b"/>
        <path id="Trazado_600152" data-name="Trazado 600152" d="M286.314.107A.159.159,0,0,1,286.339,0h-1.532c.492.177,1.01-.006,1.507.106" transform="translate(-235.099 -0.001)" fill="#7a8b97"/>
        <path id="Trazado_600153" data-name="Trazado 600153" d="M293.487.117,293.458,0a.159.159,0,0,0-.026.106c.018,0,.036.006.055.011" transform="translate(-242.218)" fill="#7a8b97"/>
        <path id="Trazado_600154" data-name="Trazado 600154" d="M286.318.119s0-.008,0-.012C285.817,0,285.3.178,284.807,0a3.008,3.008,0,0,0,1.511.118" transform="translate(-235.099 -0.001)" fill="#7a8b97"/>
        <path id="Trazado_600155" data-name="Trazado 600155" d="M293.439.608s0,.008,0,.012l.05,0c-.018-.005-.036-.007-.055-.011" transform="translate(-242.225 -0.502)" fill="#7a8b97"/>
        <path id="Trazado_600156" data-name="Trazado 600156" d="M180.628,150.327a15.134,15.134,0,0,1,.255-1.719,9.462,9.462,0,0,0-.889-5.881,15.036,15.036,0,0,0-2.66-4.38,4.508,4.508,0,0,0-5.279-.905,9.333,9.333,0,0,0-4.046,4.179,15.558,15.558,0,0,0-1.836,7.276,33.86,33.86,0,0,0,.382,4.986,7.1,7.1,0,0,1-.232,2.478,3.444,3.444,0,0,0-.025,2.048c.176.483-.086.7-.668.566a12.914,12.914,0,0,1-2.587-.811c-1.914-.9-3.971-1.435-5.873-2.358-1.754-.85-3.462-1.787-5.139-2.779-.509-.3-.532-.554-.168-1.091a25.189,25.189,0,0,1,3.9-4.428c1.4-1.283,2.794-2.576,4.206-3.848,2.671-2.405,5.393-4.75,8.137-7.071.247-.209.621-.337.4-.811-.072-.155.129-.332.257-.466a11.1,11.1,0,0,1,2.021-1.8,5.3,5.3,0,0,0,1.141-.927c-.58-.651-1.038-1.4-1.61-2.056v0c-1.395.972-2.664,2.1-4,3.154s-2.631,2.115-3.945,3.175a36.255,36.255,0,0,0-4.6,4.451c-1.842,2.195-3.691,4.384-5.376,6.715a47.52,47.52,0,0,1,4.724-11.71c.211-.617.665-1.12.877-1.737a20.554,20.554,0,0,0-4.935,6.553,53.943,53.943,0,0,0-3.606,9.7,1.14,1.14,0,0,1-.308.683,3.339,3.339,0,0,0,1.1,1.252c.254.168.276.3.146.547a23.378,23.378,0,0,0-1.654,4.76c-.078.291-.1.617-.538.56-.035.308-.276.324-.507.369a12.911,12.911,0,0,1-3.589.264c-1.614-.135-3.237-.167-4.84-.427a23.768,23.768,0,0,0-4.689.141c-.135.007-.284,0-.344.165a7.587,7.587,0,0,1,.154,4.733,2.758,2.758,0,0,1-.586,1.985l.036.067a.983.983,0,0,0,.64.236c1.937.205,3.844.606,5.773.857,1.652.214,3.316.33,4.98.421a1.33,1.33,0,0,1,.986.281,8.664,8.664,0,0,1,.331-2.746,26.031,26.031,0,0,1,.929-3.637,1.962,1.962,0,0,1,.087-.264c.088-.185.16-.437.417-.383.226.047.2.291.177.469a.611.611,0,0,0,.365.676c3.387,1.82,6.605,3.957,10.229,5.335,3.577,1.36,7.179,2.651,10.768,3.976a6.882,6.882,0,0,0,.936.269,2.848,2.848,0,0,0,2.819-.748,13.444,13.444,0,0,0,2.7-3.934,10,10,0,0,1,.48-1c.083-.14.184-.331.348-.3a.251.251,0,0,1,.079.028,10.168,10.168,0,0,1,.8-3.131c.852-2.607,1.47-5.272,2.1-7.937.218-.927.481-1.84.751-2.752a.844.844,0,0,1,.345-.58l-.006-.015c-.412-.09-.261-.461-.242-.713" transform="translate(-110.446 -107.744)" fill="#415a6b"/>
        <path id="Trazado_600157" data-name="Trazado 600157" d="M144.669,334.568c-1.664-.091-3.328-.206-4.98-.421-1.929-.25-3.837-.651-5.773-.856a.987.987,0,0,1-.64-.236l-.036-.068c-.037.038-.076.076-.117.113-.025.567.467.34.681.369a101.886,101.886,0,0,0,11.22,1.334c.233.006.528-.066.668.241-.015-.065-.027-.13-.037-.195a1.329,1.329,0,0,0-.986-.281" transform="translate(-109.887 -274.87)" fill="#415a6b"/>
        <path id="Trazado_600158" data-name="Trazado 600158" d="M221.954,168.576a53.936,53.936,0,0,1,3.605-9.7,20.555,20.555,0,0,1,4.935-6.553,2.106,2.106,0,0,0,.079-.3h0a19.007,19.007,0,0,0-4.409,5.315,48.788,48.788,0,0,0-4.544,11.876l.024.044a1.14,1.14,0,0,0,.308-.682" transform="translate(-182.942 -125.491)" fill="#415a6b"/>
        <path id="Trazado_600159" data-name="Trazado 600159" d="M343.027,130.049c.572.658,1.031,1.4,1.61,2.056.026-.029.054-.054.079-.084l-1.548-2.075c-.048.033-.095.068-.143.1v0" transform="translate(-283.157 -107.267)" fill="#415a6b"/>
        <path id="Trazado_600160" data-name="Trazado 600160" d="M343.842,129.947" transform="translate(-283.831 -107.267)" fill="#415a6b"/>
        <path id="Trazado_600161" data-name="Trazado 600161" d="M235.43,308.1a.247.247,0,0,0-.079-.028c-.163-.029-.264.163-.348.3a9.993,9.993,0,0,0-.48,1,13.438,13.438,0,0,1-2.7,3.934,2.847,2.847,0,0,1-2.819.748,6.826,6.826,0,0,1-.936-.269c-3.59-1.325-7.192-2.615-10.768-3.976-3.624-1.378-6.841-3.515-10.229-5.335a.61.61,0,0,1-.365-.676c.022-.177.049-.421-.177-.469-.256-.054-.329.2-.417.383a2.032,2.032,0,0,0-.087.264,26.006,26.006,0,0,0-.929,3.637,8.657,8.657,0,0,0-.331,2.746.766.766,0,0,1,.055.068,29.729,29.729,0,0,1,1.661-6.995c.024.925.017.938.285,1.084,3.874,2.112,7.594,4.521,11.8,5.983,3.275,1.138,6.513,2.38,9.773,3.562a3.209,3.209,0,0,0,3.751-.747c.452-.49.855-1.028,1.262-1.558a17.08,17.08,0,0,0,1.821-3.344c.031-.066.113-.563.264-.034h0c-.007-.1-.009-.19-.009-.284" transform="translate(-168.995 -250.389)" fill="#415a6b"/>
        <path id="Trazado_600162" data-name="Trazado 600162" d="M204.971,343.849l.018-.127a.734.734,0,0,0-.055-.068c.01.065.022.13.037.195" transform="translate(-169.167 -283.675)" fill="#415a6b"/>
        <path id="Trazado_600163" data-name="Trazado 600163" d="M256.2,142.316a5.308,5.308,0,0,1-1.141.927,11.1,11.1,0,0,0-2.021,1.8c-.128.134-.33.311-.258.466.219.474-.155.6-.4.811-2.744,2.321-5.466,4.665-8.137,7.071-1.412,1.272-2.8,2.565-4.207,3.848a25.189,25.189,0,0,0-3.9,4.428c-.364.538-.342.79.168,1.091,1.677.992,3.385,1.928,5.139,2.779,1.9.922,3.959,1.457,5.873,2.358a12.913,12.913,0,0,0,2.587.811c.581.135.843-.083.668-.566a3.444,3.444,0,0,1,.025-2.048,7.1,7.1,0,0,0,.232-2.478,33.864,33.864,0,0,1-.382-4.986,15.558,15.558,0,0,1,1.836-7.276,9.333,9.333,0,0,1,4.046-4.179,4.508,4.508,0,0,1,5.279.905,15.036,15.036,0,0,1,2.66,4.38,9.464,9.464,0,0,1,.889,5.881,15.173,15.173,0,0,0-.255,1.719c-.019.252-.17.623.242.713-.272-.621.048-1.209.125-1.806a10.247,10.247,0,0,0,.117-3.791,18.706,18.706,0,0,0-3.189-6.735c-1.624-2.149-3.672-2.435-5.96-1.389-2.76,1.262-4.1,3.766-5.108,6.465a13.707,13.707,0,0,0-.776,3.643,20.545,20.545,0,0,0,.011,4.086c.2,1.736.554,3.464-.033,5.2a2.235,2.235,0,0,0-.032,1.488c.069.195.361.4.115.609-.184.154-.436.006-.661-.051-1.577-.4-3.024-1.165-4.553-1.666a51.572,51.572,0,0,1-8.821-4.2c-.359-.2-.448-.387-.2-.76a39.846,39.846,0,0,1,6.12-6.506c1.955-1.83,3.992-3.575,6.01-5.337,1.391-1.214,2.822-2.382,4.211-3.6.232-.2.929-.314.368-.893-.017-.017.1-.188.174-.265a10.762,10.762,0,0,1,2.646-2.224.98.98,0,0,0,.539-.671h0l-.049-.057" transform="translate(-194.717 -117.477)" fill="#415a6b"/>
        <path id="Trazado_600164" data-name="Trazado 600164" d="M352.309,141.977h0a1.338,1.338,0,0,0,.027-.142c-.025.029-.053.055-.078.084l.049.057" transform="translate(-290.779 -117.082)" fill="#415a6b"/>
        <path id="Trazado_600165" data-name="Trazado 600165" d="M384.3,248.738c-.27.912-.533,1.825-.751,2.752-.626,2.665-1.244,5.33-2.1,7.937a10.17,10.17,0,0,0-.8,3.132.212.212,0,0,1,.075.07c1.482-4.776,2.668-9.633,3.92-14.471a.844.844,0,0,0-.345.58" transform="translate(-314.212 -204.847)" fill="#415a6b"/>
        <path id="Trazado_600166" data-name="Trazado 600166" d="M380.647,330.672c0,.094,0,.189.009.284.022-.071.043-.143.065-.214a.213.213,0,0,0-.075-.07" transform="translate(-314.212 -272.959)" fill="#415a6b"/>
        <path id="Trazado_600167" data-name="Trazado 600167" d="M248.038,44.212a9.586,9.586,0,0,0,5.487-3.956c.5-.653.953-1.34,1.486-2a6.865,6.865,0,0,1-.5,2.121,18.112,18.112,0,0,1-2.054,4.136,1.927,1.927,0,0,0-.163.45C254.08,43.892,256.1,43.235,257.8,42c.161-.117.375-.181.468-.365-.047-.091-.1-.181-.148-.269a27.566,27.566,0,0,1-.588-4.324,2.312,2.312,0,0,1,.163-.952c.009-.048.018-.1.027-.145-.489-.483-.341-1.128-.277-1.712a5.712,5.712,0,0,0-.077-1.725,2.948,2.948,0,0,0-.4-1.031.807.807,0,0,0-1.464-.046,3.1,3.1,0,0,0-.512,1.779,7.6,7.6,0,0,1-.037,1.111.481.481,0,0,1-.509.465.474.474,0,0,1-.508-.464c-.3-2.253-1.175-4.393-1.313-6.68a1.533,1.533,0,0,0-.994-1.39,4.4,4.4,0,0,0-1.676-.427,10.393,10.393,0,0,0-3.925.3,3.7,3.7,0,0,1-2.126.131c-.713-.162-.946-.02-1.269.627-.114.228-.144.523-.371.673a1.123,1.123,0,0,1,.032.854,12.01,12.01,0,0,0-.194,5.512,2.171,2.171,0,0,1,.061.483c-.084,2.723,1.092,5.1,2.126,7.5a3.715,3.715,0,0,0,2.343,2.062,1.209,1.209,0,0,1,.819.634.737.737,0,0,1,.587-.386" transform="translate(-199.657 -21.285)" fill="#fed05c"/>
        <path id="Trazado_600168" data-name="Trazado 600168" d="M245.594,52.344a3.715,3.715,0,0,1-2.343-2.061c-1.033-2.4-2.209-4.774-2.126-7.5a2.172,2.172,0,0,0-.061-.483,12.01,12.01,0,0,1,.194-5.512,1.122,1.122,0,0,0-.032-.854.525.525,0,0,1-.172.076c.178.132.17.289.1.486-.96,2.7-.42,5.45-.079,8.149a19.478,19.478,0,0,0,1.962,5.675,4.011,4.011,0,0,0,2.531,2.224c.488.144.735.351.787.828a.884.884,0,0,1,.056-.4,1.21,1.21,0,0,0-.819-.634" transform="translate(-198.62 -29.665)" fill="#fed05c"/>
        <path id="Trazado_600169" data-name="Trazado 600169" d="M331.784,84.014c-.009.048-.019.1-.027.145a2.313,2.313,0,0,0-.163.952,27.557,27.557,0,0,0,.588,4.324c.052.088.1.178.148.269a.424.424,0,0,0,.045-.146h0a18.387,18.387,0,0,1-.458-5.428,1.325,1.325,0,0,1-.132-.116" transform="translate(-273.715 -69.351)" fill="#fed05c"/>
        <path id="Trazado_600170" data-name="Trazado 600170" d="M243.818,26.324c.227-.15.257-.445.371-.673.323-.646.556-.788,1.269-.626a3.7,3.7,0,0,0,2.126-.131,10.4,10.4,0,0,1,3.925-.3,4.39,4.39,0,0,1,1.676.427,1.533,1.533,0,0,1,.994,1.39c.138,2.286,1.009,4.427,1.313,6.68a.475.475,0,0,0,.509.464.481.481,0,0,0,.509-.465,7.6,7.6,0,0,0,.037-1.111,3.1,3.1,0,0,1,.512-1.779.807.807,0,0,1,1.463.046,2.948,2.948,0,0,1,.4,1.031A5.713,5.713,0,0,1,259,33c-.064.584-.212,1.229.277,1.712l.03-.16a3.735,3.735,0,0,1-.105-1.747,4.03,4.03,0,0,0-.532-2.739.947.947,0,0,0-1.47-.364,2.087,2.087,0,0,0-.577.853,5.954,5.954,0,0,0-.291,2.465c0,.217-.015.422-.318.43s-.343-.159-.344-.4a7.215,7.215,0,0,0-.252-1.433,32.663,32.663,0,0,1-1.051-5.376,1.513,1.513,0,0,0-1.086-1.4,8.584,8.584,0,0,0-5.456-.216,4.449,4.449,0,0,1-2.594.135.787.787,0,0,0-1.033.446c-.165.308-.3.629-.447.949.006.026.012.052.019.078a.9.9,0,0,1,.047.082" transform="translate(-201.21 -20.051)" fill="#fed05c"/>
        <path id="Trazado_600171" data-name="Trazado 600171" d="M243.27,35.1c-.007-.026-.012-.052-.019-.078-.035.079-.07.157-.106.235a.523.523,0,0,0,.171-.076.855.855,0,0,0-.047-.082" transform="translate(-200.708 -28.911)" fill="#fed05c"/>
        <path id="Trazado_600172" data-name="Trazado 600172" d="M332.845,83.372h0c-.039-.092-.073-.184-.1-.276l-.03.16a1.348,1.348,0,0,0,.132.116" transform="translate(-274.644 -68.593)" fill="#fed05c"/>
        <path id="Trazado_600173" data-name="Trazado 600173" d="M15.787,183.753c2.419-.175,4.838-.355,7.258-.526.945-.067,1.891-.124,2.837-.163.218-.009.407-.018.485-.167a1.18,1.18,0,0,1-.135-.341c-.41-2.306-.587-4.641-.877-6.962-.353-2.827-.657-5.66-1.018-8.487-.136-1.067-.7-1.46-1.782-1.353-2.188.216-4.388.287-6.576.5a1.139,1.139,0,0,1-.7-.113l.1.2,1.386.823a2.417,2.417,0,0,1,.5-.818,3.346,3.346,0,0,1,.81.854h0c1.435,0,2.858-.174,4.283-.306.478-.044.685.067.744.6.279,2.5.6,4.991.912,7.486.045.365.079.732.118,1.1.414,1.083.158,2.25.416,3.356.12.515.079,1.069.208,1.58s-.1.595-.513.624q-2.979.213-5.957.446-4.847.384-9.692.782c-1.316.106-2.631.214-3.947.311-.213.016-.506.1-.526-.264-.086-1.594-.369-3.164-.553-4.747a.626.626,0,0,1,.014-.138h0q-.5-4.486-.994-8.972c-.034-.305-.1-.595.39-.621,1.434-.078,2.866-.193,4.3-.294.01-.02.021-.041.03-.061.565-1.239.568-1.24,1.377-.171l1.255-1.158a.283.283,0,0,0-.055-.249.586.586,0,0,1-.06.052,25.413,25.413,0,0,1-4,.408c-1.128.118-2.267.109-3.391.28-.916.14-1.25.58-1.142,1.48.629,5.245,1.242,10.492,1.883,15.736,0,.043,0,.086,0,.128,1.9,0,3.791-.238,5.688-.343,2.308-.127,4.613-.324,6.919-.491" transform="translate(-1.052 -136.81)" fill="#415a6b"/>
        <path id="Trazado_600174" data-name="Trazado 600174" d="M2.125,187.864c-.64-5.243-1.253-10.49-1.883-15.736-.108-.9.226-1.341,1.142-1.48,1.123-.171,2.263-.163,3.391-.28a25.413,25.413,0,0,0,4-.408.585.585,0,0,0,.06-.052.219.219,0,0,0-.076-.045c-2.449.183-4.9.357-7.348.552-1.087.087-1.513.643-1.384,1.713q.956,7.933,1.908,15.866c.066,0,.132,0,.2,0,0-.043,0-.086,0-.128" transform="translate(0 -140.216)" fill="#415a6b"/>
        <path id="Trazado_600175" data-name="Trazado 600175" d="M82.1,165.242c2.189-.215,4.388-.286,6.577-.5,1.082-.107,1.645.286,1.782,1.353.361,2.826.665,5.66,1.018,8.487.29,2.321.467,4.656.877,6.962a1.182,1.182,0,0,0,.135.341.448.448,0,0,0,.035-.26q-.362-3.071-.724-6.142c-.375-3.175-.744-6.35-1.129-9.523a1.439,1.439,0,0,0-1.736-1.441c-2.52.181-5.038.38-7.557.571l.021.041a1.14,1.14,0,0,0,.7.113" transform="translate(-67.178 -135.796)" fill="#415a6b"/>
        <path id="Trazado_600176" data-name="Trazado 600176" d="M169.913,217.771a1.333,1.333,0,0,0,.465,1.234c.124.1.033.2-.063.279a1.245,1.245,0,0,0,.034,1.236h0a1.252,1.252,0,0,0,1.065.12,3.93,3.93,0,0,1,1.436-.084,16.39,16.39,0,0,0,3.708-.016,4.045,4.045,0,0,1,.836.027l.012,0a1.5,1.5,0,0,0,.674-1,20.3,20.3,0,0,1,1.4-4.07.65.65,0,0,0-.177-.853c-.33-.341-.834-.589-.793-1.178-.354-.011-.47-.316-.629-.55a30.762,30.762,0,0,1-3.263-5.733,1.358,1.358,0,0,1,.031-1.138c.056-.123.146-.268.034-.388-.137-.146-.308-.059-.449.014a1.188,1.188,0,0,0-.639,1.017,5,5,0,0,0,.436,2.847,3.359,3.359,0,0,1,.287.709c.293,1.061,0,1.566-1.067,1.848-.785.208-1.578.382-2.356.621a2.3,2.3,0,0,0-1.359,1.22.669.669,0,0,0-.075.667,1.784,1.784,0,0,1,.087,1.537c-.091.348.133.714-.046,1.058.205.145.428.282.41.58" transform="translate(-139.834 -169.693)" fill="#fed05c"/>
        <path id="Trazado_600177" data-name="Trazado 600177" d="M168.45,215.088a1.783,1.783,0,0,0-.087-1.537.669.669,0,0,1,.075-.667,2.3,2.3,0,0,1,1.359-1.22c.778-.238,1.571-.413,2.356-.621,1.066-.282,1.359-.787,1.067-1.848a3.369,3.369,0,0,0-.287-.709,5,5,0,0,1-.436-2.847,1.188,1.188,0,0,1,.639-1.017c.141-.073.312-.161.449-.014.112.119.022.265-.034.388a1.358,1.358,0,0,0-.031,1.138,30.771,30.771,0,0,0,3.263,5.733c.158.234.274.538.629.55,0-.014,0-.028,0-.043a26.319,26.319,0,0,1-3.385-5.631c-.263-.674-.721-1.287-.167-2.043.206-.281-.047-.387-.329-.392a1.353,1.353,0,0,0-1.249,1.409,6.355,6.355,0,0,0,.688,3.346c.493,1.013.175,1.541-.893,1.811-.851.215-1.707.42-2.543.687-.8.257-1.73,1.432-1.4,1.91.472.686.122,1.248.091,1.863a2.2,2.2,0,0,0,.172.807l.007,0c.179-.344-.045-.711.046-1.058" transform="translate(-138.734 -168.65)" fill="#fed05c"/>
        <path id="Trazado_600178" data-name="Trazado 600178" d="M216.328,250.767c-.041.588.463.837.793,1.178a.65.65,0,0,1,.177.853,20.292,20.292,0,0,0-1.4,4.07,1.5,1.5,0,0,1-.675,1l-.012,0c.064.005.129.01.193.014h0c.434.057.46-.269.539-.56a23.359,23.359,0,0,1,1.654-4.76c.13-.25.107-.379-.147-.547a3.337,3.337,0,0,1-1.1-1.252h0c-.009,0-.016,0-.025,0" transform="translate(-177.65 -207)" fill="#fed05c"/>
        <path id="Trazado_600179" data-name="Trazado 600179" d="M221.633,250.567h0l-.024-.044c0,.015,0,.028,0,.043l.025,0" transform="translate(-182.93 -206.798)" fill="#fed05c"/>
        <path id="Trazado_600180" data-name="Trazado 600180" d="M20.738,268.816a13.255,13.255,0,0,0,4.389.072c.936-.057,1.888-.1,2.823-.159,1.6-.095,3.215-.165,4.819-.238,1.485-.067,2.982-.169,4.469-.333,1.023-.113,2.057-.12,3.088-.163-.13-.717-.431-1.387-.588-2.1,0,.008-.008.017-.013.025a1.183,1.183,0,0,1-.744-.061c-.951-.276-1.9-.563-2.847-.848a1.285,1.285,0,0,1-.689-.444c-.068.212-.332.247-.588.269-1.29.111-2.582.2-3.874.292-2.4.172-4.8.358-7.194.512-2.307.148-4.611.336-6.919.474-1.015.061-2.03.128-3.044.22a3.354,3.354,0,0,1-1.626-.067v0c0,.039.011.075.017.112.8.247,1.588.5,2.389.729,2.041.576,4.086,1.136,6.13,1.7" transform="translate(-10.072 -218.395)" fill="#cdd5df"/>
        <path id="Trazado_600181" data-name="Trazado 600181" d="M11.225,273.852v0a1.574,1.574,0,0,1-.2-.1l-.007.147.224.069c-.006-.037-.014-.073-.017-.112" transform="translate(-9.096 -225.97)" fill="#cdd5df"/>
        <path id="Trazado_600182" data-name="Trazado 600182" d="M145.269,262.918a1.285,1.285,0,0,0,.689.444c.948.285,1.9.571,2.847.848a1.183,1.183,0,0,0,.744.061c0-.008.008-.017.013-.025l0-.012c-1.186-.354-2.368-.724-3.562-1.053a1.024,1.024,0,0,1-.752-.613.573.573,0,0,1,.025.35" transform="translate(-119.894 -216.742)" fill="#cdd5df"/>
        <path id="Trazado_600183" data-name="Trazado 600183" d="M13.818,265.911c1.014-.092,2.029-.159,3.044-.22,2.308-.138,4.612-.326,6.919-.474,2.4-.154,4.8-.34,7.195-.512,1.292-.092,2.583-.182,3.874-.293.256-.022.52-.058.588-.269a1,1,0,0,1-.06-.09c-.078.149-.268.158-.485.167-.946.039-1.892.1-2.837.163-2.42.171-4.838.351-7.258.526-2.306.167-4.611.364-6.919.491-1.9.1-3.785.343-5.688.343,0,.034,0,.067,0,.1a3.356,3.356,0,0,0,1.626.066" transform="translate(-10.062 -217.968)" fill="#cdd5df"/>
        <path id="Trazado_600184" data-name="Trazado 600184" d="M11.255,273.74h-.2a1.575,1.575,0,0,0,.2.1c0-.033,0-.067,0-.1" transform="translate(-9.128 -225.964)" fill="#cdd5df"/>
        <path id="Trazado_600185" data-name="Trazado 600185" d="M145.041,262.827a1.016,1.016,0,0,0,.06.09.573.573,0,0,0-.025-.35.449.449,0,0,1-.035.26" transform="translate(-119.727 -216.741)" fill="#cdd5df"/>
        <path id="Trazado_600186" data-name="Trazado 600186" d="M170.793,274.231h0c.1-.077.187-.181.063-.279a1.334,1.334,0,0,1-.465-1.235c.018-.3-.2-.436-.41-.581l0,.007c.156.71.458,1.38.588,2.1l.228-.01" transform="translate(-140.311 -224.64)" fill="#cdd5df"/>
        <path id="Trazado_600187" data-name="Trazado 600187" d="M169.967,272.115l-.007,0s0,.008,0,.012l0-.007" transform="translate(-140.297 -224.618)" fill="#cdd5df"/>
        <path id="Trazado_600188" data-name="Trazado 600188" d="M49.516,144.3l-.07.1q.2,1.642.4,3.285h0l.078.431,5.227-.432c.11-1.233-.314-2.427-.274-3.655l-.008-.005a.347.347,0,0,1-.117-.327l-.01-.006a3.2,3.2,0,0,1-.338-1.451c-.165-1.2-.23-2.417-.476-3.607-.01-.023-.02-.046-.03-.068a4.764,4.764,0,0,1-1.7.218,30,30,0,0,1-3.074.244c0,.026.006.052.012.078.092,1.471.27,2.933.4,4.4a.675.675,0,0,1-.132.536c.1.037.11.143.106.26m2.378-4.319a1.852,1.852,0,0,1,1.73,1.9,1.538,1.538,0,0,1-1.53,1.628,2.034,2.034,0,0,1-1.911-1.866,1.736,1.736,0,0,1,1.711-1.662" transform="translate(-40.551 -114.383)" fill="#e7e9e8"/>
        <path id="Trazado_600189" data-name="Trazado 600189" d="M48.445,145.688c-.135-1.466-.313-2.928-.405-4.4-.006-.026-.009-.052-.012-.078-.077,0-.155,0-.232,0A25.685,25.685,0,0,1,48.046,144a5.514,5.514,0,0,1,.161,2.213.264.264,0,0,1,.1.014.676.676,0,0,0,.132-.536" transform="translate(-39.453 -116.564)" fill="#e7e9e8"/>
        <path id="Trazado_600190" data-name="Trazado 600190" d="M76.483,138.222c.246,1.19.311,2.405.476,3.607a3.192,3.192,0,0,0,.338,1.451l.01.006c0-.009,0-.017.007-.025-.1-1.021-.15-2.053-.332-3.06a6.585,6.585,0,0,0-.37-2.134,1.486,1.486,0,0,1-.158.088c.01.023.019.046.03.068" transform="translate(-63.11 -113.969)" fill="#e7e9e8"/>
        <path id="Trazado_600191" data-name="Trazado 600191" d="M50.651,170.224h0l.01.081.07-.1c0-.117-.006-.223-.106-.26l-.028.031a.283.283,0,0,1,.055.249" transform="translate(-41.765 -140.284)" fill="#e7e9e8"/>
        <path id="Trazado_600192" data-name="Trazado 600192" d="M81.416,168.3l.008.005c0-.039,0-.079,0-.118l-.1-.2-.028-.016a.347.347,0,0,0,.117.327" transform="translate(-67.102 -138.657)" fill="#e7e9e8"/>
        <path id="Trazado_600193" data-name="Trazado 600193" d="M50.264,169.875a.264.264,0,0,0-.1-.014.219.219,0,0,1,.076.045c.01-.01.019-.02.028-.031" transform="translate(-41.405 -140.214)" fill="#e7e9e8"/>
        <path id="Trazado_600194" data-name="Trazado 600194" d="M81.343,167.852l.028.016-.021-.041c0,.009,0,.017-.007.025" transform="translate(-67.146 -138.536)" fill="#e7e9e8"/>
        <path id="Trazado_600195" data-name="Trazado 600195" d="M33.488,278.848h0a.8.8,0,0,1,.517.1c0-.011,0-.021.007-.032a.721.721,0,0,1,.653-.332,17.935,17.935,0,0,1,4.416-.093l.093.01c.147-.173.4-.058.6-.076.291-.026.585-.02.878-.022a1.244,1.244,0,0,1-.117-1.12,3.124,3.124,0,0,1-1.187.191c-2.732.065-5.448.376-8.179.475-1.986.072-3.973.215-5.958.355a14.6,14.6,0,0,1-5.9-.523c-1.9-.655-3.884-1.075-5.819-1.642a3.721,3.721,0,0,1-1.047-.446,1.161,1.161,0,0,0,.836.81c2.685.88,5.329,1.884,8.03,2.713a6.565,6.565,0,0,0,2.623.077,16.124,16.124,0,0,1,2.148-.075l.31.1a19.564,19.564,0,0,1,2.255-.156c1.606-.178,3.226-.219,4.84-.317" transform="translate(-10.274 -227.577)" fill="#e7e9e8"/>
        <path id="Trazado_600196" data-name="Trazado 600196" d="M24.906,278.306a16.1,16.1,0,0,0-2.148.075,6.568,6.568,0,0,1-2.623-.077c-2.7-.83-5.345-1.834-8.03-2.713a1.161,1.161,0,0,1-.836-.81,2.073,2.073,0,0,1-.249-.193,1.262,1.262,0,0,0,.989,1.187c1.362.449,2.7.972,4.072,1.387,2.064.625,4.026,1.749,6.294,1.448.877-.116,1.752-.107,2.629-.149.07-.022.141-.037.212-.053l-.31-.1" transform="translate(-9.097 -226.664)" fill="#e7e9e8"/>
        <path id="Trazado_600197" data-name="Trazado 600197" d="M141.047,291.117a17.938,17.938,0,0,0-4.416.093.72.72,0,0,0-.653.332c0,.01,0,.021-.007.031.018.01.036.017.053.028.06-.168.21-.158.344-.165a23.768,23.768,0,0,1,4.689-.141.428.428,0,0,1,.082-.169l-.093-.01" transform="translate(-112.24 -240.201)" fill="#e7e9e8"/>
        <path id="Trazado_600198" data-name="Trazado 600198" d="M173.261,285.371h0a1.246,1.246,0,0,1-.034-1.236,1.565,1.565,0,0,1-.223.117,1.243,1.243,0,0,0,.117,1.12Z" transform="translate(-142.745 -234.544)" fill="#e7e9e8"/>
        <path id="Trazado_600199" data-name="Trazado 600199" d="M19.193,277.2a14.6,14.6,0,0,0,5.9.523c1.985-.14,3.971-.283,5.957-.355,2.731-.1,5.447-.41,8.179-.475a3.124,3.124,0,0,0,1.187-.191c0-.012.006-.023.009-.035s-.01-.048-.014-.072c-1.03.043-2.065.05-3.088.163-1.487.164-2.984.266-4.469.333-1.6.072-3.217.143-4.819.238-.935.056-1.887.1-2.823.159a13.254,13.254,0,0,1-4.389-.072c-2.044-.562-4.089-1.123-6.13-1.7-.8-.226-1.594-.482-2.389-.729.007.042.015.084.025.124a3.722,3.722,0,0,0,1.047.445c1.935.566,3.915.987,5.819,1.642" transform="translate(-10.154 -226.992)" fill="#e7e9e8"/>
        <path id="Trazado_600200" data-name="Trazado 600200" d="M11.244,274.657l-.224-.069a2.073,2.073,0,0,0,.249.193c-.01-.039-.018-.081-.025-.124" transform="translate(-9.097 -226.664)" fill="#e7e9e8"/>
        <path id="Trazado_600201" data-name="Trazado 600201" d="M173.573,284.135h0l-.228.01c0,.024.01.047.014.072s-.006.023-.009.035A1.565,1.565,0,0,0,173.573,284.135Z" transform="translate(-143.091 -234.544)" fill="#e7e9e8"/>
        <path id="Trazado_600202" data-name="Trazado 600202" d="M275.914,108.648h0a7.851,7.851,0,0,1,1.962-1.767c.358-.307.754-.571,1.133-.854-.172-.3.023-.526.165-.75a18.941,18.941,0,0,0,2.392-5.535,16.108,16.108,0,0,1-3.633,4.195,7.615,7.615,0,0,1-2.768,1.4,1.591,1.591,0,0,0-.908.525,1.55,1.55,0,0,1,.033.2c.106.776.025,1.561.11,2.338,0,.026-.011.05-.017.075a2.328,2.328,0,0,1,1.529.178" transform="translate(-226.391 -82.335)" fill="#f6b54c"/>
        <path id="Trazado_600203" data-name="Trazado 600203" d="M273.79,137.321c-.084-.777,0-1.562-.109-2.338a1.616,1.616,0,0,0-.033-.2,1.418,1.418,0,0,0-.129.186,16.745,16.745,0,0,0,.129,2.455c.042-.011.084-.019.126-.029.005-.025.013-.049.017-.075" transform="translate(-225.78 -111.26)" fill="#f6b54c"/>
        <path id="Trazado_600204" data-name="Trazado 600204" d="M274.82,103.284a7.621,7.621,0,0,0,2.768-1.4,16.108,16.108,0,0,0,3.633-4.195,18.945,18.945,0,0,1-2.393,5.534c-.142.224-.338.453-.165.75l.015-.011a1.926,1.926,0,0,1,.163-.45,18.12,18.12,0,0,0,2.054-4.136,6.869,6.869,0,0,0,.5-2.121c-.533.656-.986,1.343-1.486,2a9.585,9.585,0,0,1-5.487,3.956.737.737,0,0,0-.587.386,1.161,1.161,0,0,1,.073.212,1.59,1.59,0,0,1,.908-.525" transform="translate(-226.045 -80.285)" fill="#f6b54c"/>
        <path id="Trazado_600205" data-name="Trazado 600205" d="M273.566,133.571a.886.886,0,0,0-.056.4,1.432,1.432,0,0,1,.129-.186,1.175,1.175,0,0,0-.073-.212" transform="translate(-225.772 -110.259)" fill="#f6b54c"/>
        <path id="Trazado_600206" data-name="Trazado 600206" d="M51.371,110.959a9.323,9.323,0,0,0-1.743,4.429l4.483-.246a9.9,9.9,0,0,0-2.74-4.183" transform="translate(-40.966 -91.593)" fill="#f2705a"/>
        <path id="Trazado_600207" data-name="Trazado 600207" d="M50.565,110.075a9.9,9.9,0,0,1,2.74,4.183l.166-.009h0a10.128,10.128,0,0,0-2.674-4.226c-.287-.284-.365-.057-.5.133a8.729,8.729,0,0,0-1.645,4.357l.17-.009a9.323,9.323,0,0,1,1.743-4.429" transform="translate(-40.161 -90.71)" fill="#f2705a"/>
        <path id="Trazado_600208" data-name="Trazado 600208" d="M100.418,298.255a4.3,4.3,0,0,0,.269-3.432.973.973,0,0,0-.194.011c-1.815.22-3.647.2-5.462.412a5.9,5.9,0,0,1-1.257-.056,21.115,21.115,0,0,1,5.02,2.068,1.5,1.5,0,0,1,.54.423.555.555,0,0,1,.046.094l1.038.48" transform="translate(-77.407 -243.366)" fill="#fed05c"/>
        <path id="Trazado_600209" data-name="Trazado 600209" d="M97.164,299.294a1.5,1.5,0,0,0-.54-.423A21.109,21.109,0,0,0,91.6,296.8c-.153-.015-.305-.026-.459-.027a29.218,29.218,0,0,1,5.946,2.557l.119.055a.572.572,0,0,0-.046-.095" transform="translate(-75.237 -244.98)" fill="#fed05c"/>
        <path id="Trazado_600210" data-name="Trazado 600210" d="M93.863,294.371c1.815-.213,3.647-.192,5.462-.412a.989.989,0,0,1,.194-.011c-.021-.062-.042-.123-.066-.185h0c-1.614.1-3.235.139-4.84.317a19.53,19.53,0,0,0-2.255.156l.247.08a5.894,5.894,0,0,0,1.258.056" transform="translate(-76.239 -242.491)" fill="#fed05c"/>
        <path id="Trazado_600211" data-name="Trazado 600211" d="M91.356,296.472c-.071.016-.142.032-.212.053.153,0,.306.012.459.027l-.247-.08" transform="translate(-75.236 -244.728)" fill="#fed05c"/>
        <path id="Trazado_600212" data-name="Trazado 600212" d="M268.888,151.2c-.209.457-.518.861-.724,1.321l-.009.016c.392.167.865-.092,1.237.187a3.032,3.032,0,0,0,2.417-1.364h0l-.9-1.109-.044.038a12.9,12.9,0,0,1-1.528-.19,1.4,1.4,0,0,1-.26.476l-.017.016a.942.942,0,0,1-.168.611" transform="translate(-221.353 -123.899)" fill="#ef5540"/>
        <path id="Trazado_600213" data-name="Trazado 600213" d="M273,150.42a1.4,1.4,0,0,0,.26-.476c-.038-.01-.076-.02-.113-.032l-.234.368a.469.469,0,0,1,.07.155l.017-.016" transform="translate(-225.284 -123.748)" fill="#ef5540"/>
        <path id="Trazado_600214" data-name="Trazado 600214" d="M267.568,154.844c.206-.46.515-.863.724-1.321a.94.94,0,0,0,.168-.611l-.149.14c-.212.617-.667,1.12-.877,1.737a.623.623,0,0,0,.126.07l.009-.016" transform="translate(-220.758 -126.225)" fill="#ef5540"/>
        <path id="Trazado_600215" data-name="Trazado 600215" d="M272.461,152.318l.149-.14a.471.471,0,0,0-.07-.155h0a2.11,2.11,0,0,1-.079.3" transform="translate(-224.908 -125.49)" fill="#ef5540"/>
        <path id="Trazado_600216" data-name="Trazado 600216" d="M276.476,149.693l-.029-.035h0a2.328,2.328,0,0,0-1.529-.178c0,.02-.008.041-.013.06a12.9,12.9,0,0,0,1.528.19Z" transform="translate(-226.925 -123.344)" fill="#ef5540"/>
        <path id="Trazado_600217" data-name="Trazado 600217" d="M274.384,149.749c-.042.009-.084.017-.126.029.037.012.075.021.113.032.006-.02.009-.04.013-.061" transform="translate(-226.391 -123.613)" fill="#ef5540"/>
        <path id="Trazado_600218" data-name="Trazado 600218" d="M127.316,313.58c-.6-.138-.752-.453-.457-.969a1.23,1.23,0,0,1-1.016-.442c-.129,1.4.735,2.43,1.337,3.555a6.62,6.62,0,0,0,.508-1.971,1.418,1.418,0,0,0-.371-.173" transform="translate(-103.868 -257.686)" fill="#354b5e"/>
        <path id="Trazado_600219" data-name="Trazado 600219" d="M125,311.555q-.061-.063-.12-.13c-.354,1.582.715,2.657,1.381,3.876.026-.064.051-.127.076-.191-.6-1.125-1.465-2.153-1.337-3.555" transform="translate(-103.029 -257.071)" fill="#354b5e"/>
        <path id="Trazado_600220" data-name="Trazado 600220" d="M133.562,323.215l.041.078a2.759,2.759,0,0,0,.586-1.984c-.04-.02-.08-.042-.12-.065a6.621,6.621,0,0,1-.508,1.971" transform="translate(-110.251 -265.177)" fill="#354b5e"/>
        <path id="Trazado_600221" data-name="Trazado 600221" d="M133.243,332.618l-.041-.078c-.025.063-.05.127-.076.191.042-.037.081-.074.117-.113" transform="translate(-109.891 -274.501)" fill="#354b5e"/>
        <path id="Trazado_600222" data-name="Trazado 600222" d="M126.915,312.258l.021-.037-1.038-.48a.09.09,0,0,1,0,.033c0,.014,0,.028,0,.042a1.23,1.23,0,0,0,1.016.442" transform="translate(-103.925 -257.332)" fill="#354b5e"/>
        <path id="Trazado_600223" data-name="Trazado 600223" d="M125.337,311.513a.087.087,0,0,0,0-.033l-.119-.055q.059.067.12.13c0-.014,0-.028,0-.042" transform="translate(-103.36 -257.071)" fill="#354b5e"/>
        <path id="Trazado_600224" data-name="Trazado 600224" d="M53.823,135.82a2.131,2.131,0,0,1-.136-.479v0a5.1,5.1,0,0,1-1.68.233c-.776.116-1.575.014-2.358.145a.729.729,0,0,1-.485-.075c-.019.2-.078.395-.081.595a3.748,3.748,0,0,1,1.1-.121c1.21-.119,2.418-.268,3.636-.3" transform="translate(-40.516 -111.718)" fill="#445b6c"/>
        <path id="Trazado_600225" data-name="Trazado 600225" d="M75.465,134.955a2.133,2.133,0,0,0,.136.479l.194,0-.19-.557h0a1.325,1.325,0,0,1-.14.082v0" transform="translate(-62.293 -111.333)" fill="#445b6c"/>
        <path id="Trazado_600226" data-name="Trazado 600226" d="M48.1,136.507a.678.678,0,0,1-.156-.12l-.15.842a.969.969,0,0,1,.225-.126c0-.2.062-.4.081-.595" transform="translate(-39.453 -112.583)" fill="#445b6c"/>
        <path id="Trazado_600227" data-name="Trazado 600227" d="M52.163,138.394a4.759,4.759,0,0,0,1.7-.218c-.012-.028-.025-.055-.036-.083-1.218.028-2.426.177-3.636.3a3.748,3.748,0,0,0-1.1.121.9.9,0,0,0,.008.128,30.04,30.04,0,0,0,3.074-.245" transform="translate(-40.515 -113.991)" fill="#445b6c"/>
        <path id="Trazado_600228" data-name="Trazado 600228" d="M76.281,138.154a1.486,1.486,0,0,0,.158-.088l-.194,0c.011.028.024.055.036.083" transform="translate(-62.938 -113.969)" fill="#445b6c"/>
        <path id="Trazado_600229" data-name="Trazado 600229" d="M48.02,140.486a.976.976,0,0,0-.225.126c.078,0,.155,0,.232,0a.921.921,0,0,1-.008-.127" transform="translate(-39.453 -115.967)" fill="#445b6c"/>
        <path id="Trazado_600230" data-name="Trazado 600230" d="M50.031,135.374c.783-.131,1.582-.029,2.358-.145a5.107,5.107,0,0,0,1.68-.233c-.008-.025-.018-.048-.026-.072l-4.483.246c0,.025-.007.05-.009.076s0,.036-.005.054a.73.73,0,0,0,.485.075" transform="translate(-40.899 -111.375)" fill="#445b6c"/>
        <path id="Trazado_600231" data-name="Trazado 600231" d="M48.812,136.409c0-.025.006-.05.009-.076l-.171.009a.687.687,0,0,0,.156.12c0-.018,0-.036.005-.054" transform="translate(-40.16 -112.539)" fill="#445b6c"/>
        <path id="Trazado_600232" data-name="Trazado 600232" d="M75.341,134.954a1.346,1.346,0,0,0,.14-.082l-.166.009c.008.025.018.048.026.072" transform="translate(-62.17 -111.333)" fill="#445b6c"/>
        <path id="Trazado_600233" data-name="Trazado 600233" d="M292.644,117.63a24.88,24.88,0,0,1-4.215,2.236c-.447.2-.794.651-1.357.581.029.279-.212.382-.38.5a29.793,29.793,0,0,0-2.685,2.135,1.8,1.8,0,0,1,.948,1.153c0,.01-.009.02-.013.031a6.215,6.215,0,0,0,1.3,1.517l.051-.04c2.494-2.061,5.016-4.086,7.535-6.114a.966.966,0,0,1,.371-.227,11.7,11.7,0,0,1-1.1-2.2c-.056.209-.281.3-.461.432" transform="translate(-234.439 -96.743)" fill="#f2f2f2"/>
        <path id="Trazado_600234" data-name="Trazado 600234" d="M336.1,116.028a11.712,11.712,0,0,0,1.1,2.2.4.4,0,0,1,.247.027,1.775,1.775,0,0,1-.546-.839,6.358,6.358,0,0,0-.806-1.634.476.476,0,0,1,.006.247" transform="translate(-277.438 -95.574)" fill="#f2f2f2"/>
        <path id="Trazado_600235" data-name="Trazado 600235" d="M343.842,129.947Z" transform="translate(-283.831 -107.267)" fill="#f2f2f2"/>
        <path id="Trazado_600236" data-name="Trazado 600236" d="M304.425,130.022c-2.52,2.028-5.042,4.053-7.535,6.114l-.051.04c.04.025.077.053.12.075,1.314-1.059,2.62-2.129,3.945-3.175s2.6-2.182,4-3.154c-.036-.042-.071-.084-.1-.127a.964.964,0,0,0-.37.226" transform="translate(-245.031 -107.142)" fill="#f2f2f2"/>
        <path id="Trazado_600237" data-name="Trazado 600237" d="M342.428,129.753c.034.043.068.086.1.127.048-.033.095-.068.143-.1a.4.4,0,0,0-.247-.027" transform="translate(-282.663 -107.099)" fill="#f2f2f2"/>
        <path id="Trazado_600238" data-name="Trazado 600238" d="M307.078,116.979c-1.707,1.231-3.723,1.888-5.514,2.964,0,.008,0,.014,0,.022.563.07.909-.378,1.357-.581a24.883,24.883,0,0,0,4.215-2.236c.18-.128.4-.224.461-.432-.017-.034-.034-.068-.051-.1-.093.185-.306.249-.468.365" transform="translate(-248.932 -96.261)" fill="#f2f2f2"/>
        <path id="Trazado_600239" data-name="Trazado 600239" d="M335.839,115.926l.051.1a.478.478,0,0,0-.006-.247h0a.425.425,0,0,1-.045.146" transform="translate(-277.224 -95.573)" fill="#f2f2f2"/>
        <path id="Trazado_600240" data-name="Trazado 600240" d="M286.477,136.257c.168-.114.409-.217.38-.5h-.011s0-.007,0-.01c-.379.283-.775.547-1.133.854a7.851,7.851,0,0,0-1.962,1.767c.016.006.03.014.046.02a29.8,29.8,0,0,1,2.685-2.135" transform="translate(-234.223 -112.058)" fill="#f2f2f2"/>
        <path id="Trazado_600241" data-name="Trazado 600241" d="M301.5,135.711c0-.008,0-.014,0-.022l-.015.011s0,.007,0,.01h.011" transform="translate(-248.862 -112.007)" fill="#f2f2f2"/>
        <path id="Trazado_600242" data-name="Trazado 600242" d="M284.875,152.037a1.8,1.8,0,0,0-.948-1.153l-.017.015.9,1.109c.017.019.032.04.048.06,0-.01.01-.02.013-.031" transform="translate(-234.359 -124.55)" fill="#f2f2f2"/>
        <path id="Trazado_600243" data-name="Trazado 600243" d="M283.746,150.767h0l.028.035.017-.015c-.016-.006-.029-.014-.046-.02" transform="translate(-234.223 -124.453)" fill="#f2f2f2"/>
        <path id="Trazado_600244" data-name="Trazado 600244" d="M247.566,164.648h-.024c-.389-.169-.9.087-1.237-.264a52.775,52.775,0,0,0-4.585,11.1,58.431,58.431,0,0,1,5.01-6.271c.056-.068.114-.134.171-.2.19-1.14.368-2.281.585-3.416a5.823,5.823,0,0,0,.081-.942" transform="translate(-199.532 -135.694)" fill="#f2705a"/>
        <path id="Trazado_600245" data-name="Trazado 600245" d="M245.614,168.618a58.455,58.455,0,0,0-5.01,6.271,52.775,52.775,0,0,1,4.585-11.1.721.721,0,0,1-.1-.125,47.516,47.516,0,0,0-4.724,11.71c1.685-2.331,3.534-4.52,5.376-6.715.014-.082.027-.165.041-.247-.057.068-.115.134-.171.2" transform="translate(-198.416 -135.104)" fill="#f2705a"/>
        <path id="Trazado_600246" data-name="Trazado 600246" d="M269.228,164.389h.024c0-.044,0-.088,0-.132-.371-.279-.844-.019-1.236-.187l-.029.055c.335.351.849.1,1.237.264" transform="translate(-221.218 -135.435)" fill="#f2705a"/>
        <path id="Trazado_600247" data-name="Trazado 600247" d="M267.561,163.739a.619.619,0,0,1-.126-.07.725.725,0,0,0,.1.125l.029-.055" transform="translate(-220.759 -135.104)" fill="#f2705a"/>
        <path id="Trazado_600248" data-name="Trazado 600248" d="M274.992,157.916a2.705,2.705,0,0,1-2.377,1.392.977.977,0,0,1,.091.593,22.466,22.466,0,0,1-.73,3.648,27.134,27.134,0,0,1,4.187-4.043.173.173,0,0,1-.039-.026,3.8,3.8,0,0,1-1.132-1.564" transform="translate(-224.508 -130.355)" fill="#cdd5df"/>
        <path id="Trazado_600249" data-name="Trazado 600249" d="M275.5,166.827a27.133,27.133,0,0,0-4.187,4.043c-.044.122-.09.244-.141.365a36.265,36.265,0,0,1,4.6-4.451.223.223,0,0,1-.272.043" transform="translate(-223.841 -137.675)" fill="#cdd5df"/>
        <path id="Trazado_600250" data-name="Trazado 600250" d="M277.686,157.426c-.009-.035-.022-.067-.029-.1h0a3.033,3.033,0,0,1-2.417,1.364,1.417,1.417,0,0,1,.069.132,2.705,2.705,0,0,0,2.377-1.392" transform="translate(-227.202 -129.864)" fill="#cdd5df"/>
        <path id="Trazado_600251" data-name="Trazado 600251" d="M289.273,157.665c-.006.015-.013.029-.019.044a3.8,3.8,0,0,0,1.132,1.564.179.179,0,0,0,.039.027c.051-.039.1-.079.152-.118a6.211,6.211,0,0,1-1.3-1.516" transform="translate(-238.77 -130.147)" fill="#cdd5df"/>
        <path id="Trazado_600252" data-name="Trazado 600252" d="M295.968,166.471a.223.223,0,0,0,.272-.043c-.043-.023-.08-.05-.12-.075-.051.039-.1.079-.152.118" transform="translate(-244.312 -137.319)" fill="#cdd5df"/>
        <path id="Trazado_600253" data-name="Trazado 600253" d="M289.136,157.384c-.016-.02-.031-.04-.048-.06.007.036.02.069.029.1.006-.015.013-.029.019-.044" transform="translate(-238.633 -129.866)" fill="#cdd5df"/>
        <path id="Trazado_600254" data-name="Trazado 600254" d="M272.142,165.894h-.073a5.843,5.843,0,0,1-.081.942c-.216,1.135-.4,2.276-.585,3.416l.1-.118a22.446,22.446,0,0,0,.73-3.648.976.976,0,0,0-.091-.593" transform="translate(-224.035 -136.94)" fill="#cdd5df"/>
        <path id="Trazado_600255" data-name="Trazado 600255" d="M271.21,190.311c-.014.082-.027.165-.041.247.051-.121.1-.243.141-.365l-.1.118" transform="translate(-223.841 -156.998)" fill="#cdd5df"/>
        <path id="Trazado_600256" data-name="Trazado 600256" d="M275.291,165.272a1.422,1.422,0,0,0-.069-.132c0,.044,0,.088,0,.132h.073" transform="translate(-227.184 -136.318)" fill="#cdd5df"/>
        <path id="Trazado_600257" data-name="Trazado 600257" d="M182.471,292.271a8.388,8.388,0,0,0-2.273.006c-.051.009-.1.015-.153.02,1.172.1,2.346.162,3.524.151a7.032,7.032,0,0,0,2.339-.341,11.9,11.9,0,0,1-3.437.164" transform="translate(-148.621 -241.125)" fill="#fbfbfb"/>
        <path id="Trazado_600258" data-name="Trazado 600258" d="M172.322,291.633a.713.713,0,0,1-.434.141q.4.041.8.077a1.268,1.268,0,0,1-.291-.131c-.028-.028-.05-.058-.074-.087" transform="translate(-141.888 -240.734)" fill="#fbfbfb"/>
        <path id="Trazado_600259" data-name="Trazado 600259" d="M173.583,291.66a7.031,7.031,0,0,1-2.339.341c-1.178.011-2.352-.054-3.524-.151a1.567,1.567,0,0,1-.624-.054q-.4-.037-.8-.077a3.419,3.419,0,0,1-.384-.021,1.192,1.192,0,0,0-.8.075c1.6.26,3.226.292,4.84.427a12.91,12.91,0,0,0,3.589-.264c.231-.046.472-.061.507-.369h0q-.233.051-.467.095" transform="translate(-136.296 -240.678)" fill="#fbfbfb"/>
        <path id="Trazado_600260" data-name="Trazado 600260" d="M180.667,291.238a16.378,16.378,0,0,1-3.708.016,3.933,3.933,0,0,0-1.436.084,1.252,1.252,0,0,1-1.065-.12.678.678,0,0,1-.082.073c.024.029.046.059.074.087a1.276,1.276,0,0,0,.291.131l.624.055c.051-.005.1-.012.153-.02a8.387,8.387,0,0,1,2.273-.006,11.905,11.905,0,0,0,3.437-.164c.092-.033.183-.069.274-.108a4.045,4.045,0,0,0-.836-.027" transform="translate(-143.943 -240.391)" fill="#fbfbfb"/>
        <path id="Trazado_600261" data-name="Trazado 600261" d="M177.093,292.939l-.624-.055a1.562,1.562,0,0,0,.624.055" transform="translate(-145.67 -241.766)" fill="#fbfbfb"/>
        <path id="Trazado_600262" data-name="Trazado 600262" d="M213.913,291.486c-.091.04-.182.075-.274.108q.234-.043.467-.095h0c-.064,0-.129-.008-.193-.014" transform="translate(-176.352 -240.612)" fill="#fbfbfb"/>
        <path id="Trazado_600263" data-name="Trazado 600263" d="M167.061,291.222c-.293,0-.587,0-.878.022-.2.018-.451-.1-.6.076q.55.059,1.1.115a.714.714,0,0,0,.434-.141c-.02-.024-.041-.047-.058-.072" transform="translate(-136.684 -240.395)" fill="#fbfbfb"/>
        <path id="Trazado_600264" data-name="Trazado 600264" d="M165.911,291.876a3.419,3.419,0,0,0,.384.021q-.55-.056-1.1-.115a.433.433,0,0,0-.082.169,1.193,1.193,0,0,1,.8-.074" transform="translate(-136.295 -240.857)" fill="#fbfbfb"/>
        <path id="Trazado_600265" data-name="Trazado 600265" d="M174.185,291.217h-.14c.017.024.038.048.058.072a.664.664,0,0,0,.082-.073" transform="translate(-143.669 -240.39)" fill="#fbfbfb"/>
        <path id="Trazado_600266" data-name="Trazado 600266" d="M132.2,294.684a1.745,1.745,0,0,1,.287,1.049,3.235,3.235,0,0,1-.593,2.4c-.033.006-.063.006-.094.009-.069.613.506.744.821,1.07a9.82,9.82,0,0,0-.086-4.245.785.785,0,0,1-.024-.323.839.839,0,0,1-.311.035" transform="translate(-108.793 -243.223)" fill="#f1f1f1"/>
        <path id="Trazado_600267" data-name="Trazado 600267" d="M135.892,294.848a9.821,9.821,0,0,1,.086,4.245.754.754,0,0,1,.109.139,7.585,7.585,0,0,0-.154-4.733.482.482,0,0,1-.065.026.781.781,0,0,0,.024.323" transform="translate(-112.148 -243.1)" fill="#f1f1f1"/>
        <path id="Trazado_600268" data-name="Trazado 600268" d="M133.01,293.719h0a1.012,1.012,0,0,1,.194.189.838.838,0,0,0,.311-.035c0-.018.007-.036.012-.054a.8.8,0,0,0-.517-.1" transform="translate(-109.796 -242.449)" fill="#f1f1f1"/>
        <path id="Trazado_600269" data-name="Trazado 600269" d="M135.9,294.394a.481.481,0,0,0,.065-.026c-.017-.011-.035-.018-.053-.028,0,.018-.009.036-.012.054" transform="translate(-112.184 -242.968)" fill="#f1f1f1"/>
        <path id="Trazado_600270" data-name="Trazado 600270" d="M131.829,298.292c.031,0,.062,0,.094-.009a3.236,3.236,0,0,0,.593-2.405,1.744,1.744,0,0,0-.287-1.049l-.128,0a4.3,4.3,0,0,1-.269,3.432h0c0,.012,0,.023,0,.035" transform="translate(-108.821 -243.369)" fill="#f1f1f1"/>
        <path id="Trazado_600271" data-name="Trazado 600271" d="M133.011,293.763c.024.062.045.124.066.185l.128,0a1.014,1.014,0,0,0-.194-.189" transform="translate(-109.796 -242.492)" fill="#f1f1f1"/>
        <path id="Trazado_600272" data-name="Trazado 600272" d="M131.052,314.69l-.018,0c-.295.516-.146.831.457.97a1.416,1.416,0,0,1,.371.172c0-.007,0-.013,0-.02l.009-.053c-.315-.326-.891-.457-.821-1.07" transform="translate(-108.044 -259.767)" fill="#f1f1f1"/>
        <path id="Trazado_600273" data-name="Trazado 600273" d="M136.473,320.873c0,.007,0,.014,0,.021.04.023.08.045.12.065a.762.762,0,0,0-.109-.139l-.009.053" transform="translate(-112.652 -264.827)" fill="#f1f1f1"/>
        <path id="Trazado_600274" data-name="Trazado 600274" d="M131.748,314.491h0c-.008.012-.013.024-.02.037l.018,0c0-.012,0-.023,0-.035" transform="translate(-108.736 -259.602)" fill="#f1f1f1"/>
        <path id="Trazado_600275" data-name="Trazado 600275" d="M32.835,201.413a2.237,2.237,0,0,0-1.417,1.245c-.109.244-.178.388-.539.329a1.827,1.827,0,0,0-2.151,1.318c-.089.249-.164.42-.483.486a1.072,1.072,0,0,0-.875,1.035c-.015.162-.008.375-.209.384-.242.011-.172-.225-.19-.369q-.5-3.955-.985-7.911l-.553.021c.047,1.7.321,3.382.515,5.07.144,1.254.3,2.507.444,3.761.016.141-.085.37-.182.269-.274-.284-.821.363-.905-.258-.257-1.91-.469-3.827-.711-5.74-.127-1-.278-2-.417-3l-.57.03q.389,3.544.778,7.088a1.739,1.739,0,0,1,.053.341c-.033.328.228.817-.111.951-.409.162-.3-.464-.551-.628a14.623,14.623,0,0,1-2.278-1.949,1.118,1.118,0,0,0-1.187-.174.8.8,0,0,1-1.083-.295,2.32,2.32,0,0,0-3.918.745c.006.15.012.3.021.451.2,1.491.432,2.976.565,4.475.032.359.247.471.572.439,1.82-.175,3.645-.279,5.466-.438,2.074-.181,4.151-.326,6.226-.495,2.468-.2,4.935-.414,7.405-.572.479-.031.59-.309.521-.705-.269-1.528-.219-3.092-.531-4.614-.015-.1-.028-.208-.043-.311a2.284,2.284,0,0,0-2.676-.978" transform="translate(-12.636 -163.385)" fill="#e7e9e8"/>
        <path id="Trazado_600276" data-name="Trazado 600276" d="M34.809,223.8c.312,1.522.262,3.086.531,4.614.07.4-.042.675-.521.705-2.471.158-4.938.37-7.405.572-2.075.169-4.152.314-6.226.495-1.821.159-3.646.263-5.466.438-.324.031-.54-.081-.572-.439-.133-1.5-.369-2.984-.565-4.475-.009-.15-.015-.3-.021-.451a3.262,3.262,0,0,0-.142.44.636.636,0,0,0-.014.138c.184,1.582.467,3.153.553,4.747.02.367.312.279.526.264,1.316-.1,2.632-.2,3.947-.311q4.846-.391,9.692-.782,2.978-.236,5.957-.446c.41-.029.645-.106.513-.624s-.088-1.065-.208-1.58c-.258-1.107,0-2.273-.416-3.356-.069-.092-.137-.177-.205-.259.015.1.028.208.043.311" transform="translate(-11.892 -184.484)" fill="#e7e9e8"/>
        <path id="Trazado_600277" data-name="Trazado 600277" d="M12.374,187.951a2.461,2.461,0,0,1,2.654.482,1.3,1.3,0,0,0,1.237.372,1.675,1.675,0,0,1,1.711.7,2.961,2.961,0,0,0,1.189,1.016c.368.158.561.534.861.889a5.726,5.726,0,0,0-.116-1.81c-.19-1.793-.4-3.583-.617-5.374a1.136,1.136,0,0,1,.095-.845H17.462a2.94,2.94,0,0,1,.339-.911l-.013-.007a.637.637,0,0,1-.21-.453l0-.024a1.157,1.157,0,0,0-.748.132l.118.909h0c.22.439.256.786-.395.79a1.041,1.041,0,0,1,.228,1.313,1.273,1.273,0,0,0-.112.8c-.214-.007-.261-.166-.321-.311l-.13.261a1.4,1.4,0,0,1-.177,1.624c-.608-.637,0-1.64-.714-2.229-.232.056.1.449-.223.423a.456.456,0,0,1-.369-.376,1.463,1.463,0,0,1,.2-1.381h0a.948.948,0,0,1-.213-.749h0a8.546,8.546,0,0,1-.071-3.078.679.679,0,0,1-.165.064c-1.22.136-2.443.24-3.666.319-.5.032-.623.231-.572.7.268,2.44.545,4.879.816,7.319.023.2.034.406.043.608a2.037,2.037,0,0,1,1.265-1.177" transform="translate(-8.452 -148.678)" fill="#55bfea"/>
        <path id="Trazado_600278" data-name="Trazado 600278" d="M9.771,188.02c-.271-2.44-.548-4.879-.816-7.319-.052-.472.072-.671.572-.7,1.223-.079,2.446-.183,3.666-.319a.668.668,0,0,0,.165-.064c.008-.035.015-.07.024-.105h0c-1.433.1-2.865.215-4.3.294-.485.027-.424.316-.39.621q.5,4.486.994,8.972h0a2.2,2.2,0,0,1,.128-.767c-.009-.2-.021-.405-.043-.608" transform="translate(-7.157 -148.179)" fill="#55bfea"/>
        <path id="Trazado_600279" data-name="Trazado 600279" d="M52.273,190.839a.637.637,0,0,0,.21.454l.013.007c.006-.017.014-.034.019-.051h0l-.078-.431c-.056,0-.112,0-.169,0l0,.024" transform="translate(-43.147 -157.512)" fill="#55bfea"/>
        <path id="Trazado_600280" data-name="Trazado 600280" d="M19.159,204.14a.8.8,0,0,0,1.083.3,1.117,1.117,0,0,1,1.187.174,14.631,14.631,0,0,0,2.278,1.949c.25.164.141.79.551.628.339-.134.079-.623.111-.951a1.753,1.753,0,0,0-.053-.341q-.391-3.544-.778-7.088h-.032a1.135,1.135,0,0,0-.095.845c.212,1.791.427,3.581.617,5.374a5.726,5.726,0,0,1,.116,1.81c-.3-.355-.493-.731-.861-.889a2.962,2.962,0,0,1-1.189-1.017,1.675,1.675,0,0,0-1.711-.7,1.3,1.3,0,0,1-1.237-.372,2.462,2.462,0,0,0-2.654-.482,2.038,2.038,0,0,0-1.265,1.177q.008.164.014.327a2.32,2.32,0,0,1,3.918-.745" transform="translate(-12.569 -164.109)" fill="#55bfea"/>
        <path id="Trazado_600281" data-name="Trazado 600281" d="M14.62,231.758a2.2,2.2,0,0,0-.128.767,3.279,3.279,0,0,1,.142-.44q-.006-.163-.014-.327" transform="translate(-11.963 -191.309)" fill="#55bfea"/>
        <path id="Trazado_600282" data-name="Trazado 600282" d="M81.083,177.059c.287.511.08.708-.446.7.726.7.247,1.435.064,2.165-.309-.17-.184-.49-.265-.839-.319.857.512,1.731-.291,2.5-.507-.708.046-1.742-.734-2.313-.171.147.1.375-.053.546-.707-.444-.763-.975-.212-1.951h0c-.282-.138-.275-.394-.266-.651h0c-.116-.332.03-.712-.187-1.026h0c-.321.045-.765-.1-.743.478l.712,1c-.746.142-1.418.021-2.051.209a1.894,1.894,0,0,1,.3,1.081c.287,2.222.545,4.447.853,6.734.133-.306.176-.63.412-.744a4.5,4.5,0,0,0,1.459-1.515,1.676,1.676,0,0,1,1.448-.695,1.034,1.034,0,0,0,1-.566,2.376,2.376,0,0,1,2.336-1.072,2.139,2.139,0,0,1,1.65.977c-.35-2.541-.618-5.093-.947-7.637-.1-.745-.255-.84-1.011-.779a20.162,20.162,0,0,1-3.671.211c-.036-.007-.072-.015-.108-.024a7.263,7.263,0,0,1,.744,3.209h0" transform="translate(-63.239 -143.341)" fill="#55bfea"/>
        <path id="Trazado_600283" data-name="Trazado 600283" d="M97.718,172.781a20.163,20.163,0,0,0,3.671-.211c.756-.06.915.035,1.011.779.329,2.544.6,5.1.947,7.637a2.4,2.4,0,0,1,.242.527c-.039-.366-.073-.733-.118-1.1-.307-2.5-.634-4.988-.912-7.486-.059-.529-.265-.64-.744-.6-1.425.132-2.848.3-4.283.306h0c.027.039.052.078.077.118.036.01.072.018.108.024" transform="translate(-80.51 -142.248)" fill="#55bfea"/>
        <path id="Trazado_600284" data-name="Trazado 600284" d="M84.318,201.119a2.377,2.377,0,0,0-2.336,1.072,1.034,1.034,0,0,1-1,.566,1.675,1.675,0,0,0-1.449.695,4.5,4.5,0,0,1-1.459,1.515c-.236.115-.279.438-.412.744-.308-2.287-.566-4.512-.853-6.734a1.894,1.894,0,0,0-.3-1.081l-.023.006q.491,3.956.985,7.911c.018.144-.052.38.19.369.2-.01.194-.222.209-.384a1.071,1.071,0,0,1,.875-1.035c.319-.065.394-.237.483-.486a1.827,1.827,0,0,1,2.151-1.318c.361.059.43-.085.539-.329a2.237,2.237,0,0,1,1.417-1.245,2.283,2.283,0,0,1,2.675.978l-.037-.268a2.139,2.139,0,0,0-1.65-.977" transform="translate(-63.13 -163.358)" fill="#55bfea"/>
        <path id="Trazado_600285" data-name="Trazado 600285" d="M130.886,222.223c.068.082.137.168.205.259a2.406,2.406,0,0,0-.242-.527q.018.134.037.268" transform="translate(-108.012 -183.217)" fill="#55bfea"/>
        <path id="Trazado_600286" data-name="Trazado 600286" d="M88.449,174.618c.386.22.3.608.332.951a.877.877,0,0,0,.006.152,10.857,10.857,0,0,0,1.932-.119.728.728,0,0,0-.05-.127A8.972,8.972,0,0,0,90,172.51a.238.238,0,0,1-.014-.186.356.356,0,0,1-.139-.1c-.4-.523-.766-.486-1.118.045l-.038,0a5.705,5.705,0,0,0-.243,2.355" transform="translate(-72.999 -141.855)" fill="#e7e9e8"/>
        <path id="Trazado_600287" data-name="Trazado 600287" d="M89.953,170.107c.352-.53.717-.568,1.118-.045a.354.354,0,0,0,.139.1.332.332,0,0,1,.034-.078h0a3.343,3.343,0,0,0-.81-.854,2.416,2.416,0,0,0-.5.818c-.007.018-.012.036-.019.053l.038,0" transform="translate(-74.222 -139.696)" fill="#e7e9e8"/>
        <path id="Trazado_600288" data-name="Trazado 600288" d="M97.293,174.76a8.968,8.968,0,0,1,.668,2.966.73.73,0,0,1,.05.127c.041-.01.082-.017.123-.029h0a7.267,7.267,0,0,0-.744-3.209.7.7,0,0,1-.111-.04.239.239,0,0,0,.014.186" transform="translate(-80.29 -144.105)" fill="#e7e9e8"/>
        <path id="Trazado_600289" data-name="Trazado 600289" d="M88.527,187.806c.217.314.071.694.187,1.026.049,0,.1-.007.148-.01a.877.877,0,0,1-.006-.152c-.035-.344.054-.731-.332-.951l0,.087h0" transform="translate(-73.074 -154.956)" fill="#e7e9e8"/>
        <path id="Trazado_600290" data-name="Trazado 600290" d="M97.448,174.247c-.025-.039-.05-.079-.077-.118a.332.332,0,0,0-.034.078.712.712,0,0,0,.111.04" transform="translate(-80.349 -143.738)" fill="#e7e9e8"/>
        <path id="Trazado_600291" data-name="Trazado 600291" d="M35.9,177.844a17,17,0,0,0,.14,1.989.884.884,0,0,0,0,.1l1.911-.145c0-.009-.005-.017-.009-.027a1.921,1.921,0,0,1-.017-.968c.013-.012.026-.021.039-.032a5.741,5.741,0,0,0-.711-2.191.241.241,0,0,1-.127-.036c-.626-.49-.626-.491-1.1.14a.7.7,0,0,1-.168.162,2.226,2.226,0,0,1,.045,1.006" transform="translate(-29.598 -145.434)" fill="#e7e9e8"/>
        <path id="Trazado_600292" data-name="Trazado 600292" d="M35.863,174.628c.473-.631.474-.63,1.1-.14a.238.238,0,0,0,.127.036l-.021-.04h0c-.809-1.069-.812-1.068-1.377.171-.009.021-.02.041-.03.061h0c.014.024.023.049.034.073a.7.7,0,0,0,.168-.162" transform="translate(-29.437 -143.386)" fill="#e7e9e8"/>
        <path id="Trazado_600293" data-name="Trazado 600293" d="M35.046,183.039h0l.167-.013a.966.966,0,0,1,0-.1,17.037,17.037,0,0,1-.14-1.989,2.229,2.229,0,0,0-.045-1.006c-.018.012-.038.022-.058.032a8.549,8.549,0,0,0,.071,3.078" transform="translate(-28.774 -148.526)" fill="#e7e9e8"/>
        <path id="Trazado_600294" data-name="Trazado 600294" d="M47.4,191a1.92,1.92,0,0,0,.017.968c0,.009.006.017.009.026l.142-.011h0l-.118-.909c0-.036-.009-.071-.012-.106-.013.011-.026.02-.039.032" transform="translate(-39.078 -157.634)" fill="#e7e9e8"/>
        <path id="Trazado_600295" data-name="Trazado 600295" d="M35.583,179.583a.762.762,0,0,0-.034-.073c-.009.035-.016.07-.024.105a.621.621,0,0,0,.058-.032" transform="translate(-29.325 -148.18)" fill="#e7e9e8"/>
        <path id="Trazado_600296" data-name="Trazado 600296" d="M44.679,175.907a.622.622,0,0,1,.7-.1c-.124-.836-.235-1.674-.3-2.517a1.8,1.8,0,0,1,0-.52,2.612,2.612,0,0,1-1.131.978,2.5,2.5,0,0,1,.736,2.162" transform="translate(-36.274 -142.615)" fill="#adb3ba"/>
        <path id="Trazado_600297" data-name="Trazado 600297" d="M44.892,171.758a.65.65,0,0,1,.084-.213L43.722,172.7c.013.01.026.022.039.033a2.611,2.611,0,0,0,1.131-.978" transform="translate(-36.091 -141.605)" fill="#adb3ba"/>
        <path id="Trazado_600298" data-name="Trazado 600298" d="M50.338,172.661c.069.843.18,1.681.3,2.517a.954.954,0,0,1,.185.115h0l-.4-3.285-.094.132a1.8,1.8,0,0,0,0,.52" transform="translate(-41.535 -141.988)" fill="#adb3ba"/>
        <path id="Trazado_600299" data-name="Trazado 600299" d="M50.52,171.626l-.01-.081a.652.652,0,0,0-.084.213l.094-.132" transform="translate(-41.625 -141.605)" fill="#adb3ba"/>
        <path id="Trazado_600300" data-name="Trazado 600300" d="M48.016,189.959c-.008.048-.018.1-.03.142a1.158,1.158,0,0,1,.748-.132c-.006-.038-.011-.075-.016-.113a.622.622,0,0,0-.7.1" transform="translate(-39.611 -156.666)" fill="#adb3ba"/>
        <path id="Trazado_600301" data-name="Trazado 600301" d="M52.192,190.282c.056,0,.113,0,.169,0a.955.955,0,0,0-.185-.115l.016.113" transform="translate(-43.07 -156.978)" fill="#adb3ba"/>
        <path id="Trazado_600302" data-name="Trazado 600302" d="M44.6,180.531a2.5,2.5,0,0,0-.736-2.162l-.015.007h0a5.738,5.738,0,0,1,.711,2.191l.043-.036" transform="translate(-36.192 -147.238)" fill="#adb3ba"/>
        <path id="Trazado_600303" data-name="Trazado 600303" d="M43.745,178.219l.015-.007c-.013-.011-.025-.023-.039-.033l.021.04h0" transform="translate(-36.091 -147.081)" fill="#adb3ba"/>
        <path id="Trazado_600304" data-name="Trazado 600304" d="M47.915,190.792c0,.036.009.071.012.106.012-.046.022-.094.03-.142l-.043.036" transform="translate(-39.552 -157.463)" fill="#adb3ba"/>
        <path id="Trazado_600305" data-name="Trazado 600305" d="M82.66,173.276c.114-.264.4-.22.68-.168a2.407,2.407,0,0,1,.26-2.347c-.539-.051-.888-.455-1.307-.73a8.327,8.327,0,0,1,.367,3.245" transform="translate(-67.93 -140.355)" fill="#adb3ba"/>
        <path id="Trazado_600306" data-name="Trazado 600306" d="M83.942,190.686c0,.011,0,.022-.007.034l-.008.007.014,0c0-.014,0-.028,0-.043" transform="translate(-69.279 -157.405)" fill="#adb3ba"/>
        <path id="Trazado_600307" data-name="Trazado 600307" d="M83.428,170.077c.014-.017.028-.035.043-.051l-1.386-.823.036.145c.419.275.767.679,1.307.73" transform="translate(-67.759 -139.671)" fill="#adb3ba"/>
        <path id="Trazado_600308" data-name="Trazado 600308" d="M82.384,173.545c0-.011,0-.022.007-.034a.56.56,0,0,1,.015-.106.739.739,0,0,1,.052-.254,8.324,8.324,0,0,0-.367-3.246l-.04-.026c-.04,1.228.384,2.422.274,3.655a.274.274,0,0,0,.051.017l.008-.007" transform="translate(-67.728 -140.231)" fill="#adb3ba"/>
        <path id="Trazado_600309" data-name="Trazado 600309" d="M82.1,169.346l-.036-.145c0,.04,0,.079,0,.119l.04.026" transform="translate(-67.74 -139.67)" fill="#adb3ba"/>
        <path id="Trazado_600310" data-name="Trazado 600310" d="M84,188.048a.262.262,0,0,0,.048,0c-.022-.578.422-.433.743-.478h0c-.016-.031-.029-.064-.043-.1-.285-.051-.566-.1-.68.168-.017.119-.039.239-.067.36,0,.014,0,.029,0,.043" transform="translate(-69.343 -154.724)" fill="#adb3ba"/>
        <path id="Trazado_600311" data-name="Trazado 600311" d="M84.027,188.88a.574.574,0,0,0-.015.106c.028-.12.049-.24.067-.36a.739.739,0,0,0-.052.254" transform="translate(-69.349 -155.705)" fill="#adb3ba"/>
        <path id="Trazado_600312" data-name="Trazado 600312" d="M87.4,176.56l.035.006.005,0a5.705,5.705,0,0,1,.243-2.355l-.023,0a2.408,2.408,0,0,0-.26,2.347" transform="translate(-71.988 -143.807)" fill="#adb3ba"/>
        <path id="Trazado_600313" data-name="Trazado 600313" d="M89.805,173.973c.007-.018.012-.036.019-.053-.015.016-.028.034-.043.051l.023,0" transform="translate(-74.112 -143.565)" fill="#adb3ba"/>
        <path id="Trazado_600314" data-name="Trazado 600314" d="M88.332,187.673l-.005,0-.035-.006c.014.032.027.065.043.1l0-.087" transform="translate(-72.882 -154.91)" fill="#adb3ba"/>
        <path id="Trazado_600315" data-name="Trazado 600315" d="M53.152,192.213c.554.072,1.149-.268,1.671.12a.694.694,0,0,1,.048-.062.562.562,0,0,1,.568.009c.008.007.013.014.02.021a2.9,2.9,0,0,1,1.151-.088c.005-.01.009-.02.015-.03a.514.514,0,0,1,.555-.069c.022.021.039.043.058.065.453-.505,1.087-.188,1.676-.356-.088-.292-.361-.525-.376-.835l-.014,0-.013-.009a1.124,1.124,0,0,1-.742.28c-1.23.046-2.449.2-3.674.3a1.548,1.548,0,0,1-.827-.1c.067.252-.115.479-.116.755" transform="translate(-43.875 -157.649)" fill="#f2705a"/>
        <path id="Trazado_600316" data-name="Trazado 600316" d="M54.533,191.431c1.225-.1,2.445-.255,3.674-.3a1.124,1.124,0,0,0,.742-.28l-.039-.028-5.227.432a.425.425,0,0,1,.023.072,1.548,1.548,0,0,0,.827.1" transform="translate(-44.314 -157.518)" fill="#f2705a"/>
        <path id="Trazado_600317" data-name="Trazado 600317" d="M63.34,198.036a.563.563,0,0,0-.568-.009.675.675,0,0,0-.048.062l.021.014.57-.03c.015-.006.031-.01.046-.016-.007-.007-.012-.014-.02-.021" transform="translate(-51.776 -163.405)" fill="#f2705a"/>
        <path id="Trazado_600318" data-name="Trazado 600318" d="M73.533,197.233a.514.514,0,0,0-.555.069c-.006.01-.009.02-.015.03l.06,0,.553-.021.015-.015c-.019-.022-.036-.044-.058-.065" transform="translate(-60.229 -162.768)" fill="#f2705a"/>
        <path id="Trazado_600319" data-name="Trazado 600319" d="M53.552,194.5l.011-.014c-.522-.387-1.116-.048-1.671-.12,0-.276.183-.5.116-.756l-.043-.021a2.939,2.939,0,0,0-.339.911h1.926" transform="translate(-42.616 -159.802)" fill="#f2705a"/>
        <path id="Trazado_600320" data-name="Trazado 600320" d="M53.572,193.347l.043.021a.452.452,0,0,0-.023-.072h0c-.006.017-.013.034-.019.051" transform="translate(-44.222 -159.56)" fill="#f2705a"/>
        <path id="Trazado_600321" data-name="Trazado 600321" d="M62.659,198.739h.032l-.021-.014-.011.014" transform="translate(-51.723 -164.041)" fill="#f2705a"/>
        <path id="Trazado_600322" data-name="Trazado 600322" d="M77.863,190.968c.016.31.288.544.376.835-.589.169-1.223-.149-1.676.356l.008.009c.633-.188,1.3-.067,2.051-.209l-.712-1Z" transform="translate(-63.2 -157.63)" fill="#f2705a"/>
        <path id="Trazado_600323" data-name="Trazado 600323" d="M76.478,197.858h0l.023-.006-.008-.009-.015.015" transform="translate(-63.13 -163.313)" fill="#f2705a"/>
        <path id="Trazado_600324" data-name="Trazado 600324" d="M83.883,190.935s0-.01,0-.014l-.014,0-.012.011.013.009Z" transform="translate(-69.22 -157.597)" fill="#f2705a"/>
        <path id="Trazado_600325" data-name="Trazado 600325" d="M83.684,190.839a.276.276,0,0,1-.051-.017l.039.028.012-.011" transform="translate(-69.036 -157.518)" fill="#f2705a"/>
        <path id="Trazado_600326" data-name="Trazado 600326" d="M84,190.931s0,.01,0,.014l.047-.01a.262.262,0,0,1-.048,0" transform="translate(-69.343 -157.607)" fill="#f2705a"/>
        <path id="Trazado_600327" data-name="Trazado 600327" d="M57.1,150.214a1.538,1.538,0,0,0,1.53-1.628,1.852,1.852,0,0,0-1.73-1.9,1.736,1.736,0,0,0-1.711,1.662,2.034,2.034,0,0,0,1.911,1.866m-.312-3.077a1.276,1.276,0,0,1,1.259,1.357,1.147,1.147,0,0,1-1.14,1.142,1.192,1.192,0,0,1-1.221-1.357,1.068,1.068,0,0,1,1.1-1.142" transform="translate(-45.559 -121.084)" fill="#435c6d"/>
        <path id="Trazado_600328" data-name="Trazado 600328" d="M66.547,198.377a1.384,1.384,0,0,1,.27.836c.289,2.32.572,4.64.875,6.958.043.327-.07.921.427.879.562-.048.247-.612.215-.912-.238-2.232-.5-4.461-.75-6.692a2,2,0,0,1,.06-1.143,1.581,1.581,0,0,1-1.1.074" transform="translate(-54.932 -163.693)" fill="#ced5df"/>
        <path id="Trazado_600329" data-name="Trazado 600329" d="M67.282,198.094a2,2,0,0,0-.06,1.143c.253,2.23.512,4.46.75,6.692.032.3.347.864-.215.912-.5.042-.384-.552-.427-.878-.3-2.318-.586-4.638-.875-6.958a1.385,1.385,0,0,0-.27-.836l-.077-.016c.14,1,.291,2,.417,3,.242,1.913.454,3.829.711,5.74.084.621.631-.026.9.258.1.1.2-.128.182-.269-.145-1.254-.3-2.507-.444-3.761-.194-1.688-.468-3.367-.515-5.07-.028.017-.055.03-.083.044" transform="translate(-54.57 -163.484)" fill="#ced5df"/>
        <path id="Trazado_600330" data-name="Trazado 600330" d="M67.5,198.014c.008-.015.014-.031.023-.046a2.892,2.892,0,0,0-1.15.088l.031.032a1.581,1.581,0,0,0,1.1-.074" transform="translate(-54.787 -163.404)" fill="#ced5df"/>
        <path id="Trazado_600331" data-name="Trazado 600331" d="M72.856,198.039c-.008.015-.015.031-.023.046.028-.014.056-.027.083-.044l-.061,0" transform="translate(-60.121 -163.475)" fill="#ced5df"/>
        <path id="Trazado_600332" data-name="Trazado 600332" d="M66.155,198.543c-.015.006-.031.01-.046.016l.076.016c-.01-.011-.02-.022-.031-.032" transform="translate(-54.571 -163.891)" fill="#ced5df"/>
        <path id="Trazado_600333" data-name="Trazado 600333" d="M36.955,201.36a3.791,3.791,0,0,0-.158.915c.032.218-.086.5.4.362.389-.106.5.38.543.719a3.3,3.3,0,0,0,.227,1.215c.257-.434.048-.861.044-1.281a.6.6,0,0,1,.038-.147.841.841,0,0,1,.171-.77,1.012,1.012,0,0,1,.056.555,1.114,1.114,0,0,0,.3-1.192c-.03-.175-.214-.31-.174-.509a12.065,12.065,0,0,0-1.446.133" transform="translate(-30.368 -166.098)" fill="#fcd05e"/>
        <path id="Trazado_600334" data-name="Trazado 600334" d="M45.539,201.786a1.114,1.114,0,0,1-.3,1.192q-.008.056-.017.111h0c.06.145.106.3.321.311a1.271,1.271,0,0,1,.112-.8,1.041,1.041,0,0,0-.228-1.313c-.022,0-.043,0-.065-.006-.04.2.143.334.174.509" transform="translate(-37.333 -166.148)" fill="#fcd05e"/>
        <path id="Trazado_600335" data-name="Trazado 600335" d="M36.967,203.97c0,.42.213.847-.044,1.281a3.3,3.3,0,0,1-.226-1.215c-.045-.339-.154-.825-.543-.719-.49.134-.372-.144-.4-.362a3.808,3.808,0,0,1,.158-.915c-.034,0-.068,0-.1,0h0a1.463,1.463,0,0,0-.2,1.381.456.456,0,0,0,.369.376c.326.026-.009-.367.223-.423.713.589.106,1.593.714,2.229a1.4,1.4,0,0,0,.177-1.624.734.734,0,0,1-.079-.157.6.6,0,0,0-.038.147" transform="translate(-29.321 -166.778)" fill="#fcd05e"/>
        <path id="Trazado_600336" data-name="Trazado 600336" d="M36.915,197.318a5.246,5.246,0,0,0,.141.646,1.354,1.354,0,0,1,1.456-.105c0-.009,0-.016.006-.025a.515.515,0,0,0,.324-.662,2.641,2.641,0,0,1-1.927.147" transform="translate(-30.472 -162.758)" fill="#f1715c"/>
        <path id="Trazado_600337" data-name="Trazado 600337" d="M36.079,197.8c-.057-.014-.114-.029-.171-.046h0a.948.948,0,0,0,.213.748h0l.1-.057a5.248,5.248,0,0,1-.141-.646" transform="translate(-29.636 -163.237)" fill="#f1715c"/>
        <path id="Trazado_600338" data-name="Trazado 600338" d="M46.074,197.513c0,.009,0,.017-.006.025.019.012.038.022.058.035.65,0,.615-.351.395-.79-.041.024-.082.046-.123.068a.515.515,0,0,1-.324.662" transform="translate(-38.028 -162.438)" fill="#f1715c"/>
        <path id="Trazado_600339" data-name="Trazado 600339" d="M36.9,197.049a2.641,2.641,0,0,0,1.927-.147c-.006-.019-.012-.038-.02-.057l-1.911.145c0,.02,0,.039,0,.058" transform="translate(-30.455 -162.489)" fill="#f1715c"/>
        <path id="Trazado_600340" data-name="Trazado 600340" d="M47.864,196.851c.041-.021.082-.043.122-.068l-.142.011c.008.02.014.038.02.057" transform="translate(-39.494 -162.438)" fill="#f1715c"/>
        <path id="Trazado_600341" data-name="Trazado 600341" d="M36.1,197.679l-.167.013c.057.016.114.031.171.046,0-.019,0-.039,0-.058" transform="translate(-29.665 -163.178)" fill="#f1715c"/>
        <path id="Trazado_600342" data-name="Trazado 600342" d="M37.724,200.408l.006.029c0,.009,0,.019,0,.028a12.037,12.037,0,0,1,1.446-.133c0-.01,0-.019.007-.029a1.353,1.353,0,0,0-1.456.105" transform="translate(-31.14 -165.202)" fill="#f1715c"/>
        <path id="Trazado_600343" data-name="Trazado 600343" d="M37.26,201.744c0-.01,0-.019-.006-.029l-.1.057c.034,0,.068,0,.1,0,0-.009,0-.018,0-.028" transform="translate(-30.669 -166.509)" fill="#f1715c"/>
        <path id="Trazado_600344" data-name="Trazado 600344" d="M46.026,201.139c.022,0,.043,0,.065.006-.019-.013-.039-.023-.058-.035a.274.274,0,0,0-.007.029" transform="translate(-37.993 -166.01)" fill="#f1715c"/>
        <path id="Trazado_600345" data-name="Trazado 600345" d="M44.239,210.513a.271.271,0,0,1,.117-.1l.012-.009a.425.425,0,0,1-.06-.182,2.563,2.563,0,0,0-.07.288" transform="translate(-36.518 -173.534)" fill="#a5c7a6"/>
        <path id="Trazado_600346" data-name="Trazado 600346" d="M44.357,211.27l-.012.009a.27.27,0,0,0-.117.1.37.37,0,0,0,.042.224l.13-.261a.62.62,0,0,1-.043-.068" transform="translate(-36.506 -174.397)" fill="#a5c7a6"/>
        <path id="Trazado_600347" data-name="Trazado 600347" d="M44.637,209.869a.325.325,0,0,0,.008-.075.214.214,0,0,0-.008.075" transform="translate(-36.846 -173.178)" fill="#a5c7a6"/>
        <path id="Trazado_600348" data-name="Trazado 600348" d="M44.017,207.841a.841.841,0,0,0-.171.77.32.32,0,0,1,.037-.066,2.563,2.563,0,0,1,.07-.288.214.214,0,0,1,.008-.075.335.335,0,0,1-.008.075.424.424,0,0,0,.06.182c.021-.014.041-.029.06-.043a1.011,1.011,0,0,0-.056-.555" transform="translate(-36.162 -171.566)" fill="#a5c7a6"/>
        <path id="Trazado_600349" data-name="Trazado 600349" d="M45.042,211.021q-.029.022-.06.043a.6.6,0,0,0,.042.068h0q.009-.055.017-.111" transform="translate(-37.131 -174.191)" fill="#a5c7a6"/>
        <path id="Trazado_600350" data-name="Trazado 600350" d="M44.063,211.874a.312.312,0,0,0-.037.066.73.73,0,0,0,.079.157.371.371,0,0,1-.042-.224" transform="translate(-36.342 -174.895)" fill="#a5c7a6"/>
        <path id="Trazado_600351" data-name="Trazado 600351" d="M90.493,197.228c0,.012.005.025.007.037-.012.494-.379.969-.062,1.5.2.057.15-.277.327-.245s.247.19.34.321a3.611,3.611,0,0,1,.365,1.755c.374-.8-.292-1.567.207-2.229.28.05.221.3.283.408.355-.543.087-1.087-.06-1.637l.008-.006a3.989,3.989,0,0,0-1.415.094" transform="translate(-74.548 -162.715)" fill="#fdd05d"/>
        <path id="Trazado_600352" data-name="Trazado 600352" d="M90.829,197.218c.148.55.415,1.094.06,1.637-.062-.111,0-.358-.283-.408-.5.662.167,1.431-.207,2.229a3.609,3.609,0,0,0-.365-1.755c-.093-.13-.162-.289-.34-.321s-.129.3-.328.245c-.316-.533.05-1.008.062-1.5,0-.012,0-.025-.007-.037l-.039.013c-.551.976-.5,1.506.212,1.951.155-.171-.119-.4.053-.546.781.571.228,1.605.735,2.313.8-.767-.028-1.642.291-2.5.081.349-.044.67.265.839.183-.73.661-1.466-.064-2.165h-.037l-.008.006" transform="translate(-73.477 -162.792)" fill="#fdd05d"/>
        <path id="Trazado_600353" data-name="Trazado 600353" d="M92.112,194.815a.724.724,0,0,0,.364-.493.59.59,0,0,1-.431.124,3.706,3.706,0,0,1-1.508-.08c.035.18.1.354.14.534a1.1,1.1,0,0,1,1.434-.085" transform="translate(-74.736 -160.407)" fill="#f0725e"/>
        <path id="Trazado_600354" data-name="Trazado 600354" d="M99.922,193.389a.725.725,0,0,1-.364.493l.021.011c.526.006.733-.191.446-.7a.383.383,0,0,1-.1.2" transform="translate(-82.182 -159.474)" fill="#f0725e"/>
        <path id="Trazado_600355" data-name="Trazado 600355" d="M89.9,194.713c-.036-.18-.105-.354-.14-.535a1.285,1.285,0,0,1-.162-.083h0c-.008.257-.015.513.267.651h0l.035-.034" transform="translate(-73.958 -160.22)" fill="#f0725e"/>
        <path id="Trazado_600356" data-name="Trazado 600356" d="M91.981,193.651a.592.592,0,0,0,.431-.123.488.488,0,0,0-.02-.168,10.859,10.859,0,0,1-1.932.119c0,.031.008.062.014.092a3.706,3.706,0,0,0,1.508.08" transform="translate(-74.672 -159.613)" fill="#f0725e"/>
        <path id="Trazado_600357" data-name="Trazado 600357" d="M89.774,194.133c-.006-.031-.01-.061-.014-.092-.049,0-.1.005-.148.01a1.259,1.259,0,0,0,.161.083" transform="translate(-73.973 -160.174)" fill="#f0725e"/>
        <path id="Trazado_600358" data-name="Trazado 600358" d="M101.552,193.388a.383.383,0,0,0,.1-.2h0c-.041.012-.082.02-.123.029a.488.488,0,0,1,.02.168" transform="translate(-83.811 -159.472)" fill="#f0725e"/>
        <path id="Trazado_600359" data-name="Trazado 600359" d="M91.339,196.172l0,.02a3.986,3.986,0,0,1,1.415-.094l.016-.012a1.1,1.1,0,0,0-1.434.085" transform="translate(-75.397 -161.679)" fill="#f0725e"/>
        <path id="Trazado_600360" data-name="Trazado 600360" d="M99.468,197.159h.037l-.021-.011-.016.012" transform="translate(-82.108 -162.739)" fill="#f0725e"/>
        <path id="Trazado_600361" data-name="Trazado 600361" d="M91.174,197.632l-.035.034c.013-.005.026-.008.039-.013l0-.02" transform="translate(-75.232 -163.139)" fill="#f0725e"/>
        <path id="Trazado_600362" data-name="Trazado 600362" d="M59.268,151.773a1.147,1.147,0,0,0,1.14-1.142,1.275,1.275,0,0,0-1.259-1.357,1.068,1.068,0,0,0-1.1,1.142,1.191,1.191,0,0,0,1.221,1.358" transform="translate(-47.916 -123.221)" fill="#55bfe9"/>
      </g>
    </g>
  </g>
</svg>
