<svg xmlns="http://www.w3.org/2000/svg" xmlns:xlink="http://www.w3.org/1999/xlink" width="85" height="85" viewBox="0 0 85 85">
  <defs>
    <clipPath id="clip-path">
      <rect id="Rectángulo_300825" data-name="Rectángulo 300825" width="55.448" height="55.479" fill="none"/>
    </clipPath>
  </defs>
  <g id="Grupo_886495" data-name="Grupo 886495" transform="translate(-671 -14322.487)">
    <g id="Elipse_6610" data-name="Elipse 6610" transform="translate(671 14322.487)" fill="#fff" stroke="#72e0fa" stroke-width="1">
      <circle cx="42.5" cy="42.5" r="42.5" stroke="none"/>
      <circle cx="42.5" cy="42.5" r="42" fill="none"/>
    </g>
    <g id="Grupo_886137" data-name="Grupo 886137" transform="translate(686 14337.487)">
      <g id="Grupo_886136" data-name="Grupo 886136" clip-path="url(#clip-path)">
        <path id="Trazado_601857" data-name="Trazado 601857" d="M55.2,371.7c.412-.574.182-1.079-.528-1.15-.318-.032-.64.016-.958-.041a.383.383,0,0,1-.22-.116H46.939l-3.361,0q-11.344,0-22.688.008c-.221,0-.434.008-.562-.217-.064.287-.3.212-.481.213-2.127,0-4.255-.012-6.382.014-.33,0-.456-.088-.5-.283-.063.408-.279.444-.993.444q-4.618,0-9.236,0a4.666,4.666,0,0,0-2.561.366v.541l.541.541H55.055c-.043-.149.076-.223.146-.321" transform="translate(-0.151 -316.57)" fill="#c8bec7"/>
        <path id="Trazado_601858" data-name="Trazado 601858" d="M2.738,299.85q4.618,0,9.236,0c.715,0,.93-.036.994-.444a1.309,1.309,0,0,1-.023-.285c.011-3.678.007-7.355.006-11.033,0-.216-.013-.432-.021-.647h0a1.028,1.028,0,0,0-.074.632c0,3.66-.011,7.319.007,10.979,0,.481-.107.642-.62.639-3.641-.023-7.283,0-10.924-.021a1.2,1.2,0,0,0-1.141.55,4.666,4.666,0,0,1,2.561-.366" transform="translate(-0.151 -245.845)" fill="#c8bec7"/>
        <path id="Trazado_601859" data-name="Trazado 601859" d="M370.7,372.526a.91.91,0,0,0-1.041-.561c-.321.015-.642,0-.963,0h-.046a.384.384,0,0,0,.219.116c.318.056.64.009.958.041.71.071.94.576.528,1.15-.07.1-.189.172-.146.321.354-.268.675-.562.49-1.066" transform="translate(-315.304 -318.138)" fill="#c8bec7"/>
        <path id="Trazado_601860" data-name="Trazado 601860" d="M.025,379.484q-.146.687.541.541a.672.672,0,0,1-.541-.541" transform="translate(0 -324.572)" fill="#faf9fa"/>
        <path id="Trazado_601861" data-name="Trazado 601861" d="M.717,380.025l-.541-.541a.672.672,0,0,0,.541.541" transform="translate(-0.151 -324.572)" fill="#faf9fa"/>
        <path id="Trazado_601862" data-name="Trazado 601862" d="M127.579,32.794h0c.479-.2.954-.42,1.438-.612a5.011,5.011,0,0,0,2.573-2.42h0a6.582,6.582,0,0,0,.332-1.845c-.526-.371-1.1-.658-1.6-1.078a6.91,6.91,0,0,1-2.63-5.492c-.009-2.234,0-4.468-.009-6.7,0-.344.083-.531.455-.583a21,21,0,0,0,10.258-4.431,21.762,21.762,0,0,0,4.944-5.642q.108-.176.214-.353l-.013-.01a11.576,11.576,0,0,0-6.983-2.407,11.418,11.418,0,0,0-7.716,2.629,11.5,11.5,0,0,0-4.461,9.054c-.022,1.244-.012,2.489,0,3.733a9.875,9.875,0,0,1-2.293,6.545,5.71,5.71,0,0,0,3.33,9.354c.711.139,1.441,0,2.14.207a.508.508,0,0,1,.006.052h.019" transform="translate(-103.204 -1.04)" fill="#c49090"/>
        <path id="Trazado_601863" data-name="Trazado 601863" d="M124.644,31.582a5.71,5.71,0,0,1-3.33-9.354,9.875,9.875,0,0,0,2.293-6.545c-.011-1.244-.02-2.489,0-3.733A11.5,11.5,0,0,1,128.069,2.9,11.418,11.418,0,0,1,135.785.268a11.576,11.576,0,0,1,6.983,2.407l.013.01.065-.107h0a1.477,1.477,0,0,0-.189-.19,11.988,11.988,0,0,0-9.21-2.094,11.7,11.7,0,0,0-6.9,3.828,11.555,11.555,0,0,0-3.087,7.574c-.039,1.351-.018,2.7-.01,4.056a9.7,9.7,0,0,1-2.315,6.463,5.848,5.848,0,0,0,2.268,9.18,9.1,9.1,0,0,0,3.384.448c0-.016,0-.033-.006-.052-.7-.2-1.429-.068-2.14-.207" transform="translate(-102.434 -0.088)" fill="#c49090"/>
        <path id="Trazado_601864" data-name="Trazado 601864" d="M15.967,18.134c.03-.154-.112-.259-.234-.337a1.922,1.922,0,0,1-.4-2.8,8.737,8.737,0,0,0,1.758-4.654,8.445,8.445,0,0,0-1.414-5.441,8.465,8.465,0,0,0-4.466-3.452c-.319-.111-.634-.235-.951-.353l-.42.083a8.771,8.771,0,0,0-6.678,10.34,8.788,8.788,0,0,0,8.652,6.9c1.438-.031,2.879-.034,4.321.042a12.479,12.479,0,0,0,2.9-.054l-2.753-.019c-.175,0-.373.051-.312-.26M8.427,10.508a.819.819,0,0,1-.852-.787.872.872,0,0,1,.814-.841.858.858,0,0,1,.851.8.82.82,0,0,1-.814.827m3.242,0a.792.792,0,0,1-.773-.8.821.821,0,0,1,.815-.829.833.833,0,0,1,.807.842.807.807,0,0,1-.849.786m2.5-.808a.864.864,0,0,1,.837-.819.819.819,0,0,1,.784.852.752.752,0,0,1-.837.774.825.825,0,0,1-.784-.807" transform="translate(-2.536 -0.941)" fill="#7ac9a5"/>
        <path id="Trazado_601865" data-name="Trazado 601865" d="M89.1,232.762q.01,5,0,10.006c0,.18.011.361,0,.541-.026.443.183.6.614.6,1.154-.011,2.308.011,3.461-.008a19.294,19.294,0,0,0,3.125-.09c-.249-2.336-.5-4.671-.745-7.007-.2-1.891-.415-3.78-.557-5.676a1.554,1.554,0,0,1,1.74-1.775c.828,0,1.657-.032,2.483.01.509.026.7-.107.669-.644-.045-.9-.015-1.8-.01-2.7a.942.942,0,0,1,.076-.578l.022.033h0a.356.356,0,0,1-.023-.034q0-1.5-.01-3.005c-2.062.894-4.12,1.8-6.183,2.689a7.141,7.141,0,0,0-4.71,6.517,2.129,2.129,0,0,1-.046.327,1.467,1.467,0,0,1,.088.793" transform="translate(-76.127 -190.249)" fill="#8694dd"/>
        <path id="Trazado_601866" data-name="Trazado 601866" d="M88.455,231.085a7.141,7.141,0,0,1,4.71-6.517c2.063-.893,4.121-1.795,6.183-2.689,0-.031,0-.063,0-.094h0a1.459,1.459,0,0,0-.258.06c-2.143.928-4.308,1.811-6.421,2.8a7.1,7.1,0,0,0-4.36,6.637h0a.629.629,0,0,1,.1.127,2.127,2.127,0,0,0,.046-.327" transform="translate(-75.53 -189.691)" fill="#8694dd"/>
        <path id="Trazado_601867" data-name="Trazado 601867" d="M95.925,300.159a19.292,19.292,0,0,1-3.125.09c-1.153.019-2.308,0-3.461.008-.432,0-.64-.156-.614-.6.011-.179,0-.36,0-.541q0-5,0-10.006a1.467,1.467,0,0,0-.088-.793c0,.016-.005.032-.009.048a13.09,13.09,0,0,0-.026,1.512q-.006,4.861,0,9.722a3.9,3.9,0,0,1-.026.556c.044.2.17.287.5.283,2.127-.026,4.254-.01,6.382-.014.184,0,.417.074.481-.213h0l-.006-.054" transform="translate(-75.753 -246.598)" fill="#8694dd"/>
        <path id="Trazado_601868" data-name="Trazado 601868" d="M88.324,299.119a1.31,1.31,0,0,0,.023.285,3.939,3.939,0,0,0,.026-.556q0-4.861,0-9.722a13.119,13.119,0,0,1,.026-1.512c0-.016.006-.032.009-.048a.628.628,0,0,0-.1-.127c.007.216.021.432.021.647,0,3.678.006,7.355-.006,11.033" transform="translate(-75.53 -245.846)" fill="#8694dd"/>
        <path id="Trazado_601869" data-name="Trazado 601869" d="M292.549,225.035h0q.017,2.051.033,4.1l1.5,0h0c.919,0,1.839-.017,2.758,0a1.652,1.652,0,0,1,1.553,1.679c-.14,1.5-.34,2.99-.5,4.487-.162,1.515-.3,3.033-.458,4.548-.123,1.176-.263,2.351-.393,3.526-.012.108-.018.216-.024.324,1.994-.032,3.988-.01,5.982-.011a.959.959,0,0,1,.532.111,1.9,1.9,0,0,1-.076-.8c0-3.731.017-7.462-.008-11.193a7.036,7.036,0,0,0-4.454-6.857c-2.121-.949-4.274-1.827-6.4-2.766q-.021,1.426-.042,2.851" transform="translate(-250.216 -190.033)" fill="#8694dd"/>
        <path id="Trazado_601870" data-name="Trazado 601870" d="M299.242,223.986a7.036,7.036,0,0,1,4.454,6.857c.025,3.731,0,7.462.008,11.193a1.9,1.9,0,0,0,.076.8.593.593,0,0,1,.077.057c0-4.072.035-8.144-.013-12.215a7.073,7.073,0,0,0-4.413-6.776c-2.174-1-4.389-1.9-6.586-2.847h0q0,.081,0,.163c2.126.939,4.279,1.818,6.4,2.766" transform="translate(-250.467 -189.07)" fill="#8694dd"/>
        <path id="Trazado_601871" data-name="Trazado 601871" d="M329.87,370.89a.958.958,0,0,0-.532-.111c-1.994,0-3.988-.021-5.982.011,0,.053-.006.106-.01.159H329.9l-.01-.01c-.008-.016-.014-.032-.021-.048" transform="translate(-276.557 -317.121)" fill="#8694dd"/>
        <path id="Trazado_601872" data-name="Trazado 601872" d="M368.454,371.634l.01.01h.046a.587.587,0,0,0-.077-.057c.007.016.013.032.021.048" transform="translate(-315.12 -317.817)" fill="#8694dd"/>
        <path id="Trazado_601873" data-name="Trazado 601873" d="M265.115,108.085a5.693,5.693,0,0,0,3.826-9.006,13,13,0,0,1-1.528-2.353,9.072,9.072,0,0,1-.905-3.917c.02-1.1,0-2.2,0-3.3h0a5.589,5.589,0,0,1-2.4.2,7.649,7.649,0,0,0-1.023-.02c0,.986-.007,1.972,0,2.958a3.226,3.226,0,0,1-.1.954h0a8.4,8.4,0,0,1,.086,2.181,2.68,2.68,0,0,1-.092,1.276c.244.388.017.776-.058,1.132a7.115,7.115,0,0,1-3.742,4.988.726.726,0,0,0-.338.255h0a4.6,4.6,0,0,0,1.319,3.249,10.507,10.507,0,0,0,3.141,1.631h0c0-.009,0-.017,0-.027a5.589,5.589,0,0,1,1.808-.2" transform="translate(-221.389 -76.556)" fill="#c49090"/>
        <path id="Trazado_601874" data-name="Trazado 601874" d="M292.891,89.292c0,1.1.015,2.2,0,3.3a9.069,9.069,0,0,0,.905,3.917,13,13,0,0,0,1.528,2.353,5.693,5.693,0,0,1-3.825,9.006,5.588,5.588,0,0,0-1.808.2c0,.01,0,.017,0,.027.4-.006.792-.01,1.187-.02a5.907,5.907,0,0,0,5.726-5.862,6.147,6.147,0,0,0-1.525-3.937,8.963,8.963,0,0,1-2.046-5.778c0-1.08-.005-2.16-.008-3.24-.043.013-.086.024-.129.036h0" transform="translate(-247.767 -76.34)" fill="#c49090"/>
        <path id="Trazado_601875" data-name="Trazado 601875" d="M165.052,202.364a.546.546,0,0,1,.112.371,22.381,22.381,0,0,1-.035,2.64c-.005.028-.008.055-.013.083.961.22,1.918.458,2.884.649a41,41,0,0,0,4.259.533,25.838,25.838,0,0,0,4.195-.048,29.23,29.23,0,0,0,6.275-1.151l.624-.186c0-.013,0-.026,0-.04-.024-.791-.009-1.583-.006-2.374a.955.955,0,0,1,.094-.527c-.165-.069-.36-.11-.354-.352h0a5.44,5.44,0,0,1-2.1-.761,3.809,3.809,0,0,1-1.113-.786,1.689,1.689,0,0,1-.883.343,15.37,15.37,0,0,1-3.7.23,8.283,8.283,0,0,1-3.178-.438,6.216,6.216,0,0,1-2.491-1.543c-.727,1.643-2.185,2.383-3.77,2.962a.346.346,0,0,1-.312-.005c-.005.006-.012.009-.017.015.012.3-.327.245-.474.385" transform="translate(-141.169 -170.21)" fill="#fecdbe"/>
        <path id="Trazado_601876" data-name="Trazado 601876" d="M290.045,219.79a.484.484,0,0,1,.1-.118h0a.822.822,0,0,1-.458-.234c-.006.242.189.283.354.352" transform="translate(-247.772 -187.685)" fill="#fecdbe"/>
        <path id="Trazado_601877" data-name="Trazado 601877" d="M164.665,219.929c.147-.141.486-.081.474-.385-.155.149-.417.123-.539.324h0a.4.4,0,0,1,.065.061" transform="translate(-140.782 -187.775)" fill="#fecdbe"/>
        <path id="Trazado_601878" data-name="Trazado 601878" d="M172.457,198.489a5.012,5.012,0,0,1-2.573,2.42c-.484.192-.959.408-1.438.612a.346.346,0,0,0,.312.005c1.585-.58,3.042-1.319,3.77-2.962-.023-.026-.048-.049-.071-.075" transform="translate(-144.071 -169.767)" fill="#fecdbe"/>
        <path id="Trazado_601879" data-name="Trazado 601879" d="M164.634,225.278l.1.022c0-.028.007-.056.013-.083a22.412,22.412,0,0,0,.035-2.64.547.547,0,0,0-.112-.371l-.011.01-.055.024q.005,1.5.01,3.005a.364.364,0,0,0,.023.034" transform="translate(-140.783 -190.052)" fill="#fecdbe"/>
        <path id="Trazado_601880" data-name="Trazado 601880" d="M164.655,221.855l.011-.01a.4.4,0,0,0-.065-.061c0,.031,0,.063,0,.094l.055-.024" transform="translate(-140.782 -189.692)" fill="#fecdbe"/>
        <path id="Trazado_601881" data-name="Trazado 601881" d="M291.6,224.769q.021-1.426.042-2.851l-.051-.022-.051-.022a.954.954,0,0,0-.094.527c0,.791-.018,1.583.006,2.374,0,.013,0,.026,0,.04l.148-.044" transform="translate(-249.267 -189.767)" fill="#fecdbe"/>
        <path id="Trazado_601882" data-name="Trazado 601882" d="M292.138,221.175c.017.007.034.014.051.023l.051.022q0-.081,0-.163a.484.484,0,0,0-.1.118" transform="translate(-249.865 -189.07)" fill="#fecdbe"/>
        <path id="Trazado_601883" data-name="Trazado 601883" d="M267.563,208.166h0a.7.7,0,0,1-.07.083,3.8,3.8,0,0,0,1.113.786,5.439,5.439,0,0,0,2.1.761h0a10.5,10.5,0,0,1-3.142-1.631" transform="translate(-228.786 -178.044)" fill="#fecdbe"/>
        <path id="Trazado_601884" data-name="Trazado 601884" d="M243.606,24.426a7.785,7.785,0,0,0,4.2,3.762,21.336,21.336,0,0,0,2.228.643.962.962,0,0,1,.816-.135,8.672,8.672,0,0,0,2.338-.1,1.145,1.145,0,0,1,.292-.015,12.219,12.219,0,0,0-1.816-7.044,11.147,11.147,0,0,0-2.883-3.176,1.259,1.259,0,0,1-.274.5,22.092,22.092,0,0,1-4.9,5.555" transform="translate(-208.356 -15.708)" fill="#b88080"/>
        <path id="Trazado_601885" data-name="Trazado 601885" d="M279.291,17.376a11.149,11.149,0,0,1,2.883,3.176,12.219,12.219,0,0,1,1.816,7.043.4.4,0,0,1,.127.038,12.033,12.033,0,0,0-.858-5.258,11.446,11.446,0,0,0-3.983-5.168.426.426,0,0,1,.015.168" transform="translate(-238.864 -14.718)" fill="#b88080"/>
        <path id="Trazado_601886" data-name="Trazado 601886" d="M248.141,18.511a1.258,1.258,0,0,0,.274-.5c-.027-.02-.053-.041-.08-.061q-.107.177-.214.353a21.761,21.761,0,0,1-4.944,5.642c.02.043.042.084.062.126a22.088,22.088,0,0,0,4.9-5.555" transform="translate(-207.988 -15.348)" fill="#b88080"/>
        <path id="Trazado_601887" data-name="Trazado 601887" d="M278.827,17.315c.027.02.053.041.08.061a.426.426,0,0,0-.015-.168l-.065.107" transform="translate(-238.48 -14.718)" fill="#b88080"/>
        <path id="Trazado_601888" data-name="Trazado 601888" d="M291.188,88.976a8.673,8.673,0,0,1-2.338.1.961.961,0,0,0-.816.135l.024.007a7.6,7.6,0,0,1,1.023.02,5.591,5.591,0,0,0,2.4-.2c0-.025,0-.05,0-.075a1.145,1.145,0,0,0-.292.015" transform="translate(-246.355 -76.083)" fill="#b88080"/>
        <path id="Trazado_601889" data-name="Trazado 601889" d="M311.838,89.065c.043-.012.086-.023.129-.036a.4.4,0,0,0-.127-.038c0,.025,0,.05,0,.075" transform="translate(-266.714 -76.113)" fill="#b88080"/>
        <path id="Trazado_601890" data-name="Trazado 601890" d="M53.354.159h0a7.914,7.914,0,0,1,4.667,2.607,8.566,8.566,0,0,1,2.362,5.721,8.738,8.738,0,0,1-1.725,5.521,1.936,1.936,0,0,0-.341,2.021c.209.5.729.739.963,1.218.061.125.267.068.408.069.613,0,1.225,0,1.838,0,.21,0,.439-.039.6.152.44-.18.327-.41.03-.606-.374-.247-.773-.459-1.159-.689-.753-.448-.759-.5-.13-1.116A8.734,8.734,0,0,0,53.354.159" transform="translate(-45.634 0)" fill="#57bd91"/>
        <path id="Trazado_601891" data-name="Trazado 601891" d="M61.525,18.26c-.613-.008-1.225,0-1.838,0-.142,0-.348.056-.408-.069-.234-.479-.753-.716-.963-1.218a1.936,1.936,0,0,1,.341-2.021,8.738,8.738,0,0,0,1.725-5.521,8.566,8.566,0,0,0-2.362-5.721A7.914,7.914,0,0,0,53.355,1.1c.317.118.631.242.951.353a8.465,8.465,0,0,1,4.466,3.452,8.444,8.444,0,0,1,1.414,5.441A8.736,8.736,0,0,1,58.428,15a1.922,1.922,0,0,0,.4,2.8c.121.078.264.183.234.337-.061.311.138.259.312.26l2.753.019c-.166-.191-.394-.149-.6-.152" transform="translate(-45.634 -0.941)" fill="#57bd91"/>
        <path id="Trazado_601892" data-name="Trazado 601892" d="M156.673,276.624c.123-1.153.227-2.309.348-3.462.095-.9.2-1.807.3-2.71a1.773,1.773,0,0,0-.75-1.926.34.34,0,0,1-.082-.078l-.159,0c-.507-.045-1.036.126-1.518-.156l-.009-.015q-8.959,0-17.918.013c-.347,0-.5-.078-.538-.345-.082.5-.352.5-1.331.5-.667,0-1.335-.016-2,.006a1.393,1.393,0,0,0-1.476,1.51c.022,1.281.241,2.547.373,3.819q.434,4.2.894,8.388a.8.8,0,0,1-.087.568,7.434,7.434,0,0,0,1.307.09q10.648,0,21.3,0a4.622,4.622,0,0,1,.594.015h.049c.168-.842.18-1.7.291-2.552.158-1.22.286-2.443.417-3.667m-10.667,1.726a2.334,2.334,0,0,1-2.307-2.343,2.3,2.3,0,0,1,2.3-2.292,2.226,2.226,0,0,1,2.258,2.309,2.283,2.283,0,0,1-2.25,2.325" transform="translate(-112.506 -229.174)" fill="#eeecee"/>
        <path id="Trazado_601893" data-name="Trazado 601893" d="M162.68,370.282a4.612,4.612,0,0,0-.594-.015q-10.648,0-21.3,0a7.434,7.434,0,0,1-1.307-.09.5.5,0,0,1-.037.049c.128.225.341.217.562.217q11.344-.007,22.688-.008c.012-.052.021-.1.031-.155h-.048" transform="translate(-119.27 -316.612)" fill="#eeecee"/>
        <path id="Trazado_601894" data-name="Trazado 601894" d="M131.8,261.01q-.467-4.192-.894-8.388c-.132-1.272-.351-2.538-.373-3.819a1.393,1.393,0,0,1,1.476-1.511c.667-.022,1.335-.006,2-.006.979,0,1.249,0,1.331-.5a1.173,1.173,0,0,1-.011-.2c.031-1.115.014-2.232.016-3.348h0l-.022-.033a.944.944,0,0,0-.076.578c0,.9-.034,1.8.01,2.7.027.538-.16.67-.669.645-.826-.042-1.655-.014-2.483-.01a1.554,1.554,0,0,0-1.74,1.775c.142,1.9.361,3.785.557,5.676.243,2.336.5,4.672.745,7.007h.005l.037.005a.8.8,0,0,0,.087-.568" transform="translate(-111.497 -208.013)" fill="#eeecee"/>
        <path id="Trazado_601895" data-name="Trazado 601895" d="M139.449,370.146l-.037-.006h-.005l.006.054h0a.564.564,0,0,0,.037-.049" transform="translate(-119.234 -316.58)" fill="#eeecee"/>
        <path id="Trazado_601896" data-name="Trazado 601896" d="M292.334,270.255c.482.282,1.011.112,1.518.156l.159,0c-.043-.052-.08-.114-.122-.166h0l-1.5,0h-.066l.009.015" transform="translate(-250.025 -231.136)" fill="#eeecee"/>
        <path id="Trazado_601897" data-name="Trazado 601897" d="M304.218,285.35c.373-3.451.727-6.9,1.1-10.355.072-.662.143-1.323.206-1.986a1.5,1.5,0,0,0-1.463-1.649c-.792-.016-1.584-.013-2.377,0a1.748,1.748,0,0,1,.825,1.892c-.4,3.544-.738,7.1-1.142,10.639-.053.465-.1.931-.137,1.4a.981.981,0,0,1-.125.466c1.041-.016,2.083-.02,3.124,0a.932.932,0,0,1-.016-.4" transform="translate(-257.539 -232.084)" fill="#e4e0e4"/>
        <path id="Trazado_601898" data-name="Trazado 601898" d="M300.266,370.8a.593.593,0,0,1-.143.157l3.36,0a.455.455,0,0,1-.093-.16c-1.041-.02-2.083-.016-3.124,0" transform="translate(-256.694 -317.134)" fill="#e4e0e4"/>
        <path id="Trazado_601899" data-name="Trazado 601899" d="M306.481,280.919c.159-1.515.3-3.033.458-4.548.16-1.5.36-2.989.5-4.487a1.652,1.652,0,0,0-1.553-1.679c-.919-.014-1.838,0-2.758,0,.1.053.2.108.286.165.793-.009,1.585-.011,2.377,0a1.5,1.5,0,0,1,1.463,1.649c-.063.663-.133,1.324-.206,1.986-.377,3.451-.732,6.9-1.1,10.355a.931.931,0,0,0,.016.4h.1c.006-.108.013-.217.024-.324.13-1.175.27-2.35.393-3.526" transform="translate(-259.265 -231.101)" fill="#e4e0e4"/>
        <path id="Trazado_601900" data-name="Trazado 601900" d="M322.8,370.883h-.1a.451.451,0,0,0,.093.16c0-.053.007-.106.01-.159H322.8" transform="translate(-276.005 -317.214)" fill="#e4e0e4"/>
        <path id="Trazado_601901" data-name="Trazado 601901" d="M300.708,283.928c.4-3.544.742-7.095,1.143-10.639a1.748,1.748,0,0,0-.825-1.892l-.164,0a.337.337,0,0,0,.082.078,1.773,1.773,0,0,1,.75,1.926c-.1.9-.209,1.806-.3,2.71-.121,1.154-.225,2.309-.348,3.462-.13,1.223-.258,2.447-.416,3.666-.11.849-.122,1.71-.291,2.552h.112a.978.978,0,0,0,.125-.466c.033-.467.084-.934.137-1.4" transform="translate(-256.876 -232.125)" fill="#e4e0e4"/>
        <path id="Trazado_601902" data-name="Trazado 601902" d="M300.266,370.88h-.112c-.01.052-.019.1-.031.155a.593.593,0,0,0,.143-.157" transform="translate(-256.694 -317.213)" fill="#e4e0e4"/>
        <path id="Trazado_601903" data-name="Trazado 601903" d="M303.25,270.427l.164,0c-.088-.057-.183-.112-.286-.164.043.052.08.114.122.166" transform="translate(-259.265 -231.154)" fill="#e4e0e4"/>
        <path id="Trazado_601904" data-name="Trazado 601904" d="M177.312,79.429a30.831,30.831,0,0,0,4.2-.121c.5-.092.977-.263,1.464-.4v0c.074-.251.288-.352.492-.47a7.119,7.119,0,0,0,3.673-5.6,1.1,1.1,0,0,0-.007-.252,8.459,8.459,0,0,1-4.593,2.95,2.234,2.234,0,0,1-2.032.759c-.429-.038-.864,0-1.3-.01a1.641,1.641,0,0,1-1.618-1.62,1.587,1.587,0,0,1,1.62-1.543c.63-.012,1.26,0,1.89,0a1.48,1.48,0,0,1,1.325.688,5.449,5.449,0,0,0,2.692-1.479,7.393,7.393,0,0,0,1.993-3.023c-.007-.1-.013-.208-.022-.313.071-1.013.03-2.028.043-3.042a1.6,1.6,0,0,1,.106-.784c.01-.01.021-.017.031-.026a5.124,5.124,0,0,1-2.247-.528,8.08,8.08,0,0,1-4.091-3.419,1.021,1.021,0,0,1-.182-.386,21.2,21.2,0,0,1-9.642,4.294l-.213.039c-.645.116-.657.126-.658.806,0,2.2,0,4.4,0,6.594a6.084,6.084,0,0,0,.4,2.112,7.189,7.189,0,0,0,3.231,3.784c.2.118.429.2.535.434,0,.007,0,.014,0,.021a6.3,6.3,0,0,1,.831.289,7.193,7.193,0,0,0,2.074.252" transform="translate(-145.604 -52.006)" fill="#fecdbe"/>
        <path id="Trazado_601905" data-name="Trazado 601905" d="M173.462,77.644c-.106-.234-.336-.317-.535-.434a7.189,7.189,0,0,1-3.231-3.784,6.083,6.083,0,0,1-.4-2.112c0-2.2,0-4.4,0-6.594,0-.68.013-.691.658-.806l.213-.039a21.2,21.2,0,0,0,9.642-4.294.362.362,0,0,1,.04-.207A21,21,0,0,1,169.593,63.8c-.371.052-.457.239-.455.583.012,2.234,0,4.468.009,6.7a6.91,6.91,0,0,0,2.63,5.491c.5.42,1.077.707,1.6,1.078a.757.757,0,0,1,.086.006c0-.007,0-.014,0-.021" transform="translate(-144.663 -50.782)" fill="#fecdbe"/>
        <path id="Trazado_601906" data-name="Trazado 601906" d="M262.426,141.988a7.119,7.119,0,0,1-3.673,5.6c-.2.118-.418.219-.491.469v0l.087-.025h0a.728.728,0,0,1,.338-.255,7.115,7.115,0,0,0,3.742-4.988c.075-.356.3-.744.058-1.132h0l-.067.078a1.1,1.1,0,0,1,.007.252" transform="translate(-220.89 -121.16)" fill="#fecdbe"/>
        <path id="Trazado_601907" data-name="Trazado 601907" d="M286.867,90.763a1.6,1.6,0,0,0-.106.784c-.013,1.014.029,2.029-.043,3.042.009.1.016.208.022.313.031-.085.064-.169.092-.255h0a3.224,3.224,0,0,0,.1-.954c0-.986,0-1.972,0-2.957h0l-.034,0c-.01.009-.021.016-.031.026" transform="translate(-245.229 -77.605)" fill="#fecdbe"/>
        <path id="Trazado_601908" data-name="Trazado 601908" d="M247.174,64.132a5.127,5.127,0,0,0,2.247.528l.01-.009a21.346,21.346,0,0,1-2.228-.643,7.785,7.785,0,0,1-4.2-3.762l-.033.028-.069.053a1.023,1.023,0,0,0,.182.386,8.081,8.081,0,0,0,4.091,3.419" transform="translate(-207.753 -51.528)" fill="#fecdbe"/>
        <path id="Trazado_601909" data-name="Trazado 601909" d="M242.89,59.58l.069-.053.033-.028c-.021-.042-.042-.083-.062-.126a.362.362,0,0,0-.04.207" transform="translate(-207.741 -50.782)" fill="#fecdbe"/>
        <path id="Trazado_601910" data-name="Trazado 601910" d="M287.962,90.7l.034,0-.024-.007-.01.009" transform="translate(-246.293 -77.564)" fill="#fecdbe"/>
        <path id="Trazado_601911" data-name="Trazado 601911" d="M205.7,186.1a4.306,4.306,0,0,1-2.255.64c-1.35.038-2.7.047-4.053,0a3.984,3.984,0,0,1-2.245-.616,3.56,3.56,0,0,1-.305,1.73c-.01.024-.021.045-.031.069a2.421,2.421,0,0,1,.627.433,7.1,7.1,0,0,0,4.332,1.435,27.081,27.081,0,0,0,3.721-.088c.516-.071.993-.268,1.495-.379a4.127,4.127,0,0,1-1.284-3.22" transform="translate(-168.33 -159.168)" fill="#feaf9d"/>
        <path id="Trazado_601912" data-name="Trazado 601912" d="M196.286,187.538a3.563,3.563,0,0,0,.305-1.73c-.033-.024-.066-.047-.1-.073a6.576,6.576,0,0,1-.332,1.845h0a.717.717,0,0,1,.094.026c.01-.023.022-.045.031-.069" transform="translate(-167.776 -158.86)" fill="#feaf9d"/>
        <path id="Trazado_601913" data-name="Trazado 601913" d="M259.431,188.988c.041-.009.082-.019.124-.027a4.6,4.6,0,0,1-1.319-3.249h0c-.029.02-.06.036-.089.056a4.126,4.126,0,0,0,1.284,3.22" transform="translate(-220.778 -158.839)" fill="#feaf9d"/>
        <path id="Trazado_601914" data-name="Trazado 601914" d="M206.852,200.069c-.5.111-.978.308-1.495.379a27.057,27.057,0,0,1-3.721.088A7.1,7.1,0,0,1,197.3,199.1a2.42,2.42,0,0,0-.627-.433l-.022.049a6.217,6.217,0,0,0,2.491,1.543,8.288,8.288,0,0,0,3.178.438,15.376,15.376,0,0,0,3.7-.23,1.688,1.688,0,0,0,.883-.342l-.027-.026-.027-.031" transform="translate(-168.199 -169.92)" fill="#feaf9d"/>
        <path id="Trazado_601915" data-name="Trazado 601915" d="M196.162,198.489c.023.026.048.049.071.075l.022-.049a.741.741,0,0,0-.094-.026" transform="translate(-167.777 -169.767)" fill="#feaf9d"/>
        <path id="Trazado_601916" data-name="Trazado 601916" d="M267.244,208.166c-.042.008-.083.018-.124.027l.027.031.027.026a.7.7,0,0,0,.07-.083" transform="translate(-228.467 -178.044)" fill="#feaf9d"/>
        <path id="Trazado_601917" data-name="Trazado 601917" d="M205.357,186.466a4.305,4.305,0,0,0,2.255-.64c0-.01,0-.02,0-.03a15.151,15.151,0,0,1-1.464.4,30.835,30.835,0,0,1-4.2.121,7.183,7.183,0,0,1-2.074-.252,6.292,6.292,0,0,0-.831-.289c0,.022.009.044.013.066a3.984,3.984,0,0,0,2.245.617c1.35.051,2.7.041,4.053,0" transform="translate(-170.244 -158.897)" fill="#feaf9d"/>
        <path id="Trazado_601918" data-name="Trazado 601918" d="M198.54,185.742a.76.76,0,0,0-.086-.006c.032.025.065.049.1.073,0-.022-.008-.044-.013-.066" transform="translate(-169.737 -158.86)" fill="#feaf9d"/>
        <path id="Trazado_601919" data-name="Trazado 601919" d="M258.246,185.769c.03-.019.06-.036.089-.056l-.087.025c0,.01,0,.02,0,.03" transform="translate(-220.877 -158.84)" fill="#feaf9d"/>
        <path id="Trazado_601920" data-name="Trazado 601920" d="M35.638,54.86a.872.872,0,0,0-.814.841.833.833,0,0,0,1.665-.04.858.858,0,0,0-.851-.8" transform="translate(-29.785 -46.921)" fill="#fdfefd"/>
        <path id="Trazado_601921" data-name="Trazado 601921" d="M58.588,54.86a.821.821,0,0,0-.815.829.792.792,0,0,0,.773.8A.807.807,0,0,0,59.4,55.7a.833.833,0,0,0-.807-.842" transform="translate(-49.413 -46.921)" fill="#fdfefd"/>
        <path id="Trazado_601922" data-name="Trazado 601922" d="M82.011,55.716a.819.819,0,0,0-.784-.852.864.864,0,0,0-.837.819.825.825,0,0,0,.784.807.752.752,0,0,0,.837-.775" transform="translate(-68.757 -46.925)" fill="#fdfefd"/>
        <path id="Trazado_601923" data-name="Trazado 601923" d="M165.47,243.885c.007.757,0,1.514,0,2.271.006.66.052.712.705.715,1.911.007,3.821,0,5.731,0q5.488,0,10.976,0a1.694,1.694,0,0,1,.832.1,1.3,1.3,0,0,1-.084-.591c0-1.088-.013-2.177.006-3.265a1.555,1.555,0,0,1-.54.193,34.22,34.22,0,0,1-7.287,1.213,32.582,32.582,0,0,1-9.53-.963,3.559,3.559,0,0,1-.87-.29c-.007,0-.012-.011-.019-.016,0,.011,0,.021,0,.032a1.311,1.311,0,0,1,.079.6" transform="translate(-141.459 -207.94)" fill="#fefefe"/>
        <path id="Trazado_601924" data-name="Trazado 601924" d="M164.83,243.449l-.01-.015h0l.011.015" transform="translate(-140.969 -208.209)" fill="#fefefe"/>
        <path id="Trazado_601925" data-name="Trazado 601925" d="M165.133,243.827a.347.347,0,0,1-.049-.041.563.563,0,0,1,.044.073l0-.032" transform="translate(-141.196 -208.51)" fill="#fefefe"/>
        <path id="Trazado_601926" data-name="Trazado 601926" d="M291.446,245.331a1.3,1.3,0,0,0,.084.591.766.766,0,0,1,.105.068q-.017-2.051-.033-4.1a.509.509,0,0,1-.15.178c-.019,1.088-.006,2.177-.006,3.265" transform="translate(-249.269 -206.885)" fill="#fefefe"/>
        <path id="Trazado_601927" data-name="Trazado 601927" d="M165.443,242.479a3.557,3.557,0,0,0,.87.29,32.582,32.582,0,0,0,9.53.963,34.221,34.221,0,0,0,7.287-1.213,1.555,1.555,0,0,0,.54-.193c0-.045,0-.09,0-.134l-.624.186a29.225,29.225,0,0,1-6.275,1.151,25.84,25.84,0,0,1-4.195.048,41.029,41.029,0,0,1-4.259-.533c-.966-.191-1.923-.429-2.884-.649,0,.023-.007.046-.01.069.007,0,.012.011.019.016" transform="translate(-141.487 -207.145)" fill="#fefefe"/>
        <path id="Trazado_601928" data-name="Trazado 601928" d="M164.837,243.451c.01.012.018.024.027.036a.365.365,0,0,0,.049.041c0-.023.007-.046.01-.069l-.1-.022.01.015" transform="translate(-140.976 -208.21)" fill="#fefefe"/>
        <path id="Trazado_601929" data-name="Trazado 601929" d="M291.664,241.887l-.148.044c0,.045,0,.09,0,.134a.511.511,0,0,0,.15-.178" transform="translate(-249.331 -206.885)" fill="#fefefe"/>
        <path id="Trazado_601930" data-name="Trazado 601930" d="M182.364,247.876q-5.488-.005-10.976,0c-1.91,0-3.821,0-5.731,0-.654,0-.7-.055-.705-.715-.007-.757,0-1.514,0-2.271a1.311,1.311,0,0,0-.079-.6,19.629,19.629,0,0,0-.046,2.567,6.591,6.591,0,0,1-.043.856c.038.267.191.346.538.345q8.959-.021,17.918-.013a.652.652,0,0,1-.04-.068,1.694,1.694,0,0,0-.832-.1" transform="translate(-140.936 -208.941)" fill="#fefefe"/>
        <path id="Trazado_601931" data-name="Trazado 601931" d="M164.7,246.782a1.155,1.155,0,0,0,.011.2,6.6,6.6,0,0,0,.043-.857,19.629,19.629,0,0,1,.046-2.567.572.572,0,0,0-.044-.073.349.349,0,0,1-.027-.036l-.011-.015h0c0,1.116.015,2.232-.016,3.348" transform="translate(-140.87 -208.209)" fill="#fefefe"/>
        <path id="Trazado_601932" data-name="Trazado 601932" d="M292.09,269.837h.066a.751.751,0,0,0-.105-.068.641.641,0,0,0,.04.068" transform="translate(-249.79 -230.733)" fill="#fefefe"/>
        <path id="Trazado_601933" data-name="Trazado 601933" d="M164.924,243.573c-.009-.012-.017-.024-.027-.036a.349.349,0,0,0,.027.036" transform="translate(-141.036 -208.297)" fill="#fefefe"/>
        <path id="Trazado_601934" data-name="Trazado 601934" d="M255.415,126.078a.8.8,0,0,1-.512.065,1.694,1.694,0,0,1,.079,1.557,8.918,8.918,0,0,0,4.157-2.6.887.887,0,0,1,.4-.319,1.248,1.248,0,0,1-.009-.17c.012-.9.05-1.8.014-2.7l-.01.026a7.407,7.407,0,0,1-4.121,4.146" transform="translate(-218.018 -104.267)" fill="#7a6d79"/>
        <path id="Trazado_601935" data-name="Trazado 601935" d="M286.9,118.366c.036.9,0,1.8-.014,2.7a1.254,1.254,0,0,0,.009.17.461.461,0,0,1,.073-.015,2.683,2.683,0,0,0,.092-1.276,8.413,8.413,0,0,0-.086-2.181.959.959,0,0,1-.075.6" transform="translate(-245.377 -100.726)" fill="#7a6d79"/>
        <path id="Trazado_601936" data-name="Trazado 601936" d="M257.189,122.55a5.448,5.448,0,0,1-2.692,1.479c.021.026.04.052.059.078a.8.8,0,0,0,.512-.065,7.407,7.407,0,0,0,4.121-4.145l.01-.026q-.007-.172-.017-.344a7.391,7.391,0,0,1-1.993,3.023" transform="translate(-217.671 -102.231)" fill="#7a6d79"/>
        <path id="Trazado_601937" data-name="Trazado 601937" d="M259.447,142.079a8.918,8.918,0,0,1-4.157,2.6l-.027.093a8.459,8.459,0,0,0,4.593-2.95l-.007-.063a.887.887,0,0,0-.4.319" transform="translate(-218.326 -121.247)" fill="#7a6d79"/>
        <path id="Trazado_601938" data-name="Trazado 601938" d="M286.87,118.019q.011.172.017.344a.959.959,0,0,0,.075-.6h0c-.028.086-.061.17-.092.255" transform="translate(-245.359 -100.723)" fill="#7a6d79"/>
        <path id="Trazado_601939" data-name="Trazado 601939" d="M286.961,141.736l.067-.078a.46.46,0,0,0-.073.015c0,.021,0,.042.007.063" transform="translate(-245.432 -121.16)" fill="#7a6d79"/>
        <path id="Trazado_601940" data-name="Trazado 601940" d="M217.856,307.818a2.3,2.3,0,0,0-2.3,2.292,2.334,2.334,0,0,0,2.307,2.343,2.283,2.283,0,0,0,2.25-2.326,2.226,2.226,0,0,0-2.258-2.309" transform="translate(-184.364 -263.276)" fill="#c8bec7"/>
        <path id="Trazado_601941" data-name="Trazado 601941" d="M226.881,149.125a3.267,3.267,0,0,0-.034-1.522.591.591,0,0,1-.067-.028,2.043,2.043,0,0,0-1.633-.554c-.5.035-1.008,0-1.512.009a1.4,1.4,0,0,0-1.473,1.287,1.419,1.419,0,0,0,1.264,1.5c1.182.075,2.428.339,3.438-.613l.032-.01a.1.1,0,0,1-.014-.074" transform="translate(-190.01 -125.741)" fill="#685e68"/>
        <path id="Trazado_601942" data-name="Trazado 601942" d="M225.948,148.226c-1.01.952-2.256.688-3.438.613a1.419,1.419,0,0,1-1.264-1.5,1.4,1.4,0,0,1,1.473-1.287c.5-.01,1.01.026,1.512-.009a2.043,2.043,0,0,1,1.633.554.592.592,0,0,0,.067.028l-.011-.064a1.481,1.481,0,0,0-1.325-.688c-.63,0-1.26-.009-1.89,0a1.587,1.587,0,0,0-1.62,1.543,1.641,1.641,0,0,0,1.618,1.62c.432.015.867-.028,1.3.01a2.234,2.234,0,0,0,2.032-.759.441.441,0,0,1-.052-.068l-.032.01" transform="translate(-189.094 -124.758)" fill="#685e68"/>
        <path id="Trazado_601943" data-name="Trazado 601943" d="M254.608,152.6a.1.1,0,0,0,.014.074l.078-.025a1.694,1.694,0,0,0-.079-1.557c-.016,0-.032-.008-.048-.014a3.267,3.267,0,0,1,.034,1.522" transform="translate(-217.737 -129.22)" fill="#685e68"/>
        <path id="Trazado_601944" data-name="Trazado 601944" d="M254.907,161.966a.44.44,0,0,0,.051.068l.027-.093-.078.025" transform="translate(-218.021 -138.508)" fill="#685e68"/>
        <path id="Trazado_601945" data-name="Trazado 601945" d="M254.556,150.716c-.019-.026-.037-.052-.059-.078l.011.064c.016.006.032.01.048.014" transform="translate(-217.671 -128.84)" fill="#685e68"/>
      </g>
    </g>
  </g>
</svg>
