<svg xmlns="http://www.w3.org/2000/svg" xmlns:xlink="http://www.w3.org/1999/xlink" width="85" height="85" viewBox="0 0 85 85">
  <defs>
    <clipPath id="clip-path">
      <rect id="Rectángulo_300828" data-name="Rectángulo 300828" width="50.333" height="56.376" fill="none"/>
    </clipPath>
  </defs>
  <g id="Grupo_886492" data-name="Grupo 886492" transform="translate(-845 -14136.487)">
    <g id="Elipse_6612" data-name="Elipse 6612" transform="translate(845 14136.487)" fill="#fff" stroke="#72e0fa" stroke-width="1">
      <circle cx="42.5" cy="42.5" r="42.5" stroke="none"/>
      <circle cx="42.5" cy="42.5" r="42" fill="none"/>
    </g>
    <g id="Grupo_886143" data-name="Grupo 886143" transform="translate(862 14151.247)">
      <g id="Grupo_886142" data-name="Grupo 886142" clip-path="url(#clip-path)">
        <path id="Trazado_602107" data-name="Trazado 602107" d="M108.451,228.62a2.915,2.915,0,0,0-3.41.613c-2.392,2.383-4.8,4.749-7.15,7.175a2.518,2.518,0,0,1-2.328,1,3.079,3.079,0,0,1-2.35.977c-2.825.033-5.651.011-8.477.015-.368,0-.719-.061-.718-.5,0-.484.387-.512.768-.512q4.458,0,8.916-.01h0c.05-.035.1-.091.15-.1a3.058,3.058,0,0,0,2.2-3.365,3.111,3.111,0,0,0-3.237-2.569c-1.109.048-2.228-.064-3.332.03a2.764,2.764,0,0,1-2.454-1.017,9.059,9.059,0,0,0-3.722-2.586,11.65,11.65,0,0,0-4.657-.415,7.477,7.477,0,0,0-4.789,2.091c-.63.612-1.286,1.2-1.93,1.794q0,6.1,0,12.2l26.047,0a2.835,2.835,0,0,0,2.113-.794q4.626-4.627,9.252-9.254a2.747,2.747,0,0,0,.818-1.915,3.079,3.079,0,0,0-1.717-2.849" transform="translate(-59.837 -189.071)" fill="#efc79f"/>
        <path id="Trazado_602108" data-name="Trazado 602108" d="M72.606,35.847c-.251,0-.5-.009-.754-.014q0,9.05,0,18.1a1.951,1.951,0,0,0,1.876,2.039c2.2.023,4.4-.007,6.6-.014a1.973,1.973,0,0,1-.65-1.632c.013-.607.061-1.213.082-1.819a2.4,2.4,0,0,0-.81-1.962c-.482-.434-.975-.86-1.424-1.328a1.608,1.608,0,0,1,0-2.578c.434-.452.909-.867,1.38-1.283a2.474,2.474,0,0,0,.852-2.071c-.026-.585-.083-1.171-.081-1.756,0-1.307.573-1.871,1.889-1.876.606,0,1.213.054,1.819.074a2.385,2.385,0,0,0,1.96-.812c.418-.469.839-.936,1.283-1.38a1.859,1.859,0,0,1,1.684-.656h0a2.541,2.541,0,0,1,2.473,1.133c.178.2.353.408.518.622a2.362,2.362,0,0,0,2.332,1.008l1.1,0h0c2.01-.143,2.821.565,2.426,2.866a3.413,3.413,0,0,0,1.562,3.511,2.088,2.088,0,0,1,.209.138c1.461,1.407,1.478,2.187-.043,3.572-.385.351-.79.688-1.142,1.07a2.991,2.991,0,0,0-.547,2.662,2.775,2.775,0,0,1-.573,2.519c1.8,0,3.606.014,5.409.006a1.958,1.958,0,0,0,2.02-2.03q.006-9.058,0-18.116c-2.033.005-4.067.014-6.1.014q-12.673,0-25.346,0" transform="translate(-59.764 -29.807)" fill="#efefef"/>
        <path id="Trazado_602109" data-name="Trazado 602109" d="M72.677,5.838q15.263-.006,30.526,0a1.173,1.173,0,0,1,.837.189c0-1.319.015-2.639,0-3.958A2,2,0,0,0,101.981.005Q87.938,0,73.895.005a1.986,1.986,0,0,0-2.059,2.063c-.011,1.319,0,2.639,0,3.958a1.173,1.173,0,0,1,.837-.189M99.016,2.96a1.006,1.006,0,1,1,.99,1.066,1.012,1.012,0,0,1-.99-1.066M96,2.017a1.006,1.006,0,1,1-1.016.978A1.019,1.019,0,0,1,96,2.017m-4.014,0a1.005,1.005,0,1,1-1.028.965,1.012,1.012,0,0,1,1.028-.965" transform="translate(-59.751 -0.001)" fill="#c70a50"/>
        <path id="Trazado_602110" data-name="Trazado 602110" d="M103.242,34.7q-15.263-.006-30.526,0a1.173,1.173,0,0,0-.837.189c.251.005.5.014.754.014q12.673,0,25.346,0c2.033,0,4.067-.009,6.1-.014a1.172,1.172,0,0,0-.837-.189" transform="translate(-59.791 -28.859)" fill="#c70a50"/>
        <path id="Trazado_602111" data-name="Trazado 602111" d="M11.881,252.714q-.011-5.278,0-10.555a.985.985,0,0,1,.217-.821,2.064,2.064,0,0,0-2.308-1.9q-3.8,0-7.6,0A2.015,2.015,0,0,0,0,241.634Q0,247.479,0,253.324a2.031,2.031,0,0,0,2.228,2.218q3.771.005,7.542,0a2.066,2.066,0,0,0,2.33-2.01c-.256-.223-.221-.531-.222-.819M6,252.522a2.013,2.013,0,1,1,2.054-2,2.033,2.033,0,0,1-2.054,2" transform="translate(-0.001 -199.168)" fill="#00325a"/>
        <path id="Trazado_602112" data-name="Trazado 602112" d="M70.615,251.569q-.01,5.278,0,10.555c0,.287-.034.6.221.819q0-6.1,0-12.2a.984.984,0,0,0-.217.821" transform="translate(-58.735 -208.579)" fill="#00325a"/>
        <path id="Trazado_602113" data-name="Trazado 602113" d="M122.088,59.373c-.018-.4-.057-.793-.062-1.19a2.251,2.251,0,0,1,.723-1.744c.5-.472,1.037-.917,1.511-1.419a1.616,1.616,0,0,0,0-2.582,7.972,7.972,0,0,0-1.018-.933,3.112,3.112,0,0,1-1.193-3.172,6.474,6.474,0,0,0,.061-.813c.013-1.146-.191-1.581-1.05-1.926l-.1,0c-.126,0-.251.006-.377.011h-1.013a2.456,2.456,0,0,1-1.064-.056,2.81,2.81,0,0,1-2.325-1.1,6.026,6.026,0,0,0-1.725-1.639,3.215,3.215,0,0,0-2.117.9,5.453,5.453,0,0,0-.48.582,3.369,3.369,0,0,1-3.611,1.337,1.616,1.616,0,0,0-.187-.024c-1.825-.165-2.623.637-2.31,2.445a3.618,3.618,0,0,1-1.529,3.844,3.806,3.806,0,0,0-1.08,1.21,1.166,1.166,0,0,0,0,1.251,3.551,3.551,0,0,0,.983,1.131,3.607,3.607,0,0,1,1.6,3.985,3.553,3.553,0,0,0,.474,2.286,4.538,4.538,0,0,0,1.589.277c.27-.031.54-.056.809-.093a3.038,3.038,0,0,1,3.033,1.225,6.164,6.164,0,0,0,1.224,1.254,1.442,1.442,0,0,0,1.953,0,5.289,5.289,0,0,0,1.141-1.16,3.171,3.171,0,0,1,3.3-1.3c.206.033.414.052.621.077a4.591,4.591,0,0,0,1.591-.277,2.682,2.682,0,0,0,.627-2.389m-8.281,2.412a8.053,8.053,0,1,1,8.073-8,8.068,8.068,0,0,1-8.073,8" transform="translate(-85.64 -35.611)" fill="#f9b300"/>
        <path id="Trazado_602114" data-name="Trazado 602114" d="M195.391,58.55a2.456,2.456,0,0,0,1.064.056h1.013c.126-.005.251-.01.377-.011l.1,0c-.134-.053-.282-.1-.449-.156h0l-1.1,0a5.3,5.3,0,0,1-1.008.105" transform="translate(-162.531 -48.612)" fill="#f9b300"/>
        <path id="Trazado_602115" data-name="Trazado 602115" d="M104.717,58.705a3.607,3.607,0,0,0-1.6-3.985,3.555,3.555,0,0,1-.983-1.131,1.166,1.166,0,0,1,0-1.251,3.811,3.811,0,0,1,1.08-1.211,3.618,3.618,0,0,0,1.529-3.844c-.313-1.807.485-2.61,2.31-2.445a1.591,1.591,0,0,1,.187.024,3.37,3.37,0,0,0,3.611-1.337,5.454,5.454,0,0,1,.48-.582,2.386,2.386,0,0,1,1.869-.883c.085-.011.167-.016.248-.019-.086-.046-.172-.091-.264-.13h0a1.86,1.86,0,0,0-1.684.656c-.443.444-.865.912-1.283,1.381a2.385,2.385,0,0,1-1.96.812c-.607-.021-1.213-.077-1.819-.074-1.316.006-1.884.569-1.889,1.876,0,.585.054,1.17.081,1.756a2.474,2.474,0,0,1-.852,2.071c-.47.416-.945.831-1.379,1.283a1.608,1.608,0,0,0,0,2.578c.448.468.941.894,1.423,1.328a2.4,2.4,0,0,1,.81,1.962c-.021.607-.069,1.212-.082,1.819a1.973,1.973,0,0,0,.649,1.632,3.555,3.555,0,0,1-.474-2.286" transform="translate(-84.634 -34.841)" fill="#f9b300"/>
        <path id="Trazado_602116" data-name="Trazado 602116" d="M141.866,162.223a3.7,3.7,0,0,0-2.246,1.578c-.1.109-.169.238-.268.344-1.2,1.288-2.384,1.223-3.414-.214a3.682,3.682,0,0,0-4.244-1.605c-.007,2.7-.008,5.4-.027,8.1,0,.547.1,1,.663,1.222.544.217.914-.068,1.271-.428,1.24-1.248,2.5-2.479,3.723-3.741.305-.314.47-.322.779,0,1.269,1.307,2.568,2.586,3.856,3.875a1.015,1.015,0,0,0,1.792-.673q-.007-4.178-.02-8.355a7.253,7.253,0,0,0-1.865-.1" transform="translate(-109.524 -134.896)" fill="#0a5078"/>
        <path id="Trazado_602117" data-name="Trazado 602117" d="M213.789,74.818a3.071,3.071,0,0,0,.109-1.552,3.517,3.517,0,0,1,1.5-3.844,3.949,3.949,0,0,0,1.087-1.2,1.2,1.2,0,0,0-.009-1.306,3.823,3.823,0,0,0-1.043-1.159,3.533,3.533,0,0,1-1.53-3.89,1.882,1.882,0,0,0,.033-.312c.076-1.387-.387-2-1.62-2.1.685.253.92.748.957,1.762.02.549-.125,1.08-.134,1.627a2.541,2.541,0,0,0,.826,2.026,10.014,10.014,0,0,0,.791.717,2.007,2.007,0,0,1,.241.2c1.354,1.375,1.372,2.227-.043,3.612-.253.248-.535.47-.807.7a2.866,2.866,0,0,0-.95,2.895,4.339,4.339,0,0,1-.087,1.867.913.913,0,0,1-.679.747l1.042.016h0c-.051-.327.233-.523.316-.8" transform="translate(-176.611 -49.452)" fill="#d1d1d1"/>
        <path id="Trazado_602118" data-name="Trazado 602118" d="M210.406,72.171a2.991,2.991,0,0,1,.547-2.662c.352-.382.756-.719,1.142-1.07,1.521-1.385,1.5-2.165.043-3.572a2.059,2.059,0,0,0-.209-.138,3.412,3.412,0,0,1-1.562-3.511c.394-2.3-.416-3.01-2.426-2.866h0a3.506,3.506,0,0,1,.736.17c1.233.1,1.7.713,1.62,2.1a1.883,1.883,0,0,1-.033.312,3.533,3.533,0,0,0,1.53,3.89,3.821,3.821,0,0,1,1.043,1.159,1.2,1.2,0,0,1,.009,1.306,3.949,3.949,0,0,1-1.087,1.2,3.517,3.517,0,0,0-1.5,3.844,3.07,3.07,0,0,1-.109,1.552c-.083.277-.367.473-.316.8a2.775,2.775,0,0,0,.573-2.519" transform="translate(-172.97 -48.524)" fill="#d1d1d1"/>
        <path id="Trazado_602119" data-name="Trazado 602119" d="M211.69,74.79a4.339,4.339,0,0,0,.087-1.867,2.866,2.866,0,0,1,.95-2.895c.272-.229.554-.451.807-.7,1.415-1.384,1.4-2.236.043-3.612a2.018,2.018,0,0,0-.241-.2,10.016,10.016,0,0,1-.791-.717,2.541,2.541,0,0,1-.826-2.026c.008-.547.153-1.077.134-1.627-.036-1.015-.271-1.509-.957-1.762q-.137-.011-.287-.013c.859.344,1.063.779,1.05,1.926a6.445,6.445,0,0,1-.061.813,3.112,3.112,0,0,0,1.193,3.172,7.948,7.948,0,0,1,1.018.933,1.616,1.616,0,0,1,0,2.582c-.474.5-1.006.946-1.511,1.419a2.251,2.251,0,0,0-.723,1.744c.005.4.044.793.062,1.19a2.681,2.681,0,0,1-.627,2.389.913.913,0,0,0,.679-.747" transform="translate(-175.19 -49.386)" fill="#d1d1d1"/>
        <path id="Trazado_602120" data-name="Trazado 602120" d="M208.678,58.611a3.5,3.5,0,0,0-.736-.17c.167.051.315.1.449.157q.15,0,.287.013" transform="translate(-172.971 -48.613)" fill="#d1d1d1"/>
        <path id="Trazado_602121" data-name="Trazado 602121" d="M143.238,157.24a3.193,3.193,0,0,0-3.427,1.433,4.023,4.023,0,0,1-1.364,1.183,1.411,1.411,0,0,1-1.436,0,4.027,4.027,0,0,1-1.364-1.183,3.193,3.193,0,0,0-3.427-1.433.561.561,0,0,1-.533-.1q.012.5.023,1a3.02,3.02,0,0,1,3.281.383,9.183,9.183,0,0,1,1.05,1.081c.052.065.1.133.156.2.988,1.16,1.973,1.19,3.016.065.4-.43.756-.9,1.192-1.292a3.124,3.124,0,0,1,3.342-.434l.023-1a.561.561,0,0,1-.533.1" transform="translate(-109.541 -130.716)" fill="#01325a"/>
        <path id="Trazado_602122" data-name="Trazado 602122" d="M139.847,157.7a5.29,5.29,0,0,1-1.141,1.16,1.442,1.442,0,0,1-1.953,0,6.17,6.17,0,0,1-1.224-1.254,3.038,3.038,0,0,0-3.033-1.225c-.269.037-.539.062-.809.093a.562.562,0,0,0,.533.1,3.193,3.193,0,0,1,3.427,1.433,4.026,4.026,0,0,0,1.364,1.183,1.411,1.411,0,0,0,1.436,0,4.025,4.025,0,0,0,1.364-1.183,3.193,3.193,0,0,1,3.427-1.433.562.562,0,0,0,.533-.1c-.207-.026-.415-.045-.621-.078a3.171,3.171,0,0,0-3.3,1.3" transform="translate(-109.541 -130.048)" fill="#01325a"/>
        <path id="Trazado_602123" data-name="Trazado 602123" d="M140.521,161.934c-.436.4-.794.863-1.192,1.293-1.043,1.126-2.028,1.1-3.016-.065-.054-.064-.1-.132-.156-.2a9.206,9.206,0,0,0-1.05-1.081,3.02,3.02,0,0,0-3.281-.383,3.681,3.681,0,0,1,4.244,1.605c1.03,1.438,2.214,1.5,3.414.214.1-.106.173-.235.268-.344A3.7,3.7,0,0,1,142,161.4a7.246,7.246,0,0,1,1.865.1,3.124,3.124,0,0,0-3.342.434" transform="translate(-109.656 -134.07)" fill="#01325a"/>
        <path id="Trazado_602124" data-name="Trazado 602124" d="M154.058,287.458c-2.491.008-4.982,0-7.472,0a2.362,2.362,0,0,0-.747.069.265.265,0,0,0-.2.215c-.015.148.084.226.212.269a1.92,1.92,0,0,0,.622.066c2.574,0,5.149-.013,7.723.008a6.332,6.332,0,0,0,2.677-.8l-1.861-.029c-.272.275-.625.2-.95.2" transform="translate(-121.142 -238.948)" fill="#d1a982"/>
        <path id="Trazado_602125" data-name="Trazado 602125" d="M143.791,287.779c0,.438.35.5.718.5,2.826,0,5.651.019,8.477-.015a3.079,3.079,0,0,0,2.35-.977,6.332,6.332,0,0,1-2.677.8c-2.574-.021-5.149-.006-7.723-.008a1.919,1.919,0,0,1-.621-.066c-.129-.043-.228-.121-.212-.269a.264.264,0,0,1,.2-.215,2.362,2.362,0,0,1,.747-.069c2.491,0,4.981,0,7.472,0,.325,0,.678.074.95-.2q-4.458.006-8.916.01c-.381,0-.768.028-.768.512" transform="translate(-119.609 -238.948)" fill="#d1a982"/>
        <path id="Trazado_602126" data-name="Trazado 602126" d="M173.638,43.827a3.85,3.85,0,0,0,2.18,1.583c.047.01.094.018.14.026a4.572,4.572,0,0,1-1.573-1.405,2.7,2.7,0,0,0-1.957-1.209,3.143,3.143,0,0,1,1.208,1.005" transform="translate(-143.432 -35.62)" fill="#d2d2d0"/>
        <path id="Trazado_602127" data-name="Trazado 602127" d="M172.144,43.166a4.574,4.574,0,0,0,1.573,1.406,4.336,4.336,0,0,0,1.34.016,2.362,2.362,0,0,1-2.332-1.008c-.164-.213-.34-.419-.518-.621a2.542,2.542,0,0,0-2.473-1.134h0a2.052,2.052,0,0,1,.453.132,2.7,2.7,0,0,1,1.957,1.209" transform="translate(-141.189 -34.755)" fill="#d2d2d0"/>
        <path id="Trazado_602128" data-name="Trazado 602128" d="M174.884,45.4a3.851,3.851,0,0,1-2.18-1.583,3.143,3.143,0,0,0-1.208-1.005c-.062,0-.125,0-.189,0a6.031,6.031,0,0,1,1.725,1.639,2.81,2.81,0,0,0,2.325,1.1,2.317,2.317,0,0,1-.332-.122c-.047-.008-.094-.016-.14-.026" transform="translate(-142.497 -35.605)" fill="#d2d2d0"/>
        <path id="Trazado_602129" data-name="Trazado 602129" d="M193.415,58.369a2.328,2.328,0,0,0,.332.122,5.3,5.3,0,0,0,1.008-.105,4.335,4.335,0,0,1-1.34-.016" transform="translate(-160.887 -48.553)" fill="#d2d2d0"/>
        <path id="Trazado_602130" data-name="Trazado 602130" d="M170.188,42.168a2.061,2.061,0,0,0-.453-.132c.092.039.179.084.264.13q.1,0,.189,0" transform="translate(-141.19 -34.967)" fill="#d2d2d0"/>
        <path id="Trazado_602131" data-name="Trazado 602131" d="M186.528,14a1.005,1.005,0,1,0-.95-1.044,1.013,1.013,0,0,0,.95,1.044" transform="translate(-154.368 -9.971)" fill="#02143c"/>
        <path id="Trazado_602132" data-name="Trazado 602132" d="M210.483,14a1.006,1.006,0,1,0-.962-1.032A1.021,1.021,0,0,0,210.483,14" transform="translate(-174.285 -9.97)" fill="#029ec6"/>
        <path id="Trazado_602133" data-name="Trazado 602133" d="M234.454,13.993a1.005,1.005,0,1,0-.99-1.066,1.013,1.013,0,0,0,.99,1.066" transform="translate(-194.2 -9.967)" fill="#f9b201"/>
        <path id="Trazado_602134" data-name="Trazado 602134" d="M26.007,293.318a2.013,2.013,0,1,0,1.973,2.021,2.02,2.02,0,0,0-1.973-2.021" transform="translate(-19.926 -243.989)" fill="#efefef"/>
        <path id="Trazado_602135" data-name="Trazado 602135" d="M127.8,59.868a8.053,8.053,0,1,0,8.033,8.1,8.058,8.058,0,0,0-8.033-8.1m1.609,13.859A6.036,6.036,0,1,1,128.256,61.9a5.029,5.029,0,0,1,3.921,2.032,1.351,1.351,0,0,1,.655.837,4.843,4.843,0,0,1,.952,3.839,5.943,5.943,0,0,1-4.375,5.119" transform="translate(-99.593 -49.8)" fill="#0081a9"/>
        <path id="Trazado_602136" data-name="Trazado 602136" d="M142.783,74.73a1.435,1.435,0,0,1-.5,1.041q-2.833,2.815-5.653,5.645c-.68.678-1.136.674-1.82,0-.566-.561-1.133-1.121-1.689-1.691a1.018,1.018,0,0,1-.112-1.548c.44-.43,1-.371,1.553.138.4.363.726,1.069,1.185,1.012.432-.054.8-.676,1.184-1.059,1.308-1.3,2.618-2.6,3.911-3.917a1.285,1.285,0,0,1,1.288-.455,5.029,5.029,0,0,0-3.921-2.031,6.036,6.036,0,1,0,1.154,11.826,5.943,5.943,0,0,0,4.375-5.119,4.843,4.843,0,0,0-.952-3.839" transform="translate(-109.544 -59.76)" fill="#009fc7"/>
        <path id="Trazado_602137" data-name="Trazado 602137" d="M146.207,85.1c-1.349,1.374-2.715,2.73-4.081,4.086-.555.551-.681.547-1.233.015-.256-.247-.489-.518-.766-.743a.889.889,0,0,0-1.247-.01.849.849,0,0,0,.018,1.194,26.061,26.061,0,0,0,2,2c.43.384.867.334,1.342-.109.566-.528,1.1-1.089,1.648-1.636q1.644-1.641,3.284-3.285a5.368,5.368,0,0,0,1.4-1.734,1.352,1.352,0,0,0-.655-.837,2.931,2.931,0,0,0-1.706,1.064" transform="translate(-115.328 -69.904)" fill="#efefef"/>
        <path id="Trazado_602138" data-name="Trazado 602138" d="M145.825,84.309c-1.294,1.316-2.6,2.615-3.911,3.917-.385.383-.752,1.006-1.184,1.059-.459.057-.79-.649-1.186-1.012-.553-.509-1.113-.568-1.553-.138a1.018,1.018,0,0,0,.112,1.548c.556.57,1.123,1.13,1.689,1.691.684.677,1.14.681,1.82,0q2.829-2.82,5.653-5.645a1.435,1.435,0,0,0,.5-1.04,5.368,5.368,0,0,1-1.4,1.734q-1.639,1.646-3.284,3.285c-.548.547-1.082,1.108-1.648,1.636-.475.443-.912.493-1.342.109a26.057,26.057,0,0,1-2-2,.849.849,0,0,1-.018-1.194.889.889,0,0,1,1.247.01c.276.225.509.5.766.743.552.531.678.536,1.233-.015,1.366-1.357,2.732-2.713,4.081-4.086a2.931,2.931,0,0,1,1.706-1.064,1.285,1.285,0,0,0-1.288.455" transform="translate(-114.529 -69.722)" fill="#efefef"/>
      </g>
    </g>
  </g>
</svg>
